<svg width="189" height="24" viewBox="0 0 189 24" fill="none" xmlns="http://www.w3.org/2000/svg">
<path d="M30.9051 23.9881C34.5992 24.1864 37.9269 21.8021 38.8762 18.2783C39.7089 14.4822 37.8592 11.931 33.6385 9.50078C32.3176 8.74115 32.252 8.07333 32.3748 7.52656C32.4373 7.04031 32.9296 6.58536 33.8841 6.58536C34.9769 6.73448 35.9703 7.29988 36.6581 8.16412L40.9101 4.45984C40.0077 3.37697 38.8756 2.50966 37.5964 1.92117C36.3171 1.33268 34.923 1.03785 33.5156 1.05817C30.0672 0.848439 26.9373 3.03552 25.9973 6.31198C25.1959 9.86495 27.0143 12.6593 31.0196 14.9894C32.4977 15.87 32.6527 16.5994 32.5289 17.2672C32.4421 17.6271 32.23 17.9442 31.9308 18.1613C31.6316 18.3784 31.2649 18.4813 30.8968 18.4516C28.7401 18.4516 27.0455 15.9921 27.0455 15.9921L22.6082 19.3416C24.3402 22.233 27.4983 24.0027 30.9051 23.9881ZM53.5953 1.05087C54.5697 1.00366 55.5421 1.17815 56.4396 1.56125C57.3372 1.94436 58.1365 2.52614 58.7779 3.263C59.4086 3.98895 59.8606 4.85318 60.0974 5.78616C60.3343 6.71914 60.3493 7.69483 60.1414 8.63471C59.4649 12.5122 55.8749 15.2398 51.8706 14.9195H49.309L47.5457 22.9562H40.9101L45.7242 1.05087H53.5953ZM52.5461 6.47998H51.1649L50.4862 9.65208H51.9986C52.9115 9.69382 53.7098 9.05731 53.8503 8.17246L53.841 8.18081C53.8941 7.97173 53.8963 7.75291 53.8474 7.54281C53.7984 7.3327 53.6999 7.13746 53.5599 6.97353C53.4176 6.80716 53.2387 6.67611 53.0373 6.59066C52.836 6.50521 52.6176 6.46768 52.3994 6.48102L52.5461 6.47998ZM67.8044 23.985C72.6799 24.2584 76.9392 20.7399 77.5627 15.9243L80.7426 1.04357H74.0393L71.0156 15.1803C70.7345 16.5754 70.0496 17.2881 68.864 17.2881C67.2746 17.2881 66.8604 16.3281 67.1497 15.1177L70.1423 1.04357H63.439L60.5453 14.7462C59.2702 20.792 62.9092 23.985 67.8044 23.985ZM94.6821 1.04983C95.6308 1.00545 96.5772 1.1769 97.4504 1.55133C98.3236 1.92576 99.101 2.49345 99.7242 3.21187C100.338 3.92081 100.779 4.7638 101.01 5.67362C101.242 6.58344 101.258 7.5349 101.058 8.45211C100.631 10.8896 98.9727 12.9494 96.6557 13.9198L100.376 22.9562H93.3623L90.2626 14.6169L88.4379 22.9562H81.8199L86.5466 1.04983H94.6821ZM93.3321 6.48832H92.4973L91.6355 10.4472H92.7784C93.914 10.514 94.9205 9.73452 95.1183 8.63367C95.1958 8.37153 95.2073 8.0942 95.1517 7.82652C95.0961 7.55884 94.9752 7.30915 94.7998 7.09979C94.4427 6.67197 93.8942 6.44241 93.3321 6.48832Z" fill="#2FACD6"/>
<path d="M119.5 1.04376H102.554L101.198 7.17929H106.343L102.923 22.9564H109.548L112.967 7.17929H118.143L119.5 1.04376Z" fill="#2FACD6"/>
<path d="M131.397 23.9828C135.061 24.1779 138.593 22.6169 140.883 19.7923L136.079 15.9952C135.563 16.5717 134.932 17.0323 134.226 17.3465C133.52 17.6607 132.755 17.8214 131.983 17.8181C131.241 17.8102 130.511 17.6339 129.847 17.3024C129.182 16.971 128.602 16.493 128.148 15.9044C127.701 15.3215 127.394 14.6424 127.252 13.9205C127.111 13.1986 127.138 12.4536 127.332 11.7441C127.766 9.13025 130.058 7.21342 132.744 7.21864C134.784 7.23429 136.594 8.50939 137.272 10.4074L143.184 7.82593C141.689 3.73453 137.738 1.01946 133.329 1.05389C127.207 0.813896 121.856 5.08998 120.825 11.045C120.48 12.6047 120.495 14.2225 120.866 15.7759C121.238 17.3294 121.957 18.7778 122.969 20.0114C123.993 21.2573 125.28 22.2599 126.738 22.9466C128.195 23.6334 129.787 23.9873 131.397 23.9828ZM143.184 23.9995H149.493L151.699 15.8637L155.154 23.4047L161.614 16.5837L160.525 23.9995H166.803L170.097 0L157.013 13.0484L150.048 0L143.184 23.9995ZM178.381 23.988C182.081 24.1905 185.415 21.8051 186.365 18.2782C187.198 14.4811 185.348 11.9298 181.125 9.50068C179.803 8.74104 179.738 8.07323 179.862 7.52646C179.923 7.0402 180.416 6.58526 181.371 6.58526C182.464 6.73432 183.458 7.29971 184.146 8.16401L188.4 4.45974C187.497 3.37666 186.364 2.50925 185.084 1.92077C183.804 1.33229 182.409 1.03756 181.001 1.05807C177.553 0.848331 174.421 3.03542 173.48 6.31187C172.678 9.86484 174.498 12.6592 178.505 14.9893C179.984 15.8699 180.14 16.5983 180.015 17.2671C179.928 17.6272 179.716 17.9444 179.416 18.1615C179.117 18.3786 178.75 18.4815 178.381 18.4515C176.224 18.4515 174.528 15.991 174.528 15.991L170.098 19.3405C171.827 22.2277 174.98 23.9953 178.381 23.988Z" fill="#2FACD6"/>
<path d="M19.7424 13.3356H8.16365C7.95841 13.3033 7.77132 13.1989 7.6359 13.041C7.50048 12.883 7.42559 12.6819 7.42463 12.4737C7.42463 12.0469 7.73689 11.6827 8.16365 11.6128H19.7424C19.9475 11.645 20.1345 11.7493 20.2699 11.907C20.4053 12.0647 20.4803 12.2656 20.4815 12.4737C20.4803 12.6817 20.4053 12.8826 20.2699 13.0403C20.1345 13.198 19.9475 13.3034 19.7424 13.3356ZM21.6899 2.99595H8.28336C8.12594 3.00421 7.96921 2.96981 7.82965 2.89636C7.69008 2.82292 7.57282 2.71314 7.4902 2.57857C7.4088 2.44504 7.36573 2.29158 7.36573 2.1351C7.36573 1.97861 7.4088 1.82515 7.4902 1.69163C7.57282 1.55705 7.69008 1.44727 7.82965 1.37383C7.96921 1.30038 8.12594 1.26598 8.28336 1.27424H21.6899C21.8474 1.26598 22.0041 1.30038 22.1437 1.37383C22.2832 1.44727 22.4005 1.55705 22.4831 1.69163C22.6496 1.96501 22.6496 2.30518 22.4831 2.57857C22.4005 2.71314 22.2832 2.82292 22.1437 2.89636C22.0041 2.96981 21.8474 3.00421 21.6899 2.99595ZM18.2977 8.16523H0.830626C0.608387 8.15613 0.398164 8.06165 0.243524 7.90138C0.0888845 7.74112 0.00168582 7.52735 0 7.30438C0 6.84526 0.364309 6.46649 0.830626 6.44353H18.2967C18.5189 6.45264 18.7291 6.54711 18.8838 6.70738C19.0384 6.86765 19.1256 7.08141 19.1273 7.30438C19.1273 7.7635 18.763 8.14228 18.2977 8.16523Z" fill="#2FACD6"/>
</svg>
