<svg width="40" height="40" viewBox="0 0 40 40" fill="none" xmlns="http://www.w3.org/2000/svg">
<path d="M31.6452 11.5178C31.7344 6.88031 27.9077 3.32031 22.6461 3.32031H11.7644C11.5108 3.32039 11.2655 3.41101 11.0727 3.57584C10.8799 3.74068 10.7522 3.96892 10.7127 4.21948L6.35191 31.4661C6.3324 31.5896 6.33988 31.7158 6.37383 31.8361C6.40779 31.9564 6.46741 32.0679 6.54859 32.1629C6.62977 32.258 6.73058 32.3343 6.84408 32.3866C6.95759 32.439 7.08108 32.4661 7.20608 32.4661H13.6536L12.6452 38.7761C12.6257 38.8997 12.6332 39.026 12.6672 39.1463C12.7012 39.2667 12.7609 39.3782 12.8422 39.4733C12.9235 39.5683 13.0244 39.6446 13.138 39.6969C13.2516 39.7492 13.3752 39.7762 13.5002 39.7761H18.7519C19.0061 39.7761 19.2319 39.6845 19.4244 39.5203C19.6169 39.3553 19.6486 39.1278 19.6877 38.877L21.2294 29.8061C21.2686 29.5561 21.3961 29.2311 21.5894 29.0661C21.7819 28.9011 21.9502 28.8111 22.2036 28.8103H25.4186C30.5711 28.8103 34.9436 25.1486 35.7427 20.0545C36.3077 16.4378 34.7569 13.1486 31.6452 11.5178Z" fill="#001C64"/>
<path d="M15.0466 22.4156L13.4408 32.599L12.4325 38.9856C12.413 39.1092 12.4205 39.2354 12.4545 39.3558C12.4885 39.4761 12.5482 39.5877 12.6294 39.6827C12.7107 39.7778 12.8116 39.8541 12.9252 39.9064C13.0388 39.9587 13.1624 39.9857 13.2875 39.9856H18.8458C19.0993 39.9853 19.3444 39.8946 19.537 39.7298C19.7297 39.565 19.8572 39.3369 19.8966 39.0865L21.3616 29.8031C21.4011 29.5528 21.5287 29.3248 21.7213 29.1601C21.914 28.9954 22.159 28.9049 22.4125 28.9048H25.685C30.8375 28.9048 35.2091 25.1465 36.0083 20.0523C36.575 16.4365 34.755 13.1473 31.6433 11.5156C31.635 11.9006 31.6016 12.2848 31.5425 12.6656C30.7433 17.759 26.3708 21.5181 21.2183 21.5181H16.0975C15.8442 21.5182 15.5992 21.6086 15.4066 21.7731C15.2139 21.9376 15.0863 22.1654 15.0466 22.4156Z" fill="#0070E0"/>
<path d="M13.4385 32.6008H6.97184C6.84681 32.6009 6.72324 32.5739 6.60967 32.5216C6.49609 32.4693 6.39522 32.393 6.31401 32.2979C6.2328 32.2028 6.17319 32.0912 6.1393 31.9709C6.1054 31.8505 6.09802 31.7243 6.11768 31.6008L10.4777 3.94911C10.5172 3.69863 10.6449 3.4705 10.8377 3.3058C11.0305 3.1411 11.2758 3.05066 11.5293 3.05078H22.6435C27.9043 3.05078 31.731 6.87995 31.6418 11.5174C30.3327 10.8308 28.7943 10.4383 27.1085 10.4383H17.8427C17.5893 10.4385 17.3443 10.5291 17.1517 10.6938C16.9591 10.8584 16.8315 11.0863 16.7918 11.3366L15.046 22.4174L13.4385 32.6008Z" fill="#003087"/>
</svg>
