<svg width="25" height="24" viewBox="0 0 25 24" fill="none" xmlns="http://www.w3.org/2000/svg">
<path fill-rule="evenodd" clip-rule="evenodd" d="M15.25 8C15.25 9.65685 13.9069 11 12.25 11C10.5931 11 9.25 9.65685 9.25 8C9.25 6.34315 10.5931 5 12.25 5C13.0456 5 13.8087 5.31607 14.3713 5.87868C14.9339 6.44129 15.25 7.20435 15.25 8Z" stroke="#213847" stroke-width="1.5" stroke-linecap="round" stroke-linejoin="round"/>
<path fill-rule="evenodd" clip-rule="evenodd" d="M15.75 14H8.75C7.36929 14 6.25 15.1193 6.25 16.5C6.25 17.8807 7.36929 19 8.75 19H15.75C17.1307 19 18.25 17.8807 18.25 16.5C18.25 15.1193 17.1307 14 15.75 14V14Z" stroke="#213847" stroke-width="1.5" stroke-linecap="round" stroke-linejoin="round"/>
</svg> 