<svg width="20" height="20" viewBox="0 0 20 20" fill="none" xmlns="http://www.w3.org/2000/svg">
<path d="M19.8296 19.0071L15.2853 14.4628C16.68 12.8723 17.4496 10.8599 17.4496 8.72479C17.4496 6.39421 16.5419 4.20335 14.8941 2.55552C13.2462 0.907697 11.0554 0 8.72479 0C6.39421 0 4.20335 0.907697 2.55552 2.55552C0.907697 4.20335 0 6.39421 0 8.72479C0 11.0554 0.907697 13.2462 2.55552 14.8941C4.20335 16.5419 6.39421 17.4496 8.72479 17.4496C10.8599 17.4496 12.8723 16.68 14.4628 15.2853L19.0071 19.8296C19.1207 19.9432 19.2695 20 19.4183 20C19.5672 20 19.716 19.9432 19.8296 19.8296C20.0568 19.6024 20.0568 19.2343 19.8296 19.0071ZM3.37802 14.0716C1.95001 12.6433 1.16331 10.7444 1.16331 8.72479C1.16331 6.7052 1.95001 4.8063 3.37802 3.37802C4.8063 1.95001 6.7052 1.16331 8.72479 1.16331C10.7444 1.16331 12.6433 1.95001 14.0716 3.37802C15.4996 4.8063 16.2863 6.7052 16.2863 8.72479C16.2863 10.7444 15.4996 12.6433 14.0716 14.0716C12.6433 15.4996 10.7444 16.2863 8.72479 16.2863C6.7052 16.2863 4.8063 15.4996 3.37802 14.0716Z" fill="white"/>
</svg>
