<svg width="27" height="30" viewBox="0 0 24 24" fill="none" xmlns="http://www.w3.org/2000/svg">
<path fill-rule="evenodd" clip-rule="evenodd" d="M19 12.5C19 14.985 15.866 17 12 17C8.134 17 5 14.985 5 12.5C5 10.015 8.134 8 12 8C15.866 8 19 10.015 19 12.5Z" stroke="#828EA5" stroke-width="1.5" stroke-linecap="round" stroke-linejoin="round"/>
<path fill-rule="evenodd" clip-rule="evenodd" d="M13.751 12.4996C13.7726 13.1389 13.4439 13.7392 12.8935 14.0652C12.3432 14.3913 11.6588 14.3913 11.1085 14.0652C10.5581 13.7392 10.2294 13.1389 10.251 12.4996C10.2294 11.8603 10.5581 11.2601 11.1085 10.934C11.6588 10.6079 12.3432 10.6079 12.8935 10.934C13.4439 11.2601 13.7726 11.8603 13.751 12.4996V12.4996Z" stroke="#828EA5" stroke-width="1.5" stroke-linecap="round" stroke-linejoin="round"/>
</svg>