<svg width="234" height="30" viewBox="0 0 234 30" fill="none" xmlns="http://www.w3.org/2000/svg">
<path d="M38.3851 29.9852C42.9733 30.233 47.1064 27.2526 48.2855 22.8479C49.3197 18.1028 47.0224 14.9137 41.78 11.876C40.1395 10.9264 40.058 10.0917 40.2106 9.4082C40.2881 8.80039 40.8996 8.23171 42.0851 8.23171C43.4424 8.4181 44.6763 9.12485 45.5305 10.2051L50.8117 5.5748C49.6909 4.22122 48.2848 3.13708 46.6959 2.40146C45.1071 1.66585 43.3755 1.29731 41.6275 1.32272C37.3444 1.06055 33.4569 3.7944 32.2895 7.88997C31.294 12.3312 33.5525 15.8242 38.5273 18.7367C40.3631 19.8376 40.5557 20.7493 40.4019 21.584C40.2941 22.0339 40.0307 22.4302 39.659 22.7016C39.2874 22.973 38.832 23.1016 38.3748 23.0644C35.696 23.0644 33.5913 19.9902 33.5913 19.9902L28.08 24.177C30.2313 27.7913 34.1537 30.0034 38.3851 29.9852ZM66.5672 1.31359C67.7774 1.25458 68.9852 1.47269 70.0999 1.95157C71.2147 2.43045 72.2076 3.15767 73.0042 4.07875C73.7876 4.98618 74.3489 6.06647 74.6431 7.2327C74.9372 8.39893 74.956 9.61853 74.6977 10.7934C73.8574 15.6402 69.3985 19.0497 64.425 18.6493H61.2434L59.0534 28.6952H50.8117L56.7909 1.31359H66.5672ZM65.2641 8.09997H63.5485L62.7056 12.0651H64.584C65.7178 12.1173 66.7094 11.3216 66.884 10.2156L66.8723 10.226C66.9383 9.96466 66.941 9.69114 66.8802 9.42851C66.8195 9.16587 66.6971 8.92182 66.5233 8.71691C66.3464 8.50895 66.1243 8.34513 65.8742 8.23832C65.6241 8.13151 65.3529 8.0846 65.0818 8.10127L65.2641 8.09997ZM84.2155 29.9813C90.271 30.323 95.5612 25.9248 96.3356 19.9054L100.285 1.30446H91.9594L88.2038 18.9754C87.8547 20.7193 87.0041 21.6101 85.5315 21.6101C83.5574 21.6101 83.0429 20.4102 83.4023 18.8971L87.1191 1.30446H78.7934L75.1994 18.4328C73.6157 25.99 78.1353 29.9813 84.2155 29.9813ZM117.599 1.31228C118.777 1.25681 119.952 1.47113 121.037 1.93916C122.121 2.4072 123.087 3.11682 123.861 4.01484C124.624 4.90101 125.171 5.95475 125.458 7.09202C125.746 8.22929 125.766 9.41862 125.517 10.5651C124.987 13.612 122.928 16.1868 120.05 17.3998L124.67 28.6952H115.959L112.109 18.2711L109.843 28.6952H101.623L107.494 1.31228H117.599ZM115.922 8.1104H114.885L113.815 13.059H115.234C116.644 13.1425 117.895 12.1681 118.14 10.7921C118.237 10.4644 118.251 10.1178 118.182 9.78315C118.113 9.44855 117.963 9.13643 117.745 8.87474C117.301 8.33996 116.62 8.05301 115.922 8.1104Z" fill="#2FACD6"/>
<path d="M148.423 1.30469H127.376L125.691 8.9741H132.082L127.835 28.6954H136.062L140.309 8.9741H146.738L148.423 1.30469Z" fill="#2FACD6"/>
<path d="M163.2 29.9785C167.751 30.2224 172.137 28.2712 174.982 24.7404L169.015 19.9939C168.375 20.7147 167.59 21.2904 166.714 21.6831C165.837 22.0759 164.887 22.2768 163.928 22.2726C163.007 22.2627 162.099 22.0424 161.275 21.628C160.45 21.2137 159.728 20.6163 159.165 19.8805C158.609 19.1519 158.228 18.303 158.052 17.4006C157.876 16.4982 157.91 15.567 158.152 14.6801C158.691 11.4128 161.538 9.01677 164.873 9.0233C167.407 9.04286 169.655 10.6367 170.497 13.0093L177.84 9.78241C175.984 4.66817 171.076 1.27432 165.6 1.31736C157.997 1.01737 151.35 6.36248 150.069 13.8062C149.641 15.7559 149.659 17.7781 150.12 19.7199C150.582 21.6617 151.475 23.4722 152.732 25.0143C154.004 26.5717 155.603 27.8248 157.413 28.6833C159.223 29.5418 161.2 29.9841 163.2 29.9785ZM177.84 29.9994H185.676L188.417 19.8296L192.707 29.2559L200.731 20.7296L199.378 29.9994H207.175L211.267 0L195.016 16.3105L186.365 0L177.84 29.9994ZM221.557 29.985C226.151 30.2381 230.292 27.2564 231.473 22.8478C232.507 18.1014 230.209 14.9123 224.965 11.8758C223.323 10.9263 223.241 10.0915 223.395 9.40807C223.471 8.80026 224.084 8.23157 225.27 8.23157C226.627 8.4179 227.862 9.12463 228.716 10.205L234 5.57467C232.878 4.22082 231.471 3.13657 229.882 2.40097C228.292 1.66536 226.559 1.29695 224.811 1.32258C220.528 1.06041 216.637 3.79427 215.469 7.88984C214.473 12.3311 216.733 15.824 221.71 18.7366C223.548 19.8374 223.74 20.7478 223.585 21.5839C223.477 22.034 223.214 22.4305 222.842 22.7019C222.47 22.9733 222.014 23.1018 221.557 23.0643C218.877 23.0643 216.771 19.9887 216.771 19.9887L211.268 24.1756C213.416 27.7847 217.332 29.9942 221.557 29.985Z" fill="#2FACD6"/>
<path d="M24.5209 16.6694H10.1396C9.88465 16.6291 9.65228 16.4986 9.48408 16.3012C9.31589 16.1037 9.22286 15.8524 9.22167 15.592C9.22167 15.0586 9.60951 14.6034 10.1396 14.516H24.5209C24.7756 14.5562 25.0078 14.6866 25.1759 14.8837C25.3441 15.0809 25.4373 15.3319 25.4388 15.592C25.4373 15.8521 25.3441 16.1032 25.1759 16.3003C25.0078 16.4975 24.7756 16.6292 24.5209 16.6694ZM26.9397 3.74488H10.2882C10.0927 3.75521 9.89807 3.71221 9.72472 3.6204C9.55137 3.52859 9.40573 3.39137 9.30311 3.22315C9.20201 3.05624 9.14851 2.86443 9.14851 2.66882C9.14851 2.47321 9.20201 2.28139 9.30311 2.11448C9.40573 1.94626 9.55137 1.80904 9.72472 1.71723C9.89807 1.62542 10.0927 1.58242 10.2882 1.59275H26.9397C27.1352 1.58242 27.3299 1.62542 27.5033 1.71723C27.6766 1.80904 27.8222 1.94626 27.9249 2.11448C28.1317 2.45621 28.1317 2.88142 27.9249 3.22315C27.8222 3.39137 27.6766 3.52859 27.5033 3.6204C27.3299 3.71221 27.1352 3.75521 26.9397 3.74488ZM22.7264 10.2065H1.03167C0.75564 10.1951 0.494534 10.077 0.302466 9.87668C0.110398 9.67634 0.00209385 9.40913 0 9.13042C0 8.55652 0.452486 8.08305 1.03167 8.05436H22.7251C23.0012 8.06574 23.2623 8.18384 23.4543 8.38417C23.6464 8.5845 23.7547 8.85171 23.7568 9.13042C23.7568 9.70432 23.3043 10.1778 22.7264 10.2065Z" fill="#2FACD6"/>
</svg>
