<svg width="402" height="466" viewBox="0 0 402 466" fill="none" xmlns="http://www.w3.org/2000/svg">
<mask id="mask0_108_420" style="mask-type:alpha" maskUnits="userSpaceOnUse" x="0" y="0" width="402" height="466">
<path d="M0 0H402V466H0V0Z" fill="#004827"/>
</mask>
<g mask="url(#mask0_108_420)">
<path d="M141.247 379.205C131.337 379.205 124.047 384.545 121.077 393.835C117.017 406.565 130.317 418.175 141.977 415.775C147.307 414.685 150.977 411.165 154.647 407.425C161.077 400.825 161.507 392.915 155.457 385.975C151.847 381.825 147.517 378.975 141.247 379.205ZM161.247 395.735C161.337 403.075 157.247 408.065 152.107 412.555C149.21 415.114 145.676 416.841 141.877 417.555C135.877 418.725 130.627 416.675 125.957 413.055C122.593 410.442 120.239 406.744 119.296 402.59C118.354 398.436 118.881 394.084 120.787 390.275C124.787 381.975 131.627 378.645 140.537 377.585C147.607 376.745 159.807 384.585 160.847 392.155C161.017 393.345 161.117 394.545 161.247 395.735Z" fill="white" fill-opacity="0.3"/>
<path d="M153.947 416.795C154.437 417.215 154.947 417.615 155.407 418.035L170.837 431.935C172.537 433.634 174.351 435.214 176.267 436.665C178.058 437.971 180.102 438.89 182.267 439.365C184.377 439.725 185.447 437.655 184.137 435.915C181.746 432.69 179.172 429.605 176.427 426.675C171.007 421.005 165.427 415.535 159.857 409.995L153.977 416.795H153.947ZM139.627 420.595C142.517 420.945 146.837 419.205 150.627 416.545C158.957 410.655 162.787 402.355 162.627 392.155C162.557 386.715 154.547 376.205 149.067 375.515C147.878 375.39 146.708 375.132 145.577 374.745C137.677 371.955 130.377 372.995 123.887 378.315C121.087 380.605 118.647 383.315 115.997 385.805C113.827 387.805 114.877 390.625 114.187 393.005C111.707 401.485 116.007 412.475 122.467 416.595C127.077 419.535 132.337 420.205 139.627 420.595ZM164.297 393.775C164.187 398.245 163.457 402.595 161.087 406.485C160.237 407.895 160.577 408.685 161.637 409.765C168.997 417.195 176.297 424.695 183.637 432.185C184.247 432.815 184.637 433.615 185.247 434.295C186.577 435.935 187.247 437.795 185.887 439.565C184.527 441.335 182.247 441.565 180.137 440.765C178.998 440.356 177.941 439.746 177.017 438.965C171.517 434.125 166.137 429.175 160.737 424.375C158.447 422.375 156.097 420.375 153.657 418.535C153.296 418.383 152.909 418.304 152.517 418.304C152.125 418.304 151.738 418.383 151.377 418.535C147.527 419.785 143.767 421.955 139.857 422.265C134.239 422.77 128.589 421.733 123.517 419.265C118.697 416.845 115.847 412.545 113.987 407.585C112.357 403.255 111.387 398.895 112.437 394.175C112.987 391.725 112.297 389.035 114.027 386.775C121.397 377.145 129.567 370.315 142.147 372.365C145.607 372.925 149.457 373.365 152.227 375.245C155.727 377.575 158.437 381.165 161.227 384.415C163.405 387.058 164.509 390.425 164.317 393.845L164.297 393.775Z" fill="white" fill-opacity="0.3"/>
<path d="M146.737 385.825L137.317 382.755C137.917 381.925 138.367 380.645 139.217 380.255C141.077 379.395 146.697 380.695 147.217 382.175C147.607 383.255 146.917 384.735 146.737 385.825Z" fill="white" fill-opacity="0.3"/>
<path d="M150.287 387.985C149.477 386.915 148.527 386.085 148.667 385.755C149.181 384.984 149.824 384.308 150.567 383.755C151.147 384.395 152.127 384.995 152.197 385.685C152.267 386.375 151.197 386.935 150.287 388.025V387.985Z" fill="white" fill-opacity="0.3"/>
<path d="M81.75 318.312C81.66 318.982 81.28 320.082 81.53 320.252C82.3537 320.766 83.2842 321.084 84.25 321.182C84.69 321.232 85.25 320.622 85.69 320.322C83.35 320.502 83.35 320.502 81.75 318.322V318.312ZM29.08 318.882L28.47 319.122C28.89 320.032 29.1 321.202 29.8 321.742C30.34 322.162 31.56 321.952 32.34 321.652C32.66 321.532 32.63 320.462 32.75 319.822C30.75 321.282 29.97 321.082 29.08 318.882ZM85.28 315.952C86.17 318.322 88.28 320.362 85.47 322.302C84.7686 322.739 83.9415 322.93 83.1194 322.845C82.2974 322.76 81.527 322.404 80.93 321.832C79.73 320.472 80.01 319.132 82.01 316.622C80.16 316.622 79.01 317.322 78.83 318.622C78.5482 319.789 78.7319 321.021 79.3423 322.055C79.9528 323.089 80.9418 323.845 82.1 324.162C83.99 324.782 86.95 323.872 87.78 322.402C88.84 320.512 87.92 317.792 85.28 315.902V315.952ZM28.95 316.492C27.12 316.282 25.55 317.752 25.34 319.872C25.08 322.512 27.18 324.672 30.39 325.052C33.04 325.372 34.84 323.742 35.15 320.742C35.42 318.232 34.58 316.972 32.32 316.742C33.62 318.882 35.38 321.102 32.63 323.142C31.32 324.142 29.68 323.662 28.46 322.542C27.03 321.232 27.24 319.172 28.95 316.492ZM62.21 293.242C62.71 296.032 63.21 298.432 63.54 300.862C63.74 302.392 64.54 302.722 65.92 302.722C68.1 302.722 70.27 302.872 72.57 302.962C73.27 299.652 73.88 296.682 74.5 293.732L62.21 293.242ZM75.84 302.652C79.11 302.782 82.2 302.922 85.28 303.012C85.56 303.012 86.05 302.872 86.12 302.682C87.05 300.022 87.93 297.342 88.85 294.612C86.13 294.222 83.85 293.872 81.59 293.612C80.4931 293.404 79.3744 293.333 78.26 293.402C77.9393 293.482 77.6426 293.638 77.3954 293.858C77.1481 294.077 76.9576 294.353 76.84 294.662C76.41 297.242 76.17 299.852 75.84 302.662V302.652ZM45.41 302.652C44.57 299.872 43.69 297.332 43.06 294.742C43.0264 294.448 42.9302 294.165 42.778 293.912C42.6258 293.658 42.421 293.44 42.1775 293.273C41.934 293.105 41.6574 292.991 41.3663 292.939C41.0752 292.888 40.7764 292.899 40.49 292.972L29.92 293.892C29.92 294.182 29.75 294.472 29.82 294.682C30.67 297.082 31.47 299.492 32.46 301.832C32.65 302.282 33.58 302.622 34.19 302.662C37.44 302.842 40.7 302.922 43.96 302.992C44.4546 302.934 44.9411 302.82 45.41 302.652ZM48.41 303.012C51.82 302.952 55.41 302.912 59.01 302.752C59.31 302.752 59.86 301.892 59.82 301.472C59.59 299.112 59.28 296.762 58.82 294.472C58.73 293.992 58.07 293.262 57.65 293.242C53.43 293.112 49.2 293.112 44.65 293.072C45.96 296.542 47.12 299.622 48.41 303.072V303.012ZM37.52 276.552C36.79 273.552 36.14 271.002 35.52 268.412C34.92 265.972 34.64 265.812 32.12 266.332C31.3495 266.487 30.5659 266.568 29.78 266.572C27.2 266.622 24.62 266.622 22.04 266.642C22.93 269.742 23.76 272.762 24.71 275.732C24.8535 275.96 25.0486 276.152 25.2796 276.291C25.5107 276.43 25.7711 276.512 26.04 276.532C29.73 276.592 33.43 276.532 37.53 276.532L37.52 276.552ZM98.18 266.442C97.18 266.492 96.24 266.562 95.31 266.562C91.67 266.562 88.02 266.562 84.38 266.632C83.78 266.632 82.79 267.152 82.67 267.632C81.93 270.412 81.39 273.242 80.78 276.082C85.2 276.082 89.34 275.882 93.45 276.082C95.08 276.172 95.67 275.762 96.03 274.332C96.67 271.792 97.4 269.332 98.18 266.422V266.442ZM41.86 290.752C40.76 286.902 39.8 283.432 38.75 279.982C38.6746 279.748 38.5446 279.535 38.3707 279.361C38.1968 279.188 37.9841 279.057 37.75 278.982C34.34 278.912 30.92 278.922 27.5 278.982C26.21 278.982 25.92 279.862 26.19 280.862C27.01 284.022 27.91 287.172 28.85 290.302C28.97 290.692 29.52 291.302 29.85 291.252C33.79 291.142 37.71 290.942 41.9 290.752H41.86ZM37.35 266.162C38.35 269.622 39.23 272.682 40.19 275.702C40.29 276.012 40.98 276.312 41.39 276.322C45.86 276.402 50.33 276.432 54.79 276.442C56.11 276.442 56.68 275.742 56.5 274.442C56.21 272.312 55.84 270.172 55.68 268.032C55.59 266.742 54.96 266.552 53.9 266.522C49.69 266.392 45.48 266.192 41.27 266.052C40.16 266.052 39.06 266.122 37.35 266.192V266.162ZM94.45 279.002C94.06 278.792 93.73 278.482 93.4 278.462C89.51 278.262 85.61 278.042 81.72 278.022C81.3375 278.108 80.9821 278.287 80.6856 278.544C80.389 278.8 80.1604 279.126 80.02 279.492C79.02 283.342 78.28 287.252 77.37 291.492C81.54 291.492 85.37 291.492 89.15 291.352C89.4151 291.293 89.6622 291.171 89.8708 290.997C90.0795 290.823 90.2438 290.602 90.35 290.352C91.75 286.612 93.07 282.842 94.45 279.002ZM58.16 290.772C57.78 287.022 57.41 283.532 57.08 280.022C57.0965 279.792 57.0589 279.561 56.9703 279.348C56.8817 279.135 56.7444 278.945 56.5695 278.795C56.3946 278.644 56.1869 278.536 55.963 278.48C55.7391 278.424 55.5052 278.422 55.28 278.472L42.51 279.142C41.51 279.192 41.03 279.562 41.31 280.652C42.07 283.652 42.74 286.652 43.6 289.652C43.7667 289.956 44.0033 290.216 44.2901 290.411C44.577 290.605 44.906 290.729 45.25 290.772C48.86 290.892 52.48 290.872 56.1 290.882C56.75 290.882 57.39 290.832 58.16 290.792V290.772ZM79.23 267.132C73.97 266.922 69.23 266.762 64.48 266.532C63.04 266.462 61.62 266.132 60.18 266.092C58.37 266.032 57.92 266.682 58.24 268.472C58.63 270.672 58.95 272.882 59.4 275.072C59.49 275.522 60.01 276.222 60.34 276.222C66.02 276.322 71.71 276.332 77.34 276.362C78.02 273.002 78.59 270.132 79.2 267.132H79.23ZM77.03 277.652C76.4836 277.811 75.9251 277.925 75.36 277.992C70.73 278.102 66.1 278.202 61.47 278.262C60.3 278.262 59.81 278.562 60.06 279.902C60.62 283.002 61.06 286.132 61.48 289.252C61.4838 289.527 61.5467 289.799 61.6645 290.047C61.7824 290.296 61.9523 290.517 62.1629 290.694C62.3734 290.872 62.6197 291.002 62.8849 291.075C63.1501 291.149 63.4281 291.165 63.7 291.122C66.6004 291.082 69.501 291.192 72.39 291.452C74.39 291.652 75.07 290.782 75.29 289.002C75.51 287.222 75.94 285.552 76.21 283.812C76.52 281.812 76.74 279.812 77.03 277.652ZM116.03 243.292C115.52 241.192 115.83 240.782 117.77 241.092C120.451 241.347 123.149 241.347 125.83 241.092C127.71 241.012 128.5 241.532 128.44 243.642C128.33 247.582 128.49 247.452 124.6 247.082C122.67 246.902 120.69 247.372 118.73 247.382C117.904 247.254 117.096 247.033 116.32 246.722C115.412 246.478 114.486 246.307 113.55 246.212C112.91 246.212 112.26 246.442 111.61 246.462C107.61 246.582 107.43 246.532 106.4 250.352C102.653 264.239 98.2933 277.932 93.32 291.432C92.05 294.882 91.11 298.432 89.82 301.882C88.53 305.332 86.99 308.882 85.46 312.332C84.88 313.652 84.99 314.542 86.39 315.132C88.39 316.002 89.01 317.812 89.17 319.772C89.5 323.772 87.7 325.312 82.78 325.452C82.0572 325.456 81.3409 325.316 80.6732 325.039C80.0056 324.762 79.4 324.354 78.8922 323.84C78.3844 323.326 77.9845 322.715 77.7163 322.044C77.448 321.373 77.3167 320.655 77.33 319.932C77.5052 318.573 77.8099 317.233 78.24 315.932H35.03C36.87 319.272 36.64 322.342 34.49 324.502C33.5322 325.352 32.3537 325.914 31.0903 326.123C29.8269 326.331 28.5303 326.179 27.35 325.682C26.2104 325.092 25.2708 324.178 24.6498 323.055C24.0287 321.932 23.7539 320.651 23.86 319.372C24.17 317.162 26.61 314.922 29.14 314.552L30.01 312.372C34.59 312.552 39.1 312.742 43.6 312.902C45.19 312.962 46.77 313.022 48.35 313.012C58.73 312.932 69.1 312.839 79.46 312.732C79.66 312.732 79.86 312.732 80.06 312.732C82.93 313.032 83.21 312.832 83.96 310.012C84.0981 309.232 84.3056 308.465 84.58 307.722C85.33 306.142 84.46 305.582 83.15 305.562C77.97 305.482 72.78 305.562 67.59 305.442C63.54 305.372 59.5 305.092 55.45 305.012C51.4 304.932 47.59 305.012 43.66 305.012C39.73 305.012 35.82 305.132 31.91 305.272C30.68 305.322 30.35 304.652 30.07 303.682C27.93 296.009 25.7733 288.342 23.6 280.682C22.1 275.382 20.6 270.092 19 264.572C19.662 264.319 20.3493 264.138 21.05 264.032C23.61 263.922 26.17 263.822 28.73 263.862C41.42 264.082 54.11 264.412 66.8 264.532C70.86 264.532 74.93 264.042 79 263.922C81.6 263.852 84.21 264.092 86.81 264.122C90.43 264.122 94.05 264.172 97.67 264.122C97.9755 264.112 98.2742 264.029 98.5419 263.882C98.8095 263.734 99.0384 263.525 99.21 263.272C100.68 259.022 102.09 254.732 103.4 250.422C103.913 248.722 104.287 246.983 104.52 245.222C104.71 243.842 105.33 243.552 106.63 243.562C109.63 243.562 112.63 243.392 115.98 243.282L116.03 243.292Z" fill="white" fill-opacity="0.3"/>
<path d="M25.1781 389.714C22.8481 389.364 22.2481 389.794 21.8281 391.884L25.1781 389.714ZM24.6681 401.654L24.0381 401.794C24.0381 403.694 24.1381 405.594 24.0381 407.474C23.8981 409.664 24.1981 409.964 27.1781 409.354L24.6981 401.654H24.6681ZM-6.82189 392.524V393.204H7.69813C4.00813 390.424 -3.15189 389.964 -6.79189 392.524H-6.82189ZM31.4781 405.704C31.1681 401.434 27.2181 397.464 22.3681 396.234L27.5281 404.814L31.4781 405.704ZM16.8781 395.704V395.654C17.6609 395.765 18.4553 395.765 19.2381 395.654C19.5632 395.563 19.8661 395.406 20.1276 395.193C20.3892 394.979 20.6039 394.714 20.7581 394.414C20.8941 393.896 20.9129 393.355 20.8132 392.829C20.7134 392.303 20.4977 391.806 20.1815 391.374C19.8654 390.942 19.4569 390.586 18.9858 390.331C18.5147 390.077 17.9928 389.931 17.4581 389.904C16.5413 389.941 15.6335 390.099 14.7581 390.374C14.4471 390.432 14.1509 390.552 13.8872 390.727C13.6236 390.902 13.3978 391.129 13.2233 391.393C13.0488 391.657 12.9293 391.953 12.8717 392.264C12.8141 392.576 12.8197 392.895 12.8881 393.204C13.1081 394.634 13.3881 396.144 15.4881 395.774C15.9503 395.729 16.4159 395.729 16.8781 395.774V395.704ZM24.5581 395.134C24.9378 395.37 25.3484 395.551 25.7781 395.674C28.3881 395.674 30.9981 395.824 33.5881 395.674C35.0703 395.498 36.5169 395.096 37.8781 394.484C38.5081 394.234 38.9381 393.484 39.4581 392.994C38.7581 392.564 38.0881 392.084 37.3581 391.714C36.9896 391.569 36.5934 391.507 36.1981 391.534C32.0589 391.664 28.0339 392.923 24.5581 395.174V395.134ZM9.86812 395.884C5.99812 394.484 0.40811 400.544 -0.23189 404.464C0.59811 404.154 1.76812 403.294 2.46812 403.564C3.16812 403.834 3.74812 405.204 4.39812 406.144C6.25812 402.644 8.07812 399.234 9.86812 395.884ZM11.5481 397.634L10.8081 397.474C7.60812 400.324 6.97813 404.544 5.00813 408.284C7.00813 408.524 8.74812 408.784 10.4981 408.884C10.732 408.831 10.9477 408.717 11.1233 408.554C11.2989 408.39 11.4282 408.184 11.4981 407.954C11.5781 404.524 11.5481 401.074 11.5481 397.634ZM22.1981 393.704L22.4481 394.174C28.2881 392.174 33.8281 388.374 40.4481 391.014C41.0381 386.694 40.4481 385.504 37.1381 384.304C36.8981 381.964 36.1381 381.304 33.8881 380.974C28.7181 380.184 22.8881 385.244 20.6781 388.224C20.4881 388.484 20.6781 389.054 20.7281 389.844C21.6681 389.094 22.1681 388.414 22.8081 388.264C23.6744 388.033 24.5914 388.082 25.4281 388.404C25.7281 388.544 25.7381 389.994 25.4281 390.594C24.8603 391.353 24.1868 392.026 23.4281 392.594L22.2681 393.694L22.1981 393.704ZM11.4181 394.634C11.5381 393.364 11.3381 392.304 11.7681 391.634C12.6781 390.254 11.9681 389.444 11.1181 388.634C9.74812 387.224 8.25812 385.914 6.96812 384.424C4.62812 381.724 1.96812 379.974 -1.84188 380.084C-5.17188 380.174 -6.25188 381.084 -5.60188 384.404C-5.39188 385.464 -5.52189 386.014 -6.79189 385.774C-8.27189 385.494 -9.13189 386.374 -9.70189 387.584C-10.0627 388.184 -10.2023 388.892 -10.0963 389.584C-9.9904 390.276 -9.64568 390.909 -9.12187 391.374C-8.87386 391.521 -8.59349 391.604 -8.30565 391.616C-8.01781 391.628 -7.73142 391.569 -7.47188 391.444C-2.81188 388.204 6.9981 389.704 11.4181 394.664V394.634ZM6.22813 395.044C3.32813 394.854 0.53811 394.484 -2.23189 394.524C-5.00112 394.623 -7.76062 394.907 -10.4919 395.374C-10.8076 395.521 -11.0807 395.746 -11.2854 396.028C-11.4901 396.309 -11.6197 396.638 -11.6619 396.984C-11.6619 400.114 -11.5419 403.254 -11.2419 406.374C-11.0943 406.755 -10.8528 407.092 -10.5398 407.354C-10.2268 407.617 -9.85258 407.795 -9.45189 407.874C-6.45189 408.054 -3.39188 407.954 -0.351885 408.014C0.848115 408.014 2.03813 408.214 3.78813 408.364L1.78813 404.784L-1.76189 407.294L-2.25188 406.734C-1.72451 404.311 -0.703859 402.023 0.746473 400.012C2.19681 398.001 4.04574 396.31 6.17811 395.044H6.22813ZM28.2881 409.724C33.1681 410.024 37.7581 410.344 42.3481 410.554C44.5481 410.654 44.9281 410.184 44.9581 407.874C44.9581 405.244 44.8981 402.604 44.9581 399.964C45.0181 398.214 44.3481 397.394 42.5881 397.354C38.2081 397.254 33.8281 397.084 29.4481 396.984C28.7991 397.065 28.1594 397.209 27.5381 397.414C30.3298 399.625 32.304 402.704 33.1481 406.164C33.1954 406.709 33.1446 407.257 32.9981 407.784C32.5202 407.761 32.0451 407.698 31.5781 407.594C30.6981 407.314 29.8481 406.944 28.7881 406.534C28.5781 407.814 28.4181 408.704 28.2481 409.724H28.2881ZM22.5581 446.174C22.5581 437.754 22.4981 429.814 22.5581 421.864C22.6281 414.864 22.8481 407.864 22.9881 400.934C23.0151 400.393 22.9268 399.852 22.7289 399.348C22.5311 398.844 22.2282 398.387 21.8405 398.009C21.4527 397.631 20.9889 397.339 20.4799 397.154C19.9709 396.969 19.4283 396.894 18.8881 396.934C17.4381 396.934 15.9781 397.024 14.5381 396.934C13.0981 396.844 12.4581 397.484 12.4481 398.854C12.4481 399.584 12.4481 400.304 12.5081 401.034C12.5981 404.094 12.7881 407.144 12.7681 410.204C12.7681 415.504 12.5481 420.794 12.4581 426.084C12.4081 429.574 12.4581 433.084 12.3681 436.554C12.2681 439.664 11.9881 442.774 11.7681 446.184L22.5581 446.174ZM24.0881 433.994H23.7681C23.9381 437.534 24.1481 441.074 24.2781 444.614C24.2781 445.964 24.9681 446.504 26.2781 446.454C30.0881 446.314 33.9181 446.334 37.7081 445.944C38.2783 445.798 38.8042 445.515 39.2399 445.119C39.6756 444.724 40.008 444.228 40.2081 443.674C40.586 441.404 40.7733 439.106 40.7681 436.804C40.9681 432.854 41.1281 428.914 41.2981 424.964C41.4681 421.014 41.6881 417.334 41.7681 413.514C41.7681 413.004 41.1681 412.054 40.7681 412.024C35.6614 411.631 30.5415 411.337 25.4081 411.144C25.0826 411.229 24.7837 411.394 24.539 411.625C24.2942 411.855 24.1117 412.144 24.0081 412.464C23.7681 416.274 23.5881 420.104 23.6081 423.924C23.6081 427.274 23.9181 430.624 24.0881 433.974V433.994ZM-8.55187 433.694C-8.55187 436.124 -8.55187 438.544 -8.55187 440.974C-8.59853 441.778 -8.3484 442.572 -7.84889 443.204C-7.34938 443.836 -6.63523 444.263 -5.84188 444.404C-3.86406 444.829 -1.85929 445.116 0.158125 445.264C3.01812 445.574 5.89813 445.744 8.75813 446.064C10.1881 446.224 10.6681 445.554 10.7581 444.304C11.0581 437.864 11.4481 431.434 11.6081 424.994C11.7081 420.944 11.3081 416.884 11.3881 412.834C11.3881 411.014 10.7681 410.304 9.10811 410.214C3.98811 409.924 -1.14189 409.644 -6.26189 409.324C-7.98189 409.214 -8.55188 409.894 -8.53188 411.634C-8.45188 418.984 -8.53188 426.344 -8.53188 433.694H-8.55187ZM-9.35189 409.694C-12.0019 409.694 -12.5419 408.444 -12.5919 406.694C-12.6919 403.494 -12.9119 400.294 -12.9919 397.084C-13.0519 394.474 -12.8419 394.304 -10.2119 394.224H-8.53188C-8.73755 393.971 -8.95794 393.731 -9.19188 393.504C-12.1919 390.884 -11.9719 387.394 -8.73189 385.104C-8.08885 384.576 -7.65025 383.841 -7.49187 383.024C-7.34795 381.97 -6.84621 380.997 -6.07067 380.269C-5.29512 379.541 -4.29291 379.101 -3.23189 379.024C0.96811 378.824 4.65812 379.834 7.43812 383.364C9.06807 385.361 10.8865 387.196 12.8681 388.844C13.4181 389.324 14.6281 389.104 15.5281 389.094C16.5603 389.162 17.5926 388.962 18.5248 388.514C19.4569 388.065 20.2573 387.383 20.8481 386.534C23.1107 383.444 26.2868 381.142 29.9281 379.954C32.3481 379.104 35.3081 378.954 36.8681 380.704C38.7581 382.774 41.5181 384.354 41.9481 387.704C42.4281 391.514 41.5181 394.034 37.9481 396.034C40.1181 396.234 42.0781 396.434 44.0481 396.574C45.3481 396.674 46.2081 397.174 46.1681 398.574C46.0414 402.454 45.9048 406.331 45.7581 410.204C45.7581 411.204 45.3081 411.674 44.2981 412.204C43.5581 412.564 43.1181 414.104 43.0481 415.144C42.6481 421.784 42.4181 428.424 42.0481 435.054C41.8881 438.201 41.6614 441.351 41.3681 444.504C41.2692 445.353 40.8758 446.14 40.2564 446.728C39.6369 447.317 38.8307 447.669 37.9781 447.724C33.7981 448.094 29.6681 448.624 25.4181 447.994C22.4181 447.554 19.2181 448.224 16.1281 448.074C11.5981 447.864 7.12812 447.394 2.55812 446.994C-0.311881 446.734 -3.19187 446.444 -6.05187 446.124C-8.91187 445.804 -10.0519 443.924 -9.91188 440.124C-9.70188 433.604 -9.51188 427.124 -9.38188 420.564C-9.31188 417.024 -9.38188 413.474 -9.38188 409.704L-9.35189 409.694Z" fill="white" fill-opacity="0.3"/>
<path d="M70.35 46.8103C70.35 46.9803 70.35 47.1503 70.35 47.3203C71.09 47.3203 71.84 47.4203 72.58 47.4103C73.32 47.4003 73.92 47.3403 74.58 47.3003C74.58 47.1403 74.53 46.9803 74.5 46.8103H70.35ZM68.49 65.1303C69 65.6003 69.49 66.4003 69.94 66.4103C72.76 66.5303 75.58 66.4103 78.4 66.4103C80.03 66.4103 80.97 65.7603 80.79 63.6103L68.49 65.0903V65.1303ZM79.11 32.6303C79.87 34.3703 80.54 35.8803 81.21 37.4003C78.59 36.7503 79.49 32.8303 76.08 33.2103C75.6935 33.4221 75.3557 33.7127 75.0885 34.0632C74.8213 34.4137 74.6306 34.8164 74.5288 35.2453C74.427 35.6741 74.4164 36.1195 74.4975 36.5528C74.5787 36.986 74.7499 37.3974 75 37.7603C76 39.6303 77.65 39.9003 79.35 39.5103C79.8197 39.3736 80.2525 39.1327 80.6161 38.8054C80.9797 38.4782 81.2648 38.0731 81.45 37.6203C81.6929 36.6449 81.5929 35.6156 81.1669 34.7052C80.7408 33.7948 80.0145 33.0587 79.11 32.6203V32.6303ZM68.95 68.0603C69.07 70.5703 69.1 72.6003 69.28 74.6103C69.3542 75.643 69.5975 76.6564 70 77.6103C70.1543 77.9079 70.3755 78.1657 70.6461 78.3635C70.9168 78.5613 71.2296 78.6937 71.56 78.7503C74.3 78.7503 77.04 78.5403 79.79 78.4803C80.0672 78.5073 80.347 78.471 80.6081 78.3741C80.8693 78.2772 81.1051 78.1223 81.2976 77.9211C81.4902 77.7198 81.6346 77.4775 81.7199 77.2123C81.8052 76.9471 81.8291 76.6661 81.79 76.3903C81.69 73.5303 81.47 70.6703 81.31 68.0303L68.95 68.0603ZM58.32 50.8803C59.0139 51.8844 59.8227 52.8039 60.73 53.6203C63.0997 55.3119 64.9299 57.6525 66 60.3603C67.05 62.8203 69.06 63.6403 71.51 63.4703C74.25 63.2903 76.98 62.9703 79.69 62.5703C80.06 62.5103 80.59 61.6403 80.58 61.1503C80.52 58.5303 80.4 55.9003 80.12 53.2903C79.8884 51.9925 79.554 50.7151 79.12 49.4703L78.56 49.5303L77 52.1803L75.21 48.1803L73.9 51.7503L73.26 51.5703C73.216 51.2704 73.1319 50.9778 73.01 50.7003C72.62 50.0703 72.18 49.4803 71.75 48.8803C71.37 49.4103 70.99 49.9603 70.59 50.4803C70.19 51.0003 69.94 51.2603 69.36 51.9503C69.23 51.2103 69.17 50.9503 69.14 50.7303C68.71 47.4803 68.39 44.2203 67.79 41.0103C67.65 40.2503 66.59 39.6603 65.95 39.0103C65.54 39.6903 64.79 40.3703 64.77 41.0103C64.69 43.7603 64.85 46.5103 64.92 49.2603C64.92 49.9903 64.92 50.7203 64.92 51.4803C62.56 51.1103 60.77 48.7903 58.29 50.8603L58.32 50.8803ZM87.77 45.3903C88.53 44.8303 90.17 44.2103 90.21 43.5003C90.41 39.7003 90.21 35.8803 90.1 32.0803C90.1 31.6603 89.19 30.9703 88.68 30.9403C82.41 30.6103 76.13 30.3203 69.84 30.1703C67.06 30.1003 64.28 30.4503 61.5 30.4603C58.72 30.4703 56.01 30.1403 53.26 30.1603C48.73 30.1603 44.2 30.4703 39.66 30.4903C36.08 30.4903 32.5 30.1603 28.91 30.1703C23.57 30.1703 18.23 30.3503 12.91 30.4903C8.24997 30.6103 3.57997 30.8003 -1.09003 30.9003C-2.16003 30.9003 -2.71003 31.2403 -2.62003 32.3803C-2.33003 36.1203 -2.13 39.8603 -1.69 43.5803C-1.5509 43.9639 -1.31629 44.3057 -1.00833 44.5734C-0.700373 44.8411 -0.32926 45.0259 0.0699768 45.1103C4.24998 45.1103 8.43 44.8803 12.62 44.8403C20.62 44.7803 28.62 44.8403 36.62 44.8403H63.15C63.3 43.5003 63.43 41.8403 63.7 40.2803C63.92 38.9503 64.43 37.2803 65.91 37.4703C66.91 37.5803 68.06 38.8603 68.61 39.9003C69.16 40.9403 69.16 42.5903 69.61 43.9003C69.79 44.4503 70.45 45.2303 70.91 45.2403C75.55 45.3403 80.19 45.3003 84.91 45.3003L83.22 42.7503C82.28 41.3403 81.52 40.2303 79.3 41.0903C76.65 42.0903 73.97 40.1903 73.18 37.3003C72.55 34.9803 74.36 32.2203 77.02 31.4303C79.31 30.7503 81.42 32.2003 82.33 35.1103C82.48 35.6103 82.5 36.1103 82.66 36.6403C82.8047 37.177 83.0415 37.6846 83.36 38.1403C84.63 39.7203 86.03 41.2003 87.23 42.8303C87.63 43.3703 87.57 44.2403 87.81 45.4303L87.77 45.3903ZM76.09 47.3903C76.67 47.6003 77.37 48.1403 77.8 47.9803C79.8 47.2403 80.42 48.4803 80.61 49.8903C81.18 54.1103 81.68 58.3403 82.01 62.5703C82.41 67.4903 82.55 72.4303 82.91 77.3503C83.04 79.0703 82.55 79.7003 80.77 79.7103C77.48 79.7103 74.19 79.9103 70.91 80.1003C69.18 80.2103 68.44 79.5903 68.31 77.7703C68.02 73.6603 68.12 69.3903 66.95 65.5103C65.95 62.0903 63.52 59.0303 61.49 55.9703C60.49 54.4703 58.78 53.4603 57.73 51.9703C56.46 50.1603 57.27 48.8103 59.53 48.7803C60.8034 48.8465 62.0702 49.007 63.32 49.2603C63.75 46.8503 63.62 46.5803 61.38 46.5203C55.45 46.3503 49.52 46.2103 43.59 46.1503C38.24 46.0903 32.89 46.1503 27.54 46.1503C22.89 46.1503 18.23 46.1503 13.54 46.1503C8.84998 46.1503 3.94997 46.3103 -0.840027 46.4903C-2.17003 46.5403 -2.75003 46.2403 -2.84003 44.8103C-3.16003 39.9003 -3.59 35.0003 -4 29.7503C-2.83 29.7503 -1.76001 29.7503 -0.700012 29.7503C7.15999 29.5103 15.02 29.1703 22.88 29.0503C28.31 28.9703 33.76 29.2603 39.2 29.2503C43.85 29.2503 48.51 28.9903 53.2 29.0003C58.6 29.0003 64 29.2103 69.41 29.2703C74.53 29.3403 79.66 29.3403 84.78 29.3703C86.48 29.3703 88.17 29.3703 89.86 29.3703C91.08 29.3703 91.7 29.9103 91.7 31.1503C91.7 35.1503 91.7 39.0803 91.7 43.0503C91.7 45.3303 90.82 46.3503 88.55 46.4403C84.48 46.5903 80.41 46.4403 76.34 46.4403L76.1 47.3203L76.09 47.3903Z" fill="white" fill-opacity="0.3"/>
<path d="M23.3304 34.7103L22.8604 35.0203V37.5503L23.4004 37.7103C23.7739 37.1261 24.057 36.4889 24.2404 35.8203C24.2404 35.5003 23.6504 35.0903 23.3304 34.7103ZM23.3304 39.3403L22.3304 41.8003L21.7303 41.6003C21.5203 39.0403 21.3204 36.4803 21.1104 33.8003C22.6604 33.6303 24.3803 33.1203 25.0403 34.9303C25.3903 35.9303 24.8203 37.1803 24.6703 38.3203H24.1104C24.9205 38.9711 25.6856 39.676 26.4004 40.4303C26.6604 40.7203 26.5104 41.3503 26.5504 41.8303C26.1121 41.7389 25.6927 41.5732 25.3104 41.3403C24.6405 40.7061 24.0031 40.0386 23.4004 39.3403H23.3304Z" fill="white" fill-opacity="0.3"/>
<path d="M16.1705 35.1403L14.9505 35.2203V38.1603L16.5505 37.9703C16.4205 37.0303 16.2905 36.0903 16.1705 35.1403ZM17.4005 41.6003C17.2405 40.6903 17.1205 40.0203 17.0105 39.3403C14.3905 38.5503 14.3205 40.3403 14.3405 42.2503L13.6705 42.6103C13.5664 42.286 13.5026 41.9501 13.4805 41.6103C13.5705 39.4703 13.6105 37.3203 13.8505 35.1903C13.9565 34.8947 14.1346 34.6302 14.3686 34.4206C14.6025 34.2111 14.885 34.0632 15.1905 33.9903C15.8005 33.9103 16.9505 34.2503 17.0505 34.6403C17.5726 36.7011 17.9899 38.7871 18.3005 40.8903C18.3005 41.0203 17.8505 41.2403 17.4005 41.5703V41.6003Z" fill="white" fill-opacity="0.3"/>
<path d="M4.64005 35.8803C3.85275 35.5131 3.02315 35.2444 2.17004 35.0803C1.95004 35.0803 1.38006 36.0803 1.50006 36.2703C1.90687 36.8019 2.42143 37.2415 3.01004 37.5603C3.72004 38.0203 4.95006 38.2303 5.12006 38.8103C5.19982 39.2436 5.17025 39.6901 5.03406 40.1091C4.89786 40.5282 4.65935 40.9066 4.34006 41.2103C3.61006 41.6903 2.43003 41.5403 1.44003 41.5703C1.20003 41.5703 0.940049 41.2203 0.300049 40.7303C1.05005 40.5303 1.54006 40.2203 1.84006 40.3503C2.84006 40.8103 3.78006 40.8503 4.00006 39.6303C4.22006 38.4103 3.09004 38.6303 2.29004 38.3803C1.49004 38.1303 0.290039 37.4703 0.290039 37.0203C0.312967 35.9658 0.751443 34.9631 1.51004 34.2303C2.06004 33.7903 3.32005 34.1203 4.21005 34.3403C4.45005 34.4003 4.48006 35.3403 4.62006 35.8803H4.64005Z" fill="white" fill-opacity="0.3"/>
<path d="M10.7904 33.6702C9.79038 35.3102 6.92038 33.7602 7.35038 36.6702C7.72038 39.1802 10.0904 37.6202 11.1004 39.0002L8.61039 39.4902C8.61039 39.6202 8.61039 39.7502 8.61039 39.8702L10.7504 40.0802C10.7504 40.3102 10.8204 40.5402 10.8504 40.7702L6.98039 41.3302C6.65039 39.0102 6.34039 36.9602 6.08039 34.9002C5.95039 33.9002 6.3004 33.4602 7.4304 33.6202C8.54257 33.6922 9.65822 33.6922 10.7704 33.6202L10.7904 33.6702Z" fill="white" fill-opacity="0.3"/>
<path d="M37.8806 33.4003C39.1306 34.9703 39.2207 40.4803 38.0107 41.6503L37.6606 39.5303C35.1706 37.8503 36.8507 41.8403 35.1107 41.2803C34.8907 39.0503 34.6607 36.7803 34.4307 34.5003L34.9106 34.2903C35.3106 35.4403 35.7206 36.5803 36.1606 37.8203C37.6806 38.0203 37.6806 38.0203 37.8806 33.4003Z" fill="white" fill-opacity="0.3"/>
<path d="M32.2506 34.8802C30.8806 35.1602 29.7705 35.0702 29.4905 35.5102C28.7872 36.4785 28.4059 37.6434 28.4005 38.8402C28.6305 40.8402 30.5005 40.2102 31.8605 40.2402C31.7087 40.6023 31.4623 40.917 31.1471 41.1512C30.8319 41.3854 30.4595 41.5305 30.069 41.5714C29.6784 41.6123 29.2841 41.5474 28.9272 41.3836C28.5704 41.2198 28.2641 40.963 28.0405 40.6402C27.3905 39.5702 26.8905 37.8202 27.3305 36.8302C27.9005 35.5402 29.4405 34.6402 30.6705 33.7302C30.8305 33.6202 31.6706 34.4702 32.2506 34.8802Z" fill="white" fill-opacity="0.3"/>
<path d="M19.1469 165.022C23.7369 160.732 27.5069 156.472 29.2669 151.022H17.7269C18.2069 155.772 18.6469 160.112 19.1469 165.022ZM21.5869 164.682C31.0269 162.682 37.6569 157.682 43.2269 150.002C39.2269 150.172 35.8569 150.372 32.4369 150.462C31.0169 150.462 30.4869 151.282 29.8869 152.462C28.5294 155.071 27.0374 157.608 25.4169 160.062C24.2228 161.678 22.9444 163.23 21.5869 164.712V164.682ZM10.0669 100.682C3.40687 100.832 -10.0831 112.282 -10.4231 117.352C-7.42312 117.352 -4.42312 117.462 -1.42312 117.272C-1.01032 117.154 -0.631677 116.939 -0.318625 116.645C-0.00557414 116.351 0.232846 115.987 0.376869 115.582C2.02687 109.772 4.66688 104.582 10.1069 100.682H10.0669ZM4.49688 151.862C5.11688 153.192 5.49688 154.072 5.91688 154.932C7.82139 158.922 10.7083 162.363 14.3069 164.932C15.1342 165.373 16.0734 165.561 17.0069 165.472C17.2069 165.472 17.5669 164.252 17.5469 163.612C17.4069 159.612 17.1769 155.532 16.9569 151.132L4.49688 151.882V151.862ZM11.8369 164.862C11.3027 164.326 10.8049 163.754 10.3469 163.152C8.34687 160.152 6.29688 157.092 4.49688 153.932C3.74688 152.602 3.22688 151.642 1.49688 152.042C0.645392 152.062 -0.205121 151.972 -1.03312 151.772C-3.75312 151.612 -6.47313 151.492 -9.62313 151.332C-4.35313 159.432 3.13687 163.072 11.8769 164.862H11.8369ZM30.4769 115.862C27.2769 108.302 21.7969 103.402 14.5969 99.372C15.2169 104.692 15.8869 109.522 16.2969 114.372C16.4269 115.952 17.0669 116.182 18.3769 116.152C21.7069 116.092 25.0369 116.152 28.3769 116.152C29.0838 116.108 29.788 116.027 30.4869 115.912L30.4769 115.862ZM15.4769 116.222C14.7069 110.612 13.9869 105.412 13.2669 100.152C7.36688 102.332 1.75687 111.222 1.39687 117.092L15.4769 116.222ZM-1.58312 131.072C-1.29312 126.742 -1.02312 122.482 -0.733115 118.172C-1.46312 118.292 -2.03312 118.442 -2.61312 118.482C-5.16312 118.632 -7.72312 118.712 -10.2731 118.922C-10.8131 118.922 -11.6331 119.282 -11.7931 119.682C-13.3794 123.99 -14.3881 128.489 -14.7931 133.062L-8.20312 132.062L-1.61312 131.062L-1.58312 131.072ZM44.4169 115.072C40.2169 106.282 28.9469 99.652 18.4969 99.622C20.1369 101.102 21.5969 102.622 23.2569 103.872C26.3462 106.136 28.765 109.194 30.2569 112.722C31.3369 115.292 32.8569 116.102 35.5269 115.722C38.4169 115.332 41.3669 115.282 44.3869 115.082L44.4169 115.072ZM34.6769 131.022C39.2469 130.752 43.3669 130.412 47.4869 130.322C49.0669 130.322 49.3269 129.672 49.2969 128.322C49.1969 124.122 47.2969 120.482 45.6369 116.792C45.5269 116.532 44.9569 116.342 44.6369 116.362C41.0669 116.502 37.4869 116.662 33.9269 116.952C33.6769 116.952 33.2969 118.142 33.3669 118.732C33.7469 121.892 34.2769 125.042 34.6869 128.212C34.7473 129.138 34.7473 130.066 34.6869 130.992L34.6769 131.022ZM15.5669 131.482C15.5669 126.802 15.6169 122.602 15.4969 118.402C15.4969 118.012 14.4369 117.332 13.8669 117.342C11.3769 117.342 8.86687 117.532 6.39687 117.722C4.57687 117.862 2.53687 117.722 1.03687 118.492C0.216873 118.932 0.326873 121.102 0.0368729 122.492C0.00922405 122.553 -0.0109213 122.616 -0.0231237 122.682C-0.143124 125.322 -0.263124 127.952 -0.383124 130.682L3.30688 130.392C3.71688 131.002 4.03688 131.912 4.30688 131.902C8.15688 131.902 12.0069 131.662 15.5369 131.522L15.5669 131.482ZM17.4069 131.562C18.9469 131.452 20.4069 131.282 21.9169 131.252C25.3469 131.182 28.7869 131.162 32.2169 131.172C33.2169 131.172 33.7869 130.912 33.8269 129.742C33.9486 125.727 33.2157 121.732 31.6769 118.022C31.5136 117.725 31.2827 117.471 31.0031 117.28C30.7234 117.089 30.4027 116.966 30.0669 116.922C26.1769 116.822 22.2769 116.842 18.3869 116.922C17.2169 116.922 16.3369 117.442 16.4369 118.842C16.7569 122.972 17.0669 127.092 17.4369 131.572L17.4069 131.562ZM2.94688 150.692C2.78688 149.882 2.70688 149.392 2.58688 148.912C1.58688 144.802 0.356881 140.712 -0.503119 136.562C-1.36312 132.412 -1.17313 132.562 -5.21313 133.352C-8.31313 133.952 -11.4331 134.432 -14.8131 135.002C-14.7531 134.812 -14.9031 135.062 -14.8931 135.302C-14.761 140.177 -13.4283 144.945 -11.0131 149.182C-10.7491 149.495 -10.424 149.75 -10.0577 149.932C-9.6914 150.114 -9.29168 150.22 -8.88312 150.242C-7.05312 150.372 -5.19313 150.172 -3.35313 150.242C-1.35313 150.312 0.646877 150.532 2.94688 150.702V150.692ZM31.5569 149.172C31.9631 149.293 32.3833 149.36 32.8069 149.372C35.0069 149.152 37.2769 148.432 39.4069 148.732C43.4069 149.302 45.4069 147.512 46.3369 143.962C46.3869 143.772 46.5069 143.602 46.5769 143.412C47.8669 139.652 49.5769 135.982 49.1869 131.762C48.6169 131.822 48.1169 131.922 47.6169 131.932C43.7569 131.932 39.8869 131.932 36.0269 132.032C35.7025 132.116 35.4043 132.279 35.1597 132.508C34.9151 132.737 34.7318 133.024 34.6269 133.342C34.1569 135.632 33.9569 137.992 33.5069 140.342C32.9469 143.262 32.2369 146.162 31.5069 149.222L31.5569 149.172ZM33.4169 132.092L17.5269 133.092C17.5269 135.422 17.4769 137.502 17.5269 139.592C17.6069 142.272 17.7869 144.952 17.9169 147.592C17.9869 149.082 18.4269 149.992 20.2569 149.822C23.1269 149.562 26.0269 149.592 28.8969 149.382C29.1953 149.334 29.479 149.219 29.7267 149.046C29.9744 148.873 30.1796 148.646 30.3269 148.382C32.3063 143.173 33.349 137.654 33.4069 132.082L33.4169 132.092ZM-0.583121 132.812C0.756879 138.152 1.84688 142.812 3.10688 147.372C4.02688 150.732 4.10687 150.682 7.50687 150.312C8.50687 150.192 9.62687 150.312 10.6769 150.202C12.6769 150.062 14.6769 149.882 16.3469 149.742V138.512C16.4444 137.329 16.4108 136.138 16.2469 134.962C16.0469 134.172 15.2469 132.962 14.7169 132.902C9.86687 132.742 5.00688 132.812 -0.583121 132.812ZM50.5369 130.552C49.9569 141.432 45.9769 150.552 37.6969 157.902C31.8369 163.122 24.8969 165.412 17.5069 166.822C13.0269 167.682 8.84687 166.032 4.78687 164.432C-4.49313 160.752 -11.2831 154.502 -14.4331 144.822C-16.3725 138.485 -16.5144 131.735 -14.8431 125.322C-13.3631 118.962 -10.9131 112.982 -6.21313 108.382C-2.21458 104.341 2.63718 101.245 7.98687 99.322C12.3128 97.8564 16.9576 97.6039 21.4169 98.592C26.2669 99.592 31.0469 100.472 35.3169 103.272C39.6989 105.986 43.2568 109.845 45.6069 114.432C47.3435 117.999 48.8499 121.673 50.1169 125.432C50.6569 126.982 50.4169 128.812 50.5369 130.512V130.552Z" fill="white" fill-opacity="0.3"/>
<path d="M211.404 299.474C209.544 296.824 202.714 296.584 200.064 298.954L211.404 299.474ZM198.264 289.024C197.79 288.61 197.266 288.257 196.704 287.974C195.889 287.758 195.061 287.597 194.224 287.494C194.181 288.291 194.289 289.088 194.544 289.844C195.654 291.694 197.094 293.354 198.174 295.214C198.525 295.926 199.134 296.477 199.877 296.756C200.62 297.035 201.441 297.02 202.174 296.714C204.547 295.977 207.08 295.922 209.484 296.554C209.849 296.584 210.216 296.52 210.55 296.37C210.883 296.22 211.174 295.987 211.394 295.694C212.037 293.69 212.574 291.654 213.004 289.594C213.197 288.885 213.138 288.13 212.837 287.459C212.536 286.788 212.012 286.242 211.354 285.914C209.884 285.034 208.554 285.564 207.424 286.624C206.699 287.359 206.011 288.13 205.364 288.934C201.814 284.134 201.154 284.124 198.234 289.024H198.264ZM186.324 319.944C186.674 321.674 186.904 323.444 187.394 325.124C189.224 331.334 194.194 334.284 199.664 336.604C200.935 337.133 202.289 337.434 203.664 337.494C210.564 337.784 216.354 335.494 220.474 329.774C222.704 326.684 224.204 323.204 223.674 319.304C222.794 312.934 219.484 307.654 215.554 302.754C214.879 301.875 213.945 301.232 212.884 300.914C211.168 300.698 209.443 300.567 207.714 300.524C203.974 299.886 200.131 300.273 196.594 301.644C194.664 302.494 193.084 304.494 191.724 306.264C188.644 310.264 185.994 314.494 186.314 319.944H186.324ZM205.694 286.404C207.194 285.144 208.224 283.864 210.574 284.334C213.654 284.954 214.904 287.884 214.104 290.654C213.664 292.164 213.164 293.654 212.714 295.184C212.414 295.993 212.384 296.876 212.627 297.703C212.87 298.53 213.374 299.257 214.064 299.774C220.263 305.19 224.236 312.711 225.214 320.884C225.634 324.454 223.894 327.704 221.984 330.404C220.057 332.898 217.658 334.988 214.924 336.554C208.484 340.444 201.924 339.504 195.374 336.384C189.104 333.384 185.844 328.154 185.154 321.684C184.53 316.922 185.821 312.106 188.744 308.294C189.393 307.231 190.097 306.203 190.854 305.214C192.661 303.329 194.581 301.555 196.604 299.904C198.224 298.604 198.554 297.804 197.454 296.024C196.054 293.734 194.604 291.474 193.234 289.164C192.694 288.264 192.114 287.044 193.284 286.374C194.204 286.028 195.212 285.993 196.154 286.274C196.984 286.454 197.594 287.014 198.284 285.914C199.654 283.754 201.864 283.424 203.944 284.914C204.524 285.334 205.034 285.844 205.694 286.414V286.404Z" fill="white" fill-opacity="0.3"/>
<path d="M204.624 315.284C204.404 313.334 204.244 311.864 204.084 310.394C202.304 312.254 202.454 313.394 204.624 315.284ZM206.484 323.284C208.644 322.284 210.184 319.894 209.484 318.544C208.784 317.194 207.374 317.444 206.054 317.704C206.214 319.634 206.364 321.434 206.514 323.284H206.484ZM204.004 306.584L209.004 310.444C208.944 310.584 208.874 310.724 208.814 310.874L205.344 309.874C205.434 311.744 205.444 313.414 205.624 315.074C205.624 315.394 206.354 315.874 206.754 315.884C208.374 315.884 210.114 315.884 210.624 317.784C210.917 318.838 210.898 319.954 210.568 320.996C210.237 322.038 209.611 322.962 208.764 323.654C208.187 324.115 207.579 324.536 206.944 324.914C206.874 326.054 206.814 327.104 206.754 328.144C206.528 328.168 206.3 328.168 206.074 328.144C205.946 327.179 205.585 326.26 205.022 325.465C204.46 324.671 203.712 324.025 202.844 323.584C202.584 323.454 203.104 321.784 203.684 320.854C203.954 321.744 204.234 322.634 204.504 323.534L205.244 323.354C205.114 321.544 205.074 319.734 204.804 317.954C204.584 317.295 204.137 316.735 203.544 316.374C200.604 314.274 200.444 311.624 203.004 309.184C203.584 308.634 203.634 307.524 204.004 306.584Z" fill="white" fill-opacity="0.3"/>
<path d="M290.569 391.04C290.96 390.013 291.415 389.011 291.929 388.04C292.559 386.98 292.219 386.36 291.269 385.85C290.319 385.34 289.689 385.63 289.209 386.59C288.729 387.55 288.209 388.22 287.579 389.16L290.579 391.07L290.569 391.04ZM281.479 417.64L282.079 416.53C281.679 416.33 281.269 416.14 280.889 415.91C279.029 414.82 277.079 413.85 275.349 412.59C272.559 410.59 269.949 408.28 267.199 406.18C266.496 405.781 265.743 405.479 264.959 405.28C265.159 406.02 265.129 407.05 265.619 407.45C269.229 410.45 272.869 413.4 276.689 416.09C277.999 417.02 279.859 417.14 281.479 417.64ZM265.909 410.41C264.499 414.05 266.439 415.93 270.279 418.41C273.639 420.56 275.969 420.32 277.379 418.54L265.909 410.45V410.41ZM269.849 398.99L269.369 399.45C269.559 399.97 269.599 400.66 269.969 400.97C271.936 402.706 274.003 404.326 276.159 405.82C279.439 407.96 282.879 409.82 286.269 411.82C286.418 411.909 286.584 411.966 286.757 411.987C286.929 412.008 287.104 411.992 287.269 411.94C287.398 411.809 287.497 411.652 287.559 411.479C287.621 411.307 287.645 411.123 287.629 410.94C287.379 408.94 285.969 407.94 284.319 407.13C281.649 405.75 279.019 404.28 276.399 402.81C274.189 401.56 272.019 400.25 269.829 398.97L269.849 398.99ZM267.849 401.57C266.349 403.52 267.609 404.81 268.659 405.66C271.659 408.13 274.869 410.43 278.109 412.66C279.759 413.692 281.492 414.585 283.289 415.33C283.541 415.433 283.814 415.475 284.085 415.453C284.356 415.43 284.618 415.344 284.849 415.2C285.017 414.935 285.125 414.637 285.167 414.326C285.208 414.016 285.182 413.7 285.089 413.4C284.757 412.775 284.25 412.261 283.629 411.92C281.229 410.44 278.739 409.11 276.389 407.56C273.519 405.68 270.759 403.62 267.849 401.56V401.57ZM276.459 401.64C278.769 402.83 280.519 403.83 282.359 404.64C282.677 404.699 283.003 404.69 283.316 404.615C283.63 404.539 283.924 404.397 284.179 404.2C286.677 402.179 288.601 399.537 289.759 396.54C290.859 394.08 290.219 392.26 287.829 391C286.895 390.496 285.813 390.34 284.774 390.56C283.736 390.779 282.809 391.361 282.159 392.2C280.099 395.07 278.479 398.26 276.479 401.63L276.459 401.64ZM287.629 407.51C290.809 405.82 293.839 404.11 296.939 402.57C303.939 399.1 310.279 394.91 314.559 388.01C318.389 381.84 318.229 375.41 316.039 369.01C313.619 362.01 307.739 358.63 300.899 356.74C296.389 355.5 291.899 355.41 287.689 357.6C284.261 359.308 281.273 361.785 278.959 364.838C276.645 367.891 275.067 371.437 274.349 375.2C272.899 382.38 272.449 389.75 271.639 397.05C271.657 397.392 271.746 397.726 271.901 398.031C272.056 398.336 272.274 398.605 272.539 398.82C273.592 399.577 274.691 400.268 275.829 400.89C276.769 398.95 277.729 397.15 278.529 395.29C279.039 393.89 279.849 392.62 280.903 391.568C281.957 390.515 283.229 389.707 284.629 389.2C285.842 388.662 286.919 387.859 287.779 386.85C288.053 386.621 288.277 386.338 288.436 386.018C288.596 385.699 288.688 385.35 288.706 384.994C288.725 384.637 288.67 384.28 288.545 383.946C288.42 383.612 288.228 383.307 287.979 383.05C286.979 381.61 287.739 379.65 288.979 379.6C290.809 379.54 290.879 380.88 290.619 382.04C290.507 382.334 290.468 382.65 290.506 382.963C290.544 383.275 290.657 383.573 290.837 383.831C291.016 384.089 291.256 384.3 291.535 384.444C291.815 384.589 292.125 384.663 292.439 384.66C293.089 384.76 293.829 384.08 294.559 383.88C295.275 383.663 296.022 383.561 296.769 383.58C296.989 383.58 297.409 384.37 297.319 384.66C296.909 385.95 296.319 387.1 294.639 387.11C294.309 387.11 293.739 387.11 293.639 387.23C292.809 389.04 291.339 390.93 291.449 392.71C291.576 394.739 291.054 396.756 289.959 398.47C288.479 400.99 286.729 403.36 285.049 405.85L287.629 407.51ZM270.049 397.31C270.759 391.38 271.349 385.42 272.209 379.51C273.379 371.43 276.209 364.09 283.059 359.07C287.999 355.42 293.499 353.49 299.879 355.07C306.699 356.76 312.879 359.5 316.199 366C319.839 373 320.289 380.23 316.279 387.51C312.109 395.09 305.629 399.81 298.119 403.51C295.119 404.99 292.189 406.62 289.299 408.29C289.071 408.5 288.893 408.76 288.782 409.049C288.671 409.339 288.629 409.651 288.659 409.96C288.919 411.61 289.449 413.26 287.089 413.81C286.959 413.81 286.739 413.9 286.739 413.95C286.739 416.82 284.129 417.19 282.459 418.47C282.259 418.62 282.039 418.98 281.879 418.95C279.719 418.53 278.479 420.29 276.789 421C274.039 422.16 271.439 421 269.169 419.61C267.648 418.469 266.259 417.161 265.029 415.71C264.43 415.091 264.033 414.304 263.89 413.454C263.747 412.604 263.866 411.731 264.229 410.95C264.461 410.456 264.554 409.908 264.498 409.366C264.441 408.823 264.238 408.306 263.909 407.87C262.529 405.87 262.769 405.27 264.779 403.75C264.889 403.67 265.119 403.6 265.119 403.56C264.589 401.34 266.709 400.72 267.649 399.4C268.219 398.62 268.869 397.91 269.479 397.17L270.049 397.32V397.31Z" fill="white" fill-opacity="0.3"/>
<path d="M267.5 374.51L261 372.56C261.44 372.06 261.69 371.56 261.91 371.56C263.59 371.54 265.266 371.705 266.91 372.05C267.48 372.2 267.73 373.51 268.12 374.29L267.51 374.5L267.5 374.51Z" fill="white" fill-opacity="0.3"/>
<path d="M321.26 391.43C323.67 392.21 325.1 393.78 326.64 395.22C325.443 395.308 324.253 394.978 323.272 394.287C322.291 393.596 321.58 392.586 321.26 391.43Z" fill="white" fill-opacity="0.3"/>
<path d="M272.52 346.98L276.89 353.2L276.13 353.76L271.58 347.76L272.52 347.04V346.98Z" fill="white" fill-opacity="0.3"/>
<path d="M309.569 401.65C310.779 403.38 312.269 405 311.809 407.37L311.139 407.65L308.729 402L309.569 401.65Z" fill="white" fill-opacity="0.3"/>
<path d="M320.17 359.06C319.73 357.86 319.17 357.13 320.64 356.68C321.37 356.45 321.86 355.53 322.55 355.06C322.88 354.84 323.43 354.93 323.88 354.89C323.76 355.26 323.76 355.75 323.52 355.99C322.52 356.99 321.44 357.91 320.17 359.06Z" fill="white" fill-opacity="0.3"/>
<path d="M334.88 376.06C334.32 376.53 334.04 376.98 333.74 376.99C332.435 377.075 331.125 377.075 329.82 376.99C329.5 376.99 329.22 376.47 328.92 376.19C329.26 375.95 329.62 375.47 329.92 375.5C331.43 375.6 332.92 375.84 334.86 376.09L334.88 376.06Z" fill="white" fill-opacity="0.3"/>
<path d="M294.97 342C296.07 342.86 296.11 346.7 294.97 348.18V342Z" fill="white" fill-opacity="0.3"/>
<path d="M94.7824 177.833L94.1424 177.943C94.0424 178.573 93.7324 179.293 93.9324 179.813C94.0724 180.153 94.9324 180.213 95.4824 180.393L95.8924 179.933L94.7824 177.833ZM96.3724 177.833C96.6324 176.773 96.8124 176.013 97.0024 175.253L94.4624 176.093L96.3724 177.833ZM95.7324 184.663C94.8624 183.453 96.2924 180.993 93.3824 181.593C93.0824 183.283 93.3824 184.433 95.7324 184.663ZM106.232 172.413C104.372 172.943 102.232 173.063 100.712 174.093C97.2624 176.453 96.1824 180.143 96.7824 184.163C97.0124 185.693 96.5524 187.683 98.7124 188.713C99.1824 188.933 99.1324 190.643 100.462 191.073C104.332 192.313 108.012 192.073 111.222 189.493C114.432 186.913 115.082 183.643 113.892 179.923C112.802 176.523 110.482 171.923 106.232 172.413ZM105.102 171.233C109.562 170.133 111.972 173.093 113.872 176.723C116.172 181.143 116.542 185.653 113.032 189.593C108.902 194.223 102.142 194.263 97.1724 191.033C95.7928 190.189 94.62 189.046 93.7403 187.688C92.8606 186.331 92.2964 184.794 92.0892 183.19C91.8819 181.586 92.037 179.956 92.5429 178.419C93.0487 176.883 93.8926 175.48 95.0124 174.313C97.6024 171.503 101.082 170.853 105.102 171.233Z" fill="white" fill-opacity="0.3"/>
<path d="M107.622 178.883C105.722 178.163 103.732 177.063 102.432 180.163C103.432 180.563 104.432 181.303 105.432 181.273C107.292 181.273 108.372 181.933 108.682 183.673C108.952 185.253 108.622 186.803 107.042 187.553C105.462 188.303 103.952 187.723 102.612 186.753C102.422 186.613 102.502 186.093 102.462 185.753C102.787 185.663 103.125 185.63 103.462 185.653C103.975 185.915 104.503 186.149 105.042 186.353C106.282 186.583 107.312 186.243 107.492 184.793C107.672 183.343 106.892 182.603 105.402 182.673C105.009 182.698 104.615 182.698 104.222 182.673C102.692 182.513 100.902 180.673 101.072 179.413C101.242 178.153 103.922 176.413 105.312 176.893C106.141 177.243 106.932 177.679 107.672 178.193C107.672 178.433 107.582 178.683 107.532 178.933L107.622 178.883Z" fill="white" fill-opacity="0.3"/>
<path d="M218.259 189.011C217.752 187.925 217.333 186.854 216.811 185.869C215.001 182.785 214.379 182.684 211.222 184.421C210.545 184.872 209.724 185.052 208.92 184.928C207.673 184.524 206.612 183.687 205.927 182.57C205.242 181.452 204.979 180.127 205.184 178.832C205.213 178.258 205.213 177.683 205.184 177.109C205.184 174.3 203.012 172.664 199.103 172.041C195.874 171.52 196.004 173.764 195.396 175.676C195.092 176.631 194.556 177.978 193.803 178.253C193.159 178.456 192.478 178.514 191.808 178.422C191.139 178.329 190.499 178.09 189.933 177.72C189.368 177.35 188.892 176.859 188.54 176.283C188.187 175.706 187.967 175.059 187.896 174.387C187.143 169.536 185.984 168.769 181.003 169.783C180.352 169.913 179.715 170.101 179.063 170.246C175.4 171.086 175.545 171.071 176.167 174.735C176.384 175.994 176.051 178.152 175.241 178.63C171.317 180.888 169.536 180.237 167.031 176.342C166.623 175.589 166.137 174.88 165.583 174.228C165.105 173.764 164.135 173.171 163.773 173.373C161.958 174.324 160.298 175.545 158.85 176.993C158.531 177.355 159.863 179.339 160.602 180.468C161.051 181.163 161.876 181.612 162.412 182.278C162.947 182.944 163.367 183.726 163.208 183.9C161.921 185.475 160.465 186.902 158.864 188.157C158.444 188.461 157.098 187.549 156.214 187.143C154.158 186.217 152.291 183.524 149.858 185.696C148.085 187.577 146.509 189.634 145.152 191.835C146.846 192.892 147.787 193.529 148.772 194.094C149.351 194.412 150.104 194.499 150.567 194.933C151.031 195.368 152.204 196.483 152.015 197.062C151.888 197.683 151.632 198.271 151.264 198.788C150.896 199.304 150.425 199.739 149.88 200.063C149.335 200.387 148.728 200.595 148.099 200.671C147.469 200.748 146.83 200.692 146.224 200.508C142.3 199.697 141.214 200.218 140.997 204.157C140.635 210.369 140.07 211.628 146.368 211.802C147.816 211.802 149.713 211.324 149.757 213.337C149.757 215.581 151.538 218.579 148.497 220.012C145.456 221.445 145.384 223.559 146.542 226.195C146.933 227.064 147.295 227.947 147.657 228.83C148.598 231.176 149.858 231.914 152.233 230.278C152.764 230.007 153.352 229.866 153.948 229.866C154.545 229.866 155.133 230.007 155.664 230.278C157.329 231.393 158.56 233.174 160.138 234.463C160.428 234.61 160.683 234.816 160.889 235.068C161.095 235.319 161.247 235.61 161.336 235.922C161.424 236.235 161.447 236.562 161.403 236.884C161.359 237.206 161.249 237.515 161.08 237.793C159.632 241.196 160.225 242.253 163.758 243.99C168.855 246.481 169.087 246.538 171.186 242.991C172.156 241.34 173.098 240.834 174.864 241.543C176.182 242.05 177.644 242.224 178.933 242.788C179.617 243.164 180.134 243.785 180.381 244.526C181.641 248.971 181.612 248.986 186.173 248.16C186.811 247.962 187.465 247.817 188.127 247.726C190.415 247.726 190.893 246.582 190.878 244.424C190.908 243.722 191.086 243.034 191.4 242.405C191.714 241.776 192.158 241.221 192.703 240.776C194.035 239.863 195.99 239.907 197.539 239.241C200.507 237.952 202.954 237.793 204.388 241.34C204.388 241.485 204.692 241.543 205.416 241.963L212.656 235.896C212.427 235.31 212.161 234.739 211.859 234.187C208.572 229.192 208.558 229.192 213.047 225.355C213.191 225.239 213.322 225.022 213.481 225.007C214.552 224.877 215.624 224.79 216.695 224.703C217.767 224.616 219.128 224.877 219.461 224.37C220.922 222.093 222.261 219.739 223.472 217.319C219.635 216.074 217.883 214.061 218.911 210.079C219.403 208.182 219.924 207.053 221.937 207.183C223.95 207.313 224.413 206.285 223.892 204.475C223.688 203.552 223.572 202.612 223.544 201.666C223.284 198.669 221.995 197.685 219.099 197.945C218.042 198.047 216.203 197.945 216 197.38C215.216 195.425 214.827 193.333 214.857 191.227C214.857 190.517 216.942 189.895 218.332 189.069L218.259 189.011ZM149.815 196.83L144.689 193.934C143.342 193.152 142.835 192.168 143.849 190.72C145.297 188.736 146.499 186.608 148.034 184.725C150.263 182.003 151.393 181.902 154.405 183.784C155.606 184.552 156.721 185.42 157.894 186.246C160.79 184.725 160.79 184.32 158.864 181.902C155.317 177.428 155.273 177.399 159.675 173.764C161.195 172.519 162.904 171.491 164.946 170.072C166.263 172.128 167.595 173.938 168.623 175.864C169.941 178.383 171.91 177.775 173.735 176.979C174.198 176.776 174.401 175.198 174.184 174.401C172.982 169.956 173.764 168.682 178.325 168.045C180.395 167.755 182.451 167.35 184.522 167.075C187.418 166.684 188.866 167.813 189.068 170.724C189.04 171.208 189.064 171.693 189.141 172.172C189.72 173.866 189.561 176.342 192.297 176.154C194.73 175.965 194.049 173.75 194.18 172.302C194.354 170.333 195.295 169.406 197.076 169.84C200.169 170.606 203.192 171.633 206.111 172.91C206.878 173.258 207.124 175.111 207.269 176.327C207.385 177.312 206.864 178.369 206.893 179.382C206.876 179.916 207.007 180.444 207.271 180.907C207.535 181.371 207.922 181.753 208.389 182.011C208.857 182.268 209.386 182.392 209.919 182.368C210.452 182.343 210.968 182.172 211.41 181.873C214.422 180.179 215.305 180.324 217.347 183.133C218.545 184.728 219.578 186.441 220.431 188.244C220.509 188.692 220.48 189.153 220.347 189.588C220.214 190.023 219.98 190.421 219.664 190.749C218.735 191.45 217.718 192.025 216.638 192.457C217.043 194.687 217.173 196.57 220.431 195.831C222.69 195.31 224.413 196.599 224.688 199.292C224.905 201.536 225.513 203.751 225.745 206.01C225.847 206.431 225.853 206.869 225.763 207.293C225.673 207.716 225.49 208.114 225.226 208.457C224.962 208.8 224.624 209.08 224.238 209.275C223.852 209.471 223.427 209.577 222.994 209.587C222.154 209.717 220.822 210.731 220.822 211.353C220.839 211.912 220.977 212.461 221.227 212.961C221.477 213.461 221.833 213.9 222.27 214.249C225.166 216.16 225.571 216.827 224.094 219.954C222.922 222.43 221.488 224.805 220.171 227.194C219.389 228.642 218.39 228.844 217.275 227.657C215.754 226.122 214.292 226.73 213.018 227.918C211.57 229.366 211.99 230.712 213.162 232.262C215.696 235.418 215.638 236.113 212.453 238.647C210.252 240.399 207.848 241.891 205.561 243.527C204.113 244.569 203.128 244.28 202.505 242.615C201.738 240.573 200.29 240.327 198.35 240.891C194.006 242.166 193.745 242.426 193.268 246.987C193.187 247.38 193.013 247.748 192.761 248.061C192.509 248.373 192.187 248.62 191.82 248.783C188.533 249.623 185.188 250.231 181.858 250.926C180.41 251.215 179.57 250.68 179.121 248.928C178.672 247.176 179.251 244.28 175.718 243.831C175.058 243.666 174.363 243.718 173.734 243.978C173.106 244.239 172.578 244.695 172.229 245.279C169.42 248.87 169.42 248.913 165.235 247.016C163.787 246.365 162.455 245.424 161.022 244.714C158.126 243.266 157.286 241.239 158.488 238.155C158.763 237.431 158.169 236.186 157.662 235.375C157.156 234.564 156.084 233.927 155.49 233.116C154.477 231.668 153.492 231.769 152.073 232.537C148.671 234.39 148.511 234.332 146.759 230.814C145.39 228.349 144.269 225.754 143.415 223.067C143.197 222.198 144.66 220.417 145.775 219.766C148.106 218.419 148.888 216.87 147.672 214.278C147.382 214.278 147.005 214.191 146.644 214.104C144.269 213.54 140.417 213.598 139.838 212.251C138.68 209.572 138.94 206.068 139.331 203.013C139.954 198.293 140.461 198.22 145.253 198.669C146.774 198.799 148.758 199.581 149.8 197.062L149.815 196.83Z" fill="white" fill-opacity="0.3"/>
<path d="M182.002 231.552C185.202 231.103 188.561 231.132 191.559 230.104C196.612 228.396 201.405 225.355 203.519 220.533C205.455 216.015 206.303 211.105 205.995 206.199C205.806 203.155 204.82 200.215 203.134 197.673C201.449 195.131 199.125 193.078 196.395 191.719C187.215 187.144 177.571 186.637 168.391 191.864C165.915 193.312 163.092 195.136 161.919 197.525C160.097 201.376 159.28 205.625 159.544 209.876C160.022 221.836 170.1 232.117 182.002 231.509V231.552ZM184.377 186.912C189.432 186.731 194.426 188.056 198.726 190.72C201.413 192.361 203.656 194.638 205.257 197.35C206.858 200.061 207.767 203.125 207.906 206.271C208.069 210.997 207.408 215.716 205.951 220.215C204.301 225.442 199.812 228.743 194.961 230.872C184 235.693 173.242 234.897 164.424 226.528C161.862 224.071 159.912 221.048 158.73 217.701C157.548 214.354 157.168 210.776 157.619 207.256C157.856 204.989 158.282 202.747 158.893 200.552C161.325 191.502 171.693 187.288 177.847 186.883C180.004 186.753 182.19 186.883 184.319 186.883L184.377 186.912Z" fill="white" fill-opacity="0.3"/>
</g>
</svg>
