<svg width="404" height="466" viewBox="0 0 404 466" fill="none" xmlns="http://www.w3.org/2000/svg">
<mask id="mask0_108_505" style="mask-type:alpha" maskUnits="userSpaceOnUse" x="0" y="0" width="404" height="466">
<path d="M0 0H404V466H0V0Z" fill="#004827"/>
</mask>
<g mask="url(#mask0_108_505)">
<path d="M377.247 280.205C367.337 280.205 360.047 285.545 357.077 294.835C353.017 307.565 366.317 319.175 377.977 316.775C383.307 315.685 386.977 312.165 390.647 308.425C397.077 301.825 397.507 293.915 391.457 286.975C387.847 282.825 383.517 279.975 377.247 280.205ZM397.247 296.735C397.337 304.075 393.247 309.065 388.107 313.555C385.21 316.114 381.676 317.841 377.877 318.555C371.877 319.725 366.627 317.675 361.957 314.055C358.593 311.442 356.239 307.744 355.296 303.59C354.354 299.436 354.881 295.084 356.787 291.275C360.787 282.975 367.627 279.645 376.537 278.585C383.607 277.745 395.807 285.585 396.847 293.155C397.017 294.345 397.117 295.545 397.247 296.735Z" fill="white" fill-opacity="0.3"/>
<path d="M389.947 317.795C390.437 318.215 390.947 318.615 391.407 319.035L406.837 332.935C408.537 334.634 410.351 336.214 412.267 337.665C414.058 338.971 416.102 339.89 418.267 340.365C420.377 340.725 421.447 338.655 420.137 336.915C417.746 333.69 415.172 330.605 412.427 327.675C407.007 322.005 401.427 316.535 395.857 310.995L389.977 317.795H389.947ZM375.627 321.595C378.517 321.945 382.837 320.205 386.627 317.545C394.957 311.655 398.787 303.355 398.627 293.155C398.557 287.715 390.547 277.205 385.067 276.515C383.878 276.39 382.708 276.132 381.577 275.745C373.677 272.955 366.377 273.995 359.887 279.315C357.087 281.605 354.647 284.315 351.997 286.805C349.827 288.805 350.877 291.625 350.187 294.005C347.707 302.485 352.007 313.475 358.467 317.595C363.077 320.535 368.337 321.205 375.627 321.595ZM400.297 294.775C400.187 299.245 399.457 303.595 397.087 307.485C396.237 308.895 396.577 309.685 397.637 310.765C404.997 318.195 412.297 325.695 419.637 333.185C420.247 333.815 420.637 334.615 421.247 335.295C422.577 336.935 423.247 338.795 421.887 340.565C420.527 342.335 418.247 342.565 416.137 341.765C414.998 341.356 413.941 340.746 413.017 339.965C407.517 335.125 402.137 330.175 396.737 325.375C394.447 323.375 392.097 321.375 389.657 319.535C389.296 319.383 388.909 319.304 388.517 319.304C388.125 319.304 387.738 319.383 387.377 319.535C383.527 320.785 379.767 322.955 375.857 323.265C370.239 323.77 364.589 322.733 359.517 320.265C354.697 317.845 351.847 313.545 349.987 308.585C348.357 304.255 347.387 299.895 348.437 295.175C348.987 292.725 348.297 290.035 350.027 287.775C357.397 278.145 365.567 271.315 378.147 273.365C381.607 273.925 385.457 274.365 388.227 276.245C391.727 278.575 394.437 282.165 397.227 285.415C399.405 288.058 400.509 291.425 400.317 294.845L400.297 294.775Z" fill="white" fill-opacity="0.3"/>
<path d="M382.737 286.825L373.317 283.755C373.917 282.925 374.367 281.645 375.217 281.255C377.077 280.395 382.697 281.695 383.217 283.175C383.607 284.255 382.917 285.735 382.737 286.825Z" fill="white" fill-opacity="0.3"/>
<path d="M386.287 288.985C385.477 287.915 384.527 287.085 384.667 286.755C385.181 285.984 385.824 285.308 386.567 284.755C387.147 285.395 388.127 285.995 388.197 286.685C388.267 287.375 387.197 287.935 386.287 289.025V288.985Z" fill="white" fill-opacity="0.3"/>
<path d="M258.53 399.526C258.921 398.499 259.376 397.497 259.89 396.526C260.52 395.466 260.18 394.846 259.23 394.336C258.28 393.826 257.65 394.116 257.17 395.076C256.69 396.036 256.17 396.706 255.54 397.646L258.54 399.556L258.53 399.526ZM249.44 426.126L250.04 425.016C249.64 424.816 249.23 424.626 248.85 424.396C246.99 423.306 245.04 422.336 243.31 421.076C240.52 419.076 237.91 416.766 235.16 414.666C234.457 414.267 233.704 413.964 232.92 413.766C233.12 414.506 233.09 415.536 233.58 415.936C237.19 418.936 240.83 421.886 244.65 424.576C245.96 425.506 247.82 425.626 249.44 426.126ZM233.87 418.896C232.46 422.536 234.4 424.416 238.24 426.896C241.6 429.046 243.93 428.806 245.34 427.026L233.87 418.936V418.896ZM237.81 407.476L237.33 407.936C237.52 408.456 237.56 409.146 237.93 409.456C239.897 411.192 241.964 412.812 244.12 414.306C247.4 416.446 250.84 418.306 254.23 420.306C254.379 420.395 254.545 420.452 254.718 420.473C254.89 420.494 255.065 420.478 255.23 420.426C255.359 420.295 255.458 420.138 255.52 419.965C255.582 419.793 255.606 419.609 255.59 419.426C255.34 417.426 253.93 416.426 252.28 415.616C249.61 414.236 246.98 412.766 244.36 411.296C242.15 410.046 239.98 408.736 237.79 407.456L237.81 407.476ZM235.81 410.056C234.31 412.006 235.57 413.296 236.62 414.146C239.62 416.616 242.83 418.916 246.07 421.146C247.72 422.178 249.453 423.071 251.25 423.816C251.502 423.919 251.775 423.961 252.046 423.939C252.317 423.916 252.579 423.829 252.81 423.686C252.978 423.421 253.086 423.123 253.128 422.812C253.169 422.501 253.143 422.185 253.05 421.886C252.718 421.261 252.211 420.747 251.59 420.406C249.19 418.926 246.7 417.596 244.35 416.046C241.48 414.166 238.72 412.106 235.81 410.046V410.056ZM244.42 410.126C246.73 411.316 248.48 412.316 250.32 413.126C250.638 413.185 250.964 413.176 251.277 413.1C251.591 413.025 251.885 412.883 252.14 412.686C254.638 410.664 256.562 408.023 257.72 405.026C258.82 402.566 258.18 400.746 255.79 399.486C254.856 398.982 253.774 398.826 252.735 399.045C251.697 399.265 250.77 399.847 250.12 400.686C248.06 403.556 246.44 406.746 244.44 410.116L244.42 410.126ZM255.59 415.996C258.77 414.306 261.8 412.596 264.9 411.056C271.9 407.586 278.24 403.396 282.52 396.496C286.35 390.326 286.19 383.896 284 377.496C281.58 370.496 275.7 367.116 268.86 365.226C264.35 363.986 259.86 363.896 255.65 366.086C252.222 367.794 249.234 370.271 246.92 373.324C244.606 376.377 243.028 379.923 242.31 383.686C240.86 390.866 240.41 398.236 239.6 405.536C239.618 405.877 239.707 406.212 239.862 406.517C240.017 406.821 240.235 407.09 240.5 407.306C241.553 408.063 242.652 408.754 243.79 409.376C244.73 407.436 245.69 405.636 246.49 403.776C247 402.376 247.81 401.106 248.864 400.053C249.918 399.001 251.19 398.193 252.59 397.686C253.803 397.148 254.88 396.345 255.74 395.336C256.014 395.107 256.238 394.823 256.397 394.504C256.557 394.185 256.648 393.836 256.667 393.479C256.686 393.123 256.631 392.766 256.506 392.432C256.381 392.098 256.188 391.793 255.94 391.536C254.94 390.096 255.7 388.136 256.94 388.086C258.77 388.026 258.84 389.366 258.58 390.526C258.468 390.819 258.429 391.136 258.467 391.448C258.505 391.761 258.618 392.059 258.798 392.317C258.977 392.575 259.217 392.786 259.496 392.93C259.776 393.075 260.086 393.149 260.4 393.146C261.05 393.246 261.79 392.566 262.52 392.366C263.236 392.148 263.982 392.047 264.73 392.066C264.95 392.066 265.37 392.856 265.28 393.146C264.87 394.436 264.28 395.586 262.6 395.596C262.27 395.596 261.7 395.596 261.6 395.716C260.77 397.526 259.3 399.416 259.41 401.196C259.537 403.225 259.015 405.242 257.92 406.956C256.44 409.476 254.69 411.846 253.01 414.336L255.59 415.996ZM238.01 405.796C238.72 399.866 239.31 393.906 240.17 387.996C241.34 379.916 244.17 372.576 251.02 367.556C255.96 363.906 261.46 361.976 267.84 363.556C274.66 365.246 280.84 367.986 284.16 374.486C287.8 381.486 288.25 388.716 284.24 395.996C280.07 403.576 273.59 408.296 266.08 411.996C263.08 413.476 260.15 415.106 257.26 416.776C257.031 416.985 256.854 417.245 256.743 417.535C256.632 417.825 256.59 418.137 256.62 418.446C256.88 420.096 257.41 421.746 255.05 422.296C254.92 422.296 254.7 422.386 254.7 422.436C254.7 425.306 252.09 425.676 250.42 426.956C250.22 427.106 250 427.466 249.84 427.436C247.68 427.016 246.44 428.776 244.75 429.486C242 430.646 239.4 429.486 237.13 428.096C235.608 426.955 234.22 425.647 232.99 424.196C232.391 423.576 231.994 422.79 231.851 421.94C231.708 421.09 231.827 420.217 232.19 419.436C232.422 418.942 232.515 418.394 232.459 417.851C232.402 417.309 232.199 416.792 231.87 416.356C230.49 414.356 230.73 413.756 232.74 412.236C232.85 412.156 233.08 412.086 233.08 412.046C232.55 409.826 234.67 409.206 235.61 407.886C236.18 407.106 236.83 406.396 237.44 405.656L238.01 405.806V405.796Z" fill="white" fill-opacity="0.3"/>
<path d="M301.662 271.435L299.222 271.785L301.922 275.785L302.372 275.595C302.142 274.245 301.912 272.895 301.662 271.405V271.435ZM287.912 272.715L287.672 272.095C286.942 272.295 285.672 272.365 285.582 272.725C285.278 274.313 285.084 275.92 285.002 277.535L285.502 277.635C286.302 275.995 287.106 274.355 287.912 272.715ZM281.172 271.145C282.062 272.915 282.882 274.515 283.752 276.235C285.332 272.235 284.982 271.545 281.172 271.145ZM303.302 276.355H303.812L305.652 270.775C302.852 270.595 302.822 270.595 302.932 273.025C302.932 274.125 303.172 275.225 303.302 276.325V276.355ZM302.672 269.955C303.835 269.649 304.972 269.251 306.072 268.765C307.182 268.165 307.322 267.085 306.192 266.465C304.849 265.885 303.457 265.426 302.032 265.095C302.272 266.935 302.442 268.255 302.672 269.955ZM297.392 270.865L294.172 265.665C292.862 267.665 291.742 269.315 290.372 271.385L297.372 270.865H297.392ZM279.062 267.305C279.012 267.655 278.962 268.015 278.902 268.375L284.852 270.925C285.162 268.795 285.372 267.295 285.662 265.235L279.062 267.305ZM300.822 265.245L294.822 264.725C296.022 266.725 296.962 267.995 297.672 269.435C298.382 270.875 299.452 270.575 300.622 270.275C302.122 269.895 301.352 268.825 301.312 268.025C301.213 267.092 301.066 266.164 300.872 265.245H300.822ZM286.502 271.125C287.332 271.025 288.592 271.235 288.982 270.755C290.382 268.985 291.482 266.975 292.822 264.875C286.992 264.495 285.602 265.875 286.502 271.125ZM286.322 289.005C283.662 289.005 282.952 289.325 283.122 290.825C283.472 294.005 283.892 297.195 284.472 300.345C284.852 302.345 286.052 302.965 288.302 302.555C287.636 298.042 286.969 293.525 286.302 289.005H286.322ZM310.072 293.835C310.072 292.575 310.142 291.325 310.072 290.075C309.962 288.375 308.872 287.775 307.272 287.715C305.402 287.655 305.722 289.065 305.742 290.065C305.812 293.585 305.972 297.065 306.182 300.615C306.312 301.351 306.537 302.067 306.852 302.745C307.622 302.481 308.349 302.107 309.012 301.635C309.593 301.115 309.972 300.407 310.082 299.635C310.232 297.705 310.082 295.745 310.082 293.805L310.072 293.835ZM304.912 297.045H305.002C304.842 294.425 304.602 291.805 304.542 289.185C304.542 287.585 303.542 287.515 302.432 287.615C301.322 287.715 299.692 287.165 299.832 289.275C300.022 292.085 300.192 294.905 300.452 297.715C300.598 299.062 300.831 300.399 301.152 301.715C301.392 302.765 302.092 303.655 303.232 303.105C303.623 302.9 303.968 302.617 304.245 302.273C304.522 301.928 304.725 301.531 304.842 301.105C304.996 299.727 305.019 298.338 304.912 296.955V297.045ZM287.912 288.575C287.322 293.695 289.002 298.345 289.912 303.115L293.912 303.405C293.442 298.265 292.972 293.275 292.502 288.125L287.932 288.575H287.912ZM301.912 277.865C300.732 275.925 299.912 274.435 298.912 273.055C298.727 272.773 298.486 272.532 298.204 272.346C297.922 272.16 297.605 272.034 297.272 271.975C294.982 271.975 292.702 272.255 290.422 272.455C290.082 272.455 289.572 272.605 289.422 272.845C288.422 274.615 287.422 276.435 286.142 278.775L301.882 277.865H301.912ZM295.802 303.585H297.272C300.402 303.585 300.272 303.585 299.912 300.395C299.552 297.205 299.222 294.015 299.022 290.815C298.852 288.135 298.932 288.125 296.312 288.125C295.912 288.125 295.442 287.995 295.142 288.125C294.652 288.395 293.882 288.875 293.902 289.245C294.032 294.045 293.622 298.935 295.802 303.555V303.585ZM304.012 286.355C303.699 284.542 303.492 282.712 303.392 280.875C303.392 279.105 302.512 278.985 301.142 279.085C297.412 279.365 293.672 279.635 289.932 279.775C286.932 279.885 286.632 280.225 287.222 283.205C287.962 286.935 287.962 287.005 291.742 286.915C295.742 286.805 299.742 286.555 304.012 286.355ZM308.162 265.725C308.582 265.185 309.162 264.545 309.612 263.835C312.946 258.722 316.279 253.605 319.612 248.485C326.162 238.365 329.122 227.485 327.152 215.365C325.572 205.695 321.812 197.235 313.902 191.095C311.282 189.095 308.372 187.405 305.592 185.575C306.322 187.575 307.472 189.145 308.032 190.915C309.873 196.309 310.832 201.965 310.872 207.665C310.772 214.315 310.712 220.965 310.462 227.605C310.299 231.003 309.965 234.391 309.462 237.755C308.332 245.675 305.462 253.095 302.862 260.595C302.532 261.595 302.272 262.545 301.992 263.485L308.202 265.725H308.162ZM277.502 185.305C274.182 187.305 271.182 189.035 268.342 190.965C262.162 195.165 258.802 201.415 256.782 208.325C255.408 212.616 255.086 217.174 255.842 221.615C256.711 226.056 257.986 230.408 259.652 234.615C262.058 240.865 265.186 246.812 268.972 252.335C271.872 256.455 274.502 260.765 277.342 264.935C277.554 265.234 277.833 265.479 278.155 265.653C278.478 265.826 278.836 265.923 279.202 265.935C281.262 265.425 283.262 264.645 285.282 263.935C285.002 263.115 284.752 262.315 284.462 261.545C280.752 251.865 276.882 242.235 274.702 232.065C273.502 226.515 272.322 220.935 271.632 215.305C271.267 211.447 271.267 207.563 271.632 203.705C271.792 200.581 272.318 197.486 273.202 194.485C274.142 191.535 275.832 188.815 277.512 185.315L277.502 185.305ZM287.422 182.785C284.992 183.515 282.422 183.695 280.632 184.935C278.697 186.323 277.054 188.081 275.8 190.106C274.545 192.131 273.703 194.384 273.322 196.735C272.109 201.977 271.771 207.383 272.322 212.735C272.952 217.455 273.162 222.265 274.192 226.895C275.604 233.156 277.333 239.34 279.372 245.425C281.432 251.615 284.002 257.635 286.252 263.495C288.452 263.495 290.352 263.495 292.252 263.495C293.332 263.495 293.652 263.235 293.552 261.995C293.012 254.995 292.652 247.995 292.182 240.995C291.802 235.245 291.412 229.495 290.922 223.765C290.062 213.765 289.112 203.765 288.222 193.765C287.902 190.245 287.662 186.765 287.362 182.855L287.422 182.785ZM309.502 210.485L310.182 210.395C309.442 205.285 308.862 200.135 307.932 195.065C306.342 186.425 299.702 181.505 291.042 182.275C289.772 182.395 288.852 182.955 288.762 184.275C288.672 185.707 288.672 187.143 288.762 188.575C289.042 192.705 289.372 196.835 289.682 200.975C290.122 206.865 290.482 212.765 291.022 218.645C291.732 226.185 292.712 233.705 293.342 241.255C293.912 248.075 294.162 254.915 294.582 261.755C294.577 262.34 294.775 262.909 295.142 263.365C296.262 264.365 300.372 263.365 300.922 261.965C304.232 253.735 307.282 245.405 308.432 236.565C309.172 230.845 309.642 225.085 309.952 219.325C309.956 216.372 309.796 213.421 309.472 210.485H309.502ZM293.772 304.925C292.042 304.725 289.162 304.465 286.302 304.055C285.569 304.001 284.875 303.702 284.332 303.207C283.788 302.713 283.425 302.05 283.302 301.325C282.636 297.378 282.086 293.415 281.652 289.435C281.652 289.065 282.322 288.435 282.822 288.205C283.442 287.989 284.096 287.884 284.752 287.895C286.512 287.755 286.472 286.895 286.552 285.255C286.732 281.115 283.412 278.785 282.102 275.445C281.102 272.885 279.102 270.725 277.652 268.315C276.052 265.625 274.712 262.765 273.042 260.125C269.812 255.015 266.202 250.125 263.162 244.925C259.322 238.584 256.479 231.69 254.732 224.485C253.606 219.525 253.781 214.357 255.242 209.485C256.458 205.543 257.986 201.704 259.812 198.005C262.222 193.005 266.812 190.005 271.252 187.195C278.155 182.736 286.298 180.589 294.502 181.065C299.622 181.355 304.092 183.375 308.502 185.785C314.906 189.125 320.186 194.275 323.682 200.595C327.052 206.805 328.402 213.595 328.762 220.785C329.302 231.785 325.412 241.155 319.762 250.085C316.172 255.805 312.032 261.185 308.602 266.995C305.522 272.215 303.282 277.825 304.702 284.235C305.102 286.015 306.062 286.405 307.532 286.555C310.432 286.865 310.732 287.235 310.812 290.065C310.882 292.695 311.092 295.315 311.152 297.945C311.252 301.885 309.152 304.155 305.152 304.395C301.742 304.605 298.312 304.715 293.722 304.925H293.772Z" fill="white" fill-opacity="0.3"/>
<path d="M358.123 371.032H355.513C355.593 371.822 355.673 372.512 355.763 373.322L357.913 372.802C357.983 372.192 358.043 371.692 358.123 371.032ZM355.293 377.882C355.133 376.312 355.103 374.882 354.833 373.502C354.193 370.232 354.663 370.562 351.673 370.502C350.553 370.502 349.423 370.502 348.303 370.502C342.073 370.312 342.213 370.362 342.243 376.972C342.243 379.432 342.913 379.802 345.353 379.652C348.973 379.432 352.603 379.342 356.223 379.362C362.943 379.362 369.673 379.572 376.393 379.592C376.715 379.508 377.01 379.345 377.253 379.118C377.495 378.891 377.678 378.607 377.783 378.292C377.915 376.712 377.932 375.125 377.833 373.542C377.773 371.832 376.973 370.622 375.153 370.602C369.733 370.602 364.323 370.602 358.523 370.602C359.049 371.511 359.459 372.482 359.743 373.492C359.686 374.238 359.535 374.974 359.293 375.682C359.231 376.324 359.205 376.968 359.213 377.612H358.523C358.423 376.482 358.323 375.362 358.233 374.312C354.663 373.562 357.233 377.212 355.293 377.922V377.882ZM371.923 438.602H372.293C372.293 443.662 372.343 448.732 372.293 453.792C372.293 455.482 373.193 455.792 374.543 455.792C377.543 455.712 380.603 455.572 383.633 455.572C385.093 455.572 385.443 455.072 385.473 453.572C385.593 448.052 385.973 442.572 386.163 437.012C386.283 433.482 386.343 429.932 386.163 426.402C386.017 425.315 385.472 424.32 384.633 423.612C381.703 421.122 378.133 421.332 374.693 421.972C372.873 422.312 371.813 423.782 371.873 425.972C371.993 430.202 371.873 434.432 371.873 438.652L371.923 438.602ZM363.623 404.322C364.753 408.272 367.873 409.322 371.063 409.652C374.433 410.002 377.303 408.652 378.623 405.162C385.693 410.332 387.723 410.402 393.263 405.792C393.733 406.322 394.173 406.882 394.673 407.392C395.359 408.208 396.317 408.748 397.37 408.914C398.423 409.079 399.5 408.858 400.403 408.292C401.263 407.792 402.193 407.412 403.403 406.822C403.033 406.082 402.533 405.182 402.133 404.252C401.193 402.032 400.293 399.782 397.133 400.632C396.903 400.692 396.623 400.532 396.363 400.512C392.583 400.172 388.793 399.512 385.013 399.572C377.243 399.692 369.473 400.322 361.703 400.512C355.193 400.672 348.703 400.512 342.163 400.512C339.813 400.512 337.463 400.422 335.113 400.442C331.053 400.442 326.993 400.532 322.933 400.692C322.613 400.692 322.013 401.582 322.063 401.992C322.153 403.148 322.596 404.248 323.334 405.143C324.071 406.037 325.066 406.683 326.183 406.992C328.723 407.762 330.863 406.772 332.573 404.352C332.87 404 333.187 403.666 333.523 403.352C334.113 404.74 335.084 405.932 336.322 406.792C337.561 407.652 339.017 408.144 340.523 408.212C343.673 408.532 346.313 407.742 347.913 404.042C348.484 405.706 349.564 407.148 351 408.164C352.435 409.179 354.154 409.718 355.913 409.702C359.163 409.752 362.423 408.462 363.643 404.432L363.623 404.322ZM399.023 398.932C398.913 398.589 398.776 398.254 398.613 397.932C395.813 393.492 392.773 389.192 390.273 384.592C388.523 381.372 385.973 380.402 382.713 380.482C376.713 380.642 370.643 380.912 364.603 381.122C363.483 381.122 362.363 381.172 361.253 381.122C357.903 380.962 354.563 380.642 351.253 380.602C345.863 380.532 340.473 380.602 335.083 380.692C334.417 380.794 333.817 381.153 333.413 381.692C332.133 383.362 330.933 385.092 329.793 386.842C327.573 390.252 325.363 393.672 323.243 397.142C322.343 398.612 322.793 399.322 324.343 399.292C328.183 399.232 332.023 399.162 335.863 399.152C344.633 399.152 353.393 399.252 362.153 399.152C371.423 399.012 380.673 398.572 389.943 398.422C392.863 398.372 395.803 398.812 399.063 399.042L399.023 398.932ZM323.733 409.172C323.933 415.742 324.163 422.172 324.313 428.622C324.313 430.522 324.123 432.432 324.073 434.332C324.073 435.632 324.073 436.932 324.073 438.232C324.143 441.982 324.073 445.742 324.363 449.482C324.5 450.528 324.959 451.505 325.675 452.279C326.392 453.053 327.331 453.585 328.363 453.802C331.893 454.102 335.433 454.482 338.963 454.532C343.043 454.602 347.133 454.162 351.203 454.302C357.103 454.512 362.993 455.052 368.893 455.442C369.583 455.442 370.273 455.442 371.033 455.442C371.033 446.832 371.033 438.522 371.033 430.202C371.011 429.026 370.904 427.853 370.713 426.692C370.213 423.292 371.823 421.142 375.243 420.332C378.393 419.592 381.243 420.532 384.013 421.692C385.943 422.502 387.583 423.922 387.383 426.482C387.313 427.392 387.613 428.322 387.563 429.232C387.303 434.422 386.913 439.612 386.713 444.812C386.573 448.192 386.713 451.582 386.713 455.282C389.113 454.902 390.913 454.522 392.713 454.352C394.853 454.162 395.433 452.632 395.583 450.982C395.863 447.782 395.983 444.552 396.013 441.332C396.013 439.242 395.723 437.152 395.703 435.062C395.703 433.622 396.043 432.192 396.023 430.752C395.943 425.032 395.893 419.302 395.583 413.582C395.463 411.442 395.683 408.852 392.733 407.842C391.003 410.152 388.413 410.582 385.843 410.132C383.334 409.511 380.874 408.706 378.483 407.722C377.273 410.632 374.073 410.722 371.233 410.852C369.751 410.889 368.28 410.575 366.942 409.935C365.604 409.296 364.436 408.349 363.533 407.172C362.635 408.384 361.446 409.351 360.076 409.984C358.706 410.616 357.199 410.894 355.693 410.792C352.923 410.502 350.293 408.792 347.373 407.672C344.173 410.082 337.843 410.542 333.143 405.772C330.983 409.522 326.963 408.112 323.713 409.172H323.733ZM332.443 379.632C334.993 379.632 337.553 379.632 340.103 379.632C341.353 379.632 341.803 379.452 341.513 377.942C341.251 376.087 341.214 374.207 341.403 372.342C341.513 370.102 342.603 368.942 344.693 369.002C348.693 369.112 352.693 369.552 356.773 369.572C361.113 369.572 365.463 369.192 369.773 369.112C372.003 369.02 374.237 369.144 376.443 369.482C378.583 369.852 378.783 371.872 378.993 373.632C379.113 374.682 378.993 375.742 379.053 376.802C379.123 379.382 379.133 379.292 381.803 379.312C383.775 379.331 385.743 379.485 387.693 379.772C388.301 379.937 388.822 380.327 389.153 380.862C392.933 386.632 396.713 392.392 400.373 398.222C401.915 400.649 403.269 403.19 404.423 405.822C404.484 406.32 404.414 406.825 404.221 407.287C404.029 407.75 403.719 408.155 403.323 408.462C401.058 409.368 398.741 410.136 396.383 410.762C396.483 412.562 396.613 414.642 396.723 416.762C396.793 418.142 396.883 419.522 396.883 420.902C396.883 427.712 396.883 434.512 396.883 441.322C396.883 444.742 397.013 448.182 396.663 451.562C396.616 452.591 396.279 453.585 395.692 454.43C395.104 455.276 394.29 455.939 393.343 456.342C392.702 456.452 392.045 456.429 391.413 456.272C390.833 456.272 390.203 455.952 389.713 456.122C385.463 457.552 381.073 456.942 376.783 456.902C368.223 456.812 359.673 456.122 351.113 455.902C348.113 455.812 345.203 456.472 342.253 456.432C338.913 456.432 335.583 455.922 332.253 455.662C330.956 455.668 329.66 455.588 328.373 455.422C324.803 454.652 323.153 452.562 323.123 448.852C323.073 443.632 323.123 438.412 323.073 433.192C323.073 432.262 322.503 431.342 322.453 430.402C322.333 428.282 321.753 425.902 322.503 424.102C323.403 421.902 322.943 419.862 322.993 417.792C322.993 415.202 322.483 412.602 322.363 409.992C322.313 408.852 322.053 408.112 320.943 407.752C320.581 407.609 320.244 407.41 319.943 407.162C317.553 405.312 317.483 404.682 319.103 402.092C323.343 395.312 327.567 388.522 331.773 381.722C332.078 381.086 332.3 380.414 332.433 379.722L332.443 379.632Z" fill="white" fill-opacity="0.3"/>
<path d="M350.382 146.564C353.632 146.564 356.792 146.484 359.952 146.564C367.052 146.784 374.142 147.084 381.242 147.374C383.172 147.454 384.182 147.094 383.482 144.734C381.732 138.734 380.302 132.654 378.482 126.674C376.892 121.374 374.982 116.174 373.172 110.824C369.512 113.634 368.092 113.524 363.772 110.294L350.352 146.544L350.382 146.564ZM398.132 171.774C399.842 171.294 402.832 170.854 405.422 169.604C407.422 168.604 409.002 166.694 410.672 165.094C413.772 162.094 413.742 162.094 411.272 158.614C410.272 157.224 409.382 155.764 408.422 154.354C406.622 151.704 404.362 149.804 400.952 149.664C397.542 149.524 393.952 149.214 390.412 149.174C382.832 149.064 375.252 149.174 367.672 149.014C362.192 148.894 356.722 148.384 351.242 148.144C349.812 148.084 348.362 148.524 346.922 148.504C342.742 148.444 338.562 148.124 334.382 148.194C332.968 148.223 331.614 148.775 330.582 149.744C328.35 152.33 326.254 155.03 324.302 157.834C324.159 158.063 324.072 158.323 324.049 158.593C324.027 158.862 324.069 159.134 324.172 159.384C327.172 162.384 330.172 165.234 333.262 168.124C333.479 168.263 333.734 168.333 333.992 168.324C339.372 168.494 344.742 168.664 350.112 168.804C357.642 169.014 365.182 169.004 372.692 169.464C380.692 169.964 388.782 170.904 398.132 171.774ZM348.442 146.124C350.342 141.254 352.342 136.334 354.162 131.364C356.892 123.904 359.382 116.364 362.162 108.944C364.062 103.944 365.702 102.814 368.582 103.024C369.668 103.078 370.709 103.468 371.564 104.14C372.418 104.811 373.043 105.732 373.352 106.774C377.352 119.214 381.172 131.704 384.762 144.264C385.592 147.154 386.982 147.924 389.692 147.954C395.022 148.004 400.352 148.424 405.692 148.424C407.772 148.424 406.932 149.964 407.502 150.754C409.592 153.684 411.612 156.694 413.912 159.464C416.212 162.234 416.212 162.684 413.442 164.974C410.672 167.264 407.762 169.974 404.842 172.374C404.082 173.01 403.124 173.364 402.132 173.374C393.392 172.854 384.652 172.204 375.912 171.584C368.372 171.054 360.842 170.394 353.292 170.044C347.902 169.784 342.482 169.894 337.082 169.944C335.755 170.113 334.446 170.404 333.172 170.814C332.542 170.294 331.342 169.344 330.172 168.324C327.532 165.984 324.952 163.584 322.282 161.274C320.822 160.014 320.472 159.084 321.952 157.354C324.672 154.194 326.742 150.424 329.662 147.484C330.872 146.274 333.572 146.294 335.612 146.204C339.802 146.034 344.012 146.154 348.372 146.154L348.442 146.124Z" fill="white" fill-opacity="0.3"/>
<path d="M380.512 156.454V164.104C380.582 164.648 380.582 165.199 380.512 165.744C380.462 165.934 379.612 166.154 379.512 166.014C379.052 165.554 378.432 164.924 378.432 164.374C378.482 161.124 378.622 157.884 378.882 154.654C378.882 154.044 379.712 152.994 380.072 153.024C381.044 153.042 381.972 153.428 382.672 154.104C384.342 156.464 385.742 159.014 387.282 161.534C389.392 158.614 386.812 154.614 389.812 151.894V166.634L388.912 167.114C388.045 166.28 387.252 165.373 386.542 164.404C384.792 161.644 383.162 158.794 381.482 155.984L380.562 156.454H380.512Z" fill="white" fill-opacity="0.3"/>
<path d="M353.142 158.604C352.153 156.871 351.057 155.201 349.862 153.604C349.612 153.304 347.972 153.664 347.462 154.184C345.762 155.934 346.662 157.974 347.602 159.644C347.919 160.154 348.347 160.586 348.855 160.908C349.362 161.23 349.935 161.433 350.532 161.504C351.312 161.504 352.032 159.944 353.142 158.654V158.604ZM345.072 157.384C344.812 154.914 345.382 152.704 347.612 151.884C348.992 151.384 350.862 151.764 352.382 152.204C353.902 152.644 354.762 156.834 354.222 158.854C354.112 159.254 353.982 159.654 353.852 160.054C353.182 161.994 352.772 164.114 349.852 163.664C348.677 163.475 347.589 162.929 346.737 162.098C345.884 161.267 345.31 160.193 345.092 159.024C345.052 158.478 345.052 157.929 345.092 157.384H345.072Z" fill="white" fill-opacity="0.3"/>
<path d="M374.511 157.964C373.861 159.734 373.861 159.734 370.051 160.314C369.561 162.494 370.051 163.774 372.671 163.694C373.271 163.694 373.881 164.284 374.491 164.604C373.841 164.964 373.201 165.604 372.491 165.604C371.093 165.548 369.7 165.398 368.321 165.154C367.951 161.634 367.471 158.334 367.321 155.014C367.375 154.514 367.554 154.037 367.84 153.624C368.127 153.212 368.512 152.878 368.961 152.654C370.617 152.415 372.296 152.378 373.961 152.544C373.961 152.544 374.211 153.484 374.031 153.664C373.65 153.897 373.209 154.016 372.761 154.004C371.231 154.124 369.241 153.464 369.271 156.124C369.271 157.644 369.721 158.564 371.571 157.994C372.51 157.866 373.462 157.866 374.401 157.994L374.511 157.964Z" fill="white" fill-opacity="0.3"/>
<path d="M360.881 157.424C361.881 156.104 362.881 155.274 362.751 154.814C362.586 154.365 362.329 153.955 361.997 153.611C361.664 153.266 361.264 152.995 360.821 152.814C359.821 152.484 358.291 152.564 358.611 154.254C358.781 155.164 359.771 155.914 360.881 157.384V157.424ZM359.391 158.594C358.631 160.014 360.641 162.294 357.831 163.364C357.381 160.274 356.941 157.364 356.511 154.444C356.221 152.444 357.381 151.554 359.051 151.244C361.961 150.694 363.671 151.574 364.181 153.764C364.651 155.764 364.181 157.394 362.111 158.134C361.221 158.37 360.31 158.524 359.391 158.594Z" fill="white" fill-opacity="0.3"/>
<path d="M195.096 436.58C195.106 435.147 194.56 433.766 193.574 432.725C192.588 431.685 191.238 431.067 189.806 431C186.806 430.79 184.366 433.25 184.196 436.68C184.056 439.4 186.976 442.62 189.866 442.76C190.633 442.749 191.389 442.573 192.083 442.245C192.776 441.918 193.391 441.445 193.887 440.859C194.382 440.274 194.747 439.589 194.955 438.851C195.164 438.113 195.212 437.338 195.096 436.58ZM102.506 441.02C105.156 439.32 105.506 436.8 104.796 433.26C104.346 431 103.366 429.2 100.796 428.91C100.146 428.83 99.4863 428.91 98.8463 428.79C96.0363 428.25 92.3963 431.33 92.5163 434.2C92.5396 435.513 92.8626 436.804 93.4604 437.974C94.0583 439.144 94.9154 440.162 95.9663 440.95C97.8663 442.43 100.476 442.04 101.166 440.01L102.516 441.01L102.506 441.02ZM70.9663 433.48C70.9663 433.48 70.9663 433.43 70.9663 433.4C72.1563 433.4 73.3463 433.35 74.5263 433.4C79.3863 433.62 84.2463 433.84 89.1063 434.12C89.6958 434.222 90.3019 434.089 90.7939 433.748C91.2859 433.408 91.6244 432.888 91.7363 432.3C91.8973 431.798 92.1261 431.32 92.4163 430.88C93.1947 429.493 94.3772 428.376 95.8064 427.677C97.2355 426.979 98.8435 426.732 100.416 426.97C103.186 427.29 105.246 428.53 105.986 431.43C106.236 432.37 106.346 433.71 106.986 434.09C107.626 434.47 108.836 433.88 109.796 433.72C113.046 433.16 114.796 431.06 114.726 427.72C114.726 423.54 114.726 419.35 114.726 415.17C114.616 406.85 114.506 398.53 114.336 390.17C114.246 385.79 111.606 382.7 107.226 382.17C100.226 381.28 93.1763 380.17 85.9863 381.22C82.7463 381.7 80.2963 383.75 79.8363 386.73C79.4863 389.01 79.1863 391.29 78.7463 393.55C78.3463 395.6 78.0663 397.76 76.1063 399.06C72.7263 401.31 69.3263 403.55 65.9163 405.74C63.9763 406.99 62.6163 408.45 62.7563 410.99C63.0863 417.16 63.2563 423.33 63.6063 429.49C63.5882 430.321 63.8753 431.13 64.4134 431.764C64.9514 432.398 65.7031 432.813 66.5263 432.93C68.0063 433.17 69.5263 433.28 71.0063 433.44L70.9663 433.48ZM115.806 418.58C116.056 423.46 116.226 427.15 116.436 430.83C116.596 433.76 118.436 435.34 121.336 435.1C121.787 435.037 122.241 435.003 122.696 435C126.966 435.22 131.236 435.51 135.506 435.71C143.926 436.11 152.346 436.45 160.766 436.85C161.378 436.951 162.006 436.822 162.529 436.488C163.051 436.154 163.432 435.638 163.596 435.04C164.127 433.642 165.07 432.438 166.301 431.588C167.531 430.738 168.991 430.282 170.486 430.28C171.921 430.197 173.341 430.607 174.51 431.442C175.68 432.277 176.529 433.486 176.916 434.87C177.018 435.201 177.185 435.508 177.406 435.774C177.628 436.04 177.9 436.26 178.206 436.42C178.664 436.578 179.148 436.645 179.631 436.615C180.115 436.585 180.587 436.459 181.021 436.245C181.456 436.031 181.843 435.733 182.162 435.368C182.48 435.004 182.723 434.579 182.876 434.12C183.826 431.5 186.876 429.19 189.266 429.23C190.78 429.277 192.251 429.741 193.517 430.57C194.784 431.399 195.798 432.562 196.446 433.93C196.825 434.844 197.541 435.578 198.446 435.98C199.726 436.4 200.096 435.07 200.526 434.14C200.812 433.63 201.008 433.076 201.106 432.5C201.306 429.83 201.396 427.16 201.586 424.5C201.796 421.44 202.256 418.37 202.246 415.31C202.246 411.61 201.666 407.9 201.666 404.19C201.666 399.64 202.066 395.1 202.226 390.54C202.326 387.73 202.416 384.91 202.226 382.11C202.062 380.904 201.59 379.761 200.856 378.79C199.146 376.28 196.376 376.02 193.666 375.9C190.616 375.77 187.556 375.9 184.496 375.81C179.996 375.73 175.496 375.62 171.006 375.45C160.886 375.07 150.776 374.61 140.666 374.26C133.446 374.01 126.236 373.87 119.016 373.72C117.836 373.72 117.326 374.4 117.256 375.61C117.026 379.71 116.726 383.8 116.396 387.89C116.286 389.27 115.896 390.63 115.886 392.01C115.886 395.44 115.936 398.87 115.996 402.3C116.066 405.57 116.256 408.84 116.216 412.11C116.216 414.67 115.876 417.22 115.776 418.6L115.806 418.58ZM167.866 433.64C166.861 434.065 166.027 434.813 165.494 435.766C164.962 436.718 164.762 437.821 164.926 438.9C165.386 442.18 167.796 442.5 170.336 442.9C172.876 443.3 174.526 442.34 174.916 439.81C174.996 438.611 174.996 437.409 174.916 436.21C174.916 434.01 173.306 433.11 171.696 432.47C171 432.191 170.228 432.162 169.512 432.386C168.797 432.61 168.18 433.074 167.766 433.7L167.836 433.63L167.866 433.64ZM115.416 385.91C115.416 383.91 115.316 381.82 115.416 379.79C115.505 377.733 115.776 375.689 116.226 373.68C116.636 372.04 118.226 371.96 119.656 372.01C124.396 372.18 129.136 372.41 133.876 372.64C138.616 372.87 143.326 373.17 148.056 373.38C154.696 373.66 161.336 374.02 167.986 374.13C176.566 374.27 185.156 374.13 193.746 374.29C195.815 374.364 197.851 374.829 199.746 375.66C203.746 377.41 204.046 381.27 204.006 384.89C203.936 392.06 203.426 399.22 203.326 406.39C203.326 409.59 203.976 412.8 204.026 416.02C204.096 419.82 204.026 423.65 203.676 427.44C203.363 429.833 202.885 432.202 202.246 434.53C201.726 436.81 200.126 437.91 197.946 438.47C197.293 438.704 196.732 439.143 196.346 439.72C195.696 440.61 195.346 441.72 194.656 442.57C192.256 445.31 189.776 445.5 186.296 443.25C184.804 442.1 183.559 440.662 182.636 439.02C181.636 437.48 180.276 438.14 179.076 438.13C178.701 438.163 178.339 438.281 178.017 438.475C177.694 438.669 177.421 438.934 177.216 439.25C176.336 441.05 176.026 443.13 174.216 444.38C173.253 445.115 172.116 445.587 170.915 445.751C169.714 445.914 168.492 445.763 167.367 445.313C166.243 444.862 165.254 444.128 164.498 443.181C163.743 442.234 163.246 441.107 163.056 439.91C162.796 438.67 162.326 438.49 161.266 438.45C155.486 438.217 149.713 437.95 143.946 437.65C140.186 437.45 136.426 437.05 132.656 436.92C128.886 436.79 125.326 436.92 121.656 436.92C118.336 436.92 115.996 435.24 115.216 432.44C112.556 433.88 110.856 437.59 107.016 435.55C105.776 441.12 103.926 443.3 100.456 443.35C96.1163 443.42 92.7463 442.16 91.0063 435.79C83.1963 435.4 75.4563 435.07 67.7163 434.62C63.5363 434.38 62.0163 432.52 61.8663 428.27C61.7163 424.02 61.3063 420 61.1463 415.86C61.0563 413.5 60.7363 410.94 61.4763 408.81C62.0963 407.06 63.9663 405.56 65.5763 404.37C68.5763 402.15 71.8563 400.29 74.9363 398.16C75.6639 397.655 76.2672 396.991 76.7003 396.218C77.1334 395.445 77.3851 394.584 77.4363 393.7C77.7814 390.707 78.2922 387.736 78.9663 384.8C79.6963 381.49 82.1563 380.2 85.2863 379.8C92.9363 378.85 100.476 379.88 108.026 380.91C111.316 381.36 113.466 383.12 115.356 385.91H115.416Z" fill="white" fill-opacity="0.3"/>
<path d="M183.476 403.88C185.306 402.6 185.236 401.88 183.476 400.88V403.88ZM186.116 409.73L184.206 406.53C184.187 406.832 184.147 407.133 184.086 407.43C183.856 408.04 183.606 408.64 183.366 409.25C182.946 408.67 182.286 408.14 182.156 407.5C181.666 405.05 181.276 402.58 181.006 400.09C180.936 399.42 181.456 398.68 181.716 397.92C182.7 398.408 183.655 398.952 184.576 399.55C185.996 400.55 186.646 402.2 185.806 403.71C185.126 404.93 185.566 405.6 186.066 406.54C186.457 407.421 186.791 408.326 187.066 409.25L186.066 409.73H186.116Z" fill="white" fill-opacity="0.3"/>
<path d="M126.396 405.32C128.056 404.45 128.986 403.13 128.526 401.2C128.396 400.487 128.029 399.84 127.484 399.362C126.939 398.885 126.249 398.605 125.526 398.57C125.116 398.57 124.286 399.18 124.296 399.48C124.386 401.61 124.056 403.94 126.406 405.32H126.396ZM122.756 397.32C125.896 396.62 128.306 397.65 129.466 400.05C129.958 401.068 130.077 402.227 129.801 403.324C129.525 404.421 128.872 405.386 127.956 406.05C126.995 406.69 125.879 407.056 124.726 407.11C124.276 407.11 123.396 406.11 123.326 405.49C123.016 402.82 122.936 400.13 122.756 397.35V397.32Z" fill="white" fill-opacity="0.3"/>
<path d="M175.726 403.45L176.366 403.63C178.576 402.17 178.676 401.49 176.366 399.63C176.106 401.1 175.906 402.27 175.696 403.43L175.726 403.45ZM177.866 404.45C178.036 406.11 181.106 406.75 178.736 408.73L176.356 405.48C175.976 406.88 176.786 408.42 174.516 409.4C174.516 407.2 174.516 405.28 174.516 403.4C174.516 402.51 174.166 401.62 174.206 400.73C174.206 400.12 174.646 399 174.906 398.99C176.226 398.99 177.776 398.87 178.816 399.49C179.856 400.11 179.816 401.67 179.046 402.86C178.646 403.46 178.206 404.03 177.876 404.49L177.866 404.45Z" fill="white" fill-opacity="0.3"/>
<path d="M131.916 397.82H137.436C137.556 399.36 136.646 399.82 134.026 399.4C133.376 401.99 133.726 402.4 136.276 402.4C137.096 402.4 137.926 402.4 138.746 402.4C138.746 402.64 138.816 402.89 138.856 403.13L134.196 404.13C134.526 406.42 138.196 404.13 138.076 406.99C136.666 407.05 135.356 407.18 134.076 407.12C133.837 407.066 133.615 406.953 133.431 406.79C133.247 406.628 133.108 406.421 133.026 406.19C132.606 403.44 132.296 400.68 131.946 397.87L131.916 397.82Z" fill="white" fill-opacity="0.3"/>
<path d="M171.966 404.87L168.066 406.48C168.136 406.66 168.206 406.84 168.266 407.03L171.076 407.24C170.966 409.52 168.886 408.4 167.956 409.1C167.403 408.843 166.955 408.406 166.686 407.86C166.176 405.38 165.796 402.86 165.506 400.35C165.446 399.91 165.966 399.02 166.286 398.99C167.976 398.81 169.786 398.29 171.696 400.17C169.556 400.26 166.756 398.88 167.376 402.66C167.886 405.79 170.456 403.56 171.966 404.87Z" fill="white" fill-opacity="0.3"/>
<path d="M193.136 409.32C192.886 408.49 192.666 407.65 192.356 406.83C192.046 406.01 191.896 405.05 191.356 404.59C189.786 403.31 189.626 401.59 189.356 399.83C189.356 399.51 189.766 399.13 189.996 398.78C190.346 399.02 190.866 399.19 190.996 399.51C191.206 400.03 190.996 400.72 191.266 401.23C191.609 402.04 192.075 402.792 192.646 403.46C192.837 403.563 193.05 403.617 193.266 403.617C193.483 403.617 193.696 403.563 193.886 403.46C194.029 403.302 194.137 403.117 194.204 402.916C194.271 402.714 194.296 402.501 194.276 402.29C194.216 401.19 194.036 400.1 193.896 398.92C195.726 399.42 196.896 402.2 195.796 403.46C195.265 404.077 194.866 404.797 194.621 405.574C194.377 406.351 194.294 407.17 194.376 407.98C194.376 408.41 194.026 408.85 193.826 409.29L193.146 409.35L193.136 409.32Z" fill="white" fill-opacity="0.3"/>
<path d="M156.866 399.51C157.506 399.27 157.506 399.27 160.666 404.68L162.876 397.68C163.376 398.36 163.946 398.82 163.876 399.08C162.936 402.03 161.876 404.96 160.876 407.88L160.186 407.76L156.866 399.51Z" fill="white" fill-opacity="0.3"/>
<path d="M147.636 399.04C150.506 397.98 152.816 398.47 153.096 400.3L151.566 400.09C151.666 402.53 151.206 404.96 153.706 407.09C152.944 407.589 152.133 408.008 151.286 408.34C150.846 408.48 150.236 408.05 149.696 407.88C149.97 407.466 150.176 407.01 150.306 406.53C150.396 405.24 150.306 403.94 150.366 402.64C150.426 401.34 150.206 399.98 148.366 399.9C148.126 399.9 147.906 399.35 147.656 399.03L147.636 399.04Z" fill="white" fill-opacity="0.3"/>
<path d="M142.866 397.51C143.192 398.174 143.434 398.876 143.586 399.6C143.689 401.108 143.713 402.62 143.656 404.13C143.606 405.62 143.996 406.54 145.746 406.38C146.226 406.38 146.746 406.71 147.486 406.97C146.166 408.56 144.736 407.97 143.556 407.68C143.056 407.54 142.556 406.42 142.556 405.68C142.286 403.34 142.176 400.99 142.036 398.68C142.082 398.334 142.18 397.997 142.326 397.68L142.906 397.54L142.866 397.51Z" fill="white" fill-opacity="0.3"/>
<path d="M87.1366 384.95C87.3466 388.78 87.4467 392.33 87.7667 395.87C88.0367 398.87 88.4267 399.08 91.4967 399.22C93.1967 399.3 94.8967 399.5 96.5967 399.66C100.367 400.03 104.137 400.4 107.897 400.8C109.787 401 110.417 399.97 110.367 398.34C110.257 395.19 110.067 392.04 109.947 388.89C109.877 387.02 108.867 386.26 107.077 386.09C103.737 385.78 100.417 385.2 97.0766 384.99C93.8866 384.8 90.6767 384.99 87.1467 384.99L87.1366 384.95ZM91.9067 383.16C97.3867 383.75 102.907 384.29 108.347 384.98C109.088 384.985 109.797 385.282 110.321 385.806C110.845 386.33 111.141 387.039 111.147 387.78C111.267 391.89 111.457 396 111.497 400.11C111.497 401.8 110.107 402.11 108.817 402.03C104.637 401.78 100.457 401.44 96.2767 401.09C93.9967 400.9 91.7367 400.47 89.4667 400.46C89.141 400.509 88.8085 400.485 88.493 400.391C88.1775 400.296 87.8867 400.133 87.6413 399.914C87.3958 399.694 87.2019 399.423 87.0732 399.12C86.9445 398.817 86.8842 398.489 86.8967 398.16C86.5567 394.16 86.1667 390.16 86.0567 386.16C85.9767 383.33 86.1567 383.33 89.1167 383.33H91.8667C91.8612 383.267 91.8612 383.203 91.8667 383.14L91.9067 383.16Z" fill="white" fill-opacity="0.3"/>
<path d="M96.5161 434.73C96.4261 432.88 97.7161 431.89 99.9161 431.79C101.626 431.71 102.136 433.29 102.336 434.66C102.566 436.26 100.706 438.41 99.2862 438.46C97.8662 438.51 96.5361 436.73 96.5161 434.73Z" fill="white" fill-opacity="0.3"/>
<path d="M191.037 434.1C191.497 434.61 192.657 435.34 192.947 436.33C193.407 437.85 191.547 440.05 190.227 440.05C189.558 439.938 188.944 439.611 188.478 439.118C188.012 438.626 187.72 437.994 187.647 437.32C187.624 436.876 187.698 436.433 187.863 436.021C188.027 435.608 188.279 435.237 188.601 434.931C188.923 434.625 189.308 434.392 189.728 434.249C190.148 434.105 190.595 434.055 191.037 434.1Z" fill="white" fill-opacity="0.3"/>
<path d="M167.866 433.71C170.816 433.31 172.456 433.98 173.476 436.8C173.806 437.75 172.826 439.4 172.056 440.44C171.286 441.48 169.826 441.44 168.676 440.67C168.19 440.388 167.767 440.01 167.432 439.559C167.097 439.108 166.858 438.594 166.729 438.047C166.6 437.5 166.583 436.933 166.681 436.38C166.778 435.827 166.988 435.299 167.296 434.83L167.936 433.64L167.866 433.71Z" fill="white" fill-opacity="0.3"/>
<path d="M225.59 263.746C217.17 262.686 208.93 264.746 200.59 265.336L200.65 266.056L225.59 263.746ZM189.84 317.206C189.54 315.276 189.31 313.606 188.98 311.966C188.98 311.696 188.38 311.256 188.18 311.316C186.18 311.916 184.18 312.606 182.25 313.316C182.25 313.586 182.3 313.856 182.32 314.126L189.84 317.256V317.206ZM185.24 274.476H184.49C181.75 286.876 182.09 299.586 180.38 312.476L188.44 309.336C187.37 297.626 186.3 286.036 185.24 274.446V274.476ZM204.92 266.966V266.506C199.16 266.966 193.4 267.416 187.65 267.906C186.22 268.026 185.32 268.696 185.53 270.326C186.2 275.576 186.96 280.826 187.53 286.096C188.2 292.936 188.59 299.816 189.29 306.656C189.664 309.889 190.238 313.095 191.01 316.256C191.25 317.256 192.01 318.706 192.83 318.896C195.263 319.424 197.741 319.722 200.23 319.786C204.643 320.006 209.057 320.13 213.47 320.156C219.94 320.156 226.47 321.596 232.86 319.336C234.5 318.756 235.3 318.196 235.18 316.336C234.84 311.286 234.82 306.206 234.36 301.166C233.36 290.506 232.27 279.876 231.12 269.236C230.99 268.116 230.44 266.316 229.72 266.116C227.406 265.408 224.988 265.097 222.57 265.196C216.7 265.586 210.86 266.336 205.01 266.936L204.92 266.966ZM179 314.296C179.51 309.716 180 305.556 180.43 301.386C180.8 297.976 181.12 294.556 181.54 291.146C182.16 286.076 182.84 281.016 183.54 275.956C183.9 273.286 184.25 270.606 184.75 267.956C184.858 267.669 185.03 267.411 185.254 267.201C185.478 266.991 185.747 266.835 186.04 266.746C189.44 266.116 192.85 265.586 196.27 265.076C200.74 264.406 205.2 263.706 209.68 263.156C213.54 262.676 217.41 262.256 221.28 262.026C223.709 261.956 226.139 262.026 228.56 262.236C229.56 262.236 231.76 265.606 231.89 266.886C232.76 275.386 233.72 283.886 234.51 292.386C234.97 297.256 235.16 302.156 235.51 307.046C235.74 310.456 235.97 313.856 236.27 317.256C236.42 318.946 235.63 319.736 234.11 320.256C228.95 321.996 223.72 322.046 218.36 321.516C214.5 321.136 210.57 321.516 206.67 321.356C202.13 321.196 197.58 320.916 193.05 320.516C192.036 320.241 191.081 319.783 190.23 319.166C189.78 318.916 189.39 318.536 188.93 318.336C185.68 316.996 182.42 315.686 179.02 314.336L179 314.296Z" fill="white" fill-opacity="0.3"/>
<path d="M218.59 270.576C216.87 269.646 216.24 270.676 215.85 271.816C215.69 272.246 216.02 272.816 216.13 273.376C216.95 272.166 215.93 270.186 218.59 270.576ZM203.09 272.516L203.66 272.046C203.16 271.586 202.66 270.716 202.18 270.736C201.167 270.679 200.169 270.999 199.38 271.636C198.46 272.716 198.8 273.426 200.02 274.396C200.25 271.036 200.3 271.006 203.09 272.516ZM210.6 286.916C204.7 286.916 202.54 283.676 200.91 278.106C200.583 277.119 199.991 276.24 199.2 275.566C198.819 275.281 198.498 274.923 198.256 274.513C198.015 274.103 197.857 273.649 197.792 273.177C197.727 272.706 197.756 272.226 197.877 271.766C197.999 271.306 198.21 270.874 198.5 270.496C198.809 270.113 199.193 269.797 199.629 269.567C200.064 269.337 200.542 269.198 201.033 269.158C201.523 269.117 202.017 269.177 202.484 269.333C202.951 269.49 203.382 269.739 203.75 270.066C204.97 271.206 204.63 272.576 204.05 273.886C202.97 276.326 204.54 281.596 206.81 282.996C209.08 284.396 214.36 282.566 215.55 279.996C215.954 278.963 216.289 277.904 216.55 276.826C216.65 276.602 216.704 276.359 216.708 276.114C216.712 275.868 216.666 275.624 216.572 275.396C216.479 275.169 216.34 274.963 216.164 274.791C215.988 274.619 215.779 274.485 215.55 274.396C214.969 273.93 214.557 273.287 214.377 272.564C214.196 271.842 214.257 271.081 214.55 270.396C215.041 269.641 215.801 269.102 216.676 268.886C217.55 268.671 218.474 268.796 219.26 269.236C220.76 270.106 221.46 271.926 220.38 273.236C219.06 274.896 219.19 276.726 219.16 278.516C219.09 282.986 214.05 287.256 210.53 286.886L210.6 286.916Z" fill="white" fill-opacity="0.3"/>
<path d="M206.12 301.156L205.35 301.326L205.23 304.126L208.12 303.576C208.12 303.356 208.12 303.136 208.12 302.916C207.46 302.326 206.8 301.736 206.12 301.156ZM204.82 306.036C205.23 307.356 205.64 308.446 205.9 309.566C205.98 309.926 205.66 310.376 205.53 310.786C205.08 310.566 204.25 310.366 204.23 310.106C203.917 307.247 203.794 304.371 203.86 301.496C203.95 299.706 206.98 298.966 208.02 300.446C208.886 301.803 209.559 303.274 210.02 304.816C210.35 305.878 210.574 306.97 210.69 308.076C210.74 308.785 210.74 309.497 210.69 310.206L210.01 310.266C209.78 309.266 209.53 308.216 209.34 307.176C208.88 304.566 208.89 304.566 206.34 305.506C205.92 305.666 205.5 305.806 204.85 306.036H204.82Z" fill="white" fill-opacity="0.3"/>
<path d="M224.18 304.746L227.18 303.746C227.46 305.946 225.29 305.496 224.39 306.506C224.69 307.436 225.01 308.456 225.39 309.506L229.11 308.456C229.185 308.661 229.246 308.872 229.29 309.086C228.162 309.71 226.968 310.206 225.73 310.566C225.371 310.526 225.028 310.396 224.732 310.188C224.437 309.98 224.199 309.701 224.04 309.376C223.166 306.851 222.497 304.259 222.04 301.626C221.93 300.836 222.91 299.626 223.71 299.026C224.715 298.496 225.793 298.119 226.91 297.906C227.29 299.286 227.43 300.276 225.73 300.666C223.3 301.216 222.94 302.276 224.23 304.726L224.18 304.746Z" fill="white" fill-opacity="0.3"/>
<path d="M199.34 299.966C198.785 299.804 198.204 299.753 197.63 299.816C196.888 300.031 196.242 300.493 195.8 301.126C195.61 301.556 196.11 302.526 196.57 302.966C197.102 303.343 197.739 303.542 198.39 303.536C200.5 303.716 201.19 304.386 201.39 306.536C201.59 308.686 200.51 310.536 198.87 310.536C197.98 310.536 197.03 309.806 196.18 309.286C196.02 309.186 196.18 308.526 196.23 308.126C196.62 308.186 197 308.216 197.38 308.306C198.05 308.456 199.13 308.966 199.3 308.746C199.84 308.066 200.136 307.225 200.14 306.356C200.14 305.806 199.35 305.136 198.76 304.816C198.17 304.496 197.14 304.636 196.51 304.246C195.708 303.83 195.081 303.143 194.74 302.306C194.47 301.016 194.27 299.306 195.99 298.776C196.99 298.496 198.19 298.946 199.29 299.096C199.354 299.355 199.388 299.62 199.39 299.886L199.34 299.966Z" fill="white" fill-opacity="0.3"/>
<path d="M220.59 309.166C220.25 309.536 219.97 310.106 219.59 310.236C218.734 310.555 217.821 310.691 216.91 310.636C216.584 310.574 216.277 310.435 216.015 310.232C215.752 310.029 215.541 309.766 215.4 309.466C214.75 306.736 214.25 303.966 213.8 301.196C213.74 300.876 214.28 300.446 214.54 300.066C214.9 300.526 215.54 300.956 215.54 301.456C215.82 303.326 215.76 305.246 216.12 307.096C216.55 309.316 216.98 309.456 219.26 308.866C219.563 308.801 219.871 308.751 220.18 308.716L220.59 309.166Z" fill="white" fill-opacity="0.3"/>
<path d="M294.359 94.2541C292.789 93.8041 291.359 93.4641 289.979 93.0041C284.615 91.2466 279.58 88.6107 275.079 85.2041C274.862 85.0294 274.612 84.9019 274.343 84.8296C274.075 84.7572 273.794 84.7417 273.519 84.7841C272.219 85.3341 271.889 88.9341 273.029 89.7841C274.663 91.1101 276.41 92.2912 278.249 93.3141C280.989 94.6641 283.949 95.5541 286.739 96.8341C291.289 98.9241 291.559 98.8941 294.359 94.2541ZM263.609 62.2541C264.079 62.5841 264.429 63.0041 264.839 63.0741C267.539 63.5641 270.249 64.0741 272.979 64.3741C273.419 64.4341 274.149 63.8741 274.409 63.3741C277.189 58.3741 279.899 53.3741 282.609 48.3741C282.786 47.973 282.929 47.5583 283.039 47.1341C278.869 47.4941 268.959 54.1341 263.609 62.1341V62.2541ZM325.359 55.1741C324.719 56.7841 324.199 58.4441 323.409 59.9841C320.942 64.8307 318.412 69.6541 315.819 74.4541C315.129 75.7341 314.729 76.8041 316.029 77.9541C317.329 79.1041 318.609 80.5341 319.959 81.7641C322.739 84.3041 323.779 83.9741 324.609 80.3241C324.614 80.2608 324.614 80.1973 324.609 80.1341C325.609 71.8741 326.729 63.6241 325.329 55.1341L325.359 55.1741ZM331.029 26.8441C330.569 23.6941 330.209 20.7041 329.649 17.7541C329.509 17.4324 329.292 17.1505 329.016 16.934C328.74 16.7175 328.415 16.5732 328.069 16.5141C326.687 16.4183 325.299 16.602 323.989 17.0541C318.639 19.2841 313.349 21.6741 308.049 24.0541C306.729 24.6341 306.579 25.5241 307.359 26.7241C312.179 34.2541 319.689 37.5941 327.839 39.9541C328.989 40.2841 329.609 39.7341 329.739 38.6141C330.179 34.6141 330.609 30.6741 331.029 26.8741V26.8441ZM305.109 25.8941C296.459 30.7341 290.499 38.3241 285.109 46.3741C279.305 55.317 274.553 64.9006 270.949 74.9341C269.589 78.5241 269.949 80.4541 272.039 81.9341C273.819 83.1741 275.599 84.3741 277.389 85.5841C283.996 90.0525 291.591 92.8462 299.519 93.7241C299.925 93.7717 300.337 93.7379 300.73 93.6245C301.124 93.5112 301.49 93.3207 301.809 93.0641C303.625 91.2464 305.281 89.2758 306.759 87.1741C309.579 82.9141 312.179 78.5041 314.849 74.1741C320.388 64.7859 324.917 54.837 328.359 44.4941C329.279 41.8741 329.169 41.9341 326.639 41.0941C320.639 39.0941 314.689 36.9541 310.239 32.1641C308.419 30.1641 306.839 28.0341 305.099 25.8941H305.109ZM314.019 77.5641C312.749 79.5641 311.579 81.6741 310.249 83.5641C307.799 87.1341 305.319 90.6841 302.699 94.1241C302.018 94.7429 301.119 95.0665 300.199 95.0241C298.65 94.9083 297.111 94.6945 295.589 94.3841C294.669 95.6541 293.719 96.7841 292.969 98.0341C292.689 98.6119 292.196 99.0588 291.594 99.2807C290.992 99.5026 290.327 99.4823 289.739 99.2241C284.069 96.8741 278.029 95.2241 273.049 91.4241C270.509 89.4241 270.549 89.4241 271.529 86.4241C272.409 83.7741 271.999 82.6741 269.529 81.1141L268.249 80.2941C269.829 75.5441 271.399 70.8441 273.009 65.9941C269.449 64.7041 265.209 65.3741 261.749 62.6841C264.909 58.6841 267.749 54.7741 271.899 51.8341C275.571 49.1793 279.579 47.0238 283.819 45.4241C284.572 45.0531 285.194 44.4597 285.599 43.7241C289.9 36.9899 295.397 31.0995 301.819 26.3441C307.116 22.1452 313.06 18.8353 319.419 16.5441C321.802 15.7939 324.26 15.3076 326.749 15.0941C329.859 14.7341 330.679 15.3041 331.279 18.6241C331.949 21.7614 332.244 24.9671 332.159 28.1741C331.679 35.8441 330.879 43.5341 327.299 50.5241C326.089 52.8841 327.299 55.0441 327.199 57.2941C327.059 60.1641 327.199 63.0441 327.029 65.9141C326.869 69.3241 326.759 72.7541 326.279 76.1241C325.796 78.8792 325.127 81.5986 324.279 84.2641C323.839 85.7841 322.829 85.8141 321.749 84.7941L314.049 77.5641H314.019Z" fill="white" fill-opacity="0.3"/>
<path d="M245.459 131.784C244.604 133.368 244.341 135.204 244.719 136.964C245.096 138.724 246.089 140.291 247.519 141.384C251.309 144.184 254.799 143.384 258.869 138.854C259.029 139.074 259.289 139.274 259.289 139.474C259.289 143.044 261.679 145.014 264.109 146.984C264.703 147.504 265.426 147.854 266.202 147.998C266.978 148.143 267.778 148.075 268.519 147.804C272.669 146.554 274.009 145.034 274.339 140.804C274.475 140.172 274.665 139.553 274.909 138.954C277.479 141.174 279.439 144.114 283.199 143.344C285.499 142.874 287.749 142.054 289.079 140.034C289.799 138.821 290.195 137.444 290.229 136.034C290.32 134.592 290.055 133.15 289.459 131.834C288.909 130.704 287.669 129.914 286.459 128.714C293.079 128.274 295.239 124.074 294.829 118.314C294.678 116.803 294.189 115.345 293.4 114.047C292.611 112.749 291.541 111.644 290.269 110.814C287.449 108.734 284.509 110.054 281.139 110.084C283.589 106.904 284.079 103.084 287.249 100.884L283.039 108.544C290.609 107.484 294.439 111.154 295.659 117.674C296.479 122.094 295.149 126.954 289.879 129.674C291.199 132.934 292.149 136.354 290.679 139.744C290.009 141.176 288.875 142.339 287.459 143.044C285.563 144.033 283.447 144.525 281.309 144.474C279.409 144.294 277.639 142.824 275.629 141.834C275.149 146.924 271.169 149.364 266.629 149.154C262.629 148.964 259.749 145.634 258.309 141.324C255.139 144.724 251.429 145.144 247.689 143.034C243.949 140.924 243.019 137.244 243.389 133.034C241.944 132.873 240.565 132.339 239.387 131.486C238.209 130.632 237.273 129.488 236.669 128.164C235.152 124.986 234.652 121.417 235.239 117.944C236.069 112.824 241.239 108.134 246.629 107.754C245.925 106.372 245.645 104.814 245.823 103.273C246.001 101.733 246.629 100.279 247.629 99.0941C249.129 97.2441 250.739 94.6641 252.739 94.1741C259.739 92.4841 263.569 91.7841 267.139 100.174C268.499 97.1741 269.749 94.3341 270.989 91.5441L271.579 91.6741C271.536 92.3515 271.419 93.0222 271.229 93.6741C270.229 96.2041 269.049 98.6741 267.979 101.224C267.539 102.224 266.929 102.114 266.339 101.474C266.014 101.062 265.772 100.59 265.629 100.084C263.579 94.0141 260.479 93.8841 255.499 94.5741C250.919 95.2041 248.719 98.7241 247.339 102.574C246.849 103.934 247.939 105.864 248.339 107.524C248.469 108.054 248.659 108.524 248.829 109.084C248.37 109.235 247.892 109.325 247.409 109.354C241.819 108.804 235.459 115.014 235.969 120.584C236.249 123.654 236.309 126.804 238.699 129.224C240.159 130.694 241.699 131.974 243.979 131.374C244.359 131.284 244.879 131.714 245.459 131.954V131.784Z" fill="white" fill-opacity="0.3"/>
<path d="M271.97 104.274C273.09 100.904 274.02 97.4541 276.2 94.5541L276.74 94.7941L272.51 104.504L271.97 104.274Z" fill="white" fill-opacity="0.3"/>
<path d="M282.83 98.814C281.22 102.024 279.69 105.084 277.98 108.474C277.65 106.254 281.2 99.474 282.83 98.814Z" fill="white" fill-opacity="0.3"/>
<path d="M286.52 74.0641C287.21 76.3441 287.8 78.1641 289.94 79.1941C292.08 80.2241 294.47 81.0341 296.48 79.0341C298.85 76.6841 301.48 74.3841 303.13 71.5641C306.99 65.0941 310.47 58.3641 313.9 51.6441C316.31 46.9141 315.9 45.6441 311.99 42.0741C310.07 40.3441 308.16 40.0041 305.88 41.3441C304.328 42.2055 302.926 43.3132 301.73 44.6241C297.1 50.0141 292.73 55.6241 290.19 62.3641C288.76 66.1841 287.73 70.1641 286.52 74.0641ZM285.52 72.7341C286.33 70.1141 287.34 66.6041 288.52 63.1541C290.3 57.8541 293.66 53.4541 296.86 48.9741C298.926 45.8552 301.479 43.0869 304.42 40.7741C307.42 38.5641 309.95 38.4841 312.81 40.7741C317.14 44.2741 317.65 46.5041 314.99 51.5541C310.99 59.2041 306.99 66.8941 302.62 74.3741C301.33 76.6141 299.1 78.3741 297.06 80.0741C294.26 82.4041 291.28 81.3541 288.51 79.8441C286.12 78.5341 285.83 76.1241 285.51 72.7141L285.52 72.7341Z" fill="white" fill-opacity="0.3"/>
<path d="M305.63 55.344C307.82 55.344 310.11 53.414 310.02 51.654C309.82 50.6572 309.308 49.7497 308.559 49.063C307.809 48.3762 306.86 47.9458 305.85 47.834C304.8 47.834 301.79 50.684 301.72 51.714C301.56 53.904 303.12 55.344 305.63 55.344ZM305.81 56.564C303.04 56.874 300.22 54.674 300.44 51.964C300.71 48.644 302.87 46.204 306.12 46.234C308.39 46.234 311.2 49.234 311.12 51.494C311.039 52.8554 310.445 54.1354 309.458 55.0763C308.471 56.0171 307.163 56.5487 305.8 56.564H305.81Z" fill="white" fill-opacity="0.3"/>
<path d="M295.239 75.5741C297.419 75.5741 299.619 73.7141 299.649 71.9041C299.638 71.3004 299.502 70.7055 299.251 70.1564C299 69.6073 298.639 69.1158 298.189 68.7124C297.74 68.3091 297.212 68.0025 296.64 67.8119C296.067 67.6212 295.461 67.5504 294.859 67.6041C293.319 67.6641 291.209 70.1341 291.229 71.8641C291.247 72.3706 291.365 72.8687 291.576 73.3296C291.787 73.7905 292.087 74.2051 292.459 74.5498C292.83 74.8945 293.266 75.1625 293.742 75.3382C294.217 75.514 294.723 75.5941 295.229 75.5741H295.239ZM300.519 71.5741C300.541 72.2665 300.419 72.956 300.16 73.5987C299.901 74.2414 299.512 74.8233 299.016 75.3075C298.521 75.7917 297.93 76.1677 297.282 76.4115C296.633 76.6554 295.941 76.7618 295.249 76.7241C294.592 76.7401 293.938 76.6244 293.326 76.3838C292.714 76.1432 292.156 75.7826 291.685 75.3232C291.215 74.8638 290.841 74.3149 290.586 73.7088C290.33 73.1027 290.199 72.4517 290.199 71.7941C290.199 68.7941 292.449 66.0741 295.019 66.0741C295.758 66.0199 296.5 66.126 297.194 66.3852C297.887 66.6444 298.517 67.0505 299.04 67.5757C299.562 68.1009 299.965 68.7327 300.22 69.428C300.475 70.1233 300.577 70.8656 300.519 71.6041V71.5741Z" fill="white" fill-opacity="0.3"/>
<path d="M306.45 49.114C306.86 49.764 307.54 50.374 307.62 51.054C307.688 51.3488 307.68 51.6558 307.599 51.947C307.517 52.2383 307.364 52.5044 307.153 52.7212C306.943 52.9381 306.681 53.0986 306.392 53.1882C306.103 53.2777 305.796 53.2935 305.5 53.234C304.89 53.154 304.13 51.964 303.99 51.234C303.75 49.894 304.85 49.524 306.45 49.164V49.114Z" fill="white" fill-opacity="0.3"/>
<path d="M293.02 72.0441L295.79 69.3041C296.3 69.9541 297.28 70.6541 297.23 71.2441C297.12 72.3641 296.98 74.0041 295.28 73.9041C294.64 73.9041 294.05 72.9041 293.02 72.0441Z" fill="white" fill-opacity="0.3"/>
</g>
</svg>
