<svg width="16" height="16" viewBox="0 0 16 16" fill="none" xmlns="http://www.w3.org/2000/svg">
<path d="M3.64167 2.95532C4.85138 1.90709 6.399 1.33109 7.99967 1.33332C11.6817 1.33332 14.6663 4.31799 14.6663 7.99999C14.6663 9.42399 14.2197 10.744 13.4597 11.8267L11.333 7.99999H13.333C13.3331 6.9544 13.0258 5.93186 12.4494 5.05949C11.8731 4.18712 11.053 3.50343 10.0911 3.0934C9.12929 2.68338 8.06815 2.56512 7.03965 2.75333C6.01114 2.94154 5.06064 3.42792 4.30634 4.15199L3.64167 2.95532ZM12.3577 13.0447C11.148 14.0929 9.60035 14.6689 7.99967 14.6667C4.31767 14.6667 1.33301 11.682 1.33301 7.99999C1.33301 6.57599 1.77967 5.25599 2.53967 4.17332L4.66634 7.99999H2.66634C2.66626 9.04557 2.97351 10.0681 3.5499 10.9405C4.12629 11.8128 4.94639 12.4965 5.90822 12.9066C6.87006 13.3166 7.9312 13.4349 8.9597 13.2466C9.98821 13.0584 10.9387 12.5721 11.693 11.848L12.3577 13.0447Z" fill="#515155"/>
</svg>
