<svg width="16" height="16" viewBox="0 0 16 16" fill="none" xmlns="http://www.w3.org/2000/svg">
<g clip-path="url(#clip0_12_4365)">
<path d="M7.99967 14.6667C4.31767 14.6667 1.33301 11.682 1.33301 8.00001C1.33301 4.31801 4.31767 1.33334 7.99967 1.33334C11.6817 1.33334 14.6663 4.31801 14.6663 8.00001C14.6663 11.682 11.6817 14.6667 7.99967 14.6667ZM7.99967 13.3333C9.41416 13.3333 10.7707 12.7714 11.7709 11.7712C12.7711 10.7711 13.333 9.4145 13.333 8.00001C13.333 6.58552 12.7711 5.22897 11.7709 4.22877C10.7707 3.22858 9.41416 2.66668 7.99967 2.66668C6.58519 2.66668 5.22863 3.22858 4.22844 4.22877C3.22824 5.22897 2.66634 6.58552 2.66634 8.00001C2.66634 9.4145 3.22824 10.7711 4.22844 11.7712C5.22863 12.7714 6.58519 13.3333 7.99967 13.3333ZM8.66634 8.00001H11.333V9.33334H7.33301V4.66668H8.66634V8.00001Z" fill="#515155"/>
</g>
<defs>
<clipPath id="clip0_12_4365">
<rect width="16" height="16" fill="white"/>
</clipPath>
</defs>
</svg>
