<svg width="16" height="17" viewBox="0 0 16 17" fill="none" xmlns="http://www.w3.org/2000/svg">
<g clip-path="url(#clip0_8_3998)">
<path d="M10.7817 7.83339L7.67699 4.72872C7.41668 4.46841 7.41668 4.04636 7.67699 3.78605C7.9373 3.52574 8.35935 3.52574 8.61966 3.78605L12.8623 8.02865C13.1226 8.289 13.1226 8.71111 12.8623 8.97146L8.61966 13.2141C8.35935 13.4744 7.9373 13.4744 7.67699 13.2141C7.41668 12.9537 7.41668 12.5317 7.67699 12.2714L10.7817 9.16672H3.33366C2.96547 9.16672 2.66699 8.86824 2.66699 8.50005C2.66699 8.13186 2.96547 7.83339 3.33366 7.83339H10.7817Z" fill="#09121F"/>
</g>
<defs>
<clipPath id="clip0_8_3998">
<rect width="16" height="16" fill="white" transform="translate(0 0.5)"/>
</clipPath>
</defs>
</svg>
