<svg width="16" height="17" viewBox="0 0 16 17" fill="none" xmlns="http://www.w3.org/2000/svg">
<path d="M1.33366 6.50007H3.33366V14.5001H1.33366C1.15685 14.5001 0.987279 14.4298 0.862254 14.3048C0.73723 14.1798 0.666992 14.0102 0.666992 13.8334V7.16674C0.666992 6.98993 0.73723 6.82036 0.862254 6.69534C0.987279 6.57031 1.15685 6.50007 1.33366 6.50007ZM4.86233 5.63807L9.12899 1.37141C9.1857 1.31454 9.26103 1.28005 9.34114 1.2743C9.42124 1.26854 9.50074 1.2919 9.56499 1.34007L10.1337 1.76674C10.2916 1.8853 10.4109 2.04798 10.4765 2.23424C10.5421 2.42051 10.5511 2.62204 10.5023 2.81341L9.73366 5.83341H14.0003C14.3539 5.83341 14.6931 5.97388 14.9431 6.22393C15.1932 6.47398 15.3337 6.81312 15.3337 7.16674V8.56941C15.3338 8.74365 15.2999 8.91623 15.2337 9.07741L13.1703 14.0874C13.12 14.2096 13.0345 14.314 12.9247 14.3875C12.8149 14.4609 12.6858 14.5001 12.5537 14.5001H5.33366C5.15685 14.5001 4.98728 14.4298 4.86225 14.3048C4.73723 14.1798 4.66699 14.0102 4.66699 13.8334V6.10941C4.66703 5.93261 4.73729 5.76307 4.86233 5.63807Z" fill="white"/>
</svg>
