<svg width="16" height="17"  viewBox="0 0 16 17" fill="none" xmlns="http://www.w3.org/2000/svg">
<g clip-path="url(#clip0_12_4777)">
<path d="M6.26699 11.1667H2.00033C1.6467 11.1667 1.30757 11.0262 1.05752 10.7761C0.807469 10.5261 0.666993 10.187 0.666993 9.83333V8.43067C0.666813 8.25643 0.700787 8.08384 0.766993 7.92267L2.83099 2.91333C2.88118 2.79117 2.96652 2.68666 3.07619 2.61307C3.18586 2.53949 3.31492 2.50013 3.44699 2.5H14.667C14.8438 2.5 15.0134 2.57024 15.1384 2.69526C15.2634 2.82029 15.3337 2.98986 15.3337 3.16667V9.83333C15.3337 10.0101 15.2634 10.1797 15.1384 10.3047C15.0134 10.4298 14.8438 10.5 14.667 10.5H12.3457C12.2389 10.5 12.1338 10.5256 12.039 10.5746C11.9442 10.6237 11.8626 10.6948 11.801 10.782L8.16566 15.9327C8.1197 15.9978 8.05193 16.0443 7.97464 16.0637C7.89734 16.0832 7.81563 16.0743 7.74433 16.0387L6.53499 15.4333C6.19466 15.2632 5.92277 14.9818 5.76451 14.6358C5.60624 14.2898 5.57112 13.9001 5.66499 13.5313L6.26699 11.1667ZM11.3337 9.44133V3.83333H3.89366L2.00033 8.43067V9.83333H6.26699C6.47006 9.83336 6.67044 9.87977 6.85284 9.96903C7.03524 10.0583 7.19485 10.188 7.31948 10.3483C7.44411 10.5087 7.53047 10.6953 7.57198 10.8941C7.61349 11.0929 7.60905 11.2985 7.55899 11.4953L6.95699 13.8607C6.93815 13.9344 6.94514 14.0125 6.9768 14.0817C7.00846 14.151 7.06287 14.2073 7.13099 14.2413L7.57166 14.4613L10.7117 10.0133C10.8783 9.77733 11.0917 9.584 11.3337 9.44133ZM12.667 9.16667H14.0003V3.83333H12.667V9.16667Z" fill="#09121F"/>
</g>
<defs>
<clipPath id="clip0_12_4777">
<rect width="16" height="16" fill="white" transform="translate(0 0.5)"/>
</clipPath>
</defs>
</svg>
