<svg width="90" height="63" viewBox="0 0 90 63" fill="none" xmlns="http://www.w3.org/2000/svg">
<g clip-path="url(#clip0_12_4389)">
<path d="M88.1192 9.83765C87.0842 5.96519 84.0349 2.91578 80.1624 1.88086C73.1439 0 45 0 45 0C45 0 16.8562 0 9.83756 1.88086C5.96536 2.91578 2.91557 5.96519 1.88066 9.83765C0 16.8562 0 31.5 0 31.5C0 31.5 0 46.1436 1.88066 53.1628C2.91557 57.0348 5.96536 60.0842 9.83756 61.1196C16.8562 63 45 63 45 63C45 63 73.1439 63 80.1624 61.1196C84.0349 60.0842 87.0842 57.0348 88.1192 53.1628C90 46.1436 90 31.5 90 31.5C90 31.5 90 16.8562 88.1192 9.83765Z" fill="#ED1D24"/>
<path d="M35.7959 44.7954L59.3186 31.5006L35.7959 18.2046V44.7954Z" fill="white"/>
</g>
<defs>
<clipPath id="clip0_12_4389">
<rect width="90" height="63" fill="white"/>
</clipPath>
</defs>
</svg>
