<svg width="94" height="24" viewBox="0 0 94 24" fill="none" xmlns="http://www.w3.org/2000/svg">
<g clip-path="url(#clip0_895_190)">
<path d="M0 21.0593L4.04019 9.46045C4.21904 8.92157 4.43468 8.39597 4.68554 7.88744C4.87343 7.4938 5.15657 7.15475 5.50858 6.90188C5.83903 6.67446 6.26613 6.56075 6.78987 6.56075C7.32616 6.56075 7.76259 6.67446 8.09919 6.90188C8.45655 7.15272 8.74858 7.48763 8.95025 7.87791C9.21082 8.37204 9.42681 8.88901 9.59559 9.42252L13.5234 21.0593H10.194L9.27753 18.0456H4.24591L3.29199 21.0593H0ZM6.75237 10.2186L5.14352 15.241H8.39809L6.86435 10.2186C6.85188 10.168 6.83317 10.1427 6.80822 10.1427C6.78328 10.1427 6.76466 10.1679 6.75237 10.2186ZM16.3105 9.08149C15.8628 9.0954 15.4261 8.94001 15.0853 8.64555C14.9238 8.50584 14.7953 8.33109 14.7095 8.13423C14.6237 7.93738 14.5827 7.72348 14.5896 7.50839C14.5841 7.29625 14.6258 7.08557 14.7116 6.89199C14.7974 6.69842 14.9251 6.52691 15.0853 6.39019C15.4261 6.09563 15.8628 5.94014 16.3105 5.95398C16.7521 5.94226 17.1822 6.09767 17.5169 6.38991C17.6771 6.52663 17.8048 6.69814 17.8906 6.89172C17.9764 7.0853 18.0181 7.29597 18.0126 7.50811C18.0194 7.72321 17.9785 7.93711 17.8927 8.13396C17.8068 8.33082 17.6784 8.50557 17.5169 8.64527C17.1822 8.93761 16.7521 9.09313 16.3105 9.08149ZM14.7953 21.0593V10.2566H17.8255V21.0593H14.7953ZM24.0729 21.0593C23.2 21.0593 22.4986 20.7908 21.9686 20.2539C21.4387 19.7169 21.1735 19.0062 21.1732 18.1217V12.7203H19.4154V10.2562H21.1737V7.4133H24.2038V10.2566H26.3735V12.7207H24.2038V17.591C24.1998 17.6993 24.2176 17.8073 24.2562 17.9083C24.2948 18.0093 24.3533 18.1013 24.4283 18.1786C24.5015 18.2533 24.589 18.312 24.6855 18.3511C24.782 18.3902 24.8853 18.4089 24.9892 18.406H26.6915V21.0593H24.0729ZM32.9763 21.3433C31.9164 21.3433 30.9749 21.1032 30.1519 20.6231C29.3366 20.151 28.6664 19.459 28.2159 18.624C27.7483 17.7711 27.5145 16.7951 27.5145 15.6959C27.5145 14.5713 27.7483 13.5795 28.2159 12.7203C28.6657 11.8798 29.3356 11.1814 30.1519 10.7019C30.9748 10.2155 31.9163 9.9723 32.9763 9.97223C34.0489 9.97223 34.9934 10.2155 35.81 10.7019C36.6222 11.1836 37.2885 11.8817 37.7366 12.7203C38.2042 13.5795 38.438 14.5713 38.438 15.6959C38.438 16.7951 38.2042 17.7712 37.7366 18.6241C37.2879 19.4573 36.6213 20.1491 35.81 20.6235C34.9933 21.1033 34.0487 21.3433 32.9763 21.3433ZM32.9763 18.6899C33.3061 18.6969 33.6328 18.6252 33.9301 18.4803C34.2274 18.3355 34.4869 18.1218 34.6874 17.8564C35.1302 17.3007 35.3515 16.5805 35.3515 15.6959C35.3515 14.7859 35.1302 14.0468 34.6874 13.4784C34.4898 13.2084 34.2314 12.9902 33.9337 12.8418C33.636 12.6935 33.3077 12.6194 32.976 12.6256C32.6444 12.6194 32.316 12.6935 32.0183 12.8418C31.7207 12.9902 31.4622 13.2084 31.2646 13.4784C30.8219 14.047 30.6005 14.7861 30.6005 15.6959C30.6005 16.5803 30.8219 17.3005 31.2646 17.8564C31.4652 18.1219 31.7247 18.3358 32.0221 18.4807C32.3195 18.6255 32.6464 18.6974 32.9763 18.6903V18.6899ZM45.1721 21.3433C44.1122 21.3433 43.1707 21.1032 42.3476 20.6231C41.5322 20.151 40.8619 19.459 40.4113 18.624C39.9437 17.7711 39.7099 16.795 39.7099 15.6958C39.7099 14.5713 39.9437 13.5794 40.4113 12.7202C40.8611 11.8797 41.531 11.1813 42.3473 10.7019C43.1703 10.2154 44.1117 9.9722 45.1717 9.97214C46.2443 9.97214 47.1889 10.2154 48.0054 10.7019C48.8176 11.1835 49.484 11.8816 49.932 12.7202C50.3996 13.5794 50.6334 14.5713 50.6334 15.6958C50.6334 16.795 50.3996 17.7711 49.932 18.624C49.4833 19.4572 48.8167 20.149 48.0054 20.6235C47.1887 21.1033 46.2442 21.3433 45.1721 21.3433ZM45.1721 18.6899C45.5019 18.697 45.8287 18.6252 46.1261 18.4804C46.4234 18.3355 46.6829 18.1218 46.8835 17.8563C47.3262 17.3006 47.5476 16.5804 47.5476 15.6958C47.5476 14.7859 47.3262 14.0467 46.8835 13.4783C46.6858 13.2083 46.4274 12.9901 46.1297 12.8418C45.8321 12.6934 45.5037 12.6193 45.1721 12.6255C44.8404 12.6193 44.5121 12.6934 44.2144 12.8418C43.9167 12.9901 43.6583 13.2083 43.4606 13.4783C43.0179 14.0469 42.7966 14.786 42.7966 15.6958C42.7966 16.5802 43.0179 17.3004 43.4606 17.8563C43.6612 18.1218 43.9207 18.3357 44.218 18.4806C44.5154 18.6255 44.8422 18.6973 45.1721 18.6903V18.6899ZM55.0852 21.0593C54.2122 21.0593 53.511 20.7908 52.9813 20.2539C52.4516 19.7169 52.1865 19.0062 52.1859 18.1218V6.84546H55.2161V17.591C55.212 17.6993 55.2298 17.8073 55.2684 17.9083C55.307 18.0093 55.3655 18.1013 55.4405 18.1786C55.5137 18.2533 55.6013 18.312 55.6978 18.3511C55.7943 18.3903 55.8977 18.4089 56.0016 18.406H56.5814V21.0593H55.0852ZM62.4361 21.3433C61.002 21.3433 59.8735 21.0053 59.0505 20.3293C58.2276 19.6534 57.8161 18.728 57.816 17.5532H60.4907C60.5905 18.0967 60.8087 18.4947 61.1454 18.7472C61.482 18.9996 61.8998 19.1261 62.3987 19.1265C62.7774 19.141 63.1528 19.049 63.4833 18.8608C63.6168 18.7867 63.7276 18.6768 63.8035 18.543C63.8794 18.4093 63.9174 18.257 63.9135 18.1027C63.9177 17.9863 63.8892 17.871 63.8312 17.7703C63.7733 17.6696 63.6883 17.5877 63.5861 17.5342C63.3679 17.4078 62.9596 17.2688 62.361 17.1172C61.937 17.0161 61.566 16.9245 61.2481 16.8424C60.9301 16.7602 60.5903 16.656 60.2286 16.5296C59.8219 16.3862 59.4303 16.202 59.0596 15.98C58.7038 15.7648 58.4077 15.4616 58.1992 15.0987C57.981 14.7262 57.8718 14.2366 57.8718 13.6299C57.8718 12.9477 58.0028 12.3728 58.2646 11.9052C58.5171 11.4479 58.8769 11.0606 59.3121 10.7776C59.7514 10.4921 60.2352 10.2838 60.743 10.1617C61.2419 10.0376 61.7537 9.97399 62.2674 9.97214C63.0322 9.95772 63.7912 10.1096 64.4932 10.4175C65.1031 10.6833 65.6324 11.1084 66.0271 11.6494C66.4037 12.1818 66.6005 12.8233 66.5882 13.4782H63.7454C63.7454 13.0992 63.5802 12.7833 63.2497 12.5306C62.9126 12.2757 62.5012 12.1423 62.0807 12.1516C61.756 12.1547 61.4362 12.2324 61.1455 12.379C61.0022 12.4389 60.8806 12.5418 60.7969 12.674C60.7133 12.8062 60.6717 12.9612 60.6778 13.1182C60.6785 13.2317 60.7061 13.3435 60.7581 13.444C60.8102 13.5446 60.8853 13.6311 60.9771 13.6962C61.1766 13.8541 61.5632 14.0152 62.1368 14.1795C62.3488 14.23 62.6013 14.2932 62.8943 14.369C63.1874 14.4448 63.4773 14.5175 63.7642 14.5871C64.051 14.6566 64.2879 14.7229 64.475 14.7861C65.2855 15.0261 65.8747 15.3925 66.2425 15.8853C66.6104 16.3781 66.7942 16.9972 66.7939 17.7426C66.7939 18.8798 66.4104 19.7643 65.6436 20.396C64.8767 21.0278 63.8075 21.3435 62.4361 21.3433Z" fill="#0C0C0C"/>
<path d="M88.7683 0C88.9371 -1.27502e-06 89.1019 0.0523922 89.2404 0.15013C89.3789 0.247869 89.4845 0.386262 89.5431 0.546687L89.8678 1.43597C90.3197 2.6738 90.4734 3.04342 90.7355 3.30889C90.9976 3.57435 91.3621 3.73026 92.5835 4.18827L93.4608 4.51731C93.6191 4.57669 93.7556 4.68377 93.852 4.82414C93.9485 4.96452 94.0001 5.13145 94.0001 5.30249C94.0001 5.47352 93.9485 5.64046 93.852 5.78083C93.7556 5.92121 93.6191 6.02828 93.4608 6.08766L92.5835 6.4167C91.3621 6.87472 90.9974 7.03044 90.7355 7.29609C90.4735 7.56174 90.3197 7.93108 89.8678 9.16901L89.5431 10.0583C89.4845 10.2187 89.3789 10.3571 89.2404 10.4548C89.1019 10.5525 88.9371 10.6049 88.7684 10.6049C88.5996 10.6049 88.4349 10.5525 88.2964 10.4548C88.1579 10.3571 88.0522 10.2187 87.9937 10.0583L87.669 9.16901C87.2171 7.93118 87.0634 7.56156 86.8013 7.29609C86.5392 7.03063 86.1747 6.87472 84.9533 6.4167L84.0759 6.08766C83.9177 6.02828 83.7811 5.92121 83.6847 5.78083C83.5883 5.64046 83.5366 5.47352 83.5366 5.30249C83.5366 5.13145 83.5883 4.96452 83.6847 4.82414C83.7811 4.68377 83.9177 4.57669 84.0759 4.51731L84.9533 4.18827C86.1747 3.73026 86.5394 3.57453 86.8013 3.30889C87.0632 3.04324 87.2171 2.67389 87.669 1.43597L87.9937 0.546687C88.0522 0.386276 88.1579 0.247894 88.2964 0.150157C88.4349 0.0524197 88.5996 1.74389e-05 88.7683 0Z" fill="#F7DF1E"/>
<path d="M82.3204 4.46484H79.8947C77.8705 4.46484 76.2673 4.46484 75.0125 4.63577C73.7208 4.81174 72.6759 5.18246 71.8516 6.01788C71.0273 6.8533 70.6616 7.91251 70.488 9.22124C70.3192 10.493 70.3193 12.2441 70.3193 14.2952C70.3193 16.3463 70.3193 17.9715 70.488 19.2433C70.6616 20.552 71.0273 21.6114 71.8516 22.4465C72.6759 23.2817 73.7208 23.6528 75.0125 23.8288C76.2672 23.9997 77.8705 23.9997 79.8946 23.9997H84.4247C86.4493 23.9997 88.0522 23.9997 89.3069 23.8288C90.5982 23.6528 91.6434 23.282 92.4678 22.4467C93.2922 21.6114 93.6578 20.5519 93.8315 19.2432C94.0002 17.9715 94.0002 16.3467 94.0002 14.2952C94.0002 12.2438 94.0002 10.4929 93.8315 9.22115C93.7653 8.66107 93.6364 8.11045 93.4474 7.5799L93.0613 7.72472C92.4384 7.95831 91.8988 8.18319 91.6803 8.28542C91.5794 8.50683 91.3896 9.02118 91.1591 9.65251L90.8345 10.5418C90.6783 10.9696 90.3966 11.3386 90.0272 11.5993C89.6578 11.8599 89.2186 11.9996 88.7685 11.9996C88.3184 11.9996 87.8792 11.8599 87.5098 11.5993C87.1404 11.3386 86.8587 10.9696 86.7025 10.5418L86.3779 9.65251C86.1475 9.02118 85.9576 8.50683 85.8567 8.28542C85.6383 8.18319 85.0988 7.95831 84.4757 7.72472L83.598 7.39614C83.3215 7.29243 83.0683 7.1335 82.8535 6.92879C82.6386 6.72408 82.4666 6.47774 82.3474 6.20438C82.2283 5.93102 82.1645 5.6362 82.1598 5.3374C82.1552 5.03859 82.2098 4.74188 82.3203 4.46484H82.3204Z" fill="#F7DF1E"/>
<path d="M88.7683 0C88.9371 -1.27502e-06 89.1019 0.0523922 89.2404 0.15013C89.3789 0.247869 89.4845 0.386262 89.5431 0.546687L89.8678 1.43597C90.3197 2.6738 90.4734 3.04342 90.7355 3.30889C90.9976 3.57435 91.3621 3.73026 92.5835 4.18827L93.4608 4.51731C93.6191 4.57669 93.7556 4.68377 93.852 4.82414C93.9485 4.96452 94.0001 5.13145 94.0001 5.30249C94.0001 5.47352 93.9485 5.64046 93.852 5.78083C93.7556 5.92121 93.6191 6.02828 93.4608 6.08766L92.5835 6.4167C91.3621 6.87472 90.9974 7.03044 90.7355 7.29609C90.4735 7.56174 90.3197 7.93108 89.8678 9.16901L89.5431 10.0583C89.4845 10.2187 89.3789 10.3571 89.2404 10.4548C89.1019 10.5525 88.9371 10.6049 88.7684 10.6049C88.5996 10.6049 88.4349 10.5525 88.2964 10.4548C88.1579 10.3571 88.0522 10.2187 87.9937 10.0583L87.669 9.16901C87.2171 7.93118 87.0634 7.56156 86.8013 7.29609C86.5392 7.03063 86.1747 6.87472 84.9533 6.4167L84.0759 6.08766C83.9177 6.02828 83.7811 5.92121 83.6847 5.78083C83.5883 5.64046 83.5366 5.47352 83.5366 5.30249C83.5366 5.13145 83.5883 4.96452 83.6847 4.82414C83.7811 4.68377 83.9177 4.57669 84.0759 4.51731L84.9533 4.18827C86.1747 3.73026 86.5394 3.57453 86.8013 3.30889C87.0632 3.04324 87.2171 2.67389 87.669 1.43597L87.9937 0.546687C88.0522 0.386276 88.1579 0.247894 88.2964 0.150157C88.4349 0.0524197 88.5996 1.74389e-05 88.7683 0Z" fill="#F7DF1E"/>
<path d="M82.3204 4.46484H79.8947C77.8705 4.46484 76.2673 4.46484 75.0125 4.63577C73.7208 4.81174 72.6759 5.18246 71.8516 6.01788C71.0273 6.8533 70.6616 7.91251 70.488 9.22124C70.3192 10.493 70.3193 12.2441 70.3193 14.2952C70.3193 16.3463 70.3193 17.9715 70.488 19.2433C70.6616 20.552 71.0273 21.6114 71.8516 22.4465C72.6759 23.2817 73.7208 23.6528 75.0125 23.8288C76.2672 23.9997 77.8705 23.9997 79.8946 23.9997H84.4247C86.4493 23.9997 88.0522 23.9997 89.3069 23.8288C90.5982 23.6528 91.6434 23.282 92.4678 22.4467C93.2922 21.6114 93.6578 20.5519 93.8315 19.2432C94.0002 17.9715 94.0002 16.3467 94.0002 14.2952C94.0002 12.2438 94.0002 10.4929 93.8315 9.22115C93.7653 8.66107 93.6364 8.11045 93.4474 7.5799L93.0613 7.72472C92.4384 7.95831 91.8988 8.18319 91.6803 8.28542C91.5794 8.50683 91.3896 9.02118 91.1591 9.65251L90.8345 10.5418C90.6783 10.9696 90.3966 11.3386 90.0272 11.5993C89.6578 11.8599 89.2186 11.9996 88.7685 11.9996C88.3184 11.9996 87.8792 11.8599 87.5098 11.5993C87.1404 11.3386 86.8587 10.9696 86.7025 10.5418L86.3779 9.65251C86.1475 9.02118 85.9576 8.50683 85.8567 8.28542C85.6383 8.18319 85.0988 7.95831 84.4757 7.72472L83.598 7.39614C83.3215 7.29243 83.0683 7.1335 82.8535 6.92879C82.6386 6.72408 82.4666 6.47774 82.3474 6.20438C82.2283 5.93102 82.1645 5.6362 82.1598 5.3374C82.1552 5.03859 82.2098 4.74188 82.3203 4.46484H82.3204Z" fill="#F7DF1E"/>
<path d="M82.5399 18.5389C82.9368 19.1956 83.4528 19.6783 84.3664 19.6783C85.1336 19.6783 85.6236 19.2898 85.6236 18.7532C85.6236 18.1097 85.1201 17.8818 84.2756 17.5074L83.8128 17.3058C82.4767 16.7287 81.5893 16.0063 81.5893 14.4786C81.5893 13.0713 82.6473 12 84.3008 12C85.4781 12 86.3244 12.4152 86.9343 13.5023L85.4925 14.4405C85.175 13.8634 84.8327 13.6364 84.3008 13.6364C83.7585 13.6364 83.4151 13.985 83.4151 14.4405C83.4151 15.0034 83.7591 15.2313 84.5539 15.5799L85.0168 15.7809C86.5899 16.4645 87.4782 17.1616 87.4782 18.7286C87.4782 20.418 86.1687 21.3435 84.41 21.3435C82.6905 21.3435 81.5795 20.5131 81.036 19.4247L82.5399 18.5389ZM75.9991 18.7015C76.29 19.2245 76.5546 19.6666 77.1907 19.6666C77.799 19.6666 78.1828 19.4254 78.1828 18.4875V12.1073H80.0343V18.5129C80.0343 20.4558 78.9103 21.3401 77.2696 21.3401C75.7872 21.3401 74.9286 20.5626 74.4919 19.6262L75.9991 18.7015Z" fill="black"/>
<path d="M82.5399 18.5389C82.9368 19.1956 83.4528 19.6783 84.3664 19.6783C85.1336 19.6783 85.6236 19.2898 85.6236 18.7532C85.6236 18.1097 85.1201 17.8818 84.2756 17.5074L83.8128 17.3058C82.4767 16.7287 81.5893 16.0063 81.5893 14.4786C81.5893 13.0713 82.6473 12 84.3008 12C85.4781 12 86.3244 12.4152 86.9343 13.5023L85.4925 14.4405C85.175 13.8634 84.8327 13.6364 84.3008 13.6364C83.7585 13.6364 83.4151 13.985 83.4151 14.4405C83.4151 15.0034 83.7591 15.2313 84.5539 15.5799L85.0168 15.7809C86.5899 16.4645 87.4782 17.1616 87.4782 18.7286C87.4782 20.418 86.1687 21.3435 84.41 21.3435C82.6905 21.3435 81.5795 20.5131 81.036 19.4247L82.5399 18.5389ZM75.9991 18.7015C76.29 19.2245 76.5546 19.6666 77.1907 19.6666C77.799 19.6666 78.1828 19.4254 78.1828 18.4875V12.1073H80.0343V18.5129C80.0343 20.4558 78.9103 21.3401 77.2696 21.3401C75.7872 21.3401 74.9286 20.5626 74.4919 19.6262L75.9991 18.7015Z" fill="black"/>
</g>
<defs>
<clipPath id="clip0_895_190">
<rect width="94" height="24" fill="white"/>
</clipPath>
</defs>
</svg>
