<svg xmlns="http://www.w3.org/2000/svg" xmlns:xlink="http://www.w3.org/1999/xlink" width="130.029" height="28.25" viewBox="0 0 130.029 28.25">
  <defs>
    <clipPath id="clip-path">
      <rect id="Rectangle_6877" data-name="Rectangle 6877" width="130" height="28" fill="red" opacity="0.353"/>
    </clipPath>
  </defs>
  <g id="Group_17838" data-name="Group 17838" transform="translate(-64.001 -13.75)">
    <g id="Mask_Group_1235" data-name="Mask Group 1235" transform="translate(64.001 14)" clip-path="url(#clip-path)">
      <path id="Path_41768" data-name="Path 41768" d="M13.877-12.2a4.95,4.95,0,0,1-2.251,4.481A10.007,10.007,0,0,1,6.1-6.271q-.6,0-.85-.025,0,2.387.14,6.3H1.828q.165-3.669.165-8.646,0-4.57-.165-7.884H4.035q.469,0,1.8-.038t2.308-.038a7.254,7.254,0,0,1,4.071,1.092A3.694,3.694,0,0,1,13.877-12.2Zm-3.272.7q0-2.717-3.6-2.717a10.2,10.2,0,0,0-1.9.19q.14,2.4.14,5.434.317.025.736.025Q10.6-8.569,10.6-11.5ZM19.445,0H16.033q.178-2.628.178-6.03a35.727,35.727,0,0,0-.431-5.916l3.653-.368q-.165,2.463-.165,6.284Q19.268-2.768,19.445,0Zm.583-15.895a2.173,2.173,0,0,1-.59,1.511,2.109,2.109,0,0,1-1.642.647,1.77,1.77,0,0,1-1.389-.559,1.945,1.945,0,0,1-.5-1.346,2.128,2.128,0,0,1,.59-1.5,2.148,2.148,0,0,1,1.655-.635,1.756,1.756,0,0,1,1.389.552A1.934,1.934,0,0,1,20.029-15.895ZM31.913-2.666,31.7-.241a6.758,6.758,0,0,1-3.133.609A6.649,6.649,0,0,1,23.536-1.46a6.114,6.114,0,0,1-1.757-4.393,6.63,6.63,0,0,1,1.839-4.653,6.524,6.524,0,0,1,5.035-1.987,9.922,9.922,0,0,1,2.778.355L31-9.547a6.78,6.78,0,0,0-2.613-.482,2.962,2.962,0,0,0-2.423,1.085,4.083,4.083,0,0,0-.888,2.672,4.257,4.257,0,0,0,1.053,2.92A3.765,3.765,0,0,0,29.11-2.158,10.011,10.011,0,0,0,31.913-2.666Zm11.567,0L43.264-.241a6.758,6.758,0,0,1-3.133.609A6.649,6.649,0,0,1,35.1-1.46a6.114,6.114,0,0,1-1.757-4.393,6.63,6.63,0,0,1,1.839-4.653,6.524,6.524,0,0,1,5.035-1.987A9.922,9.922,0,0,1,43-12.137l-.431,2.59a6.78,6.78,0,0,0-2.613-.482,2.962,2.962,0,0,0-2.423,1.085,4.083,4.083,0,0,0-.888,2.672A4.257,4.257,0,0,0,37.7-3.352a3.765,3.765,0,0,0,2.981,1.193A10.011,10.011,0,0,0,43.48-2.666ZM57.673-6.31a6.447,6.447,0,0,1-1.966,5A6.626,6.626,0,0,1,51.077.5a6.253,6.253,0,0,1-4.35-1.644,5.927,5.927,0,0,1-1.814-4.627A6.482,6.482,0,0,1,46.892-10.8a6.645,6.645,0,0,1,4.642-1.815,6.187,6.187,0,0,1,4.331,1.657A5.994,5.994,0,0,1,57.673-6.31Zm-3.31.381A5.315,5.315,0,0,0,53.5-9.02a2.62,2.62,0,0,0-2.245-1.25A2.586,2.586,0,0,0,49.067-9.1a4.858,4.858,0,0,0-.843,2.92,5.315,5.315,0,0,0,.862,3.091,2.62,2.62,0,0,0,2.245,1.25,2.586,2.586,0,0,0,2.188-1.168A4.858,4.858,0,0,0,54.362-5.929ZM68.58-3.466q0,3.809-5.631,3.809A12.966,12.966,0,0,1,59.36-.1l.431-2.5a9.265,9.265,0,0,0,3.158.571,6,6,0,0,0,2.112-.254.872.872,0,0,0,.59-.851q0-.927-2.131-1.765a10.231,10.231,0,0,1-2.714-1.447,3.065,3.065,0,0,1-1.167-2.425,3.338,3.338,0,0,1,1.256-2.717,5.644,5.644,0,0,1,3.653-1.028,12.491,12.491,0,0,1,3.526.394L67.642-9.61a8.448,8.448,0,0,0-3.095-.559q-2.029,0-2.029,1.041a1.02,1.02,0,0,0,.431.857,8.028,8.028,0,0,0,1.763.819,9.058,9.058,0,0,1,2.676,1.384A3.265,3.265,0,0,1,68.58-3.466Zm14.5-2.844a6.447,6.447,0,0,1-1.966,5A6.626,6.626,0,0,1,76.482.5a6.253,6.253,0,0,1-4.35-1.644,5.927,5.927,0,0,1-1.814-4.627A6.482,6.482,0,0,1,72.3-10.8a6.645,6.645,0,0,1,4.642-1.815,6.187,6.187,0,0,1,4.331,1.657A5.994,5.994,0,0,1,83.077-6.31Zm-3.31.381A5.315,5.315,0,0,0,78.9-9.02a2.62,2.62,0,0,0-2.245-1.25A2.586,2.586,0,0,0,74.472-9.1a4.858,4.858,0,0,0-.843,2.92,5.315,5.315,0,0,0,.862,3.091,2.62,2.62,0,0,0,2.245,1.25,2.586,2.586,0,0,0,2.188-1.168A4.858,4.858,0,0,0,79.767-5.929ZM93.3-18.015l-.457,2.26a6.193,6.193,0,0,0-1.484-.178,1.251,1.251,0,0,0-1.256.838,10.055,10.055,0,0,0-.342,3.25q1.129,0,3.107-.1l-.1,2.526Q90.789-9.5,89.761-9.5q0,4.786.19,9.5H86.6q.19-4.646.19-9.5-.748,0-2.22.076l.1-2.514q1.344.089,2.118.089,0-6.386,4.287-6.386A10.008,10.008,0,0,1,93.3-18.015Zm8.98,15.641-.216,2.26a5.686,5.686,0,0,1-2.232.381A4.026,4.026,0,0,1,96.737-.851q-1.04-1.117-1.04-4.3,0-1.917.025-4.342-.647,0-1.75.076l.089-2.5q.977.076,1.814.076.013-.673.1-3.542l3.006-.368q-.19,2.526-.19,3.91,1.065,0,3.184-.1l-.1,2.526Q99.946-9.5,98.741-9.5q-.025,1.688-.025,3.542a6.683,6.683,0,0,0,.457,3.028,1.717,1.717,0,0,0,1.611.768A5.755,5.755,0,0,0,102.28-2.374Z" transform="translate(27.589 27.452)" fill="#1c2024"/>
      <g id="Group_45" data-name="Group 45">
        <path id="Path_41150" data-name="Path 41150" d="M.212.01,24.747,0V27.645l-24.535.01Z" transform="translate(-0.212)" fill="#fff"/>
        <g id="Group_44" data-name="Group 44" transform="translate(0.004 0)">
          <g id="Group_43" data-name="Group 43">
            <path id="Path_41151" data-name="Path 41151" d="M59.731,55.141a10.036,10.036,0,0,0-.316-.982,4.129,4.129,0,0,0-.869-1.391,3.953,3.953,0,0,0-1.682-1.043,5.965,5.965,0,0,0-1.569-.172,1.967,1.967,0,0,0-.318,0,2.307,2.307,0,0,0-.8.212l-.632.454c-.617.437-.907.623-1.514,1.075l-.327.237c-.717.509-1.4,1.065-2.118,1.575-.66.467-1.3.971-1.993,1.389a.381.381,0,0,0-.076.67,1.823,1.823,0,0,0,.138.132c.833.676,1.65,1.366,2.436,2.1.248.229.513.439.77.66.545.467,1.1.931,1.633,1.406.4.35.8.695,1.17,1.073a.477.477,0,0,0,.64.061,4.359,4.359,0,0,1,.568-.405c.689-.467,1.368-.946,2.016-1.467A9.919,9.919,0,0,0,58.535,59,6.213,6.213,0,0,0,59.649,56.6,3.159,3.159,0,0,0,59.731,55.141Z" transform="translate(-38.391 -41.791)" fill="#ff9c00"/>
            <path id="Path_41152" data-name="Path 41152" d="M0,4.19V0H3.957Z"/>
            <path id="Path_41153" data-name="Path 41153" d="M18.925,83.485H0V68.47Z" transform="translate(0 -55.512)" fill="#ff9c00"/>
            <path id="Path_41154" data-name="Path 41154" d="M20.851,0H34.927l.038,27.968H34.17l-5-4.152-.4-.348a.4.4,0,0,1,.1-.587l1.2-1.031S34,17.765,34.1,16.172c0,0,.729-3.285-.307-5.6,0,0-1.228-2.839-3.047-3.49a7.521,7.521,0,0,0-3.762-.833,6.008,6.008,0,0,0-3.906,1.94s-4.086,3.183-4.377,3.07c0,0-2.326,1.325-4.3,0,0,0-2.879-2.12-1.539-5.3a9.668,9.668,0,0,1,2.188-2.839l1.289-.965L18.226,1.09l2.1-.929Z" transform="translate(-10.135)" fill="#ff9c00"/>
          </g>
        </g>
      </g>
    </g>
    <g id="registered_1_" data-name="registered (1)" transform="translate(184.877 14)">
      <path id="Path_41163" data-name="Path 41163" d="M7.452,11.9A4.452,4.452,0,1,1,11.9,7.452,4.452,4.452,0,0,1,7.452,11.9Zm0-8.218a3.767,3.767,0,1,0,3.767,3.767A3.767,3.767,0,0,0,7.452,3.685Z" transform="translate(-3 -3)" fill="#1c2024" stroke="#1c2024" stroke-width="0.5"/>
      <path id="Path_41166" data-name="Path 41166" d="M4.745-5.872H4.1q-.319-.954-.465-1.263a1.006,1.006,0,0,0-.422-.5,1.71,1.71,0,0,0-.668-.09q-.282,0-.5.007,0,1.073.04,1.848H1.469q.05-1.03.05-2.273,0-1.17-.05-2.054h.469q.15,0,.379-.01t.525-.01q1.456,0,1.456,1a1.191,1.191,0,0,1-.817,1.173v.033a1.017,1.017,0,0,1,.592.508A14.943,14.943,0,0,1,4.745-5.872ZM3.728-8.989q0-.791-1.07-.791a3.994,3.994,0,0,0-.641.043q.023.578.023,1.572.2.007.382.007Q3.728-8.158,3.728-8.989Z" transform="translate(1.677 12.497)" fill="#1c2024" stroke="#1c2024" stroke-width="0.5"/>
    </g>
  </g>
</svg>
