<svg width="25" height="25" viewBox="0 0 25 25" fill="none" xmlns="http://www.w3.org/2000/svg">
<path d="M21.2068 21.1522H17.6528V15.5832C17.6528 14.2552 17.6258 12.5462 15.8008 12.5462C13.9478 12.5462 13.6648 13.9912 13.6648 15.4852V21.1522H10.1108V9.7002H13.5248V11.2612H13.5708C14.0478 10.3612 15.2078 9.4112 16.9408 9.4112C20.5418 9.4112 21.2078 11.7812 21.2078 14.8662L21.2068 21.1522ZM6.09677 8.1332C4.95277 8.1332 4.03377 7.2072 4.03377 6.0682C4.03377 4.9302 4.95377 4.0052 6.09677 4.0052C7.23677 4.0052 8.16077 4.9302 8.16077 6.0682C8.16077 7.2072 7.23577 8.1332 6.09677 8.1332ZM7.87877 21.1522H4.31477V9.7002H7.87877V21.1522ZM22.9848 0.700195H2.53077C1.55177 0.700195 0.759766 1.4742 0.759766 2.4292V22.9712C0.759766 23.9272 1.55177 24.7002 2.53077 24.7002H22.9818C23.9598 24.7002 24.7598 23.9272 24.7598 22.9712V2.4292C24.7598 1.4742 23.9598 0.700195 22.9818 0.700195H22.9848Z" fill="#120B14"/>
</svg>
