<svg width="25" height="18" viewBox="0 0 25 18" fill="none" xmlns="http://www.w3.org/2000/svg">
<path d="M20.5636 10.0719H16.4927V14.1427H14.4573V10.0719H10.3865V8.03649H14.4573V3.96497H16.4927V8.03649H20.5636V10.0719ZM9.36875 15.5021C5.80749 15.5021 2.92082 12.6145 2.92082 9.05381C2.92082 5.49307 5.80749 2.60552 9.36875 2.60552C9.43491 2.60552 9.50033 2.61206 9.56648 2.61424C7.81747 4.20923 6.71325 6.49994 6.71325 9.05381C6.71325 11.607 7.81747 13.8969 9.56575 15.4926C9.4996 15.4941 9.43491 15.5021 9.36875 15.5021ZM15.4365 0.330078C14.3715 0.330078 13.3553 0.530724 12.4117 0.879673C11.4638 0.527089 10.4395 0.330078 9.36875 0.330078C4.55061 0.330078 0.645508 4.23613 0.645508 9.05381C0.645508 13.8722 4.55061 17.7775 9.36875 17.7775C10.4381 17.7775 11.4609 17.5783 12.4081 17.2265C13.3531 17.5769 14.3701 17.7775 15.4365 17.7775C20.2546 17.7775 24.1597 13.8722 24.1597 9.05381C24.1597 4.23613 20.2546 0.330078 15.4365 0.330078Z" fill="#120B14"/>
</svg>
