<svg width="34" height="34" viewBox="0 0 34 34" fill="none" xmlns="http://www.w3.org/2000/svg">
<path d="M16.9997 0.333496C21.528 0.333496 22.093 0.350163 23.8697 0.433496C25.6447 0.516829 26.853 0.795163 27.9163 1.2085C29.0163 1.63183 29.943 2.20516 30.8697 3.13016C31.7172 3.96332 32.3729 4.97114 32.7913 6.0835C33.203 7.14516 33.483 8.35516 33.5663 10.1302C33.6447 11.9068 33.6663 12.4718 33.6663 17.0002C33.6663 21.5285 33.6497 22.0935 33.5663 23.8702C33.483 25.6452 33.203 26.8535 32.7913 27.9168C32.3741 29.0298 31.7182 30.0379 30.8697 30.8702C30.0363 31.7174 29.0285 32.3731 27.9163 32.7918C26.8547 33.2035 25.6447 33.4835 23.8697 33.5668C22.093 33.6452 21.528 33.6668 16.9997 33.6668C12.4713 33.6668 11.9063 33.6502 10.1297 33.5668C8.35467 33.4835 7.14634 33.2035 6.08301 32.7918C4.97022 32.3743 3.96222 31.7184 3.12967 30.8702C2.28202 30.0371 1.62623 29.0293 1.20801 27.9168C0.794675 26.8552 0.516341 25.6452 0.433008 23.8702C0.354674 22.0935 0.333008 21.5285 0.333008 17.0002C0.333008 12.4718 0.349674 11.9068 0.433008 10.1302C0.516341 8.3535 0.794675 7.14683 1.20801 6.0835C1.62507 4.97046 2.28101 3.96236 3.12967 3.13016C3.96246 2.28221 4.97039 1.62638 6.08301 1.2085C7.14634 0.795163 8.35301 0.516829 10.1297 0.433496C11.9063 0.355163 12.4713 0.333496 16.9997 0.333496ZM16.9997 8.66683C14.7895 8.66683 12.6699 9.5448 11.1071 11.1076C9.54431 12.6704 8.66634 14.79 8.66634 17.0002C8.66634 19.2103 9.54431 21.3299 11.1071 22.8927C12.6699 24.4555 14.7895 25.3335 16.9997 25.3335C19.2098 25.3335 21.3294 24.4555 22.8922 22.8927C24.455 21.3299 25.333 19.2103 25.333 17.0002C25.333 14.79 24.455 12.6704 22.8922 11.1076C21.3294 9.5448 19.2098 8.66683 16.9997 8.66683ZM27.833 8.25016C27.833 7.69763 27.6135 7.16772 27.2228 6.77702C26.8321 6.38632 26.3022 6.16683 25.7497 6.16683C25.1971 6.16683 24.6672 6.38632 24.2765 6.77702C23.8858 7.16772 23.6663 7.69763 23.6663 8.25016C23.6663 8.8027 23.8858 9.3326 24.2765 9.7233C24.6672 10.114 25.1971 10.3335 25.7497 10.3335C26.3022 10.3335 26.8321 10.114 27.2228 9.7233C27.6135 9.3326 27.833 8.8027 27.833 8.25016ZM16.9997 12.0002C18.3258 12.0002 19.5975 12.5269 20.5352 13.4646C21.4729 14.4023 21.9997 15.6741 21.9997 17.0002C21.9997 18.3262 21.4729 19.598 20.5352 20.5357C19.5975 21.4734 18.3258 22.0002 16.9997 22.0002C15.6736 22.0002 14.4018 21.4734 13.4641 20.5357C12.5265 19.598 11.9997 18.3262 11.9997 17.0002C11.9997 15.6741 12.5265 14.4023 13.4641 13.4646C14.4018 12.5269 15.6736 12.0002 16.9997 12.0002Z" fill="#09121F"/>
</svg>
