<svg width="136" height="26" viewBox="0 0 136 26" fill="none" xmlns="http://www.w3.org/2000/svg">
<path d="M8.66 21.42C7.36 21.42 6.19 21.29 5.15 21.03C4.11 20.77 3.23 20.38 2.51 19.86C1.79 19.32 1.23 18.66 0.83 17.88C0.43 17.1 0.21 16.2 0.17 15.18L4.01 14.04C4.05 14.96 4.27 15.72 4.67 16.32C5.09 16.9 5.66 17.34 6.38 17.64C7.12 17.92 7.95 18.06 8.87 18.06C9.73 18.06 10.46 17.95 11.06 17.73C11.66 17.51 12.12 17.22 12.44 16.86C12.76 16.5 12.92 16.1 12.92 15.66C12.92 15.14 12.72 14.72 12.32 14.4C11.92 14.06 11.37 13.78 10.67 13.56C9.99 13.34 9.21 13.13 8.33 12.93C7.37 12.71 6.43 12.46 5.51 12.18C4.59 11.9 3.75 11.54 2.99 11.1C2.23 10.66 1.62 10.09 1.16 9.39C0.72 8.69 0.5 7.81 0.5 6.75C0.5 5.55 0.81 4.51 1.43 3.63C2.05 2.73 2.94 2.03 4.1 1.53C5.28 1.03 6.69 0.779999 8.33 0.779999C9.95 0.779999 11.36 1.03 12.56 1.53C13.76 2.03 14.69 2.74 15.35 3.66C16.01 4.56 16.35 5.64 16.37 6.9L12.44 7.89C12.46 7.27 12.37 6.73 12.17 6.27C11.97 5.79 11.69 5.4 11.33 5.1C10.99 4.78 10.56 4.54 10.04 4.38C9.52 4.22 8.93 4.14 8.27 4.14C7.49 4.14 6.83 4.24 6.29 4.44C5.75 4.64 5.33 4.91 5.03 5.25C4.75 5.57 4.61 5.96 4.61 6.42C4.61 6.96 4.82 7.4 5.24 7.74C5.68 8.08 6.26 8.36 6.98 8.58C7.72 8.8 8.54 9.02 9.44 9.24C10.3 9.42 11.17 9.65 12.05 9.93C12.95 10.19 13.78 10.54 14.54 10.98C15.3 11.42 15.91 12 16.37 12.72C16.83 13.44 17.06 14.36 17.06 15.48C17.06 16.7 16.74 17.76 16.1 18.66C15.46 19.54 14.51 20.22 13.25 20.7C11.99 21.18 10.46 21.42 8.66 21.42ZM18.4609 25.89V12.87V5.25H22.0909L22.0609 9.72L22.5409 9.78C22.7409 8.68 23.0609 7.77 23.5009 7.05C23.9609 6.31 24.5509 5.76 25.2709 5.4C25.9909 5.02 26.8209 4.83 27.7609 4.83C29.1209 4.83 30.2909 5.17 31.2709 5.85C32.2509 6.51 32.9909 7.47 33.4909 8.73C34.0109 9.97 34.2709 11.45 34.2709 13.17C34.2709 14.81 34.0309 16.25 33.5509 17.49C33.0709 18.73 32.3609 19.7 31.4209 20.4C30.5009 21.08 29.3509 21.42 27.9709 21.42C26.9909 21.42 26.1509 21.23 25.4509 20.85C24.7709 20.47 24.2009 19.92 23.7409 19.2C23.2809 18.48 22.9109 17.61 22.6309 16.59H22.1209C22.2409 17.15 22.3509 17.72 22.4509 18.3C22.5509 18.88 22.6309 19.45 22.6909 20.01C22.7509 20.55 22.7809 21.07 22.7809 21.57V25.89H18.4609ZM26.4709 17.94C27.1709 17.94 27.7709 17.74 28.2709 17.34C28.7709 16.94 29.1509 16.38 29.4109 15.66C29.6709 14.94 29.8009 14.13 29.8009 13.23C29.8009 12.25 29.6609 11.41 29.3809 10.71C29.1209 9.99 28.7309 9.43 28.2109 9.03C27.7109 8.63 27.1009 8.43 26.3809 8.43C25.7809 8.43 25.2509 8.57 24.7909 8.85C24.3509 9.11 23.9709 9.47 23.6509 9.93C23.3509 10.37 23.1209 10.85 22.9609 11.37C22.8209 11.89 22.7509 12.42 22.7509 12.96V13.47C22.7509 13.89 22.8009 14.31 22.9009 14.73C23.0209 15.15 23.1809 15.55 23.3809 15.93C23.6009 16.31 23.8609 16.65 24.1609 16.95C24.4609 17.25 24.8009 17.49 25.1809 17.67C25.5809 17.85 26.0109 17.94 26.4709 17.94ZM40.9609 21.42C39.1409 21.42 37.7709 20.8 36.8509 19.56C35.9509 18.3 35.5009 16.4 35.5009 13.86V5.25H39.8209V13.41C39.8209 14.91 40.0409 16.02 40.4809 16.74C40.9209 17.44 41.6009 17.79 42.5209 17.79C43.0609 17.79 43.5409 17.66 43.9609 17.4C44.3809 17.12 44.7409 16.73 45.0409 16.23C45.3409 15.71 45.5609 15.1 45.7009 14.4C45.8609 13.7 45.9509 12.92 45.9709 12.06V5.25H50.2909V14.4V21H46.7509L46.7809 15.81H46.2709C46.0109 17.13 45.6509 18.2 45.1909 19.02C44.7509 19.84 44.1809 20.45 43.4809 20.85C42.8009 21.23 41.9609 21.42 40.9609 21.42ZM52.4628 21V13.26V5.25H56.0628V10.83H56.5728C56.7328 9.43 57.0028 8.3 57.3828 7.44C57.7628 6.56 58.2828 5.92 58.9428 5.52C59.6228 5.1 60.4528 4.89 61.4328 4.89C61.6328 4.89 61.8528 4.91 62.0928 4.95C62.3528 4.97 62.6228 5.02 62.9028 5.1L62.7228 9.72C62.4028 9.56 62.0528 9.45 61.6728 9.39C61.3128 9.33 60.9928 9.3 60.7128 9.3C59.9528 9.3 59.2928 9.48 58.7328 9.84C58.1928 10.2 57.7628 10.73 57.4428 11.43C57.1228 12.13 56.9028 12.99 56.7828 14.01V21H52.4628ZM70.085 21.36C68.325 21.36 67.025 20.9 66.185 19.98C65.345 19.04 64.925 17.57 64.925 15.57V8.64H62.765L62.795 5.37H64.115C64.835 5.35 65.355 5.21 65.675 4.95C66.015 4.69 66.225 4.25 66.305 3.63L66.635 1.74H69.095V5.25H73.025V8.76H69.095V15.36C69.095 16.08 69.265 16.61 69.605 16.95C69.965 17.27 70.475 17.43 71.135 17.43C71.495 17.43 71.845 17.39 72.185 17.31C72.545 17.21 72.855 17.07 73.115 16.89V20.88C72.515 21.08 71.955 21.21 71.435 21.27C70.935 21.33 70.485 21.36 70.085 21.36ZM83.5759 21.42C82.0159 21.42 80.6359 21.2 79.4359 20.76C78.2359 20.3 77.2159 19.64 76.3759 18.78C75.5559 17.9 74.9259 16.84 74.4859 15.6C74.0659 14.34 73.8559 12.9 73.8559 11.28C73.8559 9.64 74.0759 8.18 74.5159 6.9C74.9559 5.6 75.5859 4.5 76.4059 3.6C77.2459 2.68 78.2359 1.98 79.3759 1.5C80.5359 1.02 81.8459 0.779999 83.3059 0.779999C84.4659 0.779999 85.5159 0.939999 86.4559 1.26C87.4159 1.56 88.2259 2 88.8859 2.58C89.5659 3.14 90.0859 3.82 90.4459 4.62C90.8259 5.42 91.0159 6.31 91.0159 7.29L86.9959 8.25C87.0159 7.39 86.8459 6.67 86.4859 6.09C86.1259 5.51 85.6559 5.07 85.0759 4.77C84.4959 4.47 83.8559 4.32 83.1559 4.32C82.5759 4.32 81.9959 4.45 81.4159 4.71C80.8359 4.95 80.3159 5.34 79.8559 5.88C79.3959 6.4 79.0359 7.09 78.7759 7.95C78.5159 8.79 78.3859 9.82 78.3859 11.04C78.3859 12.62 78.6059 13.91 79.0459 14.91C79.4859 15.91 80.1059 16.66 80.9059 17.16C81.7259 17.64 82.6459 17.88 83.6659 17.88C84.7259 17.88 85.5559 17.66 86.1559 17.22C86.7759 16.76 87.2159 16.17 87.4759 15.45C87.7559 14.71 87.8959 13.92 87.8959 13.08L91.7359 13.68C91.7359 14.74 91.5859 15.74 91.2859 16.68C91.0059 17.62 90.5459 18.45 89.9059 19.17C89.2659 19.87 88.4159 20.42 87.3559 20.82C86.3159 21.22 85.0559 21.42 83.5759 21.42ZM93.1135 21V1.2H99.6235L104.934 16.08H105.084L110.304 1.2H116.484V21H112.404L112.614 5.58H112.344L106.584 21H102.894L97.2235 5.58H96.9535L97.1635 21H93.1135ZM126.685 21.42C125.385 21.42 124.215 21.29 123.175 21.03C122.135 20.77 121.255 20.38 120.535 19.86C119.815 19.32 119.255 18.66 118.855 17.88C118.455 17.1 118.235 16.2 118.195 15.18L122.035 14.04C122.075 14.96 122.295 15.72 122.695 16.32C123.115 16.9 123.685 17.34 124.405 17.64C125.145 17.92 125.975 18.06 126.895 18.06C127.755 18.06 128.485 17.95 129.085 17.73C129.685 17.51 130.145 17.22 130.465 16.86C130.785 16.5 130.945 16.1 130.945 15.66C130.945 15.14 130.745 14.72 130.345 14.4C129.945 14.06 129.395 13.78 128.695 13.56C128.015 13.34 127.235 13.13 126.355 12.93C125.395 12.71 124.455 12.46 123.535 12.18C122.615 11.9 121.775 11.54 121.015 11.1C120.255 10.66 119.645 10.09 119.185 9.39C118.745 8.69 118.525 7.81 118.525 6.75C118.525 5.55 118.835 4.51 119.455 3.63C120.075 2.73 120.965 2.03 122.125 1.53C123.305 1.03 124.715 0.779999 126.355 0.779999C127.975 0.779999 129.385 1.03 130.585 1.53C131.785 2.03 132.715 2.74 133.375 3.66C134.035 4.56 134.375 5.64 134.395 6.9L130.465 7.89C130.485 7.27 130.395 6.73 130.195 6.27C129.995 5.79 129.715 5.4 129.355 5.1C129.015 4.78 128.585 4.54 128.065 4.38C127.545 4.22 126.955 4.14 126.295 4.14C125.515 4.14 124.855 4.24 124.315 4.44C123.775 4.64 123.355 4.91 123.055 5.25C122.775 5.57 122.635 5.96 122.635 6.42C122.635 6.96 122.845 7.4 123.265 7.74C123.705 8.08 124.285 8.36 125.005 8.58C125.745 8.8 126.565 9.02 127.465 9.24C128.325 9.42 129.195 9.65 130.075 9.93C130.975 10.19 131.805 10.54 132.565 10.98C133.325 11.42 133.935 12 134.395 12.72C134.855 13.44 135.085 14.36 135.085 15.48C135.085 16.7 134.765 17.76 134.125 18.66C133.485 19.54 132.535 20.22 131.275 20.7C130.015 21.18 128.485 21.42 126.685 21.42Z" fill="#151515"/>
</svg>
