<svg width="36" height="31" viewBox="0 0 36 31" fill="none" xmlns="http://www.w3.org/2000/svg">
<path d="M0.955381 8.83439C0.487047 8.14606 0.535381 8.14606 1.50205 7.29773C3.55538 5.49439 5.49205 3.52106 7.72871 1.94439C9.75371 0.524391 12.4387 -0.392275 14.2737 1.86606C15.9637 3.94772 16.0037 7.10273 16.432 9.61606C16.8604 12.2227 17.2704 14.8894 18.1837 17.3827C18.437 18.0844 18.922 19.4111 19.797 19.5227C20.927 19.6777 22.077 17.6961 22.602 16.9561C23.9637 14.9894 25.8104 12.3411 25.577 9.81272C25.347 7.12606 22.447 7.63106 20.6337 8.27273C20.9254 5.25773 23.7304 1.86772 26.4337 0.722725C29.3004 -0.467275 33.5604 -0.447275 35.0004 2.78439C36.5387 6.28772 35.1554 10.3561 33.4804 13.5311C31.652 16.9777 29.2987 20.1677 26.7837 23.1477C24.5654 25.7944 21.9404 28.6977 18.6337 29.9627C14.8554 31.4027 12.617 28.5961 11.3304 25.3461C9.92538 21.8077 9.22705 17.8361 8.21371 14.1511C7.78705 12.5944 7.28038 10.8227 6.26871 9.53772C4.94871 7.87939 3.44871 9.43773 2.14538 10.3327C1.69705 9.88772 1.32705 9.32106 0.955381 8.83439Z" fill="#09121F"/>
</svg>
