<svg width="34" height="28" viewBox="0 0 34 28" fill="none" xmlns="http://www.w3.org/2000/svg">
<path d="M32.9047 4.82984C33.6663 7.79984 33.6663 13.9998 33.6663 13.9998C33.6663 13.9998 33.6663 20.1998 32.9047 23.1698C32.4813 24.8115 31.243 26.1032 29.6747 26.5398C26.8263 27.3332 16.9997 27.3332 16.9997 27.3332C16.9997 27.3332 7.17801 27.3332 4.32467 26.5398C2.74967 26.0965 1.51301 24.8065 1.09467 23.1698C0.333008 20.1998 0.333008 13.9998 0.333008 13.9998C0.333008 13.9998 0.333008 7.79984 1.09467 4.82984C1.51801 3.18817 2.75634 1.8965 4.32467 1.45984C7.17801 0.666504 16.9997 0.666504 16.9997 0.666504C16.9997 0.666504 26.8263 0.666504 29.6747 1.45984C31.2497 1.90317 32.4863 3.19317 32.9047 4.82984ZM13.6663 19.8332L23.6663 13.9998L13.6663 8.1665V19.8332Z" fill="#09121F"/>
</svg>
