<svg width="24" height="24" viewBox="0 0 24 24" fill="none" xmlns="http://www.w3.org/2000/svg">
<circle cx="12" cy="12" r="12" fill="#415EF4" fill-opacity="0.72"/>
<path d="M19.5074 11.3004C19.3777 11.6597 19.2131 12.0123 19.0124 12.3538C17.2678 15.3214 13.4812 16.3193 10.5 14.5981C7.51064 12.8722 6.48645 9.04978 8.21232 6.06044C8.40232 5.73138 8.6177 5.42613 8.8546 5.14572C9.02185 4.94776 8.79985 4.66116 8.56585 4.77254C5.8707 6.05541 4.00645 8.80141 4.00002 11.9835C3.99108 16.3974 7.58614 20 12 20C16.4182 20 20 16.4183 20 12C20 11.7869 19.9916 11.5758 19.9753 11.3669C19.955 11.108 19.5955 11.0562 19.5074 11.3004Z" fill="#FECE85"/>
<path d="M19.9754 11.3668C19.9551 11.1079 19.5956 11.0561 19.5075 11.3004C19.3778 11.6597 19.2132 12.0123 19.0125 12.3538C18.8656 12.6035 18.7044 12.8392 18.5304 13.0606C17.7493 16.66 14.5457 19.3561 10.7124 19.3561C9.68875 19.3561 8.70916 19.1624 7.80835 18.8096C9.02835 19.564 10.4647 20 12.0001 20C16.4183 20 20 16.4183 20 12C20 11.7869 19.9917 11.5757 19.9754 11.3668Z" fill="#FEC165"/>
<path d="M14.5437 5.99437C13.8831 6.4299 13.3166 6.99712 12.8805 7.6579C12.8189 7.75121 12.6821 7.75124 12.6204 7.65799C12.1836 6.99715 11.617 6.4299 10.9563 5.99437C10.863 5.93281 10.8628 5.79596 10.9561 5.73427C11.6169 5.29737 12.1835 4.73068 12.6204 4.0699C12.6821 3.97665 12.8189 3.97671 12.8805 4.07C13.3166 4.73071 13.8832 5.29737 14.5439 5.73424C14.6371 5.79596 14.6371 5.93284 14.5437 5.99437Z" fill="#FED402"/>
<path d="M12.6206 4.06978C12.5302 4.20646 12.4343 4.33912 12.3331 4.46746C12.6426 4.83303 12.9962 5.16006 13.3858 5.44056C13.5653 5.56984 13.5652 5.83684 13.3855 5.96596C12.9397 6.2863 12.541 6.6684 12.2017 7.09946C12.352 7.27693 12.4919 7.46349 12.6206 7.65815C12.6822 7.75133 12.819 7.75115 12.8806 7.6579C13.3167 6.99712 13.8832 6.4299 14.5438 5.99437C14.6371 5.93281 14.6372 5.79596 14.544 5.73427C13.8833 5.2974 13.3167 4.73074 12.8806 4.07003C12.819 3.97681 12.6822 3.97659 12.6206 4.06978Z" fill="#FAC600"/>
<path d="M13.3968 11.0652C13.0664 11.283 12.7832 11.5666 12.5651 11.897C12.5342 11.9438 12.466 11.9438 12.4351 11.8971C12.2167 11.5666 11.9334 11.283 11.603 11.0652C11.5562 11.0343 11.5561 10.9661 11.6029 10.9352C11.9333 10.7167 12.2167 10.4334 12.4351 10.103C12.4661 10.0562 12.5342 10.0562 12.5651 10.1031C12.7832 10.4334 13.0665 10.7168 13.3968 10.9352C13.4436 10.9661 13.4436 11.0343 13.3968 11.0652Z" fill="#FED402"/>
<path d="M16.7974 9.62967C16.3382 9.9412 15.9414 10.3384 15.6295 10.7979C15.5673 10.8895 15.433 10.8896 15.3707 10.7979C15.0583 10.3385 14.6615 9.94123 14.2022 9.62967C14.1104 9.56745 14.1103 9.43314 14.202 9.37082C14.6614 9.05839 15.0583 8.66148 15.3707 8.20205C15.433 8.11042 15.5673 8.11048 15.6295 8.20214C15.9414 8.66151 16.3383 9.05839 16.7976 9.37082C16.8893 9.43314 16.8892 9.56745 16.7974 9.62967Z" fill="#FED402"/>
</svg>
