<svg width="427" height="220" viewBox="0 0 427 220" fill="none" xmlns="http://www.w3.org/2000/svg">
<path d="M35.3783 219.989C35.3783 219.989 -8.71142 184.93 19.3355 143.692C47.3824 102.453 85.0635 123.187 83.2404 75.1831C81.4174 27.1788 169.891 23.0549 198.051 36.9772C226.21 50.8995 226.041 67.659 284.183 62.1108C342.324 56.5626 353.43 102.798 338.299 126.369C316.843 159.808 397.857 154.294 346.811 220H35.3783V219.989Z" fill="#F7F7F7"/>
<path d="M161.96 154V131.36L165.6 131.44L155.48 143.84L154.52 142.64H173.08V148.24H151.48L148.76 143L163.04 125.76H168.52V154H161.96ZM187.964 154.4C185.458 154.4 183.311 153.827 181.524 152.68C179.764 151.533 178.418 149.893 177.484 147.76C176.551 145.6 176.084 143.013 176.084 140C176.084 136.987 176.551 134.413 177.484 132.28C178.418 130.12 179.764 128.467 181.524 127.32C183.311 126.173 185.458 125.6 187.964 125.6C190.471 125.6 192.618 126.173 194.404 127.32C196.191 128.467 197.551 130.12 198.484 132.28C199.418 134.413 199.884 136.987 199.884 140C199.884 143.013 199.418 145.6 198.484 147.76C197.551 149.893 196.191 151.533 194.404 152.68C192.618 153.827 190.471 154.4 187.964 154.4ZM187.964 148.64C189.698 148.64 191.031 147.893 191.964 146.4C192.924 144.907 193.404 142.773 193.404 140C193.404 137.147 192.924 134.96 191.964 133.44C191.031 131.893 189.698 131.12 187.964 131.12C186.231 131.12 184.884 131.893 183.924 133.44C182.991 134.96 182.524 137.147 182.524 140C182.524 142.773 182.991 144.907 183.924 146.4C184.884 147.893 186.231 148.64 187.964 148.64ZM212.957 154.4C210.69 154.4 208.703 153.933 206.997 153C205.317 152.04 203.783 150.4 202.397 148.08L207.277 144.92C207.863 145.853 208.463 146.6 209.077 147.16C209.717 147.72 210.37 148.133 211.037 148.4C211.73 148.64 212.45 148.76 213.197 148.76C213.943 148.76 214.623 148.6 215.237 148.28C215.877 147.933 216.383 147.453 216.757 146.84C217.157 146.227 217.357 145.533 217.357 144.76C217.357 143.933 217.183 143.24 216.837 142.68C216.517 142.093 216.037 141.653 215.397 141.36C214.783 141.067 214.037 140.92 213.157 140.92C212.757 140.92 212.33 140.973 211.877 141.08C211.423 141.16 210.943 141.28 210.437 141.44C209.93 141.6 209.41 141.813 208.877 142.08L207.397 138.12L214.197 130.72L216.037 131.72L204.357 131.48V125.76H221.557L222.797 128.24L213.557 138.16L211.957 136.28C212.17 136.173 212.517 136.08 212.997 136C213.503 135.893 213.983 135.84 214.437 135.84C215.69 135.84 216.863 136.067 217.957 136.52C219.05 136.973 220.023 137.6 220.877 138.4C221.73 139.2 222.397 140.147 222.877 141.24C223.357 142.307 223.597 143.453 223.597 144.68C223.597 146.547 223.117 148.213 222.157 149.68C221.223 151.12 219.943 152.267 218.317 153.12C216.717 153.973 214.93 154.4 212.957 154.4Z" fill="#262626"/>
<path d="M129.352 187V170.2H131.944V187H129.352ZM130.504 179.848V177.352H139.168V179.848H130.504ZM130.504 172.696V170.2H140.248V172.696H130.504ZM148.478 187.24C147.246 187.24 146.142 186.96 145.166 186.4C144.206 185.824 143.446 185.048 142.886 184.072C142.326 183.08 142.046 181.952 142.046 180.688C142.046 179.424 142.326 178.304 142.886 177.328C143.446 176.336 144.206 175.56 145.166 175C146.142 174.424 147.246 174.136 148.478 174.136C149.694 174.136 150.782 174.424 151.742 175C152.718 175.56 153.486 176.336 154.046 177.328C154.606 178.304 154.886 179.424 154.886 180.688C154.886 181.952 154.606 183.08 154.046 184.072C153.486 185.048 152.718 185.824 151.742 186.4C150.782 186.96 149.694 187.24 148.478 187.24ZM148.478 184.984C149.23 184.984 149.902 184.8 150.494 184.432C151.086 184.048 151.55 183.536 151.886 182.896C152.222 182.24 152.382 181.504 152.366 180.688C152.382 179.856 152.222 179.12 151.886 178.48C151.55 177.824 151.086 177.312 150.494 176.944C149.902 176.576 149.23 176.392 148.478 176.392C147.726 176.392 147.046 176.584 146.438 176.968C145.846 177.336 145.382 177.848 145.046 178.504C144.71 179.144 144.55 179.872 144.566 180.688C144.55 181.504 144.71 182.24 145.046 182.896C145.382 183.536 145.846 184.048 146.438 184.432C147.046 184.8 147.726 184.984 148.478 184.984ZM157.58 187V174.4H160.076V178.36L159.836 177.4C160.012 176.792 160.308 176.24 160.724 175.744C161.156 175.248 161.644 174.856 162.188 174.568C162.748 174.28 163.324 174.136 163.916 174.136C164.188 174.136 164.444 174.16 164.684 174.208C164.94 174.256 165.14 174.312 165.284 174.376L164.636 177.064C164.444 176.984 164.228 176.92 163.988 176.872C163.764 176.808 163.54 176.776 163.316 176.776C162.884 176.776 162.468 176.864 162.068 177.04C161.684 177.2 161.34 177.432 161.036 177.736C160.748 178.024 160.516 178.368 160.34 178.768C160.164 179.152 160.076 179.576 160.076 180.04V187H157.58ZM173.883 187.24C173.339 187.24 172.795 187.152 172.251 186.976C171.723 186.8 171.235 186.568 170.787 186.28C170.355 185.976 169.987 185.648 169.683 185.296C169.395 184.928 169.203 184.56 169.107 184.192L169.731 183.856V186.928H167.259V169.24H169.731V177.28L169.347 177.064C169.427 176.696 169.603 176.344 169.875 176.008C170.147 175.656 170.491 175.344 170.907 175.072C171.339 174.784 171.803 174.56 172.299 174.4C172.795 174.224 173.299 174.136 173.811 174.136C174.947 174.136 175.955 174.416 176.835 174.976C177.715 175.536 178.411 176.312 178.923 177.304C179.435 178.28 179.691 179.4 179.691 180.664C179.691 181.928 179.435 183.056 178.923 184.048C178.427 185.04 177.739 185.824 176.859 186.4C175.979 186.96 174.987 187.24 173.883 187.24ZM173.475 184.984C174.211 184.984 174.867 184.8 175.443 184.432C176.019 184.048 176.475 183.536 176.811 182.896C177.147 182.24 177.315 181.496 177.315 180.664C177.315 179.848 177.147 179.12 176.811 178.48C176.491 177.824 176.043 177.312 175.467 176.944C174.891 176.576 174.227 176.392 173.475 176.392C172.723 176.392 172.059 176.576 171.483 176.944C170.907 177.312 170.451 177.824 170.115 178.48C169.779 179.12 169.611 179.848 169.611 180.664C169.611 181.496 169.779 182.24 170.115 182.896C170.451 183.536 170.907 184.048 171.483 184.432C172.059 184.8 172.723 184.984 173.475 184.984ZM182.784 187V174.4H185.256V187H182.784ZM183.984 171.616C183.456 171.616 183.048 171.48 182.76 171.208C182.472 170.936 182.328 170.552 182.328 170.056C182.328 169.592 182.472 169.216 182.76 168.928C183.064 168.64 183.472 168.496 183.984 168.496C184.512 168.496 184.92 168.632 185.208 168.904C185.496 169.176 185.64 169.56 185.64 170.056C185.64 170.52 185.488 170.896 185.184 171.184C184.896 171.472 184.496 171.616 183.984 171.616ZM194.312 187.24C193.16 187.24 192.128 186.96 191.216 186.4C190.32 185.824 189.608 185.048 189.08 184.072C188.552 183.08 188.288 181.952 188.288 180.688C188.288 179.424 188.544 178.304 189.056 177.328C189.584 176.336 190.296 175.56 191.192 175C192.088 174.424 193.104 174.136 194.24 174.136C194.864 174.136 195.464 174.24 196.04 174.448C196.632 174.64 197.16 174.912 197.624 175.264C198.088 175.6 198.448 175.976 198.704 176.392C198.976 176.792 199.112 177.2 199.112 177.616L198.392 177.664V169.24H200.864V187H198.392V184H198.872C198.872 184.384 198.744 184.768 198.488 185.152C198.232 185.52 197.888 185.864 197.456 186.184C197.04 186.504 196.552 186.76 195.992 186.952C195.448 187.144 194.888 187.24 194.312 187.24ZM194.648 185.104C195.4 185.104 196.064 184.912 196.64 184.528C197.216 184.144 197.664 183.624 197.984 182.968C198.32 182.296 198.488 181.536 198.488 180.688C198.488 179.84 198.32 179.088 197.984 178.432C197.664 177.76 197.216 177.232 196.64 176.848C196.064 176.464 195.4 176.272 194.648 176.272C193.896 176.272 193.232 176.464 192.656 176.848C192.08 177.232 191.624 177.76 191.288 178.432C190.968 179.088 190.808 179.84 190.808 180.688C190.808 181.536 190.968 182.296 191.288 182.968C191.624 183.624 192.08 184.144 192.656 184.528C193.232 184.912 193.896 185.104 194.648 185.104ZM209.523 187.24C208.371 187.24 207.339 186.96 206.427 186.4C205.531 185.824 204.819 185.048 204.291 184.072C203.763 183.08 203.499 181.952 203.499 180.688C203.499 179.424 203.755 178.304 204.267 177.328C204.795 176.336 205.507 175.56 206.403 175C207.299 174.424 208.315 174.136 209.451 174.136C210.075 174.136 210.675 174.24 211.251 174.448C211.843 174.64 212.371 174.912 212.835 175.264C213.299 175.6 213.659 175.976 213.915 176.392C214.187 176.792 214.323 177.2 214.323 177.616L213.603 177.664V169.24H216.075V187H213.603V184H214.083C214.083 184.384 213.955 184.768 213.699 185.152C213.443 185.52 213.099 185.864 212.667 186.184C212.251 186.504 211.763 186.76 211.203 186.952C210.659 187.144 210.099 187.24 209.523 187.24ZM209.859 185.104C210.611 185.104 211.275 184.912 211.851 184.528C212.427 184.144 212.875 183.624 213.195 182.968C213.531 182.296 213.699 181.536 213.699 180.688C213.699 179.84 213.531 179.088 213.195 178.432C212.875 177.76 212.427 177.232 211.851 176.848C211.275 176.464 210.611 176.272 209.859 176.272C209.107 176.272 208.443 176.464 207.867 176.848C207.291 177.232 206.835 177.76 206.499 178.432C206.179 179.088 206.019 179.84 206.019 180.688C206.019 181.536 206.179 182.296 206.499 182.968C206.835 183.624 207.291 184.144 207.867 184.528C208.443 184.912 209.107 185.104 209.859 185.104ZM225.358 187.24C224.062 187.24 222.91 186.968 221.902 186.424C220.91 185.864 220.126 185.104 219.55 184.144C218.99 183.184 218.71 182.08 218.71 180.832C218.71 179.84 218.87 178.936 219.19 178.12C219.51 177.304 219.95 176.6 220.51 176.008C221.086 175.4 221.766 174.936 222.55 174.616C223.35 174.28 224.214 174.112 225.142 174.112C225.958 174.112 226.718 174.272 227.422 174.592C228.126 174.896 228.734 175.32 229.246 175.864C229.774 176.408 230.174 177.056 230.446 177.808C230.734 178.544 230.87 179.352 230.854 180.232L230.83 181.288H220.534L219.982 179.32H228.694L228.334 179.728V179.152C228.286 178.624 228.11 178.152 227.806 177.736C227.502 177.32 227.118 176.992 226.654 176.752C226.19 176.512 225.686 176.392 225.142 176.392C224.278 176.392 223.55 176.56 222.958 176.896C222.366 177.216 221.918 177.696 221.614 178.336C221.31 178.96 221.158 179.736 221.158 180.664C221.158 181.544 221.342 182.312 221.71 182.968C222.078 183.608 222.598 184.104 223.27 184.456C223.942 184.808 224.718 184.984 225.598 184.984C226.222 184.984 226.798 184.88 227.326 184.672C227.87 184.464 228.454 184.088 229.078 183.544L230.326 185.296C229.942 185.68 229.47 186.016 228.91 186.304C228.366 186.592 227.782 186.824 227.158 187C226.55 187.16 225.95 187.24 225.358 187.24ZM233.541 187V174.4H236.013V176.992L235.581 177.28C235.741 176.72 236.053 176.208 236.517 175.744C236.981 175.264 237.533 174.88 238.173 174.592C238.813 174.288 239.469 174.136 240.141 174.136C241.101 174.136 241.901 174.328 242.541 174.712C243.181 175.08 243.661 175.648 243.981 176.416C244.301 177.184 244.461 178.152 244.461 179.32V187H241.989V179.488C241.989 178.768 241.893 178.176 241.701 177.712C241.509 177.232 241.213 176.888 240.813 176.68C240.413 176.456 239.917 176.36 239.325 176.392C238.845 176.392 238.405 176.472 238.005 176.632C237.605 176.776 237.253 176.984 236.949 177.256C236.661 177.528 236.429 177.848 236.253 178.216C236.093 178.568 236.013 178.952 236.013 179.368V187H234.789C234.581 187 234.373 187 234.165 187C233.957 187 233.749 187 233.541 187Z" fill="#262626"/>
<path d="M61.5508 62C72.5508 62 73.1508 45.4 62.1508 44.9C61.8508 44.9 61.5508 44.9 61.2508 44.9C59.2508 44.9 57.3508 45.2 55.6508 45.8C54.1508 36.8 46.3508 30 36.9508 30C27.3508 30 19.4508 37.2 18.1508 46.4C15.8508 45.3 13.3508 44.7 10.6508 44.7C9.15078 44.7 7.65078 44.9 6.25078 45.3C-3.34922 47.8 -1.34921 62.1 8.55079 62.1H61.5508V62Z" fill="#F7F7F7"/>
<path d="M417.551 139C428.551 139 429.151 122.4 418.151 121.9C417.851 121.9 417.551 121.9 417.251 121.9C415.251 121.9 413.351 122.2 411.651 122.8C410.151 113.8 402.351 107 392.951 107C383.351 107 375.451 114.2 374.151 123.4C371.851 122.3 369.351 121.7 366.651 121.7C365.151 121.7 363.651 121.9 362.251 122.3C352.651 124.8 354.651 139.1 364.551 139.1H417.551V139Z" fill="#F7F7F7"/>
<path d="M127 15C127 6.71573 133.716 0 142 0H232C240.284 0 247 6.71573 247 15V17H127V15Z" fill="#262626"/>
<path d="M127 17.1426H247V81.8569C247 90.1412 240.284 96.8569 232 96.8569H142C133.716 96.8569 127 90.1411 127 81.8569V17.1426Z" fill="#ECECEC"/>
<path fill-rule="evenodd" clip-rule="evenodd" d="M165.887 73.6806C166.534 73.6806 167.059 73.156 167.059 72.5087V28.9151H207.424V31.2593C207.424 31.9061 207.948 32.4312 208.595 32.4312C209.243 32.4312 209.767 31.9061 209.767 31.2593V27.7432C209.767 27.0959 209.243 26.5713 208.595 26.5713H165.887C165.239 26.5713 164.715 27.0959 164.715 27.7432V72.5087C164.715 73.156 165.239 73.6806 165.887 73.6806Z" fill="#262626"/>
<path fill-rule="evenodd" clip-rule="evenodd" d="M208.595 39.4619C207.948 39.4619 207.424 39.9865 207.424 40.6338V72.0375H196.406C195.758 72.0375 195.234 72.5621 195.234 73.2094V84.2274H167.059V81.8832C167.059 81.2364 166.534 80.7113 165.887 80.7113C165.239 80.7113 164.715 81.2364 164.715 81.8832V85.3993C164.715 86.0466 165.239 86.5712 165.887 86.5712H196.406C196.412 86.5712 196.418 86.5703 196.424 86.5703C196.456 86.5698 196.488 86.5684 196.52 86.5657C196.54 86.5639 196.559 86.5597 196.578 86.557C196.596 86.5543 196.615 86.5524 196.633 86.5488C196.653 86.5451 196.672 86.5391 196.692 86.5346C196.709 86.53 196.727 86.5263 196.744 86.5213C196.763 86.5158 196.78 86.5085 196.798 86.5021C196.816 86.4957 196.835 86.4902 196.852 86.4828C196.868 86.476 196.884 86.4677 196.9 86.4604C196.919 86.4517 196.938 86.4435 196.956 86.4339C196.971 86.4261 196.985 86.4169 196.999 86.4082C197.018 86.3972 197.037 86.3872 197.055 86.3748C197.072 86.3638 197.087 86.351 197.103 86.3391C197.118 86.3281 197.133 86.318 197.148 86.3061C197.178 86.2819 197.207 86.2558 197.234 86.2279L209.424 74.038C209.461 74.0009 209.495 73.9611 209.526 73.9199C209.534 73.9098 209.542 73.8993 209.549 73.8888C209.578 73.8471 209.606 73.805 209.63 73.7601C209.631 73.7574 209.632 73.7546 209.634 73.7519C209.656 73.7093 209.675 73.6654 209.691 73.6205C209.696 73.6086 209.701 73.5962 209.705 73.5839C209.721 73.5363 209.735 73.4882 209.745 73.4388C209.745 73.4379 209.745 73.4369 209.745 73.4356C209.755 73.3875 209.76 73.3381 209.763 73.2886C209.765 73.2753 209.765 73.2621 209.766 73.2488C209.766 73.2355 209.767 73.2227 209.767 73.2094V40.6338C209.767 39.9865 209.243 39.4619 208.595 39.4619ZM197.577 82.5703V74.3813H205.766L197.577 82.5703Z" fill="#262626"/>
<path fill-rule="evenodd" clip-rule="evenodd" d="M175.757 62.7577C178.688 60.3965 182.873 59.042 187.241 59.042C191.609 59.042 195.795 60.3965 198.726 62.7577C198.942 62.9326 199.202 63.0173 199.461 63.0173C199.803 63.0173 200.142 62.868 200.374 62.5806C200.78 62.0765 200.7 61.3386 200.196 60.9326C196.857 58.2418 192.135 56.6982 187.241 56.6982C182.348 56.6982 177.626 58.2418 174.287 60.9326C173.782 61.3386 173.703 62.0765 174.109 62.5806C174.515 63.0841 175.253 63.1642 175.757 62.7577Z" fill="#262626"/>
<path fill-rule="evenodd" clip-rule="evenodd" d="M200.288 39.2193C199.831 38.7615 199.089 38.7615 198.631 39.2193L195.983 41.8675L193.334 39.2193C192.877 38.7615 192.135 38.7615 191.677 39.2193C191.22 39.6766 191.22 40.4187 191.677 40.8764L194.325 43.5246L191.677 46.1732C191.22 46.6306 191.22 47.3726 191.677 47.8304C192.135 48.2881 192.877 48.2881 193.334 47.8304L195.983 45.1822L198.631 47.8304C198.86 48.0592 199.16 48.1737 199.46 48.1737C199.76 48.1737 200.059 48.0592 200.288 47.8304C200.746 47.3726 200.746 46.6306 200.288 46.1732L197.64 43.5246L200.288 40.8764C200.746 40.4187 200.746 39.6766 200.288 39.2193Z" fill="#262626"/>
<path fill-rule="evenodd" clip-rule="evenodd" d="M174.193 47.8298C174.65 48.2872 175.392 48.2872 175.85 47.8294L178.498 45.1812L181.146 47.8294C181.375 48.0583 181.675 48.1727 181.975 48.1727C182.275 48.1727 182.575 48.0583 182.804 47.8294C183.261 47.3721 183.261 46.63 182.804 46.1723L180.156 43.5241L182.804 40.8754C183.261 40.4181 183.261 39.6761 182.804 39.2183C182.346 38.761 181.604 38.7606 181.146 39.2183L178.498 41.8665L175.85 39.2183C175.392 38.7606 174.65 38.7606 174.193 39.2183C173.735 39.6761 173.735 40.4181 174.193 40.8754L176.841 43.5241L174.193 46.1723C173.735 46.63 173.735 47.3721 174.193 47.8298Z" fill="#262626"/>
<path fill-rule="evenodd" clip-rule="evenodd" d="M165.887 78.3682C166.532 78.3682 167.059 77.8422 167.059 77.1963C167.059 76.5508 166.532 76.0244 165.887 76.0244C165.241 76.0244 164.715 76.5508 164.715 77.1963C164.715 77.8422 165.241 78.3682 165.887 78.3682Z" fill="#262626"/>
<path fill-rule="evenodd" clip-rule="evenodd" d="M208.596 34.7744C207.95 34.7744 207.424 35.3004 207.424 35.9463C207.424 36.5917 207.95 37.1182 208.596 37.1182C209.241 37.1182 209.768 36.5917 209.768 35.9463C209.768 35.3004 209.241 34.7744 208.596 34.7744Z" fill="#262626"/>
<path d="M143.269 9.341C143.098 10.9608 141.564 12.1543 139.944 11.9838C138.324 11.8133 137.131 10.2788 137.301 8.65899C137.472 7.03922 139.006 5.84572 140.626 6.01622C142.331 6.27197 143.439 7.72123 143.269 9.341Z" fill="white"/>
<path d="M153.556 9.341C153.386 10.9608 151.851 12.1543 150.231 11.9838C148.611 11.8133 147.418 10.2788 147.588 8.65899C147.759 7.03922 149.293 5.84572 150.913 6.01622C152.533 6.18672 153.727 7.63598 153.556 9.341Z" fill="#717171"/>
<path d="M163.843 9.341C163.673 10.9608 162.138 12.1543 160.518 11.9838C158.899 11.8133 157.705 10.2788 157.876 8.65899C158.046 7.03922 159.581 5.84572 161.2 6.01622C162.905 6.18672 164.014 7.72123 163.843 9.341Z" fill="#10A37F"/>
<path d="M46 156.614C46 156.268 46.0607 155.952 46.1821 155.661C46.3036 155.369 46.4797 155.114 46.7043 154.902C46.929 154.689 47.1961 154.519 47.5118 154.398C47.8276 154.276 48.1858 154.216 48.5804 154.216C48.9751 154.216 49.3333 154.276 49.6551 154.398C49.9769 154.519 50.2502 154.683 50.4748 154.902C50.6995 155.114 50.8755 155.369 50.997 155.661C51.1184 155.952 51.1791 156.274 51.1791 156.614C51.1791 156.96 51.1184 157.276 50.997 157.561C50.8755 157.846 50.6995 158.101 50.4748 158.314C50.2502 158.526 49.9769 158.696 49.6551 158.818C49.3333 158.939 48.9751 159 48.5804 159C48.1858 159 47.8276 158.939 47.5118 158.818C47.1961 158.696 46.929 158.532 46.7043 158.314C46.4797 158.101 46.3036 157.852 46.1821 157.561C46.0607 157.276 46 156.96 46 156.614ZM50.5112 152.157H46.6618L46.1154 139H51.0577L50.5112 152.157Z" fill="#FFBF4D"/>
<path d="M299 200.614C299 200.268 299.061 199.952 299.182 199.661C299.304 199.369 299.48 199.114 299.704 198.902C299.929 198.689 300.196 198.519 300.512 198.398C300.828 198.276 301.186 198.216 301.58 198.216C301.975 198.216 302.333 198.276 302.655 198.398C302.977 198.519 303.25 198.683 303.475 198.902C303.699 199.114 303.876 199.369 303.997 199.661C304.118 199.952 304.179 200.274 304.179 200.614C304.179 200.96 304.118 201.276 303.997 201.561C303.876 201.846 303.699 202.101 303.475 202.314C303.25 202.526 302.977 202.696 302.655 202.818C302.333 202.939 301.975 203 301.58 203C301.186 203 300.828 202.939 300.512 202.818C300.196 202.696 299.929 202.532 299.704 202.314C299.48 202.101 299.304 201.852 299.182 201.561C299.061 201.276 299 200.96 299 200.614ZM303.511 196.157H299.662L299.115 183H304.058L303.511 196.157Z" fill="#10A37F"/>
<path d="M109 47.6138C109 47.2678 109.061 46.952 109.182 46.6606C109.304 46.3692 109.48 46.1141 109.704 45.9016C109.929 45.6891 110.196 45.5191 110.512 45.3977C110.828 45.2763 111.186 45.2155 111.58 45.2155C111.975 45.2155 112.333 45.2763 112.655 45.3977C112.977 45.5191 113.25 45.6831 113.475 45.9016C113.699 46.1141 113.876 46.3692 113.997 46.6606C114.118 46.952 114.179 47.2738 114.179 47.6138C114.179 47.9599 114.118 48.2757 113.997 48.561C113.876 48.8464 113.699 49.1014 113.475 49.3139C113.25 49.5264 112.977 49.6964 112.655 49.8179C112.333 49.9393 111.975 50 111.58 50C111.186 50 110.828 49.9393 110.512 49.8179C110.196 49.6964 109.929 49.5325 109.704 49.3139C109.48 49.1014 109.304 48.8525 109.182 48.561C109.061 48.2757 109 47.9599 109 47.6138ZM113.511 43.1573H109.662L109.115 30H114.058L113.511 43.1573Z" fill="#10A37F"/>
<path d="M301.21 27.9311L293.21 25.0311C292.61 24.8311 291.91 25.6311 292.01 26.4311L293.61 34.4311C293.71 35.1311 294.41 35.3311 294.91 34.9311L301.21 29.7311C301.91 29.2311 301.91 28.1311 301.21 27.9311Z" stroke="#717171" stroke-miterlimit="10" stroke-linejoin="round"/>
</svg>
