<svg width="15" height="10" viewBox="0 0 15 10" fill="none" xmlns="http://www.w3.org/2000/svg">
<path d="M0.176 9L3.179 1.3H4.521L7.502 9H6.017L4.367 4.622C4.33033 4.534 4.279 4.39467 4.213 4.204C4.15433 4.01333 4.08833 3.808 4.015 3.588C3.94167 3.36067 3.87567 3.15167 3.817 2.961C3.75833 2.763 3.71433 2.62 3.685 2.532L3.96 2.521C3.916 2.66767 3.86467 2.83267 3.806 3.016C3.74733 3.19933 3.685 3.39 3.619 3.588C3.553 3.786 3.487 3.97667 3.421 4.16C3.36233 4.34333 3.30733 4.50833 3.256 4.655L1.606 9H0.176ZM1.54 7.24L2.035 5.997H5.544L6.072 7.24H1.54ZM11.6737 9.11C11.417 9.11 11.164 9.07333 10.9147 9C10.6727 8.91933 10.4527 8.813 10.2547 8.681C10.0567 8.549 9.89166 8.40233 9.75966 8.241C9.62766 8.07233 9.53966 7.90367 9.49566 7.735L9.81466 7.592L9.78166 8.978H8.47266V0.86H9.82566V4.545L9.58366 4.435C9.62033 4.259 9.701 4.094 9.82566 3.94C9.95766 3.77867 10.119 3.63567 10.3097 3.511C10.5003 3.379 10.7093 3.27633 10.9367 3.203C11.164 3.12233 11.395 3.082 11.6297 3.082C12.1503 3.082 12.6087 3.21033 13.0047 3.467C13.408 3.72367 13.7233 4.07933 13.9507 4.534C14.1853 4.98867 14.3027 5.50567 14.3027 6.085C14.3027 6.67167 14.189 7.19233 13.9617 7.647C13.7343 8.10167 13.419 8.461 13.0157 8.725C12.6197 8.98167 12.1723 9.11 11.6737 9.11ZM11.3877 7.922C11.6957 7.922 11.9707 7.845 12.2127 7.691C12.4547 7.52967 12.6453 7.31333 12.7847 7.042C12.924 6.76333 12.9937 6.44433 12.9937 6.085C12.9937 5.733 12.924 5.42133 12.7847 5.15C12.6527 4.87867 12.4657 4.666 12.2237 4.512C11.9817 4.358 11.703 4.281 11.3877 4.281C11.0723 4.281 10.7937 4.358 10.5517 4.512C10.3097 4.666 10.119 4.87867 9.97966 5.15C9.84033 5.42133 9.77066 5.733 9.77066 6.085C9.77066 6.44433 9.84033 6.76333 9.97966 7.042C10.119 7.31333 10.3097 7.52967 10.5517 7.691C10.7937 7.845 11.0723 7.922 11.3877 7.922Z" fill="#112D55"/>
</svg>
