<svg width="16" height="16" viewBox="0 0 16 16" fill="none" xmlns="http://www.w3.org/2000/svg">
<path d="M7.41795 6.67893C7.41795 6.3574 7.67847 6.09688 8 6.09688C8.32153 6.09688 8.58205 6.3574 8.58205 6.67893V11.4514C8.58205 11.773 8.32153 12.0335 8 12.0335C7.67847 12.0335 7.41795 11.773 7.41795 11.4514V6.67893Z" fill="#FC6D35" stroke="white" stroke-width="0.1"/>
<path d="M8.62731 4.58356C8.62731 4.93001 8.34645 5.21086 8 5.21086C7.65355 5.21086 7.37269 4.93001 7.37269 4.58356C7.37269 4.2371 7.65355 3.95625 8 3.95625C8.34645 3.95625 8.62731 4.2371 8.62731 4.58356Z" fill="#FC6D35" stroke="white" stroke-width="0.1"/>
<path d="M8 15.95C3.6164 15.95 0.05 12.3836 0.05 8C0.05 3.6164 3.6164 0.05 8 0.05C12.3836 0.05 15.95 3.6164 15.95 8C15.95 12.3836 12.3836 15.95 8 15.95ZM8 1.2141C4.2582 1.2141 1.2141 4.2582 1.2141 8C1.2141 11.7415 4.2582 14.7859 8 14.7859C11.7415 14.7859 14.7859 11.7418 14.7859 8C14.7859 4.2582 11.7418 1.2141 8 1.2141Z" fill="#FC6D35" stroke="white" stroke-width="0.1"/>
</svg>
