<svg width="16" height="18" viewBox="0 0 16 18" fill="none" xmlns="http://www.w3.org/2000/svg">
<path fill-rule="evenodd" clip-rule="evenodd" d="M10.7183 13.0336H4.9162C4.5835 13.0336 4.31348 12.7635 4.31348 12.4308C4.31348 12.0981 4.5835 11.8281 4.9162 11.8281H10.7183C11.051 11.8281 11.321 12.0981 11.321 12.4308C11.321 12.7635 11.051 13.0336 10.7183 13.0336Z" fill="#717171" stroke="white" stroke-width="0.2"/>
<path fill-rule="evenodd" clip-rule="evenodd" d="M10.7183 9.67027H4.9162C4.5835 9.67027 4.31348 9.40026 4.31348 9.06756C4.31348 8.73487 4.5835 8.46484 4.9162 8.46484H10.7183C11.051 8.46484 11.321 8.73487 11.321 9.06756C11.321 9.40026 11.051 9.67027 10.7183 9.67027Z" fill="#717171" stroke="white" stroke-width="0.2"/>
<path fill-rule="evenodd" clip-rule="evenodd" d="M7.13015 6.31285H4.9162C4.5835 6.31285 4.31348 6.04283 4.31348 5.71013C4.31348 5.37743 4.5835 5.10742 4.9162 5.10742H7.13015C7.46285 5.10742 7.73286 5.37743 7.73286 5.71013C7.73286 6.04283 7.46285 6.31285 7.13015 6.31285Z" fill="#717171" stroke="white" stroke-width="0.2"/>
<path fill-rule="evenodd" clip-rule="evenodd" d="M10.8739 2.20543L4.69488 2.20864C2.82406 2.21989 1.70543 3.3771 1.70543 5.30497V12.695C1.70543 14.6358 2.8345 15.7946 4.72381 15.7946L10.9028 15.7921C12.7737 15.7809 13.8923 14.6221 13.8923 12.695V5.30497C13.8923 3.36424 12.764 2.20543 10.8739 2.20543ZM4.72461 17C2.19805 17 0.5 15.2698 0.5 12.695V5.30497C0.5 2.70688 2.14501 1.01848 4.69086 1.00321L10.8739 1C13.4005 1 15.0977 2.73018 15.0977 5.30497V12.695C15.0977 15.2923 13.4527 16.9815 10.9069 16.9976L4.72461 17Z" fill="#717171" stroke="white" stroke-width="0.2"/>
</svg>
