
<svg width="16" height="16" viewBox="0 0 16 16" fill="none" xmlns="http://www.w3.org/2000/svg">
<path d="M9.27776 10.2034C8.80432 10.1522 8.31338 10.1254 7.80952 10.1254C5.54039 10.1254 3.51727 10.6612 2.2629 11.5162C1.56253 11.9933 1.09286 12.5637 1.09286 13.2213V14.3254C1.09286 14.3791 1.11414 14.4306 1.15246 14.4689C1.19015 14.5066 1.24178 14.5277 1.29524 14.5277H8.95238C9.24022 14.5277 9.47381 14.7612 9.47381 15.0488C9.47381 15.3364 9.24022 15.5699 8.95238 15.5699H1.29524C0.964877 15.5699 0.648447 15.4389 0.414774 15.2053L0.414718 15.2053C0.181131 14.9726 0.05 14.6556 0.05 14.3254V13.2213C0.05 12.2785 0.621755 11.373 1.67463 10.6553C3.05534 9.71448 5.28543 9.0832 7.80952 9.0832C8.35099 9.0832 8.8795 9.11204 9.38896 9.16668L9.38898 9.16668C9.67539 9.19725 9.88259 9.45433 9.852 9.74061C9.82142 10.0261 9.56421 10.2339 9.27776 10.2034ZM9.27776 10.2034L9.27238 10.2531L9.27769 10.2034C9.27771 10.2034 9.27773 10.2034 9.27776 10.2034Z" fill="#717171" stroke="white" stroke-width="0.1"/>
<path d="M3.66914 4.18808C3.66914 1.9039 5.52406 0.05 7.80962 0.05C10.0952 0.05 11.9501 1.9039 11.9501 4.18808C11.9501 6.47151 10.0952 8.32617 7.80962 8.32617C5.52407 8.32617 3.66914 6.47151 3.66914 4.18808ZM10.9072 4.18808C10.9072 2.47912 9.51949 1.0922 7.80962 1.0922C6.09974 1.0922 4.712 2.47912 4.712 4.18808C4.712 5.89628 6.09974 7.28396 7.80962 7.28396C9.5195 7.28396 10.9072 5.89628 10.9072 4.18808Z" fill="#717171" stroke="white" stroke-width="0.1"/>
<path d="M15.9495 12.0025V14.6676C15.9495 15.3763 15.3746 15.9502 14.6662 15.9502H11.2376C10.5292 15.9502 9.9543 15.3763 9.9543 14.6676V12.0025C9.9543 11.2946 10.5292 10.7199 11.2376 10.7199H11.2431H11.2486H11.2541H11.2596H11.2651H11.2706H11.2762H11.2817H11.2873H11.2929H11.2985H11.3041H11.3098H11.3154H11.3211H11.3267H11.3324H11.3381H11.3438H11.3496H11.3553H11.3611H11.3668H11.3726H11.3784H11.3842H11.39H11.3959H11.4017H11.4076H11.4135H11.4193H11.4252H11.4311H11.4371H11.443H11.449H11.4549H11.4609H11.4669H11.4729H11.4789H11.4849H11.4909H11.497H11.503H11.5091H11.5152H11.5213H11.5274H11.5335H11.5396H11.5458H11.5519H11.5581H11.5643H11.5705H11.5767H11.5829H11.5891H11.5953H11.6016H11.6078H11.6141H11.6204H11.6266H11.6329H11.6392H11.6456H11.6519H11.6582H11.6646H11.6709H11.6773H11.6837H11.6901H11.6965H11.7029H11.7093H11.7158H11.7222H11.7286H11.7351H11.7416H11.7481H11.7546H11.7611H11.7676H11.7741H11.7806H11.7872H11.7937H11.8003H11.8068H11.8134H11.82H11.8266H11.8332H11.8398H11.8464H11.853H11.8597H11.8663H11.873H11.8797H11.8863H11.893H11.8997H11.9064H11.9131H11.9198H11.9265H11.9333H11.94H11.9468H11.9535H11.9603H11.9671H11.9738H11.9806H11.9874H11.9942H12.001H12.0079H12.0147H12.0215H12.0284H12.0352H12.0421H12.0489H12.0558H12.0627H12.0695H12.0764H12.0833H12.0902H12.0972H12.1041H12.111H12.1179H12.1249H12.1318H12.1388H12.1457H12.1527H12.1597H12.1666H12.1736H12.1806H12.1876H12.1946H12.2016H12.2086H12.2156H12.2227H12.2297H12.2367H12.2438H12.2508H12.2579H12.2649H12.272H12.2791H12.2861H12.2932H12.3003H12.3074H12.3145H12.3216H12.3287H12.3358H12.3429H12.35H12.3571H12.3643H12.3714H12.3785H12.3857H12.3928H12.4H12.4071H12.4143H12.4215H12.4286H12.4358H12.443H12.4502H12.4573H12.4645H12.4717H12.4789H12.4861H12.4933H12.5005H12.5077H12.5149H12.5222H12.5294H12.5366H12.5438H12.5511H12.5583H12.5655H12.5728H12.58H12.5873H12.5945H12.6017H12.609H12.6163H12.6235H12.6308H12.638H12.6453H12.6526H12.6598H12.6671H12.6744H12.6817H12.6889H12.6962H12.7035H12.7108H12.7181H12.7254H12.7327H12.74H12.7472H12.7545H12.7618H12.7691H12.7764H12.7837H12.791H12.7983H12.8057H12.813H12.8203H12.8276H12.8349H12.8422H12.8495H12.8568H12.8641H12.8714H12.8788H12.8861H12.8934H12.9007H12.908H12.9153H12.9226H12.93H12.9373H12.9446H12.9519H12.9592H12.9666H12.9739H12.9812H12.9885H12.9958H13.0031H13.0104H13.0178H13.0251H13.0324H13.0397H13.047H13.0543H13.0616H13.0689H13.0763H13.0836H13.0909H13.0982H13.1055H13.1128H13.1201H13.1274H13.1347H13.142H13.1493H13.1566H13.1639H13.1712H13.1785H13.1857H13.193H13.2003H13.2076H13.2149H13.2222H13.2294H13.2367H13.244H13.2513H13.2585H13.2658H13.2731H13.2803H13.2876H13.2948H13.3021H13.3093H13.3166H13.3238H13.3311H13.3383H13.3455H13.3528H13.36H13.3672H13.3745H13.3817H13.3889H13.3961H13.4033H13.4105H13.4177H13.4249H13.4321H13.4393H13.4465H13.4537H13.4609H13.468H13.4752H13.4824H13.4895H13.4967H13.5038H13.511H13.5181H13.5253H13.5324H13.5396H13.5467H13.5538H13.5609H13.568H13.5752H13.5823H13.5894H13.5965H13.6035H13.6106H13.6177H13.6248H13.6318H13.6389H13.646H13.653H13.6601H13.6671H13.6741H13.6812H13.6882H13.6952H13.7022H13.7092H13.7162H13.7232H13.7302H13.7372H13.7442H13.7511H13.7581H13.7651H13.772H13.779H13.7859H13.7928H13.7998H13.8067H13.8136H13.8205H13.8274H13.8343H13.8412H13.848H13.8549H13.8618H13.8686H13.8755H13.8823H13.8892H13.896H13.9028H13.9096H13.9164H13.9232H13.93H13.9368H13.9435H13.9503H13.9571H13.9638H13.9706H13.9773H13.984H13.9907H13.9974H14.0041H14.0108H14.0175H14.0242H14.0308H14.0375H14.0441H14.0508H14.0574H14.064H14.0706H14.0773H14.0838H14.0904H14.097H14.1036H14.1101H14.1167H14.1232H14.1297H14.1363H14.1428H14.1493H14.1558H14.1623H14.1687H14.1752H14.1816H14.1881H14.1945H14.2009H14.2073H14.2137H14.2201H14.2265H14.2329H14.2393H14.2456H14.2519H14.2583H14.2646H14.2709H14.2772H14.2835H14.2898H14.296H14.3023H14.3085H14.3147H14.321H14.3272H14.3334H14.3396H14.3457H14.3519H14.3581H14.3642H14.3703H14.3764H14.3825H14.3886H14.3947H14.4008H14.4068H14.4129H14.4189H14.425H14.431H14.437H14.4429H14.4489H14.4549H14.4608H14.4668H14.4727H14.4786H14.4845H14.4904H14.4963H14.5021H14.508H14.5138H14.5196H14.5254H14.5312H14.537H14.5428H14.5485H14.5543H14.56H14.5657H14.5714H14.5771H14.5828H14.5884H14.5941H14.5997H14.6053H14.6109H14.6165H14.6221H14.6277H14.6332H14.6387H14.6443H14.6498H14.6553H14.6607H14.6662C15.3746 10.7199 15.9495 11.2946 15.9495 12.0025ZM14.9067 14.6676V12.0025C14.9067 11.8698 14.7989 11.7621 14.6662 11.7621H11.2376C11.1049 11.7621 10.9972 11.8698 10.9972 12.0025V14.6676C10.9972 14.8004 11.1049 14.908 11.2376 14.908H11.2431H11.2486H11.2541H11.2596H11.2651H11.2706H11.2762H11.2817H11.2873H11.2929H11.2985H11.3041H11.3098H11.3154H11.3211H11.3267H11.3324H11.3381H11.3438H11.3496H11.3553H11.3611H11.3668H11.3726H11.3784H11.3842H11.39H11.3959H11.4017H11.4076H11.4135H11.4193H11.4252H11.4311H11.4371H11.443H11.449H11.4549H11.4609H11.4669H11.4729H11.4789H11.4849H11.4909H11.497H11.503H11.5091H11.5152H11.5213H11.5274H11.5335H11.5396H11.5458H11.5519H11.5581H11.5643H11.5705H11.5767H11.5829H11.5891H11.5953H11.6016H11.6078H11.6141H11.6204H11.6266H11.6329H11.6392H11.6456H11.6519H11.6582H11.6646H11.6709H11.6773H11.6837H11.6901H11.6965H11.7029H11.7093H11.7158H11.7222H11.7286H11.7351H11.7416H11.7481H11.7546H11.7611H11.7676H11.7741H11.7806H11.7872H11.7937H11.8003H11.8068H11.8134H11.82H11.8266H11.8332H11.8398H11.8464H11.853H11.8597H11.8663H11.873H11.8797H11.8863H11.893H11.8997H11.9064H11.9131H11.9198H11.9265H11.9333H11.94H11.9468H11.9535H11.9603H11.9671H11.9738H11.9806H11.9874H11.9942H12.001H12.0079H12.0147H12.0215H12.0284H12.0352H12.0421H12.0489H12.0558H12.0627H12.0695H12.0764H12.0833H12.0902H12.0972H12.1041H12.111H12.1179H12.1249H12.1318H12.1388H12.1457H12.1527H12.1597H12.1666H12.1736H12.1806H12.1876H12.1946H12.2016H12.2086H12.2156H12.2227H12.2297H12.2367H12.2438H12.2508H12.2579H12.2649H12.272H12.2791H12.2861H12.2932H12.3003H12.3074H12.3145H12.3216H12.3287H12.3358H12.3429H12.35H12.3571H12.3643H12.3714H12.3785H12.3857H12.3928H12.4H12.4071H12.4143H12.4215H12.4286H12.4358H12.443H12.4502H12.4573H12.4645H12.4717H12.4789H12.4861H12.4933H12.5005H12.5077H12.5149H12.5222H12.5294H12.5366H12.5438H12.5511H12.5583H12.5655H12.5728H12.58H12.5873H12.5945H12.6017H12.609H12.6163H12.6235H12.6308H12.638H12.6453H12.6526H12.6598H12.6671H12.6744H12.6817H12.6889H12.6962H12.7035H12.7108H12.7181H12.7254H12.7327H12.74H12.7472H12.7545H12.7618H12.7691H12.7764H12.7837H12.791H12.7983H12.8057H12.813H12.8203H12.8276H12.8349H12.8422H12.8495H12.8568H12.8641H12.8714H12.8788H12.8861H12.8934H12.9007H12.908H12.9153H12.9226H12.93H12.9373H12.9446H12.9519H12.9592H12.9666H12.9739H12.9812H12.9885H12.9958H13.0031H13.0104H13.0178H13.0251H13.0324H13.0397H13.047H13.0543H13.0616H13.0689H13.0763H13.0836H13.0909H13.0982H13.1055H13.1128H13.1201H13.1274H13.1347H13.142H13.1493H13.1566H13.1639H13.1712H13.1785H13.1857H13.193H13.2003H13.2076H13.2149H13.2222H13.2294H13.2367H13.244H13.2513H13.2585H13.2658H13.2731H13.2803H13.2876H13.2948H13.3021H13.3093H13.3166H13.3238H13.3311H13.3383H13.3455H13.3528H13.36H13.3672H13.3745H13.3817H13.3889H13.3961H13.4033H13.4105H13.4177H13.4249H13.4321H13.4393H13.4465H13.4537H13.4609H13.468H13.4752H13.4824H13.4895H13.4967H13.5038H13.511H13.5181H13.5253H13.5324H13.5396H13.5467H13.5538H13.5609H13.568H13.5752H13.5823H13.5894H13.5965H13.6035H13.6106H13.6177H13.6248H13.6318H13.6389H13.646H13.653H13.6601H13.6671H13.6741H13.6812H13.6882H13.6952H13.7022H13.7092H13.7162H13.7232H13.7302H13.7372H13.7442H13.7511H13.7581H13.7651H13.772H13.779H13.7859H13.7928H13.7998H13.8067H13.8136H13.8205H13.8274H13.8343H13.8412H13.848H13.8549H13.8618H13.8686H13.8755H13.8823H13.8892H13.896H13.9028H13.9096H13.9164H13.9232H13.93H13.9368H13.9435H13.9503H13.9571H13.9638H13.9706H13.9773H13.984H13.9907H13.9974H14.0041H14.0108H14.0175H14.0242H14.0308H14.0375H14.0441H14.0508H14.0574H14.064H14.0706H14.0773H14.0838H14.0904H14.097H14.1036H14.1101H14.1167H14.1232H14.1297H14.1363H14.1428H14.1493H14.1558H14.1623H14.1687H14.1752H14.1816H14.1881H14.1945H14.2009H14.2073H14.2137H14.2201H14.2265H14.2329H14.2393H14.2456H14.2519H14.2583H14.2646H14.2709H14.2772H14.2835H14.2898H14.296H14.3023H14.3085H14.3147H14.321H14.3272H14.3334H14.3396H14.3457H14.3519H14.3581H14.3642H14.3703H14.3764H14.3825H14.3886H14.3947H14.4008H14.4068H14.4129H14.4189H14.425H14.431H14.437H14.4429H14.4489H14.4549H14.4608H14.4668H14.4727H14.4786H14.4845H14.4904H14.4963H14.5021H14.508H14.5138H14.5196H14.5254H14.5312H14.537H14.5428H14.5485H14.5543H14.56H14.5657H14.5714H14.5771H14.5828H14.5884H14.5941H14.5997H14.6053H14.6109H14.6165H14.6221H14.6277H14.6332H14.6387H14.6443H14.6498H14.6553H14.6607H14.6662C14.7989 14.908 14.9067 14.8004 14.9067 14.6676Z" fill="#717171" stroke="white" stroke-width="0.1"/>
<path d="M13.8521 9.38952L13.852 9.38937C13.6636 9.20193 13.4095 9.09611 13.1432 9.09611H12.7622C12.496 9.09611 12.2418 9.20193 12.0534 9.38937L12.0533 9.38952C11.8657 9.57777 11.7598 9.83259 11.7598 10.0979V11.2402C11.7598 11.5278 11.5263 11.7613 11.2384 11.7613C10.9506 11.7613 10.717 11.5278 10.717 11.2402V10.0979C10.717 9.5561 10.9327 9.0358 11.3157 8.65302C11.6994 8.26947 12.2201 8.05391 12.7622 8.05391H12.7676H12.7677H12.7679H12.7681H12.7683H12.7685H12.7687H12.7689H12.7691H12.7693H12.7695H12.7698H12.77H12.7702H12.7704H12.7706H12.7709H12.7711H12.7713H12.7716H12.7718H12.7721H12.7723H12.7725H12.7728H12.773H12.7733H12.7736H12.7738H12.7741H12.7744H12.7746H12.7749H12.7752H12.7755H12.7757H12.776H12.7763H12.7766H12.7769H12.7772H12.7775H12.7778H12.7781H12.7784H12.7787H12.779H12.7793H12.7796H12.7799H12.7803H12.7806H12.7809H12.7812H12.7816H12.7819H12.7822H12.7826H12.7829H12.7833H12.7836H12.784H12.7843H12.7847H12.785H12.7854H12.7857H12.7861H12.7865H12.7868H12.7872H12.7876H12.7879H12.7883H12.7887H12.7891H12.7895H12.7898H12.7902H12.7906H12.791H12.7914H12.7918H12.7922H12.7926H12.793H12.7934H12.7938H12.7942H12.7947H12.7951H12.7955H12.7959H12.7963H12.7968H12.7972H12.7976H12.798H12.7985H12.7989H12.7994H12.7998H12.8002H12.8007H12.8011H12.8016H12.802H12.8025H12.8029H12.8034H12.8038H12.8043H12.8048H12.8052H12.8057H12.8062H12.8066H12.8071H12.8076H12.8081H12.8085H12.809H12.8095H12.81H12.8105H12.811H12.8114H12.8119H12.8124H12.8129H12.8134H12.8139H12.8144H12.8149H12.8154H12.8159H12.8164H12.817H12.8175H12.818H12.8185H12.819H12.8195H12.8201H12.8206H12.8211H12.8216H12.8222H12.8227H12.8232H12.8238H12.8243H12.8248H12.8254H12.8259H12.8264H12.827H12.8275H12.8281H12.8286H12.8292H12.8297H12.8303H12.8308H12.8314H12.832H12.8325H12.8331H12.8336H12.8342H12.8348H12.8353H12.8359H12.8365H12.837H12.8376H12.8382H12.8388H12.8393H12.8399H12.8405H12.8411H12.8417H12.8423H12.8428H12.8434H12.844H12.8446H12.8452H12.8458H12.8464H12.847H12.8476H12.8482H12.8488H12.8494H12.85H12.8506H12.8512H12.8518H12.8524H12.853H12.8536H12.8542H12.8549H12.8555H12.8561H12.8567H12.8573H12.8579H12.8586H12.8592H12.8598H12.8604H12.8611H12.8617H12.8623H12.8629H12.8636H12.8642H12.8648H12.8655H12.8661H12.8667H12.8674H12.868H12.8686H12.8693H12.8699H12.8706H12.8712H12.8718H12.8725H12.8731H12.8738H12.8744H12.8751H12.8757H12.8764H12.877H12.8777H12.8783H12.879H12.8796H12.8803H12.881H12.8816H12.8823H12.8829H12.8836H12.8842H12.8849H12.8856H12.8862H12.8869H12.8876H12.8882H12.8889H12.8896H12.8902H12.8909H12.8916H12.8922H12.8929H12.8936H12.8943H12.8949H12.8956H12.8963H12.897H12.8976H12.8983H12.899H12.8997H12.9003H12.901H12.9017H12.9024H12.9031H12.9037H12.9044H12.9051H12.9058H12.9065H12.9072H12.9079H12.9085H12.9092H12.9099H12.9106H12.9113H12.912H12.9127H12.9134H12.914H12.9147H12.9154H12.9161H12.9168H12.9175H12.9182H12.9189H12.9196H12.9203H12.921H12.9217H12.9224H12.9231H12.9237H12.9244H12.9251H12.9258H12.9265H12.9272H12.9279H12.9286H12.9293H12.93H12.9307H12.9314H12.9321H12.9328H12.9335H12.9342H12.9349H12.9356H12.9363H12.937H12.9377H12.9384H12.9391H12.9398H12.9405H12.9412H12.9419H12.9426H12.9433H12.944H12.9447H12.9455H12.9462H12.9469H12.9476H12.9483H12.949H12.9497H12.9504H12.9511H12.9518H12.9525H12.9532H12.9539H12.9546H12.9553H12.956H12.9567H12.9574H12.9581H12.9588H12.9595H12.9602H12.9609H12.9616H12.9623H12.963H12.9637H12.9644H12.9651H12.9658H12.9665H12.9672H12.9679H12.9686H12.9693H12.97H12.9707H12.9714H12.9721H12.9728H12.9735H12.9742H12.9749H12.9756H12.9763H12.977H12.9777H12.9784H12.9791H12.9798H12.9805H12.9812H12.9819H12.9826H12.9833H12.984H12.9847H12.9854H12.9861H12.9868H12.9875H12.9881H12.9888H12.9895H12.9902H12.9909H12.9916H12.9923H12.993H12.9937H12.9944H12.995H12.9957H12.9964H12.9971H12.9978H12.9985H12.9992H12.9998H13.0005H13.0012H13.0019H13.0026H13.0032H13.0039H13.0046H13.0053H13.006H13.0066H13.0073H13.008H13.0087H13.0093H13.01H13.0107H13.0114H13.012H13.0127H13.0134H13.014H13.0147H13.0154H13.0161H13.0167H13.0174H13.018H13.0187H13.0194H13.02H13.0207H13.0214H13.022H13.0227H13.0233H13.024H13.0246H13.0253H13.026H13.0266H13.0273H13.0279H13.0286H13.0292H13.0299H13.0305H13.0312H13.0318H13.0325H13.0331H13.0337H13.0344H13.035H13.0357H13.0363H13.0369H13.0376H13.0382H13.0388H13.0395H13.0401H13.0407H13.0414H13.042H13.0426H13.0433H13.0439H13.0445H13.0451H13.0458H13.0464H13.047H13.0476H13.0482H13.0488H13.0495H13.0501H13.0507H13.0513H13.0519H13.0525H13.0531H13.0537H13.0543H13.0549H13.0555H13.0561H13.0567H13.0573H13.0579H13.0585H13.0591H13.0597H13.0603H13.0609C13.073 8.05391 13.0853 8.05458 13.0983 8.05534L13.0983 8.05567L13.104 8.05535C13.1179 8.05458 13.131 8.05391 13.1432 8.05391C13.6853 8.05391 14.206 8.26947 14.5897 8.65302C14.9727 9.0358 15.1884 9.5561 15.1884 10.0979V11.2402C15.1884 11.5278 14.9548 11.7613 14.667 11.7613C14.3792 11.7613 14.1456 11.5278 14.1456 11.2402V10.0979C14.1456 9.83259 14.0397 9.57777 13.8521 9.38952Z" fill="#717171" stroke="white" stroke-width="0.1"/>
<path d="M12.4309 13.7154V12.9539C12.4309 12.6663 12.6643 12.4328 12.952 12.4328C13.2396 12.4328 13.4731 12.6663 13.4731 12.9539V13.7154C13.4731 14.003 13.2396 14.2365 12.952 14.2365C12.6643 14.2365 12.4309 14.003 12.4309 13.7154Z" fill="#717171" stroke="white" stroke-width="0.1"/>
</svg>
