<svg width="16" height="16" viewBox="0 0 16 16" fill="none" xmlns="http://www.w3.org/2000/svg">
<path d="M7.77368 7.70728C8.83252 7.70728 9.74927 7.32751 10.4985 6.57825C11.2476 5.8291 11.6274 4.91248 11.6274 3.85352C11.6274 2.79492 11.2477 1.87817 10.4984 1.12878C9.74915 0.379761 8.8324 0 7.77368 0C6.71472 0 5.7981 0.379761 5.04895 1.12891C4.2998 1.87805 3.91992 2.7948 3.91992 3.85352C3.91992 4.91248 4.2998 5.82922 5.04895 6.57837C5.79834 7.32739 6.71509 7.70728 7.77368 7.70728ZM5.71204 1.79187C6.28687 1.21704 6.96118 0.937622 7.77368 0.937622C8.58606 0.937622 9.2605 1.21704 9.83545 1.79187C10.4103 2.36682 10.6898 3.04126 10.6898 3.85352C10.6898 4.66602 10.4103 5.34033 9.83545 5.91528C9.2605 6.49023 8.58606 6.76965 7.77368 6.76965C6.96143 6.76965 6.28711 6.49011 5.71204 5.91528C5.13708 5.34045 4.85754 4.66602 4.85754 3.85352C4.85754 3.04126 5.13708 2.36682 5.71204 1.79187Z" fill="#717171"/>
<path d="M14.5167 12.3031C14.4951 11.9913 14.4514 11.6512 14.3871 11.2921C14.3221 10.9303 14.2385 10.5883 14.1384 10.2756C14.0349 9.95251 13.8944 9.63342 13.7205 9.32764C13.5402 9.01025 13.3282 8.73389 13.0905 8.50647C12.8418 8.26855 12.5374 8.07727 12.1853 7.93774C11.8345 7.79895 11.4457 7.72864 11.0298 7.72864C10.8665 7.72864 10.7085 7.79565 10.4034 7.99426C10.2157 8.1167 9.99609 8.2583 9.75098 8.41492C9.54138 8.54846 9.25745 8.67358 8.90674 8.78687C8.56458 8.89758 8.21716 8.95374 7.87415 8.95374C7.53137 8.95374 7.18396 8.89758 6.84155 8.78687C6.49121 8.67371 6.20715 8.54858 5.99792 8.41504C5.75513 8.25989 5.5354 8.11829 5.34485 7.99414C5.04004 7.79553 4.88208 7.72852 4.71875 7.72852C4.30273 7.72852 3.91406 7.79895 3.56335 7.93787C3.21155 8.07715 2.90698 8.26843 2.65808 8.50659C2.42029 8.73413 2.20837 9.01038 2.0282 9.32764C1.85449 9.63342 1.71387 9.95239 1.61035 10.2758C1.51038 10.5884 1.42676 10.9303 1.36182 11.2921C1.29736 11.6508 1.25378 11.991 1.23218 12.3035C1.21094 12.609 1.2002 12.927 1.2002 13.2483C1.2002 14.0835 1.4657 14.7596 1.98926 15.2583C2.50635 15.7504 3.19043 15.9999 4.02258 15.9999H11.7267C12.5586 15.9999 13.2427 15.7504 13.7599 15.2583C14.2836 14.76 14.5491 14.0836 14.5491 13.2482C14.549 12.9258 14.5381 12.6078 14.5167 12.3031ZM13.1134 14.579C12.7717 14.9042 12.3181 15.0623 11.7266 15.0623H4.02258C3.43091 15.0623 2.97729 14.9042 2.63574 14.5791C2.30066 14.2601 2.13782 13.8247 2.13782 13.2483C2.13782 12.9485 2.14771 12.6525 2.16748 12.3683C2.18677 12.0895 2.2262 11.7832 2.28467 11.4578C2.34241 11.1364 2.41589 10.8347 2.5033 10.5616C2.58716 10.2998 2.70154 10.0405 2.84338 9.79077C2.97876 9.55273 3.13452 9.34851 3.3064 9.18396C3.46716 9.03003 3.6698 8.90405 3.90857 8.80957C4.12939 8.72217 4.37756 8.67432 4.64697 8.66711C4.67981 8.68457 4.73828 8.7179 4.83301 8.77966C5.02576 8.90527 5.24792 9.04858 5.49353 9.20544C5.77039 9.38196 6.12708 9.54138 6.55322 9.67896C6.98889 9.81982 7.43323 9.89136 7.87427 9.89136C8.31531 9.89136 8.75977 9.81982 9.19519 9.67908C9.6217 9.54126 9.97827 9.38196 10.2555 9.2052C10.5068 9.04456 10.7228 8.9054 10.9155 8.77966C11.0103 8.71802 11.0687 8.68457 11.1016 8.66711C11.3711 8.67432 11.6193 8.72217 11.8402 8.80957C12.0789 8.90405 12.2815 9.03015 12.4423 9.18396C12.6141 9.34839 12.7699 9.55261 12.9053 9.79089C13.0472 10.0405 13.1617 10.2999 13.2455 10.5615C13.333 10.835 13.4066 11.1365 13.4642 11.4576C13.5226 11.7837 13.5621 12.0901 13.5814 12.3684V12.3687C13.6013 12.6517 13.6113 12.9476 13.6115 13.2483C13.6113 13.8248 13.4485 14.2601 13.1134 14.579Z" fill="#717171"/>
</svg>
