<svg width="16" height="16" viewBox="0 0 16 16" fill="none" xmlns="http://www.w3.org/2000/svg">
<mask id="mask0_856_1985" style="mask-type:luminance" maskUnits="userSpaceOnUse" x="0" y="0" width="16" height="16">
<path d="M16 0H0V16H16V0Z" fill="white"/>
</mask>
<g mask="url(#mask0_856_1985)">
<path d="M10.1309 1.25391V2.31891C10.1309 3.31891 10.1309 3.82491 10.4429 4.13691C10.7549 4.44891 11.2569 4.44891 12.2609 4.44891H13.3259" stroke="#717171" stroke-width="0.9" stroke-linecap="round" stroke-linejoin="round"/>
<path d="M2.32031 10.8393V5.15927C2.32031 3.15127 2.32031 2.14727 2.94431 1.52327C3.56831 0.899271 4.57231 0.899271 6.58031 0.899271H9.54331C9.7337 0.881292 9.92576 0.899617 10.1093 0.953271C10.2751 1.04438 10.4223 1.16582 10.5433 1.31127L13.2613 4.02927C13.4086 4.15106 13.5314 4.29969 13.6233 4.46727C13.677 4.65082 13.6953 4.84289 13.6773 5.03327V10.8333C13.6773 12.8413 13.6773 13.8453 13.0533 14.4693C12.4293 15.0933 11.4253 15.0933 9.41731 15.0933H6.58031C4.57231 15.0933 3.56831 15.0933 2.94431 14.4693C2.32031 13.8453 2.32031 12.8483 2.32031 10.8393Z" stroke="#717171" stroke-width="0.9" stroke-linecap="round" stroke-linejoin="round"/>
<path d="M5.15918 7.28906H10.8392M5.15918 9.41906H10.8392M5.15918 11.5491H8.12118" stroke="#717171" stroke-width="0.9" stroke-linecap="round" stroke-linejoin="round"/>
</g>
</svg>
