<svg width="16" height="10" viewBox="0 0 16 10" fill="none" xmlns="http://www.w3.org/2000/svg">
<path d="M8.62432 9.14464L15.7444 2.02444C15.9092 1.85976 16 1.63992 16 1.40552C16 1.17111 15.9092 0.951277 15.7444 0.786595L15.2202 0.262242C14.8786 -0.0789586 14.3234 -0.0789586 13.9823 0.262242L8.00332 6.24125L2.01768 0.255608C1.85286 0.0909261 1.63316 0 1.39888 0C1.16435 0 0.944643 0.0909261 0.779701 0.255608L0.255608 0.779961C0.0907965 0.944773 9.53674e-07 1.16448 9.53674e-07 1.39888C9.53674e-07 1.63329 0.0907965 1.85312 0.255608 2.0178L7.38218 9.14464C7.54752 9.30971 7.76826 9.40038 8.00293 9.39986C8.2385 9.40038 8.45912 9.30971 8.62432 9.14464Z" fill="#262626"/>
</svg>
