<svg width="12" height="12" viewBox="0 0 12 12" fill="none" xmlns="http://www.w3.org/2000/svg">
<path d="M5.51022 0C3.6104 0 2.06062 1.55508 2.06062 3.45489C2.06062 4.61624 2.64174 5.64519 3.52611 6.27109C1.46334 7.09761 0 9.11449 0 11.4678C0.00315636 11.61 0.0618687 11.7453 0.163566 11.8448C0.265263 11.9443 0.401862 12 0.544114 12C0.686366 12 0.822965 11.9443 0.924662 11.8448C1.02636 11.7453 1.08507 11.61 1.08823 11.4678C1.08823 8.97029 3.10196 6.95761 5.59949 6.95761C6.4713 6.95761 7.28055 7.20615 7.96936 7.63246C8.03035 7.67034 8.09821 7.69578 8.16906 7.7074C8.23991 7.71901 8.31235 7.71654 8.38225 7.70012C8.45214 7.68369 8.5181 7.65364 8.57636 7.61169C8.63463 7.56973 8.68404 7.51675 8.72178 7.45567C8.75952 7.39459 8.78483 7.32666 8.79628 7.25578C8.80773 7.1849 8.80509 7.11244 8.7885 7.04259C8.77192 6.97273 8.74172 6.90683 8.69963 6.84866C8.65754 6.7905 8.60439 6.74122 8.54323 6.70362C8.23285 6.51155 7.89592 6.36118 7.54852 6.2318C8.40436 5.6027 8.96513 4.59306 8.96513 3.45489C8.96513 1.55508 7.41003 0 5.51022 0ZM5.51022 1.08925C6.82191 1.08925 7.8769 2.1432 7.8769 3.45489C7.8769 4.76659 6.82191 5.81627 5.51022 5.81627C4.19852 5.81627 3.14885 4.76659 3.14885 3.45489C3.14885 2.1432 4.19852 1.08925 5.51022 1.08925ZM11.0172 7.61972C10.9288 7.62227 10.8423 7.64631 10.7653 7.68982C10.6883 7.73334 10.623 7.79501 10.5752 7.86944L8.69945 10.6804L7.52301 9.89286C7.46336 9.85275 7.39637 9.82482 7.3259 9.81065C7.25543 9.79647 7.18285 9.79634 7.11233 9.81027C7.04181 9.8242 6.97473 9.85195 6.91494 9.89186C6.85515 9.93176 6.80382 9.98308 6.7639 10.0429C6.72397 10.1026 6.69624 10.1697 6.68229 10.2402C6.66834 10.3107 6.66844 10.3833 6.68258 10.4538C6.69673 10.5243 6.72465 10.5913 6.76474 10.6509C6.80483 10.7106 6.8563 10.7617 6.9162 10.8015L8.55173 11.8897C8.61131 11.9293 8.6781 11.9567 8.74827 11.9704C8.81844 11.9841 8.89063 11.9838 8.9607 11.9696C9.03078 11.9554 9.09736 11.9275 9.15665 11.8875C9.21595 11.8476 9.26679 11.7963 9.30626 11.7367L11.4838 8.47099C11.5406 8.38802 11.5733 8.29094 11.5782 8.19052C11.5832 8.0901 11.5602 7.99024 11.5119 7.90207C11.4636 7.81391 11.3918 7.74086 11.3045 7.69102C11.2172 7.64118 11.1177 7.61649 11.0172 7.61972Z" fill="white"/>
</svg>
