<svg width="4" height="14" viewBox="0 0 4 14" fill="none" xmlns="http://www.w3.org/2000/svg">
<path d="M1.9987 3.66536C2.91536 3.66536 3.66536 2.91536 3.66536 1.9987C3.66536 1.08203 2.91536 0.332031 1.9987 0.332031C1.08203 0.332031 0.332031 1.08203 0.332031 1.9987C0.332031 2.91536 1.08203 3.66536 1.9987 3.66536ZM1.9987 5.33203C1.08203 5.33203 0.332031 6.08203 0.332031 6.9987C0.332031 7.91536 1.08203 8.66536 1.9987 8.66536C2.91536 8.66536 3.66536 7.91536 3.66536 6.9987C3.66536 6.08203 2.91536 5.33203 1.9987 5.33203ZM1.9987 10.332C1.08203 10.332 0.332031 11.082 0.332031 11.9987C0.332031 12.9154 1.08203 13.6654 1.9987 13.6654C2.91536 13.6654 3.66536 12.9154 3.66536 11.9987C3.66536 11.082 2.91536 10.332 1.9987 10.332Z" fill="#373737"/>
</svg>
