<svg width="24" height="24" viewBox="0 0 24 24" fill="none" xmlns="http://www.w3.org/2000/svg">
<path d="M11.0204 0C7.2208 0 4.12124 3.11017 4.12124 6.90979C4.12124 9.23248 5.28347 11.2904 7.05223 12.5422C2.92669 14.1952 0 18.229 0 22.9356C0.00631272 23.22 0.123737 23.4907 0.327132 23.6896C0.530527 23.8885 0.803724 24 1.08823 24C1.37273 24 1.64593 23.8885 1.84932 23.6896C2.05272 23.4907 2.17014 23.22 2.17646 22.9356C2.17646 17.9406 6.20393 13.9152 11.199 13.9152C12.9426 13.9152 14.5611 14.4123 15.9387 15.2649C16.0607 15.3407 16.1964 15.3916 16.3381 15.4148C16.4798 15.438 16.6247 15.4331 16.7645 15.4002C16.9043 15.3674 17.0362 15.3073 17.1527 15.2234C17.2693 15.1395 17.3681 15.0335 17.4436 14.9113C17.519 14.7892 17.5697 14.6533 17.5926 14.5116C17.6155 14.3698 17.6102 14.2249 17.577 14.0852C17.5438 13.9455 17.4834 13.8137 17.3993 13.6973C17.3151 13.581 17.2088 13.4824 17.0865 13.4072C16.4657 13.0231 15.7918 12.7224 15.097 12.4636C16.8087 11.2054 17.9303 9.18612 17.9303 6.90979C17.9303 3.11017 14.8201 0 11.0204 0ZM11.0204 2.1785C13.6438 2.1785 15.7538 4.2864 15.7538 6.90979C15.7538 9.53318 13.6438 11.6325 11.0204 11.6325C8.39705 11.6325 6.29769 9.53318 6.29769 6.90979C6.2977 4.2864 8.39705 2.1785 11.0204 2.1785ZM22.0345 15.2394C21.8576 15.2445 21.6846 15.2926 21.5306 15.3796C21.3765 15.4667 21.246 15.59 21.1503 15.7389L17.3989 21.3607L15.046 19.7857C14.9267 19.7055 14.7927 19.6496 14.6518 19.6213C14.5109 19.5929 14.3657 19.5927 14.2247 19.6205C14.0836 19.6484 13.9495 19.7039 13.8299 19.7837C13.7103 19.8635 13.6076 19.9662 13.5278 20.0857C13.4479 20.2053 13.3925 20.3393 13.3646 20.4803C13.3367 20.6214 13.3369 20.7666 13.3652 20.9076C13.3935 21.0486 13.4493 21.1825 13.5295 21.3019C13.6097 21.4212 13.7126 21.5235 13.8324 21.603L17.1035 23.7795C17.2226 23.8585 17.3562 23.9134 17.4965 23.9408C17.6369 23.9682 17.7813 23.9675 17.9214 23.9391C18.0616 23.9107 18.1947 23.855 18.3133 23.7751C18.4319 23.6952 18.5336 23.5927 18.6125 23.4735L22.9676 16.942C23.0811 16.776 23.1465 16.5819 23.1565 16.381C23.1664 16.1802 23.1205 15.9805 23.0238 15.8041C22.9272 15.6278 22.7836 15.4817 22.609 15.382C22.4343 15.2824 22.2355 15.233 22.0345 15.2394Z" fill="#717171"/>
</svg>
