<svg width="32" height="32" viewBox="0 0 32 32" fill="none" xmlns="http://www.w3.org/2000/svg">
<path d="M0.600098 27.3828C0.73357 28.6553 1.66788 29.6599 2.73566 29.6599H29.4969C30.5646 29.6599 31.4322 28.6553 31.6324 27.3828H0.600098Z" fill="#B1D7FE"/>
<path d="M29.4971 29.9936H2.73584C1.53459 29.9936 0.400074 28.8551 0.266602 27.4487C0.266602 27.3817 0.266602 27.2478 0.333338 27.1808C0.400074 27.1138 0.46681 27.0469 0.600282 27.0469H31.6326C31.6993 27.0469 31.8328 27.1138 31.8996 27.1808C31.9663 27.2478 31.9663 27.3817 31.9663 27.4487C31.6993 28.9221 30.6983 29.9936 29.4971 29.9936ZM1.0007 27.7166C1.20091 28.6542 1.93501 29.3239 2.73584 29.3239H29.4971C30.2311 29.3239 30.9652 28.6542 31.2322 27.7166H1.0007Z" fill="black"/>
<path d="M27.3616 10.3828H4.93824C4.20414 10.3828 3.60352 10.9856 3.60352 11.7223V27.4607H28.6296V11.6553C28.6296 10.9186 28.029 10.3828 27.3616 10.3828Z" fill="white"/>
<path d="M28.6298 27.7944H3.6037C3.40349 27.7944 3.27002 27.6605 3.27002 27.4596V11.7212C3.27002 10.7836 4.00412 10.0469 4.93842 10.0469H27.3618C28.2293 10.0469 28.9634 10.7836 28.9634 11.6542V27.4596C28.9634 27.6605 28.83 27.7944 28.6298 27.7944ZM3.93738 27.1247H28.2961V11.6542C28.2961 11.0515 27.8289 10.7166 27.3618 10.7166H4.93842C4.40453 10.7166 3.93738 11.1854 3.93738 11.7212V27.1247Z" fill="black"/>
<path d="M23.9582 28.865H23.758C23.5578 28.865 23.4243 28.7311 23.4243 28.5302C23.4243 28.3293 23.5578 28.1953 23.758 28.1953H23.9582C24.1584 28.1953 24.2919 28.3293 24.2919 28.5302C24.2919 28.7311 24.1584 28.865 23.9582 28.865Z" fill="black"/>
<path d="M27.028 28.865H26.8278C26.6276 28.865 26.4941 28.7311 26.4941 28.5302C26.4941 28.3293 26.6276 28.1953 26.8278 28.1953H27.028C27.2282 28.1953 27.3617 28.3293 27.3617 28.5302C27.3617 28.7311 27.2282 28.865 27.028 28.865Z" fill="black"/>
<path d="M25.5596 28.865H25.2927C25.0925 28.865 24.959 28.7311 24.959 28.5302C24.959 28.3293 25.0925 28.1953 25.2927 28.1953H25.5596C25.7598 28.1953 25.8933 28.3293 25.8933 28.5302C25.8933 28.7311 25.7598 28.865 25.5596 28.865Z" fill="black"/>
<path d="M7.40783 3.14418V27.388H24.9595V3.14418C24.9595 2.1396 24.1586 1.33594 23.1576 1.33594H5.60596C6.607 1.40291 7.40783 2.20657 7.40783 3.14418Z" fill="#F4F4F4"/>
<path d="M24.9591 27.7218H7.40753C7.20732 27.7218 7.07385 27.5879 7.07385 27.3869V3.1431C7.07385 2.40641 6.40649 1.73669 5.60565 1.66972C5.40545 1.66972 5.27197 1.53578 5.27197 1.33486C5.27197 1.13394 5.40545 1 5.60565 1H23.1573C24.3585 1 25.2928 1.93761 25.2928 3.1431V27.3869C25.2928 27.5879 25.1594 27.7218 24.9591 27.7218ZM7.74121 27.0521H24.6255V3.1431C24.6255 2.33944 23.9581 1.66972 23.1573 1.66972H7.14059C7.541 2.07155 7.74121 2.60733 7.74121 3.1431V27.0521Z" fill="black"/>
<path d="M7.40725 3.13971V8.1626H2.06836C3.0694 8.1626 3.8035 7.35894 3.8035 6.42133V4.41217V3.13971C3.8035 2.13513 4.60433 1.39844 5.53864 1.39844C6.60642 1.39844 7.40725 2.2021 7.40725 3.13971Z" fill="#8BC6F8"/>
<path d="M7.40744 8.49639H2.06854C1.86834 8.49639 1.73486 8.36244 1.73486 8.16153C1.73486 7.96061 1.86834 7.82667 2.06854 7.82667C2.86938 7.82667 3.47 7.22392 3.47 6.42026V3.13863C3.47 2.00011 4.40431 1.0625 5.53883 1.0625C6.74008 1.0625 7.74112 2.00011 7.74112 3.13863V8.16153C7.74112 8.36244 7.60765 8.49639 7.40744 8.49639ZM3.60348 7.82667H7.07376V3.13863C7.07376 2.33497 6.4064 1.73222 5.53883 1.73222C4.73799 1.73222 4.13737 2.33497 4.13737 3.13863V6.42026C4.13737 6.95603 3.93716 7.49181 3.60348 7.82667Z" fill="black"/>
<path d="M3.87051 6.43664V4.22656H0.333496V6.36966C0.333496 7.37424 1.13433 8.11093 2.06864 8.11093C3.06968 8.17791 3.87051 7.37424 3.87051 6.43664Z" fill="#E7F3FF"/>
<path d="M2.20229 8.44472C2.13556 8.44472 2.13556 8.44472 2.06882 8.44472C0.934306 8.44472 0 7.50711 0 6.36859V4.22549C0 4.02457 0.133472 3.89062 0.333681 3.89062H3.8707C4.07091 3.89062 4.20438 4.02457 4.20438 4.22549V6.43556C4.20438 6.97133 4.00417 7.44014 3.60375 7.84197C3.27007 8.2438 2.73618 8.44472 2.20229 8.44472ZM0.667362 4.56034V6.36859C0.667362 7.17225 1.26799 7.775 2.06882 7.775H2.20229C2.53597 7.775 2.93639 7.64105 3.1366 7.37317C3.40355 7.10528 3.53702 6.77042 3.53702 6.43556V4.56034H0.667362Z" fill="black"/>
<path d="M9.47656 3.67969H14.9489V9.43927H9.47656V3.67969Z" fill="#FF6677"/>
<path d="M14.9491 9.77306H9.47675C9.27654 9.77306 9.14307 9.63911 9.14307 9.4382V3.67861C9.14307 3.47769 9.27654 3.34375 9.47675 3.34375H14.9491C15.1493 3.34375 15.2828 3.47769 15.2828 3.67861V9.4382C15.2828 9.63911 15.1493 9.77306 14.9491 9.77306ZM9.81043 9.10334H14.6154V4.01347H9.81043V9.10334Z" fill="black"/>
<path d="M22.8235 4.07597H16.884C16.6838 4.07597 16.5503 3.94203 16.5503 3.74111C16.5503 3.54019 16.6838 3.40625 16.884 3.40625H22.8235C23.0237 3.40625 23.1572 3.54019 23.1572 3.74111C23.1572 3.94203 23.0237 4.07597 22.8235 4.07597Z" fill="black"/>
<path d="M22.8235 5.95097H16.884C16.6838 5.95097 16.5503 5.81703 16.5503 5.61611C16.5503 5.41519 16.6838 5.28125 16.884 5.28125H22.8235C23.0237 5.28125 23.1572 5.41519 23.1572 5.61611C23.1572 5.81703 23.0237 5.95097 22.8235 5.95097Z" fill="black"/>
<path d="M22.8235 7.83378H16.884C16.6838 7.83378 16.5503 7.69984 16.5503 7.49892C16.5503 7.29801 16.6838 7.16406 16.884 7.16406H22.8235C23.0237 7.16406 23.1572 7.29801 23.1572 7.49892C23.1572 7.69984 23.0237 7.83378 22.8235 7.83378Z" fill="black"/>
<path d="M22.8235 9.70097H16.884C16.6838 9.70097 16.5503 9.56703 16.5503 9.36611C16.5503 9.16519 16.6838 9.03125 16.884 9.03125H22.8235C23.0237 9.03125 23.1572 9.16519 23.1572 9.36611C23.1572 9.56703 23.0237 9.70097 22.8235 9.70097Z" fill="black"/>
<path d="M22.8234 11.6463H16.0163C15.8161 11.6463 15.6826 11.5123 15.6826 11.3114C15.6826 11.1105 15.8161 10.9766 16.0163 10.9766H22.8234C23.0236 10.9766 23.1571 11.1105 23.1571 11.3114C23.1571 11.5123 23.0236 11.6463 22.8234 11.6463Z" fill="black"/>
<path d="M22.8234 13.5213H16.0163C15.8161 13.5213 15.6826 13.3873 15.6826 13.1864C15.6826 12.9855 15.8161 12.8516 16.0163 12.8516H22.8234C23.0236 12.8516 23.1571 12.9855 23.1571 13.1864C23.1571 13.3873 23.0236 13.5213 22.8234 13.5213Z" fill="black"/>
<path d="M16.0164 11.6463H9.47626C9.27605 11.6463 9.14258 11.5123 9.14258 11.3114C9.14258 11.1105 9.27605 10.9766 9.47626 10.9766H16.0164C16.2166 10.9766 16.3501 11.1105 16.3501 11.3114C16.3501 11.5123 16.2166 11.6463 16.0164 11.6463Z" fill="black"/>
<path d="M16.0164 13.5213H9.47626C9.27605 13.5213 9.14258 13.3873 9.14258 13.1864C9.14258 12.9855 9.27605 12.8516 9.47626 12.8516H16.0164C16.2166 12.8516 16.3501 12.9855 16.3501 13.1864C16.3501 13.3873 16.2166 13.5213 16.0164 13.5213Z" fill="black"/>
<path d="M23.2911 24.3671L22.6904 23.0277L29.2306 7.75806C29.4308 7.22228 30.0981 6.95439 30.632 7.22228C31.1659 7.4232 31.4329 8.09292 31.1659 8.62869L24.6258 23.8983L23.2911 24.3671Z" fill="#FFAF5D"/>
<path d="M23.291 24.7048C23.1575 24.7048 23.0241 24.6378 22.9573 24.5039L22.3567 23.1644C22.29 23.0974 22.29 22.9635 22.3567 22.8965L28.8968 7.62692C29.1638 6.9572 30.0981 6.55537 30.7655 6.9572C31.0991 7.09114 31.3661 7.35903 31.4995 7.69389C31.633 8.02875 31.633 8.43058 31.4328 8.83241L24.8927 24.102C24.8259 24.169 24.7592 24.236 24.6925 24.3029L23.3577 24.7717C23.3577 24.7048 23.3577 24.7048 23.291 24.7048ZM23.0241 23.0305L23.4245 23.9681L24.3588 23.6332L30.8322 8.49755C30.8989 8.29664 30.8989 8.09572 30.8322 7.89481C30.7655 7.69389 30.632 7.55995 30.4318 7.49297C30.2983 7.426 30.2316 7.426 30.0981 7.426C29.8311 7.426 29.5642 7.62692 29.4307 7.82783L23.0241 23.0305Z" fill="black"/>
<path d="M25.4933 21.8896L24.6258 23.8318L23.2243 24.3676L22.6904 22.9612L23.558 21.0859L25.4933 21.8896Z" fill="#FF6677"/>
<path d="M23.2245 24.7035C23.1578 24.7035 23.1578 24.7035 23.091 24.7035C23.0243 24.6366 22.9576 24.5696 22.8908 24.5026L22.3569 23.0962C22.3569 23.0292 22.3569 22.8953 22.3569 22.8283L23.2245 20.9531C23.2912 20.8192 23.4914 20.6852 23.6249 20.7522L25.5603 21.5559L25.7605 21.7568V22.0247L24.8929 23.9668C24.8262 24.0338 24.7594 24.1008 24.6927 24.1678L23.358 24.7035C23.2912 24.7035 23.2912 24.7035 23.2245 24.7035ZM23.0243 22.9623L23.358 23.8999L24.2923 23.565L24.9596 22.0916L23.6249 21.5559L23.0243 22.9623Z" fill="black"/>
<path d="M31.2326 8.15989C31.2326 8.29383 31.2326 8.42778 31.1659 8.56172L30.5652 9.90116L28.6299 9.0975L29.2305 7.75806C29.4975 7.22228 30.0981 6.95439 30.632 7.22228C31.0324 7.35623 31.2326 7.75806 31.2326 8.15989Z" fill="#FF6677"/>
<path d="M30.5654 10.2367C30.4987 10.2367 30.4987 10.2367 30.4319 10.2367L28.4966 9.433C28.4299 9.36603 28.3631 9.29906 28.2964 9.23208C28.2964 9.16511 28.2964 9.03117 28.2964 8.9642L28.897 7.62476C29.2307 6.88807 30.0983 6.62018 30.7656 6.95504C31.2328 7.08898 31.5665 7.62476 31.5665 8.16053C31.5665 8.29448 31.5665 8.49539 31.433 8.69631L30.8324 10.0357C30.8324 10.1697 30.6989 10.2367 30.5654 10.2367ZM29.0972 8.89722L30.4319 9.433L30.8991 8.36145C30.9658 8.29448 30.9658 8.2275 30.9658 8.09356C30.9658 7.89264 30.8991 7.55779 30.5654 7.49081C30.4319 7.42384 30.3652 7.42384 30.2317 7.42384C29.9648 7.42384 29.6978 7.62476 29.5644 7.89265L29.0972 8.89722Z" fill="black"/>
<path d="M22.824 25.7898C22.7573 25.7898 22.7573 25.7898 22.6906 25.7898C22.4904 25.7228 22.4236 25.5219 22.4904 25.321L22.9575 24.2495C23.0242 24.0486 23.2245 23.9816 23.4247 24.0486C23.6249 24.1155 23.6916 24.3164 23.6249 24.5174L23.1577 25.5889C23.091 25.7229 22.9575 25.7898 22.824 25.7898Z" fill="black"/>
<path d="M30.1646 17.5451C30.0979 17.5451 30.0979 17.5451 30.0312 17.5451C29.3638 17.2772 29.0969 16.6075 29.3638 15.9378L31.2324 11.5176C31.2991 11.3167 31.3659 11.0488 31.2324 10.8479C31.1657 10.647 30.9655 10.513 30.7653 10.3791L30.4316 10.1782L28.4962 9.37452C28.296 9.30755 28.2293 9.10663 28.296 8.90572C28.3628 8.7048 28.563 8.63783 28.7632 8.7048L31.0989 9.70938C31.4326 9.84332 31.7663 10.1782 31.8998 10.513C32.0332 10.9149 32.0332 11.3167 31.8998 11.6516L30.0312 16.2057C29.9644 16.3396 29.9644 16.4735 30.0312 16.6075C30.0979 16.7414 30.1646 16.8084 30.3648 16.8754C30.5651 16.9424 30.6318 17.1433 30.5651 17.3442C30.4316 17.4781 30.2981 17.5451 30.1646 17.5451Z" fill="black"/>
<path d="M25.4933 22.2251C25.4265 22.2251 25.4265 22.2251 25.3598 22.2251L23.4245 21.4214C23.2242 21.3544 23.1575 21.1535 23.2242 20.9526C23.291 20.7517 23.4912 20.6847 23.6914 20.7517L25.6267 21.5553C25.827 21.6223 25.8937 21.8232 25.827 22.0241C25.7602 22.1581 25.6267 22.2251 25.4933 22.2251Z" fill="black"/>
<path d="M25.4933 22.2251C25.4265 22.2251 25.4265 22.2251 25.3598 22.2251L23.4245 21.4214C23.2242 21.3544 23.1575 21.1535 23.2242 20.9526C23.291 20.7517 23.4912 20.6847 23.6914 20.7517L25.6267 21.5553C25.827 21.6223 25.8937 21.8232 25.827 22.0241C25.7602 22.1581 25.6267 22.2251 25.4933 22.2251Z" fill="black"/>
<path d="M19.7543 20.3599C19.7543 19.8911 20.088 19.4893 20.5552 19.2884C20.4217 18.7526 20.2215 18.2838 19.9545 17.8819C19.4206 18.0829 18.9535 18.0159 18.6198 17.681C18.2861 17.3462 18.2194 16.8104 18.4196 16.2746C17.9524 16.0067 17.4853 15.8058 16.9514 15.6719C16.7512 16.2077 16.284 16.5425 15.8169 16.5425C15.3497 16.5425 14.9493 16.2077 14.6824 15.6719C14.1485 15.8058 13.6813 16.0067 13.2142 16.2746C13.4144 16.8104 13.3476 17.3462 13.014 17.681C12.6803 18.0159 12.1464 18.0829 11.6792 17.8819C11.4123 18.3508 11.2121 18.8196 11.0786 19.2884C11.5458 19.4893 11.8794 19.8911 11.8794 20.3599C11.8794 20.8287 11.5458 21.2305 11.0786 21.4315C11.2121 21.9672 11.4123 22.436 11.6792 22.8379C12.2131 22.637 12.747 22.7039 13.014 23.0388C13.3476 23.3736 13.4144 23.9094 13.2142 24.3782C13.6813 24.6461 14.1485 24.847 14.6824 24.981C14.8826 24.4452 15.3497 24.1103 15.8169 24.1103C16.284 24.1103 16.6845 24.4452 16.9514 24.981C17.4853 24.847 17.9524 24.6461 18.4196 24.3782C18.2194 23.8425 18.2861 23.3067 18.6198 23.0388C18.9535 22.7039 19.4874 22.637 19.9545 22.8379C20.2215 22.3691 20.4217 21.9003 20.5552 21.4315C20.088 21.2305 19.7543 20.8287 19.7543 20.3599Z" fill="#FFE177"/>
<path d="M14.6822 25.3203H14.6155C14.0816 25.1863 13.6145 24.9854 13.0806 24.6506C12.9471 24.5836 12.8804 24.3827 12.9471 24.2487C13.0806 23.9139 13.0138 23.512 12.8136 23.3111C12.6134 23.0432 12.213 23.0432 11.8126 23.1772C11.6791 23.2442 11.4789 23.1772 11.4122 23.0432C11.1452 22.6414 10.8783 22.1056 10.7448 21.5029C10.6781 21.3689 10.8115 21.168 10.945 21.1011C11.3454 20.9671 11.5456 20.6323 11.5456 20.3644C11.5456 20.0965 11.3454 19.7616 10.945 19.6277C10.8115 19.5607 10.6781 19.3598 10.7448 19.2258C10.8783 18.757 11.0785 18.2213 11.3454 17.7525C11.4122 17.6185 11.6124 17.5515 11.7458 17.6185C12.0795 17.7525 12.4799 17.6855 12.6802 17.4846C12.9471 17.2167 12.9471 16.8818 12.8136 16.413C12.7469 16.2791 12.8136 16.0782 12.9471 16.0112C13.481 15.7433 13.9481 15.5424 14.482 15.4084C14.6155 15.3415 14.8157 15.4754 14.8824 15.6094C15.0159 15.8772 15.2829 16.2791 15.75 16.2791C16.0837 16.2791 16.4174 16.0112 16.5508 15.6094C16.6176 15.4754 16.7511 15.3415 16.9513 15.4084C17.4852 15.5424 17.9523 15.7433 18.4862 16.0112C18.6197 16.0782 18.6864 16.2791 18.6197 16.413C18.4862 16.8148 18.4862 17.2167 18.7531 17.4846C19.0201 17.7525 19.3538 17.7525 19.7542 17.6185C19.8877 17.5515 20.0879 17.6185 20.1546 17.7525C20.4215 18.1543 20.6885 18.6901 20.822 19.2928C20.8887 19.4268 20.7552 19.6277 20.6218 19.6946C20.2213 19.8286 20.0211 20.1634 20.0211 20.4313C20.0211 20.6992 20.2213 21.0341 20.6218 21.168C20.7552 21.235 20.8887 21.4359 20.822 21.5699C20.6885 22.0387 20.4883 22.5744 20.2213 23.0432C20.1546 23.1772 19.9544 23.2442 19.8209 23.1772C19.4872 23.0432 19.0868 23.1102 18.8866 23.3111C18.6197 23.512 18.6197 23.9139 18.7531 24.3157C18.8199 24.4497 18.7531 24.6506 18.6197 24.7175C18.0858 24.9854 17.6186 25.2533 17.0847 25.3873C16.9513 25.4542 16.7511 25.3203 16.6843 25.1863C16.5508 24.9185 16.2839 24.5166 15.8168 24.5166C15.4831 24.5166 15.1494 24.7845 15.0159 25.1863C14.9492 25.2533 14.8157 25.3203 14.6822 25.3203ZM15.8168 23.7799C16.3506 23.7799 16.7511 24.0478 17.0847 24.5836C17.4184 24.5166 17.6854 24.3827 18.019 24.1818C17.8856 23.579 18.019 23.0432 18.4195 22.7754C18.7531 22.4405 19.287 22.3065 19.8209 22.4405C19.9544 22.1726 20.0879 21.9047 20.1546 21.5699C19.6875 21.302 19.4205 20.8332 19.4205 20.3644C19.4205 19.8956 19.6875 19.4268 20.1546 19.0919C20.0879 18.757 19.9544 18.4891 19.8209 18.2213C19.287 18.3552 18.7531 18.2213 18.4195 17.8864C18.019 17.5515 17.8856 17.0158 18.019 16.413C17.7521 16.2791 17.4184 16.1451 17.1515 16.0112C16.8845 16.48 16.3506 16.8148 15.8168 16.8148C15.2829 16.8148 14.8824 16.547 14.5488 16.0112C14.2151 16.0782 13.9481 16.2121 13.6145 16.413C13.7479 17.0158 13.6145 17.5515 13.2808 17.8864C12.9471 18.2213 12.4132 18.3552 11.8793 18.2213C11.7458 18.4891 11.6124 18.757 11.5456 19.0919C12.0128 19.3598 12.2797 19.8286 12.2797 20.2974C12.2797 20.7662 12.0128 21.235 11.5456 21.5699C11.6124 21.9047 11.7458 22.1726 11.8793 22.4405C12.4799 22.3065 13.0138 22.4405 13.3475 22.8423C13.6812 23.1772 13.8147 23.713 13.6812 24.2487C13.9481 24.3827 14.2818 24.5166 14.5488 24.5836C14.8157 24.1148 15.2829 23.7799 15.8168 23.7799Z" fill="black"/>
<path d="M15.8831 22.4893C17.0626 22.4893 18.0187 21.5298 18.0187 20.3462C18.0187 19.1626 17.0626 18.2031 15.8831 18.2031C14.7037 18.2031 13.7476 19.1626 13.7476 20.3462C13.7476 21.5298 14.7037 22.4893 15.8831 22.4893Z" fill="white"/>
<path d="M15.8833 22.8231C14.5486 22.8231 13.4141 21.6846 13.4141 20.3452C13.4141 19.0057 14.5486 17.8672 15.8833 17.8672C17.218 17.8672 18.3525 19.0057 18.3525 20.3452C18.3525 21.6846 17.218 22.8231 15.8833 22.8231ZM15.8833 18.5369C14.8823 18.5369 14.0814 19.3406 14.0814 20.3452C14.0814 21.3497 14.8823 22.1534 15.8833 22.1534C16.8843 22.1534 17.6852 21.3497 17.6852 20.3452C17.6852 19.3406 16.8843 18.5369 15.8833 18.5369Z" fill="black"/>
<g opacity="0.2">
<path d="M4.73866 29.0603H4.20477C4.00457 29.0603 3.87109 28.9264 3.87109 28.7255C3.87109 28.5246 4.00457 28.3906 4.20477 28.3906H4.73866C4.93887 28.3906 5.07235 28.5246 5.07235 28.7255C5.07235 28.9264 4.93887 29.0603 4.73866 29.0603Z" fill="white"/>
<path d="M8.27572 29.0603H6.07343C5.87322 29.0603 5.73975 28.9264 5.73975 28.7255C5.73975 28.5246 5.87322 28.3906 6.07343 28.3906H8.27572C8.47593 28.3906 8.6094 28.5246 8.6094 28.7255C8.6094 28.9264 8.47593 29.0603 8.27572 29.0603Z" fill="white"/>
</g>
</svg>
