<svg width="16" height="18" viewBox="0 0 16 18" fill="none" xmlns="http://www.w3.org/2000/svg">
<path d="M2 9V11.0354C2 13.6314 2 14.9294 2.70886 15.8086C2.85206 15.9862 3.01385 16.1479 3.19146 16.2911C4.07065 17 5.36866 17 7.96464 17C8.52912 17 8.81128 17 9.06976 16.9088C9.12352 16.8898 9.17616 16.868 9.2276 16.8434C9.47488 16.7251 9.6744 16.5256 10.0735 16.1265L13.8627 12.3373C14.3252 11.8748 14.5564 11.6436 14.6782 11.3495C14.8 11.0555 14.8 10.7285 14.8 10.0745V7.4C14.8 4.38301 14.8 2.87452 13.8627 1.93726C12.9255 1 11.417 1 8.4 1M9.2 16.6V16.2C9.2 13.9373 9.2 12.8059 9.90296 12.103C10.6059 11.4 11.7373 11.4 14 11.4H14.4" stroke="#717171" stroke-width="1.1" stroke-linecap="round" stroke-linejoin="round"/>
<path d="M6.8 3.4C6.32813 2.91453 5.07222 1 4.4 1C3.72778 1 2.47187 2.91453 2 3.4M4.4 1.8V7.4" stroke="#717171" stroke-width="1.1" stroke-linecap="round" stroke-linejoin="round"/>
</svg>
