<svg width="24" height="24" viewBox="0 0 24 24" fill="none" xmlns="http://www.w3.org/2000/svg">
<path d="M12 19C11.8187 19 11.6448 18.928 11.5166 18.7998C11.3884 18.6716 11.3164 18.4977 11.3164 18.3164V5.68359C11.3164 5.50229 11.3884 5.32842 11.5166 5.20022C11.6448 5.07202 11.8187 5 12 5C12.1813 5 12.3552 5.07202 12.4834 5.20022C12.6116 5.32842 12.6836 5.50229 12.6836 5.68359V18.3164C12.6836 18.4977 12.6116 18.6716 12.4834 18.7998C12.3552 18.928 12.1813 19 12 19Z" fill="#717171"/>
<path d="M18.3164 12.6836H5.68359C5.50229 12.6836 5.32842 12.6116 5.20022 12.4834C5.07202 12.3552 5 12.1813 5 12C5 11.8187 5.07202 11.6448 5.20022 11.5166C5.32842 11.3884 5.50229 11.3164 5.68359 11.3164H18.3164C18.4977 11.3164 18.6716 11.3884 18.7998 11.5166C18.928 11.6448 19 11.8187 19 12C19 12.1813 18.928 12.3552 18.7998 12.4834C18.6716 12.6116 18.4977 12.6836 18.3164 12.6836Z" fill="#717171"/>
</svg>
