<svg width="18" height="17" viewBox="0 0 18 17" fill="none" xmlns="http://www.w3.org/2000/svg">
<path d="M13.8 9.68359V15.9995M17 12.8416H10.6" stroke="#AAAAAA" stroke-linecap="round"/>
<path d="M5 4.15798H12.8C14.4854 4.15798 15.328 4.15798 15.9334 4.55714C16.1954 4.72994 16.4204 4.95199 16.5955 5.2106C16.967 5.75922 16.997 6.67185 16.9995 8.10545M9 4.15798L8.49328 3.15779C8.07344 2.32918 7.68976 1.49511 6.75941 1.1508C6.35192 1 5.88642 1 4.95542 1C3.50224 1 2.77565 1 2.23045 1.30026C1.84182 1.51429 1.52114 1.83076 1.30426 2.21429C1 2.75233 1 3.46938 1 4.90347V7.31595C1 11.0376 1 12.8985 2.17158 14.0547C3.2572 15.1261 4.95594 15.2047 8.2 15.2104" stroke="#AAAAAA" stroke-linecap="round"/>
</svg>
