<svg width="18" height="18" viewBox="0 0 18 18" fill="none" xmlns="http://www.w3.org/2000/svg">
<path d="M9 17.0031L7.4 12.2031H1L2.6 17.0031H9ZM9 17.0031H12.2" stroke="#717171" stroke-width="1.1" stroke-linecap="round" stroke-linejoin="round"/>
<path d="M9.0001 9.80312V9.40312C9.0001 7.89464 9.0001 7.14038 8.53146 6.67176C8.06282 6.20312 7.30859 6.20312 5.8001 6.20312C4.2916 6.20312 3.53735 6.20312 3.06873 6.67176C2.6001 7.14038 2.6001 7.89464 2.6001 9.40312V9.80312" stroke="#717171" stroke-width="1.1" stroke-linecap="round" stroke-linejoin="round"/>
<path d="M14.5999 9.80313C14.5999 10.6868 13.8836 11.4031 12.9999 11.4031C12.1162 11.4031 11.3999 10.6868 11.3999 9.80313C11.3999 8.91945 12.1162 8.20312 12.9999 8.20312C13.8836 8.20312 14.5999 8.91945 14.5999 9.80313Z" stroke="#717171" stroke-width="1.1"/>
<path d="M7.4002 2.6C7.4002 3.48366 6.68385 4.2 5.8002 4.2C4.91654 4.2 4.2002 3.48366 4.2002 2.6C4.2002 1.71634 4.91654 1 5.8002 1C6.68385 1 7.4002 1.71634 7.4002 2.6Z" stroke="#717171" stroke-width="1.1"/>
<path d="M10.6001 13.3984H15.4001C16.2838 13.3984 17.0001 14.1148 17.0001 14.9984V15.3984C17.0001 16.2821 16.2838 16.9984 15.4001 16.9984H14.6001" stroke="#717171" stroke-width="1.1" stroke-linecap="round"/>
</svg>
