<svg width="10" height="10" viewBox="0 0 10 10" fill="none" xmlns="http://www.w3.org/2000/svg">
<path d="M5 10C4.8705 10 4.7463 9.94856 4.65473 9.85699C4.56316 9.76542 4.51172 9.64122 4.51172 9.51172V0.488281C4.51172 0.358781 4.56316 0.234585 4.65473 0.143014C4.7463 0.0514438 4.8705 0 5 0C5.1295 0 5.2537 0.0514438 5.34527 0.143014C5.43684 0.234585 5.48828 0.358781 5.48828 0.488281V9.51172C5.48828 9.64122 5.43684 9.76542 5.34527 9.85699C5.2537 9.94856 5.1295 10 5 10Z" fill="#252525"/>
<path d="M9.51172 5.48828H0.488281C0.358781 5.48828 0.234585 5.43684 0.143014 5.34527C0.0514438 5.2537 0 5.1295 0 5C0 4.8705 0.0514438 4.7463 0.143014 4.65473C0.234585 4.56316 0.358781 4.51172 0.488281 4.51172H9.51172C9.64122 4.51172 9.76542 4.56316 9.85699 4.65473C9.94856 4.7463 10 4.8705 10 5C10 5.1295 9.94856 5.2537 9.85699 5.34527C9.76542 5.43684 9.64122 5.48828 9.51172 5.48828Z" fill="#252525"/>
</svg>
