<svg width="10" height="16" viewBox="0 0 10 16" fill="none" xmlns="http://www.w3.org/2000/svg">
<g id="Group 1982">
<path id="Vector" d="M1.66667 3.2C2.58714 3.2 3.33333 2.48366 3.33333 1.6C3.33333 0.716344 2.58714 0 1.66667 0C0.746192 0 0 0.716344 0 1.6C0 2.48366 0.746192 3.2 1.66667 3.2Z" fill="#818181"/>
<path id="Vector_2" d="M1.66667 9.60039C2.58714 9.60039 3.33333 8.88405 3.33333 8.00039C3.33333 7.11673 2.58714 6.40039 1.66667 6.40039C0.746192 6.40039 0 7.11673 0 8.00039C0 8.88405 0.746192 9.60039 1.66667 9.60039Z" fill="#818181"/>
<path id="Vector_3" d="M1.66667 15.9998C2.58714 15.9998 3.33333 15.2835 3.33333 14.3998C3.33333 13.5161 2.58714 12.7998 1.66667 12.7998C0.746192 12.7998 0 13.5161 0 14.3998C0 15.2835 0.746192 15.9998 1.66667 15.9998Z" fill="#818181"/>
<path id="Vector_4" d="M8.33317 3.2C9.25364 3.2 9.99984 2.48366 9.99984 1.6C9.99984 0.716344 9.25364 0 8.33317 0C7.4127 0 6.6665 0.716344 6.6665 1.6C6.6665 2.48366 7.4127 3.2 8.33317 3.2Z" fill="#818181"/>
<path id="Vector_5" d="M8.33317 9.60039C9.25364 9.60039 9.99984 8.88405 9.99984 8.00039C9.99984 7.11673 9.25364 6.40039 8.33317 6.40039C7.4127 6.40039 6.6665 7.11673 6.6665 8.00039C6.6665 8.88405 7.4127 9.60039 8.33317 9.60039Z" fill="#818181"/>
<path id="Vector_6" d="M8.33317 15.9998C9.25364 15.9998 9.99984 15.2835 9.99984 14.3998C9.99984 13.5161 9.25364 12.7998 8.33317 12.7998C7.4127 12.7998 6.6665 13.5161 6.6665 14.3998C6.6665 15.2835 7.4127 15.9998 8.33317 15.9998Z" fill="#818181"/>
</g>
</svg>
