<svg width="14" height="14" viewBox="0 0 14 14" fill="none" xmlns="http://www.w3.org/2000/svg">
<g id="02 User">
<path id="Vector" d="M0.683717 14C0.548497 14 0.416308 13.9599 0.303869 13.8848C0.191429 13.8097 0.103792 13.703 0.0520426 13.578C0.000292827 13.4531 -0.0132447 13.3156 0.0131423 13.183C0.0395293 13.0504 0.104655 12.9286 0.200283 12.833L12.833 0.200245C12.9612 0.0720303 13.1351 0 13.3164 0C13.4978 0 13.6717 0.0720303 13.7999 0.200245C13.9281 0.32846 14.0001 0.502356 14.0001 0.68368C14.0001 0.865003 13.9281 1.0389 13.7999 1.16711L1.16715 13.7998C1.10372 13.8634 1.02837 13.9138 0.945403 13.9482C0.86244 13.9825 0.773509 14.0001 0.683717 14Z" fill="#B6B6B7"/>
<path id="Vector_2" d="M13.3164 14C13.2266 14.0001 13.1377 13.9825 13.0547 13.9482C12.9718 13.9138 12.8964 13.8634 12.833 13.7998L0.200245 1.16711C0.0720303 1.0389 0 0.865003 0 0.68368C0 0.502356 0.0720303 0.32846 0.200245 0.200245C0.32846 0.0720303 0.502356 0 0.68368 0C0.865003 0 1.0389 0.0720303 1.16711 0.200245L13.7998 12.833C13.8955 12.9286 13.9606 13.0504 13.987 13.183C14.0134 13.3156 13.9998 13.4531 13.9481 13.578C13.8963 13.703 13.8087 13.8097 13.6963 13.8848C13.5838 13.9599 13.4516 14 13.3164 14Z" fill="#B6B6B7"/>
</g>
</svg>
