<svg width="8" height="8" viewBox="0 0 8 8" fill="none" xmlns="http://www.w3.org/2000/svg">
<g id="02 User">
<path id="Vector" d="M0.390691 8.00005C0.313423 8.00007 0.237887 7.97716 0.173637 7.93424C0.109387 7.89132 0.0593092 7.83031 0.0297383 7.75892C0.000167328 7.68754 -0.00756833 7.60898 0.00750977 7.5332C0.0225879 7.45742 0.0598023 7.38781 0.114446 7.33318L7.33306 0.114427C7.40633 0.0411604 7.5057 0 7.60931 0C7.71292 0 7.81229 0.0411604 7.88555 0.114427C7.95882 0.187693 7.99998 0.287063 7.99998 0.390676C7.99998 0.49429 7.95882 0.59366 7.88555 0.666927L0.666936 7.88568C0.630692 7.922 0.58763 7.9508 0.540224 7.97042C0.492817 7.99005 0.442 8.00012 0.390691 8.00005Z" fill="black"/>
<path id="Vector_2" d="M7.60929 8.00005C7.55798 8.00012 7.50716 7.99005 7.45975 7.97042C7.41235 7.9508 7.36929 7.922 7.33304 7.88568L0.114424 0.666927C0.0411597 0.59366 0 0.49429 0 0.390676C0 0.287063 0.0411597 0.187693 0.114424 0.114427C0.187689 0.0411604 0.287057 0 0.390669 0C0.494281 0 0.59365 0.0411604 0.666914 0.114427L7.88553 7.33318C7.94018 7.38781 7.97739 7.45742 7.99247 7.5332C8.00755 7.60898 7.99981 7.68754 7.97024 7.75892C7.94067 7.83031 7.89059 7.89132 7.82634 7.93424C7.76209 7.97716 7.68655 8.00007 7.60929 8.00005Z" fill="black"/>
</g>
</svg>
