<svg width="15" height="16" viewBox="0 0 15 16" fill="none" xmlns="http://www.w3.org/2000/svg">
<path d="M7.6347 8.17234H7.63481C8.35398 8.17234 9.057 7.95909 9.65496 7.55955C10.2529 7.16 10.719 6.59211 10.9942 5.92769C11.2694 5.26327 11.3414 4.53216 11.2011 3.82681C11.0608 3.12146 10.7145 2.47355 10.206 1.96502C9.69748 1.45649 9.04958 1.11018 8.34423 0.969872C7.63888 0.829567 6.90777 0.901574 6.24334 1.17679C5.57892 1.452 5.01102 1.91805 4.61148 2.51602C4.21193 3.11399 3.99867 3.817 3.99867 4.53617L3.99867 4.53628C3.99976 5.50029 4.38318 6.4245 5.06484 7.10615C5.74649 7.78781 6.67069 8.17124 7.6347 8.17234ZM10.0517 8.75729H5.21787C2.83693 8.75729 0.9 10.6943 0.9 13.0751V14.5625C0.9 14.7051 0.956629 14.8418 1.05743 14.9426C1.15823 15.0434 1.29495 15.1 1.4375 15.1H13.8321C13.9747 15.1 14.1114 15.0434 14.2122 14.9426C14.313 14.8418 14.3696 14.7051 14.3696 14.5625V13.0751C14.3696 10.6942 12.4327 8.75729 10.0517 8.75729ZM13.2946 14.025H1.975L1.975 13.0753C1.975 13.0752 1.975 13.0752 1.975 13.0752C1.97599 12.2154 2.31797 11.3912 2.92593 10.7832C3.53389 10.1752 4.35819 9.83326 5.21799 9.83229H10.0516C10.9114 9.83326 11.7357 10.1752 12.3437 10.7832C12.9517 11.3912 13.2936 12.2155 13.2946 13.0753V14.025ZM7.63481 1.97503C8.14137 1.97502 8.63654 2.12523 9.05773 2.40665C9.47892 2.68807 9.80719 3.08807 10.001 3.55607C10.1949 4.02406 10.2456 4.53903 10.1468 5.03585C10.048 5.53267 9.80405 5.98903 9.44586 6.34722C9.08767 6.70541 8.63131 6.94933 8.13449 7.04816C7.63767 7.14698 7.1227 7.09626 6.65471 6.90241C6.18671 6.70855 5.78672 6.38028 5.50529 5.95909C5.22389 5.53794 5.07368 5.0428 5.07367 4.53628C5.07443 3.85723 5.34453 3.20621 5.82469 2.72605C6.30485 2.24589 6.95587 1.97579 7.63492 1.97503L7.63481 1.87503L7.63481 1.97503Z" fill="#2FACD6" stroke="#2FACD6" stroke-width="0.2"/>
</svg>
