<svg width="16" height="12" viewBox="0 0 16 12" fill="none" xmlns="http://www.w3.org/2000/svg">
<path d="M14.5938 0H1.40625C0.629281 0 0 0.633187 0 1.40625V9.84375C0 10.6214 0.633906 11.25 1.40625 11.25H14.5938C15.3642 11.25 16 10.6241 16 9.84375V1.40625C16 0.634562 15.3732 0 14.5938 0ZM14.3968 0.9375C14.1095 1.22328 9.16509 6.14166 8.99438 6.31147C8.72875 6.57709 8.37562 6.72334 8 6.72334C7.62437 6.72334 7.27125 6.57706 7.00475 6.31059C6.88994 6.19637 2.00009 1.33231 1.60319 0.9375H14.3968ZM0.9375 9.65294V1.59766L4.98869 5.6275L0.9375 9.65294ZM1.60378 10.3125L5.65338 6.28866L6.34272 6.97437C6.78541 7.41706 7.37397 7.66084 8 7.66084C8.62603 7.66084 9.21459 7.41706 9.65641 6.97525L10.3466 6.28866L14.3962 10.3125H1.60378ZM15.0625 9.65294L11.0113 5.6275L15.0625 1.59766V9.65294Z" fill="#2FACD6"/>
</svg>
