<svg width="16" height="16" viewBox="0 0 16 16" fill="none" xmlns="http://www.w3.org/2000/svg">
<path d="M11.5746 16C11.2578 15.9997 10.9431 15.9487 10.6424 15.8488C8.2013 15.0316 5.98327 13.6588 4.16299 11.8385C2.34271 10.0182 0.969892 7.80019 0.15266 5.35909C-0.0211119 4.84597 -0.04711 4.29433 0.0776335 3.76714C0.202377 3.23995 0.472835 2.75845 0.858134 2.37762L2.82339 0.429164C3.10028 0.154268 3.47463 0 3.8648 0C4.25498 0 4.62932 0.154268 4.90622 0.429164L7.28299 2.78075C7.55789 3.05764 7.71216 3.43199 7.71216 3.82216C7.71216 4.21234 7.55789 4.58669 7.28299 4.86358L5.77966 6.35851C6.12942 7.22994 6.65204 8.0215 7.31602 8.68547C7.97999 9.34944 8.77155 9.87207 9.64297 10.2218L11.1379 8.71849C11.4148 8.4436 11.7892 8.28933 12.1793 8.28933C12.5695 8.28933 12.9439 8.4436 13.2207 8.71849L15.5723 11.0953C15.8472 11.3722 16.0015 11.7465 16.0015 12.1367C16.0015 12.5269 15.8472 12.9012 15.5723 13.1781L13.5987 15.1434C13.3343 15.4124 13.0194 15.6266 12.6721 15.7736C12.3248 15.9206 11.9518 15.9975 11.5746 16ZM3.8648 1.26902C3.81602 1.25102 3.76241 1.25102 3.71363 1.26902L1.74838 3.26786C1.53536 3.48508 1.38534 3.75608 1.31434 4.05192C1.24334 4.34776 1.25402 4.65732 1.34525 4.94756C2.10134 7.20434 3.36986 9.25533 5.05136 10.9398C6.73287 12.6242 8.78166 13.8962 11.0371 14.6562C11.3274 14.7475 11.6369 14.7581 11.9328 14.6871C12.2286 14.6161 12.4996 14.4661 12.7168 14.2531L14.7325 12.2879C14.7697 12.2463 14.7902 12.1925 14.7902 12.1367C14.7902 12.0809 14.7697 12.0271 14.7325 11.9855L12.3557 9.60874C12.3141 9.57155 12.2603 9.55099 12.2045 9.55099C12.1487 9.55099 12.0949 9.57155 12.0533 9.60874L10.2729 11.3892C10.1932 11.4746 10.0906 11.5351 9.97732 11.5634C9.86406 11.5917 9.74502 11.5866 9.63458 11.5488C8.43103 11.1483 7.33673 10.4742 6.43762 9.57942C5.53851 8.68469 4.85908 7.59369 4.4527 6.39211C4.41972 6.27769 4.42125 6.15608 4.45711 6.04253C4.49296 5.92898 4.56155 5.82855 4.65426 5.75382L6.43474 3.97333C6.47193 3.93176 6.49249 3.87794 6.49249 3.82216C6.49249 3.76638 6.47193 3.71256 6.43474 3.67099L4.01597 1.26902C3.96749 1.2494 3.91328 1.2494 3.8648 1.26902Z" fill="#2FACD6"/>
</svg>
