<svg width="100" height="104" viewBox="0 0 100 104" fill="none" xmlns="http://www.w3.org/2000/svg">
<path d="M60.8948 55.4089L73.3727 42.9309C74.9138 41.3898 75.6843 40.6192 76.0964 39.7879C76.8801 38.2062 76.8801 36.3491 76.0964 34.7675C75.6843 33.9361 74.9138 33.1655 73.3727 31.6242C71.8311 30.0829 71.0606 29.3123 70.2296 28.9003C68.6474 28.1166 66.7906 28.1166 65.209 28.9003C64.3774 29.3123 63.6069 30.0829 62.0659 31.6242L49.588 44.102M60.8948 55.4089L17.6187 98.6852C16.0774 100.226 15.3067 100.997 14.4754 101.409C12.8937 102.193 11.0366 102.193 9.45496 101.409C8.62364 100.997 7.85301 100.226 6.31174 98.6852C4.77048 97.1436 3.99979 96.3731 3.58784 95.5421C2.80405 93.9599 2.80405 92.1031 3.58784 90.5215C3.99979 89.6899 4.77048 88.9194 6.31174 87.3784L49.588 44.102M60.8948 55.4089L49.588 44.102" stroke="#B4B4B4" stroke-width="3" stroke-linecap="round" stroke-linejoin="round"/>
<path d="M89.8423 2L89.2607 3.57226C88.4975 5.6339 88.1159 6.66469 87.3644 7.41669C86.6123 8.16864 85.5812 8.55011 83.5196 9.31296L81.9475 9.89475L83.5196 10.4765C85.5812 11.2394 86.6123 11.6209 87.3644 12.3728C88.1159 13.1248 88.4975 14.1556 89.2607 16.2172L89.8423 17.7895L90.4238 16.2172C91.187 14.1556 91.5686 13.1248 92.3202 12.3728C93.0723 11.6209 94.1033 11.2394 96.1649 10.4765L97.737 9.89475L96.1649 9.31296C94.1033 8.55011 93.0723 8.16864 92.3202 7.41669C91.5686 6.66469 91.187 5.6339 90.4238 3.57226L89.8423 2Z" stroke="#B4B4B4" stroke-width="3" stroke-linejoin="round"/>
<path d="M89.8423 54.6328L89.2607 56.2049C88.4975 58.2665 88.1159 59.2976 87.3644 60.0497C86.6123 60.8012 85.5812 61.1828 83.5196 61.946L81.9475 62.5276L83.5196 63.1091C85.5812 63.8723 86.6123 64.2539 87.3644 65.0055C88.1159 65.7576 88.4975 66.7886 89.2607 68.8502L89.8423 70.4223L90.4238 68.8502C91.187 66.7886 91.5686 65.7576 92.3202 65.0055C93.0723 64.2539 94.1033 63.8723 96.1649 63.1091L97.737 62.5276L96.1649 61.946C94.1033 61.1828 93.0723 60.8012 92.3202 60.0497C91.5686 59.2976 91.187 58.2665 90.4238 56.2049L89.8423 54.6328Z" stroke="#B4B4B4" stroke-width="3" stroke-linejoin="round"/>
<path d="M42.4738 2L41.8923 3.57226C41.1291 5.6339 40.7475 6.66469 39.9959 7.41669C39.2438 8.16864 38.213 8.55011 36.1514 9.31296L34.5791 9.89475L36.1514 10.4765C38.213 11.2394 39.2438 11.6209 39.9959 12.3728C40.7475 13.1248 41.1291 14.1556 41.8923 16.2172L42.4738 17.7895L43.0554 16.2172C43.8186 14.1556 44.2002 13.1248 44.9517 12.3728C45.7039 11.6209 46.7349 11.2394 48.7965 10.4765L50.3686 9.89475L48.7965 9.31296C46.7349 8.55011 45.7039 8.16864 44.9517 7.41669C44.2002 6.66469 43.8186 5.6339 43.0554 3.57226L42.4738 2Z" stroke="#B4B4B4" stroke-width="3" stroke-linejoin="round"/>
</svg>
