<svg width="18" height="18" viewBox="0 0 18 18" fill="none" xmlns="http://www.w3.org/2000/svg">
<mask id="path-1-outside-1_2415_823" maskUnits="userSpaceOnUse" x="0" y="0" width="18" height="18" fill="black">
<rect fill="white" width="18" height="18"/>
<path fill-rule="evenodd" clip-rule="evenodd" d="M13.2081 1.58575L2.39807 12.3965C2.34307 12.4512 2.30057 12.5183 2.27557 12.592L1.02557 16.342C0.965569 16.5215 1.01307 16.7198 1.14807 16.8535C1.28057 16.9875 1.47808 17.0343 1.65808 16.9743L5.40808 15.7243C5.48308 15.6998 5.54808 15.6585 5.60308 15.6035L16.4156 4.793C16.7906 4.41775 17.0006 3.909 17.0006 3.37875C17.0006 2.84825 16.7906 2.3395 16.4156 1.9645C16.2881 1.839 16.1606 1.71125 16.0356 1.58575C15.6606 1.21075 15.1531 1 14.6231 1C14.0906 1 13.5831 1.21075 13.2081 1.58575ZM11.7256 11.8455C11.6581 11.6395 11.4681 11.5 11.2506 11.5C11.0331 11.5 10.8431 11.6395 10.7756 11.8455L10.3006 13.3013L8.84558 13.7745C8.64058 13.8415 8.50058 14.0335 8.50058 14.25C8.50058 14.4665 8.64058 14.6585 8.84558 14.7255L10.3006 15.1987L10.7756 16.6545C10.8431 16.8605 11.0331 17 11.2506 17C11.4681 17 11.6581 16.8605 11.7256 16.6545L12.2006 15.1987L13.6556 14.7255C13.8606 14.6585 14.0006 14.4665 14.0006 14.25C14.0006 14.0335 13.8606 13.8415 13.6556 13.7745L12.2006 13.3013L11.7256 11.8455ZM2.29058 15.7095L4.32559 15.0315L2.96807 13.6755L2.29058 15.7095ZM11.2506 13.617L11.3281 13.8525C11.3756 14.0047 11.4956 14.124 11.6481 14.1735L11.8831 14.25L11.6481 14.3265C11.4956 14.376 11.3756 14.4953 11.3281 14.6475L11.2506 14.883L11.1731 14.6475C11.1256 14.4953 11.0056 14.376 10.8531 14.3265L10.6181 14.25L10.8531 14.1735C11.0056 14.124 11.1256 14.0047 11.1731 13.8525L11.2506 13.617ZM3.45806 12.75L5.25058 14.543L14.0431 5.75L12.2506 3.957L3.45806 12.75ZM13.7506 10.75H13.2506C12.9756 10.75 12.7506 10.974 12.7506 11.25C12.7506 11.526 12.9756 11.75 13.2506 11.75H13.7506V12.25C13.7506 12.526 13.9756 12.75 14.2506 12.75C14.5256 12.75 14.7506 12.526 14.7506 12.25V11.75H15.2506C15.5256 11.75 15.7506 11.526 15.7506 11.25C15.7506 10.974 15.5256 10.75 15.2506 10.75H14.7506V10.25C14.7506 9.974 14.5256 9.75 14.2506 9.75C13.9756 9.75 13.7506 9.974 13.7506 10.25V10.75ZM5.22558 1.3455C5.15808 1.1395 4.96808 1 4.75058 1C4.53308 1 4.34307 1.1395 4.27557 1.3455L3.55557 3.55575L1.34558 4.2745C1.14058 4.3415 1.00058 4.5335 1.00058 4.75C1.00058 4.9665 1.14058 5.1585 1.34558 5.2255L3.55557 5.94425L4.27557 8.1545C4.34307 8.3605 4.53308 8.5 4.75058 8.5C4.96808 8.5 5.15808 8.3605 5.22558 8.1545L5.94558 5.94425L8.15557 5.2255C8.36057 5.1585 8.50058 4.9665 8.50058 4.75C8.50058 4.5335 8.36057 4.3415 8.15557 4.2745L5.94558 3.55575L5.22558 1.3455ZM4.75058 3.117L5.07309 4.10725C5.12309 4.25925 5.24056 4.3785 5.39306 4.428L6.38308 4.75L5.39306 5.072C5.24056 5.1215 5.12309 5.24075 5.07309 5.39275L4.75058 6.383L4.42807 5.39275C4.37807 5.24075 4.26059 5.1215 4.10809 5.072L3.11807 4.75L4.10809 4.428C4.26059 4.3785 4.37807 4.25925 4.42807 4.10725L4.75058 3.117ZM14.7506 5.043L12.9581 3.25L13.9156 2.293C14.1031 2.10525 14.3556 2 14.6231 2C14.8881 2 15.1406 2.10525 15.3281 2.293C15.4556 2.41825 15.5831 2.54625 15.7081 2.6715C15.8956 2.859 16.0006 3.1135 16.0006 3.37875C16.0006 3.644 15.8956 3.89825 15.7081 4.08575L14.7506 5.043Z"/>
</mask>
<path fill-rule="evenodd" clip-rule="evenodd" d="M13.2081 1.58575L2.39807 12.3965C2.34307 12.4512 2.30057 12.5183 2.27557 12.592L1.02557 16.342C0.965569 16.5215 1.01307 16.7198 1.14807 16.8535C1.28057 16.9875 1.47808 17.0343 1.65808 16.9743L5.40808 15.7243C5.48308 15.6998 5.54808 15.6585 5.60308 15.6035L16.4156 4.793C16.7906 4.41775 17.0006 3.909 17.0006 3.37875C17.0006 2.84825 16.7906 2.3395 16.4156 1.9645C16.2881 1.839 16.1606 1.71125 16.0356 1.58575C15.6606 1.21075 15.1531 1 14.6231 1C14.0906 1 13.5831 1.21075 13.2081 1.58575ZM11.7256 11.8455C11.6581 11.6395 11.4681 11.5 11.2506 11.5C11.0331 11.5 10.8431 11.6395 10.7756 11.8455L10.3006 13.3013L8.84558 13.7745C8.64058 13.8415 8.50058 14.0335 8.50058 14.25C8.50058 14.4665 8.64058 14.6585 8.84558 14.7255L10.3006 15.1987L10.7756 16.6545C10.8431 16.8605 11.0331 17 11.2506 17C11.4681 17 11.6581 16.8605 11.7256 16.6545L12.2006 15.1987L13.6556 14.7255C13.8606 14.6585 14.0006 14.4665 14.0006 14.25C14.0006 14.0335 13.8606 13.8415 13.6556 13.7745L12.2006 13.3013L11.7256 11.8455ZM2.29058 15.7095L4.32559 15.0315L2.96807 13.6755L2.29058 15.7095ZM11.2506 13.617L11.3281 13.8525C11.3756 14.0047 11.4956 14.124 11.6481 14.1735L11.8831 14.25L11.6481 14.3265C11.4956 14.376 11.3756 14.4953 11.3281 14.6475L11.2506 14.883L11.1731 14.6475C11.1256 14.4953 11.0056 14.376 10.8531 14.3265L10.6181 14.25L10.8531 14.1735C11.0056 14.124 11.1256 14.0047 11.1731 13.8525L11.2506 13.617ZM3.45806 12.75L5.25058 14.543L14.0431 5.75L12.2506 3.957L3.45806 12.75ZM13.7506 10.75H13.2506C12.9756 10.75 12.7506 10.974 12.7506 11.25C12.7506 11.526 12.9756 11.75 13.2506 11.75H13.7506V12.25C13.7506 12.526 13.9756 12.75 14.2506 12.75C14.5256 12.75 14.7506 12.526 14.7506 12.25V11.75H15.2506C15.5256 11.75 15.7506 11.526 15.7506 11.25C15.7506 10.974 15.5256 10.75 15.2506 10.75H14.7506V10.25C14.7506 9.974 14.5256 9.75 14.2506 9.75C13.9756 9.75 13.7506 9.974 13.7506 10.25V10.75ZM5.22558 1.3455C5.15808 1.1395 4.96808 1 4.75058 1C4.53308 1 4.34307 1.1395 4.27557 1.3455L3.55557 3.55575L1.34558 4.2745C1.14058 4.3415 1.00058 4.5335 1.00058 4.75C1.00058 4.9665 1.14058 5.1585 1.34558 5.2255L3.55557 5.94425L4.27557 8.1545C4.34307 8.3605 4.53308 8.5 4.75058 8.5C4.96808 8.5 5.15808 8.3605 5.22558 8.1545L5.94558 5.94425L8.15557 5.2255C8.36057 5.1585 8.50058 4.9665 8.50058 4.75C8.50058 4.5335 8.36057 4.3415 8.15557 4.2745L5.94558 3.55575L5.22558 1.3455ZM4.75058 3.117L5.07309 4.10725C5.12309 4.25925 5.24056 4.3785 5.39306 4.428L6.38308 4.75L5.39306 5.072C5.24056 5.1215 5.12309 5.24075 5.07309 5.39275L4.75058 6.383L4.42807 5.39275C4.37807 5.24075 4.26059 5.1215 4.10809 5.072L3.11807 4.75L4.10809 4.428C4.26059 4.3785 4.37807 4.25925 4.42807 4.10725L4.75058 3.117ZM14.7506 5.043L12.9581 3.25L13.9156 2.293C14.1031 2.10525 14.3556 2 14.6231 2C14.8881 2 15.1406 2.10525 15.3281 2.293C15.4556 2.41825 15.5831 2.54625 15.7081 2.6715C15.8956 2.859 16.0006 3.1135 16.0006 3.37875C16.0006 3.644 15.8956 3.89825 15.7081 4.08575L14.7506 5.043Z" fill="#FC6D35"/>
<path fill-rule="evenodd" clip-rule="evenodd" d="M13.2081 1.58575L2.39807 12.3965C2.34307 12.4512 2.30057 12.5183 2.27557 12.592L1.02557 16.342C0.965569 16.5215 1.01307 16.7198 1.14807 16.8535C1.28057 16.9875 1.47808 17.0343 1.65808 16.9743L5.40808 15.7243C5.48308 15.6998 5.54808 15.6585 5.60308 15.6035L16.4156 4.793C16.7906 4.41775 17.0006 3.909 17.0006 3.37875C17.0006 2.84825 16.7906 2.3395 16.4156 1.9645C16.2881 1.839 16.1606 1.71125 16.0356 1.58575C15.6606 1.21075 15.1531 1 14.6231 1C14.0906 1 13.5831 1.21075 13.2081 1.58575ZM11.7256 11.8455C11.6581 11.6395 11.4681 11.5 11.2506 11.5C11.0331 11.5 10.8431 11.6395 10.7756 11.8455L10.3006 13.3013L8.84558 13.7745C8.64058 13.8415 8.50058 14.0335 8.50058 14.25C8.50058 14.4665 8.64058 14.6585 8.84558 14.7255L10.3006 15.1987L10.7756 16.6545C10.8431 16.8605 11.0331 17 11.2506 17C11.4681 17 11.6581 16.8605 11.7256 16.6545L12.2006 15.1987L13.6556 14.7255C13.8606 14.6585 14.0006 14.4665 14.0006 14.25C14.0006 14.0335 13.8606 13.8415 13.6556 13.7745L12.2006 13.3013L11.7256 11.8455ZM2.29058 15.7095L4.32559 15.0315L2.96807 13.6755L2.29058 15.7095ZM11.2506 13.617L11.3281 13.8525C11.3756 14.0047 11.4956 14.124 11.6481 14.1735L11.8831 14.25L11.6481 14.3265C11.4956 14.376 11.3756 14.4953 11.3281 14.6475L11.2506 14.883L11.1731 14.6475C11.1256 14.4953 11.0056 14.376 10.8531 14.3265L10.6181 14.25L10.8531 14.1735C11.0056 14.124 11.1256 14.0047 11.1731 13.8525L11.2506 13.617ZM3.45806 12.75L5.25058 14.543L14.0431 5.75L12.2506 3.957L3.45806 12.75ZM13.7506 10.75H13.2506C12.9756 10.75 12.7506 10.974 12.7506 11.25C12.7506 11.526 12.9756 11.75 13.2506 11.75H13.7506V12.25C13.7506 12.526 13.9756 12.75 14.2506 12.75C14.5256 12.75 14.7506 12.526 14.7506 12.25V11.75H15.2506C15.5256 11.75 15.7506 11.526 15.7506 11.25C15.7506 10.974 15.5256 10.75 15.2506 10.75H14.7506V10.25C14.7506 9.974 14.5256 9.75 14.2506 9.75C13.9756 9.75 13.7506 9.974 13.7506 10.25V10.75ZM5.22558 1.3455C5.15808 1.1395 4.96808 1 4.75058 1C4.53308 1 4.34307 1.1395 4.27557 1.3455L3.55557 3.55575L1.34558 4.2745C1.14058 4.3415 1.00058 4.5335 1.00058 4.75C1.00058 4.9665 1.14058 5.1585 1.34558 5.2255L3.55557 5.94425L4.27557 8.1545C4.34307 8.3605 4.53308 8.5 4.75058 8.5C4.96808 8.5 5.15808 8.3605 5.22558 8.1545L5.94558 5.94425L8.15557 5.2255C8.36057 5.1585 8.50058 4.9665 8.50058 4.75C8.50058 4.5335 8.36057 4.3415 8.15557 4.2745L5.94558 3.55575L5.22558 1.3455ZM4.75058 3.117L5.07309 4.10725C5.12309 4.25925 5.24056 4.3785 5.39306 4.428L6.38308 4.75L5.39306 5.072C5.24056 5.1215 5.12309 5.24075 5.07309 5.39275L4.75058 6.383L4.42807 5.39275C4.37807 5.24075 4.26059 5.1215 4.10809 5.072L3.11807 4.75L4.10809 4.428C4.26059 4.3785 4.37807 4.25925 4.42807 4.10725L4.75058 3.117ZM14.7506 5.043L12.9581 3.25L13.9156 2.293C14.1031 2.10525 14.3556 2 14.6231 2C14.8881 2 15.1406 2.10525 15.3281 2.293C15.4556 2.41825 15.5831 2.54625 15.7081 2.6715C15.8956 2.859 16.0006 3.1135 16.0006 3.37875C16.0006 3.644 15.8956 3.89825 15.7081 4.08575L14.7506 5.043Z" stroke="#FC6D35" stroke-width="0.2" mask="url(#path-1-outside-1_2415_823)"/>
</svg>
