<svg width="14" height="12" viewBox="0 0 14 12" fill="none" xmlns="http://www.w3.org/2000/svg">
<path d="M12.8625 6.23805L12.8621 6.2385L10.4128 8.676C10.2293 8.85857 9.93252 8.85794 9.74987 8.6744C9.56725 8.49091 9.56795 8.19412 9.75144 8.0115M12.8625 6.23805L12.9326 5.50312L12.9322 5.5027L10.4833 3.06562C10.2607 2.84406 9.90058 2.84489 9.67897 3.06755C9.45739 3.29019 9.45824 3.65029 9.68087 3.87188L9.75142 3.801L9.68088 3.87188L11.1536 5.3375H1.46875C1.15463 5.3375 0.9 5.59213 0.9 5.90625C0.9 6.22037 1.15463 6.475 1.46875 6.475H11.1536L9.6809 7.94061L9.75144 8.0115M12.8625 6.23805C13.0461 6.05482 13.0455 5.75707 12.8625 5.57444L12.8625 6.23805ZM9.75144 8.0115L9.6809 7.94062C9.45826 8.1622 9.45741 8.52231 9.67899 8.74494C9.90061 8.96764 10.2607 8.9684 10.4833 8.74688L12.9278 6.31418M9.75144 8.0115L12.9278 6.31418M12.9278 6.31418L12.9327 6.30938L12.9329 6.30909L12.9332 6.30883C12.9332 6.30878 12.9333 6.30873 12.9333 6.30868C13.1556 6.08671 13.1552 5.72659 12.9344 5.50492C12.934 5.5045 12.9336 5.50408 12.9331 5.50365L12.9278 6.31418ZM12.9372 6.30457C12.9368 6.30499 12.9355 6.30649 12.9335 6.30853L12.9368 6.30494L12.9372 6.30457Z" fill="white" stroke="white" stroke-width="0.2"/>
</svg>
