<svg width="20" height="24" viewBox="0 0 20 24" fill="none" xmlns="http://www.w3.org/2000/svg">
<path d="M7.65387 4.6533L8.34213 6.56481C9.10668 8.68632 10.7772 10.357 12.8986 11.1216L14.81 11.8099C14.9822 11.8724 14.9822 12.1167 14.81 12.1785L12.8986 12.8668C10.7772 13.6314 9.10668 15.302 8.34213 17.4235L7.65387 19.335C7.5913 19.5073 7.34702 19.5073 7.2853 19.335L6.59704 17.4235C5.83249 15.302 4.16196 13.6314 2.04059 12.8668L0.129211 12.1785C-0.0430703 12.1159 -0.0430703 11.8716 0.129211 11.8099L2.04059 11.1216C4.16196 10.357 5.83249 8.68632 6.59704 6.56481L7.2853 4.6533C7.34702 4.48015 7.5913 4.48015 7.65387 4.6533Z" fill="url(#paint0_linear_4551_4448)"/>
<path d="M16.2577 0.066217L16.6065 1.03397C16.9939 2.10801 17.8399 2.95405 18.9139 3.34149L19.8816 3.69036C19.969 3.72208 19.969 3.84551 19.8816 3.87723L18.9139 4.2261C17.8399 4.61354 16.9939 5.45958 16.6065 6.53362L16.2577 7.50137C16.226 7.58881 16.1025 7.58881 16.0708 7.50137L15.722 6.53362C15.3346 5.45958 14.4886 4.61354 13.4146 4.2261L12.4469 3.87723C12.3595 3.84551 12.3595 3.72208 12.4469 3.69036L13.4146 3.34149C14.4886 2.95405 15.3346 2.10801 15.722 1.03397L16.0708 0.066217C16.1025 -0.0220723 16.2268 -0.0220723 16.2577 0.066217Z" fill="url(#paint1_linear_4551_4448)"/>
<path d="M16.2577 16.5031L16.6065 17.4708C16.9939 18.5449 17.8399 19.3909 18.9139 19.7783L19.8816 20.1272C19.969 20.1589 19.969 20.2824 19.8816 20.3141L18.9139 20.663C17.8399 21.0504 16.9939 21.8964 16.6065 22.9705L16.2577 23.9382C16.226 24.0257 16.1025 24.0257 16.0708 23.9382L15.722 22.9705C15.3346 21.8964 14.4886 21.0504 13.4146 20.663L12.4469 20.3141C12.3595 20.2824 12.3595 20.1589 12.4469 20.1272L13.4146 19.7783C14.4886 19.3909 15.3346 18.5449 15.722 17.4708L16.0708 16.5031C16.1025 16.4156 16.2268 16.4156 16.2577 16.5031Z" fill="url(#paint2_linear_4551_4448)"/>
<defs>
<linearGradient id="paint0_linear_4551_4448" x1="13" y1="15" x2="-6.5" y2="-4.5" gradientUnits="userSpaceOnUse">
<stop stop-color="#00BCDC"/>
<stop offset="1" stop-color="#75EB00"/>
</linearGradient>
<linearGradient id="paint1_linear_4551_4448" x1="18.9651" y1="5.30597" x2="9.08907" y2="-4.56961" gradientUnits="userSpaceOnUse">
<stop stop-color="#00BCDC"/>
<stop offset="1" stop-color="#75EB00"/>
</linearGradient>
<linearGradient id="paint2_linear_4551_4448" x1="18.9651" y1="21.743" x2="9.08991" y2="11.8674" gradientUnits="userSpaceOnUse">
<stop stop-color="#00BCDC"/>
<stop offset="1" stop-color="#75EB00"/>
</linearGradient>
</defs>
</svg>
