<svg width="16" height="16" viewBox="0 0 16 16" fill="none" xmlns="http://www.w3.org/2000/svg">
<path fill-rule="evenodd" clip-rule="evenodd" d="M10.5729 10.0923C7.64851 10.0923 5.28647 7.60122 5.28647 4.53906C5.28647 7.60122 2.91506 10.0923 0 10.0923C2.91506 10.0923 5.28647 12.5735 5.28647 15.6357C5.28647 12.5735 7.64851 10.0923 10.5729 10.0923Z" fill="#FFD93B"/>
<path fill-rule="evenodd" clip-rule="evenodd" d="M15.9999 12.9565C14.3971 12.9565 13.1036 11.5879 13.1036 9.91406C13.1036 11.5879 11.8007 12.9565 10.2073 12.9565C11.8007 12.9565 13.1036 14.3153 13.1036 15.999C13.1036 14.3153 14.3971 12.9565 15.9999 12.9565Z" fill="#FFB030"/>
<path fill-rule="evenodd" clip-rule="evenodd" d="M14.3316 3.70215C12.382 3.70215 10.8073 2.048 10.8073 0C10.8073 2.048 9.23258 3.70215 7.28296 3.70215C9.23258 3.70215 10.8073 5.35631 10.8073 7.40431C10.8073 5.35631 12.382 3.70215 14.3316 3.70215Z" fill="#FFB030"/>
</svg>
