<svg width="12" height="12" viewBox="0 0 12 12" fill="none" xmlns="http://www.w3.org/2000/svg">
<path d="M2.5 12H7.5C8.32715 12 9 11.3271 9 10.5V3.5C9 2.67285 8.32715 2 7.5 2H2.5C1.67285 2 1 2.67285 1 3.5V10.5C1 11.3271 1.67285 12 2.5 12ZM2 3.5C2 3.22436 2.22412 3 2.5 3H7.5C7.77588 3 8 3.22436 8 3.5V10.5C8 10.7756 7.77588 11 7.5 11H2.5C2.22412 11 2 10.7756 2 10.5V3.5Z" fill="#AAAAAA"/>
<path d="M11 6.5V1.5C11 0.67285 10.3271 0 9.5 0H4.5C4.22388 0 4 0.223877 4 0.5C4 0.776123 4.22388 1 4.5 1H9.5C9.77588 1 10 1.22436 10 1.5V6.5C10 6.77612 10.2239 7 10.5 7C10.7761 7 11 6.77612 11 6.5Z" fill="#AAAAAA"/>
</svg>
