<svg width="120" height="60" viewBox="0 0 120 60" fill="none" xmlns="http://www.w3.org/2000/svg">
<path d="M31.3498 36.9008L26.6998 25.9508C26.1748 24.8258 25.1248 24.2258 24.0748 24.2258C23.0248 24.2258 21.9748 24.8258 21.4498 25.9508L16.7998 36.9008C14.9998 35.0258 13.8748 32.5508 13.8748 29.7758C13.8748 24.1508 18.4498 19.5758 24.0748 19.5758C29.6998 19.5758 34.2748 24.1508 34.2748 29.7758C34.2748 32.5508 33.2248 35.1008 31.3498 36.9008ZM20.6248 33.3008L23.3998 26.7758C23.5498 26.3258 23.9248 26.2508 24.1498 26.2508C24.3748 26.2508 24.7498 26.3258 24.8998 26.7758L27.6748 33.3008H20.6248ZM32.7748 21.1508C30.4498 18.8258 27.3748 17.5508 24.1498 17.5508C20.9248 17.5508 17.8498 18.8258 15.5248 21.1508C13.1998 23.4758 11.9248 26.5508 11.9248 29.7758C11.9248 33.0008 13.1998 36.0758 15.5248 38.4008C17.8498 40.7258 20.9248 42.0008 24.1498 42.0008C27.3748 42.0008 30.4498 40.7258 32.7748 38.4008C35.0998 36.0758 36.3748 33.0008 36.3748 29.7758C36.3748 26.5508 35.0998 23.4758 32.7748 21.1508Z" fill="#989A9B"/>
<path d="M67.5117 34.157H67.4367C67.2117 34.157 67.0617 34.007 67.0617 33.782V26.207H64.5117C64.2867 26.207 64.1367 26.057 64.1367 25.832C64.1367 25.607 64.2867 25.457 64.5117 25.457H70.5117C70.7367 25.457 70.8867 25.607 70.8867 25.832C70.8867 26.057 70.7367 26.207 70.5117 26.207H67.9617V33.782C67.9617 34.007 67.7367 34.157 67.5117 34.157Z" fill="#989A9B"/>
<path d="M72.6121 25.457C72.8371 25.457 73.0621 25.682 73.0621 25.907V29.282H77.7871V25.907C77.7871 25.682 78.0121 25.457 78.2371 25.457C78.4621 25.457 78.6871 25.682 78.6871 25.907V33.782C78.6871 34.007 78.4621 34.232 78.2371 34.232C78.0121 34.232 77.7871 34.007 77.7871 33.782V30.107H73.0621V33.782C73.0621 34.007 72.8371 34.232 72.6121 34.232C72.3871 34.232 72.1621 34.007 72.1621 33.782V25.907C72.1621 25.607 72.3871 25.457 72.6121 25.457Z" fill="#989A9B"/>
<path d="M81.5367 34.157C81.3117 34.157 81.0867 33.932 81.0867 33.707V25.907C81.0867 25.682 81.3117 25.457 81.5367 25.457C81.7617 25.457 81.9867 25.682 81.9867 25.907V33.782C81.9867 33.932 81.7617 34.157 81.5367 34.157Z" fill="#989A9B"/>
<path d="M100.437 26.732C100.287 26.882 100.062 26.882 99.9117 26.732C99.6867 26.507 99.3867 26.357 99.0867 26.207C98.6367 26.057 98.1867 25.907 97.6617 25.907C97.1367 25.907 96.6117 25.982 96.1617 26.207C95.7117 26.432 95.3367 26.657 95.0367 27.032C94.7367 27.407 94.5117 27.782 94.2867 28.232C94.1367 28.682 94.0617 29.207 94.0617 29.657C94.0617 30.182 94.1367 30.632 94.2867 31.082C94.4367 31.532 94.6617 31.907 95.0367 32.282C95.3367 32.657 95.7117 32.882 96.1617 33.107C96.6117 33.332 97.1367 33.407 97.6617 33.407C98.1867 33.407 98.6367 33.332 99.0117 33.257C99.3117 33.182 99.5367 33.107 99.7617 32.957C99.9117 32.882 99.9867 32.732 99.9867 32.582V30.182H98.2617C98.0367 30.182 97.8867 30.032 97.8867 29.807C97.8867 29.582 98.0367 29.432 98.2617 29.432H100.512C100.737 29.432 100.887 29.582 100.887 29.807V33.107C100.887 33.257 100.812 33.407 100.662 33.482C100.212 33.707 99.8367 33.857 99.3117 34.007C98.7867 34.157 98.1867 34.232 97.5867 34.232C96.9117 34.232 96.3117 34.082 95.7867 33.857C95.2617 33.632 94.7367 33.332 94.3617 32.882C93.9867 32.507 93.6117 31.982 93.3867 31.457C93.1617 30.932 93.0117 30.257 93.0117 29.657C93.0117 28.982 93.1617 28.382 93.3867 27.857C93.6117 27.332 93.9117 26.807 94.3617 26.432C94.7367 26.057 95.2617 25.682 95.7867 25.457C96.3117 25.232 96.9117 25.082 97.5867 25.082C98.2617 25.082 98.8617 25.157 99.3867 25.382C99.7617 25.532 100.062 25.757 100.362 25.982C100.662 26.282 100.662 26.507 100.437 26.732Z" fill="#989A9B"/>
<path d="M90.4617 32.882V25.907C90.4617 25.682 90.6867 25.457 90.9117 25.457C91.1367 25.457 91.3617 25.682 91.3617 25.907V33.782C91.3617 34.007 91.1367 34.232 90.9117 34.232H90.6117C90.3867 34.232 90.1617 34.082 90.0117 33.932L85.2117 26.657V33.707C85.2117 33.932 84.9867 34.157 84.7617 34.157C84.5367 34.157 84.3117 33.932 84.3117 33.707V25.907C84.3117 25.682 84.5367 25.457 84.7617 25.457H85.0617C85.2867 25.457 85.5117 25.607 85.6617 25.757L90.4617 32.882Z" fill="#989A9B"/>
<path d="M107.487 26.5813C107.337 26.7313 107.037 26.7313 106.887 26.5813C106.737 26.4313 106.587 26.3563 106.437 26.2063C106.137 26.0563 105.762 25.9813 105.387 25.9813C105.162 25.9813 104.937 25.9813 104.712 26.0563C104.487 26.1313 104.262 26.2063 104.112 26.3563C103.962 26.5063 103.812 26.6563 103.662 26.8813C103.587 27.1063 103.512 27.3313 103.512 27.6313C103.512 27.9313 103.587 28.1563 103.662 28.3063C103.737 28.4563 103.887 28.6063 104.112 28.7563C104.262 28.9063 104.487 28.9813 104.712 29.0563C104.937 29.1313 105.162 29.2063 105.387 29.2812C105.687 29.3562 105.987 29.5063 106.287 29.5813C106.587 29.7313 106.887 29.8812 107.112 30.0312C107.337 30.1813 107.562 30.4813 107.712 30.7063C107.862 31.0063 107.937 31.3812 107.937 31.7562C107.937 32.2062 107.862 32.5812 107.712 32.8812C107.562 33.1812 107.337 33.4812 107.037 33.6312C106.737 33.8562 106.437 34.0063 106.137 34.0813C105.762 34.1563 105.462 34.2313 105.087 34.2313C104.787 34.2313 104.562 34.2312 104.262 34.1562C103.962 34.0813 103.737 34.0063 103.512 33.9313C103.287 33.8563 103.062 33.7063 102.837 33.5563C102.762 33.4813 102.687 33.4062 102.612 33.4062C102.387 33.1812 102.462 32.8813 102.687 32.7313C102.837 32.5813 103.137 32.6563 103.287 32.8063C103.437 32.9563 103.662 33.1062 103.812 33.2562C104.187 33.4812 104.562 33.5563 105.012 33.5563C105.237 33.5563 105.462 33.5563 105.687 33.4813C105.912 33.4063 106.137 33.3313 106.287 33.1813C106.437 33.0313 106.587 32.8812 106.737 32.6562C106.887 32.4313 106.887 32.2063 106.887 31.9062C106.887 31.6062 106.812 31.3812 106.737 31.1562C106.587 30.9313 106.437 30.7812 106.287 30.6312C106.062 30.4812 105.837 30.4062 105.612 30.2562C105.387 30.1812 105.087 30.1063 104.787 29.9563C104.487 29.8813 104.187 29.7312 103.962 29.6562C103.662 29.5062 103.437 29.3563 103.212 29.2063C102.987 29.0563 102.837 28.7562 102.687 28.5312C102.537 28.2313 102.462 27.9313 102.462 27.5563C102.462 27.1063 102.537 26.8063 102.687 26.5063C102.837 26.2063 103.062 25.9813 103.362 25.7563C103.662 25.5313 103.962 25.3813 104.262 25.3063C104.562 25.2313 104.937 25.1562 105.237 25.1562C105.837 25.1562 106.362 25.2313 106.737 25.4563C106.962 25.5313 107.112 25.6813 107.337 25.8313C107.712 26.0563 107.712 26.4313 107.487 26.5813Z" fill="#989A9B"/>
<path d="M58.5865 29.0578V26.8828H60.0115C60.9115 26.8828 61.5115 27.9328 60.7615 28.8328C60.6115 28.9828 60.4615 29.0578 60.2365 29.0578H58.5865ZM61.5115 30.4828C62.8615 29.8828 63.6115 28.2328 62.7115 26.5078C62.3365 25.9078 61.4365 25.3828 60.7615 25.3828H56.5615V34.0828H58.5865V30.6328H59.3365L60.9115 33.5578C61.0615 33.9328 61.4365 34.0828 61.8115 34.0828H63.5365L61.5115 30.4828Z" fill="#989A9B"/>
<path d="M45.1617 32.357L44.4867 34.157H42.3867L45.6117 26.357C45.8367 25.832 46.3617 25.457 46.9617 25.457C47.5617 25.457 48.0867 25.832 48.3117 26.357L51.5367 34.157H49.5117L48.7617 32.357H45.1617ZM45.8367 30.707H48.1617L46.9617 27.707L45.8367 30.707Z" fill="#989A9B"/>
<path d="M52.5117 34.157H54.5367V25.457H52.5117V34.157Z" fill="#989A9B"/>
</svg>
