<svg width="12" height="14" viewBox="0 0 12 14" fill="#717171" xmlns="http://www.w3.org/2000/svg">
<path d="M3.08687 3.87995C3.08687 5.52319 4.42358 6.8599 6.06682 6.8599C7.71006 6.8599 9.04677 5.52319 9.04677 3.87995C9.04677 2.23671 7.71006 0.9 6.06682 0.9C4.42358 0.9 3.08687 2.23671 3.08687 3.87995ZM3.90543 3.87995C3.90543 2.68824 4.87511 1.71856 6.06682 1.71856C7.25853 1.71856 8.22821 2.68824 8.22821 3.87995C8.22821 5.07166 7.25853 6.04134 6.06682 6.04134C4.87511 6.04134 3.90543 5.07166 3.90543 3.87995ZM2.42486 13.1H9.70878C10.5497 13.1 11.2336 12.416 11.2336 11.5751V10.6838C11.2336 8.7737 9.67984 7.21992 7.76978 7.21992H4.36384C2.45378 7.21992 0.9 8.7737 0.9 10.6838V11.5751C0.9 12.416 1.58396 13.1 2.42486 13.1ZM1.71856 10.6838C1.71856 9.22522 2.90531 8.03847 4.36384 8.03847H7.76981C9.22833 8.03847 10.4151 9.22522 10.4151 10.6838V11.5751C10.4151 11.9645 10.0981 12.2814 9.70878 12.2814H2.42486C2.03549 12.2814 1.71856 11.9645 1.71856 11.5751V10.6838Z" fill="#717171" stroke="#717171" stroke-width="0.2"/>
</svg>
