<svg width="32" height="32" viewBox="0 0 32 32" fill="none" xmlns="http://www.w3.org/2000/svg">
<path d="M4.79961 5.55273L2.66675 6.61937V25.3398L4.79961 26.4002L4.81243 26.3848V5.56742L4.79961 5.55273Z" fill="#8C3123"/>
<path d="M16.2142 23.6831L4.79956 26.4002V5.55273L16.2142 8.21064V23.6831Z" fill="#E05243"/>
<path d="M11.062 19.4297L15.9038 20.0461L15.9342 19.9759L15.9614 12.0367L15.9038 11.9746L11.062 12.5821V19.4297Z" fill="#8C3123"/>
<path d="M15.9036 23.7136L27.0075 26.406L27.025 26.3782L27.0247 5.57135L27.0071 5.55273L15.9036 8.24115V23.7136Z" fill="#8C3123"/>
<path d="M20.7467 19.4297L15.9036 20.0461V11.9746L20.7467 12.5821V19.4297Z" fill="#E05243"/>
<path d="M20.7469 9.26942L15.9038 10.1521L11.062 9.26942L15.8977 8.00195L20.7469 9.26942Z" fill="#5E1F18"/>
<path d="M20.7469 22.7322L15.9038 21.8438L11.062 22.7322L15.8979 24.0821L20.7469 22.7322Z" fill="#F2B0A9"/>
<path d="M11.062 9.26932L15.9038 8.07113L15.943 8.05903V0.0323693L15.9038 0L11.062 2.42129V9.26932Z" fill="#8C3123"/>
<path d="M20.7467 9.26932L15.9036 8.07113V0L20.7467 2.42129V9.26932Z" fill="#E05243"/>
<path d="M15.9035 32.0008L11.0613 29.5803V22.7324L15.9035 23.9302L15.9748 24.0112L15.9555 31.8611L15.9035 32.0008Z" fill="#8C3123"/>
<path d="M15.9036 31.9989L20.7462 29.5784V22.7305L15.9036 23.9282V31.9989Z" fill="#E05243"/>
<path d="M27.0076 5.55078L29.1414 6.61742V25.3379L27.0076 26.4041V5.55078Z" fill="#E05243"/>
</svg>
