<svg width="12" height="12" viewBox="0 0 12 12" fill="none" xmlns="http://www.w3.org/2000/svg">
<path d="M10.8442 1.15549C10.1964 0.507924 9.34359 0.105835 8.43186 0.0181376C7.52012 -0.06956 6.60627 0.162595 5.84693 0.674812C5.0876 1.18703 4.53007 1.94741 4.2699 2.82563C4.00973 3.70385 4.06313 4.64521 4.42094 5.48838C2.92914 6.79367 1.52288 8.19359 0.210857 9.67947C0.0585132 9.85127 -0.0148461 10.0896 0.00249762 10.3327C0.0289039 10.7047 0.0486695 11.0697 0.0617945 11.4277C0.0651785 11.562 0.120046 11.6899 0.215054 11.7849C0.310062 11.8799 0.437945 11.9348 0.572263 11.9381C0.929451 11.9503 1.29508 11.971 1.66703 11.9972C1.91008 12.0146 2.14844 11.941 2.32117 11.7884C2.40336 11.7157 2.48531 11.6428 2.56703 11.5697C2.62915 11.5143 2.66925 11.4383 2.68 11.3557C2.70734 11.1542 2.73289 10.9506 2.75664 10.7449C2.79297 10.4309 3.07773 10.2258 3.4089 10.2863C4.01664 10.3983 4.49476 9.93236 4.38508 9.32533V9.32065C4.32601 8.98971 4.53343 8.70658 4.85172 8.67518C5.05703 8.65471 5.26117 8.63315 5.46414 8.61049C5.54807 8.6017 5.62595 8.56272 5.68328 8.5008C5.96359 8.19752 6.23984 7.89033 6.51203 7.57924C7.35523 7.93695 8.2966 7.99024 9.17479 7.72998C10.053 7.46971 10.8133 6.9121 11.3254 6.15271C11.8376 5.39332 12.0696 4.47945 11.9818 3.56772C11.894 2.656 11.4918 1.8032 10.8442 1.15549ZM9.82023 3.72307C9.6676 3.87563 9.47316 3.97952 9.26149 4.02159C9.04982 4.06365 8.83043 4.04202 8.63106 3.95941C8.43168 3.8768 8.26128 3.73693 8.14139 3.55749C8.02151 3.37804 7.95752 3.16708 7.95752 2.95127C7.95752 2.73546 8.02151 2.5245 8.14139 2.34505C8.26128 2.16561 8.43168 2.02574 8.63106 1.94313C8.83043 1.86052 9.04982 1.83888 9.26149 1.88095C9.47316 1.92302 9.6676 2.02691 9.82023 2.17947C9.92161 2.28081 10.002 2.40113 10.0569 2.53356C10.1118 2.66598 10.14 2.80792 10.14 2.95127C10.14 3.09461 10.1118 3.23655 10.0569 3.36898C10.002 3.50141 9.92161 3.62173 9.82023 3.72307Z" fill="white"/>
</svg>
