<svg width="24" height="24" viewBox="0 0 24 24" fill="none" xmlns="http://www.w3.org/2000/svg">
<path d="M11.5904 23.1992C9.1091 23.1972 6.69385 22.3997 4.69934 20.9236C2.70484 19.4476 1.23621 17.3709 0.509145 14.9985C-0.217915 12.6261 -0.165085 10.0832 0.659877 7.74303C1.48484 5.40291 3.03845 3.38899 5.09254 1.99706C7.14662 0.605132 9.59292 -0.0914468 12.0721 0.00963282C14.5514 0.110712 16.9328 1.00412 18.8668 2.55865C20.8007 4.11317 22.1853 6.24688 22.817 8.6464C23.4487 11.0459 23.2943 13.5848 22.3766 15.8901C22.2961 16.0847 22.1422 16.2398 21.9482 16.3218C21.7542 16.4037 21.5357 16.4059 21.34 16.3279C21.1444 16.2498 20.9874 16.0978 20.9031 15.9048C20.8187 15.7118 20.8138 15.4934 20.8894 15.2968C21.7419 13.1552 21.8281 10.7848 21.1337 8.58687C20.4393 6.38893 19.0067 4.49843 17.0786 3.23531C15.1505 1.9722 12.8451 1.41407 10.5527 1.65537C8.26038 1.89667 6.12178 2.92259 4.4989 4.55949C2.87602 6.19639 1.86854 8.34374 1.64697 10.6381C1.42541 12.9325 2.00336 15.2329 3.28301 17.1501C4.56267 19.0673 6.46543 20.4835 8.66926 21.159C10.8731 21.8345 13.2426 21.7278 15.3769 20.857C15.5716 20.7848 15.7868 20.7911 15.977 20.8746C16.1672 20.9581 16.3175 21.1123 16.3961 21.3045C16.4748 21.4968 16.4757 21.712 16.3986 21.9049C16.3215 22.0978 16.1724 22.2531 15.9829 22.3382C14.5888 22.9085 13.0967 23.201 11.5904 23.1992Z" fill="#717171"/>
<path d="M9.58885 15.5908C9.4837 15.5909 9.37957 15.5703 9.28243 15.53C9.18529 15.4898 9.09707 15.4307 9.02282 15.3563L6.621 12.9544C6.54666 12.8801 6.4877 12.7918 6.44749 12.6947C6.40727 12.5975 6.38658 12.4934 6.3866 12.3883C6.38662 12.2831 6.40734 12.179 6.4476 12.0819C6.48785 11.9848 6.54684 11.8965 6.6212 11.8222C6.69555 11.7478 6.78382 11.6889 6.88097 11.6487C6.97811 11.6084 7.08223 11.5878 7.18737 11.5878C7.29251 11.5878 7.39661 11.6085 7.49374 11.6488C7.59087 11.689 7.67912 11.748 7.75346 11.8224L9.58885 13.657L15.4257 7.82054C15.5758 7.67036 15.7794 7.58598 15.9918 7.58594C16.2041 7.5859 16.4078 7.67022 16.5579 7.82034C16.7081 7.97046 16.7925 8.17408 16.7925 8.38642C16.7926 8.59876 16.7083 8.80242 16.5581 8.9526L10.1561 15.3551C10.0818 15.4299 9.99341 15.4892 9.89605 15.5297C9.7987 15.5702 9.69428 15.5909 9.58885 15.5908Z" fill="#717171"/>
<path d="M19.1961 23.9992H19.1777C19.0177 23.9954 18.8626 23.9439 18.7322 23.8511C18.6019 23.7584 18.5023 23.6287 18.4463 23.4788L16.0445 17.0739C15.9919 16.9335 15.9797 16.7812 16.0094 16.6342C16.0391 16.4872 16.1095 16.3515 16.2125 16.2426C16.3156 16.1337 16.4472 16.0559 16.5923 16.0181C16.7374 15.9802 16.8902 15.9839 17.0333 16.0287L23.4381 18.0303C23.5868 18.0768 23.7187 18.1657 23.8176 18.2861C23.9165 18.4065 23.9781 18.5531 23.9949 18.708C24.0117 18.8629 23.9829 19.0194 23.9121 19.1581C23.8413 19.2969 23.7315 19.412 23.5962 19.4894L21.0271 20.9569L19.9319 23.5124C19.8704 23.6567 19.7679 23.7797 19.6371 23.8663C19.5063 23.9528 19.3529 23.999 19.1961 23.9992ZM18.1193 18.0467L19.2457 21.0489L19.6613 20.0794C19.7299 19.9195 19.8488 19.7862 19.9999 19.6999L21.2068 19.0098L18.1193 18.0467Z" fill="#717171"/>
<path d="M14.7928 15.5932C14.6876 15.5934 14.5834 15.5728 14.4863 15.5326C14.3891 15.4923 14.3009 15.4332 14.2267 15.3587L13.8264 14.9584C13.6806 14.8074 13.5999 14.6051 13.6017 14.3952C13.6035 14.1853 13.6877 13.9845 13.8362 13.8361C13.9846 13.6876 14.1854 13.6034 14.3953 13.6016C14.6053 13.5998 14.8075 13.6805 14.9585 13.8263L15.3588 14.2266C15.4707 14.3386 15.5469 14.4812 15.5778 14.6365C15.6087 14.7918 15.5928 14.9527 15.5323 15.099C15.4717 15.2453 15.3691 15.3703 15.2375 15.4583C15.1058 15.5462 14.9511 15.5932 14.7928 15.5932Z" fill="#717171"/>
<path d="M13.9638 17.5934H13.3978C13.1854 17.5934 12.9818 17.5091 12.8317 17.3589C12.6815 17.2088 12.5972 17.0051 12.5972 16.7928C12.5972 16.5805 12.6815 16.3768 12.8317 16.2267C12.9818 16.0765 13.1854 15.9922 13.3978 15.9922H13.9638C14.1761 15.9922 14.3798 16.0765 14.5299 16.2267C14.6801 16.3768 14.7644 16.5805 14.7644 16.7928C14.7644 17.0051 14.6801 17.2088 14.5299 17.3589C14.3798 17.5091 14.1761 17.5934 13.9638 17.5934Z" fill="#717171"/>
<path d="M16.7944 14.761C16.582 14.761 16.3784 14.6766 16.2283 14.5265C16.0781 14.3764 15.9938 14.1727 15.9938 13.9604V13.3944C15.9938 13.182 16.0781 12.9784 16.2283 12.8282C16.3784 12.6781 16.582 12.5938 16.7944 12.5938C17.0067 12.5938 17.2104 12.6781 17.3605 12.8282C17.5106 12.9784 17.595 13.182 17.595 13.3944V13.9604C17.595 14.1727 17.5106 14.3764 17.3605 14.5265C17.2104 14.6766 17.0067 14.761 16.7944 14.761Z" fill="#717171"/>
</svg>
