<svg width="32" height="32" viewBox="0 0 32 32" fill="none" xmlns="http://www.w3.org/2000/svg">
<path d="M19.6299 28.7814H12.3682L13.3067 24.8117L13.5248 23.8906H18.4732L18.6913 24.8117L19.6299 28.7814Z" fill="#72C2E9"/>
<path d="M18.6913 24.8117H13.3066L13.5247 23.8906H18.4732L18.6913 24.8117Z" fill="#4BA5C8"/>
<path d="M30.3757 1.33594H1.62234C0.905408 1.33594 0.324219 1.92504 0.324219 2.65173V22.5859C0.324219 23.3126 0.905408 23.9017 1.62234 23.9017H30.3757C31.0927 23.9017 31.6739 23.3126 31.6739 22.5859V2.65173C31.6739 1.92504 31.0927 1.33594 30.3757 1.33594Z" fill="#72C2E9"/>
<path d="M29.7266 3.30469V21.9231H2.27129V3.30469H29.7266Z" fill="#EFEFEF"/>
<path d="M20.7599 6.95222V13.1456L19.2346 13.0285L19.4683 16.1443L20.3523 15.2483L20.7599 15.6614V18.2627C20.7599 18.4372 20.6916 18.6046 20.5698 18.7279C20.4481 18.8513 20.283 18.9206 20.1109 18.9206H5.57191C5.39977 18.9206 5.23468 18.8513 5.11296 18.7279C4.99123 18.6046 4.92285 18.4372 4.92285 18.2627V6.94696C4.92285 6.77247 4.99123 6.60513 5.11296 6.48176C5.23468 6.35838 5.39977 6.28906 5.57191 6.28906H20.1109C20.1966 6.28906 20.2814 6.30625 20.3605 6.33964C20.4396 6.37303 20.5113 6.42196 20.5717 6.48361C20.632 6.54526 20.6797 6.61841 20.712 6.69884C20.7443 6.77927 20.7606 6.86538 20.7599 6.95222Z" fill="#FED402"/>
<path d="M20.7592 13.1527L19.2339 13.0356L19.4676 16.1514L20.3516 15.2554L20.7592 15.6685V16.9725L20.3516 16.558L20.1101 16.8027C19.9872 16.9274 19.8316 17.0136 19.6617 17.0513C19.4918 17.0889 19.3149 17.0764 19.1519 17.0152C18.9888 16.9539 18.8465 16.8466 18.7419 16.7058C18.6372 16.5651 18.5746 16.3969 18.5615 16.2211L18.3278 13.108C18.3179 12.9757 18.3363 12.8427 18.3818 12.7183C18.4273 12.5938 18.4988 12.4808 18.5913 12.387C18.6839 12.2931 18.7954 12.2207 18.9182 12.1746C19.041 12.1284 19.1721 12.1098 19.3027 12.1198L20.7592 12.2317V13.1527Z" fill="#E8A61E"/>
<path d="M20.1105 6.29688H8.53516L9.34129 8.23503C9.39196 8.35272 9.4755 8.4528 9.5816 8.52294C9.68771 8.59308 9.81175 8.63022 9.93843 8.62977H20.7596V6.95477C20.7596 6.78029 20.6912 6.61295 20.5695 6.48957C20.4477 6.36619 20.2826 6.29688 20.1105 6.29688Z" fill="#FB5E3D"/>
<path d="M28.6882 21.1945H5.12725C5.04118 21.1945 4.95864 21.1598 4.89777 21.0981C4.83691 21.0365 4.80272 20.9528 4.80272 20.8655C4.80272 20.7783 4.83691 20.6946 4.89777 20.6329C4.95864 20.5713 5.04118 20.5366 5.12725 20.5366H28.3636V4.35238C28.3636 4.26514 28.3978 4.18147 28.4587 4.11978C28.5195 4.05809 28.6021 4.02344 28.6882 4.02344C28.7742 4.02344 28.8568 4.05809 28.9176 4.11978C28.9785 4.18147 29.0127 4.26514 29.0127 4.35238V20.8655C29.0127 20.9528 28.9785 21.0365 28.9176 21.0981C28.8568 21.1598 28.7742 21.1945 28.6882 21.1945ZM3.82913 21.1945H3.30988C3.22381 21.1945 3.14127 21.1598 3.0804 21.0981C3.01954 21.0365 2.98535 20.9528 2.98535 20.8655C2.98535 20.7783 3.01954 20.6946 3.0804 20.6329C3.14127 20.5713 3.22381 20.5366 3.30988 20.5366H3.82913C3.9152 20.5366 3.99775 20.5713 4.05861 20.6329C4.11947 20.6946 4.15366 20.7783 4.15366 20.8655C4.15366 20.9528 4.11947 21.0365 4.05861 21.0981C3.99775 21.1598 3.9152 21.1945 3.82913 21.1945Z" fill="white"/>
<path d="M21.3098 28.7891H10.6886C10.1745 28.7891 9.75781 29.2112 9.75781 29.7318C9.75781 30.2525 10.1745 30.6746 10.6886 30.6746H21.3098C21.8238 30.6746 22.2406 30.2525 22.2406 29.7318C22.2406 29.2112 21.8238 28.7891 21.3098 28.7891Z" fill="#72C2E9"/>
<path d="M26.3479 6.29688H24.7291C24.3707 6.29688 24.0801 6.59142 24.0801 6.95477V8.59556C24.0801 8.9589 24.3707 9.25345 24.7291 9.25345H26.3479C26.7064 9.25345 26.997 8.9589 26.997 8.59556V6.95477C26.997 6.59142 26.7064 6.29688 26.3479 6.29688Z" fill="#FB5E3D"/>
<path d="M26.3479 11.1328H24.7291C24.3707 11.1328 24.0801 11.4274 24.0801 11.7907V13.4315C24.0801 13.7948 24.3707 14.0894 24.7291 14.0894H26.3479C26.7064 14.0894 26.997 13.7948 26.997 13.4315V11.7907C26.997 11.4274 26.7064 11.1328 26.3479 11.1328Z" fill="#13BF6D"/>
<path d="M26.3479 15.9688H24.7291C24.3707 15.9688 24.0801 16.2633 24.0801 16.6266V18.2674C24.0801 18.6308 24.3707 18.9253 24.7291 18.9253H26.3479C26.7064 18.9253 26.997 18.6308 26.997 18.2674V16.6266C26.997 16.2633 26.7064 15.9688 26.3479 15.9688Z" fill="#F0C020"/>
<path d="M22.8808 15.647L21.8073 16.7351L20.7597 15.672L20.3521 15.2588L19.468 16.1549L19.2344 13.0391L20.7597 13.1562L22.3083 13.2759L21.4256 14.172L22.8808 15.647Z" fill="#EFEFEF"/>
<path d="M17.2548 10.2734H8.42752C8.21244 10.2734 8.03809 10.4502 8.03809 10.6682V13.6919C8.03809 13.9099 8.21244 14.0866 8.42752 14.0866H17.2548C17.4698 14.0866 17.6442 13.9099 17.6442 13.6919V10.6682C17.6442 10.4502 17.4698 10.2734 17.2548 10.2734Z" fill="#EFEFEF"/>
<path d="M31.9987 2.64474C31.998 2.20874 31.8268 1.7908 31.5227 1.4825C31.2185 1.1742 30.8062 1.0007 30.3761 1H1.62265C1.19251 1.0007 0.78018 1.1742 0.476022 1.4825C0.171865 1.7908 0.000686583 2.20874 0 2.64474V22.5789C0.000686583 23.0149 0.171865 23.4329 0.476022 23.7412C0.78018 24.0495 1.19251 24.223 1.62265 24.2237H6.24007C6.32614 24.2237 6.40869 24.189 6.46955 24.1273C6.53041 24.0656 6.5646 23.982 6.5646 23.8947C6.5646 23.8075 6.53041 23.7238 6.46955 23.6621C6.40869 23.6004 6.32614 23.5658 6.24007 23.5658H1.62265C1.36476 23.5648 1.11771 23.4604 0.935352 23.2756C0.75299 23.0908 0.650086 22.8404 0.649061 22.5789V2.64474C0.650086 2.38333 0.75299 2.13293 0.935352 1.94808C1.11771 1.76324 1.36476 1.65893 1.62265 1.65789H30.3761C30.6339 1.65893 30.881 1.76324 31.0634 1.94808C31.2457 2.13293 31.3486 2.38333 31.3496 2.64474V22.5789C31.3486 22.8404 31.2457 23.0908 31.0634 23.2756C30.881 23.4604 30.6339 23.5648 30.3761 23.5658H8.83632C8.75024 23.5658 8.6677 23.6004 8.60684 23.6621C8.54598 23.7238 8.51178 23.8075 8.51178 23.8947C8.51178 23.982 8.54598 24.0656 8.60684 24.1273C8.6677 24.189 8.75024 24.2237 8.83632 24.2237H13.1201L12.1193 28.4566H10.6913C10.3656 28.4672 10.0567 28.6058 9.82992 28.8432C9.60318 29.0805 9.47641 29.3979 9.47641 29.7283C9.47641 30.0587 9.60318 30.3761 9.82992 30.6134C10.0567 30.8507 10.3656 30.9894 10.6913 31H21.3152C21.6409 30.9894 21.9498 30.8507 22.1766 30.6134C22.4033 30.3761 22.5301 30.0587 22.5301 29.7283C22.5301 29.3979 22.4033 29.0805 22.1766 28.8432C21.9498 28.6058 21.6409 28.4672 21.3152 28.4566H19.8872L18.8864 24.2237H30.3773C30.8075 24.223 31.2198 24.0495 31.524 23.7412C31.8281 23.4329 31.9993 23.0149 32 22.5789L31.9987 2.64474ZM21.3113 29.1145C21.467 29.1218 21.614 29.1896 21.7217 29.304C21.8294 29.4183 21.8894 29.5702 21.8894 29.7283C21.8894 29.8863 21.8294 30.0383 21.7217 30.1526C21.614 30.2669 21.467 30.3348 21.3113 30.3421H10.6874C10.5317 30.3348 10.3847 30.2669 10.277 30.1526C10.1693 30.0383 10.1093 29.8863 10.1093 29.7283C10.1093 29.5702 10.1693 29.4183 10.277 29.304C10.3847 29.1896 10.5317 29.1218 10.6874 29.1145H21.3113ZM19.2187 28.4566H12.78L13.7809 24.2237H18.2178L19.2187 28.4566Z" fill="black"/>
<path d="M7.5384 24.2282C7.71763 24.2282 7.86293 24.0809 7.86293 23.8993C7.86293 23.7176 7.71763 23.5703 7.5384 23.5703C7.35916 23.5703 7.21387 23.7176 7.21387 23.8993C7.21387 24.0809 7.35916 24.2282 7.5384 24.2282Z" fill="black"/>
<path d="M29.7269 8.50164C29.9061 8.50164 30.0514 8.35437 30.0514 8.1727C30.0514 7.99102 29.9061 7.84375 29.7269 7.84375C29.5476 7.84375 29.4023 7.99102 29.4023 8.1727C29.4023 8.35437 29.5476 8.50164 29.7269 8.50164Z" fill="black"/>
<path d="M30.0516 3.2977C30.0518 3.25445 30.0435 3.2116 30.0272 3.17161C30.011 3.13162 29.9871 3.09529 29.9569 3.06471C29.9268 3.03413 29.8909 3.00991 29.8515 2.99344C29.812 2.97697 29.7697 2.96858 29.7271 2.96875H2.2718C2.18583 2.9691 2.10348 3.00387 2.0427 3.06548C1.98191 3.1271 1.94761 3.21056 1.94727 3.2977V21.9161C1.94727 22.0034 1.98146 22.087 2.04232 22.1487C2.10318 22.2104 2.18573 22.2451 2.2718 22.2451H29.7271C29.7697 22.2452 29.812 22.2369 29.8515 22.2204C29.8909 22.2039 29.9268 22.1797 29.9569 22.1491C29.9871 22.1185 30.011 22.0822 30.0272 22.0422C30.0435 22.0022 30.0518 21.9594 30.0516 21.9161V9.48191C30.0516 9.39467 30.0174 9.311 29.9565 9.24931C29.8957 9.18762 29.8131 9.15296 29.7271 9.15296C29.641 9.15296 29.5585 9.18762 29.4976 9.24931C29.4367 9.311 29.4025 9.39467 29.4025 9.48191V21.5872H2.59633V3.62665H29.4025V6.85033C29.4025 6.93757 29.4367 7.02124 29.4976 7.08293C29.5585 7.14462 29.641 7.17928 29.7271 7.17928C29.8131 7.17928 29.8957 7.14462 29.9565 7.08293C30.0174 7.02124 30.0516 6.93757 30.0516 6.85033V3.2977Z" fill="black"/>
<path d="M27.3218 6.9634C27.3218 6.70168 27.2192 6.45067 27.0366 6.2656C26.8541 6.08053 26.6064 5.97656 26.3482 5.97656H24.7295C24.4712 5.97656 24.2236 6.08053 24.041 6.2656C23.8584 6.45067 23.7559 6.70168 23.7559 6.9634V8.60288C23.7559 8.86461 23.8584 9.11561 24.041 9.30068C24.2236 9.48575 24.4712 9.58972 24.7295 9.58972H26.3482C26.6064 9.58972 26.8541 9.48575 27.0366 9.30068C27.2192 9.11561 27.3218 8.86461 27.3218 8.60288V6.9634ZM26.6727 8.60288C26.6727 8.69012 26.6385 8.77379 26.5777 8.83548C26.5168 8.89717 26.4343 8.93183 26.3482 8.93183H24.7295C24.6434 8.93183 24.5608 8.89717 24.5 8.83548C24.4391 8.77379 24.4049 8.69012 24.4049 8.60288V6.9634C24.4049 6.87616 24.4391 6.79249 24.5 6.7308C24.5608 6.66911 24.6434 6.63446 24.7295 6.63446H26.3482C26.4343 6.63446 26.5168 6.66911 26.5777 6.7308C26.6385 6.79249 26.6727 6.87616 26.6727 6.9634V8.60288Z" fill="black"/>
<path d="M27.3218 11.7915C27.3218 11.5298 27.2192 11.2788 27.0366 11.0937C26.8541 10.9087 26.6064 10.8047 26.3482 10.8047H24.7295C24.4712 10.8047 24.2236 10.9087 24.041 11.0937C23.8584 11.2788 23.7559 11.5298 23.7559 11.7915V13.431C23.7559 13.6927 23.8584 13.9437 24.041 14.1288C24.2236 14.3139 24.4712 14.4178 24.7295 14.4178H26.3482C26.6064 14.4178 26.8541 14.3139 27.0366 14.1288C27.2192 13.9437 27.3218 13.6927 27.3218 13.431V11.7915ZM26.6727 13.431C26.6727 13.5182 26.6385 13.6019 26.5777 13.6636C26.5168 13.7253 26.4343 13.76 26.3482 13.76H24.7295C24.6434 13.76 24.5608 13.7253 24.5 13.6636C24.4391 13.6019 24.4049 13.5182 24.4049 13.431V11.7915C24.4049 11.7043 24.4391 11.6206 24.5 11.5589C24.5608 11.4972 24.6434 11.4626 24.7295 11.4626H26.3482C26.4343 11.4626 26.5168 11.4972 26.5777 11.5589C26.6385 11.6206 26.6727 11.7043 26.6727 11.7915V13.431Z" fill="black"/>
<path d="M26.3482 15.6406H24.7295C24.4712 15.6406 24.2236 15.7446 24.041 15.9297C23.8584 16.1147 23.7559 16.3657 23.7559 16.6275V18.2669C23.7559 18.5287 23.8584 18.7797 24.041 18.9647C24.2236 19.1498 24.4712 19.2538 24.7295 19.2538H26.3482C26.6064 19.2538 26.8541 19.1498 27.0366 18.9647C27.2192 18.7797 27.3218 18.5287 27.3218 18.2669V16.6275C27.3218 16.3657 27.2192 16.1147 27.0366 15.9297C26.8541 15.7446 26.6064 15.6406 26.3482 15.6406ZM26.6727 18.2722C26.6727 18.3594 26.6385 18.4431 26.5777 18.5048C26.5168 18.5665 26.4343 18.6012 26.3482 18.6012H24.7295C24.6434 18.6012 24.5608 18.5665 24.5 18.5048C24.4391 18.4431 24.4049 18.3594 24.4049 18.2722V16.6275C24.4049 16.5402 24.4391 16.4566 24.5 16.3949C24.5608 16.3332 24.6434 16.2985 24.7295 16.2985H26.3482C26.4343 16.2985 26.5168 16.3332 26.5777 16.3949C26.6385 16.4566 26.6727 16.5402 26.6727 16.6275V18.2722Z" fill="black"/>
<path d="M7.3512 7.57812H6.49055C6.40448 7.57812 6.32193 7.61278 6.26107 7.67447C6.20021 7.73616 6.16602 7.81983 6.16602 7.90707C6.16602 7.99431 6.20021 8.07798 6.26107 8.13967C6.32193 8.20136 6.40448 8.23602 6.49055 8.23602H7.3512C7.43727 8.23602 7.51982 8.20136 7.58068 8.13967C7.64154 8.07798 7.67573 7.99431 7.67573 7.90707C7.67573 7.81983 7.64154 7.73616 7.58068 7.67447C7.51982 7.61278 7.43727 7.57812 7.3512 7.57812Z" fill="black"/>
<path d="M20.1102 5.97656H5.57125C5.31304 5.97656 5.0654 6.08053 4.88281 6.2656C4.70023 6.45067 4.59766 6.70168 4.59766 6.9634V18.2792C4.59766 18.5409 4.70023 18.7919 4.88281 18.977C5.0654 19.1621 5.31304 19.266 5.57125 19.266H20.1102C20.3684 19.266 20.6161 19.1621 20.7986 18.977C20.9812 18.7919 21.0838 18.5409 21.0838 18.2792V16.4674L21.5771 16.9687C21.6381 17.0302 21.7208 17.0648 21.8069 17.0648C21.893 17.0648 21.9756 17.0302 22.0366 16.9687L23.1102 15.8805C23.1706 15.8185 23.2044 15.7348 23.2044 15.6476C23.2044 15.5604 23.1706 15.4768 23.1102 15.4147L21.8834 14.1726L22.5325 13.5147C22.5764 13.4702 22.6068 13.4139 22.62 13.3524C22.6333 13.2909 22.6288 13.2268 22.6072 13.1678C22.5856 13.1088 22.5478 13.0573 22.4982 13.0195C22.4486 12.9816 22.3893 12.9589 22.3274 12.9542L21.0786 12.8581V6.9634C21.0786 6.70259 20.9768 6.45237 20.7953 6.26746C20.6138 6.08254 20.3675 5.97795 20.1102 5.97656ZM20.1102 6.63446C20.1963 6.63446 20.2788 6.66911 20.3397 6.7308C20.4006 6.79249 20.4347 6.87616 20.4347 6.9634V8.30946H9.93813C9.87457 8.30994 9.81227 8.29149 9.75896 8.2564C9.70566 8.22132 9.66369 8.17114 9.63826 8.11209L9.02295 6.6384L20.1102 6.63446ZM20.4347 18.2739C20.4347 18.3612 20.4006 18.4448 20.3397 18.5065C20.2788 18.5682 20.1963 18.6029 20.1102 18.6029H5.57125C5.48518 18.6029 5.40263 18.5682 5.34177 18.5065C5.28091 18.4448 5.24672 18.3612 5.24672 18.2739V6.95814C5.24672 6.8709 5.28091 6.78723 5.34177 6.72554C5.40263 6.66385 5.48518 6.62919 5.57125 6.62919H8.31937L9.04243 8.35946C9.11643 8.53826 9.24096 8.69088 9.40034 8.79811C9.55972 8.90534 9.74683 8.96239 9.93813 8.96209H20.4347V12.7963L19.2586 12.7068C19.212 12.7031 19.1651 12.7096 19.1212 12.726C19.0773 12.7424 19.0375 12.7682 19.0044 12.8018C18.9713 12.8353 18.9458 12.8757 18.9296 12.9202C18.9135 12.9647 18.907 13.0122 18.9107 13.0595L19.1444 16.1752C19.1491 16.238 19.1714 16.2981 19.2088 16.3484C19.2461 16.3986 19.2969 16.437 19.3552 16.4589C19.4134 16.4808 19.4766 16.4853 19.5372 16.4718C19.5979 16.4584 19.6535 16.4276 19.6974 16.3831L20.3465 15.7252L20.4296 15.8095L20.4347 18.2739ZM21.5797 13.5502L21.1903 13.945C21.1298 14.007 21.096 14.0907 21.096 14.1779C21.096 14.2651 21.1298 14.3487 21.1903 14.4108L22.4157 15.6529L21.8069 16.27L20.9903 15.4424L20.5827 15.0292C20.5217 14.9676 20.4391 14.9331 20.353 14.9331C20.2669 14.9331 20.1842 14.9676 20.1232 15.0292L19.7338 15.4239L19.5819 13.4042L21.5797 13.5502Z" fill="black"/>
<path d="M17.2551 9.94531H8.42783C8.23858 9.94566 8.05718 10.022 7.92336 10.1577C7.78954 10.2933 7.71421 10.4772 7.71387 10.669V13.6953C7.71387 13.8872 7.78909 14.0713 7.92298 14.207C8.05688 14.3428 8.23848 14.419 8.42783 14.419H17.2551C17.4444 14.419 17.626 14.3428 17.7599 14.207C17.8938 14.0713 17.969 13.8872 17.969 13.6953V10.669C17.9687 10.4772 17.8934 10.2933 17.7595 10.1577C17.6257 10.022 17.4443 9.94566 17.2551 9.94531ZM17.32 13.6927C17.32 13.7101 17.3131 13.7269 17.301 13.7392C17.2888 13.7515 17.2723 13.7585 17.2551 13.7585H8.42783C8.41062 13.7585 8.39411 13.7515 8.38194 13.7392C8.36977 13.7269 8.36293 13.7101 8.36293 13.6927V10.6664C8.36293 10.6489 8.36977 10.6322 8.38194 10.6198C8.39411 10.6075 8.41062 10.6006 8.42783 10.6006H17.2551C17.2723 10.6006 17.2888 10.6075 17.301 10.6198C17.3131 10.6322 17.32 10.6489 17.32 10.6664V13.6927Z" fill="black"/>
<path d="M10.0128 15.4062H8.0384C7.95233 15.4063 7.86978 15.4409 7.80892 15.5026C7.74806 15.5643 7.71387 15.648 7.71387 15.7352C7.71387 15.8224 7.74806 15.9061 7.80892 15.9678C7.86978 16.0295 7.95233 16.0641 8.0384 16.0641H10.0128C10.0989 16.0641 10.1815 16.0295 10.2423 15.9678C10.3032 15.9061 10.3374 15.8224 10.3374 15.7352C10.3374 15.648 10.3032 15.5643 10.2423 15.5026C10.1815 15.4409 10.0989 15.4062 10.0128 15.4062Z" fill="black"/>
<path d="M10.0128 16.8672H8.0384C7.95233 16.8672 7.86978 16.9018 7.80892 16.9635C7.74806 17.0252 7.71387 17.1089 7.71387 17.1961C7.71387 17.2834 7.74806 17.367 7.80892 17.4287C7.86978 17.4904 7.95233 17.5251 8.0384 17.5251H10.0128C10.0989 17.5251 10.1815 17.4904 10.2423 17.4287C10.3032 17.367 10.3374 17.2834 10.3374 17.1961C10.3374 17.1089 10.3032 17.0252 10.2423 16.9635C10.1815 16.9018 10.0989 16.8672 10.0128 16.8672Z" fill="black"/>
<path d="M13.8279 15.4062H11.8548C11.7687 15.4063 11.6862 15.4409 11.6253 15.5026C11.5645 15.5643 11.5303 15.648 11.5303 15.7352C11.5303 15.8224 11.5645 15.9061 11.6253 15.9678C11.6862 16.0295 11.7687 16.0641 11.8548 16.0641H13.8279C13.914 16.0641 13.9966 16.0295 14.0574 15.9678C14.1183 15.9061 14.1525 15.8224 14.1525 15.7352C14.1525 15.648 14.1183 15.5643 14.0574 15.5026C13.9966 15.4409 13.914 15.4062 13.8279 15.4062Z" fill="black"/>
<path d="M13.8279 16.8672H11.8548C11.7687 16.8672 11.6862 16.9018 11.6253 16.9635C11.5645 17.0252 11.5303 17.1089 11.5303 17.1961C11.5303 17.2834 11.5645 17.367 11.6253 17.4287C11.6862 17.4904 11.7687 17.5251 11.8548 17.5251H13.8279C13.914 17.5251 13.9966 17.4904 14.0574 17.4287C14.1183 17.367 14.1525 17.2834 14.1525 17.1961C14.1525 17.1089 14.1183 17.0252 14.0574 16.9635C13.9966 16.9018 13.914 16.8672 13.8279 16.8672Z" fill="black"/>
<path d="M17.6437 15.4062H15.6693C15.5832 15.4063 15.5006 15.4409 15.4398 15.5026C15.3789 15.5643 15.3447 15.648 15.3447 15.7352C15.3447 15.8224 15.3789 15.9061 15.4398 15.9678C15.5006 16.0295 15.5832 16.0641 15.6693 16.0641H17.6437C17.7298 16.0641 17.8123 16.0295 17.8732 15.9678C17.934 15.9061 17.9682 15.8224 17.9682 15.7352C17.9682 15.648 17.934 15.5643 17.8732 15.5026C17.8123 15.4409 17.7298 15.4062 17.6437 15.4062Z" fill="black"/>
<path d="M17.6437 16.8672H15.6693C15.5832 16.8672 15.5006 16.9018 15.4398 16.9635C15.3789 17.0252 15.3447 17.1089 15.3447 17.1961C15.3447 17.2834 15.3789 17.367 15.4398 17.4287C15.5006 17.4904 15.5832 17.5251 15.6693 17.5251H17.6437C17.7298 17.5251 17.8123 17.4904 17.8732 17.4287C17.934 17.367 17.9682 17.2834 17.9682 17.1961C17.9682 17.1089 17.934 17.0252 17.8732 16.9635C17.8123 16.9018 17.7298 16.8672 17.6437 16.8672Z" fill="black"/>
<path d="M11.378 12.6623C11.3327 12.7083 11.3018 12.767 11.2894 12.8307C11.2769 12.8945 11.2834 12.9606 11.308 13.0207C11.3326 13.0808 11.3742 13.1321 11.4275 13.1682C11.4809 13.2043 11.5436 13.2236 11.6077 13.2236C11.6719 13.2236 11.7346 13.2043 11.7879 13.1682C11.8413 13.1321 11.8829 13.0808 11.9075 13.0207C11.9321 12.9606 11.9385 12.8945 11.9261 12.8307C11.9136 12.767 11.8828 12.7083 11.8375 12.6623C11.7752 12.6032 11.6931 12.5703 11.6077 12.5703C11.5224 12.5703 11.4403 12.6032 11.378 12.6623Z" fill="black"/>
<path d="M12.6114 12.6623C12.5661 12.7083 12.5352 12.767 12.5228 12.8307C12.5103 12.8945 12.5168 12.9606 12.5414 13.0207C12.566 13.0808 12.6076 13.1321 12.6609 13.1682C12.7143 13.2043 12.777 13.2236 12.8411 13.2236C12.9053 13.2236 12.968 13.2043 13.0213 13.1682C13.0747 13.1321 13.1163 13.0808 13.1409 13.0207C13.1655 12.9606 13.1719 12.8945 13.1595 12.8307C13.147 12.767 13.1162 12.7083 13.0709 12.6623C13.0086 12.6032 12.9265 12.5703 12.8411 12.5703C12.7558 12.5703 12.6737 12.6032 12.6114 12.6623Z" fill="black"/>
<path d="M13.8448 12.6623C13.7995 12.7083 13.7686 12.767 13.7562 12.8307C13.7437 12.8945 13.7502 12.9606 13.7748 13.0207C13.7994 13.0808 13.841 13.1321 13.8943 13.1682C13.9477 13.2043 14.0104 13.2236 14.0745 13.2236C14.1387 13.2236 14.2014 13.2043 14.2547 13.1682C14.3081 13.1321 14.3497 13.0808 14.3743 13.0207C14.3989 12.9606 14.4053 12.8945 14.3929 12.8307C14.3804 12.767 14.3496 12.7083 14.3043 12.6623C14.242 12.6032 14.1599 12.5703 14.0745 12.5703C13.9892 12.5703 13.9071 12.6032 13.8448 12.6623Z" fill="black"/>
<path d="M19.2523 7.79852H19.3172C19.4032 7.79852 19.4858 7.76386 19.5466 7.70217C19.6075 7.64048 19.6417 7.55681 19.6417 7.46957C19.6417 7.38233 19.6075 7.29866 19.5466 7.23697C19.4858 7.17528 19.4032 7.14062 19.3172 7.14062H19.2523C19.1662 7.14062 19.0836 7.17528 19.0228 7.23697C18.9619 7.29866 18.9277 7.38233 18.9277 7.46957C18.9277 7.55681 18.9619 7.64048 19.0228 7.70217C19.0836 7.76386 19.1662 7.79852 19.2523 7.79852Z" fill="black"/>
<path d="M17.7523 7.79852H17.8172C17.9032 7.79852 17.9858 7.76386 18.0466 7.70217C18.1075 7.64048 18.1417 7.55681 18.1417 7.46957C18.1417 7.38233 18.1075 7.29866 18.0466 7.23697C17.9858 7.17528 17.9032 7.14062 17.8172 7.14062H17.7523C17.6662 7.14062 17.5836 7.17528 17.5228 7.23697C17.4619 7.29866 17.4277 7.38233 17.4277 7.46957C17.4277 7.55681 17.4619 7.64048 17.5228 7.70217C17.5836 7.76386 17.6662 7.79852 17.7523 7.79852Z" fill="black"/>
<path d="M16.2513 7.79852H16.3162C16.4023 7.79852 16.4848 7.76386 16.5457 7.70217C16.6065 7.64048 16.6407 7.55681 16.6407 7.46957C16.6407 7.38233 16.6065 7.29866 16.5457 7.23697C16.4848 7.17528 16.4023 7.14062 16.3162 7.14062H16.2513C16.1652 7.14062 16.0827 7.17528 16.0218 7.23697C15.9609 7.29866 15.9268 7.38233 15.9268 7.46957C15.9268 7.55681 15.9609 7.64048 16.0218 7.70217C16.0827 7.76386 16.1652 7.79852 16.2513 7.79852Z" fill="black"/>
</svg>
