<svg xmlns="http://www.w3.org/2000/svg" xmlns:xlink="http://www.w3.org/1999/xlink" width="32" height="32" viewBox="0 0 32 32">
  <defs>
    <clipPath id="clip-path">
      <rect id="Rectangle_5140" data-name="Rectangle 5140" width="32" height="32" transform="translate(1076 2598)" fill="#fff" stroke="#707070" stroke-width="1"/>
    </clipPath>
  </defs>
  <g id="Mask_Group_388" data-name="Mask Group 388" transform="translate(-1076 -2598)" clip-path="url(#clip-path)">
    <g id="schedule" transform="translate(1076 2598)">
      <g id="Group_2488" data-name="Group 2488">
        <path id="Path_29950" data-name="Path 29950" d="M15.389,26.667H3.2a2.133,2.133,0,0,1-2.133-2.133V22.4H17.438Z" fill="#d3dcfb"/>
        <path id="Path_29951" data-name="Path 29951" d="M28.8,9.6V24.533H3.2A2.133,2.133,0,0,1,1.066,22.4V9.6L16,4.267Z" fill="#ebf5fc"/>
        <g id="Group_2481" data-name="Group 2481">
          <path id="Path_29952" data-name="Path 29952" d="M4.833,13.867H3.7a.5.5,0,0,1-.5-.5V12.233a.5.5,0,0,1,.5-.5H4.833a.5.5,0,0,1,.5.5v1.133A.5.5,0,0,1,4.833,13.867Z" fill="#3c58a0"/>
          <path id="Path_29953" data-name="Path 29953" d="M9.1,13.867H7.967a.5.5,0,0,1-.5-.5V12.233a.5.5,0,0,1,.5-.5H9.1a.5.5,0,0,1,.5.5v1.133A.5.5,0,0,1,9.1,13.867Z" fill="#3c58a0"/>
          <path id="Path_29954" data-name="Path 29954" d="M13.367,13.867H12.234a.5.5,0,0,1-.5-.5V12.233a.5.5,0,0,1,.5-.5h1.133a.5.5,0,0,1,.5.5v1.133A.5.5,0,0,1,13.367,13.867Z" fill="#3c58a0"/>
          <path id="Path_29955" data-name="Path 29955" d="M17.633,13.867H16.5a.5.5,0,0,1-.5-.5V12.233a.5.5,0,0,1,.5-.5h1.133a.5.5,0,0,1,.5.5v1.133A.5.5,0,0,1,17.633,13.867Z" fill="#3c58a0"/>
          <path id="Path_29956" data-name="Path 29956" d="M21.9,13.867H20.766a.5.5,0,0,1-.5-.5V12.233a.5.5,0,0,1,.5-.5H21.9a.5.5,0,0,1,.5.5v1.133A.5.5,0,0,1,21.9,13.867Z" fill="#3c58a0"/>
          <path id="Path_29957" data-name="Path 29957" d="M26.166,13.867H25.033a.5.5,0,0,1-.5-.5V12.233a.5.5,0,0,1,.5-.5h1.133a.5.5,0,0,1,.5.5v1.133A.5.5,0,0,1,26.166,13.867Z" fill="#3c58a0"/>
          <path id="Path_29958" data-name="Path 29958" d="M4.833,18.133H3.7a.5.5,0,0,1-.5-.5V16.5a.5.5,0,0,1,.5-.5H4.833a.5.5,0,0,1,.5.5v1.133A.5.5,0,0,1,4.833,18.133Z" fill="#3c58a0"/>
          <path id="Path_29959" data-name="Path 29959" d="M9.1,18.133H7.967a.5.5,0,0,1-.5-.5V16.5a.5.5,0,0,1,.5-.5H9.1a.5.5,0,0,1,.5.5v1.133A.5.5,0,0,1,9.1,18.133Z" fill="#3c58a0"/>
          <path id="Path_29960" data-name="Path 29960" d="M13.367,18.133H12.234a.5.5,0,0,1-.5-.5V16.5a.5.5,0,0,1,.5-.5h1.133a.5.5,0,0,1,.5.5v1.133A.5.5,0,0,1,13.367,18.133Z" fill="#3c58a0"/>
          <path id="Path_29961" data-name="Path 29961" d="M18.133,18.133v-1.6A.533.533,0,0,0,17.6,16H16.534a.533.533,0,0,0-.533.533V17.6a.533.533,0,0,0,.533.533Z" fill="#3c58a0"/>
          <path id="Path_29962" data-name="Path 29962" d="M4.833,22.4H3.7a.5.5,0,0,1-.5-.5V20.767a.5.5,0,0,1,.5-.5H4.833a.5.5,0,0,1,.5.5V21.9A.5.5,0,0,1,4.833,22.4Z" fill="#3c58a0"/>
          <path id="Path_29963" data-name="Path 29963" d="M9.1,22.4H7.967a.5.5,0,0,1-.5-.5V20.767a.5.5,0,0,1,.5-.5H9.1a.5.5,0,0,1,.5.5V21.9A.5.5,0,0,1,9.1,22.4Z" fill="#3c58a0"/>
          <path id="Path_29964" data-name="Path 29964" d="M13.367,22.4H12.234a.5.5,0,0,1-.5-.5V20.767a.5.5,0,0,1,.5-.5h1.133a.5.5,0,0,1,.5.5V21.9A.5.5,0,0,1,13.367,22.4Z" fill="#3c58a0"/>
        </g>
        <path id="Path_29965" data-name="Path 29965" d="M26.151,11.733h-1.1a.514.514,0,0,0-.189.036.515.515,0,0,1,.326.479v1.1a.515.515,0,0,1-.326.479.513.513,0,0,0,.189.036h1.1a.515.515,0,0,0,.515-.515v-1.1A.515.515,0,0,0,26.151,11.733Z" fill="#2a428c"/>
        <path id="Path_29966" data-name="Path 29966" d="M21.884,11.733h-1.1a.514.514,0,0,0-.189.036.515.515,0,0,1,.326.479v1.1a.515.515,0,0,1-.326.479.513.513,0,0,0,.189.036h1.1a.515.515,0,0,0,.515-.515v-1.1A.515.515,0,0,0,21.884,11.733Z" fill="#2a428c"/>
        <path id="Path_29967" data-name="Path 29967" d="M17.618,11.733h-1.1a.514.514,0,0,0-.189.036.515.515,0,0,1,.326.479v1.1a.515.515,0,0,1-.326.479.513.513,0,0,0,.189.036h1.1a.515.515,0,0,0,.515-.515v-1.1A.515.515,0,0,0,17.618,11.733Z" fill="#2a428c"/>
        <path id="Path_29968" data-name="Path 29968" d="M13.352,11.733h-1.1a.514.514,0,0,0-.189.036.515.515,0,0,1,.326.479v1.1a.515.515,0,0,1-.326.479.513.513,0,0,0,.189.036h1.1a.515.515,0,0,0,.515-.515v-1.1A.515.515,0,0,0,13.352,11.733Z" fill="#2a428c"/>
        <path id="Path_29969" data-name="Path 29969" d="M9.085,11.733h-1.1a.514.514,0,0,0-.189.036.515.515,0,0,1,.326.479v1.1a.515.515,0,0,1-.326.479.513.513,0,0,0,.189.036h1.1a.515.515,0,0,0,.515-.515v-1.1A.515.515,0,0,0,9.085,11.733Z" fill="#2a428c"/>
        <path id="Path_29970" data-name="Path 29970" d="M4.818,11.733h-1.1a.514.514,0,0,0-.189.036.515.515,0,0,1,.326.479v1.1a.515.515,0,0,1-.326.479.513.513,0,0,0,.189.036h1.1a.515.515,0,0,0,.515-.515v-1.1A.515.515,0,0,0,4.818,11.733Z" fill="#2a428c"/>
        <path id="Path_29971" data-name="Path 29971" d="M4.818,16h-1.1a.514.514,0,0,0-.189.036.515.515,0,0,1,.326.479v1.1a.515.515,0,0,1-.326.479.513.513,0,0,0,.189.036h1.1a.515.515,0,0,0,.515-.515v-1.1A.515.515,0,0,0,4.818,16Z" fill="#2a428c"/>
        <path id="Path_29972" data-name="Path 29972" d="M4.818,20.267h-1.1a.514.514,0,0,0-.189.036.515.515,0,0,1,.326.479v1.1a.515.515,0,0,1-.326.479.513.513,0,0,0,.189.036h1.1a.515.515,0,0,0,.515-.515v-1.1a.515.515,0,0,0-.515-.515Z" fill="#2a428c"/>
        <path id="Path_29973" data-name="Path 29973" d="M9.085,16h-1.1a.514.514,0,0,0-.189.036.515.515,0,0,1,.326.479v1.1a.515.515,0,0,1-.326.479.513.513,0,0,0,.189.036h1.1a.515.515,0,0,0,.515-.515v-1.1A.515.515,0,0,0,9.085,16Z" fill="#2a428c"/>
        <path id="Path_29974" data-name="Path 29974" d="M9.085,20.267h-1.1a.514.514,0,0,0-.189.036.515.515,0,0,1,.326.479v1.1a.515.515,0,0,1-.326.479.513.513,0,0,0,.189.036h1.1a.515.515,0,0,0,.515-.515v-1.1a.515.515,0,0,0-.515-.515Z" fill="#2a428c"/>
        <path id="Path_29975" data-name="Path 29975" d="M13.352,16h-1.1a.514.514,0,0,0-.189.036.515.515,0,0,1,.326.479v1.1a.515.515,0,0,1-.326.479.513.513,0,0,0,.189.036h1.1a.515.515,0,0,0,.515-.515v-1.1A.515.515,0,0,0,13.352,16Z" fill="#2a428c"/>
        <path id="Path_29976" data-name="Path 29976" d="M18.133,18.133V16.515A.515.515,0,0,0,17.618,16h-1.1a.514.514,0,0,0-.189.036.515.515,0,0,1,.326.479v1.1a.515.515,0,0,1-.326.479.513.513,0,0,0,.189.036h1.618Z" fill="#2a428c"/>
        <path id="Path_29977" data-name="Path 29977" d="M13.352,20.267h-1.1a.514.514,0,0,0-.189.036.515.515,0,0,1,.326.479v1.1a.515.515,0,0,1-.326.479.513.513,0,0,0,.189.036h1.1a.515.515,0,0,0,.515-.515v-1.1a.515.515,0,0,0-.515-.515Z" fill="#2a428c"/>
        <path id="Path_29978" data-name="Path 29978" d="M27.32,8.983V24.533H28.8V9.6Z" fill="#d3dcfb"/>
        <path id="Path_29979" data-name="Path 29979" d="M28.8,9.6V4.267a2.133,2.133,0,0,0-2.133-2.133H3.2A2.133,2.133,0,0,0,1.066,4.267V9.6Z" fill="#ff4155"/>
        <g id="Group_2487" data-name="Group 2487">
          <g id="Group_2486" data-name="Group 2486">
            <g id="Group_2482" data-name="Group 2482">
              <path id="Path_29980" data-name="Path 29980" d="M7.788,4.75H6.4a.483.483,0,0,1,0-.966H7.788a.483.483,0,1,1,0,.966Z" fill="#e80054"/>
            </g>
            <g id="Group_2483" data-name="Group 2483">
              <path id="Path_29981" data-name="Path 29981" d="M11.2,4.75H9.811a.483.483,0,0,1,0-.966H11.2a.483.483,0,0,1,0,.966Z" fill="#e80054"/>
            </g>
            <g id="Group_2484" data-name="Group 2484">
              <path id="Path_29982" data-name="Path 29982" d="M20.055,4.75H18.667a.483.483,0,1,1,0-.966h1.389a.483.483,0,1,1,0,.966Z" fill="#e80054"/>
            </g>
            <g id="Group_2485" data-name="Group 2485">
              <path id="Path_29983" data-name="Path 29983" d="M23.467,4.75H22.078a.483.483,0,1,1,0-.966h1.389a.483.483,0,1,1,0,.966Z" fill="#e80054"/>
            </g>
          </g>
        </g>
        <path id="Path_29984" data-name="Path 29984" d="M10.133,4A1.333,1.333,0,0,1,7.466,4V1.333a1.333,1.333,0,1,1,2.667,0V4Z" fill="#ebf5fc"/>
        <path id="Path_29985" data-name="Path 29985" d="M22.4,4a1.333,1.333,0,0,1-2.667,0V1.333a1.333,1.333,0,0,1,2.667,0V4Z" fill="#ebf5fc"/>
        <path id="Path_29986" data-name="Path 29986" d="M21.067,0a1.327,1.327,0,0,0-.74.224,1.332,1.332,0,0,1,.594,1.109V4a1.332,1.332,0,0,1-.594,1.109A1.333,1.333,0,0,0,22.4,4V1.333A1.333,1.333,0,0,0,21.067,0Z" fill="#d3dcfb"/>
        <path id="Path_29987" data-name="Path 29987" d="M8.8,0a1.327,1.327,0,0,0-.74.224,1.332,1.332,0,0,1,.594,1.109V4A1.332,1.332,0,0,1,8.06,5.109,1.333,1.333,0,0,0,10.133,4V1.333A1.333,1.333,0,0,0,8.8,0Z" fill="#d3dcfb"/>
        <path id="Path_29988" data-name="Path 29988" d="M26.668,2.133H25.187A2.133,2.133,0,0,1,27.32,4.267V9.6H28.8V4.267a2.133,2.133,0,0,0-2.133-2.133Z" fill="#e80054"/>
        <path id="Path_29989" data-name="Path 29989" d="M1.066,6.984H28.8V7.95H1.066Z" fill="#e80054"/>
      </g>
      <circle id="Ellipse_554" data-name="Ellipse 554" cx="8" cy="8" r="8" transform="translate(14.934 16)" fill="#4fabf7"/>
      <circle id="Ellipse_555" data-name="Ellipse 555" cx="5.867" cy="5.867" r="5.867" transform="translate(17.067 18.133)" fill="#ebf5fc"/>
      <g id="Group_2490" data-name="Group 2490">
        <g id="Group_2489" data-name="Group 2489">
          <path id="Path_29990" data-name="Path 29990" d="M22.934,23.416a.483.483,0,0,1-.483-.483V20.267a.483.483,0,0,1,.966,0v2.667A.483.483,0,0,1,22.934,23.416Z" fill="#3c58a0"/>
        </g>
      </g>
      <g id="Group_2492" data-name="Group 2492">
        <g id="Group_2491" data-name="Group 2491">
          <path id="Path_29991" data-name="Path 29991" d="M25.6,24.483H24a.483.483,0,1,1,0-.966h1.6a.483.483,0,0,1,0,.966Z" fill="#3c58a0"/>
        </g>
      </g>
      <path id="Path_29992" data-name="Path 29992" d="M22.934,16c-.25,0-.5.012-.74.034a8,8,0,0,1,0,15.931c.244.022.491.034.74.034a8,8,0,0,0,0-16Z" fill="#1886ea"/>
      <path id="Path_29993" data-name="Path 29993" d="M22.934,18.133a5.924,5.924,0,0,0-.74.046,5.867,5.867,0,0,1,0,11.641,5.867,5.867,0,1,0,.74-11.687Z" fill="#d3dcfb"/>
      <circle id="Ellipse_556" data-name="Ellipse 556" cx="1.067" cy="1.067" r="1.067" transform="translate(21.867 22.933)" fill="#ffdd40"/>
    </g>
  </g>
</svg>
