<svg width="16" height="16" viewBox="0 0 16 16" fill="none" xmlns="http://www.w3.org/2000/svg">
<path d="M4.54363 7.54368C4.41764 7.66966 4.35452 7.83506 4.35452 8.00002C4.35452 8.16499 4.41764 8.33039 4.54363 8.45637L9.99814 13.9109C9.99815 13.9109 9.99816 13.9109 9.99817 13.9109C10.2503 14.1631 10.6587 14.1629 10.9108 13.9109C11.1631 13.6589 11.163 13.2504 10.9109 12.9982L5.91267 8.00002L10.9108 3.00186C10.9108 3.00185 10.9109 3.00184 10.9109 3.00183C11.1631 2.74973 11.1629 2.3413 10.9109 2.08916C10.6588 1.83693 10.2503 1.83697 9.99817 2.08914L4.54363 7.54368Z" fill="#252525" stroke="#252525" stroke-width="0.2"/>
</svg>
