<svg width="17" height="12" viewBox="0 0 17 12" fill="none" xmlns="http://www.w3.org/2000/svg">
<path id="Vector" d="M1.09156 6.22094L5.77906 10.9084C5.90114 11.0305 6.09889 11.0305 6.22094 10.9084C6.34302 10.7864 6.34302 10.5886 6.22094 10.4666L2.06688 6.3125L15.6875 6.3125C15.8602 6.3125 16 6.17272 16 5.99999C16 5.82725 15.8602 5.68748 15.6875 5.68748L2.06688 5.68748L6.22094 1.53345C6.34302 1.41137 6.34302 1.21361 6.22094 1.09156C6.15992 1.03054 6.07994 1.00001 5.99999 1.00001C5.92004 1.00001 5.84009 1.03054 5.77903 1.09156L1.09153 5.77906C0.969483 5.90111 0.969483 6.09886 1.09156 6.22094Z" stroke="white" stroke-width="0.65"/>
</svg>
