<svg xmlns="http://www.w3.org/2000/svg" width="15" height="12.864" viewBox="0 0 15 12.864">
  <path id="Path_2965" data-name="Path 2965" d="M16.9,993.485a1.153,1.153,0,0,0,.186.014H27.669l-.231.107a2.154,2.154,0,0,0-.606.429L23.865,997a1.111,1.111,0,0,0-.156,1.422,1.073,1.073,0,0,0,1.5.232,1.058,1.058,0,0,0,.11-.093l5.366-5.366a1.073,1.073,0,0,0,0-1.518h0l-5.366-5.367a1.069,1.069,0,0,0-1.61.108,1.111,1.111,0,0,0,.156,1.422l2.962,2.973a2.161,2.161,0,0,0,.537.391l.322.145H17.146a1.111,1.111,0,0,0-1.132.9A1.073,1.073,0,0,0,16.9,993.485Z" transform="translate(-16 -986)" fill="#fff"/>
</svg>
