<svg xmlns="http://www.w3.org/2000/svg" width="29.999" height="30" viewBox="0 0 29.999 30">
  <path id="Equaliser" d="M7.481,0a1.5,1.5,0,0,0-1.03.454L.46,6.446a1.5,1.5,0,0,0,0,2.124l5.991,5.992a1.5,1.5,0,1,0,2.112-2.121L5.135,9.012h23.34a1.5,1.5,0,0,0,0-3H5.123l3.44-3.441A1.5,1.5,0,0,0,7.481,0Zm15,14.983a1.5,1.5,0,0,0-1.038,2.577l3.428,3.426H1.531a1.5,1.5,0,1,0,0,3H24.883l-3.44,3.441a1.5,1.5,0,1,0,2.124,2.112l5.991-5.983a1.5,1.5,0,0,0,0-2.124l-5.991-5.992a1.5,1.5,0,0,0-1.085-.453Z" fill="#6d4d40"/>
</svg>
