<svg width="30" height="30" viewBox="0 0 30 30" fill="none" xmlns="http://www.w3.org/2000/svg">
<g id="layer1">
<path id="path49" d="M7.48092 0.00056844C7.09181 0.0121744 6.7225 0.174939 6.45124 0.454204L0.460377 6.44628C0.320475 6.5855 0.209457 6.75087 0.133703 6.93313C0.057948 7.1154 0.0189502 7.31084 0.0189502 7.50822C0.0189502 7.70561 0.057948 7.90105 0.133703 8.08331C0.209457 8.26558 0.320475 8.43112 0.460377 8.57034L6.45124 14.5626C6.58825 14.7111 6.75387 14.8301 6.93815 14.9129C7.12242 14.9957 7.32153 15.0404 7.52351 15.0443C7.72549 15.0481 7.92615 15.011 8.11343 14.9353C8.30072 14.8595 8.47075 14.7468 8.61329 14.6036C8.75584 14.4604 8.86796 14.2898 8.94291 14.1022C9.01785 13.9146 9.05408 13.7137 9.0494 13.5117C9.04473 13.3097 8.99925 13.1107 8.9157 12.9268C8.83215 12.7428 8.71227 12.5777 8.56325 12.4413L5.13489 9.01221H28.4752C28.8668 9.00361 29.2393 8.84203 29.5132 8.56204C29.7871 8.28204 29.9404 7.9058 29.9404 7.51411C29.9404 7.12242 29.7871 6.74634 29.5132 6.46635C29.2393 6.18636 28.8668 6.02478 28.4752 6.01617H5.12318L8.56325 2.57532C8.78032 2.36543 8.92891 2.09486 8.98953 1.79902C9.05015 1.50319 9.01997 1.19591 8.90295 0.917529C8.78592 0.639148 8.58752 0.402605 8.33376 0.238978C8.08 0.0753513 7.78272 -0.00774782 7.48092 0.00056844ZM22.4815 14.9839C22.1828 14.9839 21.8909 15.0733 21.6434 15.2404C21.3959 15.4076 21.204 15.6449 21.0924 15.9219C20.9807 16.199 20.9545 16.5032 21.017 16.7953C21.0794 17.0874 21.2278 17.3542 21.443 17.5614L24.8714 20.9875H1.53101C1.33155 20.9832 1.13323 21.0187 0.947684 21.092C0.762135 21.1654 0.593095 21.275 0.450484 21.4145C0.307873 21.5541 0.194563 21.7207 0.117206 21.9047C0.039848 22.0886 0 22.2861 0 22.4856C0 22.6852 0.039848 22.8827 0.117206 23.0666C0.194563 23.2506 0.307873 23.4172 0.450484 23.5568C0.593095 23.6963 0.762135 23.8059 0.947684 23.8793C1.13323 23.9526 1.33155 23.988 1.53101 23.9836H24.8831L21.443 27.4244C21.2998 27.5629 21.1856 27.7285 21.1071 27.9116C21.0286 28.0948 20.9875 28.2918 20.9861 28.491C20.9846 28.6903 21.0229 28.8878 21.0988 29.072C21.1746 29.2563 21.2864 29.4236 21.4277 29.5641C21.5689 29.7046 21.7368 29.8155 21.9214 29.8904C22.106 29.9652 22.3037 30.0024 22.5029 29.9999C22.7021 29.9973 22.8988 29.955 23.0814 29.8755C23.2641 29.796 23.4291 29.6809 23.5667 29.5369L29.5576 23.5535C29.6975 23.4143 29.8085 23.2489 29.8843 23.0666C29.96 22.8844 29.999 22.6889 29.999 22.4915C29.999 22.2941 29.96 22.0987 29.8843 21.9164C29.8085 21.7342 29.6975 21.5686 29.5576 21.4294L23.5667 15.4373C23.4258 15.2924 23.257 15.1776 23.0705 15.0996C22.884 15.0217 22.6836 14.9823 22.4815 14.9839Z" fill="#09abd9"/>
</g>
</svg>
