<svg width="14" height="16" viewBox="0 0 14 16" fill="none" xmlns="http://www.w3.org/2000/svg">
<g id="Icon">
<path id="Vector" fill-rule="evenodd" clip-rule="evenodd" d="M14 2.7907V13.2093C14 14.7505 12.7946 16 11.3077 16H2.69231C1.20544 16 0 14.7505 0 13.2093V2.7907C0 1.24949 1.20544 0 2.69231 0H11.3077C12.7946 0 14 1.24949 14 2.7907ZM12.9231 2.7907C12.9231 1.86567 12.2001 1.11628 11.3077 1.11628H2.69231C1.7999 1.11628 1.07692 1.86567 1.07692 2.7907V13.2093C1.07692 14.1343 1.7999 14.8837 2.69231 14.8837H11.3077C12.2001 14.8837 12.9231 14.1343 12.9231 13.2093V2.7907Z" fill="#5BB089"/>
<g id="Group 2434">
<path id="Vector_2" fill-rule="evenodd" clip-rule="evenodd" d="M10.59 4.57129C10.8872 4.57129 11.1285 4.82134 11.1285 5.12943C11.1285 5.43752 10.8872 5.68757 10.59 5.68757H3.41053C3.1133 5.68757 2.87207 5.43752 2.87207 5.12943C2.87207 4.82134 3.1133 4.57129 3.41053 4.57129H10.59Z" fill="#5BB089"/>
<path id="Vector_3" fill-rule="evenodd" clip-rule="evenodd" d="M10.59 7.54785C10.8872 7.54785 11.1285 7.7979 11.1285 8.10599C11.1285 8.41408 10.8872 8.66413 10.59 8.66413H3.41053C3.1133 8.66413 2.87207 8.41408 2.87207 8.10599C2.87207 7.7979 3.1133 7.54785 3.41053 7.54785H10.59Z" fill="#5BB089"/>
<path id="Vector_4" fill-rule="evenodd" clip-rule="evenodd" d="M10.59 10.5244C10.8872 10.5244 11.1285 10.7745 11.1285 11.0826C11.1285 11.3906 10.8872 11.6407 10.59 11.6407H3.41053C3.1133 11.6407 2.87207 11.3906 2.87207 11.0826C2.87207 10.7745 3.1133 10.5244 3.41053 10.5244H10.59Z" fill="#5BB089"/>
</g>
</g>
</svg>
