<svg width="14" height="14" viewBox="0 0 14 14" fill="none" xmlns="http://www.w3.org/2000/svg">
<path d="M6.59188 10.0332C6.70455 10.1458 6.85249 10.2023 7.00002 10.2023C7.14755 10.2023 7.29549 10.1458 7.40816 10.0332L12.1809 5.26047C12.1809 5.26046 12.1809 5.26045 12.1809 5.26044C12.4065 5.03497 12.4063 4.66967 12.1809 4.44418C11.9555 4.21859 11.5901 4.21863 11.3646 4.44416L7.00002 8.80874L2.63547 4.44418C2.63546 4.44417 2.63545 4.44417 2.63544 4.44416C2.40997 4.21856 2.04467 4.21879 1.81918 4.44414C1.59359 4.66958 1.59363 5.03491 1.81916 5.26044L6.59188 10.0332Z" fill="#10A37F" stroke="#10A37F" stroke-width="0.2"/>
</svg>
