<svg width="12" height="12" viewBox="0 0 12 12" fill="none" xmlns="http://www.w3.org/2000/svg">
<path d="M0.206396 7.0488L1.6056 7.2408C1.70401 7.5864 1.8408 7.91519 2.01601 8.22719L1.16161 9.3552C1.08959 9.4512 1.0992 9.5856 1.1832 9.66959L2.33041 10.8168C2.4144 10.9008 2.5488 10.9104 2.6448 10.8384L3.77041 9.98399C4.0824 10.1592 4.4136 10.296 4.7568 10.392L4.9512 11.7936C4.968 11.9112 5.0688 12 5.1888 12H6.8088C6.9288 12 7.032 11.9112 7.0464 11.7936L7.2408 10.392C7.58401 10.296 7.91519 10.1592 8.22721 9.98399L9.35281 10.8384C9.4488 10.9104 9.5832 10.9008 9.66721 10.8168L10.8144 9.66959C10.9008 9.5856 10.908 9.4512 10.836 9.3552L9.98161 8.22719C10.1568 7.91519 10.2936 7.5864 10.392 7.2408L11.7912 7.0488C11.9112 7.032 12 6.9312 12 6.8112V5.1888C12 5.0688 11.9112 4.968 11.7912 4.9512L10.392 4.75919C10.2936 4.4136 10.1568 4.08479 9.98161 3.77279L10.836 2.64479C10.908 2.5488 10.9008 2.4144 10.8144 2.33039L9.66721 1.1832C9.5832 1.09919 9.4488 1.08959 9.35281 1.16159L8.22721 2.01599C7.91519 1.8408 7.58401 1.70399 7.2408 1.608L7.0464 0.206396C7.032 0.0887989 6.9288 0 6.8088 0H5.1888C5.0688 0 4.968 0.0887988 4.9512 0.206396L4.7568 1.608C4.4136 1.70399 4.0824 1.8408 3.77041 2.01599L2.6448 1.16159C2.5488 1.08959 2.4144 1.09919 2.33041 1.1832L1.1832 2.33039C1.0992 2.4144 1.08959 2.5488 1.16161 2.64479L2.01601 3.77279C1.8408 4.08479 1.70401 4.4136 1.6056 4.75919L0.206396 4.9512C0.0863965 4.968 0 5.0688 0 5.1888V6.8112C0 6.9312 0.0863965 7.032 0.206396 7.0488ZM6 3.4488C7.4064 3.4488 8.5512 4.5936 8.5512 6C8.5512 7.4064 7.4064 8.5512 6 8.5512C4.5912 8.5512 3.4464 7.4064 3.4464 6C3.4464 4.5936 4.5912 3.4488 6 3.4488Z" fill="#424242"/>
</svg>
