<svg width="100" height="61" viewBox="0 0 100 61" fill="none" xmlns="http://www.w3.org/2000/svg">
<path fill-rule="evenodd" clip-rule="evenodd" d="M28.1812 22.3898C28.1812 23.6115 28.3141 24.6021 28.5469 25.3285C28.813 26.0549 29.1457 26.8474 29.6113 27.7058C29.7775 27.97 29.8441 28.2341 29.8441 28.4653C29.8441 28.7956 29.6446 29.1255 29.2123 29.4558L27.1168 30.8426C26.8174 31.0406 26.5183 31.1398 26.2522 31.1398C25.9195 31.1398 25.5871 30.9748 25.2544 30.6776C24.7888 30.1823 24.3898 29.6539 24.0571 29.1255C23.7244 28.5641 23.392 27.9369 23.026 27.1774C20.4316 30.2153 17.1724 31.734 13.2478 31.734C10.4542 31.734 8.22581 30.9414 6.59621 29.3567C4.96661 27.7716 4.13501 25.6585 4.13501 23.017C4.13501 20.2102 5.13281 17.9321 7.16171 16.2151C9.19061 14.4981 11.8846 13.6397 15.31 13.6397C16.4407 13.6397 17.605 13.7386 18.8356 13.9039C20.0662 14.0689 21.3301 14.3331 22.6603 14.6303V12.2199C22.6603 9.7104 22.1281 7.96063 21.097 6.93698C20.0326 5.91333 18.2368 5.41803 15.6757 5.41803C14.5117 5.41803 13.3144 5.54997 12.0838 5.84721C10.8532 6.14445 9.65591 6.50751 8.49191 6.96974C7.95971 7.20086 7.56071 7.3328 7.32791 7.39892C7.09511 7.46504 6.92891 7.4978 6.79571 7.4978C6.33011 7.4978 6.09731 7.1675 6.09731 6.47415V4.85632C6.09731 4.32796 6.16391 3.93184 6.33011 3.70073C6.49631 3.46961 6.79571 3.23849 7.26131 3.00737C8.42531 2.4129 9.82241 1.9176 11.452 1.52148C13.0819 1.0923 14.8111 0.894244 16.6405 0.894244C20.5984 0.894244 23.4919 1.78566 25.3543 3.56879C27.1837 5.35191 28.1149 8.05922 28.1149 11.6913V22.3895H28.1815L28.1812 22.3898ZM14.6779 27.4085C15.7756 27.4085 16.9063 27.2105 18.1036 26.8144C19.3009 26.4182 20.3653 25.6918 21.2632 24.7012C21.7954 24.074 22.1944 23.3803 22.3942 22.5881C22.5937 21.7956 22.7266 20.838 22.7266 19.7155V18.3288C21.7621 18.0977 20.731 17.8996 19.6669 17.7674C18.6025 17.6354 17.5717 17.5693 16.5406 17.5693C14.3122 17.5693 12.6826 17.9985 11.5849 18.8902C10.4872 19.7816 9.95531 21.0364 9.95531 22.6873C9.95531 24.2393 10.3543 25.3949 11.1859 26.1871C11.9842 27.0127 13.1482 27.4088 14.6782 27.4088L14.6779 27.4085ZM41.3848 30.9745C40.786 30.9745 40.387 30.8756 40.1209 30.6442C39.8548 30.4461 39.622 29.9839 39.4225 29.3564L31.6066 3.83296C31.4071 3.17267 31.3072 2.74349 31.3072 2.51237C31.3072 1.98402 31.5733 1.68678 32.1055 1.68678H35.365C35.9968 1.68678 36.4294 1.78596 36.6622 2.01707C36.9283 2.21513 37.1278 2.67737 37.3273 3.30491L42.9148 25.1632L48.1033 3.30491C48.2695 2.64461 48.469 2.21513 48.7351 2.01707C49.0012 1.81902 49.4668 1.68678 50.0656 1.68678H52.7263C53.3581 1.68678 53.7907 1.78596 54.0568 2.01707C54.3229 2.21513 54.5557 2.67737 54.6886 3.30491L59.9434 25.4274L65.6974 3.30491C65.8969 2.64461 66.1297 2.21513 66.3625 2.01707C66.6286 1.81902 67.0609 1.68678 67.6597 1.68678H70.7527C71.2849 1.68678 71.5843 1.95096 71.5843 2.51237C71.5843 2.67737 71.551 2.84267 71.5177 3.04073C71.4844 3.23879 71.4178 3.50296 71.2849 3.86632L63.2695 29.3897C63.07 30.05 62.8372 30.4792 62.5711 30.6776C62.305 30.8756 61.8727 31.0079 61.3072 31.0079H58.447C57.8149 31.0079 57.3826 30.9087 57.1165 30.6776C56.8504 30.4464 56.6176 30.0173 56.4847 29.3567L51.3295 8.05951L46.2076 29.3236C46.0414 29.9839 45.8416 30.4131 45.5755 30.6442C45.3094 30.8753 44.8438 30.9745 44.2453 30.9745H41.3851H41.3848ZM84.1225 31.8659C82.393 31.8659 80.6635 31.6679 79.0006 31.2717C77.3377 30.8756 76.0405 30.4461 75.1759 29.9508C74.6437 29.6536 74.278 29.3236 74.1448 29.0264C74.0119 28.7291 73.9453 28.3991 73.9453 28.1019V26.4179C73.9453 25.7246 74.2114 25.3943 74.7103 25.3943C74.9098 25.3943 75.1093 25.4274 75.3088 25.4935C75.5083 25.5596 75.8077 25.6915 76.1404 25.8238C77.2711 26.3191 78.5017 26.7152 79.7989 26.9794C81.1294 27.2435 82.4263 27.3755 83.7568 27.3755C85.852 27.3755 87.4819 27.0121 88.6126 26.2857C89.7433 25.5593 90.3421 24.5026 90.3421 23.1489C90.3421 22.2245 90.0427 21.465 89.4442 20.8377C88.8454 20.2102 87.7147 19.6491 86.0851 19.1207L81.2626 17.6348C78.8347 16.8754 77.0386 15.7528 75.9412 14.267C74.8438 12.8141 74.2783 11.1963 74.2783 9.47928C74.2783 8.09257 74.5777 6.87086 75.1762 5.81415C75.7747 4.75744 76.573 3.83296 77.5708 3.10655C78.5686 2.34707 79.6993 1.78596 81.0298 1.38954C82.3603 0.993125 83.7571 0.828125 85.2205 0.828125C85.9522 0.828125 86.7172 0.861184 87.4489 0.960065C88.2139 1.05924 88.9123 1.19118 89.6107 1.32312C90.2758 1.48812 90.9079 1.65342 91.5064 1.85148C92.1049 2.04954 92.5708 2.2476 92.9032 2.44595C93.3688 2.71013 93.7015 2.97431 93.901 3.27125C94.1005 3.53543 94.2004 3.89878 94.2004 4.36102V5.91303C94.2004 6.60639 93.9343 6.96974 93.4354 6.96974C93.1693 6.96974 92.737 6.8375 92.1715 6.57333C90.2758 5.71497 88.147 5.2855 85.7857 5.2855C83.89 5.2855 82.3933 5.58273 81.3622 6.20997C80.3311 6.83721 79.7989 7.79474 79.7989 9.14869C79.7989 10.0732 80.1316 10.8657 80.7967 11.4929C81.4618 12.1202 82.6924 12.7477 84.4552 13.3088L89.1781 14.7947C91.5727 15.5542 93.3022 16.6109 94.3333 17.9646C95.3644 19.3182 95.8633 20.8702 95.8633 22.5872C95.8633 24.007 95.5639 25.2948 94.9987 26.4174C94.3999 27.5402 93.6019 28.5305 92.5708 29.323C91.5397 30.1483 90.3091 30.7428 88.879 31.172C87.3823 31.6342 85.8193 31.8653 84.1228 31.8653L84.1225 31.8659Z" fill="#252F3E"/>
<path fill-rule="evenodd" clip-rule="evenodd" d="M90.4085 47.9208C79.4663 55.9445 63.5684 60.2038 49.8992 60.2038C30.7418 60.2038 13.4807 53.1707 0.443008 41.4823C-0.588092 40.5578 0.343408 39.303 1.57401 40.0294C15.6758 48.152 33.0704 53.0719 51.0632 53.0719C63.2027 53.0719 76.5395 50.5623 88.8122 45.4113C90.6413 44.5857 92.2046 46.5999 90.4085 47.9208Z" fill="#FF9900"/>
<path fill-rule="evenodd" clip-rule="evenodd" d="M94.9649 42.7583C93.5681 40.9751 85.7189 41.8996 82.1603 42.3291C81.0959 42.461 80.9297 41.5365 81.8942 40.8432C88.1468 36.4847 98.4239 37.7395 99.6212 39.1923C100.819 40.6782 99.2885 50.8811 93.4352 55.7676C92.5373 56.5271 91.6724 56.131 92.0717 55.1404C93.4022 51.8714 96.362 44.5083 94.9652 42.7583H94.9649Z" fill="#FF9900"/>
</svg>
