<svg width="104" height="30" viewBox="0 0 104 30" fill="none" xmlns="http://www.w3.org/2000/svg">
<path d="M17.8954 28.3979C22.8652 27.5188 26.9699 26.7914 27.0171 26.7814L27.1028 26.7632L22.4108 21.1751C19.8303 18.1017 17.7189 15.5751 17.7189 15.5606C17.7189 15.533 22.5637 2.17427 22.591 2.12675C22.6001 2.11086 25.8971 7.81043 30.5833 15.9429C34.9705 23.5566 38.5876 29.8342 38.6212 29.893L38.6823 30L23.7709 29.9981L8.85944 29.9962L17.8954 28.3979ZM75.079 27.0464C72.8092 26.9007 71.4891 25.6066 71.1393 23.1843C71.0462 22.5399 71.0458 22.5232 71.0363 18.3399L71.0271 14.2911H72.0317H73.0362L73.0441 18.2073C73.0513 21.7368 73.0557 22.1507 73.0894 22.399C73.2262 23.4066 73.4985 24.0843 73.9621 24.5707C74.3331 24.9599 74.7674 25.1879 75.3687 25.3088C75.6523 25.3659 76.4592 25.366 76.7178 25.309C77.3274 25.1747 77.8159 24.9091 78.2468 24.4778C78.7381 23.9862 79.1014 23.2886 79.2773 22.4998L79.3365 22.234L79.3431 18.2847L79.3497 14.3354H80.3753H81.4009V20.5438V26.7522H80.3859H79.3708V25.7672C79.3708 25.0979 79.3635 24.7846 79.348 24.7898C79.3354 24.794 79.2833 24.8738 79.2322 24.9672C78.8824 25.606 78.2996 26.1901 77.661 26.542C76.8955 26.9638 76.1279 27.1138 75.079 27.0464ZM98.1178 27.0364C97.3166 26.9761 96.4729 26.7003 95.7834 26.2732C94.33 25.373 93.47 23.8892 93.2182 21.8473C93.1311 21.1407 93.1206 20.1916 93.1933 19.5912C93.3558 18.2496 93.8823 16.9326 94.632 15.9924C94.8242 15.7513 95.2603 15.3147 95.501 15.1223C96.151 14.6027 96.9113 14.2393 97.7186 14.0625C98.1889 13.9594 99.0172 13.9111 99.517 13.9574C100.772 14.0739 101.923 14.6657 102.705 15.5972C103.499 16.5436 103.936 17.8659 103.992 19.4943C104.001 19.7495 104.003 20.1969 103.996 20.4885L103.985 21.0188L99.5887 21.0243L95.1921 21.0299V21.2264C95.1921 21.8244 95.3373 22.5055 95.5883 23.0851C95.8048 23.5848 96.1774 24.1306 96.4825 24.3946C97.1081 24.9361 97.8738 25.2603 98.7116 25.3383C99.0222 25.3672 99.8139 25.3367 100.168 25.2823C101.178 25.1269 102.138 24.7302 102.914 24.1481C103.005 24.0796 103.092 24.0156 103.108 24.0059C103.13 23.9917 103.136 24.1706 103.135 24.9228L103.134 25.8574L102.927 25.986C102.049 26.5293 101.044 26.8781 99.9804 27.0087C99.6628 27.0476 98.4976 27.065 98.1178 27.0364ZM101.944 19.1542C101.944 18.1524 101.523 17.0396 100.926 16.4666C100.5 16.0576 99.9854 15.8077 99.3735 15.7128C99.084 15.6679 98.4739 15.6852 98.1687 15.7469C97.5235 15.8775 96.9898 16.1615 96.5243 16.622C96.0344 17.1067 95.6671 17.6954 95.4361 18.3662C95.3531 18.6074 95.2559 19.0034 95.2258 19.2236L95.2114 19.3286H98.5778H101.944V19.1542ZM42.3049 26.7246C42.31 26.7094 43.803 22.7822 45.6226 17.9975L48.931 9.29801L49.994 9.29794L51.057 9.29787L51.1452 9.52434C51.4147 10.2164 57.7684 26.7333 57.7684 26.7419C57.7684 26.7475 57.2595 26.7521 56.6375 26.752L55.5066 26.7518L54.5909 24.3106L53.6752 21.8694L49.988 21.8694L46.3008 21.8693L46.2688 21.9522C46.2512 21.9977 45.8599 23.0962 45.3994 24.3932L44.562 26.7513L43.4287 26.7517C42.5317 26.752 42.2975 26.7464 42.3049 26.7246ZM53.0022 20.0064C53.0022 20.0026 52.3859 18.3298 51.6327 16.2891C50.2236 12.4714 50.1448 12.2417 50.0335 11.6288C49.9812 11.3414 49.9548 11.3334 49.9238 11.5956C49.9017 11.7831 49.8057 12.2025 49.7316 12.4352C49.6949 12.5507 49.0603 14.2945 48.3215 16.3104C47.5827 18.3263 46.9782 19.9842 46.9782 19.9946C46.9782 20.005 48.3336 20.0135 49.9902 20.0135C51.6468 20.0135 53.0022 20.0103 53.0022 20.0064ZM58.4524 26.4342V26.1163L62.126 21.0598L65.7995 16.0034L62.4735 15.9924L59.1475 15.9813L59.1417 15.1362L59.1359 14.2911H63.9466H68.7572V14.5766V14.862L65.0832 19.946C63.0625 22.7422 61.4093 25.0347 61.4093 25.0405C61.4093 25.0462 63.0427 25.0509 65.0391 25.0509H68.6689V25.9015V26.7522H63.5607H58.4524V26.4342ZM85.4095 26.7374C85.4014 26.7293 85.3948 23.9256 85.3948 20.5069V14.2911H86.3988H87.4028V15.5726C87.4028 16.2774 87.4114 16.854 87.4218 16.854C87.4323 16.854 87.4812 16.7387 87.5304 16.5977C87.7562 15.9515 88.1476 15.3478 88.652 14.8679C89.1063 14.4356 89.6256 14.1771 90.2383 14.0782C90.4104 14.0504 90.556 14.0451 90.9003 14.0541C91.3326 14.0654 91.5586 14.097 91.8215 14.1831L91.9042 14.2102V15.2536V16.2971L91.667 16.1782C91.248 15.9682 90.8346 15.8851 90.3376 15.911C90.0141 15.9278 89.8018 15.9694 89.5432 16.0666C89.0111 16.2665 88.5795 16.6194 88.278 17.1011C87.8414 17.7985 87.53 18.695 87.4382 19.5188C87.4217 19.6667 87.412 20.8709 87.4081 23.2447L87.4024 26.7522H86.4133C85.8693 26.7522 85.4176 26.7455 85.4095 26.7374ZM0 26.6938C0 26.6859 2.21083 22.8432 4.91296 18.1544L9.82591 9.62926L15.5514 4.81828C18.7004 2.17224 21.2854 0.00406292 21.2957 0.00010869C21.3061 -0.00384476 21.2647 0.100549 21.2037 0.232096C21.1427 0.363644 18.345 6.37205 14.9866 13.5841L8.88043 26.6969L4.44021 26.7025C1.9981 26.7056 0 26.7016 0 26.6938Z" fill="#0089D6"/>
</svg>
