<svg xmlns="http://www.w3.org/2000/svg" xmlns:xlink="http://www.w3.org/1999/xlink" width="214" height="214" viewBox="0 0 214 214">
  <defs>
    <clipPath id="clip-path">
      <rect id="Rectangle_5094" data-name="Rectangle 5094" width="214" height="214" transform="translate(1186 72)" fill="#fff" stroke="#707070" stroke-width="1"/>
    </clipPath>
  </defs>
  <g id="Mask_Group_389" data-name="Mask Group 389" transform="translate(-1186 -72)" clip-path="url(#clip-path)">
    <g id="Web_Presentation" transform="translate(1168.582 54.581)">
      <g id="Group_2596" data-name="Group 2596">
        <g id="Group_2595" data-name="Group 2595">
          <g id="Group_2493" data-name="Group 2493">
            <path id="Path_29994" data-name="Path 29994" d="M127.507,215.677a.623.623,0,0,1-.581-.849,9.394,9.394,0,0,0,.521-3.647,40.009,40.009,0,0,1,.121-4.306c.039-.582.081-1.217.12-1.967a.623.623,0,0,1,1.245.065c-.039.756-.082,1.4-.121,1.984a39.151,39.151,0,0,0-.118,4.187,10.62,10.62,0,0,1-.6,4.135A.623.623,0,0,1,127.507,215.677Z"/>
          </g>
          <g id="Group_2494" data-name="Group 2494">
            <path id="Path_29995" data-name="Path 29995" d="M199.989,129.056c.379.233,1.871,2.171,2.31,2.1.8-.124.466-1.7.45-2.509a5.924,5.924,0,0,1,1.029-3.217c-.448.422-6.931-1.647-7.638-1.818-1.507-.365-5.116-2.05-6.389-.82C192.2,125.01,197.148,127.307,199.989,129.056Z" fill="#ccc"/>
          </g>
          <g id="Group_2495" data-name="Group 2495">
            <path id="Path_29996" data-name="Path 29996" d="M155.422,122.071a3.615,3.615,0,0,0-1.983,3.743c.213,1.081,1,2.016,1.045,3.117a13.861,13.861,0,0,1-.63,2.71c-.337,2.008,1.13,3.968,2.953,4.872a14.428,14.428,0,0,0,5.963,1.065,1.253,1.253,0,0,0-.361-1.659,3.937,3.937,0,0,0-1.761-.616,6.7,6.7,0,0,1-2.785-1.019,2.649,2.649,0,0,1-1.148-2.582c.11-.492-.347-1.119-.308-1.622a30.509,30.509,0,0,0,.145-3.571c-.037-1.081.213-1.6,1.289-1.7,1.517-.14,4.577,1.9,3.928-.913C161.228,121.553,157.148,121.193,155.422,122.071Z" fill="#ccc"/>
          </g>
          <g id="Group_2496" data-name="Group 2496">
            <path id="Path_29997" data-name="Path 29997" d="M96.635,184.484l-1.51-3.4-1.914-4.3a2.033,2.033,0,0,0-1.033-1.24c-.714-.235-1.406.357-1.97.854-1.754,1.547-2.638,2.838-.726,4.782C90.756,182.477,96.1,183.285,96.635,184.484Z" fill="#ccc"/>
          </g>
          <g id="Group_2497" data-name="Group 2497">
            <path id="Path_29998" data-name="Path 29998" d="M127.4,209.612l.679-6.409c-.255,2.412-8.832.932-9.9,1.712A20.308,20.308,0,0,0,127.4,209.612Z" fill="#ccc"/>
          </g>
          <g id="Group_2498" data-name="Group 2498">
            <path id="Path_29999" data-name="Path 29999" d="M194.965,141.4c1.991.091,4.195-.082,5.609-1.485,1.678-1.665,1.592-4.357,1.39-6.713-.624,2.184-1.461,4.627-3.53,5.565a7.718,7.718,0,0,1-3.912.33c-4.1-.382-8.162-1.22-12.246-1.6C182.954,140.577,192.348,141.281,194.965,141.4Z" fill="#ccc"/>
          </g>
          <g id="Group_2499" data-name="Group 2499">
            <path id="Path_30000" data-name="Path 30000" d="M170.267,121.469a10.617,10.617,0,0,0-.209,5.108c-.88-3.012-5.1-7.425-2.917-10.729C170.249,111.146,170.66,119.589,170.267,121.469Z" fill="#ccc"/>
          </g>
          <g id="Group_2500" data-name="Group 2500">
            <path id="Path_30001" data-name="Path 30001" d="M162.133,145.85a.624.624,0,0,1-.184-.028,185.741,185.741,0,0,0-31.55-6.551.623.623,0,0,1-.546-.611c-.1-8.053-.2-16.7-.3-24.563a.624.624,0,0,1,.676-.629c11.161.945,22.593,1.511,33.749,2.46a.623.623,0,0,1,.571.636c-.069,2.794-.233,5.832-.514,9.562a.624.624,0,0,1-.821.544c-.242-.082-.462-.17-.7-.266a14.408,14.408,0,0,0-1.374-.491,12.99,12.99,0,0,0-2.8-.6,2.135,2.135,0,0,0-1.1.229,1.139,1.139,0,0,0,.252.585.624.624,0,0,1-.907.855A2.276,2.276,0,0,1,156,125.4a1.1,1.1,0,0,1,.419-.8,3.255,3.255,0,0,1,2.024-.519,14.177,14.177,0,0,1,3.055.644c.6.179,1,.337,1.357.478.224-3.078.363-5.678.433-8.076-10.714-.9-21.739-1.46-32.479-2.353.1,7.882.192,15.49.287,23.334a187.687,187.687,0,0,1,30.439,6.288c.076-2.573.232-5.324.5-8.783a.624.624,0,1,1,1.243.095c-.291,3.806-.45,6.748-.515,9.538a.624.624,0,0,1-.623.609Z"/>
          </g>
          <g id="Group_2501" data-name="Group 2501">
            <path id="Path_30002" data-name="Path 30002" d="M162.107,145.589a.623.623,0,0,1-.2-1.212c1.933-.67,3.6-1.218,5.211-1.749.853-.281,1.722-.567,2.637-.873-2.589-.308-5.183-.588-7.378-.824a.623.623,0,0,1,.134-1.239c2.968.32,6.662.718,10.1,1.16a.623.623,0,0,1,.125,1.207c-1.939.672-3.61,1.222-5.226,1.754s-3.269,1.077-5.193,1.742A.619.619,0,0,1,162.107,145.589Z"/>
          </g>
          <path id="Path_30003" data-name="Path 30003" d="M140.129,170.549c-.058.17-.121.341-.183.511a.038.038,0,0,0,0,.021c-.96,2.651-1.936,5.452-2.73,8.228a.525.525,0,0,1-.017-.141,28.091,28.091,0,0,1,.029-3.482c.857-2.821,1.306-4.267,1.438-4.7a.62.62,0,0,1,.594-.44h.873Z"/>
          <path id="Path_30004" data-name="Path 30004" d="M190.944,170.549v9.241H137.939c.881-3.125,2.007-6.287,3.075-9.241Z"/>
          <path id="Path_30005" data-name="Path 30005" d="M206.8,171.172v7.995a.622.622,0,0,1-.623.623h-14.4v-9.241h14.4A.625.625,0,0,1,206.8,171.172Z"/>
          <g id="Group_2502" data-name="Group 2502">
            <path id="Path_30006" data-name="Path 30006" d="M131.428,219.345a.623.623,0,0,1-.586-.836c2.076-5.722,4.109-12.882,6.074-19.806,1.972-6.947,4.011-14.13,6.1-19.9a.623.623,0,1,1,1.172.425c-2.077,5.724-4.11,12.885-6.076,19.811-1.971,6.945-4.01,14.127-6.1,19.891A.624.624,0,0,1,131.428,219.345Z"/>
          </g>
          <g id="Group_2503" data-name="Group 2503">
            <path id="Path_30007" data-name="Path 30007" d="M158.562,216.166a.624.624,0,0,1-.613-.516c-.972-5.543-1.994-11.872-2.983-17.992s-2.01-12.44-2.981-17.976a.623.623,0,0,1,1.228-.215c.972,5.543,1.994,11.872,2.983,17.992s2.01,12.44,2.981,17.976a.624.624,0,0,1-.506.722A.616.616,0,0,1,158.562,216.166Z"/>
          </g>
          <g id="Group_2504" data-name="Group 2504">
            <path id="Path_30008" data-name="Path 30008" d="M206.656,214.473a.623.623,0,0,1-.587-.414l-12.294-34.539a.623.623,0,0,1,1.174-.418l12.294,34.539a.623.623,0,0,1-.587.832Z"/>
          </g>
          <g id="Group_2505" data-name="Group 2505">
            <path id="Path_30009" data-name="Path 30009" d="M178.067,219.133a.624.624,0,0,1-.614-.735c1.006-5.536,2.35-12.561,3.651-19.356s2.644-13.814,3.649-19.345a.623.623,0,0,1,1.226.223c-1.006,5.536-2.35,12.561-3.651,19.356s-2.644,13.814-3.649,19.345A.623.623,0,0,1,178.067,219.133Z"/>
          </g>
          <g id="Group_2506" data-name="Group 2506">
            <path id="Path_30010" data-name="Path 30010" d="M195.43,139.847a114.417,114.417,0,0,1-15.986-2.99.623.623,0,1,1,.338-1.2,113.232,113.232,0,0,0,15.8,2.952,6.184,6.184,0,0,0,3.272-.184,3.5,3.5,0,0,0,1.57-2.178,41.916,41.916,0,0,0,2.295-10.834.623.623,0,0,1,1.243.087,43.248,43.248,0,0,1-2.369,11.18,4.7,4.7,0,0,1-2.19,2.864A7.161,7.161,0,0,1,195.43,139.847Z"/>
          </g>
          <g id="Group_2507" data-name="Group 2507">
            <path id="Path_30011" data-name="Path 30011" d="M162.616,145.385a.623.623,0,1,1,.665-1.054c10.661,6.722,24.572,8.264,38.231,4.253.267-4.78.62-14.467.4-17.48,0,0,0-.042,0-.045a.624.624,0,1,1,1.245-.069c.236,3.185-.148,13.475-.419,18.1a.622.622,0,0,1-.442.56C188.913,153.694,174.279,152.74,162.616,145.385Zm39.493,3.671h0Z"/>
          </g>
          <g id="Group_2508" data-name="Group 2508">
            <path id="Path_30012" data-name="Path 30012" d="M169.067,125.414c-.139-2.883-.721-7.8-.862-10.73a.623.623,0,1,1,1.245-.06c.069,1.444.252,3.426.429,5.343s.362,3.918.433,5.388a.623.623,0,1,1-1.245.06Z"/>
          </g>
          <g id="Group_2509" data-name="Group 2509">
            <path id="Path_30013" data-name="Path 30013" d="M163.381,102.375a.624.624,0,0,1,.034-.881,35.836,35.836,0,0,1,10.888-6.81.623.623,0,0,1,.467,1.156,34.583,34.583,0,0,0-10.508,6.569A.624.624,0,0,1,163.381,102.375Z"/>
          </g>
          <g id="Group_2510" data-name="Group 2510">
            <path id="Path_30014" data-name="Path 30014" d="M155.422,116.369a.624.624,0,0,1-.551-.689l.1-.881c.207-1.853.181-1.8.259-1.945a48.3,48.3,0,0,1,6.729-9.931.623.623,0,0,1,.931.829,46.307,46.307,0,0,0-6.5,9.577c-.054.5-.117,1.055-.277,2.489A.633.633,0,0,1,155.422,116.369Z"/>
          </g>
          <g id="Group_2511" data-name="Group 2511">
            <path id="Path_30015" data-name="Path 30015" d="M164.711,129.567c-.92-.188-1.743-.375-2.515-.573a50.45,50.45,0,0,1-5.1-1.613.623.623,0,1,1,.443-1.165c.841.32,1.7.615,2.546.876a45.414,45.414,0,0,0,4.874,1.254.623.623,0,0,1-.249,1.221Z"/>
          </g>
          <g id="Group_2512" data-name="Group 2512">
            <path id="Path_30016" data-name="Path 30016" d="M186.3,129.734q-6.186-.751-12.367-1.5a9.245,9.245,0,0,1-4.408-1.785c-1.128-.843-2.373-1.581-3.626-2.37a2.324,2.324,0,0,0-.84-.391.578.578,0,0,0-.188,0c.128.174.218.237,2.667,2.71a.624.624,0,0,1-.591,1.044c-1.231-.3-2.483-.54-3.652-.753a.623.623,0,1,1,.224-1.226c.533.1,1.083.2,1.641.311q-.466-.469-.932-.939a1.634,1.634,0,0,1-.618-1.569,1.449,1.449,0,0,1,1.635-.813,3.4,3.4,0,0,1,1.323.573c1.324.83,2.546,1.558,3.7,2.422A7.992,7.992,0,0,0,174.086,127q6.183.744,12.367,1.5a4.418,4.418,0,0,0,1.78-.017c1.037-.352.991-1.64.952-2.026-.117-1.12.079-2.726.047-3.907a.623.623,0,0,1,.606-.64.611.611,0,0,1,.64.606c.034,1.233-.157,2.82-.052,3.814a2.979,2.979,0,0,1-1.792,3.334A5.287,5.287,0,0,1,186.3,129.734Z"/>
          </g>
          <g id="Group_2513" data-name="Group 2513">
            <path id="Path_30017" data-name="Path 30017" d="M165.2,132.275a51.009,51.009,0,0,1-7.575-2.281,4.215,4.215,0,0,1-1.35-.745,1.759,1.759,0,0,1-.6-1.773,2.167,2.167,0,0,1,.986-1.328.927.927,0,0,1,.805.028.623.623,0,0,1-.355,1.172,1.6,1.6,0,0,0-.239.476.594.594,0,0,0,.238.5,3.178,3.178,0,0,0,.968.509,49.749,49.749,0,0,0,7.391,2.225.623.623,0,0,1-.269,1.217Z"/>
          </g>
          <g id="Group_2514" data-name="Group 2514">
            <path id="Path_30018" data-name="Path 30018" d="M164.161,134.061a23.948,23.948,0,0,1-6.8-1.924,3.32,3.32,0,0,1-1.224-1.174,1.688,1.688,0,0,1-.191-1.452,1.393,1.393,0,0,1,.958-.9.623.623,0,0,1,.348,1.2c-.093.027-.112.062-.127.1a.457.457,0,0,0,.025.325,2.787,2.787,0,0,0,.7.755,22.651,22.651,0,0,0,6.5,1.838.623.623,0,1,1-.2,1.23Z"/>
          </g>
          <g id="Group_2515" data-name="Group 2515">
            <path id="Path_30019" data-name="Path 30019" d="M167.706,136.638c-4.058-.149-7.135-.156-10.555-2.467a2.992,2.992,0,0,1-1-1.756c-.306-1.576,1.314-2.087,1.568-1.176a.623.623,0,0,1-.353.74,1.88,1.88,0,0,0,.484,1.159c2.957,2,5.775,2.1,9.038,2.222l.87.033a16.918,16.918,0,0,0,3.511-.258,10.593,10.593,0,0,1,5.332.232.623.623,0,1,1-.364,1.192,9.325,9.325,0,0,0-4.782-.192A18.018,18.018,0,0,1,167.706,136.638Z"/>
          </g>
          <g id="Group_2516" data-name="Group 2516">
            <path id="Path_30020" data-name="Path 30020" d="M206.053,126.845a114.834,114.834,0,0,0-20.194-4.552.623.623,0,0,1-.53-.491c-.384-1.843-.552-3.756-.926-5.546a.623.623,0,1,1,1.221-.255c.356,1.709.521,3.432.84,5.113a115.953,115.953,0,0,1,19.121,4.275,63.009,63.009,0,0,0-1.826-12.266.623.623,0,1,1,1.209-.3,64.051,64.051,0,0,1,1.9,13.409.624.624,0,0,1-.813.614Z"/>
          </g>
          <g id="Group_2517" data-name="Group 2517">
            <path id="Path_30021" data-name="Path 30021" d="M202.8,109.684c-.629-2.052-1.383-4.141-2.242-6.209a10.222,10.222,0,0,0-2.628-4.092c-1.491-1.264-3.756-2.022-5.946-2.755a22.4,22.4,0,0,1-5.8-2.552c-2.982,2.564-6.653,5.179-9.535,7.708a.624.624,0,0,1-1.029-.391c-.239-1.9-.95-4.125-1.208-6.11a.625.625,0,1,1,1.233-.189,30.013,30.013,0,0,0,.592,2.988c.155.67.313,1.356.441,2.034,2.84-2.395,6.37-4.944,9.07-7.311a.623.623,0,0,1,.8-.017c3.086,2.487,8.954,2.9,12.186,5.643A11.28,11.28,0,0,1,201.708,103c.874,2.1,1.643,4.232,2.284,6.322a.623.623,0,0,1-1.192.365Z"/>
          </g>
          <g id="Group_2518" data-name="Group 2518">
            <path id="Path_30022" data-name="Path 30022" d="M175.031,95.881h-.005a.623.623,0,0,1-.618-.629l.034-3.9a.623.623,0,0,1,.623-.618h.005a.623.623,0,0,1,.618.629l-.034,3.9A.623.623,0,0,1,175.031,95.881Z"/>
          </g>
          <g id="Group_2519" data-name="Group 2519">
            <path id="Path_30023" data-name="Path 30023" d="M191.917,132.194l-2.566-3.216a.623.623,0,0,1,.975-.778l2.566,3.216a.623.623,0,0,1-.975.778Z"/>
          </g>
          <g id="Group_2520" data-name="Group 2520">
            <path id="Path_30024" data-name="Path 30024" d="M198.5,133.5a.624.624,0,0,1,.014-.881.451.451,0,0,0,.01-.571.623.623,0,0,1,.085-.939,1.6,1.6,0,0,0,.59-1.66.623.623,0,0,1,1.2-.325,2.852,2.852,0,0,1-.638,2.613,1.7,1.7,0,0,1-.382,1.776A.623.623,0,0,1,198.5,133.5Z"/>
          </g>
          <g id="Group_2521" data-name="Group 2521">
            <path id="Path_30025" data-name="Path 30025" d="M148.292,115.512c-1.23-2.336-3.13-5.424-5.474-10.424a.623.623,0,1,1,1.129-.529c2.365,5.049,4.038,7.7,5.448,10.372a.623.623,0,1,1-1.1.581Z"/>
          </g>
          <g id="Group_2522" data-name="Group 2522">
            <path id="Path_30026" data-name="Path 30026" d="M134.787,114.55l-2.089-3.922a.623.623,0,0,1,1.1-.586l2.089,3.922a.623.623,0,0,1-1.1.586Z"/>
          </g>
          <g id="Group_2523" data-name="Group 2523">
            <path id="Path_30027" data-name="Path 30027" d="M136.646,104.149a.623.623,0,0,1,.01-.874,1.985,1.985,0,0,0-.021-1.455c-.094,0-.045-.116-1.3.047a6.653,6.653,0,0,1-1.036.083c-1.142-.053-2.6-.562-2.947-1.821a2.194,2.194,0,0,1,.9-2.283,5.983,5.983,0,0,1,2-.863,6.394,6.394,0,0,1,3.894-.235,4.487,4.487,0,0,1,1.282.719,12.771,12.771,0,0,1,1.463,1.35,14.164,14.164,0,0,1,1.9,2.907,1.131,1.131,0,0,1,.177.626.623.623,0,0,1-1.157.278,1.288,1.288,0,0,1-.175-.418,12.959,12.959,0,0,0-1.643-2.527,11.667,11.667,0,0,0-1.323-1.225,3.329,3.329,0,0,0-.925-.53,5.315,5.315,0,0,0-3.146.252,5.006,5.006,0,0,0-1.593.658,1,1,0,0,0-.456.96c.151.541,1.04.872,1.8.907a6.488,6.488,0,0,0,.819-.073,4.527,4.527,0,0,1,1.822-.006,1.487,1.487,0,0,1,.981,1.3,2.758,2.758,0,0,1-.444,2.242A.623.623,0,0,1,136.646,104.149Zm.05-2.313h0Z"/>
          </g>
          <g id="Group_2524" data-name="Group 2524">
            <path id="Path_30028" data-name="Path 30028" d="M132.8,110.766c-1.947-2.033-2.751-2.963-4.9-5.448a6.751,6.751,0,0,1-1.754-2.621,1.931,1.931,0,0,1,1.25-2.353,2.419,2.419,0,0,1,2.067.5,11.934,11.934,0,0,1,2.529,2.263,1.893,1.893,0,0,1,.4,2.128,1.463,1.463,0,0,1-2.427.109.623.623,0,0,1,1.058-.659.323.323,0,0,0,.279-.054c.077-.143-.032-.456-.253-.707a10.807,10.807,0,0,0-2.333-2.081,1.271,1.271,0,0,0-.987-.3.717.717,0,0,0-.372.868,6.2,6.2,0,0,0,1.483,2.09c2.134,2.468,2.932,3.392,4.857,5.4a.623.623,0,0,1-.9.862Z"/>
          </g>
          <g id="Group_2525" data-name="Group 2525">
            <path id="Path_30029" data-name="Path 30029" d="M132.73,104.621a2.839,2.839,0,0,1-1.986-1.055.623.623,0,0,1,1-.745c.311.419,1.173.786,1.559.376.124-.172-.2-1.125-.744-1.59a.623.623,0,1,1,.809-.949,3.748,3.748,0,0,1,1.2,2.3,1.412,1.412,0,0,1-.351,1.085A1.849,1.849,0,0,1,132.73,104.621Z"/>
          </g>
          <g id="Group_2526" data-name="Group 2526">
            <path id="Path_30030" data-name="Path 30030" d="M127.232,101.265a2.16,2.16,0,0,1,.1-2.142,3.63,3.63,0,0,1,1.557-1.236,2.059,2.059,0,0,1,1.07-1.131,4.739,4.739,0,0,1,1.229-.407c-1.349-2.061-2.725-4.219-3.917-6.367a4.362,4.362,0,0,1-.6-1.535,1.845,1.845,0,0,1,.758-1.822,2.261,2.261,0,0,1,2.317.088,5.171,5.171,0,0,1,1.384,1.371l6.6,8.592a.623.623,0,0,1-.989.76c-7.278-9.469-7.063-9.307-7.641-9.654a1.043,1.043,0,0,0-.994-.113.644.644,0,0,0-.2.616,3.324,3.324,0,0,0,.452,1.091c1.359,2.448,2.969,4.925,4.5,7.252a.624.624,0,0,1-.719.934,2.868,2.868,0,0,0-1.611.3.8.8,0,0,0-.528.663.616.616,0,0,1-.662.515,2.542,2.542,0,0,0-.941.722,1.287,1.287,0,0,0-.164.77.613.613,0,0,1-.129.863A.632.632,0,0,1,127.232,101.265Z"/>
          </g>
          <g id="Group_2527" data-name="Group 2527">
            <path id="Path_30031" data-name="Path 30031" d="M132.607,101.654c-.4-.332-3.047-2.45-3.489-2.811a.623.623,0,0,1,.79-.965c.4.325,3.087,2.482,3.489,2.812a.623.623,0,1,1-.791.964Z"/>
          </g>
          <g id="Group_2528" data-name="Group 2528">
            <path id="Path_30032" data-name="Path 30032" d="M88.9,192.1a6.348,6.348,0,0,1-2.545-.67,51.661,51.661,0,0,1-10.7-6.53,7.523,7.523,0,0,1-2.387-3.218,3.585,3.585,0,0,1,1.272-4.077,4.54,4.54,0,0,1,3.276-.527,17.225,17.225,0,0,1,2.909.679c6.306,2.2,8.762-.821,9.526-2.22a.623.623,0,1,1,1.094.6c-1.906,3.495-6.03,4.542-11.03,2.8a16.165,16.165,0,0,0-2.7-.626,3.343,3.343,0,0,0-2.375.332,2.381,2.381,0,0,0-.78,2.668,6.456,6.456,0,0,0,2.029,2.664,50.98,50.98,0,0,0,10.38,6.32,4.464,4.464,0,0,0,2.4.536c1.155-.179,2.042-1.232,2.852-2.3q1.623-2.144,3.253-4.287a.623.623,0,1,1,.993.755q-1.631,2.145-3.253,4.286c-.922,1.211-2.04,2.523-3.655,2.774A3.672,3.672,0,0,1,88.9,192.1Z"/>
          </g>
          <g id="Group_2529" data-name="Group 2529">
            <path id="Path_30033" data-name="Path 30033" d="M120.077,219.439c-.294,0-.59,0-.887-.008l-6.084-.091c-2.268-.032-4.443-.158-6.129-1.322a3.483,3.483,0,0,1-1.666-3.452,4.048,4.048,0,0,1,2.4-2.584,14.387,14.387,0,0,1,1.944-.675c.4-.118.782-.23,1.156-.363,3.63-1.28,5.544-3.4,5.853-6.479a.623.623,0,1,1,1.24.125c-.357,3.559-2.6,6.093-6.677,7.53-.405.144-.82.266-1.221.384a13.245,13.245,0,0,0-1.774.612,2.78,2.78,0,0,0-1.7,1.707,2.327,2.327,0,0,0,1.153,2.17c1.4.965,3.372,1.072,5.44,1.1l6.086.091c2.277.039,4.441-.015,5.988-1.081a4.106,4.106,0,0,0,.476-.382.623.623,0,1,1,.847.915,5.368,5.368,0,0,1-.619.5C124.275,219.252,122.236,219.439,120.077,219.439Z"/>
          </g>
          <g id="Group_2530" data-name="Group 2530">
            <ellipse id="Ellipse_557" data-name="Ellipse 557" cx="2.414" cy="3.453" rx="2.414" ry="3.453" transform="matrix(0.068, -0.998, 0.998, 0.068, 141.894, 129.909)"/>
          </g>
          <g id="Group_2531" data-name="Group 2531">
            <path id="Path_30034" data-name="Path 30034" d="M138.467,159.4a6.613,6.613,0,0,0-3.528.972,60.589,60.589,0,0,0-16.16,12.379c-.457,2.032-.931,4.193-1.409,6.424a149.028,149.028,0,0,0-3.2,15.732c-.623,3.274-1.151,6.229-1.508,8.531a.624.624,0,0,0,.532.715,90.3,90.3,0,0,0,12.453.977q2.468,0,4.646-.2a.622.622,0,0,0,.557-.515,203.506,203.506,0,0,1,5.344-20.993s0,0,0-.008a91.547,91.547,0,0,1,3.748-12.341c0-.018.157-.515.162-.532.877-2.855,1.625-5.3,2.269-7.5C141.3,161.42,139.9,159.558,138.467,159.4Zm-19.937,27.841a3.48,3.48,0,0,1-.544,1.284c-.054.091-.1.179-.158.27a1.441,1.441,0,0,0-.245,1.143c.033.083.079.17.12.258a1.178,1.178,0,0,1,.112,1.213.41.41,0,0,1-.349.191.435.435,0,0,1-.224-.062.421.421,0,0,1-.129-.573c.029-.046-.1-.283-.145-.387a3.37,3.37,0,0,1-.166-.353,2.157,2.157,0,0,1,.3-1.837c.054-.1.108-.191.166-.287a2.9,2.9,0,0,0,.44-.985.845.845,0,0,0-.141-.586.36.36,0,0,0-.224-.145.41.41,0,0,1-.357-.465.417.417,0,0,1,.465-.357,1.157,1.157,0,0,1,.781.469A1.634,1.634,0,0,1,118.529,187.245Zm8.128-5.776L123.624,194.7a.409.409,0,0,1-.4.32.738.738,0,0,1-.1-.008.421.421,0,0,1-.312-.5l3.033-13.231a.416.416,0,1,1,.81.187Zm8.5-10.064c-.37.159-.771.13-.922.266-.379.347.754,1.815-.116,2.63a1.625,1.625,0,0,1-.573.32.806.806,0,0,0-.3.158c-.075.15.278.695.37.848a6.423,6.423,0,0,1,.511.981,2.119,2.119,0,0,1-.075,1.866,1.453,1.453,0,0,1-1.218.673,1.145,1.145,0,0,1-.74-.258.416.416,0,1,1,.532-.64.367.367,0,0,0,.291.062c.6-.1.652-.832.432-1.409-.336-.892-1.288-1.732-.823-2.535a1.263,1.263,0,0,1,.719-.524c.383-.14.5-.145.245-1.051-.158-.557-.353-1.251.187-1.737a1.564,1.564,0,0,1,.814-.332,1.806,1.806,0,0,0,.337-.083.9.9,0,0,0,.424-.868,3.475,3.475,0,0,0-.449-1.28.415.415,0,1,1,.744-.37,4.158,4.158,0,0,1,.532,1.6A1.693,1.693,0,0,1,135.155,171.405Z"/>
            <path id="Path_30035" data-name="Path 30035" d="M152.337,170.487c.57.407.985.709,1.749,1.209a.621.621,0,0,0,.885-.819c5.664,1.965,12.154,2.231,18.238,1.932,3.835-.187,7.762-.561,11.273-2.082a.619.619,0,0,0,.432,1.068.676.676,0,0,0,.278-.062c.362-.183.727-.386,1.089-.6.4-.239.877-.555,1-.644H152.337Zm47.329-21.313a.621.621,0,0,0-.765.436c-.025.1-.054.187-.079.278-8.743,3.362-18.695,1.612-27.629-1.334q-1.172-.386-2.335-.794a19.429,19.429,0,0,1-2.119-.69c-1.147-.561-1.882-1.833-3.191-2.082a6.225,6.225,0,0,0-1.6.025c-1.355.087-2.859-.831-4.13-1.276-1.55-.544-3.108-1.064-4.683-1.542a59.033,59.033,0,0,0-9.586-2.123c-2.236-.278-5.684-.918-8.124-.6a.622.622,0,0,0-.931-.669c-8.876,5.394-31.107,19.48-45.837,33.77a.618.618,0,0,0-.1.773c1.533,2.485,3.038,5.119,4.5,7.671s2.975,5.211,4.525,7.712a.614.614,0,0,0,.44.291.584.584,0,0,0,.5-.154q9.624-8.589,18.109-15.026a62.953,62.953,0,0,1,17.926-14.211,7.4,7.4,0,0,1,3.989-1.055c2.274.245,4.072,3.355,5.294,5.236,3.317,2.582,2.452,2.137,7.359,5.842h37.2c5.653-4.453,9.8-12.751,11.7-19.717A.627.627,0,0,0,199.666,149.174Zm-65.97-1.188-7.949,6.653a26.806,26.806,0,0,1-7.409,4.916c-.411.158-.835.3-1.247.432a10.407,10.407,0,0,0-2.792,1.222,10.669,10.669,0,0,0-2.921,3.948,11.234,11.234,0,0,1-3.2,4.234,4.851,4.851,0,0,1-2.7.844,3.381,3.381,0,0,1-2.568-1.064.423.423,0,0,1,.033-.59.415.415,0,0,1,.586.033c1.022,1.134,2.963.931,4.172.1a10.48,10.48,0,0,0,2.934-3.935,11.283,11.283,0,0,1,3.179-4.243,11.124,11.124,0,0,1,3.013-1.334c.4-.133.814-.27,1.209-.42A26.151,26.151,0,0,0,125.211,154l7.953-6.653a.414.414,0,1,1,.532.636Zm11.024-3.42a.428.428,0,0,1-.258-.087,4.754,4.754,0,0,0-3.175-.989.42.42,0,0,1-.44-.391.414.414,0,0,1,.391-.436,5.565,5.565,0,0,1,3.736,1.159A.415.415,0,0,1,144.72,144.566Zm37.286,14.614a38.439,38.439,0,0,1-22.293-1.949.417.417,0,0,1,.312-.773,37.568,37.568,0,0,0,21.807,1.907.415.415,0,0,1,.494.32A.42.42,0,0,1,182.006,159.18Zm9.129-3.49-1.1,1.932a.415.415,0,0,1-.723-.407l1.1-1.936a.416.416,0,1,1,.723.411Zm3.3,1.849-.827,2.206a.409.409,0,0,1-.532.241.417.417,0,0,1-.245-.536l.827-2.2a.415.415,0,1,1,.777.291Z"/>
          </g>
          <g id="Group_2532" data-name="Group 2532">
            <path id="Path_30036" data-name="Path 30036" d="M198.665,111.649c-1.406-1.122-1.826-2.908-2.169-4.547a11.3,11.3,0,0,0-.71-2.467,5.376,5.376,0,0,0-2.728-2.646.623.623,0,1,1,.49-1.146,6.638,6.638,0,0,1,3.369,3.267,12.4,12.4,0,0,1,.8,2.737c.28,1.333.621,2.945,1.727,3.829a.623.623,0,1,1-.778.974Z"/>
          </g>
          <g id="Group_2533" data-name="Group 2533">
            <path id="Path_30037" data-name="Path 30037" d="M175.233,118.975l-.094-1.805a.623.623,0,0,1,.393-.612,1.121,1.121,0,0,0,.259-1.939.623.623,0,1,1,.748-1,2.365,2.365,0,0,1-.134,3.88l.073,1.409a.623.623,0,0,1-1.245.065Z"/>
          </g>
          <g id="Group_2534" data-name="Group 2534">
            <path id="Path_30038" data-name="Path 30038" d="M186.212,148.073a.623.623,0,0,1,.2-.857,3.118,3.118,0,0,0,1.146-1.261.623.623,0,0,1,1.118.55,4.314,4.314,0,0,1-1.61,1.771A.623.623,0,0,1,186.212,148.073Z"/>
          </g>
          <g id="Group_2535" data-name="Group 2535">
            <path id="Path_30039" data-name="Path 30039" d="M191.019,149.2a.624.624,0,0,1-.476-1.025l1.956-2.321a.623.623,0,0,1,.953.8l-1.955,2.321A.623.623,0,0,1,191.019,149.2Z"/>
          </g>
          <g id="Group_2536" data-name="Group 2536">
            <path id="Path_30040" data-name="Path 30040" d="M80.488,181.721a.613.613,0,0,1-.085-.006l-3.031-.414a.623.623,0,1,1,.168-1.235l3.032.414a.623.623,0,0,1-.084,1.241Z"/>
          </g>
          <g id="Group_2537" data-name="Group 2537">
            <path id="Path_30041" data-name="Path 30041" d="M122.4,215.219a.623.623,0,0,1-.527-.955,5.573,5.573,0,0,0,.845-3.1.623.623,0,0,1,.6-.642h.019a.623.623,0,0,1,.622.6,6.831,6.831,0,0,1-1.036,3.806A.622.622,0,0,1,122.4,215.219Z"/>
          </g>
          <g id="Group_2539" data-name="Group 2539">
            <g id="Group_2538" data-name="Group 2538">
              <path id="Path_30042" data-name="Path 30042" d="M167.676,64.479l-.446,1.964c-2.8-2-6.5-2.284-9.916-1.883a26.6,26.6,0,0,1-4.379.383,5.561,5.561,0,0,1-3.952-1.653,3.167,3.167,0,0,1-.224-4.025,3.6,3.6,0,0,0,2.3,3.527c2.829,1.229,5.981-.322,8.927-.232,2.611.08,5.264,1.429,7.819.559a3.487,3.487,0,0,0,2.445-2.766c-.113.947.312,1.557-.2,2.46A3.468,3.468,0,0,1,167.676,64.479Z" fill="#ccc"/>
            </g>
            <path id="Path_30043" data-name="Path 30043" d="M171.121,51.188a3.349,3.349,0,0,0-3.079-3.351l-16.585-.869a3.466,3.466,0,0,0-3.746,3.534c.125,3.432.164,7.218.293,10.628a3.518,3.518,0,0,0,3.594,3.333c.185,0,2.5-.149,11.762-.719l3.31,3.262a.624.624,0,0,0,1.061-.444l0-3.086.411-.025a3.254,3.254,0,0,0,3-3.3Zm-20.269,8.3a3.466,3.466,0,0,0-.451,1.43l.091.03a.416.416,0,0,1-.131.81,2.086,2.086,0,0,1-.52-.15.415.415,0,0,1-.284-.395,4.3,4.3,0,0,1,.31-1.595,1.214,1.214,0,0,1-.624-.957,2.328,2.328,0,0,1,.487-1.391.416.416,0,0,1,.7.446,1.636,1.636,0,0,0-.36.887c.013.186.2.32.255.3A.416.416,0,0,1,150.852,59.489Zm14.205-1.621-9.4.051a.416.416,0,0,1,0-.831l9.4-.051a.416.416,0,0,1,0,.831Zm1.411-4.22-15.666-.3a.416.416,0,0,1,.008-.831l15.666.3a.416.416,0,0,1-.008.831Z"/>
          </g>
          <g id="Group_2540" data-name="Group 2540">
            <path id="Path_30044" data-name="Path 30044" d="M214.15,153.9a.623.623,0,0,1-.253-.844,58.978,58.978,0,0,0,3.958-45.865.623.623,0,1,1,1.182-.394,60.245,60.245,0,0,1-4.043,46.851A.624.624,0,0,1,214.15,153.9Z"/>
          </g>
          <g id="Group_2541" data-name="Group 2541">
            <path id="Path_30045" data-name="Path 30045" d="M228.394,140.87a.623.623,0,0,1-.572-.87,29.271,29.271,0,0,0,.7-21.171.623.623,0,0,1,1.174-.417,30.529,30.529,0,0,1-.734,22.083A.623.623,0,0,1,228.394,140.87Z"/>
          </g>
          <g id="Group_2542" data-name="Group 2542">
            <path id="Path_30046" data-name="Path 30046" d="M55.233,119.3c-4.415.629-8.664.693-12.27-1.931-2.785-2.026-2.785-4.808-3-8.245a36.625,36.625,0,0,1,.728-9.893,28.436,28.436,0,0,0-.174-10.145l1.665,21.308c.131,1.679.307,3.474,1.378,4.773,1.777,2.156,5.072,1.979,7.842,1.609l53.721-7.171c1.363-.182,4.739-1.289,5.983-.8,1.01.4,5.248-.25,4.27.42-1.285.881-8.58,2.268-10.125,2.594-7.7,1.626-15.678,2.5-23.446,3.773-4.423.723-8.537,1.345-12.97,2C64.639,118.22,61.335,118.7,55.233,119.3Z" fill="#ccc"/>
          </g>
          <g id="Group_2543" data-name="Group 2543">
            <path id="Path_30047" data-name="Path 30047" d="M65.932,43.131a1.961,1.961,0,1,1-.243-.052"/>
          </g>
          <g id="Group_2544" data-name="Group 2544">
            <path id="Path_30048" data-name="Path 30048" d="M57.859,42.4a1.961,1.961,0,1,1-.243-.052"/>
          </g>
          <g id="Group_2545" data-name="Group 2545">
            <path id="Path_30049" data-name="Path 30049" d="M49.971,42.062a1.961,1.961,0,1,1-.243-.052"/>
          </g>
          <g id="Group_2546" data-name="Group 2546">
            <path id="Path_30050" data-name="Path 30050" d="M121.386,102.34a.623.623,0,0,1-.623-.61l-.426-19.782a.623.623,0,1,1,1.247-.027l.426,19.782a.624.624,0,0,1-.61.637Z"/>
          </g>
          <g id="Group_2547" data-name="Group 2547">
            <path id="Path_30051" data-name="Path 30051" d="M45.117,117.479l-.034-.007a3.629,3.629,0,0,1-2.769-3.05,2.73,2.73,0,0,1-.026-.331c-1.565-72.69-1.565-72.66-1.565-72.7a3.678,3.678,0,0,1,3.963-3.608c.076,0-2.75-.225,72.726,5.839a3.639,3.639,0,0,1,3.422,3.484l.66,30.461a.623.623,0,1,1-1.247.027l-.66-30.461a2.4,2.4,0,0,0-2.276-2.268l-72.63-5.834a2.442,2.442,0,0,0-2.712,2.351c1.64,76.093,1.56,72.655,1.572,72.814,0,.017.005.034.007.052a2.374,2.374,0,0,0,1.81,2.012l.031.007a2.62,2.62,0,0,0,.957.054l68.626-8.27a.623.623,0,0,1,.149,1.238L46.5,117.555A3.873,3.873,0,0,1,45.117,117.479Zm-.492-78.459h0Zm0,0h0Z"/>
          </g>
          <g id="Group_2548" data-name="Group 2548">
            <path id="Path_30052" data-name="Path 30052" d="M90.508,41.936l.017-3.223c-4.532-.837-7.264-1.427-11.414-2.079,0,1.662-.059,3.175.029,4.36"/>
            <path id="Path_30053" data-name="Path 30053" d="M90.508,42.56h0a.624.624,0,0,1-.62-.627l.014-2.7c-3.96-.737-6.586-1.288-10.167-1.867-.011,1.36-.042,2.612.03,3.584a.623.623,0,0,1-1.243.093c-.091-1.222-.029-2.717-.031-4.406a.623.623,0,0,1,.72-.616c2.843.446,5.028.865,7.559,1.35,1.178.226,2.434.466,3.871.732a.623.623,0,0,1,.51.616l-.017,3.223A.623.623,0,0,1,90.508,42.56Z"/>
          </g>
          <g id="Group_2549" data-name="Group 2549">
            <path id="Path_30054" data-name="Path 30054" d="M87.5,123.243l-.235-10.929a.623.623,0,0,1,1.247-.027l.235,10.929a.623.623,0,0,1-1.247.027Z"/>
          </g>
          <g id="Group_2550" data-name="Group 2550">
            <ellipse id="Ellipse_558" data-name="Ellipse 558" cx="1.567" cy="2.373" rx="1.567" ry="2.373" transform="translate(86.606 122.788) rotate(-1.232)"/>
            <path id="Path_30055" data-name="Path 30055" d="M88.253,128.116a1.994,1.994,0,0,1-1.613-.94,3.7,3.7,0,0,1-.605-2.009h0a3.7,3.7,0,0,1,.519-2.033,1.984,1.984,0,0,1,1.607-1.01,2.031,2.031,0,0,1,1.648.939,3.914,3.914,0,0,1,.087,4.042,1.985,1.985,0,0,1-1.607,1.01Zm-.058-4.745h-.009a.78.78,0,0,0-.579.427,2.481,2.481,0,0,0-.327,1.342h0a2.477,2.477,0,0,0,.384,1.327.789.789,0,0,0,.588.4h.009a.781.781,0,0,0,.579-.428,2.681,2.681,0,0,0-.058-2.668A.789.789,0,0,0,88.2,123.371Z"/>
          </g>
          <g id="Group_2551" data-name="Group 2551">
            <path id="Path_30056" data-name="Path 30056" d="M38.635,45.99q.919,30.223.7,60.467c-.02,2.7-.012,5.548,1.3,7.91s4.423,3.96,6.8,2.678c-1.716.566-3.6-.711-4.355-2.352a11.425,11.425,0,0,1-.592-5.332A427.051,427.051,0,0,0,41,48.916c-.291-3.032-.85-8.386,2.488-10.087a7.856,7.856,0,0,1,4.379-.544,13.486,13.486,0,0,0-4.728-.5C39.2,38.306,38.515,42.032,38.635,45.99Z"/>
          </g>
          <g id="Group_2552" data-name="Group 2552">
            <path id="Path_30057" data-name="Path 30057" d="M79.084,36.7c-.781.554-.931.711-1.56,1.184.023,1.074.045,2.07.065,3.042.817-.063,1.224-.148,2.041-.211"/>
            <path id="Path_30058" data-name="Path 30058" d="M77.172,41.384a.626.626,0,0,1-.2-.449L76.9,37.893a.624.624,0,0,1,.248-.511c.641-.482.764-.62,1.575-1.2a.623.623,0,0,1,.721,1.017c-.631.448-.812.608-1.29.98l.044,2.054c.422-.048.8-.1,1.385-.148a.623.623,0,1,1,.1,1.243c-.789.061-1.223.149-2.041.211A1.087,1.087,0,0,1,77.172,41.384Z"/>
          </g>
          <g id="Group_2553" data-name="Group 2553">
            <path id="Path_30059" data-name="Path 30059" d="M52.965,106.828a.623.623,0,0,1-.623-.6l-.937-21.211a.623.623,0,0,1,.176-.462.637.637,0,0,1,.457-.189l20.03.335a.624.624,0,0,1,.612.6l.829,18.777a.624.624,0,0,1-.557.648l-19.922,2.1C53.008,106.827,52.987,106.828,52.965,106.828Zm-.285-21.2.879,19.887,18.68-1.968-.778-17.6Z"/>
          </g>
          <g id="Group_2554" data-name="Group 2554">
            <path id="Path_30060" data-name="Path 30060" d="M72.406,104.269a.622.622,0,0,1-.418-.161c-2.442-2.206-5.018-4.408-7.51-6.537-4.208-3.6-8.56-7.314-12.435-11.2a.623.623,0,1,1,.883-.88c3.839,3.851,8.171,7.553,12.361,11.132,2.5,2.134,5.081,4.342,7.536,6.559a.623.623,0,0,1-.418,1.086Z"/>
          </g>
          <g id="Group_2555" data-name="Group 2555">
            <path id="Path_30061" data-name="Path 30061" d="M53.279,106.559a.623.623,0,0,1-.488-1.01c5.523-6.963,11.234-14.164,18.355-20.466a.623.623,0,1,1,.826.933c-7.04,6.229-12.716,13.386-18.2,20.307A.622.622,0,0,1,53.279,106.559Z"/>
          </g>
          <g id="Group_2568" data-name="Group 2568">
            <g id="Group_2556" data-name="Group 2556">
              <path id="Path_30062" data-name="Path 30062" d="M23.98,179.322a19.164,19.164,0,0,1-6.553-11.414.623.623,0,1,1,1.23-.205,17.9,17.9,0,0,0,6.121,10.661.623.623,0,0,1-.8.958Z"/>
            </g>
            <g id="Group_2557" data-name="Group 2557">
              <path id="Path_30063" data-name="Path 30063" d="M34.873,160.781a5.118,5.118,0,0,1-3.106-4.3c0-.05-.076-.627-.18-1.63a.623.623,0,0,0-1.24.128c.054.522.112,1.046.174,1.564.076,2.537,1.809,4.4,4.084,5.5A1.05,1.05,0,0,1,34.873,160.781Z"/>
              <path id="Path_30064" data-name="Path 30064" d="M56.02,159.418a.623.623,0,0,0-.772-.427l-4.926,1.42c-3,.567-6.471,1.227-7.11,1.341a1.353,1.353,0,0,1,.191,1.231c.763-.136,3.1-.585,7.179-1.353.058-.011-.234.069,5.011-1.441A.623.623,0,0,0,56.02,159.418Z"/>
            </g>
            <g id="Group_2558" data-name="Group 2558">
              <path id="Path_30065" data-name="Path 30065" d="M58.478,158.827a.623.623,0,0,1,.542-.695c3.092-.381,6.848-1.488,7.789-3.016a6.019,6.019,0,0,0,.8-3.819c-.025-.832-.014-.837-.023-1.64a81.254,81.254,0,0,0-.448-10.021c-.246-2.592-2.814-4.79-5.979-5.115l-8.168-1.242a.623.623,0,0,1,.187-1.233l8.138,1.238c3.712.381,6.947,3.132,7.083,6.534.512,4.6.39,9.228.456,11.442a11.251,11.251,0,0,1-.085,2.118,6.205,6.205,0,0,1-.9,2.391c-1.637,2.658-7.98,3.511-8.7,3.6A.623.623,0,0,1,58.478,158.827Z"/>
            </g>
            <g id="Group_2559" data-name="Group 2559">
              <path id="Path_30066" data-name="Path 30066" d="M30.156,152.861a102.288,102.288,0,0,1-.049-14.56,5.956,5.956,0,0,1,2.07-4.539c2.331-2.152,6.338-3.225,10.459-2.8l7.968.82a.623.623,0,0,1-.127,1.24l-7.968-.82c-3.776-.39-7.41.561-9.486,2.477a4.742,4.742,0,0,0-1.669,3.623c0,.018,0,.037,0,.054a101.018,101.018,0,0,0,.047,14.408.623.623,0,0,1-1.243.1Z"/>
            </g>
            <g id="Group_2560" data-name="Group 2560">
              <path id="Path_30067" data-name="Path 30067" d="M45.009,168.213a4.724,4.724,0,0,1-3.682,3.365,7.359,7.359,0,0,1-5.3-.5,6.28,6.28,0,0,1-3.226-4.483,5.208,5.208,0,0,1,2.054-5.092,4.775,4.775,0,0,0-.421,4.269c1.042,2.89,4.861,5.413,7.89,4.466a4.252,4.252,0,0,0,2.9-4.465,9.082,9.082,0,0,1-1.535,4.681Z" fill="#ccc"/>
            </g>
            <path id="Path_30068" data-name="Path 30068" d="M39.551,156.511c-3.856.147-6.885,3.662-6.752,7.837a7.287,7.287,0,0,0,7,7.316c3.956,0,7.138-3.56,7-7.842C46.662,159.661,43.431,156.357,39.551,156.511ZM35.444,162.6a.415.415,0,0,1-.331-.485,5.267,5.267,0,0,1,2.765-3.736.415.415,0,1,1,.363.747,4.423,4.423,0,0,0-2.312,3.143A.415.415,0,0,1,35.444,162.6Zm7.081,1.759-1.867.071.076,2.362a.623.623,0,1,1-1.246.04l-.075-2.355c-2.113.08-1.836.071-1.884.071a.623.623,0,0,1-.023-1.246l1.867-.071-.083-2.583a.623.623,0,0,1,.6-.643.615.615,0,0,1,.643.6l.082,2.575,1.859-.071a.623.623,0,1,1,.047,1.246Z"/>
            <g id="Group_2561" data-name="Group 2561">
              <path id="Path_30069" data-name="Path 30069" d="M53.466,142.126a.623.623,0,0,1-.005-1.247l11.578-.1a.623.623,0,1,1,.011,1.247Z"/>
            </g>
            <g id="Group_2562" data-name="Group 2562">
              <path id="Path_30070" data-name="Path 30070" d="M54.637,146.706a.623.623,0,0,1-.01-1.247,94.433,94.433,0,0,0,9.549-.647.623.623,0,1,1,.147,1.238C59.4,146.637,56.183,146.641,54.637,146.706Z"/>
            </g>
            <g id="Group_2563" data-name="Group 2563">
              <path id="Path_30071" data-name="Path 30071" d="M56.482,150.6a.623.623,0,0,1,.122-1.241,22.714,22.714,0,0,0,4.9-.048.623.623,0,1,1,.146,1.238A24.053,24.053,0,0,1,56.482,150.6Z"/>
            </g>
            <g id="Group_2564" data-name="Group 2564">
              <path id="Path_30072" data-name="Path 30072" d="M37.838,152.45a.621.621,0,0,1-.1-.375c.123-2.192.1-4.275.076-6.48-.066-6.047.1-6.81.12-7.668a.624.624,0,0,1,.835-.547c.574.147,8.639,1.842,11.485,2.294a.623.623,0,0,1,.525.633c-.09,3.211.182,7.615.092,10.8a.623.623,0,0,1-.543.6l-1.351.179c-2.732.365-5.312.711-10.483,1.071A.624.624,0,0,1,37.838,152.45Zm1.3-13.708c-.249,4.865.082,8.483-.129,12.928,4.985-.361,7.322-.691,10.629-1.131.045-2.932-.163-6.712-.116-9.722C46.976,140.379,41.437,139.244,39.136,138.742Z"/>
            </g>
            <g id="Group_2565" data-name="Group 2565">
              <path id="Path_30073" data-name="Path 30073" d="M38.192,152.492a.623.623,0,0,1-.079-.878,104.924,104.924,0,0,1,11.371-11.351.623.623,0,0,1,.8.954,103.473,103.473,0,0,0-11.216,11.2A.623.623,0,0,1,38.192,152.492Z"/>
            </g>
            <g id="Group_2566" data-name="Group 2566">
              <path id="Path_30074" data-name="Path 30074" d="M49.348,151.034a136.081,136.081,0,0,0-10.78-11.551.623.623,0,1,1,.86-.9,137.347,137.347,0,0,1,10.88,11.657.623.623,0,0,1-.959.8Z"/>
            </g>
            <g id="Group_2567" data-name="Group 2567">
              <path id="Path_30075" data-name="Path 30075" d="M35.762,181.662a.62.62,0,0,1-.4-.146,42.734,42.734,0,0,1-14.416-25.074.623.623,0,1,1,1.228-.213,41.472,41.472,0,0,0,13.989,24.333.623.623,0,0,1-.4,1.1Z"/>
            </g>
          </g>
          <g id="Group_2569" data-name="Group 2569">
            <path id="Path_30076" data-name="Path 30076" d="M31.322,43.246a.623.623,0,0,1-.32-.821A31.61,31.61,0,0,1,42.25,29.014a.623.623,0,1,1,.692,1.036,30.347,30.347,0,0,0-10.8,12.876A.624.624,0,0,1,31.322,43.246Z"/>
          </g>
          <path id="Path_30077" data-name="Path 30077" d="M112.835,53,91.216,51.2a.624.624,0,0,0-.675.621V77.706a.624.624,0,0,0,.675.621l21.619-1.8a.623.623,0,0,0,.571-.621V53.621A.623.623,0,0,0,112.835,53Zm-14.1,17.443V57.233c3.146,2.577,6.337,5.189,9.255,8.021C105.03,67.185,102.926,68.2,98.739,70.442Z"/>
          <g id="Group_2570" data-name="Group 2570">
            <path id="Path_30078" data-name="Path 30078" d="M175.016,90.319a8.253,8.253,0,0,1-4.388-4.17,18.064,18.064,0,0,1-2.2-7.695c-.1-1.857.8-3.314,1.2-4.917a.624.624,0,0,1,1-.326c4.053,3.371,8.412,3.948,11.962,1.583a2.113,2.113,0,0,1,2.08-.134c1.217.431,1.984,2.589,1.647,3.826a4.887,4.887,0,0,1-1.816,2.472.623.623,0,0,1-.8-.956,3.658,3.658,0,0,0,1.412-1.844,2.551,2.551,0,0,0-.86-2.323c-.594-.21-.771-.138-.972,0-3.766,2.508-8.465,2.09-12.719-1.084a9.861,9.861,0,0,0-.9,3.64,16.816,16.816,0,0,0,2.046,7.161,7.083,7.083,0,0,0,3.691,3.589c1.443.481,3.437-.1,3.946-1.595a.623.623,0,1,1,1.18.4C179.8,90.124,177.077,91.006,175.016,90.319Z"/>
          </g>
          <g id="Group_2571" data-name="Group 2571">
            <path id="Path_30079" data-name="Path 30079" d="M181.195,86.329a.623.623,0,0,1,.161-.866c.688-.473.843-1.14,1.077-2.15l.614.112.607.141a4.231,4.231,0,0,1-1.592,2.924A.623.623,0,0,1,181.195,86.329Z"/>
          </g>
          <g id="Group_2572" data-name="Group 2572">
            <path id="Path_30080" data-name="Path 30080" d="M171.568,83.987a3.229,3.229,0,0,1,.188-1.891,1.666,1.666,0,0,0,.09-1.076.623.623,0,1,1,1.122-.543,2.685,2.685,0,0,1-.021,1.986,2.376,2.376,0,0,0-.182,1.178.38.38,0,0,0,.225.226.623.623,0,0,1,.75,1A1.438,1.438,0,0,1,171.568,83.987Z"/>
          </g>
          <g id="Group_2573" data-name="Group 2573">
            <path id="Path_30081" data-name="Path 30081" d="M173.86,87.08a.623.623,0,0,1,.206-1.23.664.664,0,0,0,.568-.189.623.623,0,1,1,.893.87A1.918,1.918,0,0,1,173.86,87.08Z"/>
          </g>
          <g id="Group_2574" data-name="Group 2574">
            <path id="Path_30082" data-name="Path 30082" d="M185.087,92.837l-.754-5.724a.623.623,0,0,1,1.236-.162l.754,5.723a.623.623,0,1,1-1.236.163Z"/>
          </g>
          <g id="Group_2575" data-name="Group 2575">
            <path id="Path_30083" data-name="Path 30083" d="M195.8,75.823c-.408-.495-.719-1.068-1.143-1.261a3.168,3.168,0,0,0-1.363-.061,8.766,8.766,0,0,1-4.664-1.048.623.623,0,1,1,.595-1.1,7.493,7.493,0,0,0,4,.9,3.868,3.868,0,0,1,1.949.172,4.736,4.736,0,0,1,1.589,1.6c.271.329.707.605.935.476a.623.623,0,1,1,.611,1.087A2.045,2.045,0,0,1,195.8,75.823Z"/>
          </g>
          <g id="Group_2576" data-name="Group 2576">
            <path id="Path_30084" data-name="Path 30084" d="M64.518,71.82a9.675,9.675,0,0,1,.707-19.32,8.894,8.894,0,0,1,2.094.329.623.623,0,0,1,.434.757L65.67,61.565l7.862.288a.623.623,0,0,1,.6.646,9.809,9.809,0,0,1-2.964,6.709A9.011,9.011,0,0,1,64.518,71.82ZM59.443,56.006a8.651,8.651,0,0,0-.435,11.9,7.7,7.7,0,0,0,11.292.413,8.548,8.548,0,0,0,2.543-5.238l-7.994-.293a.623.623,0,0,1-.58-.78l2.118-8.116a7.637,7.637,0,0,0-1.207-.14A7.777,7.777,0,0,0,59.443,56.006Z"/>
          </g>
          <g id="Group_2577" data-name="Group 2577">
            <path id="Path_30085" data-name="Path 30085" d="M67.881,59.716l2.146-7.787a.187.187,0,0,1,.227-.131A9.351,9.351,0,0,1,74.4,54.158a8.545,8.545,0,0,1,2.2,4.3.186.186,0,0,1-.154.224l-8.353,1.27A.184.184,0,0,1,67.881,59.716Z"/>
          </g>
          <g id="Group_2578" data-name="Group 2578">
            <path id="Path_30086" data-name="Path 30086" d="M84.472,63.057l-3.44-3.7-3.226-.2a.623.623,0,0,1-.583-.661.617.617,0,0,1,.661-.583l3.474.22a.623.623,0,0,1,.417.2l3.609,3.883a.623.623,0,0,1-.913.849Z"/>
          </g>
          <g id="Group_2579" data-name="Group 2579">
            <ellipse id="Ellipse_559" data-name="Ellipse 559" cx="0.753" cy="0.792" rx="0.753" ry="0.792" transform="translate(84.845 64.136) rotate(-87.902)"/>
            <path id="Path_30087" data-name="Path 30087" d="M85.616,64.786a1.376,1.376,0,1,1,1.465-1.323h0A1.4,1.4,0,0,1,85.616,64.786Zm.048-1.5a.133.133,0,1,0,0,.258c.24,0,.218-.251.01-.258Zm.795.158h0Z"/>
          </g>
          <g id="Group_2580" data-name="Group 2580">
            <path id="Path_30088" data-name="Path 30088" d="M48.772,75.55a.623.623,0,0,1-.089-.877l3.349-4.109a.622.622,0,0,1,.42-.226l5.99-.611a.623.623,0,1,1,.127,1.24l-5.734.585L49.649,75.46A.623.623,0,0,1,48.772,75.55Z"/>
          </g>
          <g id="Group_2581" data-name="Group 2581">
            <ellipse id="Ellipse_560" data-name="Ellipse 560" cx="0.792" cy="0.752" rx="0.792" ry="0.752" transform="translate(47.112 76.245) rotate(-5.82)"/>
            <path id="Path_30089" data-name="Path 30089" d="M46.572,77.06a1.416,1.416,0,1,1,1.548,1.225A1.4,1.4,0,0,1,46.572,77.06Zm1.24-.127a.156.156,0,0,0,.181.112c.133-.014.21-.144.109-.222S47.8,76.819,47.812,76.933Z"/>
          </g>
          <g id="Group_2582" data-name="Group 2582">
            <path id="Path_30090" data-name="Path 30090" d="M86.2,72.483l-9.645.085.011,1.2,9.632-.085Z"/>
            <path id="Path_30091" data-name="Path 30091" d="M76.565,74.4a.623.623,0,0,1-.623-.618l-.011-1.2a.623.623,0,0,1,.618-.629l9.645-.085H86.2a.623.623,0,0,1,.623.625l0,1.2a.623.623,0,0,1-.618.622l-9.632.084Z"/>
          </g>
          <g id="Group_2583" data-name="Group 2583">
            <path id="Path_30092" data-name="Path 30092" d="M82.5,76.95l-9.645.085.011,1.2,9.632-.085Z"/>
            <path id="Path_30093" data-name="Path 30093" d="M72.866,78.862a.623.623,0,0,1-.623-.618l-.011-1.2a.623.623,0,0,1,.618-.629l9.645-.085H82.5a.623.623,0,0,1,.623.625l0,1.2a.623.623,0,0,1-.618.622l-9.633.085Z"/>
          </g>
          <g id="Group_2584" data-name="Group 2584">
            <path id="Path_30094" data-name="Path 30094" d="M111.019,48.837l-25.078-2.2A.623.623,0,1,1,86.05,45.4l25.078,2.2a.623.623,0,1,1-.109,1.242Z"/>
          </g>
          <g id="Group_2585" data-name="Group 2585">
            <path id="Path_30095" data-name="Path 30095" d="M89.8,101.726a.624.624,0,0,1-.623-.612l-.312-16.348a.624.624,0,0,1,.184-.454.648.648,0,0,1,.454-.181l21.8.522a.624.624,0,0,1,.608.612l.276,14.472a.624.624,0,0,1-.585.634l-21.768,1.354Zm.324-16.333.287,15.047,20.522-1.276-.254-13.278Z"/>
          </g>
          <g id="Group_2586" data-name="Group 2586">
            <path id="Path_30096" data-name="Path 30096" d="M90.229,101.6a.623.623,0,0,1-.493-1c2.336-3.035,4.792-6.04,7.3-8.932a.631.631,0,0,1,.523-.213.623.623,0,0,1,.48.3,86.149,86.149,0,0,0,5.6,7.863.623.623,0,0,1-.987.761c-2-2.593-3.684-4.812-5.226-7.251-2.3,2.675-4.553,5.442-6.7,8.235A.622.622,0,0,1,90.229,101.6Z"/>
          </g>
          <g id="Group_2587" data-name="Group 2587">
            <path id="Path_30097" data-name="Path 30097" d="M110.222,99.706c-1.139-.97-2.261-1.9-3.384-2.84-.964-.8-1.928-1.606-2.9-2.432-.343.393-.717.794-1.082,1.186-.5.54-1.024,1.1-1.437,1.608a.623.623,0,1,1-.968-.785c.439-.543.975-1.117,1.493-1.673.5-.54,1.024-1.1,1.437-1.608a.623.623,0,0,1,.427-.228.609.609,0,0,1,.462.146c1.135.966,2.253,1.9,3.37,2.828s2.251,1.875,3.394,2.848a.624.624,0,0,1-.808.95Z"/>
          </g>
          <g id="Group_2588" data-name="Group 2588">
            <ellipse id="Ellipse_561" data-name="Ellipse 561" cx="1.661" cy="1.616" rx="1.661" ry="1.616" transform="translate(99.976 88.476)"/>
          </g>
          <g id="Group_2589" data-name="Group 2589">
            <path id="Path_30098" data-name="Path 30098" d="M141.51,219.909H105.382a.623.623,0,1,1,0-1.247H141.51a.623.623,0,1,1,0,1.247Z"/>
          </g>
          <g id="Group_2590" data-name="Group 2590">
            <path id="Path_30099" data-name="Path 30099" d="M184.4,219.909H144.859a.623.623,0,1,1,0-1.247H184.4a.623.623,0,1,1,0,1.247Z"/>
          </g>
          <g id="Group_2591" data-name="Group 2591">
            <path id="Path_30100" data-name="Path 30100" d="M215.674,219.909H187.89a.623.623,0,0,1,0-1.247h27.784a.623.623,0,0,1,0,1.247Z"/>
          </g>
          <g id="Group_2592" data-name="Group 2592">
            <path id="Path_30101" data-name="Path 30101" d="M100.7,219.909H77.229a.623.623,0,1,1,0-1.247h23.459a.629.629,0,0,1,.629.623A.618.618,0,0,1,100.7,219.909Z"/>
          </g>
          <g id="Group_2593" data-name="Group 2593">
            <path id="Path_30102" data-name="Path 30102" d="M100.7,219.928h0a.621.621,0,0,1-.623-.621v0a.67.67,0,0,1,.166-.436.628.628,0,1,1,.457,1.062Z"/>
          </g>
          <g id="Group_2594" data-name="Group 2594">
            <path id="Path_30103" data-name="Path 30103" d="M100.7,219.928a.621.621,0,0,1-.623-.621v0a.623.623,0,1,1,.623.625Z"/>
          </g>
        </g>
        <path id="Path_30104" data-name="Path 30104" d="M193.486,76.652A19.389,19.389,0,0,0,188.9,72.89c2.482-.066,4.526-2.536,4.547-5.07a6.906,6.906,0,0,0-3.931-5.989,10.205,10.205,0,0,0-7.275-.411,7.4,7.4,0,0,0-3.217,1.624c-1.177,1.149-.33,2.661-.113,3.843a.475.475,0,0,1-.476.56c-2.7-.062-6.613-.034-8.34,1.853a10.028,10.028,0,0,0-2.477,8.093.763.763,0,0,0,.712.684c.749,0,.642-1.162,1.251-1.283.584-.115.774.841,1.305,1.116.474.245,1.021-.137,1.389-.527s.8-.85,1.323-.783a1.945,1.945,0,0,1,.875.508c2.261,1.762,5.976.494,7.92-1.2,1.634-1.422,3.744-.39,3.254,2.082a3.528,3.528,0,0,1-.823,1.609c-.406.509-1.04.566-1.177,1.249a23.719,23.719,0,0,0,.291,3.06,10.079,10.079,0,0,0,.24,1.95,3.07,3.07,0,0,0,1.2,2.09c1.974,1.3,5.829-.909,7.311-2.152a6.038,6.038,0,0,0,.8-9.147ZM190.5,69.56a.415.415,0,0,1-.416.416H190a.416.416,0,1,1,0-.831h.086A.415.415,0,0,1,190.5,69.56Zm-3.356-4.629a.415.415,0,0,1,.358-.75,5.274,5.274,0,0,1,2.844,3.635.415.415,0,1,1-.814.166A4.429,4.429,0,0,0,187.142,64.931Z"/>
      </g>
    </g>
  </g>
</svg>
