<svg width="120" height="51" viewBox="0 0 120 51" fill="none" xmlns="http://www.w3.org/2000/svg">
<path d="M57.3469 40.9256C57.7258 40.9256 58.1047 40.8624 58.4205 40.7361C58.7363 40.6098 59.0521 40.4203 59.3048 40.2308C59.5574 39.9782 59.7469 39.7256 59.8732 39.4098C59.9995 39.094 60.1258 38.7782 60.1258 38.3992C60.1258 37.7677 59.9363 37.2624 59.6205 36.8203C59.3048 36.3782 58.8626 36.0624 58.2942 35.8729C58.7363 35.6835 59.1153 35.3677 59.3679 34.9256C59.6205 34.4835 59.7469 34.0413 59.7469 33.5361C59.7469 33.2203 59.6837 32.9045 59.5574 32.6519C59.4311 32.3361 59.3047 32.0835 59.1153 31.8308C58.9258 31.5782 58.6732 31.3887 58.4205 31.2624C58.1679 31.1361 57.8521 31.0098 57.4732 31.0098H52.7363V40.8624H57.3469V40.9256ZM57.0311 35.5571H53.6837V31.894H57.1574C57.41 31.894 57.5995 31.9571 57.789 32.0203C57.9784 32.1466 58.1679 32.2729 58.2942 32.3992C58.4205 32.5887 58.5469 32.7782 58.61 32.9677C58.6732 33.2203 58.7363 33.4098 58.7363 33.6624C58.7363 33.915 58.6732 34.1045 58.61 34.3571C58.5469 34.5466 58.4205 34.7361 58.2311 34.9256C58.0416 35.115 57.9153 35.2413 57.7258 35.3045C57.5363 35.3677 57.2837 35.5571 57.0311 35.5571ZM57.3469 40.0413H53.6837V36.315H57.4732C57.7258 36.315 57.9153 36.3782 58.1679 36.5045C58.3574 36.6308 58.5469 36.7571 58.7363 36.9466C58.8626 37.1361 58.989 37.3256 59.1153 37.515C59.1784 37.7677 59.2416 37.9571 59.2416 38.2098C59.2416 38.4624 59.1784 38.715 59.1153 38.9045C59.0521 39.094 58.9258 39.3466 58.7363 39.4729C58.5469 39.6624 58.3574 39.7887 58.1679 39.8519C57.8521 40.0413 57.5995 40.0413 57.3469 40.0413ZM66.0626 40.9256V31.0729H65.1153V40.9256H66.0626ZM75.0311 40.9256C75.7258 40.9256 76.4205 40.7992 76.989 40.5466C77.5574 40.294 78.0626 39.9782 78.5048 39.5361C78.9469 39.094 79.2626 38.5887 79.4521 37.9571C79.6416 37.3256 79.7679 36.694 79.7679 35.9361C79.7679 35.2413 79.6416 34.6098 79.4521 34.0413C79.2626 33.4729 78.9469 32.9045 78.5679 32.4624C78.189 32.0203 77.6837 31.6413 77.1153 31.3887C76.5469 31.1361 75.8521 31.0098 75.0311 31.0098H71.6837V40.8624H75.0311V40.9256ZM75.0311 40.0413H72.6311V31.894H75.0311C75.6626 31.894 76.1679 32.0203 76.61 32.2098C77.0521 32.3992 77.4942 32.715 77.81 33.0308C78.1258 33.4098 78.3784 33.8519 78.5679 34.294C78.7574 34.7992 78.8205 35.3045 78.8205 35.9361C78.8205 36.5045 78.7574 37.0729 78.5679 37.5782C78.3784 38.0835 78.189 38.5256 77.8732 38.8413C77.5574 39.1571 77.1784 39.4729 76.6732 39.7256C76.2311 39.915 75.6626 40.0413 75.0311 40.0413ZM91.4521 40.9256V40.0413H85.7679V31.0729H84.8205V40.9256H91.4521ZM98.1469 40.9256V37.2624L101.999 31.0729H100.926L97.7048 36.3782L94.4837 31.0729H93.41L97.1995 37.2624V40.9887H98.1469V40.9256Z" fill="#059789"/>
<path fill-rule="evenodd" clip-rule="evenodd" d="M18.3157 10.1675C18.9473 9.4728 20.1473 9.4728 21.9789 10.1675L40.2947 18.0623C40.2315 18.3149 40.6736 17.2412 41.621 14.9044C42.5684 12.5675 43.8947 12.3149 45.4736 14.0833C49.0736 17.9991 51.2842 20.3991 52.0421 21.2833C53.1789 22.6728 53.1789 23.8728 52.6105 24.4412C52.2315 24.8202 51.221 24.8202 49.6421 24.4412C31.6421 16.4833 22.1684 12.2517 21.221 11.8728C20.2736 11.4939 20.021 11.8096 20.4 12.8202L31.6421 33.9149L30.5052 35.9991L19.6421 15.7886C18.1263 12.6939 17.6842 10.8623 18.3157 10.1675ZM44.6526 15.8517C44.021 15.157 43.5158 15.2833 43.2 16.1675L42.0631 18.6939C45.8526 20.6517 48.1894 21.7886 49.0736 22.2307C49.5789 22.4833 50.021 22.5465 50.1473 22.2307C50.2736 21.9149 50.0842 21.5991 49.7052 21.2202C46.9263 18.3781 45.2842 16.5465 44.6526 15.8517Z" fill="#05988B"/>
<path fill-rule="evenodd" clip-rule="evenodd" d="M38.526 22.168L39.9786 22.7995L40.3576 22.989C36.9471 31.1995 34.9892 35.8101 34.6102 36.8838V36.9469C34.2313 37.9574 34.547 38.1469 35.4944 37.5785L47.6839 26.2101L49.6418 27.0943L35.4944 39.9153C34.4207 40.5469 33.5365 40.6732 32.8418 40.2943L32.7155 40.2311C32.0207 39.789 31.8313 38.968 32.1471 37.8311L38.526 22.168Z" fill="#049789"/>
</svg>
