<svg width="9" height="12" viewBox="0 0 9 12" fill="none" xmlns="http://www.w3.org/2000/svg">
<g id="Layer_1">
<g id="Group">
<g id="Vector">
<mask id="path-1-inside-1_18_8491" fill="white">
<path d="M6.00049 0.872727C6.20756 0.872727 6.37549 0.677324 6.37549 0.436364C6.37549 0.195404 6.20756 0 6.00049 0H3.00049C2.79341 0 2.62549 0.195404 2.62549 0.436364C2.62549 0.677324 2.79341 0.872727 3.00049 0.872727H6.00049Z"/>
</mask>
<path d="M6.00049 1.87273C6.89668 1.87273 7.37549 1.08203 7.37549 0.436364H5.37549C5.37549 0.326675 5.41346 0.202247 5.50722 0.0931387C5.60276 -0.0180375 5.77412 -0.127273 6.00049 -0.127273V1.87273ZM7.37549 0.436364C7.37549 -0.209308 6.89668 -1 6.00049 -1V1C5.77412 1 5.60276 0.890765 5.50722 0.779589C5.41346 0.67048 5.37549 0.546052 5.37549 0.436364H7.37549ZM6.00049 -1H3.00049V1H6.00049V-1ZM3.00049 -1C2.10429 -1 1.62549 -0.209308 1.62549 0.436364H3.62549C3.62549 0.546052 3.58752 0.67048 3.49375 0.779589C3.39821 0.890765 3.22686 1 3.00049 1V-1ZM1.62549 0.436364C1.62549 1.08203 2.10429 1.87273 3.00049 1.87273V-0.127273C3.22686 -0.127273 3.39821 -0.0180375 3.49375 0.0931387C3.58752 0.202247 3.62549 0.326675 3.62549 0.436364H1.62549ZM3.00049 1.87273H6.00049V-0.127273H3.00049V1.87273Z" fill="#555555" mask="url(#path-1-inside-1_18_8491)"/>
</g>
<g id="Vector_2">
<mask id="path-3-inside-2_18_8491" fill="white">
<path d="M0.375 1.30908C0.167925 1.30908 0 1.50449 0 1.74545C0 1.98641 0.167925 2.18181 0.375 2.18181H0.75V10.2109C0.75 11.197 1.44 12 2.2875 12H6.7125C7.55996 12 8.25 11.1971 8.25 10.2109V2.18181H8.625C8.83208 2.18181 9 1.98641 9 1.74545C9 1.50449 8.83208 1.30908 8.625 1.30908H7.875H1.125H0.375ZM7.5 2.18181V10.2109C7.5 10.7171 7.1475 11.1273 6.7125 11.1273H2.2875C1.8525 11.1273 1.5 10.7171 1.5 10.2109V2.18181H7.5Z"/>
</mask>
<path d="M0.75 2.18181H1.75V1.18181H0.75V2.18181ZM8.25 2.18181V1.18181H7.25V2.18181H8.25ZM7.5 2.18181H8.5V1.18181H7.5V2.18181ZM1.5 2.18181V1.18181H0.5V2.18181H1.5ZM0.375 0.309082C-0.521194 0.309082 -1 1.09977 -1 1.74545H1C1 1.85513 0.962031 1.97956 0.868266 2.08867C0.772724 2.19985 0.601371 2.30908 0.375 2.30908V0.309082ZM-1 1.74545C-1 2.39112 -0.521194 3.18181 0.375 3.18181V1.18181C0.601371 1.18181 0.772724 1.29104 0.868266 1.40222C0.962031 1.51133 1 1.63576 1 1.74545H-1ZM0.375 3.18181H0.75V1.18181H0.375V3.18181ZM-0.25 2.18181V10.2109H1.75V2.18181H-0.25ZM-0.25 10.2109C-0.25 11.6017 0.750867 13 2.2875 13V11C2.19471 11 2.07516 10.9582 1.95936 10.8235C1.84199 10.6869 1.75 10.4729 1.75 10.2109H-0.25ZM2.2875 13H6.7125V11H2.2875V13ZM6.7125 13C8.24907 13 9.25 11.6018 9.25 10.2109H7.25C7.25 10.4729 7.15801 10.6869 7.04063 10.8235C6.92483 10.9582 6.80528 11 6.7125 11V13ZM9.25 10.2109V2.18181H7.25V10.2109H9.25ZM8.25 3.18181H8.625V1.18181H8.25V3.18181ZM8.625 3.18181C9.52119 3.18181 10 2.39112 10 1.74545H8C8 1.63576 8.03797 1.51133 8.13173 1.40222C8.22728 1.29104 8.39863 1.18181 8.625 1.18181V3.18181ZM10 1.74545C10 1.09977 9.52119 0.309082 8.625 0.309082V2.30908C8.39863 2.30908 8.22728 2.19985 8.13173 2.08867C8.03797 1.97956 8 1.85513 8 1.74545H10ZM8.625 0.309082H7.875V2.30908H8.625V0.309082ZM7.875 0.309082H1.125V2.30908H7.875V0.309082ZM1.125 0.309082H0.375V2.30908H1.125V0.309082ZM6.5 2.18181V10.2109H8.5V2.18181H6.5ZM6.5 10.2109C6.5 10.234 6.49172 10.2295 6.51096 10.2071C6.532 10.1826 6.60028 10.1273 6.7125 10.1273V12.1273C7.83662 12.1273 8.5 11.1218 8.5 10.2109H6.5ZM6.7125 10.1273H2.2875V12.1273H6.7125V10.1273ZM2.2875 10.1273C2.39972 10.1273 2.468 10.1826 2.48904 10.2071C2.50828 10.2295 2.5 10.234 2.5 10.2109H0.5C0.5 11.1218 1.16338 12.1273 2.2875 12.1273V10.1273ZM2.5 10.2109V2.18181H0.5V10.2109H2.5ZM1.5 3.18181H7.5V1.18181H1.5V3.18181Z" fill="#555555" mask="url(#path-3-inside-2_18_8491)"/>
</g>
</g>
</g>
</svg>
