<svg width="24" height="24" viewBox="0 0 24 24" fill="none" xmlns="http://www.w3.org/2000/svg">
<path d="M19.2656 0H15.9844C15.5961 0 15.2812 0.314812 15.2812 0.703125V3.98438C15.2812 4.37269 15.5961 4.6875 15.9844 4.6875H19.2656C19.6539 4.6875 19.9688 4.37269 19.9688 3.98438V0.703125C19.9688 0.314812 19.6539 0 19.2656 0Z" fill="white"/>
<path d="M5.20312 4.6875H8.48438C8.87269 4.6875 9.1875 4.37269 9.1875 3.98438V0.703125C9.1875 0.314812 8.87269 0 8.48438 0H5.20312C4.81481 0 4.5 0.314812 4.5 0.703125V3.98438C4.5 4.37269 4.81481 4.6875 5.20312 4.6875Z" fill="white"/>
<path d="M8.48438 19.3125H5.20312C4.81481 19.3125 4.5 19.6273 4.5 20.0156V23.2969C4.5 23.6852 4.81481 24 5.20312 24H8.48438C8.87269 24 9.1875 23.6852 9.1875 23.2969V20.0156C9.1875 19.6273 8.87269 19.3125 8.48438 19.3125Z" fill="white"/>
<path d="M12.0297 11.0461C10.3133 11.5685 8.84142 12.6066 7.77333 14.0481C7.69505 14.1538 7.61977 14.2611 7.54687 14.3696V6.09375H6.14062V17.9062H7.63139C8.03597 15.3204 9.86625 13.1745 12.4391 12.3914C14.1555 11.869 15.6274 10.8309 16.6955 9.38939C17.43 8.39794 17.9262 7.27931 18.1645 6.09375H16.7251C16.1595 8.42508 14.4135 10.3206 12.0297 11.0461Z" fill="white"/>
</svg>
