<svg width="16" height="16" viewBox="0 0 16 16" fill="none" xmlns="http://www.w3.org/2000/svg">
<path d="M15.707 8.84476L11.8903 6.64285C11.8457 6.61708 11.7951 6.60352 11.7435 6.60352C11.692 6.60352 11.6414 6.61708 11.5967 6.64285L7.7801 8.84476C7.73529 8.87063 7.69812 8.90787 7.67234 8.95273C7.64657 8.99758 7.6331 9.04845 7.6333 9.10018V13.504C7.63336 13.5555 7.64695 13.6061 7.67271 13.6506C7.69848 13.6952 7.73551 13.7322 7.7801 13.758L11.5967 15.9599C11.6414 15.9856 11.692 15.9992 11.7435 15.9992C11.7951 15.9992 11.8457 15.9856 11.8903 15.9599L15.707 13.758C15.7516 13.7322 15.7886 13.6952 15.8144 13.6506C15.8401 13.6061 15.8537 13.5555 15.8538 13.504V9.10018C15.854 9.04845 15.8405 8.99758 15.8147 8.95273C15.789 8.90787 15.7518 8.87063 15.707 8.84476ZM11.7435 7.23003L15.0405 9.13835L11.7435 10.9645L8.51407 9.10018L11.7435 7.23003ZM8.22048 9.60809L11.45 11.4709V15.201L8.22048 13.3367V9.60809ZM12.0371 15.201V11.4753L15.2666 9.68736V13.3352L12.0371 15.201Z" fill="#FC6D35"/>
<path d="M6.75254 13.8343L4.40383 15.129V11.5545L6.89933 10.0866C6.93676 10.0697 6.97023 10.0451 6.99757 10.0144C7.0249 9.98377 7.0455 9.94771 7.05803 9.90859C7.07055 9.86946 7.07473 9.82814 7.07028 9.78731C7.06584 9.74647 7.05288 9.70702 7.03223 9.6715C7.01158 9.63599 6.98371 9.6052 6.95042 9.58114C6.91713 9.55707 6.87915 9.54026 6.83896 9.53179C6.79876 9.52332 6.75723 9.52337 6.71706 9.53196C6.67689 9.54055 6.63896 9.55747 6.60574 9.58163L4.11024 11.0496L0.81471 9.18235L4.11024 7.31219L6.60574 8.626C6.67443 8.66006 6.75372 8.6659 6.82666 8.64226C6.8996 8.61863 6.9604 8.5674 6.99606 8.49953C7.03172 8.43165 7.03942 8.35252 7.0175 8.27905C6.99559 8.20557 6.9458 8.14359 6.87878 8.10635L4.23648 6.71767C4.19327 6.69403 4.14481 6.68164 4.09556 6.68164C4.04631 6.68164 3.99785 6.69403 3.95464 6.71767L0.146797 8.88436C0.101994 8.91022 0.0648211 8.94747 0.0390431 8.99232C0.0132651 9.03718 -0.000203071 9.08804 2.31433e-06 9.13978V13.4643C-0.000203071 13.5161 0.0132651 13.5669 0.0390431 13.6118C0.0648211 13.6566 0.101994 13.6939 0.146797 13.7198L3.96345 15.882C4.00808 15.9078 4.0587 15.9214 4.11024 15.9214C4.16178 15.9214 4.2124 15.9078 4.25703 15.882L7.04612 14.3466C7.08244 14.3295 7.11488 14.3052 7.14144 14.2752C7.168 14.2451 7.18812 14.2099 7.20055 14.1718C7.21299 14.1337 7.21748 14.0934 7.21374 14.0534C7.21001 14.0135 7.19812 13.9747 7.17883 13.9396C7.15954 13.9044 7.13324 13.8736 7.10157 13.8489C7.06989 13.8243 7.03351 13.8065 6.99466 13.7965C6.95582 13.7865 6.91533 13.7845 6.87571 13.7908C6.83609 13.797 6.79816 13.8113 6.76428 13.8328L6.75254 13.8343ZM0.587179 9.72402L3.81665 11.5575V15.1187L0.587179 13.2926V9.72402Z" fill="#FC6D35"/>
<path d="M4.11024 6.01826C4.1881 6.01826 4.26278 5.98733 4.31784 5.93227C4.3729 5.87721 4.40383 5.80254 4.40383 5.72467V3.00311L7.6333 4.86593V7.77979C7.6333 7.85766 7.66423 7.93233 7.71929 7.98739C7.77435 8.04245 7.84902 8.07338 7.92689 8.07338C8.00475 8.07338 8.07943 8.04245 8.13449 7.98739C8.18955 7.93233 8.22048 7.85766 8.22048 7.77979V4.86593L11.4499 3.00311V5.72467C11.4499 5.80254 11.4809 5.87721 11.5359 5.93227C11.591 5.98733 11.6657 6.01826 11.7435 6.01826C11.8214 6.01826 11.8961 5.98733 11.9511 5.93227C12.0062 5.87721 12.0371 5.80254 12.0371 5.72467V2.4952C12.0371 2.44372 12.0235 2.39315 11.9977 2.34858C11.972 2.304 11.9349 2.26699 11.8903 2.24125L8.07368 0.0393335C8.02905 0.0135658 7.97842 0 7.92689 0C7.87535 0 7.82472 0.0135658 7.78009 0.0393335L3.96344 2.24125C3.91886 2.26699 3.88182 2.304 3.85606 2.34858C3.83029 2.39315 3.8167 2.44372 3.81665 2.4952V5.72467C3.81665 5.80254 3.84758 5.87721 3.90264 5.93227C3.9577 5.98733 4.03237 6.01826 4.11024 6.01826ZM7.92689 0.632382L11.1564 2.4952L7.92689 4.35802L4.69742 2.4952L7.92689 0.632382Z" fill="#FC6D35"/>
</svg>
