<svg width="24" height="24" viewBox="0 0 24 24" fill="none" xmlns="http://www.w3.org/2000/svg">
<circle cx="12" cy="12" r="11.6" stroke="#68099A" stroke-width="0.8"/>
<path d="M9.27508 13.2684L10.6113 12.1305L9.27508 13.2684ZM9.27508 13.2684L10.6113 14.4063C10.6113 14.4063 10.6113 14.4063 10.6113 14.4063C10.7366 14.513 10.7515 14.7008 10.6451 14.8259L10.607 14.7935L10.6451 14.8259C10.5861 14.8951 10.5023 14.9307 10.4182 14.9307C10.3501 14.9307 10.2814 14.9072 10.2255 14.8596C10.2255 14.8596 10.2255 14.8596 10.2255 14.8596L8.62301 13.4951L8.62298 13.4951C8.55657 13.4385 8.51836 13.3557 8.51836 13.2684C8.51836 13.1811 8.55676 13.0984 8.62294 13.0419L8.62301 13.0418L10.2255 11.6773C10.2255 11.6773 10.2255 11.6773 10.2255 11.6773C10.3506 11.5707 10.5384 11.5858 10.645 11.7109L10.6451 11.7109C10.7515 11.8361 10.7366 12.0239 10.6113 12.1304L9.27508 13.2684Z" fill="#68099A" stroke="#68099A" stroke-width="0.1"/>
<path d="M13.3886 14.4064L13.3886 14.4063L14.7249 13.2684L13.3886 12.1304C13.3886 12.1304 13.3886 12.1304 13.3886 12.1304C13.2635 12.0239 13.2484 11.8361 13.355 11.7109L13.3886 14.4064ZM13.3886 14.4064C13.2636 14.5129 13.2484 14.7007 13.355 14.8258M13.3886 14.4064L15.377 13.0418M15.377 13.0418L15.377 13.0418C15.4434 13.0985 15.4816 13.1812 15.4816 13.2684C15.4816 13.3557 15.4434 13.4385 15.377 13.4951L15.377 13.4951L13.7745 14.8596C13.7186 14.9072 13.6499 14.9307 13.5817 14.9307C13.4977 14.9307 13.4138 14.8952 13.355 14.8258M15.377 13.0418L13.7745 11.6774L15.377 13.0418ZM13.355 14.8258L13.3931 14.7935M13.355 14.8258C13.355 14.8259 13.355 14.8259 13.3551 14.8259L13.3931 14.7935M13.3931 14.7935C13.442 14.8511 13.5117 14.8807 13.5817 14.8807C13.6384 14.8807 13.6955 14.8612 13.7421 14.8215M13.3931 14.7935L13.7421 14.8215M13.7421 14.8215L15.3445 13.457C15.3998 13.4099 15.4316 13.3411 15.4316 13.2684L13.7421 14.8215ZM13.7745 11.6773C13.6495 11.5707 13.4615 11.5858 13.355 11.7109L13.7745 11.6773Z" fill="#68099A" stroke="#68099A" stroke-width="0.1"/>
<path d="M11.371 15.9448L11.3711 15.9448C11.3916 15.9491 11.4122 15.9513 11.4327 15.9513C11.5705 15.9513 11.6941 15.8551 11.7236 15.7149L11.7236 15.7149L12.7223 10.9731L12.7223 10.9731C12.7562 10.8122 12.6533 10.6544 12.4925 10.6205L12.4925 10.6205C12.3315 10.5866 12.1737 10.6896 12.1399 10.8504L12.1399 10.8504L11.1411 15.5922C11.1411 15.5922 11.1411 15.5922 11.1411 15.5922C11.1072 15.753 11.2102 15.9109 11.371 15.9448Z" fill="#68099A" stroke="#68099A" stroke-width="0.1"/>
<path d="M6.16274 18.5342H17.8373C18.7816 18.5342 19.55 17.766 19.55 16.8214V6.91274C19.55 5.96835 18.7816 5.2 17.8373 5.2H6.16274C5.21835 5.2 4.45 5.96835 4.45 6.91274V16.8214C4.45 17.766 5.21835 18.5342 6.16274 18.5342ZM5.04528 6.91274C5.04528 6.29665 5.54665 5.79528 6.16274 5.79528H17.8373C18.4534 5.79528 18.9547 6.29665 18.9547 6.91274V16.8214C18.9547 17.4375 18.4534 17.9389 17.8373 17.9389H6.16274C5.54665 17.9389 5.04528 17.4375 5.04528 16.8214V6.91274Z" fill="#68099A" stroke="#68099A" stroke-width="0.1"/>
<path d="M4.74764 9.26794H19.2524C19.4168 9.26794 19.55 9.13472 19.55 8.9703C19.55 8.80603 19.4168 8.67266 19.2524 8.67266H4.74764C4.5832 8.67266 4.45 8.80603 4.45 8.9703C4.45 9.13472 4.58322 9.26794 4.74764 9.26794Z" fill="#68099A" stroke="#68099A" stroke-width="0.1"/>
<path d="M7.89751 7.24463C7.89751 7.70423 8.2716 8.07832 8.7312 8.07832C9.19095 8.07832 9.56489 7.70423 9.56489 7.24463C9.56489 6.78489 9.19094 6.41094 8.7312 6.41094C8.2716 6.41094 7.89751 6.78488 7.89751 7.24463ZM8.49279 7.24463C8.49279 7.1132 8.59988 7.00622 8.7312 7.00622C8.86265 7.00622 8.96961 7.11318 8.96961 7.24463C8.96961 7.37607 8.86265 7.48304 8.7312 7.48304C8.59988 7.48304 8.49279 7.37606 8.49279 7.24463Z" fill="#68099A" stroke="#68099A" stroke-width="0.1"/>
<path d="M5.48955 7.23682C5.48955 7.69656 5.8635 8.07051 6.32324 8.07051C6.78299 8.07051 7.15693 7.69656 7.15693 7.23682C7.15693 6.77707 6.78299 6.40312 6.32324 6.40312C5.8635 6.40312 5.48955 6.77707 5.48955 7.23682ZM6.08483 7.23682C6.08483 7.10551 6.19193 6.99841 6.32324 6.99841C6.45467 6.99841 6.56165 7.10549 6.56165 7.23682C6.56165 7.36826 6.45469 7.47522 6.32324 7.47522C6.19192 7.47522 6.08483 7.36825 6.08483 7.23682Z" fill="#68099A" stroke="#68099A" stroke-width="0.1"/>
<path d="M10.3055 7.25621C10.3055 7.71595 10.6794 8.0899 11.139 8.0899C11.5988 8.0899 11.9727 7.71595 11.9727 7.25621C11.9727 6.7966 11.5988 6.42266 11.139 6.42266C10.6794 6.42266 10.3055 6.7966 10.3055 7.25621ZM10.9008 7.25621C10.9008 7.12475 11.0077 7.0178 11.139 7.0178C11.2705 7.0178 11.3774 7.12476 11.3774 7.25621C11.3774 7.38766 11.2705 7.49462 11.139 7.49462C11.0077 7.49462 10.9008 7.38767 10.9008 7.25621Z" fill="#68099A" stroke="#68099A" stroke-width="0.1"/>
</svg>
