<svg width="24" height="24" viewBox="0 0 24 24" fill="none" xmlns="http://www.w3.org/2000/svg">
<path d="M17.1492 12.6491C17.3284 12.4699 17.4182 12.2347 17.4182 12C17.4182 11.7652 17.3284 11.53 17.1492 11.3508L8.96742 3.16901C8.96741 3.169 8.9674 3.169 8.9674 3.16899C8.6088 2.81018 8.02779 2.8105 7.66909 3.16897C7.31029 3.52754 7.31032 4.10858 7.66907 4.46732L15.2017 12L7.66909 19.5326C7.66908 19.5326 7.66907 19.5326 7.66907 19.5326C7.31026 19.8912 7.31057 20.4722 7.66904 20.8309C8.02761 21.1897 8.60865 21.1897 8.9674 20.8309L17.1492 12.6491Z" fill="#424242" stroke="#424242" stroke-width="0.2"/>
</svg>
