<svg width="16" height="16" viewBox="0 0 16 16" fill="none" xmlns="http://www.w3.org/2000/svg">
<path d="M8 16C7.7928 16 7.59409 15.9177 7.44757 15.7712C7.30106 15.6247 7.21875 15.426 7.21875 15.2188V0.78125C7.21875 0.57405 7.30106 0.375336 7.44757 0.228823C7.59409 0.08231 7.7928 0 8 0C8.2072 0 8.40591 0.08231 8.55243 0.228823C8.69894 0.375336 8.78125 0.57405 8.78125 0.78125V15.2188C8.78125 15.426 8.69894 15.6247 8.55243 15.7712C8.40591 15.9177 8.2072 16 8 16Z" fill="#10A37F"/>
<path d="M15.2188 8.78516H0.78125C0.57405 8.78516 0.375336 8.70285 0.228823 8.55633C0.08231 8.40982 0 8.21111 0 8.00391C0 7.79671 0.08231 7.59799 0.228823 7.45148C0.375336 7.30497 0.57405 7.22266 0.78125 7.22266H15.2188C15.426 7.22266 15.6247 7.30497 15.7712 7.45148C15.9177 7.59799 16 7.79671 16 8.00391C16 8.21111 15.9177 8.40982 15.7712 8.55633C15.6247 8.70285 15.426 8.78516 15.2188 8.78516Z" fill="#10A37F"/>
</svg>
