<svg width="32" height="32" viewBox="0 0 32 32" fill="none" xmlns="http://www.w3.org/2000/svg">
<path d="M26.0338 7.39844H4.33894C3.141 7.39844 2.16962 8.36978 2.16962 9.56776V26.3815H28.2034V9.56794C28.2034 8.36978 27.232 7.39844 26.0338 7.39844Z" fill="#EC616E"/>
<path d="M4.33887 9.57031H26.0338V27.4685H4.33887V9.57031Z" fill="white"/>
<path d="M26.0336 9.57031H15.1998C15.1998 9.66078 15.1862 9.74981 15.1862 9.84134C15.1869 14.4841 18.951 18.2476 23.5937 18.2476C24.4203 18.2476 25.2424 18.1256 26.0336 17.8854V9.57031Z" fill="white"/>
<path d="M6.8584 27.4685H26.0339V9.57031H23.3753L6.8584 27.4685Z" fill="white"/>
<path d="M5.96582 11.1953H7.05069V12.2802H5.96582V11.1953Z" fill="#5EB3D1"/>
<path d="M8.13574 11.1953H9.22043V12.2802H8.13574V11.1953Z" fill="#5EB3D1"/>
<path d="M10.3054 11.1953H11.39V12.2802H10.3054V11.1953Z" fill="#5EB3D1"/>
<path d="M6.50879 23.668H9.22045V24.7526H6.50879V23.668Z" fill="#5EB3D1"/>
<path d="M11.39 23.668H14.1018V24.7526H11.39V23.668Z" fill="#5EB3D1"/>
<path d="M16.2712 23.668H18.983V24.7526H16.2712V23.668Z" fill="#5EB3D1"/>
<path d="M21.1526 23.668H23.8643V24.7526H21.1526V23.668Z" fill="#5EB3D1"/>
<path d="M6.50879 13.9102H23.8646V17.1643H6.50879V13.9102Z" fill="white"/>
<path d="M11.39 19.332H14.1018V22.0439H11.39V19.332Z" fill="#5EB3D1"/>
<path d="M6.50879 19.332H9.22045V22.0439H6.50879V19.332Z" fill="#5EB3D1"/>
<path d="M21.1526 19.332H23.8643V22.0439H21.1526V19.332Z" fill="#5EB3D1"/>
<path d="M16.2712 19.332H18.983V22.0439H16.2712V19.332Z" fill="#5EB3D1"/>
<path d="M32 9.02662C32 13.2203 28.6004 16.6199 24.4067 16.6199C20.2131 16.6199 16.8135 13.2203 16.8135 9.02662C16.8135 4.833 20.2131 1.43359 24.4067 1.43359C28.6004 1.43359 32 4.833 32 9.02662Z" fill="#DCFEA1"/>
<path d="M28.2032 29.637H2.1695C1.27073 29.637 0.542297 28.9086 0.542297 28.0098V26.3828H11.8682C12.2398 26.3828 12.5798 26.5926 12.7457 26.9252C12.9115 27.2576 13.2518 27.4675 13.6232 27.4675H16.7494C17.1209 27.4675 17.461 27.2576 17.6271 26.9252C17.7929 26.5926 18.133 26.3828 18.5046 26.3828H29.8305V28.0098C29.8305 28.9086 29.102 29.637 28.2032 29.637Z" fill="#DADDDF"/>
<path d="M27.1184 26.3828V28.0098C27.1184 28.9086 26.39 29.637 25.4912 29.637H28.2033C29.1018 29.637 29.8303 28.9086 29.8303 28.0098V26.3828H27.1184Z" fill="#D0D4D6"/>
<path fill-rule="evenodd" clip-rule="evenodd" d="M28.2033 30.1774H2.16953C0.97138 30.1774 0 29.206 0 28.0078V26.3808C0 26.0814 0.242952 25.8383 0.542332 25.8383H1.6272V9.56713C1.62869 8.07023 2.84196 6.85696 4.33885 6.85547H15.1863V7.9401H4.33885C3.44029 7.9401 2.71186 8.66854 2.71186 9.56732V25.8383H3.79652V9.56713C3.79652 9.26774 4.03947 9.02479 4.33885 9.02479H15.1865V10.1097H4.8814V25.8383H11.8682C12.4457 25.8368 12.974 26.1632 13.2306 26.6806C13.3044 26.8299 13.4567 26.9236 13.6232 26.9232H16.7494C16.9159 26.9236 17.0684 26.8299 17.1423 26.6806C17.3989 26.1632 17.9269 25.8368 18.5046 25.8383H25.4914V18.2452H26.5763V25.8383H27.6609V17.7029H28.7456V25.8385H29.8305C30.1298 25.8385 30.3728 26.0814 30.3728 26.3808V28.0078C30.3728 29.206 29.4014 30.1774 28.2033 30.1774ZM11.8682 26.9232H1.08487L1.08466 28.0078C1.08466 28.6072 1.57014 29.0927 2.16953 29.0927H28.2033C28.8027 29.0927 29.2882 28.6072 29.2882 28.0078V26.9232H18.5046C18.3381 26.9225 18.1858 27.0164 18.1119 27.1657C17.8554 27.6831 17.3273 28.0095 16.7496 28.0078H13.6234C13.0457 28.0095 12.5175 27.6831 12.2609 27.1657C12.1872 27.0164 12.0347 26.9225 11.8682 26.9232Z" fill="black"/>
<path d="M5.96582 11.1953H7.05069V12.2802H5.96582V11.1953Z" fill="black"/>
<path d="M8.13574 11.1953H9.22043V12.2802H8.13574V11.1953Z" fill="black"/>
<path d="M10.3054 11.1953H11.39V12.2802H10.3054V11.1953Z" fill="black"/>
<path d="M16.271 14.4519V13.3672H6.50835C6.20877 13.3672 5.96582 13.6101 5.96582 13.9095V17.1637C5.96582 17.4631 6.20877 17.7061 6.50835 17.7061H19.5251V16.6214H7.05069V14.4519H16.271Z" fill="black"/>
<path d="M5.96582 23.668H9.76235V24.7526H5.96582V23.668Z" fill="black"/>
<path d="M10.8477 23.668H14.6442V24.7526H10.8477V23.668Z" fill="black"/>
<path d="M15.7288 23.668H19.5253V24.7526H15.7288V23.668Z" fill="black"/>
<path d="M20.61 23.668H24.4068V24.7526H20.61V23.668Z" fill="black"/>
<path fill-rule="evenodd" clip-rule="evenodd" d="M14.1018 18.7891C14.4012 18.7891 14.6442 19.032 14.6442 19.3314V22.0432C14.6442 22.3426 14.4012 22.5856 14.1018 22.5856H11.39C11.0906 22.5856 10.8477 22.3426 10.8477 22.0432V19.3314C10.8477 19.032 11.0906 18.7891 11.39 18.7891H14.1018ZM11.9323 21.5009H13.5595V19.8737H11.9323V21.5009Z" fill="black"/>
<path fill-rule="evenodd" clip-rule="evenodd" d="M9.22001 18.7891C9.5194 18.7891 9.76235 19.032 9.76235 19.3314V22.0432C9.76235 22.3426 9.5194 22.5856 9.22001 22.5856H6.50835C6.20877 22.5856 5.96582 22.3426 5.96582 22.0432V19.3314C5.96582 19.032 6.20877 18.7891 6.50835 18.7891H9.22001ZM7.05069 21.5009H8.67767V19.8737H7.05069V21.5009Z" fill="black"/>
<path fill-rule="evenodd" clip-rule="evenodd" d="M24.4069 22.0432C24.4069 22.3426 24.1639 22.5856 23.8645 22.5856H21.1527C20.8533 22.5856 20.6104 22.3426 20.6104 22.0432V19.3314C20.6104 19.0322 20.8533 18.7891 21.1527 18.7891H23.8645C24.1639 18.7891 24.4069 19.032 24.4069 19.3314V22.0432ZM23.3222 19.8737H21.695V21.5009H23.3222V19.8737Z" fill="black"/>
<path fill-rule="evenodd" clip-rule="evenodd" d="M18.983 18.7891C19.2824 18.7891 19.5253 19.032 19.5253 19.3314V22.0432C19.5253 22.3426 19.2824 22.5856 18.983 22.5856H16.2712C15.9718 22.5856 15.7288 22.3426 15.7288 22.0432V19.3314C15.7288 19.032 15.9718 18.7891 16.2712 18.7891H18.983ZM16.8135 21.5009H18.4407V19.8737H16.8135V21.5009Z" fill="black"/>
<path d="M30.2577 4.18156H30.7173C30.8776 4.18156 31.0077 4.05153 31.0077 3.89119C31.0077 3.73085 30.8776 3.60082 30.7173 3.60082H29.6139C29.4536 3.60082 29.3236 3.73085 29.3236 3.89119V4.99458C29.3236 5.15492 29.4536 5.28495 29.6139 5.28495C29.7743 5.28495 29.9043 5.15492 29.9043 4.99458V4.67509C30.7853 5.85459 31.2642 7.2857 31.2642 8.77419C31.2642 12.5555 28.188 15.6317 24.4067 15.6317C20.6254 15.6317 17.5492 12.5555 17.5492 8.77419C17.5492 4.99292 20.6254 1.91667 24.4067 1.91667C24.6863 1.91667 24.9678 1.93366 25.2433 1.96713C25.4023 1.98636 25.5473 1.87314 25.5666 1.71394C25.5859 1.55476 25.4726 1.40998 25.3134 1.39064C25.0147 1.35435 24.7097 1.33594 24.4067 1.33594C22.4198 1.33594 20.552 2.10965 19.1471 3.51455C17.7422 4.91943 16.9684 6.78734 16.9684 8.77419C16.9684 10.761 17.7422 12.6289 19.1471 14.0338C20.552 15.4387 22.4198 16.2124 24.4067 16.2124C26.3935 16.2124 28.2614 15.4387 29.6663 14.0338C31.0712 12.6289 31.8449 10.761 31.8449 8.77419C31.8449 7.09761 31.2848 5.48803 30.2577 4.18156Z" fill="black"/>
<path d="M20.0929 5.70297C19.9566 5.61667 19.7761 5.65728 19.6898 5.79354C19.0229 6.84694 18.7276 8.11376 18.8585 9.36069C18.9912 10.6261 19.5608 11.8195 20.4622 12.7209C21.55 13.8088 22.979 14.3527 24.408 14.3527C25.8369 14.3527 27.2659 13.8088 28.3537 12.7209C30.5294 10.5452 30.5294 7.00509 28.3537 4.8294C27.4537 3.92939 26.2623 3.36004 24.999 3.22623C23.7544 3.09433 22.4889 3.38727 21.436 4.05096C21.2994 4.137 21.2586 4.3174 21.3446 4.45389C21.4306 4.59042 21.611 4.63129 21.7475 4.54528C23.7323 3.29428 26.2789 3.58097 27.9405 5.24257C29.8884 7.19044 29.8884 10.3598 27.9405 12.3077C25.9927 14.2556 22.8232 14.2556 20.8754 12.3077C19.2368 10.6691 18.9458 8.06095 20.1835 6.10613C20.2698 5.96979 20.2292 5.7893 20.0929 5.70297Z" fill="black"/>
<path d="M28.4136 8.77348H28.7682C28.927 8.77348 29.0558 8.6694 29.0558 8.54104C29.0558 8.41268 28.927 8.30859 28.7682 8.30859H28.4136C28.2548 8.30859 28.126 8.41268 28.126 8.54104C28.126 8.6694 28.2547 8.77348 28.4136 8.77348Z" fill="black"/>
<path d="M20.2227 8.54104C20.2227 8.6694 20.3514 8.77348 20.5102 8.77348H20.8649C21.0237 8.77348 21.1524 8.6694 21.1524 8.54104C21.1524 8.41268 21.0237 8.30859 20.8649 8.30859H20.5102C20.3514 8.30859 20.2227 8.41268 20.2227 8.54104Z" fill="black"/>
<path d="M24.8718 4.77112V4.41648C24.8718 4.25768 24.7677 4.12891 24.6394 4.12891C24.511 4.12891 24.4069 4.25768 24.4069 4.41648V4.77112C24.4069 4.92991 24.511 5.05869 24.6394 5.05869C24.7677 5.05869 24.8718 4.92991 24.8718 4.77112Z" fill="black"/>
<path d="M24.4069 12.7798V13.1344C24.4069 13.2932 24.511 13.422 24.6394 13.422C24.7677 13.422 24.8718 13.2932 24.8718 13.1344V12.7798C24.8718 12.621 24.7677 12.4922 24.6394 12.4922C24.511 12.4922 24.4069 12.6209 24.4069 12.7798Z" fill="black"/>
<path fill-rule="evenodd" clip-rule="evenodd" d="M23.0926 6.66958C23.2002 6.54959 23.3745 6.54959 23.482 6.66958L24.4149 7.71121C24.5481 7.63139 24.7003 7.58597 24.8617 7.58597C25.0232 7.58597 25.1753 7.63139 25.3086 7.71121L27.191 5.60952C27.2985 5.48954 27.4728 5.48954 27.5803 5.60952C27.6878 5.72956 27.6878 5.92417 27.5803 6.04421L25.6979 8.14588C25.7694 8.2946 25.8101 8.46447 25.8101 8.64476C25.8101 9.22857 25.3846 9.70355 24.8617 9.70355C24.3388 9.70355 23.9134 9.22857 23.9134 8.64476C23.9134 8.46447 23.9541 8.2946 24.0256 8.14588L23.0926 7.10425C22.9852 6.98421 22.9852 6.78961 23.0926 6.66958ZM24.8617 9.08887C25.0811 9.08887 25.2595 8.88966 25.2595 8.64476C25.2595 8.3999 25.0811 8.20065 24.8617 8.20065C24.6424 8.20065 24.464 8.3999 24.464 8.64476C24.464 8.88966 24.6424 9.08887 24.8617 9.08887Z" fill="black"/>
<path d="M21.0841 4.98663C21.1276 4.94339 21.1524 4.88342 21.1524 4.82229C21.1524 4.76116 21.1276 4.70142 21.0841 4.65795C21.0409 4.61474 20.9812 4.58984 20.9199 4.58984C20.8587 4.58984 20.7988 4.61472 20.7556 4.65795C20.7124 4.70119 20.6875 4.76116 20.6875 4.82229C20.6875 4.88365 20.7124 4.94339 20.7556 4.98663C20.7988 5.02984 20.8587 5.05473 20.9199 5.05473C20.9812 5.05473 21.0409 5.02984 21.0841 4.98663Z" fill="black"/>
<path d="M26.4986 2.26567C26.56 2.26567 26.6199 2.24101 26.6631 2.19757C26.7063 2.15433 26.7312 2.09457 26.7312 2.03323C26.7312 1.97209 26.7063 1.91212 26.6631 1.86889C26.6199 1.82568 26.56 1.80078 26.4986 1.80078C26.4375 1.80078 26.3776 1.82565 26.3344 1.86889C26.2912 1.91212 26.2663 1.97209 26.2663 2.03323C26.2663 2.09459 26.2912 2.15433 26.3344 2.19757C26.3776 2.24101 26.4375 2.26567 26.4986 2.26567Z" fill="black"/>
</svg>
