<svg width="24" height="24" viewBox="0 0 24 24" fill="none" xmlns="http://www.w3.org/2000/svg">
<circle cx="12" cy="12" r="12" fill="#EBFFFA"/>
<path d="M9.974 13.9917C9.97954 14.1832 10.062 14.3647 10.2034 14.4965C10.3448 14.6282 10.5335 14.6996 10.7282 14.6948H13.7485C13.9432 14.6996 14.1319 14.6282 14.2732 14.4964C14.4146 14.3647 14.4971 14.1832 14.5026 13.9917C14.5026 13.9917 14.5025 12.3897 14.5021 12.3851C14.4685 11.8356 13.923 11.5766 13.8439 11.5419L13.5506 11.3991C13.4632 11.5371 13.3541 11.6605 13.2273 11.7647C13.2273 11.7647 13.6458 11.9684 13.6495 11.9699C13.6531 11.9715 14.0037 12.1239 14.0259 12.407V13.9917C14.0203 14.0588 13.988 14.121 13.9361 14.1648C13.8841 14.2087 13.8167 14.2307 13.7485 14.2261H10.7282C10.6599 14.2307 10.5925 14.2087 10.5406 14.1648C10.4886 14.121 10.4563 14.0588 10.4507 13.9917V12.407C10.4728 12.1239 10.8233 11.9715 10.8256 11.9704C10.8304 11.9685 11.2484 11.7639 11.2484 11.7639C11.1218 11.6597 11.0128 11.5363 10.9255 11.3984L10.6323 11.542C10.5521 11.5772 10.0078 11.8363 9.97441 12.3852C9.97412 12.3897 9.974 13.9917 9.974 13.9917Z" fill="#10A37F"/>
<path d="M11.629 11.9922L11.4097 12.976C11.4004 13.0177 11.4029 13.061 11.4168 13.1014C11.4307 13.1417 11.4555 13.1776 11.4886 13.2051L12.0845 13.7007C12.1277 13.7361 12.1821 13.7555 12.2384 13.7555C12.2946 13.7555 12.3491 13.7361 12.3922 13.7007L12.9881 13.2051C13.0212 13.1776 13.0461 13.1417 13.06 13.1014C13.0739 13.061 13.0764 13.0177 13.0671 12.976L12.8479 11.9922C12.7009 12.0542 12.5449 12.0934 12.3856 12.1081L12.5706 12.9384L12.2384 13.2148L11.9061 12.9384L12.0911 12.1081C11.9319 12.0934 11.7759 12.0543 11.629 11.9922Z" fill="#10A37F"/>
<path d="M13.3109 9.89062C13.3109 9.6109 13.1979 9.34264 12.9968 9.14485C12.7956 8.94706 12.5228 8.83594 12.2383 8.83594C11.9539 8.83594 11.6811 8.94706 11.4799 9.14485C11.2788 9.34264 11.1658 9.6109 11.1658 9.89062V10.5938C11.1658 10.8735 11.2788 11.1417 11.4799 11.3395C11.6811 11.5373 11.9539 11.6484 12.2383 11.6484C12.5228 11.6484 12.7956 11.5373 12.9968 11.3395C13.1979 11.1417 13.3109 10.8735 13.3109 10.5938V9.89062ZM12.8342 10.5938C12.8342 10.7492 12.7714 10.8982 12.6597 11.0081C12.5479 11.118 12.3964 11.1797 12.2383 11.1797C12.0803 11.1797 11.9287 11.118 11.817 11.0081C11.7052 10.8982 11.6425 10.7492 11.6425 10.5938V9.89062C11.6425 9.73522 11.7052 9.58619 11.817 9.4763C11.9287 9.36642 12.0803 9.30469 12.2383 9.30469C12.3964 9.30469 12.5479 9.36642 12.6597 9.4763C12.7714 9.58619 12.8342 9.73522 12.8342 9.89062V10.5938Z" fill="#10A37F"/>
<path d="M6.23629 7.0146C6.28594 7.05268 6.34876 7.07018 6.41134 7.06338C6.47393 7.05659 6.53134 7.02602 6.57135 6.97821C6.7678 6.73602 7.00029 6.52437 7.26096 6.35038C7.31333 6.31557 7.34948 6.26173 7.36147 6.2007C7.37347 6.13967 7.36032 6.07646 7.32491 6.02497C7.28951 5.97348 7.23475 5.93793 7.17269 5.92613C7.11063 5.91434 7.04635 5.92727 6.99399 5.96209C6.69363 6.16244 6.42571 6.4062 6.19928 6.68512C6.15977 6.73365 6.14147 6.79561 6.14841 6.8574C6.15535 6.91918 6.18696 6.97573 6.23629 7.0146Z" fill="#10A37F"/>
<path d="M17.0967 6.46757C17.3573 6.64155 17.5897 6.85318 17.7861 7.09533C17.8261 7.14321 17.8835 7.17383 17.9461 7.18064C18.0087 7.18745 18.0715 7.16991 18.1212 7.13178C18.1456 7.11255 18.1659 7.08877 18.181 7.06181C18.1961 7.03485 18.2057 7.00523 18.2091 6.97464C18.2126 6.94405 18.2098 6.91309 18.2011 6.88353C18.1924 6.85397 18.1779 6.82639 18.1583 6.80237C17.9319 6.52341 17.664 6.27964 17.3636 6.07927C17.3113 6.04446 17.247 6.03153 17.1849 6.04332C17.1229 6.05511 17.0681 6.09067 17.0327 6.14216C16.9973 6.19365 16.9842 6.25686 16.9962 6.31789C17.0081 6.37892 17.0443 6.43275 17.0967 6.46757Z" fill="#10A37F"/>
<path d="M7.26101 17.8876C7.00035 17.7136 6.76785 17.5019 6.57134 17.2597C6.53183 17.2112 6.47434 17.1801 6.41151 17.1733C6.34869 17.1665 6.28567 17.1844 6.23633 17.2233C6.18699 17.2621 6.15537 17.3187 6.14842 17.3805C6.14147 17.4422 6.15976 17.5042 6.19927 17.5527C6.42568 17.8316 6.69358 18.0754 6.99392 18.2758C7.01984 18.293 7.04896 18.3051 7.07962 18.3113C7.11029 18.3175 7.14189 18.3176 7.17263 18.3118C7.20337 18.306 7.23263 18.2943 7.25876 18.2773C7.28489 18.2604 7.30737 18.2385 7.32491 18.213C7.34245 18.1875 7.35471 18.1589 7.361 18.1287C7.36728 18.0986 7.36746 18.0675 7.36152 18.0373C7.35559 18.0071 7.34366 17.9783 7.32641 17.9526C7.30917 17.9269 7.28694 17.9048 7.26101 17.8876Z" fill="#10A37F"/>
<path d="M18.1212 17.106C18.0718 17.0672 18.0088 17.0493 17.9459 17.0561C17.8831 17.063 17.8256 17.094 17.7861 17.1425C17.5897 17.3847 17.3572 17.5964 17.0965 17.7704C17.0442 17.8052 17.0081 17.8591 16.9961 17.9201C16.9842 17.9812 16.9973 18.0444 17.0328 18.0958C17.0686 18.1468 17.1234 18.1819 17.1852 18.1936C17.2471 18.2053 17.3112 18.1928 17.3638 18.1586C17.6641 17.9582 17.9319 17.7144 18.1583 17.4355C18.1978 17.387 18.2161 17.325 18.2091 17.2632C18.2021 17.2014 18.1705 17.1449 18.1212 17.106Z" fill="#10A37F"/>
<path d="M12.2384 6.84375C12.4741 6.84375 12.7045 6.77502 12.9005 6.64625C13.0964 6.51749 13.2492 6.33446 13.3394 6.12033C13.4296 5.9062 13.4532 5.67058 13.4072 5.44325C13.3612 5.21593 13.2477 5.00712 13.0811 4.84323C12.9144 4.67935 12.702 4.56773 12.4709 4.52252C12.2397 4.4773 12.0001 4.50051 11.7823 4.5892C11.5645 4.6779 11.3784 4.8281 11.2475 5.02082C11.1165 5.21353 11.0466 5.4401 11.0466 5.67188C11.047 5.98257 11.1727 6.28043 11.3961 6.50012C11.6195 6.71982 11.9224 6.84339 12.2384 6.84375ZM12.2384 4.96875C12.3798 4.96875 12.518 5.00999 12.6356 5.08725C12.7532 5.16451 12.8449 5.27432 12.899 5.4028C12.9531 5.53128 12.9673 5.67266 12.9397 5.80905C12.9121 5.94544 12.844 6.07073 12.744 6.16906C12.644 6.26739 12.5166 6.33436 12.3779 6.36149C12.2392 6.38862 12.0954 6.3747 11.9647 6.32148C11.8341 6.26826 11.7224 6.17814 11.6438 6.06251C11.5653 5.94688 11.5233 5.81094 11.5233 5.67188C11.5235 5.48546 11.5989 5.30673 11.733 5.17492C11.867 5.0431 12.0488 4.96895 12.2384 4.96875Z" fill="#10A37F"/>
<path d="M12.2384 17.1562C12.0027 17.1562 11.7723 17.225 11.5763 17.3537C11.3803 17.4825 11.2275 17.6655 11.1373 17.8797C11.0471 18.0938 11.0235 18.3294 11.0695 18.5567C11.1155 18.7841 11.229 18.9929 11.3957 19.1568C11.5624 19.3207 11.7747 19.4323 12.0059 19.4775C12.237 19.5227 12.4767 19.4995 12.6944 19.4108C12.9122 19.3221 13.0983 19.1719 13.2293 18.9792C13.3602 18.7865 13.4301 18.5599 13.4301 18.3281C13.4297 18.0174 13.3041 17.7196 13.0807 17.4999C12.8572 17.2802 12.5543 17.1566 12.2384 17.1562ZM12.2384 19.0312C12.0969 19.0312 11.9587 18.99 11.8411 18.9128C11.7235 18.8355 11.6319 18.7257 11.5778 18.5972C11.5236 18.4687 11.5095 18.3273 11.5371 18.191C11.5647 18.0546 11.6328 17.9293 11.7328 17.8309C11.8328 17.7326 11.9602 17.6656 12.0989 17.6385C12.2376 17.6114 12.3813 17.6253 12.512 17.6785C12.6427 17.7317 12.7543 17.8219 12.8329 17.9375C12.9115 18.0531 12.9534 18.1891 12.9534 18.3281C12.9532 18.5145 12.8778 18.6933 12.7438 18.8251C12.6097 18.9569 12.4279 19.031 12.2384 19.0312Z" fill="#10A37F"/>
<path d="M10.6333 6.11443C10.5915 5.97039 10.5702 5.82139 10.5698 5.67163C10.5698 5.66248 10.571 5.65364 10.5712 5.64453C9.54013 5.90867 8.58798 6.41074 7.79372 7.1091C6.99946 7.80745 6.38597 8.68196 6.00415 9.66009C6.1654 9.66856 6.32401 9.704 6.47314 9.76489C6.83023 8.88028 7.39218 8.08974 8.11433 7.45606C8.83649 6.82237 9.69896 6.363 10.6333 6.11443Z" fill="#10A37F"/>
<path d="M6.87553 11.0625C6.87553 10.8771 6.81961 10.6958 6.71485 10.5417C6.6101 10.3875 6.4612 10.2673 6.28699 10.1964C6.11278 10.1254 5.92108 10.1068 5.73614 10.143C5.5512 10.1792 5.38133 10.2685 5.24799 10.3996C5.11466 10.5307 5.02386 10.6977 4.98707 10.8796C4.95028 11.0615 4.96916 11.25 5.04132 11.4213C5.11348 11.5926 5.23568 11.739 5.39247 11.842C5.54925 11.945 5.73358 12 5.92214 12C6.17491 11.9997 6.41724 11.9009 6.59597 11.7251C6.7747 11.5493 6.87524 11.3111 6.87553 11.0625ZM5.44545 11.0625C5.44545 10.9698 5.4734 10.8792 5.52578 10.8021C5.57816 10.725 5.65261 10.6649 5.73972 10.6294C5.82682 10.594 5.92267 10.5847 6.01514 10.6028C6.10761 10.6208 6.19255 10.6655 6.25921 10.731C6.32588 10.7966 6.37128 10.8801 6.38968 10.9711C6.40807 11.062 6.39863 11.1562 6.36255 11.2419C6.32647 11.3275 6.26537 11.4007 6.18698 11.4523C6.10859 11.5038 6.01642 11.5313 5.92214 11.5313C5.79576 11.5311 5.67459 11.4817 5.58523 11.3938C5.49586 11.3059 5.44559 11.1868 5.44545 11.0625Z" fill="#10A37F"/>
<path d="M9.02065 7.89844C8.83209 7.89844 8.64776 7.95342 8.49098 8.05643C8.33419 8.15945 8.21199 8.30587 8.13983 8.47717C8.06767 8.64848 8.04879 8.83698 8.08558 9.01883C8.12237 9.20069 8.21317 9.36774 8.3465 9.49885C8.47984 9.62996 8.64971 9.71925 8.83465 9.75542C9.01959 9.7916 9.21129 9.77303 9.3855 9.70207C9.55971 9.63112 9.70861 9.51096 9.81337 9.35678C9.91813 9.20261 9.97404 9.02136 9.97404 8.83594C9.97375 8.58738 9.87321 8.34909 9.69448 8.17334C9.51575 7.99759 9.27342 7.89872 9.02065 7.89844ZM9.02065 9.30469C8.92637 9.30469 8.83421 9.2772 8.75581 9.22569C8.67742 9.17418 8.61632 9.10097 8.58024 9.01532C8.54416 8.92967 8.53472 8.83542 8.55312 8.74449C8.57151 8.65356 8.61691 8.57004 8.68358 8.50448C8.75024 8.43893 8.83518 8.39428 8.92765 8.37619C9.02012 8.35811 9.11597 8.36739 9.20307 8.40287C9.29018 8.43835 9.36463 8.49843 9.41701 8.57551C9.46939 8.6526 9.49735 8.74323 9.49735 8.83594C9.4972 8.96021 9.44693 9.07936 9.35757 9.16724C9.2682 9.25511 9.14703 9.30455 9.02065 9.30469Z" fill="#10A37F"/>
<path d="M17.6011 11.5313C17.6011 11.3458 17.5452 11.1646 17.4404 11.0104C17.3357 10.8562 17.1868 10.7361 17.0126 10.6651C16.8384 10.5942 16.6467 10.5756 16.4617 10.6118C16.2768 10.6479 16.1069 10.7372 15.9736 10.8683C15.8402 10.9994 15.7494 11.1665 15.7127 11.3484C15.6759 11.5302 15.6947 11.7187 15.7669 11.89C15.8391 12.0613 15.9613 12.2077 16.1181 12.3108C16.2748 12.4138 16.4592 12.4688 16.6477 12.4688C16.9005 12.4685 17.1428 12.3696 17.3216 12.1938C17.5003 12.0181 17.6008 11.7798 17.6011 11.5313ZM16.6477 12C16.5534 12 16.4613 11.9725 16.3829 11.921C16.3045 11.8695 16.2434 11.7963 16.2073 11.7106C16.1712 11.625 16.1618 11.5307 16.1802 11.4398C16.1986 11.3489 16.244 11.2654 16.3107 11.1998C16.3773 11.1342 16.4623 11.0896 16.5547 11.0715C16.6472 11.0534 16.743 11.0627 16.8301 11.0982C16.9173 11.1337 16.9917 11.1937 17.0441 11.2708C17.0965 11.3479 17.1244 11.4385 17.1244 11.5313C17.1243 11.6555 17.074 11.7747 16.9847 11.8626C16.8953 11.9504 16.7741 11.9999 16.6477 12Z" fill="#10A37F"/>
<path d="M7.47144 11.9991C7.47188 12.1971 7.48504 12.395 7.51084 12.5914C7.65696 12.5236 7.81466 12.4833 7.97584 12.4724C7.95764 12.3152 7.94839 12.1572 7.94813 11.9991C7.94766 11.3405 8.10501 10.6911 8.40743 10.1034C8.26152 10.0354 8.12833 9.94364 8.01347 9.83203C7.65686 10.5005 7.47085 11.2442 7.47144 11.9991Z" fill="#10A37F"/>
<path d="M16.1279 10.2226C16.2807 10.1637 16.4428 10.1314 16.607 10.127C16.3461 9.53736 15.9646 9.00684 15.4861 8.56854C15.0076 8.13025 14.4424 7.79358 13.8258 7.57952C13.2091 7.36547 12.5543 7.27861 11.902 7.32437C11.2497 7.37013 10.614 7.54753 10.0345 7.8455C10.148 7.95845 10.2414 8.08942 10.3106 8.23289C10.8236 7.97836 11.3835 7.82791 11.9568 7.7905C12.5302 7.75308 13.1054 7.82947 13.6481 8.0151C14.1909 8.20074 14.6901 8.49184 15.1161 8.87108C15.5421 9.25031 15.8862 9.70994 16.1279 10.2226Z" fill="#10A37F"/>
<path d="M12.2383 16.6855C13.3412 16.684 14.4095 16.3072 15.2618 15.619C16.1141 14.9308 16.6979 13.9736 16.9139 12.9102C16.7527 12.9416 16.5869 12.9438 16.4249 12.9167C16.251 13.6851 15.8618 14.3903 15.3014 14.9524C14.7409 15.5145 14.0316 15.9111 13.2538 16.0972C12.4759 16.2834 11.6606 16.2516 10.9002 16.0056C10.1397 15.7595 9.46452 15.309 8.95105 14.7051C8.832 14.8126 8.69378 14.8975 8.54333 14.9556C8.9896 15.496 9.55286 15.9317 10.1921 16.231C10.8313 16.5303 11.5303 16.6856 12.2383 16.6855Z" fill="#10A37F"/>
<path d="M8.06725 14.5781C8.23224 14.5781 8.39353 14.53 8.53071 14.4399C8.6679 14.3497 8.77482 14.2216 8.83796 14.0717C8.9011 13.9218 8.91762 13.7569 8.88544 13.5978C8.85325 13.4387 8.7738 13.2925 8.65713 13.1778C8.54046 13.063 8.39182 12.9849 8.23 12.9533C8.06817 12.9216 7.90044 12.9379 7.74801 12.9999C7.59557 13.062 7.46529 13.1672 7.37362 13.3021C7.28196 13.437 7.23303 13.5956 7.23303 13.7578C7.23329 13.9753 7.32126 14.1838 7.47765 14.3376C7.63404 14.4914 7.84608 14.5779 8.06725 14.5781ZM8.06725 13.4063C8.13796 13.4063 8.20708 13.4269 8.26588 13.4655C8.32467 13.5041 8.37049 13.559 8.39755 13.6233C8.42461 13.6875 8.43169 13.7582 8.4179 13.8264C8.4041 13.8946 8.37005 13.9572 8.32005 14.0064C8.27005 14.0556 8.20635 14.0891 8.137 14.1026C8.06764 14.1162 7.99576 14.1092 7.93043 14.0826C7.8651 14.056 7.80927 14.0109 7.76998 13.9531C7.7307 13.8953 7.70973 13.8273 7.70973 13.7578C7.70983 13.6646 7.74753 13.5752 7.81456 13.5093C7.88158 13.4434 7.97246 13.4064 8.06725 13.4063Z" fill="#10A37F"/>
<path d="M18.0779 13.7578C17.8893 13.7578 17.705 13.8128 17.5482 13.9158C17.3914 14.0188 17.2692 14.1652 17.1971 14.3365C17.1249 14.5079 17.106 14.6964 17.1428 14.8782C17.1796 15.0601 17.2704 15.2271 17.4038 15.3582C17.5371 15.4893 17.707 15.5786 17.8919 15.6148C18.0768 15.651 18.2685 15.6324 18.4427 15.5614C18.617 15.4905 18.7659 15.3703 18.8706 15.2162C18.9754 15.062 19.0313 14.8807 19.0313 14.6953C19.031 14.4468 18.9305 14.2085 18.7517 14.0327C18.573 13.857 18.3307 13.7581 18.0779 13.7578ZM18.0779 15.1641C17.9836 15.1641 17.8915 15.1366 17.8131 15.0851C17.7347 15.0336 17.6736 14.9603 17.6375 14.8747C17.6014 14.789 17.592 14.6948 17.6104 14.6039C17.6288 14.5129 17.6742 14.4294 17.7408 14.3639C17.8075 14.2983 17.8924 14.2537 17.9849 14.2356C18.0774 14.2175 18.1732 14.2268 18.2603 14.2622C18.3474 14.2977 18.4219 14.3578 18.4743 14.4349C18.5266 14.512 18.5546 14.6026 18.5546 14.6953C18.5545 14.8196 18.5042 14.9388 18.4148 15.0266C18.3255 15.1145 18.2043 15.1639 18.0779 15.1641Z" fill="#10A37F"/>
<path d="M6.06089 12.4612C6.01518 12.4655 5.96895 12.4681 5.9221 12.4681C5.80681 12.4677 5.692 12.4534 5.5802 12.4258C5.67354 13.8041 6.20593 15.1185 7.10181 16.1824C7.99769 17.2464 9.21156 18.0059 10.5712 18.3532C10.5711 18.3446 10.5699 18.3362 10.5699 18.3275C10.5703 18.1775 10.5917 18.0283 10.6335 17.8841C9.39502 17.5553 8.29051 16.8575 7.47172 15.8864C6.65294 14.9154 6.16009 13.7188 6.06089 12.4612Z" fill="#10A37F"/>
<path d="M18.4353 11.9998C18.4354 12.4391 18.3872 12.8771 18.2914 13.3063C18.4503 13.3294 18.6041 13.3789 18.7461 13.4527C19.1309 11.7877 18.8405 10.0408 17.9367 8.58288C17.0328 7.12499 15.5867 6.07093 13.9053 5.64453C13.9055 5.65364 13.9067 5.66248 13.9067 5.67163C13.9063 5.82139 13.885 5.97039 13.8433 6.11443C15.1598 6.46332 16.3228 7.22873 17.1528 8.29245C17.9828 9.35617 18.4335 10.659 18.4353 11.9998Z" fill="#10A37F"/>
<path d="M17.1256 15.7422C16.2969 16.7879 15.1449 17.5403 13.8433 17.8859C13.885 18.0299 13.9063 18.1789 13.9067 18.3287C13.9067 18.3378 13.9055 18.3467 13.9053 18.3558C15.347 17.9873 16.6224 17.1562 17.5294 15.9942C17.3814 15.9331 17.2449 15.8479 17.1256 15.7422Z" fill="#10A37F"/>
</svg>
