<svg width="24" height="24" viewBox="0 0 24 24" fill="none" xmlns="http://www.w3.org/2000/svg">
<path d="M23.7955 22.8085L18.3423 17.3554C20.016 15.4468 20.9395 13.0319 20.9395 10.4698C20.9395 7.67305 19.8503 5.04402 17.8729 3.06663C15.8955 1.08924 13.2665 0 10.4698 0C7.67305 0 5.04402 1.08924 3.06663 3.06663C1.08924 5.04402 0 7.67305 0 10.4698C0 13.2665 1.08924 15.8955 3.06663 17.8729C5.04402 19.8503 7.67305 20.9395 10.4698 20.9395C13.0319 20.9395 15.4468 20.016 17.3554 18.3423L22.8085 23.7955C22.9448 23.9318 23.1234 24 23.302 24C23.4806 24 23.6592 23.9318 23.7955 23.7955C24.0682 23.5229 24.0682 23.0812 23.7955 22.8085ZM4.05362 16.8859C2.34002 15.1719 1.39597 12.8933 1.39597 10.4698C1.39597 8.04624 2.34002 5.76757 4.05362 4.05362C5.76757 2.34002 8.04624 1.39597 10.4698 1.39597C12.8933 1.39597 15.1719 2.34002 16.8859 4.05362C18.5995 5.76757 19.5435 8.04624 19.5435 10.4698C19.5435 12.8933 18.5995 15.1719 16.8859 16.8859C15.1719 18.5995 12.8933 19.5435 10.4698 19.5435C8.04624 19.5435 5.76757 18.5995 4.05362 16.8859Z" fill="#AAAAAA"/>
</svg>
