<svg width="40" height="40" viewBox="0 0 40 40" fill="none" xmlns="http://www.w3.org/2000/svg">
<rect width="40" height="40" rx="4" fill="#1878F3"/>
<path d="M26.9771 10H11.1843C9.98214 10 9 10.9743 9 12.1843V14.3214H29.1614V12.1843C29.1614 10.9743 28.1793 10 26.9771 10ZM12.0902 12.783C11.7461 12.783 11.4679 12.5041 11.4679 12.1607C11.4679 11.8173 11.7469 11.5384 12.0902 11.5384C12.4336 11.5384 12.7133 11.8166 12.7133 12.1607C12.7133 12.5048 12.4344 12.783 12.0902 12.783ZM14.2831 12.783C13.939 12.783 13.6609 12.5041 13.6609 12.1607C13.6609 11.8173 13.9398 11.5384 14.2831 11.5384C14.6273 11.5384 14.9054 11.8173 14.9054 12.1607C14.9054 12.5041 14.6273 12.783 14.2831 12.783ZM16.4761 12.783C16.1319 12.783 15.8538 12.5041 15.8538 12.1607C15.8538 11.8173 16.1327 11.5384 16.4761 11.5384C16.8194 11.5384 17.0984 11.8173 17.0984 12.1607C17.0984 12.5041 16.8202 12.783 16.4761 12.783Z" fill="white"/>
<path d="M26.1436 21.3672L21.5637 25.9471C21.4616 26.0414 21.3987 26.1671 21.3751 26.3006L21.0294 28.3356C20.9587 28.7835 21.3437 29.1763 21.7994 29.0978L23.8266 28.7521C23.968 28.7285 24.0858 28.6656 24.188 28.5713L28.7687 23.9907L26.1436 21.3672Z" fill="white"/>
<path d="M20.2129 26.1055C20.2852 25.7008 20.4746 25.3512 20.7629 25.0841L25.3099 20.5364L26.9991 18.8471C27.5672 18.2728 28.3294 17.9538 29.1418 17.9538C29.1481 17.9538 29.1544 17.9553 29.1606 17.9553V15.5H9V25.0935C9 26.3035 9.97429 27.2778 11.1843 27.2778H20.0141L20.2129 26.1055Z" fill="white"/>
<path d="M30.4578 19.6808C29.7271 18.9501 28.5563 18.9501 27.8335 19.6808L26.9771 20.5373L29.6013 23.1615L30.4578 22.3051C31.1806 21.5823 31.1806 20.4037 30.4578 19.6808Z" fill="white"/>
</svg>
