<svg width="16" height="16" viewBox="0 0 16 16" fill="none" xmlns="http://www.w3.org/2000/svg">
<path d="M5 10.1531H3.125C2.80743 10.1531 2.55 9.8957 2.55 9.57813C2.55 9.26055 2.80743 9.00313 3.125 9.00313H5C5.31758 9.00313 5.575 9.26055 5.575 9.57813C5.575 9.8957 5.31758 10.1531 5 10.1531Z" fill="#000000" stroke="white" stroke-width="0.1"/>
<path d="M5 7.65313H3.125C2.80743 7.65313 2.55 7.3957 2.55 7.07813C2.55 6.76055 2.80743 6.50313 3.125 6.50313H5C5.31758 6.50313 5.575 6.76055 5.575 7.07813C5.575 7.3957 5.31758 7.65313 5 7.65313Z" fill="#000000" stroke="white" stroke-width="0.1"/>
<path d="M8.04697 8.95216L8.06074 8.87991C8.19804 8.1598 8.5471 7.49747 9.0766 6.96792L9.11195 7.00327L9.0766 6.96792L13.6473 2.39685L13.6473 2.39685L13.6827 2.4322C13.9263 2.18852 14.3229 2.18852 14.5665 2.4322L8.04697 8.95216ZM8.04697 8.95216L8.11922 8.93839C8.83936 8.8011 9.50169 8.45206 10.0312 7.9225L14.6019 3.35144L8.04697 8.95216ZM15.415 1.58365L15.4504 1.5483L15.415 1.58365C16.1284 2.29697 16.1283 3.4514 15.415 4.1646L15.4504 4.19996L15.415 4.1646L10.8444 8.73567C9.92966 9.65042 8.71369 10.1541 7.42004 10.1541C7.10247 10.1541 6.84504 9.89666 6.84504 9.57909C6.84504 8.28544 7.34875 7.0695 8.26346 6.15472L12.8341 1.58365C13.5457 0.872115 14.7035 0.872117 15.415 1.58365Z" fill="#000000" stroke="white" stroke-width="0.1"/>
<path d="M3.98872 13.9031H3.96962L3.95539 13.9159L3.09143 14.6887C2.75641 14.9882 2.32446 15.1531 1.875 15.1531C0.86874 15.1531 0.05 14.3344 0.05 13.3281V5.82813C0.05 4.13262 1.42946 2.75313 3.125 2.75313H8.36716C8.68474 2.75313 8.94216 3.01055 8.94216 3.32813C8.94216 3.6457 8.68474 3.90313 8.36716 3.90313H3.125C2.06351 3.90313 1.2 4.76664 1.2 5.82813V13.3281C1.2 13.7004 1.50276 14.0031 1.875 14.0031C2.04122 14.0031 2.20099 13.9422 2.32483 13.8315L2.32484 13.8315L3.36665 12.8996C3.47208 12.8053 3.60855 12.7531 3.75 12.7531H10.375C11.4365 12.7531 12.3 11.8896 12.3 10.8281V9.42616C12.3 9.10859 12.5574 8.85116 12.875 8.85116C13.1926 8.85116 13.45 9.10859 13.45 9.42616V10.8281C13.45 12.5236 12.0706 13.9031 10.375 13.9031H3.98872Z" fill="#000000" stroke="white" stroke-width="0.1"/>
</svg>
