

<svg width="14" height="14" viewBox="0 0 14 14" fill="none" xmlns="http://www.w3.org/2000/svg">
<path d="M13.911 7.18924C13.786 7.01815 10.806 3 6.99994 3C3.19392 3 0.213774 7.01815 0.0888401 7.18907C-0.0296134 7.35139 -0.0296134 7.57153 0.0888401 7.73385C0.213774 7.90494 3.19392 11.9231 6.99994 11.9231C10.806 11.9231 13.786 7.90491 13.911 7.73398C14.0297 7.5717 14.0297 7.35139 13.911 7.18924ZM6.99994 11C4.1964 11 1.76824 8.33309 1.04946 7.46123C1.76731 6.5886 4.19039 3.92307 6.99994 3.92307C9.80334 3.92307 12.2313 6.58953 12.9504 7.46186C12.2326 8.33445 9.80949 11 6.99994 11Z" fill="#717171"/>
<path d="M7.0002 4.6875C5.47327 4.6875 4.23096 5.92981 4.23096 7.45675C4.23096 8.98368 5.47327 10.226 7.0002 10.226C8.52714 10.226 9.76945 8.98368 9.76945 7.45675C9.76945 5.92981 8.52714 4.6875 7.0002 4.6875ZM7.0002 9.30289C5.98219 9.30289 5.15406 8.47473 5.15406 7.45675C5.15406 6.43876 5.98222 5.6106 7.0002 5.6106C8.01819 5.6106 8.84635 6.43876 8.84635 7.45675C8.84635 8.47473 8.01821 9.30289 7.0002 9.30289Z" fill="#717171"/>
</svg>
