<svg id="upload" xmlns="http://www.w3.org/2000/svg" width="16" height="16" viewBox="0 0 16 16">
  <path id="Path_2988" data-name="Path 2988" d="M15.273,8.728a.727.727,0,0,0-.727.727v3.064a2.029,2.029,0,0,1-2.027,2.027H3.481a2.029,2.029,0,0,1-2.027-2.027V9.455A.727.727,0,1,0,0,9.455v3.064A3.485,3.485,0,0,0,3.481,16h9.037A3.485,3.485,0,0,0,16,12.519V9.455a.727.727,0,0,0-.727-.727Z" fill="#152027"/>
  <path id="Path_2989" data-name="Path 2989" d="M4.15,5.6,7.273,2.483v9.154a.727.727,0,1,0,1.455,0V2.483L11.849,5.6a.727.727,0,0,0,1.028-1.028L8.514.213a.727.727,0,0,0-1.028,0L3.122,4.577A.727.727,0,0,0,4.15,5.6Z" fill="#152027"/>
</svg>
