<svg width="14" height="14" viewBox="0 0 14 14" fill="none" xmlns="http://www.w3.org/2000/svg">
<path d="M7 0C3.14027 0 0 3.14027 0 7C0 10.8597 3.14027 14 7 14C10.8597 14 14 10.8597 14 7C14 3.14027 10.8597 0 7 0ZM7 13.125C3.62262 13.125 0.875004 10.3774 0.875004 7C0.875004 3.62262 3.62262 0.875004 7 0.875004C10.3774 0.875004 13.125 3.62262 13.125 7C13.125 10.3774 10.3774 13.125 7 13.125Z" fill="#717171"/>
<path d="M7.4375 2.625H6.5625V7.18114L9.31567 9.93431L9.93433 9.31566L7.4375 6.81884V2.625Z" fill="#717171"/>
</svg>
