<svg width="32" height="32" viewBox="0 0 32 32" fill="none" xmlns="http://www.w3.org/2000/svg">
<path d="M0.443726 2.82031H22.6489V29.6402H0.443726V2.82031Z" fill="#60B7FF"/>
<path d="M3.03265 0.445312H25.2378V27.2669H3.03265V0.445312Z" fill="#EAF6FF"/>
<path fill-rule="evenodd" clip-rule="evenodd" d="M5.6217 3.33594H22.649V10.078H20.4614V11.7264L17.6054 10.078H5.6217V3.33594Z" fill="#E62E6B"/>
<path fill-rule="evenodd" clip-rule="evenodd" d="M30.595 8.13053C31.0364 8.38664 31.3584 8.80722 31.4905 9.3002C31.6225 9.79317 31.5539 10.3184 31.2996 10.7609L24.2079 23.0443L20.8748 24.9683V21.1182L27.9665 8.83503C28.2227 8.39427 28.643 8.07281 29.1355 7.94081C29.6279 7.80882 30.1526 7.87702 30.595 8.13053Z" fill="#FFBB33"/>
<path fill-rule="evenodd" clip-rule="evenodd" d="M30.595 8.13053L20.8748 24.9682V21.1182L27.9665 8.83503C28.2227 8.39427 28.643 8.07281 29.1355 7.94081C29.6279 7.80882 30.1526 7.87702 30.595 8.13053Z" fill="#FF9933"/>
<path fill-rule="evenodd" clip-rule="evenodd" d="M24.2079 23.0508L20.8748 24.9749V21.125L24.2079 23.0508Z" fill="#4F5C6F"/>
<path fill-rule="evenodd" clip-rule="evenodd" d="M20.8748 24.9749V21.125L22.5422 22.0879L20.8748 24.9749Z" fill="#404B5A"/>
<path fill-rule="evenodd" clip-rule="evenodd" d="M30.4195 8.41959C30.861 8.67571 31.183 9.09629 31.315 9.58927C31.447 10.0823 31.3784 10.6075 31.1241 11.0499L27.791 9.1241C28.0472 8.68334 28.4675 8.36187 28.96 8.22988C29.4525 8.09788 29.9772 8.16608 30.4195 8.41959Z" fill="#FF6666"/>
<path fill-rule="evenodd" clip-rule="evenodd" d="M30.4195 8.41959L29.4583 10.087L27.791 9.1241C28.0472 8.68334 28.4675 8.36187 28.96 8.22988C29.4525 8.09788 29.9772 8.16608 30.4195 8.41959Z" fill="#E62E6B"/>
<path fill-rule="evenodd" clip-rule="evenodd" d="M4.35561 27.2591V2.81809V0.4375H3.03271V2.81809V27.2591H4.35561Z" fill="#BED4E6"/>
<path d="M5.62164 3.34375H6.56559V10.0858H5.62164V3.34375Z" fill="#CF2960"/>
<path d="M17.2228 24.3673C17.2228 24.4838 17.1766 24.5955 17.0942 24.6778C17.0118 24.7602 16.9001 24.8065 16.7836 24.8065H5.61881C5.56069 24.8072 5.50301 24.7963 5.44912 24.7746C5.39522 24.7528 5.34618 24.7205 5.30483 24.6797C5.26349 24.6388 5.23066 24.5902 5.20826 24.5366C5.18586 24.4829 5.17432 24.4254 5.17432 24.3672C5.17432 24.3091 5.18586 24.2516 5.20826 24.1979C5.23066 24.1443 5.26349 24.0957 5.30483 24.0548C5.34618 24.0139 5.39522 23.9817 5.44912 23.9599C5.50301 23.9382 5.56069 23.9273 5.61881 23.928H16.7836C16.8413 23.928 16.8984 23.9394 16.9517 23.9615C17.005 23.9835 17.0534 24.0159 17.0942 24.0567C17.135 24.0975 17.1673 24.1459 17.1894 24.1992C17.2115 24.2525 17.2228 24.3096 17.2228 24.3673ZM5.61881 21.3054H8.18459C8.30018 21.304 8.41056 21.2571 8.4918 21.1749C8.57305 21.0927 8.61861 20.9817 8.61861 20.8661C8.61861 20.7506 8.57305 20.6396 8.4918 20.5574C8.41056 20.4752 8.30018 20.4283 8.18459 20.4269H5.61881C5.56069 20.4262 5.50301 20.4371 5.44912 20.4588C5.39522 20.4806 5.34618 20.5128 5.30483 20.5537C5.26349 20.5946 5.23066 20.6432 5.20826 20.6968C5.18586 20.7505 5.17432 20.808 5.17432 20.8661C5.17432 20.9243 5.18586 20.9818 5.20826 21.0355C5.23066 21.0891 5.26349 21.1377 5.30483 21.1786C5.34618 21.2194 5.39522 21.2517 5.44912 21.2735C5.50301 21.2952 5.56069 21.3061 5.61881 21.3054ZM5.61881 17.8042H8.18459C8.30107 17.8042 8.41278 17.7579 8.49515 17.6756C8.57751 17.5932 8.62379 17.4815 8.62379 17.365C8.62379 17.2485 8.57751 17.1368 8.49515 17.0545C8.41278 16.9721 8.30107 16.9258 8.18459 16.9258H5.61881C5.50233 16.9258 5.39062 16.9721 5.30826 17.0545C5.22589 17.1368 5.17962 17.2485 5.17962 17.365C5.17962 17.4815 5.22589 17.5932 5.30826 17.6756C5.39062 17.7579 5.50233 17.8042 5.61881 17.8042ZM5.61881 14.3032H8.18459C8.30018 14.3018 8.41056 14.2549 8.4918 14.1727C8.57305 14.0905 8.61861 13.9795 8.61861 13.8639C8.61861 13.7483 8.57305 13.6374 8.4918 13.5552C8.41056 13.473 8.30018 13.4261 8.18459 13.4247H5.61881C5.56069 13.424 5.50301 13.4349 5.44912 13.4566C5.39522 13.4784 5.34618 13.5106 5.30483 13.5515C5.26349 13.5923 5.23066 13.641 5.20826 13.6946C5.18586 13.7483 5.17432 13.8058 5.17432 13.8639C5.17432 13.9221 5.18586 13.9796 5.20826 14.0332C5.23066 14.0869 5.26349 14.1355 5.30483 14.1764C5.34618 14.2172 5.39522 14.2495 5.44912 14.2712C5.50301 14.293 5.56069 14.3039 5.61881 14.3032ZM15.4589 20.4269H10.041C9.98287 20.4262 9.92519 20.4371 9.87129 20.4588C9.81739 20.4806 9.76835 20.5128 9.72701 20.5537C9.68566 20.5946 9.65284 20.6432 9.63043 20.6968C9.60803 20.7505 9.5965 20.808 9.5965 20.8661C9.5965 20.9243 9.60803 20.9818 9.63043 21.0355C9.65284 21.0891 9.68566 21.1377 9.72701 21.1786C9.76835 21.2194 9.81739 21.2517 9.87129 21.2735C9.92519 21.2952 9.98287 21.3061 10.041 21.3054H15.4589C15.5745 21.304 15.6849 21.2571 15.7661 21.1749C15.8474 21.0927 15.8929 20.9817 15.8929 20.8661C15.8929 20.7506 15.8474 20.6396 15.7661 20.5574C15.6849 20.4752 15.5745 20.4283 15.4589 20.4269ZM15.4589 16.9258H10.041C9.92451 16.9258 9.8128 16.9721 9.73043 17.0545C9.64807 17.1368 9.6018 17.2485 9.6018 17.365C9.6018 17.4815 9.64807 17.5932 9.73043 17.6756C9.8128 17.7579 9.92451 17.8042 10.041 17.8042H15.4589C15.5754 17.8042 15.6871 17.7579 15.7695 17.6756C15.8518 17.5932 15.8981 17.4815 15.8981 17.365C15.8981 17.2485 15.8518 17.1368 15.7695 17.0545C15.6871 16.9721 15.5754 16.9258 15.4589 16.9258ZM22.6513 13.4247H10.041C9.98287 13.424 9.92519 13.4349 9.87129 13.4566C9.81739 13.4784 9.76835 13.5106 9.72701 13.5515C9.68566 13.5923 9.65284 13.641 9.63043 13.6946C9.60803 13.7483 9.5965 13.8058 9.5965 13.8639C9.5965 13.9221 9.60803 13.9796 9.63043 14.0332C9.65284 14.0869 9.68566 14.1355 9.72701 14.1764C9.76835 14.2172 9.81739 14.2495 9.87129 14.2712C9.92519 14.293 9.98287 14.3039 10.041 14.3032H22.6513C22.7094 14.3039 22.7671 14.293 22.821 14.2712C22.8749 14.2495 22.924 14.2172 22.9653 14.1764C23.0066 14.1355 23.0395 14.0869 23.0619 14.0332C23.0843 13.9796 23.0958 13.9221 23.0958 13.8639C23.0958 13.8058 23.0843 13.7483 23.0619 13.6946C23.0395 13.641 23.0066 13.5923 22.9653 13.5515C22.924 13.5106 22.8749 13.4784 22.821 13.4566C22.7671 13.4349 22.7094 13.424 22.6513 13.4247ZM5.17962 10.0854V3.34104C5.17964 3.22457 5.22592 3.11287 5.30828 3.03052C5.39064 2.94817 5.50234 2.90191 5.61881 2.90191H22.6513C22.709 2.9019 22.7661 2.91325 22.8194 2.93532C22.8727 2.95738 22.9211 2.98972 22.9619 3.0305C23.0027 3.07128 23.035 3.11969 23.0571 3.17297C23.0792 3.22625 23.0906 3.28336 23.0906 3.34104V10.0854C23.0906 10.1431 23.0792 10.2002 23.0571 10.2535C23.0351 10.3068 23.0027 10.3552 22.9619 10.396C22.9211 10.4368 22.8727 10.4691 22.8194 10.4912C22.7661 10.5133 22.709 10.5246 22.6513 10.5246H20.9017V11.7338C20.9017 11.8109 20.8814 11.8866 20.8429 11.9533C20.8043 12.0201 20.7489 12.0756 20.6821 12.1141C20.6154 12.1526 20.5396 12.1729 20.4625 12.173C20.3854 12.173 20.3097 12.1527 20.2429 12.1141L17.4892 10.5246H5.61881C5.50233 10.5246 5.39062 10.4783 5.30826 10.396C5.22589 10.3136 5.17962 10.2019 5.17962 10.0854ZM6.05807 9.64624H17.6068C17.6839 9.64625 17.7596 9.66653 17.8264 9.70505L20.0233 10.9731V10.0856C20.0233 9.96913 20.0696 9.85742 20.1519 9.77506C20.2343 9.69269 20.346 9.64642 20.4625 9.64642H22.2121V3.78023H6.05807V9.64624ZM10.2171 7.40246C10.2167 7.70181 10.0976 7.98881 9.88595 8.20048C9.67427 8.41214 9.38727 8.5312 9.08792 8.53154H7.44315C7.32667 8.53154 7.21496 8.48526 7.13259 8.4029C7.05023 8.32053 7.00395 8.20882 7.00395 8.09234V5.33431C7.00397 5.21783 7.05025 5.10613 7.13261 5.02377C7.21497 4.94141 7.32667 4.89514 7.44315 4.89512H8.67897C8.97833 4.89547 9.26532 5.01454 9.47699 5.22622C9.68866 5.4379 9.80772 5.7249 9.80805 6.02426C9.80819 6.17599 9.77746 6.32616 9.71774 6.46564C9.87137 6.56886 9.99726 6.70828 10.0843 6.87161C10.1714 7.03495 10.217 7.21718 10.2171 7.40227V7.40246ZM7.8824 6.27338H8.67897C8.74528 6.27338 8.80887 6.24704 8.85575 6.20016C8.90264 6.15328 8.92898 6.08969 8.92898 6.02338C8.92898 5.95708 8.90264 5.89349 8.85575 5.8466C8.80887 5.79972 8.74528 5.77338 8.67897 5.77338H7.8824V6.27338ZM9.33867 7.40246C9.33781 7.33624 9.31112 7.27297 9.26429 7.22614C9.21747 7.17931 9.1542 7.15263 9.08798 7.15177H7.8824V7.65315H9.08792C9.15442 7.65308 9.21817 7.62662 9.26517 7.57959C9.31218 7.53255 9.33859 7.46877 9.33861 7.40227L9.33867 7.40246ZM13.0158 7.65315H11.8511V5.33437C11.8498 5.21879 11.8029 5.10841 11.7207 5.02717C11.6384 4.94592 11.5275 4.90036 11.4119 4.90036C11.2963 4.90036 11.1854 4.94592 11.1032 5.02717C11.0209 5.10841 10.9741 5.21879 10.9727 5.33437V8.09222C10.9727 8.1499 10.9841 8.20701 11.0061 8.2603C11.0282 8.31359 11.0606 8.36201 11.1013 8.4028C11.1421 8.44358 11.1906 8.47593 11.2439 8.498C11.2971 8.52006 11.3543 8.53142 11.4119 8.53141H13.0158C13.1323 8.53141 13.244 8.48514 13.3263 8.40277C13.4087 8.32041 13.455 8.2087 13.455 8.09222C13.455 7.97574 13.4087 7.86403 13.3263 7.78166C13.244 7.6993 13.1323 7.65302 13.0158 7.65302L13.0158 7.65315ZM17.3171 6.71258C17.3172 7.07224 17.2107 7.42386 17.0109 7.72296C16.8112 8.02206 16.5272 8.2552 16.195 8.39289C15.8627 8.53059 15.4971 8.56664 15.1443 8.4965C14.7916 8.42636 14.4676 8.25317 14.2133 7.99884C13.959 7.74452 13.7858 7.42048 13.7157 7.06772C13.6456 6.71496 13.6816 6.34933 13.8193 6.01709C13.9571 5.68484 14.1902 5.4009 14.4893 5.20118C14.7885 5.00147 15.1401 4.89496 15.4997 4.89512C15.9815 4.89588 16.4433 5.08758 16.7839 5.42822C17.1245 5.76886 17.3163 6.23065 17.317 6.71239L17.3171 6.71258ZM16.4387 6.71258C16.4385 6.52672 16.3832 6.3451 16.2798 6.19066C16.1764 6.03623 16.0296 5.91592 15.8578 5.84496C15.686 5.77399 15.4971 5.75555 15.3148 5.79198C15.1326 5.8284 14.9652 5.91805 14.8339 6.04958C14.7026 6.18112 14.6133 6.34863 14.5772 6.53095C14.5411 6.71326 14.5599 6.90218 14.6311 7.07382C14.7024 7.24547 14.823 7.39212 14.9776 7.49524C15.1322 7.59836 15.314 7.65331 15.4998 7.65315C15.749 7.65285 15.988 7.55358 16.164 7.37716C16.3401 7.20074 16.4388 6.96162 16.4386 6.71239L16.4387 6.71258ZM19.7851 8.53135C20.2673 8.53075 20.7296 8.33894 21.0705 7.99798C21.4115 7.65703 21.6033 7.19476 21.6039 6.71258C21.6039 6.5961 21.5576 6.48439 21.4752 6.40202C21.3929 6.31966 21.2812 6.27338 21.1647 6.27338H20.0731C20.0154 6.27338 19.9583 6.28474 19.905 6.30682C19.8517 6.32889 19.8033 6.36124 19.7625 6.40202C19.7218 6.4428 19.6894 6.49122 19.6673 6.54451C19.6453 6.59779 19.6339 6.6549 19.6339 6.71258C19.6339 6.77025 19.6453 6.82736 19.6673 6.88065C19.6894 6.93393 19.7218 6.98235 19.7625 7.02313C19.8033 7.06392 19.8517 7.09627 19.905 7.11834C19.9583 7.14041 20.0154 7.15177 20.0731 7.15177H20.6162C20.5289 7.3167 20.3945 7.45188 20.23 7.54006C20.0656 7.62823 19.8786 7.6654 19.6929 7.64681C19.5072 7.62822 19.3313 7.55472 19.1875 7.4357C19.0438 7.31668 18.9388 7.15753 18.886 6.97856C18.8331 6.7996 18.8348 6.60894 18.8908 6.43093C18.9467 6.25292 19.0545 6.09562 19.2003 5.97913C19.3461 5.86264 19.5232 5.79222 19.7092 5.77688C19.8952 5.76154 20.0815 5.80197 20.2444 5.893C20.3463 5.94943 20.4665 5.96306 20.5784 5.93091C20.6904 5.89875 20.785 5.82344 20.8414 5.72153C20.8978 5.61963 20.9115 5.49949 20.8793 5.38753C20.8471 5.27558 20.7718 5.18098 20.6699 5.12456C20.4273 4.98959 20.157 4.91198 19.8798 4.89766C19.6025 4.88335 19.3257 4.93271 19.0705 5.04197C18.8153 5.15123 18.5885 5.31748 18.4075 5.52798C18.2265 5.73848 18.0961 5.98763 18.0263 6.25633C17.9565 6.52503 17.9492 6.80615 18.0048 7.07812C18.0605 7.3501 18.1778 7.60571 18.3476 7.82535C18.5173 8.04499 18.7352 8.22284 18.9844 8.34525C19.2335 8.46766 19.5074 8.53138 19.785 8.53154L19.7851 8.53135ZM31.6839 10.9939L31.3089 11.6439V11.6443L25.6815 21.3923V27.2691C25.6815 27.3856 25.6353 27.4973 25.5529 27.5797C25.4705 27.662 25.3588 27.7083 25.2423 27.7083H23.0906V29.65C23.0906 29.7077 23.0792 29.7648 23.0572 29.8181C23.0351 29.8714 23.0027 29.9198 22.9619 29.9606C22.9212 30.0014 22.8727 30.0337 22.8194 30.0558C22.7661 30.0779 22.709 30.0892 22.6513 30.0892H0.439193C0.381512 30.0892 0.324396 30.0779 0.271106 30.0558C0.217817 30.0337 0.169398 30.0014 0.128614 29.9606C0.0878308 29.9198 0.0554814 29.8713 0.0334136 29.8181C0.0113458 29.7648 -8.20401e-06 29.7076 4.44759e-09 29.65V2.82009C4.44759e-09 2.70361 0.0462719 2.5919 0.128637 2.50954C0.211001 2.42717 0.322711 2.3809 0.439193 2.3809H2.59072V0.439193C2.59072 0.381517 2.60208 0.324406 2.62415 0.271121C2.64622 0.217836 2.67857 0.169419 2.71935 0.128637C2.80172 0.0462719 2.91343 0 3.02991 0H25.242C25.3585 -1.17919e-09 25.4702 0.0462699 25.5526 0.128633C25.635 0.210995 25.6813 0.322706 25.6813 0.439193V11.9358L27.2138 9.28148V9.28111L27.5888 8.63035C27.744 8.36149 27.9506 8.12582 28.1968 7.93681C28.4431 7.7478 28.7242 7.60914 29.024 7.52875C29.3238 7.44836 29.6366 7.42781 29.9443 7.46828C30.2521 7.50875 30.5489 7.60945 30.8178 7.76462C31.0866 7.91979 31.3223 8.1264 31.5113 8.37265C31.7003 8.61889 31.839 8.89996 31.9194 9.19979C31.9998 9.49963 32.0203 9.81236 31.9798 10.1201C31.9394 10.4279 31.8387 10.7247 31.6835 10.9936L31.6839 10.9939ZM28.3498 9.06954L28.1943 9.33942L29.4746 10.0783C29.4771 10.0796 29.4796 10.0807 29.482 10.0821C29.4845 10.0834 29.4865 10.0851 29.4888 10.0864L30.7674 10.8243L30.9231 10.5542C31.0221 10.3852 31.0867 10.1982 31.1131 10.0041C31.1396 9.81003 31.1274 9.61263 31.0772 9.42327C31.0271 9.23392 30.94 9.05635 30.821 8.90078C30.7019 8.74522 30.5533 8.61474 30.3836 8.51685C30.2139 8.41896 30.0266 8.35559 29.8323 8.3304C29.6381 8.30521 29.4408 8.31868 29.2517 8.37005C29.0627 8.42142 28.8857 8.50967 28.7309 8.62972C28.5761 8.74976 28.4466 8.89924 28.3498 9.06954ZM21.3196 24.2184L23.3356 23.055L21.3196 21.8901V24.2184ZM22.3861 21.4918L28.6621 10.6236L27.7553 10.1003L21.4802 20.9685L22.3861 21.4918ZM22.2121 27.7083H3.02991C2.97223 27.7083 2.91511 27.697 2.86182 27.6749C2.80853 27.6528 2.76012 27.6204 2.71933 27.5797C2.67855 27.5389 2.6462 27.4904 2.62413 27.4372C2.60206 27.3839 2.59071 27.3267 2.59072 27.2691V3.25929H0.878198V29.2108H22.2121V27.7083ZM24.8028 22.9139L24.5947 23.2745C24.5562 23.3414 24.5007 23.3969 24.4338 23.4354L21.0998 25.3593C21.033 25.3978 20.9573 25.4181 20.8802 25.4181C20.8031 25.4181 20.7274 25.3978 20.6607 25.3592C20.5939 25.3207 20.5385 25.2652 20.4999 25.1985C20.4614 25.1317 20.4411 25.056 20.4411 24.9789V21.1293C20.4412 21.0522 20.4616 20.9764 20.5002 20.9097L24.8028 13.4571V0.878385H3.46916V26.8299H24.8028V22.9139ZM30.3285 11.5853L29.423 11.0627L23.1466 21.9316L24.0535 22.4555L30.3285 11.5853Z" fill="black"/>
</svg>
