<svg width="16" height="16" viewBox="0 0 16 16" fill="none" xmlns="http://www.w3.org/2000/svg">
<g id="Group 1801">
<path id="Vector" d="M15.2729 8.72754C15.08 8.72754 14.895 8.80416 14.7586 8.94055C14.6222 9.07695 14.5456 9.26193 14.5456 9.45482V12.5189C14.545 13.0562 14.3313 13.5715 13.9513 13.9515C13.5713 14.3315 13.0561 14.5452 12.5187 14.5458H3.48149C2.94409 14.5452 2.42887 14.3315 2.04887 13.9515C1.66887 13.5715 1.45514 13.0562 1.45456 12.5189V9.45482C1.45456 9.26193 1.37794 9.07695 1.24155 8.94055C1.10515 8.80416 0.920167 8.72754 0.72728 8.72754C0.534394 8.72754 0.349407 8.80416 0.213015 8.94055C0.0766239 9.07695 0 9.26193 0 9.45482V12.5189C0.000962618 13.4419 0.368071 14.3269 1.02077 14.9796C1.67347 15.6323 2.55844 15.9994 3.48149 16.0003H12.5187C13.4417 15.9994 14.3267 15.6323 14.9794 14.9796C15.6321 14.3269 15.9992 13.4419 16.0002 12.5189V9.45482C16.0002 9.26193 15.9235 9.07695 15.7872 8.94055C15.6508 8.80416 15.4658 8.72754 15.2729 8.72754Z" fill="#2FACD6"/>
<path id="Vector_2" d="M4.1505 5.60499L7.27271 2.48278V11.6363C7.27271 11.8292 7.34934 12.0142 7.48573 12.1506C7.62212 12.287 7.80711 12.3636 7.99999 12.3636C8.19288 12.3636 8.37787 12.287 8.51426 12.1506C8.65065 12.0142 8.72727 11.8292 8.72727 11.6363V2.48278L11.8495 5.60499C11.9867 5.73747 12.1704 5.81078 12.3611 5.80912C12.5517 5.80747 12.7342 5.73098 12.869 5.59613C13.0038 5.46129 13.0803 5.27888 13.082 5.08819C13.0836 4.8975 13.0103 4.71379 12.8779 4.57662L8.51418 0.212938C8.3778 0.0765938 8.19284 0 7.99999 0C7.80714 0 7.62219 0.0765938 7.48581 0.212938L3.12213 4.57662C2.98965 4.71379 2.91634 4.8975 2.918 5.08819C2.91965 5.27888 2.99614 5.46129 3.13098 5.59613C3.26583 5.73098 3.44824 5.80747 3.63893 5.80912C3.82962 5.81078 4.01333 5.73747 4.1505 5.60499Z" fill="#2FACD6"/>
</g>
</svg>
