<svg width="120" height="60" viewBox="0 0 120 60" fill="none" xmlns="http://www.w3.org/2000/svg">
<g clip-path="url(#clip0_189_1956)">
<path d="M56.4748 20.9244L52.5748 23.3244C52.1998 23.5494 51.6748 23.2494 51.6748 22.7994V10.4994C51.6748 9.82437 52.4248 9.44937 52.9498 9.82437L57.2998 12.5994C57.5248 12.7494 57.6748 13.0494 57.6748 13.2744V18.8244C57.6748 19.6494 57.2248 20.4744 56.4748 20.9244Z" fill="#16E19F"/>
<path d="M58.875 18.825V14.25C58.875 13.8 59.4 13.5 59.775 13.725L70.275 20.1C70.8 20.475 70.8 21.225 70.2 21.525L65.55 23.775C65.325 23.925 65.025 23.85 64.725 23.775L60.075 21C59.325 20.55 58.875 19.725 58.875 18.825Z" fill="#FA510F"/>
<path d="M59.175 22.0508L63.3 24.0758C63.75 24.3008 63.75 24.8258 63.375 25.1258L53.025 31.8008C52.5 32.1758 51.75 31.7258 51.75 31.1258V25.9508C51.75 25.6508 51.9 25.4258 52.125 25.2758L56.775 22.2758C57.45 21.7508 58.35 21.6758 59.175 22.0508Z" fill="#753CB5"/>
<path d="M38.1752 41.0996C38.1752 41.3996 38.1002 41.6246 38.0252 41.9996C37.8752 42.2996 37.6502 42.5996 37.3502 42.8246C37.5752 42.8996 37.7252 43.0496 37.8752 43.1996C38.0252 43.3496 38.1752 43.4996 38.2502 43.6496C38.3252 43.7996 38.4002 43.9496 38.4752 44.1746C38.5502 44.3246 38.5502 44.5496 38.5502 44.6996C38.5502 44.9996 38.4752 45.2996 38.4002 45.5996C38.3252 45.8996 38.1752 46.1996 37.9502 46.4246C37.7252 46.6496 37.4252 46.8746 37.0502 47.0246C36.6752 47.1746 36.2252 47.2496 35.7002 47.2496H32.3252V38.8496H35.6252C36.0002 38.8496 36.3002 38.9246 36.6002 39.0746C36.9002 39.2246 37.2002 39.3746 37.4252 39.5996C37.6502 39.8246 37.8002 40.0496 37.9502 40.3496C38.1002 40.5746 38.1752 40.7996 38.1752 41.0996ZM33.9752 42.0746H35.4752C35.7752 42.0746 36.0002 41.9996 36.1502 41.8496C36.3002 41.6996 36.4502 41.5496 36.4502 41.3246C36.4502 41.0996 36.3752 40.8746 36.1502 40.7246C36.0002 40.5746 35.7752 40.4996 35.4752 40.4996H33.9752V42.0746ZM35.4752 45.5246C35.9252 45.5246 36.2252 45.4496 36.4502 45.2996C36.6752 45.1496 36.7502 44.9246 36.7502 44.6996C36.7502 44.5496 36.7502 44.4746 36.6752 44.3246C36.6002 44.2496 36.6002 44.0996 36.4502 44.0246C36.3752 43.9496 36.2252 43.8746 36.0752 43.7996C35.9252 43.7246 35.7002 43.7246 35.4752 43.7246H33.9752V45.5246H35.4752Z" fill="black"/>
<path d="M45.6754 47.2496C45.1504 47.2496 44.6254 47.1746 44.1004 46.9496C43.5754 46.7246 43.1254 46.4996 42.7504 46.1246C42.3754 45.7496 42.0004 45.2996 41.7754 44.7746C41.5504 44.2496 41.4004 43.6496 41.4004 43.0496C41.4004 42.5246 41.4754 41.9996 41.7004 41.4746C41.9254 40.9496 42.2254 40.4996 42.6004 40.1246C42.9754 39.7496 43.4254 39.4496 43.9504 39.2246C44.4754 38.9996 45.0004 38.8496 45.6754 38.8496C46.2004 38.8496 46.7254 38.9246 47.2504 39.1496C47.7754 39.3746 48.2254 39.6746 48.6004 40.0496C48.9754 40.4246 49.2754 40.8746 49.5754 41.3996C49.8004 41.9246 49.9504 42.5246 49.9504 43.1246C49.9504 43.6496 49.8754 44.1746 49.6504 44.6996C49.4254 45.2246 49.1254 45.6746 48.7504 46.0496C48.3754 46.4246 47.9254 46.7246 47.4004 46.9496C46.8754 47.0996 46.2754 47.2496 45.6754 47.2496ZM45.6754 40.4246C45.3004 40.4246 45.0004 40.4996 44.7004 40.6496C44.4004 40.7996 44.1004 40.9496 43.8754 41.1746C43.6504 41.3996 43.4254 41.6996 43.3504 41.9996C43.2004 42.2996 43.1254 42.6746 43.1254 42.9746C43.1254 43.3496 43.2004 43.6496 43.3504 43.9496C43.5004 44.2496 43.6504 44.5496 43.8754 44.7746C44.1004 44.9996 44.4004 45.2246 44.7004 45.2996C45.0004 45.4496 45.3754 45.5246 45.6754 45.5246C46.0504 45.5246 46.3504 45.4496 46.6504 45.2996C46.9504 45.1496 47.2504 44.9996 47.4754 44.7746C47.7004 44.5496 47.9254 44.2496 48.0004 43.9496C48.1504 43.6496 48.2254 43.2746 48.2254 42.9746C48.2254 42.5996 48.1504 42.2996 48.0004 41.9996C47.8504 41.6996 47.7004 41.3996 47.4754 41.1746C47.2504 40.9496 46.9504 40.7246 46.6504 40.6496C46.3504 40.4996 45.9754 40.4246 45.6754 40.4246Z" fill="black"/>
<path d="M60.4502 38.7754L58.1252 43.5754L55.7252 38.7754H53.4752V47.1754H55.1252V41.7754L57.3002 46.5004H58.8752L61.0502 41.7754V47.1754H62.7002V38.7754H60.4502Z" fill="black"/>
<path d="M72.2251 38.8496H74.0251L71.0251 47.2496H68.8501L65.8501 38.8496H67.6501L69.9001 44.9246L72.2251 38.8496Z" fill="black"/>
<path d="M77.0254 47.1746V38.8496H78.6754V47.1746H77.0254Z" fill="black"/>
<path d="M85.9502 38.7754L89.7002 47.1754H87.9002L87.2252 45.6754H84.0002C83.9252 45.9004 83.7752 46.2004 83.6252 46.4254C83.4752 46.7254 83.4002 46.9504 83.3252 47.1754H81.5252L85.2002 38.7754H85.9502ZM86.4752 43.9504L85.6502 42.0004L84.8252 43.9504H86.4752Z" fill="black"/>
</g>
<defs>
<clipPath id="clip0_189_1956">
<rect width="120" height="60" fill="white"/>
</clipPath>
</defs>
</svg>
