<svg width="24" height="24" viewBox="0 0 24 24" fill="none" xmlns="http://www.w3.org/2000/svg">
<mask id="path-1-inside-1_4244_1120" fill="white">
<path d="M21.414 1.50623H19.4813V0.703125C19.4813 0.314812 19.1664 0 18.7781 0C18.3898 0 18.075 0.314812 18.075 0.703125V1.50623H14.9625V0.703125C14.9625 0.314812 14.6477 0 14.2594 0C13.8711 0 13.5563 0.314812 13.5563 0.703125V1.50623H10.4438V0.703125C10.4438 0.314812 10.1289 0 9.74063 0C9.35231 0 9.0375 0.314812 9.0375 0.703125V1.50623H5.925V0.703125C5.925 0.314812 5.61019 0 5.22188 0C4.83356 0 4.51875 0.314812 4.51875 0.703125V1.50623H2.58591C1.16006 1.50623 0 2.66625 0 4.09219V21.414C0 22.8399 1.16006 24 2.58591 24H21.414C22.8399 24 24 22.8399 24 21.414V4.09219C24 2.66625 22.8399 1.50623 21.414 1.50623ZM2.58591 2.91248H4.51875V3.71564C4.51875 4.10395 4.83356 4.41877 5.22188 4.41877C5.61019 4.41877 5.925 4.10395 5.925 3.71564V2.91248H9.03741V3.71564C9.03741 4.10395 9.35222 4.41877 9.74053 4.41877C10.1288 4.41877 10.4437 4.10395 10.4437 3.71564V2.91248H13.5562V3.71564C13.5562 4.10395 13.871 4.41877 14.2593 4.41877C14.6476 4.41877 14.9624 4.10395 14.9624 3.71564V2.91248H18.0749V3.71564C18.0749 4.10395 18.3897 4.41877 18.778 4.41877C19.1663 4.41877 19.4812 4.10395 19.4812 3.71564V2.91248H21.4139C22.0645 2.91248 22.5938 3.4417 22.5938 4.09219V6.02498H1.40625V4.09219C1.40625 3.4417 1.93547 2.91248 2.58591 2.91248ZM21.414 22.5938H2.58591C1.93547 22.5938 1.40625 22.0645 1.40625 21.414V7.43123H22.5938V21.414C22.5938 22.0645 22.0645 22.5938 21.414 22.5938Z"/>
<path d="M7.10466 9.79064H4.09214C3.70383 9.79064 3.38902 10.1055 3.38902 10.4938V13.5062C3.38902 13.8945 3.70383 14.2094 4.09214 14.2094H7.1047C7.49302 14.2094 7.80783 13.8945 7.80783 13.5062V10.4938C7.80778 10.1055 7.49302 9.79064 7.10466 9.79064ZM6.40153 12.8031H4.79522V11.1969H6.40153V12.8031Z"/>
<path d="M19.9078 9.79064H16.8953C16.507 9.79064 16.1922 10.1055 16.1922 10.4938V13.5062C16.1922 13.8945 16.507 14.2094 16.8953 14.2094H19.9078C20.2961 14.2094 20.6109 13.8945 20.6109 13.5062V10.4938C20.6109 10.1055 20.2961 9.79064 19.9078 9.79064ZM19.2046 12.8031H17.5984V11.1969H19.2046V12.8031Z"/>
<path d="M7.10466 15.8156H4.09214C3.70383 15.8156 3.38902 16.1304 3.38902 16.5187V19.5312C3.38902 19.9195 3.70383 20.2343 4.09214 20.2343H7.1047C7.49302 20.2343 7.80783 19.9195 7.80783 19.5312V16.5187C7.80778 16.1304 7.49302 15.8156 7.10466 15.8156ZM6.40153 18.8281H4.79522V17.2219H6.40153V18.8281Z"/>
<path d="M19.9078 15.8156H16.8953C16.507 15.8156 16.1922 16.1304 16.1922 16.5187V19.5312C16.1922 19.9195 16.507 20.2343 16.8953 20.2343H19.9078C20.2961 20.2343 20.6109 19.9195 20.6109 19.5312V16.5187C20.6109 16.1304 20.2961 15.8156 19.9078 15.8156ZM19.2046 18.8281H17.5984V17.2219H19.2046V18.8281Z"/>
<path d="M13.5062 15.8156H10.4937C10.1054 15.8156 9.79055 16.1304 9.79055 16.5187V19.5312C9.79055 19.9195 10.1054 20.2343 10.4937 20.2343H13.5062C13.8945 20.2343 14.2094 19.9195 14.2094 19.5312V16.5187C14.2094 16.1304 13.8945 15.8156 13.5062 15.8156ZM12.8031 18.8281H11.1968V17.2219H12.8031V18.8281Z"/>
<path d="M13.1004 10.4378L11.4675 12.0707L10.8996 11.5028C10.6251 11.2282 10.1798 11.2282 9.90525 11.5028C9.63066 11.7774 9.63066 12.2226 9.90525 12.4972L10.9704 13.5623C11.1023 13.6942 11.2811 13.7683 11.4675 13.7683C11.6541 13.7683 11.8329 13.6942 11.9648 13.5623L14.0948 11.4322C14.3693 11.1576 14.3693 10.7124 14.0948 10.4378C13.8202 10.1632 13.375 10.1632 13.1004 10.4378Z"/>
</mask>
<path d="M21.414 1.50623H19.4813V0.703125C19.4813 0.314812 19.1664 0 18.7781 0C18.3898 0 18.075 0.314812 18.075 0.703125V1.50623H14.9625V0.703125C14.9625 0.314812 14.6477 0 14.2594 0C13.8711 0 13.5563 0.314812 13.5563 0.703125V1.50623H10.4438V0.703125C10.4438 0.314812 10.1289 0 9.74063 0C9.35231 0 9.0375 0.314812 9.0375 0.703125V1.50623H5.925V0.703125C5.925 0.314812 5.61019 0 5.22188 0C4.83356 0 4.51875 0.314812 4.51875 0.703125V1.50623H2.58591C1.16006 1.50623 0 2.66625 0 4.09219V21.414C0 22.8399 1.16006 24 2.58591 24H21.414C22.8399 24 24 22.8399 24 21.414V4.09219C24 2.66625 22.8399 1.50623 21.414 1.50623ZM2.58591 2.91248H4.51875V3.71564C4.51875 4.10395 4.83356 4.41877 5.22188 4.41877C5.61019 4.41877 5.925 4.10395 5.925 3.71564V2.91248H9.03741V3.71564C9.03741 4.10395 9.35222 4.41877 9.74053 4.41877C10.1288 4.41877 10.4437 4.10395 10.4437 3.71564V2.91248H13.5562V3.71564C13.5562 4.10395 13.871 4.41877 14.2593 4.41877C14.6476 4.41877 14.9624 4.10395 14.9624 3.71564V2.91248H18.0749V3.71564C18.0749 4.10395 18.3897 4.41877 18.778 4.41877C19.1663 4.41877 19.4812 4.10395 19.4812 3.71564V2.91248H21.4139C22.0645 2.91248 22.5938 3.4417 22.5938 4.09219V6.02498H1.40625V4.09219C1.40625 3.4417 1.93547 2.91248 2.58591 2.91248ZM21.414 22.5938H2.58591C1.93547 22.5938 1.40625 22.0645 1.40625 21.414V7.43123H22.5938V21.414C22.5938 22.0645 22.0645 22.5938 21.414 22.5938Z" fill="#717171"/>
<path d="M7.10466 9.79064H4.09214C3.70383 9.79064 3.38902 10.1055 3.38902 10.4938V13.5062C3.38902 13.8945 3.70383 14.2094 4.09214 14.2094H7.1047C7.49302 14.2094 7.80783 13.8945 7.80783 13.5062V10.4938C7.80778 10.1055 7.49302 9.79064 7.10466 9.79064ZM6.40153 12.8031H4.79522V11.1969H6.40153V12.8031Z" fill="#717171"/>
<path d="M19.9078 9.79064H16.8953C16.507 9.79064 16.1922 10.1055 16.1922 10.4938V13.5062C16.1922 13.8945 16.507 14.2094 16.8953 14.2094H19.9078C20.2961 14.2094 20.6109 13.8945 20.6109 13.5062V10.4938C20.6109 10.1055 20.2961 9.79064 19.9078 9.79064ZM19.2046 12.8031H17.5984V11.1969H19.2046V12.8031Z" fill="#717171"/>
<path d="M7.10466 15.8156H4.09214C3.70383 15.8156 3.38902 16.1304 3.38902 16.5187V19.5312C3.38902 19.9195 3.70383 20.2343 4.09214 20.2343H7.1047C7.49302 20.2343 7.80783 19.9195 7.80783 19.5312V16.5187C7.80778 16.1304 7.49302 15.8156 7.10466 15.8156ZM6.40153 18.8281H4.79522V17.2219H6.40153V18.8281Z" fill="#717171"/>
<path d="M19.9078 15.8156H16.8953C16.507 15.8156 16.1922 16.1304 16.1922 16.5187V19.5312C16.1922 19.9195 16.507 20.2343 16.8953 20.2343H19.9078C20.2961 20.2343 20.6109 19.9195 20.6109 19.5312V16.5187C20.6109 16.1304 20.2961 15.8156 19.9078 15.8156ZM19.2046 18.8281H17.5984V17.2219H19.2046V18.8281Z" fill="#717171"/>
<path d="M13.5062 15.8156H10.4937C10.1054 15.8156 9.79055 16.1304 9.79055 16.5187V19.5312C9.79055 19.9195 10.1054 20.2343 10.4937 20.2343H13.5062C13.8945 20.2343 14.2094 19.9195 14.2094 19.5312V16.5187C14.2094 16.1304 13.8945 15.8156 13.5062 15.8156ZM12.8031 18.8281H11.1968V17.2219H12.8031V18.8281Z" fill="#717171"/>
<path d="M13.1004 10.4378L11.4675 12.0707L10.8996 11.5028C10.6251 11.2282 10.1798 11.2282 9.90525 11.5028C9.63066 11.7774 9.63066 12.2226 9.90525 12.4972L10.9704 13.5623C11.1023 13.6942 11.2811 13.7683 11.4675 13.7683C11.6541 13.7683 11.8329 13.6942 11.9648 13.5623L14.0948 11.4322C14.3693 11.1576 14.3693 10.7124 14.0948 10.4378C13.8202 10.1632 13.375 10.1632 13.1004 10.4378Z" fill="#717171"/>
<path d="M21.414 1.50623H19.4813V0.703125C19.4813 0.314812 19.1664 0 18.7781 0C18.3898 0 18.075 0.314812 18.075 0.703125V1.50623H14.9625V0.703125C14.9625 0.314812 14.6477 0 14.2594 0C13.8711 0 13.5563 0.314812 13.5563 0.703125V1.50623H10.4438V0.703125C10.4438 0.314812 10.1289 0 9.74063 0C9.35231 0 9.0375 0.314812 9.0375 0.703125V1.50623H5.925V0.703125C5.925 0.314812 5.61019 0 5.22188 0C4.83356 0 4.51875 0.314812 4.51875 0.703125V1.50623H2.58591C1.16006 1.50623 0 2.66625 0 4.09219V21.414C0 22.8399 1.16006 24 2.58591 24H21.414C22.8399 24 24 22.8399 24 21.414V4.09219C24 2.66625 22.8399 1.50623 21.414 1.50623ZM2.58591 2.91248H4.51875V3.71564C4.51875 4.10395 4.83356 4.41877 5.22188 4.41877C5.61019 4.41877 5.925 4.10395 5.925 3.71564V2.91248H9.03741V3.71564C9.03741 4.10395 9.35222 4.41877 9.74053 4.41877C10.1288 4.41877 10.4437 4.10395 10.4437 3.71564V2.91248H13.5562V3.71564C13.5562 4.10395 13.871 4.41877 14.2593 4.41877C14.6476 4.41877 14.9624 4.10395 14.9624 3.71564V2.91248H18.0749V3.71564C18.0749 4.10395 18.3897 4.41877 18.778 4.41877C19.1663 4.41877 19.4812 4.10395 19.4812 3.71564V2.91248H21.4139C22.0645 2.91248 22.5938 3.4417 22.5938 4.09219V6.02498H1.40625V4.09219C1.40625 3.4417 1.93547 2.91248 2.58591 2.91248ZM21.414 22.5938H2.58591C1.93547 22.5938 1.40625 22.0645 1.40625 21.414V7.43123H22.5938V21.414C22.5938 22.0645 22.0645 22.5938 21.414 22.5938Z" stroke="white" stroke-width="0.3" mask="url(#path-1-inside-1_4244_1120)"/>
<path d="M7.10466 9.79064H4.09214C3.70383 9.79064 3.38902 10.1055 3.38902 10.4938V13.5062C3.38902 13.8945 3.70383 14.2094 4.09214 14.2094H7.1047C7.49302 14.2094 7.80783 13.8945 7.80783 13.5062V10.4938C7.80778 10.1055 7.49302 9.79064 7.10466 9.79064ZM6.40153 12.8031H4.79522V11.1969H6.40153V12.8031Z" stroke="white" stroke-width="0.3" mask="url(#path-1-inside-1_4244_1120)"/>
<path d="M19.9078 9.79064H16.8953C16.507 9.79064 16.1922 10.1055 16.1922 10.4938V13.5062C16.1922 13.8945 16.507 14.2094 16.8953 14.2094H19.9078C20.2961 14.2094 20.6109 13.8945 20.6109 13.5062V10.4938C20.6109 10.1055 20.2961 9.79064 19.9078 9.79064ZM19.2046 12.8031H17.5984V11.1969H19.2046V12.8031Z" stroke="white" stroke-width="0.3" mask="url(#path-1-inside-1_4244_1120)"/>
<path d="M7.10466 15.8156H4.09214C3.70383 15.8156 3.38902 16.1304 3.38902 16.5187V19.5312C3.38902 19.9195 3.70383 20.2343 4.09214 20.2343H7.1047C7.49302 20.2343 7.80783 19.9195 7.80783 19.5312V16.5187C7.80778 16.1304 7.49302 15.8156 7.10466 15.8156ZM6.40153 18.8281H4.79522V17.2219H6.40153V18.8281Z" stroke="white" stroke-width="0.3" mask="url(#path-1-inside-1_4244_1120)"/>
<path d="M19.9078 15.8156H16.8953C16.507 15.8156 16.1922 16.1304 16.1922 16.5187V19.5312C16.1922 19.9195 16.507 20.2343 16.8953 20.2343H19.9078C20.2961 20.2343 20.6109 19.9195 20.6109 19.5312V16.5187C20.6109 16.1304 20.2961 15.8156 19.9078 15.8156ZM19.2046 18.8281H17.5984V17.2219H19.2046V18.8281Z" stroke="white" stroke-width="0.3" mask="url(#path-1-inside-1_4244_1120)"/>
<path d="M13.5062 15.8156H10.4937C10.1054 15.8156 9.79055 16.1304 9.79055 16.5187V19.5312C9.79055 19.9195 10.1054 20.2343 10.4937 20.2343H13.5062C13.8945 20.2343 14.2094 19.9195 14.2094 19.5312V16.5187C14.2094 16.1304 13.8945 15.8156 13.5062 15.8156ZM12.8031 18.8281H11.1968V17.2219H12.8031V18.8281Z" stroke="white" stroke-width="0.3" mask="url(#path-1-inside-1_4244_1120)"/>
<path d="M13.1004 10.4378L11.4675 12.0707L10.8996 11.5028C10.6251 11.2282 10.1798 11.2282 9.90525 11.5028C9.63066 11.7774 9.63066 12.2226 9.90525 12.4972L10.9704 13.5623C11.1023 13.6942 11.2811 13.7683 11.4675 13.7683C11.6541 13.7683 11.8329 13.6942 11.9648 13.5623L14.0948 11.4322C14.3693 11.1576 14.3693 10.7124 14.0948 10.4378C13.8202 10.1632 13.375 10.1632 13.1004 10.4378Z" stroke="white" stroke-width="0.3" mask="url(#path-1-inside-1_4244_1120)"/>
</svg>
