<svg width="16" height="16" viewBox="0 0 16 16" fill="none" xmlns="http://www.w3.org/2000/svg">
<rect x="14.2999" y="0.28125" width="1.62538" height="19.5045" rx="0.812688" transform="rotate(44.8396 14.2999 0.28125)" fill="#AAAAAA"/>
<path fill-rule="evenodd" clip-rule="evenodd" d="M16.003 8.00151C16.003 9.93972 15.3139 11.717 14.1673 13.1016L13.1042 12.0309C13.9801 10.9231 14.503 9.52337 14.503 8.00151C14.503 6.56992 14.0403 5.2464 13.2563 4.17234L14.3248 3.09784C15.3767 4.45231 16.003 6.15377 16.003 8.00151ZM12.5024 1.38499C11.2201 0.510963 9.67046 0 8.00151 0C6.08403 0 4.32409 0.674471 2.94598 1.79911L4.00904 2.86987C5.1109 2.01138 6.49649 1.5 8.00151 1.5C9.25647 1.5 10.4284 1.85557 11.422 2.47146L12.5024 1.38499ZM8.00151 16.003C9.89699 16.003 11.6385 15.3439 13.0095 14.2424L11.9454 13.1706C10.8515 14.0065 9.48449 14.503 8.00151 14.503C6.58298 14.503 5.27056 14.0487 4.2018 13.2777L3.13329 14.3522C4.48194 15.3876 6.16985 16.003 8.00151 16.003ZM1.41032 12.5394C0.520842 11.2499 0 9.68651 0 8.00151C0 6.08529 0.673589 4.32639 1.7969 2.94868L2.86099 4.02047C2.00786 5.12048 1.5 6.50168 1.5 8.00151C1.5 9.2695 1.86299 10.4527 2.49072 11.4529L1.41032 12.5394Z" fill="#AAAAAA"/>
</svg>
