<svg width="16" height="16" viewBox="0 0 16 16" fill="none" xmlns="http://www.w3.org/2000/svg">
<path fill-rule="evenodd" clip-rule="evenodd" d="M13.0117 14.2406C11.6404 15.3432 9.89802 16.003 8.00151 16.003C6.18779 16.003 4.51502 15.3996 3.17302 14.3825L4.24261 13.3069C5.30389 14.0602 6.60098 14.503 8.00151 14.503C9.48552 14.503 10.8534 14.0058 11.9477 13.1689L13.0117 14.2406ZM14.1691 13.0994C15.3146 11.7151 16.003 9.9387 16.003 8.00151C16.003 6.17171 15.3888 4.48537 14.3553 3.1374L13.2857 4.21299C14.0519 5.27972 14.503 6.58793 14.503 8.00151C14.503 9.52235 13.9808 10.9212 13.106 12.0286L14.1691 13.0994ZM3.04361 12.2075L1.98286 13.2742C0.748332 11.8662 0 10.0212 0 8.00151C0 6.08426 0.674309 4.32451 1.79871 2.94648L2.86274 4.01821C2.00855 5.11859 1.5 6.50066 1.5 8.00151C1.5 9.60546 2.08082 11.0737 3.04361 12.2075ZM4.0113 2.86812C5.11279 2.01069 6.49751 1.5 8.00151 1.5C9.59238 1.5 11.0498 2.07139 12.1797 3.02013L13.2405 1.95342C11.8368 0.736447 10.0051 0 8.00151 0C6.08506 0 4.32597 0.673752 2.94818 1.79731L4.0113 2.86812Z" fill="#AAAAAA"/>
</svg>
