<svg width="26" height="25" viewBox="0 0 26 25" fill="none" xmlns="http://www.w3.org/2000/svg">
<mask id="path-1-outside-1_4244_1092" maskUnits="userSpaceOnUse" x="0" y="0" width="26" height="25" fill="black">
<rect fill="white" width="26" height="25"/>
<path d="M22.8887 1H2.86483C1.83658 1 1 1.83653 1 2.86478V14.1387C1 15.167 1.83658 16.0035 2.86483 16.0035H7.47719C7.73711 16.0035 7.94777 15.7928 7.94777 15.5329C7.94777 15.2731 7.73706 15.0624 7.47714 15.0624H2.86483C2.35553 15.0624 1.9412 14.648 1.9412 14.1387V2.86478C1.9412 2.35548 2.35553 1.94116 2.86483 1.94116H22.8887C23.398 1.94116 23.8123 2.35548 23.8123 2.86478V14.1387C23.8123 14.648 23.398 15.0624 22.8887 15.0624H21.4755C21.2156 15.0624 21.0049 15.2731 21.0049 15.5329C21.0049 15.7928 21.2156 16.0035 21.4755 16.0035H22.8887C23.917 16.0035 24.7535 15.167 24.7535 14.1387V2.86478C24.7535 1.83653 23.917 1 22.8887 1Z"/>
<path d="M24.9996 18.2862C24.9876 17.9151 24.755 17.5919 24.4069 17.4628L16.6234 14.5751C16.0963 14.3796 15.5219 14.5051 15.1244 14.9025C14.7269 15.2999 14.6013 15.8742 14.7967 16.4013L17.677 24.172C17.8067 24.5219 18.1315 24.7547 18.5045 24.7651C18.5132 24.7654 18.5218 24.7654 18.5305 24.7654C18.893 24.7654 19.2182 24.5532 19.3637 24.2191L20.1604 22.39L21.8878 24.1179C22.3794 24.6096 23.1795 24.6098 23.6713 24.1182L24.3377 23.452C24.5759 23.2138 24.7071 22.8971 24.7072 22.5602C24.7072 22.2234 24.5761 21.9066 24.3379 21.6684L22.6324 19.9625L24.4613 19.1461C24.8003 18.9947 25.0116 18.6572 24.9996 18.2862ZM21.6243 19.3818C21.4828 19.4449 21.3815 19.5736 21.3533 19.7259C21.3252 19.8782 21.3738 20.0346 21.4833 20.1442L23.6723 22.3339C23.7971 22.4587 23.7971 22.6617 23.6723 22.7864L23.006 23.4526C22.9455 23.513 22.8652 23.5462 22.7797 23.5462C22.6942 23.5462 22.6138 23.5129 22.5534 23.4525L20.3377 21.2361C20.2276 21.126 20.0703 21.0777 19.9173 21.1065C19.7643 21.1354 19.6356 21.2382 19.5734 21.3809L18.5322 23.7713L15.6792 16.0743C15.58 15.8065 15.7388 15.6192 15.7899 15.5681C15.8292 15.5288 15.9494 15.4256 16.1249 15.4256C16.1773 15.4256 16.2346 15.4347 16.2961 15.4576L24.0069 18.3182L21.6243 19.3818ZM24.0799 18.3454C24.08 18.3454 24.0798 18.3453 24.0799 18.3454Z"/>
<path d="M14.4028 13.5145L13.073 12.1847C12.8892 12.0009 12.5913 12.0009 12.4075 12.1847C12.2237 12.3684 12.2237 12.6664 12.4075 12.8502L13.7373 14.18C13.8292 14.2719 13.9496 14.3178 14.07 14.3178C14.1904 14.3178 14.3109 14.2719 14.4028 14.18C14.5866 13.9962 14.5866 13.6983 14.4028 13.5145Z"/>
<path d="M13.0983 15.0625H11.2176C10.9577 15.0625 10.7471 15.2732 10.7471 15.5331C10.7471 15.793 10.9578 16.0037 11.2176 16.0037H13.0983C13.3581 16.0037 13.5689 15.793 13.5689 15.5331C13.5689 15.2732 13.3581 15.0625 13.0983 15.0625Z"/>
<path d="M15.7986 10.4844C15.5387 10.4844 15.328 10.6951 15.328 10.955V12.8356C15.328 13.0955 15.5387 13.3062 15.7986 13.3062C16.0585 13.3062 16.2692 13.0955 16.2692 12.8356V10.955C16.2692 10.6951 16.0585 10.4844 15.7986 10.4844Z"/>
<path d="M19.7494 11.3565C19.5656 11.1728 19.2677 11.1728 19.0839 11.3565L17.7541 12.6863C17.5703 12.8701 17.5703 13.1681 17.754 13.3519C17.8459 13.4437 17.9664 13.4897 18.0868 13.4897C18.2073 13.4897 18.3277 13.4437 18.4196 13.3519L19.7494 12.0221C19.9332 11.8383 19.9332 11.5403 19.7494 11.3565Z"/>
<path d="M13.857 17.2472C13.6732 17.0634 13.3753 17.0634 13.1915 17.2472L11.8617 18.577C11.6779 18.7608 11.678 19.0587 11.8617 19.2425C11.9536 19.3344 12.074 19.3803 12.1945 19.3803C12.3149 19.3803 12.4354 19.3344 12.5272 19.2425L13.857 17.9127C14.0408 17.7289 14.0408 17.4309 13.857 17.2472Z"/>
<path d="M9.34422 16.0066C9.60492 16.0066 9.81625 15.7952 9.81625 15.5345C9.81625 15.2738 9.60492 15.0625 9.34422 15.0625C9.08353 15.0625 8.87219 15.2738 8.87219 15.5345C8.87219 15.7952 9.08353 16.0066 9.34422 16.0066Z"/>
<path d="M9.26237 7.9427C9.67477 7.76369 9.92377 7.3435 9.92377 6.70544C9.92377 5.6005 9.16899 5.33594 8.35974 5.33594H6.85796C6.6323 5.33594 6.41443 5.44488 6.41443 5.65497V10.7128C6.41443 10.8762 6.58562 11.0241 6.85796 11.0241H8.50759C9.38687 11.0241 10.0638 10.5883 10.0638 9.37445V9.21105C10.0638 8.43288 9.73702 8.12945 9.26237 7.9427ZM7.41821 6.223H8.28193C8.67877 6.223 8.91221 6.47195 8.91221 6.87663C8.91221 7.27342 8.7099 7.54577 8.28971 7.54577H7.41821V6.223ZM9.05232 9.28881C9.05232 9.88019 8.77219 10.137 8.29754 10.137H7.41826V8.3395H8.29754C8.77219 8.3395 9.05232 8.55737 9.05232 9.16431V9.28881Z"/>
<path d="M13.9934 5.33594C13.7366 5.33594 13.4876 5.42931 13.4876 5.64719V9.28881C13.4876 9.89575 13.1686 10.1837 12.6317 10.1837C12.0948 10.1837 11.7757 9.89575 11.7757 9.28881V5.64719C11.7757 5.42927 11.5189 5.33594 11.2699 5.33594C11.0132 5.33594 10.7642 5.42931 10.7642 5.64719V9.28881C10.7642 10.5883 11.5812 11.0708 12.6317 11.0708C13.6743 11.0708 14.4992 10.5883 14.4992 9.28881V5.64719C14.4992 5.42927 14.2424 5.33594 13.9934 5.33594Z"/>
<path d="M18.6699 5.33594C18.5065 5.33594 18.4364 5.40597 18.3664 5.5382L17.1759 7.78703L15.9931 5.5382C15.9231 5.39819 15.8453 5.33594 15.6819 5.33594C15.4095 5.33594 15.0127 5.50708 15.0127 5.75613C15.0127 5.77947 15.0205 5.81837 15.036 5.85728L16.6468 8.64297C16.6623 8.66631 16.6701 8.70522 16.6701 8.74412V10.705C16.6701 10.9151 16.9269 11.0241 17.1759 11.0241C17.4327 11.0241 17.6817 10.9151 17.6817 10.705V8.74412C17.6817 8.70522 17.6972 8.66631 17.7128 8.64297L19.3157 5.85728C19.3391 5.81837 19.3391 5.77947 19.3391 5.75613C19.3391 5.50708 18.9422 5.33594 18.6699 5.33594Z"/>
</mask>
<path d="M22.8887 1H2.86483C1.83658 1 1 1.83653 1 2.86478V14.1387C1 15.167 1.83658 16.0035 2.86483 16.0035H7.47719C7.73711 16.0035 7.94777 15.7928 7.94777 15.5329C7.94777 15.2731 7.73706 15.0624 7.47714 15.0624H2.86483C2.35553 15.0624 1.9412 14.648 1.9412 14.1387V2.86478C1.9412 2.35548 2.35553 1.94116 2.86483 1.94116H22.8887C23.398 1.94116 23.8123 2.35548 23.8123 2.86478V14.1387C23.8123 14.648 23.398 15.0624 22.8887 15.0624H21.4755C21.2156 15.0624 21.0049 15.2731 21.0049 15.5329C21.0049 15.7928 21.2156 16.0035 21.4755 16.0035H22.8887C23.917 16.0035 24.7535 15.167 24.7535 14.1387V2.86478C24.7535 1.83653 23.917 1 22.8887 1Z" fill="#717171"/>
<path d="M24.9996 18.2862C24.9876 17.9151 24.755 17.5919 24.4069 17.4628L16.6234 14.5751C16.0963 14.3796 15.5219 14.5051 15.1244 14.9025C14.7269 15.2999 14.6013 15.8742 14.7967 16.4013L17.677 24.172C17.8067 24.5219 18.1315 24.7547 18.5045 24.7651C18.5132 24.7654 18.5218 24.7654 18.5305 24.7654C18.893 24.7654 19.2182 24.5532 19.3637 24.2191L20.1604 22.39L21.8878 24.1179C22.3794 24.6096 23.1795 24.6098 23.6713 24.1182L24.3377 23.452C24.5759 23.2138 24.7071 22.8971 24.7072 22.5602C24.7072 22.2234 24.5761 21.9066 24.3379 21.6684L22.6324 19.9625L24.4613 19.1461C24.8003 18.9947 25.0116 18.6572 24.9996 18.2862ZM21.6243 19.3818C21.4828 19.4449 21.3815 19.5736 21.3533 19.7259C21.3252 19.8782 21.3738 20.0346 21.4833 20.1442L23.6723 22.3339C23.7971 22.4587 23.7971 22.6617 23.6723 22.7864L23.006 23.4526C22.9455 23.513 22.8652 23.5462 22.7797 23.5462C22.6942 23.5462 22.6138 23.5129 22.5534 23.4525L20.3377 21.2361C20.2276 21.126 20.0703 21.0777 19.9173 21.1065C19.7643 21.1354 19.6356 21.2382 19.5734 21.3809L18.5322 23.7713L15.6792 16.0743C15.58 15.8065 15.7388 15.6192 15.7899 15.5681C15.8292 15.5288 15.9494 15.4256 16.1249 15.4256C16.1773 15.4256 16.2346 15.4347 16.2961 15.4576L24.0069 18.3182L21.6243 19.3818ZM24.0799 18.3454C24.08 18.3454 24.0798 18.3453 24.0799 18.3454Z" fill="#717171"/>
<path d="M14.4028 13.5145L13.073 12.1847C12.8892 12.0009 12.5913 12.0009 12.4075 12.1847C12.2237 12.3684 12.2237 12.6664 12.4075 12.8502L13.7373 14.18C13.8292 14.2719 13.9496 14.3178 14.07 14.3178C14.1904 14.3178 14.3109 14.2719 14.4028 14.18C14.5866 13.9962 14.5866 13.6983 14.4028 13.5145Z" fill="#717171"/>
<path d="M13.0983 15.0625H11.2176C10.9577 15.0625 10.7471 15.2732 10.7471 15.5331C10.7471 15.793 10.9578 16.0037 11.2176 16.0037H13.0983C13.3581 16.0037 13.5689 15.793 13.5689 15.5331C13.5689 15.2732 13.3581 15.0625 13.0983 15.0625Z" fill="#717171"/>
<path d="M15.7986 10.4844C15.5387 10.4844 15.328 10.6951 15.328 10.955V12.8356C15.328 13.0955 15.5387 13.3062 15.7986 13.3062C16.0585 13.3062 16.2692 13.0955 16.2692 12.8356V10.955C16.2692 10.6951 16.0585 10.4844 15.7986 10.4844Z" fill="#717171"/>
<path d="M19.7494 11.3565C19.5656 11.1728 19.2677 11.1728 19.0839 11.3565L17.7541 12.6863C17.5703 12.8701 17.5703 13.1681 17.754 13.3519C17.8459 13.4437 17.9664 13.4897 18.0868 13.4897C18.2073 13.4897 18.3277 13.4437 18.4196 13.3519L19.7494 12.0221C19.9332 11.8383 19.9332 11.5403 19.7494 11.3565Z" fill="#717171"/>
<path d="M13.857 17.2472C13.6732 17.0634 13.3753 17.0634 13.1915 17.2472L11.8617 18.577C11.6779 18.7608 11.678 19.0587 11.8617 19.2425C11.9536 19.3344 12.074 19.3803 12.1945 19.3803C12.3149 19.3803 12.4354 19.3344 12.5272 19.2425L13.857 17.9127C14.0408 17.7289 14.0408 17.4309 13.857 17.2472Z" fill="#717171"/>
<path d="M9.34422 16.0066C9.60492 16.0066 9.81625 15.7952 9.81625 15.5345C9.81625 15.2738 9.60492 15.0625 9.34422 15.0625C9.08353 15.0625 8.87219 15.2738 8.87219 15.5345C8.87219 15.7952 9.08353 16.0066 9.34422 16.0066Z" fill="#717171"/>
<path d="M9.26237 7.9427C9.67477 7.76369 9.92377 7.3435 9.92377 6.70544C9.92377 5.6005 9.16899 5.33594 8.35974 5.33594H6.85796C6.6323 5.33594 6.41443 5.44488 6.41443 5.65497V10.7128C6.41443 10.8762 6.58562 11.0241 6.85796 11.0241H8.50759C9.38687 11.0241 10.0638 10.5883 10.0638 9.37445V9.21105C10.0638 8.43288 9.73702 8.12945 9.26237 7.9427ZM7.41821 6.223H8.28193C8.67877 6.223 8.91221 6.47195 8.91221 6.87663C8.91221 7.27342 8.7099 7.54577 8.28971 7.54577H7.41821V6.223ZM9.05232 9.28881C9.05232 9.88019 8.77219 10.137 8.29754 10.137H7.41826V8.3395H8.29754C8.77219 8.3395 9.05232 8.55737 9.05232 9.16431V9.28881Z" fill="#717171"/>
<path d="M13.9934 5.33594C13.7366 5.33594 13.4876 5.42931 13.4876 5.64719V9.28881C13.4876 9.89575 13.1686 10.1837 12.6317 10.1837C12.0948 10.1837 11.7757 9.89575 11.7757 9.28881V5.64719C11.7757 5.42927 11.5189 5.33594 11.2699 5.33594C11.0132 5.33594 10.7642 5.42931 10.7642 5.64719V9.28881C10.7642 10.5883 11.5812 11.0708 12.6317 11.0708C13.6743 11.0708 14.4992 10.5883 14.4992 9.28881V5.64719C14.4992 5.42927 14.2424 5.33594 13.9934 5.33594Z" fill="#717171"/>
<path d="M18.6699 5.33594C18.5065 5.33594 18.4364 5.40597 18.3664 5.5382L17.1759 7.78703L15.9931 5.5382C15.9231 5.39819 15.8453 5.33594 15.6819 5.33594C15.4095 5.33594 15.0127 5.50708 15.0127 5.75613C15.0127 5.77947 15.0205 5.81837 15.036 5.85728L16.6468 8.64297C16.6623 8.66631 16.6701 8.70522 16.6701 8.74412V10.705C16.6701 10.9151 16.9269 11.0241 17.1759 11.0241C17.4327 11.0241 17.6817 10.9151 17.6817 10.705V8.74412C17.6817 8.70522 17.6972 8.66631 17.7128 8.64297L19.3157 5.85728C19.3391 5.81837 19.3391 5.77947 19.3391 5.75613C19.3391 5.50708 18.9422 5.33594 18.6699 5.33594Z" fill="#717171"/>
<path d="M24.1267 18.3627L24.2901 17.9213L24.1963 17.8866L24.033 18.328L24.1267 18.3627ZM24.9996 18.2862L24.8996 18.2894L24.8996 18.2894L24.9996 18.2862ZM24.4069 17.4628L24.4417 17.369L24.4417 17.369L24.4069 17.4628ZM16.6234 14.5751L16.6582 14.4814L16.6582 14.4813L16.6234 14.5751ZM15.1244 14.9025L15.1951 14.9732L15.1951 14.9732L15.1244 14.9025ZM14.7967 16.4013L14.8905 16.3666L14.8905 16.3666L14.7967 16.4013ZM17.677 24.172L17.5832 24.2068L17.5832 24.2068L17.677 24.172ZM18.5045 24.7651L18.5077 24.6651L18.5073 24.6651L18.5045 24.7651ZM19.3637 24.2191L19.272 24.1792L19.272 24.1792L19.3637 24.2191ZM20.1604 22.39L20.2312 22.3193L20.1274 22.2155L20.0688 22.3501L20.1604 22.39ZM21.8878 24.1179L21.8171 24.1886L21.8171 24.1886L21.8878 24.1179ZM23.6713 24.1182L23.742 24.1889L23.742 24.1889L23.6713 24.1182ZM24.3377 23.452L24.4084 23.5227L24.4084 23.5227L24.3377 23.452ZM24.7072 22.5602L24.6072 22.5602L24.7072 22.5602ZM24.3379 21.6684L24.4087 21.5977L24.4087 21.5977L24.3379 21.6684ZM22.6324 19.9625L22.5916 19.8712L22.4589 19.9304L22.5617 20.0332L22.6324 19.9625ZM24.4613 19.1461L24.502 19.2374L24.502 19.2374L24.4613 19.1461ZM21.6243 19.3818L21.665 19.4731L21.665 19.4731L21.6243 19.3818ZM21.3533 19.7259L21.255 19.7077L21.255 19.7078L21.3533 19.7259ZM21.4833 20.1442L21.4125 20.2149L21.4125 20.2149L21.4833 20.1442ZM23.6723 22.3339L23.743 22.2632L23.743 22.2632L23.6723 22.3339ZM23.6723 22.7864L23.6016 22.7157L23.6016 22.7157L23.6723 22.7864ZM23.006 23.4526L22.9352 23.3819L22.9352 23.3819L23.006 23.4526ZM22.5534 23.4525L22.6242 23.3818L22.6241 23.3818L22.5534 23.4525ZM20.3377 21.2361L20.267 21.3068L20.267 21.3068L20.3377 21.2361ZM19.9173 21.1065L19.8987 21.0082L19.8987 21.0082L19.9173 21.1065ZM19.5734 21.3809L19.6651 21.4209L19.6651 21.4209L19.5734 21.3809ZM18.5322 23.7713L18.4385 23.806L18.5248 24.0388L18.6239 23.8112L18.5322 23.7713ZM15.6792 16.0743L15.5854 16.109L15.5854 16.109L15.6792 16.0743ZM15.7899 15.5681L15.7192 15.4974L15.7192 15.4974L15.7899 15.5681ZM16.2961 15.4576L16.2613 15.5513L16.2613 15.5513L16.2961 15.4576ZM24.0069 18.3182L24.0476 18.4095L24.2713 18.3097L24.0417 18.2245L24.0069 18.3182ZM24.0799 18.3454L24.0091 18.4161L24.0258 18.4328L24.0482 18.4402L24.0799 18.3454ZM14.4028 13.5145L14.3321 13.5852L14.3321 13.5852L14.4028 13.5145ZM13.073 12.1847L13.1438 12.1139L13.1437 12.1139L13.073 12.1847ZM12.4075 12.1847L12.3368 12.1139L12.3368 12.1139L12.4075 12.1847ZM12.4075 12.8502L12.3367 12.9209L12.3367 12.9209L12.4075 12.8502ZM13.7373 14.18L13.6665 14.2507L13.6666 14.2508L13.7373 14.18ZM14.4028 14.18L14.3321 14.1093L14.4028 14.18ZM19.7494 11.3565L19.8201 11.2858L19.8201 11.2858L19.7494 11.3565ZM19.0839 11.3565L19.0132 11.2858L19.0131 11.2858L19.0839 11.3565ZM17.7541 12.6863L17.8248 12.7571L17.8248 12.7571L17.7541 12.6863ZM17.754 13.3519L17.6833 13.4226L17.6833 13.4226L17.754 13.3519ZM18.4196 13.3519L18.4903 13.4226L18.4903 13.4226L18.4196 13.3519ZM19.7494 12.0221L19.6787 11.9514L19.6787 11.9514L19.7494 12.0221ZM13.857 17.2472L13.9278 17.1765L13.9277 17.1764L13.857 17.2472ZM13.1915 17.2472L13.1208 17.1764L13.1208 17.1764L13.1915 17.2472ZM11.8617 18.577L11.9324 18.6477L11.9324 18.6477L11.8617 18.577ZM11.8617 19.2425L11.791 19.3132L11.791 19.3132L11.8617 19.2425ZM12.5272 19.2425L12.5979 19.3132L12.5979 19.3132L12.5272 19.2425ZM13.857 17.9127L13.7863 17.842L13.7863 17.842L13.857 17.9127ZM9.26237 7.9427L9.22255 7.85097L9.00077 7.94724L9.22575 8.03576L9.26237 7.9427ZM10.0638 9.21105H10.1638H10.0638ZM7.41821 6.223V6.123H7.31821V6.223H7.41821ZM7.41821 7.54577H7.31821V7.64577H7.41821V7.54577ZM7.41826 10.137H7.31826V10.237H7.41826V10.137ZM7.41826 8.3395V8.2395H7.31826V8.3395H7.41826ZM18.3664 5.5382L18.278 5.4914L18.278 5.49142L18.3664 5.5382ZM17.1759 7.78703L17.0874 7.83358L17.1756 8.00131L17.2643 7.83382L17.1759 7.78703ZM15.9931 5.5382L15.9037 5.58295L15.9046 5.58475L15.9931 5.5382ZM15.036 5.85728L14.9432 5.89442L14.9459 5.9011L14.9495 5.90734L15.036 5.85728ZM16.6468 8.64297L16.56 8.69313L16.5636 8.69844L16.6468 8.64297ZM17.7128 8.64297L17.7962 8.69856L17.7995 8.69284L17.7128 8.64297ZM19.3157 5.85728L19.23 5.80582L19.2291 5.80741L19.3157 5.85728ZM22.8887 0.9H2.86483V1.1H22.8887V0.9ZM2.86483 0.9C1.78135 0.9 0.9 1.7813 0.9 2.86478H1.1C1.1 1.89176 1.8918 1.1 2.86483 1.1V0.9ZM0.9 2.86478V14.1387H1.1V2.86478H0.9ZM0.9 14.1387C0.9 15.2222 1.78135 16.1035 2.86483 16.1035V15.9035C1.8918 15.9035 1.1 15.1118 1.1 14.1387H0.9ZM2.86483 16.1035H7.47719V15.9035H2.86483V16.1035ZM7.47719 16.1035C7.79234 16.1035 8.04777 15.848 8.04777 15.5329H7.84777C7.84777 15.7376 7.68187 15.9035 7.47719 15.9035V16.1035ZM8.04777 15.5329C8.04777 15.2178 7.79228 14.9624 7.47714 14.9624V15.1624C7.68184 15.1624 7.84777 15.3283 7.84777 15.5329H8.04777ZM7.47714 14.9624H2.86483V15.1624H7.47714V14.9624ZM2.86483 14.9624C2.41076 14.9624 2.0412 14.5928 2.0412 14.1387H1.8412C1.8412 14.7033 2.3003 15.1624 2.86483 15.1624V14.9624ZM2.0412 14.1387V2.86478H1.8412V14.1387H2.0412ZM2.0412 2.86478C2.0412 2.41071 2.41076 2.04116 2.86483 2.04116V1.84116C2.3003 1.84116 1.8412 2.30026 1.8412 2.86478H2.0412ZM2.86483 2.04116H22.8887V1.84116H2.86483V2.04116ZM22.8887 2.04116C23.3428 2.04116 23.7123 2.41071 23.7123 2.86478H23.9123C23.9123 2.30026 23.4532 1.84116 22.8887 1.84116V2.04116ZM23.7123 2.86478V14.1387H23.9123V2.86478H23.7123ZM23.7123 14.1387C23.7123 14.5928 23.3428 14.9624 22.8887 14.9624V15.1624C23.4532 15.1624 23.9123 14.7033 23.9123 14.1387H23.7123ZM22.8887 14.9624H21.4755V15.1624H22.8887V14.9624ZM21.4755 14.9624C21.1604 14.9624 20.9049 15.2178 20.9049 15.5329H21.1049C21.1049 15.3283 21.2708 15.1624 21.4755 15.1624V14.9624ZM20.9049 15.5329C20.9049 15.848 21.1604 16.1035 21.4755 16.1035V15.9035C21.2709 15.9035 21.1049 15.7376 21.1049 15.5329H20.9049ZM21.4755 16.1035H22.8887V15.9035H21.4755V16.1035ZM22.8887 16.1035C23.9722 16.1035 24.8535 15.2222 24.8535 14.1387H24.6535C24.6535 15.1118 23.8617 15.9035 22.8887 15.9035V16.1035ZM24.8535 14.1387V2.86478H24.6535V14.1387H24.8535ZM24.8535 2.86478C24.8535 1.7813 23.9722 0.9 22.8887 0.9V1.1C23.8617 1.1 24.6535 1.89176 24.6535 2.86478H24.8535ZM25.0995 18.283C25.0863 17.8713 24.8278 17.5123 24.4417 17.369L24.3721 17.5565C24.6821 17.6716 24.889 17.959 24.8996 18.2894L25.0995 18.283ZM24.4417 17.369L16.6582 14.4814L16.5886 14.6689L24.3721 17.5565L24.4417 17.369ZM16.6582 14.4813C16.0944 14.2723 15.4789 14.4067 15.0537 14.8318L15.1951 14.9732C15.565 14.6034 16.0982 14.487 16.5886 14.6689L16.6582 14.4813ZM15.0537 14.8318C14.6285 15.2568 14.494 15.8724 14.7029 16.4361L14.8905 16.3666C14.7087 15.8761 14.8252 15.343 15.1951 14.9732L15.0537 14.8318ZM14.7029 16.4361L17.5832 24.2068L17.7708 24.1373L14.8905 16.3666L14.7029 16.4361ZM17.5832 24.2068C17.7271 24.5949 18.0879 24.8535 18.5017 24.865L18.5073 24.6651C18.1751 24.6558 17.8863 24.4489 17.7708 24.1373L17.5832 24.2068ZM18.5013 24.865C18.5114 24.8653 18.5211 24.8654 18.5305 24.8654V24.6654C18.5226 24.6654 18.5151 24.6654 18.5077 24.6651L18.5013 24.865ZM18.5305 24.8654C18.9328 24.8654 19.294 24.6297 19.4554 24.259L19.272 24.1792C19.1424 24.4768 18.8533 24.6654 18.5305 24.6654V24.8654ZM19.4554 24.2591L20.2521 22.4299L20.0688 22.3501L19.272 24.1792L19.4554 24.2591ZM20.0897 22.4607L21.8171 24.1886L21.9585 24.0472L20.2312 22.3193L20.0897 22.4607ZM21.8171 24.1886C22.3477 24.7194 23.2112 24.7196 23.742 24.1889L23.6006 24.0474C23.1479 24.5 22.4111 24.4999 21.9585 24.0472L21.8171 24.1886ZM23.742 24.1889L24.4084 23.5227L24.267 23.3812L23.6006 24.0474L23.742 24.1889ZM24.4084 23.5227C24.6653 23.2658 24.8071 22.9236 24.8072 22.5602L24.6072 22.5602C24.6071 22.8706 24.4864 23.1618 24.267 23.3812L24.4084 23.5227ZM24.8072 22.5602C24.8072 22.1969 24.6655 21.8547 24.4087 21.5977L24.2672 21.7391C24.4866 21.9586 24.6072 22.2499 24.6072 22.5602L24.8072 22.5602ZM24.4087 21.5977L22.7031 19.8918L22.5617 20.0332L24.2672 21.7391L24.4087 21.5977ZM22.6732 20.0538L24.502 19.2374L24.4205 19.0548L22.5916 19.8712L22.6732 20.0538ZM24.502 19.2374C24.8781 19.0695 25.1129 18.6946 25.0995 18.283L24.8996 18.2894C24.9103 18.6198 24.7224 18.92 24.4205 19.0548L24.502 19.2374ZM21.5835 19.2904C21.412 19.367 21.2891 19.5231 21.255 19.7077L21.4517 19.7441C21.4738 19.6242 21.5536 19.5228 21.665 19.4731L21.5835 19.2904ZM21.255 19.7078C21.2209 19.8924 21.2798 20.082 21.4125 20.2149L21.554 20.0735C21.4678 19.9872 21.4295 19.864 21.4517 19.7441L21.255 19.7078ZM21.4125 20.2149L23.6016 22.4046L23.743 22.2632L21.554 20.0735L21.4125 20.2149ZM23.6016 22.4046C23.6873 22.4903 23.6873 22.63 23.6016 22.7157L23.743 22.8571C23.9068 22.6933 23.9068 22.427 23.743 22.2632L23.6016 22.4046ZM23.6016 22.7157L22.9352 23.3819L23.0767 23.5233L23.743 22.8571L23.6016 22.7157ZM22.9352 23.3819C22.8936 23.4235 22.8387 23.4462 22.7797 23.4462V23.6462C22.8917 23.6462 22.9975 23.6025 23.0767 23.5233L22.9352 23.3819ZM22.7797 23.4462C22.7207 23.4462 22.6658 23.4235 22.6242 23.3818L22.4827 23.5232C22.5619 23.6024 22.6677 23.6462 22.7797 23.6462V23.4462ZM22.6241 23.3818L20.4084 21.1654L20.267 21.3068L22.4827 23.5232L22.6241 23.3818ZM20.4084 21.1654C20.2749 21.0319 20.0841 20.9733 19.8987 21.0082L19.9358 21.2048C20.0564 21.182 20.1803 21.2202 20.267 21.3068L20.4084 21.1654ZM19.8987 21.0082C19.7132 21.0434 19.5571 21.1679 19.4818 21.341L19.6651 21.4209C19.7141 21.3085 19.8154 21.2275 19.9359 21.2047L19.8987 21.0082ZM19.4818 21.341L18.4406 23.7313L18.6239 23.8112L19.6651 21.4209L19.4818 21.341ZM18.626 23.7365L15.773 16.0395L15.5854 16.109L18.4385 23.806L18.626 23.7365ZM15.773 16.0395C15.6948 15.8286 15.8177 15.6817 15.8606 15.6388L15.7192 15.4974C15.6599 15.5566 15.4651 15.7844 15.5854 16.109L15.773 16.0395ZM15.8605 15.6389C15.8929 15.6066 15.9888 15.5256 16.1249 15.5256V15.3256C15.9099 15.3256 15.7655 15.4511 15.7192 15.4974L15.8605 15.6389ZM16.1249 15.5256C16.1653 15.5256 16.2109 15.5326 16.2613 15.5513L16.3309 15.3638C16.2584 15.3369 16.1893 15.3256 16.1249 15.3256V15.5256ZM16.2613 15.5513L23.9721 18.412L24.0417 18.2245L16.3309 15.3638L16.2613 15.5513ZM23.9661 18.2269L21.5835 19.2904L21.665 19.4731L24.0476 18.4095L23.9661 18.2269ZM24.1506 18.2746C24.1519 18.276 24.154 18.2782 24.1564 18.2811C24.1584 18.2834 24.1631 18.2892 24.1677 18.2976C24.17 18.3018 24.1737 18.3092 24.1763 18.3191C24.1789 18.3285 24.1821 18.3458 24.1775 18.3669C24.175 18.3779 24.1705 18.3895 24.1633 18.4005C24.156 18.4115 24.147 18.4203 24.1375 18.427C24.1191 18.44 24.1011 18.4436 24.0909 18.4447C24.0802 18.4459 24.0716 18.4451 24.0666 18.4444C24.0612 18.4437 24.0567 18.4427 24.0537 18.4419C24.0479 18.4403 24.0433 18.4385 24.0408 18.4374C24.0355 18.4351 24.0313 18.4328 24.0284 18.4311C24.0256 18.4294 24.0212 18.4266 24.0163 18.4225C24.014 18.4206 24.0093 18.4166 24.0041 18.4106C24.0015 18.4076 23.9975 18.4026 23.9935 18.3957C23.9899 18.3895 23.9834 18.3769 23.9809 18.3595C23.9796 18.3503 23.9793 18.3389 23.9817 18.3263C23.9843 18.3134 23.9894 18.3006 23.9973 18.289C24.0131 18.2658 24.0341 18.2554 24.047 18.2509C24.0598 18.2465 24.0706 18.2456 24.0764 18.2454C24.0827 18.2452 24.0879 18.2456 24.0912 18.246C24.0977 18.2467 24.1027 18.248 24.105 18.2486C24.1078 18.2493 24.11 18.25 24.1115 18.2505L24.0482 18.4402C24.0497 18.4407 24.0519 18.4414 24.0547 18.4421C24.0571 18.4428 24.0621 18.444 24.0686 18.4447C24.0719 18.4451 24.077 18.4455 24.0834 18.4453C24.0892 18.4451 24.1 18.4443 24.1128 18.4398C24.1257 18.4353 24.1467 18.4249 24.1625 18.4017C24.1704 18.3901 24.1756 18.3774 24.1781 18.3644C24.1805 18.3518 24.1802 18.3404 24.1789 18.3312C24.1764 18.3138 24.1699 18.3013 24.1663 18.295C24.1623 18.2881 24.1583 18.2831 24.1557 18.2801C24.1505 18.2741 24.1458 18.2701 24.1435 18.2682C24.1385 18.2641 24.1341 18.2613 24.1313 18.2596C24.1284 18.2578 24.1242 18.2555 24.1189 18.2533C24.1164 18.2522 24.1118 18.2504 24.1059 18.2488C24.1029 18.248 24.0985 18.2469 24.0931 18.2462C24.0881 18.2455 24.0794 18.2448 24.0688 18.2459C24.0586 18.2471 24.0405 18.2507 24.0222 18.2636C24.0127 18.2703 24.0037 18.2791 23.9964 18.2902C23.9891 18.3012 23.9846 18.3127 23.9822 18.3237C23.9775 18.3448 23.9808 18.3622 23.9833 18.3716C23.986 18.3814 23.9897 18.3888 23.992 18.3931C23.9965 18.4015 24.0013 18.4073 24.0032 18.4096C24.0057 18.4125 24.0078 18.4147 24.0091 18.4161L24.1506 18.2746ZM14.4735 13.4438L13.1438 12.1139L13.0023 12.2554L14.3321 13.5852L14.4735 13.4438ZM13.1437 12.1139C12.9209 11.8912 12.5597 11.8912 12.3368 12.1139L12.4782 12.2554C12.6229 12.1107 12.8576 12.1107 13.0023 12.2554L13.1437 12.1139ZM12.3368 12.1139C12.1139 12.3368 12.1139 12.698 12.3367 12.9209L12.4782 12.7795C12.3335 12.6347 12.3335 12.4001 12.4782 12.2554L12.3368 12.1139ZM12.3367 12.9209L13.6665 14.2507L13.808 14.1093L12.4782 12.7795L12.3367 12.9209ZM13.6666 14.2508C13.778 14.3621 13.9241 14.4178 14.07 14.4178V14.2178C13.975 14.2178 13.8804 14.1817 13.8079 14.1093L13.6666 14.2508ZM14.07 14.4178C14.2159 14.4178 14.3621 14.3621 14.4735 14.2507L14.3321 14.1093C14.2597 14.1817 14.165 14.2178 14.07 14.2178V14.4178ZM14.4735 14.2507C14.6963 14.0279 14.6963 13.6666 14.4735 13.4438L14.3321 13.5852C14.4768 13.73 14.4768 13.9646 14.3321 14.1093L14.4735 14.2507ZM13.0983 14.9625H11.2176V15.1625H13.0983V14.9625ZM11.2176 14.9625C10.9025 14.9625 10.6471 15.218 10.6471 15.5331H10.8471C10.8471 15.3284 11.013 15.1625 11.2176 15.1625V14.9625ZM10.6471 15.5331C10.6471 15.8482 10.9025 16.1037 11.2176 16.1037V15.9037C11.013 15.9037 10.8471 15.7377 10.8471 15.5331H10.6471ZM11.2176 16.1037H13.0983V15.9037H11.2176V16.1037ZM13.0983 16.1037C13.4134 16.1037 13.6689 15.8482 13.6689 15.5331H13.4689C13.4689 15.7377 13.3029 15.9037 13.0983 15.9037V16.1037ZM13.6689 15.5331C13.6689 15.218 13.4134 14.9625 13.0983 14.9625V15.1625C13.3029 15.1625 13.4689 15.3284 13.4689 15.5331H13.6689ZM15.7986 10.3844C15.4835 10.3844 15.228 10.6398 15.228 10.955H15.428C15.428 10.7503 15.5939 10.5844 15.7986 10.5844V10.3844ZM15.228 10.955V12.8356H15.428V10.955H15.228ZM15.228 12.8356C15.228 13.1507 15.4835 13.4062 15.7986 13.4062V13.2062C15.5939 13.2062 15.428 13.0402 15.428 12.8356H15.228ZM15.7986 13.4062C16.1137 13.4062 16.3692 13.1507 16.3692 12.8356H16.1692C16.1692 13.0402 16.0032 13.2062 15.7986 13.2062V13.4062ZM16.3692 12.8356V10.955H16.1692V12.8356H16.3692ZM16.3692 10.955C16.3692 10.6398 16.1137 10.3844 15.7986 10.3844V10.5844C16.0032 10.5844 16.1692 10.7503 16.1692 10.955H16.3692ZM19.8201 11.2858C19.5973 11.0631 19.236 11.063 19.0132 11.2858L19.1546 11.4273C19.2993 11.2826 19.5339 11.2826 19.6787 11.4273L19.8201 11.2858ZM19.0131 11.2858L17.6834 12.6156L17.8248 12.7571L19.1546 11.4273L19.0131 11.2858ZM17.6834 12.6156C17.4605 12.8385 17.4605 13.1997 17.6833 13.4226L17.8247 13.2812C17.68 13.1364 17.68 12.9018 17.8248 12.7571L17.6834 12.6156ZM17.6833 13.4226C17.7947 13.534 17.9409 13.5897 18.0868 13.5897V13.3897C17.9918 13.3897 17.8971 13.3535 17.8247 13.2811L17.6833 13.4226ZM18.0868 13.5897C18.2327 13.5897 18.3789 13.534 18.4903 13.4226L18.3489 13.2812C18.2765 13.3535 18.1818 13.3897 18.0868 13.3897V13.5897ZM18.4903 13.4226L19.8201 12.0928L19.6787 11.9514L18.3489 13.2812L18.4903 13.4226ZM19.8201 12.0928C20.043 11.8699 20.043 11.5087 19.8201 11.2858L19.6787 11.4273C19.8234 11.572 19.8234 11.8066 19.6787 11.9514L19.8201 12.0928ZM13.9277 17.1764C13.7049 16.9537 13.3436 16.9537 13.1208 17.1764L13.2622 17.3179C13.4069 17.1732 13.6416 17.1732 13.7863 17.3179L13.9277 17.1764ZM13.1208 17.1764L11.791 18.5063L11.9324 18.6477L13.2622 17.3179L13.1208 17.1764ZM11.791 18.5063C11.5681 18.7291 11.5682 19.0904 11.791 19.3132L11.9324 19.1718C11.7877 19.0271 11.7877 18.7924 11.9324 18.6477L11.791 18.5063ZM11.791 19.3132C11.9024 19.4246 12.0486 19.4803 12.1945 19.4803V19.2803C12.0994 19.2803 12.0048 19.2442 11.9324 19.1718L11.791 19.3132ZM12.1945 19.4803C12.3404 19.4803 12.4866 19.4246 12.5979 19.3132L12.4565 19.1718C12.3842 19.2442 12.2895 19.2803 12.1945 19.2803V19.4803ZM12.5979 19.3132L13.9277 17.9834L13.7863 17.842L12.4565 19.1718L12.5979 19.3132ZM13.9277 17.9834C14.1506 17.7605 14.1505 17.3993 13.9278 17.1765L13.7863 17.3179C13.931 17.4626 13.9311 17.6972 13.7863 17.842L13.9277 17.9834ZM9.71625 15.5345C9.71625 15.74 9.54969 15.9066 9.34422 15.9066V16.1066C9.66015 16.1066 9.91625 15.8505 9.91625 15.5345H9.71625ZM9.34422 15.9066C9.13876 15.9066 8.97219 15.74 8.97219 15.5345H8.77219C8.77219 15.8505 9.0283 16.1066 9.34422 16.1066V15.9066ZM8.97219 15.5345C8.97219 15.3291 9.13876 15.1625 9.34422 15.1625V14.9625C9.0283 14.9625 8.77219 15.2186 8.77219 15.5345H8.97219ZM9.34422 15.1625C9.54969 15.1625 9.71625 15.3291 9.71625 15.5345H9.91625C9.91625 15.2186 9.66015 14.9625 9.34422 14.9625V15.1625ZM9.30218 8.03443C9.7619 7.83488 10.0238 7.37011 10.0238 6.70544H9.82377C9.82377 7.31689 9.58765 7.69249 9.22255 7.85097L9.30218 8.03443ZM10.0238 6.70544C10.0238 6.12749 9.82454 5.7513 9.50283 5.52459C9.1879 5.30266 8.7719 5.23594 8.35974 5.23594V5.43594C8.75683 5.43594 9.12285 5.5015 9.38762 5.68808C9.64561 5.86988 9.82377 6.17845 9.82377 6.70544H10.0238ZM8.35974 5.23594H6.85796V5.43594H8.35974V5.23594ZM6.85796 5.23594C6.73085 5.23594 6.59984 5.26633 6.49725 5.33271C6.39192 5.40086 6.31443 5.5096 6.31443 5.65497H6.51443C6.51443 5.59025 6.54587 5.53946 6.6059 5.50062C6.66865 5.46002 6.75942 5.43594 6.85796 5.43594V5.23594ZM6.31443 5.65497V10.7128H6.51443V5.65497H6.31443ZM6.31443 10.7128C6.31443 10.9566 6.55937 11.1241 6.85796 11.1241V10.9241C6.61186 10.9241 6.51443 10.7959 6.51443 10.7128H6.31443ZM6.85796 11.1241H8.50759V10.9241H6.85796V11.1241ZM8.50759 11.1241C8.96229 11.1241 9.37967 11.0114 9.68369 10.7276C9.98902 10.4424 10.1638 9.9998 10.1638 9.37445H9.96384C9.96384 9.96298 9.80017 10.3451 9.54719 10.5814C9.2929 10.8188 8.93216 10.9241 8.50759 10.9241V11.1241ZM10.1638 9.37445V9.21105H9.96384V9.37445H10.1638ZM10.1638 9.21105C10.1638 8.80815 10.0791 8.51523 9.92233 8.29678C9.76572 8.07861 9.54569 7.94671 9.29898 7.84965L9.22575 8.03576C9.4537 8.12544 9.6344 8.23864 9.75986 8.41341C9.88512 8.58789 9.96384 8.83577 9.96384 9.21105H10.1638ZM7.41821 6.323H8.28193V6.123H7.41821V6.323ZM8.28193 6.323C8.45897 6.323 8.58826 6.37799 8.67364 6.4672C8.75957 6.557 8.81221 6.69322 8.81221 6.87663H9.01221C9.01221 6.65536 8.94813 6.46477 8.81813 6.32892C8.68758 6.19249 8.50173 6.123 8.28193 6.123V6.323ZM8.81221 6.87663C8.81221 7.05927 8.76561 7.20016 8.68331 7.2941C8.60285 7.38594 8.47703 7.44577 8.28971 7.44577V7.64577C8.52258 7.64577 8.70801 7.56941 8.83375 7.42589C8.95765 7.28446 9.01221 7.09078 9.01221 6.87663H8.81221ZM8.28971 7.44577H7.41821V7.64577H8.28971V7.44577ZM7.51821 7.54577V6.223H7.31821V7.54577H7.51821ZM8.95232 9.28881C8.95232 9.57037 8.88554 9.75357 8.77994 9.86632C8.67546 9.97788 8.51737 10.037 8.29754 10.037V10.237C8.55236 10.237 8.77167 10.1677 8.92591 10.003C9.07904 9.83953 9.15232 9.59863 9.15232 9.28881H8.95232ZM8.29754 10.037H7.41826V10.237H8.29754V10.037ZM7.51826 10.137V8.3395H7.31826V10.137H7.51826ZM7.41826 8.4395H8.29754V8.2395H7.41826V8.4395ZM8.29754 8.4395C8.52146 8.4395 8.67899 8.49102 8.78195 8.59475C8.88518 8.69876 8.95232 8.87415 8.95232 9.16431H9.15232C9.15232 8.84754 9.07939 8.61052 8.9239 8.45386C8.76813 8.29692 8.54827 8.2395 8.29754 8.2395V8.4395ZM8.95232 9.16431V9.28881H9.15232V9.16431H8.95232ZM13.9934 5.23594C13.8551 5.23594 13.7107 5.26073 13.5969 5.32172C13.4799 5.38447 13.3876 5.49149 13.3876 5.64719H13.5876C13.5876 5.58501 13.6198 5.5364 13.6914 5.49799C13.7664 5.45783 13.8748 5.43594 13.9934 5.43594V5.23594ZM13.3876 5.64719V9.28881H13.5876V5.64719H13.3876ZM13.3876 9.28881C13.3876 9.57556 13.3124 9.77016 13.19 9.89336C13.0677 10.0165 12.883 10.0837 12.6317 10.0837V10.2837C12.9173 10.2837 13.1605 10.2069 13.3319 10.0343C13.5033 9.86183 13.5876 9.609 13.5876 9.28881H13.3876ZM12.6317 10.0837C12.3804 10.0837 12.1956 10.0165 12.0733 9.89336C11.9509 9.77016 11.8757 9.57556 11.8757 9.28881H11.6757C11.6757 9.609 11.7601 9.86183 11.9314 10.0343C12.1028 10.2069 12.3461 10.2837 12.6317 10.2837V10.0837ZM11.8757 9.28881V5.64719H11.6757V9.28881H11.8757ZM11.8757 5.64719C11.8757 5.49018 11.78 5.38355 11.6631 5.3215C11.5488 5.26085 11.4047 5.23594 11.2699 5.23594V5.43594C11.3842 5.43594 11.493 5.45769 11.5693 5.49818C11.643 5.53728 11.6757 5.58627 11.6757 5.64719H11.8757ZM11.2699 5.23594C11.1317 5.23594 10.9873 5.26073 10.8735 5.32172C10.7565 5.38447 10.6642 5.49149 10.6642 5.64719H10.8642C10.8642 5.58501 10.8964 5.5364 10.968 5.49799C11.0429 5.45783 11.1514 5.43594 11.2699 5.43594V5.23594ZM10.6642 5.64719V9.28881H10.8642V5.64719H10.6642ZM10.6642 9.28881C10.6642 9.96065 10.8763 10.4372 11.2395 10.7435C11.5996 11.0473 12.0931 11.1708 12.6317 11.1708V10.9708C12.1198 10.9708 11.6795 10.853 11.3685 10.5907C11.0605 10.3309 10.8642 9.91644 10.8642 9.28881H10.6642ZM12.6317 11.1708C13.1665 11.1708 13.6598 11.0472 14.0208 10.7436C14.3848 10.4374 14.5992 9.96095 14.5992 9.28881H14.3992C14.3992 9.91614 14.2011 10.3307 13.8921 10.5906C13.58 10.8531 13.1395 10.9708 12.6317 10.9708V11.1708ZM14.5992 9.28881V5.64719H14.3992V9.28881H14.5992ZM14.5992 5.64719C14.5992 5.49018 14.5035 5.38355 14.3865 5.3215C14.2722 5.26085 14.1281 5.23594 13.9934 5.23594V5.43594C14.1076 5.43594 14.2165 5.45769 14.2928 5.49818C14.3665 5.53728 14.3992 5.58627 14.3992 5.64719H14.5992ZM18.6699 5.23594C18.573 5.23594 18.4923 5.25704 18.4242 5.30668C18.3589 5.35433 18.3152 5.42129 18.278 5.4914L18.4548 5.585C18.4877 5.52289 18.514 5.4887 18.542 5.46829C18.5673 5.44985 18.6033 5.43594 18.6699 5.43594V5.23594ZM18.278 5.49142L17.0875 7.74024L17.2643 7.83382L18.4548 5.58499L18.278 5.49142ZM17.2644 7.74048L16.0816 5.49165L15.9046 5.58475L17.0874 7.83358L17.2644 7.74048ZM16.0826 5.49347C16.0441 5.41665 15.9977 5.34874 15.9287 5.30187C15.8584 5.25405 15.7764 5.23594 15.6819 5.23594V5.43594C15.7508 5.43594 15.7894 5.44895 15.8163 5.46726C15.8446 5.48652 15.8721 5.51974 15.9037 5.58294L16.0826 5.49347ZM15.6819 5.23594C15.5281 5.23594 15.3441 5.28337 15.1967 5.36519C15.0544 5.44411 14.9127 5.57512 14.9127 5.75613H15.1127C15.1127 5.68809 15.1694 5.609 15.2937 5.54009C15.4127 5.47407 15.5634 5.43594 15.6819 5.43594V5.23594ZM14.9127 5.75613C14.9127 5.79576 14.9244 5.84755 14.9432 5.89442L15.1289 5.82014C15.1232 5.80584 15.1189 5.79156 15.1161 5.77918C15.1132 5.76609 15.1127 5.75818 15.1127 5.75613H14.9127ZM14.9495 5.90734L16.5602 8.69302L16.7333 8.59291L15.1226 5.80723L14.9495 5.90734ZM16.5636 8.69844C16.5622 8.69635 16.5643 8.69904 16.5666 8.7094C16.5688 8.71889 16.5701 8.73098 16.5701 8.74412H16.7701C16.7701 8.69727 16.7616 8.63491 16.73 8.5875L16.5636 8.69844ZM16.5701 8.74412V10.705H16.7701V8.74412H16.5701ZM16.5701 10.705C16.5701 10.8582 16.6658 10.9661 16.7807 11.0305C16.8945 11.0944 17.0388 11.1241 17.1759 11.1241V10.9241C17.064 10.9241 16.9554 10.8993 16.8786 10.8561C16.8028 10.8136 16.7701 10.762 16.7701 10.705H16.5701ZM17.1759 11.1241C17.3165 11.1241 17.4611 11.0946 17.5744 11.0303C17.6893 10.9651 17.7817 10.8569 17.7817 10.705H17.5817C17.5817 10.7632 17.5495 10.8145 17.4757 10.8563C17.4003 10.8991 17.2921 10.9241 17.1759 10.9241V11.1241ZM17.7817 10.705V8.74412H17.5817V10.705H17.7817ZM17.7817 8.74412C17.7817 8.73756 17.7831 8.7289 17.7863 8.71933C17.7895 8.70971 17.7935 8.70225 17.796 8.69844L17.6296 8.5875C17.6053 8.62391 17.5817 8.68179 17.5817 8.74412H17.7817ZM17.7995 8.69284L19.4024 5.90716L19.2291 5.80741L17.6261 8.59309L17.7995 8.69284ZM19.4015 5.90873C19.4402 5.8442 19.4391 5.78033 19.4391 5.75613H19.2391C19.2391 5.77861 19.2379 5.79255 19.23 5.80583L19.4015 5.90873ZM19.4391 5.75613C19.4391 5.57512 19.2974 5.44411 19.1551 5.36519C19.0076 5.28337 18.8237 5.23594 18.6699 5.23594V5.43594C18.7884 5.43594 18.9391 5.47407 19.0581 5.54009C19.1823 5.609 19.2391 5.68809 19.2391 5.75613H19.4391Z" fill="#717171" mask="url(#path-1-outside-1_4244_1092)"/>
</svg>
