<svg width="18" height="20" viewBox="0 0 18 20" xmlns="http://www.w3.org/2000/svg">
    <path d="M16.5 1.538h-2.25V.77A.76.76 0 0 0 13.5 0a.76.76 0 0 0-.75.77v.768h-7.5V.77A.76.76 0 0 0 4.5 0a.76.76 0 0 0-.75.77v.768H1.5C.672 1.54 0 2.228 0 3.077v15.385C0 19.31.672 19.999 1.5 20h15c.828 0 1.5-.69 1.5-1.538V3.077c0-.85-.672-1.538-1.5-1.539zm0 4.616h-15V3.077h2.25v.77c0 .424.336.768.75.768a.76.76 0 0 0 .75-.769v-.77h7.5v.77c0 .425.336.77.75.77a.76.76 0 0 0 .75-.77v-.77h2.25v3.078z" fill="#1F7D9C" fill-rule="nonzero"/>
</svg>
