<svg xmlns="http://www.w3.org/2000/svg" width="16" height="16" viewBox="0 0 16 16">
  <g id="cancel_3_" data-name="cancel (3)" transform="translate(0 -0.005)">
    <g id="Group_2597" data-name="Group 2597" transform="translate(0 0.005)">
      <path id="Path_30105" data-name="Path 30105" d="M13.66,2.345a8,8,0,1,0,0,11.319A8.013,8.013,0,0,0,13.66,2.345ZM11.3,10.363a.667.667,0,1,1-.943.943L8,8.948,5.643,11.306a.667.667,0,1,1-.943-.943L7.057,8,4.7,5.647A.667.667,0,0,1,5.643,4.7L8,7.062,10.358,4.7a.667.667,0,0,1,.943.943L8.943,8Z" transform="translate(0 -0.005)" fill="#dbdbdb"/>
    </g>
  </g>
</svg>
