<svg width="24" height="24" viewBox="0 0 24 24" fill="none" xmlns="http://www.w3.org/2000/svg">
<path d="M20.4848 3.51515C18.2172 1.24747 15.2071 0 12 0C8.79293 0 5.78283 1.24747 3.51515 3.51515C1.24747 5.78283 0 8.79293 0 12C0 15.2071 1.24747 18.2172 3.51515 20.4848C5.78283 22.7525 8.79293 24 12 24C15.2071 24 18.2172 22.7525 20.4848 20.4848C22.7525 18.2172 24 15.2071 24 12C24 8.79293 22.7525 5.78283 20.4848 3.51515ZM19.5202 19.5202C17.5101 21.5303 14.8384 22.6364 12 22.6364C9.16162 22.6364 6.4899 21.5303 4.4798 19.5202C0.333333 15.3737 0.333333 8.62626 4.4798 4.4798C6.4899 2.4697 9.16162 1.36364 12 1.36364C14.8384 1.36364 17.5101 2.4697 19.5202 4.4798C23.6667 8.62626 23.6667 15.3737 19.5202 19.5202Z" fill="#F24646"/>
<path d="M17.288 6.70857C17.0203 6.44089 16.591 6.44089 16.3233 6.70857L12.0001 11.0318L7.67688 6.70857C7.4092 6.44089 6.97991 6.44089 6.71223 6.70857C6.44456 6.97625 6.44456 7.40554 6.71223 7.67322L11.0355 11.9964L6.71223 16.3197C6.44456 16.5874 6.44456 17.0166 6.71223 17.2843C6.84355 17.4156 7.02031 17.4863 7.19203 17.4863C7.36375 17.4863 7.54052 17.4207 7.67183 17.2843L11.9951 12.9611L16.3183 17.2843C16.4496 17.4156 16.6264 17.4863 16.7981 17.4863C16.9749 17.4863 17.1466 17.4207 17.2779 17.2843C17.5456 17.0166 17.5456 16.5874 17.2779 16.3197L12.9648 11.9964L17.288 7.67322C17.5557 7.40554 17.5557 6.97625 17.288 6.70857Z" fill="#F24646"/>
</svg>
