<svg width="14" height="3" viewBox="0 0 14 3" fill="none" xmlns="http://www.w3.org/2000/svg">
<g id="Group 798">
<g id="Group">
<g id="Group_2">
<path id="Vector" d="M1.40001 3C2.17321 3 2.80002 2.32843 2.80002 1.5C2.80002 0.671573 2.17321 0 1.40001 0C0.626806 0 0 0.671573 0 1.5C0 2.32843 0.626806 3 1.40001 3Z" fill="#B6B6B7"/>
</g>
</g>
<g id="Group_3">
<g id="Group_4">
<path id="Vector_2" d="M7.00011 3C7.77331 3 8.40012 2.32843 8.40012 1.5C8.40012 0.671573 7.77331 0 7.00011 0C6.2269 0 5.6001 0.671573 5.6001 1.5C5.6001 2.32843 6.2269 3 7.00011 3Z" fill="#B6B6B7"/>
</g>
</g>
<g id="Group_5">
<g id="Group_6">
<path id="Vector_3" d="M12.6002 3C13.3734 3 14.0002 2.32843 14.0002 1.5C14.0002 0.671573 13.3734 0 12.6002 0C11.827 0 11.2002 0.671573 11.2002 1.5C11.2002 2.32843 11.827 3 12.6002 3Z" fill="#B6B6B7"/>
</g>
</g>
</g>
</svg>
