<svg width="40" height="40" viewBox="0 0 40 40" fill="none" xmlns="http://www.w3.org/2000/svg">
<circle cx="20" cy="20" r="20" fill="#F3F3F3"/>
<g clip-path="url(#clip0_6433_3784)">
<path d="M26.6667 14.9993H23.3334V13.3327C23.3334 12.4077 22.5917 11.666 21.6667 11.666H18.3334C17.4084 11.666 16.6667 12.4077 16.6667 13.3327V14.9993H13.3334C12.4084 14.9993 11.6751 15.741 11.6751 16.666L11.6667 25.8327C11.6667 26.7577 12.4084 27.4993 13.3334 27.4993H26.6667C27.5917 27.4993 28.3334 26.7577 28.3334 25.8327V16.666C28.3334 15.741 27.5917 14.9993 26.6667 14.9993ZM21.6667 14.9993H18.3334V13.3327H21.6667V14.9993Z" fill="#8A8A8A"/>
</g>
<defs>
<clipPath id="clip0_6433_3784">
<rect width="20" height="20" fill="white" transform="translate(10 10)"/>
</clipPath>
</defs>
</svg>
