<svg width="20" height="26" viewBox="0 0 20 26" fill="none" xmlns="http://www.w3.org/2000/svg">
<path d="M6.51997 14.9182L6.51996 14.9182L5.27834 12.7676C4.50921 11.4354 2.79997 10.9774 1.46768 11.7466L1.46767 11.7466C1.20541 11.898 1.01746 12.1429 0.939066 12.4355L0.939061 12.4355C0.860716 12.7281 0.901067 13.0342 1.05251 13.2965L1.05252 13.2965L5.73069 21.3968C7.05036 23.6819 9.5092 25.1013 12.148 25.1013C16.2343 25.1013 19.5586 21.7771 19.5586 17.6908V11.9669C19.5586 10.8849 18.6785 10.0048 17.5965 10.0048C17.2156 10.0048 16.8596 10.1139 16.5583 10.3025C16.2953 9.52872 15.5619 8.97031 14.6999 8.97031C14.2915 8.97031 13.9117 9.09582 13.5973 9.31017C13.2919 8.62324 12.6029 8.14273 11.8034 8.14273C11.4654 8.14273 11.1469 8.2287 10.8689 8.37989V4.93237C10.8689 3.85039 9.98879 2.97031 8.90677 2.97031C7.82479 2.97031 6.94471 3.8504 6.94471 4.93237V14.8043C6.94471 14.8924 6.89289 14.9736 6.81303 15.0108C6.70496 15.061 6.57949 15.0213 6.51997 14.9182ZM1.9816 12.6366L1.98163 12.6365C2.25343 12.4796 2.55457 12.3997 2.85956 12.3997C3.01249 12.3997 3.16663 12.4198 3.3186 12.4605L3.31861 12.4605C3.77341 12.5824 4.1531 12.8737 4.38851 13.2815L4.47511 13.2315L4.38851 13.2815L5.63013 15.432L5.71674 15.382L5.63014 15.432C5.95755 15.999 6.65299 16.2186 7.24658 15.9426L7.24658 15.9426C7.68765 15.7374 7.97242 15.2909 7.97242 14.8044V4.93237C7.97242 4.41718 8.39171 3.99789 8.90691 3.99789C9.4221 3.99789 9.84139 4.41718 9.84139 4.93237V12.5875C9.84139 12.8713 10.0714 13.1013 10.3552 13.1013C10.639 13.1013 10.869 12.8713 10.869 12.5875V10.1048C10.869 9.5896 11.2883 9.17031 11.8035 9.17031C12.3187 9.17031 12.738 9.5896 12.738 10.1048V12.5875C12.738 12.8713 12.968 13.1013 13.2518 13.1013C13.5355 13.1013 13.7656 12.8713 13.7656 12.5875V10.9324C13.7656 10.4172 14.1849 9.99789 14.7001 9.99789C15.2153 9.99789 15.6346 10.4172 15.6346 10.9324V12.7944C15.6346 13.0782 15.8646 13.3082 16.1484 13.3082C16.4321 13.3082 16.6622 13.0782 16.6622 12.7944V11.9669C16.6622 11.4517 17.0815 11.0324 17.5967 11.0324C18.1119 11.0324 18.5312 11.4517 18.5312 11.9669V17.6908C18.5312 21.2103 15.6677 24.0738 12.1481 24.0738C9.87544 24.0738 7.75731 22.851 6.62069 20.8829L1.94247 12.7825L1.94245 12.7825C1.92333 12.7494 1.92734 12.7181 1.93178 12.7015C1.93626 12.6848 1.94848 12.6557 1.9816 12.6366Z" fill="#717171" stroke="#717171" stroke-width="0.2"/>
<path d="M11.4943 6.45725L11.4943 6.45725C11.7664 5.99707 11.9103 5.46927 11.9103 4.93103C11.9103 3.27499 10.5629 1.92758 8.90686 1.92758C7.25082 1.92758 5.90341 3.27499 5.90341 4.93103C5.90341 5.46728 6.0463 5.99326 6.31638 6.45211C6.31638 6.45212 6.31638 6.45212 6.31638 6.45212L11.4943 6.45725ZM11.4943 6.45725C11.3499 6.7015 11.4308 7.0166 11.6751 7.16102M11.4943 6.45725L5.43084 6.97341M5.43084 6.97341L5.43082 6.97338C5.06768 6.35647 4.87583 5.65026 4.87583 4.93103C4.87583 2.70821 6.68404 0.9 8.90686 0.9C11.1297 0.9 12.9379 2.70821 12.9379 4.93103C12.9379 5.653 12.7447 6.36162 12.3789 6.98026C12.2829 7.14257 12.1116 7.23261 11.9362 7.23261C11.8472 7.23261 11.757 7.2095 11.6751 7.16102M5.43084 6.97341C5.57487 7.21794 5.88984 7.29946 6.13428 7.15549L5.43084 6.97341ZM11.6751 7.16102L11.726 7.07495M11.6751 7.16102C11.6751 7.16103 11.6751 7.16103 11.6751 7.16104L11.726 7.07495M11.726 7.07495C11.7921 7.11405 11.8646 7.13261 11.9362 7.13261C12.0777 7.13261 12.2155 7.06 12.2928 6.92936L11.5804 6.50814C11.4641 6.70487 11.5292 6.95866 11.726 7.07495Z" fill="#717171" stroke="#717171" stroke-width="0.2"/>
</svg>
