<svg width="24" height="24" viewBox="0 0 24 24" fill="none" xmlns="http://www.w3.org/2000/svg">
<path d="M23.5315 17.25H23.0627V5.34375C23.0627 4.05141 22.0113 3 20.719 3H3.28149C1.98915 3 0.937744 4.05141 0.937744 5.34375V17.25H0.468994C0.21015 17.25 0.000244141 17.4599 0.000244141 17.7188C0.000244141 19.373 1.34603 20.7188 3.00024 20.7188H9.89087C10.1497 20.7188 10.3596 20.5089 10.3596 20.25C10.3596 19.9911 10.1497 19.7812 9.89087 19.7812H3.00024C2.02417 19.7812 1.20428 19.0997 0.991463 18.1875H9.57442H23.009C22.7962 19.0997 21.9763 19.7812 21.0002 19.7812H14.1096C13.8508 19.7812 13.6409 19.9911 13.6409 20.25C13.6409 20.5089 13.8508 20.7188 14.1096 20.7188H21.0002C22.6545 20.7188 24.0002 19.373 24.0002 17.7188C24.0002 17.4599 23.7903 17.25 23.5315 17.25ZM1.87524 5.34375C1.87524 4.56834 2.50609 3.9375 3.28149 3.9375H20.719C21.4944 3.9375 22.1252 4.56834 22.1252 5.34375V17.25H18.1099L18.3506 17.111C18.4583 17.0489 18.5369 16.9465 18.569 16.8264C18.6012 16.7063 18.5844 16.5783 18.5222 16.4707L17.488 14.6794L18.212 14.4131C18.3857 14.3492 18.5056 14.1891 18.5179 14.0045C18.5303 13.8198 18.4329 13.6452 18.2692 13.5587L14.41 11.5192C14.2674 11.4439 14.0962 11.4471 13.9566 11.5277C13.8169 11.6084 13.7286 11.755 13.7225 11.9161L13.5592 16.2781C13.5523 16.463 13.6547 16.6347 13.8209 16.7163C13.9869 16.798 14.1855 16.7742 14.3277 16.6558L14.9204 16.1619L15.5486 17.25H9.57442H1.87524V5.34375ZM16.3978 14.6661L17.4759 16.5335L16.5321 17.0784L15.454 15.211C15.3849 15.0913 15.2664 15.0082 15.1303 14.9839C15.1029 14.979 15.0754 14.9767 15.0481 14.9767C14.9393 14.9767 14.8329 15.0146 14.748 15.0853L14.5355 15.2624L14.6316 12.6966L16.9016 13.8962L16.642 13.9918C16.5122 14.0395 16.4102 14.1421 16.3631 14.2721C16.3159 14.4022 16.3287 14.5463 16.3978 14.6661Z" fill="#717171"/>
<path d="M4.3741 5.78125H3.69849C3.57403 5.78125 3.45464 5.83075 3.36671 5.91887C3.27882 6.00695 3.2295 6.12644 3.22974 6.25089V6.2538V6.25394V9.93911C3.22974 9.97066 3.23297 10.0015 3.23892 10.0313C3.24657 10.145 3.29494 10.2527 3.3765 10.3333C3.46425 10.4201 3.58271 10.4688 3.70608 10.4688H3.7096C3.71358 10.4688 4.11164 10.4657 4.41338 10.4605C5.53969 10.4409 6.35724 9.45864 6.35724 8.12509C6.35719 6.72311 5.56022 5.78125 4.3741 5.78125ZM4.39697 9.52305C4.32567 9.52427 4.24889 9.52539 4.17324 9.52638C4.17183 9.08266 4.16888 7.17967 4.16808 6.71875H4.37414C4.87964 6.71875 5.41978 7.08817 5.41978 8.125C5.41969 8.812 5.10347 9.51072 4.39697 9.52305Z" fill="#717171"/>
<path d="M9.11938 9.53125H8.27563V8.59375H9.02263C9.28148 8.59375 9.49138 8.38389 9.49138 8.125C9.49138 7.86611 9.28148 7.65625 9.02263 7.65625H8.27563V6.71875H9.11938C9.37823 6.71875 9.58813 6.50889 9.58813 6.25C9.58813 5.99111 9.37823 5.78125 9.11938 5.78125H7.80688C7.54804 5.78125 7.33813 5.99111 7.33813 6.25V10C7.33813 10.2589 7.54804 10.4687 7.80688 10.4687H9.11938C9.37823 10.4687 9.58813 10.2589 9.58813 10C9.58813 9.74111 9.37828 9.53125 9.11938 9.53125Z" fill="#717171"/>
<path d="M11.0313 10.4624C11.2872 10.5047 11.528 10.3318 11.5702 10.0764L11.8868 8.16194L12.4054 10.0654C12.4069 10.0706 12.4084 10.0758 12.41 10.0809C12.4819 10.3131 12.6914 10.4687 12.9318 10.4687H12.9345C13.176 10.4675 13.3853 10.3096 13.4554 10.0758C13.4568 10.0708 13.4583 10.0658 13.4596 10.0607L13.9603 8.15884L14.2969 10.0808C14.3367 10.3084 14.5346 10.4688 14.7581 10.4688C14.7849 10.4688 14.8121 10.4665 14.8394 10.4617C15.0944 10.417 15.265 10.1741 15.2203 9.91909L14.5756 6.23688C14.5752 6.23495 14.5749 6.23308 14.5745 6.2312C14.5274 5.98005 14.3182 5.79531 14.0658 5.78195C13.8139 5.76925 13.5871 5.9297 13.5138 6.17373C13.5123 6.17884 13.5109 6.184 13.5094 6.18916L12.9254 8.40747L12.3198 6.18466C12.3184 6.17945 12.3169 6.17425 12.3152 6.16909C12.2398 5.92572 12.011 5.76677 11.7596 5.78242C11.5072 5.79817 11.2997 5.98502 11.2549 6.23678C11.2546 6.23866 11.2543 6.24048 11.254 6.24236L10.6452 9.92345C10.6031 10.1789 10.7759 10.4202 11.0313 10.4624Z" fill="#717171"/>
<path d="M18.427 10.4688C19.7193 10.4688 20.7708 9.41734 20.7708 8.125C20.7708 6.83266 19.7193 5.78125 18.427 5.78125C17.1347 5.78125 16.0833 6.83266 16.0833 8.125C16.0833 9.41734 17.1347 10.4688 18.427 10.4688ZM18.427 6.71875C19.2024 6.71875 19.8333 7.34959 19.8333 8.125C19.8333 8.90041 19.2024 9.53125 18.427 9.53125C17.6516 9.53125 17.0208 8.90041 17.0208 8.125C17.0208 7.34959 17.6516 6.71875 18.427 6.71875Z" fill="#717171"/>
<path d="M11.9993 20.7188C12.2582 20.7188 12.468 20.5089 12.468 20.25C12.468 19.9911 12.2582 19.7812 11.9993 19.7812C11.7404 19.7812 11.5305 19.9911 11.5305 20.25C11.5305 20.5089 11.7404 20.7188 11.9993 20.7188Z" fill="#717171"/>
</svg>
