<svg width="26" height="24" viewBox="0 0 26 24" fill="none" xmlns="http://www.w3.org/2000/svg">
<path d="M1 0.95H0.95V1V21.5479C0.95 22.5467 1.76246 23.3592 2.76125 23.3592H23.2387C24.2375 23.3592 25.05 22.5467 25.05 21.5479V1V0.95H25H1ZM24.2455 21.5479C24.2455 22.103 23.7938 22.5547 23.2387 22.5547H2.76125C2.2062 22.5547 1.7545 22.103 1.7545 21.5479V4.94824H24.2455V21.5479ZM24.2455 4.14374H1.7545V1.7545H24.2455V4.14374Z" fill="#717171" stroke="#717171" stroke-width="0.1"/>
<path d="M3.04309 2.54375H2.99309V2.59375V3.29825V3.34825H3.04309H3.74759H3.79759V3.29825V2.59375V2.54375H3.74759H3.04309Z" fill="#717171" stroke="#717171" stroke-width="0.1"/>
<path d="M4.45203 2.54375H4.40203V2.59375V3.29825V3.34825H4.45203H5.15653H5.20653V3.29825V2.59375V2.54375H5.15653H4.45203Z" fill="#717171" stroke="#717171" stroke-width="0.1"/>
<path d="M5.86108 2.54375H5.81108V2.59375V3.29825V3.34825H5.86108H6.56558H6.61558V3.29825V2.59375V2.54375H6.56558H5.86108Z" fill="#717171" stroke="#717171" stroke-width="0.1"/>
<path d="M13.4228 14.9031H15.181V16.8459V16.9254L15.2526 16.8909L19.3853 14.9031H21.4071C22.4059 14.9031 23.2183 14.0906 23.2183 13.0918V7.83156C23.2183 6.83277 22.4059 6.02031 21.4071 6.02031H13.4228C12.424 6.02031 11.6115 6.83277 11.6115 7.83156V13.0918C11.6115 14.0906 12.424 14.9031 13.4228 14.9031ZM19.2133 14.0986H19.2019L19.1916 14.1035L15.9855 15.6457V14.1486V14.0986H15.9355H13.4228C12.8677 14.0986 12.416 13.6469 12.416 13.0918V7.83156C12.416 7.27646 12.8677 6.82481 13.4228 6.82481H21.4071C21.9622 6.82481 22.4138 7.27646 22.4138 7.83156V13.0918C22.4138 13.6469 21.9622 14.0986 21.4071 14.0986H19.2133Z" fill="#717171" stroke="#717171" stroke-width="0.1"/>
<path d="M18.4512 13.2169H18.4012H17.5088C16.7469 13.2169 16.0121 12.8958 15.4926 12.3357C14.9661 11.7683 14.708 11.0294 14.7662 10.2559C14.7662 10.2559 14.7662 10.2559 14.7662 10.2559M18.4512 13.2169L17.3021 7.77351C15.9838 7.87247 14.915 8.94129 14.816 10.2596L14.7662 10.2559M18.4512 13.2169V13.1669M18.4512 13.2169V13.1669M14.7662 10.2559C14.867 8.91288 15.9554 7.82446 17.2984 7.72365L17.2984 7.72365C18.0722 7.66564 18.8108 7.92369 19.3782 8.45014C19.9382 8.96967 20.2594 9.70449 20.2594 10.4663V10.7012C20.2594 11.3115 19.7629 11.8079 19.1526 11.8079C18.8503 11.8079 18.5761 11.6859 18.3763 11.4889C18.1423 11.6877 17.8393 11.8079 17.5088 11.8079C16.769 11.8079 16.1672 11.2062 16.1672 10.4663C16.1672 9.72653 16.769 9.12476 17.5088 9.12476C18.2486 9.12476 18.8504 9.72653 18.8504 10.4663V10.7012C18.8504 10.8678 18.986 11.0034 19.1526 11.0034C19.3193 11.0034 19.4549 10.8678 19.4549 10.7012V10.4663C19.4549 9.92775 19.2275 9.40776 18.8311 9.03989C18.4294 8.66723 17.9066 8.48494 17.3586 8.5259L14.7662 10.2559ZM18.4512 13.1669V12.4624V12.4124M18.4512 13.1669V12.4124M18.4512 12.4124H18.4012M18.4512 12.4124H18.4012M18.4012 12.4124H17.5088M18.4012 12.4124H17.5088M17.5088 12.4124C16.9702 12.4124 16.4502 12.1851 16.0824 11.7886M17.5088 12.4124L16.0824 11.7886M16.0824 11.7886C15.7097 11.3869 15.5273 10.8643 15.5684 10.3161L16.0824 11.7886ZM17.5088 11.0034C17.2127 11.0034 16.9717 10.7625 16.9717 10.4663C16.9717 10.1702 17.2127 9.92926 17.5088 9.92926C17.8049 9.92926 18.0459 10.1702 18.0459 10.4663C18.0459 10.7625 17.8049 11.0034 17.5088 11.0034Z" fill="#717171" stroke="#717171" stroke-width="0.1"/>
<path d="M16.1044 20.574L16.1047 20.5744L16.1093 20.5698C16.6333 20.0458 16.6335 19.1973 16.1093 18.6731L14.1175 16.6814C13.5946 16.1584 12.7439 16.1584 12.2208 16.6814L12.2562 16.7167L12.2208 16.6814L11.9475 16.9547C11.4306 17.4716 11.0926 17.6628 10.8554 17.7073C10.624 17.7507 10.4807 17.6561 10.34 17.5622L10.3123 17.6037L10.34 17.5621C10.2396 17.4951 10.0354 17.3169 9.77804 17.0769C9.52199 16.8382 9.21657 16.5414 8.91535 16.2402C8.61413 15.939 8.31738 15.6336 8.07866 15.3775C7.83873 15.1202 7.6605 14.9159 7.59347 14.8155L7.59347 14.8155C7.49952 14.6749 7.40494 14.5316 7.44831 14.3002C7.49277 14.063 7.68398 13.725 8.20086 13.2081L8.4743 12.9347L8.47431 12.9347C8.99722 12.4117 8.99722 11.5609 8.4743 11.038L6.48254 9.04626C5.95841 8.52213 5.10999 8.52203 4.58585 9.04627L4.58504 9.04546L4.57921 9.0545C4.57338 9.06352 4.5588 9.08024 4.53251 9.1069C4.50721 9.13257 4.47419 9.16435 4.43428 9.20274L4.43227 9.20468C4.35303 9.28091 4.24885 9.38114 4.13189 9.50391C3.896 9.75152 3.60745 10.0915 3.36274 10.5158C2.87251 11.3657 2.55897 12.5533 3.1931 14.0083C3.8046 15.4117 5.11075 16.7794 6.74346 18.4121C6.77769 18.4463 6.81199 18.4806 6.84637 18.515C7.72742 19.3964 8.65954 20.3289 9.62802 21.05C10.6339 21.7989 11.6858 22.3249 12.7678 22.3249C13.7212 22.3249 14.509 21.9215 15.0811 21.5017C15.3674 21.2917 15.6004 21.077 15.7739 20.9057C15.8502 20.8304 15.9152 20.7632 15.9678 20.7088C15.9749 20.7015 15.9818 20.6943 15.9885 20.6874C16.046 20.6281 16.0836 20.5902 16.1044 20.574ZM15.4219 20.1176C15.3891 20.1482 15.3557 20.1795 15.3248 20.2123L12.5762 17.4637L12.7897 17.2503C12.9987 17.0412 13.3391 17.0411 13.5483 17.2499C14.2623 17.9923 14.7452 18.4578 15.0689 18.7698C15.182 18.8788 15.2757 18.9691 15.353 19.0459C15.5034 19.1954 15.5887 19.291 15.6373 19.3736C15.684 19.4529 15.6976 19.5217 15.6976 19.6215C15.6976 19.7806 15.6367 19.8901 15.5558 19.9835C15.5151 20.0304 15.4698 20.0728 15.4235 20.116L15.4219 20.1176ZM5.5341 9.45799C5.6339 9.45799 5.70273 9.47165 5.78204 9.5183C5.86478 9.56697 5.96044 9.65238 6.1099 9.80277C6.1868 9.88015 6.27719 9.97393 6.38633 10.0872C6.69834 10.4109 7.16366 10.8937 7.90567 11.6073C8.11452 11.8165 8.11442 12.1567 7.90537 12.3659C7.90537 12.3659 7.90537 12.3659 7.90536 12.3659L7.69181 12.5794L4.94328 9.83087C4.97747 9.79882 5.00965 9.76452 5.04089 9.7311L5.04444 9.72729C5.08729 9.68143 5.12869 9.63712 5.1744 9.59743C5.26648 9.51748 5.3741 9.45799 5.5341 9.45799ZM11.9795 18.0049L14.7303 20.7556C14.0778 21.2732 13.4412 21.5242 12.7776 21.5242C11.8468 21.5241 10.8769 21.0031 9.93777 20.2777C9.08076 19.6158 8.2567 18.7897 7.51909 18.0503C7.44939 17.9804 7.38046 17.9113 7.31235 17.8432C5.72937 16.2602 4.48365 14.9561 3.93052 13.6869C3.66971 13.0885 3.57892 12.5315 3.66049 11.9911C3.73991 11.4649 3.98335 10.9502 4.39983 10.4251L7.15066 13.176C6.85276 13.5567 6.68332 13.9055 6.64325 14.2437C6.60177 14.5938 6.69966 14.9259 6.9243 15.2623C7.00978 15.3903 7.20766 15.6193 7.46097 15.8932C7.7153 16.1682 8.02821 16.4914 8.34615 16.8094C8.66408 17.1273 8.98733 17.4402 9.26233 17.6945C9.53624 17.9479 9.76515 18.1457 9.89317 18.2312C10.2296 18.4559 10.5617 18.5538 10.9118 18.5123C11.2501 18.4722 11.5988 18.3028 11.9795 18.0049Z" fill="#717171" stroke="#717171" stroke-width="0.1"/>
</svg>
