<svg width="24" height="24" viewBox="0 0 24 24" fill="none" xmlns="http://www.w3.org/2000/svg">
<path d="M10.8348 15.3777L9.39524 15.2859C9.70635 14.723 9.63524 14.0129 9.17395 13.5515C8.61117 12.9887 7.67803 13.0063 7.09373 13.5905L6.38911 14.2951C6.38896 14.2953 6.38882 14.2955 6.38868 14.2956C6.38854 14.2958 6.3884 14.2958 6.38826 14.296C6.20521 14.4791 6.20521 14.7759 6.38826 14.9589L9.03993 17.6106C9.22298 17.7937 9.51979 17.7937 9.70284 17.6106C9.88588 17.4276 9.88588 17.1308 9.70284 16.9477L8.95223 16.1971L10.7751 16.3133C11.0335 16.3298 11.2563 16.1337 11.2728 15.8754C11.2892 15.617 11.0931 15.3942 10.8348 15.3777ZM8.47204 14.9688C8.38556 15.0553 8.23945 15.2026 8.10318 15.3402C7.96893 15.2073 7.82643 15.0659 7.74299 14.9825C7.67203 14.9116 7.52493 14.7652 7.38454 14.6256L7.75668 14.2534C7.9717 14.0384 8.31717 14.0206 8.51104 14.2144C8.70492 14.4083 8.68706 14.7538 8.47204 14.9688Z" fill="#717171"/>
<path d="M5.6265 16.3836L6.03019 15.9799C6.21324 15.7968 6.21324 15.5 6.03019 15.317C5.84714 15.1339 5.55033 15.1339 5.36728 15.317L3.90291 16.7813C3.71986 16.9644 3.71986 17.2612 3.90291 17.4443C4.08596 17.6273 4.38277 17.6273 4.56582 17.4443L4.9636 17.0465L7.28381 19.3666C7.46686 19.5497 7.76367 19.5497 7.94672 19.3666C8.12977 19.1836 8.12977 18.8868 7.94672 18.7037L5.6265 16.3836Z" fill="#717171"/>
<path d="M9.6205 11.7311C9.43746 11.548 9.14064 11.548 8.9576 11.7311C8.77455 11.9141 8.77455 12.2109 8.9576 12.394L11.6093 15.0456C11.7923 15.2287 12.0891 15.2287 12.2722 15.0456C12.4552 14.8626 12.4552 14.5658 12.2722 14.3827L9.6205 11.7311Z" fill="#717171"/>
<path d="M15.252 11.1606L11.6509 9.5329C11.6468 9.53102 11.6426 9.52919 11.6385 9.52746C11.4302 9.44051 11.1927 9.48752 11.0333 9.64727C10.8738 9.80697 10.8272 10.0447 10.9146 10.2528C10.916 10.2562 10.9175 10.2596 10.9191 10.2631L12.5377 13.8731C12.5617 13.9267 12.5945 13.9736 12.6337 14.0128C12.7673 14.1464 12.9745 14.191 13.1572 14.1091C13.3934 14.0031 13.499 13.7258 13.3931 13.4896L13.1221 12.8853L14.2644 11.743L14.8658 12.0149C15.1017 12.1216 15.3794 12.0168 15.486 11.7809C15.5927 11.545 15.4879 11.2671 15.252 11.1606ZM12.7117 11.9699L12.1895 10.8052L13.3513 11.3303L12.7117 11.9699Z" fill="#717171"/>
<path d="M17.4886 9.15321C17.3045 8.97119 17.0077 8.97283 16.8257 9.15691C16.6225 9.36241 16.4044 9.5822 16.2327 9.75433L13.9125 7.43416C13.7294 7.25111 13.4326 7.25111 13.2496 7.43416C13.0665 7.61721 13.0665 7.91402 13.2496 8.09707L15.899 10.7465C16.0604 10.9079 16.3146 10.9295 16.501 10.7978C16.542 10.7688 16.5691 10.7497 17.4923 9.81611C17.6737 9.63264 17.6727 9.33728 17.4906 9.15508C17.4899 9.15447 17.4892 9.15381 17.4886 9.15321Z" fill="#717171"/>
<path d="M23.7941 0.205945C23.5195 -0.0686484 23.0743 -0.0686484 22.7997 0.205945L21.0357 1.96999H14.1486C13.46 1.96999 12.8126 2.23812 12.3256 2.7251L0.753925 14.2968C-0.251308 15.302 -0.251308 16.9376 0.753925 17.9428L6.05722 23.2461C7.0624 24.2513 8.69801 24.2513 9.7032 23.2461L21.2749 11.6744C21.7618 11.1875 22.03 10.54 22.03 9.8514V2.96435L23.794 1.2003C24.0686 0.925757 24.0686 0.480539 23.7941 0.205945ZM20.6238 9.8514C20.6238 10.1644 20.5019 10.4587 20.2806 10.68L8.70889 22.2517C8.25195 22.7086 7.50851 22.7086 7.05162 22.2517L1.74833 16.9485C1.29139 16.4915 1.29139 15.7481 1.74833 15.2912L13.32 3.71946C13.5414 3.49811 13.8356 3.37619 14.1487 3.37619H19.6295L17.577 5.42871L17.2455 5.09725C16.9709 4.82266 16.5258 4.82266 16.2512 5.09725C15.9766 5.37185 15.9766 5.81702 16.2512 6.09161L17.9084 7.74888C18.183 8.02347 18.6282 8.02347 18.9028 7.74888C19.1774 7.47428 19.1774 7.02911 18.9028 6.75452L18.5713 6.42306L20.6238 4.3706V9.8514Z" fill="#717171"/>
</svg>
