<svg width="16" height="15" viewBox="0 0 16 15" fill="none" xmlns="http://www.w3.org/2000/svg">
<path d="M8.78495 1.17427L13.3738 3.20356C14.6961 3.78447 14.6961 4.7449 13.3738 5.3258L8.78495 7.35508C8.26384 7.58744 7.40828 7.58744 6.88717 7.35508L2.29831 5.3258C0.976085 4.7449 0.976085 3.78447 2.29831 3.20356L6.88717 1.17427C7.40828 0.94191 8.26384 0.94191 8.78495 1.17427Z" stroke="#112D55" stroke-linecap="round" stroke-linejoin="round"/>
<path d="M1 6.62695C1 7.27757 1.49 8.02887 2.08889 8.29221L7.37 10.6313C7.77444 10.8095 8.23333 10.8095 8.63 10.6313L13.9111 8.29221C14.51 8.02887 15 7.27757 15 6.62695" stroke="#112D55" stroke-linecap="round" stroke-linejoin="round"/>
<path d="M1 9.86328C1 10.5836 1.42778 11.2342 2.08889 11.5285L7.37 13.8676C7.77444 14.0458 8.23333 14.0458 8.63 13.8676L13.9111 11.5285C14.5722 11.2342 15 10.5836 15 9.86328" stroke="#112D55" stroke-linecap="round" stroke-linejoin="round"/>
</svg>
