<svg width="18" height="18" viewBox="0 0 18 18" fill="none" xmlns="http://www.w3.org/2000/svg">
<path d="M9.703 1.90952L9.70511 1.91045L15.6051 4.53046L15.6068 4.53119C16.3814 4.87295 16.4345 5.18215 16.4345 5.215C16.4345 5.24785 16.3814 5.55705 15.6068 5.89881L15.6051 5.89955L9.70511 8.51952L9.703 8.52047C9.49201 8.61494 9.16149 8.67998 8.7895 8.67998C8.41751 8.67998 8.08699 8.61494 7.876 8.52046L7.87389 8.51953L1.97392 5.89954L1.97226 5.89881C1.19761 5.55705 1.14453 5.24785 1.14453 5.215C1.14453 5.18215 1.19761 4.87295 1.97226 4.53119L1.97226 4.53119L1.97392 4.53045L7.87389 1.91045L7.87389 1.91046L7.876 1.90951C8.08699 1.81504 8.41751 1.75 8.7895 1.75C9.16149 1.75 9.49201 1.81504 9.703 1.90952Z" stroke="white" stroke-width="1.5" stroke-linecap="round" stroke-linejoin="round"/>
<mask id="path-2-inside-1_3404_1276" fill="white">
<path d="M0 8.26562C0 9.10562 0.63 10.0756 1.4 10.4156L8.19 13.4356C8.71 13.6656 9.3 13.6656 9.81 13.4356L16.6 10.4156C17.37 10.0756 18 9.10562 18 8.26562"/>
</mask>
<path d="M1.5 8.26562C1.5 7.4372 0.828427 6.76562 0 6.76562C-0.828427 6.76562 -1.5 7.4372 -1.5 8.26562H1.5ZM1.4 10.4156L2.00958 9.04507L2.0059 9.04344L1.4 10.4156ZM8.19 13.4356L7.58042 14.8062L7.58324 14.8074L8.19 13.4356ZM9.81 13.4356L9.20041 12.0651L9.19334 12.0682L9.81 13.4356ZM16.6 10.4156L15.9941 9.04344L15.9904 9.04507L16.6 10.4156ZM19.5 8.26562C19.5 7.4372 18.8284 6.76562 18 6.76562C17.1716 6.76562 16.5 7.4372 16.5 8.26562H19.5ZM-1.5 8.26562C-1.5 9.03884 -1.22007 9.77133 -0.846047 10.3462C-0.472012 10.921 0.0848653 11.4746 0.794101 11.7878L2.0059 9.04344C1.94513 9.01661 1.80201 8.9152 1.66855 8.71008C1.53507 8.50492 1.5 8.33241 1.5 8.26562H-1.5ZM0.790418 11.7862L7.58042 14.8062L8.79958 12.0651L2.00958 9.04507L0.790418 11.7862ZM7.58324 14.8074C8.48587 15.2067 9.52083 15.2115 10.4267 14.803L9.19334 12.0682C9.07918 12.1197 8.93413 12.1246 8.79676 12.0638L7.58324 14.8074ZM10.4196 14.8062L17.2096 11.7862L15.9904 9.04507L9.20042 12.0651L10.4196 14.8062ZM17.2059 11.7878C17.9151 11.4746 18.472 10.921 18.846 10.3462C19.2201 9.77133 19.5 9.03884 19.5 8.26562H16.5C16.5 8.33241 16.4649 8.50492 16.3315 8.71008C16.198 8.9152 16.0549 9.01661 15.9941 9.04344L17.2059 11.7878Z" fill="white" mask="url(#path-2-inside-1_3404_1276)"/>
<mask id="path-4-inside-2_3404_1276" fill="white">
<path d="M0 12.4414C0 13.3714 0.55 14.2114 1.4 14.5914L8.19 17.6114C8.71 17.8414 9.3 17.8414 9.81 17.6114L16.6 14.5914C17.45 14.2114 18 13.3714 18 12.4414"/>
</mask>
<path d="M1.5 12.4414C1.5 11.613 0.828427 10.9414 0 10.9414C-0.828427 10.9414 -1.5 11.613 -1.5 12.4414H1.5ZM1.4 14.5914L0.787803 15.9608L0.790418 15.962L1.4 14.5914ZM8.19 17.6114L7.58042 18.982L7.58324 18.9832L8.19 17.6114ZM9.81 17.6114L9.20041 16.2408L9.19334 16.244L9.81 17.6114ZM16.6 14.5914L17.2096 15.962L17.2122 15.9608L16.6 14.5914ZM19.5 12.4414C19.5 11.613 18.8284 10.9414 18 10.9414C17.1716 10.9414 16.5 11.613 16.5 12.4414H19.5ZM-1.5 12.4414C-1.5 13.9694 -0.596377 15.342 0.787804 15.9608L2.0122 13.222C1.69638 13.0808 1.5 12.7734 1.5 12.4414H-1.5ZM0.790418 15.962L7.58042 18.982L8.79958 16.2409L2.00958 13.2209L0.790418 15.962ZM7.58324 18.9832C8.48587 19.3825 9.52083 19.3873 10.4267 18.9788L9.19334 16.244C9.07917 16.2955 8.93413 16.3004 8.79676 16.2396L7.58324 18.9832ZM10.4196 18.982L17.2096 15.962L15.9904 13.2209L9.20042 16.2409L10.4196 18.982ZM17.2122 15.9608C18.5964 15.342 19.5 13.9694 19.5 12.4414H16.5C16.5 12.7734 16.3036 13.0808 15.9878 13.222L17.2122 15.9608Z" fill="white" mask="url(#path-4-inside-2_3404_1276)"/>
</svg>
