<svg width="20" height="18" viewBox="0 0 20 18" fill="none" xmlns="http://www.w3.org/2000/svg">
<path d="M11.0095 1.2145L16.9095 3.71221C18.6095 4.42721 18.6095 5.60933 16.9095 6.32433L11.0095 8.82202C10.3395 9.10802 9.2395 9.10802 8.5695 8.82202L2.66953 6.32433C0.969531 5.60933 0.969531 4.42721 2.66953 3.71221L8.5695 1.2145C9.2395 0.928501 10.3395 0.928501 11.0095 1.2145Z" stroke="white" stroke-linecap="round" stroke-linejoin="round"/>
<path d="M1 7.92578C1 8.72657 1.63 9.6513 2.4 9.97543L9.19 12.8545C9.71 13.0737 10.3 13.0737 10.81 12.8545L17.6 9.97543C18.37 9.6513 19 8.72657 19 7.92578" stroke="white" stroke-linecap="round" stroke-linejoin="round"/>
<path d="M1 11.9082C1 12.7948 1.55 13.5956 2.4 13.9579L9.19 16.8369C9.71 17.0562 10.3 17.0562 10.81 16.8369L17.6 13.9579C18.45 13.5956 19 12.7948 19 11.9082" stroke="white" stroke-linecap="round" stroke-linejoin="round"/>
</svg>
