<svg width="16" height="16" viewBox="0 0 16 16" fill="none" xmlns="http://www.w3.org/2000/svg">
<path d="M15.8637 15.2057L12.2282 11.5702C13.344 10.2979 13.9597 8.6879 13.9597 6.97984C13.9597 5.11537 13.2335 3.36268 11.9153 2.04442C10.597 0.726157 8.84431 0 6.97984 0C5.11537 0 3.36268 0.726157 2.04442 2.04442C0.726157 3.36268 0 5.11537 0 6.97984C0 8.84431 0.726157 10.597 2.04442 11.9153C3.36268 13.2335 5.11537 13.9597 6.97984 13.9597C8.6879 13.9597 10.2979 13.344 11.5702 12.2282L15.2057 15.8637C15.2966 15.9546 15.4156 16 15.5347 16C15.6537 16 15.7728 15.9546 15.8637 15.8637C16.0454 15.6819 16.0454 15.3874 15.8637 15.2057ZM2.70241 11.2573C1.56001 10.1146 0.930645 8.59551 0.930645 6.97984C0.930645 5.36416 1.56001 3.84504 2.70241 2.70241C3.84504 1.56001 5.36416 0.930645 6.97984 0.930645C8.59551 0.930645 10.1146 1.56001 11.2573 2.70241C12.3997 3.84504 13.029 5.36416 13.029 6.97984C13.029 8.59551 12.3997 10.1146 11.2573 11.2573C10.1146 12.3997 8.59551 13.029 6.97984 13.029C5.36416 13.029 3.84504 12.3997 2.70241 11.2573Z" fill="#AAAAAA"/>
</svg>
