<svg width="16" height="15" viewBox="0 0 16 15" fill="none" xmlns="http://www.w3.org/2000/svg">
<g id="Group 347">
<path id="Vector" d="M8.78495 1.175L13.3738 3.21278C14.6961 3.79611 14.6961 4.76056 13.3738 5.34389L8.78495 7.38165C8.26384 7.61498 7.40828 7.61498 6.88717 7.38165L2.29831 5.34389C0.976085 4.76056 0.976085 3.79611 2.29831 3.21278L6.88717 1.175C7.40828 0.941667 8.26384 0.941667 8.78495 1.175Z" stroke="#112D55" stroke-linecap="round" stroke-linejoin="round"/>
<path id="Vector_2" d="M1 6.65039C1 7.30372 1.49 8.05817 2.08889 8.32261L7.37 10.6715C7.77444 10.8504 8.23333 10.8504 8.63 10.6715L13.9111 8.32261C14.51 8.05817 15 7.30372 15 6.65039" stroke="#112D55" stroke-linecap="round" stroke-linejoin="round"/>
<path id="Vector_3" d="M1 9.89893C1 10.6223 1.42778 11.2756 2.08889 11.5711L7.37 13.92C7.77444 14.0989 8.23333 14.0989 8.63 13.92L13.9111 11.5711C14.5722 11.2756 15 10.6223 15 9.89893" stroke="#112D55" stroke-linecap="round" stroke-linejoin="round"/>
</g>
</svg>
