<svg width="16" height="16" viewBox="0 0 16 16" fill="none" xmlns="http://www.w3.org/2000/svg">
<mask id="mask0_856_1935" style="mask-type:luminance" maskUnits="userSpaceOnUse" x="0" y="0" width="16" height="16">
<path d="M16 0H0V16H16V0Z" fill="white"/>
</mask>
<g mask="url(#mask0_856_1935)">
<path d="M5.61596 1.71144L4.40596 2.27144C2.54196 3.13344 1.60596 3.56344 1.60596 4.27144C1.60596 4.97944 2.53796 5.40944 4.40596 6.27144L5.61596 6.83044C6.34511 7.26421 7.15673 7.54111 7.99896 7.64344C8.84118 7.54111 9.65281 7.26421 10.382 6.83044L11.592 6.27144C13.456 5.40944 14.392 4.97944 14.392 4.27144C14.392 3.56344 13.46 3.13344 11.592 2.27144L10.382 1.71144C9.65281 1.27767 8.84118 1.00077 7.99896 0.898438C7.15673 1.00077 6.34511 1.27767 5.61596 1.71144Z" stroke="#717171" stroke-width="1.2" stroke-linecap="round" stroke-linejoin="round"/>
<path d="M14.239 7.35938C14.3363 7.48931 14.3892 7.64707 14.39 7.80937C14.39 8.50937 13.458 8.93137 11.59 9.78037L10.38 10.3324C9.64914 10.7601 8.8379 11.0324 7.997 11.1324C7.15611 11.0324 6.34487 10.7601 5.614 10.3324L4.404 9.78037C2.54 8.93137 1.604 8.50637 1.604 7.80937C1.60472 7.64705 1.65767 7.48927 1.755 7.35938" stroke="#717171" stroke-width="1.2" stroke-linecap="round" stroke-linejoin="round"/>
<path d="M13.947 11.0293C14.0746 11.11 14.1812 11.2198 14.2582 11.3496C14.3352 11.4794 14.3804 11.6257 14.39 11.7763C14.39 12.4763 13.458 12.8983 11.59 13.7473L10.38 14.2993C9.64915 14.727 8.83791 14.9994 7.997 15.0993C7.1561 14.9994 6.34486 14.727 5.614 14.2993L4.404 13.7473C2.54 12.8983 1.604 12.4733 1.604 11.7763C1.61355 11.6256 1.65867 11.4794 1.73568 11.3495C1.81268 11.2197 1.91938 11.1099 2.047 11.0293" stroke="#717171" stroke-width="1.2" stroke-linecap="round" stroke-linejoin="round"/>
</g>
</svg>
