<svg width="32" height="32" viewBox="0 0 32 32" fill="none" xmlns="http://www.w3.org/2000/svg">
<path d="M7.69513 29.4654H3.0979V23.7903C3.0979 23.4444 3.37826 23.1641 3.72412 23.1641H7.06891C7.41477 23.1641 7.69513 23.4444 7.69513 23.7903V29.4654Z" fill="#FFE27A"/>
<path d="M14.7641 29.4615H10.1669V20.3684C10.1669 20.0225 10.4472 19.7422 10.7931 19.7422H14.1379C14.4837 19.7422 14.7641 20.0225 14.7641 20.3684V29.4615Z" fill="#FFBA57"/>
<path d="M21.8331 29.4655H17.2358V16.9543C17.2358 16.6085 17.5162 16.3281 17.8621 16.3281H21.2068C21.5527 16.3281 21.8331 16.6085 21.8331 16.9543V29.4655Z" fill="#98DB7C"/>
<path d="M28.902 29.4617H24.3048V13.5325C24.3048 13.1866 24.5852 12.9062 24.931 12.9062H28.2758C28.6217 12.9062 28.902 13.1866 28.902 13.5325V29.4617Z" fill="#8BCAFF"/>
<path d="M3.0979 28.3359H7.69513V29.4631H3.0979V28.3359Z" fill="#F9CF58"/>
<path d="M10.1669 28.3359H14.7641V29.4631H10.1669V28.3359Z" fill="#FFAC3E"/>
<path d="M17.2358 28.3359H21.8331V29.4631H17.2358V28.3359Z" fill="#82D361"/>
<path d="M24.3048 28.3359H28.902V29.4631H24.3048V28.3359Z" fill="#6CC4FF"/>
<path d="M24.4841 6.64448L26.4401 8.00452L25.784 1.46875L19.4229 3.12549L21.3789 4.48552C21.3789 4.48552 17.7954 11.4738 4.84809 15.4693C4.18135 15.6751 4.36445 16.6626 5.06056 16.6143C10.2481 16.2539 18.8143 14.4021 24.4841 6.64448Z" fill="#FF4755"/>
<path d="M23.9232 6.24472C23.7839 6.14628 23.5922 6.17815 23.4903 6.31498C17.6663 14.1412 10.1945 15.1268 5.06058 15.4834C4.98493 15.4887 4.91573 15.4811 4.85267 15.4642L4.8481 15.4656C4.18593 15.6745 4.37142 16.6585 5.06408 16.6103C10.252 16.2494 18.8156 14.3967 24.4841 6.64081L23.9232 6.24472Z" fill="#FC2B3A"/>
<path d="M31.5303 28.993H29.3717V20.2037C29.3717 19.9443 29.1615 19.7341 28.9021 19.7341C28.6427 19.7341 28.4324 19.9443 28.4324 20.2037V28.993H24.7745V13.5334C24.7745 13.4471 24.8447 13.3768 24.9311 13.3768H28.2759C28.3621 13.3768 28.4324 13.4471 28.4324 13.5334V18.3251C28.4324 18.5844 28.6427 18.7947 28.9021 18.7947C29.1615 18.7947 29.3717 18.5844 29.3717 18.3251V13.5334C29.3717 12.9291 28.8802 12.4375 28.2759 12.4375H24.9311C24.3268 12.4375 23.8352 12.9291 23.8352 13.5334V28.993H22.3027V16.9514C22.3027 16.3472 21.8111 15.8556 21.2069 15.8556H17.8621C17.2578 15.8556 16.7662 16.3472 16.7662 16.9514V28.993H15.2338V20.3695C15.2338 19.7652 14.7422 19.2736 14.1379 19.2736H10.7931C10.1888 19.2736 9.69719 19.7652 9.69719 20.3695V24.4764C9.69719 24.7358 9.90748 24.9461 10.1669 24.9461C10.4262 24.9461 10.6365 24.7358 10.6365 24.4764V20.3695C10.6365 20.2831 10.7068 20.2129 10.7931 20.2129H14.1379C14.2242 20.2129 14.2944 20.2831 14.2944 20.3695V28.993H10.6365V26.3551C10.6365 26.0957 10.4262 25.8854 10.1669 25.8854C9.90748 25.8854 9.69719 26.0957 9.69719 26.3551V28.993H8.16476V23.7875C8.16476 23.1833 7.67317 22.6917 7.06887 22.6917H3.72415C3.11991 22.6917 2.62826 23.1833 2.62826 23.7875V28.993H0.469667C0.210286 28.993 0 29.2032 0 29.4626C0 29.722 0.210286 29.9323 0.469667 29.9323H31.5303C31.7897 29.9323 32 29.722 32 29.4626C32 29.2032 31.7897 28.993 31.5303 28.993ZM17.7055 16.9514C17.7055 16.8651 17.7758 16.7949 17.8621 16.7949H21.2069C21.2932 16.7949 21.3634 16.8651 21.3634 16.9514V28.993H17.7055V16.9514ZM3.56759 23.7875C3.56759 23.7012 3.63786 23.631 3.72415 23.631H7.06893C7.15529 23.631 7.22549 23.7012 7.22549 23.7875V28.993H3.56759V23.7875Z" fill="black"/>
<path d="M5.01541 17.0875C5.04115 17.0875 5.06714 17.0866 5.09319 17.0848C8.55696 16.8442 11.8141 16.0883 14.7743 14.8381C18.7604 13.1545 22.0603 10.6168 24.5891 7.29152L26.172 8.39217C26.4839 8.62469 26.9591 8.3452 26.9075 7.95964L26.2514 1.42387C26.23 1.14476 25.9349 0.939425 25.6657 1.01626L19.3046 2.673C18.9249 2.75867 18.8282 3.3016 19.1548 3.51314L20.7523 4.62381C20.4345 5.12316 19.7342 6.11328 18.5133 7.3244C18.3291 7.50713 18.3279 7.80446 18.5106 7.98857C18.6933 8.17274 18.9906 8.17393 19.1748 7.99126C21.057 6.12418 21.7676 4.75901 21.7969 4.70184C21.9042 4.49255 21.8402 4.23618 21.6471 4.10191L20.5293 3.32471L25.3716 2.06356L25.8711 7.03871L24.7523 6.26088C24.5428 6.11522 24.2556 6.16344 24.105 6.36934C21.6441 9.73654 18.3818 12.2947 14.4089 13.9727C10.8409 15.4796 7.3382 15.9872 5.02819 16.1477C4.89324 16.1823 4.85234 15.9345 4.98673 15.9201C10.1327 14.332 14.4303 12.0995 17.7601 9.28466C17.9583 9.11721 17.9831 8.82088 17.8156 8.62281C17.6482 8.42473 17.3518 8.39981 17.1537 8.56732C13.9211 11.3001 9.73432 13.4719 4.70982 15.0225C4.18805 15.1835 3.88189 15.6895 3.98183 16.2257C4.07683 16.7356 4.50498 17.0875 5.01541 17.0875Z" fill="black"/>
</svg>
