<svg id="Group_672" data-name="Group 672" xmlns="http://www.w3.org/2000/svg" width="20" height="20" viewBox="0 0 20 20">
  <path id="Path_2966" data-name="Path 2966" d="M17.5,18.828H2.5A1.328,1.328,0,0,1,1.172,17.5V5H18.828V17.5A1.328,1.328,0,0,1,17.5,18.828ZM2.5,1.172h15A1.328,1.328,0,0,1,18.828,2.5v1.33H1.172V2.5A1.328,1.328,0,0,1,2.5,1.172ZM17.5,0H2.5A2.5,2.5,0,0,0,0,2.5v15A2.5,2.5,0,0,0,2.5,20h15A2.5,2.5,0,0,0,20,17.5V2.5A2.5,2.5,0,0,0,17.5,0Z" fill="#333"/>
  <path id="Path_2967" data-name="Path 2967" d="M2.32,2.93h.86a.586.586,0,1,0,0-1.172H2.32a.586.586,0,0,0,0,1.172Z" transform="translate(0.193 0.195)" fill="#333"/>
  <path id="Path_2968" data-name="Path 2968" d="M4.676,2.93h.86a.586.586,0,0,0,0-1.172h-.86a.586.586,0,1,0,0,1.172Z" transform="translate(0.454 0.195)" fill="#333"/>
  <path id="Path_2969" data-name="Path 2969" d="M7.032,2.93h9.716a.586.586,0,0,0,0-1.172H7.032a.586.586,0,0,0,0,1.172Z" transform="translate(0.716 0.195)" fill="#333"/>
  <path id="Path_2970" data-name="Path 2970" d="M13.738,12h-.56a.586.586,0,0,0-.552.388c-.034.093-.072.186-.114.276a.586.586,0,0,0,.117.664l.4.4a.7.7,0,1,1-.988.986l-.394-.392a.586.586,0,0,0-.665-.113c-.093.044-.188.084-.284.119a.586.586,0,0,0-.386.551v.564a.7.7,0,0,1-1.4,0v-.555a.586.586,0,0,0-.39-.552,3.205,3.205,0,0,1-.3-.122.586.586,0,0,0-.665.115l-.4.4a.7.7,0,1,1-.987-.987l.4-.4a.586.586,0,0,0,.115-.665c-.044-.093-.084-.189-.119-.286A.586.586,0,0,0,6.023,12h-.56a.7.7,0,1,1,0-1.4h.56a.586.586,0,0,0,.551-.388c.036-.1.077-.2.123-.3a.586.586,0,0,0-.113-.665l-.393-.4a.7.7,0,0,1,.984-.99l.385.4a.586.586,0,0,0,.672.123c.1-.045.195-.086.295-.121a.586.586,0,0,0,.39-.552V7.165a.7.7,0,1,1,1.4,0V7.73a.586.586,0,0,0,.386.551c.093.034.186.072.275.115a.586.586,0,0,0,.665-.115l.4-.4a.7.7,0,1,1,.987.987l-.4.4a.586.586,0,0,0-.115.665c.044.093.084.189.119.286a.586.586,0,0,0,.551.388h.56a.7.7,0,1,1,0,1.4Zm.313-2.541a1.87,1.87,0,0,0-2.6-2.616,1.87,1.87,0,0,0-3.684,0A1.87,1.87,0,0,0,5.164,9.457a1.87,1.87,0,0,0-.014,3.689,1.87,1.87,0,0,0,2.619,2.6,1.87,1.87,0,0,0,3.689,0,1.87,1.87,0,0,0,2.607-2.6,1.87,1.87,0,0,0-.014-3.684Z" transform="translate(0.399 0.588)" fill="#333"/>
  <path id="Path_2971" data-name="Path 2971" d="M9.2,11.677a.78.78,0,1,1,.78-.78A.781.781,0,0,1,9.2,11.677Zm0-2.732A1.952,1.952,0,1,0,11.147,10.9,1.954,1.954,0,0,0,9.2,8.946Z" transform="translate(0.805 0.994)" fill="#333"/>
</svg>
