<svg width="10" height="10" viewBox="0 0 10 10" fill="none" xmlns="http://www.w3.org/2000/svg">
<g id="Group">
<path id="Vector" d="M8.11326 4.11842C8.13335 4.04336 8.12283 3.9634 8.08398 3.89611L7.49804 2.88123C7.45919 2.81395 7.39519 2.76484 7.32015 2.74473C7.24513 2.72463 7.16513 2.73514 7.09785 2.774L6.71038 2.9977C6.46757 2.79174 6.18566 2.6307 5.87902 2.52283V2.07031C5.87902 1.90852 5.74785 1.77734 5.58605 1.77734H4.41417C4.25238 1.77734 4.12121 1.90852 4.12121 2.07031V2.52283C3.81456 2.6307 3.53263 2.79174 3.28984 2.9977L2.90238 2.774C2.83509 2.73514 2.75503 2.72461 2.68007 2.74473C2.60501 2.76482 2.54103 2.81393 2.50218 2.88123L1.91624 3.89611C1.8774 3.9634 1.86687 4.04338 1.88697 4.11842C1.90708 4.19348 1.95619 4.25746 2.02347 4.29631L2.41447 4.52203C2.37984 4.69045 2.36337 4.846 2.36337 5C2.36337 5.154 2.37984 5.30955 2.41443 5.47797L2.02343 5.70369C1.95615 5.74254 1.90705 5.80654 1.88693 5.88158C1.86683 5.95664 1.87736 6.0366 1.91621 6.10389L2.50214 7.11877C2.54099 7.18605 2.60499 7.23516 2.68003 7.25527C2.75511 7.27541 2.83507 7.26486 2.90234 7.226L3.2898 7.00231C3.53261 7.20826 3.81453 7.3693 4.12117 7.47717V7.92969C4.12117 8.09148 4.25234 8.22266 4.41413 8.22266H5.58601C5.74781 8.22266 5.87898 8.09148 5.87898 7.92969V7.47717C6.18562 7.3693 6.46755 7.20826 6.71035 7.00231L7.09781 7.226C7.16509 7.26484 7.24511 7.27537 7.32011 7.25527C7.39517 7.23518 7.45915 7.18607 7.498 7.11877L8.08394 6.10389C8.12279 6.0366 8.13331 5.95662 8.11322 5.88158C8.0931 5.80652 8.044 5.74254 7.97671 5.70369L7.58572 5.47797C7.62035 5.30955 7.63681 5.154 7.63681 5C7.63681 4.846 7.62035 4.69045 7.58576 4.52203L7.97675 4.29631C8.04404 4.25746 8.09312 4.19348 8.11326 4.11842ZM6.96708 4.45629C7.02425 4.66227 7.05087 4.83502 7.05087 5C7.05087 5.16498 7.02425 5.33773 6.96708 5.54371C6.93138 5.67242 6.98722 5.809 7.1029 5.87578L7.43005 6.06463L7.13708 6.57205L6.81622 6.38682C6.70056 6.32004 6.55437 6.33992 6.46078 6.43519C6.20589 6.69457 5.87792 6.88191 5.5123 6.97697C5.3832 7.01055 5.29304 7.12711 5.29304 7.26053V7.63672H4.7071V7.26053C4.7071 7.12711 4.61697 7.01055 4.48785 6.97697C4.12222 6.88191 3.79425 6.69459 3.53937 6.43519C3.44576 6.3399 3.29951 6.32002 3.18392 6.38682L2.86306 6.57205L2.57009 6.06463L2.89724 5.87578C3.01292 5.809 3.06876 5.67242 3.03306 5.54371C2.97593 5.33773 2.94931 5.16498 2.94931 5C2.94931 4.83502 2.97593 4.66227 3.0331 4.45629C3.0688 4.32758 3.01296 4.191 2.89728 4.12422L2.57013 3.93537L2.8631 3.42795L3.18396 3.61318C3.29962 3.67994 3.4458 3.66008 3.53941 3.5648C3.79429 3.30543 4.12226 3.11809 4.48788 3.02303C4.61699 2.98945 4.70714 2.87289 4.70714 2.73947V2.36328H5.29308V2.73947C5.29308 2.87289 5.38322 2.98945 5.51234 3.02303C5.87796 3.11809 6.20593 3.30541 6.46081 3.5648C6.55441 3.66008 6.70064 3.67994 6.81626 3.61318L7.13712 3.42795L7.43009 3.93537L7.10294 4.12422C6.98722 4.191 6.93138 4.32758 6.96708 4.45629Z" fill="#222222"/>
<path id="Vector_2" d="M5 3.53516C4.19229 3.53516 3.53516 4.19229 3.53516 5C3.53516 5.80771 4.19229 6.46484 5 6.46484C5.80771 6.46484 6.46484 5.80771 6.46484 5C6.46484 4.19229 5.80771 3.53516 5 3.53516ZM5 5.87891C4.51537 5.87891 4.12109 5.48463 4.12109 5C4.12109 4.51537 4.51537 4.12109 5 4.12109C5.48463 4.12109 5.87891 4.51537 5.87891 5C5.87891 5.48463 5.48463 5.87891 5 5.87891Z" fill="#222222"/>
<path id="Vector_3" d="M8.936 2.30693C9.05514 2.18779 9.00678 2.00709 9.00678 2.00709L8.59246 0.764121C8.54129 0.610605 8.37535 0.527637 8.22188 0.578828C8.06838 0.63 7.98543 0.795918 8.03658 0.949414L8.0718 1.05506C7.80891 0.854961 7.52561 0.678613 7.22736 0.530684C6.52744 0.183516 5.75723 0 5 0C3.67168 0 2.41809 0.52209 1.4701 1.47008C0.52207 2.41809 0 3.6717 0 5C0 5.6135 0.128887 6.24197 0.383027 6.86803C0.429238 6.98186 0.538867 7.05086 0.65457 7.05086C0.69127 7.05086 0.728594 7.04393 0.764688 7.02928C0.914609 6.9684 0.986797 6.79754 0.925938 6.64762C0.700312 6.09191 0.585938 5.53758 0.585938 5C0.585938 2.56607 2.56607 0.585938 5 0.585938C5.89338 0.585938 6.79522 0.883125 7.54449 1.39855C7.40129 1.36912 7.25539 1.45061 7.20799 1.59277C7.15684 1.74627 7.23979 1.91219 7.39328 1.96336L8.63625 2.37768C8.63625 2.37768 8.81141 2.43152 8.936 2.30693Z" fill="#222222"/>
<path id="Vector_4" d="M0.992998 7.99285L1.40731 9.23582C1.44825 9.35859 1.56253 9.43625 1.68522 9.43623C1.71593 9.43623 1.74718 9.43137 1.7779 9.42113C1.9314 9.36996 2.01435 9.20406 1.96319 9.05055L1.92798 8.9449C2.19087 9.145 2.47417 9.32135 2.77241 9.46929C3.47241 9.81644 4.24263 9.99996 4.99985 9.99996C6.32817 9.99996 7.58177 9.47789 8.52976 8.52988C9.47778 7.58187 9.99985 6.32826 9.99985 4.99996C9.99985 4.38646 9.87097 3.75799 9.61683 3.13193C9.55597 2.98201 9.38507 2.90984 9.23517 2.97068C9.08524 3.03156 9.01306 3.20242 9.07392 3.35234C9.29954 3.90804 9.41392 4.46238 9.41392 4.99996C9.41392 7.43388 7.43378 9.41402 4.99985 9.41402C4.10649 9.41402 3.20464 9.11683 2.45536 8.60139C2.59858 8.63082 2.74446 8.54935 2.79187 8.40717C2.84302 8.25367 2.76007 8.08775 2.60657 8.03658L1.3636 7.62226C1.18993 7.56437 1.06376 7.69304 1.06376 7.69304C0.942061 7.81472 0.992998 7.99285 0.992998 7.99285Z" fill="#222222"/>
</g>
</svg>
