<svg width="14" height="14" viewBox="0 0 14 14" fill="none" xmlns="http://www.w3.org/2000/svg">
<g clip-path="url(#clip0_6952_5013)">
<path d="M12.8334 7.0013C12.8334 3.77964 10.2217 1.16797 7.00008 1.16797C3.77842 1.16797 1.16675 3.77964 1.16675 7.0013C1.16675 10.2229 3.77842 12.8346 7.00008 12.8346C7.49107 12.8346 8.16675 12.9025 8.16675 12.2513C8.16675 11.8961 7.98195 11.622 7.79843 11.3497C7.52987 10.9513 7.26392 10.5569 7.58342 9.91797C7.97232 9.14021 8.62047 9.14021 9.61429 9.14021C10.1112 9.14021 10.6946 9.14021 11.3751 9.04297C12.6007 8.86791 12.8334 8.11454 12.8334 7.0013Z" stroke="#616161"/>
<path d="M4.08325 8.7514L4.08832 8.75" stroke="#616161" stroke-linecap="round" stroke-linejoin="round"/>
<path d="M5.54175 5.83203C6.025 5.83203 6.41675 5.44028 6.41675 4.95703C6.41675 4.47378 6.025 4.08203 5.54175 4.08203C5.0585 4.08203 4.66675 4.47378 4.66675 4.95703C4.66675 5.44028 5.0585 5.83203 5.54175 5.83203Z" stroke="#616161"/>
<path d="M9.625 6.41797C10.1082 6.41797 10.5 6.02622 10.5 5.54297C10.5 5.05972 10.1082 4.66797 9.625 4.66797C9.14175 4.66797 8.75 5.05972 8.75 5.54297C8.75 6.02622 9.14175 6.41797 9.625 6.41797Z" stroke="#616161"/>
</g>
<defs>
<clipPath id="clip0_6952_5013">
<rect width="14" height="14" fill="white"/>
</clipPath>
</defs>
</svg>
