<svg width="14" height="14" viewBox="0 0 14 14" fill="none" xmlns="http://www.w3.org/2000/svg">
<g id="Group 403">
<path id="Vector" d="M11.698 0H2.30201C1.03262 0 0 1.03262 0 2.30201V11.698C0 12.9674 1.03262 14 2.30201 14H11.698C12.9674 14 14 12.9674 14 11.698V2.30201C14 1.03262 12.9674 0 11.698 0ZM2.30201 0.845638H11.698C12.5009 0.845638 13.1544 1.49913 13.1544 2.30201V3.99329H0.845638V2.30201C0.845638 1.49913 1.49913 0.845638 2.30201 0.845638ZM11.698 13.1544H2.30201C1.49913 13.1544 0.845638 12.5009 0.845638 11.698V4.83893H13.1544V11.698C13.1544 12.5009 12.5009 13.1544 11.698 13.1544Z" fill="#112D55"/>
<path id="Vector_2" d="M2.75339 2.84222H3.55486C3.78835 2.84222 3.97768 2.65289 3.97768 2.4194C3.97768 2.18591 3.78835 1.99658 3.55486 1.99658H2.75339C2.5199 1.99658 2.33057 2.18591 2.33057 2.4194C2.33057 2.65289 2.5199 2.84222 2.75339 2.84222Z" fill="#112D55"/>
<path id="Vector_3" d="M5.40622 2.84222H11.2463C11.4798 2.84222 11.6691 2.65289 11.6691 2.4194C11.6691 2.18591 11.4798 1.99658 11.2463 1.99658H5.40622C5.17273 1.99658 4.9834 2.18591 4.9834 2.4194C4.9834 2.65289 5.17273 2.84222 5.40622 2.84222Z" fill="#112D55"/>
<path id="Vector_4" d="M9.87575 7.63428H4.12448C3.89099 7.63428 3.70166 7.82361 3.70166 8.0571C3.70166 8.29059 3.89099 8.47991 4.12448 8.47991H9.87575C10.1092 8.47991 10.2986 8.29059 10.2986 8.0571C10.2986 7.82361 10.1092 7.63428 9.87575 7.63428Z" fill="#112D55"/>
<path id="Vector_5" d="M8.64767 9.51367H5.35251C5.11902 9.51367 4.92969 9.703 4.92969 9.93649C4.92969 10.17 5.11902 10.3593 5.35251 10.3593H8.64767C8.88116 10.3593 9.07049 10.17 9.07049 9.93649C9.07049 9.703 8.88116 9.51367 8.64767 9.51367Z" fill="#112D55"/>
</g>
</svg>
