<svg width="32" height="32" viewBox="0 0 32 32" fill="none" xmlns="http://www.w3.org/2000/svg">
<path d="M12.1501 25.6953H18.7544V29.9365H12.1501V25.6953Z" fill="#B1D7FE"/>
<path d="M17.7698 25.6953H18.7546V29.9365H17.7698V25.6953Z" fill="#8BC6F8"/>
<path fill-rule="evenodd" clip-rule="evenodd" d="M10.4889 29.3281H20.4154C21.4197 29.3281 22.2387 30.1367 22.2387 31.1277V31.5644H8.66577V31.1277C8.66577 30.1365 9.48471 29.3281 10.4889 29.3281Z" fill="#8BC6F8"/>
<path fill-rule="evenodd" clip-rule="evenodd" d="M10.4889 29.3281H19.2579C20.2621 29.3281 21.0811 30.1367 21.0811 31.1277V31.5644H8.66577V31.1277C8.66577 30.1365 9.48471 29.3281 10.4889 29.3281Z" fill="#B1D7FE"/>
<path d="M29.3386 5.77344H1.56611C0.950076 5.77344 0.450684 6.26635 0.450684 6.8744V25.2955C0.450684 25.9036 0.950076 26.3965 1.56611 26.3965H29.3386C29.9546 26.3965 30.454 25.9036 30.454 25.2955V6.8744C30.454 6.26635 29.9546 5.77344 29.3386 5.77344Z" fill="#B1D7FE"/>
<path d="M2.35645 7.65625H28.5483V23.4915H2.35645V7.65625Z" fill="white"/>
<path d="M10.0191 19.1135C10.1161 18.5232 9.70977 17.967 9.11164 17.8713C8.5135 17.7756 7.95002 18.1766 7.85306 18.767C7.75609 19.3573 8.16237 19.9135 8.76051 20.0092C9.35864 20.1049 9.92213 19.7039 10.0191 19.1135Z" fill="#B1D7FE"/>
<path fill-rule="evenodd" clip-rule="evenodd" d="M10.9243 15.2237C10.9243 14.6256 11.4156 14.1406 12.0216 14.1406C12.6276 14.1406 13.1189 14.6256 13.1189 15.2237C13.1189 15.8219 12.6276 16.3068 12.0216 16.3068C11.4156 16.3068 10.9243 15.8219 10.9243 15.2237Z" fill="#F23353"/>
<path d="M22.7365 19.711C23.165 19.2881 23.165 18.6025 22.7365 18.1796C22.3081 17.7567 21.6134 17.7567 21.185 18.1796C20.7565 18.6025 20.7565 19.2881 21.185 19.711C21.6134 20.1339 22.3081 20.1339 22.7365 19.711Z" fill="#FDC72E"/>
<path fill-rule="evenodd" clip-rule="evenodd" d="M19.9805 15.2237C19.9805 14.6256 19.4892 14.1406 18.8832 14.1406C18.2772 14.1406 17.7859 14.6256 17.7859 15.2237C17.7859 15.8219 18.2772 16.3068 18.8832 16.3068C19.4892 16.3068 19.9805 15.8219 19.9805 15.2237Z" fill="#2DD62D"/>
<path fill-rule="evenodd" clip-rule="evenodd" d="M7.84229 18.9443C7.84229 18.4537 8.1728 18.0395 8.62598 17.9062C9.07916 18.0395 9.40967 18.4537 9.40967 18.9443C9.40967 19.435 9.07916 19.8492 8.62598 19.9825C8.1728 19.8492 7.84229 19.435 7.84229 18.9443Z" fill="#4EB1FC"/>
<path fill-rule="evenodd" clip-rule="evenodd" d="M10.9243 15.2256C10.9243 14.735 11.2548 14.3206 11.708 14.1875C12.1612 14.3207 12.4917 14.7351 12.4917 15.2256C12.4917 15.7161 12.1612 16.1305 11.708 16.2637C11.2548 16.1305 10.9243 15.7162 10.9243 15.2256Z" fill="#FF5471"/>
<path fill-rule="evenodd" clip-rule="evenodd" d="M21.6514 17.9062C21.1982 18.0395 20.8677 18.4537 20.8677 18.9443C20.8677 19.435 21.1982 19.8492 21.6514 19.9825C22.1045 19.8492 22.4351 19.435 22.4351 18.9443C22.4351 18.4537 22.1045 18.0395 21.6514 17.9062Z" fill="#FFDB4E"/>
<path fill-rule="evenodd" clip-rule="evenodd" d="M18.5696 14.1875C18.1164 14.3207 17.7859 14.7351 17.7859 15.2256C17.7859 15.7161 18.1164 16.1305 18.5696 16.2637C19.0228 16.1305 19.3533 15.7162 19.3533 15.2256C19.3533 14.735 19.0228 14.3206 18.5696 14.1875Z" fill="#43F043"/>
<path d="M25.0994 9.14062H27.0384V11.0546H25.0994V9.14062Z" fill="#4EB1FC"/>
<path d="M25.6941 1.30469H28.0183V3.5988H25.6941V1.30469Z" fill="#FFDB4E"/>
<path d="M28.5481 4.6875H31.5494V7.64993H28.5481V4.6875Z" fill="#FF5471"/>
<path d="M26.4951 9.14062H27.0383V11.0546H26.4951V9.14062Z" fill="#B1D7FE"/>
<path d="M30.8494 4.6875H31.5497V7.64993H30.8494V4.6875Z" fill="#F23353"/>
<path d="M27.4751 1.30469H28.0183V3.5988H27.4751V1.30469Z" fill="#FDC72E"/>
<path fill-rule="evenodd" clip-rule="evenodd" d="M18.2433 2.18088L19.1867 1.55637L20.6787 3.02895L20.046 3.9602L20.6742 5.45678L21.7886 5.67367V7.75622L20.6742 7.97305L20.046 9.46969L20.6787 10.4009L19.1867 11.8735L18.2433 11.2489L16.7271 11.869L16.5073 12.9689H14.3974L14.1777 11.869L12.6614 11.2489L11.718 11.8735L10.226 10.4009L10.8588 9.46969L10.2306 7.97305L9.11621 7.75622V5.67367L10.2306 5.45678L10.8588 3.9602L10.226 3.02895L11.718 1.55637L12.6614 2.18088L14.1777 1.56082L14.3974 0.460938H16.5073L16.7271 1.56082L18.2433 2.18088Z" fill="#F9AC00"/>
<path fill-rule="evenodd" clip-rule="evenodd" d="M18.2433 2.18088L18.7792 1.82615L19.9979 3.02895L19.3652 3.9602L19.9934 5.45678L21.1078 5.67367V6.71494V7.75622L19.9934 7.97311L19.3652 9.46969L19.9979 10.4009L18.7793 11.6037L18.2433 11.2489L18.2433 11.249L17.6917 10.8839L16.1142 11.5289L15.8266 12.9689H14.3974L14.1777 11.869L12.6615 11.2489L12.6614 11.249L12.0971 11.0183L11.3516 11.5117L10.2261 10.4009L10.8588 9.46969L10.2306 7.97311L9.11621 7.75622V5.67367L10.2306 5.45678L10.8588 3.9602L10.2261 3.02895L11.3516 1.91815L12.0971 2.41162L12.6614 2.18088L14.1777 1.56082L14.3974 0.460938H15.8266L16.1142 1.90095L17.6917 2.54603L18.2433 2.18088Z" fill="#FFDB4E"/>
<path d="M16.1175 9.67519C17.7757 8.99678 18.5627 7.12001 17.8754 5.48331C17.1881 3.84661 15.2866 3.06977 13.6284 3.74818C11.9702 4.4266 11.1832 6.30337 11.8705 7.94007C12.5578 9.57677 14.4593 10.3536 16.1175 9.67519Z" fill="#F9AC00"/>
<path d="M18.6561 7.22795C18.9433 5.47966 17.7401 3.83263 15.9689 3.54922C14.1976 3.26581 12.529 4.45333 12.2418 6.20163C11.9547 7.94992 13.1578 9.59694 14.9291 9.88035C16.7003 10.1638 18.369 8.97624 18.6561 7.22795Z" fill="#F3F3FF"/>
<path fill-rule="evenodd" clip-rule="evenodd" d="M31.0994 7.20379H28.9987V5.13013H31.0994V7.20379ZM30.0043 25.289V8.09281H28.9988V23.4834C28.9988 23.7292 28.7972 23.9278 28.5482 23.9278H2.35641C2.10747 23.9278 1.90619 23.7292 1.90619 23.4834V7.64849C1.90619 7.40277 2.10741 7.20379 2.35641 7.20379H8.6565V6.21159H1.56578C1.19931 6.21159 0.900702 6.50601 0.900702 6.86804V25.289C0.900702 25.651 1.19931 25.9454 1.56578 25.9454H29.3389C29.7057 25.9454 30.0043 25.651 30.0043 25.289ZM18.3096 28.872H12.5955V26.8344H18.3096V28.872ZM21.7993 31.1113H9.10576C9.10949 30.3658 9.72497 29.7608 10.4815 29.7608H20.4232C21.1797 29.7608 21.7955 30.3658 21.7992 31.1113H21.7993ZM9.5572 6.02981L10.47 5.85261C10.6179 5.82353 10.7413 5.72378 10.7993 5.58664L11.3596 4.25323C11.417 4.11615 11.4014 3.95882 11.3171 3.83552L10.7987 3.07259L11.7695 2.11436L12.5424 2.62605C12.668 2.70929 12.8271 2.72459 12.9659 2.66738L14.3165 2.11436C14.4564 2.05773 14.5571 1.93595 14.5863 1.78998L14.7664 0.888704H16.1385L16.3186 1.78998C16.348 1.93595 16.4491 2.05773 16.588 2.11436L17.939 2.66738C18.0778 2.72459 18.2369 2.70929 18.3622 2.62605L19.1354 2.11436L20.1063 3.07259L19.5875 3.83552C19.5032 3.95882 19.488 4.11615 19.5457 4.25323L20.1063 5.58664C20.1633 5.72372 20.2867 5.82353 20.4349 5.85261L21.3474 6.02981V7.38493L20.4349 7.56278C20.2867 7.59122 20.1633 7.69097 20.1063 7.82875L19.5457 9.16215C19.488 9.29923 19.5032 9.45593 19.5875 9.57987L20.1063 10.3431L19.1354 11.301L18.3622 10.7887C18.2369 10.7061 18.0778 10.6908 17.939 10.7474L16.588 11.3004C16.4492 11.3576 16.348 11.4794 16.3186 11.6248L16.1385 12.5257H14.7664L14.5863 11.6248C14.5572 11.4794 14.4564 11.3576 14.3165 11.3004L12.9659 10.7474C12.8271 10.6907 12.668 10.706 12.5424 10.7887L11.7695 11.301L10.7987 10.3431L11.3171 9.57987C11.4014 9.45593 11.417 9.29923 11.3596 9.16215L10.7993 7.82875C10.7413 7.69103 10.6179 7.59128 10.47 7.56278L9.5572 7.38493V6.02981ZM28.098 7.20379H22.2481V6.21159H28.098V7.20379ZM9.58667 18.9406C9.58667 19.2922 9.29675 19.5787 8.93954 19.5787C8.58233 19.5787 8.29248 19.2922 8.29248 18.9406C8.29248 18.5889 8.58272 18.3019 8.93954 18.3019C9.29636 18.3019 9.58667 18.588 9.58667 18.9406ZM12.0216 15.8572C11.6653 15.8572 11.3744 15.5702 11.3744 15.2185C11.3744 14.8668 11.6653 14.5798 12.0216 14.5798C12.3779 14.5798 12.6686 14.866 12.6686 15.2185C12.6686 15.571 12.3784 15.8572 12.0216 15.8572ZM18.236 15.2185C18.236 14.866 18.5263 14.5798 18.8832 14.5798C19.24 14.5798 19.5302 14.866 19.5302 15.2185C19.5302 15.571 19.2403 15.8572 18.8832 15.8572C18.526 15.8572 18.236 15.5702 18.236 15.2185ZM21.318 18.9405C21.318 18.588 21.6088 18.3018 21.965 18.3018C22.3213 18.3018 22.6121 18.588 22.6121 18.9405C22.6121 19.293 22.3222 19.5786 21.965 19.5786C21.6079 19.5786 21.318 19.2921 21.318 18.9405ZM20.4842 19.3849C20.678 20.011 21.2684 20.4674 21.965 20.4674C22.8187 20.4674 23.5129 19.7825 23.5129 18.9405C23.5129 18.0985 22.8187 17.4127 21.965 17.4127C21.2683 17.4127 20.678 17.8693 20.4842 18.4958H18.285C18.0366 18.4958 17.8348 18.6947 17.8348 18.9404V23.0389H16.8466V17.8565L18.1551 16.5656C18.3718 16.6807 18.6202 16.7462 18.8832 16.7462C19.7364 16.7462 20.431 16.0604 20.431 15.2184C20.431 14.3765 19.7364 13.6907 18.8832 13.6907C18.0299 13.6907 17.3356 14.3759 17.3356 15.2184C17.3356 15.478 17.402 15.7225 17.5183 15.937L16.0786 17.3583C15.9937 17.4421 15.9459 17.555 15.9459 17.6726V23.0389H14.9587V17.6726C14.9587 17.555 14.911 17.4421 14.8269 17.3583L13.3864 15.937C13.5029 15.7225 13.5693 15.478 13.5693 15.2184C13.5693 14.376 12.8751 13.6907 12.0215 13.6907C11.1679 13.6907 10.4737 14.3759 10.4737 15.2184C10.4737 16.061 11.1685 16.7462 12.0215 16.7462C12.2844 16.7462 12.5328 16.6807 12.7495 16.5656L14.0579 17.8565V23.0389H13.0701V18.9404C13.0701 18.6947 12.868 18.4958 12.6196 18.4958H10.4204C10.2269 17.8693 9.63626 17.4127 8.93954 17.4127C8.08593 17.4127 7.39203 18.098 7.39203 18.9405C7.39203 19.783 8.08593 20.4674 8.93954 20.4674C9.63626 20.4674 10.2269 20.011 10.4204 19.3849H12.1694V23.0389H2.80664V8.09281H8.82111C8.87721 8.1384 8.94481 8.17148 9.01988 8.18614L10.0595 8.38875L10.4353 9.28202L9.84468 10.1512C9.72503 10.3277 9.74825 10.5625 9.90019 10.7131L11.3944 12.1882C11.5463 12.3379 11.785 12.3608 11.9637 12.2427L12.8436 11.6597L13.7496 12.0306L13.9539 13.0568C13.9957 13.2649 14.1811 13.4149 14.396 13.4149H16.509C16.7239 13.4149 16.909 13.2649 16.9509 13.0568L17.1555 12.0306L18.0612 11.6597L18.9411 12.2427C19.12 12.3608 19.3588 12.3379 19.5104 12.1882L21.0048 10.7131C21.1565 10.5625 21.1797 10.3278 21.06 10.1512L20.4697 9.28202L20.8452 8.38875L21.8848 8.18614C21.9598 8.17148 22.0274 8.1384 22.0842 8.09281H28.098V23.039H18.7352V19.3849H20.4842V19.3849ZM31.5498 4.24136H28.5482C28.2995 4.24136 28.0979 4.43996 28.0979 4.68574V5.32257H22.0841C22.0274 5.27698 21.9598 5.24333 21.8848 5.2286L20.8451 5.02663L20.4696 4.13272L21.06 3.26358C21.1797 3.08764 21.1564 2.85195 21.0048 2.7023L19.5103 1.22718C19.3587 1.07753 19.12 1.05397 18.941 1.17271L18.0611 1.75512L17.1555 1.38483L16.9508 0.358669C16.909 0.150541 16.7239 0 16.509 0H14.3959C14.1811 0 13.9956 0.150541 13.9538 0.358669L13.7495 1.38483L12.8435 1.75512L11.9636 1.17271C11.785 1.05397 11.5462 1.07753 11.3943 1.22718L9.90013 2.7023C9.74819 2.85195 9.72497 3.08757 9.84461 3.26358L10.4353 4.13272L10.0595 5.02663L9.01982 5.2286C8.94481 5.24327 8.87721 5.27698 8.82105 5.32257H1.56578C0.702576 5.32257 0 6.01604 0 6.86804V25.289C0 26.1413 0.702576 26.8344 1.56578 26.8344H11.6947V28.872H10.4814C9.22631 28.872 8.20499 29.8795 8.20499 31.1183V31.5557C8.20499 31.8014 8.40621 32 8.65522 32H22.2494C22.4984 32 22.6996 31.8014 22.6996 31.5557V31.1183C22.6996 29.8795 21.6783 28.872 20.4231 28.872H19.2099V26.8344H29.3388C30.202 26.8344 30.9046 26.1413 30.9046 25.289V8.09281H31.5498C31.7981 8.09281 32 7.89325 32 7.64843V4.68568C32 4.43996 31.7981 4.2413 31.5498 4.2413L31.5498 4.24136ZM26.1446 1.74471H27.5681V3.15005H26.1446V1.74471ZM25.6941 4.03875C25.4451 4.03875 25.2438 3.84015 25.2438 3.59437V1.30033C25.2438 1.05518 25.4451 0.855942 25.6941 0.855942H28.0182C28.2673 0.855942 28.4685 1.05518 28.4685 1.30033V3.59437C28.4685 3.84015 28.2673 4.03875 28.0182 4.03875H25.6941ZM25.5499 9.58291H26.5883V10.6078H25.5499V9.58291ZM25.0997 11.4966C24.8507 11.4966 24.6495 11.298 24.6495 11.0523V9.13859C24.6495 8.89288 24.8507 8.69396 25.0997 8.69396H27.0385C27.2875 8.69396 27.4888 8.89288 27.4888 9.13859V11.0523C27.4888 11.298 27.2876 11.4966 27.0385 11.4966H25.0997ZM15.4526 3.94053C16.9986 3.94053 18.2562 5.18149 18.2562 6.70741C18.2562 8.23332 16.9986 9.47491 15.4526 9.47491C13.9067 9.47491 12.6488 8.23364 12.6488 6.70741C12.6488 5.18117 13.9064 3.94053 15.4526 3.94053ZM15.4526 10.3639C13.4097 10.3639 11.748 8.72386 11.748 6.70741C11.748 4.69095 13.4097 3.05151 15.4526 3.05151C17.4956 3.05151 19.1565 4.69158 19.1565 6.70741C19.1565 8.72323 17.495 10.3639 15.4526 10.3639Z" fill="black"/>
</svg>
