<svg width="12" height="14" viewBox="0 0 12 14" fill="none" xmlns="http://www.w3.org/2000/svg">
<path id="icon/action/calendar_today_24px" fill-rule="evenodd" clip-rule="evenodd" d="M10.2 1.27273H10.8C11.46 1.27273 12 1.84545 12 2.54545V12.7273C12 13.4273 11.46 14 10.8 14H1.2C0.54 14 0 13.4273 0 12.7273V2.54545C0 1.84545 0.54 1.27273 1.2 1.27273H1.8V0.636364C1.8 0.286364 2.07 0 2.4 0C2.73 0 3 0.286364 3 0.636364V1.27273H9V0.636364C9 0.286364 9.27 0 9.6 0C9.93 0 10.2 0.286364 10.2 0.636364V1.27273ZM1.79975 12.7278H10.1997C10.5297 12.7278 10.7998 12.4414 10.7998 12.0914V4.45508H1.19975V12.0914C1.19975 12.4414 1.46975 12.7278 1.79975 12.7278Z" fill="#152027"/>
</svg>
