<svg width="32" height="32" viewBox="0 0 32 32" fill="none" xmlns="http://www.w3.org/2000/svg">
<path fill-rule="evenodd" clip-rule="evenodd" d="M14.7195 1.58081C14.7195 0.968937 14.2129 0.46875 13.5931 0.46875H2.80664C2.18682 0.46875 1.68024 0.968875 1.68024 1.58081V6.334C1.68024 6.94588 2.18688 7.44606 2.80664 7.44606H13.5931C14.2129 7.44606 14.7194 6.94594 14.7194 6.334L14.7195 1.58081Z" fill="#FFDB4E"/>
<path fill-rule="evenodd" clip-rule="evenodd" d="M23.7937 11.2795C23.5872 10.5133 23.1848 9.85175 22.6548 9.32856C21.5768 8.26793 19.9725 7.78731 18.3987 8.20412C17.6227 8.40806 16.9508 8.80537 16.4225 9.32856C15.3482 10.3927 14.8614 11.9765 15.2817 13.5302C15.6932 15.0412 16.8609 16.1533 18.2748 16.5719C19.3383 16.9195 20.9983 17.7939 22.52 15.6088C23.4165 14.7929 23.9465 13.6331 23.9447 12.4057C23.9447 12.0332 23.8961 11.6555 23.7937 11.2795Z" fill="#B1D7FE"/>
<path fill-rule="evenodd" clip-rule="evenodd" d="M9.13764 17.4882C7.85674 15.296 5.01637 14.544 2.79588 15.8104C0.575388 17.0767 -0.186321 19.879 1.09635 22.0711C2.37725 24.265 5.21763 25.0152 7.43812 23.7489C9.65868 22.4844 10.4204 19.6803 9.13764 17.4882Z" fill="#FF8389"/>
<path fill-rule="evenodd" clip-rule="evenodd" d="M6.78962 18.8298C6.25604 17.9164 5.07571 17.6042 4.15051 18.1309C3.22708 18.6577 2.91092 19.8247 3.4445 20.7363C3.97807 21.6479 5.15841 21.9601 6.08361 21.4333C7.00698 20.9066 7.3232 19.7414 6.78962 18.8298Z" fill="#E7ECF1"/>
<path fill-rule="evenodd" clip-rule="evenodd" d="M23.3303 17.9101V16.8477C23.3303 16.1844 22.9692 15.7694 22.52 15.608C21.7816 15.3402 20.8025 15.7534 20.8025 16.8477V12.5148C20.8025 10.7555 18.2748 10.7555 18.2748 12.5148V16.571V21.4714C18.2748 22.4185 18.0719 23.1333 17.4232 22.3369C16.4226 20.9003 15.6878 20.1182 14.2829 20.3593C13.4583 20.503 13.1439 21.2585 13.708 21.9751L17.7107 27.7712C18.5677 29.0144 18.6862 29.8055 18.6862 30.914C18.6862 31.2527 18.9683 31.5312 19.3132 31.5312H26.8011C27.1461 31.5312 27.4281 31.2527 27.4281 30.914V29.7079V29.002C27.4281 27.3987 28.17 27.5495 28.3838 25.5897C28.3838 23.3833 28.3838 21.1788 28.3838 18.9724C28.3838 17.213 25.8579 17.2112 25.8579 18.9724V17.91C25.858 16.1507 23.3303 16.1507 23.3303 17.9101Z" fill="#FFECE4"/>
<path fill-rule="evenodd" clip-rule="evenodd" d="M14.7195 1.58081C14.7195 0.968937 14.2129 0.46875 13.593 0.46875H11.2935C11.9133 0.46875 12.4199 0.968875 12.4199 1.58081V2.80813V5.05525V6.334C12.4199 6.94588 11.9133 7.44606 11.2935 7.44606H13.593C14.2129 7.44606 14.7195 6.94594 14.7195 6.334V1.58081Z" fill="#FFAF5D"/>
<path fill-rule="evenodd" clip-rule="evenodd" d="M23.7938 11.2795C23.5872 10.5133 23.1848 9.85175 22.6548 9.32856C21.5769 8.26793 19.9725 7.78731 18.3987 8.20412C17.8508 8.34781 17.3567 8.589 16.9273 8.90112C18.4239 8.589 19.924 9.07493 20.9462 10.0823C21.4762 10.6037 21.8787 11.2671 22.0853 12.0315C22.1877 12.4092 22.2361 12.7871 22.2361 13.1577C22.238 14.0871 21.9343 14.9774 21.3989 15.7082C21.7331 15.5096 22.1553 15.4759 22.52 15.6089C23.4164 14.793 23.9464 13.6331 23.9446 12.4058C23.9447 12.0332 23.8962 11.6555 23.7938 11.2795Z" fill="#8BC6F8"/>
<path fill-rule="evenodd" clip-rule="evenodd" d="M28.3839 18.9686C28.3839 17.791 27.2521 17.4007 26.5029 17.7998C26.873 17.9967 27.148 18.3868 27.148 18.9686V25.5859C26.9341 27.5457 26.1921 27.3949 26.1921 28.9982V29.7041V30.9102C26.1921 31.2489 25.9102 31.5274 25.5652 31.5274H26.8012C27.1461 31.5274 27.4282 31.2489 27.4282 30.9102V29.7041V28.9982C27.4282 27.3949 28.1702 27.5457 28.3839 25.5859C28.3839 24.3284 28.3839 23.0709 28.3839 21.8152V21.4144V18.9686Z" fill="#FFDDCE"/>
<path fill-rule="evenodd" clip-rule="evenodd" d="M30.9763 12.4061C30.9763 11.4359 30.1805 10.6484 29.1978 10.6484C28.2151 10.6484 27.4175 11.4359 27.4175 12.4061C27.4175 13.3762 28.215 14.1619 29.1978 14.1619C30.1805 14.1619 30.9763 13.3763 30.9763 12.4061Z" fill="#FF8389"/>
<path fill-rule="evenodd" clip-rule="evenodd" d="M30.7284 1.98014C29.6685 0.933703 27.9474 0.933703 26.8874 1.98014C25.8257 3.02658 25.8257 4.72564 26.8874 5.77208C27.9474 6.82027 29.6685 6.82027 30.7284 5.77208C31.7902 4.72564 31.7902 3.02652 30.7284 1.98014Z" fill="#FF8389"/>
<path fill-rule="evenodd" clip-rule="evenodd" d="M30.7284 5.77228C31.7902 4.72584 31.7902 3.02678 30.7284 1.98034C29.9524 1.21415 28.8205 1.0084 27.8558 1.3649C28.3229 1.47665 28.7666 1.71253 29.1331 2.07434C30.1931 3.12078 30.1931 4.81984 29.1331 5.86628C28.8493 6.14653 28.517 6.35221 28.1648 6.48171C29.0559 6.69634 30.0332 6.45865 30.7284 5.77228Z" fill="#FF6677"/>
<path fill-rule="evenodd" clip-rule="evenodd" d="M30.9763 12.4061C30.9763 11.4359 30.1805 10.6484 29.1978 10.6484C28.8727 10.6484 28.5672 10.7353 28.305 10.8861C28.9372 11.1539 29.381 11.7764 29.381 12.5001C29.381 13.1474 29.0235 13.7149 28.4936 14.0183C28.7091 14.1105 28.9463 14.1619 29.1978 14.1619C30.1805 14.1619 30.9763 13.3763 30.9763 12.4061Z" fill="#FF6677"/>
<path fill-rule="evenodd" clip-rule="evenodd" d="M7.29624 17.5312C8.57898 19.7234 7.81721 22.5274 5.59672 23.792C5.18354 24.0279 4.74699 24.1946 4.30498 24.2939C5.3452 24.4766 6.45183 24.3117 7.43812 23.7494C9.65861 22.4849 10.4204 19.6808 9.13765 17.4887C8.09565 15.7044 6.02066 14.8744 4.08762 15.3089C5.3883 15.5377 6.58301 16.311 7.29624 17.5312Z" fill="#FF6677"/>
<path d="M12.463 2.33594H7.50101C7.23847 2.33594 7.02573 2.54581 7.02573 2.80469C7.02573 3.06356 7.23847 3.27344 7.50101 3.27344H12.463C12.7256 3.27344 12.9384 3.06356 12.9384 2.80469C12.9384 2.54581 12.7256 2.33594 12.463 2.33594Z" fill="black"/>
<path d="M3.60616 3.27344H5.05233C5.31487 3.27344 5.5276 3.06356 5.5276 2.80469C5.5276 2.54581 5.31487 2.33594 5.05233 2.33594H3.60616C3.34361 2.33594 3.13088 2.54581 3.13088 2.80469C3.13088 3.06356 3.34368 3.27344 3.60616 3.27344Z" fill="black"/>
<path d="M3.60616 5.52344H8.56817C8.83071 5.52344 9.04345 5.31356 9.04345 5.05469C9.04345 4.79581 8.83071 4.58594 8.56817 4.58594H3.60616C3.34361 4.58594 3.13088 4.79581 3.13088 5.05469C3.13088 5.31356 3.34368 5.52344 3.60616 5.52344Z" fill="black"/>
<path d="M12.463 4.58594H11.0168C10.7543 4.58594 10.5415 4.79581 10.5415 5.05469C10.5415 5.31356 10.7543 5.52344 11.0168 5.52344H12.463C12.7256 5.52344 12.9384 5.31356 12.9384 5.05469C12.9384 4.79581 12.7256 4.58594 12.463 4.58594Z" fill="black"/>
<path d="M29.1978 10.1786C28.117 10.1786 27.2117 10.9329 26.9928 11.9362H24.3966C24.3705 11.676 24.3232 11.4158 24.2529 11.1576C24.0699 10.4823 23.7471 9.86806 23.3103 9.34387L26.5745 6.12138C27.1742 6.70275 27.9659 7.02306 28.808 7.02306C29.6609 7.02306 30.4625 6.69494 31.0644 6.09975C31.6677 5.50513 32 4.714 32 3.87219C32 3.03038 31.6677 2.23931 31.0647 1.64494C30.4622 1.05019 29.6608 0.722687 28.808 0.722687C27.9551 0.722687 27.1538 1.05025 26.5513 1.64494C25.948 2.23956 25.6158 3.03056 25.6158 3.87219C25.6158 4.40263 25.7481 4.91281 25.9965 5.36637C25.9934 5.36925 25.9901 5.37175 25.9871 5.37475L22.6373 8.68169C22.4318 8.51562 22.2119 8.364 21.9772 8.23038C20.8484 7.58763 19.5338 7.41725 18.276 7.75044C17.5812 7.93381 16.9618 8.25731 16.4401 8.68169L14.9348 7.19569C15.0989 6.94762 15.1948 6.65169 15.1948 6.33388V1.58075C15.1947 0.709125 14.4763 0 13.593 0H2.80665C1.92352 0 1.20498 0.709125 1.20498 1.58075V6.33394C1.20498 7.20556 1.92352 7.91469 2.80665 7.91469H6.5524C6.81494 7.91469 7.02768 7.70481 7.02768 7.44594C7.02768 7.18706 6.81494 6.97719 6.5524 6.97719H2.80665C2.4476 6.97719 2.15553 6.68863 2.15553 6.33394V1.58075C2.15553 1.22606 2.4476 0.9375 2.80665 0.9375H13.593C13.9522 0.9375 14.2442 1.22606 14.2442 1.58075V6.33394C14.2442 6.68863 13.9522 6.97719 13.593 6.97719H8.7478C8.48525 6.97719 8.27252 7.18706 8.27252 7.44594C8.27252 7.70481 8.48525 7.91469 8.7478 7.91469H13.593C13.8078 7.91469 14.0125 7.8725 14.1998 7.79656L15.7697 9.34644C14.8796 10.4187 14.4668 11.8546 14.7423 13.2955L9.04703 16.543C9.04658 16.5432 9.04627 16.5436 9.04582 16.5438C8.37536 15.7473 7.47526 15.1742 6.4408 14.9008C5.12049 14.5517 3.74142 14.7313 2.55798 15.4061C0.114118 16.7999 -0.726297 19.8956 0.684513 22.3066C1.36726 23.4761 2.47067 24.3125 3.79142 24.6619C4.2323 24.7785 4.67956 24.8362 5.12404 24.8362C6.01122 24.8362 6.88706 24.6063 7.67601 24.1564C10.0992 22.7761 10.945 19.7226 9.5846 17.3195L15.0171 14.2219C15.5259 15.4613 16.5245 16.4283 17.7996 16.9062V21.2232V21.4716C17.7996 21.7079 17.7863 21.8811 17.7692 22.0061C16.8021 20.6249 15.9117 19.6043 14.2003 19.8979C13.6392 19.9957 13.2146 20.3149 13.0352 20.7738C12.8524 21.2416 12.9573 21.779 13.3231 22.2504L17.3177 28.0349C18.0821 29.1438 18.2111 29.8192 18.2111 30.9141C18.2111 31.5129 18.7056 32 19.3133 32H26.8012C27.4091 32 27.9036 31.5129 27.9036 30.9141V29.0022C27.9036 28.3069 28.0507 28.0243 28.2543 27.6332C28.4711 27.2166 28.7413 26.698 28.8566 25.6399C28.8584 25.6233 28.8594 25.6066 28.8594 25.5898V23.9847C28.8594 23.7258 28.6466 23.5159 28.3841 23.5159C28.1215 23.5159 27.9088 23.7258 27.9088 23.9847V25.5643C27.8111 26.4319 27.6065 26.8249 27.4087 27.205C27.1847 27.6353 26.953 28.0802 26.953 29.0021V30.914C26.953 30.9945 26.8835 31.0624 26.8012 31.0624H19.3132C19.231 31.0624 19.1615 30.9944 19.1615 30.914C19.1615 29.6726 18.998 28.8049 18.1036 27.5074L14.1009 21.7113C14.0953 21.7033 14.0896 21.6954 14.0835 21.6877C13.9192 21.4791 13.8604 21.2688 13.9222 21.1108C13.9788 20.9659 14.1404 20.8603 14.3644 20.8213C15.4617 20.6328 16.0493 21.1921 17.0316 22.6024C17.0382 22.6121 17.0454 22.6214 17.0528 22.6306C17.4113 23.0708 17.77 23.2326 18.119 23.1116C18.5555 22.9601 18.7502 22.4543 18.7502 21.4715V21.2232V12.5149C18.7502 11.8869 19.1749 11.6641 19.5387 11.6641C19.9025 11.6641 20.3272 11.8869 20.3272 12.5149V20.5989C20.3272 20.8578 20.5399 21.0677 20.8025 21.0677C21.065 21.0677 21.2778 20.8578 21.2778 20.5989V16.8478C21.2778 16.2198 21.7026 15.997 22.0664 15.997C22.154 15.997 22.2452 16.0103 22.3331 16.0387C22.3473 16.0447 22.3618 16.0501 22.3764 16.0546C22.635 16.155 22.8549 16.3963 22.8549 16.8478V21.225C22.8549 21.4839 23.0676 21.6938 23.3303 21.6938C23.5928 21.6938 23.8055 21.4839 23.8055 21.225V17.9102C23.8055 17.2822 24.2303 17.0594 24.5941 17.0594C24.9578 17.0594 25.3825 17.2822 25.3825 17.9102V21.8511C25.3825 22.1099 25.5954 22.3198 25.8579 22.3198C26.1204 22.3198 26.3331 22.1099 26.3331 21.8511V18.9726C26.3331 18.3441 26.7572 18.1211 27.1204 18.1211C27.3266 18.1211 27.5244 18.1949 27.663 18.3237C27.826 18.4749 27.9085 18.6932 27.9085 18.9725V21.8191C27.9085 22.0779 28.1212 22.2878 28.3838 22.2878C28.6464 22.2878 28.8591 22.0779 28.8591 21.8191V18.9725C28.8591 17.798 27.9844 17.1835 27.1203 17.1835C26.8267 17.1835 26.5319 17.2548 26.2706 17.3947C26.056 16.557 25.3213 16.1218 24.5939 16.1218C24.2999 16.1218 24.0047 16.1931 23.743 16.3331C23.6565 15.9949 23.4854 15.7222 23.2639 15.5174C23.9124 14.7617 24.3025 13.8386 24.3975 12.8737H26.9927C27.2117 13.8759 28.1169 14.6296 29.1976 14.6296C30.4404 14.6296 31.4515 13.6316 31.4515 12.4049C31.4516 11.1773 30.4406 10.1786 29.1978 10.1786ZM27.2234 2.30787C27.2233 2.30793 27.2235 2.30781 27.2234 2.30787C27.6462 1.89043 28.2092 1.66025 28.808 1.66025C29.4067 1.66025 29.9693 1.89019 30.3924 2.30787C30.8161 2.72544 31.0494 3.281 31.0494 3.87225C31.0494 4.4635 30.816 5.01913 30.3919 5.43719C29.9691 5.85531 29.4065 6.08563 28.808 6.08563C28.2093 6.08563 27.6468 5.85537 27.2234 5.43669C26.7997 5.01912 26.5664 4.46356 26.5664 3.87231C26.5664 3.28106 26.7997 2.72537 27.2234 2.30787ZM7.20048 23.3446C7.20055 23.3446 7.20036 23.3447 7.20048 23.3446C6.23624 23.8946 5.11275 24.0408 4.03768 23.7564C2.96242 23.472 2.06414 22.791 1.50801 21.8384C0.35879 19.8744 1.04326 17.3529 3.03377 16.2178C3.67577 15.8517 4.38831 15.6646 5.11047 15.6646C5.47207 15.6646 5.83613 15.7116 6.1948 15.8064C7.27064 16.0907 8.16954 16.7717 8.726 17.7241C9.87597 19.6894 9.19157 22.2107 7.20048 23.3446ZM23.4698 12.4123C23.469 13.3984 23.0861 14.3565 22.3797 15.0867C22.2762 15.0687 22.1712 15.0595 22.0664 15.0595C21.7955 15.0595 21.5235 15.1199 21.2779 15.2389V12.5149C21.2779 11.3409 20.403 10.7266 19.5387 10.7266C18.6745 10.7266 17.7996 11.3409 17.7996 12.5149V15.8853C16.7899 15.3965 16.0398 14.5061 15.741 13.4083C15.1807 11.3406 16.4281 9.20881 18.5222 8.656C19.5349 8.38775 20.5933 8.52481 21.5019 9.04237C22.4123 9.56069 23.0632 10.3979 23.3348 11.4002C23.4243 11.7293 23.4688 12.0629 23.4701 12.3935C23.47 12.3973 23.4695 12.4011 23.4695 12.4049C23.4695 12.4074 23.4698 12.4098 23.4698 12.4123ZM29.1978 13.6921C28.4781 13.6921 27.8927 13.1147 27.8927 12.4049C27.8927 11.6943 28.4781 11.1161 29.1978 11.1161C29.9165 11.1161 30.501 11.6943 30.501 12.4049C30.501 13.1146 29.9165 13.6921 29.1978 13.6921Z" fill="black"/>
<path d="M5.74002 17.4882C5.11931 17.324 4.47046 17.4082 3.91249 17.7258C2.76352 18.3812 2.36893 19.8371 3.03279 20.9713C3.35433 21.5208 3.87333 21.9136 4.49411 22.0776C4.70126 22.1323 4.9114 22.1595 5.12033 22.1595C5.53762 22.1595 5.94971 22.0514 6.32112 21.84C6.32099 21.84 6.32119 21.8399 6.32112 21.84C7.46964 21.1849 7.86464 19.7295 7.2014 18.5964C6.87987 18.0461 6.36092 17.6526 5.74002 17.4882ZM5.84553 21.0282C5.50821 21.2202 5.11557 21.2714 4.7401 21.1721C4.36458 21.0729 4.05064 20.8351 3.85603 20.5026C3.45401 19.8158 3.69285 18.9341 4.38808 18.5376C4.61299 18.4095 4.86228 18.3441 5.11475 18.3441C5.24117 18.3441 5.36842 18.3605 5.49364 18.3937C5.86911 18.4931 6.18311 18.7313 6.3779 19.0648C6.77949 19.7509 6.54071 20.6317 5.84553 21.0282Z" fill="black"/>
</svg>
