<svg xmlns="http://www.w3.org/2000/svg" width="23.5" height="20.647" viewBox="0 0 23.5 20.647">
  <g id="charity" transform="translate(0.25 -31.595)">
    <g id="Group_2624" data-name="Group 2624" transform="translate(5.501 31.992)">
      <g id="Group_2623" data-name="Group 2623">
        <path id="Path_30106" data-name="Path 30106" d="M110.459,32.876c-1.164-1.127-3.159-1.384-4.964.47-1.8-1.853-3.8-1.6-4.964-.471a3.443,3.443,0,0,0-.073,4.85L105.5,42.9l5.036-5.175A3.443,3.443,0,0,0,110.459,32.876Zm-.553,4.206L105.5,41.616l-4.411-4.533a2.515,2.515,0,0,1,.054-3.545,2.27,2.27,0,0,1,1.594-.636c1.267,0,1.836.778,2.763,1.73.9-.926,1.482-1.73,2.763-1.73a2.277,2.277,0,0,1,1.595.635A2.515,2.515,0,0,1,109.906,37.083Z" transform="translate(-99.496 -31.992)" fill="#05acd7" stroke="#05acd7" stroke-width="0.5"/>
      </g>
    </g>
    <g id="Group_2626" data-name="Group 2626" transform="translate(13.269 32.902)">
      <g id="Group_2625" data-name="Group 2625" transform="translate(0 0)">
        <path id="Path_30107" data-name="Path 30107" d="M248.219,48.009a1.522,1.522,0,0,0-1.5,1.4l-.56,5.682a1.409,1.409,0,0,0-.709.391l-4.468,4.274A3.126,3.126,0,0,0,240,62.007V67.1h5.308V64.7a1.394,1.394,0,0,1,.426-1l3.357-3.482a2.294,2.294,0,0,0,.64-1.6V49.563A1.535,1.535,0,0,0,248.219,48.009Zm.627,10.615a1.377,1.377,0,0,1-.385.961l-3.347,3.471a2.307,2.307,0,0,0-.692,1.647V66.19h-3.538V62.013a2.2,2.2,0,0,1,.693-1.589l4.482-4.29a.552.552,0,0,1,.459-.166.559.559,0,0,1,.354.166.6.6,0,0,1,.169.418.59.59,0,0,1-.154.4l-3.451,3.216.594.673,3.467-3.232a1.528,1.528,0,0,0,0-2.121,1.41,1.41,0,0,0-.463-.321l.558-5.672a.627.627,0,0,1,1.252.065Z" transform="translate(-240 -48.009)" stroke="#202224" stroke-width="0.5"/>
      </g>
    </g>
    <g id="Group_2628" data-name="Group 2628" transform="translate(0 32.902)">
      <g id="Group_2627" data-name="Group 2627" transform="translate(0 0)">
        <path id="Path_30108" data-name="Path 30108" d="M8.753,59.753,4.285,55.479a1.4,1.4,0,0,0-.709-.391l-.56-5.682a1.522,1.522,0,0,0-1.5-1.4A1.535,1.535,0,0,0,0,49.563v9.061a2.29,2.29,0,0,0,.64,1.6L4,63.7a1.4,1.4,0,0,1,.425,1v2.4H9.731V62.007A3.124,3.124,0,0,0,8.753,59.753Zm.093,6.437H5.308V64.7a2.308,2.308,0,0,0-.692-1.647L1.269,59.585a1.377,1.377,0,0,1-.385-.961V49.563a.637.637,0,0,1,.627-.645.633.633,0,0,1,.625.578l.558,5.672a1.438,1.438,0,0,0-.463.321,1.528,1.528,0,0,0,0,2.121L5.7,60.842l.594-.673L2.843,56.953a.585.585,0,0,1-.154-.4.6.6,0,0,1,.169-.418.574.574,0,0,1,.813,0l4.482,4.29a2.2,2.2,0,0,1,.693,1.589V66.19Z" transform="translate(0 -48.009)" stroke="#202224" stroke-width="0.5"/>
      </g>
    </g>
  </g>
</svg>
