<svg width="22" height="19" viewBox="0 0 22 19" fill="none" xmlns="http://www.w3.org/2000/svg">
<path d="M9 11.676V11.614C9 9.10595 11.016 6.99595 13.753 6.38095C13.389 4.07895 10.959 2.19995 7.9 2.19995C4.58 2.19995 2 4.41295 2 6.97995C2 7.94895 2.36 8.87995 3.04 9.67795C3.072 9.71595 3.123 9.77195 3.192 9.84295C3.7799 10.4472 4.13488 11.24 4.194 12.081C4.90809 11.6681 5.74197 11.5122 6.557 11.639C6.723 11.665 6.859 11.685 6.962 11.699C7.63908 11.7869 8.32518 11.7788 9 11.675V11.676ZM9.457 13.627C8.54728 13.7832 7.61924 13.8017 6.704 13.682C6.5524 13.6614 6.40106 13.6391 6.25 13.615C5.87628 13.5567 5.49398 13.6318 5.17 13.827L3.266 14.975C3.11936 15.0653 2.94764 15.1063 2.776 15.092C2.67219 15.0841 2.57095 15.0559 2.47809 15.0088C2.38522 14.9618 2.30255 14.8969 2.23483 14.8178C2.1671 14.7387 2.11565 14.6471 2.08341 14.5481C2.05118 14.4491 2.03881 14.3447 2.047 14.241L2.197 12.46C2.21569 12.2365 2.18617 12.0117 2.11043 11.8007C2.03469 11.5897 1.9145 11.3975 1.758 11.237C1.67488 11.1522 1.5945 11.0648 1.517 10.975C0.563 9.85495 0 8.47295 0 6.97895C0 3.23495 3.537 0.199951 7.9 0.199951C11.96 0.199951 15.303 2.82695 15.75 6.20795C19.122 6.36095 21.8 8.72295 21.8 11.614C21.8 12.807 21.344 13.91 20.571 14.804C20.52 14.864 20.455 14.934 20.376 15.014C20.2496 15.1412 20.1523 15.2944 20.0909 15.4629C20.0294 15.6314 20.0052 15.8112 20.02 15.99L20.141 17.413C20.1471 17.4964 20.1367 17.5802 20.1103 17.6596C20.084 17.739 20.0422 17.8124 19.9873 17.8756C19.9325 17.9388 19.8657 17.9905 19.7909 18.0278C19.716 18.0651 19.6345 18.0872 19.551 18.093C19.4121 18.1043 19.2731 18.0714 19.154 17.999L17.611 17.082C17.348 16.9263 17.0391 16.8666 16.737 16.913C16.59 16.936 16.467 16.9529 16.369 16.966C16.053 17.006 15.729 17.028 15.4 17.028C12.706 17.028 10.402 15.62 9.457 13.627ZM16.434 14.937C16.9983 14.8501 17.5755 14.91 18.11 15.111C18.2502 14.5438 18.5408 14.0249 18.951 13.609C19.001 13.559 19.038 13.519 19.057 13.497C19.546 12.932 19.8 12.284 19.8 11.614C19.8 9.80995 17.897 8.19995 15.4 8.19995C12.903 8.19995 11 9.80995 11 11.614C11 13.418 12.903 15.028 15.4 15.028C15.641 15.028 15.88 15.012 16.114 14.982C16.194 14.972 16.302 14.957 16.434 14.936V14.937Z" fill="#3A343C"/>
</svg>
