<svg width="14" height="14" viewBox="0 0 14 14" fill="none" xmlns="http://www.w3.org/2000/svg">
<g id="radio icon - selected 1" clip-path="url(#clip0_43_207)">
<g id="radio icon - selected">
<path id="Ellipse 29" d="M7 14C10.866 14 14 10.866 14 7C14 3.13401 10.866 0 7 0C3.13401 0 0 3.13401 0 7C0 10.866 3.13401 14 7 14Z" fill="#333334"/>
<path id="check" d="M10.3508 5.38979L6.37982 9.35879C6.33115 9.40759 6.27332 9.44631 6.20966 9.47272C6.146 9.49914 6.07775 9.51274 6.00882 9.51274C5.9399 9.51274 5.87165 9.49914 5.80798 9.47272C5.74432 9.44631 5.6865 9.40759 5.63782 9.35879L3.65582 7.37779C3.55743 7.27913 3.50225 7.14542 3.50244 7.00608C3.50263 6.86674 3.55816 6.73318 3.65682 6.63479C3.75548 6.53639 3.88919 6.48122 4.02853 6.48141C4.16787 6.48159 4.30143 6.53713 4.39982 6.63579L6.01082 8.24579L9.61082 4.64579C9.71034 4.55305 9.84198 4.50256 9.97799 4.50496C10.114 4.50736 10.2438 4.56246 10.34 4.65865C10.4361 4.75484 10.4912 4.88461 10.4936 5.02062C10.496 5.15663 10.4456 5.28826 10.3528 5.38779L10.3508 5.38979Z" fill="white"/>
</g>
</g>
<defs>
<clipPath id="clip0_43_207">
<rect width="14" height="14" fill="white"/>
</clipPath>
</defs>
</svg>
