<svg width="16" height="16" viewBox="0 0 16 16" fill="none" xmlns="http://www.w3.org/2000/svg">
<path d="M6.19078 11.6918C6.02951 11.6914 5.87483 11.6278 5.76001 11.5145L3.26216 9.05299C3.15625 8.93666 3.09891 8.78419 3.10192 8.62689C3.10493 8.4696 3.16807 8.31944 3.27837 8.20725C3.38866 8.09507 3.53773 8.02939 3.69495 8.0237C3.85217 8.01801 4.00559 8.07276 4.1237 8.17668L6.18524 10.2074L11.8714 4.49176C11.928 4.43284 11.9958 4.38579 12.0708 4.35334C12.1457 4.3209 12.2264 4.30371 12.3081 4.30277C12.3898 4.30184 12.4709 4.31719 12.5466 4.34792C12.6223 4.37864 12.6911 4.42414 12.7491 4.48175C12.807 4.53936 12.8529 4.60792 12.884 4.68345C12.9152 4.75898 12.931 4.83995 12.9305 4.92165C12.93 5.00335 12.9133 5.08414 12.8813 5.15931C12.8493 5.23447 12.8026 5.30251 12.744 5.35945L6.62709 11.5133C6.56966 11.5703 6.50156 11.6153 6.4267 11.646C6.35183 11.6766 6.27166 11.6921 6.19078 11.6918Z" fill="#262626"/>
<path d="M14.1538 16H1.84615C1.35652 16 0.886947 15.8055 0.540726 15.4593C0.194505 15.1131 0 14.6435 0 14.1538V1.84615C0 1.35652 0.194505 0.886947 0.540726 0.540726C0.886947 0.194505 1.35652 0 1.84615 0H14.1538C14.6435 0 15.1131 0.194505 15.4593 0.540726C15.8055 0.886947 16 1.35652 16 1.84615V14.1538C16 14.6435 15.8055 15.1131 15.4593 15.4593C15.1131 15.8055 14.6435 16 14.1538 16ZM1.84615 1.23077C1.68294 1.23077 1.52642 1.2956 1.41101 1.41101C1.2956 1.52642 1.23077 1.68294 1.23077 1.84615V14.1538C1.23077 14.3171 1.2956 14.4736 1.41101 14.589C1.52642 14.7044 1.68294 14.7692 1.84615 14.7692H14.1538C14.3171 14.7692 14.4736 14.7044 14.589 14.589C14.7044 14.4736 14.7692 14.3171 14.7692 14.1538V1.84615C14.7692 1.68294 14.7044 1.52642 14.589 1.41101C14.4736 1.2956 14.3171 1.23077 14.1538 1.23077H1.84615Z" fill="#262626"/>
</svg>
