<svg width="16" height="16" viewBox="0 0 16 16" fill="none" xmlns="http://www.w3.org/2000/svg">
<g id="Group 605">
<g id="Group 604">
<g id="Vector">
<mask id="path-1-inside-1_18_8590" fill="white">
<path d="M8 15C4.1402 15 1 11.8598 1 8C1 4.1402 4.1402 1 8 1C11.8598 1 15 4.1402 15 8C15 11.8598 11.8599 15 8 15ZM8 1.875C4.62267 1.875 1.875 4.62267 1.875 8C1.875 11.3773 4.62267 14.125 8 14.125C11.3773 14.125 14.125 11.3773 14.125 8C14.125 4.62267 11.3773 1.875 8 1.875Z"/>
</mask>
<path d="M8 14C4.69248 14 2 11.3075 2 8H0C0 12.4121 3.58792 16 8 16V14ZM2 8C2 4.69248 4.69248 2 8 2V0C3.58792 0 0 3.58792 0 8H2ZM8 2C11.3075 2 14 4.69248 14 8H16C16 3.58792 12.4121 0 8 0V2ZM14 8C14 11.3075 11.3076 14 8 14V16C12.4122 16 16 12.4121 16 8H14ZM8 0.875C4.07039 0.875 0.875 4.07039 0.875 8H2.875C2.875 5.17496 5.17496 2.875 8 2.875V0.875ZM0.875 8C0.875 11.9296 4.07039 15.125 8 15.125V13.125C5.17496 13.125 2.875 10.825 2.875 8H0.875ZM8 15.125C11.9296 15.125 15.125 11.9296 15.125 8H13.125C13.125 10.825 10.825 13.125 8 13.125V15.125ZM15.125 8C15.125 4.07039 11.9296 0.875 8 0.875V2.875C10.825 2.875 13.125 5.17496 13.125 8H15.125Z" fill="#112D55" mask="url(#path-1-inside-1_18_8590)"/>
</g>
<g id="Vector_2">
<mask id="path-3-inside-2_18_8590" fill="white">
<path d="M6.87776 10.7991C6.75902 10.7991 6.64527 10.7508 6.56276 10.6653L4.27289 8.29053C4.10524 8.11658 4.11031 7.83964 4.28417 7.67191C4.45804 7.50417 4.73515 7.50933 4.9028 7.68319L6.87689 9.73043L11.0096 5.42219C11.1768 5.24798 11.4538 5.24203 11.6281 5.40933C11.8025 5.57663 11.8083 5.85357 11.641 6.02787L7.19338 10.6644C7.11104 10.7502 6.9972 10.7989 6.8782 10.7991C6.87811 10.7991 6.87794 10.7991 6.87776 10.7991Z"/>
</mask>
<path d="M6.56276 10.6653L5.84291 11.3594L5.84325 11.3598L6.56276 10.6653ZM4.27289 8.29053L3.55286 8.98448L3.55303 8.98466L4.27289 8.29053ZM4.9028 7.68319L4.18295 8.37732L4.18295 8.37732L4.9028 7.68319ZM6.87689 9.73043L6.15704 10.4246L6.87877 11.173L7.59854 10.4227L6.87689 9.73043ZM11.0096 5.42219L10.2881 4.72973L10.2879 4.72994L11.0096 5.42219ZM11.6281 5.40933L10.9357 6.13078L10.9358 6.13095L11.6281 5.40933ZM11.641 6.02787L10.9196 5.3354L10.9193 5.33562L11.641 6.02787ZM7.19338 10.6644L6.47172 9.97215L6.47171 9.97217L7.19338 10.6644ZM6.8782 10.7991V11.7991L6.87967 11.7991L6.8782 10.7991ZM6.87776 9.79907C7.03047 9.79907 7.1764 9.86111 7.28228 9.97081L5.84325 11.3598C6.11415 11.6404 6.48758 11.7991 6.87776 11.7991V9.79907ZM7.28262 9.97116L4.99274 7.59641L3.55303 8.98466L5.84291 11.3594L7.28262 9.97116ZM4.99291 7.59658C5.20849 7.82026 5.20183 8.1761 4.97849 8.39158L3.58986 6.95224C3.01879 7.50319 3.00198 8.4129 3.55286 8.98448L4.99291 7.59658ZM4.97849 8.39158C4.75441 8.60777 4.39833 8.60068 4.18295 8.37732L5.62265 6.98906C5.07197 6.41798 4.16167 6.40057 3.58986 6.95224L4.97849 8.39158ZM4.18295 8.37732L6.15704 10.4246L7.59674 9.0363L5.62265 6.98906L4.18295 8.37732ZM7.59854 10.4227L11.7313 6.11445L10.2879 4.72994L6.15523 9.03818L7.59854 10.4227ZM11.7311 6.11466C11.5165 6.3382 11.1605 6.34658 10.9357 6.13078L12.3206 4.68789C11.7472 4.13748 10.8371 4.15776 10.2881 4.72973L11.7311 6.11466ZM10.9358 6.13095C10.7119 5.9161 10.7041 5.55988 10.9196 5.3354L12.3624 6.72034C12.9125 6.14726 12.8932 5.23717 12.3204 4.68771L10.9358 6.13095ZM10.9193 5.33562L6.47172 9.97215L7.91503 11.3567L12.3627 6.72012L10.9193 5.33562ZM6.47171 9.97217C6.57764 9.86173 6.72385 9.79929 6.87673 9.79907L6.87967 11.7991C7.27055 11.7985 7.64444 11.6388 7.91504 11.3566L6.47171 9.97217ZM6.8782 9.79907C6.8782 9.79907 6.8782 9.79907 6.8782 9.79907C6.8782 9.79907 6.8782 9.79907 6.8782 9.79907C6.8782 9.79907 6.8782 9.79907 6.8782 9.79907C6.8782 9.79907 6.8782 9.79907 6.8782 9.79907C6.8782 9.79907 6.8782 9.79907 6.8782 9.79907C6.8782 9.79907 6.8782 9.79907 6.8782 9.79907C6.8782 9.79907 6.8782 9.79907 6.8782 9.79907C6.8782 9.79907 6.8782 9.79907 6.8782 9.79907C6.8782 9.79907 6.8782 9.79907 6.8782 9.79907C6.8782 9.79907 6.8782 9.79907 6.8782 9.79907C6.87819 9.79907 6.87819 9.79907 6.87819 9.79907C6.87819 9.79907 6.87819 9.79907 6.87819 9.79907C6.87819 9.79907 6.87819 9.79907 6.87819 9.79907C6.87819 9.79907 6.87819 9.79907 6.87819 9.79907C6.87819 9.79907 6.87819 9.79907 6.87819 9.79907C6.87819 9.79907 6.87819 9.79907 6.87819 9.79907C6.87819 9.79907 6.87819 9.79907 6.87819 9.79907C6.87819 9.79907 6.87819 9.79907 6.87819 9.79907C6.87819 9.79907 6.87819 9.79907 6.87819 9.79907C6.87819 9.79907 6.87819 9.79907 6.87819 9.79907C6.87819 9.79907 6.87819 9.79907 6.87819 9.79907C6.87819 9.79907 6.87819 9.79907 6.87819 9.79907C6.87819 9.79907 6.87819 9.79907 6.87819 9.79907C6.87819 9.79907 6.87819 9.79907 6.87819 9.79907C6.87819 9.79907 6.87819 9.79907 6.87819 9.79907C6.87819 9.79907 6.87819 9.79907 6.87819 9.79907C6.87819 9.79907 6.87819 9.79907 6.87819 9.79907C6.87819 9.79907 6.87819 9.79907 6.87819 9.79907C6.87818 9.79907 6.87818 9.79907 6.87818 9.79907C6.87818 9.79907 6.87818 9.79907 6.87818 9.79907C6.87818 9.79907 6.87818 9.79907 6.87818 9.79907C6.87818 9.79907 6.87818 9.79907 6.87818 9.79907C6.87818 9.79907 6.87818 9.79907 6.87818 9.79907C6.87818 9.79907 6.87818 9.79907 6.87818 9.79907C6.87818 9.79907 6.87818 9.79907 6.87818 9.79907C6.87818 9.79907 6.87818 9.79907 6.87818 9.79907C6.87818 9.79907 6.87818 9.79907 6.87818 9.79907C6.87818 9.79907 6.87818 9.79907 6.87818 9.79907C6.87818 9.79907 6.87818 9.79907 6.87818 9.79907C6.87818 9.79907 6.87818 9.79907 6.87818 9.79907C6.87818 9.79907 6.87818 9.79907 6.87818 9.79907C6.87818 9.79907 6.87818 9.79907 6.87818 9.79907C6.87818 9.79907 6.87818 9.79907 6.87818 9.79907C6.87818 9.79907 6.87818 9.79907 6.87818 9.79907C6.87818 9.79907 6.87818 9.79907 6.87818 9.79907C6.87818 9.79907 6.87817 9.79907 6.87817 9.79907C6.87817 9.79907 6.87817 9.79907 6.87817 9.79907C6.87817 9.79907 6.87817 9.79907 6.87817 9.79907C6.87817 9.79907 6.87817 9.79907 6.87817 9.79907C6.87817 9.79907 6.87817 9.79907 6.87817 9.79907C6.87817 9.79907 6.87817 9.79907 6.87817 9.79907C6.87817 9.79907 6.87817 9.79907 6.87817 9.79907C6.87817 9.79907 6.87817 9.79907 6.87817 9.79907C6.87817 9.79907 6.87817 9.79907 6.87817 9.79907C6.87817 9.79907 6.87817 9.79907 6.87817 9.79907C6.87817 9.79907 6.87817 9.79907 6.87817 9.79907C6.87817 9.79907 6.87817 9.79907 6.87817 9.79907C6.87817 9.79907 6.87817 9.79907 6.87817 9.79907C6.87817 9.79907 6.87817 9.79907 6.87817 9.79907C6.87817 9.79907 6.87817 9.79907 6.87817 9.79907C6.87817 9.79907 6.87817 9.79907 6.87817 9.79907C6.87817 9.79907 6.87816 9.79907 6.87816 9.79907C6.87816 9.79907 6.87816 9.79907 6.87816 9.79907C6.87816 9.79907 6.87816 9.79907 6.87816 9.79907C6.87816 9.79907 6.87816 9.79907 6.87816 9.79907C6.87816 9.79907 6.87816 9.79907 6.87816 9.79907C6.87816 9.79907 6.87816 9.79907 6.87816 9.79907C6.87816 9.79907 6.87816 9.79907 6.87816 9.79907C6.87816 9.79907 6.87816 9.79907 6.87816 9.79907C6.87816 9.79907 6.87816 9.79907 6.87816 9.79907C6.87816 9.79907 6.87816 9.79907 6.87816 9.79907C6.87816 9.79907 6.87816 9.79907 6.87816 9.79907C6.87816 9.79907 6.87816 9.79907 6.87816 9.79907C6.87816 9.79907 6.87816 9.79907 6.87816 9.79907C6.87816 9.79907 6.87816 9.79907 6.87816 9.79907C6.87816 9.79907 6.87816 9.79907 6.87816 9.79907C6.87816 9.79907 6.87816 9.79907 6.87815 9.79907C6.87815 9.79907 6.87815 9.79907 6.87815 9.79907C6.87815 9.79907 6.87815 9.79907 6.87815 9.79907C6.87815 9.79907 6.87815 9.79907 6.87815 9.79907C6.87815 9.79907 6.87815 9.79907 6.87815 9.79907C6.87815 9.79907 6.87815 9.79907 6.87815 9.79907C6.87815 9.79907 6.87815 9.79907 6.87815 9.79907C6.87815 9.79907 6.87815 9.79907 6.87815 9.79907C6.87815 9.79907 6.87815 9.79907 6.87815 9.79907C6.87815 9.79907 6.87815 9.79907 6.87815 9.79907C6.87815 9.79907 6.87815 9.79907 6.87815 9.79907C6.87815 9.79907 6.87815 9.79907 6.87815 9.79907C6.87815 9.79907 6.87815 9.79907 6.87815 9.79907C6.87815 9.79907 6.87815 9.79907 6.87815 9.79907C6.87815 9.79907 6.87815 9.79907 6.87815 9.79907C6.87815 9.79907 6.87815 9.79907 6.87814 9.79907C6.87814 9.79907 6.87814 9.79907 6.87814 9.79907C6.87814 9.79907 6.87814 9.79907 6.87814 9.79907C6.87814 9.79907 6.87814 9.79907 6.87814 9.79907C6.87814 9.79907 6.87814 9.79907 6.87814 9.79907C6.87814 9.79907 6.87814 9.79907 6.87814 9.79907C6.87814 9.79907 6.87814 9.79907 6.87814 9.79907C6.87814 9.79907 6.87814 9.79907 6.87814 9.79907C6.87814 9.79907 6.87814 9.79907 6.87814 9.79907C6.87814 9.79907 6.87814 9.79907 6.87814 9.79907C6.87814 9.79907 6.87814 9.79907 6.87814 9.79907C6.87814 9.79907 6.87814 9.79907 6.87814 9.79907C6.87814 9.79907 6.87814 9.79907 6.87814 9.79907C6.87814 9.79907 6.87814 9.79907 6.87814 9.79907C6.87814 9.79907 6.87814 9.79907 6.87814 9.79907C6.87813 9.79907 6.87813 9.79907 6.87813 9.79907C6.87813 9.79907 6.87813 9.79907 6.87813 9.79907C6.87813 9.79907 6.87813 9.79907 6.87813 9.79907C6.87813 9.79907 6.87813 9.79907 6.87813 9.79907C6.87813 9.79907 6.87813 9.79907 6.87813 9.79907C6.87813 9.79907 6.87813 9.79907 6.87813 9.79907C6.87813 9.79907 6.87813 9.79907 6.87813 9.79907C6.87813 9.79907 6.87813 9.79907 6.87813 9.79907C6.87813 9.79907 6.87813 9.79907 6.87813 9.79907C6.87813 9.79907 6.87813 9.79907 6.87813 9.79907C6.87813 9.79907 6.87813 9.79907 6.87813 9.79907C6.87813 9.79907 6.87813 9.79907 6.87813 9.79907C6.87813 9.79907 6.87813 9.79907 6.87813 9.79907C6.87813 9.79907 6.87813 9.79907 6.87813 9.79907C6.87812 9.79907 6.87812 9.79907 6.87812 9.79907C6.87812 9.79907 6.87812 9.79907 6.87812 9.79907C6.87812 9.79907 6.87812 9.79907 6.87812 9.79907C6.87812 9.79907 6.87812 9.79907 6.87812 9.79907C6.87812 9.79907 6.87812 9.79907 6.87812 9.79907C6.87812 9.79907 6.87812 9.79907 6.87812 9.79907C6.87812 9.79907 6.87812 9.79907 6.87812 9.79907C6.87812 9.79907 6.87812 9.79907 6.87812 9.79907C6.87812 9.79907 6.87812 9.79907 6.87812 9.79907C6.87812 9.79907 6.87812 9.79907 6.87812 9.79907C6.87812 9.79907 6.87812 9.79907 6.87812 9.79907C6.87812 9.79907 6.87812 9.79907 6.87812 9.79907C6.87812 9.79907 6.87812 9.79907 6.87812 9.79907C6.87812 9.79907 6.87812 9.79907 6.87811 9.79907C6.87811 9.79907 6.87811 9.79907 6.87811 9.79907C6.87811 9.79907 6.87811 9.79907 6.87811 9.79907C6.87811 9.79907 6.87811 9.79907 6.87811 9.79907C6.87811 9.79907 6.87811 9.79907 6.87811 9.79907C6.87811 9.79907 6.87811 9.79907 6.87811 9.79907C6.87811 9.79907 6.87811 9.79907 6.87811 9.79907C6.87811 9.79907 6.87811 9.79907 6.87811 9.79907C6.87811 9.79907 6.87811 9.79907 6.87811 9.79907C6.87811 9.79907 6.87811 9.79907 6.87811 9.79907C6.87811 9.79907 6.87811 9.79907 6.87811 9.79907C6.87811 9.79907 6.87811 9.79907 6.87811 9.79907C6.87811 9.79907 6.87811 9.79907 6.87811 9.79907C6.87811 9.79907 6.87811 9.79907 6.87811 9.79907C6.8781 9.79907 6.8781 9.79907 6.8781 9.79907C6.8781 9.79907 6.8781 9.79907 6.8781 9.79907C6.8781 9.79907 6.8781 9.79907 6.8781 9.79907C6.8781 9.79907 6.8781 9.79907 6.8781 9.79907C6.8781 9.79907 6.8781 9.79907 6.8781 9.79907C6.8781 9.79907 6.8781 9.79907 6.8781 9.79907C6.8781 9.79907 6.8781 9.79907 6.8781 9.79907C6.8781 9.79907 6.8781 9.79907 6.8781 9.79907C6.8781 9.79907 6.8781 9.79907 6.8781 9.79907C6.8781 9.79907 6.8781 9.79907 6.8781 9.79907C6.8781 9.79907 6.8781 9.79907 6.8781 9.79907C6.8781 9.79907 6.8781 9.79907 6.8781 9.79907C6.8781 9.79907 6.8781 9.79907 6.8781 9.79907C6.87809 9.79907 6.87809 9.79907 6.87809 9.79907C6.87809 9.79907 6.87809 9.79907 6.87809 9.79907C6.87809 9.79907 6.87809 9.79907 6.87809 9.79907C6.87809 9.79907 6.87809 9.79907 6.87809 9.79907C6.87809 9.79907 6.87809 9.79907 6.87809 9.79907C6.87809 9.79907 6.87809 9.79907 6.87809 9.79907C6.87809 9.79907 6.87809 9.79907 6.87809 9.79907C6.87809 9.79907 6.87809 9.79907 6.87809 9.79907C6.87809 9.79907 6.87809 9.79907 6.87809 9.79907C6.87809 9.79907 6.87809 9.79907 6.87809 9.79907C6.87809 9.79907 6.87809 9.79907 6.87809 9.79907C6.87809 9.79907 6.87809 9.79907 6.87809 9.79907C6.87809 9.79907 6.87809 9.79907 6.87808 9.79907C6.87808 9.79907 6.87808 9.79907 6.87808 9.79907C6.87808 9.79907 6.87808 9.79907 6.87808 9.79907C6.87808 9.79907 6.87808 9.79907 6.87808 9.79907C6.87808 9.79907 6.87808 9.79907 6.87808 9.79907C6.87808 9.79907 6.87808 9.79907 6.87808 9.79907C6.87808 9.79907 6.87808 9.79907 6.87808 9.79907C6.87808 9.79907 6.87808 9.79907 6.87808 9.79907C6.87808 9.79907 6.87808 9.79907 6.87808 9.79907C6.87808 9.79907 6.87808 9.79907 6.87808 9.79907C6.87808 9.79907 6.87808 9.79907 6.87808 9.79907C6.87808 9.79907 6.87808 9.79907 6.87808 9.79907C6.87808 9.79907 6.87808 9.79907 6.87808 9.79907C6.87807 9.79907 6.87807 9.79907 6.87807 9.79907C6.87807 9.79907 6.87807 9.79907 6.87807 9.79907C6.87807 9.79907 6.87807 9.79907 6.87807 9.79907C6.87807 9.79907 6.87807 9.79907 6.87807 9.79907C6.87807 9.79907 6.87807 9.79907 6.87807 9.79907C6.87807 9.79907 6.87807 9.79907 6.87807 9.79907C6.87807 9.79907 6.87807 9.79907 6.87807 9.79907C6.87807 9.79907 6.87807 9.79907 6.87807 9.79907C6.87807 9.79907 6.87807 9.79907 6.87807 9.79907C6.87807 9.79907 6.87807 9.79907 6.87807 9.79907C6.87807 9.79907 6.87807 9.79907 6.87807 9.79907C6.87807 9.79907 6.87807 9.79907 6.87807 9.79907C6.87806 9.79907 6.87806 9.79907 6.87806 9.79907C6.87806 9.79907 6.87806 9.79907 6.87806 9.79907C6.87806 9.79907 6.87806 9.79907 6.87806 9.79907C6.87806 9.79907 6.87806 9.79907 6.87806 9.79907C6.87806 9.79907 6.87806 9.79907 6.87806 9.79907C6.87806 9.79907 6.87806 9.79907 6.87806 9.79907C6.87806 9.79907 6.87806 9.79907 6.87806 9.79907C6.87806 9.79907 6.87806 9.79907 6.87806 9.79907C6.87806 9.79907 6.87806 9.79907 6.87806 9.79907C6.87806 9.79907 6.87806 9.79907 6.87806 9.79907C6.87806 9.79907 6.87806 9.79907 6.87806 9.79907C6.87806 9.79907 6.87806 9.79907 6.87806 9.79907C6.87805 9.79907 6.87805 9.79907 6.87805 9.79907C6.87805 9.79907 6.87805 9.79907 6.87805 9.79907C6.87805 9.79907 6.87805 9.79907 6.87805 9.79907C6.87805 9.79907 6.87805 9.79907 6.87805 9.79907C6.87805 9.79907 6.87805 9.79907 6.87805 9.79907C6.87805 9.79907 6.87805 9.79907 6.87805 9.79907C6.87805 9.79907 6.87805 9.79907 6.87805 9.79907C6.87805 9.79907 6.87805 9.79907 6.87805 9.79907C6.87805 9.79907 6.87805 9.79907 6.87805 9.79907C6.87805 9.79907 6.87805 9.79907 6.87805 9.79907C6.87805 9.79907 6.87805 9.79907 6.87805 9.79907C6.87805 9.79907 6.87805 9.79907 6.87804 9.79907C6.87804 9.79907 6.87804 9.79907 6.87804 9.79907C6.87804 9.79907 6.87804 9.79907 6.87804 9.79907C6.87804 9.79907 6.87804 9.79907 6.87804 9.79907C6.87804 9.79907 6.87804 9.79907 6.87804 9.79907C6.87804 9.79907 6.87804 9.79907 6.87804 9.79907C6.87804 9.79907 6.87804 9.79907 6.87804 9.79907C6.87804 9.79907 6.87804 9.79907 6.87804 9.79907C6.87804 9.79907 6.87804 9.79907 6.87804 9.79907C6.87804 9.79907 6.87804 9.79907 6.87804 9.79907C6.87804 9.79907 6.87804 9.79907 6.87804 9.79907C6.87804 9.79907 6.87804 9.79907 6.87804 9.79907C6.87804 9.79907 6.87803 9.79907 6.87803 9.79907C6.87803 9.79907 6.87803 9.79907 6.87803 9.79907C6.87803 9.79907 6.87803 9.79907 6.87803 9.79907C6.87803 9.79907 6.87803 9.79907 6.87803 9.79907C6.87803 9.79907 6.87803 9.79907 6.87803 9.79907C6.87803 9.79907 6.87803 9.79907 6.87803 9.79907C6.87803 9.79907 6.87803 9.79907 6.87803 9.79907C6.87803 9.79907 6.87803 9.79907 6.87803 9.79907C6.87803 9.79907 6.87803 9.79907 6.87803 9.79907C6.87803 9.79907 6.87803 9.79907 6.87803 9.79907C6.87803 9.79907 6.87803 9.79907 6.87803 9.79907C6.87803 9.79907 6.87803 9.79907 6.87802 9.79907C6.87802 9.79907 6.87802 9.79907 6.87802 9.79907C6.87802 9.79907 6.87802 9.79907 6.87802 9.79907C6.87802 9.79907 6.87802 9.79907 6.87802 9.79907C6.87802 9.79907 6.87802 9.79907 6.87802 9.79907C6.87802 9.79907 6.87802 9.79907 6.87802 9.79907C6.87802 9.79907 6.87802 9.79907 6.87802 9.79907C6.87802 9.79907 6.87802 9.79907 6.87802 9.79907C6.87802 9.79907 6.87802 9.79907 6.87802 9.79907C6.87802 9.79907 6.87802 9.79907 6.87802 9.79907C6.87802 9.79907 6.87802 9.79907 6.87802 9.79907C6.87802 9.79907 6.87802 9.79907 6.87801 9.79907C6.87801 9.79907 6.87801 9.79907 6.87801 9.79907C6.87801 9.79907 6.87801 9.79907 6.87801 9.79907C6.87801 9.79907 6.87801 9.79907 6.87801 9.79907C6.87801 9.79907 6.87801 9.79907 6.87801 9.79907C6.87801 9.79907 6.87801 9.79907 6.87801 9.79907C6.87801 9.79907 6.87801 9.79907 6.87801 9.79907C6.87801 9.79907 6.87801 9.79907 6.87801 9.79907C6.87801 9.79907 6.87801 9.79907 6.87801 9.79907C6.87801 9.79907 6.87801 9.79907 6.87801 9.79907C6.87801 9.79907 6.87801 9.79907 6.87801 9.79907C6.87801 9.79907 6.87801 9.79907 6.87801 9.79907C6.878 9.79907 6.878 9.79907 6.878 9.79907C6.878 9.79907 6.878 9.79907 6.878 9.79907C6.878 9.79907 6.878 9.79907 6.878 9.79907C6.878 9.79907 6.878 9.79907 6.878 9.79907C6.878 9.79907 6.878 9.79907 6.878 9.79907C6.878 9.79907 6.878 9.79907 6.878 9.79907C6.878 9.79907 6.878 9.79907 6.878 9.79907C6.878 9.79907 6.878 9.79907 6.878 9.79907C6.878 9.79907 6.878 9.79907 6.878 9.79907C6.878 9.79907 6.878 9.79907 6.878 9.79907C6.878 9.79907 6.878 9.79907 6.878 9.79907C6.87799 9.79907 6.87799 9.79907 6.87799 9.79907C6.87799 9.79907 6.87799 9.79907 6.87799 9.79907C6.87799 9.79907 6.87799 9.79907 6.87799 9.79907C6.87799 9.79907 6.87799 9.79907 6.87799 9.79907C6.87799 9.79907 6.87799 9.79907 6.87799 9.79907C6.87799 9.79907 6.87799 9.79907 6.87799 9.79907C6.87799 9.79907 6.87799 9.79907 6.87799 9.79907C6.87799 9.79907 6.87799 9.79907 6.87799 9.79907C6.87799 9.79907 6.87799 9.79907 6.87799 9.79907C6.87799 9.79907 6.87799 9.79907 6.87799 9.79907C6.87799 9.79907 6.87799 9.79907 6.87798 9.79907C6.87798 9.79907 6.87798 9.79907 6.87798 9.79907C6.87798 9.79907 6.87798 9.79907 6.87798 9.79907C6.87798 9.79907 6.87798 9.79907 6.87798 9.79907C6.87798 9.79907 6.87798 9.79907 6.87798 9.79907C6.87798 9.79907 6.87798 9.79907 6.87798 9.79907C6.87798 9.79907 6.87798 9.79907 6.87798 9.79907C6.87798 9.79907 6.87798 9.79907 6.87798 9.79907C6.87798 9.79907 6.87798 9.79907 6.87798 9.79907C6.87798 9.79907 6.87798 9.79907 6.87798 9.79907C6.87798 9.79907 6.87798 9.79907 6.87798 9.79907C6.87798 9.79907 6.87797 9.79907 6.87797 9.79907C6.87797 9.79907 6.87797 9.79907 6.87797 9.79907C6.87797 9.79907 6.87797 9.79907 6.87797 9.79907C6.87797 9.79907 6.87797 9.79907 6.87797 9.79907C6.87797 9.79907 6.87797 9.79907 6.87797 9.79907C6.87797 9.79907 6.87797 9.79907 6.87797 9.79907C6.87797 9.79907 6.87797 9.79907 6.87797 9.79907C6.87797 9.79907 6.87797 9.79907 6.87797 9.79907C6.87797 9.79907 6.87797 9.79907 6.87797 9.79907C6.87797 9.79907 6.87797 9.79907 6.87797 9.79907C6.87797 9.79907 6.87797 9.79907 6.87797 9.79907C6.87796 9.79907 6.87796 9.79907 6.87796 9.79907C6.87796 9.79907 6.87796 9.79907 6.87796 9.79907C6.87796 9.79907 6.87796 9.79907 6.87796 9.79907C6.87796 9.79907 6.87796 9.79907 6.87796 9.79907C6.87796 9.79907 6.87796 9.79907 6.87796 9.79907C6.87796 9.79907 6.87796 9.79907 6.87796 9.79907C6.87796 9.79907 6.87796 9.79907 6.87796 9.79907C6.87796 9.79907 6.87796 9.79907 6.87796 9.79907C6.87796 9.79907 6.87796 9.79907 6.87796 9.79907C6.87796 9.79907 6.87796 9.79907 6.87796 9.79907C6.87796 9.79907 6.87795 9.79907 6.87795 9.79907C6.87795 9.79907 6.87795 9.79907 6.87795 9.79907C6.87795 9.79907 6.87795 9.79907 6.87795 9.79907C6.87795 9.79907 6.87795 9.79907 6.87795 9.79907C6.87795 9.79907 6.87795 9.79907 6.87795 9.79907C6.87795 9.79907 6.87795 9.79907 6.87795 9.79907C6.87795 9.79907 6.87795 9.79907 6.87795 9.79907C6.87795 9.79907 6.87795 9.79907 6.87795 9.79907C6.87795 9.79907 6.87795 9.79907 6.87795 9.79907C6.87795 9.79907 6.87795 9.79907 6.87795 9.79907C6.87795 9.79907 6.87795 9.79907 6.87794 9.79907C6.87794 9.79907 6.87794 9.79907 6.87794 9.79907C6.87794 9.79907 6.87794 9.79907 6.87794 9.79907C6.87794 9.79907 6.87794 9.79907 6.87794 9.79907C6.87794 9.79907 6.87794 9.79907 6.87794 9.79907C6.87794 9.79907 6.87794 9.79907 6.87794 9.79907C6.87794 9.79907 6.87794 9.79907 6.87794 9.79907C6.87794 9.79907 6.87794 9.79907 6.87794 9.79907C6.87794 9.79907 6.87794 9.79907 6.87794 9.79907C6.87794 9.79907 6.87794 9.79907 6.87794 9.79907C6.87794 9.79907 6.87794 9.79907 6.87794 9.79907C6.87794 9.79907 6.87793 9.79907 6.87793 9.79907C6.87793 9.79907 6.87793 9.79907 6.87793 9.79907C6.87793 9.79907 6.87793 9.79907 6.87793 9.79907C6.87793 9.79907 6.87793 9.79907 6.87793 9.79907C6.87793 9.79907 6.87793 9.79907 6.87793 9.79907C6.87793 9.79907 6.87793 9.79907 6.87793 9.79907C6.87793 9.79907 6.87793 9.79907 6.87793 9.79907C6.87793 9.79907 6.87793 9.79907 6.87793 9.79907C6.87793 9.79907 6.87793 9.79907 6.87793 9.79907C6.87793 9.79907 6.87793 9.79907 6.87793 9.79907C6.87793 9.79907 6.87793 9.79907 6.87792 9.79907C6.87792 9.79907 6.87792 9.79907 6.87792 9.79907C6.87792 9.79907 6.87792 9.79907 6.87792 9.79907C6.87792 9.79907 6.87792 9.79907 6.87792 9.79907C6.87792 9.79907 6.87792 9.79907 6.87792 9.79907C6.87792 9.79907 6.87792 9.79907 6.87792 9.79907C6.87792 9.79907 6.87792 9.79907 6.87792 9.79907C6.87792 9.79907 6.87792 9.79907 6.87792 9.79907C6.87792 9.79907 6.87792 9.79907 6.87792 9.79907C6.87792 9.79907 6.87792 9.79907 6.87792 9.79907C6.87792 9.79907 6.87792 9.79907 6.87791 9.79907C6.87791 9.79907 6.87791 9.79907 6.87791 9.79907C6.87791 9.79907 6.87791 9.79907 6.87791 9.79907C6.87791 9.79907 6.87791 9.79907 6.87791 9.79907C6.87791 9.79907 6.87791 9.79907 6.87791 9.79907C6.87791 9.79907 6.87791 9.79907 6.87791 9.79907C6.87791 9.79907 6.87791 9.79907 6.87791 9.79907C6.87791 9.79907 6.87791 9.79907 6.87791 9.79907C6.87791 9.79907 6.87791 9.79907 6.87791 9.79907C6.87791 9.79907 6.87791 9.79907 6.87791 9.79907C6.87791 9.79907 6.87791 9.79907 6.87791 9.79907C6.8779 9.79907 6.8779 9.79907 6.8779 9.79907C6.8779 9.79907 6.8779 9.79907 6.8779 9.79907C6.8779 9.79907 6.8779 9.79907 6.8779 9.79907C6.8779 9.79907 6.8779 9.79907 6.8779 9.79907C6.8779 9.79907 6.8779 9.79907 6.8779 9.79907C6.8779 9.79907 6.8779 9.79907 6.8779 9.79907C6.8779 9.79907 6.8779 9.79907 6.8779 9.79907C6.8779 9.79907 6.8779 9.79907 6.8779 9.79907C6.8779 9.79907 6.8779 9.79907 6.8779 9.79907C6.8779 9.79907 6.8779 9.79907 6.8779 9.79907C6.87789 9.79907 6.87789 9.79907 6.87789 9.79907C6.87789 9.79907 6.87789 9.79907 6.87789 9.79907C6.87789 9.79907 6.87789 9.79907 6.87789 9.79907C6.87789 9.79907 6.87789 9.79907 6.87789 9.79907C6.87789 9.79907 6.87789 9.79907 6.87789 9.79907C6.87789 9.79907 6.87789 9.79907 6.87789 9.79907C6.87789 9.79907 6.87789 9.79907 6.87789 9.79907C6.87789 9.79907 6.87789 9.79907 6.87789 9.79907C6.87789 9.79907 6.87789 9.79907 6.87789 9.79907C6.87789 9.79907 6.87789 9.79907 6.87789 9.79907C6.87788 9.79907 6.87788 9.79907 6.87788 9.79907C6.87788 9.79907 6.87788 9.79907 6.87788 9.79907C6.87788 9.79907 6.87788 9.79907 6.87788 9.79907C6.87788 9.79907 6.87788 9.79907 6.87788 9.79907C6.87788 9.79907 6.87788 9.79907 6.87788 9.79907C6.87788 9.79907 6.87788 9.79907 6.87788 9.79907C6.87788 9.79907 6.87788 9.79907 6.87788 9.79907C6.87788 9.79907 6.87788 9.79907 6.87788 9.79907C6.87788 9.79907 6.87788 9.79907 6.87788 9.79907C6.87788 9.79907 6.87788 9.79907 6.87788 9.79907C6.87787 9.79907 6.87787 9.79907 6.87787 9.79907C6.87787 9.79907 6.87787 9.79907 6.87787 9.79907C6.87787 9.79907 6.87787 9.79907 6.87787 9.79907C6.87787 9.79907 6.87787 9.79907 6.87787 9.79907C6.87787 9.79907 6.87787 9.79907 6.87787 9.79907C6.87787 9.79907 6.87787 9.79907 6.87787 9.79907C6.87787 9.79907 6.87787 9.79907 6.87787 9.79907C6.87787 9.79907 6.87787 9.79907 6.87787 9.79907C6.87787 9.79907 6.87787 9.79907 6.87787 9.79907C6.87787 9.79907 6.87787 9.79907 6.87787 9.79907C6.87786 9.79907 6.87786 9.79907 6.87786 9.79907C6.87786 9.79907 6.87786 9.79907 6.87786 9.79907C6.87786 9.79907 6.87786 9.79907 6.87786 9.79907C6.87786 9.79907 6.87786 9.79907 6.87786 9.79907C6.87786 9.79907 6.87786 9.79907 6.87786 9.79907C6.87786 9.79907 6.87786 9.79907 6.87786 9.79907C6.87786 9.79907 6.87786 9.79907 6.87786 9.79907C6.87786 9.79907 6.87786 9.79907 6.87786 9.79907C6.87786 9.79907 6.87786 9.79907 6.87786 9.79907C6.87786 9.79907 6.87786 9.79907 6.87786 9.79907C6.87785 9.79907 6.87785 9.79907 6.87785 9.79907C6.87785 9.79907 6.87785 9.79907 6.87785 9.79907C6.87785 9.79907 6.87785 9.79907 6.87785 9.79907C6.87785 9.79907 6.87785 9.79907 6.87785 9.79907C6.87785 9.79907 6.87785 9.79907 6.87785 9.79907C6.87785 9.79907 6.87785 9.79907 6.87785 9.79907C6.87785 9.79907 6.87785 9.79907 6.87785 9.79907C6.87785 9.79907 6.87785 9.79907 6.87785 9.79907C6.87785 9.79907 6.87785 9.79907 6.87785 9.79907C6.87785 9.79907 6.87785 9.79907 6.87785 9.79907C6.87784 9.79907 6.87784 9.79907 6.87784 9.79907C6.87784 9.79907 6.87784 9.79907 6.87784 9.79907C6.87784 9.79907 6.87784 9.79907 6.87784 9.79907C6.87784 9.79907 6.87784 9.79907 6.87784 9.79907C6.87784 9.79907 6.87784 9.79907 6.87784 9.79907C6.87784 9.79907 6.87784 9.79907 6.87784 9.79907C6.87784 9.79907 6.87784 9.79907 6.87784 9.79907C6.87784 9.79907 6.87784 9.79907 6.87784 9.79907C6.87784 9.79907 6.87784 9.79907 6.87784 9.79907C6.87784 9.79907 6.87784 9.79907 6.87783 9.79907C6.87783 9.79907 6.87783 9.79907 6.87783 9.79907C6.87783 9.79907 6.87783 9.79907 6.87783 9.79907C6.87783 9.79907 6.87783 9.79907 6.87783 9.79907C6.87783 9.79907 6.87783 9.79907 6.87783 9.79907C6.87783 9.79907 6.87783 9.79907 6.87783 9.79907C6.87783 9.79907 6.87783 9.79907 6.87783 9.79907C6.87783 9.79907 6.87783 9.79907 6.87783 9.79907C6.87783 9.79907 6.87783 9.79907 6.87783 9.79907C6.87783 9.79907 6.87783 9.79907 6.87783 9.79907C6.87783 9.79907 6.87783 9.79907 6.87782 9.79907C6.87782 9.79907 6.87782 9.79907 6.87782 9.79907C6.87782 9.79907 6.87782 9.79907 6.87782 9.79907C6.87782 9.79907 6.87782 9.79907 6.87782 9.79907C6.87782 9.79907 6.87782 9.79907 6.87782 9.79907C6.87782 9.79907 6.87782 9.79907 6.87782 9.79907C6.87782 9.79907 6.87782 9.79907 6.87782 9.79907C6.87782 9.79907 6.87782 9.79907 6.87782 9.79907C6.87782 9.79907 6.87782 9.79907 6.87782 9.79907C6.87782 9.79907 6.87782 9.79907 6.87782 9.79907C6.87782 9.79907 6.87781 9.79907 6.87781 9.79907C6.87781 9.79907 6.87781 9.79907 6.87781 9.79907C6.87781 9.79907 6.87781 9.79907 6.87781 9.79907C6.87781 9.79907 6.87781 9.79907 6.87781 9.79907C6.87781 9.79907 6.87781 9.79907 6.87781 9.79907C6.87781 9.79907 6.87781 9.79907 6.87781 9.79907C6.87781 9.79907 6.87781 9.79907 6.87781 9.79907C6.87781 9.79907 6.87781 9.79907 6.87781 9.79907C6.87781 9.79907 6.87781 9.79907 6.87781 9.79907C6.87781 9.79907 6.87781 9.79907 6.87781 9.79907C6.8778 9.79907 6.8778 9.79907 6.8778 9.79907C6.8778 9.79907 6.8778 9.79907 6.8778 9.79907C6.8778 9.79907 6.8778 9.79907 6.8778 9.79907C6.8778 9.79907 6.8778 9.79907 6.8778 9.79907C6.8778 9.79907 6.8778 9.79907 6.8778 9.79907C6.8778 9.79907 6.8778 9.79907 6.8778 9.79907C6.8778 9.79907 6.8778 9.79907 6.8778 9.79907C6.8778 9.79907 6.8778 9.79907 6.8778 9.79907C6.8778 9.79907 6.8778 9.79907 6.8778 9.79907C6.8778 9.79907 6.8778 9.79907 6.87779 9.79907C6.87779 9.79907 6.87779 9.79907 6.87779 9.79907C6.87779 9.79907 6.87779 9.79907 6.87779 9.79907C6.87779 9.79907 6.87779 9.79907 6.87779 9.79907C6.87779 9.79907 6.87779 9.79907 6.87779 9.79907C6.87779 9.79907 6.87779 9.79907 6.87779 9.79907C6.87779 9.79907 6.87779 9.79907 6.87779 9.79907C6.87779 9.79907 6.87779 9.79907 6.87779 9.79907C6.87779 9.79907 6.87779 9.79907 6.87779 9.79907C6.87779 9.79907 6.87779 9.79907 6.87779 9.79907C6.87779 9.79907 6.87779 9.79907 6.87778 9.79907C6.87778 9.79907 6.87778 9.79907 6.87778 9.79907C6.87778 9.79907 6.87778 9.79907 6.87778 9.79907C6.87778 9.79907 6.87778 9.79907 6.87778 9.79907C6.87778 9.79907 6.87778 9.79907 6.87778 9.79907C6.87778 9.79907 6.87778 9.79907 6.87778 9.79907C6.87778 9.79907 6.87778 9.79907 6.87778 9.79907C6.87778 9.79907 6.87778 9.79907 6.87778 9.79907C6.87778 9.79907 6.87778 9.79907 6.87778 9.79907C6.87778 9.79907 6.87778 9.79907 6.87778 9.79907C6.87778 9.79907 6.87777 9.79907 6.87777 9.79907C6.87777 9.79907 6.87777 9.79907 6.87777 9.79907C6.87777 9.79907 6.87777 9.79907 6.87777 9.79907C6.87777 9.79907 6.87777 9.79907 6.87777 9.79907C6.87777 9.79907 6.87777 9.79907 6.87777 9.79907C6.87777 9.79907 6.87777 9.79907 6.87777 9.79907C6.87777 9.79907 6.87777 9.79907 6.87777 9.79907C6.87777 9.79907 6.87777 9.79907 6.87777 9.79907C6.87777 9.79907 6.87777 9.79907 6.87777 9.79907C6.87777 9.79907 6.87777 9.79907 6.87777 9.79907C6.87776 9.79907 6.87776 9.79907 6.87776 9.79907C6.87776 9.79907 6.87776 9.79907 6.87776 9.79907C6.87776 9.79907 6.87776 9.79907 6.87776 9.79907V11.7991C6.87776 11.7991 6.87776 11.7991 6.87776 11.7991C6.87776 11.7991 6.87776 11.7991 6.87776 11.7991C6.87776 11.7991 6.87776 11.7991 6.87777 11.7991C6.87777 11.7991 6.87777 11.7991 6.87777 11.7991C6.87777 11.7991 6.87777 11.7991 6.87777 11.7991C6.87777 11.7991 6.87777 11.7991 6.87777 11.7991C6.87777 11.7991 6.87777 11.7991 6.87777 11.7991C6.87777 11.7991 6.87777 11.7991 6.87777 11.7991C6.87777 11.7991 6.87777 11.7991 6.87777 11.7991C6.87777 11.7991 6.87777 11.7991 6.87777 11.7991C6.87777 11.7991 6.87777 11.7991 6.87777 11.7991C6.87777 11.7991 6.87777 11.7991 6.87777 11.7991C6.87777 11.7991 6.87778 11.7991 6.87778 11.7991C6.87778 11.7991 6.87778 11.7991 6.87778 11.7991C6.87778 11.7991 6.87778 11.7991 6.87778 11.7991C6.87778 11.7991 6.87778 11.7991 6.87778 11.7991C6.87778 11.7991 6.87778 11.7991 6.87778 11.7991C6.87778 11.7991 6.87778 11.7991 6.87778 11.7991C6.87778 11.7991 6.87778 11.7991 6.87778 11.7991C6.87778 11.7991 6.87778 11.7991 6.87778 11.7991C6.87778 11.7991 6.87778 11.7991 6.87778 11.7991C6.87778 11.7991 6.87778 11.7991 6.87778 11.7991C6.87779 11.7991 6.87779 11.7991 6.87779 11.7991C6.87779 11.7991 6.87779 11.7991 6.87779 11.7991C6.87779 11.7991 6.87779 11.7991 6.87779 11.7991C6.87779 11.7991 6.87779 11.7991 6.87779 11.7991C6.87779 11.7991 6.87779 11.7991 6.87779 11.7991C6.87779 11.7991 6.87779 11.7991 6.87779 11.7991C6.87779 11.7991 6.87779 11.7991 6.87779 11.7991C6.87779 11.7991 6.87779 11.7991 6.87779 11.7991C6.87779 11.7991 6.87779 11.7991 6.87779 11.7991C6.87779 11.7991 6.87779 11.7991 6.87779 11.7991C6.8778 11.7991 6.8778 11.7991 6.8778 11.7991C6.8778 11.7991 6.8778 11.7991 6.8778 11.7991C6.8778 11.7991 6.8778 11.7991 6.8778 11.7991C6.8778 11.7991 6.8778 11.7991 6.8778 11.7991C6.8778 11.7991 6.8778 11.7991 6.8778 11.7991C6.8778 11.7991 6.8778 11.7991 6.8778 11.7991C6.8778 11.7991 6.8778 11.7991 6.8778 11.7991C6.8778 11.7991 6.8778 11.7991 6.8778 11.7991C6.8778 11.7991 6.8778 11.7991 6.8778 11.7991C6.8778 11.7991 6.8778 11.7991 6.87781 11.7991C6.87781 11.7991 6.87781 11.7991 6.87781 11.7991C6.87781 11.7991 6.87781 11.7991 6.87781 11.7991C6.87781 11.7991 6.87781 11.7991 6.87781 11.7991C6.87781 11.7991 6.87781 11.7991 6.87781 11.7991C6.87781 11.7991 6.87781 11.7991 6.87781 11.7991C6.87781 11.7991 6.87781 11.7991 6.87781 11.7991C6.87781 11.7991 6.87781 11.7991 6.87781 11.7991C6.87781 11.7991 6.87781 11.7991 6.87781 11.7991C6.87781 11.7991 6.87781 11.7991 6.87781 11.7991C6.87781 11.7991 6.87782 11.7991 6.87782 11.7991C6.87782 11.7991 6.87782 11.7991 6.87782 11.7991C6.87782 11.7991 6.87782 11.7991 6.87782 11.7991C6.87782 11.7991 6.87782 11.7991 6.87782 11.7991C6.87782 11.7991 6.87782 11.7991 6.87782 11.7991C6.87782 11.7991 6.87782 11.7991 6.87782 11.7991C6.87782 11.7991 6.87782 11.7991 6.87782 11.7991C6.87782 11.7991 6.87782 11.7991 6.87782 11.7991C6.87782 11.7991 6.87782 11.7991 6.87782 11.7991C6.87782 11.7991 6.87782 11.7991 6.87782 11.7991C6.87783 11.7991 6.87783 11.7991 6.87783 11.7991C6.87783 11.7991 6.87783 11.7991 6.87783 11.7991C6.87783 11.7991 6.87783 11.7991 6.87783 11.7991C6.87783 11.7991 6.87783 11.7991 6.87783 11.7991C6.87783 11.7991 6.87783 11.7991 6.87783 11.7991C6.87783 11.7991 6.87783 11.7991 6.87783 11.7991C6.87783 11.7991 6.87783 11.7991 6.87783 11.7991C6.87783 11.7991 6.87783 11.7991 6.87783 11.7991C6.87783 11.7991 6.87783 11.7991 6.87783 11.7991C6.87783 11.7991 6.87783 11.7991 6.87783 11.7991C6.87784 11.7991 6.87784 11.7991 6.87784 11.7991C6.87784 11.7991 6.87784 11.7991 6.87784 11.7991C6.87784 11.7991 6.87784 11.7991 6.87784 11.7991C6.87784 11.7991 6.87784 11.7991 6.87784 11.7991C6.87784 11.7991 6.87784 11.7991 6.87784 11.7991C6.87784 11.7991 6.87784 11.7991 6.87784 11.7991C6.87784 11.7991 6.87784 11.7991 6.87784 11.7991C6.87784 11.7991 6.87784 11.7991 6.87784 11.7991C6.87784 11.7991 6.87784 11.7991 6.87784 11.7991C6.87784 11.7991 6.87784 11.7991 6.87785 11.7991C6.87785 11.7991 6.87785 11.7991 6.87785 11.7991C6.87785 11.7991 6.87785 11.7991 6.87785 11.7991C6.87785 11.7991 6.87785 11.7991 6.87785 11.7991C6.87785 11.7991 6.87785 11.7991 6.87785 11.7991C6.87785 11.7991 6.87785 11.7991 6.87785 11.7991C6.87785 11.7991 6.87785 11.7991 6.87785 11.7991C6.87785 11.7991 6.87785 11.7991 6.87785 11.7991C6.87785 11.7991 6.87785 11.7991 6.87785 11.7991C6.87785 11.7991 6.87785 11.7991 6.87785 11.7991C6.87785 11.7991 6.87785 11.7991 6.87786 11.7991C6.87786 11.7991 6.87786 11.7991 6.87786 11.7991C6.87786 11.7991 6.87786 11.7991 6.87786 11.7991C6.87786 11.7991 6.87786 11.7991 6.87786 11.7991C6.87786 11.7991 6.87786 11.7991 6.87786 11.7991C6.87786 11.7991 6.87786 11.7991 6.87786 11.7991C6.87786 11.7991 6.87786 11.7991 6.87786 11.7991C6.87786 11.7991 6.87786 11.7991 6.87786 11.7991C6.87786 11.7991 6.87786 11.7991 6.87786 11.7991C6.87786 11.7991 6.87786 11.7991 6.87786 11.7991C6.87786 11.7991 6.87786 11.7991 6.87787 11.7991C6.87787 11.7991 6.87787 11.7991 6.87787 11.7991C6.87787 11.7991 6.87787 11.7991 6.87787 11.7991C6.87787 11.7991 6.87787 11.7991 6.87787 11.7991C6.87787 11.7991 6.87787 11.7991 6.87787 11.7991C6.87787 11.7991 6.87787 11.7991 6.87787 11.7991C6.87787 11.7991 6.87787 11.7991 6.87787 11.7991C6.87787 11.7991 6.87787 11.7991 6.87787 11.7991C6.87787 11.7991 6.87787 11.7991 6.87787 11.7991C6.87787 11.7991 6.87787 11.7991 6.87787 11.7991C6.87787 11.7991 6.87787 11.7991 6.87788 11.7991C6.87788 11.7991 6.87788 11.7991 6.87788 11.7991C6.87788 11.7991 6.87788 11.7991 6.87788 11.7991C6.87788 11.7991 6.87788 11.7991 6.87788 11.7991C6.87788 11.7991 6.87788 11.7991 6.87788 11.7991C6.87788 11.7991 6.87788 11.7991 6.87788 11.7991C6.87788 11.7991 6.87788 11.7991 6.87788 11.7991C6.87788 11.7991 6.87788 11.7991 6.87788 11.7991C6.87788 11.7991 6.87788 11.7991 6.87788 11.7991C6.87788 11.7991 6.87788 11.7991 6.87788 11.7991C6.87788 11.7991 6.87788 11.7991 6.87789 11.7991C6.87789 11.7991 6.87789 11.7991 6.87789 11.7991C6.87789 11.7991 6.87789 11.7991 6.87789 11.7991C6.87789 11.7991 6.87789 11.7991 6.87789 11.7991C6.87789 11.7991 6.87789 11.7991 6.87789 11.7991C6.87789 11.7991 6.87789 11.7991 6.87789 11.7991C6.87789 11.7991 6.87789 11.7991 6.87789 11.7991C6.87789 11.7991 6.87789 11.7991 6.87789 11.7991C6.87789 11.7991 6.87789 11.7991 6.87789 11.7991C6.87789 11.7991 6.87789 11.7991 6.87789 11.7991C6.87789 11.7991 6.87789 11.7991 6.8779 11.7991C6.8779 11.7991 6.8779 11.7991 6.8779 11.7991C6.8779 11.7991 6.8779 11.7991 6.8779 11.7991C6.8779 11.7991 6.8779 11.7991 6.8779 11.7991C6.8779 11.7991 6.8779 11.7991 6.8779 11.7991C6.8779 11.7991 6.8779 11.7991 6.8779 11.7991C6.8779 11.7991 6.8779 11.7991 6.8779 11.7991C6.8779 11.7991 6.8779 11.7991 6.8779 11.7991C6.8779 11.7991 6.8779 11.7991 6.8779 11.7991C6.8779 11.7991 6.8779 11.7991 6.8779 11.7991C6.8779 11.7991 6.8779 11.7991 6.87791 11.7991C6.87791 11.7991 6.87791 11.7991 6.87791 11.7991C6.87791 11.7991 6.87791 11.7991 6.87791 11.7991C6.87791 11.7991 6.87791 11.7991 6.87791 11.7991C6.87791 11.7991 6.87791 11.7991 6.87791 11.7991C6.87791 11.7991 6.87791 11.7991 6.87791 11.7991C6.87791 11.7991 6.87791 11.7991 6.87791 11.7991C6.87791 11.7991 6.87791 11.7991 6.87791 11.7991C6.87791 11.7991 6.87791 11.7991 6.87791 11.7991C6.87791 11.7991 6.87791 11.7991 6.87791 11.7991C6.87791 11.7991 6.87791 11.7991 6.87791 11.7991C6.87792 11.7991 6.87792 11.7991 6.87792 11.7991C6.87792 11.7991 6.87792 11.7991 6.87792 11.7991C6.87792 11.7991 6.87792 11.7991 6.87792 11.7991C6.87792 11.7991 6.87792 11.7991 6.87792 11.7991C6.87792 11.7991 6.87792 11.7991 6.87792 11.7991C6.87792 11.7991 6.87792 11.7991 6.87792 11.7991C6.87792 11.7991 6.87792 11.7991 6.87792 11.7991C6.87792 11.7991 6.87792 11.7991 6.87792 11.7991C6.87792 11.7991 6.87792 11.7991 6.87792 11.7991C6.87792 11.7991 6.87792 11.7991 6.87792 11.7991C6.87793 11.7991 6.87793 11.7991 6.87793 11.7991C6.87793 11.7991 6.87793 11.7991 6.87793 11.7991C6.87793 11.7991 6.87793 11.7991 6.87793 11.7991C6.87793 11.7991 6.87793 11.7991 6.87793 11.7991C6.87793 11.7991 6.87793 11.7991 6.87793 11.7991C6.87793 11.7991 6.87793 11.7991 6.87793 11.7991C6.87793 11.7991 6.87793 11.7991 6.87793 11.7991C6.87793 11.7991 6.87793 11.7991 6.87793 11.7991C6.87793 11.7991 6.87793 11.7991 6.87793 11.7991C6.87793 11.7991 6.87793 11.7991 6.87793 11.7991C6.87793 11.7991 6.87794 11.7991 6.87794 11.7991C6.87794 11.7991 6.87794 11.7991 6.87794 11.7991C6.87794 11.7991 6.87794 11.7991 6.87794 11.7991C6.87794 11.7991 6.87794 11.7991 6.87794 11.7991C6.87794 11.7991 6.87794 11.7991 6.87794 11.7991C6.87794 11.7991 6.87794 11.7991 6.87794 11.7991C6.87794 11.7991 6.87794 11.7991 6.87794 11.7991C6.87794 11.7991 6.87794 11.7991 6.87794 11.7991C6.87794 11.7991 6.87794 11.7991 6.87794 11.7991C6.87794 11.7991 6.87794 11.7991 6.87794 11.7991C6.87794 11.7991 6.87794 11.7991 6.87794 11.7991C6.87795 11.7991 6.87795 11.7991 6.87795 11.7991C6.87795 11.7991 6.87795 11.7991 6.87795 11.7991C6.87795 11.7991 6.87795 11.7991 6.87795 11.7991C6.87795 11.7991 6.87795 11.7991 6.87795 11.7991C6.87795 11.7991 6.87795 11.7991 6.87795 11.7991C6.87795 11.7991 6.87795 11.7991 6.87795 11.7991C6.87795 11.7991 6.87795 11.7991 6.87795 11.7991C6.87795 11.7991 6.87795 11.7991 6.87795 11.7991C6.87795 11.7991 6.87795 11.7991 6.87795 11.7991C6.87795 11.7991 6.87795 11.7991 6.87795 11.7991C6.87795 11.7991 6.87796 11.7991 6.87796 11.7991C6.87796 11.7991 6.87796 11.7991 6.87796 11.7991C6.87796 11.7991 6.87796 11.7991 6.87796 11.7991C6.87796 11.7991 6.87796 11.7991 6.87796 11.7991C6.87796 11.7991 6.87796 11.7991 6.87796 11.7991C6.87796 11.7991 6.87796 11.7991 6.87796 11.7991C6.87796 11.7991 6.87796 11.7991 6.87796 11.7991C6.87796 11.7991 6.87796 11.7991 6.87796 11.7991C6.87796 11.7991 6.87796 11.7991 6.87796 11.7991C6.87796 11.7991 6.87796 11.7991 6.87796 11.7991C6.87796 11.7991 6.87796 11.7991 6.87797 11.7991C6.87797 11.7991 6.87797 11.7991 6.87797 11.7991C6.87797 11.7991 6.87797 11.7991 6.87797 11.7991C6.87797 11.7991 6.87797 11.7991 6.87797 11.7991C6.87797 11.7991 6.87797 11.7991 6.87797 11.7991C6.87797 11.7991 6.87797 11.7991 6.87797 11.7991C6.87797 11.7991 6.87797 11.7991 6.87797 11.7991C6.87797 11.7991 6.87797 11.7991 6.87797 11.7991C6.87797 11.7991 6.87797 11.7991 6.87797 11.7991C6.87797 11.7991 6.87797 11.7991 6.87797 11.7991C6.87797 11.7991 6.87797 11.7991 6.87797 11.7991C6.87797 11.7991 6.87798 11.7991 6.87798 11.7991C6.87798 11.7991 6.87798 11.7991 6.87798 11.7991C6.87798 11.7991 6.87798 11.7991 6.87798 11.7991C6.87798 11.7991 6.87798 11.7991 6.87798 11.7991C6.87798 11.7991 6.87798 11.7991 6.87798 11.7991C6.87798 11.7991 6.87798 11.7991 6.87798 11.7991C6.87798 11.7991 6.87798 11.7991 6.87798 11.7991C6.87798 11.7991 6.87798 11.7991 6.87798 11.7991C6.87798 11.7991 6.87798 11.7991 6.87798 11.7991C6.87798 11.7991 6.87798 11.7991 6.87798 11.7991C6.87798 11.7991 6.87798 11.7991 6.87798 11.7991C6.87799 11.7991 6.87799 11.7991 6.87799 11.7991C6.87799 11.7991 6.87799 11.7991 6.87799 11.7991C6.87799 11.7991 6.87799 11.7991 6.87799 11.7991C6.87799 11.7991 6.87799 11.7991 6.87799 11.7991C6.87799 11.7991 6.87799 11.7991 6.87799 11.7991C6.87799 11.7991 6.87799 11.7991 6.87799 11.7991C6.87799 11.7991 6.87799 11.7991 6.87799 11.7991C6.87799 11.7991 6.87799 11.7991 6.87799 11.7991C6.87799 11.7991 6.87799 11.7991 6.87799 11.7991C6.87799 11.7991 6.87799 11.7991 6.87799 11.7991C6.87799 11.7991 6.87799 11.7991 6.878 11.7991C6.878 11.7991 6.878 11.7991 6.878 11.7991C6.878 11.7991 6.878 11.7991 6.878 11.7991C6.878 11.7991 6.878 11.7991 6.878 11.7991C6.878 11.7991 6.878 11.7991 6.878 11.7991C6.878 11.7991 6.878 11.7991 6.878 11.7991C6.878 11.7991 6.878 11.7991 6.878 11.7991C6.878 11.7991 6.878 11.7991 6.878 11.7991C6.878 11.7991 6.878 11.7991 6.878 11.7991C6.878 11.7991 6.878 11.7991 6.878 11.7991C6.878 11.7991 6.878 11.7991 6.878 11.7991C6.878 11.7991 6.878 11.7991 6.87801 11.7991C6.87801 11.7991 6.87801 11.7991 6.87801 11.7991C6.87801 11.7991 6.87801 11.7991 6.87801 11.7991C6.87801 11.7991 6.87801 11.7991 6.87801 11.7991C6.87801 11.7991 6.87801 11.7991 6.87801 11.7991C6.87801 11.7991 6.87801 11.7991 6.87801 11.7991C6.87801 11.7991 6.87801 11.7991 6.87801 11.7991C6.87801 11.7991 6.87801 11.7991 6.87801 11.7991C6.87801 11.7991 6.87801 11.7991 6.87801 11.7991C6.87801 11.7991 6.87801 11.7991 6.87801 11.7991C6.87801 11.7991 6.87801 11.7991 6.87801 11.7991C6.87801 11.7991 6.87801 11.7991 6.87801 11.7991C6.87802 11.7991 6.87802 11.7991 6.87802 11.7991C6.87802 11.7991 6.87802 11.7991 6.87802 11.7991C6.87802 11.7991 6.87802 11.7991 6.87802 11.7991C6.87802 11.7991 6.87802 11.7991 6.87802 11.7991C6.87802 11.7991 6.87802 11.7991 6.87802 11.7991C6.87802 11.7991 6.87802 11.7991 6.87802 11.7991C6.87802 11.7991 6.87802 11.7991 6.87802 11.7991C6.87802 11.7991 6.87802 11.7991 6.87802 11.7991C6.87802 11.7991 6.87802 11.7991 6.87802 11.7991C6.87802 11.7991 6.87802 11.7991 6.87802 11.7991C6.87802 11.7991 6.87802 11.7991 6.87802 11.7991C6.87803 11.7991 6.87803 11.7991 6.87803 11.7991C6.87803 11.7991 6.87803 11.7991 6.87803 11.7991C6.87803 11.7991 6.87803 11.7991 6.87803 11.7991C6.87803 11.7991 6.87803 11.7991 6.87803 11.7991C6.87803 11.7991 6.87803 11.7991 6.87803 11.7991C6.87803 11.7991 6.87803 11.7991 6.87803 11.7991C6.87803 11.7991 6.87803 11.7991 6.87803 11.7991C6.87803 11.7991 6.87803 11.7991 6.87803 11.7991C6.87803 11.7991 6.87803 11.7991 6.87803 11.7991C6.87803 11.7991 6.87803 11.7991 6.87803 11.7991C6.87803 11.7991 6.87803 11.7991 6.87803 11.7991C6.87803 11.7991 6.87804 11.7991 6.87804 11.7991C6.87804 11.7991 6.87804 11.7991 6.87804 11.7991C6.87804 11.7991 6.87804 11.7991 6.87804 11.7991C6.87804 11.7991 6.87804 11.7991 6.87804 11.7991C6.87804 11.7991 6.87804 11.7991 6.87804 11.7991C6.87804 11.7991 6.87804 11.7991 6.87804 11.7991C6.87804 11.7991 6.87804 11.7991 6.87804 11.7991C6.87804 11.7991 6.87804 11.7991 6.87804 11.7991C6.87804 11.7991 6.87804 11.7991 6.87804 11.7991C6.87804 11.7991 6.87804 11.7991 6.87804 11.7991C6.87804 11.7991 6.87804 11.7991 6.87804 11.7991C6.87804 11.7991 6.87804 11.7991 6.87804 11.7991C6.87805 11.7991 6.87805 11.7991 6.87805 11.7991C6.87805 11.7991 6.87805 11.7991 6.87805 11.7991C6.87805 11.7991 6.87805 11.7991 6.87805 11.7991C6.87805 11.7991 6.87805 11.7991 6.87805 11.7991C6.87805 11.7991 6.87805 11.7991 6.87805 11.7991C6.87805 11.7991 6.87805 11.7991 6.87805 11.7991C6.87805 11.7991 6.87805 11.7991 6.87805 11.7991C6.87805 11.7991 6.87805 11.7991 6.87805 11.7991C6.87805 11.7991 6.87805 11.7991 6.87805 11.7991C6.87805 11.7991 6.87805 11.7991 6.87805 11.7991C6.87805 11.7991 6.87805 11.7991 6.87805 11.7991C6.87805 11.7991 6.87805 11.7991 6.87806 11.7991C6.87806 11.7991 6.87806 11.7991 6.87806 11.7991C6.87806 11.7991 6.87806 11.7991 6.87806 11.7991C6.87806 11.7991 6.87806 11.7991 6.87806 11.7991C6.87806 11.7991 6.87806 11.7991 6.87806 11.7991C6.87806 11.7991 6.87806 11.7991 6.87806 11.7991C6.87806 11.7991 6.87806 11.7991 6.87806 11.7991C6.87806 11.7991 6.87806 11.7991 6.87806 11.7991C6.87806 11.7991 6.87806 11.7991 6.87806 11.7991C6.87806 11.7991 6.87806 11.7991 6.87806 11.7991C6.87806 11.7991 6.87806 11.7991 6.87806 11.7991C6.87806 11.7991 6.87806 11.7991 6.87806 11.7991C6.87806 11.7991 6.87806 11.7991 6.87807 11.7991C6.87807 11.7991 6.87807 11.7991 6.87807 11.7991C6.87807 11.7991 6.87807 11.7991 6.87807 11.7991C6.87807 11.7991 6.87807 11.7991 6.87807 11.7991C6.87807 11.7991 6.87807 11.7991 6.87807 11.7991C6.87807 11.7991 6.87807 11.7991 6.87807 11.7991C6.87807 11.7991 6.87807 11.7991 6.87807 11.7991C6.87807 11.7991 6.87807 11.7991 6.87807 11.7991C6.87807 11.7991 6.87807 11.7991 6.87807 11.7991C6.87807 11.7991 6.87807 11.7991 6.87807 11.7991C6.87807 11.7991 6.87807 11.7991 6.87807 11.7991C6.87807 11.7991 6.87807 11.7991 6.87807 11.7991C6.87807 11.7991 6.87807 11.7991 6.87808 11.7991C6.87808 11.7991 6.87808 11.7991 6.87808 11.7991C6.87808 11.7991 6.87808 11.7991 6.87808 11.7991C6.87808 11.7991 6.87808 11.7991 6.87808 11.7991C6.87808 11.7991 6.87808 11.7991 6.87808 11.7991C6.87808 11.7991 6.87808 11.7991 6.87808 11.7991C6.87808 11.7991 6.87808 11.7991 6.87808 11.7991C6.87808 11.7991 6.87808 11.7991 6.87808 11.7991C6.87808 11.7991 6.87808 11.7991 6.87808 11.7991C6.87808 11.7991 6.87808 11.7991 6.87808 11.7991C6.87808 11.7991 6.87808 11.7991 6.87808 11.7991C6.87808 11.7991 6.87808 11.7991 6.87808 11.7991C6.87808 11.7991 6.87808 11.7991 6.87808 11.7991C6.87809 11.7991 6.87809 11.7991 6.87809 11.7991C6.87809 11.7991 6.87809 11.7991 6.87809 11.7991C6.87809 11.7991 6.87809 11.7991 6.87809 11.7991C6.87809 11.7991 6.87809 11.7991 6.87809 11.7991C6.87809 11.7991 6.87809 11.7991 6.87809 11.7991C6.87809 11.7991 6.87809 11.7991 6.87809 11.7991C6.87809 11.7991 6.87809 11.7991 6.87809 11.7991C6.87809 11.7991 6.87809 11.7991 6.87809 11.7991C6.87809 11.7991 6.87809 11.7991 6.87809 11.7991C6.87809 11.7991 6.87809 11.7991 6.87809 11.7991C6.87809 11.7991 6.87809 11.7991 6.87809 11.7991C6.87809 11.7991 6.87809 11.7991 6.87809 11.7991C6.87809 11.7991 6.87809 11.7991 6.8781 11.7991C6.8781 11.7991 6.8781 11.7991 6.8781 11.7991C6.8781 11.7991 6.8781 11.7991 6.8781 11.7991C6.8781 11.7991 6.8781 11.7991 6.8781 11.7991C6.8781 11.7991 6.8781 11.7991 6.8781 11.7991C6.8781 11.7991 6.8781 11.7991 6.8781 11.7991C6.8781 11.7991 6.8781 11.7991 6.8781 11.7991C6.8781 11.7991 6.8781 11.7991 6.8781 11.7991C6.8781 11.7991 6.8781 11.7991 6.8781 11.7991C6.8781 11.7991 6.8781 11.7991 6.8781 11.7991C6.8781 11.7991 6.8781 11.7991 6.8781 11.7991C6.8781 11.7991 6.8781 11.7991 6.8781 11.7991C6.8781 11.7991 6.8781 11.7991 6.8781 11.7991C6.8781 11.7991 6.8781 11.7991 6.87811 11.7991C6.87811 11.7991 6.87811 11.7991 6.87811 11.7991C6.87811 11.7991 6.87811 11.7991 6.87811 11.7991C6.87811 11.7991 6.87811 11.7991 6.87811 11.7991C6.87811 11.7991 6.87811 11.7991 6.87811 11.7991C6.87811 11.7991 6.87811 11.7991 6.87811 11.7991C6.87811 11.7991 6.87811 11.7991 6.87811 11.7991C6.87811 11.7991 6.87811 11.7991 6.87811 11.7991C6.87811 11.7991 6.87811 11.7991 6.87811 11.7991C6.87811 11.7991 6.87811 11.7991 6.87811 11.7991C6.87811 11.7991 6.87811 11.7991 6.87811 11.7991C6.87811 11.7991 6.87811 11.7991 6.87811 11.7991C6.87811 11.7991 6.87811 11.7991 6.87811 11.7991C6.87811 11.7991 6.87811 11.7991 6.87811 11.7991C6.87812 11.7991 6.87812 11.7991 6.87812 11.7991C6.87812 11.7991 6.87812 11.7991 6.87812 11.7991C6.87812 11.7991 6.87812 11.7991 6.87812 11.7991C6.87812 11.7991 6.87812 11.7991 6.87812 11.7991C6.87812 11.7991 6.87812 11.7991 6.87812 11.7991C6.87812 11.7991 6.87812 11.7991 6.87812 11.7991C6.87812 11.7991 6.87812 11.7991 6.87812 11.7991C6.87812 11.7991 6.87812 11.7991 6.87812 11.7991C6.87812 11.7991 6.87812 11.7991 6.87812 11.7991C6.87812 11.7991 6.87812 11.7991 6.87812 11.7991C6.87812 11.7991 6.87812 11.7991 6.87812 11.7991C6.87812 11.7991 6.87812 11.7991 6.87812 11.7991C6.87812 11.7991 6.87812 11.7991 6.87812 11.7991C6.87812 11.7991 6.87812 11.7991 6.87813 11.7991C6.87813 11.7991 6.87813 11.7991 6.87813 11.7991C6.87813 11.7991 6.87813 11.7991 6.87813 11.7991C6.87813 11.7991 6.87813 11.7991 6.87813 11.7991C6.87813 11.7991 6.87813 11.7991 6.87813 11.7991C6.87813 11.7991 6.87813 11.7991 6.87813 11.7991C6.87813 11.7991 6.87813 11.7991 6.87813 11.7991C6.87813 11.7991 6.87813 11.7991 6.87813 11.7991C6.87813 11.7991 6.87813 11.7991 6.87813 11.7991C6.87813 11.7991 6.87813 11.7991 6.87813 11.7991C6.87813 11.7991 6.87813 11.7991 6.87813 11.7991C6.87813 11.7991 6.87813 11.7991 6.87813 11.7991C6.87813 11.7991 6.87813 11.7991 6.87813 11.7991C6.87813 11.7991 6.87813 11.7991 6.87813 11.7991C6.87813 11.7991 6.87813 11.7991 6.87814 11.7991C6.87814 11.7991 6.87814 11.7991 6.87814 11.7991C6.87814 11.7991 6.87814 11.7991 6.87814 11.7991C6.87814 11.7991 6.87814 11.7991 6.87814 11.7991C6.87814 11.7991 6.87814 11.7991 6.87814 11.7991C6.87814 11.7991 6.87814 11.7991 6.87814 11.7991C6.87814 11.7991 6.87814 11.7991 6.87814 11.7991C6.87814 11.7991 6.87814 11.7991 6.87814 11.7991C6.87814 11.7991 6.87814 11.7991 6.87814 11.7991C6.87814 11.7991 6.87814 11.7991 6.87814 11.7991C6.87814 11.7991 6.87814 11.7991 6.87814 11.7991C6.87814 11.7991 6.87814 11.7991 6.87814 11.7991C6.87814 11.7991 6.87814 11.7991 6.87814 11.7991C6.87814 11.7991 6.87814 11.7991 6.87814 11.7991C6.87814 11.7991 6.87814 11.7991 6.87814 11.7991C6.87815 11.7991 6.87815 11.7991 6.87815 11.7991C6.87815 11.7991 6.87815 11.7991 6.87815 11.7991C6.87815 11.7991 6.87815 11.7991 6.87815 11.7991C6.87815 11.7991 6.87815 11.7991 6.87815 11.7991C6.87815 11.7991 6.87815 11.7991 6.87815 11.7991C6.87815 11.7991 6.87815 11.7991 6.87815 11.7991C6.87815 11.7991 6.87815 11.7991 6.87815 11.7991C6.87815 11.7991 6.87815 11.7991 6.87815 11.7991C6.87815 11.7991 6.87815 11.7991 6.87815 11.7991C6.87815 11.7991 6.87815 11.7991 6.87815 11.7991C6.87815 11.7991 6.87815 11.7991 6.87815 11.7991C6.87815 11.7991 6.87815 11.7991 6.87815 11.7991C6.87815 11.7991 6.87815 11.7991 6.87815 11.7991C6.87815 11.7991 6.87815 11.7991 6.87815 11.7991C6.87815 11.7991 6.87815 11.7991 6.87815 11.7991C6.87816 11.7991 6.87816 11.7991 6.87816 11.7991C6.87816 11.7991 6.87816 11.7991 6.87816 11.7991C6.87816 11.7991 6.87816 11.7991 6.87816 11.7991C6.87816 11.7991 6.87816 11.7991 6.87816 11.7991C6.87816 11.7991 6.87816 11.7991 6.87816 11.7991C6.87816 11.7991 6.87816 11.7991 6.87816 11.7991C6.87816 11.7991 6.87816 11.7991 6.87816 11.7991C6.87816 11.7991 6.87816 11.7991 6.87816 11.7991C6.87816 11.7991 6.87816 11.7991 6.87816 11.7991C6.87816 11.7991 6.87816 11.7991 6.87816 11.7991C6.87816 11.7991 6.87816 11.7991 6.87816 11.7991C6.87816 11.7991 6.87816 11.7991 6.87816 11.7991C6.87816 11.7991 6.87816 11.7991 6.87816 11.7991C6.87816 11.7991 6.87816 11.7991 6.87816 11.7991C6.87816 11.7991 6.87816 11.7991 6.87816 11.7991C6.87816 11.7991 6.87817 11.7991 6.87817 11.7991C6.87817 11.7991 6.87817 11.7991 6.87817 11.7991C6.87817 11.7991 6.87817 11.7991 6.87817 11.7991C6.87817 11.7991 6.87817 11.7991 6.87817 11.7991C6.87817 11.7991 6.87817 11.7991 6.87817 11.7991C6.87817 11.7991 6.87817 11.7991 6.87817 11.7991C6.87817 11.7991 6.87817 11.7991 6.87817 11.7991C6.87817 11.7991 6.87817 11.7991 6.87817 11.7991C6.87817 11.7991 6.87817 11.7991 6.87817 11.7991C6.87817 11.7991 6.87817 11.7991 6.87817 11.7991C6.87817 11.7991 6.87817 11.7991 6.87817 11.7991C6.87817 11.7991 6.87817 11.7991 6.87817 11.7991C6.87817 11.7991 6.87817 11.7991 6.87817 11.7991C6.87817 11.7991 6.87817 11.7991 6.87817 11.7991C6.87817 11.7991 6.87817 11.7991 6.87817 11.7991C6.87817 11.7991 6.87817 11.7991 6.87817 11.7991C6.87817 11.7991 6.87818 11.7991 6.87818 11.7991C6.87818 11.7991 6.87818 11.7991 6.87818 11.7991C6.87818 11.7991 6.87818 11.7991 6.87818 11.7991C6.87818 11.7991 6.87818 11.7991 6.87818 11.7991C6.87818 11.7991 6.87818 11.7991 6.87818 11.7991C6.87818 11.7991 6.87818 11.7991 6.87818 11.7991C6.87818 11.7991 6.87818 11.7991 6.87818 11.7991C6.87818 11.7991 6.87818 11.7991 6.87818 11.7991C6.87818 11.7991 6.87818 11.7991 6.87818 11.7991C6.87818 11.7991 6.87818 11.7991 6.87818 11.7991C6.87818 11.7991 6.87818 11.7991 6.87818 11.7991C6.87818 11.7991 6.87818 11.7991 6.87818 11.7991C6.87818 11.7991 6.87818 11.7991 6.87818 11.7991C6.87818 11.7991 6.87818 11.7991 6.87818 11.7991C6.87818 11.7991 6.87818 11.7991 6.87818 11.7991C6.87818 11.7991 6.87818 11.7991 6.87818 11.7991C6.87818 11.7991 6.87818 11.7991 6.87818 11.7991C6.87818 11.7991 6.87818 11.7991 6.87819 11.7991C6.87819 11.7991 6.87819 11.7991 6.87819 11.7991C6.87819 11.7991 6.87819 11.7991 6.87819 11.7991C6.87819 11.7991 6.87819 11.7991 6.87819 11.7991C6.87819 11.7991 6.87819 11.7991 6.87819 11.7991C6.87819 11.7991 6.87819 11.7991 6.87819 11.7991C6.87819 11.7991 6.87819 11.7991 6.87819 11.7991C6.87819 11.7991 6.87819 11.7991 6.87819 11.7991C6.87819 11.7991 6.87819 11.7991 6.87819 11.7991C6.87819 11.7991 6.87819 11.7991 6.87819 11.7991C6.87819 11.7991 6.87819 11.7991 6.87819 11.7991C6.87819 11.7991 6.87819 11.7991 6.87819 11.7991C6.87819 11.7991 6.87819 11.7991 6.87819 11.7991C6.87819 11.7991 6.87819 11.7991 6.87819 11.7991C6.87819 11.7991 6.87819 11.7991 6.87819 11.7991C6.87819 11.7991 6.87819 11.7991 6.87819 11.7991C6.87819 11.7991 6.87819 11.7991 6.87819 11.7991C6.87819 11.7991 6.87819 11.7991 6.87819 11.7991C6.87819 11.7991 6.87819 11.7991 6.8782 11.7991C6.8782 11.7991 6.8782 11.7991 6.8782 11.7991C6.8782 11.7991 6.8782 11.7991 6.8782 11.7991C6.8782 11.7991 6.8782 11.7991 6.8782 11.7991C6.8782 11.7991 6.8782 11.7991 6.8782 11.7991C6.8782 11.7991 6.8782 11.7991 6.8782 11.7991C6.8782 11.7991 6.8782 11.7991 6.8782 11.7991C6.8782 11.7991 6.8782 11.7991 6.8782 11.7991C6.8782 11.7991 6.8782 11.7991 6.8782 11.7991C6.8782 11.7991 6.8782 11.7991 6.8782 11.7991C6.8782 11.7991 6.8782 11.7991 6.8782 11.7991V9.79907Z" fill="#112D55" mask="url(#path-3-inside-2_18_8590)"/>
</g>
</g>
</g>
</svg>
