<svg width="16" height="20" viewBox="0 0 16 20" fill="none" xmlns="http://www.w3.org/2000/svg">
<path id="Vector" d="M12.2857 9.71429C12.9852 9.28835 13.5755 8.70488 14.0095 8.01041C14.4436 7.31594 14.7094 6.52967 14.7857 5.71429C14.799 4.97698 14.6668 4.24428 14.3969 3.55805C14.1269 2.87181 13.7244 2.24548 13.2123 1.71484C12.7002 1.1842 12.0886 0.759631 11.4125 0.465394C10.7363 0.171158 10.0087 0.0130158 9.27143 0H0V20H10C10.7016 19.9925 11.3949 19.8469 12.0403 19.5715C12.6857 19.2961 13.2705 18.8962 13.7613 18.3948C14.2522 17.8934 14.6394 17.3001 14.901 16.649C15.1625 15.9979 15.2933 15.3016 15.2857 14.6V14.4286C15.2862 13.4387 15.0042 12.4693 14.4728 11.6342C13.9413 10.7991 13.1826 10.1331 12.2857 9.71429ZM2.85714 2.85714H8.85714C9.46596 2.8383 10.066 3.00612 10.5767 3.33808C11.0874 3.67003 11.4843 4.15025 11.7143 4.71429C11.947 5.46827 11.8717 6.2837 11.505 6.98236C11.1382 7.68103 10.5099 8.20611 9.75714 8.44286C9.46483 8.52852 9.16175 8.57182 8.85714 8.57143H2.85714V2.85714ZM9.42857 17.1429H2.85714V11.4286H9.42857C10.0374 11.4097 10.6374 11.5775 11.1481 11.9095C11.6588 12.2415 12.0558 12.7217 12.2857 13.2857C12.5184 14.0397 12.4431 14.8551 12.0764 15.5538C11.7097 16.2525 11.0813 16.7775 10.3286 17.0143C10.0363 17.0999 9.73318 17.1432 9.42857 17.1429Z" fill="#525252"/>
</svg>
