<svg width="21" height="18" viewBox="0 0 21 18" fill="none" xmlns="http://www.w3.org/2000/svg">
<path id="Vector" d="M0.841797 9.00018C0.841797 8.75907 0.937576 8.52784 1.10806 8.35735C1.27855 8.18687 1.50978 8.09109 1.75089 8.09109C2.23293 8.09053 2.69507 7.8988 3.03593 7.55794C3.37678 7.21709 3.56852 6.75495 3.56907 6.2729V3.54563C3.56986 2.82256 3.85746 2.12933 4.36875 1.61804C4.88004 1.10675 5.57327 0.819153 6.29634 0.818359H8.11452C8.35563 0.818359 8.58686 0.914138 8.75735 1.08463C8.92784 1.25511 9.02361 1.48634 9.02361 1.72745C9.02361 1.96856 8.92784 2.19979 8.75735 2.37027C8.58686 2.54076 8.35563 2.63654 8.11452 2.63654H6.29634C6.0553 2.63676 5.8242 2.73261 5.65376 2.90305C5.48332 3.07349 5.38747 3.30459 5.38725 3.54563V6.2729C5.38748 6.78913 5.27751 7.29945 5.06471 7.76977C4.85191 8.24009 4.54116 8.65957 4.15325 9.00018C4.54116 9.34078 4.85191 9.76026 5.06471 10.2306C5.27751 10.7009 5.38748 11.2112 5.38725 11.7274V14.4547C5.38747 14.6958 5.48332 14.9269 5.65376 15.0973C5.8242 15.2677 6.0553 15.3636 6.29634 15.3638H8.11452C8.35563 15.3638 8.58686 15.4596 8.75735 15.6301C8.92784 15.8006 9.02361 16.0318 9.02361 16.2729C9.02361 16.514 8.92784 16.7452 8.75735 16.9157C8.58686 17.0862 8.35563 17.182 8.11452 17.182H6.29634C5.57327 17.1812 4.88004 16.8936 4.36875 16.3823C3.85746 15.871 3.56986 15.1778 3.56907 14.4547V11.7274C3.56852 11.2454 3.37678 10.7833 3.03593 10.4424C2.69507 10.1016 2.23293 9.90982 1.75089 9.90927C1.50978 9.90927 1.27855 9.81349 1.10806 9.643C0.937576 9.47251 0.841797 9.24128 0.841797 9.00018ZM19.9327 8.09109C19.4507 8.09053 18.9885 7.8988 18.6477 7.55794C18.3068 7.21709 18.1151 6.75495 18.1145 6.2729V3.54563C18.1137 2.82256 17.8261 2.12933 17.3148 1.61804C16.8036 1.10675 16.1103 0.819153 15.3873 0.818359H13.5691C13.328 0.818359 13.0967 0.914138 12.9262 1.08463C12.7558 1.25511 12.66 1.48634 12.66 1.72745C12.66 1.96856 12.7558 2.19979 12.9262 2.37027C13.0967 2.54076 13.328 2.63654 13.5691 2.63654H15.3873C15.6283 2.63676 15.8594 2.73261 16.0298 2.90305C16.2003 3.07349 16.2961 3.30459 16.2963 3.54563V6.2729C16.2961 6.78913 16.4061 7.29945 16.6189 7.76977C16.8317 8.24009 17.1424 8.65957 17.5303 9.00018C17.1424 9.34078 16.8317 9.76026 16.6189 10.2306C16.4061 10.7009 16.2961 11.2112 16.2963 11.7274V14.4547C16.2961 14.6958 16.2003 14.9269 16.0298 15.0973C15.8594 15.2677 15.6283 15.3636 15.3873 15.3638H13.5691C13.328 15.3638 13.0967 15.4596 12.9262 15.6301C12.7558 15.8006 12.66 16.0318 12.66 16.2729C12.66 16.514 12.7558 16.7452 12.9262 16.9157C13.0967 17.0862 13.328 17.182 13.5691 17.182H15.3873C16.1103 17.1812 16.8036 16.8936 17.3148 16.3823C17.8261 15.871 18.1137 15.1778 18.1145 14.4547V11.7274C18.1151 11.2454 18.3068 10.7833 18.6477 10.4424C18.9885 10.1016 19.4507 9.90982 19.9327 9.90927C20.1738 9.90927 20.405 9.81349 20.5755 9.643C20.746 9.47251 20.8418 9.24128 20.8418 9.00018C20.8418 8.75907 20.746 8.52784 20.5755 8.35735C20.405 8.18687 20.1738 8.09109 19.9327 8.09109Z" fill="#525252"/>
</svg>
