<svg width="21" height="16" viewBox="0 0 21 16" fill="none" xmlns="http://www.w3.org/2000/svg">
<g id="Group 1822">
<path id="Vector" d="M1.10797 8.65941L4.74441 12.2958C4.82827 12.3827 4.92858 12.4519 5.0395 12.4996C5.15041 12.5472 5.26971 12.5723 5.39042 12.5734C5.51113 12.5744 5.63084 12.5514 5.74257 12.5057C5.85429 12.46 5.9558 12.3925 6.04115 12.3071C6.12651 12.2218 6.19402 12.1203 6.23973 12.0085C6.28544 11.8968 6.30844 11.7771 6.30739 11.6564C6.30634 11.5357 6.28126 11.4164 6.23362 11.3055C6.18597 11.1945 6.11671 11.0942 6.02989 11.0104L3.03619 8.01667L6.02989 5.02298C6.11671 4.93912 6.18597 4.8388 6.23362 4.72789C6.28126 4.61697 6.30634 4.49768 6.30739 4.37697C6.30844 4.25626 6.28544 4.13655 6.23973 4.02482C6.19402 3.91309 6.12651 3.81159 6.04115 3.72623C5.9558 3.64087 5.85429 3.57337 5.74257 3.52766C5.63084 3.48195 5.51113 3.45895 5.39042 3.46C5.26971 3.46104 5.15041 3.48612 5.0395 3.53377C4.92858 3.58141 4.82827 3.65067 4.74441 3.7375L1.10797 7.37393C0.93754 7.54442 0.841797 7.77561 0.841797 8.01667C0.841797 8.25774 0.93754 8.48893 1.10797 8.65941Z" fill="#525252"/>
<path id="Vector_2" d="M16.939 3.7375C16.8551 3.65067 16.7548 3.58141 16.6439 3.53377C16.533 3.48612 16.4137 3.46104 16.293 3.46C16.1723 3.45895 16.0526 3.48195 15.9408 3.52766C15.8291 3.57337 15.7276 3.64087 15.6422 3.72623C15.5569 3.81159 15.4894 3.91309 15.4437 4.02482C15.398 4.13655 15.375 4.25626 15.376 4.37697C15.3771 4.49768 15.4021 4.61697 15.4498 4.72789C15.4974 4.8388 15.5667 4.93912 15.6535 5.02298L18.6472 8.01667L15.6535 11.0104C15.5667 11.0942 15.4974 11.1945 15.4498 11.3055C15.4021 11.4164 15.3771 11.5357 15.376 11.6564C15.375 11.7771 15.398 11.8968 15.4437 12.0085C15.4894 12.1203 15.5569 12.2218 15.6422 12.3071C15.7276 12.3925 15.8291 12.46 15.9408 12.5057C16.0526 12.5514 16.1723 12.5744 16.293 12.5734C16.4137 12.5723 16.533 12.5472 16.6439 12.4996C16.7548 12.4519 16.8551 12.3827 16.939 12.2958L20.5754 8.65941C20.7459 8.48893 20.8416 8.25774 20.8416 8.01667C20.8416 7.77561 20.7459 7.54442 20.5754 7.37393L16.939 3.7375Z" fill="#525252"/>
<path id="Vector_3" d="M11.7862 1.4037L8.14972 14.1312C8.08353 14.3629 8.11203 14.6114 8.22897 14.8221C8.34591 15.0328 8.54172 15.1885 8.77337 15.2549C8.85482 15.2774 8.93888 15.289 9.02338 15.2894C9.22094 15.2893 9.41308 15.2248 9.57071 15.1057C9.72835 14.9866 9.8429 14.8194 9.89703 14.6294L13.5335 1.90189C13.5714 1.78566 13.5854 1.66298 13.5748 1.54119C13.5642 1.4194 13.5292 1.301 13.4717 1.19307C13.4143 1.08514 13.3357 0.989896 13.2407 0.913042C13.1456 0.836188 13.036 0.7793 12.9184 0.745779C12.8009 0.712259 12.6777 0.702795 12.5564 0.717953C12.4351 0.733112 12.3181 0.772582 12.2124 0.834003C12.1067 0.895423 12.0145 0.977532 11.9412 1.07542C11.868 1.1733 11.8153 1.28496 11.7862 1.4037Z" fill="#525252"/>
</g>
</svg>
