<svg width="21" height="16" viewBox="0 0 21 16" fill="none" xmlns="http://www.w3.org/2000/svg">
<g id="Group">
<path id="Vector" d="M19.844 15.262H6.47012C5.91892 15.262 5.47217 14.8153 5.47217 14.2641C5.47217 13.7129 5.91892 13.2661 6.47012 13.2661H19.8437C20.3949 13.2661 20.8417 13.7129 20.8417 14.2641C20.8417 14.8153 20.3952 15.262 19.844 15.262Z" fill="#525252"/>
<path id="Vector_2" d="M19.844 8.99786H6.47012C5.91892 8.99786 5.47217 8.55111 5.47217 7.99991C5.47217 7.4487 5.91892 7.00195 6.47012 7.00195H19.8437C20.3949 7.00195 20.8417 7.4487 20.8417 7.99991C20.842 8.55111 20.3952 8.99786 19.844 8.99786Z" fill="#525252"/>
<path id="Vector_3" d="M19.844 2.7337H6.47012C5.91892 2.7337 5.47217 2.28695 5.47217 1.73575C5.47217 1.18454 5.91892 0.737793 6.47012 0.737793H19.8437C20.3949 0.737793 20.8417 1.18454 20.8417 1.73575C20.8417 2.28695 20.3952 2.7337 19.844 2.7337Z" fill="#525252"/>
<path id="Vector_4" d="M2.18205 3.15316C2.92225 3.15316 3.5223 2.55311 3.5223 1.81291C3.5223 1.07271 2.92225 0.472656 2.18205 0.472656C1.44185 0.472656 0.841797 1.07271 0.841797 1.81291C0.841797 2.55311 1.44185 3.15316 2.18205 3.15316Z" fill="#525252"/>
<path id="Vector_5" d="M2.18205 9.34017C2.92225 9.34017 3.5223 8.74012 3.5223 7.99992C3.5223 7.25972 2.92225 6.65967 2.18205 6.65967C1.44185 6.65967 0.841797 7.25972 0.841797 7.99992C0.841797 8.74012 1.44185 9.34017 2.18205 9.34017Z" fill="#525252"/>
<path id="Vector_6" d="M2.18205 15.5272C2.92225 15.5272 3.5223 14.9271 3.5223 14.1869C3.5223 13.4467 2.92225 12.8467 2.18205 12.8467C1.44185 12.8467 0.841797 13.4467 0.841797 14.1869C0.841797 14.9271 1.44185 15.5272 2.18205 15.5272Z" fill="#525252"/>
</g>
</svg>
