<svg width="16" height="20" viewBox="0 0 16 20" fill="none" xmlns="http://www.w3.org/2000/svg">
<path id="path2" fill-rule="evenodd" clip-rule="evenodd" d="M9.79391 2.22222H8.06391C7.45058 2.22222 6.9528 1.72444 6.9528 1.11111C6.9528 0.497778 7.45058 0 8.06391 0H14.7306C15.3439 0 15.8417 0.497778 15.8417 1.11111C15.8417 1.72444 15.3439 2.22222 14.7306 2.22222H12.1672L6.33391 17.7778H8.06391C8.67724 17.7778 9.17502 18.2756 9.17502 18.8889C9.17502 19.5022 8.67724 20 8.06391 20H1.39724C0.783911 20 0.286133 19.5022 0.286133 18.8889C0.286133 18.2756 0.783911 17.7778 1.39724 17.7778H3.96058L9.79391 2.22222Z" fill="#525252"/>
</svg>
