<svg width="21" height="16" viewBox="0 0 21 16" fill="none" xmlns="http://www.w3.org/2000/svg">
<path id="Vector" d="M13.0418 7L16.8418 12H4.8418L7.8418 8.1L9.9418 10.8L12.8418 7H13.0418ZM7.3418 7C8.1418 7 8.8418 6.3 8.8418 5.5C8.8418 4.7 8.1418 4 7.3418 4C6.5418 4 5.8418 4.7 5.8418 5.5C5.8418 6.3 6.5418 7 7.3418 7ZM20.8418 2V14C20.8418 15.1 19.9418 16 18.8418 16H2.8418C1.7418 16 0.841797 15.1 0.841797 14V2C0.841797 0.9 1.7418 0 2.8418 0H18.8418C19.9418 0 20.8418 0.9 20.8418 2ZM18.8418 4.8V2H2.8418V14H18.8418V4.8Z" fill="#525252"/>
</svg>
