<svg width="21" height="10" viewBox="0 0 21 10" fill="none" xmlns="http://www.w3.org/2000/svg">
<path id="Vector" d="M9.8418 10H5.8418C4.51571 10 3.24394 9.47322 2.30626 8.53553C1.36858 7.59785 0.841797 6.32608 0.841797 5C0.841797 3.67392 1.36858 2.40215 2.30626 1.46447C3.24394 0.526784 4.51571 0 5.8418 0H9.8418V2H5.8418C5.04615 2 4.28309 2.31607 3.72048 2.87868C3.15787 3.44129 2.8418 4.20435 2.8418 5C2.8418 5.79565 3.15787 6.55871 3.72048 7.12132C4.28309 7.68393 5.04615 8 5.8418 8H9.8418V10ZM15.8418 0H11.8418V2H15.8418C16.6374 2 17.4005 2.31607 17.9631 2.87868C18.5257 3.44129 18.8418 4.20435 18.8418 5C18.8418 5.79565 18.5257 6.55871 17.9631 7.12132C17.4005 7.68393 16.6374 8 15.8418 8H11.8418V10H15.8418C17.1679 10 18.4396 9.47322 19.3773 8.53553C20.315 7.59785 20.8418 6.32608 20.8418 5C20.8418 3.67392 20.315 2.40215 19.3773 1.46447C18.4396 0.526784 17.1679 0 15.8418 0ZM14.8418 4H6.8418V6H14.8418V4Z" fill="#525252"/>
</svg>
