<svg width="21" height="16" viewBox="0 0 21 16" fill="none" xmlns="http://www.w3.org/2000/svg">
<path id="Vector" d="M19.044 1.59533C20.1676 2.83129 20.8418 4.1796 20.8418 6.42679C20.8418 10.3594 18.0328 13.8425 14.1002 15.6403L13.089 14.1796C16.7969 12.1571 17.5834 9.57286 17.8081 7.88747C17.2463 8.22454 16.4598 8.3369 15.6733 8.22454C13.6508 7.99983 12.0778 6.42679 12.0778 4.29196C12.0778 3.28072 12.5272 2.26949 13.2013 1.48297C13.9879 0.696454 14.8867 0.359375 16.0103 0.359375C17.2463 0.359375 18.3699 0.921173 19.044 1.59533ZM7.80809 1.59533C8.93169 2.83129 9.60584 4.1796 9.60584 6.42679C9.60584 10.3594 6.79685 13.8425 2.86427 15.6403L1.85303 14.1796C5.5609 12.1571 6.34741 9.57286 6.57213 7.88747C6.01034 8.22454 5.22382 8.3369 4.4373 8.22454C2.41483 7.99983 0.841797 6.31443 0.841797 4.29196C0.841797 3.28072 1.29124 2.26949 1.96539 1.48297C2.75191 0.696454 3.65079 0.359375 4.77438 0.359375C6.01034 0.359375 7.13393 0.921173 7.80809 1.59533Z" fill="#525252"/>
</svg>
