<svg width="32" height="32" viewBox="0 0 32 32" fill="none" xmlns="http://www.w3.org/2000/svg">
<path d="M6.4814 10.4922H0.469666V21.5137H6.4814V10.4922Z" fill="#FFCD78"/>
<path d="M1.4716 20.5117V10.4922H0.469666V21.5137H6.4814V20.5117H1.4716Z" fill="#F7A840"/>
<path d="M19.5069 4.47656H13.4951V10.4883H19.5069V4.47656Z" fill="#C2DE5D"/>
<path d="M14.4971 9.4863V4.47656H13.4951V10.4883H19.5069V9.4863H14.4971Z" fill="#9ACC5C"/>
<path d="M19.5069 21.5078H13.4951V27.5196H19.5069V21.5078Z" fill="#C2DE5D"/>
<path d="M14.4971 26.5176V21.5078H13.4951V27.5196H19.5069V26.5176H14.4971Z" fill="#9ACC5C"/>
<path d="M31.5302 0.46875H25.5185V6.48049H31.5302V0.46875Z" fill="#41CDE0"/>
<path d="M26.5205 5.47849V0.46875H25.5185V6.48049H31.5302V5.47849H26.5205Z" fill="#1EA9BD"/>
<path d="M31.5302 8.48438H25.5185V14.4961H31.5302V8.48438Z" fill="#41CDE0"/>
<path d="M26.5205 13.4942V8.48438H25.5185V14.4961H31.5302V13.4942H26.5205Z" fill="#1EA9BD"/>
<path d="M31.5302 25.5156H25.5185V31.5274H31.5302V25.5156Z" fill="#41CDE0"/>
<path d="M26.5205 30.5254V25.5156H25.5185V31.5274H31.5302V30.5254H26.5205Z" fill="#1EA9BD"/>
<path d="M31.5302 17.5H25.5185V23.5117H31.5302V17.5Z" fill="#41CDE0"/>
<path d="M26.5205 22.5098V17.5H25.5185V23.5117H31.5302V22.5098H26.5205Z" fill="#1EA9BD"/>
<path d="M25.5185 6.95105H31.5303C31.7897 6.95105 31.9999 6.7408 31.9999 6.48136V0.469687C31.9999 0.21025 31.7897 0 31.5303 0H25.5185C25.2591 0 25.0488 0.21025 25.0488 0.469687V3.18531L22.3026 4.55843C22.1435 4.63799 22.043 4.80062 22.043 4.97849V7.01374H19.9764V4.47749C19.9764 4.21805 19.7661 4.0078 19.5067 4.0078H13.495C13.2356 4.0078 13.0253 4.21805 13.0253 4.47749V7.74949L9.20536 10.6145C9.08704 10.7032 9.01748 10.8424 9.01748 10.9902V15.5303H6.95092V10.4892C6.95092 10.2298 6.74061 10.0195 6.48124 10.0195H0.469687C0.210312 10.0195 0 10.2298 0 10.4892V12.5349C0 12.7944 0.210312 13.0046 0.469687 13.0046C0.729061 13.0046 0.939373 12.7944 0.939373 12.5349V10.9589H6.0118V21.0411H0.939311V14.7458C0.939311 14.4864 0.728999 14.2762 0.469624 14.2762C0.21025 14.2762 0 14.4864 0 14.7458V21.5107C0 21.7701 0.210312 21.9804 0.469687 21.9804H6.48143C6.7408 21.9804 6.95111 21.7701 6.95111 21.5107V16.4696H9.01767V21.0097C9.01767 21.1575 9.08723 21.2968 9.20555 21.3855L13.0255 24.2505V27.5224C13.0255 27.7819 13.2358 27.9921 13.4952 27.9921H19.5069C19.7663 27.9921 19.9766 27.7819 19.9766 27.5224V24.9863H22.0431V27.0215C22.0431 27.1994 22.1436 27.3621 22.3028 27.4416L25.049 28.8147V31.5303C25.049 31.7898 25.2593 32 25.5187 32H31.5304C31.7899 32 32.0001 31.7898 32.0001 31.5303V25.5186C32.0001 25.2591 31.7899 25.0489 31.5304 25.0489H25.5187C25.2593 25.0489 25.049 25.2591 25.049 25.5186V27.7645L22.9823 26.7312V22.302L25.0489 21.2688V23.5146C25.0489 23.7741 25.2591 23.9843 25.5186 23.9843H31.5303C31.7898 23.9843 32 23.7741 32 23.5146V17.5029C32 17.2435 31.7898 17.0332 31.5303 17.0332H25.5186C25.2591 17.0332 25.0489 17.2435 25.0489 17.5029V20.2185L22.3026 21.5916C22.1436 21.6712 22.043 21.8338 22.043 22.0117V24.047H19.9765V21.5108C19.9765 21.2513 19.7662 21.0411 19.5068 21.0411H13.495C13.2357 21.0411 13.0254 21.2513 13.0254 21.5108V23.0763L9.95686 20.775V11.225L13.0254 8.92367V10.4892C13.0254 10.7487 13.2357 10.9589 13.495 10.9589H19.5068C19.7662 10.9589 19.9765 10.7487 19.9765 10.4892V7.95305H22.043V9.98829C22.043 10.1662 22.1435 10.3289 22.3026 10.4084L25.0489 11.7815V14.4971C25.0489 14.7565 25.2591 14.9668 25.5186 14.9668H31.5303C31.7898 14.9668 32 14.7565 32 14.4971V8.48536C32 8.22592 31.7898 8.01567 31.5303 8.01567H25.5186C25.2591 8.01567 25.0489 8.22592 25.0489 8.48536V10.7312L22.9823 9.69798V5.2688L25.0489 4.23555V6.48143C25.0489 6.74086 25.2591 6.95105 25.5185 6.95105ZM25.9882 25.9882H31.0606V31.0606H25.9882V25.9882ZM25.9882 17.9726H31.0606V23.045H25.9882V17.9726ZM13.9647 21.9804H19.0372V27.0528H13.9647V21.9804ZM19.0372 10.0195H13.9647V4.94718H19.0372V10.0195ZM25.9882 8.95498H31.0606V14.0274H25.9882V8.95498ZM25.9882 0.939311H31.0606V6.01174H25.9882V0.939311Z" fill="black"/>
</svg>
