<svg width="12" height="12" viewBox="0 0 12 12" fill="none" xmlns="http://www.w3.org/2000/svg">
<path d="M0.586043 12C0.470141 12 0.356835 11.9657 0.260459 11.9013C0.164082 11.8369 0.0889649 11.7454 0.0446079 11.6383C0.000250994 11.5312 -0.0113526 11.4134 0.0112648 11.2997C0.0338822 11.1861 0.0897046 11.0816 0.171671 10.9997L10.9997 0.171639C11.1096 0.0617403 11.2587 0 11.4141 0C11.5695 0 11.7186 0.0617403 11.8285 0.171639C11.9384 0.281537 12.0001 0.430591 12.0001 0.586011C12.0001 0.741431 11.9384 0.890485 11.8285 1.00038L1.00042 11.8284C0.94605 11.8829 0.881456 11.9261 0.810345 11.9556C0.739235 11.985 0.663008 12.0001 0.586043 12Z" fill="#424242"/>
<path d="M11.4141 12C11.3371 12.0001 11.2609 11.985 11.1898 11.9556C11.1187 11.9261 11.0541 11.8829 10.9997 11.8284L0.171639 1.00038C0.0617403 0.890485 0 0.741431 0 0.586011C0 0.430591 0.0617403 0.281537 0.171639 0.171639C0.281537 0.0617403 0.430591 0 0.586011 0C0.741431 0 0.890485 0.0617403 1.00038 0.171639L11.8284 10.9997C11.9104 11.0816 11.9662 11.1861 11.9888 11.2997C12.0115 11.4134 11.9999 11.5312 11.9555 11.6383C11.9111 11.7454 11.836 11.8369 11.7397 11.9013C11.6433 11.9657 11.53 12 11.4141 12Z" fill="#424242"/>
</svg>
