<svg width="16" height="16" viewBox="0 0 16 16" fill="none" xmlns="http://www.w3.org/2000/svg">
<path d="M7.70135 8.00012L0.667703 15.0251C0.444423 15.2481 0.444423 15.6097 0.667703 15.8327C0.891002 16.0558 1.25303 16.0558 1.47633 15.8327L8.86075 8.4574C8.98637 8.33191 9.04132 8.16259 9.02559 7.99876C9.04054 7.83568 8.98551 7.66744 8.8605 7.54261L1.47608 0.167265C1.2528 -0.0557551 0.890773 -0.0557551 0.667474 0.167265C0.444175 0.390276 0.444175 0.751863 0.667474 0.974887L7.70135 8.00012Z" fill="#717171"/>
<path d="M14.173 8.00012L7.13939 15.0251C6.91609 15.2481 6.91609 15.6097 7.13939 15.8327C7.36269 16.0558 7.72472 16.0558 7.948 15.8327L15.3324 8.4574C15.458 8.33191 15.513 8.16261 15.4973 7.99876C15.5122 7.8357 15.4572 7.66744 15.3322 7.54261L7.94777 0.167265C7.72447 -0.0557551 7.36244 -0.0557551 7.13914 0.167265C6.91586 0.390276 6.91586 0.751863 7.13914 0.974887L14.173 8.00012Z" fill="#717171"/>
</svg>
