<svg width="10" height="10" viewBox="0 0 10 10" fill="none" xmlns="http://www.w3.org/2000/svg">
<g id="02 User">
<path id="Vector" d="M0.48836 10C0.391777 10 0.297357 9.97139 0.217045 9.91774C0.136733 9.86409 0.074136 9.78782 0.0371726 9.69859C0.000209158 9.60936 -0.00946035 9.51117 0.00938716 9.41644C0.0282347 9.32171 0.0747524 9.2347 0.143056 9.16641L9.16627 0.143032C9.25785 0.0514502 9.38206 0 9.51157 0C9.64109 0 9.7653 0.0514502 9.85688 0.143032C9.94846 0.234614 9.99991 0.358826 9.99991 0.488342C9.99991 0.617859 9.94846 0.742071 9.85688 0.833653L0.833664 9.85703C0.78836 9.90243 0.734533 9.93843 0.675275 9.96297C0.616018 9.9875 0.552496 10.0001 0.48836 10Z" fill="#4D4D4D"/>
<path id="Vector_2" d="M9.51155 10C9.44741 10.0001 9.38389 9.9875 9.32463 9.96297C9.26537 9.93843 9.21155 9.90243 9.16624 9.85703L0.14303 0.833653C0.0514493 0.742071 0 0.617859 0 0.488342C0 0.358826 0.0514493 0.234614 0.14303 0.143032C0.23461 0.0514502 0.358819 0 0.488334 0C0.617848 0 0.742057 0.0514502 0.833637 0.143032L9.85685 9.16641C9.92515 9.2347 9.97167 9.32171 9.99052 9.41644C10.0094 9.51117 9.9997 9.60936 9.96274 9.69859C9.92577 9.78782 9.86317 9.86409 9.78286 9.91774C9.70255 9.97139 9.60813 10 9.51155 10Z" fill="#4D4D4D"/>
</g>
</svg>
