<svg width="14" height="14" viewBox="0 0 14 14" fill="none" xmlns="http://www.w3.org/2000/svg">
<path fill-rule="evenodd" clip-rule="evenodd" d="M7 0C3.13647 0 0 3.13647 0 7C0 10.8635 3.13647 14 7 14C10.8635 14 14 10.8635 14 7C14 3.13647 10.8635 0 7 0ZM7 0.933333C10.3483 0.933333 13.0667 3.65167 13.0667 7C13.0667 10.3483 10.3483 13.0667 7 13.0667C3.65167 13.0667 0.933333 10.3483 0.933333 7C0.933333 3.65167 3.65167 0.933333 7 0.933333Z" fill="#B6B6B7"/>
<path fill-rule="evenodd" clip-rule="evenodd" d="M6.3403 6.99992L4.0303 9.30992C3.8483 9.49192 3.8483 9.78779 4.0303 9.96979C4.2123 10.1518 4.50817 10.1518 4.69017 9.96979L7.00017 7.65979L9.31018 9.96979C9.49218 10.1518 9.78804 10.1518 9.97004 9.96979C10.152 9.78779 10.152 9.49192 9.97004 9.30992L7.66004 6.99992L9.97004 4.68992C10.152 4.50792 10.152 4.21205 9.97004 4.03005C9.78804 3.84805 9.49218 3.84805 9.31018 4.03005L7.00017 6.34005L4.69017 4.03005C4.50817 3.84805 4.2123 3.84805 4.0303 4.03005C3.8483 4.21205 3.8483 4.50792 4.0303 4.68992L6.3403 6.99992Z" fill="#B6B6B7"/>
</svg>
