<svg width="114" height="16" viewBox="0 0 114 16" fill="none" xmlns="http://www.w3.org/2000/svg">
<path d="M16.6755 15.9898C17.8607 16.0545 19.032 15.7076 19.9922 15.0075C20.9524 14.3074 21.643 13.2967 21.9477 12.1457C22.4978 9.58959 21.2753 7.87221 18.4834 6.23683C17.6104 5.72548 17.5665 5.27615 17.6482 4.90814C17.6888 4.58079 18.015 4.27411 18.6449 4.27411C19.3707 4.37761 20.028 4.7601 20.478 5.34081L23.2898 2.84607C22.6988 2.11976 21.9521 1.53658 21.1053 1.13996C20.2585 0.743351 19.3334 0.543513 18.399 0.555334C17.2923 0.486946 16.1955 0.80055 15.291 1.44405C14.3864 2.08755 13.7285 3.02221 13.4265 4.09276C12.895 6.48483 14.0989 8.36622 16.7486 9.93493C17.7266 10.5276 17.8283 11.0183 17.7452 11.4683C17.6907 11.7095 17.5515 11.9229 17.3532 12.0698C17.1549 12.2166 16.9106 12.2871 16.6649 12.2683C15.2384 12.2683 14.1175 10.6123 14.1175 10.6123L11.1841 12.8677C11.748 13.824 12.5516 14.6154 13.5151 15.1632C14.4785 15.7109 15.5682 15.9959 16.6755 15.9898ZM29.9819 0.856021H24.7801L21.6015 15.6798H25.9834L27.1475 10.2409H28.8391C30.1145 10.3458 31.3827 9.96723 32.3936 9.17996C33.4045 8.39269 34.0847 7.25388 34.3 5.98816C34.438 5.3534 34.4286 4.69529 34.2725 4.06475C34.1165 3.43421 33.818 2.84813 33.4001 2.35187C32.9822 1.85561 32.4562 1.46247 31.8626 1.20285C31.2691 0.943235 30.624 0.824104 29.9772 0.854679L29.9819 0.856021ZM30.1447 5.67549C30.0993 5.96396 29.9495 6.2255 29.724 6.41003C29.4984 6.59456 29.2129 6.6891 28.9221 6.67552H27.9255L28.374 4.52944H29.1892C29.3342 4.52058 29.4792 4.54613 29.6124 4.60399C29.7457 4.66185 29.8635 4.75039 29.9563 4.86246C30.0491 4.97453 30.1143 5.10698 30.1465 5.24905C30.1788 5.39111 30.1773 5.5388 30.142 5.68015L30.1447 5.67549ZM38.5549 15.9864C40.0909 16.0732 41.6026 15.5732 42.786 14.5869C43.9694 13.6006 44.7366 12.2012 44.9334 10.6703L47.0117 0.856021H42.6305L40.6532 10.1803C40.4698 11.1003 40.0213 11.571 39.2473 11.571C38.2081 11.571 37.937 10.937 38.1264 10.1396L40.0824 0.856673H35.7019L33.8096 9.89426C32.9771 13.883 35.3557 15.9898 38.5549 15.9898V15.9864ZM57.4444 5.86483C57.5777 5.24532 57.5675 4.60336 57.4145 3.98845C57.2615 3.37354 56.9699 2.80209 56.5621 2.31812C56.1543 1.83414 55.6412 1.45056 55.0623 1.19695C54.4835 0.943345 53.8543 0.826484 53.2233 0.85535H47.8382L44.7088 15.6791H49.09L50.2979 10.0356L52.3503 15.6791H56.9933L54.5309 9.56492C55.2854 9.24155 55.9472 8.73389 56.4561 8.0882C56.965 7.44251 57.3047 6.67931 57.4444 5.86814V5.86483ZM52.0035 4.53544C52.1867 4.5202 52.3709 4.54991 52.5401 4.62199C52.7093 4.69408 52.8585 4.80639 52.9749 4.94923C53.0912 5.09208 53.1712 5.26116 53.2079 5.44192C53.2445 5.62269 53.2369 5.8097 53.1855 5.98682C53.1225 6.34645 52.9298 6.67026 52.6442 6.89649C52.3586 7.12273 51.9999 7.23557 51.6367 7.21352H50.8806L51.4513 4.53477L52.0035 4.53544ZM69.3037 0.85535H58.0969L57.2006 5.00612H60.6037L58.3447 15.6791H62.7253L64.9843 5.00612H68.4074L69.3037 0.85535ZM79.3903 15.9891C80.5847 16.0536 81.7772 15.8312 82.8688 15.3404C83.9604 14.8496 84.9194 14.1045 85.6664 13.167L82.4871 10.611C82.1488 10.9977 81.7319 11.3073 81.2645 11.5189C80.797 11.7305 80.2898 11.8392 79.777 11.8376C79.2842 11.8313 78.7994 11.7118 78.3597 11.4885C77.9199 11.2652 77.537 10.944 77.24 10.5493C76.9431 10.1546 76.7401 9.69706 76.6465 9.21156C76.5529 8.72606 76.5712 8.2255 76.7 7.7482C76.8391 6.89638 77.2758 6.12206 77.932 5.56392C78.5882 5.00577 79.421 4.70027 80.2812 4.70212C80.9399 4.70728 81.5809 4.91613 82.1169 5.30018C82.6529 5.68422 83.0578 6.22478 83.2765 6.84817L87.1886 5.11013C86.7061 3.76617 85.8196 2.60572 84.6515 1.78899C83.4835 0.972264 82.0916 0.539573 80.6679 0.550674C78.7099 0.472626 76.7904 1.1123 75.268 2.35029C73.7455 3.58827 72.7242 5.33993 72.3946 7.2782C72.1662 8.32677 72.175 9.41339 72.4205 10.4581C72.6659 11.5028 73.1417 12.4789 73.8129 13.3147C74.484 14.1505 75.3334 14.8246 76.2985 15.2874C77.2636 15.7503 78.3199 15.99 79.3896 15.9891H79.3903ZM85.0963 15.6824H89.233L90.6795 10.3663L92.9445 15.2937L97.1802 10.8363L96.4672 15.6824H100.587L102.747 0L94.1677 8.52622L89.5965 0L85.0963 15.6824ZM106.717 15.9891C107.903 16.0551 109.075 15.7088 110.037 15.0086C110.998 14.3084 111.689 13.297 111.994 12.145C112.544 9.58892 111.322 7.87153 108.53 6.23616C107.657 5.72481 107.613 5.27547 107.695 4.90746C107.735 4.58012 108.061 4.27343 108.691 4.27343C109.417 4.37694 110.074 4.75943 110.524 5.34013L113.336 2.8454C112.745 2.11908 111.998 1.53591 111.152 1.13929C110.305 0.742679 109.38 0.542841 108.445 0.554662C107.339 0.486307 106.242 0.799954 105.338 1.44346C104.433 2.08697 103.775 3.02161 103.474 4.09211C102.942 6.48418 104.146 8.36555 106.796 9.93426C107.774 10.5269 107.875 11.0176 107.792 11.4676C107.738 11.7088 107.599 11.9223 107.4 12.0691C107.202 12.216 106.958 12.2864 106.712 12.2677C105.285 12.2677 104.165 10.6116 104.165 10.6116L101.236 12.867C101.799 13.8219 102.601 14.6125 103.562 15.1603C104.524 15.7081 105.612 15.994 106.717 15.9898L106.717 15.9891Z" fill="white"/>
<path d="M12.975 8.76433H5.36005C5.22422 8.74154 5.10083 8.67115 5.01184 8.56568C4.92285 8.46021 4.87402 8.3265 4.87402 8.18831C4.87402 8.05012 4.92285 7.91641 5.01184 7.81094C5.10083 7.70547 5.22422 7.6351 5.36005 7.6123H12.9757C13.1115 7.6351 13.2349 7.70547 13.3238 7.81094C13.4128 7.91641 13.4617 8.05012 13.4617 8.18831C13.4617 8.3265 13.4128 8.46021 13.3238 8.56568C13.2349 8.67115 13.1115 8.74154 12.9757 8.76433H12.975Z" fill="white"/>
<path d="M14.2559 1.84756H5.43769C5.36027 1.85505 5.28215 1.84671 5.20803 1.82305C5.13392 1.79938 5.06536 1.76087 5.00649 1.70986C4.94762 1.65886 4.89966 1.59643 4.86552 1.52631C4.83138 1.45618 4.81177 1.37984 4.80786 1.30189C4.80395 1.22395 4.81582 1.14603 4.84277 1.07282C4.86972 0.999615 4.91117 0.932655 4.96463 0.875978C5.0181 0.819302 5.08247 0.774096 5.15384 0.743081C5.22521 0.712066 5.3021 0.695889 5.37988 0.695533C5.39913 0.69443 5.41843 0.69443 5.43769 0.695533H14.2559C14.3333 0.688049 14.4114 0.696384 14.4855 0.720049C14.5597 0.743715 14.6282 0.78221 14.6871 0.833212C14.746 0.884213 14.7939 0.94667 14.8281 1.01679C14.8622 1.08691 14.8818 1.16324 14.8857 1.24118C14.8896 1.31912 14.8778 1.39707 14.8508 1.47027C14.8239 1.54348 14.7824 1.61044 14.7289 1.66712C14.6755 1.72379 14.6111 1.769 14.5397 1.80002C14.4684 1.83103 14.3915 1.84721 14.3137 1.84756C14.2951 1.84823 14.2758 1.84823 14.2559 1.84756Z" fill="white"/>
<path d="M12.0248 5.30584H0.536304C0.390804 5.2959 0.254492 5.23088 0.154933 5.12395C0.0553743 5.01702 0 4.87615 0 4.72981C0 4.58348 0.0553743 4.44261 0.154933 4.33568C0.254492 4.22875 0.390804 4.16375 0.536304 4.15381H12.0248C12.1703 4.16375 12.3066 4.22875 12.4062 4.33568C12.5057 4.44261 12.5611 4.58348 12.5611 4.72981C12.5611 4.87615 12.5057 5.01702 12.4062 5.12395C12.3066 5.23088 12.1703 5.2959 12.0248 5.30584Z" fill="white"/>
</svg>
