<svg width="32" height="32" viewBox="0 0 32 32" fill="none" xmlns="http://www.w3.org/2000/svg">
<path d="M15.8978 0C22.9473 0 28.9083 2.91051 29.11 6.39458C28.9083 9.87834 22.9473 12.7896 15.8978 12.7896C8.84811 12.7896 2.88758 9.87898 2.68555 6.39458C2.88758 2.91051 8.84811 0 15.8978 0Z" fill="#428BC6"/>
<path d="M29.129 25.4254C29.129 28.9894 23.0703 32.0004 15.8978 32.0004C8.72525 32.0004 2.6665 28.9894 2.6665 25.4254V22.2812C4.93173 25.0011 9.94167 26.851 15.8978 26.851C21.8539 26.851 26.8637 25.0006 29.129 22.2812V25.4254Z" fill="#428BC6"/>
<path d="M29.129 18.978C29.129 22.5419 23.0703 25.5531 15.8978 25.5531C8.72525 25.5531 2.6665 22.5419 2.6665 18.978V15.7031C4.93173 18.4224 9.94167 20.2717 15.8978 20.2717C21.8539 20.2717 26.8637 18.4212 29.129 15.7031V18.978Z" fill="#428BC6"/>
<path d="M29.129 12.395C29.129 15.9592 23.0703 18.97 15.8978 18.97C8.72525 18.97 2.6665 15.9591 2.6665 12.395V9.51758C4.93173 12.2375 9.94167 14.0861 15.8978 14.0861C21.8539 14.0861 26.8637 12.2368 29.129 9.51758V12.395Z" fill="#428BC6"/>
</svg>
