<svg width="32" height="32" viewBox="0 0 32 32" fill="none" xmlns="http://www.w3.org/2000/svg">
<path d="M4.79936 5.55273L2.6665 6.61937V25.3398L4.79936 26.4002L4.81219 26.3848V5.56742L4.79936 5.55273Z" fill="#8C3123"/>
<path d="M16.214 23.6831L4.79932 26.4002V5.55273L16.214 8.21064V23.6831Z" fill="#E05243"/>
<path d="M11.0615 19.4297L15.9033 20.0461L15.9337 19.9759L15.9609 12.0367L15.9033 11.9746L11.0615 12.5821V19.4297Z" fill="#8C3123"/>
<path d="M15.9033 23.7136L27.0072 26.406L27.0247 26.3782L27.0244 5.57135L27.0068 5.55273L15.9033 8.24115V23.7136Z" fill="#8C3123"/>
<path d="M20.7464 19.4297L15.9033 20.0461V11.9746L20.7464 12.5821V19.4297Z" fill="#E05243"/>
<path d="M20.7464 9.26942L15.9033 10.1521L11.0615 9.26942L15.8972 8.00195L20.7464 9.26942Z" fill="#5E1F18"/>
<path d="M20.7464 22.7322L15.9033 21.8438L11.0615 22.7322L15.8974 24.0821L20.7464 22.7322Z" fill="#F2B0A9"/>
<path d="M11.0615 9.26932L15.9033 8.07113L15.9425 8.05903V0.0323693L15.9033 0L11.0615 2.42129V9.26932Z" fill="#8C3123"/>
<path d="M20.7464 9.26932L15.9033 8.07113V0L20.7464 2.42129V9.26932Z" fill="#E05243"/>
<path d="M15.9033 32.0008L11.061 29.5803V22.7324L15.9033 23.9302L15.9746 24.0112L15.9552 31.8611L15.9033 32.0008Z" fill="#8C3123"/>
<path d="M15.9033 31.9989L20.746 29.5784V22.7305L15.9033 23.9282V31.9989Z" fill="#E05243"/>
<path d="M27.0073 5.55078L29.1411 6.61742V25.3379L27.0073 26.4041V5.55078Z" fill="#E05243"/>
</svg>
