<svg xmlns="http://www.w3.org/2000/svg" width="17.994" height="18" viewBox="0 0 17.994 18">
  <g id="Group_1435" data-name="Group 1435" transform="translate(-15 -122)">
    <path id="Path_2950" data-name="Path 2950" d="M32.992,203.112a.773.773,0,0,1-.541.524.7.7,0,0,1-.863-.7c0-.966,0-1.932,0-2.9v-3.76a2.807,2.807,0,0,0-2.869-2.866H19.27a2.805,2.805,0,0,0-2.859,2.857v9.469a2.806,2.806,0,0,0,2.846,2.853q3.3,0,6.6,0a.7.7,0,0,1,.238,1.374.484.484,0,0,0-.062.032h-7.2a.667.667,0,0,0-.115-.032,4.2,4.2,0,0,1-3.708-4.121q-.019-4.839,0-9.678a4.193,4.193,0,0,1,4.156-4.157q4.829-.02,9.659,0a4.194,4.194,0,0,1,4.032,3.16c.056.22.094.444.137.667Z" transform="translate(0 -70)" fill="#e0f6fe"/>
    <path id="Path_2951" data-name="Path 2951" d="M30.146,210c-.125-.028-.251-.052-.375-.085a2.362,2.362,0,0,1-1.08-.594c-.9-.892-1.808-1.784-2.69-2.7a5.045,5.045,0,0,1-1.3-2.694c-.1-.569-.223-1.135-.335-1.7a.7.7,0,0,1,.849-.848c.8.164,1.608.309,2.4.507a4.532,4.532,0,0,1,2.088,1.208q1.283,1.262,2.547,2.543a2.49,2.49,0,0,1,.708,1.42.577.577,0,0,0,.031.1v.563a.8.8,0,0,0-.031.1,2.523,2.523,0,0,1-1.863,2.1c-.127.038-.259.06-.389.09Zm-4.193-7.031c.043.223.086.422.119.623a3.825,3.825,0,0,0,1.026,2.148q1.255,1.268,2.52,2.522a1.156,1.156,0,0,0,1.634-1.636c-.839-.85-1.687-1.689-2.534-2.534A4.587,4.587,0,0,0,25.953,202.968Z" transform="translate(0 -70)" fill="#e0f6fe"/>
    <path id="Path_2952" data-name="Path 2952" d="M24,199.949h-4.74a.7.7,0,0,1-.089-1.4c.041,0,.082,0,.123,0H28.7a.708.708,0,0,1,.718.432.7.7,0,0,1-.665.974c-.919,0-1.837,0-2.756,0Z" transform="translate(0 -70)" fill="#e0f6fe"/>
    <path id="Path_2953" data-name="Path 2953" d="M25.562,197.138c-1.065,0-2.13,0-3.195,0a.7.7,0,1,1-.021-1.4c.427,0,.854,0,1.281,0h5.108a.7.7,0,1,1,0,1.4Q27.151,197.14,25.562,197.138Z" transform="translate(0 -70)" fill="#e0f6fe"/>
    <path id="Path_2954" data-name="Path 2954" d="M20.48,202.758H19.253a.7.7,0,1,1,.007-1.4q1.228,0,2.456,0a.7.7,0,1,1-.008,1.4C21.3,202.762,20.891,202.758,20.48,202.758Z" transform="translate(0 -70)" fill="#e0f6fe"/>
    <path id="Path_2955" data-name="Path 2955" d="M20.273,196.365a.878.878,0,1,1-1.368-.729.878.878,0,0,1,.823-.083.881.881,0,0,1,.545.812Z" transform="translate(0 -70)" fill="#e0f6fe"/>
  </g>
</svg>
