<svg width="18" height="18" viewBox="0 0 18 18" fill="none" xmlns="http://www.w3.org/2000/svg">
<path d="M1.0065 11.9058C1.03367 11.6472 1.22104 11.4388 1.59578 11.0221L2.42064 10.0999C2.62226 9.84464 2.76534 9.4 2.76534 8.99984C2.76534 8.6 2.62221 8.1552 2.42061 7.9L1.59578 6.97785C1.22104 6.5611 1.03366 6.35272 1.0065 6.09414C0.979333 5.83557 1.1193 5.59266 1.39923 5.10686L1.79409 4.42158C2.09273 3.90332 2.24204 3.64418 2.49611 3.54086C2.75017 3.43752 3.0375 3.51906 3.61217 3.68214L4.58836 3.9571C4.95524 4.0417 5.34016 3.9937 5.67516 3.82158L5.94467 3.66609C6.23193 3.4821 6.45289 3.21082 6.5752 2.89194L6.84237 2.09403C7.01802 1.56602 7.10585 1.30202 7.31492 1.15101C7.52404 1 7.8018 1 8.35724 1H9.24909C9.80461 1 10.0824 1 10.2914 1.15101C10.5005 1.30202 10.5884 1.56602 10.764 2.09403L11.0312 2.89194C11.1535 3.21082 11.3744 3.4821 11.6617 3.66609L11.9312 3.82158C12.2662 3.9937 12.6512 4.0417 13.018 3.9571L13.9942 3.68214C14.5688 3.51906 14.8562 3.43752 15.1103 3.54086C15.3644 3.64418 15.5136 3.90332 15.8123 4.42158L16.2072 5.10686C16.4871 5.59266 16.627 5.83557 16.5999 6.09414C16.5727 6.35272 16.3853 6.5611 16.0106 6.97785L15.1857 7.9C14.9842 8.1552 14.841 8.6 14.841 8.99984C14.841 9.4 14.9841 9.84464 15.1857 10.0999L16.0106 11.0221C16.3853 11.4388 16.5727 11.6472 16.5999 11.9058C16.627 12.1644 16.4871 12.4073 16.2072 12.893L15.8123 13.5783C15.5136 14.0966 15.3644 14.3558 15.1103 14.459C14.8562 14.5624 14.5688 14.4809 13.9942 14.3178L13.018 14.0428C12.6511 13.9582 12.2661 14.0062 11.9311 14.1784L11.6616 14.3339C11.3744 14.5179 11.1535 14.7891 11.0312 15.108L10.764 15.906C10.5884 16.434 10.5005 16.698 10.2914 16.849C10.0824 17 9.80461 17 9.24909 17H8.35724C7.8018 17 7.52404 17 7.31492 16.849C7.10585 16.698 7.01802 16.434 6.84237 15.906" stroke="#717171" stroke-width="1.2" stroke-linecap="round"/>
<path d="M1.39113 14.4254C2.25513 13.5614 5.19273 10.6526 5.48073 10.3166C5.78518 9.9614 5.53833 9.4814 5.68521 7.9934C5.75628 7.2734 5.91115 6.734 6.35433 6.3326C6.88233 5.8334 7.31436 5.8334 8.80236 5.79981C10.0984 5.8334 10.252 5.6894 10.3864 6.02541C10.4824 6.26541 10.1944 6.4094 9.84876 6.79341C9.08076 7.5614 8.62956 7.9454 8.58636 8.1854C8.27436 9.2414 9.50316 9.8654 10.1752 9.1934C10.4292 8.93924 11.6056 7.7534 11.7208 7.6574C11.8072 7.5806 12.014 7.58428 12.1144 7.7054C12.2008 7.79028 12.2104 7.8014 12.2008 8.1854C12.1919 8.54084 12.1958 9.05116 12.1969 9.5774C12.1983 10.2592 12.1624 11.0174 11.8744 11.4014C11.2984 12.2654 10.3384 12.3134 9.47436 12.3518C8.65836 12.3998 7.98636 12.3134 7.77516 12.467C7.60236 12.5534 6.69033 13.5134 5.58633 14.6174L3.61833 16.5854C1.98633 17.8814 0.191128 15.8654 1.39113 14.4254Z" stroke="#717171" stroke-width="1.2" stroke-linecap="round"/>
</svg>
