<svg width="16" height="16" viewBox="0 0 16 16" fill="none" xmlns="http://www.w3.org/2000/svg">
<path d="M10.3323 7.9974C10.3323 9.28606 9.28765 10.3307 7.99898 10.3307C6.71032 10.3307 5.66565 9.28606 5.66565 7.9974C5.66565 6.70873 6.71032 5.66406 7.99898 5.66406C9.28765 5.66406 10.3323 6.70873 10.3323 7.9974Z" stroke="#252525" stroke-width="1.5"/>
<path d="M14.0083 9.39787C14.3563 9.30407 14.5303 9.25714 14.5989 9.16741C14.6677 9.07774 14.6677 8.93341 14.6677 8.64481V7.35567C14.6677 7.06707 14.6677 6.92274 14.5989 6.83307C14.5302 6.74334 14.3563 6.69641 14.0083 6.60259C12.7081 6.25193 11.8943 4.89255 12.2299 3.60079C12.3221 3.24553 12.3683 3.06791 12.3242 2.96373C12.2802 2.85955 12.1538 2.78777 11.9008 2.64418L10.751 1.99136C10.5029 1.85047 10.3788 1.78002 10.2675 1.79502C10.1561 1.81002 10.0305 1.93536 9.77915 2.18603C8.80635 3.15653 7.19675 3.15649 6.22391 2.18597C5.97264 1.93529 5.847 1.80996 5.73564 1.79495C5.62428 1.77995 5.5002 1.8504 5.25204 1.99129L4.10224 2.64412C3.84937 2.78769 3.72293 2.85948 3.67887 2.96364C3.6348 3.06781 3.68093 3.24545 3.77318 3.60074C4.1086 4.89254 3.29416 6.25196 1.9937 6.60261C1.64576 6.69641 1.4718 6.74334 1.40307 6.83301C1.33435 6.92274 1.33435 7.06707 1.33435 7.35567V8.64481C1.33435 8.93341 1.33435 9.07774 1.40307 9.16741C1.47178 9.25714 1.64576 9.30407 1.9937 9.39787C3.29395 9.74854 4.10774 11.1079 3.77216 12.3997C3.67988 12.7549 3.63373 12.9325 3.67779 13.0367C3.72186 13.1409 3.8483 13.2127 4.10118 13.3563L5.25098 14.0091C5.49916 14.15 5.62324 14.2205 5.73462 14.2055C5.84599 14.1905 5.9716 14.0651 6.22282 13.8144C7.19615 12.8431 8.80688 12.8431 9.78028 13.8143C10.0315 14.0651 10.1571 14.1904 10.2685 14.2054C10.3798 14.2204 10.504 14.1499 10.7521 14.0091L11.9019 13.3562C12.1548 13.2127 12.2813 13.1409 12.3253 13.0367C12.3694 12.9325 12.3232 12.7549 12.2309 12.3996C11.8952 11.1079 12.7083 9.74861 14.0083 9.39787Z" stroke="#252525" stroke-width="1.5" stroke-linecap="round"/>
</svg>
