<svg width="14" height="14" viewBox="0 0 14 14" fill="none" xmlns="http://www.w3.org/2000/svg">
<path d="M12.6467 7.95379L12.1316 7.54284C11.7788 7.26133 11.7794 6.73811 12.1316 6.45716L12.6467 6.04621C13.0132 5.75373 13.1069 5.25222 12.8696 4.85366L11.8525 3.14634C11.6151 2.7478 11.12 2.57577 10.6755 2.73716L10.0508 2.96402C9.62292 3.11936 9.15573 2.85735 9.08075 2.42118L8.97109 1.78335C8.89303 1.32946 8.49179 1 8.01702 1H5.98302C5.50822 1 5.10696 1.32946 5.02892 1.78338L4.91924 2.42118C4.84411 2.85812 4.3763 3.1191 3.94919 2.96404L3.32446 2.73716C2.87994 2.57577 2.3849 2.74783 2.14747 3.14634L1.13048 4.85364C0.893095 5.25215 0.986821 5.75369 1.35338 6.04619L1.86842 6.45714C2.22127 6.73867 2.22057 7.26184 1.86842 7.54281L1.35336 7.95377C0.986821 8.24627 0.89307 8.7478 1.13046 9.14631L2.14747 10.8536C2.38488 11.2521 2.87982 11.4242 3.32446 11.2628L3.94916 11.036C4.37714 10.8805 4.84423 11.1427 4.91921 11.5788L5.0289 12.2166C5.10696 12.6705 5.50822 13 5.98299 13H8.01699C8.49177 13 8.89303 12.6705 8.97106 12.2166L9.08072 11.5788C9.15583 11.142 9.62362 10.8809 10.0508 11.036L10.6755 11.2628C11.1202 11.4243 11.6151 11.2522 11.8525 10.8537L12.8696 9.14631C13.1069 8.7478 13.0132 8.24627 12.6467 7.95379ZM11.0149 10.3849L10.3902 10.1581C9.3915 9.79546 8.30163 10.4072 8.12668 11.4247L8.01702 12.0625H5.98302L5.87333 11.4247C5.69804 10.4052 4.60658 9.79616 3.60985 10.1581L2.98513 10.3849L1.96814 8.67759L2.48318 8.26663C3.30652 7.60968 3.30481 6.38896 2.48318 5.73337L1.96814 5.32241L2.98515 3.61509L3.60985 3.84194C4.60853 4.20452 5.69838 3.5928 5.87333 2.5753L5.98299 1.9375H8.01699L8.12666 2.5753C8.30197 3.59488 9.39348 4.20377 10.3901 3.84194L11.0149 3.61509L12.0321 5.32218C12.0321 5.32218 12.032 5.32225 12.0318 5.32239L11.5168 5.73334C10.6935 6.39025 10.6951 7.61099 11.5168 8.26661L12.0318 8.67756L11.0149 10.3849ZM7.00001 4.68749C5.68443 4.68749 4.61412 5.72488 4.61412 7C4.61412 8.27512 5.68443 9.31251 7.00001 9.31251C8.31558 9.31251 9.38589 8.27512 9.38589 7C9.38589 5.72488 8.31558 4.68749 7.00001 4.68749ZM7.00001 8.37501C6.21777 8.37501 5.58137 7.75818 5.58137 7C5.58137 6.24182 6.21777 5.62499 7.00001 5.62499C7.78224 5.62499 8.41864 6.24182 8.41864 7C8.41864 7.75818 7.78224 8.37501 7.00001 8.37501Z" fill="#10A37F" stroke="#10A37F" stroke-width="0.3"/>
</svg>
