<svg id="图层_2" data-name="图层 2" xmlns="http://www.w3.org/2000/svg" width="22" height="16" viewBox="0 0 22 16">
  <g id="Discord_Logos" data-name="Discord Logos">
    <g id="Discord_Logo_-_Large_-_White" data-name="Discord Logo - Large - White" transform="translate(0)">
      <path id="Path_1488" data-name="Path 1488" d="M18.636,1.34A18.761,18.761,0,0,0,14.1,0a11.772,11.772,0,0,0-.581,1.134,17.606,17.606,0,0,0-5.037,0A11.822,11.822,0,0,0,7.9,0,18.893,18.893,0,0,0,3.355,1.343,17.059,17.059,0,0,0,.094,13.318h0A18.6,18.6,0,0,0,5.66,16a12.827,12.827,0,0,0,1.192-1.845,12.065,12.065,0,0,1-1.877-.86c.157-.11.311-.223.46-.332a13.576,13.576,0,0,0,11.13,0c.151.118.3.231.46.332a12.112,12.112,0,0,1-1.881.862A12.712,12.712,0,0,0,16.337,16a18.521,18.521,0,0,0,5.57-2.68h0A17.058,17.058,0,0,0,18.636,1.34ZM7.346,10.907A2.054,2.054,0,0,1,5.364,8.8,2.041,2.041,0,0,1,7.342,6.685,2.033,2.033,0,0,1,9.325,8.8,2.052,2.052,0,0,1,7.346,10.907Zm7.309,0A2.052,2.052,0,0,1,12.675,8.8a1.983,1.983,0,1,1,3.957,0A2.05,2.05,0,0,1,14.655,10.907Z" transform="translate(0)" fill="#fff"/>
    </g>
  </g>
</svg>
