<svg width="20" height="20" viewBox="0 0 20 20" fill="none" xmlns="http://www.w3.org/2000/svg">
<path d="M6.6671 8.51095C6.49801 8.51215 6.33038 8.47973 6.17394 8.41557C6.01749 8.35142 5.87536 8.25681 5.7558 8.13725C5.63623 8.01769 5.54163 7.87556 5.47747 7.71911C5.41332 7.56267 5.3809 7.39503 5.3821 7.22595C5.3821 6.50795 5.9491 5.93995 6.6671 5.93995C7.3841 5.93995 7.9521 6.50795 7.9521 7.22595C7.9521 7.94295 7.3841 8.51095 6.6671 8.51095ZM13.3331 8.51095C13.164 8.51215 12.9964 8.47973 12.8399 8.41557C12.6835 8.35142 12.5414 8.25681 12.4218 8.13725C12.3022 8.01769 12.2076 7.87556 12.1435 7.71911C12.0793 7.56267 12.0469 7.39503 12.0481 7.22595C12.0481 6.50795 12.6161 5.93995 13.3331 5.93995C14.0511 5.93995 14.6181 6.50795 14.6181 7.22595C14.6181 7.94295 14.0511 8.51095 13.3331 8.51095ZM4.8231 16.215L5.5381 15.779C6.34773 15.2853 7.3064 15.0953 8.2431 15.243C8.4551 15.276 8.6291 15.302 8.7631 15.319C9.1691 15.373 9.5831 15.4 10.0001 15.4C14.4201 15.4 17.9001 12.378 17.9001 8.79995C17.9001 5.22195 14.4201 2.19995 10.0001 2.19995C5.5801 2.19995 2.1001 5.22195 2.1001 8.79995C2.1001 10.166 2.6001 11.473 3.5321 12.581C3.5801 12.638 3.6521 12.718 3.7461 12.816C4.13917 13.2253 4.44063 13.7136 4.63046 14.2485C4.82029 14.7833 4.89414 15.3524 4.8471 15.918L4.8231 16.215ZM4.1931 18.9419C4.03581 19.0404 3.85425 19.0931 3.66872 19.0942C3.48319 19.0953 3.30101 19.0448 3.14255 18.9483C2.98409 18.8518 2.85561 18.7131 2.77146 18.5477C2.68732 18.3824 2.65084 18.1969 2.6661 18.0119L2.8541 15.752C2.87768 15.4692 2.84084 15.1847 2.74601 14.9173C2.65118 14.6498 2.50054 14.4057 2.3041 14.201C2.19921 14.0932 2.09783 13.9822 2.0001 13.868C0.806098 12.447 0.100098 10.695 0.100098 8.79995C0.100098 4.04995 4.5321 0.199951 10.0001 0.199951C15.4681 0.199951 19.9001 4.04995 19.9001 8.79995C19.9001 13.55 15.4681 17.4 10.0001 17.4C9.4901 17.4 8.9901 17.367 8.5011 17.302C8.3111 17.2763 8.12142 17.2483 7.9321 17.218C7.46359 17.144 6.98405 17.239 6.5791 17.486L4.1931 18.9419Z" fill="#120B14" fill-opacity="0.83"/>
</svg>
