<svg width="16" height="16" viewBox="0 0 16 16" fill="none" xmlns="http://www.w3.org/2000/svg">
<path d="M16 1.91347C16 1.45746 15.8248 1.02874 15.5068 0.706273L15.3034 0.500056C14.9853 0.177586 14.5625 0 14.1126 0C13.6628 0 13.24 0.177586 12.9219 0.500056L11.2985 2.14594H1.78036C0.798657 2.14594 0 2.95564 0 3.95093V14.195C0 15.1903 0.798657 16 1.78036 16H12.1965C13.1783 16 13.9769 15.1903 13.9769 14.195V4.7015C13.9769 4.69192 13.976 4.68259 13.9755 4.67316L15.5068 3.1207C15.8248 2.79823 16 2.36951 16 1.91347ZM12.9112 14.1951C12.9112 14.5946 12.5906 14.9196 12.1965 14.9196H1.78036C1.38627 14.9196 1.06568 14.5946 1.06568 14.1951V3.951C1.06568 3.55146 1.38627 3.22643 1.78036 3.22643H10.2329L7.05758 6.44559C6.88583 6.61976 6.63674 6.97507 6.23203 8.18681C6.02092 8.81889 5.86849 9.38507 5.8621 9.40887C5.81443 9.58646 5.85922 9.7764 5.98092 9.91293C6.08284 10.0272 6.22692 10.0909 6.37622 10.0909C6.40521 10.0909 6.43444 10.0886 6.46353 10.0836C6.48918 10.0793 7.09904 9.9761 7.77493 9.81407C9.08632 9.49974 9.46176 9.24926 9.64239 9.06616L12.9112 5.75214V14.1951H12.9112ZM14.7533 2.35669L8.89077 8.30029C8.73166 8.43981 7.99549 8.66601 7.13563 8.85379C7.39451 8.03486 7.66857 7.35495 7.81116 7.20956L13.6755 1.26406C13.7923 1.14568 13.9475 1.08046 14.1127 1.08046C14.2778 1.08046 14.4331 1.14568 14.5499 1.26406L14.7533 1.47028C14.87 1.58869 14.9344 1.74607 14.9344 1.9135C14.9343 2.0809 14.87 2.23828 14.7533 2.35669Z" fill="#4365C0"/>
<path fill-rule="evenodd" clip-rule="evenodd" d="M10.7179 12C11.0152 12 11.2564 12.25 11.2564 12.5581C11.2564 12.8662 11.0152 13.1163 10.7179 13.1163H3.53846C3.24123 13.1163 3 12.8662 3 12.5581C3 12.25 3.24123 12 3.53846 12H10.7179Z" fill="#4365C0"/>
</svg>
