<svg width="32" height="32" viewBox="0 0 32 32" fill="none" xmlns="http://www.w3.org/2000/svg">
<path fill-rule="evenodd" clip-rule="evenodd" d="M19.713 26.5C17.275 26.5 14.652 26.5 12.2175 26.5C12.3808 27.9185 12.2324 29.5792 11.9261 30.9684H20.0471C19.7213 29.5792 19.5496 27.9185 19.713 26.5Z" fill="#656565"/>
<path fill-rule="evenodd" clip-rule="evenodd" d="M29.7534 4.43756C30.6488 4.43756 31.3749 5.16375 31.3749 6.0595V24.2965C31.3749 25.5157 30.3866 26.5041 29.1674 26.5041H2.8325C1.61325 26.5041 0.624939 25.5157 0.624939 24.2965V6.64506C0.624939 5.42581 1.61325 4.4375 2.8325 4.4375L29.7534 4.43756Z" fill="#92D2FE"/>
<path fill-rule="evenodd" clip-rule="evenodd" d="M2.8325 26.5005H12.2174H19.7129H29.1674C30.3867 26.5005 31.375 25.5122 31.375 24.2929C31.375 24.2929 31.375 23.4427 31.375 22.1094H0.625V24.2929C0.625 25.5122 1.61325 26.5005 2.8325 26.5005Z" fill="#E6E6E6"/>
<path fill-rule="evenodd" clip-rule="evenodd" d="M8.43066 17.2366L11.9289 15.2169L18.4276 3.96089C19.0302 2.9172 18.6725 1.58276 17.6289 0.980199C16.5853 0.377636 15.2508 0.735261 14.6482 1.77889L8.14954 13.0349V17.0743C8.14954 17.1431 8.18366 17.2022 8.24322 17.2366C8.30285 17.2711 8.3711 17.2711 8.43066 17.2366Z" fill="#E6E6E6"/>
<path fill-rule="evenodd" clip-rule="evenodd" d="M13.8934 3.08632L17.6727 5.26839L18.4276 3.96089C19.0302 2.9172 18.6726 1.58276 17.6289 0.980199C16.5853 0.377636 15.2508 0.735261 14.6482 1.77889L13.8934 3.08632Z" fill="#FFD54F"/>
<path fill-rule="evenodd" clip-rule="evenodd" d="M8.14941 13.0312L13.8932 3.08302L17.6725 5.26505L11.9287 15.2133L8.14941 13.0312Z" fill="#FFC107"/>
<path fill-rule="evenodd" clip-rule="evenodd" d="M24.4119 13.5601C24.4119 13.905 24.1328 14.1851 23.7869 14.1851H17.3127C16.9674 14.1851 16.6877 13.905 16.6877 13.5601C16.6877 13.2151 16.9675 12.9351 17.3127 12.9351H23.7869C24.1327 12.9351 24.4119 13.2151 24.4119 13.5601ZM29.1667 25.9513H2.83262C1.96025 25.9513 1.25006 25.2414 1.25006 24.3688V22.81H30.75V24.3688C30.7499 25.2414 30.0394 25.9513 29.1667 25.9513ZM19.2649 30.4196H12.697C12.8989 29.3088 12.9594 28.1793 12.8671 27.2014H19.0639C18.9746 28.1713 19.0465 29.3008 19.2649 30.4196ZM2.83262 5.13507C1.96025 5.13507 1.25006 5.84438 1.25006 6.71763V21.5603H30.75V6.13213C30.75 5.582 30.3019 5.13507 29.7535 5.13507H18.5031L12.5351 15.4714C12.4799 15.5664 12.4013 15.6457 12.3063 15.7002L10.5456 16.717H23.7868C24.1326 16.717 24.4118 16.9971 24.4118 17.342C24.4118 17.6869 24.1326 17.967 23.7868 17.967H8.21338C7.86756 17.967 7.58838 17.6869 7.58838 17.342V12.9763C7.58838 12.8664 7.617 12.7588 7.67212 12.6638L12.0184 5.135L2.83262 5.13507ZM17.3831 1.45832C18.1276 1.88757 18.3831 2.8425 17.9539 3.58632L17.5107 4.35313L14.8126 2.795L15.2551 2.02819C15.6849 1.28438 16.6396 1.02882 17.3831 1.45832ZM11.7651 14.3057L16.8857 5.43575L14.1876 3.87763L9.06688 12.7476L11.7651 14.3057ZM8.83838 14.0589L10.7438 15.1595L8.83838 16.2595V14.0589ZM29.7534 3.88532H19.1972C19.7308 2.60257 19.2426 1.08807 18.0082 0.375817C16.6676 -0.398683 14.9471 0.0626916 14.1726 1.40325L12.7401 3.88532H2.83262C1.27069 3.88532 0 5.15569 0 6.71763V24.3688C0 25.9307 1.27069 27.2014 2.83262 27.2014H11.6103C11.7171 28.1574 11.6501 29.3019 11.4252 30.4196H7.90381C7.55887 30.4196 7.27881 30.6994 7.27881 31.0444C7.27881 31.3902 7.55887 31.6694 7.90381 31.6694H24.0962C24.442 31.6694 24.7212 31.3902 24.7212 31.0444C24.7212 30.6994 24.442 30.4196 24.0962 30.4196H20.5407C20.2957 29.2914 20.2164 28.1469 20.3208 27.2014H29.1668C30.7294 27.2014 32 25.9307 32 24.3688V6.13213C32 4.89269 30.9917 3.88532 29.7534 3.88532Z" fill="black"/>
</svg>
