<svg width="24" height="24" viewBox="0 0 24 24" fill="none" xmlns="http://www.w3.org/2000/svg">
<path d="M20.0537 0H3.94631C1.7702 0 0 1.7702 0 3.94631V20.0537C0 22.2298 1.7702 24 3.94631 24H20.0537C22.2298 24 24 22.2298 24 20.0537V3.94631C24 1.7702 22.2298 0 20.0537 0ZM3.94631 1.44966H20.0537C21.4301 1.44966 22.5503 2.56993 22.5503 3.94631V6.84564H1.44966V3.94631C1.44966 2.56993 2.56993 1.44966 3.94631 1.44966ZM20.0537 22.5503H3.94631C2.56993 22.5503 1.44966 21.4301 1.44966 20.0537V8.2953H22.5503V20.0537C22.5503 21.4301 21.4301 22.5503 20.0537 22.5503Z" fill="#525252"/>
<path d="M4.71995 4.87154H6.09391C6.49418 4.87154 6.81874 4.54698 6.81874 4.14671C6.81874 3.74644 6.49418 3.42188 6.09391 3.42188H4.71995C4.31968 3.42188 3.99512 3.74644 3.99512 4.14671C3.99512 4.54698 4.31968 4.87154 4.71995 4.87154Z" fill="#525252"/>
<path d="M9.2678 4.87154H19.2793C19.6796 4.87154 20.0042 4.54698 20.0042 4.14671C20.0042 3.74644 19.6796 3.42188 19.2793 3.42188H9.2678C8.86753 3.42188 8.54297 3.74644 8.54297 4.14671C8.54297 4.54698 8.86753 4.87154 9.2678 4.87154Z" fill="#525252"/>
<path d="M16.9299 13.0879H7.07054C6.67027 13.0879 6.3457 13.4125 6.3457 13.8127C6.3457 14.213 6.67027 14.5376 7.07054 14.5376H16.9299C17.3301 14.5376 17.6547 14.213 17.6547 13.8127C17.6547 13.4125 17.3301 13.0879 16.9299 13.0879Z" fill="#525252"/>
<path d="M14.8244 16.3086H9.17552C8.77525 16.3086 8.45068 16.6332 8.45068 17.0334C8.45068 17.4337 8.77525 17.7583 9.17552 17.7583H14.8244C15.2246 17.7583 15.5492 17.4337 15.5492 17.0334C15.5492 16.6332 15.2246 16.3086 14.8244 16.3086Z" fill="#525252"/>
</svg>
