<svg width="14" height="18" viewBox="0 0 14 18" fill="none" xmlns="http://www.w3.org/2000/svg">
<path d="M10.4361 5.06265L10.4361 5.06221C10.4328 4.3159 9.86355 3.69785 9.15141 3.69785H2.18465C1.46965 3.69785 0.9 4.31575 0.9 5.06265V15.7348C0.9 16.4817 1.46965 17.0996 2.18465 17.0996H9.15141C9.86641 17.0996 10.4361 16.4817 10.4361 15.7348L10.4361 5.06265ZM9.40435 15.7315C9.40435 15.8922 9.28346 16.0116 9.14834 16.0116H2.18159C2.04646 16.0116 1.92558 15.8922 1.92558 15.7315V5.06265C1.92558 4.9019 2.04646 4.78255 2.18159 4.78255H9.14834C9.28346 4.78255 9.40435 4.9019 9.40435 5.06265V15.7315Z" fill="#10A37F" stroke="#10A37F" stroke-width="0.2"/>
<path d="M11.8155 0.9H4.84872C4.13372 0.9 3.56406 1.5179 3.56406 2.2648C3.56406 2.55951 3.78691 2.80715 4.07838 2.80715C4.36986 2.80715 4.59271 2.55951 4.59271 2.2648C4.59271 2.10405 4.71359 1.9847 4.84872 1.9847H11.8155C11.9506 1.9847 12.0715 2.10405 12.0715 2.2648V12.9369C12.0715 13.0977 11.9506 13.217 11.8155 13.217C11.524 13.217 11.3011 13.4647 11.3011 13.7594C11.3011 14.0541 11.524 14.3017 11.8155 14.3017C12.5305 14.3017 13.1001 13.6838 13.1001 12.9369V2.2648C13.1001 1.5179 12.5305 0.9 11.8155 0.9Z" fill="#10A37F" stroke="#10A37F" stroke-width="0.2"/>
</svg>
