<svg xmlns="http://www.w3.org/2000/svg" width="20.5" height="20.5" viewBox="0 0 20.5 20.5">
  <g id="copy-01-stroke-rounded_2_" data-name="copy-01-stroke-rounded (2)" transform="translate(-1.25 -1.25)">
    <path id="Path_30114" data-name="Path 30114" d="M9,14.7c0-2.687,0-4.03.835-4.865S12.013,9,14.7,9h.95c2.687,0,4.03,0,4.865.835s.835,2.178.835,4.865v.95c0,2.687,0,4.03-.835,4.865s-2.178.835-4.865.835H14.7c-2.687,0-4.03,0-4.865-.835S9,18.337,9,15.65Z" transform="translate(-0.35 -0.35)" fill="none" stroke="#61707f" stroke-linecap="round" stroke-linejoin="round" stroke-width="1.5"/>
    <path id="Path_30115" data-name="Path 30115" d="M16.25,8.65c0-2.809-.045-4.264-.863-5.261a3.8,3.8,0,0,0-.527-.527C13.81,2,12.248,2,9.125,2S4.44,2,3.389,2.863a3.8,3.8,0,0,0-.527.527C2,4.44,2,6,2,9.125s0,4.685.863,5.736a3.8,3.8,0,0,0,.527.527c1,.818,2.451.86,5.261.863" fill="none" stroke="#61707f" stroke-linecap="round" stroke-linejoin="round" stroke-width="1.5"/>
  </g>
</svg>
