<svg width="14" height="14" viewBox="0 0 14 14" fill="none" xmlns="http://www.w3.org/2000/svg">
<path d="M8.74163 4.78119C8.74165 4.78119 8.74167 4.78119 8.74168 4.78119C8.86796 4.78133 8.98903 4.83156 9.07833 4.92086C9.16764 5.01017 9.21787 5.13126 9.218 5.25756V11.8413L8.74168 4.73119L8.74163 4.78119ZM8.74163 4.78119H2.15795M8.74163 4.78119H2.15795M2.15795 4.78119L2.15789 4.78119M2.15795 4.78119L2.15789 4.78119M2.15789 4.78119C2.03161 4.78133 1.91055 4.83156 1.82125 4.92086C1.73196 5.01016 1.68173 5.13122 1.68158 5.2575M2.15789 4.78119L1.63158 5.2575L1.68158 5.25756M1.68158 5.2575C1.68158 5.25752 1.68158 5.25754 1.68158 5.25756M1.68158 5.2575L1.68158 5.25756M1.68158 5.2575L1.68158 11.8413M1.68158 5.25756V11.8413M1.68158 11.8413L1.68158 11.8414L1.68158 11.8413ZM0.95 5.25744V5.2575L0.95 11.8414L0.95 11.8414C0.95038 12.1617 1.07776 12.4687 1.30419 12.6951C1.53062 12.9215 1.83761 13.0489 2.15784 13.0493H2.15789H8.74168H8.74174C9.06196 13.0489 9.36896 12.9215 9.59539 12.6951C9.82182 12.4687 9.9492 12.1617 9.94958 11.8414V11.8414V5.2575V5.25744C9.9492 4.93722 9.82182 4.63023 9.59539 4.4038C9.36896 4.17737 9.06196 4.04999 8.74174 4.04961H8.74168L2.15789 4.04961L2.15784 4.04961C1.83761 4.04999 1.53062 4.17737 1.30419 4.4038C1.07776 4.63023 0.95038 4.93722 0.95 5.25744Z" fill="#252525" stroke="#252525" stroke-width="0.1"/>
<path d="M4.78216 2.86666L4.78216 2.86666C4.7808 2.96278 4.74166 3.0545 4.67321 3.12198C4.60476 3.18947 4.5125 3.22731 4.41638 3.22731C4.32025 3.22731 4.22799 3.18947 4.15954 3.12198C4.09109 3.0545 4.05195 2.96278 4.05059 2.86666L4.05058 2.86595H4.05059V2.34909V2.34903C4.05104 1.97809 4.19861 1.62246 4.46093 1.36019C4.72325 1.09791 5.0789 0.950391 5.44985 0.95L5.4499 0.95L6.22506 0.95H6.22579V0.950005C6.32188 0.951407 6.41355 0.99056 6.48101 1.059C6.54846 1.12745 6.58627 1.21969 6.58628 1.31578C6.58628 1.41188 6.54847 1.50412 6.48102 1.57256C6.41357 1.64101 6.32189 1.68017 6.2258 1.68157L6.22507 1.68158V1.68158L5.44994 1.68158L5.44989 1.68158M4.78216 2.86666L4.73216 2.34909C4.73242 2.15884 4.80812 1.97645 4.94267 1.84194C5.07722 1.70743 5.25963 1.63178 5.44989 1.63158V1.68158M4.78216 2.86666V2.86595M4.78216 2.86666V2.86595M5.44989 1.68158C5.27289 1.68178 5.1032 1.75217 4.97803 1.8773C4.85285 2.00244 4.78241 2.17212 4.78216 2.34912L5.44989 1.68158ZM4.78216 2.86595L4.78216 2.34916L4.78216 2.86595Z" fill="#252525" stroke="#252525" stroke-width="0.1"/>
<path d="M12.3186 7.77477V7.77477V8.5498C12.3184 8.72684 12.248 8.89658 12.1228 9.02177C11.9976 9.14696 11.8279 9.21738 11.6508 9.21758H11.1341C11.0371 9.21758 10.9441 9.25612 10.8755 9.32472C10.8069 9.39331 10.7684 9.48635 10.7684 9.58337C10.7684 9.68038 10.8069 9.77342 10.8755 9.84202C10.9441 9.91062 11.0371 9.94916 11.1341 9.94916H11.6509H11.651C12.0219 9.94875 12.3776 9.8012 12.6399 9.53888C12.9022 9.27656 13.0498 8.92089 13.0502 8.54991V8.54986V7.77477C13.0502 7.67776 13.0117 7.58472 12.9431 7.51613C12.8745 7.44753 12.7814 7.40899 12.6844 7.40898H12.6844C12.5874 7.40899 12.4944 7.44753 12.4258 7.51613C12.3572 7.58472 12.3186 7.67776 12.3186 7.77477Z" fill="#252525" stroke="#252525" stroke-width="0.1"/>
<path d="M11.6509 0.95H11.6509C12.0219 0.950394 12.3775 1.09791 12.6398 1.36019C12.9022 1.62247 13.0497 1.97809 13.0502 2.34903V2.34909V3.12438C13.0502 3.2214 13.0116 3.31444 12.943 3.38304C12.8744 3.45163 12.7814 3.49017 12.6844 3.49017C12.5874 3.49017 12.4943 3.45163 12.4257 3.38304C12.3571 3.31444 12.3186 3.2214 12.3186 3.12438V2.34916C12.3184 2.17215 12.2479 2.00245 12.1227 1.8773C11.9976 1.75217 11.8279 1.68178 11.6509 1.68158C11.6509 1.68158 11.6508 1.68158 11.6508 1.68158M11.6509 0.95V1.63158L11.6508 1.68158M11.6509 0.95H10.8758V0.949995L10.8751 0.950005C10.779 0.951366 10.6873 0.990504 10.6198 1.05896C10.5523 1.12741 10.5145 1.21967 10.5145 1.3158C10.5145 1.41192 10.5523 1.50418 10.6198 1.57263C10.6873 1.64108 10.779 1.68022 10.8751 1.68157L10.8751 1.68158H10.8758L11.6508 1.68158M11.6509 0.95L11.6508 1.68158" fill="#252525" stroke="#252525" stroke-width="0.1"/>
<path d="M9.32534 1.68158V1.68158L9.32607 1.68157C9.42216 1.68017 9.51383 1.64101 9.58128 1.57256C9.64873 1.50412 9.68655 1.41188 9.68654 1.31578C9.68654 1.21969 9.64873 1.12745 9.58127 1.059C9.51382 0.99056 9.42214 0.951407 9.32606 0.950005L9.32606 0.95H9.32533H7.77507V0.949995L7.77434 0.950005C7.67825 0.951411 7.58658 0.990568 7.51913 1.05901C7.45168 1.12746 7.41387 1.2197 7.41387 1.3158C7.41387 1.41189 7.45168 1.50413 7.51914 1.57257C7.58659 1.64102 7.67827 1.68017 7.77436 1.68157L7.77436 1.68158H7.77508H9.32534Z" fill="#252525" stroke="#252525" stroke-width="0.1"/>
<path d="M12.3184 4.67516V4.67516V6.22533H12.3184L12.3184 6.22606C12.3198 6.32215 12.359 6.41382 12.4274 6.48127C12.4959 6.54872 12.5881 6.58653 12.6842 6.58653C12.7803 6.58653 12.8725 6.54872 12.941 6.48126C13.0094 6.41381 13.0486 6.32213 13.05 6.22605L13.05 6.22605V6.22532V4.67516V4.67516C13.05 4.57815 13.0114 4.48511 12.9428 4.41652C12.8742 4.34792 12.7812 4.30938 12.6842 4.30937H12.6842C12.5872 4.30938 12.4941 4.34792 12.4256 4.41652C12.357 4.48511 12.3184 4.57815 12.3184 4.67516Z" fill="#252525" stroke="#252525" stroke-width="0.1"/>
<path d="M3.34368 8.91574L3.34368 8.91575H3.34441H5.08389L5.08388 10.6552L5.08389 10.656C5.0853 10.752 5.12446 10.8437 5.1929 10.9112C5.26135 10.9786 5.35359 11.0164 5.44968 11.0164C5.54578 11.0164 5.63802 10.9786 5.70646 10.9112C5.77491 10.8437 5.81406 10.752 5.81546 10.6559H5.81547V10.6552V8.91575H7.55494C7.65195 8.91575 7.74499 8.87721 7.81359 8.80861C7.88219 8.74001 7.92073 8.64697 7.92073 8.54996C7.92073 8.45294 7.88219 8.35991 7.81359 8.29131C7.74499 8.22271 7.65195 8.18417 7.55494 8.18417H5.81547V6.4447C5.81547 6.34768 5.77693 6.25464 5.70833 6.18604C5.63973 6.11744 5.54669 6.07891 5.44968 6.07891C5.35266 6.07891 5.25962 6.11744 5.19102 6.18604C5.12243 6.25464 5.08389 6.34768 5.08389 6.4447V8.18417H3.34441V8.18416L3.34368 8.18417C3.2476 8.18558 3.15592 8.22473 3.08847 8.29318C3.02102 8.36162 2.9832 8.45386 2.9832 8.54996C2.9832 8.64606 3.02102 8.73829 3.08847 8.80674C3.15592 8.87518 3.2476 8.91434 3.34368 8.91574Z" fill="#252525" stroke="#252525" stroke-width="0.1"/>
</svg>
