<svg width="8" height="10" viewBox="0 0 8 10" fill="none" xmlns="http://www.w3.org/2000/svg">
<g id="Group">
<g id="Group_2">
<g id="Vector">
<mask id="path-1-inside-1_19_384" fill="white">
<path d="M5.43562 1.74902H0.786836C0.350628 1.74902 -0.00366211 2.10331 -0.00366211 2.53952V9.2096C-0.00366211 9.64581 0.350628 10.0001 0.786836 10.0001H5.43562C5.87182 10.0001 6.22612 9.64581 6.22612 9.2096V2.53952C6.22407 2.10331 5.86978 1.74902 5.43562 1.74902ZM5.67113 9.20755C5.67113 9.33862 5.56464 9.44511 5.43357 9.44511H0.784788C0.653721 9.44511 0.547229 9.33862 0.547229 9.20755V2.53952C0.547229 2.40845 0.653721 2.30196 0.784788 2.30196H5.43357C5.56464 2.30196 5.67113 2.40845 5.67113 2.53952V9.20755Z"/>
</mask>
<path d="M6.22612 2.53952H7.22613L7.2261 2.53483L6.22612 2.53952ZM5.43562 0.749023H0.786836V2.74902H5.43562V0.749023ZM0.786836 0.749023C-0.201656 0.749023 -1.00366 1.55103 -1.00366 2.53952H0.996338C0.996338 2.6556 0.902913 2.74902 0.786836 2.74902V0.749023ZM-1.00366 2.53952V9.2096H0.996338V2.53952H-1.00366ZM-1.00366 9.2096C-1.00366 10.1981 -0.201656 11.0001 0.786836 11.0001V9.0001C0.902912 9.0001 0.996338 9.09352 0.996338 9.2096H-1.00366ZM0.786836 11.0001H5.43562V9.0001H0.786836V11.0001ZM5.43562 11.0001C6.42411 11.0001 7.22612 10.1981 7.22612 9.2096H5.22612C5.22612 9.09352 5.31954 9.0001 5.43562 9.0001V11.0001ZM7.22612 9.2096V2.53952H5.22612V9.2096H7.22612ZM7.2261 2.53483C7.22149 1.55259 6.42464 0.749023 5.43562 0.749023V2.74902C5.31491 2.74902 5.22664 2.65403 5.22613 2.54422L7.2261 2.53483ZM4.67113 9.20755C4.67113 8.78634 5.01235 8.44511 5.43357 8.44511V10.4451C6.11692 10.4451 6.67113 9.89091 6.67113 9.20755H4.67113ZM5.43357 8.44511H0.784788V10.4451H5.43357V8.44511ZM0.784788 8.44511C1.20601 8.44511 1.54723 8.78634 1.54723 9.20755H-0.452771C-0.452771 9.8909 0.101435 10.4451 0.784788 10.4451V8.44511ZM1.54723 9.20755V2.53952H-0.452771V9.20755H1.54723ZM1.54723 2.53952C1.54723 2.96074 1.20601 3.30196 0.784788 3.30196V1.30196C0.101436 1.30196 -0.452771 1.85617 -0.452771 2.53952H1.54723ZM0.784788 3.30196H5.43357V1.30196H0.784788V3.30196ZM5.43357 3.30196C5.01235 3.30196 4.67113 2.96074 4.67113 2.53952H6.67113C6.67113 1.85617 6.11692 1.30196 5.43357 1.30196V3.30196ZM4.67113 2.53952V9.20755H6.67113V2.53952H4.67113Z" fill="#222222" mask="url(#path-1-inside-1_19_384)"/>
</g>
<g id="Vector_2">
<mask id="path-3-inside-2_19_384" fill="white">
<path d="M7.2132 0H2.56442C2.12822 0 1.77393 0.35429 1.77393 0.790498C1.77393 0.944092 1.8968 1.06697 2.0504 1.06697C2.20399 1.06697 2.32686 0.944092 2.32686 0.790498C2.32686 0.659431 2.43336 0.552939 2.56442 0.552939H7.2132C7.34427 0.552939 7.45076 0.659431 7.45076 0.790498V7.46058C7.45076 7.59164 7.34427 7.69814 7.2132 7.69814C7.05961 7.69814 6.93674 7.82101 6.93674 7.97461C6.93674 8.1282 7.05961 8.25107 7.2132 8.25107C7.64941 8.25107 8.0037 7.89678 8.0037 7.46058V0.790498C8.0037 0.35429 7.64941 0 7.2132 0Z"/>
</mask>
<path d="M8.0037 0.790498H9.0037H8.0037ZM7.2132 -1H2.56442V1H7.2132V-1ZM2.56442 -1C1.57593 -1 0.773926 -0.197995 0.773926 0.790498H2.77393C2.77393 0.906575 2.6805 1 2.56442 1V-1ZM0.773926 0.790498C0.773926 1.49638 1.34452 2.06697 2.0504 2.06697V0.066967C2.44909 0.066967 2.77393 0.391807 2.77393 0.790498H0.773926ZM2.0504 2.06697C2.75627 2.06697 3.32686 1.49638 3.32686 0.790498H1.32686C1.32686 0.391807 1.6517 0.066967 2.0504 0.066967V2.06697ZM3.32686 0.790498C3.32686 1.21172 2.98564 1.55294 2.56442 1.55294V-0.447061C1.88107 -0.447061 1.32686 0.107145 1.32686 0.790498H3.32686ZM2.56442 1.55294H7.2132V-0.447061H2.56442V1.55294ZM7.2132 1.55294C6.79199 1.55294 6.45076 1.21172 6.45076 0.790498H8.45076C8.45076 0.107142 7.89655 -0.447061 7.2132 -0.447061V1.55294ZM6.45076 0.790498V7.46058H8.45076V0.790498H6.45076ZM6.45076 7.46058C6.45076 7.03936 6.79199 6.69814 7.2132 6.69814V8.69814C7.89655 8.69814 8.45076 8.14393 8.45076 7.46058H6.45076ZM7.2132 6.69814C6.50732 6.69814 5.93674 7.26873 5.93674 7.97461H7.93674C7.93674 8.37329 7.6119 8.69814 7.2132 8.69814V6.69814ZM5.93674 7.97461C5.93674 8.68048 6.50732 9.25107 7.2132 9.25107V7.25107C7.6119 7.25107 7.93674 7.57592 7.93674 7.97461H5.93674ZM7.2132 9.25107C8.2017 9.25107 9.0037 8.44907 9.0037 7.46058H7.0037C7.0037 7.3445 7.09713 7.25107 7.2132 7.25107V9.25107ZM9.0037 7.46058V0.790498H7.0037V7.46058H9.0037ZM9.0037 0.790498C9.0037 -0.197996 8.2017 -1 7.2132 -1V1C7.09713 1 7.0037 0.906577 7.0037 0.790498H9.0037Z" fill="#222222" mask="url(#path-3-inside-2_19_384)"/>
</g>
</g>
</g>
</svg>
