<svg width="16" height="18" viewBox="0 0 16 18" fill="none" xmlns="http://www.w3.org/2000/svg">
<path d="M11.4361 5.06265L11.4361 5.06221C11.4328 4.3159 10.8636 3.69785 10.1514 3.69785H3.18465C2.46965 3.69785 1.9 4.31575 1.9 5.06265V15.7348C1.9 16.4817 2.46965 17.0996 3.18465 17.0996H10.1514C10.8664 17.0996 11.4361 16.4817 11.4361 15.7348L11.4361 5.06265ZM10.4043 15.7315C10.4043 15.8922 10.2835 16.0116 10.1483 16.0116H3.18159C3.04646 16.0116 2.92558 15.8922 2.92558 15.7315V5.06265C2.92558 4.9019 3.04646 4.78255 3.18159 4.78255H10.1483C10.2835 4.78255 10.4043 4.9019 10.4043 5.06265V15.7315Z" fill="#10A37F" stroke="#10A37F" stroke-width="0.2"/>
<path d="M12.8155 0.9H5.84872C5.13372 0.9 4.56406 1.5179 4.56406 2.2648C4.56406 2.55951 4.78691 2.80715 5.07838 2.80715C5.36986 2.80715 5.59271 2.55951 5.59271 2.2648C5.59271 2.10405 5.71359 1.9847 5.84872 1.9847H12.8155C12.9506 1.9847 13.0715 2.10405 13.0715 2.2648V12.9369C13.0715 13.0977 12.9506 13.217 12.8155 13.217C12.524 13.217 12.3011 13.4647 12.3011 13.7594C12.3011 14.0541 12.524 14.3017 12.8155 14.3017C13.5305 14.3017 14.1001 13.6838 14.1001 12.9369V2.2648C14.1001 1.5179 13.5305 0.9 12.8155 0.9Z" fill="#10A37F" stroke="#10A37F" stroke-width="0.2"/>
</svg>
