<svg width="32" height="32" viewBox="0 0 32 32" fill="none" xmlns="http://www.w3.org/2000/svg">
<rect width="32" height="32" rx="4" fill="#E7E7E7"/>
<path fill-rule="evenodd" clip-rule="evenodd" d="M18.6553 13.3481C16.6467 11.3394 13.2505 11.4155 11.0744 13.593C9.13219 15.5352 7.63539 17.0306 5.69452 18.9729C3.51709 21.1489 3.441 24.5451 5.44966 26.5538C7.45832 28.5624 10.8545 28.4863 13.0305 26.3089C13.8578 25.4816 15.7212 23.6196 15.7212 23.6196C16.1251 23.2143 16.1251 22.5572 15.7212 22.1519C15.3159 21.7465 14.6588 21.7465 14.2534 22.1519L11.5628 24.8425C10.2278 26.1775 8.15 26.3186 6.91742 25.086C5.68483 23.8534 5.82594 21.7756 7.16089 20.4406L12.5408 15.0607C13.8772 13.7244 15.955 13.5833 17.1876 14.8159C17.5929 15.2198 18.25 15.2198 18.6553 14.8159C19.0607 14.4105 19.0607 13.7534 18.6553 13.3481Z" fill="#525252"/>
<path fill-rule="evenodd" clip-rule="evenodd" d="M13.2754 18.7246C14.2479 19.6971 15.5677 20.2449 16.9427 20.2449C18.3192 20.2449 19.6389 19.6971 20.6115 18.7246C22.6671 16.6689 24.4254 14.912 26.4811 12.8563C27.4536 11.8825 28 10.5627 28 9.18764C28 7.81119 27.4536 6.49145 26.4811 5.51894C25.5086 4.54643 24.1888 4 22.8124 4C21.4373 4 20.1176 4.54643 19.1437 5.51894C18.257 6.40707 17.2416 7.42246 16.2096 8.45446C15.8042 8.85978 15.8042 9.51689 16.2096 9.92221C16.6135 10.3262 17.272 10.3262 17.6759 9.92221L20.6115 6.9867C21.1952 6.40292 21.9865 6.07506 22.8124 6.07506C23.6383 6.07506 24.4296 6.40292 25.0133 6.9867C25.5971 7.57048 25.925 8.36177 25.925 9.18764C25.925 10.0135 25.5971 10.8048 25.0133 11.3886L19.1437 17.2582C18.5613 17.8406 17.7686 18.1699 16.9427 18.1699C16.1183 18.1699 15.3256 17.8406 14.7418 17.2582C14.3379 16.8529 13.6808 16.8529 13.2754 17.2582C12.8701 17.6622 12.8701 18.3193 13.2754 18.7246Z" fill="#525252"/>
</svg>
