<svg width="24" height="24" viewBox="0 0 24 24" fill="none" xmlns="http://www.w3.org/2000/svg">
<path d="M1.99805 8.00074C1.99805 9.34272 10.0943 13.0015 11.9857 13.0015C13.8772 13.0015 21.9734 9.34272 21.9734 8.00074C21.9734 6.65876 13.8772 3 11.9857 3C10.0943 3 1.99805 6.65876 1.99805 8.00074Z" stroke="#10A37F" stroke-width="1.5" stroke-linecap="round" stroke-linejoin="round"/>
<path d="M5.99219 11L7.24348 16.8002C7.32919 17.1975 7.52703 17.5687 7.85696 17.8054C10.0787 19.3998 13.8908 19.3998 16.1126 17.8054C16.4426 17.5687 16.6404 17.1975 16.7261 16.8002L17.9774 11" stroke="#10A37F" stroke-width="1.5" stroke-linecap="round" stroke-linejoin="round"/>
<path d="M20.4774 9.5V16.5011M20.4774 16.5011C19.6864 17.9476 19.3366 18.7226 18.9813 20.0016C18.9042 20.4567 18.9654 20.686 19.2786 20.8896C19.4059 20.9723 19.5588 21.0017 19.7104 21.0017H21.229C21.3904 21.0017 21.5533 20.968 21.6863 20.8762C21.9774 20.6752 22.0523 20.4546 21.9734 20.0016C21.662 18.814 21.2653 18.0021 20.4774 16.5011Z" stroke="#10A37F" stroke-width="1.5" stroke-linecap="round" stroke-linejoin="round"/>
</svg>
