<svg width="18" height="18" viewBox="0 0 18 18" fill="none" xmlns="http://www.w3.org/2000/svg">
<path d="M15.9997 5.61658H11.7165V1.71665H15.9997C16.0749 1.71665 16.1469 1.7465 16.2001 1.79964C16.2532 1.85277 16.283 1.92484 16.283 1.99998V5.33325C16.283 5.40839 16.2532 5.48046 16.2001 5.53359C16.1469 5.58673 16.0749 5.61658 15.9997 5.61658ZM1.99998 6.38323H15.993H15.9997C16.2782 6.38323 16.5453 6.27261 16.7422 6.0757C16.9391 5.87879 17.0497 5.61172 17.0497 5.33325V1.99998C17.0497 1.72151 16.9391 1.45444 16.7422 1.25753C16.5453 1.06062 16.2782 0.95 15.9997 0.95H1.99998C1.72151 0.95 1.45444 1.06062 1.25753 1.25753C1.06062 1.45444 0.95 1.72151 0.95 1.99998V5.33325C0.95 5.61172 1.06062 5.87879 1.25753 6.0757C1.45444 6.27261 1.72151 6.38323 1.99998 6.38323ZM1.79964 5.53359C1.7465 5.48046 1.71665 5.40839 1.71665 5.33325V1.99998C1.71665 1.92484 1.7465 1.85277 1.79964 1.79964C1.85277 1.7465 1.92484 1.71665 1.99998 1.71665H10.9498V5.61658H1.99998C1.92484 5.61658 1.85277 5.58673 1.79964 5.53359Z" fill="#717171" stroke="#717171" stroke-width="0.1"/>
<path d="M14.6639 17.055L14.6639 17.055C14.6109 17.0523 14.559 17.0387 14.5114 17.015C14.4639 16.9912 14.4219 16.9579 14.388 16.917L14.388 16.917L14.4264 16.885L14.3879 16.917L14.6639 17.055ZM14.6639 17.055L14.6658 17.055C14.7165 17.0556 14.7667 17.0456 14.8133 17.0257C14.8597 17.0058 14.9013 16.9766 14.9357 16.9398L16.9346 14.9409C16.9729 14.9046 17.003 14.8604 17.0229 14.8114C17.0428 14.7622 17.052 14.7093 17.0496 14.6562L17.0496 14.6559C17.047 14.6029 17.0334 14.551 17.0096 14.5034C16.9859 14.4559 16.9525 14.4139 16.9116 14.3799L15.3243 13.0551M14.6639 17.055L15.3243 13.0551M15.3243 13.0551H15.9997C16.2782 13.0551 16.5453 12.9445 16.7422 12.7476C16.9391 12.5507 17.0497 12.2836 17.0497 12.0051V8.67186C17.0497 8.39338 16.9391 8.12632 16.7422 7.92941C16.5453 7.7325 16.2782 7.62187 15.9997 7.62187H1.99998C1.72151 7.62187 1.45444 7.7325 1.25753 7.92941C1.06062 8.12632 0.95 8.39338 0.95 8.67186V12.0051C0.95 12.2836 1.06062 12.5507 1.25753 12.7476C1.45444 12.9445 1.72151 13.0551 1.99998 13.0551H9.86782L10.3113 14.7637C10.3266 14.8295 10.3593 14.8899 10.4061 14.9387C10.4529 14.9877 10.5122 15.0231 10.5775 15.0412C10.6428 15.0593 10.7119 15.0594 10.7773 15.0416C10.8425 15.0238 10.9017 14.9888 10.9487 14.9402C10.9489 14.9401 10.949 14.9399 10.9491 14.9398L15.3243 13.0551ZM11.9423 13.0151L11.9423 13.0152C11.9953 13.0178 12.0472 13.0314 12.0948 13.0552C12.1422 13.0789 12.1843 13.1123 12.2182 13.1531L12.2182 13.1531L12.1798 13.1851L12.2183 13.1532L11.9423 13.0151ZM11.9423 13.0151L11.9404 13.0151C11.8897 13.0145 11.8394 13.0245 11.7928 13.0445C11.7466 13.0643 11.7049 13.0935 11.6705 13.1303L10.8737 13.921L9.86184 9.86718L13.9156 10.879L13.1252 11.6757C13.086 11.7115 13.0552 11.7557 13.0353 11.8049C13.0152 11.8545 13.0065 11.9079 13.0098 11.9613M11.9423 13.0151L14.6764 16.1043M14.6764 16.1043L16.0857 14.695L13.1478 12.2369C13.1478 12.2369 13.1478 12.2369 13.1477 12.2369C13.1069 12.2029 13.0736 12.1609 13.0498 12.1134C13.0261 12.066 13.0125 12.0142 13.0098 11.9613M14.6764 16.1043L14.6409 16.1398L14.6764 16.1043ZM13.0098 11.9613C13.0099 11.9614 13.0099 11.9615 13.0099 11.9616L13.0598 11.9585L13.0098 11.9609C13.0098 11.961 13.0098 11.9612 13.0098 11.9613ZM11.9296 13.9657L11.9652 13.9303L11.9331 13.8918L11.8975 13.9271L11.9296 13.9657ZM1.71665 12.0051V8.67186C1.71665 8.59671 1.7465 8.52465 1.79964 8.47151C1.85277 8.41838 1.92484 8.38853 1.99998 8.38853H15.9997C16.0749 8.38853 16.1469 8.41838 16.2001 8.47151C16.2532 8.52465 16.283 8.59671 16.283 8.67186V12.0051C16.283 12.0803 16.2532 12.1523 16.2001 12.2055C16.1469 12.2586 16.0749 12.2885 15.9997 12.2885H14.3911L13.9472 11.9215L14.9211 10.9411C14.9213 10.941 14.9214 10.9409 14.9215 10.9407C14.9701 10.8937 15.0051 10.8345 15.0229 10.7693C15.0408 10.7039 15.0406 10.6349 15.0225 10.5695C15.0044 10.5042 14.969 10.4449 14.9201 10.3981C14.8712 10.3513 14.8106 10.3185 14.7448 10.3032C14.7446 10.3032 14.7445 10.3031 14.7443 10.3031L9.41276 8.97022C9.41263 8.97018 9.41249 8.97014 9.41236 8.97011C9.34863 8.95313 9.28156 8.95319 9.21785 8.97027C9.15401 8.98739 9.0958 9.021 9.04907 9.06774C9.00233 9.11447 8.96872 9.17268 8.9516 9.23652C8.93451 9.30025 8.93446 9.36735 8.95146 9.4311C8.95149 9.43121 8.95152 9.43132 8.95155 9.43143L9.67558 12.2885H1.99998C1.92484 12.2885 1.85277 12.2586 1.79964 12.2055C1.7465 12.1523 1.71665 12.0803 1.71665 12.0051Z" fill="#717171" stroke="#717171" stroke-width="0.1"/>
<path d="M13.6782 4.88365L13.6782 4.88365L12.345 2.88395C12.345 2.88391 12.345 2.88386 12.345 2.88382C12.3058 2.82588 12.2833 2.75835 12.2798 2.68852C12.2763 2.61864 12.2919 2.54913 12.3251 2.48753C12.3583 2.42592 12.4077 2.37457 12.468 2.33904C12.5281 2.30356 12.5969 2.28521 12.6667 2.28596M13.6782 4.88365L12.3865 2.85595C12.3524 2.80555 12.3328 2.74678 12.3297 2.68601C12.3266 2.62525 12.3403 2.5648 12.3691 2.51123C12.398 2.45766 12.4409 2.41301 12.4933 2.38212C12.5458 2.35122 12.6056 2.33526 12.6665 2.33596H15.3331M13.6782 4.88365L13.6786 4.88428C13.7145 4.93632 13.7624 4.97888 13.8184 5.00828C13.8743 5.03768 13.9366 5.05304 13.9998 5.05304C14.063 5.05304 14.1252 5.03768 14.1812 5.00828C14.2371 4.97888 14.2851 4.93632 14.3209 4.88428L14.3209 4.88428L14.3214 4.88365L15.6545 2.88395C15.6545 2.88391 15.6545 2.88387 15.6546 2.88383C15.6937 2.82589 15.7163 2.75835 15.7198 2.68852C15.7233 2.61864 15.7076 2.54913 15.6744 2.48753C15.6413 2.42592 15.5919 2.37457 15.5316 2.33904C15.4714 2.30356 15.4027 2.28521 15.3328 2.28596M13.6782 4.88365L14.2798 4.85591L15.6131 2.85595C15.6471 2.80555 15.6668 2.74678 15.6698 2.68601C15.6729 2.62525 15.6593 2.5648 15.6304 2.51123C15.6016 2.45766 15.5586 2.41301 15.5062 2.38212C15.4538 2.35122 15.3939 2.33526 15.3331 2.33596M12.6667 2.28596C12.6668 2.28596 12.6669 2.28596 12.667 2.28596L12.6665 2.33596V2.28596H12.6667ZM12.6667 2.28596H15.3328M15.3328 2.28596C15.3327 2.28596 15.3326 2.28596 15.3325 2.28596L15.3331 2.33596M15.3328 2.28596H15.3331V2.33596M13.38 3.05261H14.6195L13.9998 3.97932L13.38 3.05261Z" fill="#717171" stroke="#717171" stroke-width="0.1"/>
</svg>

