<svg width="16" height="16" viewBox="0 0 16 16" fill="none" xmlns="http://www.w3.org/2000/svg">
<mask id="mask0_5017_2568" style="mask-type:luminance" maskUnits="userSpaceOnUse" x="0" y="0" width="16" height="16">
<path d="M16 0H0V16H16V0Z" fill="white"/>
</mask>
<g mask="url(#mask0_5017_2568)">
<path d="M3.91389 0.609375C3.14045 0.614752 2.39487 0.898782 1.81389 1.40937C0.941895 2.28237 0.941895 3.68837 0.941895 6.50037V9.48238C0.941895 12.2944 0.941895 13.6994 1.81389 14.5734C2.68589 15.4474 4.08889 15.4464 6.89489 15.4464H8.38189C11.1879 15.4464 12.5919 15.4464 13.4629 14.5734C14.2539 13.7804 14.3269 12.5584 14.3339 10.2374" stroke="#FC6D35" stroke-width="1.2" stroke-linecap="round" stroke-linejoin="round"/>
<path d="M6.89001 4.31791L7.63401 6.91791C8.05001 7.74091 8.57102 7.95691 9.86601 8.03091C10.6272 8.10647 11.3893 7.89616 12.004 7.44091C12.3314 7.11455 12.5357 6.68486 12.582 6.22491L12.839 4.68991M14.699 3.20591V6.91391M5.46201 2.78391C6.73647 1.74152 8.24736 1.02796 9.86201 0.705908C10.1073 0.639697 10.3657 0.639697 10.611 0.705908C12.1952 1.06619 13.6826 1.76521 14.971 2.75491C15.0001 2.77584 15.0199 2.80717 15.0264 2.84238C15.033 2.87759 15.0256 2.91396 15.006 2.94391C14.552 3.61391 13.536 4.15491 11.045 5.12491C10.5261 5.32501 9.9507 5.3218 9.43401 5.11591C6.78201 4.05891 5.56301 3.49591 5.41501 2.90991C5.41015 2.88661 5.41198 2.86241 5.4203 2.84011C5.42862 2.81781 5.44308 2.79833 5.46201 2.78391Z" stroke="#FC6D35" stroke-width="1.2" stroke-linecap="round" stroke-linejoin="round"/>
</g>
</svg>
