<svg width="12" height="12" viewBox="0 0 12 12" fill="none" xmlns="http://www.w3.org/2000/svg">
<path d="M6.98167 5.48067C6.86322 5.48067 6.74477 5.43556 6.65454 5.3451C5.93297 4.62353 4.75888 4.6233 4.03708 5.3451C3.85663 5.52578 3.56328 5.52578 3.38283 5.3451C3.20214 5.16442 3.20214 4.87153 3.38283 4.69085C4.4653 3.60814 6.22655 3.60837 7.3088 4.69085C7.48948 4.87153 7.48948 5.16442 7.3088 5.3451C7.21857 5.43556 7.09989 5.48067 6.98167 5.48067Z" fill="#3780FF"/>
<path d="M6.65453 8.12109C5.94359 8.12109 5.23266 7.85042 4.69154 7.30929C4.51086 7.12861 4.51086 6.83573 4.69154 6.65504C4.87199 6.47436 5.16534 6.47436 5.34579 6.65504C6.06737 7.37662 7.24146 7.37685 7.96326 6.65504C8.14371 6.47436 8.43706 6.47436 8.61751 6.65504C8.79819 6.83573 8.79819 7.12861 8.61751 7.30929C8.07616 7.85042 7.36523 8.12109 6.65453 8.12109Z" fill="#3780FF"/>
<path d="M8.29015 7.44354C8.1717 7.44354 8.05325 7.39843 7.96303 7.30797C7.78234 7.12729 7.78234 6.8344 7.96303 6.65372L10.5476 4.06911C10.7281 3.88842 11.0214 3.88842 11.2019 4.06911C11.3826 4.24979 11.3826 4.54267 11.2019 4.72336L8.61728 7.30797C8.52705 7.39843 8.4086 7.44354 8.29015 7.44354Z" fill="#3780FF"/>
<path d="M4.39696 11.3369C4.27851 11.3369 4.16006 11.2918 4.06984 11.2013C3.88916 11.0206 3.88916 10.7278 4.06984 10.5471L5.5146 9.10231C5.69506 8.92163 5.9884 8.92163 6.16885 9.10231C6.34954 9.28299 6.34954 9.57588 6.16885 9.75656L4.72409 11.2013C4.63386 11.2918 4.51541 11.3369 4.39696 11.3369Z" fill="#3780FF"/>
<path d="M1.12523 8.06636C1.00678 8.06636 0.888335 8.02124 0.79811 7.93079C0.617427 7.7501 0.617427 7.45722 0.79811 7.27654L3.38272 4.69215C3.56341 4.51147 3.85652 4.51147 4.03698 4.69215C4.21766 4.87283 4.21766 5.16572 4.03698 5.3464L1.45236 7.93079C1.3619 8.02101 1.24345 8.06636 1.12523 8.06636Z" fill="#3780FF"/>
<path d="M6.15819 3.03244C6.03974 3.03244 5.92153 2.98733 5.83107 2.8971C5.65039 2.71642 5.65039 2.42353 5.83107 2.24262L7.27583 0.797621C7.45652 0.616939 7.7494 0.616939 7.93032 0.797621C8.111 0.978304 8.111 1.27119 7.93032 1.4521L6.48555 2.8971C6.39509 2.98709 6.27641 3.03244 6.15819 3.03244Z" fill="#3780FF"/>
<path d="M2.76113 12.0005C2.04558 12.0005 1.33002 11.7344 0.798149 11.2023C-0.26605 10.1381 -0.26605 8.34034 0.798149 7.27614C0.9786 7.09545 1.27195 7.09545 1.4524 7.27614C1.63308 7.45682 1.63308 7.74971 1.4524 7.93039C0.743088 8.6397 0.743088 9.83854 1.4524 10.5479C2.16171 11.2572 3.36056 11.2572 4.06987 10.5479C4.25032 10.3672 4.54367 10.3672 4.72412 10.5479C4.9048 10.7285 4.9048 11.0214 4.72412 11.2021C4.19225 11.7344 3.47669 12.0005 2.76113 12.0005Z" fill="#3780FF"/>
<path d="M10.8747 4.85969C10.7563 4.85969 10.6378 4.81458 10.5476 4.72412C10.3669 4.54344 10.3669 4.25055 10.5476 4.06987C11.2569 3.36056 11.2569 2.16171 10.5476 1.4524C9.8383 0.743088 8.63946 0.743088 7.93014 1.4524C7.74969 1.63308 7.45634 1.63308 7.27589 1.4524C7.09521 1.27172 7.09521 0.978832 7.27589 0.798149C8.34009 -0.26605 10.1379 -0.26605 11.2021 0.798149C12.2663 1.86235 12.2663 3.66015 11.2021 4.72435C11.1116 4.81457 10.9932 4.85969 10.8747 4.85969Z" fill="#3780FF"/>
</svg>
