<svg width="14" height="16" viewBox="0 0 14 16" fill="none" xmlns="http://www.w3.org/2000/svg">
<path fill-rule="evenodd" clip-rule="evenodd" d="M7.02348 1C9.09027 1 10.7677 2.6774 10.7677 4.74419C10.7677 6.81098 9.09027 8.48837 7.02348 8.48837C4.95669 8.48837 3.2793 6.81098 3.2793 4.74419C3.2793 2.6774 4.95669 1 7.02348 1ZM7.02348 1.97674C5.49586 1.97674 4.25604 3.21656 4.25604 4.74419C4.25604 6.27181 5.49586 7.51163 7.02348 7.51163C8.55111 7.51163 9.79093 6.27181 9.79093 4.74419C9.79093 3.21656 8.55111 1.97674 7.02348 1.97674Z" fill="#112D55" stroke="#112D55" stroke-width="0.2"/>
<path fill-rule="evenodd" clip-rule="evenodd" d="M13.0465 13.859C13.0465 14.488 12.5367 14.9985 11.907 14.9985H2.13953C1.50986 14.9985 1 14.488 1 13.859C1 11.072 3.25954 8.8125 6.04651 8.8125H8C10.787 8.8125 13.0465 11.072 13.0465 13.859ZM12.5718 14.3337C12.5633 14.337 12.5581 14.3409 12.5581 14.3474L12.5718 14.3337ZM1.97674 13.859C1.97674 13.9489 2.04967 14.0218 2.13953 14.0218H11.907C11.9962 14.0218 12.0685 13.9502 12.0698 13.859C12.0698 11.6112 10.2478 9.78924 8 9.78924H6.04651C3.7987 9.78924 1.97674 11.6112 1.97674 13.859Z" fill="#112D55" stroke="#112D55" stroke-width="0.2"/>
</svg>
