<svg width="32" height="32" viewBox="0 0 32 32" fill="none" xmlns="http://www.w3.org/2000/svg">
<path d="M2.90593 28.83H23.2136C24.007 28.83 24.6502 28.1868 24.6502 27.3933V1.90544C24.6502 1.112 24.0071 0.46875 23.2136 0.46875H2.90593C2.11249 0.46875 1.46924 1.11194 1.46924 1.90544V27.3933C1.4693 28.1867 2.11249 28.83 2.90593 28.83Z" fill="#E7F3FF"/>
<path d="M24.6503 1.9055V27.3932C24.6503 28.1864 24.0067 28.83 23.2136 28.83H21.2866C22.0797 28.83 22.7234 28.1864 22.7234 27.3932V1.9055C22.7234 1.11169 22.0797 0.46875 21.2866 0.46875H23.2136C24.0067 0.468688 24.6503 1.11169 24.6503 1.9055Z" fill="white"/>
<path d="M4.17041 10.8907V30.0964C4.17041 30.8895 4.81335 31.5331 5.60716 31.5331H25.9148C26.7079 31.5331 27.3515 30.8895 27.3515 30.0964V4.60863C27.3515 3.81481 26.7079 3.17188 25.9148 3.17188H11.8892L4.17041 10.8907Z" fill="white"/>
<path d="M27.3515 4.60862V30.0964C27.3515 30.8895 26.7079 31.5331 25.9147 31.5331H23.9878C24.7809 31.5331 25.4245 30.8895 25.4245 30.0964V4.60862C25.4245 3.81481 24.7809 3.17188 23.9878 3.17188H25.9147C26.7079 3.17188 27.3515 3.81481 27.3515 4.60862Z" fill="white"/>
<path d="M28.3921 6.125H26.8339C26.4235 6.125 26.0908 6.45769 26.0908 6.86812V9.88606H29.1352V6.86812C29.1352 6.45775 28.8025 6.125 28.3921 6.125Z" fill="#FFE177"/>
<path d="M29.1349 6.86806V9.88588H27.7431V6.86806C27.7431 6.45719 27.4102 6.125 27 6.125H28.3919C28.8027 6.125 29.1349 6.45719 29.1349 6.86806Z" fill="#FFE177"/>
<path d="M26.2803 27.6159L26.5105 28.9172C26.605 29.4519 27.0697 29.8416 27.6126 29.8416C28.1556 29.8416 28.6203 29.4519 28.7148 28.9172L28.945 27.6159L27.6126 26.4766L26.2803 27.6159Z" fill="#FFE177"/>
<path d="M26.3423 8.83594C25.6702 8.83594 25.1255 9.38075 25.1255 10.0528V10.5587L25.7256 11.5816L25.1255 12.3959V25.3796C25.1255 25.9049 25.3063 26.4147 25.637 26.8225L26.2805 27.6168H28.9452L29.5887 26.8225C29.9195 26.4146 30.1002 25.9048 30.1002 25.3796V10.0528C30.1002 9.38069 29.5554 8.83594 28.8834 8.83594H26.3423Z" fill="#FFAF5D"/>
<path d="M30.1 10.0529V25.3794C30.1 25.9047 29.9192 26.4144 29.5883 26.8226L28.9447 27.6171H28.0203L28.2173 26.8226C28.3187 26.4144 28.374 25.9047 28.374 25.3794V10.0529C28.374 9.38075 28.2075 8.83594 28.0015 8.83594H28.883C29.5552 8.83594 30.1 9.38069 30.1 10.0529Z" fill="#FFAF5D"/>
<path d="M25.1255 10.5547V12.3919H28.3982V17.9839C28.3982 18.8153 29.0721 19.4892 29.9035 19.4892C30.7349 19.4892 31.4088 18.8153 31.4088 17.9839V12.3175C31.4088 11.3439 30.6196 10.5547 29.646 10.5547H25.1255Z" fill="#FFE177"/>
<path d="M31.4087 12.3178V17.9843C31.4087 18.3997 31.2403 18.7761 30.9679 19.0485C30.6955 19.3209 30.3185 19.4892 29.903 19.4892C29.669 19.4892 29.4473 19.4359 29.249 19.3404C29.4018 19.2662 29.5403 19.1674 29.6593 19.0485C29.9317 18.7761 30.1 18.3997 30.1 17.9843V12.3178C30.1 11.3439 29.3108 10.5547 28.3369 10.5547H29.6456C30.6194 10.5547 31.4087 11.3439 31.4087 12.3178Z" fill="#FFE177"/>
<path d="M11.8892 9.45394V3.17188L4.17041 10.8907H10.4525C11.2463 10.8907 11.8892 10.2478 11.8892 9.45394Z" fill="white"/>
<path d="M31.4087 13.205C31.6676 13.205 31.8775 12.9951 31.8775 12.7362V12.3162C31.8775 11.4147 31.3399 10.637 30.5689 10.2851V10.0475C30.5689 9.3885 30.1799 8.79925 29.6034 8.52487V6.86519C29.6034 6.197 29.0598 5.65338 28.3916 5.65338H27.82V4.60687C27.82 3.55612 26.9651 2.70125 25.9144 2.70125H25.1187V1.90562C25.1187 0.854875 24.2639 0 23.2131 0H14.6275C14.3686 0 14.1588 0.209875 14.1588 0.46875C14.1588 0.727625 14.3686 0.9375 14.6275 0.9375H23.2131C23.7469 0.9375 24.1812 1.37181 24.1812 1.90562V2.70125H11.8894C11.7651 2.70125 11.6459 2.75063 11.5579 2.8385L9.68356 4.71263H4.17025C3.91137 4.71263 3.7015 4.9225 3.7015 5.18138C3.7015 5.44025 3.91137 5.65013 4.17025 5.65013H8.74606L6.82938 7.56663H4.17025C3.91137 7.56663 3.7015 7.7765 3.7015 8.03537C3.7015 8.29425 3.91137 8.50412 4.17025 8.50412H5.89181L3.83856 10.5573C3.75062 10.6452 3.70125 10.7644 3.70125 10.8888V21.1831C3.70125 21.442 3.91113 21.6519 4.17 21.6519C4.42888 21.6519 4.63875 21.442 4.63875 21.1831V11.3575H10.4519C11.1773 11.3575 11.8093 10.9498 12.1311 10.3516H22.7231C22.9819 10.3516 23.1918 10.1418 23.1918 9.88288C23.1918 9.624 22.9819 9.41413 22.7231 9.41413H12.3575V7.49806H22.7231C22.9819 7.49806 23.1918 7.28819 23.1918 7.02931C23.1918 6.77044 22.9819 6.56056 22.7231 6.56056H12.3575V3.63875H25.9144C26.4482 3.63875 26.8825 4.07306 26.8825 4.60687V5.65344H26.8333C26.1651 5.65344 25.6214 6.19706 25.6214 6.86525V8.52494C25.0456 8.79919 24.6566 9.3885 24.6566 10.0476V25.3741C24.6566 26.0043 24.8752 26.6216 25.2723 27.1125L25.8396 27.8122L26.0487 28.9944C26.1373 29.4957 26.4544 29.905 26.8809 30.1264C26.8638 30.6453 26.4374 31.0625 25.9144 31.0625H5.60688C5.07306 31.0625 4.63875 30.6282 4.63875 30.0944V23.3706C4.63875 23.1117 4.42888 22.9019 4.17 22.9019C3.91113 22.9019 3.70125 23.1117 3.70125 23.3706V28.3612H2.90563C2.37175 28.3612 1.9375 27.9269 1.9375 27.3931V1.90562C1.9375 1.37175 2.37181 0.9375 2.90563 0.9375H12.44C12.6989 0.9375 12.9088 0.727625 12.9088 0.46875C12.9088 0.209875 12.6989 0 12.44 0H2.90563C1.85488 0 1 0.854875 1 1.90562V27.3931C1 28.4439 1.85488 29.2987 2.90563 29.2987H3.70125V30.0944C3.70125 31.1451 4.55613 32 5.60688 32H25.9144C26.8984 32 27.7104 31.2504 27.8097 30.2922C28.4938 30.2073 29.0535 29.6884 29.1762 28.9944L29.3854 27.8121L29.9526 27.1124C30.35 26.6221 30.5689 26.0047 30.5689 25.3741V19.8423C30.8402 19.7452 31.089 19.5884 31.299 19.3784C31.6721 19.0053 31.8776 18.5096 31.8776 17.9826V14.9238C31.8776 14.6649 31.6677 14.4551 31.4088 14.4551C31.1499 14.4551 30.9401 14.6649 30.9401 14.9238V17.9826C30.9401 18.2592 30.8321 18.5194 30.6361 18.7155C30.4401 18.9116 30.1798 19.0194 29.9032 19.0194C29.3314 19.0194 28.8663 18.5543 28.8663 17.9826V12.3907C28.8663 12.1318 28.6564 11.9219 28.3976 11.9219H25.5942V11.0219H29.6457C30.3594 11.0219 30.9401 11.6026 30.9401 12.3163V12.7363C30.94 12.9951 31.1499 13.205 31.4087 13.205ZM10.4519 10.42H5.30175L11.42 4.30225V9.45187C11.42 9.98562 10.9856 10.42 10.4519 10.42ZM26.8333 6.59094H28.3916C28.5429 6.59094 28.6659 6.714 28.6659 6.86525V8.36181H26.5589V6.86525C26.5589 6.71394 26.682 6.59094 26.8333 6.59094ZM28.7214 27.1423H26.5034L26.0008 26.5225C25.8387 26.3221 25.7219 26.0896 25.6561 25.843H29.5693C29.5034 26.0896 29.3866 26.3219 29.2243 26.5221L28.7214 27.1423ZM27.6124 29.3684C27.2963 29.3684 27.0269 29.1424 26.9718 28.8311L26.8389 28.0798H28.3859L28.2531 28.8311C28.198 29.1424 27.9286 29.3684 27.6124 29.3684ZM27.9287 12.8594V17.9825C27.9287 18.9789 28.6709 19.8048 29.6314 19.9377V24.9054H25.5942V12.8594H27.9287ZM25.5941 10.0476C25.5941 9.69538 25.8433 9.38744 26.1856 9.3155C26.2373 9.30475 26.2897 9.29931 26.3417 9.29931H28.8831C28.9351 9.29931 28.9876 9.30475 29.0384 9.31531C29.3819 9.38744 29.6313 9.69544 29.6313 10.0476V10.0844H25.5941V10.0476Z" fill="black"/>
<path d="M8.75928 13.2031H22.723C22.9819 13.2031 23.1918 12.9933 23.1918 12.7344C23.1918 12.4755 22.9819 12.2656 22.723 12.2656H8.75928C8.5004 12.2656 8.29053 12.4755 8.29053 12.7344C8.29053 12.9933 8.5004 13.2031 8.75928 13.2031Z" fill="black"/>
<path d="M8.75928 16.0625H15.7605C16.0194 16.0625 16.2293 15.8526 16.2293 15.5938C16.2293 15.3349 16.0194 15.125 15.7605 15.125H8.75928C8.5004 15.125 8.29053 15.3349 8.29053 15.5938C8.29053 15.8526 8.5004 16.0625 8.75928 16.0625Z" fill="black"/>
<path d="M8.75928 18.9141H22.723C22.9819 18.9141 23.1918 18.7042 23.1918 18.4453C23.1918 18.1864 22.9819 17.9766 22.723 17.9766H8.75928C8.5004 17.9766 8.29053 18.1864 8.29053 18.4453C8.29053 18.7042 8.5004 18.9141 8.75928 18.9141Z" fill="black"/>
<path d="M8.75928 21.7656H22.723C22.9819 21.7656 23.1918 21.5558 23.1918 21.2969C23.1918 21.038 22.9819 20.8281 22.723 20.8281H8.75928C8.5004 20.8281 8.29053 21.038 8.29053 21.2969C8.29053 21.5558 8.5004 21.7656 8.75928 21.7656Z" fill="black"/>
<path d="M8.75928 24.6172H14.2731C14.532 24.6172 14.7418 24.4073 14.7418 24.1484C14.7418 23.8896 14.532 23.6797 14.2731 23.6797H8.75928C8.5004 23.6797 8.29053 23.8896 8.29053 24.1484C8.29053 24.4073 8.5004 24.6172 8.75928 24.6172Z" fill="black"/>
<path d="M8.75928 27.4766H22.723C22.9819 27.4766 23.1918 27.2667 23.1918 27.0078C23.1918 26.7489 22.9819 26.5391 22.723 26.5391H8.75928C8.5004 26.5391 8.29053 26.7489 8.29053 27.0078C8.29053 27.2667 8.5004 27.4766 8.75928 27.4766Z" fill="black"/>
</svg>
