<svg width="27" height="26" viewBox="0 0 27 26" xmlns="http://www.w3.org/2000/svg">
    <g fill="none" fill-rule="evenodd">
        <ellipse fill="#FFF" cx="12.417" cy="11.956" rx="6.63" ry="6.384"/>
        <path d="M26.433 11.69 14.853.54a1.982 1.982 0 0 0-2.719 0L.561 11.69a1.809 1.809 0 0 0 0 2.62l11.58 11.15c.751.72 1.967.72 2.719 0l11.58-11.15a1.809 1.809 0 0 0 0-2.62h-.007zM12.53 7.429c0-.513.431-.928.964-.928.533 0 .964.415.964.928v6.5c0 .514-.431.93-.964.93-.533 0-.964-.416-.964-.93v-6.5zm.964 12.072c-.799 0-1.447-.623-1.447-1.393 0-.769.648-1.392 1.447-1.392s1.447.623 1.447 1.392c0 .77-.648 1.393-1.447 1.393z" fill="#E13722" fill-rule="nonzero"/>
    </g>
</svg>
