<svg width="24" height="24" viewBox="0 0 24 24" fill="none" xmlns="http://www.w3.org/2000/svg">
<rect width="24" height="24" rx="2" fill="#ECEDFE"/>
<path d="M14.5102 10.2573C13.8917 10.2573 13.289 10.041 12.8128 9.64805C12.6129 9.48316 12.3175 9.51132 12.152 9.71126C11.5228 10.5726 13.9073 11.2716 14.5102 11.1959C16.4993 11.1959 18.1172 9.57765 18.1172 7.58892C18.0287 3.36645 12.1526 2.62302 11.0168 6.68654C10.8744 7.28698 11.7615 7.51602 11.9258 6.92058C12.7659 3.91526 17.1135 4.46595 17.1786 7.58892C17.1786 9.06013 15.9818 10.2573 14.5102 10.2573Z" fill="#747CFF"/>
<path d="M13.7635 17.0017C13.7635 17.2608 13.9734 17.471 14.2328 17.471H19.5307C19.7901 17.471 20 17.2608 20 17.0017C19.9988 11.9128 13.5817 9.57397 10.3111 13.4654C9.92275 13.9447 10.6224 14.5349 11.0288 14.0702C13.5945 11.0014 18.6465 12.5877 19.0376 16.532H14.2328C13.9738 16.5324 13.7635 16.7426 13.7635 17.0017Z" fill="#747CFF"/>
<path d="M5.88257 9.23654C5.88257 11.2253 7.50053 12.8435 9.48958 12.8435C14.2752 12.6452 14.2737 5.82634 9.48958 5.62891C7.50053 5.62891 5.88257 7.24718 5.88257 9.23654ZM12.1582 9.23654C12.1582 10.7078 10.9611 11.9049 9.48958 11.9049C5.94953 11.7581 5.95078 6.7137 9.48958 6.56758C10.9611 6.56758 12.1582 7.7647 12.1582 9.23654Z" fill="#747CFF"/>
<path d="M4.46934 19.1185H14.5103C14.7697 19.1185 14.9797 18.9082 14.9797 18.6492C14.6777 11.3654 4.30006 11.3685 4 18.6492C4 18.9086 4.20995 19.1185 4.46934 19.1185ZM9.48967 14.0982C11.8407 14.0982 13.7813 15.8904 14.0169 18.1801H4.96245C5.19806 15.8901 7.13861 14.0982 9.48967 14.0982Z" fill="#747CFF"/>
</svg>
