<svg width="24" height="24" viewBox="0 0 24 24" fill="none" xmlns="http://www.w3.org/2000/svg">
<rect width="24" height="24" rx="2" fill="#FFEDBD"/>
<path d="M17.9586 7.8L17.9232 7.73143C17.9232 7.73143 17.9232 7.68 17.8818 7.65714L15.1932 4.22857C15.1381 4.1576 15.0668 4.1 14.9847 4.06033C14.9027 4.02065 14.8122 4 14.7205 4H6.77273C6.30257 4 5.85167 4.18061 5.51922 4.5021C5.18677 4.82359 5 5.25963 5 5.71429V18.2857C5 18.7404 5.18677 19.1764 5.51922 19.4979C5.85167 19.8194 6.30257 20 6.77273 20H16.2273C16.6974 20 17.1483 19.8194 17.4808 19.4979C17.8132 19.1764 18 18.7404 18 18.2857V8C17.9987 7.93147 17.9847 7.86373 17.9586 7.8ZM16.2273 7.42857H15.0455V5.93143L16.2273 7.42857ZM16.2273 18.8571H6.77273C6.61601 18.8571 6.46571 18.7969 6.35489 18.6898C6.24407 18.5826 6.18182 18.4373 6.18182 18.2857V5.71429C6.18182 5.56273 6.24407 5.41739 6.35489 5.31022C6.46571 5.20306 6.61601 5.14286 6.77273 5.14286H13.8636V7.42857C13.8636 7.73168 13.9881 8.02237 14.2098 8.23669C14.4314 8.45102 14.732 8.57143 15.0455 8.57143H16.8182V18.2857C16.8182 18.4373 16.7559 18.5826 16.6451 18.6898C16.5343 18.7969 16.384 18.8571 16.2273 18.8571Z" fill="#EEBC36"/>
</svg>
