<svg xmlns="http://www.w3.org/2000/svg" width="18.75" height="18.75" viewBox="0 0 18.75 18.75">
  <g id="Group_1434" data-name="Group 1434" transform="translate(-14.625 -73.625)">
    <path id="Path_2946" data-name="Path 2946" d="M21.626,144h-5.3A1.327,1.327,0,0,0,15,145.325v7.422a1.326,1.326,0,0,0,1.325,1.325h5.3a1.326,1.326,0,0,0,1.325-1.325v-7.422A1.327,1.327,0,0,0,21.626,144Zm.8,8.747a.8.8,0,0,1-.8.8h-5.3a.8.8,0,0,1-.8-.8v-7.422a.8.8,0,0,1,.8-.795h5.3a.8.8,0,0,1,.8.795Z" transform="translate(0 -70)" fill="none" stroke="#e0f6fe" stroke-width="0.75"/>
    <path id="Path_2947" data-name="Path 2947" d="M21.626,156.169h-5.3A1.326,1.326,0,0,0,15,157.494v3.181A1.327,1.327,0,0,0,16.325,162h5.3a1.327,1.327,0,0,0,1.325-1.325v-3.181A1.326,1.326,0,0,0,21.626,156.169Zm.8,4.506a.8.8,0,0,1-.8.795h-5.3a.8.8,0,0,1-.8-.795v-3.181a.8.8,0,0,1,.8-.795h5.3a.8.8,0,0,1,.8.795Z" transform="translate(0 -70)" fill="none" stroke="#e0f6fe" stroke-width="0.75"/>
    <path id="Path_2948" data-name="Path 2948" d="M33,160.675v-7.422a1.326,1.326,0,0,0-1.325-1.325h-5.3a1.326,1.326,0,0,0-1.325,1.325v7.422A1.326,1.326,0,0,0,26.374,162h5.3A1.326,1.326,0,0,0,33,160.675Zm-.53,0a.8.8,0,0,1-.8.795h-5.3a.8.8,0,0,1-.8-.795v-7.422a.8.8,0,0,1,.8-.8h5.3a.8.8,0,0,1,.8.8Z" transform="translate(0 -70)" fill="none" stroke="#e0f6fe" stroke-width="0.75"/>
    <path id="Path_2949" data-name="Path 2949" d="M33,148.506v-3.181A1.327,1.327,0,0,0,31.675,144h-5.3a1.327,1.327,0,0,0-1.325,1.325v3.181a1.326,1.326,0,0,0,1.325,1.325h5.3A1.326,1.326,0,0,0,33,148.506Zm-.53,0a.8.8,0,0,1-.8.795h-5.3a.8.8,0,0,1-.8-.795v-3.181a.8.8,0,0,1,.8-.795h5.3a.8.8,0,0,1,.8.795Z" transform="translate(0 -70)" fill="none" stroke="#e0f6fe" stroke-width="0.75"/>
  </g>
</svg>
