<svg width="24" height="24" viewBox="0 0 24 24" fill="none" xmlns="http://www.w3.org/2000/svg">
<rect width="24" height="24" rx="2" fill="#FFECDE"/>
<path d="M19.1797 19.1741C18.8289 19.1741 18.5045 18.9471 18.3963 18.5942C17.5307 15.7673 14.9603 13.8679 12 13.8679C9.03967 13.8679 6.46927 15.7673 5.60369 18.5942C5.47099 19.0274 5.01241 19.2707 4.5798 19.138C4.14719 19.0055 3.90349 18.5471 4.03619 18.1143C5.11416 14.5938 8.31462 12.2285 12 12.2285C15.6854 12.2285 18.8858 14.5938 19.9638 18.1143C20.0965 18.5471 19.8528 19.0055 19.4202 19.138C19.3402 19.1626 19.2594 19.1741 19.1797 19.1741Z" fill="#FF9141"/>
<path d="M11.9998 13.2385C9.45289 13.2385 7.38055 11.1664 7.38055 8.61926C7.38055 6.07216 9.45289 4 11.9998 4C14.5467 4 16.6191 6.07216 16.6191 8.61926C16.6191 11.1664 14.5467 13.2385 11.9998 13.2385ZM11.9998 5.63937C10.3565 5.63937 9.01992 6.97616 9.01992 8.61926C9.01992 10.2624 10.3565 11.5992 11.9998 11.5992C13.6431 11.5992 14.9797 10.2624 14.9797 8.61926C14.9797 6.97616 13.6431 5.63937 11.9998 5.63937Z" fill="#FF9141"/>
</svg>
