<svg width="18" height="18" viewBox="0 0 18 18" fill="none" xmlns="http://www.w3.org/2000/svg">
<path d="M2 6.40834H7.33334C7.92609 6.40834 8.40834 5.92609 8.40834 5.33334V2C8.40834 1.40725 7.92609 0.925 7.33334 0.925H2C1.40725 0.925 0.925 1.40725 0.925 2V5.33334C0.925 5.92609 1.40725 6.40834 2 6.40834ZM1.74167 2C1.74167 1.85752 1.85799 1.74167 2 1.74167H7.33334C7.47535 1.74167 7.59167 1.85752 7.59167 2V5.33334C7.59167 5.47582 7.47535 5.59167 7.33334 5.59167H2C1.85799 5.59167 1.74167 5.47582 1.74167 5.33334V2Z" fill="#000000" stroke="#000000" stroke-width="0.15"/>
<path d="M2 17.0744H7.33334C7.92609 17.0744 8.40834 16.5921 8.40834 15.9994V8.66602C8.40834 8.07326 7.92609 7.59102 7.33334 7.59102H2C1.40725 7.59102 0.925 8.07326 0.925 8.66602V15.9994C0.925 16.5921 1.40725 17.0744 2 17.0744ZM1.74167 8.66602C1.74167 8.52354 1.85799 8.40768 2 8.40768H7.33334C7.47535 8.40768 7.59167 8.52354 7.59167 8.66602V15.9994C7.59167 16.1418 7.47535 16.2577 7.33334 16.2577H2C1.85799 16.2577 1.74167 16.1418 1.74167 15.9994V8.66602Z" fill="#000000" stroke="#000000" stroke-width="0.15"/>
<path d="M10.6667 17.0744H16C16.5928 17.0744 17.075 16.5921 17.075 15.9994V12.666C17.075 12.0733 16.5928 11.591 16 11.591H10.6667C10.0739 11.591 9.59169 12.0733 9.59169 12.666V15.9994C9.59169 16.5921 10.0739 17.0744 10.6667 17.0744ZM10.4084 12.666C10.4084 12.5235 10.5247 12.4077 10.6667 12.4077H16C16.142 12.4077 16.2584 12.5235 16.2584 12.666V15.9994C16.2584 16.1418 16.142 16.2577 16 16.2577H10.6667C10.5247 16.2577 10.4084 16.1418 10.4084 15.9994V12.666Z" fill="#000000" stroke="#000000" stroke-width="0.15"/>
<path d="M10.6667 10.4083H16C16.5928 10.4083 17.075 9.92609 17.075 9.33334V2C17.075 1.40725 16.5928 0.925 16 0.925H10.6667C10.0739 0.925 9.59169 1.40725 9.59169 2V9.33334C9.59169 9.92609 10.0739 10.4083 10.6667 10.4083ZM10.4084 2C10.4084 1.85752 10.5247 1.74167 10.6667 1.74167H16C16.142 1.74167 16.2584 1.85752 16.2584 2V9.33334C16.2584 9.47582 16.142 9.59167 16 9.59167H10.6667C10.5247 9.59167 10.4084 9.47582 10.4084 9.33334V2Z" fill="#000000" stroke="#000000" stroke-width="0.15"/>
</svg>
