<svg width="20" height="20" viewBox="0 0 20 20" fill="none" xmlns="http://www.w3.org/2000/svg">
<path d="M7.62647 0.8H2.32529C1.48407 0.8 0.8 1.48407 0.8 2.32529V9.74694C0.8 10.5882 1.48407 11.2722 2.32529 11.2722H7.62647C8.46769 11.2722 9.15176 10.5882 9.15176 9.74694V2.32529C9.15176 1.48407 8.46769 0.8 7.62647 0.8ZM8.22165 9.74694C8.22165 10.0749 7.95448 10.3421 7.62647 10.3421H2.32529C1.99728 10.3421 1.73012 10.0749 1.73012 9.74694V2.32529C1.73012 1.9973 1.99728 1.73012 2.32529 1.73012H7.62647C7.95448 1.73012 8.22165 1.9973 8.22165 2.32529V9.74694Z" fill="white" stroke="white" stroke-width="0.4"/>
<path d="M7.62647 12.968H2.32529C1.48407 12.968 0.8 13.652 0.8 14.4933V17.674C0.8 18.5152 1.48407 19.1993 2.32529 19.1993H7.62647C8.46769 19.1993 9.15176 18.5152 9.15176 17.674V14.4933C9.15176 13.652 8.46769 12.968 7.62647 12.968ZM8.22165 17.674C8.22165 18.002 7.95448 18.2691 7.62647 18.2691H2.32529C1.99728 18.2691 1.73012 18.002 1.73012 17.674V14.4933C1.73012 14.1653 1.99728 13.8981 2.32529 13.8981H7.62647C7.95448 13.8981 8.22165 14.1653 8.22165 14.4933V17.674Z" fill="white" stroke="white" stroke-width="0.4"/>
<path d="M19.2 17.6747V10.253C19.2 9.4118 18.5159 8.72773 17.6747 8.72773H12.3735C11.5323 8.72773 10.8482 9.4118 10.8482 10.253V17.6747C10.8482 18.5159 11.5323 19.2 12.3735 19.2H17.6747C18.5159 19.2 19.2 18.5159 19.2 17.6747ZM18.2699 17.6747C18.2699 18.0027 18.0027 18.2698 17.6747 18.2698H12.3735C12.0455 18.2698 11.7783 18.0027 11.7783 17.6747V10.253C11.7783 9.92504 12.0455 9.65785 12.3735 9.65785H17.6747C18.0027 9.65785 18.2699 9.92504 18.2699 10.253V17.6747Z" fill="white" stroke="white" stroke-width="0.4"/>
<path d="M19.2 5.506V2.32529C19.2 1.48407 18.5159 0.8 17.6747 0.8H12.3735C11.5323 0.8 10.8482 1.48407 10.8482 2.32529V5.506C10.8482 6.34722 11.5323 7.03129 12.3735 7.03129H17.6747C18.5159 7.03129 19.2 6.34722 19.2 5.506ZM18.2699 5.506C18.2699 5.83399 18.0027 6.10117 17.6747 6.10117H12.3735C12.0455 6.10117 11.7783 5.83399 11.7783 5.506V2.32529C11.7783 1.9973 12.0455 1.73012 12.3735 1.73012H17.6747C18.0027 1.73012 18.2699 1.9973 18.2699 2.32529V5.506Z" fill="white" stroke="white" stroke-width="0.4"/>
</svg>
