<svg width="18" height="18" viewBox="0 0 18 18" fill="none" xmlns="http://www.w3.org/2000/svg">
<path d="M6.56757 8.27027H1.70295C1.24808 8.27027 0.820216 8.0927 0.498405 7.76992C0.182432 7.45662 0 7.01781 0 6.56757V1.7027C0 1.24784 0.177081 0.819973 0.498405 0.497919C0.818757 0.176838 1.24662 0 1.70295 0H6.56757C7.02365 0 7.45151 0.176838 7.77211 0.497919C8.09343 0.820216 8.27027 1.24784 8.27027 1.7027V6.56757C8.27027 7.01757 8.08808 7.45638 7.77041 7.77162C7.44981 8.0927 7.02219 8.27027 6.56757 8.27027ZM1.70295 0.972973C1.50689 0.972973 1.32373 1.04838 1.18727 1.18532C1.04887 1.32349 0.972973 1.50738 0.972973 1.7027V6.56757C0.972973 6.75997 1.05032 6.94703 1.18532 7.08081C1.32543 7.22116 1.50859 7.2973 1.70295 7.2973H6.56757C6.76192 7.2973 6.94508 7.22116 7.08349 7.08251C7.21995 6.94727 7.2973 6.75997 7.2973 6.56757V1.7027C7.2973 1.50738 7.22141 1.32349 7.08324 1.18532C6.94678 1.04838 6.76362 0.972973 6.56757 0.972973H1.70295Z" fill="white"/>
<path d="M6.56757 17.9998H1.70295C1.24808 17.9998 0.820216 17.8222 0.498405 17.4994C0.182432 17.1861 0 16.7473 0 16.2971V11.4322C0 10.9773 0.177081 10.5495 0.498405 10.2274C0.818757 9.90633 1.24662 9.72949 1.70295 9.72949H6.56757C7.02365 9.72949 7.45151 9.90633 7.77211 10.2274C8.09343 10.5497 8.27027 10.9773 8.27027 11.4322V16.2971C8.27027 16.7471 8.08808 17.1859 7.77041 17.5011C7.44981 17.8222 7.02219 17.9998 6.56757 17.9998ZM1.70295 10.7025C1.50689 10.7025 1.32373 10.7779 1.18727 10.9148C1.04887 11.053 0.972973 11.2369 0.972973 11.4322V16.2971C0.972973 16.4895 1.05032 16.6765 1.18532 16.8103C1.32543 16.9507 1.50859 17.0268 1.70295 17.0268H6.56757C6.76192 17.0268 6.94508 16.9507 7.08349 16.812C7.21995 16.6768 7.2973 16.4895 7.2973 16.2971V11.4322C7.2973 11.2369 7.22141 11.053 7.08324 10.9148C6.94678 10.7779 6.76362 10.7025 6.56757 10.7025H1.70295Z" fill="white"/>
<path d="M16.2973 8.27027H11.4327C10.9778 8.27027 10.55 8.0927 10.2281 7.76992C9.91217 7.45662 9.72974 7.01781 9.72974 6.56757V1.7027C9.72974 1.24784 9.90682 0.819973 10.2281 0.497919C10.5485 0.176838 10.9764 0 11.4327 0H16.2973C16.7534 0 17.1813 0.176838 17.5018 0.497919C17.8232 0.820216 18 1.24784 18 1.7027V6.56757C18 7.01757 17.8178 7.45638 17.5001 7.77162C17.1795 8.0927 16.7519 8.27027 16.2973 8.27027ZM11.4327 0.972973C11.2366 0.972973 11.0535 1.04838 10.917 1.18532C10.7786 1.32349 10.7027 1.50738 10.7027 1.7027V6.56757C10.7027 6.75997 10.7801 6.94703 10.9151 7.08081C11.0552 7.22116 11.2383 7.2973 11.4327 7.2973H16.2973C16.4917 7.2973 16.6748 7.22116 16.8132 7.08251C16.9497 6.94727 17.027 6.75997 17.027 6.56757V1.7027C17.027 1.50738 16.9511 1.32349 16.813 1.18532C16.6765 1.04838 16.4934 0.972973 16.2973 0.972973H11.4327Z" fill="white"/>
<path d="M16.2973 17.9998H11.4327C10.9778 17.9998 10.55 17.8222 10.2281 17.4994C9.91217 17.1861 9.72974 16.7473 9.72974 16.2971V11.4322C9.72974 10.9773 9.90682 10.5495 10.2281 10.2274C10.5485 9.90633 10.9764 9.72949 11.4327 9.72949H16.2973C16.7534 9.72949 17.1813 9.90633 17.5018 10.2274C17.8232 10.5497 18 10.9773 18 11.4322V16.2971C18 16.7471 17.8178 17.1859 17.5001 17.5011C17.1795 17.8222 16.7519 17.9998 16.2973 17.9998ZM11.4327 10.7025C11.2366 10.7025 11.0535 10.7779 10.917 10.9148C10.7786 11.053 10.7027 11.2369 10.7027 11.4322V16.2971C10.7027 16.4895 10.7801 16.6765 10.9151 16.8103C11.0552 16.9507 11.2383 17.0268 11.4327 17.0268H16.2973C16.4917 17.0268 16.6748 16.9507 16.8132 16.812C16.9497 16.6768 17.027 16.4895 17.027 16.2971V11.4322C17.027 11.2369 16.9511 11.053 16.813 10.9148C16.6765 10.7779 16.4934 10.7025 16.2973 10.7025H11.4327Z" fill="white"/>
</svg>
