<svg width="24" height="24" viewBox="0 0 24 24" fill="none" xmlns="http://www.w3.org/2000/svg">
<rect width="24" height="24" rx="2" fill="#DAE4FF"/>
<path d="M20 5.91347C20 5.45746 19.8248 5.02874 19.5068 4.70627L19.3034 4.50006C18.9853 4.17759 18.5625 4 18.1126 4C17.6628 4 17.24 4.17759 16.9219 4.50006L15.2985 6.14594H5.78036C4.79866 6.14594 4 6.95564 4 7.95093V18.195C4 19.1903 4.79866 20 5.78036 20H16.1965C17.1783 20 17.9769 19.1903 17.9769 18.195V8.7015C17.9769 8.69192 17.976 8.68259 17.9755 8.67316L19.5068 7.1207C19.8248 6.79823 20 6.36951 20 5.91347ZM16.9112 18.1951C16.9112 18.5946 16.5906 18.9196 16.1965 18.9196H5.78036C5.38627 18.9196 5.06568 18.5946 5.06568 18.1951V7.951C5.06568 7.55146 5.38627 7.22643 5.78036 7.22643H14.2329L11.0576 10.4456C10.8858 10.6198 10.6367 10.9751 10.232 12.1868C10.0209 12.8189 9.86849 13.3851 9.8621 13.4089C9.81443 13.5865 9.85922 13.7764 9.98092 13.9129C10.0828 14.0272 10.2269 14.0909 10.3762 14.0909C10.4052 14.0909 10.4344 14.0886 10.4635 14.0836C10.4892 14.0793 11.099 13.9761 11.7749 13.8141C13.0863 13.4997 13.4618 13.2493 13.6424 13.0662L16.9112 9.75214V18.1951H16.9112ZM18.7533 6.35669L12.8908 12.3003C12.7317 12.4398 11.9955 12.666 11.1356 12.8538C11.3945 12.0349 11.6686 11.355 11.8112 11.2096L17.6755 5.26406C17.7923 5.14568 17.9475 5.08046 18.1127 5.08046C18.2778 5.08046 18.4331 5.14568 18.5499 5.26406L18.7533 5.47028C18.87 5.58869 18.9344 5.74607 18.9344 5.9135C18.9343 6.0809 18.87 6.23828 18.7533 6.35669Z" fill="#4365C0"/>
<path fill-rule="evenodd" clip-rule="evenodd" d="M14.7179 16C15.0152 16 15.2564 16.25 15.2564 16.5581C15.2564 16.8662 15.0152 17.1163 14.7179 17.1163H7.53846C7.24123 17.1163 7 16.8662 7 16.5581C7 16.25 7.24123 16 7.53846 16H14.7179Z" fill="#4365C0"/>
</svg>
