<svg width="20" height="20" viewBox="0 0 20 20" fill="none" xmlns="http://www.w3.org/2000/svg">
<path d="M7.62647 0.86H2.32529C1.51721 0.86 0.86 1.51721 0.86 2.32529V9.74694C0.86 10.555 1.51721 11.2122 2.32529 11.2122H7.62647C8.43456 11.2122 9.09176 10.555 9.09176 9.74694V2.32529C9.09176 1.51721 8.43456 0.86 7.62647 0.86ZM8.28165 9.74694C8.28165 10.1081 7.98762 10.4021 7.62647 10.4021H2.32529C1.96414 10.4021 1.67012 10.1081 1.67012 9.74694V2.32529C1.67012 1.96417 1.96414 1.67012 2.32529 1.67012H7.62647C7.98762 1.67012 8.28165 1.96417 8.28165 2.32529V9.74694Z" fill="white" stroke="white" stroke-width="0.28"/>
<path d="M7.62647 13.028H2.32529C1.51721 13.028 0.86 13.6852 0.86 14.4933V17.674C0.86 18.4821 1.51721 19.1393 2.32529 19.1393H7.62647C8.43456 19.1393 9.09176 18.4821 9.09176 17.674V14.4933C9.09176 13.6852 8.43456 13.028 7.62647 13.028ZM8.28165 17.674C8.28165 18.0351 7.98762 18.3291 7.62647 18.3291H2.32529C1.96414 18.3291 1.67012 18.0351 1.67012 17.674V14.4933C1.67012 14.1321 1.96414 13.8381 2.32529 13.8381H7.62647C7.98762 13.8381 8.28165 14.1321 8.28165 14.4933V17.674Z" fill="white" stroke="white" stroke-width="0.28"/>
<path d="M19.14 17.6747V10.253C19.14 9.44494 18.4828 8.78773 17.6747 8.78773H12.3735C11.5654 8.78773 10.9082 9.44494 10.9082 10.253V17.6747C10.9082 18.4828 11.5654 19.14 12.3735 19.14H17.6747C18.4828 19.14 19.14 18.4828 19.14 17.6747ZM18.3299 17.6747C18.3299 18.0358 18.0358 18.3298 17.6747 18.3298H12.3735C12.0124 18.3298 11.7183 18.0358 11.7183 17.6747V10.253C11.7183 9.8919 12.0124 9.59785 12.3735 9.59785H17.6747C18.0358 9.59785 18.3299 9.8919 18.3299 10.253V17.6747Z" fill="white" stroke="white" stroke-width="0.28"/>
<path d="M19.14 5.506V2.32529C19.14 1.51721 18.4828 0.86 17.6747 0.86H12.3735C11.5654 0.86 10.9082 1.51721 10.9082 2.32529V5.506C10.9082 6.31409 11.5654 6.97129 12.3735 6.97129H17.6747C18.4828 6.97129 19.14 6.31409 19.14 5.506ZM18.3299 5.506C18.3299 5.86712 18.0358 6.16117 17.6747 6.16117H12.3735C12.0124 6.16117 11.7183 5.86712 11.7183 5.506V2.32529C11.7183 1.96417 12.0124 1.67012 12.3735 1.67012H17.6747C18.0358 1.67012 18.3299 1.96417 18.3299 2.32529V5.506Z" fill="white" stroke="white" stroke-width="0.28"/>
</svg>
