<svg width="14" height="14" viewBox="0 0 14 14" fill="none" xmlns="http://www.w3.org/2000/svg">
<g clip-path="url(#clip0_840_2500)">
<mask id="mask0_840_2500" style="mask-type:luminance" maskUnits="userSpaceOnUse" x="0" y="0" width="14" height="14">
<path d="M14 0H0V14H14V0Z" fill="white"/>
</mask>
<g mask="url(#mask0_840_2500)">
<path fill-rule="evenodd" clip-rule="evenodd" d="M1.86638 0C1.37142 0.000115983 0.896765 0.196789 0.546777 0.546777C0.196789 0.896765 0.000115983 1.37142 0 1.86638V4.66637C-1.35944e-08 5.16141 0.196621 5.63617 0.546622 5.98626C0.896623 6.33634 1.37134 6.53307 1.86638 6.53319H12.1332C12.6283 6.53319 13.1031 6.33651 13.4532 5.98641C13.8033 5.63632 14 5.16148 14 4.66637V1.86638C13.9999 1.37134 13.8032 0.896623 13.4531 0.546622C13.103 0.196621 12.6282 -1.35944e-08 12.1332 0H1.86638ZM0.933188 1.86638C0.933188 1.61888 1.03151 1.38152 1.20651 1.20651C1.38152 1.03151 1.61888 0.933188 1.86638 0.933188H12.1332C12.3807 0.933188 12.618 1.03151 12.7931 1.20651C12.9681 1.38152 13.0664 1.61888 13.0664 1.86638V4.66637C13.0664 4.78896 13.0423 4.91035 12.9955 5.02362C12.9486 5.13689 12.8799 5.23982 12.7932 5.32652C12.7065 5.41322 12.6037 5.482 12.4904 5.52892C12.3772 5.57585 12.2558 5.6 12.1332 5.6H1.86638C1.74379 5.6 1.62241 5.57585 1.50916 5.52892C1.39591 5.482 1.29302 5.41322 1.20636 5.32652C1.1197 5.23982 1.05097 5.13689 1.0041 5.02362C0.957225 4.91035 0.93313 4.78896 0.933188 4.66637V1.86638Z" fill="#717171"/>
<path fill-rule="evenodd" clip-rule="evenodd" d="M10.0333 9.56641C9.80249 9.56641 9.5769 9.63484 9.38502 9.76305C9.19314 9.89126 9.04359 10.0735 8.95527 10.2867C8.86696 10.4999 8.84385 10.7345 8.88888 10.9609C8.9339 11.1872 9.04503 11.3951 9.20821 11.5583C9.37139 11.7215 9.5793 11.8326 9.80563 11.8776C10.032 11.9226 10.2666 11.8995 10.4798 11.8112C10.693 11.7229 10.8752 11.5733 11.0034 11.3815C11.1316 11.1896 11.2001 10.964 11.2001 10.7332C11.2001 10.4238 11.0771 10.127 10.8583 9.90816C10.6395 9.68934 10.3427 9.56641 10.0333 9.56641ZM9.80008 10.7332C9.80008 10.6871 9.81376 10.642 9.83938 10.6037C9.865 10.5653 9.90142 10.5354 9.94403 10.5178C9.98664 10.5001 10.0335 10.4955 10.0788 10.5045C10.124 10.5135 10.1655 10.5357 10.1982 10.5683C10.2308 10.6009 10.253 10.6425 10.262 10.6877C10.271 10.733 10.2664 10.7798 10.2487 10.8225C10.2311 10.8651 10.2012 10.9015 10.1628 10.9271C10.1245 10.9527 10.0794 10.9664 10.0333 10.9664C10.0026 10.9664 9.97232 10.9604 9.94403 10.9487C9.91574 10.9369 9.89003 10.9198 9.86838 10.8981C9.84673 10.8765 9.82955 10.8507 9.81783 10.8225C9.80611 10.7942 9.80008 10.7638 9.80008 10.7332Z" fill="#717171"/>
<path fill-rule="evenodd" clip-rule="evenodd" d="M1.86638 7.4668C1.37134 7.46691 0.896623 7.66365 0.546622 8.01373C0.196621 8.36381 -1.35944e-08 8.83858 0 9.33361V12.1336C0 12.6287 0.196681 13.1035 0.546777 13.4536C0.896872 13.8037 1.3717 14.0004 1.86681 14.0004H12.1332C12.6283 14.0004 13.1031 13.8037 13.4532 13.4536C13.8033 13.1035 14 12.6287 14 12.1336V9.33361C14 8.8385 13.8033 8.36367 13.4532 8.01357C13.1031 7.66348 12.6283 7.4668 12.1332 7.4668H1.86638ZM0.933188 9.33361C0.933188 9.08611 1.03151 8.84875 1.20651 8.67375C1.38152 8.49874 1.61888 8.40042 1.86638 8.40042H12.1332C12.3807 8.40042 12.618 8.49874 12.7931 8.67375C12.9681 8.84875 13.0664 9.08611 13.0664 9.33361V12.1336C13.0664 12.3811 12.9681 12.6185 12.7931 12.7935C12.618 12.9685 12.3807 13.0668 12.1332 13.0668H1.86638C1.61888 13.0668 1.38152 12.9685 1.20651 12.7935C1.03151 12.6185 0.933188 12.3811 0.933188 12.1336V9.33361Z" fill="#717171"/>
<path fill-rule="evenodd" clip-rule="evenodd" d="M8.86646 3.26642C8.86646 3.03565 8.93489 2.81006 9.0631 2.61818C9.19131 2.42629 9.37354 2.27674 9.58675 2.18843C9.79995 2.10011 10.0346 2.07701 10.2609 2.12203C10.4872 2.16705 10.6951 2.27818 10.8583 2.44136C11.0215 2.60454 11.1326 2.81245 11.1777 3.03879C11.2227 3.26513 11.1996 3.49973 11.1113 3.71294C11.0229 3.92615 10.8734 4.10838 10.6815 4.23659C10.4896 4.3648 10.264 4.43323 10.0333 4.43323C9.72381 4.43323 9.42703 4.3103 9.20821 4.09148C8.98939 3.87266 8.86646 3.57588 8.86646 3.26642ZM10.0333 3.03323C9.98715 3.03323 9.94206 3.04691 9.90372 3.07253C9.86537 3.09816 9.83548 3.13458 9.81783 3.17719C9.80018 3.21979 9.79556 3.26668 9.80456 3.31191C9.81356 3.35715 9.83577 3.3987 9.86838 3.43131C9.90099 3.46392 9.94254 3.48613 9.98778 3.49513C10.033 3.50413 10.0799 3.49951 10.1225 3.48186C10.1651 3.46421 10.2015 3.43432 10.2272 3.39597C10.2528 3.35763 10.2665 3.31254 10.2665 3.26642C10.2665 3.20458 10.2419 3.14526 10.1982 3.10153C10.1544 3.0578 10.0951 3.03323 10.0333 3.03323Z" fill="#717171"/>
</g>
</g>
<defs>
<clipPath id="clip0_840_2500">
<rect width="14" height="14" fill="white"/>
</clipPath>
</defs>
</svg>
