<svg xmlns="http://www.w3.org/2000/svg" xmlns:xlink="http://www.w3.org/1999/xlink" width="32" height="32" viewBox="0 0 32 32">
  <defs>
    <clipPath id="clip-path">
      <rect id="Rectangle_3646" data-name="Rectangle 3646" width="32" height="32" transform="translate(920 623)" fill="#112d55" stroke="#707070" stroke-width="1"/>
    </clipPath>
  </defs>
  <g id="Mask_Group_539" data-name="Mask Group 539" transform="translate(-920 -623)" clip-path="url(#clip-path)">
    <g id="database_1_" data-name="database (1)" transform="translate(918.933 621.933)">
      <g id="Group_1339" data-name="Group 1339">
        <path id="Path_2025" data-name="Path 2025" d="M5.333,1.067A4.267,4.267,0,0,0,1.067,5.333v6.4A4.267,4.267,0,0,0,5.333,16H28.8a4.267,4.267,0,0,0,4.267-4.267v-6.4A4.267,4.267,0,0,0,28.8,1.067ZM3.2,5.333A2.133,2.133,0,0,1,5.333,3.2H28.8a2.133,2.133,0,0,1,2.133,2.133v6.4A2.133,2.133,0,0,1,28.8,13.867H5.333A2.133,2.133,0,0,1,3.2,11.733Z" fill="#112d55" fill-rule="evenodd"/>
        <path id="Path_2026" data-name="Path 2026" d="M24,22.933A2.667,2.667,0,1,0,26.667,25.6,2.667,2.667,0,0,0,24,22.933ZM23.467,25.6a.533.533,0,1,1,.533.533A.533.533,0,0,1,23.467,25.6Z" fill="#112d55" fill-rule="evenodd"/>
        <path id="Path_2027" data-name="Path 2027" d="M5.333,18.133A4.267,4.267,0,0,0,1.067,22.4v6.4a4.267,4.267,0,0,0,4.267,4.267H28.8A4.267,4.267,0,0,0,33.067,28.8V22.4A4.267,4.267,0,0,0,28.8,18.133ZM3.2,22.4a2.133,2.133,0,0,1,2.133-2.133H28.8A2.133,2.133,0,0,1,30.933,22.4v6.4A2.133,2.133,0,0,1,28.8,30.933H5.333A2.133,2.133,0,0,1,3.2,28.8Z" fill="#112d55" fill-rule="evenodd"/>
      </g>
      <path id="Path_2028" data-name="Path 2028" d="M21.333,8.533A2.667,2.667,0,1,1,24,11.2,2.667,2.667,0,0,1,21.333,8.533ZM24,8a.533.533,0,1,0,.533.533A.533.533,0,0,0,24,8Z" fill="#112d55" fill-rule="evenodd"/>
    </g>
  </g>
</svg>
