<svg width="14" height="14" viewBox="0 0 14 14" fill="none" xmlns="http://www.w3.org/2000/svg">
<g id="Download">
<path id="Vector" d="M14 12.0909V9.54545C14 9.37668 13.9385 9.21482 13.8291 9.09548C13.7197 8.97614 13.5714 8.90909 13.4167 8.90909C13.262 8.90909 13.1136 8.97614 13.0042 9.09548C12.8948 9.21482 12.8333 9.37668 12.8333 9.54545V12.0909C12.8333 12.2597 12.7719 12.4215 12.6625 12.5409C12.5531 12.6602 12.4047 12.7273 12.25 12.7273H1.75C1.59529 12.7273 1.44692 12.6602 1.33752 12.5409C1.22812 12.4215 1.16667 12.2597 1.16667 12.0909V9.54545C1.16667 9.37668 1.10521 9.21482 0.995812 9.09548C0.886416 8.97614 0.738043 8.90909 0.583333 8.90909C0.428624 8.90909 0.280251 8.97614 0.170854 9.09548C0.0614583 9.21482 0 9.37668 0 9.54545V12.0909C0 12.5972 0.184375 13.0828 0.512563 13.4408C0.840752 13.7989 1.28587 14 1.75 14H12.25C12.7141 14 13.1592 13.7989 13.4874 13.4408C13.8156 13.0828 14 12.5972 14 12.0909ZM10.2783 8.76909L7.36167 11.3145C7.25868 11.4033 7.13126 11.4516 7 11.4516C6.86874 11.4516 6.74132 11.4033 6.63833 11.3145L3.72167 8.76909C3.61539 8.65966 3.55064 8.51069 3.54023 8.35167C3.52982 8.19265 3.5745 8.03516 3.66543 7.91035C3.75637 7.78555 3.88693 7.70253 4.03129 7.67772C4.17565 7.65291 4.32329 7.68811 4.445 7.77636L6.41667 9.49454V0.636364C6.41667 0.467589 6.47812 0.305728 6.58752 0.186387C6.69692 0.0670454 6.84529 0 7 0C7.15471 0 7.30308 0.0670454 7.41248 0.186387C7.52188 0.305728 7.58333 0.467589 7.58333 0.636364V9.49454L9.555 7.77636C9.61374 7.71588 9.68336 7.66936 9.75944 7.63975C9.83552 7.61015 9.91641 7.5981 9.99698 7.60438C10.0775 7.61066 10.156 7.63513 10.2275 7.67623C10.299 7.71733 10.3618 7.77417 10.4121 7.84315C10.4623 7.91214 10.4989 7.99176 10.5195 8.07697C10.5401 8.16218 10.5442 8.25112 10.5316 8.33817C10.5191 8.42521 10.4901 8.50846 10.4465 8.58264C10.4029 8.65682 10.3456 8.72031 10.2783 8.76909Z" fill="#f38507"/>
</g>
</svg>