<svg width="16" height="16" viewBox="0 0 16 16" fill="none" xmlns="http://www.w3.org/2000/svg">
<path d="M4.5 8H3.5C3.24112 8 3.03125 8.20987 3.03125 8.46875C3.03125 8.72763 3.24112 8.9375 3.5 8.9375H4.5C4.75888 8.9375 4.96875 8.72763 4.96875 8.46875C4.96875 8.20987 4.75888 8 4.5 8Z" fill="#262626"/>
<path d="M4.5 10H3.5C3.24112 10 3.03125 10.2099 3.03125 10.4688C3.03125 10.7276 3.24112 10.9375 3.5 10.9375H4.5C4.75888 10.9375 4.96875 10.7276 4.96875 10.4688C4.96875 10.2099 4.75888 10 4.5 10Z" fill="#262626"/>
<path d="M4.5 12H3.5C3.24112 12 3.03125 12.2099 3.03125 12.4688C3.03125 12.7276 3.24112 12.9375 3.5 12.9375H4.5C4.75888 12.9375 4.96875 12.7276 4.96875 12.4688C4.96875 12.2099 4.75888 12 4.5 12Z" fill="#262626"/>
<path d="M8.5 8H7.5C7.24112 8 7.03125 8.20987 7.03125 8.46875C7.03125 8.72763 7.24112 8.9375 7.5 8.9375H8.5C8.75888 8.9375 8.96875 8.72763 8.96875 8.46875C8.96875 8.20987 8.75888 8 8.5 8Z" fill="#262626"/>
<path d="M8.5 10H7.5C7.24112 10 7.03125 10.2099 7.03125 10.4688C7.03125 10.7276 7.24112 10.9375 7.5 10.9375H8.5C8.75888 10.9375 8.96875 10.7276 8.96875 10.4688C8.96875 10.2099 8.75888 10 8.5 10Z" fill="#262626"/>
<path d="M8.5 12H7.5C7.24112 12 7.03125 12.2099 7.03125 12.4688C7.03125 12.7276 7.24112 12.9375 7.5 12.9375H8.5C8.75888 12.9375 8.96875 12.7276 8.96875 12.4688C8.96875 12.2099 8.75888 12 8.5 12Z" fill="#262626"/>
<path d="M12.5 8H11.5C11.2411 8 11.0312 8.20987 11.0312 8.46875C11.0312 8.72763 11.2411 8.9375 11.5 8.9375H12.5C12.7589 8.9375 12.9688 8.72763 12.9688 8.46875C12.9688 8.20987 12.7589 8 12.5 8Z" fill="#262626"/>
<path d="M12.5 10H11.5C11.2411 10 11.0312 10.2099 11.0312 10.4688C11.0312 10.7276 11.2411 10.9375 11.5 10.9375H12.5C12.7589 10.9375 12.9688 10.7276 12.9688 10.4688C12.9688 10.2099 12.7589 10 12.5 10Z" fill="#262626"/>
<path d="M12.5 12H11.5C11.2411 12 11.0312 12.2099 11.0312 12.4688C11.0312 12.7276 11.2411 12.9375 11.5 12.9375H12.5C12.7589 12.9375 12.9688 12.7276 12.9688 12.4688C12.9688 12.2099 12.7589 12 12.5 12Z" fill="#262626"/>
<path d="M14.5938 2.25H13.4688V1.46875C13.4688 1.20987 13.2589 1 13 1C12.7411 1 12.5312 1.20987 12.5312 1.46875V2.25H8.46875V1.46875C8.46875 1.20987 8.25887 1 8 1C7.74113 1 7.53125 1.20987 7.53125 1.46875V2.25H3.46875V1.46875C3.46875 1.20987 3.25887 1 3 1C2.74113 1 2.53125 1.20987 2.53125 1.46875V2.25H1.40625C0.630844 2.25 0 2.88084 0 3.65625V14.0312C0 14.8067 0.630844 15.4375 1.40625 15.4375H14.5938C15.3692 15.4375 16 14.8067 16 14.0312C16 13.7287 16 3.91953 16 3.65625C16 2.88084 15.3692 2.25 14.5938 2.25ZM0.9375 3.65625C0.9375 3.39778 1.14778 3.1875 1.40625 3.1875H2.53125V3.96875C2.53125 4.22762 2.74113 4.4375 3 4.4375C3.25887 4.4375 3.46875 4.22762 3.46875 3.96875V3.1875H7.53125V3.96875C7.53125 4.22762 7.74113 4.4375 8 4.4375C8.25887 4.4375 8.46875 4.22762 8.46875 3.96875V3.1875H12.5312V3.96875C12.5312 4.22762 12.7411 4.4375 13 4.4375C13.2589 4.4375 13.4688 4.22762 13.4688 3.96875V3.1875H14.5938C14.8522 3.1875 15.0625 3.39778 15.0625 3.65625V5.5H0.9375V3.65625ZM14.5938 14.5H1.40625C1.14778 14.5 0.9375 14.2897 0.9375 14.0312V6.4375H15.0625V14.0312C15.0625 14.2897 14.8522 14.5 14.5938 14.5Z" fill="#262626"/>
</svg>
