<svg width="16" height="16" viewBox="0 0 16 16" fill="none" xmlns="http://www.w3.org/2000/svg">
<mask id="path-1-inside-1_18_8568" fill="white">
<path d="M13.0002 2.07683H11.5002V1.53842C11.5004 1.46794 11.4876 1.39811 11.4626 1.33291C11.4376 1.26771 11.4008 1.20842 11.3544 1.15842C11.3079 1.10843 11.2527 1.0687 11.1919 1.04152C11.1311 1.01434 11.0659 1.00023 11 1C10.9341 1.00023 10.8689 1.01434 10.8081 1.04152C10.7473 1.0687 10.6921 1.10843 10.6456 1.15842C10.5992 1.20842 10.5624 1.26771 10.5374 1.33291C10.5124 1.39811 10.4996 1.46794 10.4998 1.53842V2.07683H5.50018V1.53842C5.5004 1.46794 5.48763 1.39811 5.46261 1.33291C5.43759 1.26771 5.40081 1.20842 5.35436 1.15842C5.30792 1.10843 5.25272 1.0687 5.19192 1.04152C5.13111 1.01434 5.0659 1.00023 5 1C4.9341 1.00023 4.86889 1.01434 4.80809 1.04152C4.74729 1.0687 4.69209 1.10843 4.64564 1.15842C4.5992 1.20842 4.56241 1.26771 4.53739 1.33291C4.51237 1.39811 4.49961 1.46794 4.49982 1.53842V2.07683H2.99982C2.73374 2.07791 2.47894 2.19196 2.29145 2.39388C2.10397 2.59581 1.99914 2.8691 2.00001 3.15367V13.9232C2.00001 14.5182 2.44728 15 2.99982 15H13.0002C13.2663 14.9989 13.5211 14.8849 13.7085 14.6829C13.896 14.481 14.0009 14.2077 14 13.9232V3.15367C14.0009 2.8691 13.896 2.59581 13.7085 2.39388C13.5211 2.19196 13.2663 2.07791 13.0002 2.07683ZM4.49982 3.15367V3.69208C4.49982 3.98958 4.72346 4.2305 5 4.2305C5.0659 4.23027 5.13111 4.21616 5.19192 4.18898C5.25272 4.1618 5.30792 4.12207 5.35436 4.07208C5.40081 4.02208 5.43759 3.96279 5.46261 3.89759C5.48763 3.83239 5.5004 3.76256 5.50018 3.69208V3.15367H10.4998V3.69208C10.4998 3.98958 10.7235 4.2305 11 4.2305C11.0659 4.23027 11.1311 4.21616 11.1919 4.18898C11.2527 4.1618 11.3079 4.12207 11.3544 4.07208C11.4008 4.02208 11.4376 3.96279 11.4626 3.89759C11.4876 3.83239 11.5004 3.76256 11.5002 3.69208V3.15367H13.0002V5.30792H2.99982V3.15367H4.49982ZM13.0002 13.9232H2.99982V6.38417H13.0002V13.9232Z"/>
</mask>
<path d="M13.0002 2.07683L13.0042 1.07683H13.0002V2.07683ZM11.5002 2.07683H10.5002V3.07683H11.5002V2.07683ZM11.5002 1.53842L10.5002 1.53536V1.53842H11.5002ZM11 1L11.0035 -1.8239e-05L10.9965 6.07967e-06L11 1ZM10.4998 1.53842H11.4998L11.4998 1.53536L10.4998 1.53842ZM10.4998 2.07683V3.07683H11.4998V2.07683H10.4998ZM5.50018 2.07683H4.50018V3.07683H5.50018V2.07683ZM5.50018 1.53842L4.50018 1.53536V1.53842H5.50018ZM5 1L5.00348 -1.8239e-05L4.99652 6.07967e-06L5 1ZM4.49982 1.53842H5.49983L5.49982 1.53536L4.49982 1.53842ZM4.49982 2.07683V3.07683H5.49982V2.07683H4.49982ZM2.99982 2.07683V1.07683L2.99576 1.07684L2.99982 2.07683ZM2.00001 3.15367H3.00001L3 3.15061L2.00001 3.15367ZM13.0002 15V16L13.0042 16L13.0002 15ZM14 13.9232H13L13 13.9262L14 13.9232ZM14 3.15367L13 3.15061V3.15367H14ZM4.49982 3.15367H5.49982V2.15367H4.49982V3.15367ZM5 4.2305V5.23051L5.00348 5.23049L5 4.2305ZM5.50018 3.69208H4.50018L4.50019 3.69514L5.50018 3.69208ZM5.50018 3.15367V2.15367H4.50018V3.15367H5.50018ZM10.4998 3.15367H11.4998V2.15367H10.4998V3.15367ZM11 4.2305V5.23051L11.0035 5.23049L11 4.2305ZM11.5002 3.69208H10.5002L10.5002 3.69514L11.5002 3.69208ZM11.5002 3.15367V2.15367H10.5002V3.15367H11.5002ZM13.0002 3.15367H14.0002V2.15367H13.0002V3.15367ZM13.0002 5.30792V6.30792H14.0002V5.30792H13.0002ZM2.99982 5.30792H1.99982V6.30792H2.99982V5.30792ZM2.99982 3.15367V2.15367H1.99982V3.15367H2.99982ZM13.0002 13.9232V14.9232H14.0002V13.9232H13.0002ZM2.99982 13.9232H1.99982V14.9232H2.99982V13.9232ZM2.99982 6.38417V5.38417H1.99982V6.38417H2.99982ZM13.0002 6.38417H14.0002V5.38417H13.0002V6.38417ZM13.0002 1.07683H11.5002V3.07683H13.0002V1.07683ZM12.5002 2.07683V1.53842H10.5002V2.07683H12.5002ZM12.5002 1.54147C12.5008 1.34864 12.4659 1.15622 12.3962 0.974638L10.529 1.69118C10.5093 1.64 10.5 1.58724 10.5002 1.53536L12.5002 1.54147ZM12.3962 0.974638C12.3265 0.792984 12.2225 0.623633 12.087 0.477809L10.6217 1.83904C10.5791 1.79321 10.5487 1.74244 10.529 1.69118L12.3962 0.974638ZM12.087 0.477809C11.9514 0.331847 11.7866 0.211996 11.6 0.128599L10.7838 1.95444C10.7188 1.92541 10.6644 1.88501 10.6217 1.83904L12.087 0.477809ZM11.6 0.128599C11.4133 0.045113 11.2104 0.000726402 11.0035 6.07967e-06L10.9965 1.99999C10.9214 1.99973 10.8489 1.98356 10.7838 1.95444L11.6 0.128599ZM10.9965 6.07967e-06C10.7896 0.000726402 10.5867 0.045113 10.3999 0.128599L11.2162 1.95444C11.1511 1.98356 11.0786 1.99973 11.0035 1.99999L10.9965 6.07967e-06ZM10.3999 0.128599C10.2134 0.211996 10.0486 0.331847 9.913 0.477809L11.3783 1.83904C11.3356 1.88501 11.2812 1.92541 11.2162 1.95444L10.3999 0.128599ZM9.913 0.477809C9.77753 0.623633 9.67348 0.792984 9.60377 0.974638L11.471 1.69118C11.4513 1.74244 11.4209 1.79321 11.3783 1.83904L9.913 0.477809ZM9.60377 0.974638C9.53409 1.15622 9.49923 1.34864 9.49982 1.54147L11.4998 1.53536C11.5 1.58724 11.4906 1.64 11.471 1.69118L9.60377 0.974638ZM9.49982 1.53842V2.07683H11.4998V1.53842H9.49982ZM10.4998 1.07683H5.50018V3.07683H10.4998V1.07683ZM6.50018 2.07683V1.53842H4.50018V2.07683H6.50018ZM6.50018 1.54147C6.50077 1.34865 6.46591 1.15623 6.39623 0.974638L4.529 1.69118C4.50935 1.63999 4.50003 1.58723 4.50019 1.53536L6.50018 1.54147ZM6.39623 0.974638C6.32652 0.792984 6.22247 0.623633 6.08701 0.477809L4.62172 1.83904C4.57914 1.79321 4.54866 1.74244 4.529 1.69118L6.39623 0.974638ZM6.08701 0.477809C5.95141 0.331844 5.78659 0.211995 5.60005 0.128599L4.78378 1.95444C4.71884 1.92541 4.66443 1.88501 4.62172 1.83904L6.08701 0.477809ZM5.60005 0.128599C5.41331 0.045113 5.21039 0.000726402 5.00348 6.07967e-06L4.99652 1.99999C4.92142 1.99973 4.84892 1.98356 4.78378 1.95444L5.60005 0.128599ZM4.99652 6.07967e-06C4.78962 0.000726402 4.5867 0.045113 4.39995 0.128599L5.21623 1.95444C5.15109 1.98356 5.07859 1.99973 5.00348 1.99999L4.99652 6.07967e-06ZM4.39995 0.128599C4.21341 0.211995 4.0486 0.331844 3.913 0.477809L5.37828 1.83904C5.33558 1.88501 5.28116 1.92541 5.21623 1.95444L4.39995 0.128599ZM3.913 0.477809C3.77753 0.623633 3.67348 0.792984 3.60378 0.974638L5.47101 1.69118C5.45134 1.74244 5.42086 1.79321 5.37828 1.83904L3.913 0.477809ZM3.60378 0.974638C3.53409 1.15623 3.49924 1.34865 3.49983 1.54147L5.49982 1.53536C5.49998 1.58723 5.49065 1.63999 5.47101 1.69118L3.60378 0.974638ZM3.49982 1.53842V2.07683H5.49982V1.53842H3.49982ZM4.49982 1.07683H2.99982V3.07683H4.49982V1.07683ZM2.99576 1.07684C2.44209 1.07909 1.92681 1.31692 1.55863 1.71347L3.02428 3.0743C3.02803 3.07026 3.02878 3.07096 3.02469 3.07279C3.02047 3.07468 3.01315 3.07679 3.00389 3.07683L2.99576 1.07684ZM1.55863 1.71347C1.19255 2.10775 0.998394 2.62788 1.00001 3.15672L3 3.15061C2.99988 3.11032 3.01539 3.08388 3.02428 3.0743L1.55863 1.71347ZM1.00001 3.15367V13.9232H3.00001V3.15367H1.00001ZM1.00001 13.9232C1.00001 14.9992 1.82634 16 2.99982 16V14C3.00887 14 3.01829 14.0023 3.02487 14.0053C3.03048 14.0079 3.02985 14.0089 3.02556 14.0043C3.01655 13.9946 3.00001 13.9685 3.00001 13.9232H1.00001ZM2.99982 16H13.0002V14H2.99982V16ZM13.0042 16C13.5579 15.9977 14.0732 15.7599 14.4414 15.3634L12.9757 14.0025C12.972 14.0066 12.9712 14.0059 12.9753 14.004C12.9795 14.0022 12.9869 14 12.9961 14L13.0042 16ZM14.4414 15.3634C14.8075 14.9691 15.0016 14.4489 15 13.9201L13 13.9262C13.0001 13.9665 12.9846 13.993 12.9757 14.0025L14.4414 15.3634ZM15 13.9232V3.15367H13V13.9232H15ZM15 3.15672C15.0016 2.62788 14.8075 2.10775 14.4414 1.71347L12.9757 3.0743C12.9846 3.08388 13.0001 3.11032 13 3.15061L15 3.15672ZM14.4414 1.71347C14.0732 1.31692 13.5579 1.07909 13.0042 1.07684L12.9961 3.07683C12.9869 3.07679 12.9795 3.07468 12.9753 3.07279C12.9712 3.07096 12.972 3.07026 12.9757 3.0743L14.4414 1.71347ZM3.49982 3.15367V3.69208H5.49982V3.15367H3.49982ZM3.49982 3.69208C3.49982 4.47099 4.10286 5.2305 5 5.2305V3.2305C5.34405 3.2305 5.49982 3.50818 5.49982 3.69208H3.49982ZM5.00348 5.23049C5.21039 5.22977 5.41331 5.18539 5.60005 5.1019L4.78378 3.27606C4.84892 3.24694 4.92142 3.23077 4.99652 3.23051L5.00348 5.23049ZM5.60005 5.1019C5.78659 5.01851 5.95141 4.89866 6.08701 4.75269L4.62172 3.39146C4.66443 3.34549 4.71884 3.30509 4.78378 3.27606L5.60005 5.1019ZM6.08701 4.75269C6.22248 4.60687 6.32652 4.43751 6.39623 4.25586L4.529 3.53932C4.54866 3.48806 4.57914 3.4373 4.62172 3.39146L6.08701 4.75269ZM6.39623 4.25586C6.46591 4.07427 6.50077 3.88185 6.50018 3.68903L4.50019 3.69514C4.50003 3.64327 4.50935 3.59051 4.529 3.53932L6.39623 4.25586ZM6.50018 3.69208V3.15367H4.50018V3.69208H6.50018ZM5.50018 4.15367H10.4998V2.15367H5.50018V4.15367ZM9.49982 3.15367V3.69208H11.4998V3.15367H9.49982ZM9.49982 3.69208C9.49982 4.47099 10.1029 5.2305 11 5.2305V3.2305C11.344 3.2305 11.4998 3.50818 11.4998 3.69208H9.49982ZM11.0035 5.23049C11.2104 5.22977 11.4133 5.18539 11.6 5.1019L10.7838 3.27606C10.8489 3.24694 10.9214 3.23077 10.9965 3.23051L11.0035 5.23049ZM11.6 5.1019C11.7866 5.0185 11.9514 4.89865 12.087 4.75269L10.6217 3.39146C10.6644 3.34549 10.7188 3.30509 10.7838 3.27606L11.6 5.1019ZM12.087 4.75269C12.2225 4.60687 12.3265 4.43751 12.3962 4.25586L10.529 3.53932C10.5487 3.48806 10.5791 3.4373 10.6217 3.39146L12.087 4.75269ZM12.3962 4.25586C12.4659 4.07428 12.5008 3.88185 12.5002 3.68903L10.5002 3.69514C10.5 3.64326 10.5093 3.5905 10.529 3.53932L12.3962 4.25586ZM12.5002 3.69208V3.15367H10.5002V3.69208H12.5002ZM11.5002 4.15367H13.0002V2.15367H11.5002V4.15367ZM12.0002 3.15367V5.30792H14.0002V3.15367H12.0002ZM13.0002 4.30792H2.99982V6.30792H13.0002V4.30792ZM3.99982 5.30792V3.15367H1.99982V5.30792H3.99982ZM2.99982 4.15367H4.49982V2.15367H2.99982V4.15367ZM13.0002 12.9232H2.99982V14.9232H13.0002V12.9232ZM3.99982 13.9232V6.38417H1.99982V13.9232H3.99982ZM2.99982 7.38417H13.0002V5.38417H2.99982V7.38417ZM12.0002 6.38417V13.9232H14.0002V6.38417H12.0002Z" fill="#112D55" mask="url(#path-1-inside-1_18_8568)"/>
<path d="M9.53271 9.42274C9.45427 9.39418 9.3708 9.38116 9.28691 9.38475H8.92062V8.94208C8.92062 8.83523 8.89488 8.7286 8.84448 8.63255C8.99555 8.70591 9.13597 8.80891 9.25806 8.93949C9.39138 9.08206 9.49699 9.25155 9.5695 9.43744C9.55744 9.43218 9.54517 9.42728 9.53271 9.42274L9.53271 9.42274ZM7.28863 8.93949C7.41073 8.80891 7.55114 8.70591 7.70222 8.63255C7.65181 8.7286 7.62607 8.83523 7.62607 8.94208V10.0417C7.62607 10.2056 7.68667 10.3691 7.804 10.4945C7.92239 10.6211 8.09043 10.6992 8.27335 10.6992H9.30153H9.54762C9.47638 10.8642 9.37854 11.015 9.25806 11.1438C8.99082 11.4297 8.63582 11.5833 8.27335 11.5833C7.91088 11.5833 7.55587 11.4297 7.28863 11.1438C7.02032 10.8569 6.86426 10.461 6.86426 10.0417C6.86426 9.62236 7.02032 9.22643 7.28863 8.93949Z" stroke="#112D55"/>
</svg>
