<svg width="16" height="16" viewBox="0 0 16 16" fill="none" xmlns="http://www.w3.org/2000/svg">
<g id="Group 596">
<g id="Group">
<path id="Vector" d="M11.6599 2.07683V2.57683H12.1599H13.763C13.8635 2.57735 13.9612 2.60426 14.0467 2.65367H13.7641H12.1599H11.6599V3.15367L11.6599 3.69208L11.6599 3.69372C11.6599 3.69853 11.659 3.7033 11.6572 3.70776C11.6554 3.71221 11.6527 3.71626 11.6493 3.71968C11.6459 3.7231 11.6418 3.72581 11.6374 3.72767C11.6332 3.72941 11.6288 3.73037 11.6242 3.73049C11.608 3.73006 11.5901 3.71625 11.5901 3.69208V3.15367V2.65367H11.0901H5.74326H5.24326V3.15367L5.24325 3.69208L5.24326 3.69372C5.24327 3.69853 5.24234 3.7033 5.24051 3.70776C5.23869 3.71221 5.236 3.71626 5.2326 3.71968L5.58731 4.07208L5.2326 3.71968C5.22921 3.72309 5.22518 3.72581 5.22073 3.72767C5.21655 3.72941 5.21209 3.73037 5.20757 3.73049C5.19134 3.73006 5.17342 3.71625 5.17342 3.69208V3.15367V2.65367H4.67342H3.06926H2.78661C2.87218 2.60426 2.96985 2.57735 3.07036 2.57683H4.67342H5.17342V2.07683L5.17343 1.53842L5.17342 1.53678C5.1734 1.53197 5.17434 1.5272 5.17616 1.52274C5.17799 1.51829 5.18068 1.51424 5.18407 1.51082C5.18747 1.50741 5.1915 1.50469 5.19594 1.50283C5.19989 1.50119 5.20408 1.50024 5.20834 1.50004C5.2126 1.50024 5.21679 1.50119 5.22073 1.50283C5.22518 1.50469 5.22921 1.50741 5.2326 1.51082C5.236 1.51424 5.23869 1.51829 5.24051 1.52274L5.70307 1.33291L5.24051 1.52274C5.24234 1.5272 5.24327 1.53197 5.24326 1.53678H5.24326V1.53842V2.07683V2.57683H5.74326H11.0901H11.5901V2.07683L11.5901 1.53842L11.5901 1.53678C11.5901 1.53197 11.591 1.5272 11.5928 1.52275L11.1308 1.33313L11.5928 1.52274C11.5947 1.51829 11.5973 1.51424 11.6007 1.51082C11.6041 1.5074 11.6082 1.50469 11.6126 1.50283C11.6166 1.50119 11.6207 1.50024 11.625 1.50004C11.6293 1.50024 11.6335 1.50119 11.6374 1.50283C11.6418 1.50469 11.6459 1.5074 11.6493 1.51082C11.6527 1.51424 11.6554 1.51829 11.6572 1.52274C11.659 1.5272 11.6599 1.53197 11.6599 1.53678V1.53842V2.07683ZM14.2641 3.15367V2.877C14.3094 2.96069 14.3337 3.05514 14.3333 3.15203V3.15367L14.3333 13.9232L14.3333 13.9248C14.3337 14.0217 14.3094 14.1161 14.2641 14.1998V13.9232V6.38417V5.88417H13.7641H3.06926H2.56926V6.38417V13.9232V14.1996C2.52516 14.1179 2.50001 14.0238 2.50001 13.9232L2.50001 3.15367L2.5 3.15203C2.49969 3.05513 2.52391 2.96068 2.56926 2.877V3.15367V5.30792V5.80792H3.06926H13.7641H14.2641V5.30792V3.15367ZM13.7641 14.4232H14.0467C13.9612 14.4726 13.8635 14.4995 13.763 14.5H3.06926C2.96623 14.5 2.86906 14.4721 2.78516 14.4232H3.06926H13.7641Z" stroke="#112D55"/>
</g>
</g>
</svg>
