<svg width="16" height="12" viewBox="0 0 16 12" fill="none" xmlns="http://www.w3.org/2000/svg">
<path d="M15.8321 1.09761C15.6627 1.01457 15.5897 1.17283 15.4906 1.25322C15.4567 1.27916 15.428 1.31286 15.3993 1.34398C15.1516 1.60851 14.8622 1.78234 14.4841 1.76155C13.9313 1.73041 13.4594 1.90424 13.0422 2.32702C12.9535 1.80568 12.6589 1.49438 12.2104 1.2947C11.9758 1.19093 11.7385 1.08716 11.5742 0.861494C11.4595 0.700732 11.4282 0.521751 11.3708 0.34536C11.3343 0.23903 11.2978 0.130052 11.1752 0.111889C11.0423 0.0911643 10.9901 0.202647 10.9379 0.296081C10.7294 0.677388 10.6485 1.09758 10.6563 1.52296C10.6746 2.4801 11.0788 3.24263 11.8818 3.78475C11.9731 3.84702 11.9965 3.90922 11.9679 4.00006C11.9131 4.18682 11.8479 4.36836 11.7906 4.55511C11.7541 4.67445 11.6993 4.70039 11.5715 4.64846C11.1309 4.46435 10.7502 4.19197 10.4138 3.86259C9.84279 3.3101 9.32651 2.70056 8.6825 2.22329C8.53127 2.11175 8.38002 2.00803 8.22356 1.90942C7.56648 1.27138 8.30962 0.747392 8.48171 0.685188C8.6616 0.620337 8.54428 0.397229 7.96282 0.399877C7.38135 0.402439 6.84944 0.596993 6.17152 0.856369C6.07245 0.895286 5.96811 0.923783 5.86121 0.947127C5.24587 0.830435 4.60703 0.804443 3.93953 0.879714C2.68273 1.01975 1.6789 1.61375 0.940999 2.62794C0.0544898 3.84701 -0.154099 5.23207 0.101434 6.67684C0.370006 8.19937 1.147 9.45995 2.34122 10.4456C3.57977 11.4676 5.00605 11.9682 6.63308 11.8722C7.62131 11.8152 8.72164 11.6829 9.96278 10.6324C10.2757 10.788 10.6042 10.8502 11.1492 10.8969C11.569 10.9358 11.9731 10.8762 12.286 10.8114C12.7762 10.7076 12.7423 10.2537 12.565 10.1707C11.1283 9.50152 11.4438 9.77385 11.157 9.55336C11.8871 8.68965 12.9875 7.79215 13.4177 4.88449C13.4515 4.65367 13.4229 4.5084 13.4177 4.32164C13.415 4.20754 13.4411 4.16347 13.5715 4.15046C13.9313 4.10895 14.2807 4.01042 14.6014 3.83403C15.5323 3.32567 15.9078 2.49046 15.9964 1.48925C16.0095 1.33621 15.9938 1.17795 15.8321 1.09761ZM7.72038 10.1084C6.32801 9.01388 5.65271 8.6533 5.37369 8.66887C5.11295 8.68444 5.15989 8.98274 5.21723 9.17729C5.27721 9.36919 5.35544 9.50152 5.46493 9.67008C5.54054 9.78162 5.59273 9.94759 5.38935 10.0721C4.94085 10.3497 4.16122 9.97873 4.12469 9.9606C3.21734 9.42625 2.45857 8.72071 1.92402 7.75588C1.40774 6.82724 1.10791 5.83127 1.05835 4.7678C1.04531 4.51104 1.12092 4.4202 1.37645 4.37357C1.71281 4.31131 2.05961 4.2983 2.39597 4.34758C3.81706 4.55511 5.02689 5.19059 6.04116 6.19698C6.62001 6.77019 7.05806 7.455 7.50917 8.12418C7.98892 8.83484 8.5052 9.51188 9.16228 10.0669C9.39433 10.2615 9.57946 10.4093 9.75676 10.5183C9.22226 10.5779 8.33051 10.5909 7.72038 10.1084ZM8.38788 5.8157C8.38788 5.70157 8.47915 5.61081 8.59391 5.61081C8.61998 5.61081 8.64344 5.61593 8.66431 5.62371C8.693 5.63413 8.71908 5.6497 8.73992 5.67299C8.77645 5.70934 8.79728 5.76118 8.79728 5.81567C8.79728 5.9298 8.70604 6.02056 8.59134 6.02056C8.47664 6.02056 8.38788 5.92983 8.38788 5.8157ZM10.4608 6.87917C10.3278 6.93366 10.1949 6.98029 10.0671 6.9855C9.86893 6.99586 9.65251 6.91544 9.53519 6.81688C9.35268 6.66383 9.22229 6.57828 9.16755 6.31111C9.14406 6.19698 9.1571 6.02059 9.17799 5.91947C9.22491 5.70157 9.17276 5.56153 9.01894 5.43439C8.89376 5.33062 8.73471 5.30213 8.56 5.30213C8.49481 5.30213 8.43488 5.27357 8.39053 5.25023C8.3175 5.21393 8.25758 5.12314 8.31491 5.01161C8.33316 4.97534 8.42184 4.88711 8.44271 4.87157C8.67999 4.73666 8.95378 4.78078 9.20669 4.88193C9.44138 4.9779 9.61869 5.15429 9.87419 5.40328C10.1349 5.70413 10.1819 5.7872 10.3305 6.01281C10.4479 6.18921 10.5548 6.37075 10.6278 6.57828C10.6721 6.70799 10.6147 6.81432 10.4608 6.87917Z" fill="#4D6BFE"/>
</svg>
