<svg width="16" height="16" viewBox="0 0 16 16" fill="none" xmlns="http://www.w3.org/2000/svg">
<g clip-path="url(#clip0_5819_688)">
<path d="M5.4375 7.5H2.0625C0.925219 7.5 0 6.57478 0 5.4375V2.0625C0 0.925219 0.925219 0 2.0625 0H5.4375C6.57478 0 7.5 0.925219 7.5 2.0625V5.4375C7.5 6.57478 6.57478 7.5 5.4375 7.5ZM2.0625 1C1.47663 1 1 1.47663 1 2.0625V5.4375C1 6.02337 1.47663 6.5 2.0625 6.5H5.4375C6.02337 6.5 6.5 6.02337 6.5 5.4375V2.0625C6.5 1.47663 6.02337 1 5.4375 1H2.0625Z" fill="#717171"/>
<path d="M13.9375 7.5H10.5625C9.42522 7.5 8.5 6.57478 8.5 5.4375V2.0625C8.5 0.925219 9.42522 0 10.5625 0H13.9375C15.0748 0 16 0.925219 16 2.0625V5.4375C16 6.57478 15.0748 7.5 13.9375 7.5ZM10.5625 1C9.97663 1 9.5 1.47663 9.5 2.0625V5.4375C9.5 6.02337 9.97663 6.5 10.5625 6.5H13.9375C14.5234 6.5 15 6.02337 15 5.4375V2.0625C15 1.47663 14.5234 1 13.9375 1H10.5625Z" fill="#717171"/>
<path d="M12.25 16C10.1823 16 8.5 14.3177 8.5 12.25C8.5 10.1823 10.1823 8.5 12.25 8.5C14.3177 8.5 16 10.1823 16 12.25C16 14.3177 14.3177 16 12.25 16ZM12.25 9.5C10.7337 9.5 9.5 10.7337 9.5 12.25C9.5 13.7663 10.7337 15 12.25 15C13.7663 15 15 13.7663 15 12.25C15 10.7337 13.7663 9.5 12.25 9.5Z" fill="#717171"/>
<path d="M5.4375 16H2.0625C0.925219 16 0 15.0748 0 13.9375V10.5625C0 9.42522 0.925219 8.5 2.0625 8.5H5.4375C6.57478 8.5 7.5 9.42522 7.5 10.5625V13.9375C7.5 15.0748 6.57478 16 5.4375 16ZM2.0625 9.5C1.47663 9.5 1 9.97663 1 10.5625V13.9375C1 14.5234 1.47663 15 2.0625 15H5.4375C6.02337 15 6.5 14.5234 6.5 13.9375V10.5625C6.5 9.97663 6.02337 9.5 5.4375 9.5H2.0625Z" fill="#717171"/>
</g>
<defs>
<clipPath id="clip0_5819_688">
<rect width="16" height="16" fill="white"/>
</clipPath>
</defs>
</svg>
