<svg width="16" height="16" viewBox="0 0 16 16" fill="none" xmlns="http://www.w3.org/2000/svg">
<g clip-path="url(#clip0_5708_7139)">
<path d="M11.7461 6.41309H8.24609C7.97276 6.41309 7.74609 6.18642 7.74609 5.91309C7.74609 5.63975 7.97276 5.41309 8.24609 5.41309H11.7461C12.0194 5.41309 12.2461 5.63975 12.2461 5.91309C12.2461 6.18642 12.0261 6.41309 11.7461 6.41309Z" fill="#717171"/>
<path d="M4.74638 6.92023C4.61971 6.92023 4.49305 6.87356 4.39305 6.77356L3.89305 6.27354C3.69971 6.08021 3.69971 5.76021 3.89305 5.56688C4.08638 5.37354 4.40638 5.37354 4.59971 5.56688L4.74638 5.71354L5.89305 4.56688C6.08638 4.37354 6.40638 4.37354 6.59971 4.56688C6.79307 4.76021 6.79307 5.08021 6.59971 5.27354L5.09971 6.77356C5.00638 6.8669 4.87971 6.92023 4.74638 6.92023Z" fill="#717171"/>
<path d="M11.7461 11.0801H8.24609C7.97276 11.0801 7.74609 10.8534 7.74609 10.5801C7.74609 10.3067 7.97276 10.0801 8.24609 10.0801H11.7461C12.0194 10.0801 12.2461 10.3067 12.2461 10.5801C12.2461 10.8534 12.0261 11.0801 11.7461 11.0801Z" fill="#717171"/>
<path d="M4.74638 11.5862C4.61971 11.5862 4.49305 11.5396 4.39305 11.4396L3.89305 10.9396C3.69971 10.7462 3.69971 10.4262 3.89305 10.2329C4.08638 10.0396 4.40638 10.0396 4.59971 10.2329L4.74638 10.3796L5.89305 9.23289C6.08638 9.03956 6.40638 9.03956 6.59971 9.23289C6.79307 9.42622 6.79307 9.74622 6.59971 9.93956L5.09971 11.4396C5.00638 11.5329 4.87971 11.5862 4.74638 11.5862Z" fill="#717171"/>
<path d="M9.99967 15.1663H5.99967C2.37967 15.1663 0.833008 13.6197 0.833008 9.99967V5.99967C0.833008 2.37967 2.37967 0.833008 5.99967 0.833008H9.99967C13.6197 0.833008 15.1663 2.37967 15.1663 5.99967V9.99967C15.1663 13.6197 13.6197 15.1663 9.99967 15.1663ZM5.99967 1.83301C2.92634 1.83301 1.83301 2.92634 1.83301 5.99967V9.99967C1.83301 13.073 2.92634 14.1663 5.99967 14.1663H9.99967C13.073 14.1663 14.1663 13.073 14.1663 9.99967V5.99967C14.1663 2.92634 13.073 1.83301 9.99967 1.83301H5.99967Z" fill="#717171"/>
</g>
<defs>
<clipPath id="clip0_5708_7139">
<rect width="16" height="16" fill="white"/>
</clipPath>
</defs>
</svg>
