<svg width="16" height="16" viewBox="0 0 16 16" fill="none" xmlns="http://www.w3.org/2000/svg">
<circle cx="8" cy="8" r="8" fill="#F44D4D"/>
<mask id="path-2-inside-1_1376_5470" fill="white">
<path d="M9.5 3.72727C9.70708 3.72727 9.875 3.56444 9.875 3.36364C9.875 3.16284 9.70708 3 9.5 3H6.5C6.29293 3 6.125 3.16284 6.125 3.36364C6.125 3.56444 6.29293 3.72727 6.5 3.72727H9.5Z"/>
</mask>
<path d="M9.5 4.72727C10.2301 4.72727 10.875 4.1455 10.875 3.36364H8.875C8.875 2.98337 9.18402 2.72727 9.5 2.72727V4.72727ZM10.875 3.36364C10.875 2.58177 10.2301 2 9.5 2V4C9.18402 4 8.875 3.7439 8.875 3.36364H10.875ZM9.5 2H6.5V4H9.5V2ZM6.5 2C5.76987 2 5.125 2.58177 5.125 3.36364H7.125C7.125 3.7439 6.81598 4 6.5 4V2ZM5.125 3.36364C5.125 4.1455 5.76987 4.72727 6.5 4.72727V2.72727C6.81598 2.72727 7.125 2.98337 7.125 3.36364H5.125ZM6.5 4.72727H9.5V2.72727H6.5V4.72727Z" fill="white" mask="url(#path-2-inside-1_1376_5470)"/>
<mask id="path-4-inside-2_1376_5470" fill="white">
<path d="M3.875 4.0918C3.66793 4.0918 3.5 4.25463 3.5 4.45543C3.5 4.65623 3.66793 4.81907 3.875 4.81907H4.25V11.51C4.25 12.3318 4.94 13.0009 5.7875 13.0009H10.2125C11.06 13.0009 11.75 12.3318 11.75 11.51V4.81907H12.125C12.3321 4.81907 12.5 4.65623 12.5 4.45543C12.5 4.25463 12.3321 4.0918 12.125 4.0918H11.375H4.625H3.875ZM11 4.81907V11.51C11 11.9318 10.6475 12.2736 10.2125 12.2736H5.7875C5.3525 12.2736 5 11.9318 5 11.51V4.81907H11Z"/>
</mask>
<path d="M4.25 4.81907H5.25V3.81907H4.25V4.81907ZM11.75 4.81907V3.81907H10.75V4.81907H11.75ZM11 4.81907H12V3.81907H11V4.81907ZM5 4.81907V3.81907H4V4.81907H5ZM3.875 3.0918C3.14487 3.0918 2.5 3.67357 2.5 4.45543H4.5C4.5 4.8357 4.19098 5.0918 3.875 5.0918V3.0918ZM2.5 4.45543C2.5 5.2373 3.14487 5.81907 3.875 5.81907V3.81907C4.19098 3.81907 4.5 4.07517 4.5 4.45543H2.5ZM3.875 5.81907H4.25V3.81907H3.875V5.81907ZM3.25 4.81907V11.51H5.25V4.81907H3.25ZM3.25 11.51C3.25 12.9128 4.41693 14.0009 5.7875 14.0009V12.0009C5.46307 12.0009 5.25 11.7507 5.25 11.51H3.25ZM5.7875 14.0009H10.2125V12.0009H5.7875V14.0009ZM10.2125 14.0009C11.583 14.0009 12.75 12.9129 12.75 11.51H10.75C10.75 11.7507 10.5369 12.0009 10.2125 12.0009V14.0009ZM12.75 11.51V4.81907H10.75V11.51H12.75ZM11.75 5.81907H12.125V3.81907H11.75V5.81907ZM12.125 5.81907C12.8551 5.81907 13.5 5.2373 13.5 4.45543H11.5C11.5 4.07517 11.809 3.81907 12.125 3.81907V5.81907ZM13.5 4.45543C13.5 3.67357 12.8551 3.0918 12.125 3.0918V5.0918C11.809 5.0918 11.5 4.8357 11.5 4.45543H13.5ZM12.125 3.0918H11.375V5.0918H12.125V3.0918ZM11.375 3.0918H4.625V5.0918H11.375V3.0918ZM4.625 3.0918H3.875V5.0918H4.625V3.0918ZM10 4.81907V11.51H12V4.81907H10ZM10 11.51C10 11.3507 10.1244 11.2736 10.2125 11.2736V13.2736C11.1706 13.2736 12 12.5129 12 11.51H10ZM10.2125 11.2736H5.7875V13.2736H10.2125V11.2736ZM5.7875 11.2736C5.87556 11.2736 6 11.3507 6 11.51H4C4 12.5129 4.82944 13.2736 5.7875 13.2736V11.2736ZM6 11.51V4.81907H4V11.51H6ZM5 5.81907H11V3.81907H5V5.81907Z" fill="white" mask="url(#path-4-inside-2_1376_5470)"/>
</svg>
