<svg width="12" height="14" viewBox="0 0 12 14" fill="none" xmlns="http://www.w3.org/2000/svg">
<path d="M7.98196 1.87273C8.22292 1.87273 8.41832 1.67732 8.41832 1.43636C8.41832 1.1954 8.22292 1 7.98196 1H4.49105C4.25009 1 4.05469 1.1954 4.05469 1.43636C4.05469 1.67732 4.25009 1.87273 4.49105 1.87273H7.98196Z" fill="#262626" stroke="#262626" stroke-width="0.2"/>
<path d="M1.43636 2.31055C1.1954 2.31055 1 2.50595 1 2.74691C1 2.98787 1.1954 3.18327 1.43636 3.18327H1.87273V11.2124C1.87273 12.1985 2.67564 13.0015 3.66182 13.0015H8.81091C9.79705 13.0015 10.6 12.1985 10.6 11.2124V3.18327H11.0364C11.2773 3.18327 11.4727 2.98787 11.4727 2.74691C11.4727 2.50595 11.2773 2.31055 11.0364 2.31055H10.1636H2.30909H1.43636ZM9.72727 3.18327V11.2124C9.72727 11.7185 9.31709 12.1287 8.81091 12.1287H3.66182C3.15564 12.1287 2.74545 11.7185 2.74545 11.2124V3.18327H9.72727Z" fill="#262626" stroke="#262626" stroke-width="0.2"/>
</svg>
