<svg width="13" height="14" viewBox="0 0 13 14" fill="none" xmlns="http://www.w3.org/2000/svg">
<path d="M10.8995 3.10156L10.5277 9.11633C10.4326 10.653 10.3852 11.4214 9.99999 11.9739C9.8095 12.247 9.56435 12.4775 9.27996 12.6507C8.70483 13.0011 7.93501 13.0011 6.3953 13.0011C4.85363 13.0011 4.08278 13.0011 3.50725 12.65C3.22272 12.4765 2.97745 12.2456 2.78707 11.972C2.40201 11.4187 2.35555 10.6493 2.26265 9.11039L1.8999 3.10156" stroke="black" stroke-width="0.8" stroke-linecap="round"/>
<path d="M1 3.0999H11.7995M8.83304 3.0999L8.4235 2.25498C8.15141 1.69372 8.01534 1.41309 7.78069 1.23807C7.72867 1.19925 7.67353 1.16472 7.61588 1.13481C7.35603 1 7.04416 1 6.42044 1C5.78105 1 5.46138 1 5.1972 1.14047C5.13866 1.1716 5.08279 1.20753 5.03018 1.24789C4.7928 1.43 4.6602 1.72089 4.395 2.30269L4.0316 3.0999" stroke="black" stroke-width="0.8" stroke-linecap="round"/>
<path d="M4.8999 9.70139V6.10156" stroke="black" stroke-width="0.8" stroke-linecap="round"/>
<path d="M7.89941 9.70139V6.10156" stroke="black" stroke-width="0.8" stroke-linecap="round"/>
</svg>
