<svg width="10" height="10" viewBox="0 0 10 10" fill="none" xmlns="http://www.w3.org/2000/svg">
<g id="icon">
<g id="Layer_1">
<g id="Group">
<g id="Vector">
<mask id="path-1-inside-1_19_391" fill="white">
<path d="M6.45461 0.727273C6.65541 0.727273 6.81825 0.564436 6.81825 0.363636C6.81825 0.162836 6.65541 0 6.45461 0H3.54552C3.34472 0 3.18188 0.162836 3.18188 0.363636C3.18188 0.564436 3.34472 0.727273 3.54552 0.727273H6.45461Z"/>
</mask>
<path d="M6.45461 1.72727C7.2077 1.72727 7.81825 1.11672 7.81825 0.363636H5.81825C5.81825 0.0121516 6.10313 -0.272727 6.45461 -0.272727V1.72727ZM7.81825 0.363636C7.81825 -0.389448 7.2077 -1 6.45461 -1V1C6.10313 1 5.81825 0.715121 5.81825 0.363636H7.81825ZM6.45461 -1H3.54552V1H6.45461V-1ZM3.54552 -1C2.79244 -1 2.18188 -0.389448 2.18188 0.363636H4.18188C4.18188 0.715121 3.89701 1 3.54552 1V-1ZM2.18188 0.363636C2.18188 1.11672 2.79244 1.72727 3.54552 1.72727V-0.272727C3.89701 -0.272727 4.18188 0.0121516 4.18188 0.363636H2.18188ZM3.54552 1.72727H6.45461V-0.272727H3.54552V1.72727Z" fill="#222222" mask="url(#path-1-inside-1_19_391)"/>
</g>
<g id="Vector_2">
<mask id="path-3-inside-2_19_391" fill="white">
<path d="M1.00011 1.09082C0.799311 1.09082 0.636475 1.25366 0.636475 1.45446C0.636475 1.65526 0.799311 1.81809 1.00011 1.81809H1.36375V8.509C1.36375 9.33078 2.03284 9.99991 2.85466 9.99991H7.14557C7.96735 9.99991 8.63647 9.33082 8.63647 8.509V1.81809H9.00011C9.20091 1.81809 9.36375 1.65526 9.36375 1.45446C9.36375 1.25366 9.20091 1.09082 9.00011 1.09082H8.27284H1.72738H1.00011ZM7.9092 1.81809V8.509C7.9092 8.93082 7.56738 9.27264 7.14557 9.27264H2.85466C2.43284 9.27264 2.09102 8.93082 2.09102 8.509V1.81809H7.9092Z"/>
</mask>
<path d="M1.36375 1.81809H2.36375V0.818093H1.36375V1.81809ZM8.63647 1.81809V0.818093H7.63647V1.81809H8.63647ZM7.9092 1.81809H8.9092V0.818093H7.9092V1.81809ZM2.09102 1.81809V0.818093H1.09102V1.81809H2.09102ZM1.00011 0.0908203C0.247026 0.0908203 -0.363525 0.701372 -0.363525 1.45446H1.63647C1.63647 1.80594 1.3516 2.09082 1.00011 2.09082V0.0908203ZM-0.363525 1.45446C-0.363525 2.20754 0.247026 2.81809 1.00011 2.81809V0.818093C1.3516 0.818093 1.63647 1.10297 1.63647 1.45446H-0.363525ZM1.00011 2.81809H1.36375V0.818093H1.00011V2.81809ZM0.363747 1.81809V8.509H2.36375V1.81809H0.363747ZM0.363747 8.509C0.363747 9.88305 1.48054 10.9999 2.85466 10.9999V8.99991C2.58514 8.99991 2.36375 8.77852 2.36375 8.509H0.363747ZM2.85466 10.9999H7.14557V8.99991H2.85466V10.9999ZM7.14557 10.9999C8.51962 10.9999 9.63647 9.88312 9.63647 8.509H7.63647C7.63647 8.77852 7.41508 8.99991 7.14557 8.99991V10.9999ZM9.63647 8.509V1.81809H7.63647V8.509H9.63647ZM8.63647 2.81809H9.00011V0.818093H8.63647V2.81809ZM9.00011 2.81809C9.7532 2.81809 10.3637 2.20754 10.3637 1.45446H8.36375C8.36375 1.10297 8.64863 0.818093 9.00011 0.818093V2.81809ZM10.3637 1.45446C10.3637 0.701372 9.7532 0.0908203 9.00011 0.0908203V2.09082C8.64863 2.09082 8.36375 1.80594 8.36375 1.45446H10.3637ZM9.00011 0.0908203H8.27284V2.09082H9.00011V0.0908203ZM8.27284 0.0908203H1.72738V2.09082H8.27284V0.0908203ZM1.72738 0.0908203H1.00011V2.09082H1.72738V0.0908203ZM6.9092 1.81809V8.509H8.9092V1.81809H6.9092ZM6.9092 8.509C6.9092 8.37854 7.0151 8.27264 7.14557 8.27264V10.2726C8.11967 10.2726 8.9092 9.4831 8.9092 8.509H6.9092ZM7.14557 8.27264H2.85466V10.2726H7.14557V8.27264ZM2.85466 8.27264C2.98512 8.27264 3.09102 8.37854 3.09102 8.509H1.09102C1.09102 9.4831 1.88055 10.2726 2.85466 10.2726V8.27264ZM3.09102 8.509V1.81809H1.09102V8.509H3.09102ZM2.09102 2.81809H7.9092V0.818093H2.09102V2.81809Z" fill="#222222" mask="url(#path-3-inside-2_19_391)"/>
</g>
</g>
</g>
</g>
</svg>
