<svg width="42" height="42" viewBox="0 0 42 42" fill="none" xmlns="http://www.w3.org/2000/svg">
<circle cx="21" cy="21" r="21" fill="#FFF6F5"/>
<path d="M31.0882 31.4H10.9118C10.2115 31.4 9.60854 31.0575 9.25738 30.4602C8.91856 29.8837 8.91406 29.2025 9.2451 28.5911L19.3332 9.96137C19.6593 9.3594 20.2823 9 21 9C21.7176 9 22.3407 9.35935 22.6667 9.96137H22.6667L32.7549 28.5911C33.086 29.2025 33.0815 29.8837 32.7425 30.4602C32.3914 31.0575 31.7885 31.4 31.0882 31.4ZM21 10.0167C20.6647 10.0167 20.3888 10.171 20.243 10.4402L10.1549 29.0699C10.0406 29.281 9.9468 29.6053 10.1497 29.9504C10.3138 30.2296 10.5845 30.3833 10.9118 30.3833H31.0882C31.4155 30.3833 31.6862 30.2296 31.8503 29.9504C32.0532 29.6053 31.9595 29.2811 31.8451 29.0699L21.7569 10.4402C21.6111 10.171 21.3352 10.0167 21 10.0167Z" fill="#F24646"/>
<path d="M21 24.7034C20.7152 24.7034 20.4844 24.4758 20.4844 24.1951V17.3824C20.4844 17.1016 20.7152 16.874 21 16.874C21.2848 16.874 21.5157 17.1016 21.5157 17.3824V24.1951C21.5157 24.4758 21.2848 24.7034 21 24.7034Z" fill="#F24646"/>
<path d="M21 27.4765C20.9663 27.4765 20.9325 27.4733 20.8992 27.4668C20.8664 27.4603 20.8341 27.4506 20.8027 27.4376C20.7717 27.4251 20.7417 27.4095 20.7136 27.391C20.6855 27.3725 20.6592 27.3513 20.6353 27.3276C20.6114 27.3045 20.5898 27.2782 20.5711 27.2505C20.5528 27.2227 20.5369 27.1932 20.5237 27.1627C20.5111 27.1322 20.5012 27.1003 20.4942 27.0675C20.4876 27.0347 20.4844 27.0014 20.4844 26.9682C20.4844 26.9354 20.4876 26.9016 20.4942 26.8688C20.5012 26.8365 20.511 26.8046 20.5237 26.7741C20.5369 26.7431 20.5528 26.7135 20.5711 26.6863C20.5898 26.6581 20.6114 26.6322 20.6353 26.6091C20.6592 26.5855 20.6855 26.5643 20.7136 26.5458C20.7418 26.5274 20.7717 26.5116 20.8027 26.4991C20.8341 26.4862 20.8664 26.4765 20.8992 26.47C20.9658 26.4566 21.0342 26.4566 21.1008 26.47C21.1336 26.4765 21.166 26.4862 21.1974 26.4991C21.2283 26.5116 21.2583 26.5273 21.2864 26.5458C21.3146 26.5643 21.3408 26.5855 21.3647 26.6091C21.3882 26.6322 21.4097 26.6581 21.4289 26.6863C21.4472 26.7135 21.4631 26.7431 21.4763 26.7741C21.489 26.8046 21.4988 26.8365 21.5054 26.8688C21.5123 26.9016 21.5157 26.9354 21.5157 26.9682C21.5157 27.0014 21.5124 27.0347 21.5054 27.0675C21.4988 27.1003 21.4889 27.1322 21.4763 27.1627C21.4632 27.1932 21.4472 27.2228 21.4289 27.2505C21.4097 27.2782 21.3882 27.3045 21.3647 27.3276C21.3408 27.3513 21.3146 27.3725 21.2864 27.391C21.2583 27.4094 21.2283 27.4251 21.1974 27.4376C21.166 27.4506 21.1336 27.4603 21.1008 27.4668C21.0675 27.4732 21.0338 27.4765 21 27.4765Z" fill="#F24646"/>
</svg>
