<svg width="16" height="17" viewBox="0 0 16 17" fill="none" xmlns="http://www.w3.org/2000/svg">
<path d="M5.1654 4.12746L12.1707 8.21413C12.2209 8.24352 12.2626 8.28553 12.2915 8.336C12.3204 8.38647 12.3357 8.44362 12.3357 8.5018C12.3357 8.55997 12.3204 8.61713 12.2915 8.66759C12.2626 8.71806 12.2209 8.76007 12.1707 8.78946L5.1654 12.8761C5.11464 12.9057 5.05696 12.9214 4.9982 12.9216C4.93943 12.9217 4.88167 12.9063 4.83078 12.8769C4.77988 12.8476 4.73765 12.8053 4.70838 12.7543C4.6791 12.7033 4.66381 12.6456 4.66407 12.5868V4.41546C4.66405 4.35681 4.67951 4.29919 4.70888 4.24843C4.73825 4.19766 4.7805 4.15555 4.83136 4.12633C4.88221 4.09711 4.93988 4.08183 4.99853 4.08203C5.05718 4.08223 5.11474 4.0979 5.1654 4.12746Z" fill="#09121F"/>
</svg>
