<svg width="16" height="16" viewBox="0 0 16 16" fill="none" xmlns="http://www.w3.org/2000/svg">
<path fill-rule="evenodd" clip-rule="evenodd" d="M6.91684 1.11628C3.73561 1.11628 1.17072 3.53916 1.17072 6.51163C1.17072 8.36212 2.16274 9.99784 3.6819 10.9715C4.12109 11.2529 4.60386 11.4785 5.11872 11.6377C5.42625 11.7328 5.59475 12.0475 5.49507 12.3408C5.39538 12.634 5.06527 12.7946 4.75774 12.6996C4.47703 12.6128 4.20426 12.5096 3.94073 12.3912V15.4419C3.94073 15.7501 3.67865 16 3.35537 16C3.03208 16 2.77001 15.7501 2.77001 15.4419V11.7237C1.09082 10.5378 0 8.64595 0 6.51163C0 2.90805 3.10447 0 6.91684 0C10.5361 0 13.5162 2.61996 13.8099 5.96914C13.8226 6.1135 13.8306 6.2033 13.8396 6.26992C13.8446 6.3069 13.8486 6.32566 13.8503 6.3328C13.8535 6.33846 13.8611 6.35081 13.8768 6.37284C13.9083 6.41682 13.9531 6.4733 14.0308 6.57064L15.5195 8.43714C15.5256 8.44487 15.5319 8.45261 15.538 8.46043C15.6535 8.6051 15.775 8.75728 15.8564 8.89674C15.95 9.05712 16.046 9.29101 15.9759 9.57038C15.906 9.84878 15.7102 10.0161 15.5518 10.1191C15.4133 10.2092 15.233 10.2939 15.0606 10.3749C15.0515 10.3792 15.0423 10.3835 15.0332 10.3877L14.5563 10.612L14.2082 12.2486L14.1997 12.2884L14.1989 12.2918C13.913 13.5818 12.7124 14.5011 11.3255 14.5116H11.322L11.2677 14.5116C11.2672 14.5116 11.2668 14.5116 11.2663 14.5116C11.1477 14.5133 11.0653 14.6012 11.0636 14.6947V14.696V15.4419C11.0636 15.7501 10.8015 16 10.4782 16C10.155 16 9.89289 15.7501 9.89289 15.4419V14.7064V14.6856C9.89991 13.9686 10.5141 13.4018 11.2571 13.3954L11.2613 13.3953L11.3162 13.3953H11.3178C12.1645 13.3882 12.8826 12.8284 13.0531 12.0625C13.0532 12.062 13.0534 12.0615 13.0534 12.061L13.061 12.0257L13.466 10.1216C13.502 9.9523 13.6183 9.80837 13.7808 9.73194L14.5155 9.38657C14.5985 9.34757 14.6665 9.3155 14.725 9.28685C14.6869 9.23743 14.6421 9.18117 14.5876 9.11286L13.0989 7.24636C13.089 7.23393 13.0789 7.22143 13.0688 7.20878C12.9517 7.06262 12.8274 6.90753 12.7566 6.7322C12.7117 6.62095 12.6916 6.50969 12.6785 6.41258C12.6657 6.31807 12.6556 6.20301 12.6442 6.0735L12.6433 6.06217C12.401 3.29942 9.93581 1.11628 6.91684 1.11628Z" fill="#717171"/>
<path fill-rule="evenodd" clip-rule="evenodd" d="M9.11747 5.40469C8.90642 5.63818 8.93382 5.9906 9.17865 6.19186L9.89662 6.78192C9.94438 6.82114 9.98559 6.855 10.0219 6.88537C9.98559 6.91573 9.94438 6.94959 9.89662 6.98881L9.17865 7.57887C8.93382 7.7801 8.90642 8.13255 9.11747 8.36607C9.32851 8.59952 9.69814 8.62565 9.94306 8.42442L10.661 7.83435C10.6682 7.82847 10.6755 7.82252 10.6826 7.81657C10.8144 7.70836 10.9543 7.59346 11.0567 7.48317C11.1724 7.35852 11.3169 7.16072 11.3169 6.88537C11.3169 6.61002 11.1724 6.41221 11.0567 6.28754C10.9543 6.1773 10.8144 6.06236 10.6826 5.95419C10.6755 5.94823 10.6682 5.94229 10.661 5.93638L9.94306 5.34632C9.69814 5.14506 9.32851 5.1712 9.11747 5.40469Z" fill="#717171"/>
<path fill-rule="evenodd" clip-rule="evenodd" d="M4.5409 5.40469C4.75196 5.63818 4.72455 5.9906 4.47968 6.19186L3.76171 6.78192C3.71397 6.82114 3.6728 6.855 3.63649 6.88537C3.6728 6.91573 3.71397 6.94959 3.76171 6.98881L4.47968 7.57887C4.72455 7.7801 4.75196 8.13255 4.5409 8.36607C4.32983 8.59952 3.96022 8.62565 3.71534 8.42442L2.99738 7.83435C2.99017 7.82847 2.98295 7.82252 2.97569 7.81657C2.84397 7.70836 2.70401 7.59346 2.60167 7.48317C2.48596 7.35852 2.34143 7.16072 2.34143 6.88537C2.34143 6.61002 2.48596 6.41221 2.60167 6.28754C2.70401 6.1773 2.84397 6.06236 2.97569 5.95419C2.98295 5.94823 2.99017 5.94229 2.99738 5.93638L3.71534 5.34632C3.96022 5.14506 4.32983 5.1712 4.5409 5.40469Z" fill="#717171"/>
<path fill-rule="evenodd" clip-rule="evenodd" d="M7.82703 4.50882C8.1272 4.6233 8.27323 4.94812 8.15319 5.23432L6.59224 8.95522C6.47212 9.24144 6.13147 9.38068 5.83132 9.26622C5.53115 9.15169 5.38516 8.82685 5.50522 8.54071L7.06614 4.81975C7.18626 4.53355 7.52694 4.39434 7.82703 4.50882Z" fill="#717171"/>
</svg>
