<svg width="100" height="100" viewBox="0 0 100 100" fill="none" xmlns="http://www.w3.org/2000/svg">
<path d="M50 62.5487V52.844C60.2725 52.844 68.2464 42.6569 64.302 31.8456C62.8548 27.8729 59.6482 24.6663 55.647 23.2191C44.8355 19.3032 34.6482 27.2486 34.6482 37.5208H24.9717C24.9717 21.1477 40.806 8.37832 57.9739 13.7415C65.4654 16.0967 71.4529 22.0557 73.7798 29.5471C79.1431 46.7147 66.3735 62.5487 50 62.5487Z" fill="#0080FF"/>
<path fill-rule="evenodd" clip-rule="evenodd" d="M50.0281 52.8951H40.3516V43.2188H50.0281V52.8951Z" fill="#0080FF"/>
<path fill-rule="evenodd" clip-rule="evenodd" d="M40.3522 60.3125H32.9458V52.9062H40.3522V60.3125Z" fill="#0080FF"/>
<path fill-rule="evenodd" clip-rule="evenodd" d="M32.946 52.9019H26.7314V46.6875H32.946V52.9019Z" fill="#0080FF"/>
<path d="M8.62656 72.3678C7.37798 71.4881 5.78887 71.0625 3.97276 71.0625H0V83.69H4.00113C5.81725 83.69 7.40635 83.2359 8.65493 82.2995C9.33598 81.8171 9.87514 81.1361 10.2724 80.2848C10.6413 79.4335 10.84 78.412 10.84 77.3053C10.84 76.1986 10.6413 75.2054 10.2724 74.3542C9.87514 73.5029 9.33598 72.8218 8.62656 72.3678ZM2.3269 73.1907H3.57548C4.96595 73.1907 6.10102 73.4745 6.9807 74.0136C7.94551 74.6095 8.42792 75.7162 8.42792 77.3053C8.42792 78.9511 7.94551 80.1146 6.9807 80.7388C6.15777 81.278 5.0227 81.5617 3.60386 81.5617H2.3269V73.1907Z" fill="#0080FF"/>
<path d="M13.5926 70.8906C13.1953 70.8906 12.8832 71.0325 12.5994 71.2879C12.344 71.5433 12.2021 71.8554 12.2021 72.2527C12.2021 72.65 12.344 72.9621 12.5994 73.2459C12.8548 73.5013 13.1953 73.6431 13.5926 73.6431C13.9615 73.6431 14.302 73.5013 14.5858 73.2459C14.8412 72.9905 14.9831 72.65 14.9831 72.2527C14.9831 71.8554 14.8412 71.5433 14.5858 71.2879C14.302 71.0325 13.9615 70.8906 13.5926 70.8906Z" fill="#0080FF"/>
<path d="M14.6995 74.7812H12.4578V83.6914H14.6995V74.7812Z" fill="#0080FF"/>
<path d="M22.8431 75.5195C22.162 74.9236 21.4242 74.5547 20.6013 74.5547C19.3527 74.5547 18.3312 74.9803 17.5366 75.8316C16.7421 76.6545 16.3164 77.7328 16.3164 79.0382C16.3164 80.2867 16.7137 81.365 17.5082 82.2163C18.3028 83.0392 19.3527 83.4649 20.5729 83.4649C21.4242 83.4649 22.1904 83.2379 22.7863 82.7555V82.9541C22.7863 83.6919 22.5877 84.2594 22.1904 84.6567C21.7931 85.0539 21.254 85.2526 20.5729 85.2526C19.5514 85.2526 18.8987 84.8553 18.1041 83.777L16.5718 85.2526L16.6002 85.3093C16.9407 85.7633 17.4231 86.2174 18.1041 86.643C18.7568 87.0687 19.6081 87.2957 20.6013 87.2957C21.935 87.2957 23.0133 86.8984 23.8079 86.0755C24.6024 85.2526 24.9997 84.1743 24.9997 82.8406V74.7533H22.7863V75.5195H22.8431ZM22.2472 80.7975C21.8499 81.2515 21.3391 81.4501 20.7148 81.4501C20.0621 81.4501 19.5797 81.2231 19.1825 80.7975C18.7852 80.3435 18.6149 79.7759 18.6149 79.0665C18.6149 78.3287 18.8136 77.7612 19.1825 77.3072C19.5514 76.8532 20.0905 76.6545 20.7148 76.6545C21.3675 76.6545 21.8499 76.8815 22.2472 77.3072C22.6444 77.7612 22.8431 78.3571 22.8431 79.0665C22.8431 79.7759 22.6444 80.3435 22.2472 80.7975Z" fill="#0080FF"/>
<path d="M29.1998 74.7812H26.958V83.6914H29.1998V74.7812Z" fill="#0080FF"/>
<path d="M28.0926 70.8906C27.6953 70.8906 27.3832 71.0325 27.0994 71.2879C26.844 71.5433 26.7021 71.8554 26.7021 72.2527C26.7021 72.65 26.844 72.9621 27.0994 73.2459C27.3548 73.5013 27.6953 73.6431 28.0926 73.6431C28.4615 73.6431 28.802 73.5013 29.0858 73.2459C29.3412 72.9905 29.4831 72.65 29.4831 72.2527C29.4831 71.8554 29.3412 71.5433 29.0858 71.2879C28.802 71.0325 28.4899 70.8906 28.0926 70.8906Z" fill="#0080FF"/>
<path d="M34.1085 72.3672H31.8951V74.7792H30.6182V76.8223H31.8951V80.5112C31.8951 81.6746 32.1221 82.4975 32.5762 82.9799C33.0302 83.4623 33.8531 83.6893 34.9882 83.6893C35.3571 83.6893 35.726 83.6893 36.0665 83.661H36.18V81.6179L35.4138 81.6462C34.8747 81.6462 34.5342 81.5611 34.3639 81.3625C34.1936 81.1638 34.1085 80.7666 34.1085 80.1707V76.7939H36.2084V74.7508H34.1085V72.3672Z" fill="#0080FF"/>
<path d="M48.9498 71.0391H46.708V83.6949H48.9498V71.0391Z" fill="#0080FF"/>
<path d="M71.5947 80.5116C71.1974 80.9657 70.7718 81.3629 70.4596 81.5616C70.1475 81.7602 69.7502 81.8737 69.2962 81.8737C68.6435 81.8737 68.1043 81.6467 67.6787 81.1359C67.253 80.6535 67.026 80.0009 67.026 79.2631C67.026 78.4969 67.253 77.8726 67.6787 77.3903C68.1043 76.9079 68.6435 76.6525 69.2962 76.6525C70.0056 76.6525 70.7717 77.1065 71.4244 77.8727L72.9 76.4538C71.9352 75.2053 70.715 74.6094 69.2394 74.6094C68.0192 74.6094 66.9409 75.0634 66.0612 75.9431C65.1815 76.8227 64.7559 77.9294 64.7559 79.2631C64.7559 80.5968 65.2099 81.7035 66.0612 82.5831C66.9409 83.4628 67.9908 83.9168 69.2394 83.9168C70.8569 83.9168 72.1622 83.2074 73.0703 81.9305L71.5947 80.5116Z" fill="#0080FF"/>
<path d="M80.8173 76.0253C80.5051 75.5713 80.0795 75.2308 79.5403 74.9754C79.0011 74.72 78.3769 74.5781 77.6958 74.5781C76.4472 74.5781 75.4257 75.0322 74.6595 75.9402C73.9217 76.8482 73.5244 77.9549 73.5244 79.2886C73.5244 80.6507 73.9501 81.7573 74.7446 82.6086C75.5676 83.4599 76.6459 83.8856 77.9796 83.8856C79.4836 83.8856 80.7321 83.2613 81.6686 82.0695L81.7253 82.0127L80.2497 80.5939C80.1078 80.7642 79.9092 80.9344 79.7389 81.1047C79.5119 81.3033 79.3133 81.4736 79.0863 81.5871C78.7458 81.7573 78.3769 81.8425 77.9512 81.8425C77.3269 81.8425 76.8161 81.6722 76.4189 81.3033C76.05 80.9628 75.8229 80.5088 75.7662 79.9412H81.6969L81.7253 79.1183C81.7253 78.5508 81.6402 77.9833 81.4983 77.4725C81.3564 76.9617 81.1294 76.4793 80.8173 76.0253ZM75.9081 78.1252C76.0216 77.6995 76.2202 77.3306 76.504 77.0752C76.8161 76.7631 77.2134 76.6212 77.6674 76.6212C78.2066 76.6212 78.6322 76.7631 78.916 77.0752C79.1714 77.359 79.3417 77.6995 79.37 78.1252H75.9081Z" fill="#0080FF"/>
<path d="M89.4153 75.4578C88.7343 74.8903 87.7979 74.5781 86.6344 74.5781C85.8966 74.5781 85.1872 74.7484 84.5629 75.0605C83.967 75.3443 83.3995 75.8551 83.0306 76.4793L83.0589 76.5077L84.5062 77.8698C85.1021 76.9334 85.7547 76.5928 86.6344 76.5928C87.1168 76.5928 87.4857 76.7063 87.7979 76.9617C88.0816 77.2171 88.2519 77.5293 88.2519 77.9265V78.3522C87.6844 78.1819 87.1452 78.0968 86.606 78.0968C85.4993 78.0968 84.5913 78.3522 83.9102 78.863C83.2292 79.3737 82.8887 80.1399 82.8887 81.1047C82.8887 81.956 83.1724 82.6086 83.7684 83.1194C84.3643 83.6018 85.0737 83.8572 85.925 83.8572C86.7763 83.8572 87.5709 83.5167 88.3086 82.9208V83.6585H90.522V77.9265C90.4369 76.8766 90.0964 76.0253 89.4153 75.4578ZM85.4426 80.2818C85.698 80.1115 86.0669 80.0264 86.5209 80.0264C87.0601 80.0264 87.6276 80.1399 88.2235 80.3385V81.2182C87.7411 81.6722 87.0884 81.8992 86.2939 81.8992C85.8966 81.8992 85.6129 81.8141 85.3858 81.6438C85.1872 81.4736 85.0737 81.2749 85.0737 80.9912C85.0737 80.679 85.1872 80.452 85.4426 80.2818Z" fill="#0080FF"/>
<path d="M99.0637 75.6281C98.4394 74.9186 97.5597 74.5781 96.453 74.5781C95.5733 74.5781 94.8355 74.8335 94.2963 75.3443V74.8051H92.1113V83.6869H94.3531V78.7778C94.3531 78.0968 94.5234 77.5576 94.8355 77.1888C95.1477 76.8199 95.5733 76.6212 96.1692 76.6212C96.68 76.6212 97.0489 76.7915 97.3327 77.132C97.6164 77.4725 97.7583 77.9549 97.7583 78.5224V83.6869H100V78.5224C100 77.3023 99.6879 76.3091 99.0637 75.6281Z" fill="#0080FF"/>
<path d="M43.8987 75.4578C43.2177 74.8903 42.2813 74.5781 41.1178 74.5781C40.38 74.5781 39.6706 74.7484 39.0463 75.0605C38.4504 75.3443 37.8829 75.8551 37.514 76.4793L37.5423 76.5077L38.9895 77.8698C39.5855 76.9334 40.2381 76.5928 41.1178 76.5928C41.6002 76.5928 41.9691 76.7063 42.2813 76.9617C42.565 77.2171 42.7353 77.5293 42.7353 77.9265V78.3522C42.1678 78.1819 41.6286 78.0968 41.0894 78.0968C39.9827 78.0968 39.0747 78.3522 38.3936 78.863C37.7126 79.3737 37.3721 80.1399 37.3721 81.1047C37.3721 81.956 37.6558 82.6086 38.2518 83.1194C38.8477 83.6018 39.5571 83.8572 40.4084 83.8572C41.2597 83.8572 42.0542 83.5167 42.792 82.9208V83.6585H45.0054V77.9265C44.9203 76.8766 44.5798 76.0253 43.8987 75.4578ZM39.926 80.2818C40.1814 80.1115 40.5503 80.0264 41.0043 80.0264C41.5435 80.0264 42.111 80.1399 42.7069 80.3385V81.2182C42.2245 81.6722 41.5718 81.8992 40.7773 81.8992C40.38 81.8992 40.0962 81.8141 39.8692 81.6438C39.6706 81.4736 39.5571 81.2749 39.5571 80.9912C39.5571 80.679 39.6706 80.452 39.926 80.2818Z" fill="#0080FF"/>
<path d="M57.0941 83.8891C53.4902 83.8891 50.5674 80.9663 50.5674 77.3625C50.5674 73.7587 53.4902 70.8359 57.0941 70.8359C60.6979 70.8359 63.6207 73.7587 63.6207 77.3625C63.6207 80.9663 60.6979 83.8891 57.0941 83.8891ZM57.0941 73.1344C54.7672 73.1344 52.8659 75.0356 52.8659 77.3625C52.8659 79.6894 54.7672 81.5906 57.0941 81.5906C59.421 81.5906 61.3222 79.6894 61.3222 77.3625C61.3222 75.0356 59.421 73.1344 57.0941 73.1344Z" fill="#0080FF"/>
</svg>
