<svg width="24" height="24" viewBox="0 0 24 24" fill="none" xmlns="http://www.w3.org/2000/svg">
<g clip-path="url(#clip0_7191_3701)">
<path d="M17.4086 15.1293V8.88425L12.0002 5.76172L6.5918 8.88425V15.1293L12.0002 18.2518L17.4086 15.1293Z" stroke="#10A37F" stroke-width="1.5" stroke-miterlimit="10"/>
<path d="M6.5918 8.88281L12.0002 12.0053L17.4086 8.88281" stroke="#10A37F" stroke-width="1.5" stroke-miterlimit="10"/>
<path d="M12 12.0078V18.2528" stroke="#10A37F" stroke-width="1.5" stroke-miterlimit="10"/>
<path d="M21.9498 3.39909C22.6937 3.39909 23.2967 2.79558 23.2967 2.05111C23.2967 1.30664 22.6937 0.703125 21.9498 0.703125C21.206 0.703125 20.603 1.30664 20.603 2.05111C20.603 2.79558 21.206 3.39909 21.9498 3.39909Z" stroke="#10A37F" stroke-width="1.5" stroke-miterlimit="10"/>
<path d="M21.9498 23.2975C22.6937 23.2975 23.2967 22.694 23.2967 21.9495C23.2967 21.2051 22.6937 20.6016 21.9498 20.6016C21.206 20.6016 20.603 21.2051 20.603 21.9495C20.603 22.694 21.206 23.2975 21.9498 23.2975Z" stroke="#10A37F" stroke-width="1.5" stroke-miterlimit="10"/>
<path d="M2.04994 3.39909C2.79376 3.39909 3.39675 2.79558 3.39675 2.05111C3.39675 1.30664 2.79376 0.703125 2.04994 0.703125C1.30611 0.703125 0.703125 1.30664 0.703125 2.05111C0.703125 2.79558 1.30611 3.39909 2.04994 3.39909Z" stroke="#10A37F" stroke-width="1.5" stroke-miterlimit="10"/>
<path d="M2.04994 23.2975C2.79376 23.2975 3.39675 22.694 3.39675 21.9495C3.39675 21.2051 2.79376 20.6016 2.04994 20.6016C1.30611 20.6016 0.703125 21.2051 0.703125 21.9495C0.703125 22.694 1.30611 23.2975 2.04994 23.2975Z" stroke="#10A37F" stroke-width="1.5" stroke-miterlimit="10"/>
<path d="M8.03748 8.04725L2.99805 3.00781" stroke="#10A37F" stroke-width="1.5" stroke-miterlimit="10"/>
<path d="M15.9561 15.9648L20.9982 21.007" stroke="#10A37F" stroke-width="1.5" stroke-miterlimit="10"/>
<path d="M15.8955 8.11049L20.9981 3.00781" stroke="#10A37F" stroke-width="1.5" stroke-miterlimit="10"/>
<path d="M8.04147 15.9648L2.99805 21.0083" stroke="#10A37F" stroke-width="1.5" stroke-miterlimit="10"/>
</g>
<defs>
<clipPath id="clip0_7191_3701">
<rect width="24" height="24" fill="white"/>
</clipPath>
</defs>
</svg>
