<svg xmlns="http://www.w3.org/2000/svg" xmlns:xlink="http://www.w3.org/1999/xlink" width="18" height="18" viewBox="0 0 18 18">
  <defs>
    <clipPath id="clip-path">
      <rect id="Rectangle_4821" data-name="Rectangle 4821" width="18" height="18" transform="translate(3593 -9975)" fill="#231f20"/>
    </clipPath>
  </defs>
  <g id="Mask_Group_334" data-name="Mask Group 334" transform="translate(-3593 9975)" clip-path="url(#clip-path)">
    <g id="discord-icon-svgrepo-com" transform="translate(3593 -9972.967)">
      <path id="Path_2901" data-name="Path 2901" d="M15.248,1.167A14.66,14.66,0,0,0,11.534,0a10.889,10.889,0,0,0-.476.988,13.635,13.635,0,0,0-4.116,0A10.557,10.557,0,0,0,6.462,0,14.612,14.612,0,0,0,2.745,1.17,15.574,15.574,0,0,0,.076,11.6a14.847,14.847,0,0,0,4.554,2.334,11.327,11.327,0,0,0,.975-1.607,9.592,9.592,0,0,1-1.536-.748c.129-.1.255-.2.377-.3a10.5,10.5,0,0,0,9.106,0c.123.1.249.2.377.3a9.567,9.567,0,0,1-1.539.749,11.277,11.277,0,0,0,.975,1.606A14.817,14.817,0,0,0,17.923,11.6,15.559,15.559,0,0,0,15.248,1.167ZM6.01,9.5A1.747,1.747,0,0,1,4.392,7.658,1.738,1.738,0,0,1,6.01,5.816,1.727,1.727,0,0,1,7.628,7.658,1.736,1.736,0,0,1,6.01,9.5Zm5.98,0a1.747,1.747,0,0,1-1.618-1.841A1.738,1.738,0,0,1,11.99,5.816a1.727,1.727,0,0,1,1.618,1.842A1.737,1.737,0,0,1,11.99,9.5Z" fill="#231f20"/>
    </g>
  </g>
</svg>
