<svg width="16" height="16" viewBox="0 0 16 16" fill="none" xmlns="http://www.w3.org/2000/svg">
<path d="M12.5641 12.6118C12.2889 12.7726 12.0068 12.9171 11.7163 13.0464C11.8289 13.2402 11.9479 13.4298 12.0727 13.6152C13.1788 13.2442 14.2984 12.7103 15.4514 11.8886C15.7165 8.69032 14.8861 5.90416 13.2208 3.41313C12.3686 3.03233 11.4642 2.74065 10.5225 2.55298C10.4379 2.72212 10.3553 2.90112 10.2902 3.05424L10.1388 3.41033L9.75606 3.35304C8.57484 3.17618 7.40178 3.17641 6.2478 3.35281L5.86099 3.41193L5.71064 3.05068C5.64745 2.89886 5.56334 2.7219 5.47615 2.55231C4.53406 2.73951 3.6288 3.0314 2.77528 3.41308C0.872526 6.30312 0.323922 9.10974 0.546544 11.8891C1.6997 12.7109 2.81931 13.2448 3.92122 13.6158M12.5641 12.6118C12.564 12.6118 12.564 12.6118 12.564 12.6118L12.3117 12.1801L12.5641 12.6118ZM12.5641 12.6118C12.9123 12.4082 12.9242 11.9244 12.6147 11.694L12.6145 11.6938C12.5373 11.6364 12.46 11.5755 12.3856 11.5142L12.3857 11.5142L12.3789 11.5088C12.2223 11.3842 12.0003 11.3484 11.8035 11.4408M11.8035 11.4408C9.3503 12.5736 6.6687 12.5743 4.18201 11.4389L4.18201 11.4389L4.17796 11.4371C3.99086 11.3537 3.76707 11.3798 3.60286 11.5164L3.87369 11.8419M11.8035 11.4408C11.8014 11.4418 11.7994 11.4428 11.7973 11.4438L11.9699 11.8C11.6235 11.9962 11.264 12.1641 10.8865 12.3065L10.8854 12.3069C10.8389 12.3246 10.7965 12.3477 10.7583 12.3751L12.0594 11.7484M11.8035 11.4408C11.8042 11.4405 11.8049 11.4402 11.8056 11.4399L11.9715 11.799C12.0009 11.7824 12.0302 11.7655 12.0594 11.7484M3.87369 11.8419L3.77026 12.0223C3.77126 12.0215 3.77225 12.0208 3.77325 12.02L3.87575 11.8444M3.87369 11.8419L3.87386 11.8416M3.87369 11.8419L3.87575 11.8444M3.87575 11.8444L3.92261 11.9007L3.87592 11.8441M3.87575 11.8444L3.87592 11.8441M3.87592 11.8441L3.93184 11.7483C3.96166 11.7657 3.98857 11.7858 4.01251 11.8081C4.01273 11.8083 4.01294 11.8085 4.01315 11.8087C4.05916 11.8517 4.09418 11.9028 4.11785 11.958C4.44135 12.0999 4.76801 12.2236 5.09696 12.3292C5.09704 12.3293 5.09713 12.3293 5.09721 12.3293C5.13855 12.3426 5.17994 12.3556 5.22135 12.3683C5.18585 12.3439 5.14707 12.3234 5.10546 12.3076L5.1052 12.3075C4.72991 12.1651 4.36899 11.9932 4.01839 11.7973C4.01812 11.7971 4.01784 11.797 4.01757 11.7968C3.9878 11.7802 3.9581 11.7633 3.92847 11.7464L3.87386 11.8416M3.87592 11.8441L3.87386 11.8416M3.87386 11.8416L3.60456 11.515C3.5317 11.575 3.45427 11.6354 3.37564 11.6944M3.37564 11.6944C3.05731 11.9319 3.08935 12.4144 3.42771 12.6119L3.43108 12.6139C3.70465 12.7707 3.98666 12.9161 4.27848 13.0471M3.37564 11.6944C3.37587 11.6942 3.3761 11.694 3.37634 11.6938L3.67475 12.095M3.37564 11.6944C3.3754 11.6945 3.37517 11.6947 3.37494 11.6949L3.67475 12.095M4.27848 13.0471C4.16666 13.2408 4.04742 13.4304 3.92122 13.6158M4.27848 13.0471C4.43095 13.1155 4.58611 13.18 4.74414 13.2401L3.67475 12.095M4.27848 13.0471C4.35385 12.9165 4.42585 12.784 4.49434 12.6496C4.3357 12.5907 4.17769 12.5276 4.0204 12.4606C4.00537 12.472 3.99036 12.4833 3.97538 12.4946M3.92122 13.6158C4.0245 13.6505 4.12763 13.6839 4.23061 13.7159L4.09766 14.1435L4.08218 14.1933L4.09701 14.1447L3.7349 13.8795C3.79857 13.7926 3.8607 13.7047 3.92122 13.6158ZM3.97538 12.4946C3.99022 12.4834 4.00412 12.4716 4.01709 12.4592C3.98277 12.4445 3.94847 12.4297 3.91422 12.4146C3.91336 12.4143 3.9125 12.4139 3.91164 12.4135C3.86325 12.3923 3.81493 12.3706 3.76668 12.3486L3.80344 12.2681L3.8038 12.2673L3.81007 12.2535C3.8006 12.2483 3.79114 12.243 3.78169 12.2378C3.78125 12.2375 3.78081 12.2373 3.78036 12.237C3.74672 12.2182 3.71319 12.1993 3.67978 12.1801C3.64825 12.1617 3.64572 12.1166 3.67475 12.095M3.97538 12.4946C3.97511 12.4948 3.97483 12.495 3.97456 12.4952L3.97316 12.4962L3.97538 12.4946ZM4.92787 12.775C4.64124 12.6663 4.36365 12.5418 4.09363 12.4043L4.50995 12.6188L4.50926 12.6202C4.50426 12.6301 4.49968 12.64 4.49548 12.65M4.92787 12.775L4.91939 12.7973M4.92787 12.775L4.9194 12.7973M4.92787 12.775L4.95562 12.8455C4.96147 12.834 4.9625 12.8216 4.95961 12.8103C4.94621 12.806 4.9328 12.8017 4.9194 12.7973M4.91939 12.7973C4.86285 12.779 4.80637 12.7602 4.74997 12.7409C4.74833 12.7403 4.74669 12.7397 4.74505 12.7392C4.6617 12.7106 4.5785 12.6809 4.49548 12.65M4.91939 12.7973L4.90993 12.8222L4.90987 12.8224L4.76564 13.202C4.75851 13.2147 4.75135 13.2274 4.74416 13.24M4.91939 12.7973C4.91939 12.7973 4.9194 12.7973 4.9194 12.7973M4.49548 12.65C4.39591 12.8874 4.51847 13.1504 4.74416 13.24M4.49548 12.65L4.74416 13.24M4.74416 13.24L4.76647 13.2005L4.9099 12.8224L4.90995 12.8222L4.9194 12.7973M12.0594 11.7484L12.0595 11.7484L12.0594 11.7484ZM0.564308 12.0936L0.563952 12.0898L0.564308 12.0936ZM4.09725 14.1449L4.13831 14.1749L4.09725 14.1449ZM4.22797 13.7151L4.09742 14.1434L3.74258 13.8693C3.85021 13.73 4.04042 13.6579 4.22797 13.7151ZM3.8063 12.2706L3.81316 12.2552C3.89024 12.2979 3.96793 12.3394 4.04625 12.3799C3.99546 12.3905 3.94327 12.3922 3.8921 12.3851C3.89151 12.385 3.89092 12.3849 3.89033 12.3849C3.84938 12.379 3.80909 12.3675 3.77072 12.3504L3.80594 12.2714L3.8063 12.2706ZM12.193 12.2606L12.2089 12.2392L12.1009 12.3844L12.1879 12.2674L12.193 12.2606Z" stroke="#000000"/>
<path d="M5.43794 9.22525C4.64959 9.22525 4 8.5015 4 7.61263C4 6.72378 4.63697 6 5.43794 6C6.24516 6 6.88847 6.73013 6.87585 7.61263C6.87585 8.5015 6.23885 9.22525 5.43794 9.22525ZM10.7544 9.22525C9.9661 9.22525 9.31651 8.5015 9.31651 7.61263C9.31651 6.72378 9.95348 6 10.7544 6C11.5617 6 12.2049 6.73013 12.1924 7.61263C12.1924 8.5015 11.5617 9.22525 10.7544 9.22525Z" fill="#000000"/>
</svg>
