<svg width="16" height="16" viewBox="0 0 16 16" fill="none" xmlns="http://www.w3.org/2000/svg">
<path d="M14.0125 3.9782V3.99568L14.0234 4.00935C14.4393 4.53174 14.6096 5.01338 14.6096 5.60948V14.4199C14.6096 15.2592 13.8553 15.95 12.9164 15.95H2.74323C1.80466 15.95 1.05 15.2592 1.05 14.4199V1.58054C1.05 0.741216 1.8043 0.0500505 2.74323 0.0500505L8.77548 0.0500513L8.77577 0.0500496C9.3351 0.0468317 9.88416 0.200177 10.3609 0.492742C10.6817 0.691936 11.1056 1.06076 11.5576 1.49141C12.0089 1.92136 12.4851 2.40997 12.9102 2.84657L12.9103 2.84664C12.9312 2.86805 12.952 2.88936 12.9727 2.91056C13.202 3.14516 13.4169 3.36497 13.5839 3.5291L13.5841 3.52937C13.7215 3.66228 13.8518 3.80227 13.9745 3.94876L13.9895 3.96665H14.0125V3.9782ZM12.0592 3.67397L11.9734 3.58605V3.58745C11.631 3.23615 11.2179 2.81477 10.8257 2.43715C10.4015 2.02864 9.99767 1.66733 9.73373 1.50308L9.73351 1.50295C9.71507 1.4916 9.69571 1.48087 9.67767 1.47087C9.67496 1.46937 9.67229 1.46789 9.66965 1.46643L9.59537 1.42516V1.51013V3.79161C9.59537 3.83762 9.61365 3.88175 9.64618 3.91429C9.67872 3.94683 9.72285 3.96511 9.76887 3.96511H12.2246H12.3433L12.2604 3.88019L12.0592 3.67397ZM8.40497 1.28968V1.23968H8.35497H2.74323C2.60289 1.23968 2.4794 1.28081 2.3898 1.3424C2.30198 1.40278 2.23924 1.4888 2.23924 1.58054V14.4184C2.23924 14.5101 2.30269 14.5961 2.39057 14.6564C2.48031 14.7179 2.60376 14.7592 2.74323 14.7592H12.9164C13.0565 14.7592 13.1799 14.7181 13.2695 14.6565C13.3573 14.5961 13.42 14.5101 13.42 14.4184L13.4219 5.61144C13.4219 5.61124 13.4219 5.61104 13.4219 5.61084C13.4252 5.4679 13.4028 5.32553 13.3556 5.19055L13.3439 5.15705H13.3084H9.76891C9.40726 5.15675 9.06051 5.01296 8.80478 4.75723C8.54906 4.50151 8.40526 4.15476 8.40497 3.79311V1.28968Z" fill="#000000" stroke="white" stroke-width="0.1"/>
<path d="M10.9366 6.42974C10.9193 6.42974 10.902 6.42974 10.8851 6.43243H4.5154C4.50674 6.43243 4.49818 6.43176 4.48962 6.43109C4.48106 6.43041 4.4725 6.42974 4.46385 6.42974L4.4473 7.67206H4.44793H4.4973M10.9366 6.42974L10.9364 6.47974C10.9365 6.47974 10.9365 6.47974 10.9365 6.47974M10.9366 6.42974V6.47974C10.9366 6.47974 10.9366 6.47974 10.9365 6.47974M10.9366 6.42974C11.1043 6.43035 11.2652 6.49618 11.3852 6.61329C11.5052 6.7304 11.5749 6.88961 11.5796 7.05723C11.5843 7.22484 11.5236 7.38771 11.4103 7.51136C11.2971 7.63502 11.1402 7.70975 10.9728 7.71975V7.67206H10.9699H10.9327M10.9365 6.47974C10.9186 6.47974 10.9053 6.47985 10.8929 6.48181L10.8851 6.48306V6.48243H4.5154C4.50476 6.48243 4.49453 6.48163 4.48639 6.48099L4.4857 6.48093C4.47683 6.48024 4.47022 6.47974 4.46385 6.47974H4.46321L4.46321 6.47974C4.30525 6.47771 4.15295 6.53852 4.03983 6.64878C3.9267 6.75905 3.86201 6.90973 3.85999 7.06769C3.85796 7.22565 3.91877 7.37795 4.02903 7.49107C4.1393 7.6042 4.28998 7.66889 4.44794 7.67091L4.4973 7.67155V7.67206M10.9365 6.47974C11.0912 6.48033 11.2396 6.54105 11.3502 6.64908C11.461 6.75712 11.5253 6.904 11.5296 7.05863C11.534 7.21326 11.478 7.36352 11.3735 7.47759C11.269 7.59167 11.1242 7.66062 10.9698 7.66984L10.9327 7.67206M4.4973 7.67206V7.72091V7.72206H10.9228L10.9327 7.67206M4.4973 7.67206H10.9327" fill="#000000" stroke="white" stroke-width="0.1"/>
<path d="M10.9923 9.20075H11.0423V9.20054C11.1821 9.2123 11.3138 9.27307 11.4137 9.37299C11.5255 9.48476 11.5883 9.63635 11.5883 9.79441C11.5883 9.95247 11.5255 10.1041 11.4137 10.2158C11.302 10.3276 11.1504 10.3904 10.9923 10.3904H10.9669H4.4903V10.3899L4.48323 10.3909C4.47117 10.3926 4.45858 10.3927 4.44144 10.3927C4.28338 10.3927 4.13179 10.3299 4.02003 10.2181C3.90826 10.1064 3.84547 9.95478 3.84547 9.79671C3.84547 9.63865 3.90826 9.48707 4.02003 9.3753C4.13179 9.26354 4.28338 9.20075 4.44144 9.20075H10.9719H10.972H10.972H10.972H10.9721H10.9721H10.9722H10.9722H10.9722H10.9723H10.9723H10.9724H10.9724H10.9724H10.9725H10.9725H10.9726H10.9726H10.9727H10.9727H10.9727H10.9728H10.9728H10.9729H10.9729H10.9729H10.973H10.973H10.9731H10.9731H10.9731H10.9732H10.9732H10.9733H10.9733H10.9733H10.9734H10.9734H10.9735H10.9735H10.9735H10.9736H10.9736H10.9737H10.9737H10.9737H10.9738H10.9738H10.9739H10.9739H10.9739H10.974H10.974H10.9741H10.9741H10.9741H10.9742H10.9742H10.9743H10.9743H10.9743H10.9744H10.9744H10.9745H10.9745H10.9745H10.9746H10.9746H10.9747H10.9747H10.9747H10.9748H10.9748H10.9749H10.9749H10.9749H10.975H10.975H10.9751H10.9751H10.9751H10.9752H10.9752H10.9753H10.9753H10.9753H10.9754H10.9754H10.9755H10.9755H10.9755H10.9756H10.9756H10.9757H10.9757H10.9757H10.9758H10.9758H10.9759H10.9759H10.9759H10.976H10.976H10.9761H10.9761H10.9761H10.9762H10.9762H10.9763H10.9763H10.9763H10.9764H10.9764H10.9765H10.9765H10.9765H10.9766H10.9766H10.9767H10.9767H10.9767H10.9768H10.9768H10.9769H10.9769H10.9769H10.977H10.977H10.9771H10.9771H10.9771H10.9772H10.9772H10.9773H10.9773H10.9773H10.9774H10.9774H10.9775H10.9775H10.9775H10.9776H10.9776H10.9777H10.9777H10.9777H10.9778H10.9778H10.9778H10.9779H10.9779H10.978H10.978H10.978H10.9781H10.9781H10.9782H10.9782H10.9782H10.9783H10.9783H10.9784H10.9784H10.9784H10.9785H10.9785H10.9786H10.9786H10.9786H10.9787H10.9787H10.9788H10.9788H10.9788H10.9789H10.9789H10.979H10.979H10.979H10.9791H10.9791H10.9792H10.9792H10.9792H10.9793H10.9793H10.9794H10.9794H10.9794H10.9795H10.9795H10.9796H10.9796H10.9796H10.9797H10.9797H10.9797H10.9798H10.9798H10.9799H10.9799H10.9799H10.98H10.98H10.9801H10.9801H10.9801H10.9802H10.9802H10.9803H10.9803H10.9803H10.9804H10.9804H10.9805H10.9805H10.9805H10.9806H10.9806H10.9807H10.9807H10.9807H10.9808H10.9808H10.9809H10.9809H10.9809H10.981H10.981H10.9811H10.9811H10.9811H10.9812H10.9812H10.9812H10.9813H10.9813H10.9814H10.9814H10.9814H10.9815H10.9815H10.9816H10.9816H10.9816H10.9817H10.9817H10.9818H10.9818H10.9818H10.9819H10.9819H10.982H10.982H10.982H10.9821H10.9821H10.9822H10.9822H10.9822H10.9823H10.9823H10.9824H10.9824H10.9824H10.9825H10.9825H10.9826H10.9826H10.9826H10.9827H10.9827H10.9827H10.9828H10.9828H10.9829H10.9829H10.9829H10.983H10.983H10.9831H10.9831H10.9831H10.9832H10.9832H10.9833H10.9833H10.9833H10.9834H10.9834H10.9835H10.9835H10.9835H10.9836H10.9836H10.9837H10.9837H10.9837H10.9838H10.9838H10.9839H10.9839H10.9839H10.984H10.984H10.9841H10.9841H10.9841H10.9842H10.9842H10.9842H10.9843H10.9843H10.9844H10.9844H10.9844H10.9845H10.9845H10.9846H10.9846H10.9846H10.9847H10.9847H10.9848H10.9848H10.9848H10.9849H10.9849H10.985H10.985H10.985H10.9851H10.9851H10.9852H10.9852H10.9852H10.9853H10.9853H10.9854H10.9854H10.9854H10.9855H10.9855H10.9856H10.9856H10.9856H10.9857H10.9857H10.9858H10.9858H10.9858H10.9859H10.9859H10.9859H10.986H10.986H10.9861H10.9861H10.9861H10.9862H10.9862H10.9863H10.9863H10.9863H10.9864H10.9864H10.9865H10.9865H10.9865H10.9866H10.9866H10.9867H10.9867H10.9867H10.9868H10.9868H10.9869H10.9869H10.9869H10.987H10.987H10.9871H10.9871H10.9871H10.9872H10.9872H10.9873H10.9873H10.9873H10.9874H10.9874H10.9875H10.9875H10.9875H10.9876H10.9876H10.9877H10.9877H10.9877H10.9878H10.9878H10.9879H10.9879H10.9879H10.988H10.988H10.9881H10.9881H10.9881H10.9882H10.9882H10.9883H10.9883H10.9883H10.9884H10.9884H10.9885H10.9885H10.9885H10.9886H10.9886H10.9887H10.9887H10.9887H10.9888H10.9888H10.9889H10.9889H10.9889H10.989H10.989H10.9891H10.9891H10.9891H10.9892H10.9892H10.9893H10.9893H10.9893H10.9894H10.9894H10.9895H10.9895H10.9895H10.9896H10.9896H10.9897H10.9897H10.9897H10.9898H10.9898H10.9899H10.9899H10.9899H10.99H10.99H10.9901H10.9901H10.9901H10.9902H10.9902H10.9903H10.9903H10.9903H10.9904H10.9904H10.9905H10.9905H10.9905H10.9906H10.9906H10.9907H10.9907H10.9907H10.9908H10.9908H10.9909H10.9909H10.9909H10.991H10.991H10.9911H10.9911H10.9911H10.9912H10.9912H10.9913H10.9913H10.9913H10.9914H10.9914H10.9915H10.9915H10.9915H10.9916H10.9916H10.9917H10.9917H10.9917H10.9918H10.9918H10.9919H10.9919H10.9919H10.992H10.992H10.9921H10.9921H10.9922H10.9922H10.9922H10.9923H10.9923Z" fill="#000000" stroke="white" stroke-width="0.1"/>
<mask id="path-4-inside-1_2675_861" fill="white">
<path d="M10.9865 11.8762C10.9672 11.8762 10.948 11.8762 10.9291 11.8792H4.46984C4.45829 11.8792 4.44714 11.8773 4.4356 11.8773C4.26729 11.8779 4.10586 11.9442 3.98571 12.062C3.86556 12.1799 3.79618 12.34 3.79237 12.5083C3.78856 12.6765 3.85061 12.8396 3.9653 12.9628C4.07999 13.086 4.23825 13.1595 4.40636 13.1677H10.9318V13.1642C10.9499 13.1642 10.968 13.1669 10.9865 13.1669C11.0713 13.1669 11.1553 13.1502 11.2337 13.1178C11.312 13.0853 11.3833 13.0377 11.4432 12.9777C11.5032 12.9178 11.5508 12.8465 11.5833 12.7682C11.6157 12.6898 11.6324 12.6058 11.6324 12.521C11.6324 12.4361 11.6157 12.3521 11.5833 12.2738C11.5508 12.1954 11.5032 12.1242 11.4432 12.0642C11.3833 12.0042 11.312 11.9566 11.2337 11.9242C11.1553 11.8917 11.0713 11.875 10.9865 11.875V11.8762Z"/>
</mask>
<path d="M10.9865 11.8762C10.9672 11.8762 10.948 11.8762 10.9291 11.8792H4.46984C4.45829 11.8792 4.44714 11.8773 4.4356 11.8773C4.26729 11.8779 4.10586 11.9442 3.98571 12.062C3.86556 12.1799 3.79618 12.34 3.79237 12.5083C3.78856 12.6765 3.85061 12.8396 3.9653 12.9628C4.07999 13.086 4.23825 13.1595 4.40636 13.1677H10.9318V13.1642C10.9499 13.1642 10.968 13.1669 10.9865 13.1669C11.0713 13.1669 11.1553 13.1502 11.2337 13.1178C11.312 13.0853 11.3833 13.0377 11.4432 12.9777C11.5032 12.9178 11.5508 12.8465 11.5833 12.7682C11.6157 12.6898 11.6324 12.6058 11.6324 12.521C11.6324 12.4361 11.6157 12.3521 11.5833 12.2738C11.5508 12.1954 11.5032 12.1242 11.4432 12.0642C11.3833 12.0042 11.312 11.9566 11.2337 11.9242C11.1553 11.8917 11.0713 11.875 10.9865 11.875V11.8762Z" fill="#000000"/>
<path d="M10.9865 11.8762V11.9762H11.0865V11.8762H10.9865ZM10.9291 11.8792V11.9792H10.9373L10.9453 11.9779L10.9291 11.8792ZM4.4356 11.8773V11.7773L4.43526 11.7773L4.4356 11.8773ZM4.40636 13.1677L4.40148 13.2677H4.40636V13.1677ZM10.9318 13.1677V13.2677H11.0318V13.1677H10.9318ZM10.9318 13.1642V13.0642H10.8318V13.1642H10.9318ZM10.9865 13.1669V13.0669V13.1669ZM11.6324 12.521H11.5324H11.6324ZM10.9865 11.875V11.775L10.8865 11.775V11.875H10.9865ZM10.9865 11.7762C10.9687 11.7762 10.9412 11.7759 10.913 11.7805L10.9453 11.9779C10.9548 11.9764 10.9658 11.9762 10.9865 11.9762V11.7762ZM10.9291 11.7792H4.46984V11.9792H10.9291V11.7792ZM4.46984 11.7792C4.46899 11.7792 4.4675 11.7792 4.46116 11.7786C4.45615 11.7782 4.44629 11.7773 4.4356 11.7773V11.9773C4.43645 11.9773 4.43794 11.9774 4.44427 11.9779C4.44928 11.9783 4.45915 11.9792 4.46984 11.9792V11.7792ZM4.43526 11.7773C4.24088 11.778 4.05445 11.8545 3.91568 11.9906L4.05574 12.1334C4.15728 12.0338 4.2937 11.9778 4.43594 11.9773L4.43526 11.7773ZM3.91568 11.9906C3.77692 12.1267 3.6968 12.3117 3.6924 12.506L3.89235 12.5105C3.89557 12.3683 3.9542 12.233 4.05574 12.1334L3.91568 11.9906ZM3.6924 12.506C3.68799 12.7003 3.75966 12.8887 3.89211 13.031L4.03849 12.8947C3.94156 12.7906 3.88912 12.6527 3.89235 12.5105L3.6924 12.506ZM3.89211 13.031C4.02456 13.1732 4.20734 13.2581 4.40149 13.2676L4.41123 13.0678C4.26916 13.0609 4.13541 12.9988 4.03849 12.8947L3.89211 13.031ZM4.40636 13.2677H10.9318V13.0677H4.40636V13.2677ZM11.0318 13.1677V13.1642H10.8318V13.1677H11.0318ZM10.9318 13.2642C10.9365 13.2642 10.9419 13.2646 10.9516 13.2653C10.9602 13.2659 10.9729 13.2669 10.9865 13.2669V13.0669C10.9815 13.0669 10.976 13.0666 10.9664 13.0659C10.958 13.0652 10.9452 13.0642 10.9318 13.0642V13.2642ZM10.9865 13.2669C11.0844 13.2669 11.1814 13.2476 11.2719 13.2102L11.1954 13.0254C11.1292 13.0528 11.0582 13.0669 10.9865 13.0669V13.2669ZM11.2719 13.2102C11.3624 13.1727 11.4447 13.1177 11.5139 13.0484L11.3725 12.907C11.3218 12.9577 11.2616 12.9979 11.1954 13.0254L11.2719 13.2102ZM11.5139 13.0484C11.5832 12.9792 11.6382 12.8969 11.6757 12.8064L11.4909 12.7299C11.4634 12.7961 11.4232 12.8563 11.3725 12.907L11.5139 13.0484ZM11.6757 12.8064C11.7131 12.7159 11.7324 12.6189 11.7324 12.521H11.5324C11.5324 12.5927 11.5183 12.6637 11.4909 12.7299L11.6757 12.8064ZM11.7324 12.521C11.7324 12.423 11.7131 12.326 11.6757 12.2355L11.4909 12.312C11.5183 12.3783 11.5324 12.4493 11.5324 12.521H11.7324ZM11.6757 12.2355C11.6382 12.145 11.5832 12.0628 11.5139 11.9935L11.3725 12.1349C11.4232 12.1856 11.4634 12.2458 11.4909 12.312L11.6757 12.2355ZM11.5139 11.9935C11.4447 11.9242 11.3624 11.8693 11.2719 11.8318L11.1954 12.0166C11.2616 12.044 11.3218 12.0842 11.3725 12.1349L11.5139 11.9935ZM11.2719 11.8318C11.1814 11.7943 11.0844 11.775 10.9865 11.775V11.975C11.0582 11.975 11.1292 11.9891 11.1954 12.0166L11.2719 11.8318ZM10.8865 11.875V11.8762H11.0865V11.875H10.8865Z" fill="white" mask="url(#path-4-inside-1_2675_861)"/>
</svg>
