<svg width="273" height="274" viewBox="0 0 273 274" fill="none" xmlns="http://www.w3.org/2000/svg">
<circle cx="136.589" cy="137.265" r="90.8934" stroke="#5B93FF" stroke-opacity="0.05" stroke-width="13.5662"/>
<path d="M96.0668 213.917C93.2346 219.274 86.5525 221.371 81.5464 217.956C73.3586 212.37 66.0506 205.559 59.8876 197.743C51.4544 187.047 45.3513 174.706 41.9702 161.512C38.5891 148.318 38.0047 134.563 40.2546 121.13C41.8989 111.313 45.0303 101.826 49.5228 92.9916C52.2695 87.59 59.1363 86.2141 64.196 89.5491C69.2557 92.884 70.5719 99.6655 68.0025 105.154C65.0945 111.365 63.0364 117.958 61.8979 124.755C60.1535 135.17 60.6066 145.835 63.2281 156.065C65.8496 166.294 70.5815 175.863 77.12 184.155C81.3873 189.567 86.3625 194.358 91.8993 198.405C96.7916 201.981 98.899 208.56 96.0668 213.917Z" fill="#C08AF0"/>
<path d="M203.869 188.655C209.581 193.019 210.73 201.261 205.647 206.344C190.814 221.172 171.504 230.92 150.518 233.943C129.531 236.967 108.255 233.066 89.8398 223.028C83.5284 219.587 82.3037 211.355 86.5521 205.557C90.8006 199.759 98.9124 198.627 105.383 201.758C118.154 207.937 132.571 210.23 146.806 208.179C161.041 206.128 174.224 199.859 184.731 190.326C190.055 185.496 198.156 184.292 203.869 188.655Z" fill="#8C46D3"/>
<g filter="url(#filter0_d_263_386)">
<path d="M136.589 56.6196C136.589 47.2135 144.27 39.4375 153.534 41.0694C167.777 43.5784 181.358 49.2326 193.253 57.7045C209.798 69.4881 222.258 86.1366 228.898 105.333C235.538 124.529 236.029 145.318 230.302 164.806C226.184 178.817 219 191.655 209.352 202.428C203.076 209.435 192.232 208.068 186.42 200.672C180.608 193.277 182.133 182.662 187.727 175.101C192.142 169.135 195.504 162.406 197.621 155.202C201.351 142.51 201.032 128.97 196.707 116.468C192.382 103.966 184.268 93.1237 173.492 85.4494C167.376 81.093 160.575 77.8806 153.417 75.9172C144.346 73.4288 136.589 66.0257 136.589 56.6196Z" fill="#762DC0"/>
</g>
<defs>
<filter id="filter0_d_263_386" x="132.971" y="40.8517" width="104.912" height="173.398" filterUnits="userSpaceOnUse" color-interpolation-filters="sRGB">
<feFlood flood-opacity="0" result="BackgroundImageFix"/>
<feColorMatrix in="SourceAlpha" type="matrix" values="0 0 0 0 0 0 0 0 0 0 0 0 0 0 0 0 0 0 127 0" result="hardAlpha"/>
<feOffset dy="3.61765"/>
<feGaussianBlur stdDeviation="1.80882"/>
<feColorMatrix type="matrix" values="0 0 0 0 0.356863 0 0 0 0 0.576471 0 0 0 0 1 0 0 0 0.24 0"/>
<feBlend mode="normal" in2="BackgroundImageFix" result="effect1_dropShadow_263_386"/>
<feBlend mode="normal" in="SourceGraphic" in2="effect1_dropShadow_263_386" result="shape"/>
</filter>
</defs>
</svg>
