<svg width="16" height="4" viewBox="0 0 16 4" fill="none" xmlns="http://www.w3.org/2000/svg">
<path d="M6.40002 2.4C6.40002 3.28 7.12002 4 8.00002 4C8.88003 4 9.60003 3.28 9.60003 2.4C9.60003 1.52 8.88003 0.799998 8.00002 0.799998C7.12002 0.799998 6.40002 1.52 6.40002 2.4Z" fill="#717171"/>
<path d="M12.8 2.4C12.8 3.28 13.52 4 14.4 4C15.28 4 16 3.28 16 2.4C16 1.52 15.28 0.799998 14.4 0.799998C13.52 0.799998 12.8 1.52 12.8 2.4Z" fill="#717171"/>
<path d="M3.19998 2.4C3.19998 1.52 2.47998 0.799998 1.59998 0.799998C0.719981 0.799998 0 1.52 0 2.4C0 3.28 0.719981 4 1.59998 4C2.47998 4 3.19998 3.28 3.19998 2.4Z" fill="#717171"/>
</svg>
