<svg width="12" height="12" viewBox="0 0 12 12" fill="none" xmlns="http://www.w3.org/2000/svg">
<path d="M12 10.3636V8.18182C12 8.03716 11.9473 7.89842 11.8536 7.79612C11.7598 7.69383 11.6326 7.63636 11.5 7.63636C11.3674 7.63636 11.2402 7.69383 11.1464 7.79612C11.0527 7.89842 11 8.03716 11 8.18182V10.3636C11 10.5083 10.9473 10.647 10.8536 10.7493C10.7598 10.8516 10.6326 10.9091 10.5 10.9091H1.5C1.36739 10.9091 1.24021 10.8516 1.14645 10.7493C1.05268 10.647 1 10.5083 1 10.3636V8.18182C1 8.03716 0.947321 7.89842 0.853553 7.79612C0.759785 7.69383 0.632608 7.63636 0.5 7.63636C0.367392 7.63636 0.240215 7.69383 0.146447 7.79612C0.0526785 7.89842 0 8.03716 0 8.18182V10.3636C0 10.7976 0.158035 11.2138 0.43934 11.5207C0.720644 11.8276 1.10218 12 1.5 12H10.5C10.8978 12 11.2794 11.8276 11.5607 11.5207C11.842 11.2138 12 10.7976 12 10.3636ZM8.81 7.51636L6.31 9.69818C6.22173 9.77428 6.11251 9.81567 6 9.81567C5.88749 9.81567 5.77827 9.77428 5.69 9.69818L3.19 7.51636C3.09891 7.42256 3.04341 7.29488 3.03448 7.15858C3.02556 7.02227 3.06386 6.88728 3.1418 6.7803C3.21975 6.67333 3.33166 6.60217 3.4554 6.5809C3.57913 6.55963 3.70568 6.58981 3.81 6.66545L5.5 8.13818V0.545455C5.5 0.400791 5.55268 0.262053 5.64645 0.15976C5.74021 0.0574675 5.86739 0 6 0C6.13261 0 6.25979 0.0574675 6.35355 0.15976C6.44732 0.262053 6.5 0.400791 6.5 0.545455V8.13818L8.19 6.66545C8.24035 6.61361 8.30002 6.57373 8.36523 6.54836C8.43044 6.52298 8.49978 6.51266 8.56884 6.51804C8.6379 6.52342 8.70518 6.54439 8.76643 6.57962C8.82767 6.61485 8.88154 6.66358 8.92462 6.7227C8.96771 6.78183 8.99906 6.85008 9.01671 6.92311C9.03435 6.99615 9.0379 7.07239 9.02712 7.147C9.01634 7.22161 8.99148 7.29297 8.95411 7.35655C8.91673 7.42013 8.86766 7.47455 8.81 7.51636Z" fill="#717171"/>
</svg>
