<svg width="12" height="12" viewBox="0 0 12 12" fill="none" xmlns="http://www.w3.org/2000/svg">
<path d="M11.999 11.5312C11.999 11.7902 11.7892 12 11.5303 12H5.99902C5.74011 12 5.53027 11.7902 5.53027 11.5312C5.53027 11.2723 5.74011 11.0625 5.99902 11.0625H11.5303C11.7892 11.0625 11.999 11.2723 11.999 11.5312ZM11.5303 9.21872H7.8428C7.58389 9.21872 7.37405 9.42865 7.37405 9.68747C7.37405 9.94638 7.58389 10.1562 7.8428 10.1562H11.5303C11.7892 10.1562 11.999 9.94638 11.999 9.68747C11.999 9.42865 11.7892 9.21872 11.5303 9.21872ZM11.5303 7.37503H9.68649C9.42758 7.37503 9.21774 7.58487 9.21774 7.84378C9.21774 8.10269 9.42758 8.31253 9.68649 8.31253H11.5303C11.7892 8.31253 11.999 8.10269 11.999 7.84378C11.999 7.58487 11.7892 7.37503 11.5303 7.37503ZM11.8617 3.5658L3.56482 11.8627C3.47693 11.9507 3.35773 12 3.2334 12H0.467773C0.208862 12 -0.000976562 11.7902 -0.000976562 11.5312V8.76562C-0.000976562 8.6413 0.0483704 8.52209 0.136353 8.4342L8.43323 0.137329C8.61624 -0.0457764 8.91306 -0.0457764 9.09607 0.137329L11.8617 2.90295C12.0448 3.08597 12.0448 3.38278 11.8617 3.5658ZM10.8673 3.23438L8.76465 1.13168L0.936523 8.95981V11.0625H3.03922L10.8673 3.23438Z" fill="white"/>
</svg>
