<svg width="18" height="24" viewBox="0 0 18 24" fill="none" xmlns="http://www.w3.org/2000/svg">
<path d="M8.12451 17.25C8.12451 18.2125 7.33701 19 6.37451 19C5.41201 19 4.62451 18.2125 4.62451 17.25C4.62451 16.2875 5.41201 15.5 6.37451 15.5C7.33701 15.5 8.12451 16.2875 8.12451 17.25ZM6.37451 10.25C5.41201 10.25 4.62451 11.0375 4.62451 12C4.62451 12.9625 5.41201 13.75 6.37451 13.75C7.33701 13.75 8.12451 12.9625 8.12451 12C8.12451 11.0375 7.33701 10.25 6.37451 10.25ZM6.37451 5C5.41201 5 4.62451 5.7875 4.62451 6.75C4.62451 7.7125 5.41201 8.5 6.37451 8.5C7.33701 8.5 8.12451 7.7125 8.12451 6.75C8.12451 5.7875 7.33701 5 6.37451 5ZM11.6245 8.5C12.587 8.5 13.3745 7.7125 13.3745 6.75C13.3745 5.7875 12.587 5 11.6245 5C10.662 5 9.87451 5.7875 9.87451 6.75C9.87451 7.7125 10.662 8.5 11.6245 8.5ZM11.6245 10.25C10.662 10.25 9.87451 11.0375 9.87451 12C9.87451 12.9625 10.662 13.75 11.6245 13.75C12.587 13.75 13.3745 12.9625 13.3745 12C13.3745 11.0375 12.587 10.25 11.6245 10.25ZM11.6245 15.5C10.662 15.5 9.87451 16.2875 9.87451 17.25C9.87451 18.2125 10.662 19 11.6245 19C12.587 19 13.3745 18.2125 13.3745 17.25C13.3745 16.2875 12.587 15.5 11.6245 15.5Z" fill="#717171"/>
</svg>
