<svg width="20" height="9" viewBox="0 0 20 9" fill="none" xmlns="http://www.w3.org/2000/svg">
<path id="drag-lines-horizontal" d="M18.8889 2.25H1.11111C0.816426 2.25 0.533811 2.13147 0.325437 1.92049C0.117063 1.70952 0 1.42337 0 1.125C0 0.826631 0.117063 0.540483 0.325437 0.329505C0.533811 0.118527 0.816426 0 1.11111 0H18.8889C19.1836 0 19.4662 0.118527 19.6746 0.329505C19.8829 0.540483 20 0.826631 20 1.125C20 1.42337 19.8829 1.70952 19.6746 1.92049C19.4662 2.13147 19.1836 2.25 18.8889 2.25ZM20 7.875C20 7.57663 19.8829 7.29048 19.6746 7.0795C19.4662 6.86853 19.1836 6.75 18.8889 6.75H1.11111C0.816426 6.75 0.533811 6.86853 0.325437 7.0795C0.117063 7.29048 0 7.57663 0 7.875C0 8.17337 0.117063 8.45952 0.325437 8.67049C0.533811 8.88147 0.816426 9 1.11111 9H18.8889C19.1836 9 19.4662 8.88147 19.6746 8.67049C19.8829 8.45952 20 8.17337 20 7.875Z" fill="#112D55"/>
</svg>
