<svg width="14" height="14" viewBox="0 0 14 14" fill="none" xmlns="http://www.w3.org/2000/svg">
<path d="M6.125 12.25C6.125 13.2125 5.3375 14 4.375 14C3.4125 14 2.625 13.2125 2.625 12.25C2.625 11.2875 3.4125 10.5 4.375 10.5C5.3375 10.5 6.125 11.2875 6.125 12.25ZM4.375 5.25C3.4125 5.25 2.625 6.0375 2.625 7C2.625 7.9625 3.4125 8.75 4.375 8.75C5.3375 8.75 6.125 7.9625 6.125 7C6.125 6.0375 5.3375 5.25 4.375 5.25ZM4.375 0C3.4125 0 2.625 0.7875 2.625 1.75C2.625 2.7125 3.4125 3.5 4.375 3.5C5.3375 3.5 6.125 2.7125 6.125 1.75C6.125 0.7875 5.3375 0 4.375 0ZM9.625 3.5C10.5875 3.5 11.375 2.7125 11.375 1.75C11.375 0.7875 10.5875 0 9.625 0C8.6625 0 7.875 0.7875 7.875 1.75C7.875 2.7125 8.6625 3.5 9.625 3.5ZM9.625 5.25C8.6625 5.25 7.875 6.0375 7.875 7C7.875 7.9625 8.6625 8.75 9.625 8.75C10.5875 8.75 11.375 7.9625 11.375 7C11.375 6.0375 10.5875 5.25 9.625 5.25ZM9.625 10.5C8.6625 10.5 7.875 11.2875 7.875 12.25C7.875 13.2125 8.6625 14 9.625 14C10.5875 14 11.375 13.2125 11.375 12.25C11.375 11.2875 10.5875 10.5 9.625 10.5Z" fill="#717171"/>
</svg>
