<svg width="20" height="9" viewBox="0 0 20 9" fill="none" xmlns="http://www.w3.org/2000/svg">
<path id="drag-lines-horizontal" d="M18.8889 2.22222H1.11111C0.816426 2.22222 0.533811 2.10516 0.325437 1.89679C0.117063 1.68841 0 1.4058 0 1.11111C0 0.816426 0.117063 0.533811 0.325437 0.325437C0.533811 0.117063 0.816426 0 1.11111 0H18.8889C19.1836 0 19.4662 0.117063 19.6746 0.325437C19.8829 0.533811 20 0.816426 20 1.11111C20 1.4058 19.8829 1.68841 19.6746 1.89679C19.4662 2.10516 19.1836 2.22222 18.8889 2.22222ZM20 7.77778C20 7.48309 19.8829 7.20048 19.6746 6.9921C19.4662 6.78373 19.1836 6.66667 18.8889 6.66667H1.11111C0.816426 6.66667 0.533811 6.78373 0.325437 6.9921C0.117063 7.20048 0 7.48309 0 7.77778C0 8.07246 0.117063 8.35508 0.325437 8.56345C0.533811 8.77183 0.816426 8.88889 1.11111 8.88889H18.8889C19.1836 8.88889 19.4662 8.77183 19.6746 8.56345C19.8829 8.35508 20 8.07246 20 7.77778Z" fill="#EDEDED"/>
</svg>
