<svg width="10" height="6" viewBox="0 0 10 6" fill="none" xmlns="http://www.w3.org/2000/svg">
<path d="M4.64008 5.60996C4.73944 5.70932 4.86993 5.75911 5.00002 5.75911C5.13011 5.75911 5.2606 5.70932 5.35996 5.60996L9.45084 1.51908C9.45085 1.51907 9.45085 1.51906 9.45086 1.51905C9.64981 1.3202 9.6496 0.998051 9.45088 0.799201C9.25206 0.600254 8.92988 0.600286 8.73098 0.799178L5.00002 4.53014L1.26908 0.799201C1.26907 0.799193 1.26906 0.799186 1.26905 0.799178C1.0702 0.600225 0.748051 0.600433 0.549201 0.799156C0.350254 0.997976 0.350286 1.32016 0.549178 1.51905L4.64008 5.60996Z" fill="#424242" stroke="#424242" stroke-width="0.2"/>
</svg>
