<svg width="18" height="18" viewBox="0 0 18 18" fill="none" xmlns="http://www.w3.org/2000/svg">
<path d="M6.6001 11.4016C6.6001 9.13884 6.6001 8.00748 7.30304 7.30451C8.00602 6.60156 9.13738 6.60156 11.4001 6.60156H12.2001C14.4628 6.60156 15.5942 6.60156 16.2971 7.30451C17.0001 8.00748 17.0001 9.13884 17.0001 11.4016V12.2016C17.0001 14.4643 17.0001 15.5956 16.2971 16.2986C15.5942 17.0016 14.4628 17.0016 12.2001 17.0016H11.4001C9.13738 17.0016 8.00602 17.0016 7.30304 16.2986C6.6001 15.5956 6.6001 14.4643 6.6001 12.2016V11.4016Z" stroke="#262626" stroke-linecap="round" stroke-linejoin="round"/>
<path d="M12.9999 6.6C12.998 4.23433 12.9622 3.00897 12.2736 2.16994C12.1406 2.00791 11.9921 1.85934 11.8301 1.72637C10.945 1 9.63 1 7 1C4.37002 1 3.05502 1 2.16994 1.72637C2.00791 1.85934 1.85934 2.00791 1.72637 2.16994C1 3.05502 1 4.37002 1 7C1 9.63 1 10.945 1.72637 11.8301C1.85934 11.9921 2.00791 12.1406 2.16994 12.2736C3.00897 12.9622 4.23433 12.998 6.6 12.9999" stroke="#262626" stroke-linecap="round" stroke-linejoin="round"/>
</svg>
