<svg width="14" height="14" viewBox="0 0 14 14" fill="none" xmlns="http://www.w3.org/2000/svg">
<path d="M7 0C5.61553 0 4.26216 0.410543 3.11101 1.17971C1.95987 1.94888 1.06266 3.04213 0.532846 4.32122C0.00303298 5.6003 -0.13559 7.00776 0.134506 8.36563C0.404603 9.7235 1.07129 10.9708 2.05026 11.9497C3.02922 12.9287 4.2765 13.5954 5.63437 13.8655C6.99224 14.1356 8.3997 13.997 9.67879 13.4672C10.9579 12.9373 12.0511 12.0401 12.8203 10.889C13.5895 9.73785 14 8.38447 14 7C13.9979 5.14412 13.2597 3.36486 11.9474 2.05256C10.6351 0.740255 8.85588 0.00208693 7 0ZM7 13.44C5.72629 13.44 4.48118 13.0623 3.42213 12.3547C2.36308 11.647 1.53765 10.6412 1.05022 9.46448C0.562791 8.28772 0.435257 6.99285 0.683746 5.74362C0.932235 4.49438 1.54558 3.34688 2.44623 2.44623C3.34688 1.54558 4.49438 0.932231 5.74362 0.683743C6.99286 0.435254 8.28773 0.562787 9.46448 1.05022C10.6412 1.53764 11.647 2.36307 12.3547 3.42213C13.0623 4.48118 13.44 5.72629 13.44 7C13.4381 8.70741 12.759 10.3443 11.5517 11.5517C10.3444 12.759 8.70741 13.4381 7 13.44Z" fill="#525252"/>
<path d="M7.28021 6.88486V3.08078C7.28021 3.00652 7.25072 2.9353 7.1982 2.88279C7.14569 2.83028 7.07448 2.80078 7.00021 2.80078C6.92595 2.80078 6.85473 2.83028 6.80222 2.88279C6.74971 2.9353 6.72021 3.00652 6.72021 3.08078V7.00078C6.72021 7.03755 6.72745 7.07396 6.74153 7.10793C6.7556 7.1419 6.77623 7.17276 6.80224 7.19875L9.04224 9.43875C9.09505 9.48975 9.16578 9.51798 9.2392 9.51734C9.31261 9.5167 9.38284 9.48725 9.43475 9.43534C9.48667 9.38343 9.51611 9.3132 9.51675 9.23978C9.51739 9.16637 9.48917 9.09564 9.43816 9.04283L7.28021 6.88486Z" fill="#525252"/>
</svg>
