<svg xmlns="http://www.w3.org/2000/svg" xmlns:xlink="http://www.w3.org/1999/xlink" width="40" height="40" viewBox="0 0 40 40">
  <defs>
    <clipPath id="clip-path">
      <rect id="Rectangle_4790" data-name="Rectangle 4790" width="40" height="40" transform="translate(0 0)" fill="#fff" stroke="#707070" stroke-width="1"/>
    </clipPath>
  </defs>
  <g id="Mask_Group_320" data-name="Mask Group 320" clip-path="url(#clip-path)">
    <g id="go-8_1_" data-name="go-8 (1)" transform="translate(5.294 0)">
      <path id="Path_2801" data-name="Path 2801" d="M8.378,27.08c.067,1.166,1.232.633,1.765.266.5-.366.666-.067.7-.766.033-.466.067-.9.067-1.365a3.319,3.319,0,0,0-2.231.566c-.3.233-.933,1-.3,1.3" transform="translate(-8.01 -5.431)" fill="#f6d2a2" fill-rule="evenodd"/>
      <path id="Path_2802" data-name="Path 2802" d="M8.992,27.9c-.233,0-.666-.1-.733-.766a.526.526,0,0,1-.266-.4A1.464,1.464,0,0,1,8.626,25.7a3.274,3.274,0,0,1,1.965-.6h.433v.1a5.615,5.615,0,0,1-.033,1.066.922.922,0,0,1-.033.3c-.033.5-.133.566-.366.666a1.013,1.013,0,0,0-.366.2,2.712,2.712,0,0,1-1.232.466Zm1.6-2.6a3.069,3.069,0,0,0-1.832.566c-.233.167-.566.566-.533.833a.312.312,0,0,0,.2.266L8.492,27v.067c.033.533.3.6.5.6a2.383,2.383,0,0,0,1.1-.433,1.494,1.494,0,0,1,.433-.2c.167-.067.2-.067.233-.466a.922.922,0,0,1,.033-.3,8.727,8.727,0,0,0,.033-.933A.65.65,0,0,0,10.59,25.3Z" transform="translate(-7.991 -5.414)"/>
      <path id="Path_2803" data-name="Path 2803" d="M8.433,27.4c.167-.067.366-.1.466-.266" transform="translate(-8.065 -5.754)" fill="#c6b198" fill-rule="evenodd"/>
      <path id="Path_2804" data-name="Path 2804" d="M8.41,27.48c-.033,0-.1-.033-.1-.067-.033-.067,0-.133.067-.133a.116.116,0,0,0,.067-.033c.133-.067.266-.1.333-.2a.12.12,0,0,1,.2.133.773.773,0,0,1-.433.266l-.067.033Z" transform="translate(-8.042 -5.731)"/>
      <path id="Path_2805" data-name="Path 2805" d="M11.273,9.506C6.744,8.24,10.108,2.478,13.738,4.843Z" transform="translate(-8.174 -1.944)" fill="#6ad7e5" fill-rule="evenodd"/>
      <path id="Path_2806" data-name="Path 2806" d="M11.32,9.618l-.1-.033c-2.331-.666-2.3-2.331-2.231-2.831a3.082,3.082,0,0,1,2.964-2.6,3.243,3.243,0,0,1,1.832.6l.1.067Zm.633-5.229a2.87,2.87,0,0,0-2.764,2.4c-.167,1.2.566,2.131,2,2.564l2.365-4.5a3.074,3.074,0,0,0-1.6-.466Z" transform="translate(-8.154 -1.924)"/>
      <path id="Path_2807" data-name="Path 2807" d="M35.809,4.311c3.564-2.5,6.827,3.164,2.664,4.6Z" transform="translate(-12.627 -1.845)" fill="#6ad7e5" fill-rule="evenodd"/>
      <path id="Path_2808" data-name="Path 2808" d="M38.413,9.012,35.649,4.25l.1-.067a3.37,3.37,0,0,1,1.9-.666,3.033,3.033,0,0,1,2.864,2.5,2.532,2.532,0,0,1-2,2.931ZM35.949,4.35l2.564,4.43a2.365,2.365,0,0,0,1.765-2.664,2.784,2.784,0,0,0-2.631-2.3A2.627,2.627,0,0,0,35.949,4.35Z" transform="translate(-12.601 -1.817)"/>
      <path id="Path_2809" data-name="Path 2809" d="M36.369,44.881c.9.566,2.564,2.265,1.2,3.1-1.3,1.2-2.032-1.332-3.2-1.665a3.237,3.237,0,0,1,2-1.432" transform="translate(-12.387 -8.711)" fill="#f6d2a2" fill-rule="evenodd"/>
      <path id="Path_2810" data-name="Path 2810" d="M36.828,48.392c-.533,0-1-.533-1.4-1.032a3.316,3.316,0,0,0-1.132-.966l-.167-.033.1-.133A3.285,3.285,0,0,1,36.3,44.761h.033l.033.033c.566.366,1.8,1.4,1.765,2.365a1.056,1.056,0,0,1-.566.9.994.994,0,0,1-.733.333ZM34.5,46.227a3.606,3.606,0,0,1,1.066.966c.4.5.8.933,1.232.933a.864.864,0,0,0,.6-.3h.033a.875.875,0,0,0,.466-.733c0-.766-.966-1.732-1.632-2.165A3.419,3.419,0,0,0,34.5,46.227Zm3.031,1.832c-.033,0-.067-.033-.1-.067a2.312,2.312,0,0,1-.167-.433,1.963,1.963,0,0,0-.4-.733.118.118,0,0,1,.167-.167,2.068,2.068,0,0,1,.466.833l.167.4a.146.146,0,0,1-.033.167Z" transform="translate(-12.348 -8.691)"/>
      <path id="Path_2811" data-name="Path 2811" d="M16.4,46.884c-1.066.167-1.665,1.132-2.564,1.632a.772.772,0,0,1-1.232-.3c-.133-.067-.133.067-.333-.133-.766-1.232.8-2.131,1.632-2.731,1.166-.266,1.9.733,2.5,1.532" transform="translate(-8.67 -8.782)" fill="#f6d2a2" fill-rule="evenodd"/>
      <path id="Path_2812" data-name="Path 2812" d="M13.251,48.758a.861.861,0,0,1-.733-.5h-.033c-.1,0-.167-.033-.3-.167v-.033c-.733-1.166.533-2.065,1.365-2.664l.3-.2h.067a1.366,1.366,0,0,1,.366-.033c1,0,1.632.866,2.165,1.565l.167.233-.2.033a3.233,3.233,0,0,0-1.565.9,6.194,6.194,0,0,1-.933.7A1.942,1.942,0,0,1,13.251,48.758Zm-.733-.7a.252.252,0,0,1,.133.033h.033l.033.033a.707.707,0,0,0,.566.4.991.991,0,0,0,.5-.167,4.5,4.5,0,0,0,.9-.666,4.078,4.078,0,0,1,1.5-.933c-.5-.666-1.1-1.4-1.932-1.4a.922.922,0,0,0-.3.033l-.266.2c-.866.6-1.932,1.365-1.3,2.365C12.419,48.025,12.452,48.058,12.519,48.058Zm.067.233c-.067,0-.133-.067-.1-.133a1.882,1.882,0,0,1,.366-.833,2.484,2.484,0,0,0,.233-.4.105.105,0,1,1,.2.067,1.888,1.888,0,0,1-.266.433,1.51,1.51,0,0,0-.333.7c0,.133-.033.167-.1.167Z" transform="translate(-8.653 -8.758)"/>
      <path id="Path_2813" data-name="Path 2813" d="M11.789,8.169c-.6-.3-1.032-.733-.666-1.432.333-.633.966-.566,1.565-.266Zm21.615-.6c.6-.3,1.032-.733.666-1.432-.333-.633-.966-.566-1.565-.266Z" transform="translate(-8.491 -2.173)" fill-rule="evenodd"/>
      <path id="Path_2814" data-name="Path 2814" d="M42.3,26.881c-.067,1.166-1.232.633-1.765.266-.5-.366-.666-.067-.7-.766-.033-.466-.067-.9-.067-1.365A3.319,3.319,0,0,1,42,25.582c.333.266.933,1,.3,1.3" transform="translate(-13.287 -5.398)" fill="#f6d2a2" fill-rule="evenodd"/>
      <path id="Path_2815" data-name="Path 2815" d="M41.675,27.7a2.712,2.712,0,0,1-1.232-.466,2.131,2.131,0,0,0-.366-.2c-.266-.1-.333-.167-.366-.666a.922.922,0,0,0-.033-.3A5.615,5.615,0,0,1,39.643,25v-.1h.433a3.274,3.274,0,0,1,1.965.6,1.464,1.464,0,0,1,.633,1.032.445.445,0,0,1-.266.4c-.067.666-.5.766-.733.766Zm-1.832-2.564a8.727,8.727,0,0,0,.033.933.922.922,0,0,0,.033.3c.033.4.067.4.233.466a3.936,3.936,0,0,1,.433.2,2.383,2.383,0,0,0,1.1.433c.2,0,.466-.067.5-.6V26.8l.067-.033c.133-.067.2-.133.2-.266.033-.266-.3-.666-.533-.833a3.143,3.143,0,0,0-1.832-.566A.494.494,0,0,1,39.843,25.132Z" transform="translate(-13.264 -5.381)"/>
      <path id="Path_2816" data-name="Path 2816" d="M42.71,27.2c-.167-.067-.366-.1-.466-.266" transform="translate(-13.7 -5.721)" fill="#c6b198" fill-rule="evenodd"/>
      <path id="Path_2817" data-name="Path 2817" d="M42.692,27.319h-.033l-.067-.033c-.167-.067-.333-.1-.433-.266a.12.12,0,1,1,.2-.133c.067.1.2.133.333.2a.116.116,0,0,1,.067.033c.067.033.1.1.067.133a.252.252,0,0,1-.133.067Z" transform="translate(-13.682 -5.703)"/>
      <path id="Path_2818" data-name="Path 2818" d="M22.735,1.6c4.529,0,8.759.633,10.991,5,2,4.862,1.266,10.125,1.6,15.287.266,4.43.833,9.525-1.2,13.622-2.165,4.3-7.56,5.4-11.99,5.229-3.5-.133-7.693-1.266-9.692-4.463-2.3-3.73-1.232-9.292-1.066-13.455.2-4.929-1.332-9.891.3-14.687C13.31,3.1,17.839,1.965,22.735,1.6" transform="translate(-8.479 -1.497)" fill="#6ad7e5" fill-rule="evenodd"/>
      <path id="Path_2819" data-name="Path 2819" d="M22.865,40.844h-.833a15.8,15.8,0,0,1-5.462-1.1,8.754,8.754,0,0,1-4.33-3.43c-1.865-3.031-1.532-7.194-1.232-10.891.067-.933.133-1.8.167-2.631a39,39,0,0,0-.233-5.229c-.266-3.131-.533-6.361.5-9.492a8.4,8.4,0,0,1,4.4-5.062,18.465,18.465,0,0,1,6.794-1.532c4.463-.033,8.892.6,11.124,5.029,1.465,3.564,1.465,7.394,1.5,11.09,0,1.4,0,2.831.1,4.23.033.433.067.866.067,1.3.266,4.063.566,8.659-1.3,12.389a8.713,8.713,0,0,1-4.8,4.2,17.488,17.488,0,0,1-6.461,1.132ZM22.7,1.678c-4.7.366-9.292,1.4-10.991,6.461-1.032,3.1-.766,6.295-.5,9.392a46.023,46.023,0,0,1,.233,5.262c-.033.833-.1,1.7-.167,2.631-.3,3.664-.633,7.793,1.2,10.757.766,1.232,3.231,4.163,9.592,4.4H22.9c7.36,0,10.091-3.264,11.09-5.2,1.832-3.663,1.532-8.26,1.3-12.289-.033-.433-.067-.866-.067-1.3-.067-1.4-.1-2.831-.1-4.23-.033-3.664-.033-7.494-1.465-11.024a8.057,8.057,0,0,0-4.563-4.063,21.033,21.033,0,0,0-6.394-.8Z" transform="translate(-8.443 -1.477)"/>
      <path id="Path_2820" data-name="Path 2820" d="M26.056,8.082c.8,4.729,8.526,3.464,7.427-1.3-1-4.263-7.693-3.064-7.427,1.3" transform="translate(-11 -1.92)" fill="#fff" fill-rule="evenodd"/>
      <path id="Path_2821" data-name="Path 2821" d="M29.693,11.164A3.677,3.677,0,0,1,25.9,8.1a3.586,3.586,0,0,1,.966-2.764,4.27,4.27,0,0,1,3.131-1.3A3.472,3.472,0,0,1,33.523,6.8a3.312,3.312,0,0,1-.566,2.931,4.231,4.231,0,0,1-3.264,1.432Zm-3.564-3.1a3.4,3.4,0,0,0,1.3,2.2,3.735,3.735,0,0,0,2.265.7A4.037,4.037,0,0,0,32.79,9.6a3.16,3.16,0,0,0,.533-2.764,3.24,3.24,0,0,0-3.33-2.564A4.151,4.151,0,0,0,27.028,5.5a3.339,3.339,0,0,0-.9,2.564Z" transform="translate(-10.974 -1.904)"/>
      <path id="Path_2822" data-name="Path 2822" d="M14.969,8.928c1.066,4.1,7.627,3.064,7.394-1.066-.3-4.929-8.426-4-7.394,1.066" transform="translate(-9.139 -2)" fill="#fff" fill-rule="evenodd"/>
      <path id="Path_2823" data-name="Path 2823" d="M18.44,11.637a3.572,3.572,0,0,1-3.63-2.7,3.529,3.529,0,0,1,.666-3.031,4.152,4.152,0,0,1,3.231-1.432A3.492,3.492,0,0,1,22.4,7.84a3.231,3.231,0,0,1-.9,2.531A4.239,4.239,0,0,1,18.44,11.637Zm.266-6.927a3.991,3.991,0,0,0-3.064,1.332,3.214,3.214,0,0,0-.6,2.831,3.337,3.337,0,0,0,3.4,2.531,3.99,3.99,0,0,0,2.931-1.2A3.057,3.057,0,0,0,22.2,7.84a3.22,3.22,0,0,0-3.5-3.131Z" transform="translate(-9.113 -1.977)"/>
      <path id="Path_2824" data-name="Path 2824" d="M26.863,15.58a12.754,12.754,0,0,1,.033,1.965c-.167.3-.466.333-.733.433a1.157,1.157,0,0,1-.833-.633,12.131,12.131,0,0,1,.067-2.2Z" transform="translate(-10.875 -3.756)" fill="#fff" fill-rule="evenodd"/>
      <path id="Path_2825" data-name="Path 2825" d="M26.143,18.091a1.208,1.208,0,0,1-.933-.7,7.847,7.847,0,0,1,0-1.532,4.919,4.919,0,0,0,.033-.7v-.133l1.7.533v.067c0,.2.033.4.033.633a5.94,5.94,0,0,1,0,1.332v.033a.978.978,0,0,1-.6.433C26.31,18.024,26.243,18.058,26.143,18.091Zm-.733-.8a1,1,0,0,0,.7.566c.067-.033.133-.033.167-.067a.767.767,0,0,0,.466-.3,5.36,5.36,0,0,0,0-1.266c0-.2-.033-.4-.033-.566l-1.266-.4c0,.2-.033.4-.033.566a7.175,7.175,0,0,0,0,1.465Z" transform="translate(-10.854 -3.736)"/>
      <g id="Group_2166" data-name="Group 2166" transform="translate(6.563 4.764)">
        <path id="Path_2826" data-name="Path 2826" d="M18.064,8.752a1.1,1.1,0,1,1-2.2,0,1.1,1.1,0,1,1,2.2,0" transform="translate(-15.866 -7.254)" fill-rule="evenodd"/>
        <path id="Path_2827" data-name="Path 2827" d="M17.958,9.252a.268.268,0,1,1-.266-.3.272.272,0,0,1,.266.3" transform="translate(-16.126 -7.487)" fill="#fff" fill-rule="evenodd"/>
        <path id="Path_2828" data-name="Path 2828" d="M29.215,8.393a1.1,1.1,0,1,1-2.2,0,1.1,1.1,0,1,1,2.2,0" transform="translate(-17.725 -7.194)" fill-rule="evenodd"/>
        <path id="Path_2829" data-name="Path 2829" d="M28.238,8.892a.272.272,0,0,1-.266.3.294.294,0,0,1-.266-.3.272.272,0,0,1,.266-.3.294.294,0,0,1,.266.3m-4.929,5.529c-.5,1.166.266,3.53,1.6,1.8a12.131,12.131,0,0,1,.067-2.2Z" transform="translate(-17.081 -7.427)" fill="#fff" fill-rule="evenodd"/>
      </g>
      <path id="Path_2830" data-name="Path 2830" d="M23.987,18a.76.76,0,0,1-.633-.4,2.58,2.58,0,0,1-.167-2.165l.033-.067,1.832-.466v.133l-.033.733a7.183,7.183,0,0,0,0,1.465v.033l-.033.033Q24.486,18,23.987,18Zm-.6-2.431a2.47,2.47,0,0,0,.167,1.9c.133.2.266.3.433.3.233,0,.5-.2.766-.533a5.371,5.371,0,0,1,.033-1.465l.033-.566Z" transform="translate(-10.497 -3.716)"/>
      <path id="Path_2831" data-name="Path 2831" d="M23.278,12.842a1.433,1.433,0,0,0-1.166,2c.633,1.132,2-.1,2.864,0,1,.033,1.8,1.066,2.6.2.9-.966-.4-1.9-1.365-2.331Z" transform="translate(-10.32 -3.349)" fill="#f6d2a2" fill-rule="evenodd"/>
      <path id="Path_2832" data-name="Path 2832" d="M26.852,15.487a2.317,2.317,0,0,1-.9-.266,2.469,2.469,0,0,0-1-.266h-.1a2.568,2.568,0,0,0-.9.233,3.242,3.242,0,0,1-1.066.233.951.951,0,0,1-.9-.533,1.3,1.3,0,0,1,.033-1.3,1.639,1.639,0,0,1,1.232-.866l2.964-.133h.033a2.857,2.857,0,0,1,1.732,1.532,1.1,1.1,0,0,1-.3.966,1.046,1.046,0,0,1-.833.4Zm-1.865-.733a3,3,0,0,1,1.066.3,2.1,2.1,0,0,0,.833.233.873.873,0,0,0,.633-.3.882.882,0,0,0,.266-.766c-.133-.566-.933-1.1-1.565-1.365l-2.9.133a1.42,1.42,0,0,0-1.066.733,1.171,1.171,0,0,0-.033,1.1.723.723,0,0,0,.7.433,3.7,3.7,0,0,0,.966-.233,2.889,2.889,0,0,1,1-.233c0-.067.033-.067.1-.033Z" transform="translate(-10.297 -3.329)" fill="#231f20"/>
      <path id="Path_2833" data-name="Path 2833" d="M23.42,12.565C23.353,11,26.35,10.8,26.683,12.1c.366,1.332-3.131,1.632-3.264.466" transform="translate(-10.562 -3.105)" fill-rule="evenodd"/>
    </g>
  </g>
</svg>
