<svg xmlns="http://www.w3.org/2000/svg" xmlns:xlink="http://www.w3.org/1999/xlink" width="24" height="24" viewBox="0 0 24 24">
  <defs>
    <clipPath id="clip-path">
      <path id="Rectangle_4156" data-name="Rectangle 4156" d="M0,0H24V24H0Z" transform="translate(40 434.77)" fill="#fff" stroke="#707070" stroke-width="1"/>
    </clipPath>
  </defs>
  <g id="Mask_Group_285" data-name="Mask Group 285" transform="translate(-40 -434.77)" clip-path="url(#clip-path)">
    <path id="Path_2514" data-name="Path 2514" d="M23.537,7.788a3.15,3.15,0,0,0-1.937-.5,6.245,6.245,0,0,0-1,.087A3.736,3.736,0,0,0,18.9,4.86l-.342-.2-.22.316a4.624,4.624,0,0,0-.606,1.393,3.271,3.271,0,0,0,.4,2.6,4.725,4.725,0,0,1-1.731.413H.739a.734.734,0,0,0-.74.729,10.888,10.888,0,0,0,.683,3.975A5.97,5.97,0,0,0,3.064,17.15a10.65,10.65,0,0,0,5.225,1.11A16.228,16.228,0,0,0,11.19,18a12.065,12.065,0,0,0,3.791-1.36,10.35,10.35,0,0,0,2.58-2.089,13.814,13.814,0,0,0,2.524-4.3h.221a3.652,3.652,0,0,0,2.656-.991,2.9,2.9,0,0,0,.706-1.023l.1-.283Z" transform="translate(40.001 437.046)" fill="#0091e2"/>
    <path id="Path_2515" data-name="Path 2515" d="M1.369,10.274H3.463a.185.185,0,0,0,.187-.185V8.238a.185.185,0,0,0-.188-.185H1.369a.184.184,0,0,0-.187.185v1.85A.192.192,0,0,0,1.369,10.274Zm2.888,0H6.352a.185.185,0,0,0,.187-.185V8.238a.185.185,0,0,0-.187-.185H4.258a.184.184,0,0,0-.187.185v1.85a.192.192,0,0,0,.188.185m2.944,0H9.3a.184.184,0,0,0,.187-.185V8.238A.185.185,0,0,0,9.3,8.054H7.2a.185.185,0,0,0-.187.185v1.85a.178.178,0,0,0,.188.185Zm2.9,0H12.2a.184.184,0,0,0,.188-.185V8.238a.184.184,0,0,0-.187-.185H10.1a.184.184,0,0,0-.187.185v1.85a.185.185,0,0,0,.188.185ZM4.258,7.629H6.352a.192.192,0,0,0,.187-.185V5.594a.184.184,0,0,0-.187-.185H4.258a.184.184,0,0,0-.187.185v1.85a.2.2,0,0,0,.188.185m2.944,0H9.3a.192.192,0,0,0,.188-.185V5.594A.184.184,0,0,0,9.3,5.409H7.2a.184.184,0,0,0-.187.185v1.85a.185.185,0,0,0,.188.185m2.9,0h2.095a.192.192,0,0,0,.188-.185V5.594a.192.192,0,0,0-.187-.185H10.1a.185.185,0,0,0-.187.185v1.85a.192.192,0,0,0,.187.185m0-2.656H12.2a.184.184,0,0,0,.188-.185V2.938a.192.192,0,0,0-.187-.185H10.1a.185.185,0,0,0-.187.185v1.85a.192.192,0,0,0,.187.185m2.925,5.3H15.12a.185.185,0,0,0,.188-.185V8.238a.184.184,0,0,0-.187-.185h-2.1a.185.185,0,0,0-.187.185v1.85a.192.192,0,0,0,.188.185" transform="translate(40.826 435.713)" fill="#0091e2"/>
  </g>
</svg>
