<svg id="nextjs-icon-svgrepo-com" xmlns="http://www.w3.org/2000/svg" width="24" height="24" viewBox="0 0 24 24">
  <path id="Path_29503" data-name="Path 29503" d="M11.214.006c-.052,0-.216.021-.364.033A12.029,12.029,0,0,0,2.226,5.012,11.877,11.877,0,0,0,.108,10.255,9.183,9.183,0,0,0,0,12,9.183,9.183,0,0,0,.108,13.75a12.049,12.049,0,0,0,8.209,9.695,12.689,12.689,0,0,0,2.534.525,22.109,22.109,0,0,0,2.3,0,12.117,12.117,0,0,0,4.324-1.264c.206-.106.246-.134.218-.157s-.9-1.194-1.954-2.62l-1.919-2.592-2.4-3.558C10.09,11.822,9,10.222,8.992,10.222s-.019,1.579-.023,3.509a27.539,27.539,0,0,1-.052,3.6.426.426,0,0,1-.206.213c-.075.038-.141.045-.5.045H7.81L7.7,17.517a.439.439,0,0,1-.157-.171L7.5,17.24l0-4.7.007-4.705L7.58,7.74A.644.644,0,0,1,7.754,7.6c.1-.047.134-.052.54-.052.479,0,.558.019.683.155.035.038,1.337,2,2.9,4.361s3.688,5.587,4.734,7.171l1.9,2.878.1-.063a12.318,12.318,0,0,0,2.466-2.163,11.944,11.944,0,0,0,2.825-6.134A9.183,9.183,0,0,0,24,12a9.183,9.183,0,0,0-.108-1.748A12.049,12.049,0,0,0,15.683.56a12.6,12.6,0,0,0-2.5-.523c-.225-.023-1.776-.049-1.971-.03Zm4.913,7.258a.473.473,0,0,1,.237.277c.019.061.023,1.365.019,4.3l-.007,4.218-.744-1.14-.746-1.14V10.717c0-1.982.009-3.1.023-3.15a.479.479,0,0,1,.232-.3c.1-.049.131-.054.5-.054C15.988,7.217,16.049,7.222,16.127,7.264Z" transform="translate(0 0)"/>
</svg>
