<svg xmlns="http://www.w3.org/2000/svg" xmlns:xlink="http://www.w3.org/1999/xlink" width="73.333" height="40" viewBox="0 0 73.333 40">
  <defs>
    <clipPath id="clip-path">
      <rect id="Rectangle_4794" data-name="Rectangle 4794" width="73.333" height="40" fill="#fff" stroke="#707070" stroke-width="1"/>
    </clipPath>
  </defs>
  <g id="Mask_Group_324" data-name="Mask Group 324" clip-path="url(#clip-path)">
    <g id="mysql-4" transform="translate(0.212 1.066)">
      <path id="Path_2849" data-name="Path 2849" d="M2.118,45.722H4.542V36.17L8.282,44.5A2.05,2.05,0,0,0,10.5,45.851,2.05,2.05,0,0,0,12.724,44.5l3.739-8.329v9.551h2.406V36.189a1.46,1.46,0,0,0-1.129-1.611c-1.832-.574-3.073-.074-3.628,1.167l-3.665,8.2-3.554-8.2C6.357,34.5,5.1,34,3.266,34.578a1.457,1.457,0,0,0-1.147,1.611v9.533h0Zm18.769-7.775h2.406V43.2c-.018.3.093.962,1.425.981.666.018,5.2,0,5.238,0V37.928h2.425c.018,0,0,8.533,0,8.57.018,2.11-2.61,2.554-3.813,2.591H20.942V47.461s7.608.019,7.626,0c1.555-.148,1.37-.925,1.37-1.184v-.63H24.811c-2.388-.037-3.906-1.074-3.924-2.277,0-.111.056-5.367,0-5.423ZM72.88,31.894a8.329,8.329,0,0,0-3.591.518c-.277.111-.7.111-.758.463a2.508,2.508,0,0,1,.3.592,4.792,4.792,0,0,0,.981,1.129,13.458,13.458,0,0,0,1.166.852c.741.444,1.555.685,2.239,1.13.426.258.833.592,1.24.888a2.314,2.314,0,0,0,.574.463v-.037a5.81,5.81,0,0,1-.278-.593l-.555-.555a9.2,9.2,0,0,0-1.944-1.851c-.574-.407-1.869-.981-2.11-1.647-.019-.019-.037-.019-.037-.037a12.426,12.426,0,0,0,1.259-.3c.63-.166,1.2-.129,1.851-.3.3-.093.592-.167.889-.259V32.19a13.131,13.131,0,0,0-.925-1.092,25.954,25.954,0,0,0-3.036-2.277,18.814,18.814,0,0,0-1.943-.944c-.2-.093-.575-.148-.722-.333a8.656,8.656,0,0,1-.759-1.425Q65.9,24.535,65.2,22.9a19.814,19.814,0,0,0-.925-2.11,18.711,18.711,0,0,0-7.182-6.923,8.89,8.89,0,0,0-2.369-.759c-.463-.037-.925-.056-1.388-.093a8.364,8.364,0,0,1-.852-.629c-1.055-.666-3.776-2.129-4.554-.2-.5,1.2.741,2.388,1.184,3a8.647,8.647,0,0,1,.926,1.388c.147.314.166.629.3.962a24.913,24.913,0,0,0,.962,2.5,8.9,8.9,0,0,0,.685,1.148c.148.2.426.3.463.629a5.287,5.287,0,0,0-.425,1.388,8.161,8.161,0,0,0,.555,6.219c.3.463.981,1.481,1.944,1.092.833-.352.648-1.389.888-2.332.056-.2.019-.352.129-.5v.037c.241.518.5,1.018.759,1.518a9.939,9.939,0,0,0,2.407,2.5c.425.333.777.907,1.351,1.092v-.037H60c-.111-.166-.278-.24-.407-.37a11.139,11.139,0,0,1-.981-1.111,27.848,27.848,0,0,1-2.073-3.369c-.3-.574-.556-1.2-.8-1.777-.093-.222-.093-.555-.3-.685a9.255,9.255,0,0,0-.889,1.277,10.437,10.437,0,0,0-.5,2.777c-.075.037-.056.018-.093.056-.592-.148-.8-.759-1.018-1.277a8.147,8.147,0,0,1-.167-4.942c.129-.389.7-1.61.463-1.981-.112-.352-.463-.574-.667-.851a6.6,6.6,0,0,1-.685-1.166c-.444-1.037-.648-2.184-1.13-3.221a9.39,9.39,0,0,0-.925-1.425,9.115,9.115,0,0,1-1.018-1.444c-.093-.2-.222-.537-.093-.759a.367.367,0,0,1,.258-.259c.241-.185.926.074,1.184.166a11.178,11.178,0,0,1,1.814.944c.278.185.556.536.889.629h.37c.592.129,1.258.037,1.813.2a10.427,10.427,0,0,1,2.666,1.277,16.465,16.465,0,0,1,5.793,6.33c.222.426.314.814.5,1.259.389.907.888,1.832,1.277,2.7a11.812,11.812,0,0,0,1.3,2.5c.3.389,1.407.592,1.907.8a10.563,10.563,0,0,1,1.259.519c.648.37,1.258.833,1.869,1.259.3.206,1.221.668,1.258,1.057Z" transform="translate(-2.118 -11.223)" fill="#00678c" fill-rule="evenodd"/>
      <path id="Path_2850" data-name="Path 2850" d="M33.564,13.976a3.149,3.149,0,0,0-.758.093v.037h.055a5.941,5.941,0,0,0,.592.759c.129.3.278.592.407.889l.055-.056a1,1,0,0,0,.37-.925c-.093-.111-.111-.241-.2-.37a2.87,2.87,0,0,0-.519-.426Z" transform="translate(18.319 -9.389)" fill="#00678c" fill-rule="evenodd"/>
      <path id="Path_2851" data-name="Path 2851" d="M21.406,36.393h6.941a5.369,5.369,0,0,0,2.239-.463,2.2,2.2,0,0,0,1.555-1.98V32.172c0-.685-.592-1.351-1.721-1.777a5.809,5.809,0,0,0-2.073-.352H25.422c-.981,0-1.444-.3-1.555-.944a.892.892,0,0,1-.019-.222V27.786a.751.751,0,0,1,.019-.2c.111-.5.37-.648,1.222-.722.074,0,.166-.019.241-.019h6.9v-1.61H25.441a6.746,6.746,0,0,0-1.944.2c-1.444.463-2.073,1.166-2.073,2.407v1.407c0,1.092,1.24,2.017,3.295,2.239.241,0,.463.019.7.019h2.5a1.122,1.122,0,0,1,.258.019c.778.074,1.092.2,1.333.48a.633.633,0,0,1,.185.445v1.407a.791.791,0,0,1-.352.574,1.734,1.734,0,0,1-1.018.333c-.093,0-.166.019-.259.019H21.406Zm25.8-2.814c0,1.666,1.222,2.591,3.721,2.777.222.019.463.037.685.037h6.293V34.781H51.576c-1.425,0-1.962-.352-1.962-1.2V25.231H47.208v8.347Zm-13.53.093V27.934c0-1.462,1.018-2.351,3.054-2.629a3.779,3.779,0,0,1,.648-.037h4.59a4.106,4.106,0,0,1,.667.037c2.017.278,3.054,1.166,3.054,2.629v5.737a2.089,2.089,0,0,1-1.444,2.222l2.388,2.147H43.821L41.9,36.318l-1.944.111H37.379a5.092,5.092,0,0,1-1.425-.2c-1.535-.408-2.276-1.222-2.276-2.555Zm2.61-.147a1.249,1.249,0,0,0,.037.259c.148.666.777,1.036,1.721,1.036h2.2l-2.017-1.814h2.813L42.8,34.579a1.137,1.137,0,0,0,.611-.759,1.126,1.126,0,0,0,.019-.241V28.063a.828.828,0,0,0-.019-.2c-.148-.629-.777-.98-1.7-.98H38.046c-1.074,0-1.758.463-1.758,1.184v5.46h0Zm22.73,2.869h.352V35.06h.481v-.278H58.536v.278h.481v1.333Zm2.7,0h.314V34.782h-.481l-.425,1.111L60.7,34.782h-.5v1.611h.333V35.171L61,36.393h.241l.463-1.222h.019v1.222Z" transform="translate(10.727 -1.894)" fill="#ce8b2c" fill-rule="evenodd"/>
    </g>
  </g>
</svg>
