<svg xmlns="http://www.w3.org/2000/svg" xmlns:xlink="http://www.w3.org/1999/xlink" width="40" height="40" viewBox="0 0 40 40">
  <defs>
    <clipPath id="clip-path">
      <rect id="Rectangle_4793" data-name="Rectangle 4793" width="40" height="40" transform="translate(0 0)" fill="#fff" stroke="#707070" stroke-width="1"/>
    </clipPath>
  </defs>
  <g id="Mask_Group_323" data-name="Mask Group 323" clip-path="url(#clip-path)">
    <g id="logo-javascript" transform="translate(0 0)">
      <path id="Path_2846" data-name="Path 2846" d="M0,0H40V40H0Z" fill="#f0db4f"/>
      <path id="Path_2847" data-name="Path 2847" d="M38.829,34.089c-.293-1.825-1.483-3.357-5.008-4.787-1.224-.563-2.589-.966-3-1.894a2.065,2.065,0,0,1-.072-1.171,1.925,1.925,0,0,1,2.532-1.087,2.786,2.786,0,0,1,1.627,1.51c1.726-1.118,1.722-1.11,2.928-1.878a7.46,7.46,0,0,0-.966-1.293,5.639,5.639,0,0,0-4.715-1.711c-.392.049-.787.1-1.179.152A5.347,5.347,0,0,0,28.144,23.6a5.237,5.237,0,0,0,.951,7.456c2.27,1.7,5.6,2.091,6.03,3.684.414,1.951-1.433,2.582-3.27,2.357a4.286,4.286,0,0,1-2.92-2.221c-1.5.867-1.5.867-3.038,1.753a6.761,6.761,0,0,0,1.361,1.852c2.9,2.939,10.148,2.795,11.449-1.654A5.492,5.492,0,0,0,38.829,34.089ZM23.848,22.013H20.106c0,3.232-.015,6.441-.015,9.673,0,2.057.106,3.943-.228,4.521-.548,1.137-1.966,1-2.612.776a3.211,3.211,0,0,1-1.38-1.433,1.926,1.926,0,0,0-.213-.342q-1.523.93-3.042,1.863a6.012,6.012,0,0,0,2.205,2.525,7.263,7.263,0,0,0,5.346.658,4.724,4.724,0,0,0,3.019-2.365c.852-1.57.669-3.471.662-5.574.019-3.43,0-6.859,0-10.3Z" transform="translate(-2.103 -3.629)" fill="#323330"/>
    </g>
  </g>
</svg>
