<svg xmlns="http://www.w3.org/2000/svg" xmlns:xlink="http://www.w3.org/1999/xlink" width="24" height="24" viewBox="0 0 24 24">
  <defs>
    <clipPath id="clip-path">
      <rect id="Rectangle_4978" data-name="Rectangle 4978" width="24" height="24" transform="translate(88 525)" fill="#fff" stroke="#707070" stroke-width="1"/>
    </clipPath>
  </defs>
  <g id="Mask_Group_361" data-name="Mask Group 361" transform="translate(-88 -525)" clip-path="url(#clip-path)">
    <path id="github_2_" data-name="github (2)" d="M12,.5A11.9,11.9,0,0,0,0,12.292,11.812,11.812,0,0,0,8.2,23.48c.6.111.82-.254.82-.567,0-.28-.01-1.022-.015-2-3.338.711-4.042-1.582-4.042-1.582A3.143,3.143,0,0,0,3.633,17.6c-1.087-.731.084-.716.084-.716A2.51,2.51,0,0,1,5.555,18.1a2.584,2.584,0,0,0,3.495.981A2.5,2.5,0,0,1,9.81,17.5c-2.665-.3-5.466-1.309-5.466-5.827A4.505,4.505,0,0,1,5.579,8.513a4.126,4.126,0,0,1,.105-3.121s1.005-.316,3.3,1.209a11.506,11.506,0,0,1,6,0c2.28-1.525,3.285-1.209,3.285-1.209a4.24,4.24,0,0,1,.12,3.121,4.523,4.523,0,0,1,1.23,3.164c0,4.53-2.805,5.527-5.475,5.817a2.8,2.8,0,0,1,.81,2.182c0,1.578-.015,2.846-.015,3.229,0,.309.21.678.825.56A11.776,11.776,0,0,0,24,12.292,11.9,11.9,0,0,0,12,.5Z" transform="translate(88 525)" fill="#212121"/>
  </g>
</svg>
