<svg xmlns="http://www.w3.org/2000/svg" xmlns:xlink="http://www.w3.org/1999/xlink" width="13" height="13" viewBox="0 0 13 13">
  <defs>
    <clipPath id="clip-path">
      <rect id="Rectangle_4818" data-name="Rectangle 4818" width="13" height="13" transform="translate(3592.521 -10043.479)" fill="#fff"/>
    </clipPath>
  </defs>
  <g id="Mask_Group_332" data-name="Mask Group 332" transform="translate(-3592.521 10043.479)" clip-path="url(#clip-path)">
    <path id="Octicons-mark-github" d="M6.26,0A6.26,6.26,0,0,0,4.28,12.2c.313.055.43-.133.43-.3,0-.149-.008-.642-.008-1.166-1.573.29-1.98-.383-2.1-.736a2.276,2.276,0,0,0-.642-.884C1.737,9,1.424,8.709,1.948,8.7a1.253,1.253,0,0,1,.963.642,1.338,1.338,0,0,0,1.823.516,1.317,1.317,0,0,1,.4-.837c-1.393-.157-2.848-.7-2.848-3.091a2.436,2.436,0,0,1,.642-1.682A2.25,2.25,0,0,1,2.989,2.59s.524-.164,1.722.642a5.9,5.9,0,0,1,3.13,0c1.2-.814,1.722-.642,1.722-.642a2.25,2.25,0,0,1,.063,1.659,2.422,2.422,0,0,1,.642,1.682c0,2.4-1.463,2.934-2.856,3.091a1.483,1.483,0,0,1,.423,1.158c0,.837-.008,1.51-.008,1.722,0,.164.117.36.43.3A6.264,6.264,0,0,0,6.26,0Z" transform="translate(3593 -10042.846)" fill="#fff" fill-rule="evenodd"/>
  </g>
</svg>
