<svg xmlns="http://www.w3.org/2000/svg" xmlns:xlink="http://www.w3.org/1999/xlink" width="40" height="40" viewBox="0 0 40 40">
  <defs>
    <clipPath id="clip-path">
      <rect id="Rectangle_4791" data-name="Rectangle 4791" width="40" height="40" transform="translate(0 0)" fill="#fff" stroke="#707070" stroke-width="1"/>
    </clipPath>
  </defs>
  <g id="Mask_Group_321" data-name="Mask Group 321" clip-path="url(#clip-path)">
    <g id="postgresql" transform="translate(0.601 0)">
      <path id="Path_2834" data-name="Path 2834" d="M38.75,24.027a1.968,1.968,0,0,0-1.634-1.316,3.742,3.742,0,0,0-1.3.072,11.719,11.719,0,0,1-2.009.264,38.75,38.75,0,0,0,4.1-9.757c1.361-5.27.634-7.671-.216-8.757A11.77,11.77,0,0,0,28.2.068a16.819,16.819,0,0,0-4.934.691A18.369,18.369,0,0,0,20.379.495a9.379,9.379,0,0,0-5.025,1.238A22.913,22.913,0,0,0,11.8.842C8.335.272,5.538.716,3.492,2.161,1.015,3.911-.133,6.951.079,11.2a51.93,51.93,0,0,0,2.009,9.34,32.256,32.256,0,0,0,2.163,5.519c1.068,2.023,2.21,3.214,3.492,3.642a3.433,3.433,0,0,0,3.4-.737,2.972,2.972,0,0,0,.715.615,4.755,4.755,0,0,0,1.348.568,7.241,7.241,0,0,0,4.714-.281c.009.245.015.479.021.681.009.328.018.649.03.949a16.63,16.63,0,0,0,.629,4.717c.022.061.053.153.085.252A5.679,5.679,0,0,0,20.1,38.956a4.222,4.222,0,0,0,2.986,1.11,6.711,6.711,0,0,0,1.4-.155,6.561,6.561,0,0,0,4.412-2.552c1.159-1.65,1.722-4.135,1.824-8.05.013-.111.025-.216.037-.317l.024-.207.273.024.07,0a10.8,10.8,0,0,0,4.519-.783c.9-.418,3.791-1.944,3.111-4" transform="translate(-0.054 -0.066)"/>
      <path id="Path_2835" data-name="Path 2835" d="M36.487,24.764c-4.518.932-4.829-.6-4.829-.6C36.429,17.088,38.423,8.1,36.7,5.9c-4.695-6-12.822-3.162-12.957-3.088l-.044.008a16.114,16.114,0,0,0-3.014-.314,7.445,7.445,0,0,0-4.772,1.428S1.417-2.035,2.092,11.449c.143,2.869,4.112,21.705,8.844,16.016,1.73-2.081,3.4-3.84,3.4-3.84a4.387,4.387,0,0,0,2.866.732l.081-.069a3.157,3.157,0,0,0,.032.81c-1.219,1.362-.861,1.6-3.3,2.1-2.466.508-1.018,1.413-.072,1.65a5.011,5.011,0,0,0,5.593-1.817l-.071.286c.478.383.813,2.489.757,4.4a12.115,12.115,0,0,0,.283,4.244c.377,1.024.752,3.328,3.956,2.641,2.677-.574,4.065-2.061,4.258-4.541.137-1.763.447-1.5.466-3.079l.249-.746c.287-2.39.046-3.161,1.695-2.8l.4.035a9.137,9.137,0,0,0,3.736-.629c2.008-.932,3.2-2.488,1.219-2.079h0" transform="translate(-0.39 -0.402)" fill="#336791"/>
      <path id="Path_2836" data-name="Path 2836" d="M19.48,14.8a1.4,1.4,0,0,0-.962.137.353.353,0,0,0-.146.235.686.686,0,0,0,.167.449,1.258,1.258,0,0,0,.8.5.909.909,0,0,0,.128.009,1.036,1.036,0,0,0,.981-.667c.049-.355-.466-.591-.965-.661m13.488.011c-.039-.278-.534-.357-1-.292s-.924.277-.886.556a.953.953,0,0,0,.885.587.846.846,0,0,0,.118-.008,1.141,1.141,0,0,0,.644-.352.71.71,0,0,0,.242-.49" transform="translate(-3.107 -2.472)" fill="#fff"/>
      <path id="Path_2837" data-name="Path 2837" d="M37.872,24.535c-.172-.521-.727-.688-1.648-.5-2.735.565-3.715.173-4.036-.063a37.61,37.61,0,0,0,4.819-10.807,20.534,20.534,0,0,0,.714-4.647,5.019,5.019,0,0,0-.728-3.139,10.689,10.689,0,0,0-8.641-4.035,14.8,14.8,0,0,0-5,.787,12.453,12.453,0,0,0-2.811-.361A8.12,8.12,0,0,0,15.729,3.1a21.5,21.5,0,0,0-3.914-1.026c-3.171-.51-5.691-.124-7.489,1.15C2.181,4.742,1.19,7.459,1.382,11.3a50.7,50.7,0,0,0,1.962,9.069c1.529,5.008,3.19,7.843,4.939,8.426a2.212,2.212,0,0,0,.7.116,2.928,2.928,0,0,0,2.233-1.265q1.488-1.786,3.078-3.483a4.959,4.959,0,0,0,2.215.6c0,.02,0,.04.005.06q-.2.238-.39.482c-.535.679-.646.821-2.369,1.175-.49.1-1.791.369-1.81,1.281-.021,1,1.538,1.415,1.716,1.459a7.348,7.348,0,0,0,1.784.231,5.191,5.191,0,0,0,3.573-1.334c-.03,3.553.118,7.054.545,8.12a4.077,4.077,0,0,0,3.9,3.007,6.254,6.254,0,0,0,1.31-.149c2.814-.6,4.036-1.847,4.508-4.588.253-1.465.687-4.964.891-6.841a5.513,5.513,0,0,0,1.585.2,9.435,9.435,0,0,0,3.6-.686c1.017-.472,2.851-1.631,2.519-2.637Zm-6.7-12.682a11.382,11.382,0,0,1-.166,1.582,14.612,14.612,0,0,0-.2,1.857,14.084,14.084,0,0,0,.147,2.1,7.481,7.481,0,0,1-.328,4.266,5.545,5.545,0,0,1-.3-.609c-.083-.2-.264-.525-.513-.973-.972-1.743-3.249-5.826-2.083-7.492.347-.5,1.228-1.006,3.439-.731Zm-2.68-9.387a9.453,9.453,0,0,1,7.62,3.6c1.392,1.779-.141,9.874-4.579,16.858l-.135-.17-.056-.07a7.891,7.891,0,0,0,.723-5.429,13.019,13.019,0,0,1-.14-1.931,13.675,13.675,0,0,1,.187-1.723,10.877,10.877,0,0,0,.175-2.132.884.884,0,0,0,.019-.3,11.972,11.972,0,0,0-2.731-5.136,12.3,12.3,0,0,0-4.341-3.264,14.637,14.637,0,0,1,3.257-.306ZM10.355,26.928c-.9,1.078-1.515.871-1.719.8-1.326-.442-2.865-3.246-4.222-7.691a50.239,50.239,0,0,1-1.914-8.8c-.171-3.43.66-5.82,2.471-7.105,2.948-2.09,7.794-.839,9.742-.2-.028.028-.057.053-.085.082-3.2,3.227-3.12,8.741-3.112,9.079,0,.13.011.314.026.567a22.813,22.813,0,0,1-.116,4.608,5.828,5.828,0,0,0,1.536,4.878q.189.2.4.375c-.548.586-1.737,1.883-3,3.407Zm3.415-4.557a4.715,4.715,0,0,1-1.236-3.948,23.85,23.85,0,0,0,.125-4.829c-.008-.135-.015-.254-.019-.347.467-.414,2.63-1.573,4.173-1.22a1.7,1.7,0,0,1,1.311,1.465c.923,4.269.122,6.049-.521,7.479-.133.295-.258.573-.365.861l-.083.223a14.6,14.6,0,0,0-.526,1.584,3.983,3.983,0,0,1-2.859-1.267Zm.162,5.758a2.475,2.475,0,0,1-.747-.321,3.648,3.648,0,0,1,.8-.237c2.026-.417,2.339-.711,3.022-1.579.157-.2.334-.424.58-.7h0c.366-.41.534-.341.838-.215a1.185,1.185,0,0,1,.583.75.835.835,0,0,1-.071.7A4.429,4.429,0,0,1,13.932,28.129ZM24.536,38c-2.479.531-3.356-.734-3.935-2.179-.373-.933-.557-5.142-.427-9.791a.56.56,0,0,0-.024-.178,2.347,2.347,0,0,0-.069-.328,2.269,2.269,0,0,0-1.231-1.477,1.736,1.736,0,0,0-1.133-.137,13.694,13.694,0,0,1,.488-1.461l.083-.224c.094-.253.212-.514.336-.792.673-1.5,1.6-3.545.595-8.175a2.92,2.92,0,0,0-3.525-2.384,8.134,8.134,0,0,0-2.7.84c-.112.057-.214.111-.309.164.145-1.747.692-5.012,2.741-7.078a6.73,6.73,0,0,1,5.1-1.908,10.81,10.81,0,0,1,8.259,3.947,12.535,12.535,0,0,1,2.26,3.875c-2.09-.213-3.511.2-4.231,1.23-1.567,2.24.857,6.589,2.023,8.679.214.383.4.714.456.855a7.76,7.76,0,0,0,1.229,1.982c.11.137.217.271.3.387-.633.182-1.77.6-1.666,2.711-.084,1.057-.678,6.008-.98,7.757-.4,2.311-1.249,3.171-3.64,3.684Zm10.346-11.84a8.163,8.163,0,0,1-2.759.574,3.46,3.46,0,0,1-1.851-.238c-.064-1.313.425-1.45.942-1.6.081-.023.161-.045.237-.072a1.933,1.933,0,0,0,.157.115c.913.6,2.542.668,4.842.193l.025-.005a6.192,6.192,0,0,1-1.594,1.029Z" transform="translate(-0.272 -0.279)" fill="#fff"/>
    </g>
  </g>
</svg>
