<svg width="32" height="32" viewBox="0 0 32 32" fill="none" xmlns="http://www.w3.org/2000/svg">
<rect width="32" height="32" rx="4" fill="#F10176"/>
<path d="M7.94384 8C7.53313 8 7.2002 8.33294 7.2002 8.74364C7.2002 9.15434 7.53313 9.48728 7.94384 9.48728H9.26699C9.37527 9.48728 9.48079 9.52135 9.56862 9.58466C9.65646 9.64797 9.72214 9.73731 9.75637 9.84003L12.2082 17.1967C12.317 17.5234 12.3309 17.8751 12.2474 18.2091L12.0455 19.0181C11.7493 20.203 12.6716 21.3855 13.893 21.3855H22.8167C23.2274 21.3855 23.5603 21.0526 23.5603 20.6419C23.5603 20.2312 23.2274 19.8983 22.8167 19.8983H13.893C13.6034 19.8983 13.4175 19.6607 13.4877 19.3797L13.64 18.7717C13.6658 18.6686 13.7253 18.5772 13.809 18.5118C13.8927 18.4465 13.9959 18.411 14.1021 18.411H22.073C22.3932 18.4111 22.6776 18.2064 22.7789 17.9026L24.7614 11.9535C24.922 11.4718 24.5634 10.9743 24.0556 10.9746H12.0745C11.9663 10.9746 11.8607 10.9405 11.7729 10.8772C11.6851 10.8139 11.6194 10.7245 11.5851 10.6218L10.8806 8.50835C10.7793 8.20462 10.4949 7.99983 10.1748 8H7.94384ZM13.1493 22.1292C12.3279 22.1292 11.662 22.7951 11.662 23.6165C11.662 24.4379 12.3279 25.1037 13.1493 25.1037C13.9707 25.1037 14.6366 24.4379 14.6366 23.6165C14.6366 22.7951 13.9707 22.1292 13.1493 22.1292ZM22.073 22.1292C21.2516 22.1292 20.5857 22.7951 20.5857 23.6165C20.5857 24.4379 21.2516 25.1037 22.073 25.1037C22.8944 25.1037 23.5603 24.4379 23.5603 23.6165C23.5603 22.7951 22.8944 22.1292 22.073 22.1292Z" fill="white"/>
</svg>
