<svg width="32" height="32" viewBox="0 0 32 32" fill="none" xmlns="http://www.w3.org/2000/svg">
<path d="M23.5 13.75V4.375C22.4038 4.375 1.66 4.375 0.625 4.375V20.375C0.625 21.0656 1.18437 21.625 1.875 21.625H8.5V30.125C8.5 30.8156 9.05937 31.375 9.75 31.375H30.125C30.8156 31.375 31.375 30.8156 31.375 30.125V13.75C29.4304 13.75 24.6897 13.75 23.5 13.75Z" fill="white"/>
<path d="M31.375 11.25V13.75H27.625V10H30.125C30.8156 10 31.375 10.5594 31.375 11.25Z" fill="#B1D7FE"/>
<path d="M27.625 10V13.75H8.5V11.25C8.5 10.5594 9.05937 10 9.75 10H27.625Z" fill="#FF6677"/>
<path d="M23.5 1.875V4.375H19.75V0.625H22.25C22.9406 0.625 23.5 1.18437 23.5 1.875Z" fill="#B1D7FE"/>
<path d="M19.75 0.625V4.375H0.625V1.875C0.625 1.18437 1.18437 0.625 1.875 0.625H19.75Z" fill="#FFDB4E"/>
<path d="M19.75 21.625L14.125 25.375V23.5C13.1721 23.5 6.8535 23.5 6.25 23.5C5.21438 23.5 4.375 22.6606 4.375 21.625V17.875C4.375 18.9106 5.21438 19.75 6.25 19.75H14.125V17.875L19.75 21.625Z" fill="#B1D7FE"/>
<path d="M27.625 17.25H21.625C21.2799 17.25 21 17.5298 21 17.875C21 18.2202 21.2799 18.5 21.625 18.5H27.625C27.9701 18.5 28.25 18.2202 28.25 17.875C28.25 17.5298 27.9701 17.25 27.625 17.25Z" fill="black"/>
<path d="M27.625 21H23.5C23.1549 21 22.875 21.2798 22.875 21.625C22.875 21.9702 23.1549 22.25 23.5 22.25H27.625C27.9701 22.25 28.25 21.9702 28.25 21.625C28.25 21.2798 27.9701 21 27.625 21Z" fill="black"/>
<path d="M21.625 26H27.625C27.9701 26 28.25 25.7202 28.25 25.375C28.25 25.0298 27.9701 24.75 27.625 24.75H21.625C21.2799 24.75 21 25.0298 21 25.375C21 25.7202 21.2799 26 21.625 26Z" fill="black"/>
<path d="M20.375 31.375C20.375 31.0298 20.0952 30.75 19.75 30.75C19.4048 30.75 19.125 31.0298 19.125 31.375C19.125 31.7202 19.4048 32 19.75 32C20.0952 32 20.375 31.7202 20.375 31.375Z" fill="black"/>
<path d="M30.125 9.375H24.125V1.875C24.125 0.841125 23.2839 0 22.25 0H1.875C0.841125 0 0 0.841125 0 1.875V20.375C0 21.4089 0.841125 22.25 1.875 22.25H3.82912C4.10737 23.3271 5.08725 24.125 6.25 24.125H7.875V30.125C7.875 31.1589 8.71613 32 9.75 32H16.9375C17.2826 32 17.5625 31.7201 17.5625 31.375C17.5625 31.0299 17.2826 30.75 16.9375 30.75H9.75C9.40538 30.75 9.125 30.4696 9.125 30.125V24.125H13.5V25.375C13.5 25.6055 13.6269 25.8173 13.8301 25.9261C14.0328 26.0346 14.2795 26.0232 14.4717 25.895L20.0967 22.145C20.2706 22.0291 20.375 21.8339 20.375 21.625C20.375 21.4161 20.2706 21.2209 20.0967 21.105L14.4717 17.355C14.28 17.2272 14.0334 17.2152 13.8301 17.3239C13.6269 17.4327 13.5 17.6445 13.5 17.875V19.125H9.125V14.375H30.75V30.125C30.75 30.4696 30.4696 30.75 30.125 30.75H22.5625C22.2174 30.75 21.9375 31.0299 21.9375 31.375C21.9375 31.7201 22.2174 32 22.5625 32H30.125C31.1589 32 32 31.1589 32 30.125V11.25C32 10.2161 31.1589 9.375 30.125 9.375ZM22.875 1.875V3.75H20.375V1.25H22.25C22.5946 1.25 22.875 1.53038 22.875 1.875ZM1.875 1.25H19.125V3.75H1.25V1.875C1.25 1.53038 1.53038 1.25 1.875 1.25ZM14.125 20.375C14.4701 20.375 14.75 20.0952 14.75 19.75V19.0428L18.6233 21.625L14.75 24.2072V23.5C14.75 23.1548 14.4701 22.875 14.125 22.875H6.25C5.56075 22.875 5 22.3142 5 21.625V20.0395C5.36794 20.2528 5.795 20.375 6.25 20.375H14.125ZM6.25 19.125C5.56075 19.125 5 18.5642 5 17.875C5 17.5298 4.72012 17.25 4.375 17.25C4.02988 17.25 3.75 17.5298 3.75 17.875V21H1.875C1.53038 21 1.25 20.7196 1.25 20.375V5H22.875V9.375H9.75C8.71613 9.375 7.875 10.2161 7.875 11.25V19.125H6.25ZM9.125 11.25C9.125 10.9054 9.40538 10.625 9.75 10.625H27V13.125H9.125V11.25ZM28.25 13.125V10.625H30.125C30.4696 10.625 30.75 10.9054 30.75 11.25V13.125H28.25Z" fill="black"/>
</svg>
