<svg width="16" height="16" viewBox="0 0 16 16" fill="none" xmlns="http://www.w3.org/2000/svg">
<mask id="mask0_181_1055" style="mask-type:luminance" maskUnits="userSpaceOnUse" x="0" y="0" width="16" height="16">
<path d="M16 0H0V16H16V0Z" fill="white"/>
</mask>
<g mask="url(#mask0_181_1055)">
<path d="M1.34798 9.81534L1.61998 8.22034C1.94098 6.33534 2.10198 5.39334 2.73798 4.83534C3.37398 4.27734 4.28798 4.27734 6.11498 4.27734H9.88498C11.712 4.27734 12.626 4.27734 13.262 4.83534C13.898 5.39334 14.062 6.33534 14.38 8.22034L14.652 9.81534C15.097 12.4233 15.319 13.7273 14.634 14.5843C13.949 15.4413 12.685 15.4403 10.156 15.4403H5.84398C3.31498 15.4403 2.05098 15.4403 1.36598 14.5843C0.680979 13.7283 0.903979 12.4233 1.34798 9.81534Z" stroke="#000000" stroke-width="1.2"/>
<path d="M4.65088 5.76865L4.81088 3.52865C4.87739 2.72861 5.24218 1.98279 5.83289 1.43915C6.4236 0.895501 7.19708 0.59375 7.99988 0.59375C8.80268 0.59375 9.57615 0.895501 10.1669 1.43915C10.7576 1.98279 11.1224 2.72861 11.1889 3.52865L11.3489 5.76865" stroke="#000000" stroke-width="1.2" stroke-linecap="round"/>
</g>
</svg>
