<svg width="24" height="24" viewBox="0 0 24 24" fill="none" xmlns="http://www.w3.org/2000/svg">
<path d="M8 16L16.7201 15.2733C19.4486 15.046 20.0611 14.45 20.3635 11.7289L21 6" stroke="#10A37F" stroke-width="1.5" stroke-linecap="round"/>
<path d="M6 6H22" stroke="#10A37F" stroke-width="1.5" stroke-linecap="round"/>
<path d="M6 22C7.10457 22 8 21.1046 8 20C8 18.8954 7.10457 18 6 18C4.89543 18 4 18.8954 4 20C4 21.1046 4.89543 22 6 22Z" stroke="#10A37F" stroke-width="1.5"/>
<path d="M17 22C18.1046 22 19 21.1046 19 20C19 18.8954 18.1046 18 17 18C15.8954 18 15 18.8954 15 20C15 21.1046 15.8954 22 17 22Z" stroke="#10A37F" stroke-width="1.5"/>
<path d="M8 20H15" stroke="#10A37F" stroke-width="1.5" stroke-linecap="round"/>
<path d="M2 2H2.966C3.91068 2 4.73414 2.62459 4.96326 3.51493L7.93852 15.0765C8.08887 15.6608 7.9602 16.2797 7.58824 16.7616L6.63213 18" stroke="#10A37F" stroke-width="1.5" stroke-linecap="round"/>
</svg>
