<svg width="32" height="32" viewBox="0 0 32 32" fill="none" xmlns="http://www.w3.org/2000/svg">
<path d="M29.0313 7.09375V27.5934C29.0313 28.974 27.9119 30.0934 26.5313 30.0934H5.46914C4.08854 30.0934 2.96918 28.974 2.96918 27.5934V7.09375H29.0313Z" fill="#F5F5F5"/>
<path d="M6.71912 30.0934H5.46914C4.08854 30.0934 2.96918 28.974 2.96918 27.5934V7.09375H4.21916V27.5934C4.21916 28.974 5.33852 30.0934 6.71912 30.0934Z" fill="#E6E6E6"/>
<path d="M29.0313 8.21875V16.3643C28.8688 16.3918 28.7019 16.4061 28.5313 16.4061H28.0938C27.2651 16.4061 26.5151 16.0705 25.9726 15.5274C25.4295 14.9849 25.0938 14.2349 25.0938 13.4062C25.0938 14.2349 24.7582 14.9849 24.2151 15.5274C23.6726 16.0705 22.9226 16.4061 22.0939 16.4061C20.437 16.4061 19.0939 15.063 19.0939 13.4062C19.0939 15.063 17.7508 16.4061 16.094 16.4061H16.0315C15.2027 16.4061 14.4528 16.0705 13.9103 15.5274C13.3671 14.9849 13.0315 14.2349 13.0315 13.4062C13.0315 15.063 11.6884 16.4061 10.0316 16.4061H9.90657C9.07783 16.4061 8.32785 16.0705 7.78535 15.5274C7.24224 14.9849 6.90662 14.2349 6.90662 13.4062C6.90662 15.063 5.56351 16.4061 3.90666 16.4061H3.46917C3.29855 16.4061 3.13167 16.3918 2.96918 16.3643V8.21875H29.0313Z" fill="#E6E6E6"/>
<path d="M7.58038 7.09374L6.96976 11.2849C6.92789 11.6155 6.90664 11.948 6.90664 12.2812C6.90664 12.3337 6.90539 12.3855 6.90289 12.4374C6.82164 14.0218 5.51104 15.2811 3.90669 15.2811H3.46919C2.64046 15.2811 1.89047 14.9455 1.34797 14.4024C0.839233 13.8943 0.512363 13.2043 0.472988 12.4374C0.470488 12.3855 0.469238 12.3337 0.469238 12.2812C0.469238 11.9518 0.541737 11.6268 0.68236 11.3287L2.9692 7.09374L5.07092 6.46875L7.58038 7.09374Z" fill="#FD646F"/>
<path d="M13.0315 7.09374V12.2812C13.0315 12.3337 13.0303 12.3855 13.0278 12.4374C12.9465 14.0218 11.6359 15.2811 10.0316 15.2811H9.90657C9.07783 15.2811 8.32784 14.9455 7.78535 14.4024C7.27661 13.8943 6.94974 13.2043 6.91037 12.4374C6.90787 12.3855 6.90662 12.3337 6.90662 12.2812C6.90662 11.948 6.92787 11.6155 6.96974 11.2849L7.58036 7.09374L10.2198 6.46875L13.0315 7.09374Z" fill="#FFC682"/>
<path d="M19.094 7.09374V12.2812C19.094 12.3337 19.0927 12.3855 19.0902 12.4374C19.009 14.0218 17.6984 15.2811 16.094 15.2811H16.0315C14.4272 15.2811 13.1166 14.0218 13.0353 12.4374C13.0328 12.3855 13.0316 12.3337 13.0316 12.2812V7.09374L16.1253 6.46875L19.094 7.09374Z" fill="#FD646F"/>
<path d="M25.0938 12.2812C25.0938 12.3337 25.0926 12.3855 25.0901 12.4374C25.0507 13.2043 24.7238 13.8943 24.2151 14.4024C23.6726 14.9455 22.9226 15.2811 22.0939 15.2811C20.4895 15.2811 19.1789 14.0218 19.0977 12.4374C19.0952 12.3855 19.0939 12.3337 19.0939 12.2812V7.09374L21.8751 6.46875L24.4826 7.09374L25.037 11.2843C25.0745 11.6155 25.0938 11.948 25.0938 12.2812Z" fill="#FFC682"/>
<path d="M31.5312 12.2812C31.5312 12.3337 31.53 12.3855 31.5275 12.4374C31.4463 14.0218 30.1356 15.2811 28.5313 15.2811H28.0938C27.2651 15.2811 26.5151 14.9455 25.9726 14.4024C25.4638 13.8943 25.137 13.2043 25.0976 12.4374C25.0951 12.3855 25.0938 12.3337 25.0938 12.2812C25.0938 11.948 25.0745 11.6155 25.037 11.2843L24.4826 7.09374L26.7514 6.46875L29.0313 7.09374L31.3181 11.3287C31.3888 11.4774 31.4419 11.6337 31.4775 11.793C31.5131 11.953 31.5312 12.1162 31.5312 12.2812Z" fill="#FD646F"/>
<path d="M22.1159 18.9989C22.1437 18.8611 22.1082 18.7181 22.0192 18.6094C21.9301 18.5006 21.797 18.4375 21.6564 18.4375H11.0908L11.0749 18.3629C10.9078 17.5732 10.2006 17 9.39347 17H8.59405C8.33518 17 8.12531 17.2098 8.12531 17.4687C8.12531 17.7277 8.33518 17.9375 8.59405 17.9375H9.39347C9.76034 17.9375 10.0818 18.198 10.1578 18.5569L11.5506 25.137C11.6822 25.7586 12.1489 26.2446 12.735 26.424C12.6644 26.5915 12.6252 26.7756 12.6252 26.9686C12.6252 27.744 13.256 28.3748 14.0315 28.3748C14.8069 28.3748 15.4377 27.744 15.4377 26.9686C15.4377 26.8043 15.4091 26.6465 15.3571 26.4999H17.4558C17.4037 26.6465 17.3752 26.8043 17.3752 26.9686C17.3752 27.744 18.006 28.3748 18.7814 28.3748C19.5568 28.3748 20.1876 27.744 20.1876 26.9686C20.1876 26.8043 20.159 26.6465 20.107 26.4999H20.2189C20.4777 26.4999 20.6876 26.29 20.6876 26.0311C20.6876 25.7722 20.4777 25.5624 20.2189 25.5624H13.2321C12.8652 25.5624 12.5438 25.3019 12.4678 24.9429L12.3476 24.3749H14.7171C14.7175 24.3749 14.718 24.375 14.7184 24.375C14.7187 24.375 14.719 24.3749 14.7194 24.3749H17.7185C17.7188 24.3749 17.7192 24.375 17.7195 24.375C17.72 24.375 17.7204 24.3749 17.7208 24.3749H20.6477C20.8708 24.3749 21.063 24.2176 21.1072 23.9988L21.5997 21.5576C21.6125 21.5202 21.6206 21.4807 21.6235 21.4397L22.1159 18.9989ZM14.5003 26.9685C14.5003 27.227 14.29 27.4373 14.0315 27.4373C13.773 27.4373 13.5628 27.227 13.5628 26.9685C13.5628 26.71 13.773 26.4998 14.0315 26.4998C14.29 26.4998 14.5003 26.7101 14.5003 26.9685ZM19.2502 26.9685C19.2502 27.227 19.04 27.4373 18.7815 27.4373C18.523 27.4373 18.3127 27.227 18.3127 26.9685C18.3127 26.71 18.523 26.4998 18.7815 26.4998C19.04 26.4998 19.2502 26.7101 19.2502 26.9685ZM20.7684 20.9374H18.5625L18.7578 19.3749H21.0837L20.7684 20.9374ZM15.1328 23.4373L14.9375 21.8749H17.5005L17.3052 23.4373H15.1328ZM14.8203 20.9374L14.625 19.3749H17.813L17.6177 20.9374H14.8203ZM13.6802 19.3749L13.8755 20.9374H11.6199L11.2892 19.3749H13.6802ZM11.8184 21.8749H13.9927L14.188 23.4373H12.1491L11.8184 21.8749ZM18.2499 23.4373L18.4452 21.8749H20.5792L20.264 23.4373H18.2499Z" fill="#50758D"/>
<path d="M0.472961 12.4375H6.90286C6.82162 14.0219 5.51101 15.2812 3.90666 15.2812H3.46917C2.64043 15.2812 1.89044 14.9456 1.34795 14.4025C0.839206 13.8944 0.512336 13.2044 0.472961 12.4375Z" fill="#FC4755"/>
<path d="M6.9104 12.4375H13.0278C12.9466 14.0219 11.636 15.2812 10.0316 15.2812H9.90661C9.07787 15.2812 8.32788 14.9456 7.78539 14.4025C7.27664 13.8944 6.94977 13.2044 6.9104 12.4375Z" fill="#FFAC5C"/>
<path d="M13.0353 12.4375H19.0902C19.0089 14.0219 17.6983 15.2812 16.094 15.2812H16.0315C14.4271 15.2812 13.1165 14.0219 13.0353 12.4375Z" fill="#FC4755"/>
<path d="M19.0977 12.4375H25.0901C25.0508 13.2044 24.7239 13.8944 24.2151 14.4025C23.6726 14.9456 22.9227 15.2812 22.0939 15.2812C20.4896 15.2812 19.179 14.0219 19.0977 12.4375Z" fill="#FFAC5C"/>
<path d="M31.5275 12.4375C31.4462 14.0219 30.1356 15.2812 28.5313 15.2812H28.0938C27.2651 15.2812 26.5151 14.9456 25.9726 14.4025C25.4638 13.8944 25.137 13.2044 25.0976 12.4375H31.5275Z" fill="#FC4755"/>
<path d="M2.96918 7.09367V3.96871C2.96918 2.58805 4.08847 1.46875 5.46914 1.46875H26.5313C27.912 1.46875 29.0313 2.58805 29.0313 3.96871V7.09367H2.96918Z" fill="#50758D"/>
<path d="M6.8973 5.178C7.10742 4.93218 7.2348 4.61356 7.2348 4.26562C7.2348 3.49025 6.60399 2.85938 5.82855 2.85938C5.3913 2.85938 5.00005 3.06 4.74193 3.37406C4.6228 3.51294 4.50374 3.65181 4.38474 3.79075C4.17461 4.03656 4.0473 4.35512 4.0473 4.70312C4.0473 5.4785 4.67811 6.10937 5.45355 6.10937C5.89086 6.10937 6.28211 5.90868 6.54024 5.59462C6.54611 5.58768 6.7843 5.31 6.8973 5.178Z" fill="#2B597F"/>
<path d="M10.6004 5.19362C10.8105 4.94781 10.9379 4.62918 10.9379 4.28125C10.9379 3.50587 10.3071 2.875 9.53161 2.875C9.09436 2.875 8.70311 3.07562 8.44499 3.38969C8.32587 3.52856 8.2068 3.66744 8.0878 3.80637C7.87768 4.05219 7.75037 4.37075 7.75037 4.71875C7.75037 5.49412 8.38118 6.125 9.15661 6.125C9.59393 6.125 9.98518 5.92431 10.2433 5.61025C10.2492 5.60331 10.4874 5.32562 10.6004 5.19362Z" fill="#2B597F"/>
<path d="M14.2878 5.19362C14.4979 4.94781 14.6253 4.62918 14.6253 4.28125C14.6253 3.50587 13.9945 2.875 13.2191 2.875C12.7818 2.875 12.3906 3.07562 12.1324 3.38969C12.0133 3.52856 11.8942 3.66744 11.7752 3.80637C11.5651 4.05219 11.4378 4.37075 11.4378 4.71875C11.4378 5.49412 12.0686 6.125 12.8441 6.125C13.2814 6.125 13.6726 5.92431 13.9307 5.61025C13.9366 5.60331 14.1748 5.32562 14.2878 5.19362Z" fill="#2B597F"/>
<path d="M5.82855 5.67187C5.05311 5.67187 4.4223 5.041 4.4223 4.26562C4.4223 3.49025 5.05311 2.85938 5.82855 2.85938C6.60399 2.85938 7.2348 3.49025 7.2348 4.26562C7.2348 5.041 6.60392 5.67187 5.82855 5.67187Z" fill="#FD646F"/>
<path d="M9.53161 5.6875C8.75618 5.6875 8.12537 5.05662 8.12537 4.28125C8.12537 3.50587 8.75618 2.875 9.53161 2.875C10.3071 2.875 10.9379 3.50587 10.9379 4.28125C10.9379 5.05662 10.307 5.6875 9.53161 5.6875Z" fill="#FFC682"/>
<path d="M13.2191 5.6875C12.4436 5.6875 11.8128 5.05662 11.8128 4.28125C11.8128 3.50587 12.4436 2.875 13.2191 2.875C13.9945 2.875 14.6253 3.50587 14.6253 4.28125C14.6253 5.05662 13.9944 5.6875 13.2191 5.6875Z" fill="#93DDB7"/>
<path d="M27.2876 5.19359C27.4977 4.94778 27.6251 4.62916 27.6251 4.28123C27.6251 3.50587 26.9943 2.875 26.2188 2.875H17.9065C17.4692 2.875 17.078 3.07562 16.8199 3.38968C16.7007 3.52855 16.5817 3.66743 16.4627 3.80636C16.2526 4.05217 16.1252 4.37073 16.1252 4.71872C16.1252 5.49409 16.756 6.12495 17.5315 6.12495H25.8438C26.2812 6.12495 26.6724 5.92427 26.9305 5.61021C26.9364 5.60327 27.1746 5.32559 27.2876 5.19359Z" fill="#2B597F"/>
<path d="M26.2188 5.68746H17.9065C17.131 5.68746 16.5002 5.05659 16.5002 4.28123C16.5002 3.50587 17.131 2.875 17.9065 2.875H26.2188C26.9943 2.875 27.6251 3.50587 27.6251 4.28123C27.6251 5.05659 26.9942 5.68746 26.2188 5.68746Z" fill="#F5F5F5"/>
<path d="M9.53161 5.6875C8.75618 5.6875 8.12537 5.05662 8.12537 4.28125C8.12537 3.50587 8.75618 2.875 9.53161 2.875C10.3071 2.875 10.9379 3.50587 10.9379 4.28125C10.9379 5.05662 10.307 5.6875 9.53161 5.6875Z" fill="#FFC682"/>
<path d="M13.2191 5.6875C12.4436 5.6875 11.8128 5.05662 11.8128 4.28125C11.8128 3.50587 12.4436 2.875 13.2191 2.875C13.9945 2.875 14.6253 3.50587 14.6253 4.28125C14.6253 5.05662 13.9944 5.6875 13.2191 5.6875Z" fill="#93DDB7"/>
<path d="M4.4223 4.26562C4.4223 5.041 5.05311 5.67187 5.82855 5.67187C6.60399 5.67187 7.2348 5.041 7.2348 4.26562C7.2348 3.49025 6.60399 2.85938 5.82855 2.85938C5.05311 2.85938 4.4223 3.49025 4.4223 4.26562ZM6.2973 4.26562C6.2973 4.52412 6.08705 4.73437 5.82855 4.73437C5.57005 4.73437 5.3598 4.52412 5.3598 4.26562C5.3598 4.00712 5.57005 3.79687 5.82855 3.79687C6.08705 3.79687 6.2973 4.00719 6.2973 4.26562Z" fill="black"/>
<path d="M8.12537 4.28125C8.12537 5.05662 8.75618 5.6875 9.53161 5.6875C10.3071 5.6875 10.9379 5.05662 10.9379 4.28125C10.9379 3.50587 10.3071 2.875 9.53161 2.875C8.75618 2.875 8.12537 3.50587 8.12537 4.28125ZM10.0004 4.28125C10.0004 4.53975 9.79011 4.75 9.53161 4.75C9.27311 4.75 9.06286 4.53975 9.06286 4.28125C9.06286 4.02275 9.27311 3.8125 9.53161 3.8125C9.79011 3.8125 10.0004 4.02281 10.0004 4.28125Z" fill="black"/>
<path d="M11.8128 4.28125C11.8128 5.05662 12.4436 5.6875 13.2191 5.6875C13.9945 5.6875 14.6253 5.05662 14.6253 4.28125C14.6253 3.50587 13.9945 2.875 13.2191 2.875C12.4436 2.875 11.8128 3.50587 11.8128 4.28125ZM13.6878 4.28125C13.6878 4.53975 13.4776 4.75 13.2191 4.75C12.9606 4.75 12.7503 4.53975 12.7503 4.28125C12.7503 4.02275 12.9606 3.8125 13.2191 3.8125C13.4776 3.8125 13.6878 4.02281 13.6878 4.28125Z" fill="black"/>
<path d="M16.5002 4.28123C16.5002 5.05659 17.131 5.68746 17.9065 5.68746H26.2188C26.9943 5.68746 27.6251 5.05659 27.6251 4.28123C27.6251 3.50587 26.9943 2.875 26.2188 2.875H17.9065C17.131 2.875 16.5002 3.50587 16.5002 4.28123ZM26.6876 4.28123C26.6876 4.53972 26.4773 4.74997 26.2188 4.74997H17.9065C17.648 4.74997 17.4377 4.53972 17.4377 4.28123C17.4377 4.02273 17.648 3.81249 17.9065 3.81249H26.2188C26.4773 3.81249 26.6876 4.0228 26.6876 4.28123Z" fill="black"/>
<path d="M32 12.2811C32 11.8854 31.9109 11.4871 31.7425 11.1291C31.7388 11.1213 31.7349 11.1135 31.7308 11.106L29.5 6.97516V3.96871C29.5 2.33179 28.1682 1 26.5313 1H23.3126C23.0538 1 22.8439 1.20981 22.8439 1.46874C22.8439 1.72768 23.0538 1.93749 23.3126 1.93749H26.5313C27.6513 1.93749 28.5626 2.84866 28.5626 3.96871V6.62492H3.43793V3.96871C3.43793 2.84866 4.34917 1.93749 5.46915 1.93749H21.1252C21.384 1.93749 21.5939 1.72768 21.5939 1.46874C21.5939 1.20981 21.384 1 21.1252 1H5.46915C3.83224 1 2.50045 2.33179 2.50045 3.96871V6.97522L1.50871 8.8117C1.38571 9.0395 1.47065 9.32381 1.6984 9.44687C1.76921 9.48506 1.84552 9.50318 1.9207 9.50318C2.08739 9.50318 2.24882 9.41406 2.33357 9.25706L3.24875 7.5624H7.03831L6.50564 11.2174C6.5052 11.2203 6.50482 11.2232 6.50445 11.2261C6.4602 11.5747 6.43782 11.9296 6.43782 12.2811C6.43782 13.6768 5.30234 14.8123 3.90661 14.8123C2.37089 14.9865 0.925969 13.8722 0.937907 12.2811C0.923282 11.8988 1.09815 11.5088 1.29121 11.1871C1.41421 10.9593 1.32928 10.675 1.10153 10.5519C0.873783 10.4291 0.589412 10.5139 0.466351 10.7417C0.188168 11.2009 -0.0103913 11.7389 0.000421037 12.2811C0.000421037 13.8575 1.05784 15.1907 2.50038 15.6111V27.5933C2.50038 29.2303 3.83218 30.5621 5.46909 30.5621H26.5313C28.1682 30.5621 29.5 29.2303 29.5 27.5933V25.6246C29.5 25.3657 29.2901 25.1559 29.0312 25.1559C28.7724 25.1559 28.5625 25.3657 28.5625 25.6246V27.5933C28.5625 28.7134 27.6513 29.6246 26.5313 29.6246H5.46909C4.34911 29.6246 3.43787 28.7134 3.43787 27.5933V15.749C3.44831 15.7491 3.90661 15.7498 3.90661 15.7498C5.18659 15.7498 6.30601 15.0524 6.90713 14.0181C7.30612 14.7062 7.93718 15.2548 8.71404 15.5393C8.95078 15.6278 9.22666 15.5058 9.31541 15.2602C9.4044 15.0171 9.27947 14.7479 9.03641 14.6589C8.04286 14.2952 7.37531 13.3396 7.37531 12.2811C7.37518 11.969 7.39656 11.6565 7.43418 11.3467L7.98568 7.5624H12.5627V12.2811C12.5627 13.3396 11.8952 14.2952 10.9016 14.6589C10.6585 14.7479 10.5336 15.0171 10.6226 15.2602C10.7113 15.5057 10.9873 15.6278 11.224 15.5393C12.0009 15.2548 12.6319 14.7061 13.0309 14.0181C13.632 15.0524 14.7514 15.7498 16.0314 15.7498H16.0939C17.3735 15.7498 18.4926 15.0529 19.0939 14.0191C19.6951 15.0529 20.8142 15.7498 22.0938 15.7498C23.3734 15.7498 24.4926 15.0529 25.0938 14.0191C25.695 15.0529 26.8141 15.7498 28.0937 15.7498C28.0937 15.7498 28.5521 15.7492 28.5625 15.749V23.4372C28.5625 23.6962 28.7724 23.906 29.0312 23.906C29.2901 23.906 29.5 23.6962 29.5 23.4372V15.6112C30.9426 15.1908 32 13.8575 32 12.2811ZM16.094 14.8123H16.0315C14.6358 14.8123 13.5003 13.6768 13.5003 12.2811V7.5624H18.6252V12.2811C18.6252 13.6768 17.4897 14.8123 16.094 14.8123ZM22.0939 14.8123C20.6982 14.8123 19.5627 13.6768 19.5627 12.2811V7.5624H24.0718L24.5714 11.3408C24.6058 11.6528 24.6252 11.9671 24.6252 12.2811C24.6251 13.6768 23.4896 14.8123 22.0939 14.8123ZM29.0365 14.7615C28.758 14.815 28.3819 14.8184 28.0938 14.8123C26.6981 14.8123 25.5626 13.6768 25.5626 12.2811C25.5626 11.9313 25.5423 11.578 25.5023 11.2308C25.502 11.2282 25.5017 11.2255 25.5013 11.2229L25.0174 7.5624H28.7517L30.8993 11.5393C31.0061 11.7704 31.0625 12.0266 31.0625 12.2811C31.0625 13.5039 30.191 14.5268 29.0365 14.7615Z" fill="black"/>
<path d="M14.7184 24.375C14.7187 24.375 14.719 24.3749 14.7194 24.3749H17.7185C17.7188 24.3749 17.7192 24.375 17.7195 24.375C17.72 24.375 17.7204 24.3749 17.7208 24.3749H20.6477C20.8708 24.3749 21.063 24.2176 21.1072 23.9988L22.1159 18.9989C22.1797 18.7186 21.9437 18.4304 21.6564 18.4375H11.0908C10.9515 17.6159 10.2285 16.9981 9.39347 17H8.59405C8.33518 17 8.12531 17.2098 8.12531 17.4687C8.12531 17.7277 8.33518 17.9375 8.59405 17.9375H9.39347C9.76034 17.9375 10.0818 18.198 10.1578 18.5569L11.5506 25.137C11.6822 25.7586 12.1489 26.2446 12.735 26.424C12.6644 26.5915 12.6252 26.7756 12.6252 26.9686C12.6252 27.744 13.256 28.3748 14.0315 28.3748C14.8069 28.3748 15.4377 27.744 15.4377 26.9686C15.4377 26.8043 15.4091 26.6465 15.3571 26.4999H17.4558C17.4037 26.6465 17.3752 26.8043 17.3752 26.9686C17.3752 27.744 18.006 28.3748 18.7814 28.3748C19.5568 28.3748 20.1876 27.744 20.1876 26.9686C20.1876 26.8043 20.159 26.6465 20.107 26.4999H20.2189C20.4777 26.4999 20.6876 26.2901 20.6876 26.0311C20.6876 25.7722 20.4777 25.5624 20.2189 25.5624H13.2321C12.8652 25.5624 12.5438 25.3019 12.4678 24.9429L12.3476 24.3749H14.7171C14.7175 24.3749 14.718 24.375 14.7184 24.375ZM14.5003 26.9686C14.5003 27.2271 14.29 27.4373 14.0315 27.4373C13.773 27.4373 13.5628 27.2271 13.5628 26.9686C13.5628 26.7101 13.773 26.4999 14.0315 26.4999C14.29 26.4999 14.5003 26.7102 14.5003 26.9686ZM19.2502 26.9686C19.2502 27.2271 19.04 27.4373 18.7815 27.4373C18.523 27.4373 18.3127 27.2271 18.3127 26.9686C18.3127 26.7101 18.523 26.4999 18.7815 26.4999C19.04 26.4999 19.2502 26.7102 19.2502 26.9686ZM17.5005 21.8749L17.3052 23.4374H15.1328L14.9375 21.8749H17.5005ZM14.8203 20.9374L14.625 19.375H17.813L17.6177 20.9374H14.8203ZM18.2499 23.4374L18.4452 21.8749H20.5792L20.264 23.4374H18.2499ZM20.7684 20.9374H18.5625L18.7578 19.375H21.0837L20.7684 20.9374ZM13.6802 19.375L13.8755 20.9374H11.6199L11.2892 19.375H13.6802ZM11.8184 21.8749H13.9927L14.188 23.4374H12.1491L11.8184 21.8749Z" fill="black"/>
</svg>
