<svg width="10" height="10" viewBox="0 0 10 10" fill="none" xmlns="http://www.w3.org/2000/svg">
<mask id="path-1-inside-1_19_388" fill="white">
<path d="M9.22959 6.24417C9.09203 6.24417 8.98054 6.35566 8.98054 6.49322V8.70452C8.98006 9.11702 8.64588 9.45129 8.23339 9.45168H1.24526C0.832766 9.45129 0.498589 9.11702 0.498103 8.70452V2.2145C0.498589 1.8021 0.832766 1.46783 1.24526 1.46734H3.45656C3.59412 1.46734 3.70561 1.35585 3.70561 1.21829C3.70561 1.08083 3.59412 0.969238 3.45656 0.969238H1.24526C0.557836 0.970017 0.000778286 1.52707 0 2.2145V8.70462C0.000778286 9.39204 0.557836 9.9491 1.24526 9.94988H8.23339C8.92081 9.9491 9.47787 9.39204 9.47865 8.70462V6.49322C9.47865 6.35566 9.36716 6.24417 9.22959 6.24417Z"/>
</mask>
<path d="M8.98054 8.70452L9.98054 8.7057V8.70452H8.98054ZM8.23339 9.45168V10.4517L8.23433 10.4517L8.23339 9.45168ZM1.24526 9.45168L1.24431 10.4517H1.24526V9.45168ZM0.498103 8.70452H-0.501898L-0.501896 8.7057L0.498103 8.70452ZM0.498103 2.2145L-0.501897 2.21332V2.2145H0.498103ZM1.24526 1.46734V0.467341L1.24408 0.467342L1.24526 1.46734ZM1.24526 0.969238V-0.0307623L1.24413 -0.0307611L1.24526 0.969238ZM0 2.2145L-1 2.21336V2.2145H0ZM0 8.70462H-1L-0.999999 8.70575L0 8.70462ZM1.24526 9.94988L1.24413 10.9499H1.24526V9.94988ZM8.23339 9.94988V10.9499L8.23452 10.9499L8.23339 9.94988ZM9.47865 8.70462L10.4786 8.70575V8.70462H9.47865ZM9.22959 5.24417C8.53975 5.24417 7.98054 5.80337 7.98054 6.49322H9.98054C9.98054 6.90794 9.64432 7.24417 9.22959 7.24417V5.24417ZM7.98054 6.49322V8.70452H9.98054V6.49322H7.98054ZM7.98054 8.70334C7.98071 8.56469 8.09317 8.45181 8.23245 8.45168L8.23433 10.4517C9.19859 10.4508 9.97941 9.66934 9.98054 8.7057L7.98054 8.70334ZM8.23339 8.45168H1.24526V10.4517H8.23339V8.45168ZM1.2462 8.45168C1.38547 8.45181 1.49794 8.56469 1.4981 8.70334L-0.501896 8.7057C-0.50076 9.66934 0.28006 10.4508 1.24431 10.4517L1.2462 8.45168ZM1.4981 8.70452V2.2145H-0.501897V8.70452H1.4981ZM1.4981 2.21568C1.49794 2.35456 1.38539 2.46718 1.24644 2.46734L1.24408 0.467342C0.280138 0.468479 -0.50076 1.24964 -0.501896 2.21332L1.4981 2.21568ZM1.24526 2.46734H3.45656V0.467341H1.24526V2.46734ZM3.45656 2.46734C4.14641 2.46734 4.70561 1.90814 4.70561 1.21829H2.70561C2.70561 0.803567 3.04184 0.467341 3.45656 0.467341V2.46734ZM4.70561 1.21829C4.70561 0.528795 4.14666 -0.0307617 3.45656 -0.0307617V1.96924C3.04158 1.96924 2.70561 1.63286 2.70561 1.21829H4.70561ZM3.45656 -0.0307617H1.24526V1.96924H3.45656V-0.0307617ZM1.24413 -0.0307611C0.00530388 -0.0293585 -0.998597 0.974542 -0.999999 2.21336L0.999999 2.21563C1.00015 2.07961 1.11037 1.96939 1.24639 1.96924L1.24413 -0.0307611ZM-1 2.2145V8.70462H1V2.2145H-1ZM-0.999999 8.70575C-0.998597 9.94457 0.00530388 10.9485 1.24413 10.9499L1.24639 8.94988C1.11037 8.94973 1.00015 8.83951 0.999999 8.70349L-0.999999 8.70575ZM1.24526 10.9499H8.23339V8.94988H1.24526V10.9499ZM8.23452 10.9499C9.47334 10.9485 10.4772 9.94457 10.4786 8.70575L8.47865 8.70349C8.47849 8.83951 8.36828 8.94973 8.23226 8.94988L8.23452 10.9499ZM10.4786 8.70462V6.49322H8.47865V8.70462H10.4786ZM10.4786 6.49322C10.4786 5.80337 9.91944 5.24417 9.22959 5.24417V7.24417C8.81487 7.24417 8.47865 6.90794 8.47865 6.49322H10.4786Z" fill="#222222" mask="url(#path-1-inside-1_19_388)"/>
<path d="M7.53075 2.00395L7.99642 2.46962L5.067 5.39904L7.53075 2.00395Z" stroke="#222222"/>
</svg>
