<svg width="14" height="14" viewBox="0 0 14 14" fill="none" xmlns="http://www.w3.org/2000/svg">
<path d="M7 14C6.8187 14 6.64482 13.928 6.51663 13.7998C6.38843 13.6716 6.31641 13.4977 6.31641 13.3164V0.683594C6.31641 0.502293 6.38843 0.328419 6.51663 0.20022C6.64482 0.0720213 6.8187 0 7 0C7.1813 0 7.35518 0.0720213 7.48337 0.20022C7.61157 0.328419 7.68359 0.502293 7.68359 0.683594V13.3164C7.68359 13.4977 7.61157 13.6716 7.48337 13.7998C7.35518 13.928 7.1813 14 7 14Z" fill="#CFCFCF"/>
<path d="M13.3164 7.68359H0.683594C0.502293 7.68359 0.328419 7.61157 0.20022 7.48337C0.0720213 7.35518 0 7.1813 0 7C0 6.8187 0.0720213 6.64482 0.20022 6.51663C0.328419 6.38843 0.502293 6.31641 0.683594 6.31641H13.3164C13.4977 6.31641 13.6716 6.38843 13.7998 6.51663C13.928 6.64482 14 6.8187 14 7C14 7.1813 13.928 7.35518 13.7998 7.48337C13.6716 7.61157 13.4977 7.68359 13.3164 7.68359Z" fill="#CFCFCF"/>
</svg>
