<svg width="16" height="16" viewBox="0 0 16 16" fill="none" xmlns="http://www.w3.org/2000/svg">
<path d="M13.8003 1H2.19971C0.986816 1 0 1.98662 0 3.19971V10.299C0 11.5094 0.98252 12.4944 2.19189 12.4987V15.7203L6.82168 12.4987H13.8003C15.0132 12.4987 16 11.5119 16 10.299V3.19971C16 1.98662 15.0132 1 13.8003 1ZM15.0625 10.299C15.0625 10.9949 14.4963 11.5612 13.8003 11.5612H6.52754L3.12939 13.9259V11.5612H2.19971C1.50371 11.5612 0.9375 10.9949 0.9375 10.299V3.19971C0.9375 2.50361 1.50371 1.9375 2.19971 1.9375H13.8003C14.4963 1.9375 15.0625 2.50361 15.0625 3.19971V10.299Z" fill="#727272"/>
<path d="M4.28223 4.3125H11.7176V5.25H4.28223V4.3125Z" fill="#727272"/>
<path d="M4.28223 6.3125H11.7176V7.25H4.28223V6.3125Z" fill="#727272"/>
<path d="M4.28223 8.3125H11.7176V9.25H4.28223V8.3125Z" fill="#727272"/>
</svg>
