<svg width="16" height="16" viewBox="0 0 16 16" fill="none" xmlns="http://www.w3.org/2000/svg">
<path d="M10.228 15.9928H5.76486C1.72574 15.9928 0 14.2671 0 10.228V5.76486C0 1.72574 1.72574 0 5.76486 0H10.228C14.2671 0 15.9928 1.72574 15.9928 5.76486V10.228C15.9928 14.2671 14.2671 15.9928 10.228 15.9928ZM5.76486 1.11578C2.3357 1.11578 1.11578 2.3357 1.11578 5.76486V10.228C1.11578 13.6571 2.3357 14.8771 5.76486 14.8771H10.228C13.6571 14.8771 14.8771 13.6571 14.8771 10.228V5.76486C14.8771 2.3357 13.6571 1.11578 10.228 1.11578H5.76486Z" fill="#3F3F3F"/>
<path d="M5.76483 7.06678C4.63418 7.06678 3.71924 6.15184 3.71924 5.02118C3.71924 3.89053 4.63418 2.97559 5.76483 2.97559C6.89549 2.97559 7.81043 3.89053 7.81043 5.02118C7.81043 6.15184 6.89549 7.06678 5.76483 7.06678ZM5.76483 4.09137C5.25158 4.09137 4.83502 4.50792 4.83502 5.02118C4.83502 5.53444 5.25158 5.951 5.76483 5.951C6.27809 5.951 6.69465 5.53444 6.69465 5.02118C6.69465 4.50792 6.27809 4.09137 5.76483 4.09137Z" fill="#3F3F3F"/>
<path d="M1.05609 13.7239C0.877562 13.7239 0.699038 13.6347 0.594898 13.4785C0.423812 13.2256 0.490759 12.8759 0.751107 12.7049L4.4183 10.2427C5.22167 9.6997 6.33001 9.76664 7.059 10.384L7.30448 10.5998C7.6764 10.9196 8.30868 10.9196 8.67317 10.5998L11.7676 7.9442C12.5561 7.2673 13.7983 7.2673 14.5942 7.9442L15.8067 8.9856C16.0373 9.18644 16.0671 9.53605 15.8662 9.77408C15.6654 10.0047 15.3158 10.0344 15.0777 9.83359L13.8653 8.7922C13.4933 8.47234 12.8611 8.47234 12.4891 8.7922L9.3947 11.4478C8.60622 12.1247 7.36398 12.1247 6.56806 11.4478L6.32257 11.232C5.9804 10.9419 5.41507 10.9122 5.0357 11.1725L1.36851 13.6347C1.2718 13.6942 1.16023 13.7239 1.05609 13.7239Z" fill="#3F3F3F"/>
</svg>
