<svg width="16" height="16" viewBox="0 0 16 16" fill="none" xmlns="http://www.w3.org/2000/svg">
<path d="M13.76 0H2.24C1.64612 0.000661707 1.07675 0.236873 0.656812 0.656812C0.236873 1.07675 0.000661707 1.64612 0 2.24V13.76C0.000661707 14.3539 0.236873 14.9233 0.656812 15.3432C1.07675 15.7631 1.64612 15.9993 2.24 16H13.76C14.3539 15.9993 14.9233 15.7631 15.3432 15.3432C15.7631 14.9233 15.9993 14.3539 16 13.76V2.24C15.9993 1.64612 15.7631 1.07675 15.3432 0.656812C14.9233 0.236873 14.3539 0.000661707 13.76 0ZM13.5 5H15V7.5H13.5V5ZM13.5 8.5H15V11H13.5V8.5ZM15 2.24V4H13.5V1H13.76C14.0888 1.00026 14.404 1.13099 14.6365 1.36348C14.869 1.59597 14.9997 1.91121 15 2.24ZM2.5 7.5H1V5H2.5V7.5ZM1 8.5H2.5V11H1V8.5ZM2.24 1H2.5V4H1V2.24C1.00026 1.91121 1.13099 1.59597 1.36348 1.36348C1.59597 1.13099 1.91121 1.00026 2.24 1ZM2.24 15C1.91121 14.9997 1.59597 14.869 1.36348 14.6365C1.13099 14.404 1.00026 14.0888 1 13.76V12H2.5V15H2.24ZM3.5 1H12.5V15H3.5V1ZM13.76 15H13.5V12H15V13.76C14.9997 14.0888 14.869 14.404 14.6365 14.6365C14.404 14.869 14.0888 14.9997 13.76 15Z" fill="#3F3F3F"/>
<path d="M11.2685 7.57821L5.7685 4.07821C5.6929 4.03008 5.60575 4.00316 5.51617 4.00026C5.4266 3.99736 5.33789 4.01859 5.25934 4.06173C5.18078 4.10487 5.11526 4.16833 5.06964 4.24546C5.02401 4.3226 4.99996 4.41059 5 4.50021V11.5002C4.99996 11.5898 5.02401 11.6778 5.06964 11.755C5.11526 11.8321 5.18078 11.8956 5.25934 11.9387C5.33789 11.9818 5.4266 12.0031 5.51617 12.0002C5.60575 11.9973 5.6929 11.9703 5.7685 11.9222L11.2685 8.42221C11.3395 8.37707 11.398 8.31472 11.4386 8.24095C11.4791 8.16718 11.5003 8.08438 11.5003 8.00021C11.5003 7.91604 11.4791 7.83324 11.4386 7.75947C11.398 7.6857 11.3395 7.62335 11.2685 7.57821ZM6 10.5897V5.41071L10.0685 8.00021L6 10.5897Z" fill="#3F3F3F"/>
</svg>
