<svg width="16" height="16" viewBox="0 0 16 16" fill="none" xmlns="http://www.w3.org/2000/svg">
<path d="M13.6499 3.32087L10.6367 0.470187C10.3162 0.166969 9.89672 0 9.45553 0H3.71875C2.77103 0 2 0.771031 2 1.71875V14.2812C2 15.229 2.77103 16 3.71875 16H12.4688C13.4165 16 14.1875 15.229 14.1875 14.2812V4.56944C14.1875 4.09916 13.9916 3.64406 13.6499 3.32087ZM12.7394 3.75H10.4062C10.3201 3.75 10.25 3.67991 10.25 3.59375V1.39488L12.7394 3.75ZM12.4688 15.0625H3.71875C3.28797 15.0625 2.9375 14.712 2.9375 14.2812V1.71875C2.9375 1.28797 3.28797 0.9375 3.71875 0.9375H9.3125V3.59375C9.3125 4.19684 9.80316 4.6875 10.4062 4.6875H13.25V14.2812C13.25 14.712 12.8995 15.0625 12.4688 15.0625Z" fill="#3F3F3F"/>
<path d="M11.4375 6.25H4.5625C4.30362 6.25 4.09375 6.45987 4.09375 6.71875C4.09375 6.97763 4.30362 7.1875 4.5625 7.1875H11.4375C11.6964 7.1875 11.9062 6.97763 11.9062 6.71875C11.9062 6.45987 11.6964 6.25 11.4375 6.25Z" fill="#3F3F3F"/>
<path d="M11.4375 8.75H4.5625C4.30362 8.75 4.09375 8.95987 4.09375 9.21875C4.09375 9.47763 4.30362 9.6875 4.5625 9.6875H11.4375C11.6964 9.6875 11.9062 9.47763 11.9062 9.21875C11.9062 8.95987 11.6964 8.75 11.4375 8.75Z" fill="#3F3F3F"/>
<path d="M6.835 11.25H4.5625C4.30362 11.25 4.09375 11.4599 4.09375 11.7188C4.09375 11.9776 4.30362 12.1875 4.5625 12.1875H6.835C7.09387 12.1875 7.30375 11.9776 7.30375 11.7188C7.30375 11.4599 7.09387 11.25 6.835 11.25Z" fill="#3F3F3F"/>
</svg>
