<svg width="14" height="14" viewBox="0 0 14 14" fill="none" xmlns="http://www.w3.org/2000/svg">
<path d="M6.12451 12.25C6.12451 13.2125 5.33701 14 4.37451 14C3.41201 14 2.62451 13.2125 2.62451 12.25C2.62451 11.2875 3.41201 10.5 4.37451 10.5C5.33701 10.5 6.12451 11.2875 6.12451 12.25ZM4.37451 5.25C3.41201 5.25 2.62451 6.0375 2.62451 7C2.62451 7.9625 3.41201 8.75 4.37451 8.75C5.33701 8.75 6.12451 7.9625 6.12451 7C6.12451 6.0375 5.33701 5.25 4.37451 5.25ZM4.37451 0C3.41201 0 2.62451 0.7875 2.62451 1.75C2.62451 2.7125 3.41201 3.5 4.37451 3.5C5.33701 3.5 6.12451 2.7125 6.12451 1.75C6.12451 0.7875 5.33701 0 4.37451 0ZM9.62451 3.5C10.587 3.5 11.3745 2.7125 11.3745 1.75C11.3745 0.7875 10.587 0 9.62451 0C8.66201 0 7.87451 0.7875 7.87451 1.75C7.87451 2.7125 8.66201 3.5 9.62451 3.5ZM9.62451 5.25C8.66201 5.25 7.87451 6.0375 7.87451 7C7.87451 7.9625 8.66201 8.75 9.62451 8.75C10.587 8.75 11.3745 7.9625 11.3745 7C11.3745 6.0375 10.587 5.25 9.62451 5.25ZM9.62451 10.5C8.66201 10.5 7.87451 11.2875 7.87451 12.25C7.87451 13.2125 8.66201 14 9.62451 14C10.587 14 11.3745 13.2125 11.3745 12.25C11.3745 11.2875 10.587 10.5 9.62451 10.5Z" fill="#CFCFCF"/>
</svg>
