<svg width="16" height="16" viewBox="0 0 16 16" fill="none" xmlns="http://www.w3.org/2000/svg">
<path d="M9.29813 1.05289C9.11253 0.964356 8.89386 0.987823 8.73386 1.11689L3.5456 5.26729H1.06667C0.478933 5.26729 0 5.74622 0 6.33396V10.6006C0 11.1884 0.478933 11.6673 1.06667 11.6673H3.5456L8.7328 15.8177C8.82987 15.8945 8.94827 15.934 9.06666 15.934C9.1456 15.934 9.22453 15.9169 9.29813 15.8817C9.48267 15.7921 9.6 15.6054 9.6 15.4006V1.53396C9.6 1.32916 9.48267 1.14249 9.29813 1.05289ZM3.2 10.6006H1.06667V6.33396H3.2V10.6006ZM8.53333 14.2902L4.26667 10.8769V6.05769L8.53333 2.64436V14.2902Z" fill="#3F3F3F"/>
<path d="M12.3009 4.69578C12.0908 4.48778 11.7537 4.49098 11.5468 4.70005C11.3398 4.91018 11.342 5.24725 11.551 5.45418C12.3564 6.25098 12.8001 7.32085 12.8001 8.46752C12.8001 9.61418 12.3564 10.684 11.551 11.4808C11.3409 11.6878 11.3388 12.0248 11.5468 12.235C11.6513 12.3406 11.7889 12.3928 11.9254 12.3928C12.0609 12.3928 12.1964 12.3416 12.3009 12.2382C13.311 11.2408 13.8668 9.90218 13.8668 8.46752C13.8668 7.03285 13.311 5.69418 12.3009 4.69578Z" fill="#3F3F3F"/>
<path d="M13.805 3.19249C13.596 2.98556 13.2578 2.98662 13.0509 3.19569C12.844 3.40476 12.845 3.74289 13.0541 3.94982C14.2658 5.15196 14.9336 6.75622 14.9336 8.46716C14.9336 10.1781 14.2658 11.7824 13.0541 12.9845C12.845 13.1914 12.844 13.5296 13.0509 13.7386C13.1554 13.8442 13.292 13.8965 13.4296 13.8965C13.565 13.8965 13.7005 13.8453 13.805 13.7418C15.2205 12.3381 16.0002 10.465 16.0002 8.46716C16.0002 6.46929 15.2205 4.59622 13.805 3.19249Z" fill="#3F3F3F"/>
</svg>
