<svg width="32" height="32" viewBox="0 0 32 32" fill="none" xmlns="http://www.w3.org/2000/svg">
<path fill-rule="evenodd" clip-rule="evenodd" d="M26.022 19.9531H30.3227V31.4672H26.022V19.9531Z" fill="#B1D7FE"/>
<path fill-rule="evenodd" clip-rule="evenodd" d="M18.3853 25.6719H22.686V31.4697H18.3853V25.6719Z" fill="#A0D468"/>
<path fill-rule="evenodd" clip-rule="evenodd" d="M11.0151 22.1953H15.3159V31.4707H11.0151V22.1953Z" fill="#FFDB4E"/>
<path fill-rule="evenodd" clip-rule="evenodd" d="M3.5127 25.6719H7.81344V31.4697H3.5127V25.6719Z" fill="#FF6677"/>
<path fill-rule="evenodd" clip-rule="evenodd" d="M3.37061 21.4746C3.37061 20.4376 4.21442 19.5938 5.25144 19.5938C6.28911 19.5938 7.13293 20.4369 7.13293 21.4746C7.13293 22.5123 6.28911 23.3561 5.25144 23.3561C4.21442 23.3554 3.37061 22.5116 3.37061 21.4746Z" fill="#B1D7FE"/>
<path fill-rule="evenodd" clip-rule="evenodd" d="M11.1479 16.6627C11.1479 15.6251 11.9911 14.7812 13.0288 14.7812C14.0665 14.7812 14.9096 15.6251 14.9096 16.6627C14.9096 17.7004 14.0665 18.5436 13.0288 18.5436C11.9911 18.5436 11.1479 17.6998 11.1479 16.6627Z" fill="#B1D7FE"/>
<path fill-rule="evenodd" clip-rule="evenodd" d="M20.6676 19.4766C21.7046 19.4766 22.5485 20.3204 22.5485 21.3574C22.5485 22.3944 21.7046 23.2389 20.6676 23.2389C19.63 23.2389 18.7861 22.3951 18.7861 21.3574C18.7861 20.3197 19.63 19.4766 20.6676 19.4766Z" fill="#B1D7FE"/>
<path fill-rule="evenodd" clip-rule="evenodd" d="M26.7026 14.459C26.7026 13.4213 27.5458 12.5781 28.5835 12.5781C29.6211 12.5781 30.4643 13.4219 30.4643 14.459C30.4643 15.496 29.6211 16.3404 28.5835 16.3404C27.5458 16.3404 26.7026 15.4966 26.7026 14.459Z" fill="#B1D7FE"/>
<path fill-rule="evenodd" clip-rule="evenodd" d="M18.1308 13.6652C18.1308 13.8504 17.9794 14.0018 17.7942 14.0018H16.2154C16.0302 14.0018 15.8788 13.8504 15.8788 13.6652V12.5266C15.8788 12.2657 15.7129 12.036 15.4646 11.955C15.2295 11.878 14.9998 11.7824 14.7794 11.6708C14.6951 11.6283 14.6021 11.6051 14.5072 11.6051C14.3479 11.6051 14.1952 11.6688 14.0823 11.7817L13.2763 12.5877C13.2133 12.6508 13.1276 12.6859 13.0387 12.6859C12.949 12.6859 12.8641 12.6514 12.8003 12.5877L11.6836 11.471C11.5529 11.3402 11.5529 11.1264 11.6836 10.9956L12.4896 10.1897C12.6742 10.0051 12.718 9.72428 12.6005 9.49191C12.4889 9.2715 12.394 9.04179 12.317 8.80677C12.2353 8.55913 12.0056 8.39316 11.7447 8.39316H10.6061C10.4209 8.39316 10.2695 8.24179 10.2695 8.05656V6.47714C10.2695 6.29191 10.4209 6.14054 10.6061 6.14054H11.7447C12.0056 6.14054 12.2353 5.97457 12.317 5.72627C12.394 5.49125 12.489 5.26154 12.6011 5.04113C12.7187 4.80876 12.6748 4.52793 12.4903 4.34403L11.6843 3.53806C11.5535 3.40727 11.5535 3.19283 11.6843 3.06204L12.801 1.94536C12.8647 1.88162 12.9497 1.8471 13.0393 1.8471C13.1289 1.8471 13.2139 1.88162 13.277 1.94536L14.0823 2.75133C14.2662 2.93523 14.547 2.98038 14.7794 2.8622C14.9998 2.75067 15.2295 2.65507 15.4646 2.57805C15.7129 2.4964 15.8788 2.26735 15.8788 2.00577V0.867848C15.8788 0.682619 16.0302 0.53125 16.2154 0.53125H17.7942C17.9794 0.53125 18.1308 0.682619 18.1308 0.867848V2.0071C18.1308 2.26801 18.2968 2.49772 18.545 2.57872C18.7801 2.65573 19.0098 2.75133 19.2302 2.86287C19.4626 2.98038 19.7434 2.9359 19.928 2.75133L20.7339 1.94536C20.797 1.88229 20.882 1.8471 20.9716 1.8471C21.0599 1.8471 21.1436 1.8803 21.2073 1.94204L22.3266 3.06204C22.3897 3.12577 22.4242 3.21009 22.4242 3.29971C22.4242 3.38934 22.3904 3.47432 22.3266 3.53739L21.5207 4.34337C21.3361 4.52793 21.2909 4.80876 21.4091 5.04113C21.5207 5.26154 21.6163 5.49125 21.6933 5.72561C21.7749 5.97391 22.0046 6.13988 22.2655 6.13988H23.4041C23.5894 6.13988 23.7407 6.29125 23.7407 6.47648V8.0559C23.7407 8.24046 23.5894 8.39249 23.4041 8.39249H22.2655C22.0046 8.39249 21.7749 8.55847 21.6933 8.80677C21.6163 9.04179 21.5207 9.2715 21.4091 9.49191C21.2909 9.72428 21.3368 10.0051 21.5207 10.1897L22.3266 10.9956C22.3904 11.0594 22.4242 11.1437 22.4242 11.2333C22.4242 11.323 22.3904 11.4079 22.3266 11.471L21.2073 12.5903C21.1436 12.6521 21.0599 12.6859 20.9716 12.6859C20.8826 12.6859 20.7977 12.6508 20.7339 12.5877L19.928 11.7817C19.7434 11.5971 19.4632 11.5527 19.2302 11.6708C19.0098 11.7824 18.7801 11.878 18.545 11.955C18.2968 12.0366 18.1314 12.2657 18.1314 12.5266V13.6652H18.1308Z" fill="#B1D7FE"/>
<path fill-rule="evenodd" clip-rule="evenodd" d="M9.82006 12.5057L10.7628 12.7586L10.3824 14.1794L9.43831 13.9264C9.24711 13.8753 9.04661 13.9517 8.9384 14.1176C8.84611 14.2584 8.74321 14.3932 8.63101 14.5186C8.49889 14.666 8.47698 14.8798 8.57591 15.0511L9.06387 15.8969L7.79118 16.6325L7.30321 15.7867C7.20495 15.6161 7.00777 15.5278 6.81458 15.5683C6.64993 15.6028 6.48196 15.6247 6.31333 15.634C6.11549 15.6446 5.94885 15.78 5.89773 15.9712L5.64479 16.9146L4.22404 16.5342L4.47699 15.5908C4.52811 15.3996 4.45176 15.1991 4.28578 15.0909C4.14437 14.9986 4.01026 14.8957 3.88479 14.7835C3.7374 14.6514 3.52362 14.6295 3.35234 14.7284L2.50719 15.2171L1.77159 13.943L2.61674 13.4551C2.78736 13.3568 2.87632 13.159 2.83582 12.9664C2.8013 12.8018 2.77939 12.6338 2.7701 12.4652C2.75881 12.2673 2.62404 12.1007 2.43217 12.0496L1.48877 11.7966L1.86918 10.3759L2.81325 10.6288C3.00512 10.68 3.20495 10.6029 3.31383 10.437C3.40611 10.2962 3.50835 10.1615 3.62055 10.036C3.75267 9.88859 3.77458 9.67482 3.67566 9.50353L3.18769 8.65772L4.46172 7.92278L4.94968 8.76859C5.04794 8.93921 5.24578 9.02751 5.43898 8.98701C5.60362 8.95249 5.77159 8.93058 5.93956 8.92129C6.1374 8.91067 6.30404 8.77523 6.35516 8.58403L6.60744 7.64062L8.02885 8.0217L7.77657 8.96511C7.72545 9.15697 7.8018 9.35681 7.96777 9.46569C8.10852 9.55797 8.24263 9.66087 8.3681 9.77307C8.51549 9.90519 8.72927 9.92776 8.90055 9.82818L9.7457 9.34021L10.4813 10.6136L9.63616 11.1015C9.46553 11.1998 9.37723 11.3976 9.41707 11.5902C9.45159 11.7548 9.4735 11.9228 9.48279 12.0914C9.49342 12.2886 9.62885 12.4546 9.82006 12.5057Z" fill="#B1D7FE"/>
<path fill-rule="evenodd" clip-rule="evenodd" d="M17.0049 11.0177C19.073 11.0177 20.756 9.33471 20.756 7.26666C20.756 5.19861 19.073 3.51562 17.0049 3.51562C14.9369 3.51562 13.2539 5.19861 13.2539 7.26666C13.2539 9.33471 14.9369 11.0177 17.0049 11.0177Z" fill="#F1F1F2"/>
<path fill-rule="evenodd" clip-rule="evenodd" d="M7.92138 11.2461C7.35109 10.2582 6.0784 9.91696 5.08985 10.4873C4.10196 11.0575 3.76006 12.3302 4.33035 13.3188C4.70213 13.9628 5.3886 14.3545 6.12952 14.3545C6.49333 14.3545 6.84719 14.2589 7.16188 14.077C8.15043 13.5073 8.49167 12.234 7.92138 11.2461Z" fill="#F1F1F2"/>
<path fill-rule="evenodd" clip-rule="evenodd" d="M5.35553 10.9451C5.71205 10.7393 6.12698 10.6848 6.52532 10.791C6.923 10.8973 7.25495 11.1529 7.46142 11.5094C7.88632 12.2456 7.63271 13.1904 6.89711 13.6153C6.16084 14.0402 5.21611 13.7872 4.79122 13.051C4.36632 12.3154 4.61927 11.37 5.35553 10.9451ZM6.1303 14.6184C6.52665 14.6184 6.92765 14.5175 7.29545 14.3057C8.41147 13.6611 8.79586 12.2284 8.15122 11.1117C7.50657 9.99502 6.07321 9.61129 4.95719 10.2559C3.84051 10.9006 3.45678 12.3333 4.10076 13.45C4.53362 14.1988 5.32101 14.6184 6.1303 14.6184ZM2.13362 14.0428L2.60366 14.8568L3.2191 14.5009C3.48997 14.3449 3.82856 14.3794 4.06159 14.5879C4.17644 14.6908 4.30059 14.7857 4.43072 14.8707C4.69296 15.042 4.81445 15.36 4.73346 15.6621L4.54956 16.3492L5.45711 16.5922L5.64101 15.9051C5.722 15.6023 5.9869 15.3879 6.29893 15.3713C6.45362 15.3627 6.60898 15.3421 6.76034 15.3109C7.0664 15.2471 7.37711 15.3859 7.53313 15.6568L7.88831 16.2722L8.70225 15.8022L8.34707 15.1867C8.19039 14.9159 8.22557 14.5779 8.43404 14.3442C8.53694 14.2287 8.63254 14.1046 8.71686 13.9751C8.88815 13.7135 9.20615 13.5914 9.50823 13.6724L10.1954 13.8563L10.4384 12.9487L9.75188 12.7648C9.44914 12.6838 9.2347 12.4196 9.21744 12.1069C9.20947 11.9522 9.18889 11.7968 9.15703 11.6455C9.09329 11.3394 9.23205 11.0287 9.50292 10.872L10.1184 10.5168L9.64831 9.7029L9.03288 10.0581C8.762 10.2148 8.42408 10.1789 8.19039 9.97046C8.07553 9.86755 7.95138 9.77262 7.82192 9.68764C7.55968 9.51635 7.43752 9.19834 7.51918 8.89627L7.70308 8.20979L6.79487 7.96614L6.61097 8.65328C6.52997 8.95602 6.26574 9.17046 5.95304 9.18705C5.79835 9.19569 5.64366 9.2156 5.4923 9.24747C5.18624 9.3112 4.87553 9.17245 4.71885 8.90158L4.36366 8.28614L3.54972 8.75618L3.90491 9.37162C4.06159 9.64249 4.0264 9.98042 3.81794 10.2141C3.71503 10.3296 3.6201 10.4538 3.53512 10.5832C3.36383 10.8455 3.04582 10.967 2.74375 10.886L2.05661 10.7021L1.81362 11.6096L2.50076 11.7935C2.80283 11.8745 3.01727 12.1388 3.03454 12.4515C3.04317 12.6061 3.06308 12.7615 3.09495 12.9129C3.15868 13.2189 3.01993 13.5296 2.74906 13.6863L2.13362 14.0428ZM3.57097 15.2179C3.69047 15.3222 3.81794 15.4191 3.95005 15.5081L3.76018 16.2151C3.71039 16.4017 3.73628 16.5962 3.83254 16.7628C3.92947 16.9301 4.08483 17.0496 4.27072 17.0994L5.323 17.3816C5.38474 17.3982 5.44781 17.4061 5.51088 17.4061C5.6357 17.4061 5.75918 17.3736 5.87072 17.3086C6.03802 17.2123 6.15752 17.0563 6.20732 16.8704L6.39653 16.1633C6.5552 16.1527 6.71454 16.1315 6.86989 16.1016L7.2357 16.7356C7.43487 17.0802 7.87769 17.1983 8.22225 16.9998L9.16566 16.4554C9.51022 16.2563 9.62839 15.8141 9.42989 15.4695L9.06408 14.8355C9.16765 14.716 9.26524 14.5885 9.3542 14.4571L10.0613 14.6463C10.2471 14.6961 10.4417 14.6709 10.609 14.5739C10.7763 14.4777 10.8958 14.3217 10.9456 14.1358L11.2277 13.0835C11.2775 12.8976 11.2516 12.7031 11.1554 12.5358C11.0584 12.3685 10.9031 12.249 10.7172 12.1992L10.0095 12.0093C9.99885 11.8506 9.97827 11.692 9.94773 11.5366L10.5818 11.1701C10.7484 11.0739 10.8679 10.9185 10.9177 10.732C10.9675 10.5454 10.9423 10.3509 10.846 10.1842L10.3009 9.24083C10.1024 8.89627 9.6596 8.77743 9.31503 8.9766L8.68101 9.34241C8.56151 9.23817 8.43404 9.14058 8.30259 9.05228L8.4918 8.34523C8.54159 8.15934 8.5157 7.96481 8.41943 7.79751C8.32317 7.63021 8.16715 7.51071 7.98126 7.46091L6.92898 7.17876C6.54458 7.07519 6.14823 7.3049 6.04466 7.68929L5.85545 8.39635C5.69678 8.40697 5.5381 8.42822 5.38209 8.45876L5.01628 7.82473C4.92001 7.65809 4.764 7.53859 4.57744 7.4888C4.39155 7.43834 4.19703 7.46423 4.02972 7.5605L3.08698 8.1049C2.91968 8.20116 2.80084 8.35718 2.75039 8.54374C2.70059 8.73029 2.72582 8.92481 2.82275 9.09145L3.18856 9.72548C3.08433 9.84564 2.98673 9.97245 2.89777 10.1046L2.19072 9.91535C1.80632 9.81245 1.40997 10.0408 1.3064 10.4259L1.02491 11.4782C0.975116 11.6641 1.00034 11.8586 1.09727 12.0259C1.19354 12.1932 1.34889 12.3127 1.53545 12.3625L2.2425 12.5517C2.25312 12.7104 2.27437 12.869 2.30425 13.0251L1.67088 13.3909C1.50358 13.4871 1.38474 13.6425 1.33429 13.829C1.28449 14.0156 1.31039 14.2101 1.40665 14.3768L1.95105 15.3202C2.04732 15.4868 2.20267 15.6063 2.38922 15.6561C2.57578 15.7059 2.7703 15.6807 2.93694 15.5844L3.57097 15.2179ZM14.9091 7.3268C14.7537 7.17145 14.7537 6.91851 14.9091 6.76382C15.0644 6.60846 15.3167 6.60846 15.4727 6.76382L16.5482 7.83867L18.5373 5.84963C18.6926 5.69427 18.9449 5.69427 19.1009 5.84963C19.2563 6.00498 19.2563 6.25726 19.1009 6.41261L16.8297 8.68382C16.752 8.76149 16.6498 8.80066 16.5482 8.80066C16.446 8.80066 16.3444 8.76216 16.2661 8.68382L14.9091 7.3268ZM17.005 4.04647C15.2297 4.04647 13.7851 5.49112 13.7851 7.26639C13.7851 9.04166 15.2297 10.4863 17.005 10.4863C18.7803 10.4863 20.2249 9.04166 20.2249 7.26639C20.2249 5.49112 18.7803 4.04647 17.005 4.04647ZM17.005 11.283C19.2198 11.283 21.0216 9.48116 21.0216 7.26639C21.0216 5.05162 19.2198 3.24979 17.005 3.24979C14.7902 3.24979 12.9884 5.05162 12.9884 7.26639C12.9884 9.48116 14.7902 11.283 17.005 11.283ZM10.5353 6.47701C10.5353 6.43851 10.5678 6.40598 10.6063 6.40598H11.7449C12.1207 6.40598 12.452 6.16631 12.5695 5.80913C12.6418 5.58739 12.7321 5.36963 12.8377 5.16116C13.0076 4.82589 12.9432 4.42158 12.6777 4.15602L11.8717 3.35004C11.8445 3.32282 11.8445 3.27701 11.8717 3.24979L12.9884 2.13311C13.0057 2.11651 13.0249 2.11253 13.0389 2.11253C13.0521 2.11253 13.072 2.11585 13.0886 2.13311L13.8946 2.93909C14.1602 3.20465 14.5645 3.26905 14.8998 3.09909C15.1082 2.99353 15.3267 2.90324 15.5477 2.83021C15.9049 2.7127 16.1446 2.38141 16.1446 2.00564V0.867718C16.1446 0.829212 16.1771 0.796681 16.2156 0.796681H17.7944C17.8329 0.796681 17.8654 0.829212 17.8654 0.867718V2.00697C17.8654 2.38274 18.1051 2.71336 18.4623 2.83087C18.684 2.90324 18.9018 2.99419 19.1102 3.09975C19.4455 3.26971 19.8498 3.20531 20.1154 2.93909L20.9213 2.13311C20.9379 2.11651 20.9579 2.11253 20.9711 2.11253C20.9851 2.11253 21.0043 2.11585 21.0216 2.13311L22.1383 3.24979C22.1549 3.26639 22.1582 3.28631 22.1582 3.29959C22.1582 3.31353 22.1549 3.33278 22.1383 3.35004L21.3323 4.15602C21.0667 4.42158 21.0017 4.82589 21.1716 5.16116C21.2772 5.36963 21.3681 5.58739 21.4405 5.80846C21.558 6.16564 21.8893 6.40531 22.2651 6.40531H23.4037C23.4422 6.40531 23.4747 6.43784 23.4747 6.47635V8.05577C23.4747 8.09427 23.4422 8.12681 23.4037 8.12681H22.2651C21.8893 8.12681 21.558 8.36647 21.4405 8.72365C21.3681 8.94473 21.2779 9.16249 21.1716 9.37162C21.0017 9.70755 21.0667 10.1112 21.3323 10.3768L22.1383 11.1827C22.1549 11.1993 22.1582 11.2193 22.1582 11.2325C22.1582 11.2458 22.1549 11.2657 22.1383 11.283L21.0216 12.3997C21.0043 12.4163 20.9851 12.4202 20.9711 12.4202C20.9579 12.4202 20.9379 12.4163 20.9213 12.3997L20.1154 11.5937C19.8491 11.3275 19.4455 11.2631 19.1102 11.4337C18.9011 11.5393 18.6833 11.6295 18.4623 11.7026C18.1051 11.8194 17.8654 12.1507 17.8654 12.5265V13.6651C17.8654 13.7036 17.8329 13.7361 17.7944 13.7361H16.2156C16.1771 13.7361 16.1446 13.7036 16.1446 13.6651V12.5265C16.1446 12.1507 15.9049 11.8194 15.5477 11.7026C15.3267 11.6302 15.1089 11.5393 14.8998 11.4337C14.775 11.3706 14.6408 11.3394 14.5074 11.3394C14.283 11.3394 14.0613 11.4271 13.8946 11.5937L13.0886 12.3997C13.072 12.4163 13.0521 12.4202 13.0389 12.4202C13.0249 12.4202 13.0057 12.4163 12.9884 12.3997L11.8717 11.283C11.8445 11.2558 11.8445 11.21 11.8717 11.1827L12.6777 10.3768C12.9432 10.1112 13.0076 9.70689 12.8377 9.37162C12.7321 9.16315 12.6418 8.94539 12.5695 8.72365C12.452 8.36714 12.1207 8.12681 11.7449 8.12681H10.6063C10.5678 8.12681 10.5353 8.09427 10.5353 8.05577V6.47701ZM10.6063 8.92349C10.1276 8.92349 9.7386 8.53444 9.7386 8.05577V6.47635C9.7386 5.99768 10.1276 5.60863 10.6063 5.60863H11.7449C11.7794 5.60863 11.802 5.59203 11.8126 5.5595C11.8976 5.29992 12.0038 5.04432 12.1273 4.8C12.1426 4.76946 12.1386 4.74224 12.114 4.71768L11.3087 3.9117C10.9701 3.57311 10.9701 3.0234 11.3087 2.68481L12.4254 1.56813C12.5887 1.40481 12.8065 1.31452 13.0389 1.31452C13.2706 1.31452 13.4883 1.40481 13.6523 1.56813L14.4576 2.37411C14.4822 2.39801 14.5094 2.40266 14.5399 2.38739C14.7842 2.2639 15.0398 2.15768 15.2988 2.0727C15.3313 2.06207 15.3479 2.0395 15.3479 2.00498V0.867718C15.3479 0.389046 15.7369 0 16.2156 0H17.7944C18.273 0 18.6621 0.389046 18.6621 0.867718V2.00697C18.6621 2.04083 18.6787 2.0634 18.7106 2.07402C18.9708 2.15967 19.2257 2.26523 19.4701 2.38871C19.5006 2.40398 19.5278 2.4 19.5524 2.37544L20.3577 1.56946C20.5217 1.40614 20.7394 1.31585 20.9711 1.31585C21.2035 1.31585 21.4213 1.40614 21.5846 1.56946L22.7013 2.68614C22.8652 2.85012 22.9549 3.06788 22.9549 3.29959C22.9549 3.53195 22.8652 3.74971 22.7013 3.91303L21.8959 4.719C21.8714 4.7429 21.8674 4.77079 21.8827 4.80133C22.0062 5.04564 22.1124 5.30125 22.1974 5.56083C22.208 5.59336 22.2306 5.60996 22.2651 5.60996H23.4037C23.8823 5.60996 24.2714 5.999 24.2714 6.47768V8.0571C24.2714 8.53577 23.8823 8.92481 23.4037 8.92481H22.2651C22.2306 8.92481 22.208 8.94141 22.1974 8.97394C22.1124 9.23286 22.0062 9.48847 21.8827 9.73278C21.8674 9.76332 21.8714 9.79054 21.8959 9.8151L22.7013 10.6211C22.8652 10.7844 22.9549 11.0028 22.9549 11.2345C22.9549 11.4669 22.8652 11.6846 22.7013 11.848L21.5846 12.9627C21.4213 13.1266 21.2035 13.2163 20.9711 13.2163C20.7394 13.2163 20.5217 13.126 20.3577 12.9627L19.5524 12.1573C19.5278 12.1334 19.5006 12.1288 19.4701 12.1441C19.2257 12.2682 18.9701 12.3738 18.7106 12.4588C18.6787 12.4694 18.6621 12.492 18.6621 12.5258V13.6644C18.6621 14.1431 18.273 14.5321 17.7944 14.5321H16.2156C15.7369 14.5321 15.3479 14.1431 15.3479 13.6644V12.5258C15.3479 12.492 15.3313 12.4694 15.2988 12.4588C15.0398 12.3738 14.7842 12.2676 14.5399 12.1441C14.5094 12.1288 14.4822 12.1334 14.4576 12.1573L13.6523 12.9627C13.4883 13.1266 13.2706 13.2163 13.0389 13.2163C12.8065 13.2163 12.5887 13.126 12.4254 12.9627L11.3087 11.846C11.1447 11.6827 11.0545 11.4649 11.0545 11.2325C11.0545 11.0008 11.1447 10.7831 11.3087 10.6191L12.114 9.81311C12.1386 9.78921 12.1426 9.76133 12.1273 9.73079C12.0038 9.48647 11.8976 9.23087 11.8126 8.97195C11.802 8.93942 11.7788 8.92282 11.7449 8.92282H10.6063V8.92349ZM5.2513 19.8579C6.14225 19.8579 6.86723 20.5822 6.86723 21.4732C6.86723 22.3642 6.14225 23.0891 5.2513 23.0891C4.36101 23.0891 3.63603 22.3642 3.63603 21.4732C3.63603 20.5829 4.36101 19.8579 5.2513 19.8579ZM13.0289 15.0453C13.9198 15.0453 14.6442 15.7696 14.6442 16.6612C14.6442 17.5522 13.9198 18.2765 13.0289 18.2765C12.1379 18.2765 11.4136 17.5522 11.4136 16.6612C11.4136 15.7703 12.1379 15.0453 13.0289 15.0453ZM20.6677 19.7424C21.558 19.7424 22.283 20.4667 22.283 21.3577C22.283 22.2486 21.558 22.9736 20.6677 22.9736C19.7768 22.9736 19.0518 22.2493 19.0518 21.3577C19.0518 20.4667 19.7768 19.7424 20.6677 19.7424ZM28.5834 12.8418C29.4744 12.8418 30.1987 13.5661 30.1987 14.4571C30.1987 15.3481 29.4744 16.073 28.5834 16.073C27.6925 16.073 26.9681 15.3481 26.9681 14.4571C26.9681 13.5668 27.6925 12.8418 28.5834 12.8418ZM5.2513 23.8858C6.58176 23.8858 7.66391 22.8037 7.66391 21.4732C7.66391 21.1505 7.59952 20.8418 7.484 20.5603L11.2171 18.25C11.6593 18.7539 12.3072 19.0725 13.0289 19.0725C13.7525 19.0725 14.4032 18.7519 14.8453 18.2446L18.4324 20.4501C18.3189 20.7303 18.2551 21.0363 18.2551 21.3563C18.2551 22.6868 19.3373 23.769 20.6677 23.769C21.9975 23.769 23.0797 22.6868 23.0797 21.3563C23.0797 20.8936 22.9489 20.4614 22.7218 20.0943L27.0525 16.3193C27.4694 16.6626 28.0025 16.869 28.5834 16.869C29.9132 16.869 30.9954 15.7869 30.9954 14.4564C30.9954 13.126 29.9132 12.0445 28.5834 12.0445C27.2536 12.0445 26.1715 13.1266 26.1715 14.4564C26.1715 14.9192 26.3023 15.3514 26.5293 15.7185L22.1987 19.4934C21.7818 19.1502 21.248 18.9437 20.6677 18.9437C19.9434 18.9437 19.2935 19.2644 18.8513 19.7716L15.2636 17.5655C15.3778 17.286 15.4408 16.9799 15.4408 16.6593C15.4408 15.3288 14.3587 14.2466 13.0289 14.2466C11.6991 14.2466 10.6169 15.3288 10.6169 16.6593C10.6169 16.9819 10.6807 17.2906 10.7969 17.5721L7.06375 19.8825C6.62093 19.3786 5.97296 19.0599 5.2513 19.0599C3.92151 19.0599 2.83935 20.1421 2.83935 21.4719C2.83935 22.8037 3.92151 23.8858 5.2513 23.8858ZM22.4204 31.2033H18.6508V25.9366H22.4204V31.2033ZM22.8188 25.1399H18.2525C18.032 25.1399 17.8541 25.3185 17.8541 25.5383V31.6017C17.8541 31.8214 18.032 32 18.2525 32H22.8188C23.0385 32 23.2171 31.8214 23.2171 31.6017V25.5383C23.2171 25.3178 23.0385 25.1399 22.8188 25.1399ZM30.0573 31.2033H26.2876V20.2204H30.0573V31.2033ZM30.4556 19.4237C30.6754 19.4237 30.854 19.6023 30.854 19.8221V31.6017C30.854 31.8214 30.6754 32 30.4556 32H25.8893C25.6689 32 25.491 31.8214 25.491 31.6017V19.8221C25.491 19.6023 25.6689 19.4237 25.8893 19.4237H30.4556ZM15.0505 31.2033H11.2808V22.4591H15.0505V31.2033ZM15.4488 21.6624C15.6692 21.6624 15.8471 21.8403 15.8471 22.0607V31.6017C15.8471 31.8214 15.6692 32 15.4488 32H10.8825C10.6628 32 10.4842 31.8214 10.4842 31.6017V22.0607C10.4842 21.8403 10.6628 21.6624 10.8825 21.6624H15.4488ZM7.54773 31.2033H3.7781V25.9366H7.54773V31.2033ZM7.94607 25.1399H3.37976C3.15935 25.1399 2.98142 25.3185 2.98142 25.5383V31.6017C2.98142 31.8214 3.15935 32 3.37976 32H7.94607C8.16582 32 8.34441 31.8214 8.34441 31.6017V25.5383C8.34441 25.3178 8.16582 25.1399 7.94607 25.1399Z" fill="black"/>
</svg>
