<svg width="14" height="14" viewBox="0 0 14 14" fill="none" xmlns="http://www.w3.org/2000/svg">
<g clip-path="url(#clip0_840_2455)">
<mask id="mask0_840_2455" style="mask-type:luminance" maskUnits="userSpaceOnUse" x="0" y="0" width="14" height="14">
<path d="M14 0H0V14H14V0Z" fill="white"/>
</mask>
<g mask="url(#mask0_840_2455)">
<path d="M12.4998 2.75013H5.75006C5.61744 2.75013 5.49024 2.69744 5.39646 2.60366C5.30268 2.50988 5.25 2.38269 5.25 2.25006C5.25 2.11744 5.30268 1.99024 5.39646 1.89646C5.49024 1.80268 5.61744 1.75 5.75006 1.75H12.4998C12.6324 1.75 12.7596 1.80268 12.8534 1.89646C12.9472 1.99024 12.9999 2.11744 12.9999 2.25006C12.9999 2.38269 12.9472 2.50988 12.8534 2.60366C12.7596 2.69744 12.6324 2.75013 12.4998 2.75013Z" fill="#717171"/>
<path d="M13.4999 3.75025C13.3673 3.75025 13.2401 3.69757 13.1463 3.60379C13.0526 3.51001 12.9999 3.38281 12.9999 3.25019C12.9998 3.1176 12.947 2.99047 12.8533 2.89672C12.7595 2.80296 12.6324 2.75024 12.4998 2.75013C12.3672 2.75013 12.24 2.69744 12.1462 2.60366C12.0524 2.50988 11.9998 2.38269 11.9998 2.25006C11.9998 2.11744 12.0524 1.99024 12.1462 1.89646C12.24 1.80268 12.3672 1.75 12.4998 1.75C12.8976 1.75035 13.279 1.90851 13.5602 2.18978C13.8415 2.47104 13.9997 2.85242 14 3.25019C14 3.38281 13.9473 3.51001 13.8535 3.60379C13.7598 3.69757 13.6326 3.75025 13.4999 3.75025Z" fill="#717171"/>
<path d="M2.49994 2.75013H1.49982C1.36719 2.75013 1.24 2.69744 1.14622 2.60366C1.05244 2.50988 0.999756 2.38269 0.999756 2.25006C0.999756 2.11744 1.05244 1.99024 1.14622 1.89646C1.24 1.80268 1.36719 1.75 1.49982 1.75H2.49994C2.63257 1.75 2.75976 1.80268 2.85354 1.89646C2.94732 1.99024 3.00001 2.11744 3.00001 2.25006C3.00001 2.38269 2.94732 2.50988 2.85354 2.60366C2.75976 2.69744 2.63257 2.75013 2.49994 2.75013Z" fill="#717171"/>
<path d="M4.24987 2.75013H4.00006C3.86744 2.75013 3.74024 2.69744 3.64646 2.60366C3.55268 2.50988 3.5 2.38269 3.5 2.25006C3.5 2.11744 3.55268 1.99024 3.64646 1.89646C3.74024 1.80268 3.86744 1.75 4.00006 1.75H4.24987C4.3825 1.75 4.50969 1.80268 4.60347 1.89646C4.69725 1.99024 4.74994 2.11744 4.74994 2.25006C4.74994 2.38269 4.69725 2.50988 4.60347 2.60366C4.50969 2.69744 4.3825 2.75013 4.24987 2.75013Z" fill="#717171"/>
<path d="M0.500062 11.2502C0.367438 11.2502 0.240245 11.1975 0.146465 11.1037C0.052685 11.0099 0 10.8827 0 10.7501V3.25006C1.97626e-09 3.11744 0.052685 2.99024 0.146465 2.89646C0.240245 2.80268 0.367438 2.75 0.500062 2.75C0.632687 2.75 0.75988 2.80268 0.85366 2.89646C0.94744 2.99024 1.00013 3.11744 1.00013 3.25006V10.7501C1.00013 10.8827 0.94744 11.0099 0.85366 11.1037C0.75988 11.1975 0.632687 11.2502 0.500062 11.2502Z" fill="#717171"/>
<path d="M13.4998 11.2502C13.3672 11.2502 13.24 11.1975 13.1462 11.1037C13.0524 11.0099 12.9998 10.8827 12.9998 10.7501V3.25006C12.9998 3.11744 13.0524 2.99024 13.1462 2.89646C13.24 2.80268 13.3672 2.75 13.4998 2.75C13.6324 2.75 13.7596 2.80268 13.8534 2.89646C13.9472 2.99024 13.9999 3.11744 13.9999 3.25006V10.7501C13.9999 10.8827 13.9472 11.0099 13.8534 11.1037C13.7596 11.1975 13.6324 11.2502 13.4998 11.2502Z" fill="#717171"/>
<path d="M1.4997 12.2502C1.10193 12.2499 0.720555 12.0917 0.43929 11.8105C0.158026 11.5292 -0.000140734 11.1478 -0.000488281 10.7501C-0.000488281 10.6174 0.0521967 10.4902 0.145977 10.3965C0.239757 10.3027 0.366949 10.25 0.499574 10.25C0.632199 10.25 0.759392 10.3027 0.853172 10.3965C0.946952 10.4902 0.999637 10.6174 0.999637 10.7501C0.999753 10.8827 1.05247 11.0098 1.14623 11.1035C1.23998 11.1973 1.36711 11.25 1.4997 11.2501C1.63232 11.2501 1.75952 11.3028 1.8533 11.3966C1.94708 11.4904 1.99976 11.6176 1.99976 11.7502C1.99976 11.8828 1.94708 12.01 1.8533 12.1038C1.75952 12.1976 1.63232 12.2502 1.4997 12.2502Z" fill="#717171"/>
<path d="M12.4999 12.2501H1.49982C1.36719 12.2501 1.24 12.1974 1.14622 12.1037C1.05244 12.0099 0.999756 11.8827 0.999756 11.7501C0.999756 11.6174 1.05244 11.4902 1.14622 11.3965C1.24 11.3027 1.36719 11.25 1.49982 11.25H12.4999C12.6325 11.25 12.7597 11.3027 12.8535 11.3965C12.9473 11.4902 12.9999 11.6174 12.9999 11.7501C12.9999 11.8827 12.9473 12.0099 12.8535 12.1037C12.7597 12.1974 12.6325 12.2501 12.4999 12.2501Z" fill="#717171"/>
<path d="M12.4998 12.2502C12.3672 12.2502 12.24 12.1976 12.1462 12.1038C12.0524 12.01 11.9998 11.8828 11.9998 11.7502C11.9998 11.6176 12.0524 11.4904 12.1462 11.3966C12.24 11.3028 12.3672 11.2501 12.4998 11.2501C12.6324 11.25 12.7595 11.1973 12.8533 11.1035C12.947 11.0098 12.9998 10.8827 12.9999 10.7501C12.9999 10.6174 13.0526 10.4902 13.1463 10.3965C13.2401 10.3027 13.3673 10.25 13.4999 10.25C13.6326 10.25 13.7598 10.3027 13.8535 10.3965C13.9473 10.4902 14 10.6174 14 10.7501C13.9997 11.1478 13.8415 11.5292 13.5602 11.8105C13.279 12.0917 12.8976 12.2499 12.4998 12.2502Z" fill="#717171"/>
<path d="M7.00003 8.23205C6.35169 8.23065 5.71652 8.04887 5.16559 7.70705C5.10969 7.67258 5.06113 7.62744 5.02267 7.5742C4.98422 7.52096 4.95663 7.46066 4.94147 7.39676C4.92632 7.33285 4.9239 7.26659 4.93436 7.20175C4.94481 7.13691 4.96794 7.07477 5.00241 7.01887C5.03688 6.96296 5.08202 6.9144 5.13526 6.87594C5.18851 6.83749 5.2488 6.8099 5.3127 6.79474C5.37661 6.77959 5.44287 6.77717 5.50771 6.78763C5.57255 6.79808 5.63469 6.82121 5.69059 6.85568C6.08416 7.0995 6.53794 7.22867 7.00091 7.22867C7.46387 7.22867 7.91766 7.0995 8.31122 6.85568C8.36712 6.82121 8.42927 6.79808 8.49411 6.78763C8.55894 6.77717 8.62521 6.77959 8.68911 6.79474C8.75302 6.8099 8.81331 6.83749 8.86655 6.87594C8.91979 6.9144 8.96494 6.96296 8.99941 7.01887C9.03388 7.07477 9.057 7.13691 9.06746 7.20175C9.07791 7.26659 9.0755 7.33285 9.06034 7.39676C9.04519 7.46066 9.0176 7.52096 8.97914 7.5742C8.94069 7.62744 8.89212 7.67258 8.83622 7.70705C8.28479 8.04918 7.64897 8.23097 7.00003 8.23205Z" fill="#717171"/>
<path d="M8.57243 7.78249C8.46357 7.78251 8.35768 7.74702 8.27084 7.68138C8.18399 7.61575 8.12093 7.52358 8.09123 7.41885C8.06154 7.31412 8.06683 7.20256 8.1063 7.10111C8.14577 6.99966 8.21726 6.91386 8.30993 6.85674L13.2375 3.82443C13.3504 3.75481 13.4863 3.73289 13.6154 3.7635C13.7444 3.7941 13.8561 3.87472 13.9257 3.98762C13.9953 4.10052 14.0172 4.23645 13.9866 4.36551C13.956 4.49457 13.8754 4.60619 13.7625 4.67581L8.83406 7.70637C8.7552 7.75514 8.66428 7.7809 8.57156 7.78074L8.57243 7.78249Z" fill="#717171"/>
<path d="M5.42705 7.78249C5.33433 7.78265 5.24341 7.75689 5.16455 7.70812L0.237862 4.67581C0.124962 4.60619 0.0443434 4.49457 0.0137398 4.36551C-0.0168637 4.23645 0.00505503 4.10052 0.0746744 3.98762C0.144294 3.87472 0.255911 3.7941 0.384971 3.7635C0.514031 3.73289 0.649963 3.75481 0.762862 3.82443L5.69042 6.85674C5.78309 6.91386 5.85459 6.99966 5.89406 7.10111C5.93353 7.20256 5.93882 7.31412 5.90912 7.41885C5.87943 7.52358 5.81637 7.61575 5.72952 7.68138C5.64267 7.74702 5.53678 7.78251 5.42792 7.78249H5.42705Z" fill="#717171"/>
<path d="M0.500062 3.74981C0.367438 3.74981 0.240245 3.69713 0.146465 3.60335C0.052685 3.50957 0 3.38237 0 3.24975C0.000463153 2.85213 0.158621 2.47094 0.439778 2.18978C0.720936 1.90862 1.10213 1.75046 1.49975 1.75C1.56542 1.75 1.63045 1.76293 1.69112 1.78807C1.75179 1.8132 1.80691 1.85003 1.85335 1.89647C1.89978 1.9429 1.93662 1.99803 1.96175 2.0587C1.98688 2.11937 1.99981 2.18439 1.99981 2.25006C1.99981 2.31573 1.98688 2.38076 1.96175 2.44143C1.93662 2.5021 1.89978 2.55722 1.85335 2.60366C1.80691 2.6501 1.75179 2.68693 1.69112 2.71206C1.63045 2.73719 1.56542 2.75012 1.49975 2.75012C1.36724 2.75024 1.24018 2.8029 1.14643 2.89656C1.05269 2.99022 0.999919 3.11724 0.999688 3.24975C0.999688 3.3823 0.947063 3.50943 0.853377 3.60319C0.759692 3.69696 0.632611 3.7497 0.500062 3.74981Z" fill="#717171"/>
</g>
</g>
<defs>
<clipPath id="clip0_840_2455">
<rect width="14" height="14" fill="white"/>
</clipPath>
</defs>
</svg>
