<svg xmlns="http://www.w3.org/2000/svg" xmlns:xlink="http://www.w3.org/1999/xlink" width="120" height="40" viewBox="0 0 120 40">
  <defs>
    <clipPath id="clip-path">
      <rect id="Rectangle_2976" data-name="Rectangle 2976" width="120" height="40" fill="#05acd7" stroke="#707070" stroke-width="1"/>
    </clipPath>
  </defs>
  <g id="Mask_Group_39" data-name="Mask Group 39" clip-path="url(#clip-path)">
    <g id="Layer_2" data-name="Layer 2" transform="translate(0 11.559)">
      <g id="Layer_1" data-name="Layer 1">
        <g id="Group_29" data-name="Group 29">
          <path id="Path_28" data-name="Path 28" d="M17.658,16.865a5.467,5.467,0,0,0,5.579-4.055c.582-2.7-.711-4.506-3.667-6.232-.923-.54-.97-1.014-.883-1.4.042-.346.38-.67,1.056-.67a2.99,2.99,0,0,1,1.94,1.122L24.66,3A6.576,6.576,0,0,0,19.484.582a5.136,5.136,0,0,0-5.261,3.73c-.571,2.524.711,4.508,3.515,6.163,1.035.624,1.141,1.141,1.056,1.617a1.084,1.084,0,0,1-1.141.841c-1.508,0-2.7-1.746-2.7-1.746l-3.106,2.378a6.709,6.709,0,0,0,5.807,3.3ZM31.734.905h-5.5L22.87,16.549h4.636l1.233-5.735h1.79a5.417,5.417,0,0,0,5.781-4.485A4.468,4.468,0,0,0,32.895,1,4.565,4.565,0,0,0,31.734.905Zm.171,5.083a1.248,1.248,0,0,1-1.28,1.05H29.57l.474-2.264h.864a.976.976,0,0,1,1.006,1.214Zm8.9,10.877a6.443,6.443,0,0,0,6.749-5.608L49.761.905H45.126L43.033,10.74c-.19.97-.668,1.467-1.488,1.467-1.1,0-1.387-.67-1.187-1.51L42.43.905H37.793l-2,9.532c-.883,4.21,1.636,6.428,5.02,6.428ZM60.8,6.19A4.375,4.375,0,0,0,57.45,1,4.426,4.426,0,0,0,56.33.905H50.623l-3.3,15.644h4.638L53.241,10.6l2.172,5.952h4.913L57.72,10.1A5.212,5.212,0,0,0,60.8,6.19Zm-5.758-1.4a1.2,1.2,0,0,1,1.293,1.1,1.157,1.157,0,0,1-.044.434,1.567,1.567,0,0,1-1.638,1.293h-.8l.6-2.825ZM73.354.905H61.494L60.543,5.28h3.6L61.753,16.549h4.634l2.4-11.265H72.4ZM84.029,16.865a7.961,7.961,0,0,0,6.642-2.979l-3.361-2.694a3.8,3.8,0,0,1-2.869,1.293,3.424,3.424,0,0,1-3.26-4.307,3.833,3.833,0,0,1,3.789-3.219,3.388,3.388,0,0,1,3.171,2.267l4.141-1.834a7.28,7.28,0,0,0-6.9-4.813,8.539,8.539,0,0,0-8.75,7.1,7.573,7.573,0,0,0,7.4,9.188Zm6.038-.316h4.375l1.531-5.606,2.4,5.2,4.482-4.7-.761,5.109h4.356L108.743,0,99.664,8.994,94.83,0Zm22.882.325a5.467,5.467,0,0,0,5.585-4.055c.582-2.7-.711-4.506-3.666-6.232-.924-.54-.97-1.014-.885-1.4.044-.346.38-.67,1.056-.67a3,3,0,0,1,1.946,1.113L119.96,3A6.576,6.576,0,0,0,114.784.582a5.136,5.136,0,0,0-5.261,3.73c-.571,2.524.711,4.508,3.515,6.163,1.035.624,1.141,1.141,1.058,1.617a1.088,1.088,0,0,1-1.141.841c-1.51,0-2.7-1.746-2.7-1.746l-3.1,2.378a6.711,6.711,0,0,0,5.79,3.3Z" transform="translate(0.04)" fill="#05acd7"/>
          <g id="Group_27" data-name="Group 27" transform="translate(0 0.732)">
            <path id="Path_25" data-name="Path 25" d="M13.741,9.245H5.682a.616.616,0,0,1,0-1.216h8.06a.616.616,0,0,1,0,1.216Z" transform="translate(0.04 -0.732)" fill="#05acd7"/>
            <path id="Path_26" data-name="Path 26" d="M15.1,1.948H5.766A.609.609,0,0,1,5.707.732H15.1a.609.609,0,0,1,.061,1.216Z" transform="translate(0.04 -0.732)" fill="#05acd7"/>
            <path id="Path_27" data-name="Path 27" d="M12.745,5.6H.571a.611.611,0,1,1,0-1.221H12.745a.609.609,0,0,1,0,1.216Z" transform="translate(0.04 -0.732)" fill="#05acd7"/>
          </g>
        </g>
      </g>
    </g>
  </g>
</svg>
