<svg xmlns="http://www.w3.org/2000/svg" xmlns:xlink="http://www.w3.org/1999/xlink" width="32" height="32" viewBox="0 0 32 32">
  <defs>
    <clipPath id="clip-path">
      <rect id="Rectangle_3645" data-name="Rectangle 3645" width="32" height="32" transform="translate(512 623)" fill="#112d55" stroke="#707070" stroke-width="1"/>
    </clipPath>
  </defs>
  <g id="Mask_Group_538" data-name="Mask Group 538" transform="translate(-512 -623)" clip-path="url(#clip-path)">
    <g id="email_1_" data-name="email (1)" transform="translate(509.714 620.714)">
      <g id="LINE_198_">
        <g id="Group_1326" data-name="Group 1326">
          <path id="Path_2012" data-name="Path 2012" d="M30.857,8.571H15.429a1.143,1.143,0,1,1,0-2.286H30.857a1.143,1.143,0,0,1,0,2.286Z" fill="#112d55"/>
        </g>
      </g>
      <g id="ARC_107_">
        <g id="Group_1327" data-name="Group 1327">
          <path id="Path_2013" data-name="Path 2013" d="M33.143,10.857A1.143,1.143,0,0,1,32,9.714a1.144,1.144,0,0,0-1.143-1.143,1.143,1.143,0,0,1,0-2.286,3.432,3.432,0,0,1,3.429,3.429A1.143,1.143,0,0,1,33.143,10.857Z" fill="#112d55"/>
        </g>
      </g>
      <g id="LINE_199_">
        <g id="Group_1328" data-name="Group 1328">
          <path id="Path_2014" data-name="Path 2014" d="M8,8.571H5.714a1.143,1.143,0,1,1,0-2.286H8A1.143,1.143,0,0,1,8,8.571Z" fill="#112d55"/>
        </g>
      </g>
      <g id="LINE_200_">
        <g id="Group_1329" data-name="Group 1329">
          <path id="Path_2015" data-name="Path 2015" d="M12,8.571h-.571a1.143,1.143,0,1,1,0-2.286H12a1.143,1.143,0,1,1,0,2.286Z" fill="#112d55"/>
        </g>
      </g>
      <g id="LINE_503_">
        <g id="Group_1330" data-name="Group 1330">
          <path id="Path_2016" data-name="Path 2016" d="M3.429,28a1.143,1.143,0,0,1-1.143-1.143V9.714a1.143,1.143,0,0,1,2.286,0V26.857A1.143,1.143,0,0,1,3.429,28Z" fill="#112d55"/>
        </g>
      </g>
      <g id="LINE_504_">
        <g id="Group_1331" data-name="Group 1331">
          <path id="Path_2017" data-name="Path 2017" d="M33.143,28A1.143,1.143,0,0,1,32,26.857V9.714a1.143,1.143,0,1,1,2.286,0V26.857A1.143,1.143,0,0,1,33.143,28Z" fill="#112d55"/>
        </g>
      </g>
      <g id="ARC_276_">
        <g id="Group_1332" data-name="Group 1332">
          <path id="Path_2018" data-name="Path 2018" d="M5.714,30.286a3.432,3.432,0,0,1-3.429-3.429,1.143,1.143,0,1,1,2.286,0A1.144,1.144,0,0,0,5.714,28a1.143,1.143,0,0,1,0,2.286Z" fill="#112d55"/>
        </g>
      </g>
      <g id="LINE_505_">
        <g id="Group_1333" data-name="Group 1333">
          <path id="Path_2019" data-name="Path 2019" d="M30.857,30.286H5.714a1.143,1.143,0,1,1,0-2.286H30.857a1.143,1.143,0,0,1,0,2.286Z" fill="#112d55"/>
        </g>
      </g>
      <g id="ARC_277_">
        <g id="Group_1334" data-name="Group 1334">
          <path id="Path_2020" data-name="Path 2020" d="M30.857,30.286a1.143,1.143,0,0,1,0-2.286A1.144,1.144,0,0,0,32,26.857a1.143,1.143,0,1,1,2.286,0A3.432,3.432,0,0,1,30.857,30.286Z" fill="#112d55"/>
        </g>
      </g>
      <g id="ARC_278_">
        <g id="Group_1335" data-name="Group 1335">
          <path id="Path_2021" data-name="Path 2021" d="M18.286,21.1A7.986,7.986,0,0,1,14.093,19.9a1.143,1.143,0,1,1,1.2-1.946,5.687,5.687,0,0,0,5.99,0,1.143,1.143,0,0,1,1.2,1.946A7.986,7.986,0,0,1,18.286,21.1Z" fill="#112d55"/>
        </g>
      </g>
      <g id="LINE_506_">
        <g id="Group_1336" data-name="Group 1336">
          <path id="Path_2022" data-name="Path 2022" d="M21.88,20.074a1.143,1.143,0,0,1-.6-2.116l11.263-6.931a1.143,1.143,0,0,1,1.2,1.946L22.478,19.9a1.137,1.137,0,0,1-.6.17Z" fill="#112d55"/>
        </g>
      </g>
      <g id="LINE_507_">
        <g id="Group_1337" data-name="Group 1337">
          <path id="Path_2023" data-name="Path 2023" d="M14.691,20.074a1.137,1.137,0,0,1-.6-.17L2.83,12.973a1.143,1.143,0,0,1,1.2-1.946l11.263,6.931a1.143,1.143,0,0,1-.6,2.116Z" fill="#112d55"/>
        </g>
      </g>
      <g id="ARC_279_">
        <g id="Group_1338" data-name="Group 1338">
          <path id="Path_2024" data-name="Path 2024" d="M3.429,10.857A1.143,1.143,0,0,1,2.286,9.714,3.432,3.432,0,0,1,5.714,6.286a1.143,1.143,0,1,1,0,2.286A1.144,1.144,0,0,0,4.571,9.714,1.143,1.143,0,0,1,3.429,10.857Z" fill="#112d55"/>
        </g>
      </g>
    </g>
  </g>
</svg>
