<svg width="32" height="32" viewBox="0 0 32 32" fill="none" xmlns="http://www.w3.org/2000/svg">
<path d="M26.7771 10.0857C26.7314 7.20572 24.3771 4.89714 21.4857 4.89714C20.1029 4.89714 18.8571 5.42286 17.92 6.30286C16.4229 4.30286 14.0229 3 11.3371 3C6.75429 3 3.05143 6.72571 3.05143 11.2857C3.05143 11.8457 3.09714 12.4057 3.22286 12.9429C1.29143 14.0286 0 16.0971 0 18.4629C0 21.6114 2.27771 24.2126 5.26857 24.7291V19.3909C5.26857 17.2286 7.02171 15.4709 9.17714 15.4709H22.8229C24.9783 15.4709 26.7314 17.2297 26.7314 19.3909V24.4709C29.7886 23.4971 32 20.6343 32 17.2629C32 13.9143 29.8057 11.0686 26.7771 10.0857Z" fill="#428BC6"/>
<path d="M17.4731 25.4302C17.0251 25.6919 16.5177 25.8313 16 25.8313C15.4823 25.8313 14.9748 25.6931 14.5303 25.4325L7.32568 21.1582V28.6131C7.32568 29.6416 8.14854 30.4759 9.17711 30.4759H22.8228C23.8514 30.4759 24.6743 29.6416 24.6743 28.6131V21.1582L17.4731 25.4302Z" fill="#428BC6"/>
<path d="M15.5757 23.6599C15.7002 23.7331 15.8488 23.7742 15.9997 23.7742C16.1505 23.7742 16.2991 23.7342 16.4271 23.6576L24.578 18.8233C24.3402 18.0736 23.6522 17.5273 22.8225 17.5273H9.17681C8.3471 17.5273 7.66024 18.0736 7.42139 18.8233L15.5757 23.6599Z" fill="#428BC6"/>
</svg>
