<svg width="18" height="11" viewBox="0 0 18 11" fill="none" xmlns="http://www.w3.org/2000/svg">
<path d="M16.351 4.56579V4.56194L16.4263 4.60633C16.6163 4.71819 16.7737 4.87768 16.8831 5.06905C16.9925 5.26041 17.05 5.47701 17.05 5.69743C17.05 5.91785 16.9925 6.13445 16.8831 6.32581C16.7737 6.51714 16.6163 6.67662 16.4264 6.78847L16.351 4.56579ZM16.351 4.56579L13.0026 2.5845C12.9515 2.54778 12.8934 2.52203 12.8319 2.50888C12.7696 2.49557 12.7052 2.49548 12.6428 2.50862C12.5805 2.52176 12.5216 2.54783 12.4699 2.58517C12.4183 2.6225 12.375 2.67025 12.343 2.72534C12.311 2.78043 12.2909 2.84163 12.284 2.90498C12.2771 2.96833 12.2836 3.03242 12.303 3.09311C12.3224 3.1538 12.3544 3.20974 12.3968 3.2573C12.4385 3.30417 12.4896 3.34188 12.5466 3.36808L15.97 5.39379L16.351 4.56579ZM16.0975 5.52358C16.067 5.47001 16.0231 5.42529 15.9701 5.39382L16.0975 5.52358ZM16.0975 5.52358C16.128 5.57717 16.1441 5.63778 16.1441 5.69946M16.0975 5.52358L16.1441 5.69946M16.1441 5.69946C16.1441 5.76113 16.128 5.82173 16.0975 5.87533M16.1441 5.69946L16.0975 5.87533M16.0975 5.87533C16.067 5.9289 16.0231 5.97362 15.9701 6.00508L16.0975 5.87533ZM13.0026 8.8144L16.4263 6.78852L15.97 6.00512L12.5466 8.03083C12.4896 8.05703 12.4385 8.09474 12.3968 8.1416C12.3544 8.18917 12.3224 8.24511 12.303 8.3058C12.2836 8.36649 12.2771 8.43058 12.284 8.49393C12.2909 8.55728 12.311 8.61847 12.343 8.67356C12.375 8.72865 12.4183 8.77641 12.4699 8.81374L12.4992 8.77322L12.4699 8.81374C12.5216 8.85107 12.5805 8.87715 12.6428 8.89029C12.7052 8.90343 12.7696 8.90334 12.8319 8.89002C12.8934 8.87688 12.9515 8.85113 13.0026 8.8144Z" fill="#717171" stroke="#717171" stroke-width="0.1"/>
<path d="M2.05446 5.38723L2.02997 5.40175C1.97694 5.43323 1.933 5.47795 1.90249 5.53154C1.87197 5.58514 1.85592 5.64574 1.85592 5.70741C1.85592 5.76909 1.87197 5.8297 1.90249 5.88329C1.93299 5.93686 1.97691 5.98158 2.02992 6.01305L2.05446 5.38723ZM2.05446 5.38723V5.38321M2.05446 5.38723V5.38321M2.05446 5.38321L5.45343 3.37199C5.51046 3.34579 5.56147 3.30808 5.60324 3.26121C5.64565 3.21365 5.6776 3.15771 5.69703 3.09702C5.71646 3.03633 5.72294 2.97224 5.71604 2.90889C5.70915 2.84554 5.68904 2.78434 5.65701 2.72925C5.62498 2.67416 5.58175 2.62641 5.5301 2.58907C5.47846 2.55174 5.41956 2.52566 5.3572 2.51252C5.29485 2.49938 5.23043 2.49947 5.16811 2.51279C5.10659 2.52594 5.04847 2.55169 4.99741 2.58841L1.57367 4.61429C1.57365 4.6143 1.57363 4.61432 1.57361 4.61433C1.38371 4.72618 1.22629 4.88567 1.11692 5.07701C1.00754 5.26837 0.95 5.48497 0.95 5.70539C0.95 5.92581 1.00754 6.14241 1.11692 6.33377C1.22628 6.5251 1.38369 6.68458 1.57358 6.79643L2.05446 5.38321ZM5.45343 8.03879L2.02997 6.01308L1.57367 6.79648L4.99741 8.82237C5.04847 8.85909 5.10659 8.88484 5.16811 8.89799C5.23043 8.9113 5.29485 8.91139 5.3572 8.89825C5.41956 8.88511 5.47846 8.85904 5.5301 8.8217C5.58175 8.78437 5.62498 8.73662 5.65701 8.68153C5.68904 8.62644 5.70915 8.56524 5.71604 8.50189C5.72294 8.43854 5.71646 8.37445 5.69703 8.31376C5.6776 8.25307 5.64565 8.19713 5.60324 8.14957C5.56147 8.1027 5.51046 8.06499 5.45343 8.03879Z" fill="#717171" stroke="#717171" stroke-width="0.1"/>
<path d="M7.76823 10.4431L7.76837 10.4426C7.65278 10.4106 7.55447 10.3344 7.49478 10.2303C7.43512 10.1264 7.41886 10.0031 7.44953 9.88717C7.44955 9.88712 7.44956 9.88706 7.44958 9.88701L9.67117 1.29251C9.67118 1.29249 9.67118 1.29247 9.67119 1.29245L9.6712 1.29239L9.71961 1.30491L7.76823 10.4431ZM7.76823 10.4431L7.77545 10.444M7.76823 10.4431L7.77545 10.444M7.77545 10.444C7.81195 10.4486 7.84887 10.4488 7.8854 10.4445L7.77545 10.444ZM10.5586 1.50797L10.5586 1.50797L8.3369 10.1028L8.33689 10.1029L8.28848 10.0904C8.2655 10.1796 8.21282 10.2583 8.13913 10.3135C8.06544 10.3688 7.97512 10.3973 7.88306 10.3944L10.5586 1.50797ZM10.5586 1.50797L10.5589 1.50648M10.5586 1.50797L10.5589 1.50648M10.5589 1.50648C10.5851 1.39063 10.5651 1.26913 10.5029 1.16789C10.4409 1.06669 10.3417 0.993737 10.2266 0.964568L10.5589 1.50648Z" fill="#717171" stroke="#717171" stroke-width="0.1"/>
</svg>
