<svg width="18" height="14" viewBox="0 0 18 14" fill="none" xmlns="http://www.w3.org/2000/svg">
<path d="M13.3821 5.80008C13.388 5.8 13.394 5.8 13.4 5.8C15.3882 5.8 17 7.41176 17 9.4C17 11.3882 15.3882 13 13.4 13H5C2.79086 13 1 11.2091 1 9C1 6.92024 2.58718 5.21126 4.61634 5.01816M13.3821 5.80008C13.3939 5.66829 13.4 5.53485 13.4 5.4C13.4 2.96994 11.4301 1 9 1C6.69859 1 4.80986 2.7669 4.61634 5.01816M13.3821 5.80008C13.3002 6.7076 12.9429 7.53568 12.3942 8.2M4.61634 5.01816C4.74261 5.00614 4.87058 5 5 5C5.90066 5 6.73179 5.29767 7.4004 5.8" stroke="#717171" stroke-width="1.1" stroke-linecap="round" stroke-linejoin="round"/>
</svg>
