<svg width="32" height="32" viewBox="0 0 32 32" fill="none" xmlns="http://www.w3.org/2000/svg">
<path fill-rule="evenodd" clip-rule="evenodd" d="M16.0498 30.2646L17.2825 30.9656C18.8737 31.8843 19.8355 29.9309 18.5924 29.207L19.2845 29.6067C19.8373 29.9258 20.5508 29.7347 20.87 29.1818C21.188 28.631 20.998 27.9183 20.4487 27.5985L20.819 27.8122C21.4076 28.1521 22.1673 27.9485 22.5072 27.3599C22.8456 26.7737 22.6438 26.0153 22.0597 25.6745L22.0608 25.6752L22.4286 25.8876C23.0173 26.2275 23.777 26.0239 24.1168 25.4352C24.2858 25.1425 24.319 24.8031 24.2383 24.498C24.1422 24.249 24.0577 24.03 23.6645 23.7471L19.951 21.6031C17.9858 20.0263 16.9226 19.1196 15.4546 17.6286C12.904 15.7954 11.0683 18.0759 7.69403 16.1781L5.29383 14.8281C3.15198 16.5732 1.93667 18.7574 2.68988 22.319L6.97625 24.5287L8.08127 25.7178L16.0497 30.2644L16.0498 30.2646Z" fill="#F29988"/>
<path fill-rule="evenodd" clip-rule="evenodd" d="M23.9088 25.7027C23.989 25.6252 24.0598 25.5353 24.1182 25.4342C24.2872 25.1415 24.3205 24.802 24.2398 24.497C24.1436 24.2479 24.0591 24.029 23.6659 23.746L19.9524 21.602C17.9872 20.0253 16.924 19.1185 15.456 17.6276C15.1375 17.3987 14.8302 17.2339 14.5296 17.1172L11.2851 19.1401C10.123 19.8646 10.1515 21.3574 11.1603 22.1928C11.7475 22.679 12.4295 22.9606 13.1989 22.9307C14.736 22.8709 15.948 21.5948 17.3421 21.5865C18.1376 21.5818 18.8262 22.018 19.4907 22.4017L23.1616 24.521C23.4757 24.7217 24.1006 25.0782 23.9088 25.7027Z" fill="#EA806F"/>
<path fill-rule="evenodd" clip-rule="evenodd" d="M18.4142 29.1029C18.186 28.9712 17.8918 29.0499 17.76 29.2783C17.6284 29.5062 17.7074 29.8009 17.9353 29.9324L19.0626 30.5833C19.2689 30.1295 19.1632 29.5382 18.5925 29.2059L18.4142 29.1029H18.4142Z" fill="#EA806F"/>
<path fill-rule="evenodd" clip-rule="evenodd" d="M19.7663 27.2041C19.5115 27.057 19.1831 27.145 19.036 27.3998C18.8891 27.6543 18.9772 27.9833 19.2317 28.1302L20.9136 29.1012C21.1699 28.5633 20.9726 27.9031 20.4499 27.5988L19.7663 27.2042V27.2041Z" fill="#EA806F"/>
<path fill-rule="evenodd" clip-rule="evenodd" d="M22.06 25.6728L21.0046 25.0635C20.7498 24.9164 20.4214 25.0044 20.2743 25.2592C20.1273 25.5136 20.2155 25.8426 20.4699 25.9895L22.5809 27.2082C22.8095 26.6484 22.5954 25.9851 22.06 25.6728Z" fill="#EA806F"/>
<path fill-rule="evenodd" clip-rule="evenodd" d="M7.87563 26.0683C7.53963 26.6503 7.7409 27.4016 8.32294 27.7376C8.90421 28.0733 9.65666 27.8716 9.99221 27.2903L10.8704 25.7692C11.2065 25.1872 11.0052 24.436 10.4231 24.0999C9.84186 23.7643 9.08942 23.9659 8.75386 24.5472L7.87563 26.0684V26.0683Z" fill="#FFCEC0"/>
<path fill-rule="evenodd" clip-rule="evenodd" d="M14.2263 29.7401C13.8902 30.3222 14.0915 31.0734 14.6736 31.4095C15.2548 31.7451 16.0073 31.5435 16.3428 30.9622L17.2211 29.441C17.5571 28.859 17.3559 28.1078 16.7738 27.7718C16.1925 27.4362 15.44 27.6378 15.1044 28.2191L14.2262 29.7402L14.2263 29.7401Z" fill="#FFCEC0"/>
<path fill-rule="evenodd" clip-rule="evenodd" d="M11.8122 29.0273C11.4761 29.6093 11.6775 30.3605 12.2595 30.6965C12.8408 31.0322 13.5932 30.8305 13.9288 30.2492L15.1035 28.2145C15.4396 27.6325 15.2383 26.8813 14.6562 26.5452C14.0749 26.2096 13.3225 26.4113 12.9869 26.9925L11.8122 29.0273Z" fill="#FFCEC0"/>
<path fill-rule="evenodd" clip-rule="evenodd" d="M9.44696 28.2397C9.1109 28.8217 9.31217 29.573 9.89427 29.909C10.4755 30.2446 11.228 30.043 11.5635 29.4617L12.9872 26.9957C13.3233 26.4137 13.122 25.6625 12.5399 25.3265C11.9587 24.9908 11.2062 25.1925 10.8706 25.7738L9.4469 28.2398L9.44696 28.2397Z" fill="#FFCEC0"/>
<path fill-rule="evenodd" clip-rule="evenodd" d="M28.9494 22.3113L24.2401 24.4901C24.1439 24.2411 24.0595 24.0221 23.6663 23.7392L19.9527 21.5952C19.1413 21.1267 18.3588 20.6503 17.3371 20.6563C15.1144 20.6695 13.6214 23.0248 11.7495 21.4748C11.2782 21.0845 11.1017 20.3358 11.774 19.9166L15.7448 17.4409C17.0694 16.615 18.4953 16.2213 19.9428 16.6984C21.1841 17.1076 22.4108 17.0087 23.553 16.3735L26.3455 14.8203C28.7523 16.4837 29.8056 19.5137 28.9495 22.3113H28.9494Z" fill="#FFCEC0"/>
<path fill-rule="evenodd" clip-rule="evenodd" d="M29.7303 22.6815L28.5504 23.1826C28.4014 23.2459 28.2442 23.2319 28.1087 23.1433C27.9732 23.0546 27.8975 22.9161 27.8958 22.7542C27.8674 19.9521 26.7207 17.6545 24.6863 15.9418C24.5642 15.839 24.5056 15.6954 24.5209 15.5366C24.5362 15.3778 24.6212 15.2481 24.7606 15.1705L26.2654 14.3336C26.5197 14.1922 26.8173 14.2161 27.0457 14.3962C29.4255 16.2733 30.6824 19.5482 30.146 22.1732C30.098 22.4079 29.9507 22.588 29.7302 22.6816L29.7303 22.6815Z" fill="#FF6677"/>
<path fill-rule="evenodd" clip-rule="evenodd" d="M29.7302 22.6816L28.9174 23.0268C28.9126 23.0239 28.9079 23.0209 28.9032 23.0179C28.7595 22.9238 28.6792 22.777 28.6775 22.6054C28.6474 19.6344 27.4315 17.1984 25.2746 15.3825C25.153 15.2801 25.0908 15.1396 25.0971 14.9834L26.2653 14.3336C26.5195 14.1922 26.8172 14.2161 27.0456 14.3962C29.4253 16.2732 30.6823 19.5482 30.1459 22.1732C30.098 22.4079 29.9506 22.588 29.7302 22.6816H29.7302Z" fill="#FF8389"/>
<path fill-rule="evenodd" clip-rule="evenodd" d="M1.98175 22.6815L3.16163 23.1826C3.31065 23.2459 3.46786 23.2319 3.60335 23.1433C3.73884 23.0546 3.81459 22.9161 3.81617 22.7542C3.84456 19.9521 4.99129 17.6545 7.02565 15.9418C7.14774 15.839 7.20635 15.6954 7.19111 15.5366C7.17574 15.3778 7.09085 15.2481 6.95143 15.1705L5.44666 14.3336C5.19243 14.1922 4.89478 14.2161 4.66634 14.3962C2.28658 16.2733 1.02956 19.5482 1.56607 22.1732C1.61401 22.4079 1.76137 22.588 1.98182 22.6816L1.98175 22.6815Z" fill="#79B6EA"/>
<path fill-rule="evenodd" clip-rule="evenodd" d="M1.98173 22.6816L2.79456 23.0268C2.79932 23.0239 2.80408 23.0209 2.80878 23.0179C2.9524 22.9238 3.03272 22.777 3.0345 22.6054C3.06459 19.6344 4.28041 17.1984 6.43737 15.3825C6.55889 15.2801 6.62118 15.1396 6.61483 14.9834L5.44663 14.3336C5.19241 14.1922 4.89476 14.2161 4.66638 14.3962C2.28662 16.2732 1.0296 19.5482 1.56605 22.1732C1.61398 22.4079 1.76135 22.588 1.98179 22.6816H1.98173Z" fill="#B1D7FE"/>
<path fill-rule="evenodd" clip-rule="evenodd" d="M8.54883 27.8515C9.08629 28.0284 9.69772 27.8104 9.99099 27.3025L10.8693 25.7813C11.1629 25.2727 11.0462 24.6348 10.6237 24.2578L8.54883 27.8515Z" fill="#FDB0A0"/>
<path fill-rule="evenodd" clip-rule="evenodd" d="M14.8984 31.5155C15.4359 31.6924 16.0474 31.4744 16.3406 30.9665L17.2188 29.4454C17.5125 28.9367 17.3958 28.2989 16.9732 27.9219L14.8984 31.5155V31.5155Z" fill="#FDB0A0"/>
<path fill-rule="evenodd" clip-rule="evenodd" d="M12.4863 30.8025C13.0238 30.9795 13.6352 30.7614 13.9285 30.2536L15.1032 28.2188C15.3969 27.7102 15.2802 27.0724 14.8576 26.6953L12.4863 30.8025Z" fill="#FDB0A0"/>
<path fill-rule="evenodd" clip-rule="evenodd" d="M10.1201 30.0151C10.6566 30.1917 11.2668 29.9748 11.5607 29.4689L12.986 27.0001C13.2797 26.4914 13.163 25.8536 12.7404 25.4766L10.1201 30.0151Z" fill="#FDB0A0"/>
<path fill-rule="evenodd" clip-rule="evenodd" d="M13.2526 12.9786C13.2526 13.4825 13.6649 13.8949 14.1689 13.8949H17.5427C18.0466 13.8949 18.459 13.4826 18.459 12.9786V11.7205C18.459 9.1988 21.0622 8.49048 21.0622 5.10152C21.0622 1.99217 18.459 0.4375 15.8558 0.4375C13.2526 0.4375 10.6494 1.99217 10.6494 5.10152C10.6494 8.49042 13.2526 9.1988 13.2526 11.7205V12.9786Z" fill="#FAC600"/>
<path fill-rule="evenodd" clip-rule="evenodd" d="M13.2526 12.9786C13.2526 13.4825 13.6649 13.8949 14.1689 13.8949H16.508C17.0119 13.8949 17.4242 13.4826 17.4242 12.9786V11.4841C17.4242 8.96236 20.0274 8.25398 20.0274 4.86507C20.0274 2.54329 18.5758 1.08849 16.7567 0.500421C16.4591 0.458643 16.1574 0.4375 15.8558 0.4375C13.2526 0.4375 10.6494 1.99217 10.6494 5.10152C10.6494 8.49042 13.2526 9.1988 13.2526 11.7205V12.9786Z" fill="#FED402"/>
<path fill-rule="evenodd" clip-rule="evenodd" d="M17.2488 13.2578V14.8725C17.2488 15.2584 16.9329 15.5743 16.5471 15.5743H15.1637C14.7779 15.5743 14.4619 15.2585 14.4619 14.8725V13.2578H17.2489H17.2488Z" fill="#495586"/>
<path fill-rule="evenodd" clip-rule="evenodd" d="M15.4756 15.5743H15.1637C14.7779 15.5743 14.4619 15.2585 14.4619 14.8725V13.2578H16.1774V14.8725C16.1774 15.2584 15.8615 15.5743 15.4756 15.5743Z" fill="#5D689E"/>
<path fill-rule="evenodd" clip-rule="evenodd" d="M18.4613 12.9769C18.4613 13.4811 18.0486 13.8938 17.5443 13.8938H14.1679C13.6636 13.8938 13.251 13.4812 13.251 12.9769V12.0781H18.4613V12.9769H18.4613Z" fill="#5D689E"/>
<path fill-rule="evenodd" clip-rule="evenodd" d="M16.5076 13.8938H14.1679C13.6636 13.8938 13.251 13.4812 13.251 12.9769V12.0781H17.4246V12.8849C17.4246 13.4398 17.0119 13.8939 16.5077 13.8939L16.5076 13.8938Z" fill="#7986BF"/>
<path fill-rule="evenodd" clip-rule="evenodd" d="M10.3067 8.80188C10.4301 9.01457 10.357 9.28632 10.1443 9.40874L9.10433 10.0095C9.03455 10.0496 8.95836 10.0692 8.88274 10.0692C8.72909 10.0692 8.57976 9.98931 8.49747 9.84702C8.37474 9.63432 8.44763 9.36258 8.65969 9.23921L9.69989 8.6394C9.91259 8.51667 10.1843 8.58924 10.3067 8.80188ZM7.2788 5.299C7.2788 5.05329 7.47772 4.85462 7.72318 4.85462H8.92408C9.16954 4.85462 9.36846 5.05323 9.36846 5.299C9.36846 5.54478 9.16954 5.74339 8.92408 5.74339H7.72318C7.47772 5.74339 7.2788 5.54415 7.2788 5.299ZM8.49747 0.750987C8.61989 0.538288 8.89227 0.465145 9.10433 0.58851L10.1443 1.18864C10.357 1.31105 10.4301 1.5828 10.3067 1.7955C10.2247 1.93842 10.0751 2.01766 9.92148 2.01766C9.84649 2.01766 9.76967 1.99867 9.69989 1.95861L8.65969 1.35816C8.44763 1.23543 8.3748 0.963686 8.49747 0.750987ZM23.0522 9.23921C23.2643 9.36258 23.3374 9.63432 23.2147 9.84702C23.1323 9.98931 22.983 10.0692 22.8294 10.0692C22.7538 10.0692 22.6776 10.0496 22.6078 10.0095L21.5679 9.40874C21.3552 9.28632 21.2827 9.01457 21.4054 8.80188C21.5278 8.58918 21.7996 8.51667 22.0123 8.6394L23.0521 9.23921H23.0522ZM22.7881 4.85462H23.9887C24.2345 4.85462 24.4331 5.05323 24.4331 5.299C24.4331 5.54478 24.2345 5.74339 23.9887 5.74339H22.7881C22.543 5.74339 22.3437 5.54415 22.3437 5.299C22.3437 5.05386 22.543 4.85462 22.7881 4.85462ZM21.4055 1.7955C21.2827 1.5828 21.3553 1.31105 21.5679 1.18864L22.6079 0.58851C22.8206 0.465208 23.0923 0.538288 23.2147 0.750987C23.3375 0.963686 23.2643 1.23543 23.0523 1.35816L22.0124 1.95861C21.9426 1.99867 21.8658 2.01766 21.7908 2.01766C21.6371 2.01766 21.4872 1.93842 21.4055 1.7955H21.4055ZM14.4924 7.13825C14.1552 6.9326 13.8586 6.63241 13.6637 6.21406C13.4296 5.7131 13.4148 5.35412 13.4788 5.18612C13.4972 5.13716 13.5165 5.12002 13.5202 5.11881C13.5214 5.11818 13.5242 5.11761 13.5284 5.11761C13.5474 5.11761 13.5963 5.1265 13.6707 5.17545C13.9868 5.38599 14.3443 6.01393 14.4924 7.13825ZM17.2198 7.13825C17.3679 6.01387 17.7254 5.38586 18.0415 5.17539C18.1155 5.12643 18.1646 5.11754 18.1838 5.11754C18.188 5.11754 18.1912 5.11818 18.192 5.11875C18.1957 5.11996 18.2153 5.1371 18.2337 5.18605C18.2973 5.35405 18.2827 5.71304 18.0486 6.21399C17.8536 6.63234 17.5571 6.93266 17.2198 7.13825ZM15.8561 0.888702C13.5609 0.888702 11.0906 2.21017 11.0906 5.1117C11.0906 6.78968 11.7831 7.75679 12.4533 8.6914C13.0492 9.52321 13.6649 10.3823 13.694 11.6419H14.5607L14.5616 8.2773C14.5616 8.23876 14.5607 8.20048 14.5607 8.16257C13.8078 7.86968 13.1982 7.32009 12.8579 6.58987C12.4542 5.7244 12.4573 4.94859 12.8661 4.51494C13.1354 4.2291 13.529 4.15106 13.9183 4.30592C14.5741 4.56637 15.2694 5.53589 15.4206 7.47552C15.5696 7.49971 15.7165 7.51101 15.8561 7.51101C15.9957 7.51101 16.1423 7.49971 16.2922 7.47552C16.4428 5.53589 17.1381 4.56637 17.794 4.30592C18.1829 4.15106 18.5768 4.2291 18.8458 4.51494C19.255 4.94859 19.2581 5.7244 18.8541 6.58987C18.5141 7.32009 17.9044 7.86975 17.1519 8.16257C17.1513 8.20048 17.1513 8.23876 17.1513 8.2773V11.6419H18.018C18.048 10.3823 18.6631 9.52321 19.2587 8.6914C19.9292 7.75679 20.622 6.78968 20.622 5.1117C20.622 2.21017 18.1514 0.888702 15.8561 0.888702ZM16.2625 11.6419H15.4497L15.4503 8.37832C15.7165 8.40772 15.9957 8.40772 16.2625 8.37832V11.6419ZM17.5442 13.4579H14.1677C13.9075 13.4579 13.6955 13.2458 13.6955 12.9854V12.5306H18.0167V12.9854C18.0167 13.2458 17.8046 13.4579 17.5442 13.4579ZM16.548 15.1313H15.1644C15.0249 15.1313 14.9068 15.0135 14.9068 14.8742V14.3466H16.8051V14.8742C16.8051 15.0135 16.687 15.1313 16.548 15.1313H16.548ZM11.731 9.2095C12.3079 10.0146 12.8064 10.7097 12.8064 11.7358V12.9853C12.8064 13.6849 13.338 14.2627 14.0181 14.3377V14.8742C14.0181 15.5058 14.5322 16.0203 15.1645 16.0203H16.548C17.18 16.0203 17.6941 15.5058 17.6941 14.8742V14.3377C18.3741 14.2627 18.9054 13.6849 18.9054 12.9853V11.7358C18.9054 10.7096 19.404 10.0146 19.9812 9.2095C20.6979 8.20873 21.5107 7.07552 21.5107 5.1117C21.5107 3.52947 20.8898 2.19855 19.7152 1.26362C18.6915 0.448319 17.3214 0 15.8561 0C14.3908 0 13.0204 0.448319 11.997 1.26362C10.8224 2.19855 10.2015 3.52954 10.2015 5.1117C10.2015 7.07552 11.014 8.20879 11.7311 9.2095H11.731ZM29.7103 22.1233C29.692 22.2151 29.643 22.2751 29.5573 22.3118L28.376 22.8128C28.3637 22.8183 28.3637 22.8177 28.3515 22.8106C28.3423 22.8033 28.3393 22.8024 28.3393 22.7892C28.3117 19.9434 27.1469 17.4719 24.9728 15.6411C24.9664 15.6356 24.9639 15.6323 24.9639 15.6317C24.9633 15.6305 24.9627 15.6268 24.9633 15.6185C24.9639 15.6109 24.9658 15.6063 24.9658 15.6057C24.9664 15.6051 24.9698 15.602 24.9768 15.598L26.4813 14.7613C26.5245 14.7371 26.5679 14.7258 26.6111 14.7258C26.6667 14.7258 26.7209 14.7455 26.7705 14.7849C28.985 16.5321 30.2214 19.6184 29.7103 22.1233L29.7103 22.1233ZM23.8968 23.3701C23.9094 23.3777 23.9219 23.386 23.9342 23.3943C24.1925 23.5809 24.3495 23.7544 24.4554 23.9167L27.4454 22.534C27.3557 20.0775 26.3641 18.0172 24.4961 16.4038L23.7772 16.8038C22.5512 17.4857 21.1842 17.6096 19.8251 17.1613C18.6388 16.7702 17.3927 16.9975 16.0155 17.856L12.0585 20.3233C11.9119 20.4147 11.8363 20.5222 11.8275 20.651C11.8162 20.8206 11.9162 21.0186 12.0827 21.1563C12.9436 21.8694 13.6435 21.5829 14.8067 21.0146C15.5455 20.654 16.3831 20.2446 17.3646 20.2387C18.4663 20.2299 19.2981 20.7143 20.1042 21.181L23.8969 23.3701L23.8968 23.3701ZM23.7405 25.2151C23.6358 25.396 23.4662 25.5258 23.2618 25.5802C23.058 25.6356 22.8459 25.6081 22.6651 25.5034L22.2935 25.2889C22.2929 25.2889 22.2929 25.2882 22.2923 25.2882L21.373 24.7572C21.1603 24.6348 20.8886 24.7074 20.7658 24.9201C20.6434 25.1328 20.7159 25.4042 20.9283 25.527L21.8486 26.0585C22.2244 26.2755 22.3532 26.7575 22.1363 27.1333C21.919 27.5091 21.4369 27.6379 21.0611 27.4216L20.6912 27.2077C20.6896 27.207 20.689 27.2065 20.6884 27.2065L20.26 26.9586C20.0479 26.8362 19.7762 26.9093 19.6528 27.1214C19.5304 27.3338 19.6035 27.6056 19.8153 27.7289L20.2441 27.9759C20.5844 28.172 20.7013 28.6091 20.5048 28.9485C20.3084 29.2888 19.8719 29.4057 19.5322 29.2095L18.8376 28.8089V28.8083C18.6252 28.6859 18.3534 28.7587 18.2307 28.9714C18.1073 29.1835 18.1805 29.4559 18.3932 29.5783L18.395 29.5798C18.7849 29.8056 18.8033 30.1842 18.6555 30.4401C18.4948 30.7195 18.1156 30.8979 17.5323 30.5613L17.2155 30.3828L17.6364 29.6539C18.0942 28.8604 17.8212 27.8419 17.0277 27.3834C16.6117 27.1435 16.1334 27.104 15.7068 27.2356C15.608 26.8001 15.335 26.4063 14.9185 26.1657C14.5357 25.9447 14.0879 25.8863 13.6574 26.0019C13.6378 26.0071 13.6182 26.0127 13.5986 26.0185C13.4989 25.583 13.2259 25.1885 12.8094 24.948C12.4262 24.727 11.9788 24.6685 11.5482 24.7839C11.5286 24.7891 11.5081 24.795 11.4885 24.8014C11.4836 24.7809 11.4784 24.7607 11.4732 24.7402C11.3579 24.3105 11.0836 23.9518 10.6999 23.7303C10.317 23.5093 9.8696 23.4508 9.43963 23.5665C9.00903 23.6812 8.65068 23.9555 8.42941 24.3383L8.06185 24.9758L7.37055 24.2318C7.33505 24.1942 7.29372 24.1627 7.24782 24.1391L4.2652 22.6012C4.33866 20.1193 5.32806 18.0385 7.2068 16.4114L7.54191 16.5999C9.36986 17.6279 10.7831 17.5051 12.0302 17.3974C12.9845 17.3147 13.775 17.2462 14.6429 17.6646L11.589 19.5687C11.1991 19.812 10.9687 20.1753 10.9408 20.5912C10.9102 21.0432 11.1311 21.5219 11.5158 21.841C12.8609 22.955 14.1018 22.3485 15.1965 21.8132C15.8824 21.4787 16.5908 21.132 17.37 21.1276H17.3865C18.2373 21.1276 18.9281 21.5267 19.6595 21.9496L23.4323 24.1286C23.6906 24.3181 23.7442 24.4374 23.8222 24.6384C23.8685 24.8355 23.8394 25.0442 23.7408 25.215L23.7405 25.2151ZM15.9913 30.7256L16.8663 29.2096C16.9691 29.0318 16.9958 28.8237 16.9422 28.6235C16.8884 28.4231 16.7607 28.256 16.5829 28.1532C16.2141 27.9405 15.7404 28.0675 15.5271 28.4357L14.6515 29.9518V29.9524C14.5493 30.1302 14.5221 30.3387 14.5759 30.5385C14.6295 30.7392 14.7568 30.9063 14.9346 31.0086C15.1118 31.1114 15.3202 31.138 15.5209 31.0841C15.722 31.03 15.8885 30.9029 15.9913 30.7258L15.9913 30.7256ZM13.1164 30.378C13.3169 30.3244 13.484 30.1968 13.5862 30.0196L13.7704 29.701L14.7568 27.9924V27.9918L14.7577 27.9912C14.9704 27.6221 14.8428 27.1487 14.4737 26.9353C14.2969 26.8331 14.0885 26.8062 13.888 26.8604C13.6878 26.9136 13.5214 27.04 13.4185 27.2166L12.247 29.2463C12.1442 29.4241 12.1175 29.6325 12.1708 29.8323C12.225 30.0331 12.3526 30.2002 12.5304 30.303C12.7076 30.4052 12.9156 30.4318 13.1164 30.378ZM11.2294 29.2319L11.4179 28.9041L12.6479 26.7747V26.7741C12.8612 26.4044 12.7342 25.9306 12.3645 25.7179C12.1873 25.6151 11.9793 25.5885 11.7785 25.6426C11.5781 25.6965 11.4109 25.8235 11.3087 26.0007L11.3081 26.0014L10.4332 27.5162V27.5169C10.4332 27.5175 10.4325 27.5181 10.432 27.5187L10.4167 27.5456L9.88967 28.4585C9.78681 28.6363 9.76021 28.8444 9.81405 29.0446C9.86725 29.245 9.99519 29.4121 10.173 29.5143C10.5418 29.7277 11.0161 29.6006 11.2295 29.2319H11.2294ZM8.60731 27.3556C8.97608 27.5683 9.45043 27.4419 9.66313 27.0725L10.5384 25.5564C10.752 25.1867 10.6247 24.713 10.2553 24.5003C10.0784 24.3975 9.86998 24.3708 9.66929 24.4247C9.46884 24.4788 9.30173 24.6058 9.19951 24.783L8.32395 26.2992C8.22172 26.4769 8.19449 26.6851 8.24833 26.8858C8.3016 27.0857 8.42922 27.2527 8.60731 27.3556ZM3.36006 22.8107C3.37079 22.8033 3.37167 22.8024 3.37167 22.7887C3.40075 19.9434 4.5652 17.4719 6.73931 15.6412C6.74693 15.6351 6.74877 15.6317 6.74877 15.6317C6.74877 15.6317 6.7494 15.6281 6.74877 15.6186C6.74813 15.6097 6.74629 15.6058 6.74629 15.6058C6.74629 15.6058 6.74356 15.6027 6.73524 15.5981L5.23048 14.7614C5.18794 14.7372 5.14419 14.7259 5.10101 14.7259C5.04501 14.7259 4.99111 14.7455 4.94159 14.7849C2.72589 16.5321 1.48951 19.6185 2.00119 22.1234C2.02049 22.2152 2.06945 22.2752 2.15573 22.3119L3.33517 22.8129C3.34742 22.8184 3.34863 22.8178 3.35999 22.8108L3.36006 22.8107ZM27.3208 14.0865C26.9502 13.7936 26.4629 13.7548 26.0499 13.9843L24.5451 14.8216C24.2776 14.9698 24.1081 15.2293 24.079 15.5329C24.0756 15.5625 24.0756 15.5916 24.075 15.621L23.3457 16.0268C22.3278 16.593 21.2371 16.6909 20.1033 16.317C18.6714 15.845 17.1381 16.1091 15.5455 17.1017L15.5024 17.1283C14.2198 16.3157 13.0688 16.4152 11.9533 16.5119C10.7793 16.6141 9.56592 16.7187 7.97728 15.8255L7.63696 15.6336C7.6376 15.6008 7.63696 15.5669 7.63391 15.5329C7.60394 15.2293 7.43436 14.9698 7.16724 14.8216L5.66248 13.9843C5.24965 13.7548 4.76209 13.7936 4.39123 14.0865C1.92672 16.0305 0.555093 19.4859 1.1304 22.3017C1.20779 22.6782 1.45478 22.9796 1.80799 23.1302L2.98837 23.6312C3.10558 23.6808 3.22767 23.7056 3.34825 23.7056C3.52209 23.7056 3.69377 23.6548 3.84736 23.5544C3.89358 23.5238 3.93549 23.4889 3.97466 23.4522L6.7715 24.8939L7.59626 25.7811L7.55461 25.8548C7.33277 26.2383 7.27429 26.6858 7.38934 27.1157C7.50502 27.5456 7.77925 27.904 8.16268 28.1253C8.41271 28.27 8.69093 28.3447 8.97335 28.3474C8.87938 28.6452 8.87176 28.9644 8.955 29.275C9.07068 29.7047 9.3449 30.0628 9.7284 30.2846C10.26 30.591 10.8916 30.5702 11.3889 30.2849C11.5291 30.6158 11.7702 30.8903 12.0857 31.0724C12.4686 31.2933 12.9163 31.3517 13.3463 31.237C13.5137 31.1917 13.6701 31.1225 13.8124 31.0332C13.9544 31.3448 14.1889 31.6046 14.4903 31.7784C14.7449 31.925 15.028 32.0006 15.315 32C15.4604 32 15.6066 31.981 15.7514 31.9422C16.1811 31.8274 16.5397 31.5532 16.7607 31.1703L16.7708 31.1523L17.0921 31.3335C17.4602 31.5462 17.807 31.6355 18.1188 31.6355C18.7126 31.6355 19.1799 31.3099 19.4256 30.8845C19.5474 30.673 19.62 30.4261 19.6289 30.1727C20.267 30.2771 20.9323 29.9854 21.2744 29.3932C21.4522 29.0856 21.5159 28.7429 21.4782 28.4148C22.0484 28.4056 22.6008 28.1067 22.9062 27.5778C23.1024 27.2375 23.1651 26.8565 23.1112 26.4953C23.2382 26.4908 23.3658 26.473 23.4923 26.4393C23.9253 26.3233 24.2871 26.0464 24.5101 25.6595C24.665 25.3911 24.7405 25.0799 24.7304 24.769L27.6864 23.4019C27.7385 23.4591 27.7984 23.5106 27.8655 23.5543C28.0179 23.6547 28.1893 23.7055 28.3637 23.7055C28.4861 23.7055 28.6055 23.6807 28.7249 23.6311L29.9031 23.1301C30.2581 22.9796 30.5029 22.6781 30.5824 22.3017C31.1578 19.4859 29.7868 16.0304 27.3207 14.0865L27.3208 14.0865Z" fill="black"/>
</svg>
