<svg width="14" height="14" viewBox="0 0 14 14" fill="none" xmlns="http://www.w3.org/2000/svg">
<path d="M6.88456 6.9999L0.730114 0.85304C0.534744 0.657894 0.534744 0.341506 0.730114 0.14636C0.925501 -0.0487864 1.24228 -0.0487864 1.43766 0.14636L7.89903 6.59978C8.00895 6.70958 8.05703 6.85774 8.04327 7.00108C8.05634 7.14378 8.0082 7.29099 7.89881 7.40022L1.43745 13.8536C1.24208 14.0488 0.925301 14.0488 0.729914 13.8536C0.534527 13.6585 0.534527 13.3421 0.729914 13.147L6.88456 6.9999Z" fill="#717171"/>
<path d="M12.5474 6.9999L6.39296 0.85304C6.19757 0.657894 6.19757 0.341506 6.39296 0.14636C6.58835 -0.0487864 6.90512 -0.0487864 7.10049 0.14636L13.5619 6.59978C13.6718 6.70958 13.7199 6.85772 13.7061 7.00108C13.7192 7.14376 13.671 7.29099 13.5617 7.40022L7.10029 13.8536C6.90491 14.0488 6.58813 14.0488 6.39274 13.8536C6.19737 13.6585 6.19737 13.3421 6.39274 13.147L12.5474 6.9999Z" fill="#717171"/>
</svg>
