<svg width="16" height="16" viewBox="0 0 16 16" fill="none" xmlns="http://www.w3.org/2000/svg">
<path d="M9.30863 7.31143C9.1507 7.31143 8.99277 7.25128 8.87247 7.13067C7.9104 6.16859 6.34497 6.16828 5.38259 7.13067C5.14199 7.37158 4.75087 7.37158 4.51027 7.13067C4.26936 6.88976 4.26936 6.49926 4.51027 6.25835C5.95354 4.81477 8.30183 4.81508 9.74479 6.25835C9.9857 6.49926 9.9857 6.88976 9.74479 7.13067C9.6245 7.25128 9.46626 7.31143 9.30863 7.31143Z" fill="#717171"/>
<path d="M8.8724 10.8307C7.92451 10.8307 6.97662 10.4698 6.25514 9.74831C6.01424 9.5074 6.01424 9.1169 6.25514 8.87599C6.49574 8.63509 6.88686 8.63509 7.12746 8.87599C8.08954 9.83807 9.65496 9.83838 10.6173 8.87599C10.8579 8.63509 11.2491 8.63509 11.4897 8.87599C11.7306 9.1169 11.7306 9.5074 11.4897 9.74831C10.7679 10.4698 9.81998 10.8307 8.8724 10.8307Z" fill="#717171"/>
<path d="M11.0532 9.92593C10.8953 9.92593 10.7374 9.86579 10.6171 9.74518C10.3762 9.50427 10.3762 9.11377 10.6171 8.87286L14.0632 5.42677C14.3038 5.18587 14.6949 5.18587 14.9355 5.42677C15.1764 5.66768 15.1764 6.05819 14.9355 6.29909L11.4894 9.74518C11.3691 9.86579 11.2112 9.92593 11.0532 9.92593Z" fill="#717171"/>
<path d="M5.86244 15.1132C5.70451 15.1132 5.54658 15.053 5.42628 14.9324C5.18538 14.6915 5.18538 14.301 5.42628 14.0601L7.3526 12.1338C7.5932 11.8929 7.98432 11.8929 8.22492 12.1338C8.46582 12.3747 8.46582 12.7652 8.22492 13.0061L6.2986 14.9324C6.1783 15.053 6.02037 15.1132 5.86244 15.1132Z" fill="#717171"/>
<path d="M1.50038 10.7538C1.34245 10.7538 1.18452 10.6936 1.06422 10.573C0.823319 10.3321 0.823319 9.94158 1.06422 9.70068L4.51031 6.2549C4.75122 6.01399 5.14203 6.01399 5.38263 6.2549C5.62353 6.4958 5.62353 6.88631 5.38263 7.12722L1.93654 10.573C1.81594 10.6933 1.658 10.7538 1.50038 10.7538Z" fill="#717171"/>
<path d="M8.21083 4.0471C8.0529 4.0471 7.89528 3.98695 7.77467 3.86665C7.53377 3.62574 7.53377 3.23524 7.77467 2.99402L9.70099 1.0674C9.9419 0.826492 10.3324 0.826492 10.5736 1.0674C10.8145 1.3083 10.8145 1.69881 10.5736 1.94002L8.6473 3.86665C8.52669 3.98664 8.36845 4.0471 8.21083 4.0471Z" fill="#717171"/>
<path d="M3.68144 15.9992C2.72738 15.9992 1.77332 15.6445 1.06418 14.935C-0.354726 13.5161 -0.354726 11.1191 1.06418 9.70021C1.30478 9.4593 1.6959 9.4593 1.9365 9.70021C2.1774 9.94112 2.1774 10.3316 1.9365 10.5725C0.990766 11.5183 0.990766 13.1167 1.9365 14.0624C2.88223 15.0081 4.48065 15.0081 5.42638 14.0624C5.66698 13.8215 6.05811 13.8215 6.2987 14.0624C6.53961 14.3033 6.53961 14.6938 6.2987 14.9347C5.58956 15.6445 4.6355 15.9992 3.68144 15.9992Z" fill="#717171"/>
<path d="M14.4993 6.47946C14.3414 6.47946 14.1834 6.41931 14.0631 6.2987C13.8222 6.0578 13.8222 5.66729 14.0631 5.42638C15.0089 4.48065 15.0089 2.88223 14.0631 1.9365C13.1174 0.990766 11.519 0.990766 10.5733 1.9365C10.3327 2.1774 9.94154 2.1774 9.70094 1.9365C9.46004 1.69559 9.46004 1.30508 9.70094 1.06418C11.1198 -0.354726 13.5169 -0.354726 14.9358 1.06418C16.3547 2.48308 16.3547 4.88011 14.9358 6.29901C14.8152 6.41931 14.6572 6.47946 14.4993 6.47946Z" fill="#717171"/>
</svg>
