<svg width="16" height="16" viewBox="0 0 16 16" fill="none" xmlns="http://www.w3.org/2000/svg">
<path d="M7.77134 0.0396541L7.77134 0.0397792L7.77382 0.0394581C7.92298 0.0201806 8.07399 0.0201806 8.22314 0.0394581L8.22313 0.0395845L8.22565 0.0396547C10.3 0.0973075 12.2701 0.961065 13.7171 2.44734C15.1642 3.93361 15.9742 5.92624 15.975 7.99989C15.9761 9.56659 15.5151 11.0989 14.6496 12.4052C13.7841 13.7115 12.5525 14.7339 11.1086 15.3446C9.66484 15.9553 8.07293 16.1272 6.53191 15.8388C4.99088 15.5504 3.56912 14.8145 2.44433 13.7231C1.31954 12.6316 0.541631 11.2331 0.207841 9.70237C-0.125949 8.17159 -0.000813485 6.57646 0.567607 5.11636C1.13603 3.65626 2.12251 2.39598 3.40376 1.49304C4.685 0.590102 6.20416 0.0845757 7.77134 0.0396541ZM5.31248 14.3521L5.31252 14.3521C5.48424 14.4244 5.65834 14.4896 5.8348 14.5477L5.89697 14.5682L5.86427 14.5115C4.81841 12.6977 4.27152 10.6396 4.27914 8.54626L4.27923 8.52117H4.25414H1.14185H1.11474L1.11693 8.54819C1.21884 9.80634 1.66379 11.0125 2.40346 12.0358C3.14313 13.059 4.14923 13.8601 5.31248 14.3521ZM1.63721 5.31625L1.63721 5.31627C1.35269 5.98742 1.17772 6.69982 1.11895 7.42634L1.11676 7.45336H1.14387H4.25414H4.27921L4.27914 7.42828C4.27283 5.34752 4.81168 3.30136 5.84211 1.49322L5.87444 1.43649L5.81249 1.45712C5.64413 1.5132 5.47746 1.57604 5.3125 1.64562L5.31247 1.64564C3.65739 2.34659 2.33958 3.66273 1.63721 5.31625ZM10.6232 7.45336H10.649L10.6482 7.42756C10.6233 6.6429 10.5349 5.86154 10.384 5.0911C10.2363 4.30225 9.9938 3.53413 9.66177 2.80339L9.66163 2.8031C9.43504 2.32085 9.17889 1.92154 8.91677 1.63047C8.6551 1.33991 8.38531 1.15485 8.13104 1.10591L8.13111 1.10552L8.12668 1.10546C8.04122 1.10418 7.95575 1.10418 7.87028 1.10546L7.87028 1.10507L7.86593 1.10591C7.61165 1.15485 7.34187 1.33991 7.08019 1.6306C6.81807 1.92179 6.56193 2.32137 6.33533 2.80412L6.3352 2.80441C6.00351 3.53519 5.76134 4.30331 5.61394 5.09211C5.46309 5.86222 5.37475 6.64324 5.34978 7.42756L5.34895 7.45336H5.37476H10.6232ZM5.61496 10.8834C5.7624 11.6719 6.00457 12.4397 6.33621 13.1701L6.33635 13.1704C6.5832 13.6952 6.86477 14.1218 7.15091 14.4177C7.43637 14.7128 7.72972 14.8812 8 14.8812C8.27028 14.8812 8.56363 14.7128 8.84897 14.4177C9.13498 14.1218 9.4163 13.6952 9.66265 13.1704L9.67937 13.1348H9.67774C10.0016 12.4146 10.2387 11.6586 10.384 10.8824C10.5345 10.1123 10.6225 9.33125 10.6472 8.54696L10.648 8.52117H10.6222H5.37577H5.34997L5.35079 8.54696C5.37574 9.33162 5.46409 10.113 5.61496 10.8834ZM14.3628 10.6835L14.3628 10.6835C14.6505 10.0044 14.8262 9.2833 14.8831 8.5481L14.8852 8.52117H14.8582H11.7438H11.7187L11.7188 8.54626C11.7269 10.6403 11.18 12.6991 10.1337 14.5135L10.101 14.5702L10.1632 14.5497C10.3397 14.4916 10.5144 14.4261 10.6875 14.3531L10.6875 14.3531C12.3424 13.6524 13.6602 12.3367 14.3628 10.6835ZM10.6875 1.64563L10.6875 1.64562C10.5223 1.57596 10.3545 1.51275 10.1845 1.45611L10.1225 1.43548L10.1549 1.49221C11.1854 3.30031 11.7242 5.3465 11.7178 7.42727L11.7178 7.45235H11.7428H14.8561H14.8833L14.881 7.42524C14.7751 6.17156 14.3286 4.97059 13.5895 3.95201C12.8505 2.93343 11.847 2.13594 10.6875 1.64563Z" fill="#717171" stroke="white" stroke-width="0.05"/>
</svg>
