<svg width="13" height="14" viewBox="0 0 13 14" fill="none" xmlns="http://www.w3.org/2000/svg">
<g id="Group">
<g id="Group_2">
<path id="Vector" fill-rule="evenodd" clip-rule="evenodd" d="M8.94113 10.5289H3.86429C3.57318 10.5289 3.33691 10.2926 3.33691 10.0015C3.33691 9.71038 3.57318 9.47412 3.86429 9.47412H8.94113C9.23224 9.47412 9.4685 9.71038 9.4685 10.0015C9.4685 10.2926 9.23224 10.5289 8.94113 10.5289Z" fill="#112D55"/>
<path id="Vector_2" fill-rule="evenodd" clip-rule="evenodd" d="M8.94113 7.58502H3.86429C3.57318 7.58502 3.33691 7.34876 3.33691 7.05765C3.33691 6.76654 3.57318 6.53027 3.86429 6.53027H8.94113C9.23224 6.53027 9.4685 6.76654 9.4685 7.05765C9.4685 7.34876 9.23224 7.58502 8.94113 7.58502Z" fill="#112D55"/>
<path id="Vector_3" fill-rule="evenodd" clip-rule="evenodd" d="M5.8015 4.64801H3.86429C3.57318 4.64801 3.33691 4.41174 3.33691 4.12063C3.33691 3.82952 3.57318 3.59326 3.86429 3.59326H5.8015C6.09261 3.59326 6.32887 3.82952 6.32887 4.12063C6.32887 4.41174 6.09261 4.64801 5.8015 4.64801Z" fill="#112D55"/>
</g>
<path id="Vector_4" fill-rule="evenodd" clip-rule="evenodd" d="M9.07718 1.05475L3.67052 1.05756C2.03355 1.0674 1.05475 2.07996 1.05475 3.76685V10.2331C1.05475 11.9313 2.04269 12.9453 3.69583 12.9453L9.10249 12.9431C10.7395 12.9333 11.7183 11.9193 11.7183 10.2331V3.76685C11.7183 2.06871 10.731 1.05475 9.07718 1.05475ZM3.69653 14C1.48579 14 0 12.4861 0 10.2331V3.76685C0 1.49352 1.43938 0.0161727 3.667 0.00281262L9.07718 0C11.2879 0 12.773 1.51391 12.773 3.76685V10.2331C12.773 12.5058 11.3336 13.9838 9.106 13.9979L3.69653 14Z" fill="#112D55"/>
</g>
</svg>
