<svg width="32" height="32" viewBox="0 0 32 32" fill="none" xmlns="http://www.w3.org/2000/svg">
<path d="M8 0C6.9 0 6 0.9 6 2V30C6 31.1 6.9 32 8 32H28C29.1 32 30 31.1 30 30V8L22 0H8Z" fill="#E2E5E7"/>
<path d="M24 8H30L22 0V6C22 7.1 22.9 8 24 8Z" fill="#B0B7BD"/>
<path d="M30 14L24 8H30V14Z" fill="#CAD1D8"/>
<path d="M26 26C26 26.55 25.55 27 25 27H3C2.45 27 2 26.55 2 26V16C2 15.45 2.45 15 3 15H25C25.55 15 26 15.45 26 16V26Z" fill="#576D7E"/>
<path d="M25 27H6V28H25C25.55 28 26 27.55 26 27V26C26 26.55 25.55 27 25 27Z" fill="#CAD1D8"/>
<path d="M7.158 23.5V18.6H10.364V19.426H8.054V22.674H10.392V23.5H7.158ZM7.578 21.4V20.588H10.007V21.4H7.578ZM11.533 23.5V18.6H12.352L15.194 22.429L15.04 22.457C15.0213 22.3263 15.005 22.1933 14.991 22.058C14.977 21.918 14.963 21.7733 14.949 21.624C14.9397 21.4747 14.9303 21.3183 14.921 21.155C14.9163 20.9917 14.9117 20.8213 14.907 20.644C14.9023 20.462 14.9 20.2707 14.9 20.07V18.6H15.803V23.5H14.97L12.114 19.727L12.296 19.678C12.3193 19.9393 12.338 20.1633 12.352 20.35C12.3707 20.532 12.3847 20.6907 12.394 20.826C12.4033 20.9567 12.4103 21.0663 12.415 21.155C12.4243 21.2437 12.429 21.3253 12.429 21.4C12.4337 21.47 12.436 21.5377 12.436 21.603V23.5H11.533ZM18.539 23.5L16.579 18.6H17.573L18.665 21.407C18.721 21.5517 18.77 21.6823 18.812 21.799C18.854 21.911 18.8913 22.0137 18.924 22.107C18.9566 22.2003 18.9846 22.2913 19.008 22.38C19.036 22.4687 19.0663 22.562 19.099 22.66H18.903C18.9356 22.534 18.9706 22.4103 19.008 22.289C19.0453 22.163 19.0873 22.03 19.134 21.89C19.1853 21.75 19.246 21.589 19.316 21.407L20.338 18.6H21.339L19.365 23.5H18.539Z" fill="white"/>
</svg>
