<svg width="32" height="32" viewBox="0 0 32 32" fill="none" xmlns="http://www.w3.org/2000/svg">
<rect width="32" height="32" rx="4" fill="#873CA9"/>
<path d="M19.3337 7.66675V11.0001M12.667 7.66675V11.0001" stroke="white" stroke-width="1.2" stroke-linecap="round" stroke-linejoin="round"/>
<path d="M16.8333 9.33325H15.1667C12.024 9.33325 10.4526 9.33325 9.47631 10.3096C8.5 11.2859 8.5 12.8572 8.5 15.9999V17.6666C8.5 20.8093 8.5 22.3807 9.47631 23.3569C10.4526 24.3333 12.024 24.3333 15.1667 24.3333H16.8333C19.976 24.3333 21.5474 24.3333 22.5237 23.3569C23.5 22.3807 23.5 20.8093 23.5 17.6666V15.9999C23.5 12.8572 23.5 11.2859 22.5237 10.3096C21.5474 9.33325 19.976 9.33325 16.8333 9.33325Z" stroke="white" stroke-width="1.2" stroke-linecap="round" stroke-linejoin="round"/>
<path d="M8.5 14.3333H23.5" stroke="white" stroke-width="1.2" stroke-linecap="round" stroke-linejoin="round"/>
<path d="M14.3333 21.4168L14.3333 17.5395C14.3333 17.3797 14.2194 17.2502 14.0788 17.2502H13.5M17.6667 21.4153L18.9046 17.5769C18.9126 17.5522 18.9167 17.5263 18.9167 17.5002C18.9167 17.3622 18.8047 17.2502 18.6667 17.2502L16.8333 17.25" stroke="white" stroke-width="1.2" stroke-linecap="round" stroke-linejoin="round"/>
</svg>
