<svg width="32" height="32" viewBox="0 0 32 32" fill="none" xmlns="http://www.w3.org/2000/svg">
<path d="M0.625 26.875V29.375C0.625 30.4795 1.52051 31.375 2.625 31.375H29.375C30.4795 31.375 31.375 30.4795 31.375 29.375V26.875H0.625Z" fill="#E1E3E9"/>
<path d="M0.625 11.375V26.875C0.625 27.9795 1.52051 28.875 2.625 28.875H29.375C30.4795 28.875 31.375 27.9795 31.375 26.875V11.375" fill="white"/>
<path d="M29.5 3.875H2.5C1.46436 3.875 0.625 4.7146 0.625 5.75V11.375H31.375V5.75C31.375 4.7146 30.5356 3.875 29.5 3.875Z" fill="#F5737F"/>
<path d="M5.37183 6.875C4.61401 6.875 4 6.26099 4 5.50317V1.99683C4 1.23901 4.61401 0.625 5.37183 0.625C6.12939 0.625 6.74341 1.23901 6.74341 1.99683V5.50317C6.74341 6.26099 6.12939 6.875 5.37183 6.875Z" fill="#E1E3E9"/>
<path d="M26.6282 6.875C25.8706 6.875 25.2566 6.26099 25.2566 5.50317V1.99683C25.2566 1.23901 25.8706 0.625 26.6282 0.625C27.3857 0.625 28 1.23901 28 1.99683V5.50317C28 6.26099 27.3857 6.875 26.6282 6.875Z" fill="#E1E3E9"/>
<path d="M16.0081 6.875C15.2502 6.875 14.6362 6.26099 14.6362 5.50317V1.99683C14.6362 1.23901 15.2502 0.625 16.0081 0.625C16.7656 0.625 17.3796 1.23901 17.3796 1.99683V5.50317C17.3796 6.26099 16.7656 6.875 16.0081 6.875Z" fill="#E1E3E9"/>
<path d="M16.7287 15.2014L17.946 17.6679L20.6679 18.0634C21.332 18.1599 21.5974 18.976 21.1167 19.4445L19.1472 21.3644L19.612 24.0754C19.7256 24.7368 19.0312 25.2411 18.4372 24.9289L16.0029 23.6489L13.5683 24.9289C12.9743 25.2411 12.28 24.7368 12.3935 24.0754L12.8584 21.3644L10.8889 19.4445C10.4082 18.976 10.6736 18.1599 11.3376 18.0634L14.0595 17.6679L15.2768 15.2014C15.5737 14.5995 16.4319 14.5995 16.7287 15.2014Z" fill="#FFCB7C"/>
<path d="M29.375 3.25H28.625V1.99683C28.625 0.895752 27.7292 0 26.6282 0C25.5273 0 24.6316 0.895752 24.6316 1.99683V3.25H18.0046V1.99683C18.0046 0.895752 17.1089 0 16.0081 0C14.907 0 14.0112 0.895752 14.0112 1.99683V3.25H7.36841V1.99683C7.36841 0.895752 6.47266 0 5.37183 0C4.27075 0 3.375 0.895752 3.375 1.99683V3.25H2.625C1.17749 3.25 0 4.42749 0 5.875V29.375C0 30.8225 1.17749 32 2.625 32H29.375C30.8225 32 32 30.8225 32 29.375V5.875C32 4.42749 30.8225 3.25 29.375 3.25ZM25.8816 1.99683C25.8816 1.58496 26.2166 1.25 26.6282 1.25C27.04 1.25 27.375 1.58496 27.375 1.99683V5.50317C27.375 5.91504 27.04 6.25 26.6282 6.25C26.2166 6.25 25.8816 5.91504 25.8816 5.50317V1.99683ZM15.2612 1.99683C15.2612 1.58496 15.5962 1.25 16.0081 1.25C16.4197 1.25 16.7546 1.58496 16.7546 1.99683V5.50317C16.7546 5.91504 16.4197 6.25 16.0081 6.25C15.5962 6.25 15.2612 5.91504 15.2612 5.50317V1.99683ZM4.625 1.99683C4.625 1.58496 4.95996 1.25 5.37183 1.25C5.78345 1.25 6.11841 1.58496 6.11841 1.99683V5.50317C6.11841 5.91504 5.78345 6.25 5.37183 6.25C4.95996 6.25 4.625 5.91504 4.625 5.50317V1.99683ZM2.625 4.5H3.375V5.50317C3.375 6.60425 4.27075 7.5 5.37183 7.5C6.47266 7.5 7.36841 6.60425 7.36841 5.50317V4.5H14.0112V5.50317C14.0112 6.60425 14.907 7.5 16.0081 7.5C17.1089 7.5 18.0046 6.60425 18.0046 5.50317V4.5H24.6316V5.50317C24.6316 6.60425 25.5271 7.5 26.6282 7.5C27.7292 7.5 28.625 6.60425 28.625 5.50317V4.5H29.375C30.1333 4.5 30.75 5.1167 30.75 5.875V10.75H18.8125C18.4673 10.75 18.1875 11.0298 18.1875 11.375C18.1875 11.7202 18.4673 12 18.8125 12H30.75V26.875C30.75 27.6333 30.1333 28.25 29.375 28.25H2.625C1.8667 28.25 1.25 27.6333 1.25 26.875V12H13.1875C13.5327 12 13.8125 11.7202 13.8125 11.375C13.8125 11.0298 13.5327 10.75 13.1875 10.75H1.25V5.875C1.25 5.1167 1.8667 4.5 2.625 4.5ZM29.375 30.75H2.625C1.8667 30.75 1.25 30.1333 1.25 29.375V29.1099C1.65015 29.3569 2.12109 29.5 2.625 29.5H29.375C29.8789 29.5 30.3499 29.3569 30.75 29.1099V29.375C30.75 30.1333 30.1333 30.75 29.375 30.75Z" fill="black"/>
<path d="M16 12C16.1643 12 16.3257 11.9331 16.4419 11.8169C16.5581 11.7007 16.625 11.5393 16.625 11.375C16.625 11.2107 16.5581 11.0493 16.4419 10.9331C16.3257 10.8169 16.1643 10.75 16 10.75C15.8357 10.75 15.6743 10.8169 15.5581 10.9331C15.4419 11.0493 15.375 11.2107 15.375 11.375C15.375 11.5393 15.4419 11.7007 15.5581 11.8169C15.6743 11.9331 15.8357 12 16 12Z" fill="black"/>
<path d="M11.2478 17.4446C10.7034 17.5237 10.2595 17.8979 10.0896 18.4211C9.91967 18.9443 10.0586 19.5078 10.4526 19.8918L12.187 21.5823L11.7776 23.9692C11.6846 24.5115 11.9031 25.0491 12.3481 25.3726C12.7932 25.6958 13.3723 25.7378 13.8591 25.4817L16.0029 24.3547L18.1465 25.4817C18.3584 25.593 18.5874 25.6482 18.8154 25.6482C19.1118 25.6482 19.406 25.5552 19.6575 25.3726C20.1025 25.0491 20.3213 24.5115 20.2283 23.9692L19.8188 21.5823L21.5532 19.8918C21.947 19.5078 22.0862 18.9443 21.9162 18.4211C21.7461 17.8979 21.3025 17.5237 20.758 17.4446L18.3613 17.0964L17.2895 14.9246C17.0459 14.4314 16.553 14.125 16.0029 14.125C15.4529 14.125 14.96 14.4314 14.7165 14.9246L13.6445 17.0964L11.2478 17.4446ZM14.6199 17.9443L15.8371 15.4778C15.8791 15.3928 15.9504 15.375 16.0029 15.375C16.0552 15.375 16.1265 15.3928 16.1684 15.4778L17.3857 17.9443C17.4768 18.1287 17.6526 18.2566 17.8562 18.2864L20.5781 18.6819C20.6721 18.6953 20.7109 18.7576 20.7273 18.8074C20.7434 18.8572 20.7485 18.9307 20.6807 18.9968L18.7109 20.9167C18.5637 21.0603 18.4963 21.2671 18.5312 21.47L18.9961 24.1807C19.0122 24.2742 18.9651 24.3306 18.9228 24.3613C18.8804 24.3923 18.8122 24.4197 18.7283 24.3755L16.2937 23.0955C16.2026 23.0476 16.1028 23.0239 16.0029 23.0239C15.9028 23.0239 15.803 23.0479 15.7121 23.0955L13.2776 24.3755C13.1936 24.4197 13.1255 24.3921 13.083 24.3613C13.0405 24.3306 12.9934 24.2744 13.0095 24.1807L13.4744 21.47C13.5093 21.2671 13.4419 21.0603 13.2947 20.9167L11.3252 18.9968C11.2571 18.9304 11.2622 18.8572 11.2783 18.8074C11.2947 18.7576 11.3335 18.6953 11.4275 18.6819L14.1494 18.2864C14.3528 18.2566 14.5288 18.1287 14.6199 17.9443Z" fill="black"/>
</svg>
