<svg width="24" height="24" viewBox="0 0 24 24" fill="none" xmlns="http://www.w3.org/2000/svg">
<path d="M16 2V6M8 2V6" stroke="#10A37F" stroke-width="1.5" stroke-linecap="round" stroke-linejoin="round"/>
<path d="M13 4H11C7.22876 4 5.34315 4 4.17157 5.17157C3 6.34315 3 8.22876 3 12V14C3 17.7712 3 19.6569 4.17157 20.8284C5.34315 22 7.22876 22 11 22H13C16.7712 22 18.6569 22 19.8284 20.8284C21 19.6569 21 17.7712 21 14V12C21 8.22876 21 6.34315 19.8284 5.17157C18.6569 4 16.7712 4 13 4Z" stroke="#10A37F" stroke-width="1.5" stroke-linecap="round" stroke-linejoin="round"/>
<path d="M3 10H21" stroke="#10A37F" stroke-width="1.5" stroke-linecap="round" stroke-linejoin="round"/>
<path d="M11.9955 14H12.0045M11.9955 18H12.0045M15.991 14H16M8 14H8.00897M8 18H8.00897" stroke="#10A37F" stroke-width="1.5" stroke-linecap="round" stroke-linejoin="round"/>
</svg>
