<svg width="18" height="18" viewBox="0 0 18 18" fill="none" xmlns="http://www.w3.org/2000/svg">
<path d="M7.41335 8.14183L7.378 8.17721L7.34263 8.14184L2.03507 2.83379L2.05 5.99976V6C2.05 6.30361 1.80361 6.55 1.5 6.55C1.19639 6.55 0.95 6.30361 0.95 6V1.5C0.95 1.33802 1.01686 1.20519 1.12391 1.11385C1.2232 1.01324 1.36122 0.950001 1.51451 0.950001H6C6.30361 0.950001 6.55 1.19636 6.55 1.5C6.55 1.80361 6.30361 2.05 6 2.05H2.80621L8.12035 7.36365L8.15569 7.39899L8.12036 7.43435L7.41335 8.14183ZM12 15.95H15.1933L9.87965 10.6358L9.8443 10.6005L9.87965 10.5651L10.5866 9.85816L10.622 9.82281L10.6573 9.85816L15.9654 15.1662L15.95 12.0002V12C15.95 11.6964 16.1964 11.45 16.5 11.45C16.8036 11.45 17.05 11.6964 17.05 12V16.5C17.05 16.662 16.9831 16.7948 16.8761 16.8861C16.7768 16.9867 16.6388 17.05 16.486 17.05H12C11.6964 17.05 11.45 16.8036 11.45 16.5C11.45 16.1964 11.6964 15.95 12 15.95Z" fill="#717171" stroke="#717171" stroke-width="0.1"/>
</svg>
