<svg width="32" height="33" viewBox="0 0 32 33" fill="none" xmlns="http://www.w3.org/2000/svg">
<path d="M14.5688 6.3125L11.825 4.26875C11.175 3.7875 10.3937 3.53125 9.5875 3.53125H1.875C0.8375 3.53125 0 4.36875 0 5.40625V27.5938C0 28.6313 0.8375 29.4688 1.875 29.4688H28.1875C29.225 29.4688 30.0625 28.6313 30.0625 27.5938V8.93125C30.0625 7.89375 29.225 7.05625 28.1875 7.05625H16.8062C16 7.05 15.2188 6.79375 14.5688 6.3125Z" fill="#F6C012"/>
<path d="M1.875 10.0938H28.1875C29.225 10.0938 30.0625 10.9312 30.0625 11.9688V27.5938C30.0625 28.6313 29.225 29.4688 28.1875 29.4688H1.875C0.8375 29.4688 0 28.6313 0 27.5938V11.9688C0 10.9312 0.8375 10.0938 1.875 10.0938Z" fill="#FBD87C"/>
<path d="M0 20.0938H1.25V22.5938H0V20.0938Z" fill="#FF9E1F"/>
<path d="M1.25 21.3438H2.5V23.8438H1.25V21.3438Z" fill="#EA8000"/>
<path d="M2.5 20.0938H3.75V22.5938H2.5V20.0938Z" fill="#FF9E1F"/>
<path d="M3.75 21.3438H5V23.8438H3.75V21.3438Z" fill="#EA8000"/>
<path d="M5 20.0938H6.25V22.5938H5V20.0938Z" fill="#FF9E1F"/>
<path d="M6.25 21.3438H7.5V23.8438H6.25V21.3438Z" fill="#EA8000"/>
<path d="M7.5 20.0938H8.75V22.5938H7.5V20.0938Z" fill="#FF9E1F"/>
<path d="M8.75 21.3438H10V23.8438H8.75V21.3438Z" fill="#EA8000"/>
<path d="M10 20.0938H11.25V22.5938H10V20.0938Z" fill="#FF9E1F"/>
<path d="M11.25 21.3438H12.5V23.8438H11.25V21.3438Z" fill="#EA8000"/>
<path d="M12.5 20.0938H13.75V22.5938H12.5V20.0938Z" fill="#FF9E1F"/>
<path d="M13.75 21.3438H15V23.8438H13.75V21.3438Z" fill="#EA8000"/>
<path d="M15 20.0938H16.25V22.5938H15V20.0938Z" fill="#FF9E1F"/>
<path d="M16.25 21.3438H17.5V23.8438H16.25V21.3438Z" fill="#EA8000"/>
<path d="M17.5 20.0938H18.75V22.5938H17.5V20.0938Z" fill="#FF9E1F"/>
<path d="M18.75 21.3438H20V23.8438H18.75V21.3438Z" fill="#EA8000"/>
<path d="M20 20.0938H21.25V22.5938H20V20.0938Z" fill="#FF9E1F"/>
<path d="M21.25 21.3438H22.5V23.8438H21.25V21.3438Z" fill="#EA8000"/>
<path d="M22.5 20.0938H23.75V22.5938H22.5V20.0938Z" fill="#FF9E1F"/>
<path d="M26.25 21.3438H27.5V23.8438H26.25V21.3438Z" fill="white"/>
<path d="M27.8062 19.5063L24.4188 20.5187C24.0188 20.6375 23.75 21 23.75 21.4188V22.5187C23.75 22.9312 24.025 23.3 24.4188 23.4188L27.8062 24.4312C27.8937 24.4562 27.9813 24.4688 28.075 24.4688H31.0625C31.5813 24.4688 32 24.05 32 23.5312V20.4062C32 19.8875 31.5813 19.4688 31.0625 19.4688H28.075C27.9813 19.4688 27.8937 19.4813 27.8062 19.5063ZM30.125 23.5312H29.8125C29.2937 23.5312 28.875 23.1125 28.875 22.5938V21.3438C28.875 20.825 29.2937 20.4062 29.8125 20.4062H30.125C30.6438 20.4062 31.0625 20.825 31.0625 21.3438V22.5938C31.0625 23.1125 30.6438 23.5312 30.125 23.5312Z" fill="#EA8000"/>
</svg>
