<svg width="16" height="10" viewBox="0 0 16 10" fill="none" xmlns="http://www.w3.org/2000/svg">
<path d="M15.8983 4.69483C15.7554 4.50309 12.3497 0 7.99993 0C3.6502 0 0.244313 4.50309 0.101532 4.69465C-0.0338438 4.87655 -0.0338438 5.12327 0.101532 5.30517C0.244313 5.49691 3.6502 10 7.99993 10C12.3497 10 15.7554 5.49688 15.8983 5.30532C16.0339 5.12345 16.0339 4.87655 15.8983 4.69483ZM7.99993 8.96552C4.79589 8.96552 2.02085 5.97673 1.19938 4.99965C2.01979 4.02171 4.78901 1.03448 7.99993 1.03448C11.2038 1.03448 13.9787 4.02275 14.8005 5.00035C13.9801 5.97826 11.2108 8.96552 7.99993 8.96552Z" fill="white"/>
<path d="M7.99994 1.89844C6.25487 1.89844 4.83508 3.29068 4.83508 5.0019C4.83508 6.71312 6.25487 8.10536 7.99994 8.10536C9.745 8.10536 11.1648 6.71312 11.1648 5.0019C11.1648 3.29068 9.745 1.89844 7.99994 1.89844ZM7.99994 7.07085C6.8365 7.07085 5.89005 6.14274 5.89005 5.0019C5.89005 3.86106 6.83653 2.93295 7.99994 2.93295C9.16335 2.93295 10.1098 3.86106 10.1098 5.0019C10.1098 6.14274 9.16338 7.07085 7.99994 7.07085Z" fill="white"/>
</svg>
