<svg width="24" height="24" viewBox="0 0 24 24" fill="none" xmlns="http://www.w3.org/2000/svg">
<path d="M12 0C9.62663 0 7.30655 0.703788 5.33316 2.02236C3.35977 3.34094 1.8217 5.21508 0.913451 7.4078C0.00519945 9.60051 -0.232441 12.0133 0.230582 14.3411C0.693604 16.6689 1.83649 18.807 3.51472 20.4853C5.19295 22.1635 7.33115 23.3064 9.65892 23.7694C11.9867 24.2324 14.3995 23.9948 16.5922 23.0865C18.7849 22.1783 20.6591 20.6402 21.9776 18.6668C23.2962 16.6935 24 14.3734 24 12C24 8.8174 22.7357 5.76515 20.4853 3.51472C18.2348 1.26428 15.1826 0 12 0ZM15.8018 10.5805L15.5605 12.6695C15.5507 12.765 15.5061 12.8536 15.4352 12.9183C15.3642 12.9829 15.2719 13.0191 15.1759 13.02H12.9941L12.9832 19.2177C12.9839 19.2912 12.9557 19.362 12.9047 19.4148C12.8537 19.4676 12.7839 19.4982 12.7105 19.5H10.5C10.4633 19.5 10.4269 19.4926 10.3931 19.4782C10.3592 19.4639 10.3287 19.4428 10.3032 19.4163C10.2777 19.3898 10.2579 19.3584 10.2448 19.3241C10.2318 19.2897 10.2258 19.2531 10.2273 19.2164V13.02H8.59091C8.53952 13.0195 8.48873 13.0088 8.44145 12.9886C8.39417 12.9685 8.35133 12.9392 8.31537 12.9025C8.27941 12.8658 8.25103 12.8223 8.23186 12.7746C8.21269 12.7269 8.2031 12.6759 8.20364 12.6245L8.19546 10.5341C8.19474 10.4825 8.20418 10.4313 8.22325 10.3834C8.24233 10.3355 8.27065 10.2918 8.30662 10.2548C8.34258 10.2178 8.38547 10.1883 8.43285 10.1679C8.48023 10.1475 8.53115 10.1366 8.58273 10.1359H10.2273V8.11773C10.2273 5.775 11.6182 4.5 13.6582 4.5H15.33C15.3817 4.50053 15.4328 4.51127 15.4803 4.53158C15.5278 4.5519 15.5709 4.5814 15.607 4.61839C15.6431 4.65539 15.6716 4.69915 15.6907 4.74716C15.7099 4.79517 15.7194 4.84649 15.7186 4.89818V6.65864C15.7194 6.71032 15.7099 6.76165 15.6907 6.80966C15.6716 6.85767 15.6431 6.90143 15.607 6.93842C15.5709 6.97541 15.5278 7.00492 15.4803 7.02523C15.4328 7.04555 15.3817 7.05628 15.33 7.05682H14.3045C13.1959 7.05682 12.9805 7.60227 12.9805 8.38909V10.1359H15.4173C15.4728 10.1368 15.5274 10.1494 15.5777 10.1729C15.628 10.1963 15.6727 10.2302 15.709 10.2721C15.7453 10.3141 15.7724 10.3632 15.7884 10.4164C15.8043 10.4695 15.8089 10.5254 15.8018 10.5805Z" fill="#525252"/>
</svg>
