<svg width="20" height="20" viewBox="0 0 20 20" fill="none" xmlns="http://www.w3.org/2000/svg">
<circle cx="10" cy="10" r="10" fill="#10A37F"/>
<path fill-rule="evenodd" clip-rule="evenodd" d="M9.64044 6.97234L8.75047 8.48654C8.74125 8.50199 8.72895 8.51538 8.71433 8.52587C8.69972 8.53637 8.6831 8.54374 8.66551 8.54753L6.95092 8.92664C6.87989 8.9424 6.8142 8.97641 6.76033 9.02531C6.70645 9.07421 6.66626 9.13632 6.64371 9.20549C6.62117 9.27467 6.61704 9.34853 6.63175 9.41978C6.64646 9.49104 6.67949 9.55723 6.72759 9.61182L7.89318 10.9255C7.90512 10.9389 7.91411 10.9546 7.91955 10.9717C7.925 10.9888 7.92677 11.0068 7.92476 11.0246L7.75482 12.773C7.74796 12.8454 7.7601 12.9183 7.79004 12.9846C7.81998 13.0508 7.86668 13.1081 7.92553 13.1508C7.98438 13.1935 8.05335 13.22 8.12561 13.2279C8.19788 13.2358 8.27096 13.2247 8.33761 13.1957L9.94763 12.4941C9.96417 12.4871 9.98195 12.4835 9.99992 12.4835C10.0179 12.4835 10.0357 12.4871 10.0522 12.4941L11.6622 13.1957C11.7289 13.2247 11.802 13.2358 11.8742 13.2279C11.9465 13.22 12.0155 13.1935 12.0743 13.1508C12.1332 13.1081 12.1799 13.0508 12.2098 12.9846C12.2397 12.9183 12.2519 12.8454 12.245 12.773L12.0751 11.0246C12.0731 11.0068 12.0749 10.9888 12.0803 10.9717C12.0857 10.9546 12.0947 10.9389 12.1067 10.9255L13.2723 9.61181C13.3204 9.55722 13.3534 9.49103 13.3681 9.41978C13.3828 9.34852 13.3787 9.27466 13.3561 9.20549C13.3336 9.13631 13.2934 9.07421 13.2395 9.02531C13.1857 8.97641 13.12 8.9424 13.0489 8.92663L11.3343 8.54753C11.3168 8.54387 11.3003 8.53654 11.2859 8.52603C11.2714 8.51551 11.2593 8.50206 11.2505 8.48654L10.3594 6.97235C10.3226 6.90967 10.2701 6.85769 10.2071 6.82158C10.144 6.78546 10.0726 6.76646 9.99992 6.76646C9.92725 6.76646 9.85585 6.78546 9.79279 6.82158C9.72973 6.85769 9.67721 6.90966 9.64044 6.97234ZM9.99992 7.90809L10.574 8.88411C10.6377 8.99253 10.7231 9.08662 10.8249 9.16048C10.9267 9.23434 11.0426 9.28637 11.1655 9.31331L12.2712 9.55842L11.5195 10.4048C11.4363 10.4992 11.3733 10.6097 11.3345 10.7294C11.2957 10.8492 11.2819 10.9756 11.294 11.1009L11.4041 12.2284L10.3659 11.7752C10.2504 11.7251 10.1258 11.6992 9.99992 11.6992C9.874 11.6992 9.74942 11.7251 9.63391 11.7752L8.59578 12.2284L8.7058 11.1009C8.71788 10.9756 8.7041 10.8492 8.66531 10.7294C8.62652 10.6097 8.56356 10.4992 8.48031 10.4048L7.72868 9.55842L8.83432 9.31331C8.95717 9.28637 9.07312 9.23434 9.17491 9.16048C9.27669 9.08663 9.36213 8.99253 9.42584 8.88411L9.99992 7.90809ZM9.99992 16.6654C8.68138 16.6654 7.39245 16.2744 6.29612 15.5418C5.19979 14.8093 4.34531 13.7681 3.84072 12.5499C3.33614 11.3317 3.20412 9.9913 3.46135 8.6981C3.71859 7.40489 4.35353 6.21701 5.28588 5.28466C6.21823 4.35231 7.40611 3.71737 8.69932 3.46013C9.99252 3.2029 11.333 3.33492 12.5511 3.8395C13.7693 4.34409 14.8105 5.19857 15.543 6.2949C16.2756 7.39123 16.6666 8.68016 16.6666 9.9987C16.6646 11.7662 15.9615 13.4607 14.7117 14.7105C13.4619 15.9603 11.7674 16.6633 9.99992 16.6654ZM9.99992 4.11635C8.8365 4.11635 7.69921 4.46134 6.73186 5.1077C5.76451 5.75406 5.01056 6.67276 4.56534 7.74762C4.12011 8.82248 4.00362 10.0052 4.2306 11.1463C4.45757 12.2874 5.01781 13.3355 5.84047 14.1581C6.66313 14.9808 7.71127 15.541 8.85233 15.768C9.99339 15.995 11.1761 15.8785 12.251 15.4333C13.3259 14.9881 14.2446 14.2341 14.8909 13.2668C15.5373 12.2994 15.8823 11.1621 15.8823 9.9987C15.8805 8.43914 15.2602 6.94395 14.1574 5.84118C13.0547 4.7384 11.5595 4.11809 9.99992 4.11635Z" fill="white"/>
</svg>
