<svg width="16" height="16" viewBox="0 0 16 16" fill="none" xmlns="http://www.w3.org/2000/svg">
<path fill-rule="evenodd" clip-rule="evenodd" d="M7.56862 4.36837L6.50067 6.18541C6.4896 6.20395 6.47485 6.22002 6.4573 6.23261C6.43976 6.2452 6.41981 6.25405 6.3987 6.25859L4.3412 6.71352C4.25597 6.73245 4.17714 6.77326 4.1125 6.83194C4.04784 6.89062 3.99962 6.96514 3.97256 7.04816C3.9455 7.13117 3.94054 7.21979 3.95821 7.3053C3.97586 7.3908 4.01549 7.47024 4.0732 7.53574L5.4719 9.11221C5.48624 9.12824 5.49702 9.14712 5.50357 9.16762C5.5101 9.18811 5.51222 9.20974 5.50981 9.23112L5.30589 11.3292C5.29765 11.416 5.31222 11.5036 5.34814 11.583C5.38408 11.6625 5.44011 11.7313 5.51074 11.7825C5.58136 11.8337 5.66411 11.8656 5.75083 11.8751C5.83755 11.8845 5.92525 11.8712 6.00523 11.8364L7.93726 10.9945C7.9571 10.9861 7.97845 10.9818 8 10.9818C8.02157 10.9818 8.0429 10.9861 8.06275 10.9945L9.99477 11.8364C10.0748 11.8712 10.1624 11.8845 10.2492 11.8751C10.3359 11.8656 10.4187 11.8337 10.4893 11.7825C10.5599 11.7313 10.616 11.6625 10.6519 11.583C10.6878 11.5036 10.7024 11.416 10.6941 11.3292L10.4902 9.23112C10.4878 9.20974 10.4899 9.1881 10.4964 9.16762C10.503 9.14712 10.5138 9.12824 10.5281 9.11221L11.9268 7.53574C11.9845 7.47022 12.0242 7.3908 12.0418 7.3053C12.0595 7.21979 12.0545 7.13117 12.0275 7.04814C12.0004 6.96514 11.9522 6.89062 11.8875 6.83194C11.8229 6.77325 11.744 6.73245 11.6588 6.71352L9.6013 6.25859C9.5803 6.25421 9.56048 6.24541 9.54314 6.2328C9.52579 6.22018 9.51131 6.20403 9.50067 6.18541L8.43138 4.36838C8.38725 4.29317 8.32422 4.2308 8.24856 4.18746C8.1729 4.14411 8.0872 4.12131 8 4.12131C7.9128 4.12131 7.82712 4.14411 7.75144 4.18746C7.67578 4.2308 7.61275 4.29315 7.56862 4.36837ZM8 5.49128L8.68886 6.6625C8.76533 6.79259 8.86784 6.9055 8.98998 6.99414C9.11213 7.08277 9.25128 7.1452 9.39869 7.17754L10.7255 7.47166L9.82352 8.48733C9.72362 8.60061 9.64806 8.7332 9.6015 8.8769C9.55496 9.02058 9.53843 9.1723 9.55293 9.32264L9.68498 10.6756L8.43922 10.1318C8.30061 10.0717 8.1511 10.0406 8 10.0406C7.8489 10.0406 7.69941 10.0717 7.56078 10.1318L6.31504 10.6756L6.44706 9.32264C6.46155 9.1723 6.44502 9.02059 6.39848 8.8769C6.35192 8.7332 6.27637 8.60061 6.17646 8.48733L5.27451 7.47166L6.60128 7.17754C6.7487 7.14522 6.88784 7.08277 7.00998 6.99414C7.13213 6.90552 7.23466 6.79261 7.3111 6.6625L8 5.49128ZM8 16C6.41774 16 4.87104 15.5308 3.55544 14.6518C2.23984 13.7727 1.21447 12.5233 0.608966 11.0615C0.00346613 9.59966 -0.15496 7.99112 0.153721 6.43928C0.462403 4.88742 1.22433 3.46197 2.34315 2.34315C3.46197 1.22433 4.88742 0.462403 6.43928 0.153721C7.99112 -0.15496 9.59966 0.00346613 11.0615 0.608966C12.5233 1.21447 13.7727 2.23984 14.6518 3.55544C15.5308 4.87104 16 6.41774 16 8C15.9976 10.121 15.154 12.1544 13.6542 13.6542C12.1544 15.154 10.121 15.9976 8 16ZM8 0.941179C6.6039 0.941179 5.23915 1.35517 4.07834 2.1308C2.91752 2.90643 2.01277 4.00888 1.4785 5.2987C0.944235 6.58854 0.804446 8.00784 1.07681 9.3771C1.34918 10.7464 2.02147 12.0041 3.00866 12.9913C3.99586 13.9785 5.25362 14.6508 6.6229 14.9232C7.99218 15.1956 9.41147 15.0558 10.7013 14.5215C11.9911 13.9872 13.0936 13.0825 13.8692 11.9217C14.6448 10.7609 15.0588 9.39611 15.0588 8C15.0567 6.12853 14.3124 4.3343 12.989 3.01098C11.6657 1.68765 9.87147 0.943275 8 0.941179Z" fill="#717171"/>
</svg>
