<svg width="18" height="18" viewBox="0 0 18 18" fill="none" xmlns="http://www.w3.org/2000/svg">
<path d="M12.8627 5.053C13.8 5.90288 13.8 7.27073 13.8 10.0064V11.1998C13.8 13.9355 13.8 15.3034 12.8627 16.1533C11.9255 17.0031 10.417 17.0031 7.4 17.0031C4.38301 17.0031 2.87452 17.0031 1.93726 16.1533C1 15.3034 1 13.9355 1 11.1998V10.0064C1 7.27073 1 5.90288 1.93726 5.053C2.87452 4.20312 4.38301 4.20313 7.4 4.20313C10.417 4.20313 11.9255 4.20312 12.8627 5.053Z" stroke="#262626" stroke-linecap="round" stroke-linejoin="round"/>
<path d="M4.25317 4.2C4.3388 3.0897 4.56085 2.37203 5.13669 1.84987C6.07394 1 7.58245 1 10.5994 1C13.6164 1 15.1249 1 16.0622 1.84987C16.9994 2.69975 16.9994 4.06761 16.9994 6.80331V7.99672C16.9994 10.7324 16.9994 12.1002 16.0622 12.9502C15.5396 13.4239 14.8395 13.6336 13.7994 13.7264" stroke="#262626" stroke-linecap="round" stroke-linejoin="round"/>
<path d="M7.95283 7.86059L8.51595 8.99619C8.59275 9.15419 8.79747 9.30587 8.97027 9.33491L9.99099 9.50587C10.6437 9.61555 10.7973 10.093 10.3269 10.564L9.53339 11.3641C9.39907 11.4996 9.32547 11.7609 9.36707 11.948L9.59419 12.9384C9.77339 13.7224 9.36067 14.0256 8.67275 13.6159L7.71603 13.0449C7.54323 12.9416 7.25847 12.9416 7.08249 13.0449L6.1258 13.6159C5.44107 14.0256 5.02512 13.7192 5.20429 12.9384L5.43147 11.948C5.47307 11.7609 5.39948 11.4996 5.26509 11.3641L4.47158 10.564C4.00443 10.093 4.15481 9.61555 4.80754 9.50587L5.82823 9.33491C5.99781 9.30587 6.20259 9.15419 6.27938 8.99619L6.84252 7.86059C7.14969 7.24439 7.64883 7.24439 7.95283 7.86059Z" stroke="#262626" stroke-linecap="round" stroke-linejoin="round"/>
</svg>
