<svg width="10" height="10" viewBox="0 0 10 10" fill="none" xmlns="http://www.w3.org/2000/svg">
<path fill-rule="evenodd" clip-rule="evenodd" d="M4.73039 2.73023L4.06292 3.86588C4.056 3.87747 4.04678 3.88751 4.03581 3.89538C4.02485 3.90325 4.01238 3.90878 3.99919 3.91162L2.71325 4.19595C2.65998 4.20778 2.61071 4.23329 2.57031 4.26996C2.5299 4.30664 2.49976 4.35321 2.48285 4.4051C2.46594 4.45698 2.46284 4.51237 2.47388 4.56581C2.48491 4.61925 2.50968 4.6689 2.54575 4.70984L3.41994 5.69513C3.4289 5.70515 3.43564 5.71695 3.43973 5.72976C3.44381 5.74257 3.44514 5.75609 3.44363 5.76945L3.31618 7.08076C3.31103 7.13503 3.32014 7.18972 3.34259 7.2394C3.36505 7.28908 3.40007 7.33205 3.44421 7.36406C3.48835 7.39607 3.54007 7.41601 3.59427 7.42191C3.64847 7.42782 3.70328 7.41948 3.75327 7.39772L4.96079 6.87158C4.97319 6.86632 4.98653 6.8636 5 6.8636C5.01348 6.8636 5.02681 6.86632 5.03922 6.87158L6.24673 7.39772C6.29672 7.41948 6.35153 7.42782 6.40573 7.42191C6.45994 7.41601 6.51166 7.39607 6.5558 7.36406C6.59994 7.33206 6.63497 7.28909 6.65742 7.2394C6.67987 7.18972 6.68898 7.13503 6.68384 7.08075L6.55639 5.76945C6.55487 5.75609 6.5562 5.74256 6.56028 5.72976C6.56437 5.71695 6.57111 5.70515 6.58007 5.69513L7.45426 4.70984C7.49033 4.66889 7.51511 4.61925 7.52614 4.56581C7.53717 4.51237 7.53408 4.45698 7.51717 4.40509C7.50026 4.35321 7.47011 4.30664 7.42971 4.26996C7.3893 4.23328 7.34003 4.20778 7.28676 4.19595L6.00081 3.91162C5.98769 3.90888 5.9753 3.90338 5.96446 3.8955C5.95362 3.88761 5.94457 3.87752 5.93792 3.86588C5.9371 3.86588 5.26961 2.73024 5.26961 2.73024C5.24203 2.68323 5.20264 2.64425 5.15535 2.61716C5.10806 2.59007 5.0545 2.57582 5 2.57582C4.9455 2.57582 4.89195 2.59007 4.84465 2.61716C4.79736 2.64425 4.75797 2.68322 4.73039 2.73023ZM5 3.43205L5.43054 4.16406C5.47833 4.24537 5.5424 4.31594 5.61874 4.37134C5.69508 4.42673 5.78205 4.46575 5.87418 4.48596L6.70343 4.66979L6.1397 5.30458C6.07726 5.37538 6.03004 5.45825 6.00094 5.54806C5.97185 5.63786 5.96152 5.73269 5.97058 5.82665L6.05311 6.67224L5.27451 6.33239C5.18788 6.29479 5.09444 6.27539 5 6.27539C4.90556 6.27539 4.81213 6.29479 4.72549 6.33239L3.9469 6.67224L4.02941 5.82665C4.03847 5.73269 4.02814 5.63787 3.99905 5.54806C3.96995 5.45825 3.92273 5.37538 3.86029 5.30458L3.29657 4.66979L4.1258 4.48596C4.21794 4.46576 4.3049 4.42673 4.38124 4.37134C4.45758 4.31595 4.52166 4.24538 4.56944 4.16406L5 3.43205ZM5 10C4.01109 10 3.0444 9.70676 2.22215 9.15735C1.3999 8.60794 0.759043 7.82705 0.380604 6.91342C0.00216634 5.99979 -0.0968502 4.99445 0.0960759 4.02455C0.289002 3.05464 0.765206 2.16373 1.46447 1.46447C2.16373 0.765206 3.05464 0.289002 4.02455 0.0960759C4.99445 -0.0968502 5.99979 0.00216634 6.91342 0.380604C7.82705 0.759043 8.60794 1.3999 9.15735 2.22215C9.70676 3.0444 10 4.01109 10 5C9.99849 6.32562 9.47122 7.59651 8.53386 8.53386C7.59651 9.47122 6.32562 9.99849 5 10ZM5 0.588237C4.12744 0.588237 3.27447 0.846983 2.54896 1.33175C1.82345 1.81652 1.25798 2.50555 0.924063 3.31169C0.590147 4.11784 0.502779 5.0049 0.673008 5.86069C0.843237 6.71649 1.26342 7.50259 1.88041 8.11959C2.49741 8.73659 3.28351 9.15676 4.13931 9.32699C4.99511 9.49722 5.88217 9.40985 6.68831 9.07594C7.49445 8.74202 8.18348 8.17656 8.66825 7.45105C9.15302 6.72554 9.41177 5.87257 9.41177 5C9.41046 3.83033 8.94523 2.70894 8.11814 1.88186C7.29106 1.05478 6.16967 0.589547 5 0.588237Z" fill="#222222"/>
</svg>
