<svg width="13" height="13" viewBox="0 0 13 13" fill="none" xmlns="http://www.w3.org/2000/svg">
<path fill-rule="evenodd" clip-rule="evenodd" d="M4.47409 4.52194L4.708 6.08527C4.71029 6.1013 4.70926 6.11763 4.70496 6.13325C4.70067 6.14886 4.69321 6.16343 4.68304 6.17603L3.69755 7.41153C3.65676 7.46275 3.63003 7.52373 3.61999 7.58844C3.60996 7.65314 3.61696 7.71935 3.64033 7.78052C3.66369 7.8417 3.70259 7.89572 3.75321 7.93727C3.80382 7.97882 3.86439 8.00645 3.92894 8.01744L5.48806 8.27737C5.50398 8.27996 5.51917 8.28588 5.53265 8.29476C5.54612 8.30363 5.55756 8.31524 5.56623 8.32885L6.4366 9.64868C6.47275 9.70321 6.5225 9.74737 6.58094 9.7768C6.63938 9.80622 6.70448 9.81989 6.76982 9.81646C6.83515 9.81303 6.89846 9.79262 6.9535 9.75723C7.00853 9.72185 7.05338 9.67272 7.08362 9.61471L7.8135 8.21272C7.8211 8.19845 7.8315 8.18586 7.84408 8.17569C7.85665 8.16552 7.87114 8.15799 7.88669 8.15355L9.41045 7.73353C9.47352 7.71611 9.53095 7.68255 9.57708 7.63615C9.62321 7.58974 9.65643 7.53211 9.67348 7.46894C9.69052 7.40577 9.69079 7.33925 9.67426 7.27595C9.65772 7.21264 9.62497 7.15474 9.57922 7.10797L8.47097 5.98045C8.45949 5.96912 8.45052 5.9555 8.44467 5.94047C8.43881 5.92544 8.43621 5.90934 8.43701 5.89323L8.50943 4.31425C8.5122 4.24883 8.49787 4.18381 8.46785 4.12562C8.43782 4.06743 8.39315 4.01807 8.33822 3.98241C8.2833 3.94676 8.22003 3.92603 8.15466 3.92229C8.08928 3.91855 8.02406 3.93192 7.96543 3.96107L6.5509 4.66592C6.53659 4.67326 6.52088 4.67748 6.50481 4.6783C6.48875 4.67912 6.47269 4.67653 6.4577 4.67069L4.97728 4.11513C4.91608 4.09207 4.84991 4.08541 4.78534 4.09581C4.72077 4.10622 4.66005 4.13332 4.60919 4.17444C4.55833 4.21556 4.51911 4.26926 4.49541 4.33022C4.47171 4.39117 4.46436 4.45726 4.47409 4.52194ZM5.25516 4.97345L6.20919 5.33173C6.31513 5.37155 6.42816 5.38907 6.54119 5.38316C6.65423 5.37726 6.76482 5.34807 6.86604 5.29742L7.77856 4.84334L7.73142 5.86101C7.72657 5.97418 7.74502 6.08715 7.78563 6.1929C7.82623 6.29865 7.88813 6.39494 7.96748 6.47579L8.68244 7.20261L7.69947 7.47287C7.59026 7.50315 7.48843 7.55554 7.4003 7.62679C7.31217 7.69804 7.23962 7.78663 7.18714 7.88707L6.71697 8.79163L6.15603 7.94029C6.09359 7.84577 6.01241 7.76508 5.91751 7.70322C5.82261 7.64137 5.71601 7.59966 5.60433 7.58069L4.59937 7.41362L5.2345 6.61647C5.30523 6.52811 5.35694 6.42608 5.38639 6.31679C5.41584 6.20751 5.42239 6.09331 5.40563 5.98137L5.25516 4.97345ZM10.2103 11.1025C9.28749 11.8486 8.16415 12.3042 6.98236 12.4119C5.80056 12.5195 4.61339 12.2743 3.57095 11.7072C2.52852 11.1402 1.67766 10.2767 1.12595 9.22609C0.574246 8.17545 0.346483 6.9848 0.471463 5.80471C0.596443 4.62463 1.06855 3.5081 1.82809 2.59633C2.58763 1.68456 3.60048 1.01849 4.73857 0.682356C5.87666 0.346222 7.08886 0.355118 8.22189 0.70792C9.35492 1.06072 10.3579 1.74158 11.104 2.66441C12.1027 3.90258 12.5694 5.48634 12.4019 7.06824C12.2344 8.65013 11.4462 10.101 10.2103 11.1025ZM3.10967 2.31968C2.29541 2.97798 1.69465 3.86295 1.38335 4.86268C1.07206 5.86242 1.06421 6.93201 1.3608 7.9362C1.65739 8.9404 2.24509 9.83409 3.0496 10.5043C3.8541 11.1745 4.83927 11.591 5.88053 11.7013C6.92178 11.8116 7.97235 11.6106 8.89939 11.1238C9.82643 10.637 10.5883 9.88624 11.0886 8.96645C11.589 8.04666 11.8054 6.99915 11.7104 5.95639C11.6154 4.91363 11.2133 3.92245 10.555 3.1082C9.67137 2.01768 8.3912 1.32222 6.9954 1.17439C5.5996 1.02657 4.20216 1.43845 3.10967 2.31968Z" fill="white"/>
<rect x="4.31104" y="7.13477" width="2.03452" height="3.27658" transform="rotate(-47.7757 4.31104 7.13477)" fill="white"/>
<rect x="4.63916" y="5.58203" width="1.181" height="4.02835" transform="rotate(-47.7757 4.63916 5.58203)" fill="white"/>
<rect x="5.60205" y="5.4707" width="0.985084" height="3.51132" transform="rotate(-47.7757 5.60205 5.4707)" fill="white"/>
<rect x="6.56738" y="5.2832" width="1.22429" height="1.41654" transform="rotate(-47.7757 6.56738 5.2832)" fill="white"/>
<path fill-rule="evenodd" clip-rule="evenodd" d="M4.41638 4.56683L4.69785 6.12231C4.70063 6.13826 4.7001 6.15462 4.69628 6.17035C4.69247 6.18609 4.68545 6.20088 4.67567 6.21379L3.72831 7.47876C3.6891 7.53121 3.66424 7.59297 3.65618 7.65795C3.64813 7.72293 3.65715 7.7889 3.68237 7.84933C3.70758 7.90976 3.74812 7.96257 3.79998 8.00256C3.85183 8.04254 3.91322 8.06832 3.97807 8.07734L5.54439 8.2896C5.56039 8.2917 5.57575 8.29716 5.58949 8.30562C5.60322 8.31407 5.61502 8.32534 5.6241 8.33867L6.53431 9.63135C6.57211 9.68475 6.62318 9.72738 6.68249 9.755C6.7418 9.78263 6.80728 9.79431 6.87248 9.78889C6.93769 9.78347 7.00035 9.76113 7.05428 9.72409C7.1082 9.68704 7.15154 9.63657 7.17999 9.57766L7.86678 8.15407C7.87394 8.13958 7.88395 8.12667 7.89621 8.11613C7.90847 8.10558 7.92273 8.09761 7.93813 8.09269L9.44838 7.62641C9.51089 7.60708 9.56727 7.57177 9.61196 7.52399C9.65665 7.4762 9.6881 7.41758 9.70321 7.35392C9.71832 7.29026 9.71656 7.22376 9.69811 7.16099C9.67965 7.09822 9.64514 7.04135 9.59799 6.99599L8.45588 5.90279C8.44405 5.89182 8.43467 5.87847 8.42837 5.86363C8.42206 5.84878 8.41896 5.83277 8.41927 5.81664L8.44351 4.23619C8.44429 4.17072 8.42798 4.10617 8.39619 4.04892C8.36441 3.99167 8.31825 3.94369 8.26226 3.90973C8.20628 3.87576 8.14241 3.85698 8.07695 3.85523C8.01149 3.85349 7.94671 3.86884 7.88899 3.89977L6.49662 4.64742C6.48253 4.65519 6.46696 4.65989 6.45093 4.6612C6.43489 4.66251 6.41877 4.66041 6.40361 4.65503L4.90693 4.14487C4.84505 4.12369 4.77871 4.11905 4.71449 4.13142C4.65027 4.14378 4.5904 4.17273 4.54082 4.21538C4.49124 4.25803 4.45367 4.3129 4.43184 4.37455C4.41001 4.4362 4.40468 4.50249 4.41638 4.56683ZM5.21085 4.99432L6.17536 5.32334C6.28247 5.35992 6.39599 5.37397 6.50878 5.36463C6.62158 5.35528 6.73123 5.32273 6.83086 5.26902L7.72911 4.78732L7.71302 5.80595C7.71163 5.91922 7.73352 6.03158 7.77733 6.13604C7.82114 6.24051 7.88594 6.33486 7.96772 6.41325L8.70451 7.11793L7.73024 7.41804C7.62201 7.45163 7.52182 7.5071 7.43591 7.58101C7.34999 7.65491 7.28017 7.74568 7.23078 7.84768L6.78842 8.76614L6.20177 7.93231C6.13648 7.83974 6.05288 7.76156 5.95613 7.70262C5.85939 7.64369 5.75157 7.60525 5.63937 7.5897L4.62978 7.45336L5.24031 6.6372C5.30831 6.54672 5.35689 6.44317 5.38299 6.33304C5.40909 6.2229 5.41216 6.10856 5.39199 5.99718L5.21085 4.99432Z" fill="white"/>
</svg>
