<svg width="30" height="30" viewBox="0 0 30 30" fill="none" xmlns="http://www.w3.org/2000/svg">
<path d="M0 0L30.0013 0.00013791L9.10372e-06 30.0006L0 0Z" fill="#10A37F"/>
<path fill-rule="evenodd" clip-rule="evenodd" d="M6.47469 6.52265L6.7086 8.08598C6.71089 8.10201 6.70986 8.11834 6.70556 8.13396C6.70127 8.14957 6.69381 8.16413 6.68364 8.17674L5.69815 9.41224C5.65736 9.46346 5.63062 9.52444 5.62059 9.58915C5.61055 9.65385 5.61756 9.72006 5.64092 9.78123C5.66429 9.84241 5.70319 9.89643 5.75381 9.93798C5.80442 9.97953 5.86499 10.0072 5.92954 10.0182L7.48866 10.2781C7.50458 10.2807 7.51977 10.2866 7.53325 10.2955C7.54672 10.3043 7.55816 10.316 7.56683 10.3296L8.4372 11.6494C8.47335 11.7039 8.5231 11.7481 8.58154 11.7775C8.63998 11.8069 8.70508 11.8206 8.77041 11.8172C8.83575 11.8137 8.89906 11.7933 8.9541 11.7579C9.00913 11.7226 9.05398 11.6734 9.08422 11.6154L9.8141 10.2134C9.8217 10.1992 9.8321 10.1866 9.84468 10.1764C9.85725 10.1662 9.87174 10.1587 9.88729 10.1543L11.4111 9.73424C11.4741 9.71682 11.5316 9.68326 11.5777 9.63686C11.6238 9.59045 11.657 9.53282 11.6741 9.46965C11.6911 9.40648 11.6914 9.33996 11.6749 9.27666C11.6583 9.21335 11.6256 9.15545 11.5798 9.10868L10.4716 7.98116C10.4601 7.96983 10.4511 7.95621 10.4453 7.94118C10.4394 7.92615 10.4368 7.91005 10.4376 7.89394L10.51 6.31496C10.5128 6.24954 10.4985 6.18452 10.4684 6.12633C10.4384 6.06814 10.3937 6.01878 10.3388 5.98312C10.2839 5.94747 10.2206 5.92674 10.1553 5.923C10.0899 5.91926 10.0247 5.93263 9.96603 5.96178L8.5515 6.66663C8.53719 6.67397 8.52148 6.67819 8.50541 6.67901C8.48935 6.67983 8.47329 6.67724 8.4583 6.6714L6.97788 6.11584C6.91668 6.09278 6.85051 6.08612 6.78594 6.09652C6.72137 6.10693 6.66065 6.13403 6.60979 6.17515C6.55893 6.21627 6.5197 6.26997 6.49601 6.33093C6.47231 6.39188 6.46496 6.45797 6.47469 6.52265ZM7.25576 6.97416L8.20979 7.33243C8.31573 7.37226 8.42876 7.38978 8.54179 7.38387C8.65482 7.37797 8.76542 7.34878 8.86664 7.29813L9.77916 6.84405L9.73202 7.86172C9.72717 7.97489 9.74562 8.08786 9.78623 8.19361C9.82683 8.29936 9.88873 8.39565 9.96808 8.4765L10.683 9.20332L9.70007 9.47358C9.59086 9.50386 9.48903 9.55624 9.4009 9.62749C9.31277 9.69875 9.24022 9.78734 9.18774 9.88778L8.71757 10.7923L8.15663 9.941C8.09419 9.84648 8.01301 9.76579 7.91811 9.70393C7.8232 9.64208 7.71661 9.60037 7.60493 9.5814L6.59997 9.41433L7.2351 8.61718C7.30583 8.52881 7.35754 8.42679 7.38699 8.3175C7.41644 8.20822 7.42299 8.09402 7.40623 7.98208L7.25576 6.97416ZM12.2109 13.1032C11.2881 13.8493 10.1648 14.305 8.98296 14.4126C7.80116 14.5202 6.61398 14.275 5.57155 13.708C4.52912 13.1409 3.67825 12.2774 3.12655 11.2268C2.57485 10.1762 2.34708 8.98551 2.47206 7.80542C2.59704 6.62534 3.06915 5.50881 3.82869 4.59704C4.58823 3.68527 5.60108 3.0192 6.73917 2.68307C7.87726 2.34693 9.08946 2.35583 10.2225 2.70863C11.3555 3.06143 12.3585 3.74229 13.1046 4.66512C14.1033 5.90329 14.57 7.48705 14.4025 9.06894C14.235 10.6508 13.4468 12.1017 12.2109 13.1032ZM5.11027 4.32039C4.29601 4.97869 3.69525 5.86366 3.38395 6.86339C3.07266 7.86313 3.06481 8.93272 3.3614 9.93691C3.65798 10.9411 4.24569 11.8348 5.0502 12.505C5.8547 13.1752 6.83987 13.5917 7.88113 13.702C8.92238 13.8123 9.97295 13.6113 10.9 13.1245C11.827 12.6377 12.5889 11.887 13.0892 10.9672C13.5896 10.0474 13.806 8.99986 13.711 7.9571C13.616 6.91434 13.2139 5.92316 12.5556 5.10891C11.672 4.01839 10.3918 3.32293 8.996 3.1751C7.6002 3.02728 6.20276 3.43916 5.11027 4.32039Z" fill="white"/>
<path d="M6.31189 9.13628L7.67916 7.62968L10.1055 9.83166L8.73827 11.3383L6.31189 9.13628Z" fill="white"/>
<path d="M6.64006 7.58367L7.43373 6.70911L10.4168 9.4163L9.62313 10.2909L6.64006 7.58367Z" fill="white"/>
<path d="M7.60287 7.47176L8.26488 6.74228L10.8651 9.10201L10.2031 9.83148L7.60287 7.47176Z" fill="white"/>
<path d="M8.56816 7.28362L9.39093 6.37701L10.4399 7.32897L9.61714 8.23558L8.56816 7.28362Z" fill="white"/>
<path fill-rule="evenodd" clip-rule="evenodd" d="M6.4172 6.56795L6.69868 8.12342C6.70146 8.13938 6.70092 8.15573 6.69711 8.17147C6.69329 8.18721 6.68628 8.20199 6.6765 8.2149L5.72914 9.47988C5.68993 9.53232 5.66507 9.59408 5.65701 9.65907C5.64895 9.72405 5.65798 9.79001 5.6832 9.85044C5.70841 9.91087 5.74895 9.96369 5.8008 10.0037C5.85266 10.0437 5.91404 10.0694 5.9789 10.0785L7.54522 10.2907C7.56121 10.2928 7.57658 10.2983 7.59032 10.3067C7.60405 10.3152 7.61585 10.3265 7.62492 10.3398L8.53514 11.6325C8.57294 11.6859 8.62401 11.7285 8.68332 11.7561C8.74262 11.7837 8.80811 11.7954 8.87331 11.79C8.93851 11.7846 9.00117 11.7622 9.0551 11.7252C9.10903 11.6882 9.15237 11.6377 9.18082 11.5788L9.86761 10.1552C9.87477 10.1407 9.88478 10.1278 9.89704 10.1172C9.9093 10.1067 9.92356 10.0987 9.93896 10.0938L11.4492 9.62752C11.5117 9.60819 11.5681 9.57289 11.6128 9.5251C11.6575 9.47732 11.6889 9.4187 11.704 9.35504C11.7191 9.29138 11.7174 9.22488 11.6989 9.16211C11.6805 9.09933 11.646 9.04246 11.5988 8.99711L10.4567 7.9039C10.4449 7.89293 10.4355 7.87959 10.4292 7.86474C10.4229 7.8499 10.4198 7.83389 10.4201 7.81776L10.4443 6.23731C10.4451 6.17183 10.4288 6.10728 10.397 6.05003C10.3652 5.99278 10.3191 5.94481 10.2631 5.91084C10.2071 5.87688 10.1432 5.8581 10.0778 5.85635C10.0123 5.8546 9.94754 5.86995 9.88982 5.90088L8.49744 6.64854C8.48336 6.65631 8.46779 6.661 8.45175 6.66231C8.43572 6.66363 8.41959 6.66152 8.40443 6.65614L6.90775 6.14599C6.84588 6.1248 6.77954 6.12016 6.71532 6.13253C6.6511 6.1449 6.59123 6.17384 6.54165 6.21649C6.49206 6.25914 6.4545 6.31401 6.43267 6.37567C6.41084 6.43732 6.40551 6.5036 6.4172 6.56795ZM7.21168 6.99543L8.17619 7.32445C8.2833 7.36103 8.39681 7.37509 8.50961 7.36574C8.62241 7.35639 8.73206 7.32384 8.83169 7.27013L9.72994 6.78844L9.71385 7.80707C9.71246 7.92034 9.73434 8.03269 9.77816 8.13716C9.82197 8.24162 9.88677 8.33597 9.96855 8.41436L10.7053 9.11905L9.73107 9.41916C9.62283 9.45275 9.52265 9.50822 9.43674 9.58212C9.35082 9.65603 9.281 9.74679 9.23161 9.84879L8.78924 10.7673L8.2026 9.93342C8.13731 9.84085 8.0537 9.76267 7.95696 9.70374C7.86022 9.64481 7.7524 9.60637 7.64019 9.59081L6.6306 9.45447L7.24113 8.63832C7.30914 8.54784 7.35771 8.44429 7.38382 8.33415C7.40992 8.22402 7.41298 8.10967 7.39282 7.9983L7.21168 6.99543Z" fill="white"/>
</svg>
