<svg width="12" height="12" viewBox="0 0 12 12" fill="none" xmlns="http://www.w3.org/2000/svg">
<path d="M11.8244 5.57572L10.2113 3.963C10.1719 3.92227 10.1249 3.88977 10.0728 3.86742C10.0208 3.84506 9.96483 3.8333 9.90819 3.8328C9.85156 3.83231 9.79539 3.8431 9.74297 3.86455C9.69055 3.886 9.64293 3.91767 9.60288 3.95772C9.56283 3.99776 9.53116 4.04539 9.50971 4.09781C9.48827 4.15023 9.47748 4.20639 9.47797 4.26303C9.47846 4.31966 9.49023 4.37563 9.51258 4.42767C9.53493 4.47971 9.56743 4.52677 9.60817 4.56612L10.6156 5.57359H6.42666V1.38461L7.43413 2.39208C7.51457 2.46978 7.62232 2.51277 7.73415 2.5118C7.84599 2.51083 7.95297 2.46597 8.03205 2.38689C8.11113 2.3078 8.15599 2.20082 8.15696 2.08899C8.15793 1.97715 8.11494 1.86941 8.03725 1.78897L6.42666 0.175817C6.37093 0.120077 6.30477 0.0758607 6.23195 0.0456937C6.15913 0.0155266 6.08108 0 6.00226 0C5.92344 0 5.84539 0.0155266 5.77257 0.0456937C5.69975 0.0758607 5.63359 0.120077 5.57786 0.175817L3.96514 1.78897C3.88744 1.86941 3.84445 1.97715 3.84542 2.08899C3.84639 2.20082 3.89125 2.3078 3.97033 2.38689C4.04941 2.46597 4.15639 2.51083 4.26823 2.5118C4.38006 2.51277 4.48781 2.46978 4.56825 2.39208L5.57359 1.38461V5.57359H1.38461L2.39208 4.56612C2.46978 4.48568 2.51277 4.37793 2.5118 4.2661C2.51083 4.15426 2.46597 4.04728 2.38689 3.9682C2.3078 3.88912 2.20082 3.84426 2.08899 3.84329C1.97715 3.84231 1.86941 3.88531 1.78897 3.963L0.175817 5.57572C0.120077 5.63145 0.0758607 5.69762 0.0456937 5.77044C0.0155266 5.84326 0 5.9213 0 6.00012C0 6.07895 0.0155266 6.15699 0.0456937 6.22981C0.0758607 6.30263 0.120077 6.3688 0.175817 6.42453L1.78897 8.03725C1.86941 8.11494 1.97715 8.15793 2.08899 8.15696C2.20082 8.15599 2.3078 8.11113 2.38689 8.03205C2.46597 7.95297 2.51083 7.84599 2.5118 7.73415C2.51277 7.62232 2.46978 7.51457 2.39208 7.43413L1.38461 6.42666H5.57359V10.6156L4.56612 9.60817C4.52677 9.56743 4.47971 9.53493 4.42767 9.51258C4.37563 9.49023 4.31966 9.47846 4.26303 9.47797C4.20639 9.47748 4.15023 9.48827 4.09781 9.50971C4.04539 9.53116 3.99776 9.56283 3.95772 9.60288C3.91767 9.64293 3.886 9.69055 3.86455 9.74297C3.8431 9.79539 3.83231 9.85156 3.8328 9.90819C3.8333 9.96483 3.84506 10.0208 3.86742 10.0728C3.88977 10.1249 3.92227 10.1719 3.963 10.2113L5.57572 11.824C5.63142 11.8798 5.69758 11.9241 5.7704 11.9543C5.84323 11.9845 5.92129 12 6.00012 12C6.07896 12 6.15702 11.9845 6.22985 11.9543C6.30267 11.9241 6.36882 11.8798 6.42453 11.824L8.03725 10.2109C8.07798 10.1715 8.11048 10.1244 8.13283 10.0724C8.15519 10.0204 8.16695 9.9644 8.16745 9.90776C8.16794 9.85113 8.15714 9.79496 8.1357 9.74254C8.11425 9.69012 8.08258 9.6425 8.04253 9.60245C8.00248 9.5624 7.95486 9.53073 7.90244 9.50929C7.85002 9.48784 7.79386 9.47705 7.73722 9.47754C7.68059 9.47803 7.62462 9.4898 7.57258 9.51215C7.52054 9.53451 7.47347 9.567 7.43413 9.60774L6.42666 10.6156V6.42666H10.6156L9.60817 7.43413C9.56743 7.47347 9.53493 7.52054 9.51258 7.57258C9.49023 7.62462 9.47846 7.68059 9.47797 7.73722C9.47748 7.79386 9.48827 7.85002 9.50971 7.90244C9.53116 7.95486 9.56283 8.00248 9.60288 8.04253C9.64293 8.08258 9.69055 8.11425 9.74297 8.1357C9.79539 8.15714 9.85156 8.16794 9.90819 8.16745C9.96483 8.16695 10.0208 8.15519 10.0728 8.13283C10.1249 8.11048 10.1719 8.07798 10.2113 8.03725L11.8244 6.42666C11.8802 6.37093 11.9244 6.30477 11.9546 6.23195C11.9847 6.15913 12.0002 6.08108 12.0002 6.00226C12.0002 5.92344 11.9847 5.84539 11.9546 5.77257C11.9244 5.69975 11.8802 5.63359 11.8244 5.57786V5.57572Z" fill="#252525"/>
</svg>
