<svg width="14" height="14" viewBox="0 0 14 14" fill="none" xmlns="http://www.w3.org/2000/svg">
<path d="M12.1443 5.07206C12.0774 5.07206 12.0106 5.04646 11.9596 4.99552C11.8575 4.89337 11.8575 4.72826 11.9596 4.62612C12.6485 3.93721 12.6485 2.72867 11.9596 2.04003C11.6307 1.71112 11.1594 1.52249 10.6664 1.52249C10.1735 1.52249 9.70217 1.71112 9.37326 2.04003C9.27111 2.14217 9.106 2.14217 9.00386 2.04003C8.90171 1.93814 8.90171 1.77277 9.00386 1.67062C9.42995 1.24453 10.0358 1 10.6664 1C11.2971 1 11.9029 1.24453 12.329 1.67062C12.7551 2.09672 12.9994 2.70255 12.9994 3.3332C12.9994 3.96385 12.7548 4.56969 12.329 4.99578C12.2781 5.04646 12.2112 5.07206 12.1443 5.07206Z" fill="#252525" stroke="#252525" stroke-width="0.4"/>
<path d="M1.26149 12.9995C1.11728 12.9995 1.00024 12.8824 1.00024 12.7382V9.78273C1.00024 9.63852 1.11728 9.52148 1.26149 9.52148C1.4057 9.52148 1.52274 9.63852 1.52274 9.78273V12.7382C1.52274 12.8824 1.4057 12.9995 1.26149 12.9995Z" fill="#252525" stroke="#252525" stroke-width="0.4"/>
<path d="M4.21698 12.9991H1.26149C1.11728 12.9991 1.00024 12.882 1.00024 12.7378C1.00024 12.5936 1.11728 12.4766 1.26149 12.4766H4.21698C4.36119 12.4766 4.47823 12.5936 4.47823 12.7378C4.47823 12.882 4.36145 12.9991 4.21698 12.9991Z" fill="#252525" stroke="#252525" stroke-width="0.4"/>
<path d="M4.21663 13.0004C4.14976 13.0004 4.08288 12.9748 4.03193 12.9238C3.92979 12.8217 3.92979 12.6566 4.03193 12.5544L11.9592 4.62739C12.0614 4.52524 12.2265 4.52524 12.3286 4.62739C12.4308 4.72954 12.4308 4.89465 12.3286 4.9968L4.4016 12.9238C4.35039 12.9748 4.28351 13.0004 4.21663 13.0004Z" fill="#252525" stroke="#252525" stroke-width="0.4"/>
<path d="M1.26131 10.0433C1.19443 10.0433 1.12755 10.0177 1.07661 9.9668C0.974463 9.86465 0.974463 9.69954 1.07661 9.59739L9.00364 1.67036C9.10579 1.56821 9.2709 1.56821 9.37304 1.67036C9.47519 1.77251 9.47519 1.93762 9.37304 2.03976L1.44601 9.9668C1.39507 10.0177 1.32819 10.0433 1.26131 10.0433Z" fill="#252525" stroke="#252525" stroke-width="0.4"/>
<path d="M11.0357 6.17922C10.9688 6.17922 10.9019 6.15362 10.851 6.10268L7.89546 3.14719C7.79331 3.04504 7.79331 2.87993 7.89546 2.77778C7.99761 2.67563 8.16271 2.67563 8.26486 2.77778L11.2204 5.73327C11.3225 5.83542 11.3225 6.00053 11.2204 6.10268C11.1694 6.15388 11.1025 6.17922 11.0357 6.17922Z" fill="#252525" stroke="#252525" stroke-width="0.4"/>
</svg>
