<svg width="12" height="12" viewBox="0 0 12 12" fill="none" xmlns="http://www.w3.org/2000/svg">
<path d="M0 4.2575V10.8414C0.000364379 11.1484 0.122474 11.4427 0.339542 11.6597C0.55661 11.8768 0.850914 11.9989 1.15789 11.9993H7.74168C8.04866 11.9989 8.34297 11.8768 8.56004 11.6597C8.77711 11.4427 8.89921 11.1484 8.89958 10.8414V4.2575C8.89921 3.95052 8.77711 3.65622 8.56004 3.43915C8.34297 3.22208 8.04866 3.09997 7.74168 3.09961H1.15789C0.850914 3.09997 0.55661 3.22208 0.339542 3.43915C0.122474 3.65622 0.000364379 3.95052 0 4.2575ZM8.268 4.2575V10.8414C8.26785 10.9809 8.21236 11.1147 8.11368 11.2134C8.01501 11.3121 7.88123 11.3676 7.74168 11.3677H1.15789C1.01835 11.3676 0.884567 11.3121 0.785895 11.2134C0.687224 11.1147 0.631726 10.9809 0.631579 10.8414V4.2575C0.631726 4.11796 0.687224 3.98418 0.785895 3.8855C0.884567 3.78683 1.01835 3.73133 1.15789 3.73119H7.74168C7.88123 3.73133 8.01501 3.78683 8.11368 3.8855C8.21236 3.98418 8.26785 4.11796 8.268 4.2575Z" fill="#252525"/>
<path d="M3.73216 1.86595V1.34909C3.73242 1.15884 3.80812 0.976454 3.94267 0.841943C4.07722 0.707432 4.25963 0.631779 4.44989 0.631579H5.22507C5.30803 0.630366 5.38717 0.59656 5.4454 0.537469C5.50364 0.478378 5.53628 0.398746 5.53628 0.315783C5.53627 0.232821 5.50363 0.15319 5.44539 0.0941011C5.38716 0.035012 5.30801 0.00120999 5.22506 0H4.4499C4.09219 0.000377179 3.74924 0.142628 3.49628 0.395544C3.24333 0.648461 3.10102 0.991389 3.10059 1.34909V1.86595C3.10176 1.94893 3.13555 2.02812 3.19464 2.08638C3.25374 2.14464 3.33339 2.17731 3.41638 2.17731C3.49936 2.17731 3.57902 2.14464 3.63811 2.08638C3.6972 2.02812 3.73099 1.94893 3.73216 1.86595Z" fill="#252525"/>
<path d="M11.6844 6.45898C11.6007 6.45899 11.5203 6.49226 11.4611 6.55148C11.4019 6.6107 11.3686 6.69102 11.3686 6.77477V7.54986C11.3684 7.74014 11.2927 7.92257 11.1582 8.05713C11.0236 8.19168 10.8412 8.26736 10.6509 8.26758H10.1341C10.0504 8.26758 9.97007 8.30085 9.91085 8.36007C9.85163 8.41929 9.81836 8.49961 9.81836 8.58337C9.81836 8.66712 9.85163 8.74744 9.91085 8.80666C9.97007 8.86589 10.0504 8.89916 10.1341 8.89916H10.6509C11.0086 8.89876 11.3516 8.75648 11.6046 8.50352C11.8575 8.25056 11.9998 7.90759 12.0002 7.54986V6.77477C12.0002 6.69102 11.9669 6.6107 11.9077 6.55148C11.8485 6.49226 11.7682 6.45899 11.6844 6.45898Z" fill="#252525"/>
<path d="M10.6509 0H9.8758C9.79282 0.00117519 9.71364 0.0349637 9.65538 0.0940592C9.59711 0.153155 9.56445 0.232808 9.56445 0.315796C9.56445 0.398783 9.59712 0.478435 9.65539 0.537528C9.71365 0.596622 9.79284 0.630407 9.87581 0.631579H10.6509C10.8411 0.631779 11.0235 0.707432 11.1581 0.841943C11.2926 0.976454 11.3684 1.15884 11.3686 1.34909V2.12438C11.3686 2.20814 11.4019 2.28846 11.4611 2.34768C11.5203 2.4069 11.6006 2.44017 11.6844 2.44017C11.7681 2.44017 11.8485 2.4069 11.9077 2.34768C11.9669 2.28846 12.0002 2.20814 12.0002 2.12438V1.34909C11.9997 0.99139 11.8574 0.648464 11.6045 0.395548C11.3515 0.142632 11.0086 0.000379964 10.6509 0Z" fill="#252525"/>
<path d="M8.32534 0.631579C8.40829 0.630366 8.48744 0.59656 8.54567 0.537469C8.6039 0.478378 8.63655 0.398746 8.63654 0.315783C8.63654 0.232821 8.6039 0.15319 8.54566 0.0941011C8.48743 0.035012 8.40828 0.00120999 8.32533 0H6.77507C6.69212 0.00121331 6.61297 0.0350185 6.55474 0.0941099C6.49651 0.153201 6.46387 0.232833 6.46387 0.315796C6.46387 0.398758 6.49651 0.478389 6.55475 0.537478C6.61298 0.596567 6.69213 0.630369 6.77508 0.631579H8.32534Z" fill="#252525"/>
<path d="M11.6842 3.35938C11.6004 3.35938 11.5201 3.39265 11.4609 3.45187C11.4017 3.51109 11.3684 3.59141 11.3684 3.67516V5.22533C11.3696 5.30828 11.4034 5.38743 11.4625 5.44566C11.5216 5.50389 11.6012 5.53653 11.6842 5.53653C11.7672 5.53653 11.8468 5.50389 11.9059 5.44565C11.965 5.38742 11.9988 5.30827 12 5.22532V3.67516C12 3.59141 11.9667 3.51109 11.9075 3.45187C11.8483 3.39265 11.7679 3.35938 11.6842 3.35938Z" fill="#252525"/>
<path d="M2.34441 7.86575H4.13389V9.65522C4.1351 9.73818 4.16891 9.81732 4.228 9.87555C4.28709 9.93378 4.36672 9.96643 4.44968 9.96643C4.53265 9.96642 4.61228 9.93378 4.67137 9.87554C4.73045 9.81731 4.76426 9.73816 4.76547 9.65521V7.86575H6.55494C6.63869 7.86575 6.71902 7.83248 6.77824 7.77326C6.83746 7.71403 6.87073 7.63371 6.87073 7.54996C6.87073 7.46621 6.83746 7.38588 6.77824 7.32666C6.71902 7.26744 6.63869 7.23417 6.55494 7.23417H4.76547V5.4447C4.76547 5.36094 4.7322 5.28062 4.67297 5.2214C4.61375 5.16218 4.53343 5.12891 4.44968 5.12891C4.36592 5.12891 4.2856 5.16218 4.22638 5.2214C4.16716 5.28062 4.13389 5.36094 4.13389 5.4447V7.23417H2.34441C2.26146 7.23538 2.18231 7.26918 2.12408 7.32827C2.06585 7.38736 2.0332 7.467 2.0332 7.54996C2.0332 7.63292 2.06585 7.71255 2.12408 7.77164C2.18231 7.83073 2.26146 7.86454 2.34441 7.86575Z" fill="#252525"/>
</svg>
