<svg width="12" height="12" viewBox="0 0 12 12" fill="none" xmlns="http://www.w3.org/2000/svg">
<path d="M0.381768 2.4H1.17805V10.5917C1.17805 10.9639 1.32536 11.3209 1.5878 11.5848C1.85024 11.8487 2.20646 11.998 2.57862 12H8.54777C8.91724 11.9939 9.26953 11.8429 9.52865 11.5794C9.78777 11.316 9.93296 10.9612 9.93291 10.5917V2.4H10.7292C10.832 2.39524 10.9291 2.35103 11.0002 2.27656C11.0713 2.2021 11.111 2.1031 11.111 2.00014C11.111 1.89719 11.0713 1.79819 11.0002 1.72372C10.9291 1.64926 10.832 1.60505 10.7292 1.60029H7.94348V0.799714C7.94401 0.591436 7.86308 0.391207 7.71798 0.241786C7.57288 0.092364 7.37511 0.00559223 7.16691 0H3.96377C3.85897 0.000224882 3.75525 0.0210885 3.65852 0.0613997C3.56178 0.101711 3.47394 0.16068 3.4 0.23494C3.32606 0.309201 3.26747 0.397298 3.22757 0.494202C3.18767 0.591106 3.16726 0.694919 3.16748 0.799714V1.59943H0.381768C0.278922 1.60419 0.181865 1.6484 0.110768 1.72287C0.0396707 1.79733 0 1.89633 0 1.99929C0 2.10224 0.0396707 2.20124 0.110768 2.27571C0.181865 2.35017 0.278922 2.39524 0.381768 2.4ZM3.96377 0.799714H7.1472V1.59943H3.96377V0.799714ZM3.16748 2.4H9.13663V10.5917C9.13685 10.7525 9.07325 10.9068 8.95979 11.0208C8.84633 11.1347 8.69228 11.199 8.53148 11.1994H2.5632C2.40524 11.1947 2.25534 11.1286 2.14537 11.0151C2.03541 10.9016 1.97405 10.7497 1.97434 10.5917V2.4H3.16748Z" fill="#252525"/>
<path d="M4.24125 9.73494C4.35491 9.73494 4.46392 9.68979 4.54429 9.60942C4.62466 9.52905 4.66982 9.42004 4.66982 9.30637V4.2038C4.67697 4.14367 4.6713 4.08271 4.65318 4.02493C4.63506 3.96715 4.6049 3.91387 4.56469 3.86859C4.52448 3.82332 4.47513 3.78708 4.4199 3.76226C4.36466 3.73744 4.3048 3.72461 4.24425 3.72461C4.18369 3.72461 4.12383 3.73744 4.06859 3.76226C4.01336 3.78708 3.96401 3.82332 3.9238 3.86859C3.88359 3.91387 3.85343 3.96715 3.83531 4.02493C3.81719 4.08271 3.81152 4.14367 3.81867 4.2038V9.31237C3.82023 9.42396 3.86524 9.53055 3.94416 9.60946C4.02307 9.68837 4.12966 9.73339 4.24125 9.73494Z" fill="#252525"/>
<path d="M6.86959 9.73526C6.98326 9.73526 7.09227 9.69011 7.17264 9.60974C7.25301 9.52937 7.29816 9.42036 7.29816 9.30669V4.20412C7.28577 4.09996 7.23561 4.00396 7.15718 3.9343C7.07875 3.86464 6.97749 3.82617 6.87259 3.82617C6.76769 3.82617 6.66644 3.86464 6.58801 3.9343C6.50957 4.00396 6.45941 4.09996 6.44702 4.20412V9.31269C6.44857 9.42428 6.49359 9.53087 6.57251 9.60978C6.65142 9.6887 6.758 9.73371 6.86959 9.73526Z" fill="#252525"/>
</svg>
