<svg width="70" height="52" viewBox="0 0 70 52" fill="none" xmlns="http://www.w3.org/2000/svg">
<path d="M61.25 0H8.75C3.92586 0 0 3.88847 0 8.66667V43.3333C0 43.4952 0.0405884 43.6481 0.0496673 43.8099C0.00854492 44.1564 0.0261688 44.5061 0.154343 44.8356C0.874786 48.8976 4.44496 52 8.75 52H61.25C66.0741 52 70 48.1115 70 43.3333V8.66667C70 3.88847 66.0741 0 61.25 0ZM8.75 5.77795H61.25C62.857 5.77795 64.1665 7.07499 64.1665 8.66667V31.6018L48.8251 16.406C46.8299 14.4298 43.5839 14.4298 41.5919 16.406L27.7085 30.1572L24.0331 26.5173C22.0384 24.5411 18.7919 24.5411 16.7999 26.5173L5.83351 37.3792V8.66667C5.83351 7.07499 7.14302 5.77795 8.75 5.77795Z" fill="#B6B6B7"/>
</svg>
