<svg width="16" height="16" viewBox="0 0 16 16" fill="none" xmlns="http://www.w3.org/2000/svg">
<path d="M12.7999 9.40078H3.1999C2.7199 9.40078 2.3999 9.08078 2.3999 8.60078C2.3999 8.12078 2.7199 7.80078 3.1999 7.80078H12.7999C13.2799 7.80078 13.5999 8.12078 13.5999 8.60078C13.5999 9.08078 13.2799 9.40078 12.7999 9.40078Z" fill="#AAAAAA"/>
<path d="M10.4 14.1996H5.60005C5.12005 14.1996 4.80005 13.8796 4.80005 13.3996C4.80005 12.9196 5.12005 12.5996 5.60005 12.5996H10.4C10.88 12.5996 11.2 12.9196 11.2 13.3996C11.2 13.8796 10.88 14.1996 10.4 14.1996Z" fill="#AAAAAA"/>
<path d="M15.2 4.6H0.8C0.32 4.6 0 4.28 0 3.8C0 3.32 0.32 3 0.8 3H15.2C15.68 3 16 3.32 16 3.8C16 4.28 15.68 4.6 15.2 4.6Z" fill="#AAAAAA"/>
</svg>
