<svg width="16" height="12" viewBox="0 0 16 12" fill="none" xmlns="http://www.w3.org/2000/svg">
<g id="Group 362">
<g id="Group">
<path id="Vector" d="M12.7999 6.3998H3.1999C2.7199 6.3998 2.3999 6.0798 2.3999 5.5998C2.3999 5.1198 2.7199 4.7998 3.1999 4.7998H12.7999C13.2799 4.7998 13.5999 5.1198 13.5999 5.5998C13.5999 6.0798 13.2799 6.3998 12.7999 6.3998Z" fill="white"/>
</g>
<g id="Group_2">
<path id="Vector_2" d="M10.3998 11.2001H5.5998C5.1198 11.2001 4.7998 10.8801 4.7998 10.4001C4.7998 9.9201 5.1198 9.6001 5.5998 9.6001H10.3998C10.8798 9.6001 11.1998 9.9201 11.1998 10.4001C11.1998 10.8801 10.8798 11.2001 10.3998 11.2001Z" fill="white"/>
</g>
<g id="Group_3">
<path id="Vector_3" d="M15.2 1.6H0.8C0.32 1.6 0 1.28 0 0.8C0 0.32 0.32 0 0.8 0H15.2C15.68 0 16 0.32 16 0.8C16 1.28 15.68 1.6 15.2 1.6Z" fill="white"/>
</g>
</g>
</svg>
