<svg id="filter" xmlns="http://www.w3.org/2000/svg" width="16" height="11.2" viewBox="0 0 16 11.2">
  <path id="Path_2910" data-name="Path 2910" d="M12.8,6.4H3.2a.756.756,0,0,1-.8-.8.756.756,0,0,1,.8-.8h9.6a.756.756,0,0,1,.8.8A.756.756,0,0,1,12.8,6.4Z" fill="#6d4d40"/>
  <path id="Path_2911" data-name="Path 2911" d="M10.4,11.2H5.6a.8.8,0,0,1,0-1.6h4.8a.8.8,0,1,1,0,1.6Z" fill="#6d4d40"/>
  <path id="Path_2912" data-name="Path 2912" d="M15.2,1.6H.8A.756.756,0,0,1,0,.8.756.756,0,0,1,.8,0H15.2a.756.756,0,0,1,.8.8A.756.756,0,0,1,15.2,1.6Z" fill="#6d4d40"/>
</svg>
