<svg width="12" height="12" viewBox="0 0 12 12" fill="none" xmlns="http://www.w3.org/2000/svg">
<path d="M9.5998 7.05059H2.3998C2.0398 7.05059 1.7998 6.81059 1.7998 6.45059C1.7998 6.09059 2.0398 5.85059 2.3998 5.85059H9.5998C9.9598 5.85059 10.1998 6.09059 10.1998 6.45059C10.1998 6.81059 9.9598 7.05059 9.5998 7.05059Z" fill="#262626"/>
<path d="M7.8001 10.6502H4.2001C3.8401 10.6502 3.6001 10.4102 3.6001 10.0502C3.6001 9.6902 3.8401 9.4502 4.2001 9.4502H7.8001C8.1601 9.4502 8.4001 9.6902 8.4001 10.0502C8.4001 10.4102 8.1601 10.6502 7.8001 10.6502Z" fill="#262626"/>
<path d="M11.4 3.45H0.6C0.24 3.45 0 3.21 0 2.85C0 2.49 0.24 2.25 0.6 2.25H11.4C11.76 2.25 12 2.49 12 2.85C12 3.21 11.76 3.45 11.4 3.45Z" fill="#262626"/>
</svg>
