<svg width="12" height="12" viewBox="0 0 12 12" fill="none" xmlns="http://www.w3.org/2000/svg">
<path d="M5.64008 8.60996C5.73944 8.70932 5.86993 8.75911 6.00002 8.75911C6.13011 8.75911 6.2606 8.70932 6.35996 8.60996L10.4508 4.51908C10.4508 4.51907 10.4509 4.51906 10.4509 4.51905C10.6498 4.3202 10.6496 3.99805 10.4509 3.7992C10.2521 3.60025 9.92988 3.60029 9.73098 3.79918L6.00002 7.53014L2.26908 3.7992C2.26907 3.79919 2.26906 3.79919 2.26905 3.79918C2.0702 3.60023 1.74805 3.60043 1.5492 3.79916C1.35025 3.99798 1.35029 4.32016 1.54918 4.51905L5.64008 8.60996Z" fill="#717171" stroke="#717171" stroke-width="0.2"/>
</svg>
