<svg width="10" height="10" viewBox="0 0 10 10" fill="none" xmlns="http://www.w3.org/2000/svg">
<path d="M0.488369 10C0.391784 10 0.297363 9.97139 0.217049 9.91774C0.136735 9.86409 0.0741374 9.78782 0.0371733 9.69859C0.000209162 9.60936 -0.00946053 9.51117 0.00938733 9.41644C0.0282352 9.32171 0.0747538 9.2347 0.143059 9.16641L9.16644 0.143032C9.25802 0.0514502 9.38223 0 9.51175 0C9.64126 0 9.76548 0.0514502 9.85706 0.143032C9.94864 0.234614 10.0001 0.358826 10.0001 0.488342C10.0001 0.617859 9.94864 0.742071 9.85706 0.833653L0.83368 9.85703C0.788375 9.90243 0.734547 9.93843 0.675288 9.96297C0.616029 9.9875 0.552507 10.0001 0.488369 10Z" fill="#717171"/>
<path d="M9.51172 10C9.44758 10.0001 9.38406 9.9875 9.3248 9.96297C9.26554 9.93843 9.21172 9.90243 9.16641 9.85703L0.143032 0.833653C0.0514502 0.742071 0 0.617859 0 0.488342C0 0.358826 0.0514502 0.234614 0.143032 0.143032C0.234614 0.0514502 0.358826 0 0.488342 0C0.617859 0 0.742071 0.0514502 0.833653 0.143032L9.85703 9.16641C9.92534 9.2347 9.97186 9.32171 9.9907 9.41644C10.0096 9.51117 9.99988 9.60936 9.96292 9.69859C9.92595 9.78782 9.86336 9.86409 9.78304 9.91774C9.70273 9.97139 9.60831 10 9.51172 10Z" fill="#717171"/>
</svg>
