<svg width="120" height="60" viewBox="0 0 120 60" fill="none" xmlns="http://www.w3.org/2000/svg">
<path d="M38.9246 51.4484C38.1746 51.0734 37.5746 50.5484 37.1996 49.8734C36.8246 49.1984 36.5996 48.3734 36.5996 47.4734V43.5734C36.5996 42.6734 36.8246 41.9234 37.1996 41.2484C37.6496 40.5734 38.1746 40.0484 38.9246 39.6734C39.6746 39.2984 40.4996 39.1484 41.5496 39.1484C42.5996 39.1484 43.4246 39.2984 44.1746 39.6734C44.9246 40.0484 45.5246 40.4984 45.8996 41.1734C46.3496 41.8484 46.4996 42.5984 46.4996 43.4234C46.4996 43.4984 46.4246 43.5734 46.1996 43.6484L43.7996 43.7984H43.7246C43.5746 43.7984 43.4996 43.7984 43.4996 43.7234V43.4984C43.4996 42.8984 43.3496 42.4484 42.9746 42.1484C42.5996 41.7734 42.1496 41.6234 41.6246 41.6234C41.0246 41.6234 40.5746 41.7734 40.2746 42.1484C39.8996 42.5234 39.7496 42.9734 39.7496 43.4984V47.6234C39.7496 48.1484 39.8996 48.5984 40.2746 48.9734C40.6496 49.3484 41.0996 49.4984 41.6246 49.4984C42.2246 49.4984 42.6746 49.3484 42.9746 48.9734C43.3496 48.5984 43.4996 48.2234 43.4996 47.6234C43.4996 47.5484 43.4996 47.4734 43.5746 47.4734C43.6496 47.4734 43.7246 47.3984 43.7996 47.4734L46.1996 47.6234C46.4246 47.6234 46.4996 47.6984 46.4996 47.6984V47.7734C46.4996 48.5984 46.2746 49.3484 45.8996 50.0234C45.4496 50.6984 44.9246 51.1484 44.1746 51.5234C43.4246 51.8984 42.5996 52.0484 41.5496 52.0484C40.4996 52.0484 39.6746 51.8234 38.9246 51.4484ZM48.9746 51.1484C48.2246 50.5484 47.6996 49.7984 47.3996 48.8234C47.2496 48.2984 47.1746 47.7734 47.1746 47.1734C47.1746 46.5734 47.2496 45.9734 47.3996 45.4484C47.6996 44.4734 48.2246 43.7234 48.9746 43.1984C49.7246 42.6734 50.6996 42.3734 51.7496 42.3734C52.7996 42.3734 53.7746 42.6734 54.5246 43.1984C55.2746 43.7234 55.7996 44.4734 56.0996 45.4484C56.2496 45.9734 56.3246 46.5734 56.3246 47.1734C56.3246 47.6984 56.2496 48.2234 56.0996 48.7484C55.8746 49.7984 55.3496 50.5484 54.5246 51.1484C53.7746 51.7484 52.7996 52.0484 51.6746 52.0484C50.6996 51.9734 49.7246 51.6734 48.9746 51.1484ZM52.7246 49.0484C52.9496 48.8234 53.0996 48.5234 53.2496 48.1484C53.3246 47.7734 53.3996 47.4734 53.3246 47.0984C53.3246 46.7234 53.2496 46.4234 53.1746 46.0484C53.0996 45.6734 52.8746 45.3734 52.6496 45.1484C52.4246 44.9234 52.1246 44.8484 51.7496 44.8484C51.3746 44.8484 51.0746 44.9234 50.8496 45.1484C50.6246 45.3734 50.4746 45.6734 50.3246 46.0484C50.2496 46.3484 50.1746 46.6484 50.1746 47.0984C50.1746 47.4734 50.1746 47.8484 50.2496 48.1484C50.3246 48.5234 50.5496 48.8234 50.7746 49.0484C50.9996 49.2734 51.2996 49.3484 51.6746 49.3484C52.1246 49.4234 52.4246 49.2734 52.7246 49.0484ZM63.5246 42.7484C64.1996 43.0484 64.7246 43.4234 65.0996 43.8734C65.4746 44.3234 65.6996 44.8484 65.6996 45.4484V51.5234C65.6996 51.5984 65.6996 51.6734 65.6246 51.7484C65.5496 51.8234 65.4746 51.8234 65.3996 51.8234H62.9996C62.9246 51.8234 62.8496 51.8234 62.7746 51.7484C62.6996 51.6734 62.6996 51.5984 62.6996 51.5234V51.1484C62.6996 51.0734 62.6996 51.0734 62.6246 51.0734C62.6246 51.0734 62.5496 51.0734 62.5496 51.1484C62.0246 51.7484 61.2746 52.0484 60.1496 52.0484C59.1746 52.0484 58.4246 51.8234 57.8246 51.3734C57.2246 50.9234 56.9246 50.2484 56.9246 49.3484C56.9246 48.4484 57.2246 47.6984 57.8996 47.1734C58.5746 46.6484 59.4746 46.4234 60.7496 46.4234H62.4746C62.5496 46.4234 62.6246 46.3484 62.6246 46.2734V45.9734C62.6246 45.6734 62.5496 45.3734 62.3246 45.2234C62.0996 45.0734 61.7996 44.9234 61.4246 44.9234C61.1246 44.9234 60.8996 44.9984 60.6746 45.0734C60.4496 45.1484 60.2996 45.2984 60.2246 45.4484C60.1496 45.5234 60.1496 45.5984 60.0746 45.6734C59.9996 45.7484 59.9246 45.7484 59.8496 45.7484L57.3746 45.4484C57.1496 45.4484 57.0746 45.3734 57.0746 45.2234C57.1496 44.6984 57.3746 44.2484 57.7496 43.7984C58.1246 43.3484 58.6496 43.0484 59.2496 42.8234C59.8496 42.5984 60.5996 42.4484 61.3496 42.4484C62.0996 42.3734 62.8496 42.4484 63.5246 42.7484ZM62.1746 49.4984C62.4746 49.2734 62.6246 48.9734 62.6246 48.5984V48.2234C62.6246 48.1484 62.5496 48.0734 62.4746 48.0734H61.4246C60.9746 48.0734 60.5996 48.1484 60.3746 48.2984C60.1496 48.4484 59.9996 48.6734 59.9996 48.9734C59.9996 49.2734 60.0746 49.4234 60.2996 49.5734C60.4496 49.7234 60.7496 49.7984 61.0496 49.7984C61.4996 49.8734 61.8746 49.7234 62.1746 49.4984ZM68.4746 51.2234C67.7246 50.6984 67.1996 50.0234 66.8246 49.1984C66.5996 48.5984 66.4496 47.9234 66.4496 47.0984C66.4496 46.2734 66.5996 45.5984 66.8246 44.9984C67.1246 44.1734 67.6496 43.4984 68.3996 43.0484C69.1496 42.5984 70.0496 42.2984 71.0246 42.2984C72.0746 42.2984 72.9746 42.5234 73.7246 43.0484C74.4746 43.5734 74.9996 44.1734 75.2996 44.9234C75.3746 45.1484 75.4496 45.2984 75.4496 45.5234V45.5984C75.4496 45.7484 75.3746 45.8234 75.1496 45.8984L72.8246 46.2734H72.7496C72.5996 46.2734 72.5246 46.1984 72.4496 46.0484L72.3746 45.8234C72.2996 45.5234 72.1496 45.3734 71.9246 45.1484C71.6996 44.9984 71.3996 44.9234 71.0246 44.9234C70.3496 44.9234 69.9746 45.2234 69.7496 45.7484C69.5996 46.1234 69.5246 46.5734 69.5246 47.0984C69.5246 47.6234 69.5996 48.0734 69.6746 48.4484C69.8996 49.0484 70.3496 49.3484 70.9496 49.3484C71.2496 49.3484 71.5496 49.2734 71.7746 49.1234C71.9996 48.9734 72.1496 48.7484 72.2996 48.4484V48.3734C72.2996 48.2984 72.3746 48.2234 72.4496 48.1484C72.5246 48.0734 72.5996 48.0734 72.6746 48.0734L75.0746 48.4484C75.2996 48.4484 75.3746 48.5984 75.3746 48.8234C75.3746 49.0484 75.2996 49.1984 75.2996 49.2734C74.9996 50.0984 74.4746 50.7734 73.7246 51.2234C72.9746 51.6734 72.0746 51.8984 71.0246 51.8984C69.9746 51.8984 69.2996 51.7484 68.4746 51.2234ZM84.1496 43.2734C84.7496 43.8734 85.0496 44.6984 85.0496 45.6734V51.5234C85.0496 51.5984 85.0496 51.6734 84.9746 51.7484C84.8996 51.8234 84.8246 51.8234 84.7496 51.8234H82.3496C82.2746 51.8234 82.1996 51.8234 82.1246 51.7484C82.0496 51.6734 82.0496 51.5984 82.0496 51.5234V46.3484C82.0496 45.8984 81.8996 45.5984 81.6746 45.2984C81.4496 45.0734 81.1496 44.9234 80.7746 44.9234C80.3996 44.9234 80.0996 45.0734 79.8746 45.2984C79.6496 45.5234 79.4996 45.8984 79.4996 46.3484V51.5234C79.4996 51.5984 79.4996 51.6734 79.4246 51.7484C79.3496 51.8234 79.2746 51.8234 79.1996 51.8234H76.7996C76.7246 51.8234 76.6496 51.8234 76.5746 51.7484C76.4996 51.6734 76.4996 51.5984 76.4996 51.5234V39.5234C76.4996 39.4484 76.4996 39.3734 76.5746 39.2984C76.6496 39.2234 76.7246 39.2234 76.7996 39.2234H79.1996C79.2746 39.2234 79.3496 39.2234 79.4246 39.2984C79.4996 39.3734 79.4996 39.4484 79.4996 39.5234V43.3484C79.4996 43.4234 79.4996 43.4234 79.5746 43.4234C79.5746 43.4234 79.6496 43.4234 79.6496 43.3484C80.1746 42.6734 80.9246 42.2984 81.8246 42.2984C82.7246 42.3734 83.5496 42.6734 84.1496 43.2734Z" fill="#25326A"/>
<path d="M43.3496 24.075C43.4246 24 43.4996 24 43.5746 24H45.9746C46.0496 24 46.1246 24 46.1996 24.075C46.2746 24.15 46.2746 24.225 46.2746 24.3V36.45C46.2746 36.525 46.2746 36.6 46.1996 36.675C46.1246 36.75 46.0496 36.75 45.9746 36.75H43.5746C43.4996 36.75 43.4246 36.75 43.3496 36.675C43.2746 36.6 43.2746 36.525 43.2746 36.45V31.725C43.2746 31.65 43.1996 31.575 43.1246 31.575H39.7496C39.6746 31.575 39.5996 31.65 39.5996 31.725V36.45C39.5996 36.525 39.5996 36.6 39.5246 36.675C39.4496 36.75 39.3746 36.75 39.2996 36.75H36.8996C36.8246 36.75 36.7496 36.75 36.6746 36.675C36.5996 36.6 36.5996 36.525 36.5996 36.45V24.3C36.5996 24.225 36.5996 24.15 36.6746 24.075C36.7496 24 36.8246 24 36.8996 24H39.2996C39.3746 24 39.4496 24 39.5246 24.075C39.5996 24.15 39.5996 24.225 39.5996 24.3V28.875C39.5996 28.95 39.6746 29.025 39.7496 29.025H43.1246C43.1996 29.025 43.2746 28.95 43.2746 28.875V24.3C43.1996 24.225 43.2746 24.15 43.3496 24.075ZM48.9746 36.075C48.2246 35.475 47.6996 34.725 47.3996 33.675C47.2496 33.15 47.1746 32.625 47.1746 32.025C47.1746 31.425 47.2496 30.825 47.3996 30.225C47.6996 29.25 48.2246 28.5 48.9746 27.975C49.7246 27.45 50.6996 27.15 51.7496 27.15C52.7996 27.15 53.7746 27.45 54.5246 27.975C55.2746 28.5 55.7996 29.25 56.0996 30.225C56.2496 30.75 56.3246 31.35 56.3246 31.95C56.3246 32.475 56.2496 33.075 56.0996 33.525C55.8746 34.575 55.3496 35.325 54.5246 35.925C53.7746 36.525 52.7996 36.825 51.6746 36.825C50.6246 36.975 49.7246 36.675 48.9746 36.075ZM52.6496 33.975C52.8746 33.75 53.0246 33.45 53.1746 33.075C53.2496 32.775 53.2496 32.4 53.2496 32.025C53.2496 31.65 53.1746 31.275 53.0996 30.975C53.0246 30.6 52.7996 30.3 52.5746 30.075C52.3496 29.85 52.0496 29.775 51.6746 29.775C51.2996 29.775 50.9996 29.85 50.7746 30.075C50.5496 30.3 50.3996 30.6 50.2496 30.975C50.1746 31.275 50.0996 31.575 50.0996 32.025C50.0996 32.4 50.0996 32.775 50.1746 33.075C50.2496 33.45 50.4746 33.75 50.6996 33.975C50.9246 34.2 51.2246 34.35 51.5996 34.35C52.1246 34.35 52.4246 34.2 52.6496 33.975ZM70.4246 28.05C70.9496 28.65 71.2496 29.475 71.2496 30.525V36.45C71.2496 36.525 71.2496 36.6 71.1746 36.675C71.0996 36.75 71.0246 36.75 70.9496 36.75H68.5496C68.4746 36.75 68.3996 36.75 68.3246 36.675C68.2496 36.6 68.2496 36.525 68.2496 36.45V31.2C68.2496 30.75 68.1746 30.45 67.9496 30.15C67.7246 29.925 67.4246 29.775 67.1246 29.775C66.7496 29.775 66.4496 29.925 66.2246 30.15C65.9996 30.375 65.8496 30.75 65.8496 31.2V36.45C65.8496 36.525 65.8496 36.6 65.7746 36.675C65.6996 36.75 65.6246 36.75 65.5496 36.75H63.1496C63.0746 36.75 62.9996 36.75 62.9246 36.675C62.8496 36.6 62.8496 36.525 62.8496 36.45V31.2C62.8496 30.75 62.6996 30.45 62.4746 30.15C62.2496 29.925 61.9496 29.775 61.5746 29.775C61.2746 29.775 60.9746 29.85 60.7496 30.075C60.5246 30.3 60.3746 30.525 60.3746 30.9V36.45C60.3746 36.525 60.3746 36.6 60.2996 36.675C60.2246 36.75 60.1496 36.75 60.0746 36.75H57.6746C57.5996 36.75 57.5246 36.75 57.4496 36.675C57.3746 36.6 57.3746 36.525 57.3746 36.45V27.675C57.3746 27.6 57.3746 27.525 57.4496 27.45C57.5246 27.375 57.5996 27.375 57.6746 27.375H59.9996C60.0746 27.375 60.1496 27.375 60.2246 27.45C60.2996 27.525 60.2996 27.6 60.2996 27.675V28.35C60.2996 28.425 60.2996 28.425 60.3746 28.425C60.3746 28.425 60.4496 28.425 60.4496 28.35C60.9746 27.6 61.7246 27.225 62.7746 27.225C63.3746 27.225 63.8996 27.375 64.3496 27.6C64.7996 27.825 65.1746 28.275 65.3996 28.725C65.3996 28.8 65.4746 28.8 65.4746 28.8C65.4746 28.8 65.5496 28.8 65.5496 28.725C66.0746 27.75 66.8996 27.225 68.0996 27.225C69.1496 27.15 69.8996 27.45 70.4246 28.05ZM78.1496 34.2C78.4496 34.05 78.7496 33.9 78.9746 33.75C79.0496 33.675 79.1246 33.6 79.1996 33.6C79.2746 33.6 79.3496 33.675 79.4246 33.75L80.5496 35.1C80.6246 35.175 80.6246 35.25 80.6246 35.325C80.6246 35.4 80.6246 35.475 80.5496 35.55C80.0996 36 79.5746 36.3 78.9746 36.6C78.2996 36.825 77.6246 36.975 76.9496 36.975C76.1246 36.975 75.3746 36.825 74.6996 36.525C74.0246 36.225 73.4996 35.775 73.1246 35.25C72.4496 34.425 72.0746 33.3 72.0746 32.025C72.0746 31.425 72.1496 30.9 72.2996 30.375C72.5996 29.4 73.1246 28.65 73.8746 28.05C74.6246 27.45 75.5996 27.15 76.6496 27.15C77.8496 27.15 78.8996 27.525 79.6496 28.275C80.3996 29.025 80.9246 30.075 81.1496 31.425C81.2246 31.8 81.2246 32.175 81.2246 32.55C81.2246 32.775 81.1496 32.85 80.9246 32.85H75.3746H75.2996C75.2996 32.85 75.2246 32.925 75.2996 32.925L75.3746 33.3C75.5246 33.6 75.7496 33.825 76.0496 33.975C76.3496 34.125 76.7246 34.2 77.1746 34.2C77.4746 34.35 77.8496 34.275 78.1496 34.2ZM75.3746 30.675C75.2996 30.75 75.2996 30.825 75.2996 30.975C75.2996 31.05 75.3746 31.05 75.4496 31.05H77.9996C78.0746 31.05 78.0746 31.05 78.0746 30.975V30.9L77.9996 30.675C77.9246 30.375 77.7746 30.15 77.5496 30C77.3246 29.85 77.0246 29.775 76.7246 29.775C75.9746 29.775 75.5996 30.075 75.3746 30.675Z" fill="#D44067"/>
<path d="M45.6746 11.0992C45.5996 11.1742 45.5246 11.1742 45.4496 11.1742H39.7496C39.6746 11.1742 39.5996 11.2492 39.5996 11.3242V13.4992C39.5996 13.5742 39.6746 13.6492 39.7496 13.6492H43.3496C43.4246 13.6492 43.4996 13.6492 43.5746 13.7242C43.6496 13.7992 43.6496 13.8742 43.6496 13.9492V15.8242C43.6496 15.8992 43.6496 15.9742 43.5746 16.0492C43.4996 16.1242 43.4246 16.1242 43.3496 16.1242H39.7496C39.6746 16.1242 39.5996 16.1992 39.5996 16.2742V20.9242C39.5996 20.9992 39.5996 21.0742 39.5246 21.1492C39.4496 21.2242 39.3746 21.2242 39.2996 21.2242H36.8996C36.8246 21.2242 36.7496 21.2242 36.6746 21.1492C36.5996 21.0742 36.5996 20.9992 36.5996 20.9242V8.99922C36.5996 8.92422 36.5996 8.84922 36.6746 8.77422C36.7496 8.69922 36.8246 8.69922 36.8996 8.69922H45.4496C45.5246 8.69922 45.5996 8.69922 45.6746 8.77422C45.7496 8.84922 45.7496 8.92422 45.7496 8.99922V10.8742C45.8246 10.9492 45.7496 11.0242 45.6746 11.0992ZM46.7246 10.8742C46.4246 10.5742 46.1996 10.1242 46.1996 9.59922C46.1996 9.07422 46.3496 8.69922 46.7246 8.39922C47.0246 8.09922 47.4746 7.94922 48.0746 7.94922C48.5996 7.94922 49.0496 8.09922 49.4246 8.39922C49.7246 8.69922 49.9496 9.14922 49.9496 9.59922C49.9496 10.1242 49.7996 10.4992 49.4246 10.8742C49.1246 11.1742 48.6746 11.3242 48.0746 11.3242C47.5496 11.3242 47.0996 11.1742 46.7246 10.8742ZM46.5746 21.1492C46.5746 21.0742 46.4996 20.9992 46.4996 20.9242V12.2992C46.4996 12.2242 46.4996 12.1492 46.5746 12.0742C46.6496 11.9992 46.7246 11.9992 46.7996 11.9992H49.1996C49.2746 11.9992 49.3496 11.9992 49.4246 12.0742C49.4996 12.1492 49.4996 12.2242 49.4996 12.2992V20.9992C49.4996 21.0742 49.4996 21.1492 49.4246 21.2242C49.3496 21.2992 49.2746 21.2992 49.1996 21.2992H46.7996C46.7246 21.2992 46.6496 21.2242 46.5746 21.1492ZM56.9996 11.9992C57.1496 12.0742 57.2246 12.2242 57.1496 12.3742L56.7746 14.6992C56.7746 14.8492 56.6996 14.9242 56.5496 14.9242C56.4746 14.9242 56.4746 14.9242 56.3996 14.9242C56.2496 14.8492 56.0246 14.8492 55.8746 14.8492C55.6496 14.8492 55.4996 14.8492 55.4246 14.8492C55.0496 14.9242 54.7496 15.0742 54.4496 15.2992C54.1496 15.5242 54.0746 15.8242 54.0746 16.2742V20.9242C54.0746 20.9992 54.0746 21.0742 53.9996 21.1492C53.9246 21.2242 53.8496 21.2242 53.7746 21.2242H51.3746C51.2996 21.2242 51.2246 21.2242 51.1496 21.1492C51.0746 21.0742 51.0746 20.9992 51.0746 20.9242V12.2992C51.0746 12.2242 51.0746 12.1492 51.1496 12.0742C51.2246 11.9992 51.2996 11.9992 51.3746 11.9992H53.7746C53.8496 11.9992 53.9246 11.9992 53.9996 12.0742C54.0746 12.1492 54.0746 12.2242 54.0746 12.2992V12.6742C53.9996 12.7492 53.9996 12.7492 53.9996 12.7492C53.9996 12.7492 54.0746 12.7492 54.0746 12.6742C54.5996 12.0742 55.1996 11.7742 55.9496 11.7742C56.3996 11.8492 56.6996 11.8492 56.9996 11.9992ZM59.3246 21.0742C58.6496 20.8492 58.1996 20.4742 57.8246 20.0992C57.4496 19.7242 57.2996 19.1992 57.2996 18.5992V18.5242C57.2996 18.4492 57.2996 18.3742 57.3746 18.2992C57.4496 18.2242 57.5246 18.2242 57.5996 18.2242H59.9246C60.1496 18.2242 60.2246 18.2242 60.2246 18.2992V18.3742C60.2246 18.5992 60.3746 18.8242 60.5996 18.9742C60.8246 19.1242 61.1996 19.1992 61.5746 19.1992C61.9496 19.1992 62.1746 19.1242 62.3996 19.0492C62.6246 18.8992 62.6996 18.7492 62.6996 18.5992C62.6996 18.3742 62.6246 18.2992 62.3996 18.1492C62.1746 18.0742 61.7996 17.9992 61.3496 17.9242C60.5996 17.7742 59.9246 17.6242 59.4746 17.3992C58.8746 17.1742 58.3496 16.7992 57.9746 16.4242C57.5996 16.0492 57.3746 15.5242 57.3746 14.8492C57.3746 13.9492 57.7496 13.1992 58.4996 12.5992C59.2496 12.0742 60.2246 11.7742 61.4996 11.7742C62.3246 11.7742 63.0746 11.9242 63.6746 12.1492C64.2746 12.3742 64.7996 12.7492 65.1746 13.2742C65.5496 13.7242 65.6996 14.2492 65.6996 14.9242C65.6996 14.9992 65.6996 14.9992 65.6246 15.0742C65.5496 15.1492 65.4746 15.1492 65.3996 15.1492H63.1496C62.9246 15.1492 62.8496 15.1492 62.8496 15.0742V14.9992C62.8496 14.7742 62.7746 14.5492 62.5496 14.4742C62.3246 14.3242 62.0246 14.2492 61.6496 14.2492C61.2746 14.2492 61.0496 14.3242 60.8246 14.3992C60.5996 14.5492 60.5246 14.6992 60.5246 14.8492C60.5246 14.9992 60.6746 15.2242 60.8996 15.2992C61.1246 15.3742 61.4996 15.5242 62.0996 15.5992C62.8496 15.7492 63.3746 15.8242 63.5996 15.9742C64.3496 16.1992 64.9496 16.5742 65.3996 16.9492C65.8496 17.3242 66.0746 17.9242 66.0746 18.5992C66.0746 19.4992 65.6996 20.2492 64.9496 20.7742C64.1996 21.2992 63.1496 21.5242 61.8746 21.5242C60.7496 21.3742 59.9996 21.2992 59.3246 21.0742ZM72.4496 14.2492C72.3746 14.3242 72.2996 14.3242 72.2246 14.3242H70.6496C70.5746 14.3242 70.4996 14.3992 70.4996 14.4742V17.6242C70.4996 18.2992 70.7996 18.6742 71.3246 18.6742H71.9246C71.9996 18.6742 72.0746 18.6742 72.1496 18.7492C72.2246 18.8242 72.2246 18.8992 72.2246 18.9742V20.8492C72.2246 21.0742 72.1496 21.1492 71.9246 21.1492C71.3246 21.1492 70.9496 21.1492 70.7246 21.1492C69.6746 21.1492 68.8496 20.9992 68.3246 20.6242C67.7996 20.3242 67.4996 19.6492 67.4996 18.7492V14.3992C67.4996 14.3242 67.4246 14.2492 67.3496 14.2492H66.4496C66.3746 14.2492 66.2996 14.2492 66.2246 14.1742C66.1496 14.0992 66.1496 14.0242 66.1496 13.9492V12.2242C66.1496 12.1492 66.1496 12.0742 66.2246 11.9992C66.2996 11.9242 66.3746 11.9242 66.4496 11.9242H67.3496C67.4246 11.9242 67.4996 11.8492 67.4996 11.7742V9.74922C67.4996 9.67422 67.4996 9.59922 67.5746 9.52422C67.6496 9.44922 67.7246 9.44922 67.7996 9.44922H70.1246C70.1996 9.44922 70.2746 9.44922 70.3496 9.52422C70.4996 9.59922 70.4996 9.67422 70.4996 9.74922V11.7742C70.4996 11.8492 70.5746 11.9242 70.6496 11.9242H72.2246C72.2996 11.9242 72.3746 11.9242 72.4496 11.9992C72.5246 12.0742 72.5246 12.1492 72.5246 12.2242V13.9492C72.5246 14.0992 72.5246 14.1742 72.4496 14.2492Z" fill="#25326A"/>
</svg>
