<svg width="32" height="32" viewBox="0 0 32 32" fill="none" xmlns="http://www.w3.org/2000/svg">
<path fill-rule="evenodd" clip-rule="evenodd" d="M26.5525 6.00343H28.6786V7.34126C28.6786 7.42339 28.7268 7.49341 28.8035 7.52275C28.8802 7.55209 28.9629 7.53214 29.0177 7.47093L31.429 4.78052C31.4955 4.70635 31.4955 4.59527 31.429 4.52117L29.0177 1.83075C28.9629 1.76961 28.8803 1.74959 28.8035 1.77893C28.7268 1.80827 28.6786 1.87829 28.6786 1.96043V3.29825H23.0459C24.3497 4.0193 25.5318 4.93351 26.5525 6.00343Z" fill="#FF8389"/>
<path fill-rule="evenodd" clip-rule="evenodd" d="M8.95342 28.8394H3.32075V30.1772C3.32075 30.2593 3.27255 30.3293 3.19586 30.3587C3.11917 30.388 3.03652 30.3681 2.98172 30.3069L0.570351 27.6165C0.503894 27.5423 0.503894 27.4312 0.570351 27.3571L2.98172 24.6667C3.03652 24.6055 3.11911 24.5855 3.19586 24.6149C3.27255 24.6442 3.32075 24.7142 3.32075 24.7964V26.1342H5.44692C6.46755 27.204 7.6496 28.1183 8.95342 28.8394Z" fill="#A0D468"/>
<path fill-rule="evenodd" clip-rule="evenodd" d="M15.9996 6.00343H3.32068V7.34126C3.32068 7.42339 3.27249 7.49341 3.1958 7.52275C3.11911 7.55209 3.03646 7.53214 2.98166 7.47093L0.570351 4.78052C0.503894 4.70635 0.503894 4.59527 0.570351 4.52117L2.98172 1.83075C3.03652 1.76961 3.11911 1.74959 3.19586 1.77893C3.27255 1.80827 3.32075 1.87829 3.32075 1.96043V3.29825H15.9996C23.0516 3.29825 28.7684 9.01506 28.7684 16.067C28.7684 19.2124 27.6304 22.0916 25.7445 24.317H21.7631C24.3628 22.4975 26.0632 19.481 26.0632 16.067C26.0632 10.5091 21.5575 6.00343 15.9996 6.00343Z" fill="#FFDB4E"/>
<path fill-rule="evenodd" clip-rule="evenodd" d="M6.25476 7.82031C4.36896 10.0457 3.23096 12.9249 3.23096 16.0703C3.23096 23.1222 8.94777 28.8391 15.9997 28.8391H28.6787V30.1769C28.6787 30.259 28.7269 30.329 28.8036 30.3584C28.8803 30.3877 28.9629 30.3678 29.0177 30.3066L31.4291 27.6161C31.4955 27.542 31.4955 27.4309 31.4291 27.3568L29.0177 24.6664C28.9629 24.6052 28.8803 24.5852 28.8036 24.6146C28.7269 24.6439 28.6787 24.7139 28.6787 24.796V26.1339H15.9997C10.4418 26.1339 5.93614 21.6283 5.93614 16.0703C5.93614 12.6563 7.6365 9.63992 10.2362 7.82031H6.25476Z" fill="#8BC6F8"/>
<path fill-rule="evenodd" clip-rule="evenodd" d="M22.7412 17.2625C21.3203 17.2625 20.6073 18.984 21.612 19.9886C21.7971 20.1737 21.7971 20.4739 21.612 20.659L20.5916 21.6794C20.4065 21.8645 20.1064 21.8645 19.9213 21.6794C18.9166 20.6747 17.1952 21.3877 17.1952 22.8086C17.1952 23.0705 16.9829 23.2826 16.7212 23.2826H15.2782C15.0165 23.2826 14.8043 23.0704 14.8043 22.8086C14.8043 21.3859 13.0841 20.6734 12.0781 21.6794C11.893 21.8645 11.5929 21.8645 11.4077 21.6794L10.3873 20.659C10.2023 20.4739 10.2023 20.1737 10.3873 19.9886C11.392 18.984 10.6791 17.2625 9.25812 17.2625C8.99625 17.2625 8.78418 17.0502 8.78418 16.7885V15.3455C8.78418 15.0838 8.99631 14.8716 9.25812 14.8716C10.6791 14.8716 11.392 13.1501 10.3873 12.1455C10.2023 11.9604 10.2023 11.6602 10.3873 11.4751L11.4077 10.4547C11.5928 10.2696 11.893 10.2696 12.0781 10.4547C13.0828 11.4594 14.8043 10.7464 14.8043 9.32551C14.8043 9.06363 15.0165 8.85156 15.2782 8.85156H16.7212C16.9829 8.85156 17.1952 9.06369 17.1952 9.32551C17.1952 10.7464 18.9166 11.4594 19.9213 10.4547C20.1063 10.2696 20.4065 10.2696 20.5916 10.4547L21.612 11.4751C21.7971 11.6602 21.7971 11.9603 21.612 12.1455C20.6073 13.1502 21.3203 14.8716 22.7412 14.8716C23.0031 14.8716 23.2152 15.0838 23.2152 15.3455V16.7885C23.2152 17.0502 23.0031 17.2625 22.7412 17.2625ZM15.9997 12.5409C14.0523 12.5409 12.4736 14.1196 12.4736 16.067C12.4736 18.0144 14.0523 19.5931 15.9997 19.5931C17.9471 19.5931 19.5258 18.0144 19.5258 16.067C19.5258 14.1196 17.9471 12.5409 15.9997 12.5409Z" fill="#E7F3FF"/>
<path fill-rule="evenodd" clip-rule="evenodd" d="M16 12.9946C14.3056 12.9946 12.9281 14.373 12.9281 16.0674C12.9281 17.7618 14.3056 19.1403 16 19.1403C17.6944 19.1403 19.0718 17.7619 19.0718 16.0674C19.0718 14.373 17.6944 12.9946 16 12.9946ZM16 20.0471C13.8058 20.0471 12.02 18.262 12.02 16.0674C12.02 13.8728 13.8058 12.0877 16 12.0877C18.1942 12.0877 19.98 13.8729 19.98 16.0674C19.98 18.262 18.1942 20.0471 16 20.0471ZM13.1963 20.7538C12.666 20.7538 12.1541 20.9618 11.7578 21.3595C11.7578 21.3608 11.7518 21.3653 11.7426 21.3653C11.7335 21.3653 11.7305 21.3613 11.7305 21.3595L10.7096 20.3386C10.7004 20.3309 10.7004 20.3179 10.7096 20.3096C11.3068 19.7129 11.4745 18.8566 11.1514 18.0755C10.8284 17.2949 10.1031 16.8098 9.25897 16.8098C9.24679 16.8098 9.23766 16.8001 9.23766 16.7891V15.3459C9.23766 15.3349 9.24679 15.3252 9.25897 15.3252C10.1031 15.3252 10.8284 14.84 11.1514 14.0595C11.4745 13.2783 11.3069 12.4221 10.7096 11.8255C10.7065 11.8235 10.7035 11.819 10.7035 11.8106C10.7035 11.8022 10.7065 11.7982 10.7096 11.7963L11.7305 10.7755C11.7305 10.7735 11.7335 10.7697 11.7426 10.7697C11.7518 10.7697 11.7578 10.7743 11.7578 10.7755C12.3551 11.3727 13.2115 11.5424 13.9916 11.2192C14.7717 10.8953 15.2594 10.1699 15.2594 9.32586C15.2594 9.31491 15.2685 9.30513 15.2776 9.30513H16.7221C16.7313 9.30513 16.7434 9.31491 16.7434 9.32586C16.7434 10.1699 17.228 10.8953 18.0081 11.2192C18.7883 11.5424 19.6446 11.3727 20.242 10.7755C20.2511 10.7677 20.2633 10.7677 20.2724 10.7755L21.2933 11.7963C21.2933 11.7982 21.2994 11.8021 21.2994 11.8106C21.2994 11.819 21.2933 11.8234 21.2933 11.8255C20.696 12.4221 20.5253 13.2783 20.8484 14.0595C21.1714 14.84 21.8967 15.3252 22.7408 15.3252C22.753 15.3252 22.7622 15.3349 22.7622 15.3459V16.7891C22.7622 16.8 22.753 16.8098 22.7408 16.8098C21.8967 16.8098 21.1714 17.2949 20.8484 18.0755C20.5253 18.8566 20.696 19.7129 21.2933 20.3096C21.2994 20.3179 21.2994 20.3309 21.2933 20.3386L20.2724 21.3595C20.2633 21.3672 20.2511 21.3672 20.242 21.3595C19.6446 20.7622 18.7883 20.5925 18.0081 20.9158C17.228 21.2396 16.7434 21.965 16.7434 22.8091C16.7434 22.8202 16.7313 22.8298 16.7221 22.8298H15.2778C15.2686 22.8298 15.2595 22.8202 15.2595 22.8091C15.2595 21.9637 14.7749 21.2383 13.9917 20.9151C13.7296 20.8062 13.4614 20.7538 13.1963 20.7538ZM16.7223 23.7366H15.2778C14.7688 23.7366 14.3513 23.32 14.3513 22.809C14.3513 22.2454 13.9856 21.8938 13.6443 21.7526C13.303 21.6114 12.7971 21.6023 12.4009 22.0007C12.2242 22.1755 11.9925 22.272 11.7426 22.272C11.4958 22.272 11.2641 22.1755 11.0874 22.0007L10.0666 20.9798C9.70694 20.6185 9.70694 20.0302 10.0666 19.6682C10.4658 19.2711 10.4566 18.764 10.3134 18.4226C10.1732 18.0813 9.81971 17.7166 9.25897 17.7166C8.747 17.7166 8.33252 17.3001 8.33252 16.7891V15.3459C8.33252 14.8349 8.747 14.4184 9.25897 14.4184C9.81971 14.4184 10.1732 14.0536 10.3134 13.7124C10.4566 13.3709 10.4658 12.8638 10.0666 12.4667C9.89284 12.2912 9.79536 12.0588 9.79536 11.8107C9.79536 11.5632 9.89284 11.33 10.0666 11.1551L11.0874 10.1344C11.2642 9.95947 11.4958 9.86296 11.7426 9.86296C11.9925 9.86296 12.2242 9.95947 12.4009 10.1344C12.7971 10.5321 13.3029 10.5223 13.6443 10.3811C13.9856 10.2399 14.3513 9.88822 14.3513 9.32599C14.3513 8.81499 14.7688 8.39844 15.2778 8.39844H16.7223C17.2342 8.39844 17.6487 8.81499 17.6487 9.32599C17.6487 9.88822 18.0144 10.24 18.3557 10.3811C18.6971 10.5229 19.2029 10.5321 19.6021 10.1344C19.9618 9.77292 20.5499 9.77292 20.9125 10.1344L21.9334 11.1551C22.1071 11.33 22.2046 11.5632 22.2046 11.8107C22.2046 12.0588 22.1071 12.2912 21.9334 12.4667C21.5372 12.8638 21.5433 13.3709 21.6865 13.7124C21.8267 14.0536 22.1802 14.4184 22.741 14.4184C23.2529 14.4184 23.6705 14.8349 23.6705 15.3459V16.7891C23.6705 17.3001 23.2529 17.7166 22.741 17.7166C22.1802 17.7166 21.8267 18.0813 21.6865 18.4226C21.5433 18.764 21.5372 19.2711 21.9334 19.6682C22.296 20.0303 22.296 20.6185 21.9334 20.9798L20.9125 22.0007C20.5498 22.3621 19.9617 22.3621 19.6021 22.0007C19.2029 21.603 18.6971 21.612 18.3557 21.7539C18.0144 21.8951 17.6487 22.2468 17.6487 22.809C17.6486 23.32 17.2342 23.7366 16.7223 23.7366Z" fill="black"/>
<path fill-rule="evenodd" clip-rule="evenodd" d="M26.7454 5.55083H28.6806C28.9305 5.55083 29.1316 5.75428 29.1316 6.00424V6.66492L30.9356 4.65184L29.1316 2.63869V3.29938C29.1316 3.54992 28.9305 3.75279 28.6806 3.75279H24.6275C25.3862 4.28516 26.0932 4.88632 26.7454 5.55083ZM28.6805 8.30362C28.6256 8.30362 28.5708 8.29397 28.5159 8.27389C28.3423 8.20652 28.2264 8.03818 28.2264 7.85034V6.45765H26.5534C26.4284 6.45765 26.3096 6.40719 26.2242 6.31709C25.2308 5.27489 24.088 4.3934 22.8263 3.69579C22.6465 3.59604 22.5551 3.38617 22.6069 3.18609C22.6587 2.98588 22.8385 2.84597 23.0457 2.84597H28.2264V1.45335C28.2264 1.26531 28.3422 1.09709 28.5159 1.02973C28.6926 0.963013 28.8907 1.01082 29.0156 1.15073L31.8833 4.34929C32.0388 4.52152 32.0388 4.78197 31.8833 4.95427L29.0156 8.15276C28.9304 8.2505 28.8055 8.30362 28.6805 8.30362ZM23.0579 23.8648C25.243 21.8827 26.5168 19.0534 26.5168 16.068C26.5168 10.2688 21.7993 5.55076 16 5.55076H3.32255C3.06961 5.55076 2.86849 5.75421 2.86849 6.00417V6.66486L1.06437 4.65178L2.86849 2.63863V3.29931C2.86849 3.54986 3.06961 3.75273 3.32255 3.75273H16C22.7898 3.75273 28.3149 9.27722 28.3149 16.068C28.3149 18.9102 27.3305 21.6702 25.5325 23.8648H23.0579ZM25.7458 24.7717H21.7628C21.5647 24.7717 21.391 24.6433 21.3301 24.4542C21.2721 24.2658 21.3422 24.0598 21.5038 23.9464C24.0759 22.1471 25.6118 19.2019 25.6118 16.0681C25.6118 10.7691 21.2995 6.45772 16 6.45772H3.77357V7.8504C3.77357 8.03824 3.65775 8.20659 3.48403 8.27395C3.30727 8.34073 3.10919 8.29274 2.98424 8.15289L0.116543 4.9544C-0.0388477 4.78216 -0.0388477 4.52171 0.116543 4.34942L2.98424 1.15086C3.10919 1.01095 3.30727 0.963078 3.48403 1.02986C3.65775 1.09722 3.77357 1.26544 3.77357 1.45348V2.8461H16C23.2926 2.8461 29.223 8.77737 29.223 16.0682C29.223 19.194 28.1106 22.2281 26.0902 24.6111C26.0049 24.7126 25.8769 24.7717 25.7458 24.7717ZM1.06437 27.4842L2.86849 29.4974V28.8368C2.86849 28.586 3.06961 28.3833 3.32255 28.3833H7.37268C6.61387 27.8516 5.90687 27.2498 5.25467 26.5852H3.32255C3.06961 26.5852 2.86849 26.3818 2.86849 26.1318V25.4711L1.06437 27.4842ZM3.32255 31.1362C3.37742 31.1362 3.42923 31.1264 3.4841 31.1065C3.65782 31.0391 3.77363 30.8706 3.77363 30.6828V29.2901H8.95431C9.16152 29.2901 9.34133 29.1503 9.39315 28.9501C9.44497 28.75 9.35351 28.5402 9.17377 28.4396C7.91212 27.7433 6.76932 26.8611 5.77583 25.8189C5.69053 25.7289 5.57167 25.6783 5.44672 25.6783H3.77363V24.2859C3.77363 24.098 3.65782 23.9296 3.4841 23.8622C3.30733 23.7955 3.10925 23.8433 2.98431 23.9834L0.116608 27.1818C-0.0387829 27.3542 -0.0387829 27.6146 0.116608 27.7868L2.98431 30.9853C3.07266 31.0832 3.19456 31.1362 3.32255 31.1362ZM6.46755 8.27123C4.67255 10.4658 3.68522 13.2257 3.68522 16.068C3.68515 22.8589 9.21023 28.3834 16 28.3834H28.6805C28.9304 28.3834 29.1315 28.5861 29.1315 28.8368V29.4975L30.9356 27.4843L29.1315 25.4711V26.1318C29.1315 26.3818 28.9304 26.5853 28.6805 26.5853H16C10.2007 26.5853 5.48319 21.8672 5.48319 16.0681C5.48319 13.0828 6.75702 10.2534 8.94207 8.27136H6.46755V8.27123ZM28.6805 31.1362C28.8055 31.1362 28.9304 31.0831 29.0157 30.9853L31.8834 27.7868C32.0389 27.6146 32.0389 27.3542 31.8834 27.1818L29.0158 23.9834C28.8908 23.8434 28.6927 23.7955 28.516 23.8622C28.3423 23.9295 28.2265 24.098 28.2265 24.2859V25.6784H16C10.7005 25.6784 6.39131 21.3672 6.39131 16.068C6.39131 12.935 7.92416 9.98902 10.4962 8.18968C10.6578 8.0764 10.7279 7.87029 10.67 7.68186C10.609 7.49272 10.4353 7.36447 10.2372 7.36447H6.25418C6.12315 7.36447 5.99516 7.42342 5.90985 7.52505C3.88938 9.9074 2.77703 12.9421 2.77703 16.068C2.77703 23.3588 8.71044 29.29 16 29.29H28.2264V30.6827C28.2264 30.8706 28.3423 31.039 28.5159 31.1064C28.5708 31.1265 28.6256 31.1362 28.6805 31.1362Z" fill="black"/>
</svg>
