<svg width="90" height="79" viewBox="0 0 90 79" fill="none" xmlns="http://www.w3.org/2000/svg">
<g id="Group 667">
<g id="Group 666">
<path id="Vector" d="M82.0078 70.7324C83.7821 59.5203 87.3936 36.701 89.4005 24.0311C89.7757 21.6497 89.0794 19.2235 87.49 17.3904C85.9003 15.5569 83.5763 14.5 81.1276 14.5H81.0255H80.9229H80.8199H80.7164H80.6125H80.5081H80.4032H80.2979H80.1922H80.086H79.9794H79.8724H79.7648H79.6569H79.5485H79.4397H79.3305H79.2208H79.1108H79.0002H78.8893H78.7779H78.6662H78.554H78.4413H78.3283H78.2149H78.101H77.9867H77.8721H77.757H77.6415H77.5256H77.4093H77.2927H77.1756H77.0581H76.9402H76.822H76.7033H76.5843H76.4649H76.345H76.2248H76.1043H75.9833H75.862H75.7403H75.6182H75.4958H75.3729H75.2498H75.1262H75.0023H74.878H74.7534H74.6284H74.503H74.3773H74.2512H74.1248H73.998H73.8709H73.7434H73.6156H73.4875H73.359H73.2302H73.101H72.9715H72.8416H72.7115H72.581H72.4501H72.319H72.1875H72.0557H71.9235H71.7911H71.6583H71.5253H71.3919H71.2581H71.1241H70.9898H70.8552H70.7202H70.585H70.4494H70.3136H70.1774H70.041H69.9043H69.7672H69.6299H69.4923H69.3544H69.2162H69.0778H68.939H68.8H68.6607H68.5211H68.3812H68.2411H68.1007H67.96H67.8191H67.6779H67.5364H67.3947H67.2527H67.1105H66.968H66.8252H66.6822H66.5389H66.3954H66.2516H66.1076H65.9634H65.8189H65.6742H65.5292H65.384H65.2385H65.0928H64.9469H64.8008H64.6544H64.5078H64.361H64.214H64.0667H63.9192H63.7715H63.6236H63.4755H63.3271H63.1786H63.0298H62.8808H62.7317H62.5823H62.4327H62.2829H62.133H61.9828H61.8324H61.6819H61.5311H61.3802H61.2291H61.0778H60.9263H60.7746H60.6228H60.4707H60.3185H60.1662H60.0136H59.8609H59.708H59.5549H59.4017H59.2483H59.0948H58.9411H58.7872H58.6332H58.479H58.3247H58.1702H58.0156H57.8608H57.7059H57.5508H57.3956H57.2403H57.0848H56.9292H56.7734H56.6175H56.4615H56.3054H56.1491H55.9927H55.8362H55.6795H55.5227H55.3659H55.2089H55.0517H54.8945H54.7372H54.5797H54.4221H54.2645H54.1067H53.9488H53.7909H53.6328H53.4746H53.3164H53.158H52.9995H52.841H52.6824H52.5237H52.3649H52.206H52.047H51.888H51.7289H51.5697H51.4104H51.2511H51.0917H50.9322H50.7727H50.613H50.4534H50.2936H50.1339H49.974H49.8141H49.6541H49.4941H49.3341H49.174H49.0138H48.8536H48.6934H48.5331H48.3728H48.2124H48.052H47.8916H47.7311H47.5706H47.4101H47.2495H47.089H46.9284H46.7677H46.6071H46.4464H46.2858H46.1251H45.9644H45.8037H45.6429H45.4822H45.3215H45.1607H45H44.8393H44.6785H44.5178H44.3571H44.1963H44.0356H43.8749H43.7142H43.5536H43.3929H43.2323H43.0716H42.911H42.7505H42.5899H42.4294H42.2689H42.1084H41.948H41.7876H41.6273H41.4669H41.3066H41.1464H40.9862H40.826H40.6659H40.5059H40.3459H40.1859H40.026H39.8662H39.7064H39.5466H39.387H39.2274H39.0678H38.9083H38.7489H38.5896H38.4303H38.2711H38.112H37.953H37.794H37.6351H37.4763H37.3176H37.159H37.0005H36.842H36.6836H36.5254H36.3672H36.2091H36.0512H35.8933H35.7355H35.5779H35.4203H35.2628H35.1055H34.9483H34.7912H34.6341H34.4773H34.3205H34.1638H34.0073H33.8509H33.6946H33.5385H33.3825H33.2266H33.0708H32.9152H32.7597H32.6044H32.4492H32.2941H32.1392H31.9844H31.8298H31.6753H31.521H31.3668H31.2128H31.0589H30.9052H30.7517H30.5983H30.4451H30.292H30.1391H29.9864H29.8338H29.6815H29.5293H29.3772H29.2254H29.0737H28.9222H28.7709H28.6198H28.4689H28.3181H28.1676H28.0172H27.867H27.7171H27.5673H27.4177H27.2683H27.1192H26.9702H26.8214H26.6729H26.5245H26.3764H26.2285H26.0808H25.9333H25.7861H25.639H25.4922H25.3456H25.1992H25.0531H24.9072H24.7615H24.616H24.4708H24.3259H24.1811H24.0366H23.8924H23.7484H23.6046H23.4611H23.3178H23.1748H23.032H22.8895H22.7473H22.6053H22.4636H22.3221H22.1809H22.04H21.8993H21.7589H21.6188H21.4789H21.3393H21.2H21.061H20.9222H20.7838H20.6456H20.5077H20.3701H20.2328H20.0957H19.959H19.8226H19.6864H19.5506H19.415H19.2798H19.1448H19.0102H18.8759H18.7419H18.6082H18.4748H18.3417H18.2089H18.0765H17.9443H17.8125H17.681H17.5499H17.419H17.2885H17.1584H17.0285H16.899H16.7698H16.641H16.5125H16.3844H16.2566H16.1291H16.002H15.8752H15.7488H15.6227H15.497H15.3716H15.2466H15.122H14.9977H14.8738H14.7502H14.6271H14.5042H14.3818H14.2597H14.138H14.0167H13.8957H13.7752H13.655H13.5352H13.4157H13.2967H13.178H13.0598H12.9419H12.8244H12.7074H12.5907H12.4744H12.3585H12.243H12.1279H12.0133H11.899H11.7851H11.6717H11.5587H11.446H11.3338H11.2221H11.1107H10.9998H10.8892H10.7792H10.6695H10.5603H10.4515H10.3431H10.2352H10.1277H10.0206H9.91397H9.8078H9.70206H9.59677H9.49193H9.38754H9.28359H9.1801H9.07707H8.97449H8.87236C6.4237 14.5 4.09971 15.5569 2.50996 17.3904C0.920569 19.2235 0.224344 21.6497 0.599516 24.0311L3.21869 40.5746L4.22475 46.9289L4.52016 48.7948L4.59951 49.2959L4.62003 49.4255L4.62525 49.4584L4.62656 49.4667L4.62686 49.4686C4.66732 49.7213 4.91322 49.9059 5.18312 49.8649C5.45385 49.8222 5.62713 49.5756 5.58713 49.3249L5.58703 49.3243L1.55949 23.8855L1.55942 23.8851C1.22686 21.7734 1.84564 19.6231 3.25046 18.0004L3.25071 18.0001C4.65759 16.3776 6.7121 15.4459 8.87236 15.4459H81.1276C83.2879 15.4459 85.3424 16.3776 86.7493 18.0001L86.7495 18.0004C88.1544 19.6231 88.7731 21.7734 88.4406 23.8851L88.4405 23.8856C86.4336 36.5553 82.8221 59.3748 81.0478 70.5871L81.0478 70.5874C80.4822 74.1505 77.3769 76.7688 73.7349 76.7688H73.6554H73.5754H73.495H73.4143H73.3332H73.2517H73.1699H73.0876H73.005H72.922H72.8387H72.755H72.6709H72.5864H72.5016H72.4164H72.3309H72.245H72.1587H72.0721H71.9852H71.8978H71.8102H71.7221H71.6338H71.5451H71.456H71.3666H71.2768H71.1867H71.0963H71.0055H70.9144H70.823H70.7312H70.6391H70.5466H70.4539H70.3608H70.2673H70.1736H70.0795H69.9851H69.8904H69.7954H69.7H69.6043H69.5084H69.4121H69.3155H69.2185H69.1213H69.0238H68.9259H68.8278H68.7294H68.6306H68.5316H68.4322H68.3326H68.2327H68.1324H68.0319H67.9311H67.83H67.7286H67.627H67.525H67.4228H67.3203H67.2175H67.1144H67.011H66.9074H66.8035H66.6993H66.5949H66.4902H66.3852H66.28H66.1744H66.0687H65.9626H65.8563H65.7498H65.643H65.5359H65.4286H65.321H65.2132H65.1051H64.9968H64.8882H64.7794H64.6703H64.561H64.4515H64.3417H64.2317H64.1214H64.0109H63.9002H63.7893H63.6781H63.5667H63.455H63.3432H63.2311H63.1188H63.0062H62.8935H62.7805H62.6673H62.5539H62.4403H62.3265H62.2124H62.0982H61.9837H61.8691H61.7542H61.6391H61.5238H61.4084H61.2927H61.1768H61.0608H60.9445H60.8281H60.7114H60.5946H60.4776H60.3604H60.243H60.1254H60.0077H59.8897H59.7716H59.6533H59.5349H59.4162H59.2974H59.1784H59.0593H58.9399H58.8204H58.7008H58.581H58.461H58.3408H58.2205H58.1001H57.9795H57.8587H57.7378H57.6167H57.4955H57.3741H57.2526H57.1309H57.0091H56.8871H56.765H56.6428H56.5204H56.3979H56.2752H56.1524H56.0295H55.9065H55.7833H55.66H55.5366H55.413H55.2893H55.1655H55.0416H54.9176H54.7934H54.6691H54.5448H54.4203H54.2957H54.1709H54.0461H53.9212H53.7961H53.671H53.5457H53.4204H53.2949H53.1694H53.0438H52.918H52.7922H52.6663H52.5403H52.4142H52.288H52.1617H52.0353H51.9089H51.7824H51.6558H51.5291H51.4023H51.2755H51.1486H51.0216H50.8946H50.7675H50.6403H50.513H50.3857H50.2583H50.1309H50.0034H49.8758H49.7482H49.6206H49.4928H49.365H49.2372H49.1093H48.9814H48.8534H48.7254H48.5974H48.4692H48.3411H48.2129H48.0847H47.9564H47.8281H47.6998H47.5715H47.4431H47.3147H47.1862H47.0578H46.9293H46.8007H46.6722H46.5437H46.4151H46.2865H46.1579H46.0293H45.9006H45.772H45.6433H45.5147H45.386H45.2573H45.1287H45H44.8713H44.7427H44.614H44.4853H44.3567H44.228H44.0994H43.9707H43.8421H43.7135H43.5849H43.4564H43.3278H43.1993H43.0707H42.9423H42.8138H42.6853H42.5569H42.4285H42.3002H42.1719H42.0436H41.9153H41.7871H41.6589H41.5308H41.4026H41.2746H41.1466H41.0186H40.8907H40.7628H40.635H40.5072H40.3795H40.2518H40.1242H39.9966H39.8691H39.7417H39.6143H39.487H39.3597H39.2325H39.1054H38.9784H38.8514H38.7245H38.5977H38.4709H38.3442H38.2176H38.0911H37.9647H37.8383H37.712H37.5859H37.4598H37.3337H37.2078H37.082H36.9563H36.8306H36.7051H36.5796H36.4543H36.329H36.2039H36.0788H35.9539H35.8291H35.7044H35.5797H35.4552H35.3309H35.2066H35.0824H34.9584H34.8345H34.7107H34.587H34.4634H34.34H34.2167H34.0935H33.9705H33.8476H33.7248H33.6021H33.4796H33.3572H33.235H33.1129H32.9909H32.8691H32.7475H32.6259H32.5046H32.3833H32.2622H32.1413H32.0205H31.8999H31.7795H31.6592H31.539H31.419H31.2992H31.1796H31.0601H30.9407H30.8216H30.7026H30.5838H30.4651H30.3467H30.2284H30.1103H29.9923H29.8746H29.757H29.6396H29.5224H29.4054H29.2886H29.1719H29.0555H28.9392H28.8232H28.7073H28.5916H28.4762H28.3609H28.2458H28.131H28.0163H27.9018H27.7876H27.6735H27.5597H27.4461H27.3327H27.2195H27.1065H26.9938H26.8813H26.7689H26.6568H26.545H26.4333H26.3219H26.2107H26.0998H25.9891H25.8786H25.7683H25.6583H25.5485H25.439H25.3297H25.2206H25.1118H25.0032H24.8949H24.7868H24.679H24.5714H24.4641H24.357H24.2502H24.1437H24.0374H23.9313H23.8256H23.72H23.6148H23.5098H23.4051H23.3007H23.1965H23.0926H22.989H22.8856H22.7825H22.6797H22.5772H22.475H22.373H22.2714H22.17H22.0689H21.9681H21.8676H21.7673H21.6674H21.5678H21.4684H21.3694H21.2706H21.1722H21.0741H20.9762H20.8787H20.7815H20.6845H20.5879H20.4916H20.3957H20.3H20.2046H20.1096H20.0149H19.9205H19.8264H19.7327H19.6392H19.5461H19.4534H19.3609H19.2688H19.177H19.0856H18.9945H18.9037H18.8133H18.7232H18.6334H18.544H18.455H18.3662H18.2779H18.1898H18.1022H18.0148H17.9279H17.8413H17.755H17.6691H17.5836H17.4984H17.4136H17.3291H17.245H17.1613H17.078H16.995H16.9124H16.8301H16.7483H16.6668H16.5857H16.505H16.4246H16.3446H16.2651C12.6231 76.7688 9.51785 74.1505 8.95222 70.5874L8.95218 70.5871C8.41202 67.1721 7.75802 63.04 7.23905 59.7616L6.59299 55.6808L6.40426 54.4887L6.35367 54.1693L6.3406 54.0867L6.33728 54.0657L6.33644 54.0604L6.33623 54.0591L6.33618 54.0588C6.33617 54.0587 6.33616 54.0587 6.83001 53.9805L6.33616 54.0587L6.33597 54.0575C6.29661 53.8049 6.05249 53.6209 5.78116 53.6631C5.51088 53.7051 5.33703 53.9517 5.37626 54.2028L5.37619 54.2024L5.37614 54.2021C5.37613 54.202 5.37612 54.202 4.88228 54.2802L5.37627 54.2029L5.3764 54.2037L5.37724 54.209L5.38056 54.23L5.39364 54.3125L5.44422 54.632L5.63296 55.8241L6.27902 59.9052C6.79798 63.1837 7.45197 67.3162 7.99213 70.7322M82.0078 70.7324C82.0078 70.7324 82.0079 70.7323 82.0079 70.7322L82.5017 70.8106L82.0078 70.7324ZM82.0078 70.7324C81.3708 74.7465 77.8661 77.7147 73.7349 77.7147H16.2651C12.1338 77.7147 8.62906 74.7463 7.99213 70.7322M7.99213 70.7322L7.49831 70.8106L7.99217 70.7325C7.99216 70.7324 7.99215 70.7323 7.99213 70.7322Z" fill="white" stroke="#B6B6B7"/>
<path id="Vector_2" fill-rule="evenodd" clip-rule="evenodd" d="M84.0156 11.5217V5.8377C84.0156 4.29071 83.3927 2.80599 82.2828 1.71045C81.1729 0.616854 79.6687 0 78.1015 0C71.0419 0 59.4127 0 53.1871 0C50.6499 0 48.3966 1.59759 47.5844 3.96964L47.0226 5.68398H11.0743C9.50509 5.68398 8.00092 6.29888 6.89103 7.39443C5.78311 8.48802 5.16016 9.97275 5.16016 11.5217H84.0156Z" fill="#B6B6B7"/>
</g>
</g>
</svg>
