<svg width="70" height="61" viewBox="0 0 70 61" fill="none" xmlns="http://www.w3.org/2000/svg">
<g id="Group">
<path id="Vector" d="M35 11.6191C35 14.8144 32.3896 17.4287 29.1667 17.4287H14.5833H5.83333C2.61158 17.4287 0 20.0429 0 23.2382V46.4763V55.1906C0 58.3858 2.61167 61.0001 5.83333 61.0001H64.1667C67.3896 61.0001 70 58.3858 70 55.1906V46.4763V17.4287C70 14.2334 67.3896 11.6191 64.1667 11.6191H35Z" fill="#FFD563"/>
<path id="Vector_2" d="M5.83333 0C2.61158 0 0 2.60092 0 5.80952V20.3333H29.1667V23.2381H70V8.71428C70 5.50569 67.3896 2.90476 64.1667 2.90476H34.1804C33.1712 1.17091 31.325 0 29.1667 0H5.83333Z" fill="#FCBC1A"/>
<path id="Vector_3" d="M35 8.71387C35 11.9091 32.3896 14.5234 29.1667 14.5234H14.5833H5.83333C2.61158 14.5234 0 17.1377 0 20.3329V43.571V52.2853C0 55.4805 2.61167 58.0948 5.83333 58.0948H64.1667C67.3896 58.0948 70 55.4805 70 52.2853V43.571V14.5234C70 11.3282 67.3896 8.71387 64.1667 8.71387H35Z" fill="#FFD563"/>
</g>
</svg>
