<svg xmlns="http://www.w3.org/2000/svg" width="25.472" height="32" viewBox="0 0 25.472 32">
  <g id="folder" transform="translate(-10.5 -5)">
    <path id="Path_2879" data-name="Path 2879" d="M10.5,41.559a2.37,2.37,0,0,0,2.369,2.371H33.6a2.37,2.37,0,0,0,2.369-2.371V22H10.5Z" transform="translate(0 -6.93)" fill="#f9f9fa"/>
    <path id="Path_2880" data-name="Path 2880" d="M33.6,5H17.016V9.543a2.2,2.2,0,0,1-2.221,1.973h-3.7a2.577,2.577,0,0,0-.592,0V15.07H35.972v-7.7A2.369,2.369,0,0,0,33.6,5Z" transform="translate(0 0)" fill="#f0f0f0"/>
    <path id="Path_2881" data-name="Path 2881" d="M11.092,11.516h3.7a2.2,2.2,0,0,0,2.221-1.973V5L10.5,11.516A2.577,2.577,0,0,1,11.092,11.516Z" transform="translate(0 0)" fill="#f9f9fa"/>
    <path id="Path_2882" data-name="Path 2882" d="M26.058,10.06v2.832a1.351,1.351,0,0,1-.367,1.013,1.386,1.386,0,0,1-1,.355,1.481,1.481,0,0,1-1.054-.373,1.392,1.392,0,0,1-.4-1.06h1.007a.622.622,0,0,0,.107.4.373.373,0,0,0,.308.13.338.338,0,0,0,.284-.118.486.486,0,0,0,.1-.344V10.06Z" transform="translate(-5.192 -2.063)" fill="#152027"/>
    <path id="Path_2883" data-name="Path 2883" d="M29.936,14.079a1.291,1.291,0,0,1-.592-.438,1.185,1.185,0,0,1-.213-.687h1.108a.557.557,0,0,0,.16.355.545.545,0,0,0,.355.118.592.592,0,0,0,.355-.1.35.35,0,0,0,.13-.29.361.361,0,0,0-.1-.255,1,1,0,0,0-.255-.166c-.1-.041-.249-.089-.432-.148a4.875,4.875,0,0,1-.658-.249,1.226,1.226,0,0,1-.438-.367,1.043,1.043,0,0,1-.184-.634,1.09,1.09,0,0,1,.421-.906,2,2,0,0,1,2.2,0,1.185,1.185,0,0,1,.45.912H31.12a.409.409,0,0,0-.148-.314.521.521,0,0,0-.349-.118.45.45,0,0,0-.3.1.367.367,0,0,0-.089.284.344.344,0,0,0,.19.314,2.9,2.9,0,0,0,.592.243,6.327,6.327,0,0,1,.658.261,1.262,1.262,0,0,1,.432.361.96.96,0,0,1,.184.592,1.185,1.185,0,0,1-.178.646,1.262,1.262,0,0,1-.527.462,1.73,1.73,0,0,1-.812.172,2.115,2.115,0,0,1-.841-.148Z" transform="translate(-7.594 -2.03)" fill="#152027"/>
    <path id="Path_2884" data-name="Path 2884" d="M36.266,13.963a1.99,1.99,0,0,1-.776-.758,2.227,2.227,0,0,1,0-2.2,2.073,2.073,0,0,1,.776-.758A2.2,2.2,0,0,1,37.333,10a2.227,2.227,0,0,1,1.078.272,2.055,2.055,0,0,1,.77.758,2.2,2.2,0,0,1,.278,1.1,2.15,2.15,0,0,1-.284,1.1,1.973,1.973,0,0,1-.77.758,2.245,2.245,0,0,1-2.144,0Zm1.866-1a1.268,1.268,0,0,0,.3-.877,1.268,1.268,0,0,0-.3-.877,1.137,1.137,0,0,0-1.6,0,1.423,1.423,0,0,0,0,1.753A1.137,1.137,0,0,0,38.132,12.961Z" transform="translate(-10.069 -2.038)" fill="#152027"/>
    <path id="Path_2885" data-name="Path 2885" d="M47.06,14.218H46.047l-1.694-2.565v2.565H43.34V10.072h1.013l1.694,2.577V10.06H47.06Z" transform="translate(-13.387 -2.063)" fill="#152027"/>
    <g id="Group_1395" data-name="Group 1395" transform="translate(15.895 21.171)">
      <path id="Path_2886" data-name="Path 2886" d="M27.038,42.07H27.8a.308.308,0,0,1,.308.308v.74a.308.308,0,0,1-.308.308h-.764a.308.308,0,0,1-.308-.308v-.74A.308.308,0,0,1,27.038,42.07Z" transform="translate(-22.511 -36.273)" fill="#152027"/>
      <path id="Path_2887" data-name="Path 2887" d="M31.142,42.07h.77a.3.3,0,0,1,.3.3v.752a.3.3,0,0,1-.3.3h-.77a.3.3,0,0,1-.3-.3v-.752a.3.3,0,0,1,.3-.3Z" transform="translate(-24.186 -36.273)" fill="#152027"/>
      <path id="Path_2888" data-name="Path 2888" d="M35.248,42.07h.77a.3.3,0,0,1,.3.3v.752a.3.3,0,0,1-.3.3h-.776a.3.3,0,0,1-.3-.3v-.752a.3.3,0,0,1,.308-.3Z" transform="translate(-25.858 -36.273)" fill="#152027"/>
      <path id="Path_2889" data-name="Path 2889" d="M21.09,37.064a2.038,2.038,0,0,1,.551.492,1.694,1.694,0,0,1,.278.687A6.019,6.019,0,0,1,22,39.321a7.221,7.221,0,0,0,0,.723.859.859,0,0,0,.089.355.3.3,0,0,0,.16.16,1.883,1.883,0,0,0,.326.071.456.456,0,0,1,.308.184.652.652,0,0,1,.124.415q0,.592-.729.592a1.7,1.7,0,0,1-.806-.19,1.362,1.362,0,0,1-.551-.533,1.659,1.659,0,0,1-.2-.794c0-.5,0-.906-.03-1.185a3.722,3.722,0,0,0-.047-.593,1.108,1.108,0,0,0-.219-.5,1.724,1.724,0,0,0-.379-.314,1.362,1.362,0,0,1-.338-.261.693.693,0,0,1,.19-.924,2.737,2.737,0,0,0,.509-.379.847.847,0,0,0,.213-.4,2.417,2.417,0,0,0,.071-.533c0-.2,0-.658.03-1.4a1.451,1.451,0,0,1,1.552-1.5c.486,0,.729.2.729.592a.681.681,0,0,1-.118.421.438.438,0,0,1-.314.178,1,1,0,0,0-.4.124.4.4,0,0,0-.148.3,7.576,7.576,0,0,0-.047.889,6.93,6.93,0,0,1-.077,1.048,1.647,1.647,0,0,1-.261.693,1.807,1.807,0,0,1-.545.509Z" transform="translate(-19.608 -32.292)" fill="#152027"/>
      <path id="Path_2890" data-name="Path 2890" d="M39.988,36.535a1.647,1.647,0,0,1-.261-.693,6.931,6.931,0,0,1-.077-1.048A7.575,7.575,0,0,0,39.6,33.9a.4.4,0,0,0-.148-.3,1,1,0,0,0-.4-.124.438.438,0,0,1-.314-.178.681.681,0,0,1-.118-.421c0-.391.243-.592.729-.592a1.451,1.451,0,0,1,1.552,1.5c0,.74,0,1.185.03,1.4a2.417,2.417,0,0,0,.071.533.847.847,0,0,0,.213.4,2.737,2.737,0,0,0,.509.379.693.693,0,0,1,.19.924,1.362,1.362,0,0,1-.338.261A1.724,1.724,0,0,0,41.2,38a1.108,1.108,0,0,0-.219.5,3.719,3.719,0,0,0-.047.592c0,.3,0,.7-.03,1.185a1.659,1.659,0,0,1-.2.794,1.362,1.362,0,0,1-.551.533,1.7,1.7,0,0,1-.806.19q-.729,0-.729-.592a.652.652,0,0,1,.124-.415.456.456,0,0,1,.308-.184,1.884,1.884,0,0,0,.326-.071.3.3,0,0,0,.16-.16.859.859,0,0,0,.089-.355,7.221,7.221,0,0,0,0-.723,6.018,6.018,0,0,1,.077-1.078,1.694,1.694,0,0,1,.326-.675,2.038,2.038,0,0,1,.551-.492,1.807,1.807,0,0,1-.592-.521Z" transform="translate(-27.357 -32.284)" fill="#152027"/>
    </g>
  </g>
</svg>
