<svg width="100" height="100" viewBox="0 0 100 100" fill="none" xmlns="http://www.w3.org/2000/svg">
<path d="M61.3184 71.1641L86.3809 32.2036L95.5905 38.128L70.528 77.0884L61.3184 71.1641Z" fill="#DEDEDE"/>
<path d="M1.95312 89.7576V98.0469H73.4277V72.5449L70.5236 77.0627L58.5 85.6406L61.3127 71.1408L73.4277 52.2949V1.95312H1.95312V72.5703" fill="#F9F9F9"/>
<path d="M61.3127 71.1406L58.501 85.641L70.5246 77.0621L61.3127 71.1406Z" fill="#F5F5F5"/>
<path d="M97.1771 35.6009L95.5752 38.093L86.3633 32.1716L87.9652 29.6794C89.6004 27.1356 92.9881 26.3991 95.5318 28.0343C98.0756 29.6696 98.8123 33.0571 97.1771 35.6009Z" fill="#F5F5F5"/>
<path d="M14.9355 11.1172H36.6686V35.7885H14.9355V11.1172Z" fill="#DEDEDE"/>
<path d="M15.3057 44.9766H62.16V54.5871H15.3057V44.9766Z" fill="#DEDEDE"/>
<path d="M25.8025 26.2047C28.3638 26.2047 30.44 24.1284 30.44 21.5672C30.44 19.006 28.3638 16.9297 25.8025 16.9297C23.2413 16.9297 21.165 19.006 21.165 21.5672C21.165 24.1284 23.2413 26.2047 25.8025 26.2047Z" fill="#F9F9F9"/>
<path d="M25.802 26.2054C25.802 26.2054 14.9355 25.8034 14.9355 35.7915H25.802H36.6684C36.6684 25.8147 25.802 26.2054 25.802 26.2054Z" fill="#F9F9F9"/>
<path d="M96.5875 26.3908C94.9184 25.3178 92.9311 24.959 90.9924 25.3807C89.0535 25.8023 87.3947 26.9537 86.3219 28.6229L84.7199 31.115L75.3809 45.6432V1.95312C75.3809 0.874609 74.5064 0 73.4277 0H1.95312C0.874414 0 0 0.874609 0 1.95312V72.5703C0 73.6488 0.874414 74.5234 1.95312 74.5234C3.03184 74.5234 3.90625 73.6488 3.90625 72.5703V3.90625H71.4746V51.7199L59.6695 70.0844C59.5371 70.2893 59.4416 70.5293 59.3951 70.7688L57.8971 78.493C57.127 78.2121 56.2438 78.1354 55.3105 78.3096C53.9195 78.5695 52.6223 79.2195 51.482 80.0828C51.4398 79.4269 51.3779 78.7666 51.3006 78.0563C51.0844 76.0687 50.2102 74.4555 48.8393 73.5139C45.982 71.5523 42.5233 73.8571 41.3842 74.6161L41.3826 74.6172C37.7004 77.0725 34.5385 80.5561 32.2385 84.6914C31.7141 85.634 32.0533 86.8232 32.9961 87.3477C33.2967 87.5148 33.6225 87.5943 33.9436 87.5943C34.6295 87.5943 35.2951 87.2322 35.6523 86.59C37.6516 82.9955 40.3824 79.9791 43.5498 77.8674C45.776 76.3828 46.4689 76.625 46.6281 76.734C47.2129 77.1355 47.3748 78.0881 47.4174 78.4789C47.6697 80.7975 47.7389 82.4326 47.4486 85.4541C47.358 86.3971 47.9572 87.2691 48.8699 87.5227C49.783 87.7768 50.7459 87.3381 51.1547 86.4838C52.0482 84.6156 54.0094 82.5268 56.0283 82.1496C56.4311 82.0746 56.6564 82.1484 56.698 82.3643C56.7555 82.7107 56.7021 84.034 56.5842 85.2627C56.2588 87.049 58.3731 88.2908 59.7553 87.1455L71.475 78.7836V96.0938H3.90625V89.7578C3.90625 88.6793 3.03184 87.8047 1.95312 87.8047C0.874414 87.8047 0 88.6793 0 89.7578V98.0469C0 99.1254 0.874414 100 1.95312 100H73.4277C74.5064 100 75.3809 99.1254 75.3809 98.0469V73.1188L97.2178 39.1486L98.8197 36.6564C101.034 33.2107 100.033 28.6057 96.5875 26.3908ZM89.6078 30.735C90.6453 29.1209 92.8586 28.6379 94.4752 29.6768C96.109 30.727 96.5838 32.9105 95.5336 34.5443L94.9879 35.3936L89.0619 31.5842L89.6078 30.735ZM61.3496 81.2086L62.5647 74.9436L62.6813 74.3424L64.8623 75.7443L67.0434 77.1463L65.0896 78.5402L61.3496 81.2086ZM71.7873 71.4852L71.7848 71.4887L69.9373 74.3625L64.0119 70.5537L75.0707 53.351C75.0727 53.348 75.0738 53.3449 75.0756 53.342L86.9496 34.8701L92.8756 38.6795L71.7873 71.4852Z" fill="#B4B4B4"/>
<path d="M96.5875 26.3908C94.9184 25.3178 92.9311 24.959 90.9924 25.3807C89.0535 25.8023 87.3947 26.9537 86.3219 28.6229L84.7199 31.115L75.3809 45.6432V1.95312C75.3809 0.874609 74.5064 0 73.4277 0H1.95312C0.874414 0 0 0.874609 0 1.95312V72.5703C0 73.6488 0.874414 74.5234 1.95312 74.5234C3.03184 74.5234 3.90625 73.6488 3.90625 72.5703V3.90625H71.4746V51.7199L59.6695 70.0844C59.5371 70.2893 59.4416 70.5293 59.3951 70.7688L57.8971 78.493C57.127 78.2121 56.2438 78.1354 55.3105 78.3096C53.9195 78.5695 52.6223 79.2195 51.482 80.0828C51.4398 79.4269 51.3779 78.7666 51.3006 78.0563C51.0844 76.0687 50.2102 74.4555 48.8393 73.5139C45.982 71.5523 42.5233 73.8571 41.3842 74.6161L41.3826 74.6172C37.7004 77.0725 34.5385 80.5561 32.2385 84.6914C31.7141 85.634 32.0533 86.8232 32.9961 87.3477C33.2967 87.5148 33.6225 87.5943 33.9436 87.5943C34.6295 87.5943 35.2951 87.2322 35.6523 86.59C37.6516 82.9955 40.3824 79.9791 43.5498 77.8674C45.776 76.3828 46.4689 76.625 46.6281 76.734C47.2129 77.1355 47.3748 78.0881 47.4174 78.4789C47.6697 80.7975 47.7389 82.4326 47.4486 85.4541C47.358 86.3971 47.9572 87.2691 48.8699 87.5227C49.783 87.7768 50.7459 87.3381 51.1547 86.4838C52.0482 84.6156 54.0094 82.5268 56.0283 82.1496C56.4311 82.0746 56.6564 82.1484 56.698 82.3643C56.7555 82.7107 56.7021 84.034 56.5842 85.2627C56.2588 87.049 58.3731 88.2908 59.7553 87.1455L71.475 78.7836V96.0938H3.90625V89.7578C3.90625 88.6793 3.03184 87.8047 1.95312 87.8047C0.874414 87.8047 0 88.6793 0 89.7578V98.0469C0 99.1254 0.874414 100 1.95312 100H73.4277C74.5064 100 75.3809 99.1254 75.3809 98.0469V73.1188L97.2178 39.1486L98.8197 36.6564C101.034 33.2107 100.033 28.6057 96.5875 26.3908ZM89.6078 30.735C90.6453 29.1209 92.8586 28.6379 94.4752 29.6768C96.109 30.727 96.5838 32.9105 95.5336 34.5443L94.9879 35.3936L89.0619 31.5842L89.6078 30.735ZM61.3496 81.2086L62.5647 74.9436L62.6813 74.3424L64.8623 75.7443L67.0434 77.1463L65.0896 78.5402L61.3496 81.2086ZM71.7873 71.4852L71.7848 71.4887L69.9373 74.3625L64.0119 70.5537L75.0707 53.351C75.0727 53.348 75.0738 53.3449 75.0756 53.342L86.9496 34.8701L92.8756 38.6795L71.7873 71.4852Z" stroke="white"/>
<path d="M36.6686 9.16406H14.9355C13.8568 9.16406 12.9824 10.0387 12.9824 11.1172V35.7885C12.9824 36.867 13.8568 37.7416 14.9355 37.7416H36.6686C37.7473 37.7416 38.6217 36.867 38.6217 35.7885V11.1172C38.6217 10.0385 37.7473 9.16406 36.6686 9.16406ZM34.7154 13.0703V27.0494C33.6369 26.1971 32.4508 25.6029 31.3027 25.1895C31.9908 24.1488 32.3928 22.9033 32.3928 21.565C32.3928 17.9311 29.4361 14.9744 25.802 14.9744C22.168 14.9744 19.2113 17.9311 19.2113 21.565C19.2113 22.9018 19.6125 24.1461 20.2992 25.1861C19.152 25.5992 17.9666 26.1926 16.8887 27.0443V13.0703H34.7154ZM25.8029 24.2486L25.7855 24.2484C24.3129 24.2395 23.1176 23.0395 23.1176 21.5648C23.1176 20.0848 24.3219 18.8805 25.802 18.8805C27.2822 18.8805 28.4865 20.0848 28.4865 21.5648C28.4865 23.04 27.2902 24.2404 25.8168 24.2484C25.8127 24.2486 25.8068 24.2486 25.8029 24.2486ZM17.0717 33.8354C17.3449 32.4951 17.9262 31.4041 18.8275 30.5297C21.3668 28.0662 25.6438 28.152 25.7352 28.1543C25.7373 28.1544 25.7394 28.1544 25.7415 28.1543C25.7462 28.1543 25.751 28.1542 25.7559 28.1543C25.7636 28.1543 25.7712 28.1546 25.7789 28.1549C25.7866 28.1552 25.7943 28.1555 25.8021 28.1555C25.8117 28.1555 25.821 28.1551 25.8304 28.1548C25.8382 28.1545 25.8459 28.1542 25.8537 28.1541C25.8568 28.154 25.86 28.1541 25.8631 28.1541C25.8662 28.1542 25.8693 28.1542 25.8725 28.1541C25.8734 28.1541 25.8765 28.1541 25.8816 28.1541C26.1057 28.1525 30.2774 28.1233 32.7645 30.5229C33.6719 31.3982 34.2572 32.4918 34.532 33.8354H17.0717Z" fill="#B4B4B4"/>
<path d="M36.6686 9.16406H14.9355C13.8568 9.16406 12.9824 10.0387 12.9824 11.1172V35.7885C12.9824 36.867 13.8568 37.7416 14.9355 37.7416H36.6686C37.7473 37.7416 38.6217 36.867 38.6217 35.7885V11.1172C38.6217 10.0385 37.7473 9.16406 36.6686 9.16406ZM34.7154 13.0703V27.0494C33.6369 26.1971 32.4508 25.6029 31.3027 25.1895C31.9908 24.1488 32.3928 22.9033 32.3928 21.565C32.3928 17.9311 29.4361 14.9744 25.802 14.9744C22.168 14.9744 19.2113 17.9311 19.2113 21.565C19.2113 22.9018 19.6125 24.1461 20.2992 25.1861C19.152 25.5992 17.9666 26.1926 16.8887 27.0443V13.0703H34.7154ZM25.8029 24.2486L25.7855 24.2484C24.3129 24.2395 23.1176 23.0395 23.1176 21.5648C23.1176 20.0848 24.3219 18.8805 25.802 18.8805C27.2822 18.8805 28.4865 20.0848 28.4865 21.5648C28.4865 23.04 27.2902 24.2404 25.8168 24.2484C25.8127 24.2486 25.8068 24.2486 25.8029 24.2486ZM17.0717 33.8354C17.3449 32.4951 17.9262 31.4041 18.8275 30.5297C21.3668 28.0662 25.6438 28.152 25.7352 28.1543C25.7373 28.1544 25.7394 28.1544 25.7415 28.1543C25.7462 28.1543 25.751 28.1542 25.7559 28.1543C25.7636 28.1543 25.7712 28.1546 25.7789 28.1549C25.7866 28.1552 25.7943 28.1555 25.8021 28.1555C25.8117 28.1555 25.821 28.1551 25.8304 28.1548C25.8382 28.1545 25.8459 28.1542 25.8537 28.1541C25.8568 28.154 25.86 28.1541 25.8631 28.1541C25.8662 28.1542 25.8693 28.1542 25.8725 28.1541C25.8734 28.1541 25.8765 28.1541 25.8816 28.1541C26.1057 28.1525 30.2774 28.1233 32.7645 30.5229C33.6719 31.3982 34.2572 32.4918 34.532 33.8354H17.0717Z" stroke="#F9F9F9"/>
<path d="M47.8281 16.9531H62.1592C63.2379 16.9531 64.1123 16.0785 64.1123 15C64.1123 13.9215 63.2379 13.0469 62.1592 13.0469H47.8281C46.7494 13.0469 45.875 13.9215 45.875 15C45.875 16.0785 46.7494 16.9531 47.8281 16.9531Z" fill="#B4B4B4"/>
<path d="M47.8281 16.9531H62.1592C63.2379 16.9531 64.1123 16.0785 64.1123 15C64.1123 13.9215 63.2379 13.0469 62.1592 13.0469H47.8281C46.7494 13.0469 45.875 13.9215 45.875 15C45.875 16.0785 46.7494 16.9531 47.8281 16.9531Z" stroke="#F9F9F9"/>
<path d="M47.8281 25.5391H62.1592C63.2379 25.5391 64.1123 24.6645 64.1123 23.5859C64.1123 22.5074 63.2379 21.6328 62.1592 21.6328H47.8281C46.7494 21.6328 45.875 22.5074 45.875 23.5859C45.875 24.6645 46.7494 25.5391 47.8281 25.5391Z" fill="#B4B4B4"/>
<path d="M47.8281 25.5391H62.1592C63.2379 25.5391 64.1123 24.6645 64.1123 23.5859C64.1123 22.5074 63.2379 21.6328 62.1592 21.6328H47.8281C46.7494 21.6328 45.875 22.5074 45.875 23.5859C45.875 24.6645 46.7494 25.5391 47.8281 25.5391Z" stroke="#F9F9F9"/>
<path d="M47.8281 34.125H62.1592C63.2379 34.125 64.1123 33.2504 64.1123 32.1719C64.1123 31.0934 63.2379 30.2188 62.1592 30.2188H47.8281C46.7494 30.2188 45.875 31.0934 45.875 32.1719C45.875 33.2504 46.7494 34.125 47.8281 34.125Z" fill="#B4B4B4"/>
<path d="M47.8281 34.125H62.1592C63.2379 34.125 64.1123 33.2504 64.1123 32.1719C64.1123 31.0934 63.2379 30.2188 62.1592 30.2188H47.8281C46.7494 30.2188 45.875 31.0934 45.875 32.1719C45.875 33.2504 46.7494 34.125 47.8281 34.125Z" stroke="#F9F9F9"/>
<path d="M13.3516 44.9766V54.5871C13.3516 55.6656 14.226 56.5402 15.3047 56.5402H62.159C63.2377 56.5402 64.1121 55.6656 64.1121 54.5871V44.9766C64.1121 43.898 63.2377 43.0234 62.159 43.0234H15.3047C14.226 43.0234 13.3516 43.8979 13.3516 44.9766ZM17.2578 46.9297H60.2059V52.634H17.2578V46.9297Z" fill="#B4B4B4"/>
<path d="M13.3516 44.9766V54.5871C13.3516 55.6656 14.226 56.5402 15.3047 56.5402H62.159C63.2377 56.5402 64.1121 55.6656 64.1121 54.5871V44.9766C64.1121 43.898 63.2377 43.0234 62.159 43.0234H15.3047C14.226 43.0234 13.3516 43.8979 13.3516 44.9766ZM17.2578 46.9297H60.2059V52.634H17.2578V46.9297Z" stroke="#F9F9F9"/>
<path d="M44.8871 64.2188C44.8871 63.1402 44.0127 62.2656 42.934 62.2656H15.9941C14.9154 62.2656 14.041 63.1402 14.041 64.2188C14.041 65.2973 14.9154 66.1719 15.9941 66.1719H42.9342C44.0127 66.1719 44.8871 65.2973 44.8871 64.2188Z" fill="#B4B4B4"/>
<path d="M44.8871 64.2188C44.8871 63.1402 44.0127 62.2656 42.934 62.2656H15.9941C14.9154 62.2656 14.041 63.1402 14.041 64.2188C14.041 65.2973 14.9154 66.1719 15.9941 66.1719H42.9342C44.0127 66.1719 44.8871 65.2973 44.8871 64.2188Z" stroke="#F9F9F9"/>
<path d="M15.9941 70.4531C14.9154 70.4531 14.041 71.3277 14.041 72.4062C14.041 73.4848 14.9154 74.3594 15.9941 74.3594H28.6787C29.7574 74.3594 30.6318 73.4848 30.6318 72.4062C30.6318 71.3277 29.7574 70.4531 28.6787 70.4531H15.9941Z" fill="#B4B4B4"/>
<path d="M15.9941 70.4531C14.9154 70.4531 14.041 71.3277 14.041 72.4062C14.041 73.4848 14.9154 74.3594 15.9941 74.3594H28.6787C29.7574 74.3594 30.6318 73.4848 30.6318 72.4062C30.6318 71.3277 29.7574 70.4531 28.6787 70.4531H15.9941Z" stroke="#F9F9F9"/>
<path d="M0.33099 82.3274C0.92142 83.2135 2.15287 83.4536 3.03802 82.8665C3.92552 82.2778 4.16478 81.0415 3.57708 80.1577C2.98822 79.2718 1.75326 79.0302 0.870053 79.6184C-0.0215488 80.2122 -0.250846 81.4384 0.33099 82.3274Z" fill="#B4B4B4"/>
</svg>
