<svg width="32" height="32" viewBox="0 0 32 32" fill="none" xmlns="http://www.w3.org/2000/svg">
<path d="M6.83826 5.35771H0.941168C0.421312 5.35771 0 4.92763 0 4.39759C0 3.86756 0.421312 3.4375 0.941168 3.4375H6.83826C7.35813 3.4375 7.77943 3.86756 7.77943 4.39759C7.77943 4.92763 7.35813 5.35771 6.83826 5.35771Z" fill="#717171"/>
<path d="M10.2084 8.79563C7.83119 8.79563 5.89734 6.82286 5.89734 4.39808C5.89734 1.97277 7.83119 0 10.2084 0C12.5855 0 14.5194 1.97277 14.5194 4.39808C14.5194 6.82295 12.5855 8.79563 10.2084 8.79563ZM10.2084 1.92029C8.86916 1.92029 7.77967 3.03191 7.77967 4.39808C7.77967 5.76423 8.86916 6.87536 10.2084 6.87536C11.5476 6.87536 12.637 5.76423 12.637 4.39808C12.637 3.03191 11.5476 1.92029 10.2084 1.92029Z" fill="#717171"/>
<path d="M31.0592 5.35771H16.9925C16.4726 5.35771 16.0513 4.92763 16.0513 4.39759C16.0513 3.86756 16.4726 3.4375 16.9925 3.4375H31.0592C31.579 3.4375 32.0002 3.86756 32.0002 4.39759C32.0002 4.92763 31.579 5.35771 31.0592 5.35771Z" fill="#717171"/>
<path d="M22.8445 20.3987C20.4672 20.3987 18.5334 18.4259 18.5334 16.0011C18.5334 13.5763 20.4673 11.6035 22.8445 11.6035C25.2217 11.6035 27.1554 13.5763 27.1554 16.0011C27.1554 18.4259 25.2217 20.3987 22.8445 20.3987ZM22.8445 13.5238C21.5053 13.5238 20.4158 14.6349 20.4158 16.0011C20.4158 17.3672 21.5053 18.4784 22.8445 18.4784C24.1837 18.4784 25.2731 17.3672 25.2731 16.0011C25.2731 14.6349 24.1837 13.5238 22.8445 13.5238Z" fill="#717171"/>
<path d="M16.0611 16.9612H0.941168C0.421312 16.9612 0 16.5312 0 16.0011C0 15.4711 0.421312 15.041 0.941168 15.041H16.0611C16.5809 15.041 17.0022 15.4711 17.0022 16.0011C17.0022 16.5312 16.5809 16.9612 16.0611 16.9612Z" fill="#717171"/>
<path d="M31.0587 16.9612H26.2146C25.6949 16.9612 25.2734 16.5312 25.2734 16.0011C25.2734 15.4711 25.6949 15.041 26.2146 15.041H31.0587C31.5785 15.041 32 15.4711 32 16.0011C32 16.5312 31.5785 16.9612 31.0587 16.9612Z" fill="#717171"/>
<path d="M9.15477 32.0005C6.7776 32.0005 4.84375 30.0279 4.84375 27.6026C4.84375 25.1776 6.7776 23.2051 9.15477 23.2051C11.532 23.2051 13.4658 25.1776 13.4658 27.6026C13.4658 30.0279 11.532 32.0005 9.15477 32.0005ZM9.15477 25.1253C7.81557 25.1253 6.72608 26.2364 6.72608 27.6026C6.72608 28.9687 7.81557 30.0803 9.15477 30.0803C10.494 30.0803 11.5835 28.9687 11.5835 27.6026C11.5835 26.2364 10.494 25.1253 9.15477 25.1253Z" fill="#717171"/>
<path d="M31.0588 28.5628H15.939C15.4191 28.5628 14.9978 28.1326 14.9978 27.6026C14.9978 27.0725 15.4191 26.6426 15.939 26.6426H31.0588C31.5788 26.6426 32 27.0725 32 27.6026C32 28.1326 31.5788 28.5628 31.0588 28.5628Z" fill="#717171"/>
<path d="M5.7853 28.5628H0.941168C0.421312 28.5628 0 28.1326 0 27.6026C0 27.0725 0.421312 26.6426 0.941168 26.6426H5.7853C6.30517 26.6426 6.72647 27.0725 6.72647 27.6026C6.72647 28.1326 6.30517 28.5628 5.7853 28.5628Z" fill="#717171"/>
</svg>
