<svg width="12" height="12" viewBox="0 0 12 12" fill="none" xmlns="http://www.w3.org/2000/svg">
<path d="M4.66667 2.66406L4.32277 3.59343C3.87183 4.81206 3.64635 5.4214 3.20185 5.86593C2.75735 6.3104 2.14803 6.53586 0.929367 6.98686L0 7.33073L0.929367 7.6746C2.14803 8.1256 2.75735 8.35106 3.20185 8.79553C3.64635 9.24006 3.87183 9.8494 4.32277 11.068L4.66667 11.9974L5.01053 11.068C5.46153 9.8494 5.687 9.24006 6.13147 8.79553C6.576 8.35106 7.18533 8.1256 8.40393 7.6746L9.33333 7.33073L8.40393 6.98686C7.18533 6.53586 6.576 6.3104 6.13147 5.86593C5.687 5.4214 5.46153 4.81206 5.01053 3.59343L4.66667 2.66406Z" fill="white"/>
<path d="M10 0L9.8526 0.3983C9.65933 0.92058 9.56273 1.18173 9.3722 1.37222C9.18173 1.56272 8.9206 1.65935 8.39833 1.85261L8 2L8.39833 2.14739C8.9206 2.34065 9.18173 2.43728 9.3722 2.62778C9.56273 2.81827 9.65933 3.07942 9.8526 3.6017L10 4L10.1474 3.6017C10.3407 3.07942 10.4373 2.81827 10.6278 2.62777C10.8183 2.43728 11.0794 2.34065 11.6017 2.14739L12 2L11.6017 1.85261C11.0794 1.65935 10.8183 1.56272 10.6278 1.37222C10.4373 1.18173 10.3407 0.92058 10.1474 0.3983L10 0Z" fill="white"/>
</svg>
