<svg width="14" height="14" viewBox="0 0 14 14" fill="none" xmlns="http://www.w3.org/2000/svg">
<path d="M2.99174 2.344H0.411761C0.184324 2.344 0 2.15584 0 1.92395C0 1.69206 0.184324 1.50391 0.411761 1.50391H2.99174C3.21918 1.50391 3.4035 1.69206 3.4035 1.92395C3.4035 2.15584 3.21918 2.344 2.99174 2.344Z" fill="#112D55"/>
<path d="M4.46615 3.84809C3.42614 3.84809 2.58008 2.985 2.58008 1.92416C2.58008 0.863088 3.42614 0 4.46615 0C5.50616 0 6.35222 0.863088 6.35222 1.92416C6.35222 2.98504 5.50616 3.84809 4.46615 3.84809ZM4.46615 0.840127C3.88025 0.840127 3.4036 1.32646 3.4036 1.92416C3.4036 2.52185 3.88025 3.00797 4.46615 3.00797C5.05206 3.00797 5.5287 2.52185 5.5287 1.92416C5.5287 1.32646 5.05206 0.840127 4.46615 0.840127Z" fill="#112D55"/>
<path d="M13.5884 2.344H7.43422C7.20678 2.344 7.02246 2.15584 7.02246 1.92395C7.02246 1.69206 7.20678 1.50391 7.43422 1.50391H13.5884C13.8158 1.50391 14.0001 1.69206 14.0001 1.92395C14.0001 2.15584 13.8158 2.344 13.5884 2.344Z" fill="#112D55"/>
<path d="M9.99447 8.92405C8.95443 8.92405 8.1084 8.06096 8.1084 7.00011C8.1084 5.93926 8.95446 5.07617 9.99447 5.07617C11.0345 5.07617 11.8805 5.93926 11.8805 7.00011C11.8805 8.06096 11.0345 8.92405 9.99447 8.92405ZM9.99447 5.9163C9.40857 5.9163 8.93192 6.40241 8.93192 7.00011C8.93192 7.5978 9.40857 8.08392 9.99447 8.08392C10.5804 8.08392 11.057 7.5978 11.057 7.00011C11.057 6.40241 10.5804 5.9163 9.99447 5.9163Z" fill="#112D55"/>
<path d="M7.02671 7.42017H0.411761C0.184324 7.42017 0 7.23202 0 7.00013C0 6.76824 0.184324 6.58008 0.411761 6.58008H7.02671C7.25415 6.58008 7.43847 6.76824 7.43847 7.00013C7.43847 7.23202 7.25415 7.42017 7.02671 7.42017Z" fill="#112D55"/>
<path d="M13.5882 7.42017H11.4689C11.2415 7.42017 11.0571 7.23202 11.0571 7.00013C11.0571 6.76824 11.2415 6.58008 11.4689 6.58008H13.5882C13.8156 6.58008 14 6.76824 14 7.00013C14 7.23202 13.8156 7.42017 13.5882 7.42017Z" fill="#112D55"/>
<path d="M4.00521 13.9999C2.9652 13.9999 2.11914 13.1369 2.11914 12.0758C2.11914 11.0149 2.9652 10.1519 4.00521 10.1519C5.04523 10.1519 5.89129 11.0149 5.89129 12.0758C5.89129 13.1369 5.04523 13.9999 4.00521 13.9999ZM4.00521 10.992C3.41931 10.992 2.94266 11.4781 2.94266 12.0758C2.94266 12.6735 3.41931 13.1598 4.00521 13.1598C4.59112 13.1598 5.06776 12.6735 5.06776 12.0758C5.06776 11.4781 4.59112 10.992 4.00521 10.992Z" fill="#112D55"/>
<path d="M13.5882 12.4959H6.97328C6.74585 12.4959 6.56152 12.3077 6.56152 12.0758C6.56152 11.8439 6.74585 11.6558 6.97328 11.6558H13.5882C13.8157 11.6558 14 11.8439 14 12.0758C14 12.3077 13.8157 12.4959 13.5882 12.4959Z" fill="#112D55"/>
<path d="M2.53107 12.4959H0.411761C0.184324 12.4959 0 12.3077 0 12.0758C0 11.8439 0.184324 11.6558 0.411761 11.6558H2.53107C2.75851 11.6558 2.94283 11.8439 2.94283 12.0758C2.94283 12.3077 2.75851 12.4959 2.53107 12.4959Z" fill="#112D55"/>
</svg>
