<svg width="18" height="18" viewBox="0 0 18 18" fill="none" xmlns="http://www.w3.org/2000/svg">
<path id="Vector" d="M14.1074 7.70905C14.2282 6.21195 13.9962 5.21842 13.3788 4.58705C12.8038 3.99917 11.9172 3.74656 10.6697 3.8156C9.6795 3.0478 8.7351 2.73278 7.86274 2.88083C6.94656 3.03618 6.10274 3.70307 5.35386 4.86324C4.0171 5.33261 3.22506 5.98025 2.93394 6.84266C2.62523 7.75751 2.90141 8.85129 3.77909 10.1837C3.54041 11.5311 3.76349 12.606 4.42606 13.2961C5.09427 13.9922 6.15817 14.2468 7.58888 14.0539C8.34938 14.7806 9.1527 15.156 9.93842 15.156C10.0742 15.156 10.2093 15.1447 10.3437 15.1222C11.2915 14.9632 12.1117 14.2495 12.7188 13.0568C14.0437 12.5409 14.844 11.8408 15.0973 10.9751C15.3622 10.0679 15.0289 8.96913 14.1074 7.70905ZM13.0939 4.86556C13.5922 5.3751 13.796 6.19436 13.7276 7.42855L11.0485 5.81095C10.9841 5.77212 10.9067 5.77411 10.846 5.80896C10.8456 5.80896 10.8446 5.80963 10.8443 5.80963L8.92996 6.91502L7.61046 7.67685V5.99983L10.6661 4.21427C11.8053 4.14755 12.6 4.36066 13.0939 4.86556ZM10.4486 9.77577L9.02954 10.595L7.61046 9.77577V8.13693L9.02954 7.31768L10.4486 8.13693V9.77577ZM7.92913 3.27353C8.63718 3.15369 9.41627 3.39701 10.2478 3.99751L7.31037 5.71402C7.24697 5.75087 7.21178 5.81759 7.21178 5.88598V8.02207V9.54606L5.68813 8.66639L5.68315 5.08697C6.37029 4.01975 7.12581 3.40963 7.92913 3.27353ZM3.31104 6.97013C3.54274 6.28332 4.20631 5.72631 5.28515 5.31237L5.29012 8.78158C5.29012 8.85527 5.33029 8.91934 5.38971 8.95353L7.3117 10.0632L8.6312 10.8251L7.10224 11.7077L4.12896 9.9912C3.321 8.77228 3.04581 7.75585 3.31104 6.97013ZM4.71286 13.0202C4.18274 12.4679 3.98191 11.5646 4.13859 10.4569L7.00266 12.1107C7.06539 12.1469 7.13975 12.1449 7.19884 12.112L9.1288 10.998L10.4483 10.2362V11.9125L7.51851 13.6042L7.54905 13.6573C6.24448 13.8352 5.29046 13.6214 4.71286 13.0202ZM10.277 14.7291C9.51519 14.8566 8.70622 14.5449 7.9288 13.8269L10.7474 12.1997C10.8091 12.1642 10.847 12.0984 10.847 12.0271V9.89095V8.39452L12.3756 9.4156V12.8516C11.8266 13.9417 11.1016 14.5907 10.277 14.7291ZM14.7142 10.8632C14.5097 11.562 13.8574 12.1469 12.7743 12.6043V9.30938C12.7743 9.24033 12.7391 9.17958 12.6856 9.14373L10.7587 7.85676C10.755 7.85444 10.7514 7.85212 10.7477 7.84979L9.42822 7.08797L10.9436 6.21295L13.7661 7.91718C14.6256 9.08332 14.9449 10.0745 14.7142 10.8632ZM9 1C4.58871 1 1 4.58871 1 9C1 13.4113 4.58871 17 9 17C13.4113 17 17 13.4113 17 9C17 4.58871 13.4113 1 9 1ZM9 16.6017C4.80847 16.6017 1.39834 13.1915 1.39834 9C1.39834 4.80847 4.80847 1.39834 9 1.39834C13.1915 1.39834 16.6017 4.80847 16.6017 9C16.6017 13.1915 13.1915 16.6017 9 16.6017Z" stroke="#70A597" stroke-width="0.5"/>
</svg>
