<svg width="14" height="14" viewBox="0 0 14 14" fill="none" xmlns="http://www.w3.org/2000/svg">
<path d="M2.99169 2.34398H0.411755C0.184321 2.34398 0 2.15583 0 1.92394C0 1.69205 0.184321 1.50391 0.411755 1.50391H2.99169C3.21913 1.50391 3.40345 1.69205 3.40345 1.92394C3.40345 2.15583 3.21913 2.34398 2.99169 2.34398Z" fill="#717171"/>
<path d="M4.46612 3.84803C3.42612 3.84803 2.58008 2.98495 2.58008 1.92413C2.58008 0.863074 3.42612 0 4.46612 0C5.50611 0 6.35216 0.863074 6.35216 1.92413C6.35216 2.98499 5.50611 3.84803 4.46612 3.84803ZM4.46612 0.840114C3.88023 0.840114 3.40359 1.32644 3.40359 1.92413C3.40359 2.52181 3.88023 3.00792 4.46612 3.00792C5.05202 3.00792 5.52865 2.52181 5.52865 1.92413C5.52865 1.32644 5.05202 0.840114 4.46612 0.840114Z" fill="#717171"/>
<path d="M13.5881 2.34398H7.43397C7.20653 2.34398 7.02222 2.15583 7.02222 1.92394C7.02222 1.69205 7.20653 1.50391 7.43397 1.50391H13.5881C13.8154 1.50391 13.9997 1.69205 13.9997 1.92394C13.9997 2.15583 13.8154 2.34398 13.5881 2.34398Z" fill="#717171"/>
<path d="M9.99419 8.92399C8.95417 8.92399 8.10815 8.06092 8.10815 7.00008C8.10815 5.93925 8.9542 5.07617 9.99419 5.07617C11.0342 5.07617 11.8802 5.93925 11.8802 7.00008C11.8802 8.06092 11.0342 8.92399 9.99419 8.92399ZM9.99419 5.91629C9.4083 5.91629 8.93166 6.40239 8.93166 7.00008C8.93166 7.59776 9.4083 8.08387 9.99419 8.08387C10.5801 8.08387 11.0567 7.59776 11.0567 7.00008C11.0567 6.40239 10.5801 5.91629 9.99419 5.91629Z" fill="#717171"/>
<path d="M7.0266 7.42015H0.411755C0.184321 7.42015 0 7.23201 0 7.00012C0 6.76824 0.184321 6.58008 0.411755 6.58008H7.0266C7.25404 6.58008 7.43835 6.76824 7.43835 7.00012C7.43835 7.23201 7.25404 7.42015 7.0266 7.42015Z" fill="#717171"/>
<path d="M13.5879 7.42015H11.4687C11.2413 7.42015 11.0569 7.23201 11.0569 7.00012C11.0569 6.76824 11.2413 6.58008 11.4687 6.58008H13.5879C13.8153 6.58008 13.9997 6.76824 13.9997 7.00012C13.9997 7.23201 13.8153 7.42015 13.5879 7.42015Z" fill="#717171"/>
<path d="M4.00518 14.0003C2.96519 14.0003 2.11914 13.1373 2.11914 12.0762C2.11914 11.0153 2.96519 10.1523 4.00518 10.1523C5.04518 10.1523 5.89123 11.0153 5.89123 12.0762C5.89123 13.1373 5.04518 14.0003 4.00518 14.0003ZM4.00518 10.9924C3.41929 10.9924 2.94265 11.4785 2.94265 12.0762C2.94265 12.6739 3.41929 13.1602 4.00518 13.1602C4.59108 13.1602 5.06771 12.6739 5.06771 12.0762C5.06771 11.4785 4.59108 10.9924 4.00518 10.9924Z" fill="#717171"/>
<path d="M13.5881 12.4963H6.97328C6.74585 12.4963 6.56152 12.3081 6.56152 12.0762C6.56152 11.8443 6.74585 11.6562 6.97328 11.6562H13.5881C13.8156 11.6562 13.9999 11.8443 13.9999 12.0762C13.9999 12.3081 13.8156 12.4963 13.5881 12.4963Z" fill="#717171"/>
<path d="M2.53103 12.4963H0.411755C0.184321 12.4963 0 12.3081 0 12.0762C0 11.8443 0.184321 11.6562 0.411755 11.6562H2.53103C2.75847 11.6562 2.94278 11.8443 2.94278 12.0762C2.94278 12.3081 2.75847 12.4963 2.53103 12.4963Z" fill="#717171"/>
</svg>
