<svg width="14" height="14" viewBox="0 0 14 14" fill="none" xmlns="http://www.w3.org/2000/svg">
<g clip-path="url(#clip0_118_6107)">
<mask id="mask0_118_6107" style="mask-type:luminance" maskUnits="userSpaceOnUse" x="0" y="0" width="14" height="14">
<path d="M14 0H0V14H14V0Z" fill="white"/>
</mask>
<g mask="url(#mask0_118_6107)">
<path d="M14 7.00027C14.0002 8.6699 13.4035 10.2846 12.3178 11.553C11.232 12.8214 9.72867 13.6599 8.079 13.9173C8.003 13.9293 7.92667 13.9396 7.85 13.9483C7.60111 13.9791 7.35075 13.9964 7.1 14.0003H6.9C6.64928 13.9971 6.39892 13.9804 6.15 13.9503C6.07333 13.9409 5.997 13.9306 5.921 13.9193C4.59874 13.713 3.36332 13.132 2.36111 12.2451C1.35891 11.3583 0.631931 10.2027 0.266311 8.91537C-0.0993088 7.62803 -0.0882453 6.26286 0.298191 4.98161C0.684627 3.70036 1.43024 2.55674 2.44668 1.68623C3.46313 0.815732 4.7078 0.25484 6.03324 0.0700148C7.35867 -0.114811 8.7093 0.0841762 9.92512 0.643399C11.1409 1.20262 12.171 2.09864 12.8932 3.2253C13.6154 4.35195 13.9995 5.66202 14 7.00027Z" fill="none"/>
<path d="M14 6.99956C14.0001 7.26015 13.9858 7.52056 13.957 7.77956C13.957 7.80856 13.951 7.83656 13.947 7.86556C13.929 8.01089 13.9067 8.15456 13.88 8.29656C13.8747 8.32456 13.8693 8.35256 13.864 8.38056C13.6202 9.58843 13.0622 10.7107 12.2463 11.6341C11.4305 12.5576 10.3856 13.2497 9.217 13.6406C8.862 13.7096 8.736 13.4916 8.736 13.3046C8.736 13.0736 8.744 12.3206 8.744 11.3836C8.76209 11.1455 8.72907 10.9064 8.64714 10.6822C8.56522 10.458 8.43629 10.2539 8.269 10.0836C8.90415 10.0973 9.5285 9.91787 10.0594 9.56894C10.5903 9.22001 11.0027 8.71806 11.242 8.12956C11.252 8.10156 11.261 8.07256 11.271 8.04456C11.299 7.95723 11.324 7.86623 11.346 7.77156C11.353 7.74356 11.359 7.71456 11.365 7.68556C11.4348 7.33831 11.4683 6.98474 11.465 6.63056C11.4758 5.93471 11.2175 5.26157 10.744 4.75156C10.9586 4.14826 10.9347 3.48577 10.677 2.89956C10.677 2.89956 10.09 2.71156 8.754 3.61756C7.60646 3.30326 6.39553 3.30326 5.248 3.61756C3.91 2.71456 3.322 2.89956 3.322 2.89956C3.06425 3.48604 3.03993 4.14876 3.254 4.75256C2.78138 5.26312 2.52323 5.9359 2.533 6.63156C2.52954 6.98575 2.56306 7.33933 2.633 7.68656C2.639 7.71556 2.645 7.74456 2.652 7.77256C2.674 7.86723 2.699 7.95823 2.727 8.04556C2.736 8.07456 2.746 8.10256 2.756 8.13056C2.99457 8.7184 3.40549 9.22025 3.93472 9.5701C4.46395 9.91994 5.08668 10.1014 5.721 10.0906C5.46551 10.3393 5.30763 10.6714 5.276 11.0266C5.10429 11.1232 4.91512 11.1848 4.71945 11.2078C4.52378 11.2308 4.32548 11.2148 4.13604 11.1607C3.9466 11.1065 3.76977 11.0154 3.6158 10.8925C3.46182 10.7695 3.33375 10.6173 3.239 10.4446C3.1268 10.2507 2.97183 10.0849 2.78588 9.95997C2.59994 9.83502 2.38792 9.75416 2.166 9.72356C2.166 9.72356 1.483 9.71456 2.118 10.1486C2.49315 10.3863 2.77061 10.7507 2.9 11.1756C2.9 11.1756 3.311 12.4246 5.258 12.0016C5.258 12.5866 5.267 13.1376 5.267 13.3016C5.267 13.4866 5.139 13.7016 4.789 13.6386C3.61972 13.2487 2.5739 12.5575 1.75698 11.6345C0.940071 10.7116 0.38095 9.58953 0.135998 8.38156C0.130998 8.35356 0.124998 8.32556 0.119998 8.29956C0.0933318 8.15556 0.0709985 8.01089 0.0529985 7.86556C0.0529985 7.83656 0.0459985 7.80856 0.0429985 7.77956C-0.0623241 6.83371 0.0263318 5.87631 0.303548 4.96588C0.580765 4.05545 1.04072 3.21111 1.6553 2.48446C2.26988 1.75782 3.02618 1.16412 3.87798 0.73966C4.72978 0.315201 5.65919 0.0688927 6.60941 0.0157891C7.55962 -0.0373146 8.51069 0.103901 9.40448 0.430807C10.2983 0.757713 11.116 1.26344 11.8077 1.91709C12.4995 2.57073 13.0506 3.35856 13.4276 4.23243C13.8045 5.10631 13.9993 6.04786 14 6.99956Z" fill="#ffffff"/>
<path d="M2.58888 9.94472C2.53788 9.92072 2.48388 9.93072 2.46788 9.96672C2.45188 10.0027 2.47988 10.0487 2.53088 10.0717C2.58188 10.0947 2.63088 10.0857 2.65088 10.0507C2.67088 10.0157 2.63988 9.96772 2.58888 9.94472Z" fill="#ffffff"/>
<path d="M2.91512 10.2203C2.86912 10.1713 2.80612 10.1573 2.77212 10.1883C2.75641 10.2105 2.74973 10.2378 2.75345 10.2648C2.75716 10.2917 2.77099 10.3162 2.79212 10.3333C2.83612 10.3823 2.90212 10.3963 2.93512 10.3663C2.96812 10.3363 2.96112 10.2703 2.91512 10.2203Z" fill="#ffffff"/>
<path d="M3.21206 10.5996C3.16806 10.5376 3.09906 10.5106 3.05606 10.5406C3.01306 10.5706 3.01206 10.6406 3.05606 10.7076C3.10006 10.7746 3.16906 10.7976 3.21306 10.7676C3.25706 10.7376 3.25506 10.6646 3.21206 10.5996Z" fill="#ffffff"/>
<path d="M3.55088 10.9808C3.49088 10.9238 3.40788 10.9118 3.36988 10.9538C3.35278 10.9832 3.3474 11.0179 3.35481 11.0511C3.36223 11.0843 3.38189 11.1135 3.40988 11.1328C3.46988 11.1908 3.55188 11.2018 3.58988 11.1598C3.62788 11.1178 3.61088 11.0368 3.55088 10.9808Z" fill="#ffffff"/>
<path d="M3.99992 11.2411C3.91992 11.2161 3.84092 11.2411 3.82492 11.2971C3.80892 11.3531 3.86092 11.4171 3.93992 11.4411C4.01892 11.4651 4.09792 11.4411 4.11492 11.3841C4.13192 11.3271 4.07492 11.2651 3.99992 11.2411Z" fill="#ffffff"/>
<path d="M4.53206 11.3242C4.44806 11.3242 4.38306 11.3732 4.38306 11.4312C4.38306 11.4892 4.45206 11.5312 4.53506 11.5312C4.61806 11.5312 4.68606 11.4822 4.68406 11.4242C4.68206 11.3662 4.61506 11.3232 4.53206 11.3242Z" fill="#ffffff"/>
<path d="M5.21707 11.337C5.20607 11.28 5.13207 11.246 5.05007 11.26C4.96807 11.274 4.91007 11.333 4.92007 11.391C4.93007 11.449 5.00507 11.482 5.08707 11.467C5.16907 11.452 5.22607 11.393 5.21707 11.337Z" fill="#ffffff"/>
</g>
</g>
<defs>
<clipPath id="clip0_118_6107">
<rect width="14" height="14" fill="white"/>
</clipPath>
</defs>
</svg>
