<svg xmlns="http://www.w3.org/2000/svg" xmlns:xlink="http://www.w3.org/1999/xlink" width="16" height="16" viewBox="0 0 16 16">
  <defs>
    <clipPath id="clip-path">
      <rect id="Rectangle_4770" data-name="Rectangle 4770" width="16" height="16" transform="translate(1257 109)" fill="#fff" stroke="#707070" stroke-width="1"/>
    </clipPath>
  </defs>
  <g id="Mask_Group_315" data-name="Mask Group 315" transform="translate(-1257 -109)" clip-path="url(#clip-path)">
    <path id="Octicons-mark-github" d="M8,0A8,8,0,0,0,5.47,15.59c.4.07.55-.17.55-.38,0-.19-.01-.82-.01-1.49-2.01.37-2.53-.49-2.69-.94a2.909,2.909,0,0,0-.82-1.13c-.28-.15-.68-.52-.01-.53a1.6,1.6,0,0,1,1.23.82,1.71,1.71,0,0,0,2.33.66,1.683,1.683,0,0,1,.51-1.07c-1.78-.2-3.64-.89-3.64-3.95a3.113,3.113,0,0,1,.82-2.15,2.875,2.875,0,0,1,.08-2.12s.67-.21,2.2.82a7.542,7.542,0,0,1,4,0c1.53-1.04,2.2-.82,2.2-.82a2.875,2.875,0,0,1,.08,2.12,3.1,3.1,0,0,1,.82,2.15c0,3.07-1.87,3.75-3.65,3.95a1.9,1.9,0,0,1,.54,1.48c0,1.07-.01,1.93-.01,2.2,0,.21.15.46.55.38A8,8,0,0,0,8,0Z" transform="translate(1257 109.197)" fill="#fff" fill-rule="evenodd"/>
  </g>
</svg>
