<svg xmlns="http://www.w3.org/2000/svg" xmlns:xlink="http://www.w3.org/1999/xlink" width="20" height="20" viewBox="0 0 20 20">
  <defs>
    <clipPath id="clip-path">
      <rect id="Rectangle_4818" data-name="Rectangle 4818" width="20" height="20" transform="translate(0 0)" fill="#fff"/>
    </clipPath>
  </defs>
  <g id="Mask_Group_332" data-name="Mask Group 332" transform="translate(0 0)" clip-path="url(#clip-path)">
    <path id="Octicons-mark-github" d="M9.831,0A9.832,9.832,0,0,0,6.722,19.158c.492.086.676-.209.676-.467,0-.233-.012-1.008-.012-1.831-2.47.455-3.109-.6-3.306-1.155a3.575,3.575,0,0,0-1.008-1.389c-.344-.184-.836-.639-.012-.651a1.967,1.967,0,0,1,1.512,1.008,2.1,2.1,0,0,0,2.863.811,2.068,2.068,0,0,1,.627-1.315c-2.187-.246-4.473-1.094-4.473-4.854A3.826,3.826,0,0,1,4.6,6.673a3.533,3.533,0,0,1,.1-2.605s.823-.258,2.7,1.008a9.269,9.269,0,0,1,4.916,0c1.88-1.278,2.7-1.008,2.7-1.008a3.533,3.533,0,0,1,.1,2.605,3.8,3.8,0,0,1,1.008,2.642c0,3.773-2.3,4.608-4.485,4.854a2.328,2.328,0,0,1,.664,1.819c0,1.315-.012,2.372-.012,2.7,0,.258.184.565.676.467A9.836,9.836,0,0,0,9.831,0Z" transform="translate(0.337 0.035)" fill="#fff" fill-rule="evenodd"/>
  </g>
</svg>
