<svg xmlns="http://www.w3.org/2000/svg" xmlns:xlink="http://www.w3.org/1999/xlink" width="18" height="18" viewBox="0 0 18 18">
  <defs>
    <clipPath id="clip-path">
      <rect id="Rectangle_4818" data-name="Rectangle 4818" width="18" height="18" transform="translate(3593 -10043)" fill="#231f20"/>
    </clipPath>
  </defs>
  <g id="Mask_Group_332" data-name="Mask Group 332" transform="translate(-3593 10043)" clip-path="url(#clip-path)">
    <path id="Octicons-mark-github" d="M9,0A9,9,0,0,0,6.154,17.539c.45.079.619-.191.619-.427,0-.214-.011-.922-.011-1.676-2.261.416-2.846-.551-3.026-1.058a3.273,3.273,0,0,0-.922-1.271c-.315-.169-.765-.585-.011-.6a1.8,1.8,0,0,1,1.384.922,1.924,1.924,0,0,0,2.621.743,1.893,1.893,0,0,1,.574-1.2c-2-.225-4.1-1-4.1-4.444a3.5,3.5,0,0,1,.922-2.419A3.234,3.234,0,0,1,4.3,3.724s.754-.236,2.475.923a8.485,8.485,0,0,1,4.5,0c1.721-1.17,2.475-.923,2.475-.923a3.234,3.234,0,0,1,.09,2.385,3.482,3.482,0,0,1,.922,2.419c0,3.454-2.1,4.219-4.106,4.444a2.131,2.131,0,0,1,.608,1.665c0,1.2-.011,2.171-.011,2.475,0,.236.169.517.619.427A9,9,0,0,0,9,0Z" transform="translate(3593 -10042.778)" fill="#231f20" fill-rule="evenodd"/>
  </g>
</svg>
