<svg width="16" height="16" viewBox="0 0 16 16" fill="none" xmlns="http://www.w3.org/2000/svg">
<path d="M8 0C3.60315 0 0 3.6344 0 8.03125C0 12.4026 3.57031 16 8 16C12.4242 16 16 12.408 16 8.03125C16 3.6344 12.3969 0 8 0ZM9.40625 14.9219C8.9563 15.0156 8.47815 15.0625 8 15.0625C7.52185 15.0625 7.0437 15.0156 6.59375 14.9219V12.7281C6.59375 12.2031 6.73438 12.0156 6.92188 11.7625C7.01733 11.6533 7.07495 11.5554 7.50305 10.9094L6.78125 10.7969C4.92493 10.525 4.19373 9.55933 3.90308 8.80933C3.52808 7.80627 3.72498 6.54993 4.40002 5.75317C4.50317 5.63123 4.58752 5.42493 4.51257 5.20935C4.37183 4.77808 4.39062 4.09375 4.48438 3.83118C4.98145 3.90222 5.49255 4.2583 5.91882 4.51562C6.11523 4.63025 6.21826 4.59998 6.3125 4.60938C6.65503 4.53809 7.18933 4.3656 8.0094 4.3656C8.51562 4.3656 9.05005 4.44055 9.57507 4.59058C9.66895 4.58838 9.81982 4.66821 10.0813 4.51562C10.5269 4.24414 11.0206 3.90027 11.5156 3.83118C11.6094 4.09375 11.6282 4.77808 11.4875 5.20935C11.4125 5.42493 11.4968 5.63123 11.6001 5.75317C12.275 6.55005 12.4719 7.80627 12.0969 8.80933C11.8063 9.55933 11.0751 10.525 9.21875 10.7969L8.49695 10.9094C8.93945 11.5771 8.98608 11.6572 9.07825 11.7625C9.26562 12.0156 9.40625 12.2031 9.40625 12.7281V14.9219ZM10.3438 14.65V12.7281C10.3438 12.1937 10.2312 11.8375 10.0812 11.575C11.5062 11.1907 12.5188 10.3468 12.9688 9.13745C13.4469 7.86255 13.2313 6.34375 12.4343 5.2937C12.5751 4.66565 12.5751 3.66248 12.2375 3.19373C12.0875 2.98755 11.8812 2.875 11.6188 2.875C11.6094 2.875 11.6094 2.875 11.6094 2.875C10.8824 2.91431 10.3103 3.2804 9.6969 3.65308C9.1344 3.50305 8.5625 3.4281 7.9906 3.4281C7.40942 3.4281 6.82812 3.51245 6.31262 3.65308C5.66687 3.26367 5.10022 2.91333 4.35315 2.875C4.11877 2.875 3.91248 2.98755 3.76245 3.19373C3.42505 3.66248 3.42505 4.66565 3.56567 5.2937C2.76868 6.34375 2.5531 7.87183 3.03125 9.13745C3.4812 10.3468 4.49377 11.1907 5.91882 11.575C5.80249 11.7784 5.71045 12.041 5.67419 12.3964C5.38635 12.4956 5.13672 12.528 4.90454 12.4597C4.65967 12.3873 4.46887 12.2239 4.3031 11.9451C3.93079 11.3196 3.29663 10.809 2.57458 10.8754L2.65698 11.8092C2.99133 11.7786 3.3241 12.1323 3.49695 12.424C3.7821 12.9042 4.16626 13.2191 4.63904 13.3588C4.98999 13.4622 5.31079 13.4597 5.65625 13.386V14.65C2.9281 13.6937 0.9375 11.0875 0.9375 8.03125C0.9375 4.15002 4.11877 0.9375 8 0.9375C11.8812 0.9375 15.0625 4.15002 15.0625 8.03125C15.0625 11.0875 13.0719 13.6937 10.3438 14.65Z" fill="#000000"/>
</svg>
