<svg width="16" height="16" viewBox="0 0 18 18" fill="none" xmlns="http://www.w3.org/2000/svg">
<path d="M9 0.95C4.55006 0.95 0.95 4.56216 0.95 9C0.95 13.4275 4.53704 17.05 9 17.05C13.4484 17.05 17.05 13.4389 17.05 9C17.05 4.56503 13.4521 0.95 9 0.95ZM16.3006 9.37C16.2214 10.9412 15.6392 12.4413 14.6363 13.6544C14.0302 13.347 13.3497 13.1049 12.6861 12.9295C12.9977 11.8485 13.1763 10.6351 13.2054 9.37H16.3006ZM3.36371 13.6545C2.36078 12.4413 1.77857 10.9412 1.69934 9.37H4.79452C4.82373 10.6351 5.00232 11.8485 5.31388 12.9296C4.64999 13.1051 3.97996 13.3429 3.36371 13.6545ZM1.69934 8.63C1.77856 7.05873 2.36078 5.55872 3.3637 4.3455C3.97907 4.65679 4.65091 4.89485 5.31389 5.07043C5.00232 6.15147 4.82373 7.36487 4.79452 8.63H1.69934ZM12.4576 4.36667C12.1537 3.531 11.7136 2.66195 11.109 2.00206C12.2311 2.34087 13.2649 2.94686 14.1136 3.77713C13.5912 4.02313 13.0018 4.22771 12.4576 4.36667ZM9.37 4.78513V1.73347C10.1072 1.90602 10.8139 2.59384 11.3843 3.7349C11.5098 3.98591 11.6252 4.25228 11.7302 4.53182C10.9527 4.68416 10.1565 4.76579 9.37 4.78513ZM6.61563 3.7349C7.18617 2.59384 7.89278 1.90599 8.63 1.73347V4.78513C7.8371 4.76565 7.03889 4.68279 6.26979 4.53184C6.37476 4.25227 6.49015 3.98589 6.61563 3.7349ZM6.03488 5.23869C6.84018 5.40247 7.71745 5.50389 8.63 5.52533V8.63H5.53468C5.56386 7.41774 5.73613 6.26095 6.03488 5.23869ZM8.63 9.37V12.4747C7.76618 12.495 6.87864 12.589 6.0349 12.7613C5.73613 11.739 5.56386 10.5822 5.53468 9.37H8.63ZM6.26978 13.4681C7.01075 13.3222 7.81302 13.235 8.63 13.2149V16.2665C7.89278 16.094 7.18616 15.4061 6.61563 14.2651C6.49012 14.0141 6.37475 13.7477 6.26978 13.4681ZM9.37 16.2665V13.2149C10.1851 13.2349 10.9844 13.3215 11.7302 13.4681C11.6252 13.7477 11.5098 14.0141 11.3843 14.2651C10.8138 15.4061 10.1072 16.094 9.37 16.2665ZM11.9651 12.7613C11.1642 12.5979 10.2814 12.4961 9.37 12.4747V9.37H12.4653C12.4361 10.5823 12.2639 11.739 11.9651 12.7613ZM9.37 8.63V5.52533C10.2924 5.50366 11.1666 5.40089 11.9651 5.23869C12.2639 6.26091 12.4361 7.41773 12.4653 8.63H9.37ZM6.89098 2.00206C6.28554 2.66285 5.84568 3.53284 5.5424 4.36658C4.98201 4.22239 4.40801 4.02334 3.88632 3.77717C4.73506 2.94688 5.76888 2.34088 6.89098 2.00206ZM3.88631 14.2228C4.40869 13.9763 4.98293 13.778 5.54242 13.6335C5.84558 14.467 6.28549 15.3371 6.89097 15.9979C5.76887 15.6591 4.73505 15.0531 3.88631 14.2228ZM11.109 15.9979C11.7145 15.3371 12.1545 14.4669 12.4576 13.6333C12.995 13.7706 13.5912 13.9763 14.1137 14.2228C13.2649 15.0531 12.2311 15.6591 11.109 15.9979ZM16.3007 8.63003L13.2055 8.63C13.1763 7.36488 12.9977 6.15149 12.6861 5.07046C13.3601 4.8923 14.0341 4.6504 14.6363 4.34554C15.6392 5.55873 16.2215 7.05877 16.3007 8.63003Z" fill="#717171" stroke="#717171" stroke-width="0.1"/>
</svg>
