<svg width="16" height="16" viewBox="0 0 16 16" fill="none" xmlns="http://www.w3.org/2000/svg">
<g clip-path="url(#clip0_6074_1528)">
<path d="M7.99967 14.6663C11.6816 14.6663 14.6663 11.6816 14.6663 7.99967C14.6663 4.31778 11.6816 1.33301 7.99967 1.33301C4.31778 1.33301 1.33301 4.31778 1.33301 7.99967C1.33301 11.6816 4.31778 14.6663 7.99967 14.6663Z" stroke="#FC6D35"/>
<path d="M5.33301 7.99967C5.33301 11.9997 7.99967 14.6663 7.99967 14.6663C7.99967 14.6663 10.6663 11.9997 10.6663 7.99967C10.6663 3.99967 7.99967 1.33301 7.99967 1.33301C7.99967 1.33301 5.33301 3.99967 5.33301 7.99967Z" stroke="#FC6D35" stroke-linejoin="round"/>
<path d="M14 10H2" stroke="#FC6D35" stroke-linecap="round" stroke-linejoin="round"/>
<path d="M14 6H2" stroke="#FC6D35" stroke-linecap="round" stroke-linejoin="round"/>
</g>
<defs>
<clipPath id="clip0_6074_1528">
<rect width="16" height="16" fill="white"/>
</clipPath>
</defs>
</svg>
