<svg width="120" height="60" viewBox="0 0 120 60" fill="none" xmlns="http://www.w3.org/2000/svg">
<path d="M25.35 36.1495C23.1 35.8495 20.85 35.5495 18.6 35.2495C18.225 35.1745 18 35.3245 17.85 35.6245C16.725 37.7245 15.6 39.8245 14.55 41.9245C14.325 42.2995 14.1 42.4495 13.65 42.3745C12.6 42.1495 12.3 41.9245 12.15 40.8745C11.7 38.7745 11.325 36.6745 10.875 34.5745C10.8 34.1995 10.65 34.0495 10.275 33.9745C8.175 33.5995 6.075 33.1495 3.975 32.7745C2.925 32.5495 2.325 31.9495 2.25 30.8995C2.25 30.5995 2.475 30.5995 2.625 30.5245C4.8 29.3995 6.9 28.1995 9.075 27.0745C9.45 26.8495 9.525 26.6995 9.45 26.2495C9.15 24.0745 8.925 21.8995 8.625 19.7245C8.55 18.8245 9.075 17.9245 9.9 17.6245C10.125 17.5495 10.2 17.7745 10.35 17.8495C12.075 19.4995 13.875 21.1495 15.6 22.7995C15.975 23.1745 16.275 23.1745 16.725 22.9495C18.675 21.9745 20.7 21.0745 22.575 20.0245C23.175 19.7245 23.55 19.7995 24.075 20.1745C24.525 20.6245 24.675 21.0745 24.45 21.7495C24.075 22.6495 23.7 23.4745 23.325 24.2995C22.8 25.4995 22.2 26.6995 21.675 27.8995C21.45 28.2745 21.525 28.5745 21.825 28.8745C23.475 30.5995 25.2 32.3245 26.85 34.1245C27.225 34.5745 27.225 34.8745 26.925 35.3245C26.55 35.9245 26.025 36.1495 25.35 36.1495ZM23.175 21.4495C22.95 21.5245 22.725 21.5995 22.5 21.7495C20.475 22.7245 18.45 23.6995 16.425 24.6745C16.05 24.8245 15.825 24.8245 15.6 24.5245C14.1 23.0245 12.525 21.5995 11.025 20.1745C10.725 19.8745 10.425 19.6495 10.125 19.3495C10.125 19.6495 10.125 19.7995 10.125 19.9495C10.425 22.1995 10.65 24.5245 11.025 26.7745C11.1 27.2995 10.95 27.5245 10.5 27.8245C8.85 28.6495 7.2 29.5495 5.55 30.4495C4.95 30.7495 4.5 31.0495 3.9 31.3495C4.2 31.4245 4.35 31.4995 4.575 31.4995C6.9 31.9495 9.15 32.3995 11.475 32.8495C11.85 32.9245 12 33.0745 12.075 33.4495C12.3 34.8745 12.6 36.2245 12.9 37.6495C13.125 38.7745 13.35 39.8245 13.575 41.0995C13.725 40.7995 13.875 40.5745 13.95 40.4245C15 38.3995 16.125 36.3745 17.175 34.3495C17.4 33.9745 17.625 33.8245 18.075 33.8995C19.65 34.1245 21.3 34.3495 22.875 34.5745C23.775 34.7245 24.675 34.7995 25.725 34.9495C25.425 34.6495 25.275 34.4995 25.125 34.3495C23.55 32.6995 21.9 31.0495 20.325 29.3995C20.025 29.0995 20.025 28.8745 20.175 28.5745C20.7 27.5245 21.225 26.3995 21.675 25.3495C22.125 23.9245 22.8 22.7995 23.175 21.4495C23.325 21.4495 23.25 21.5245 23.175 21.4495Z" fill="#708082"/>
<path d="M23.25 21.5245C22.8 22.7995 22.2 23.9245 21.675 25.1245C21.225 26.1745 20.7 27.2995 20.175 28.3495C20.025 28.7245 20.025 28.8745 20.325 29.1745C21.9 30.8245 23.55 32.4745 25.125 34.1245C25.275 34.2745 25.425 34.4245 25.725 34.7245C24.675 34.5745 23.775 34.4995 22.875 34.3495C21.3 34.1245 19.65 33.9745 18.075 33.6745C17.625 33.5995 17.4 33.7495 17.175 34.1245C16.125 36.1495 15.075 38.1745 13.95 40.1995C13.875 40.3495 13.725 40.5745 13.575 40.8745C13.35 39.6745 13.125 38.5495 12.9 37.4245C12.6 35.9995 12.375 34.6495 12.075 33.2245C12 32.8495 11.85 32.6995 11.475 32.6245C9.14999 32.1745 6.89999 31.7245 4.57499 31.2745C4.42499 31.2745 4.19999 31.1995 3.89999 31.1245C4.49999 31.0495 4.94999 30.7495 5.47499 30.4495C7.12499 29.5495 8.77499 28.6495 10.425 27.8245C10.875 27.5995 11.025 27.2995 10.95 26.7745C10.65 24.5245 10.35 22.1995 10.05 19.9495C10.05 19.7995 10.05 19.6495 10.05 19.3495C10.425 19.6495 10.725 19.9495 10.95 20.1745C12.45 21.5995 14.025 23.0995 15.525 24.5245C15.825 24.8245 16.05 24.8245 16.35 24.6745C18.375 23.6995 20.4 22.7245 22.425 21.7495C22.725 21.6745 22.95 21.5995 23.25 21.5245C23.175 21.5245 23.175 21.5245 23.25 21.5245ZM9.82499 30.1495C9.82499 30.2245 9.82499 30.2245 9.82499 30.2995C10.725 30.4495 11.625 30.5995 12.525 30.7495C13.875 30.9745 13.875 30.9745 14.1 32.3995C14.25 33.2995 14.4 34.1245 14.55 35.0245C14.625 35.0245 14.625 35.0245 14.7 35.0245C16.35 31.7995 18 28.5745 19.65 25.3495L19.575 25.2745C16.275 26.9245 13.05 28.5745 9.82499 30.1495Z" fill="#020101"/>
<path d="M23.175 21.4495C23.25 21.5245 23.325 21.4495 23.175 21.4495C23.175 21.5245 23.175 21.5245 23.175 21.4495Z" fill="#020101"/>
<path d="M9.825 30.1492C13.05 28.4992 16.275 26.8492 19.5 25.1992L19.575 25.2742C17.925 28.4992 16.275 31.7242 14.625 34.9492C14.55 34.9492 14.55 34.9492 14.475 34.9492C14.325 34.0492 14.175 33.2242 14.025 32.3242C13.8 30.8992 13.8 30.8992 12.45 30.6742C11.55 30.5242 10.65 30.3742 9.75 30.2242C9.825 30.2992 9.825 30.2242 9.825 30.1492Z" fill="#B02039"/>
<path d="M33.75 30.0004C33.75 26.7754 36.225 24.1504 39.6 24.1504C41.55 24.1504 42.825 24.6754 43.95 25.7254L42.675 27.2254C41.775 26.4754 40.95 26.0254 39.45 26.0254C37.35 26.0254 35.775 27.8254 35.775 30.0754C35.775 32.4004 37.35 34.1254 39.675 34.1254C40.725 34.1254 41.7 33.7504 42.45 33.3004V31.2004H39.525V29.4754H44.4V34.2754C43.275 35.2504 41.7 36.0754 39.675 36.0754C36.075 35.8504 33.75 33.3754 33.75 30.0004Z" fill="black"/>
<path d="M46.5 30.0004C46.5 26.7754 48.975 24.1504 52.5 24.1504C56.025 24.1504 58.425 26.7754 58.425 30.0004C58.425 33.2254 55.95 35.8504 52.425 35.8504C48.9 35.8504 46.5 33.2254 46.5 30.0004ZM56.25 30.0004C56.25 27.7504 54.675 25.9504 52.35 25.9504C50.1 25.9504 48.525 27.7504 48.525 30.0004C48.525 32.1754 50.1 34.0504 52.425 34.0504C54.675 34.0504 56.25 32.2504 56.25 30.0004Z" fill="black"/>
<path d="M61.2002 24.3008H68.4002V26.1008H63.2252V29.2508H67.6502V31.0508H63.2252V35.7008H61.2002V24.3008Z" fill="black"/>
<path d="M73.7999 24.2246H75.6749L80.6999 35.6996H78.5999L77.4749 32.9246H71.9999L70.7999 35.6996H68.7749L73.7999 24.2246ZM76.6499 31.1996L74.6999 26.6246L72.7499 31.1996H76.6499Z" fill="black"/>
<path d="M83.0249 24.3008H85.1249L88.5749 29.7008L92.0249 24.3008H94.1249V35.7008H92.2499V27.5258L88.6499 32.9258H88.5749L85.0499 27.6008V35.7008H83.0999V24.3008H83.0249Z" fill="black"/>
<path d="M97.5752 24.3008H105.15V26.1008H99.6002V29.0258H104.475V30.8258H99.6002V33.9008H105.225V35.7008H97.5752V24.3008Z" fill="black"/>
<path d="M108.075 24.3008H113.175C115.875 24.3008 117.375 25.7258 117.375 27.9008C117.375 29.7758 116.25 30.9008 114.675 31.3508L117.75 35.6258H115.425L112.575 31.6508H110.1V35.6258H108.075V24.3008ZM112.95 29.9258C114.375 29.9258 115.275 29.1758 115.275 27.9758C115.275 26.7758 114.375 26.1008 112.95 26.1008H110.025V29.9258H112.95Z" fill="black"/>
</svg>
