<svg width="156" height="24" viewBox="0 0 156 24" fill="none" xmlns="http://www.w3.org/2000/svg">
<path d="M19.2188 6.29269H20.0849L22.5532 3.82444L22.6745 2.77651C21.2605 1.52848 19.5516 0.661524 17.7094 0.257527C15.8672 -0.146471 13.9524 -0.0741691 12.1458 0.467602C10.3393 1.00937 8.70073 2.00273 7.38487 3.35383C6.069 4.70493 5.11931 6.36918 4.62549 8.18936C4.90047 8.07665 5.20508 8.05837 5.49156 8.13739L10.4282 7.3233C10.4282 7.3233 10.6793 6.90759 10.8093 6.93357C11.867 5.77191 13.3288 5.05848 14.8954 4.93933C16.462 4.82019 18.0149 5.30435 19.2362 6.29269H19.2188Z" fill="#EA4335"/>
<path d="M26.0688 8.18544C25.5015 6.09619 24.3366 4.21799 22.7171 2.78125L19.2528 6.24547C19.9748 6.8354 20.5534 7.58157 20.945 8.42771C21.3366 9.27384 21.5309 10.1978 21.5133 11.13V11.7449C21.9182 11.7449 22.3191 11.8247 22.6932 11.9796C23.0673 12.1346 23.4072 12.3617 23.6935 12.648C23.9798 12.9343 24.2069 13.2741 24.3618 13.6482C24.5168 14.0223 24.5965 14.4232 24.5965 14.8281C24.5965 15.233 24.5168 15.6339 24.3618 16.008C24.2069 16.382 23.9798 16.7219 23.6935 17.0082C23.4072 17.2945 23.0673 17.5216 22.6932 17.6765C22.3191 17.8315 21.9182 17.9112 21.5133 17.9112H15.3468L14.7319 18.5348V22.2329L15.3468 22.8478H21.5133C23.2353 22.8612 24.9158 22.32 26.3063 21.3042C27.6969 20.2885 28.7235 18.8522 29.2344 17.2078C29.7454 15.5633 29.7134 13.7981 29.1433 12.1733C28.5732 10.5484 27.4952 9.15017 26.0688 8.18544Z" fill="#4285F4"/>
<path d="M9.17168 22.8152H15.3381V17.8787H9.17168C8.73235 17.8786 8.29817 17.7841 7.89855 17.6016L7.03247 17.87L4.54684 20.3383L4.33032 21.2044C5.72421 22.2569 7.42505 22.8228 9.17168 22.8152Z" fill="#34A853"/>
<path d="M9.17189 6.80474C7.50108 6.81472 5.8751 7.34628 4.52107 8.32519C3.16703 9.30409 2.15255 10.6815 1.61932 12.2649C1.08609 13.8483 1.06074 15.5588 1.54682 17.1573C2.03289 18.7558 3.0061 20.1627 4.33054 21.1813L7.90742 17.6045C7.45288 17.3991 7.05494 17.0865 6.74775 16.6936C6.44056 16.3006 6.2333 15.839 6.14375 15.3483C6.05419 14.8576 6.08502 14.3526 6.23358 13.8764C6.38214 13.4003 6.644 12.9673 6.9967 12.6146C7.34939 12.2619 7.78239 12.0001 8.25854 11.8515C8.73469 11.703 9.23977 11.6721 9.73045 11.7617C10.2211 11.8512 10.6828 12.0585 11.0757 12.3657C11.4687 12.6729 11.7813 13.0708 11.9866 13.5253L15.5635 9.94852C14.8128 8.96707 13.8451 8.17259 12.7363 7.62721C11.6275 7.08183 10.4076 6.80033 9.17189 6.80474Z" fill="#FBBC05"/>
<path d="M46.0144 19.3673C44.9527 19.3808 43.8992 19.1799 42.917 18.7766C41.9348 18.3734 41.0441 17.776 40.2983 17.0203C39.529 16.2967 38.9185 15.4211 38.5055 14.449C38.0925 13.477 37.8861 12.4297 37.8993 11.3736C37.8866 10.3176 38.0933 9.27051 38.5062 8.29853C38.9192 7.32655 39.5294 6.45087 40.2983 5.72693C41.0405 4.96342 41.9295 4.35803 42.9119 3.94723C43.8943 3.53643 44.9496 3.32872 46.0144 3.33662C47.029 3.3231 48.0361 3.51137 48.9772 3.8905C49.9184 4.26963 50.7748 4.83205 51.4966 5.54506L49.955 7.11262C48.8993 6.09237 47.4824 5.53185 46.0144 5.55372C45.2529 5.54437 44.4977 5.69353 43.797 5.99172C43.0962 6.28991 42.4651 6.73062 41.9438 7.28583C41.4021 7.82328 40.9747 8.46482 40.6874 9.1718C40.4002 9.87879 40.259 10.6366 40.2723 11.3996C40.266 12.1539 40.4106 12.9018 40.6976 13.5994C40.9847 14.297 41.4084 14.93 41.9438 15.4614C43.0164 16.5302 44.4637 17.1382 45.9777 17.156C47.4918 17.1738 48.953 16.6 50.0503 15.5567C50.7296 14.8127 51.1464 13.8666 51.2368 12.8632H46.0404V10.6461H53.3933C53.4656 11.0926 53.4946 11.5451 53.48 11.9972C53.5257 12.9329 53.3812 13.8681 53.0552 14.7464C52.7292 15.6246 52.2284 16.4277 51.5833 17.1069C50.8659 17.8537 49.9992 18.441 49.0397 18.8305C48.0802 19.22 47.0493 19.4029 46.0144 19.3673ZM63.1107 17.895C62.1239 18.8409 60.8098 19.369 59.4429 19.369C58.0759 19.369 56.7618 18.8409 55.775 17.895C55.2839 17.4188 54.8971 16.8457 54.6391 16.2121C54.3812 15.5784 54.2578 14.8981 54.2767 14.2143C54.2583 13.5305 54.382 12.8503 54.6399 12.2168C54.8978 11.5832 55.2843 11.0101 55.775 10.5335C56.7629 9.58963 58.0766 9.06288 59.4429 9.06288C60.8092 9.06288 62.1229 9.58963 63.1107 10.5335C63.6014 11.0101 63.988 11.5832 64.2459 12.2168C64.5038 12.8503 64.6274 13.5305 64.609 14.2143C64.6268 14.8988 64.5021 15.5795 64.2426 16.2131C63.9832 16.8468 63.5948 17.4195 63.102 17.895H63.1107ZM57.3946 16.4487C57.6571 16.729 57.9743 16.9524 58.3266 17.1052C58.6789 17.2579 59.0589 17.3368 59.4429 17.3368C59.8269 17.3368 60.2068 17.2579 60.5591 17.1052C60.9115 16.9524 61.2287 16.729 61.4911 16.4487C61.7773 16.1529 62.0014 15.8028 62.1502 15.4191C62.2989 15.0353 62.3693 14.6257 62.3572 14.2143C62.37 13.8015 62.2999 13.3903 62.1512 13.0051C62.0024 12.6198 61.778 12.2683 61.4911 11.9712C61.2252 11.6938 60.9059 11.473 60.5524 11.3222C60.1989 11.1714 59.8185 11.0936 59.4342 11.0936C59.0499 11.0936 58.6696 11.1714 58.3161 11.3222C57.9626 11.473 57.6432 11.6938 57.3773 11.9712C57.0904 12.2683 56.866 12.6198 56.7173 13.0051C56.5685 13.3903 56.4985 13.8015 56.5112 14.2143C56.5003 14.6263 56.572 15.0363 56.7223 15.4201C56.8725 15.8039 57.0982 16.1536 57.3859 16.4487H57.3946ZM74.387 17.895C73.4002 18.8409 72.0861 19.369 70.7192 19.369C69.3522 19.369 68.0381 18.8409 67.0513 17.895C66.5602 17.4188 66.1734 16.8457 65.9154 16.2121C65.6575 15.5784 65.5341 14.8981 65.553 14.2143C65.5346 13.5305 65.6583 12.8503 65.9162 12.2168C66.1741 11.5832 66.5606 11.0101 67.0513 10.5335C68.0381 9.58765 69.3522 9.05956 70.7192 9.05956C72.0861 9.05956 73.4002 9.58765 74.387 10.5335C74.8777 11.0101 75.2643 11.5832 75.5221 12.2168C75.78 12.8503 75.9037 13.5305 75.8853 14.2143C75.9042 14.8981 75.7808 15.5784 75.5229 16.2121C75.265 16.8457 74.8781 17.4188 74.387 17.895ZM68.6709 16.4487C68.9334 16.729 69.2506 16.9524 69.6029 17.1052C69.9552 17.2579 70.3352 17.3368 70.7192 17.3368C71.1032 17.3368 71.4831 17.2579 71.8354 17.1052C72.1877 16.9524 72.5049 16.729 72.7674 16.4487C73.0536 16.1529 73.2777 15.8028 73.4264 15.4191C73.5752 15.0353 73.6456 14.6257 73.6335 14.2143C73.6463 13.8015 73.5762 13.3903 73.4275 13.0051C73.2787 12.6198 73.0543 12.2683 72.7674 11.9712C72.5015 11.6938 72.1821 11.473 71.8287 11.3222C71.4752 11.1714 71.0948 11.0936 70.7105 11.0936C70.3262 11.0936 69.9458 11.1714 69.5923 11.3222C69.2389 11.473 68.9195 11.6938 68.6536 11.9712C68.3667 12.2683 68.1423 12.6198 67.9935 13.0051C67.8448 13.3903 67.7747 13.8015 67.7875 14.2143C67.7766 14.6263 67.8483 15.0363 67.9986 15.4201C68.1488 15.8039 68.3745 16.1536 68.6622 16.4487H68.6709ZM81.8006 23.992C80.7625 24.0251 79.7445 23.701 78.9165 23.074C78.1814 22.5214 77.6024 21.7872 77.2364 20.9435L79.211 20.1208C79.4259 20.625 79.7621 21.0683 80.1897 21.4112C80.6473 21.7801 81.2216 21.9736 81.8092 21.9568C82.1819 21.9795 82.555 21.9216 82.9032 21.7871C83.2514 21.6526 83.5666 21.4446 83.8272 21.1774C84.349 20.548 84.6066 19.7409 84.546 18.9256V18.1808H84.4681C84.1381 18.5728 83.7213 18.8825 83.2507 19.0855C82.7802 19.2884 82.2689 19.379 81.7573 19.35C81.107 19.352 80.4634 19.219 79.8671 18.9597C79.2709 18.7003 78.7349 18.3201 78.293 17.843C77.8135 17.3698 77.435 16.8042 77.1805 16.1805C76.9259 15.5568 76.8006 14.8879 76.812 14.2143C76.8 13.5368 76.925 12.8638 77.1795 12.2358C77.434 11.6078 77.8127 11.0376 78.293 10.5595C78.7338 10.0805 79.2694 9.69839 79.8658 9.43747C80.4622 9.17656 81.1063 9.04253 81.7573 9.04392C82.3082 9.04296 82.8525 9.16423 83.3509 9.39901C83.782 9.58729 84.1664 9.86819 84.4767 10.2218H84.5547V9.39901H86.7026V18.6225C86.7591 19.3521 86.6661 20.0856 86.4294 20.7781C86.1926 21.4705 85.817 22.1074 85.3255 22.6497C84.8574 23.0975 84.3043 23.447 83.6989 23.6775C83.0935 23.9081 82.448 24.015 81.8006 23.992ZM81.9565 17.3407C82.3263 17.3489 82.6934 17.2755 83.0316 17.1258C83.3699 16.9761 83.6711 16.7538 83.9138 16.4747C84.4482 15.8623 84.7299 15.0698 84.7019 14.2576C84.734 13.4316 84.4525 12.6241 83.9138 11.9972C83.6715 11.7176 83.3704 11.4949 83.032 11.3452C82.6936 11.1955 82.3264 11.1224 81.9565 11.1311C81.5765 11.1233 81.1993 11.1965 80.8499 11.3458C80.5004 11.4952 80.1868 11.7172 79.9299 11.9972C79.357 12.6016 79.0457 13.4077 79.0638 14.2403C79.055 14.6486 79.127 15.0547 79.2756 15.4352C79.4242 15.8157 79.6466 16.1631 79.9299 16.4574C80.1856 16.74 80.4986 16.965 80.848 17.1173C81.1975 17.2696 81.5753 17.3458 81.9565 17.3407ZM90.5219 3.91687V19.0555H88.2615V3.91687H90.5219ZM96.723 19.3673C96.0461 19.3847 95.3728 19.2622 94.7454 19.0073C94.118 18.7525 93.55 18.3709 93.0769 17.8864C92.5968 17.4054 92.2195 16.8319 91.9679 16.2006C91.7163 15.5694 91.5956 14.8936 91.6132 14.2143C91.5876 13.5333 91.6994 12.8541 91.9419 12.2173C92.1845 11.5805 92.5528 10.999 93.0249 10.5076C93.4698 10.0386 94.0078 9.66765 94.6043 9.41859C95.2009 9.16954 95.8429 9.04782 96.4892 9.06124C97.0835 9.05497 97.6729 9.16989 98.2213 9.39901C98.7154 9.5984 99.1655 9.89262 99.5464 10.2651C99.8735 10.5808 100.164 10.9323 100.413 11.313C100.613 11.6344 100.785 11.9736 100.924 12.3263L101.157 12.9152L94.2287 15.7645C94.4383 16.246 94.7888 16.6526 95.2341 16.9309C95.6793 17.2092 96.1984 17.346 96.723 17.3234C97.2334 17.3248 97.7355 17.1939 98.1802 16.9435C98.625 16.693 98.9972 16.3316 99.2606 15.8944L100.993 17.0636C100.551 17.696 99.9851 18.2322 99.3299 18.6398C98.5508 19.1321 97.6444 19.385 96.723 19.3673ZM93.8303 14.0584L98.4379 12.1444C98.2959 11.8069 98.0421 11.5286 97.719 11.3563C97.3573 11.152 96.9479 11.0474 96.5325 11.0532C95.8277 11.0714 95.1585 11.3671 94.6704 11.8759C94.3784 12.1554 94.1516 12.496 94.0064 12.8732C93.8612 13.2505 93.8011 13.6552 93.8303 14.0584ZM112.997 19.3673C112.035 19.3839 111.08 19.2061 110.19 18.8445C109.299 18.4829 108.49 17.945 107.812 17.2632C107.134 16.5813 106.601 15.7695 106.245 14.8765C105.889 13.9835 105.717 13.0277 105.739 12.0665C105.717 11.1053 105.889 10.1495 106.245 9.25645C106.601 8.36344 107.134 7.55162 107.812 6.86975C108.49 6.18788 109.299 5.65001 110.19 5.28843C111.08 4.92685 112.035 4.74901 112.997 4.76561C113.97 4.73519 114.937 4.92503 115.826 5.32094C116.716 5.71686 117.504 6.30861 118.132 7.052L116.885 8.26447C116.424 7.68412 115.832 7.22086 115.158 6.91236C114.484 6.60386 113.746 6.45883 113.005 6.48906C112.292 6.47299 111.583 6.60127 110.921 6.86619C110.258 7.13111 109.657 7.52719 109.151 8.03064C108.626 8.55895 108.215 9.19018 107.946 9.88471C107.676 10.5792 107.553 11.322 107.584 12.0665C107.553 12.8109 107.676 13.5537 107.946 14.2482C108.215 14.9427 108.626 15.574 109.151 16.1023C109.657 16.6057 110.258 17.0018 110.921 17.2667C111.583 17.5316 112.292 17.6599 113.005 17.6439C113.833 17.6531 114.652 17.4757 115.402 17.1249C116.151 16.774 116.812 16.2587 117.336 15.6173L118.583 16.8644C117.93 17.6452 117.11 18.2697 116.184 18.6918C115.185 19.1527 114.096 19.3836 112.997 19.3673ZM121.934 19.0555H120.142V5.06873H121.934V19.0555ZM124.862 10.6375C125.801 9.70455 127.071 9.18098 128.395 9.18098C129.719 9.18098 130.99 9.70455 131.929 10.6375C132.388 11.1225 132.747 11.6935 132.985 12.3178C133.223 12.9421 133.335 13.6072 133.315 14.2749C133.335 14.9426 133.223 15.6077 132.985 16.232C132.747 16.8563 132.388 17.4273 131.929 17.9123C130.99 18.8453 129.719 19.3688 128.395 19.3688C127.071 19.3688 125.801 18.8453 124.862 17.9123C124.402 17.4273 124.043 16.8563 123.806 16.232C123.568 15.6077 123.456 14.9426 123.476 14.2749C123.456 13.6072 123.568 12.9421 123.806 12.3178C124.043 11.6935 124.402 11.1225 124.862 10.6375ZM126.196 16.7865C126.478 17.085 126.818 17.3228 127.196 17.4853C127.573 17.6478 127.98 17.7316 128.391 17.7316C128.802 17.7316 129.209 17.6478 129.586 17.4853C129.964 17.3228 130.304 17.085 130.587 16.7865C130.9 16.4502 131.143 16.055 131.302 15.6238C131.461 15.1926 131.533 14.7341 131.513 14.2749C131.533 13.8157 131.461 13.3572 131.302 12.926C131.143 12.4948 130.9 12.0996 130.587 11.7633C130.304 11.4648 129.964 11.227 129.586 11.0645C129.209 10.902 128.802 10.8182 128.391 10.8182C127.98 10.8182 127.573 10.902 127.196 11.0645C126.818 11.227 126.478 11.4648 126.196 11.7633C125.882 12.0996 125.639 12.4948 125.48 12.926C125.321 13.3572 125.249 13.8157 125.269 14.2749C125.251 14.7332 125.325 15.1905 125.485 15.6202C125.646 16.0498 125.89 16.4433 126.204 16.7778L126.196 16.7865ZM143.249 19.0555H141.516V17.7305H141.464C141.156 18.2337 140.72 18.6462 140.2 18.9256C139.661 19.2382 139.048 19.4026 138.425 19.4019C137.918 19.4366 137.411 19.3564 136.94 19.1675C136.469 18.9785 136.047 18.6856 135.705 18.3107C135.049 17.4809 134.719 16.4396 134.778 15.3835V9.49427H136.571V15.0543C136.571 16.8384 137.359 17.7305 138.935 17.7305C139.286 17.7414 139.633 17.6685 139.95 17.5178C140.266 17.3672 140.542 17.1432 140.754 16.8644C141.219 16.2755 141.467 15.5446 141.456 14.7945V9.49427H143.249V19.0555ZM149.337 19.3673C148.729 19.3693 148.128 19.2395 147.574 18.9869C147.021 18.7342 146.529 18.3647 146.133 17.9037C145.235 16.912 144.754 15.6122 144.79 14.2749C144.754 12.9376 145.235 11.6378 146.133 10.6461C146.529 10.1851 147.021 9.8156 147.574 9.56294C148.128 9.31027 148.729 9.18047 149.337 9.18249C150.018 9.17174 150.691 9.33256 151.294 9.65016C151.824 9.91675 152.273 10.3205 152.593 10.8193H152.671L152.593 9.49427V5.06873H154.386V19.0555H152.654V17.7305H152.576C152.255 18.2293 151.807 18.6331 151.277 18.8996C150.679 19.2144 150.013 19.3752 149.337 19.3673ZM149.632 17.7305C150.037 17.7364 150.439 17.656 150.81 17.4948C151.182 17.3335 151.515 17.095 151.788 16.7951C152.397 16.1017 152.708 15.1962 152.654 14.2749C152.708 13.3536 152.397 12.4481 151.788 11.7547C151.514 11.4532 151.179 11.2123 150.807 11.0474C150.434 10.8826 150.031 10.7975 149.623 10.7975C149.215 10.7975 148.812 10.8826 148.439 11.0474C148.066 11.2123 147.732 11.4532 147.458 11.7547C147.155 12.0957 146.923 12.4931 146.774 12.9241C146.626 13.3551 146.564 13.8112 146.592 14.2662C146.564 14.7213 146.626 15.1774 146.774 15.6083C146.923 16.0393 147.155 16.4367 147.458 16.7778C147.731 17.0831 148.066 17.3261 148.441 17.4905C148.816 17.6548 149.222 17.7367 149.632 17.7305Z" fill="#5F6368"/>
</svg>
