<svg xmlns="http://www.w3.org/2000/svg" xmlns:xlink="http://www.w3.org/1999/xlink" width="16" height="16" viewBox="0 0 16 16">
  <defs>
    <clipPath id="clip-path">
      <rect id="Rectangle_5065" data-name="Rectangle 5065" width="16" height="16" transform="translate(626 291)" fill="#fff" stroke="#707070" stroke-width="1"/>
    </clipPath>
  </defs>
  <g id="Mask_Group_377" data-name="Mask Group 377" transform="translate(-626 -291)" clip-path="url(#clip-path)">
    <g id="google" transform="translate(626 291)">
      <path id="Path_29804" data-name="Path 29804" d="M15.4,6.609H8.87a.522.522,0,0,0-.522.522V9.215a.522.522,0,0,0,.522.522h3.675a4.906,4.906,0,0,1-2.112,2.475L12,14.925a7.844,7.844,0,0,0,4-6.86,5.288,5.288,0,0,0-.09-1.025A.524.524,0,0,0,15.4,6.609Z" fill="#167ee6"/>
      <path id="Path_29805" data-name="Path 29805" d="M8,12.87a4.869,4.869,0,0,1-4.212-2.437L1.075,12A7.994,7.994,0,0,0,12,14.928v0l-1.567-2.713A4.833,4.833,0,0,1,8,12.87Z" fill="#12b347"/>
      <path id="Path_29806" data-name="Path 29806" d="M12,14.928v0l-1.567-2.713A4.833,4.833,0,0,1,8,12.87V16A7.986,7.986,0,0,0,12,14.928Z" fill="#0f993e"/>
      <path id="Path_29807" data-name="Path 29807" d="M3.13,8a4.833,4.833,0,0,1,.658-2.433L1.075,4a7.963,7.963,0,0,0,0,7.993l2.713-1.564A4.833,4.833,0,0,1,3.13,8Z" fill="#ffd500"/>
      <path id="Path_29808" data-name="Path 29808" d="M8,3.13a4.847,4.847,0,0,1,3.092,1.11.52.52,0,0,0,.7-.031l1.477-1.477a.526.526,0,0,0-.03-.769A7.983,7.983,0,0,0,1.075,4L3.788,5.567A4.869,4.869,0,0,1,8,3.13Z" fill="#ff4b26"/>
      <path id="Path_29809" data-name="Path 29809" d="M11.092,4.24a.52.52,0,0,0,.7-.031l1.477-1.477a.526.526,0,0,0-.03-.769A7.976,7.976,0,0,0,8,0V3.13A4.847,4.847,0,0,1,11.092,4.24Z" fill="#d93f21"/>
    </g>
  </g>
</svg>
