<svg width="17" height="17" viewBox="0 0 17 17" fill="none" xmlns="http://www.w3.org/2000/svg">
<path d="M16.8392 13.565L11.6382 8.36676C12.0702 7.19228 12.0881 5.90556 11.6888 4.71957C11.2895 3.53357 10.497 2.51938 9.44241 1.84486C8.38786 1.17033 7.13448 0.875901 5.88969 1.0103C4.64491 1.14469 3.48336 1.69985 2.59726 2.5839C1.71116 3.46795 1.15365 4.62789 1.01698 5.87175C0.880312 7.11562 1.17269 8.36884 1.84571 9.42401C2.51874 10.4792 3.53207 11.273 4.71801 11.6742C5.90395 12.0754 7.19139 12.0598 8.36727 11.6301L10.2743 13.5419C10.3283 13.5954 10.3924 13.6378 10.4628 13.6665C10.5332 13.6953 10.6086 13.7098 10.6846 13.7094H11.7422V14.7664C11.7422 14.9196 11.8031 15.0665 11.9115 15.1748C12.0198 15.2831 12.1668 15.344 12.3201 15.344H13.3719V16.4009C13.3719 16.5541 13.4327 16.701 13.5411 16.8093C13.6495 16.9177 13.7965 16.9785 13.9498 16.9785H16.4058C16.5591 16.9785 16.7061 16.9177 16.8145 16.8093C16.9228 16.701 16.9837 16.5541 16.9837 16.4009V13.9693C16.9893 13.821 16.9376 13.6762 16.8392 13.565ZM15.8568 15.8465H14.5565V14.7895C14.5565 14.6363 14.4957 14.4894 14.3873 14.3811C14.2789 14.2727 14.1319 14.2119 13.9787 14.2119H12.9269V13.1549C12.9269 13.0017 12.866 12.8548 12.7576 12.7465C12.6492 12.6382 12.5023 12.5773 12.349 12.5773H10.9505L8.93939 10.5673C8.85651 10.4858 8.75095 10.4312 8.63651 10.4106C8.52206 10.39 8.40406 10.4043 8.29792 10.4518C7.49511 10.8117 6.602 10.9199 5.73641 10.7621C4.87081 10.6044 4.0734 10.1881 3.44937 9.56813C2.68377 8.74695 2.26697 7.66083 2.28678 6.53858C2.30659 5.41633 2.76147 4.34558 3.55557 3.5519C4.34968 2.75823 5.42101 2.3036 6.54387 2.2838C7.66674 2.264 8.75345 2.68057 9.57508 3.44575C10.1954 4.06945 10.6119 4.86643 10.7697 5.73155C10.9276 6.59667 10.8193 7.48929 10.4593 8.29167C10.4117 8.39775 10.3974 8.51569 10.418 8.63007C10.4386 8.74445 10.4933 8.84995 10.5748 8.93279L15.8568 14.2119V15.8465ZM5.61648 3.87894C5.27359 3.87894 4.9384 3.98056 4.65329 4.17096C4.36819 4.36136 4.14598 4.63198 4.01476 4.94859C3.88354 5.26521 3.84921 5.61361 3.9161 5.94973C3.983 6.28585 4.14811 6.5946 4.39058 6.83693C4.63304 7.07926 4.94195 7.24428 5.27825 7.31114C5.61456 7.378 5.96314 7.34369 6.27994 7.21254C6.59673 7.08139 6.86749 6.8593 7.05799 6.57435C7.24849 6.2894 7.35017 5.95439 7.35017 5.61169C7.35017 5.15213 7.16752 4.7114 6.84239 4.38645C6.51726 4.0615 6.07628 3.87894 5.61648 3.87894ZM5.61648 6.18927C5.50218 6.18927 5.39045 6.1554 5.29542 6.09193C5.20038 6.02846 5.12631 5.93826 5.08257 5.83272C5.03883 5.72718 5.02739 5.61105 5.04969 5.49901C5.07199 5.38697 5.12702 5.28405 5.20785 5.20328C5.28867 5.1225 5.39164 5.06749 5.50374 5.0452C5.61584 5.02292 5.73204 5.03435 5.83763 5.07807C5.94323 5.12179 6.03348 5.19582 6.09698 5.2908C6.16048 5.38578 6.19438 5.49745 6.19438 5.61169C6.19438 5.76487 6.13349 5.91178 6.02512 6.0201C5.91674 6.12842 5.76975 6.18927 5.61648 6.18927Z" fill="#FC6D35"/>
</svg>
