<svg width="16" height="16" viewBox="0 0 16 16" fill="none" xmlns="http://www.w3.org/2000/svg">
<path d="M1.70903 11.8542L2.29639 12.1934L8.8398 0.86017L8.25244 0.521049L1.70903 11.8542Z" fill="#FC6D35"/>
<path d="M14.6615 10.9492H1.57471V11.6275H14.6615V10.9492Z" fill="#FC6D35"/>
<path d="M1.83353 11.332L8.37939 15.1113L8.71852 14.524L2.17265 10.7446L1.83353 11.332Z" fill="#FC6D35"/>
<path d="M7.52005 1.48137L14.0659 5.26074L14.405 4.67338L7.85918 0.894016L7.52005 1.48137Z" fill="#FC6D35"/>
<path d="M1.83568 4.67143L2.1748 5.25879L8.72067 1.47942L8.38155 0.892063L1.83568 4.67143Z" fill="#FC6D35"/>
<path d="M7.40141 0.861147L13.9448 12.1943L14.5322 11.8552L7.98877 0.522025L7.40141 0.861147Z" fill="#FC6D35"/>
<path d="M2.7715 4.2207H2.09326V11.7794H2.7715V4.2207Z" fill="#FC6D35"/>
<path d="M14.1465 4.2207H13.4683V11.7794H14.1465V4.2207Z" fill="#FC6D35"/>
<path d="M7.96794 14.3097L8.26416 14.8228L13.9573 11.5357L13.6611 11.0227L7.96794 14.3097Z" fill="#FC6D35"/>
<path d="M15.0451 11.9997C14.6529 12.682 13.7785 12.9149 13.0962 12.5227C12.4139 12.1304 12.181 11.2561 12.5732 10.5737C12.9655 9.89141 13.8398 9.65852 14.5221 10.0508C15.2086 10.4471 15.4414 11.3174 15.0451 11.9997Z" fill="#FC6D35"/>
<path d="M3.66231 5.42546C3.27007 6.10779 2.39571 6.34068 1.71338 5.94844C1.03105 5.55621 0.798164 4.68185 1.1904 3.99952C1.58264 3.31719 2.457 3.0843 3.13933 3.47653C3.82166 3.87286 4.05455 4.74313 3.66231 5.42546Z" fill="#FC6D35"/>
<path d="M1.19431 11.9997C0.80207 11.3174 1.03496 10.4471 1.71729 10.0508C2.39962 9.65852 3.26989 9.89141 3.66622 10.5737C4.05845 11.2561 3.82556 12.1263 3.14323 12.5227C2.45682 12.9149 1.58654 12.682 1.19431 11.9997Z" fill="#FC6D35"/>
<path d="M12.5776 5.42546C12.1854 4.74313 12.4183 3.87286 13.1006 3.47653C13.7829 3.0843 14.6532 3.31719 15.0495 3.99952C15.4418 4.68185 15.2089 5.55212 14.5265 5.94844C13.8442 6.34068 12.9698 6.10779 12.5776 5.42546Z" fill="#FC6D35"/>
<path d="M8.11979 16.0003C7.33123 16.0003 6.69385 15.3629 6.69385 14.5744C6.69385 13.7858 7.33123 13.1484 8.11979 13.1484C8.90835 13.1484 9.54574 13.7858 9.54574 14.5744C9.54574 15.3589 8.90835 16.0003 8.11979 16.0003Z" fill="#FC6D35"/>
<path d="M8.11979 2.85189C7.33123 2.85189 6.69385 2.2145 6.69385 1.42594C6.69385 0.637385 7.33123 0 8.11979 0C8.90835 0 9.54574 0.637385 9.54574 1.42594C9.54574 2.2145 8.90835 2.85189 8.11979 2.85189Z" fill="#FC6D35"/>
</svg>
