<svg width="14" height="14" viewBox="0 0 14 14" fill="none" xmlns="http://www.w3.org/2000/svg">
<path d="M1.49535 10.3712L2.00928 10.668L7.73465 0.751631L7.22072 0.454905L1.49535 10.3712Z" fill="#717171"/>
<path d="M12.8284 9.57812H1.37769V10.1716H12.8284V9.57812Z" fill="#717171"/>
<path d="M1.60427 9.91578L7.33179 13.2227L7.62851 12.7087L1.901 9.40185L1.60427 9.91578Z" fill="#717171"/>
<path d="M6.5801 1.29468L12.3076 4.60156L12.6043 4.08763L6.87683 0.780755L6.5801 1.29468Z" fill="#717171"/>
<path d="M1.60586 4.08568L1.90259 4.59961L7.6301 1.29273L7.33338 0.778802L1.60586 4.08568Z" fill="#717171"/>
<path d="M6.47629 0.751631L12.2017 10.668L12.7156 10.3712L6.99022 0.454905L6.47629 0.751631Z" fill="#717171"/>
<path d="M2.42499 3.69336H1.83154V10.3071H2.42499V3.69336Z" fill="#717171"/>
<path d="M12.3781 3.69336H11.7847V10.3071H12.3781V3.69336Z" fill="#717171"/>
<path d="M6.97177 12.5179L7.23096 12.9668L12.2123 10.0907L11.9532 9.64179L6.97177 12.5179Z" fill="#717171"/>
<path d="M13.1644 10.4988C12.8212 11.0959 12.0562 11.2996 11.4592 10.9564C10.8621 10.6132 10.6584 9.84818 11.0016 9.25115C11.3448 8.65413 12.1098 8.45035 12.7068 8.79355C13.3074 9.14033 13.5112 9.9018 13.1644 10.4988Z" fill="#717171"/>
<path d="M3.20448 4.74687C2.86127 5.3439 2.09622 5.54768 1.4992 5.20448C0.902172 4.86127 0.698397 4.09622 1.0416 3.4992C1.3848 2.90217 2.14985 2.6984 2.74687 3.0416C3.3439 3.38837 3.54768 4.14985 3.20448 4.74687Z" fill="#717171"/>
<path d="M1.04526 10.4988C0.702059 9.9018 0.905834 9.14033 1.50286 8.79355C2.09989 8.45035 2.86136 8.65413 3.20814 9.25115C3.55134 9.84818 3.34756 10.6097 2.75054 10.9564C2.14994 11.2996 1.38846 11.0959 1.04526 10.4988Z" fill="#717171"/>
<path d="M11.005 4.74687C10.6618 4.14985 10.8656 3.38837 11.4626 3.0416C12.0596 2.6984 12.8211 2.90217 13.1679 3.4992C13.5111 4.09622 13.3073 4.8577 12.7103 5.20448C12.1132 5.54768 11.3482 5.3439 11.005 4.74687Z" fill="#717171"/>
<path d="M7.10485 13.9993C6.41488 13.9993 5.85718 13.4416 5.85718 12.7516C5.85718 12.0616 6.41488 11.5039 7.10485 11.5039C7.79483 11.5039 8.35253 12.0616 8.35253 12.7516C8.35253 13.438 7.79483 13.9993 7.10485 13.9993Z" fill="#717171"/>
<path d="M7.10485 2.49535C6.41488 2.49535 5.85718 1.93765 5.85718 1.24768C5.85718 0.557701 6.41488 0 7.10485 0C7.79483 0 8.35253 0.557701 8.35253 1.24768C8.35253 1.93765 7.79483 2.49535 7.10485 2.49535Z" fill="#717171"/>
</svg>
