<svg width="14" height="14" viewBox="0 0 14 14" fill="none" xmlns="http://www.w3.org/2000/svg">
<path d="M8.4268 1.6047L11.3046 3.26802C11.781 2.76666 12.5737 2.7461 13.0751 3.22252C13.1595 3.30477 13.2348 3.39796 13.2938 3.50033C13.6377 4.09968 13.4308 4.86529 12.8288 5.20915C12.7286 5.26602 12.6192 5.31152 12.5029 5.33908V8.66354C13.1726 8.82322 13.5852 9.49302 13.4255 10.1628C13.398 10.2814 13.3503 10.3951 13.2912 10.5001C12.9447 11.0973 12.1817 11.302 11.5824 10.956C11.4686 10.8921 11.3636 10.8055 11.277 10.7075L8.41498 12.3594C8.63154 13.0135 8.27586 13.7196 7.62182 13.9361C7.49408 13.9794 7.36195 14 7.22983 14C6.54167 14 5.98125 13.444 5.98125 12.7536C5.98125 12.635 5.99962 12.5143 6.03375 12.3979L3.15377 10.7368C2.67735 11.236 1.88681 11.2565 1.38808 10.7779C0.891532 10.3015 0.873157 9.51314 1.34695 9.01441C1.5132 8.84116 1.72538 8.71823 1.95769 8.66135V5.3369C1.28789 5.17721 0.873157 4.50305 1.03503 3.83063C1.06259 3.71426 1.10809 3.6027 1.16715 3.50033C1.51101 2.90316 2.27661 2.69842 2.87378 3.04447C2.97615 3.10353 3.07196 3.17659 3.15421 3.26321L6.03418 1.60207C5.83819 0.941471 6.21662 0.246305 6.87503 0.0524984C6.98878 0.016187 7.10953 0 7.23071 0C7.91887 0 8.47929 0.556045 8.47929 1.24421C8.47929 1.36714 8.46092 1.48789 8.4268 1.60426V1.6047ZM8.12624 2.11743C8.11487 2.12881 8.10568 2.14018 8.09212 2.15156L11.8611 8.67754C11.8768 8.67317 11.8952 8.66835 11.9088 8.66398V5.33515C11.2411 5.17109 10.8356 4.4943 11.0018 3.82669C11.004 3.81313 11.0088 3.79694 11.011 3.78338L8.12624 2.11743ZM6.36711 2.15156L6.33299 2.11743L3.4482 3.78076C3.63982 4.44136 3.25658 5.13215 2.59598 5.32333C2.58023 5.32771 2.56623 5.33033 2.55048 5.33471V8.66354L2.60079 8.6771L6.36974 2.15112L6.36711 2.15156ZM7.57939 2.44774C7.35146 2.51161 7.10996 2.51161 6.88422 2.44774L3.11527 8.97372C3.28633 9.13778 3.40708 9.34952 3.46614 9.58226H10.997C11.0539 9.34996 11.1746 9.13778 11.3479 8.97153L7.57939 2.44774ZM8.15337 11.9128L11.0198 10.2564C11.0106 10.2289 11.004 10.2017 10.997 10.1742H3.46395L3.45039 10.2219L6.33299 11.8852C6.55873 11.6507 6.87766 11.5046 7.23071 11.5046C7.59776 11.5046 7.92587 11.6621 8.15337 11.9128Z" fill="#112D55"/>
</svg>
