<svg width="32" height="32" viewBox="0 0 32 32" fill="none" xmlns="http://www.w3.org/2000/svg">
<path d="M3.41784 23.7085L4.59253 24.3867L17.6791 1.7208L16.5044 1.04257L3.41784 23.7085Z" fill="#717171"/>
<path d="M29.322 21.8965H3.14886V23.2529H29.322V21.8965Z" fill="#717171"/>
<path d="M3.66647 22.6621L16.7579 30.2207L17.4362 29.046L4.3447 21.4874L3.66647 22.6621Z" fill="#717171"/>
<path d="M15.0393 2.9629L28.1307 10.5215L28.809 9.34679L15.7175 1.78821L15.0393 2.9629Z" fill="#717171"/>
<path d="M3.6704 9.34289L4.34863 10.5176L17.4401 2.959L16.7619 1.78431L3.6704 9.34289Z" fill="#717171"/>
<path d="M14.8027 1.7208L27.8892 24.3867L29.0639 23.7085L15.9774 1.04257L14.8027 1.7208Z" fill="#717171"/>
<path d="M5.54317 8.44141H4.18671V23.5586H5.54317V8.44141Z" fill="#717171"/>
<path d="M28.2924 8.44141H26.936V23.5586H28.2924V8.44141Z" fill="#717171"/>
<path d="M15.9351 28.6165L16.5275 29.6426L27.9136 23.0687L27.3211 22.0426L15.9351 28.6165Z" fill="#717171"/>
<path d="M30.0901 23.9973C29.3057 25.3619 27.557 25.8277 26.1924 25.0433C24.8277 24.2588 24.362 22.5101 25.1464 21.1455C25.9309 19.7809 27.6796 19.3151 29.0442 20.0995C30.417 20.8922 30.8828 22.6327 30.0901 23.9973Z" fill="#717171"/>
<path d="M7.32445 10.8489C6.54 12.2135 4.79131 12.6793 3.42668 11.8948C2.06205 11.1104 1.59628 9.36168 2.38073 7.99705C3.16519 6.63242 4.91388 6.16665 6.27851 6.95111C7.64314 7.74374 8.10891 9.48425 7.32445 10.8489Z" fill="#717171"/>
<path d="M2.38903 23.9973C1.60458 22.6327 2.07035 20.8922 3.43498 20.0995C4.79961 19.3151 6.54012 19.7809 7.33275 21.1455C8.11721 22.5101 7.65144 24.2506 6.28681 25.0433C4.91401 25.8277 3.17349 25.3619 2.38903 23.9973Z" fill="#717171"/>
<path d="M25.1545 10.8489C24.37 9.48425 24.8358 7.74374 26.2004 6.95111C27.565 6.16665 29.3056 6.63242 30.0982 7.99705C30.8827 9.36168 30.4169 11.1022 29.0523 11.8948C27.6876 12.6793 25.9389 12.2135 25.1545 10.8489Z" fill="#717171"/>
<path d="M16.2395 32.0005C14.6624 32.0005 13.3877 30.7258 13.3877 29.1487C13.3877 27.5716 14.6624 26.2969 16.2395 26.2969C17.8166 26.2969 19.0914 27.5716 19.0914 29.1487C19.0914 30.7176 17.8166 32.0005 16.2395 32.0005Z" fill="#717171"/>
<path d="M16.2395 5.70366C14.6624 5.70366 13.3877 4.42892 13.3877 2.85183C13.3877 1.27474 14.6624 0 16.2395 0C17.8166 0 19.0914 1.27474 19.0914 2.85183C19.0914 4.42892 17.8166 5.70366 16.2395 5.70366Z" fill="#717171"/>
</svg>
