<svg width="16" height="16" viewBox="0 0 16 16" fill="none" xmlns="http://www.w3.org/2000/svg">
<path d="M3.53915 13.6668C3.20237 13.6668 2.91732 13.5502 2.68398 13.3168C2.45065 13.0835 2.33398 12.7984 2.33398 12.4617V3.53866C2.33398 3.20188 2.45065 2.91683 2.68398 2.6835C2.91732 2.45016 3.20237 2.3335 3.53915 2.3335H7.74415V3.3335H3.53915C3.48782 3.3335 3.44082 3.35488 3.39815 3.39766C3.35537 3.44033 3.33398 3.48733 3.33398 3.53866V12.4617C3.33398 12.513 3.35537 12.56 3.39815 12.6027C3.44082 12.6454 3.48782 12.6668 3.53915 12.6668H12.4622C12.5135 12.6668 12.5605 12.6454 12.6032 12.6027C12.6459 12.56 12.6673 12.513 12.6673 12.4617V8.25666H13.6673V12.4617C13.6673 12.7984 13.5507 13.0835 13.3173 13.3168C13.084 13.5502 12.7989 13.6668 12.4622 13.6668H3.53915ZM6.48015 10.2232L5.77765 9.52066L11.9648 3.3335H9.33398V2.3335H13.6673V6.66683H12.6673V4.036L6.48015 10.2232Z" fill="#10A37F"/>
</svg>
