<svg width="16" height="16" viewBox="0 0 16 16" fill="none" xmlns="http://www.w3.org/2000/svg">
<path d="M9.15238 2.29628L10.3256 4.66208C10.4856 4.99141 10.9122 5.30729 11.2722 5.36778L13.3986 5.72399C14.7585 5.95251 15.0784 6.94723 14.0985 7.92849L12.4454 9.59529C12.1654 9.87756 12.0121 10.422 12.0987 10.8118L12.5721 12.8752C12.9453 14.5084 12.0854 15.1402 10.6522 14.2866L8.65912 13.097C8.29918 12.8819 7.70592 12.8819 7.33925 13.097L5.34616 14.2866C3.91965 15.1402 3.05308 14.5016 3.42638 12.8752L3.89966 10.8118C3.98631 10.422 3.833 9.87756 3.55302 9.59529L1.89988 7.92849C0.926651 6.94723 1.23995 5.95251 2.5998 5.72399L4.72623 5.36778C5.07952 5.30729 5.50614 4.99141 5.66612 4.66208L6.83932 2.29628C7.47925 1.01257 8.51912 1.01257 9.15238 2.29628Z" fill="#10A37F" stroke="#10A37F" stroke-width="0.6" stroke-linecap="round" stroke-linejoin="round"/>
</svg>
