<svg xmlns="http://www.w3.org/2000/svg" width="20" height="20" viewBox="0 0 20 20">
  <g id="Group_2744" data-name="Group 2744" transform="translate(-943 -836)">
    <rect id="Rectangle_5197" data-name="Rectangle 5197" width="20" height="20" rx="10" transform="translate(943 836)" fill="#635bff"/>
    <g id="Stripe_Logo__revised_2016_1_" data-name="Stripe_Logo,_revised_2016 (1)" transform="translate(893.767 770.9)">
      <path id="Path_30281" data-name="Path 30281" d="M58.17,72.067c0-.643.527-.89,1.4-.89a9.194,9.194,0,0,1,4.088,1.055V68.358a10.87,10.87,0,0,0-4.088-.758C56.225,67.6,54,69.347,54,72.265c0,4.549,6.264,3.824,6.264,5.786,0,.758-.659,1.005-1.582,1.005a10.26,10.26,0,0,1-4.5-1.319V81.66a11.427,11.427,0,0,0,4.5.94c3.429,0,5.786-1.7,5.786-4.648C64.451,73.04,58.17,73.913,58.17,72.067Z" fill="#fff" fill-rule="evenodd"/>
    </g>
  </g>
</svg>
