<svg width="14" height="14" viewBox="0 0 14 14" fill="none" xmlns="http://www.w3.org/2000/svg">
<g id="Group 628">
<g id="Group 624">
<g id="Group">
<g id="Group_2">
<path id="Vector" d="M11.0957 7.69802H9.82317C9.64999 7.69802 9.48231 7.72168 9.32273 7.7652C9.00793 7.14638 8.36525 6.72119 7.62468 6.72119H5.37532C4.63475 6.72119 3.99207 7.14638 3.67727 7.7652C3.51769 7.72168 3.35001 7.69802 3.17682 7.69802H1.9043C0.854268 7.69802 0 8.55229 0 9.60232V11.6366C0 12.2666 0.512561 12.7791 1.14258 12.7791H11.8574C12.4874 12.7791 13 12.2666 13 11.6366V9.60232C13 8.55229 12.1457 7.69802 11.0957 7.69802ZM3.47103 8.62554V12.0174H1.14258C0.932572 12.0174 0.761719 11.8466 0.761719 11.6366V9.60234C0.761719 8.97232 1.27428 8.45976 1.9043 8.45976H3.17682C3.28021 8.45976 3.38033 8.4738 3.47565 8.49968C3.4729 8.54134 3.47103 8.58324 3.47103 8.62554ZM8.76726 12.0174H4.23274V8.62551C4.23274 7.9955 4.7453 7.48294 5.37532 7.48294H7.62468C8.2547 7.48294 8.76726 7.9955 8.76726 8.62551V12.0174ZM12.2383 11.6366C12.2383 11.8466 12.0674 12.0174 11.8574 12.0174H9.52898V8.62551C9.52898 8.58319 9.5271 8.54129 9.52435 8.49965C9.61967 8.4738 9.71978 8.45974 9.82317 8.45974H11.0957C11.7257 8.45974 12.2383 8.9723 12.2383 9.60232V11.6366Z" fill="#112D55"/>
</g>
</g>
<g id="Group_3">
<g id="Group_4">
<path id="Vector_2" d="M2.54082 4.10156C1.60774 4.10156 0.848633 4.86067 0.848633 5.79375C0.848607 6.72683 1.60774 7.48593 2.54082 7.48593C3.47387 7.48593 4.233 6.72683 4.233 5.79375C4.233 4.86067 3.4739 4.10156 2.54082 4.10156ZM2.54079 6.72421C2.02772 6.72421 1.61033 6.30681 1.61033 5.79375C1.61033 5.28068 2.02772 4.86328 2.54079 4.86328C3.05386 4.86328 3.47126 5.28068 3.47126 5.79375C3.47126 6.30681 3.05386 6.72421 2.54079 6.72421Z" fill="#112D55"/>
</g>
</g>
<g id="Group_5">
<g id="Group_6">
<path id="Vector_3" d="M6.49999 2C5.25341 2 4.23926 3.01415 4.23926 4.26073C4.23926 5.50731 5.25341 6.52146 6.49999 6.52146C7.74657 6.52146 8.76072 5.50731 8.76072 4.26073C8.76072 3.01418 7.74657 2 6.49999 2ZM6.49999 5.75974C5.67342 5.75974 5.00098 5.0873 5.00098 4.26073C5.00098 3.43419 5.67342 2.76172 6.49999 2.76172C7.32655 2.76172 7.999 3.43416 7.999 4.26073C7.999 5.0873 7.32655 5.75974 6.49999 5.75974Z" fill="#112D55"/>
</g>
</g>
<g id="Group_7">
<g id="Group_8">
<path id="Vector_4" d="M10.4593 4.10156C9.52622 4.10156 8.76709 4.86067 8.76709 5.79375C8.76712 6.72683 9.52622 7.48593 10.4593 7.48593C11.3924 7.48593 12.1515 6.72683 12.1515 5.79375C12.1515 4.86067 11.3924 4.10156 10.4593 4.10156ZM10.4593 6.72421C9.94623 6.72421 9.52881 6.30681 9.52881 5.79375C9.52883 5.28068 9.94623 4.86328 10.4593 4.86328C10.9723 4.86328 11.3897 5.28068 11.3897 5.79375C11.3897 6.30681 10.9723 6.72421 10.4593 6.72421Z" fill="#112D55"/>
</g>
</g>
</g>
</g>
</svg>
