<svg width="18" height="16" viewBox="0 0 18 16" fill="none" xmlns="http://www.w3.org/2000/svg">
<path d="M9.74306 4.27874C9.74326 4.8677 9.56876 5.44349 9.24163 5.93325C8.9145 6.42301 8.44944 6.80474 7.90531 7.03012C7.36118 7.25551 6.76242 7.31443 6.18479 7.19943C5.60716 7.08444 5.07662 6.80069 4.6603 6.38408C4.24398 5.96748 3.96058 5.43675 3.84597 4.85905C3.73136 4.28134 3.79069 3.68262 4.01644 3.13864C4.24219 2.59466 4.62423 2.12986 5.11421 1.80306C5.60419 1.47626 6.1801 1.30214 6.76906 1.30274C7.55792 1.30353 8.31421 1.61739 8.87183 2.17539C9.42945 2.73338 9.7428 3.48988 9.74306 4.27874Z" stroke="#717171" stroke-width="1.2"/>
<path d="M11.2324 7.25623C11.6279 7.26348 12.0208 7.19185 12.3883 7.04552C12.7558 6.8992 13.0904 6.68111 13.3727 6.40399C13.6549 6.12688 13.8791 5.7963 14.0321 5.43157C14.1852 5.06684 14.264 4.67527 14.264 4.27973C14.264 3.8842 14.1852 3.49263 14.0321 3.1279C13.8791 2.76316 13.6549 2.43259 13.3727 2.15548C13.0904 1.87836 12.7558 1.66027 12.3883 1.51395C12.0208 1.36762 11.6279 1.29599 11.2324 1.30323" stroke="#717171" stroke-width="1.2" stroke-linecap="round" stroke-linejoin="round"/>
<path d="M8.25562 9.48828H5.27862C4.29175 9.48828 3.3453 9.88031 2.64747 10.5781C1.94965 11.276 1.55762 12.2224 1.55762 13.2093C1.55762 13.6039 1.71439 13.9824 1.99344 14.2615C2.2725 14.5405 2.65098 14.6973 3.04562 14.6973H10.4876C10.8823 14.6973 11.2607 14.5405 11.5398 14.2615C11.8188 13.9824 11.9756 13.6039 11.9756 13.2093C11.9756 12.2226 11.5837 11.2763 10.8861 10.5785C10.1885 9.8807 9.24231 9.48855 8.25562 9.48828Z" stroke="#717171" stroke-width="1.2" stroke-linejoin="round"/>
<path d="M12.7207 9.48828C13.7076 9.48828 14.654 9.88031 15.3518 10.5781C16.0497 11.276 16.4417 12.2224 16.4417 13.2093C16.4417 13.6039 16.2849 13.9824 16.0059 14.2615C15.7268 14.5405 15.3483 14.6973 14.9537 14.6973H13.8367" stroke="#717171" stroke-width="1.2" stroke-linecap="round" stroke-linejoin="round"/>
</svg>
