<svg width="18" height="17" viewBox="0 0 18 17" fill="none" xmlns="http://www.w3.org/2000/svg">
<path d="M2.38333 1.66667C2.38333 1.27087 2.06247 0.95 1.66667 0.95C1.27087 0.95 0.95 1.27087 0.95 1.66667V15.8889C0.95 16.2847 1.27087 16.6056 1.66667 16.6056C2.06247 16.6056 2.38333 16.2847 2.38333 15.8889V1.66667Z" fill="#3F3F3F" stroke="#3F3F3F" stroke-width="0.1"/>
<path d="M10.8277 1.66667C10.8277 1.27087 10.5068 0.95 10.111 0.95C9.71521 0.95 9.39434 1.27087 9.39434 1.66667V15.8889C9.39434 16.2847 9.71521 16.6056 10.111 16.6056C10.5068 16.6056 10.8277 16.2847 10.8277 15.8889V1.66667Z" fill="#3F3F3F" stroke="#3F3F3F" stroke-width="0.1"/>
<path d="M1.66667 8.06133C1.27087 8.06133 0.95 8.3822 0.95 8.77799C0.95 9.17379 1.27087 9.49466 1.66667 9.49466H10.1111C10.5069 9.49466 10.8278 9.17379 10.8278 8.77799C10.8278 8.3822 10.5069 8.06133 10.1111 8.06133H1.66667Z" fill="#3F3F3F" stroke="#3F3F3F" stroke-width="0.1"/>
<path d="M14.7291 9.27383L14.7291 9.27383L15.6167 8.34727V15.8891C15.6167 16.2849 15.9376 16.6058 16.3334 16.6058C16.7292 16.6058 17.05 16.2849 17.05 15.8891V6.56318C17.05 6.2705 16.872 6.00724 16.6005 5.89816C16.3289 5.78906 16.0183 5.85607 15.8159 6.0674L15.8158 6.06741L13.6941 8.28225L13.6941 8.28225C13.4203 8.56805 13.4299 9.02175 13.7159 9.29553C14.0017 9.56939 14.4553 9.55963 14.7291 9.27383Z" fill="#3F3F3F" stroke="#3F3F3F" stroke-width="0.1"/>
</svg>
