<svg width="18" height="16" viewBox="0 0 18 16" fill="none" xmlns="http://www.w3.org/2000/svg">
<path d="M2.28077 1.50406C2.28077 1.13658 1.98286 0.838672 1.61538 0.838672C1.24791 0.838672 0.95 1.13658 0.95 1.50406V14.6323C0.95 14.9997 1.24791 15.2976 1.61538 15.2976C1.98286 15.2976 2.28077 14.9997 2.28077 14.6323V1.50406Z" fill="#3F3F3F" stroke="#3F3F3F" stroke-width="0.1"/>
<path d="M9.66553 1.50406C9.66553 1.13658 9.36762 0.838672 9.00015 0.838672C8.63268 0.838672 8.33477 1.13658 8.33477 1.50406V14.6323C8.33477 14.9997 8.63268 15.2976 9.00015 15.2976C9.36762 15.2976 9.66553 14.9997 9.66553 14.6323V1.50406Z" fill="#3F3F3F" stroke="#3F3F3F" stroke-width="0.1"/>
<path d="M2.02554 7.40312C1.65806 7.40312 1.36016 7.70104 1.36016 8.06851C1.36016 8.43598 1.65806 8.73389 2.02554 8.73389H8.58964C8.95711 8.73389 9.25503 8.43598 9.25503 8.06851C9.25503 7.70104 8.95711 7.40312 8.58964 7.40312H2.02554Z" fill="#3F3F3F" stroke="#3F3F3F" stroke-width="0.1"/>
<path d="M15.207 9.74083C14.8616 10.2115 14.3907 10.6745 13.872 11.1734L13.1523 13.9671C13.2278 13.8325 13.3254 13.6883 13.447 13.5329L13.447 13.5329C13.7784 13.1092 14.2213 12.6835 14.7158 12.2082L14.7158 12.2082L14.7944 12.1326C14.7944 12.1326 14.7944 12.1326 14.7944 12.1326C15.3013 11.6451 15.856 11.1057 16.2799 10.5281L16.2396 10.4985L16.2799 10.5281C16.7052 9.94836 17.0498 9.26345 17.0498 8.47868C17.0498 6.74183 15.5835 5.76201 14.3332 5.76201C13.0829 5.76201 11.6165 6.74183 11.6165 8.47868C11.6165 8.84615 11.9144 9.14406 12.2819 9.14406C12.6494 9.14406 12.9473 8.84615 12.9473 8.47868C12.9473 7.61629 13.6701 7.09278 14.3332 7.09278C14.9963 7.09278 15.7191 7.61629 15.7191 8.47868C15.7191 8.86316 15.5508 9.27225 15.207 9.74083Z" fill="#3F3F3F" stroke="#3F3F3F" stroke-width="0.1"/>
</svg>
