<svg width="16" height="12" viewBox="0 0 16 12" fill="none" xmlns="http://www.w3.org/2000/svg">
<path d="M6.66667 0.667969H8V11.3346H6.66667V6.66797H1.33333V11.3346H0V0.667969H1.33333V5.33464H6.66667V0.667969ZM12.7607 8.39597C14.204 7.39397 16 6.14664 16 4.0013C16 2.1633 14.5047 0.667969 12.6667 0.667969C10.8287 0.667969 9.33333 2.1633 9.33333 4.0013H10.6667C10.6667 2.89864 11.564 2.0013 12.6667 2.0013C13.7693 2.0013 14.6667 2.89864 14.6667 4.0013C14.6667 5.4493 13.3713 6.34864 12 7.30064C10.6893 8.21064 9.33333 9.15197 9.33333 10.668V11.3346H16V10.0013H10.8867C11.2433 9.44997 11.986 8.9333 12.7607 8.39597Z" fill="black"/>
</svg>
