<svg width="16" height="13" viewBox="0 0 16 13" fill="none" xmlns="http://www.w3.org/2000/svg">
<path d="M12.003 10.8682C12.2636 11.14 12.6306 11.3093 13.037 11.3093C13.8283 11.3093 14.4698 10.6678 14.4698 9.87654C14.4698 9.08527 13.8283 8.44383 13.037 8.44383C12.8171 8.44383 12.6087 8.4934 12.4223 8.58205L11.443 7.42226L13.7451 4.77354L13.8171 4.69074H13.7074H11.0617C10.653 4.69074 10.3216 4.35937 10.3216 3.95062C10.3216 3.54186 10.653 3.21049 11.0617 3.21049H14.6515C15.2594 3.21049 15.7521 3.70353 15.7515 4.31139C15.7514 4.57623 15.6556 4.83207 15.4819 5.03197L15.4819 5.03198L13.7842 6.98587L13.7321 7.04588L13.8087 7.06689C15.043 7.40511 15.95 8.53494 15.95 9.87654C15.95 11.4854 14.6458 12.7895 13.037 12.7895C11.8917 12.7895 10.9006 12.1285 10.4247 11.1668C10.3363 10.9882 10.3576 10.8031 10.4511 10.6514C10.545 10.4988 10.712 10.3803 10.913 10.3412C11.1122 10.3025 11.3084 10.3545 11.4945 10.4573C11.6808 10.5602 11.8535 10.7124 12.003 10.8682ZM12.003 10.8682L12.0391 10.8336M12.003 10.8682C12.003 10.8682 12.003 10.8682 12.003 10.8682L12.0391 10.8336M12.0391 10.8336C11.7368 10.5185 11.3321 10.2089 10.9035 10.2921C10.4751 10.3753 10.1864 10.798 10.3799 11.189C10.8639 12.167 11.8719 12.8395 13.037 12.8395C14.6735 12.8395 16 11.513 16 9.87654C16 8.53116 15.1033 7.39527 13.8751 7.03376M12.0391 10.8336C12.2907 11.0959 12.6448 11.2593 13.037 11.2593C13.8007 11.2593 14.4198 10.6402 14.4198 9.87654C14.4198 9.11289 13.8007 8.49383 13.037 8.49383C12.8111 8.49383 12.5977 8.54803 12.4094 8.64419L13.8751 7.03376M13.8751 7.03376L13.8597 7.05146L13.8219 7.01867L13.8352 6.97045C13.8429 6.97256 13.8506 6.9747 13.8583 6.97687L13.8751 7.03376ZM1.53025 5.53086V5.58086H1.58025H7.11111H7.16111V5.53086V0.790123C7.16111 0.381368 7.49246 0.05 7.90123 0.05C8.31001 0.05 8.64136 0.381368 8.64136 0.790123V11.8519C8.64136 12.2606 8.31001 12.592 7.90123 12.592C7.49246 12.592 7.16111 12.2606 7.16111 11.8519V7.11111V7.06111H7.11111H1.58025H1.53025V7.11111V11.8519C1.53025 12.2606 1.19888 12.592 0.790123 12.592C0.381368 12.592 0.05 12.2606 0.05 11.8519V0.790123C0.05 0.381368 0.381368 0.05 0.790123 0.05C1.19888 0.05 1.53025 0.381368 1.53025 0.790123V5.53086Z" fill="black" stroke="white" stroke-width="0.1"/>
</svg>
