<svg width="16" height="16" viewBox="0 0 16 16" fill="none" xmlns="http://www.w3.org/2000/svg">
<path d="M1.84896 6.22269C1.84896 5.98693 1.94262 5.76082 2.10934 5.59411C2.27606 5.42741 2.50219 5.33374 2.73797 5.33374C2.97374 5.33374 3.19986 5.42741 3.36658 5.59411C3.5333 5.76082 3.62696 5.98693 3.62696 6.22269V7.55659C3.62696 7.67448 3.67379 7.78752 3.75715 7.87088C3.84051 7.95424 3.95357 8.00106 4.07146 8.00106C4.18934 8.00106 4.30242 7.95424 4.38578 7.87088C4.46914 7.78752 4.51597 7.67448 4.51597 7.55659V2.66794C4.51597 2.43218 4.60962 2.20606 4.77634 2.03936C4.94306 1.87266 5.16918 1.77899 5.40496 1.77899C5.64074 1.77899 5.86686 1.87266 6.03358 2.03936C6.2003 2.20606 6.29397 2.43218 6.29397 2.66794V4.88978C6.29397 5.00766 6.3408 5.12072 6.42416 5.20406C6.50752 5.28742 6.62058 5.33426 6.73846 5.33426C6.85635 5.33426 6.96941 5.28742 7.05277 5.20406C7.13613 5.12072 7.18296 5.00766 7.18296 4.88978V1.77899C7.18296 1.54324 7.27662 1.31713 7.44334 1.15042C7.61006 0.983715 7.83619 0.890061 8.07197 0.890061C8.30774 0.890061 8.53386 0.983715 8.70058 1.15042C8.8673 1.31713 8.96096 1.54324 8.96096 1.77899V4.88978C8.96096 5.00766 9.00779 5.12072 9.09115 5.20406C9.17451 5.28742 9.28757 5.33426 9.40546 5.33426C9.52334 5.33426 9.63642 5.28742 9.71978 5.20406C9.80314 5.12072 9.84997 5.00766 9.84997 4.88978V2.66794C9.84997 2.43218 9.94362 2.20606 10.1103 2.03936C10.2771 1.87266 10.5032 1.77899 10.739 1.77899C10.9747 1.77899 11.2009 1.87266 11.3676 2.03936C11.5343 2.20606 11.628 2.43218 11.628 2.66794V4.88978C11.628 5.00766 11.6748 5.12072 11.7581 5.20406C11.8415 5.28742 11.9546 5.33426 12.0725 5.33426C12.1904 5.33426 12.3034 5.28742 12.3868 5.20406C12.4701 5.12072 12.517 5.00766 12.517 4.88978V3.55688C12.517 3.32112 12.6106 3.09501 12.7773 2.9283C12.9441 2.76158 13.1702 2.66794 13.406 2.66794C13.6417 2.66794 13.8679 2.76158 14.0346 2.9283C14.2013 3.09501 14.295 3.32112 14.295 3.55688V9.52946C14.2934 11.0096 13.7045 12.4287 12.6576 13.4752C11.6107 14.5217 10.1913 15.11 8.71096 15.1111C7.78699 15.093 6.87976 14.8613 6.06035 14.434C5.24094 14.0067 4.53162 13.3955 3.98797 12.6482C2.63931 10.9426 1.88754 8.84165 1.84797 6.66765L1.84896 6.22269ZM8.71096 16C10.4265 15.9979 12.0712 15.3155 13.2843 14.1025C14.4974 12.8895 15.1798 11.2449 15.182 9.52946V3.55688C15.1822 3.23482 15.0949 2.91875 14.9294 2.6425C14.7638 2.36624 14.5262 2.14021 14.2421 1.98859C13.9579 1.83696 13.6379 1.76547 13.3162 1.78174C12.9945 1.79802 12.6834 1.90146 12.416 2.08098C12.2937 1.73334 12.0668 1.43215 11.7662 1.21887C11.4657 1.00559 11.1065 0.89071 10.738 0.890061C10.3861 0.889218 10.042 0.993691 9.74997 1.19004C9.62811 0.842245 9.40117 0.540909 9.10056 0.327714C8.79995 0.114518 8.44051 0 8.07197 0C7.70341 0 7.34397 0.114518 7.04336 0.327714C6.74275 0.540909 6.51582 0.842245 6.39397 1.19004C6.12642 1.01015 5.81494 0.906475 5.49294 0.890141C5.17094 0.873806 4.85058 0.945426 4.56619 1.09732C4.28181 1.24921 4.04414 1.47565 3.87867 1.75234C3.71322 2.02904 3.62619 2.34555 3.62696 2.66794V4.6848C3.3569 4.52818 3.05034 4.44552 2.73814 4.44514C2.42595 4.44475 2.11918 4.52666 1.84874 4.68261C1.57829 4.83856 1.35374 5.06302 1.19771 5.33341C1.04167 5.60379 0.959667 5.91051 0.959962 6.22269V6.66666C1.00368 9.02485 1.81067 11.3053 3.25997 13.1662C3.88792 14.0275 4.7069 14.7316 5.65264 15.2232C6.59838 15.7149 7.6452 15.9808 8.71096 16Z" fill="#717171"/>
</svg>
