<svg width="160" height="22" viewBox="0 0 160 22" fill="none" xmlns="http://www.w3.org/2000/svg">
<path d="M23.6016 21.9775C25.2737 22.0658 26.926 21.5886 28.2806 20.6263C29.6352 19.6639 30.6094 18.2751 31.0396 16.6933C31.8163 13.1813 30.0913 10.821 26.1498 8.57306C24.9199 7.86936 24.8565 7.252 24.9732 6.7454C25.0282 6.29419 25.4732 5.87229 26.3815 5.87229C27.4056 6.01447 28.3331 6.54017 28.968 7.33833L32.9346 3.90943C32.1003 2.91041 31.0462 2.10827 29.8506 1.56281C28.6551 1.01734 27.3491 0.742607 26.0298 0.759082C24.4684 0.664277 22.9208 1.09487 21.6446 1.97921C20.3684 2.86355 19.4404 4.14834 19.0151 5.61981C18.2534 8.90862 19.9634 11.4954 23.7016 13.6504C25.0815 14.4649 25.2232 15.1377 25.1098 15.7566C25.0332 16.0875 24.8373 16.3804 24.5579 16.5817C24.2785 16.783 23.9343 16.8793 23.5882 16.8529C21.5766 16.8529 19.995 14.5724 19.995 14.5724L15.8535 17.6674C16.6474 18.9827 17.78 20.0719 19.1385 20.8264C20.497 21.5809 22.0341 21.9744 23.5966 21.9678L23.6016 21.9775ZM42.3642 1.17935H35.0312L30.5446 21.5654H36.7261L38.3694 14.0919H40.7559C42.5557 14.2357 44.3453 13.7154 45.772 12.6336C47.1988 11.5518 48.1592 9.98687 48.464 8.24727C48.6327 7.49904 48.6488 6.72562 48.5111 5.97132C48.3735 5.21703 48.0849 4.49669 47.6619 3.8516C47.239 3.20651 46.6899 2.64934 46.0462 2.21203C45.4025 1.77472 44.6769 1.46585 43.9108 1.30314C43.4028 1.19755 42.883 1.15595 42.3642 1.17935ZM42.5925 7.80258C42.5278 8.19485 42.3185 8.55045 42.0042 8.80246C41.6899 9.05446 41.2922 9.18549 40.8859 9.17088H39.4777L40.101 6.22251H41.2676C41.472 6.21025 41.6766 6.24533 41.8645 6.32488C42.0525 6.40444 42.2186 6.52624 42.3494 6.68036C42.4801 6.83449 42.5718 7.0166 42.6169 7.21188C42.6621 7.40717 42.6594 7.61011 42.6092 7.8042L42.5925 7.80258ZM54.4588 21.9743C56.6259 22.093 58.7587 21.4054 60.4283 20.0498C62.0979 18.6941 63.1805 16.7709 63.4585 14.6669L66.3983 1.17935H60.2186L57.4337 13.9958C57.1803 15.2598 56.5437 15.9065 55.4504 15.9065C53.9838 15.9065 53.6021 15.0334 53.8671 13.9388L56.6237 1.17935H50.4339L47.7674 13.6016C46.5907 19.0878 49.9489 21.9775 54.4604 21.9775L54.4588 21.9743ZM81.1145 8.0632C81.4363 6.58835 81.1471 5.04896 80.3103 3.782C79.4735 2.51504 78.1573 1.62372 76.6496 1.30314C76.157 1.20001 75.653 1.15896 75.1497 1.18097H67.5483L63.1501 21.5654H69.3332L71.0382 13.8084L73.9331 21.5654H80.4845L77.0096 13.165C78.0759 12.7181 79.0107 12.0175 79.7289 11.1269C80.4471 10.2363 80.9257 9.18419 81.1211 8.06646L81.1145 8.0632ZM73.4331 6.2388C73.6426 6.22142 73.8534 6.24467 74.0537 6.30723C74.2539 6.36979 74.4395 6.47042 74.5998 6.60333C74.7601 6.73624 74.892 6.89882 74.9878 7.0817C75.0836 7.26459 75.1414 7.46418 75.158 7.669C75.1754 7.85933 75.1556 8.05115 75.0997 8.23424C75.011 8.72822 74.7395 9.17303 74.3368 9.48395C73.9342 9.79486 73.4286 9.95013 72.9164 9.92019H71.8481L72.6515 6.2388H73.4331ZM97.8555 1.17935H82.0411L80.7728 6.8806H85.5743L82.3861 21.5654H88.5642L91.7658 6.88549H96.5839L97.8555 1.17935ZM112.088 21.9775C113.774 22.0654 115.457 21.7591 116.997 21.084C118.537 20.4089 119.891 19.3845 120.945 18.0958L116.463 14.5854C115.986 15.1168 115.397 15.5422 114.737 15.833C114.078 16.1238 113.362 16.2733 112.638 16.2714C111.944 16.2619 111.261 16.0977 110.641 15.7913C110.022 15.4848 109.482 15.0443 109.063 14.5032C108.644 13.962 108.356 13.3346 108.223 12.6685C108.089 12.0025 108.113 11.3155 108.292 10.6597C108.486 9.48783 109.102 8.42199 110.027 7.65333C110.953 6.88467 112.129 6.46346 113.343 6.46522C114.274 6.47214 115.179 6.7597 115.936 7.2886C116.693 7.81749 117.264 8.56191 117.571 9.4201L123.098 7.03046C122.417 5.18207 121.165 3.58599 119.516 2.46263C117.867 1.33926 115.902 0.74401 113.892 0.759082C111.13 0.653718 108.424 1.5337 106.277 3.2349C104.131 4.9361 102.691 7.34236 102.225 10.0049C101.903 11.4461 101.916 12.9396 102.263 14.3754C102.609 15.8112 103.281 17.1527 104.228 18.3014C105.175 19.45 106.374 20.3765 107.735 21.0127C109.097 21.6489 110.587 21.9786 112.097 21.9775H112.088ZM120.138 21.5654H125.971L128.013 14.2597L131.208 21.0311L137.182 14.9063L136.167 21.5638H141.976L145.037 0L132.931 11.7202L126.488 0L120.138 21.5654ZM150.645 21.9889C152.32 22.0802 153.975 21.6045 155.332 20.6419C156.69 19.6794 157.666 18.2888 158.097 16.7047C158.873 13.1927 157.148 10.8324 153.21 8.58446C151.977 7.88076 151.917 7.2634 152.03 6.7568C152.089 6.30559 152.53 5.8837 153.439 5.8837C154.463 6.02105 155.393 6.54061 156.033 7.33344L160 3.91269C159.166 2.91328 158.112 2.11066 156.917 1.56463C155.722 1.0186 154.416 0.743246 153.097 0.759082C151.535 0.663125 149.986 1.09318 148.709 1.97761C147.431 2.86204 146.503 4.14747 146.077 5.61981C145.315 8.90862 147.025 11.4954 150.764 13.6504C152.144 14.4649 152.285 15.1377 152.174 15.7566C152.096 16.087 151.9 16.3793 151.621 16.5805C151.341 16.7816 150.998 16.8783 150.652 16.8529C148.639 16.8529 147.059 14.5724 147.059 14.5724L142.926 17.6674C143.718 18.9792 144.847 20.066 146.201 20.8203C147.555 21.5746 149.087 21.9701 150.645 21.9678V21.9889Z" fill="#05ACD7"/>
<path d="M18.3736 12.0443H7.62727C7.43604 12.0124 7.2625 11.9155 7.13737 11.7706C7.01224 11.6257 6.9436 11.4422 6.9436 11.2526C6.9436 11.063 7.01224 10.8795 7.13737 10.7346C7.2625 10.5897 7.43604 10.4928 7.62727 10.4609H18.3736C18.5648 10.4928 18.7383 10.5897 18.8635 10.7346C18.9886 10.8795 19.0572 11.063 19.0572 11.2526C19.0572 11.4422 18.9886 11.6257 18.8635 11.7706C18.7383 11.9155 18.5648 12.0124 18.3736 12.0443Z" fill="#05ACD7"/>
<path d="M20.182 2.52998H7.73916C7.53819 2.51987 7.34822 2.43714 7.20613 2.29786C7.06404 2.15858 6.97995 1.97267 6.97019 1.77621C6.96043 1.57975 7.0257 1.38675 7.15331 1.23467C7.28093 1.08258 7.4618 0.982262 7.66083 0.953171H20.182C20.3917 0.950975 20.5941 1.02818 20.7469 1.16861C20.8996 1.30903 20.9908 1.50179 21.0013 1.70647C21.0119 1.91116 20.941 2.1119 20.8035 2.26663C20.666 2.42136 20.4725 2.51807 20.2637 2.53649L20.182 2.52998Z" fill="#05ACD7"/>
<path d="M17.0452 7.29459H0.814137C0.598214 7.29459 0.391135 7.21075 0.238455 7.06152C0.0857749 6.9123 0 6.7099 0 6.49886C0 6.28782 0.0857749 6.08542 0.238455 5.93619C0.391135 5.78696 0.598214 5.70312 0.814137 5.70312H17.0452C17.251 5.71604 17.4441 5.80506 17.5852 5.95211C17.7263 6.09915 17.8049 6.29319 17.8049 6.49479C17.8049 6.69638 17.7263 6.89042 17.5852 7.03746C17.4441 7.18451 17.251 7.27353 17.0452 7.28645V7.29459Z" fill="#05ACD7"/>
</svg>
