<svg width="12" height="7" viewBox="0 0 12 7" fill="none" xmlns="http://www.w3.org/2000/svg">
<g id="Group">
<path id="Vector" d="M0.232468 0.0615429C0.453682 -0.0662289 0.735458 0.0113768 0.862007 0.234907L0.864393 0.239014C0.866894 0.243308 0.871159 0.250541 0.877187 0.260527C0.889242 0.280547 0.908322 0.311533 0.934421 0.351946C0.986653 0.432819 1.06679 0.551071 1.17472 0.694336C1.39104 0.981379 1.71651 1.36535 2.14998 1.74885C3.01697 2.5159 4.29792 3.26671 5.99988 3.26671C7.70188 3.26671 8.98278 2.5159 9.84977 1.74885C10.2832 1.36535 10.6087 0.981379 10.825 0.694336C10.9329 0.551071 11.0131 0.432819 11.0653 0.351946C11.0914 0.311533 11.1105 0.280547 11.1225 0.260527C11.1286 0.250541 11.1328 0.243308 11.1354 0.239014L11.1376 0.235188L11.138 0.234535C11.2647 0.0113305 11.5462 -0.0661823 11.7673 0.0615429C11.9886 0.189455 12.0655 0.474492 11.939 0.698256L11.5383 0.466745C11.939 0.698256 11.9391 0.698069 11.939 0.698256L11.9385 0.699096L11.9379 0.700216L11.9361 0.703389L11.9304 0.713189C11.9257 0.721262 11.9192 0.732369 11.9108 0.746322C11.894 0.774181 11.8698 0.813334 11.8382 0.862287C11.775 0.960052 11.6821 1.09697 11.5593 1.25998C11.314 1.58538 10.9472 2.01811 10.4576 2.45127C9.47847 3.31753 7.9902 4.20003 5.99988 4.20003C4.0096 4.20003 2.52129 3.31753 1.54214 2.45127C1.05254 2.01811 0.685705 1.58538 0.440487 1.25998C0.317658 1.09697 0.224714 0.960052 0.161563 0.862287C0.12997 0.813334 0.105781 0.774181 0.0889908 0.746322C0.0805954 0.732369 0.0740416 0.721262 0.0693339 0.713189L0.0636524 0.703389L0.0618433 0.700216L0.0612017 0.699096L0.0609433 0.698629C0.0608325 0.698442 0.0607309 0.698256 0.461454 0.466745L0.0609433 0.698629C-0.065522 0.474865 0.0111528 0.189455 0.232468 0.0615429Z" fill="#112D55"/>
<path id="Vector_2" d="M1.71096 4.06372L0.787891 4.99704C0.607648 5.17927 0.315422 5.17927 0.135179 4.99704C-0.0450597 4.81481 -0.0450597 4.51932 0.135179 4.33709L1.05825 3.40376C1.23849 3.22153 1.53072 3.22153 1.71096 3.40376C1.8912 3.58599 1.8912 3.88148 1.71096 4.06372Z" fill="#112D55"/>
<path id="Vector_3" d="M11.2121 4.99704L10.289 4.06372C10.1088 3.88148 10.1088 3.58599 10.289 3.40376C10.4692 3.22153 10.7615 3.22153 10.9417 3.40376L11.8648 4.33709C12.045 4.51932 12.045 4.81481 11.8648 4.99704C11.6845 5.17927 11.3923 5.17927 11.2121 4.99704Z" fill="#112D55"/>
<path id="Vector_4" d="M3.42828 6.23987C3.33362 6.47913 3.06501 6.59556 2.82834 6.49985C2.59167 6.40413 2.47655 6.13254 2.57122 5.89323L3.03272 4.72658C3.12739 4.48728 3.39597 4.37089 3.63265 4.4666C3.86932 4.56232 3.98443 4.83391 3.88977 5.07322L3.42828 6.23987Z" fill="#112D55"/>
<path id="Vector_5" d="M9.17123 6.49985C8.93455 6.59556 8.66594 6.47913 8.57128 6.23987L8.10979 5.07322C8.01513 4.83391 8.13024 4.56232 8.36691 4.4666C8.60359 4.37089 8.87215 4.48728 8.96682 4.72658L9.42835 5.89323C9.52301 6.13254 9.4079 6.40413 9.17123 6.49985Z" fill="#112D55"/>
<path id="Vector_6" d="M6.46164 6.53322C6.46164 6.79095 6.25502 6.99988 6.00011 6.99988C5.7452 6.99988 5.53857 6.79095 5.53857 6.53322V5.36656C5.53857 5.10883 5.7452 4.8999 6.00011 4.8999C6.25502 4.8999 6.46164 5.10883 6.46164 5.36656V6.53322Z" fill="#112D55"/>
</g>
</svg>
