<svg id="Group_2732" data-name="Group 2732" xmlns="http://www.w3.org/2000/svg" xmlns:xlink="http://www.w3.org/1999/xlink" width="1440" height="750" viewBox="0 0 1440 750">
  <defs>
    <clipPath id="clip-path">
      <rect id="Rectangle_2" data-name="Rectangle 2" width="1440" height="750" fill="none"/>
    </clipPath>
  </defs>
  <g id="BACKGROUND">
    <rect id="Rectangle_1" data-name="Rectangle 1" width="1440" height="750" fill="#e2f6fb"/>
  </g>
  <g id="OBJECTS">
    <g id="Group_3" data-name="Group 3">
      <g id="Group_2" data-name="Group 2" clip-path="url(#clip-path)">
        <g id="Group_1" data-name="Group 1" transform="translate(-118.623 -130.953)">
          <path id="Path_1" data-name="Path 1" d="M77.421-53.449s25.334,36.868-7.288,98.706C38.071,106.03,88.1,95.714,101.914,133.306c14.986,40.782-20.69,59.265-28.908,90.986-7.672,29.616,80.177,32.99,55.853,100.587-22.994,63.9-83.67,83.684-40.712,162.017C131.3,565.589,142.4,578.4,83.767,679.5,25.594,779.8,29.54,816.688,135.795,895.466" transform="translate(161.227 104.281)" fill="none" stroke="#f5fbfa" stroke-linecap="round" stroke-linejoin="round" stroke-width="1"/>
          <path id="Path_2" data-name="Path 2" d="M88.632-51.559s13.142,41.83-14.577,103.6c-26.7,59.493,21.391,52.139,37.836,88.62,18.574,41.211-9.1,60.183-20.052,93.509-9.55,29.066,58.013,36.057,42.6,102.39-14.872,64-67.517,83.822-34.508,161.545,33.37,78.571,38,94.147-11.361,192.556C40.081,787.326,40.861,819.308,153.29,901.482" transform="translate(171.997 105.224)" fill="none" stroke="#f5fbfa" stroke-linecap="round" stroke-linejoin="round" stroke-width="1"/>
          <path id="Path_3" data-name="Path 3" d="M99.945-49.669s.891,46.717-21.867,108.5c-21.416,58.138,24.96,53.818,43.887,89.189,22.293,41.658-3.7,59.427-17.5,94.375-11.268,28.517,42.34,40.947,35.654,105.852-6.622,64.278-51.406,84.025-28.3,161.073,23.545,78.516,21.721,96.694-18.342,192.513-38.857,92.938-41.192,120.1,77.416,205.668" transform="translate(182.668 106.167)" fill="none" stroke="#f5fbfa" stroke-linecap="round" stroke-linejoin="round" stroke-width="1"/>
          <path id="Path_4" data-name="Path 4" d="M112.493-47.779S101.053,3.75,83.338,65.616C67.1,122.331,112,121.1,133.279,155.375c26.139,42.1-2.373,60.331-19.165,96.9-12.851,27.984,31.123,44.313,32.916,107.657,1.83,64.692-35.368,84.285-22.1,160.6,13.655,78.52,5.378,99.142-25.321,192.471-29.315,89.115-34.673,111.548,90.109,200.518" transform="translate(192.103 107.11)" fill="none" stroke="#f5fbfa" stroke-linecap="round" stroke-linejoin="round" stroke-width="1"/>
          <path id="Path_5" data-name="Path 5" d="M126.635-45.889S102.756,10.389,90.193,72.4c-11.19,55.23,32.477,57.125,55.993,90.329,30.111,42.517,5.382,67.886-14.517,106.05-14.323,27.47,13.891,41.124,23.867,102.83,10.543,65.194-19.423,84.59-15.892,160.127,3.671,78.573-11.067,101.487-32.3,192.429-19.893,85.2-28.157,103,102.8,195.367" transform="translate(199.943 108.053)" fill="none" stroke="#f5fbfa" stroke-linecap="round" stroke-linejoin="round" stroke-width="1"/>
          <path id="Path_6" data-name="Path 6" d="M141.011-44S104.556,16.975,97.281,79.189c-6.28,53.7,36.4,58.733,62.047,90.9,34.2,42.9,13.258,68.844-9.869,108.574-15.7,26.979-3.043,44.582,14.82,104.633,19.549,65.714-3.587,84.919-9.688,159.654-6.42,78.651-27.663,103.735-39.281,192.386-10.643,81.193-21.638,94.453,115.5,190.216" transform="translate(207.548 108.996)" fill="none" stroke="#f5fbfa" stroke-linecap="round" stroke-linejoin="round" stroke-width="1"/>
          <path id="Path_7" data-name="Path 7" d="M155.675-42.109s-49.2,65.642-51.02,128.085c-1.523,52.146,40.4,60.3,68.1,91.469,38.413,43.22,21.249,69.844-5.217,111.1-17.015,26.518-19.709,47.994,5.772,106.438,28.854,66.182,12.134,85.249-3.483,159.182-16.631,78.727-44.469,105.909-46.262,192.342-1.6,77.118-15.12,85.906,128.193,185.066" transform="translate(214.868 109.94)" fill="none" stroke="#f5fbfa" stroke-linecap="round" stroke-linejoin="round" stroke-width="1"/>
          <path id="Path_8" data-name="Path 8" d="M170.678-40.219s-62.123,70.3-58.308,132.981c3.08,50.589,44.463,61.824,74.152,92.04,42.72,43.476,29.347,70.9-.568,113.618-18.265,26.084-36.154,51.308-3.276,108.241C221.1,473.2,210.43,492.216,185.4,565.371c-26.955,78.779-61.538,108.045-53.242,192.3,7.188,73.013-8.6,77.357,140.888,179.914" transform="translate(221.848 110.883)" fill="none" stroke="#f5fbfa" stroke-linecap="round" stroke-linejoin="round" stroke-width="1"/>
          <path id="Path_9" data-name="Path 9" d="M185.949-38.329S110.7,36.662,120.352,99.549c7.53,49.049,48.578,63.3,80.206,92.608,105.373,97.648-83.092,122.561-8.245,226.187,48.207,66.742,43.285,85.819,8.928,158.238-37.377,78.784-78.924,110.2-60.225,192.257,15.709,68.926-2.083,68.809,153.583,174.763" transform="translate(228.559 111.826)" fill="none" stroke="#f5fbfa" stroke-linecap="round" stroke-linejoin="round" stroke-width="1"/>
          <path id="Path_10" data-name="Path 10" d="M201.373-36.439S112.792,43.3,128.488,106.335c11.843,47.558,52.729,64.732,86.258,93.179C337.133,303.345,117.959,333.381,202.1,430.027c58.136,66.771,58.752,86.026,15.132,157.766-47.871,78.728-96.643,112.467-67.2,192.213C174,844.931,154.466,840.268,316.31,949.618" transform="translate(235.117 112.769)" fill="none" stroke="#f5fbfa" stroke-linecap="round" stroke-linejoin="round" stroke-width="1"/>
          <path id="Path_11" data-name="Path 11" d="M216.9-34.549S114.8,50.024,136.727,113.122c16.036,46.131,56.9,66.117,92.312,93.747,139.824,109.1-110.152,143.8-17.04,234.841,68.147,66.628,74.185,86.174,21.337,157.293-58.412,78.605-114.676,114.912-74.185,192.17,32.01,61.073,10.952,51.715,178.971,164.462" transform="translate(241.571 113.712)" fill="none" stroke="#f5fbfa" stroke-linecap="round" stroke-linejoin="round" stroke-width="1"/>
          <path id="Path_12" data-name="Path 12" d="M232.5-32.659S116.7,56.865,145.043,119.908c20.137,44.794,61.083,67.46,98.364,94.318,157.6,113.543-123.037,151.2-19.336,239.167,78.186,66.327,87.5,86.262,25.438,156.82-68.976,78.42-132.952,117.614-81.164,192.128,39.909,57.42,17.468,43.169,191.666,159.313" transform="translate(247.952 114.655)" fill="none" stroke="#f5fbfa" stroke-linecap="round" stroke-linejoin="round" stroke-width="1"/>
          <path id="Path_13" data-name="Path 13" d="M248.162-30.77S118.518,63.847,153.412,126.7c24.18,43.554,65.27,68.76,104.417,94.888,167.318,111.669-136.406,156.168-21.633,241.9,88.212,65.889,100.815,87.9,29.541,157.946C186.2,699.6,114.375,742.035,177.593,813.509c47.76,54,23.987,34.621,204.359,154.162" transform="translate(254.276 115.598)" fill="none" stroke="#f5fbfa" stroke-linecap="round" stroke-linejoin="round" stroke-width="1"/>
          <path id="Path_14" data-name="Path 14" d="M252.827-31.783S134.457,57.46,164.02,120.477c20.9,44.552,63.283,67.847,100.911,94.564C422.891,327.2,134.862,371.159,239.526,457.765c80.068,66.255,94.965,87.913,31.179,158.373-70.957,78.378-148.923,118.607-95,192.573,41.38,56.76,35.027,45.4,210.38,162.185" transform="translate(263.74 115.092)" fill="none" stroke="#f5fbfa" stroke-linecap="round" stroke-linejoin="round" stroke-width="1"/>
          <path id="Path_15" data-name="Path 15" d="M258.005-32.8S150.823,51.166,175.142,114.258c17.583,45.618,61.294,66.906,97.405,94.242C418.621,319.073,151.68,361.731,247.574,450.453c71.912,66.534,84.912,89.494,28.61,160.4C213.811,689.394,136,727.65,180.7,803.911c34.984,59.677,39.7,56.188,210.033,170.209" transform="translate(272.691 114.587)" fill="none" stroke="#f5fbfa" stroke-linecap="round" stroke-linejoin="round" stroke-width="1"/>
          <path id="Path_16" data-name="Path 16" d="M260.64-33.81s-96.1,78.764-76.919,141.849c14.214,46.745,59.313,65.937,93.9,93.919,130.6,105.648-111.886,149.8-24.541,241.183,63.759,66.712,74.855,91.038,26.041,162.42-53.8,78.668-125.217,115.175-89.595,193.55,28.514,62.737,38,66.972,203.315,178.233" transform="translate(284.184 114.081)" fill="none" stroke="#f5fbfa" stroke-linecap="round" stroke-linejoin="round" stroke-width="1"/>
          <path id="Path_17" data-name="Path 17" d="M264.381-34.823S179.239,38.815,193.406,101.82c10.775,47.925,57.339,64.939,90.4,93.6C400.085,296.225,180.732,341.066,259.69,435.83c55.644,66.781,64.783,92.542,23.474,164.445-45.243,78.748-112.556,113.7-85.832,194.039,21.926,65.913,38.421,77.754,198.72,186.256" transform="translate(294.573 113.575)" fill="none" stroke="#f5fbfa" stroke-linecap="round" stroke-linejoin="round" stroke-width="1"/>
          <path id="Path_18" data-name="Path 18" d="M268.244-35.837S193.928,32.728,203.212,95.6c7.258,49.145,55.384,63.911,86.891,93.273,102.188,95.236-94.441,140.416-23.679,239.644,47.591,66.735,54.68,94.005,20.9,166.469-36.724,78.785-95.862,112.336-77.821,194.528,15.183,69.181,34.6,88.538,189.878,194.28" transform="translate(304.839 113.069)" fill="none" stroke="#f5fbfa" stroke-linecap="round" stroke-linejoin="round" stroke-width="1"/>
          <path id="Path_19" data-name="Path 19" d="M272.479-36.85S208.858,26.678,213.393,89.384c3.644,50.394,53.451,62.851,83.386,92.95,89.044,89.538-86.31,132.955-23.247,238.873,39.636,66.573,44.536,95.434,18.336,168.493-28.255,78.782-85.761,111.034-76.182,195.016,8.268,72.5,37.146,99.324,187.407,202.3" transform="translate(314.731 112.564)" fill="none" stroke="#f5fbfa" stroke-linecap="round" stroke-linejoin="round" stroke-width="1"/>
          <path id="Path_20" data-name="Path 20" d="M276.88-37.863s-53.061,58.51-53.144,121.028c-.067,51.659,51.552,61.761,79.882,92.627C380.1,259.127,225.479,298.6,280.8,413.895c31.818,66.309,34.337,96.831,15.765,170.516-19.845,78.748-71.622,109.754-70.3,195.5,1.175,75.837,35.449,110.107,180.691,210.329" transform="translate(324.46 112.058)" fill="none" stroke="#f5fbfa" stroke-linecap="round" stroke-linejoin="round" stroke-width="1"/>
          <path id="Path_21" data-name="Path 21" d="M281.486-38.877s-42.628,53.5-47.2,115.823c-3.882,52.927,49.69,60.643,76.376,92.305,66.154,78.492-70.362,106.379-22.383,237.332,24.165,65.958,24.071,98.208,13.2,172.542-11.51,78.689-59.795,108.458-66.532,195.992-6.092,79.163,35.871,120.891,176.1,218.353" transform="translate(333.982 111.552)" fill="none" stroke="#f5fbfa" stroke-linecap="round" stroke-linejoin="round" stroke-width="1"/>
          <path id="Path_22" data-name="Path 22" d="M286.255-39.89S253.945,8.581,245,70.727c-7.8,54.185,47.875,59.5,72.87,91.983,32.913,42.782,5.877,66.8-13.958,106.738-22.426,45.146-23.424,69.259-7.995,129.824,16.7,65.554,13.734,99.578,10.629,174.565-3.252,78.625-41.754,107.126-56.4,196.482-13.513,82.452,29.925,131.674,165.132,226.376" transform="translate(343.341 111.047)" fill="none" stroke="#f5fbfa" stroke-linecap="round" stroke-linejoin="round" stroke-width="1"/>
          <path id="Path_23" data-name="Path 23" d="M291.164-40.9s-22.1,43.419-35.311,105.411c-11.814,55.42,46.122,58.324,69.364,91.659,29.608,42.467-.52,66.054-18.027,104.572-21.686,47.714-12.463,69.31-3.492,131.221,9.437,65.129,3.32,100.953,8.06,176.589,4.927,78.565-28.088,105.736-50.511,196.971-21.064,85.693,28.226,142.458,158.413,234.4" transform="translate(352.562 110.541)" fill="none" stroke="#f5fbfa" stroke-linecap="round" stroke-linejoin="round" stroke-width="1"/>
          <path id="Path_24" data-name="Path 24" d="M296.894-41.917S284.925-3.583,267.53,58.291c-15.923,56.622,44.435,57.128,65.858,91.335,26.383,42.125-6.806,65.317-22.1,102.405-20.746,50.316-1.3,69.375,1.01,132.617,2.365,64.722-7.165,102.345,5.491,178.614,30.035,180.962-199.24,221.639,107.071,439.882" transform="translate(360.958 110.035)" fill="none" stroke="#f5fbfa" stroke-linecap="round" stroke-linejoin="round" stroke-width="1"/>
          <path id="Path_25" data-name="Path 25" d="M303.535-42.93s-1.916,33.2-23.422,95c-20.11,57.789,42.826,55.916,62.354,91.013,23.242,41.769-12.991,64.582-26.17,100.239-19.571,52.951,10.055,69.487,5.514,134.012C317.28,441.707,304.1,481.1,324.733,557.974c49.524,184.462-209.192,221.513,106.239,448.4" transform="translate(368.447 109.53)" fill="none" stroke="#f5fbfa" stroke-linecap="round" stroke-linejoin="round" stroke-width="1"/>
          <path id="Path_26" data-name="Path 26" d="M310.511-43.944s8.077,28.03-17.478,89.8c-24.374,58.91,41.3,54.695,58.848,90.689,20.185,41.406-19.081,63.84-30.24,98.075-18.127,55.614,21.585,69.682,10.017,135.408-11.284,64.1-28.314,105.227.353,182.661,68.375,184.682-219.464,220.838,105.41,456.908" transform="translate(375.6 109.024)" fill="none" stroke="#f5fbfa" stroke-linecap="round" stroke-linejoin="round" stroke-width="1"/>
          <path id="Path_27" data-name="Path 27" d="M317.168-44.957s18.029,22.8-11.533,84.591C276.936,99.617,345.5,93.1,360.978,130c17.215,41.048-25.089,63.073-34.31,95.907-16.374,58.3,33.254,69.979,14.517,136.8-17.929,63.944-38.949,106.727-2.214,184.686,37.043,78.609,17.382,99.518-35.46,198.924-52.113,98.037,29.923,185.593,140.039,266.5" transform="translate(383.071 108.518)" fill="none" stroke="#f5fbfa" stroke-linecap="round" stroke-linejoin="round" stroke-width="1"/>
          <path id="Path_28" data-name="Path 28" d="M324.086-45.97s27.948,17.527-5.589,79.385c-33.076,61.007,38.534,52.245,51.838,90.045,14.325,40.7-31.02,62.271-38.383,93.741-14.266,60.98,45.032,70.388,19.021,138.2-24.509,63.9-49.609,108.271-4.783,186.71,44.989,78.722,28.671,97.806-31.7,199.413C254.5,842.5,344.841,937.9,449.938,1016.044" transform="translate(390.282 108.013)" fill="none" stroke="#f5fbfa" stroke-linecap="round" stroke-linejoin="round" stroke-width="1"/>
          <path id="Path_29" data-name="Path 29" d="M331.035-46.984s37.843,12.2.353,74.18,37.3,51.036,48.334,89.722c11.516,40.39-36.881,61.418-42.453,91.575-11.762,63.656,56.868,70.914,23.524,139.6-31.06,63.978-60.278,109.856-7.352,188.734s39.955,96.042-27.934,199.9,30.772,207.161,130.85,282.544" transform="translate(397.462 107.507)" fill="none" stroke="#f5fbfa" stroke-linecap="round" stroke-linejoin="round" stroke-width="1"/>
          <path id="Path_30" data-name="Path 30" d="M340.741-48.624S368.688-31.1,335.15,30.761c-33.074,61.007,38.536,52.245,51.84,90.045,14.325,40.7-31.02,62.271-38.383,93.741-14.268,60.98,45.032,70.388,19.021,138.2-24.511,63.9-49.609,108.271-4.783,186.71,44.989,78.722,28.671,97.806-31.7,199.413C271.156,839.844,361.5,935.248,466.591,1013.39" transform="translate(405.605 106.688)" fill="none" stroke="#f5fbfa" stroke-linecap="round" stroke-linejoin="round" stroke-width="1"/>
          <path id="Path_31" data-name="Path 31" d="M350.478-50.265s18.029,22.8-11.533,84.591c-28.7,59.983,39.869,53.468,55.342,90.367,17.215,41.048-25.087,63.073-34.31,95.907-16.374,58.3,33.256,69.979,14.519,136.8-17.929,63.944-38.949,106.727-2.214,184.685,37.043,78.61,17.382,99.52-35.46,198.926-52.115,98.037,29.923,185.593,140.037,266.5" transform="translate(413.716 105.87)" fill="none" stroke="#f5fbfa" stroke-linecap="round" stroke-linejoin="round" stroke-width="1"/>
          <path id="Path_32" data-name="Path 32" d="M360.475-51.906s8.077,28.03-17.478,89.8C318.623,96.8,384.3,92.586,401.846,128.58c20.185,41.406-19.081,63.839-30.24,98.073-18.127,55.615,21.585,69.682,10.017,135.409-11.284,64.1-28.314,105.227.353,182.661,68.375,184.682-219.464,220.838,105.41,456.908" transform="translate(421.567 105.051)" fill="none" stroke="#f5fbfa" stroke-linecap="round" stroke-linejoin="round" stroke-width="1"/>
          <path id="Path_33" data-name="Path 33" d="M370.154-53.547s-1.916,33.206-23.422,95c-20.112,57.789,42.826,55.918,62.354,91.013,23.242,41.769-12.991,64.584-26.17,100.241-19.571,52.951,10.055,69.487,5.514,134.012-4.531,64.369-17.716,103.768,2.922,180.638C440.877,731.82,182.161,768.871,497.592,995.752" transform="translate(429.737 104.232)" fill="none" stroke="#f5fbfa" stroke-linecap="round" stroke-linejoin="round" stroke-width="1"/>
          <path id="Path_34" data-name="Path 34" d="M380.168-55.187S368.2-16.854,350.8,45.019c-15.921,56.624,44.436,57.129,65.86,91.337,26.383,42.125-6.806,65.317-22.1,102.405-20.746,50.316-1.3,69.373,1.01,132.617,2.367,64.722-7.165,102.345,5.493,178.613C431.1,730.954,201.824,771.631,508.137,989.873" transform="translate(437.57 103.413)" fill="none" stroke="#f5fbfa" stroke-linecap="round" stroke-linejoin="round" stroke-width="1"/>
          <path id="Path_35" data-name="Path 35" d="M391.092-56.828S369-13.409,355.781,48.584C343.967,104,401.9,106.907,425.147,140.243c29.608,42.467-.522,66.053-18.029,104.572-21.686,47.712-12.463,69.309-3.492,131.221,9.437,65.128,3.32,100.953,8.062,176.589,4.925,78.564-28.088,105.736-50.513,196.971-21.062,85.693,28.226,142.458,158.415,234.4" transform="translate(444.496 102.595)" fill="none" stroke="#f5fbfa" stroke-linecap="round" stroke-linejoin="round" stroke-width="1"/>
          <path id="Path_36" data-name="Path 36" d="M402.839-58.468S370.529-10,361.583,52.149c-7.8,54.184,47.877,59.495,72.87,91.981,32.915,42.782,5.879,66.805-13.956,106.738-22.426,45.147-23.424,69.259-7.995,129.825,16.7,65.554,13.734,99.577,10.629,174.565-3.253,78.623-39.633,107.124-54.275,196.481-13.513,82.453,27.8,131.675,163.008,226.376" transform="translate(450.597 101.776)" fill="none" stroke="#f5fbfa" stroke-linecap="round" stroke-linejoin="round" stroke-width="1"/>
          <path id="Path_37" data-name="Path 37" d="M414.722-60.109s-42.628,53.5-47.2,115.823c-3.882,52.926,49.69,60.641,76.374,92.3,66.156,78.493-70.36,106.379-22.383,237.334,24.165,65.958,24.071,98.208,13.2,172.54-11.51,78.691-51.3,108.458-58.04,195.994-6.092,79.162,27.379,120.89,167.6,218.352" transform="translate(456.561 100.957)" fill="none" stroke="#f5fbfa" stroke-linecap="round" stroke-linejoin="round" stroke-width="1"/>
          <path id="Path_38" data-name="Path 38" d="M426.771-61.75S373.71-3.239,373.629,59.278c-.067,51.659,51.55,61.763,79.88,92.627C530,235.24,375.37,274.717,430.693,390.008c31.818,66.309,34.337,96.832,15.767,170.518-19.847,78.746-63.13,109.752-61.8,195.5,1.173,75.837,26.955,110.106,172.2,210.327" transform="translate(462.361 100.138)" fill="none" stroke="#f5fbfa" stroke-linecap="round" stroke-linejoin="round" stroke-width="1"/>
          <path id="Path_39" data-name="Path 39" d="M439.026-63.391S375.4.137,379.94,62.843c3.644,50.394,53.451,62.851,83.386,92.951,89.044,89.536-86.31,132.954-23.247,238.872,39.636,66.574,44.536,95.434,18.336,168.494-28.255,78.781-75.145,111.032-65.566,195.015,8.269,72.5,26.531,99.323,176.792,202.3" transform="translate(467.954 99.319)" fill="none" stroke="#f5fbfa" stroke-linecap="round" stroke-linejoin="round" stroke-width="1"/>
          <path id="Path_40" data-name="Path 40" d="M451.444-65.031S377.13,3.533,386.414,66.407c7.256,49.145,55.384,63.911,86.892,93.273,102.186,95.234-94.443,140.415-23.679,239.642,47.591,66.735,54.68,94,20.9,166.469-36.722,78.785-87.368,112.336-69.327,194.528,15.183,69.181,26.106,88.539,181.386,194.28" transform="translate(473.385 98.501)" fill="none" stroke="#f5fbfa" stroke-linecap="round" stroke-linejoin="round" stroke-width="1"/>
          <path id="Path_41" data-name="Path 41" d="M463.966-66.672S378.825,6.966,392.991,69.973c10.777,47.924,57.341,64.937,90.4,93.6,116.281,100.807-103.071,145.649-24.111,240.413,55.644,66.781,64.781,92.542,23.472,164.445-45.241,78.748-99.815,113.7-73.092,194.039,21.926,65.915,25.684,77.754,185.983,186.256" transform="translate(478.711 97.682)" fill="none" stroke="#f5fbfa" stroke-linecap="round" stroke-linejoin="round" stroke-width="1"/>
          <path id="Path_42" data-name="Path 42" d="M476.561-68.313s-96.1,78.766-76.919,141.849c14.214,46.745,59.313,65.937,93.9,93.919C624.14,273.1,381.658,317.253,469,408.639c63.761,66.712,74.855,91.038,26.041,162.42-53.8,78.668-112.477,115.177-76.856,193.55,28.514,62.737,25.258,66.972,190.575,178.233" transform="translate(483.964 96.863)" fill="none" stroke="#f5fbfa" stroke-linecap="round" stroke-linejoin="round" stroke-width="1"/>
          <path id="Path_43" data-name="Path 43" d="M489.212-69.953S382.032,14.009,406.35,77.1c17.583,45.618,61.294,66.906,97.405,94.242C649.829,281.916,382.888,324.574,478.782,413.3c71.91,66.532,84.912,89.494,28.61,160.4-62.373,78.544-125.324,116.8-80.619,193.062,34.982,59.677,24.833,56.188,195.17,170.209" transform="translate(489.162 96.045)" fill="none" stroke="#f5fbfa" stroke-linecap="round" stroke-linejoin="round" stroke-width="1"/>
          <path id="Path_44" data-name="Path 44" d="M501.909-71.594S383.539,17.649,413.1,80.666c20.9,44.552,63.281,67.847,100.911,94.566C675,289.538,384.255,331.606,488.607,417.954c80.068,66.255,94.965,87.913,31.177,158.373C448.829,654.7,381.479,694.933,435.4,768.9c41.38,56.76,24.409,45.4,199.764,162.185" transform="translate(494.315 95.226)" fill="none" stroke="#f5fbfa" stroke-linecap="round" stroke-linejoin="round" stroke-width="1"/>
          <path id="Path_45" data-name="Path 45" d="M514.639-73.235S384.993,21.382,419.887,84.231c24.18,43.554,65.27,68.76,104.417,94.888,176.807,118-138.563,159.295-25.837,243.493,88.212,65.889,105.022,86.3,33.746,156.348C452.671,657.133,380.85,699.57,444.068,771.044c47.76,54,23.987,34.621,204.359,154.162" transform="translate(499.433 94.407)" fill="none" stroke="#f5fbfa" stroke-linecap="round" stroke-linejoin="round" stroke-width="1"/>
          <path id="Path_46" data-name="Path 46" d="M520.374-72.709S401.981,17.76,431.543,80.777c20.9,44.554,61.87,67.708,99.5,94.426,163.294,115.943-135.1,157.782-22.464,241.912C596.792,483,609.02,504.528,537.744,574.579,458.2,652.753,393,694.244,457.672,767.222c47.808,53.971,27.725,36.853,191.384,155.156" transform="translate(511.282 94.67)" fill="none" stroke="#f5fbfa" stroke-linecap="round" stroke-linejoin="round" stroke-width="1"/>
          <path id="Path_47" data-name="Path 47" d="M526.141-72.183S418.917,14.232,443.234,77.325c17.583,45.62,58.47,66.627,94.581,93.961,150.5,113.922-132.288,155.778-19.089,240.332,88.212,65.889,95.86,88.531,24.586,158.581C403.555,707.552,383.426,707.407,649.718,919.549" transform="translate(523.096 94.932)" fill="none" stroke="#f5fbfa" stroke-linecap="round" stroke-linejoin="round" stroke-width="1"/>
          <path id="Path_48" data-name="Path 48" d="M531.954-71.657S435.787,10.788,454.97,73.872c14.214,46.745,55.073,65.516,89.662,93.5,138.875,112.348-130.116,153.3-15.715,238.749,88.213,65.889,91.279,89.649,20,159.7-139.966,137.559-141.158,135.082,101.5,350.9" transform="translate(534.866 95.195)" fill="none" stroke="#f5fbfa" stroke-linecap="round" stroke-linejoin="round" stroke-width="1"/>
          <path id="Path_49" data-name="Path 49" d="M538.027-71.131S452.8,7.413,466.964,70.42c10.775,47.924,51.688,64.378,84.745,93.035C676.532,271.668,426,315.943,539.367,400.622c88.212,65.889,86.7,90.766,15.423,160.816-138.883,136.5-124.224,129.55,96.6,352.457" transform="translate(546.376 95.457)" fill="none" stroke="#f5fbfa" stroke-linecap="round" stroke-linejoin="round" stroke-width="1"/>
          <path id="Path_50" data-name="Path 50" d="M544.974-70.6s-74.425,74.7-65.142,137.571c7.256,49.145,48.321,63.211,79.828,92.573C672.371,264.583,437.125,310.3,550.691,395.125c88.213,65.889,82.118,91.882,10.844,161.931-141.281,138.853-103.64,125.285,91.7,354.011" transform="translate(557.013 95.72)" fill="none" stroke="#f5fbfa" stroke-linecap="round" stroke-linejoin="round" stroke-width="1"/>
          <path id="Path_51" data-name="Path 51" d="M551.71-70.08S487.956.809,492.491,63.514c3.644,50.394,44.974,62.011,74.909,92.11,100.971,101.532-119.574,148.868-5.595,234,88.212,65.889,77.537,93,6.263,163.048-79.542,78.174-111.654,114.931-39.709,195.435,48.044,53.849,46.418,48.021,126.5,160.13" transform="translate(567.861 95.982)" fill="none" stroke="#f5fbfa" stroke-linecap="round" stroke-linejoin="round" stroke-width="1"/>
          <path id="Path_52" data-name="Path 52" d="M558.746-69.554s-53.217,67.1-53.3,129.616c-.067,51.659,41.66,60.781,69.99,91.647,89.624,97.648-116.809,146.83-2.218,232.423,88.213,65.889,72.956,94.114,1.68,164.165-79.54,78.174-105.034,113.985-31.636,195.994,48.09,53.824,50.154,50.255,113.526,161.123" transform="translate(578.407 96.244)" fill="none" stroke="#f5fbfa" stroke-linecap="round" stroke-linejoin="round" stroke-width="1"/>
          <path id="Path_53" data-name="Path 53" d="M565.906-69.028S523.1-5.717,518.53,56.609c-3.882,52.926,38.387,59.522,65.073,91.184,78.7,93.371-114.244,144.643,1.156,230.841,88.213,65.889,68.375,95.231-2.9,165.282-79.542,78.174-98.417,113.038-23.566,196.551,48.14,53.8,53.894,52.488,100.552,162.119" transform="translate(588.831 96.507)" fill="none" stroke="#f5fbfa" stroke-linecap="round" stroke-linejoin="round" stroke-width="1"/>
          <path id="Path_54" data-name="Path 54" d="M573.191-68.5S540.681-8.991,531.736,53.157c-7.8,54.184,35.163,58.234,60.156,90.721,68.292,88.767-111.957,142.251,4.529,229.258,88.213,65.889,63.794,96.349-7.48,166.4-79.542,78.175-91.8,112.092-15.493,197.11,48.186,53.776,57.633,54.722,87.575,163.114" transform="translate(599.13 96.769)" fill="none" stroke="#f5fbfa" stroke-linecap="round" stroke-linejoin="round" stroke-width="1"/>
          <path id="Path_55" data-name="Path 55" d="M580.6-67.976c-76.623,191.2-15.8,157.021,19.7,207.938,57.669,82.714-109.4,140.059,7.9,227.677,88.213,65.889,59.215,97.466-12.061,167.515-79.542,78.174-85.179,111.145-7.419,197.668,48.232,53.752,61.371,56.957,74.6,164.109" transform="translate(609.303 97.031)" fill="none" stroke="#f5fbfa" stroke-linecap="round" stroke-linejoin="round" stroke-width="1"/>
          <path id="Path_56" data-name="Path 56" d="M588.135-67.45s-12.213,51.827-29.61,113.7c-15.921,56.624,28.894,55.588,50.319,89.8,48.349,77.2-107.971,137.025,11.276,226.1,88.212,65.889,54.634,98.583-16.641,168.632-79.542,78.174-78.561,110.2.653,198.227,48.28,53.726,65.109,59.189,61.622,165.1" transform="translate(619.352 97.294)" fill="none" stroke="#f5fbfa" stroke-linecap="round" stroke-linejoin="round" stroke-width="1"/>
          <path id="Path_57" data-name="Path 57" d="M595.792-66.925S593.609-19,572.1,42.8c-20.11,57.789,25.872,54.236,45.4,89.333,40.316,72.452-107.833,133.024,14.651,224.514,88.213,65.889,50.053,99.7-21.222,169.749-79.542,78.174-71.943,109.251,8.726,198.785,48.326,53.7,68.848,61.422,48.645,166.1" transform="translate(629.279 97.556)" fill="none" stroke="#f5fbfa" stroke-linecap="round" stroke-linejoin="round" stroke-width="1"/>
          <path id="Path_58" data-name="Path 58" d="M603.564-66.4S611.355-22.421,585.8,39.346c-24.374,58.908,22.936,52.873,40.483,88.868,20.185,41.406-14.245,65.551-26.431,99.587-10.32,28.825-24.257,72.02,44.456,123.347,88.213,65.889,45.473,100.815-25.8,170.866-79.542,78.174-65.322,108.3,16.8,199.342,48.376,53.678,72.588,63.657,35.672,167.093" transform="translate(639.089 97.818)" fill="none" stroke="#f5fbfa" stroke-linecap="round" stroke-linejoin="round" stroke-width="1"/>
          <path id="Path_59" data-name="Path 59" d="M611.449-65.873s17.72,39.979-11.843,101.765C570.906,95.876,619.7,87.4,635.171,124.3c17.215,41.048-20.3,64.815-30.209,97.537-8.867,29.271-17.105,72.49,51.61,123.814,88.212,65.889,40.89,101.933-30.384,171.984-79.542,78.174-58.706,107.358,24.87,199.9,48.422,53.653,76.326,65.889,22.694,168.086" transform="translate(648.786 98.081)" fill="none" stroke="#f5fbfa" stroke-linecap="round" stroke-linejoin="round" stroke-width="1"/>
          <path id="Path_60" data-name="Path 60" d="M619.441-65.347s27.615,35.928-5.921,97.787c-33.076,61.007,17.343,50.144,30.647,87.943,14.325,40.7-26.267,64.064-33.986,95.486-7.3,29.718-9.955,72.959,58.76,124.284,88.213,65.889,36.309,103.05-34.965,173.1-79.542,78.174-52.088,106.412,32.943,200.461,48.468,53.629,80.064,68.123,9.717,169.082" transform="translate(658.378 98.343)" fill="none" stroke="#f5fbfa" stroke-linecap="round" stroke-linejoin="round" stroke-width="1"/>
          <path id="Path_61" data-name="Path 61" d="M627.531-64.821s37.49,31.827,0,93.809,14.7,48.793,25.728,87.48c11.518,40.39-32.154,63.284-37.763,93.437s-2.8,73.426,65.912,124.751c88.213,65.889,31.73,104.165-39.546,174.216-79.542,78.174-45.467,105.465,41.017,201.018,48.516,53.6,83.8,70.356-3.258,170.077" transform="translate(667.871 98.606)" fill="none" stroke="#f5fbfa" stroke-linecap="round" stroke-linejoin="round" stroke-width="1"/>
          <path id="Path_62" data-name="Path 62" d="M635.308-63.624s37.49,31.827,0,93.809,14.7,48.793,25.728,87.48c11.516,40.39-32.156,63.284-37.765,93.437s3.231,70.785,66.111,122.818c80.07,66.254,23.781,103.024-40.005,173.483C578.42,585.779,613.8,610.634,687.992,707.9c42.781,56.084,74.767,75.068-.6,173.267" transform="translate(680.6 99.203)" fill="none" stroke="#f5fbfa" stroke-linecap="round" stroke-linejoin="round" stroke-width="1"/>
          <path id="Path_63" data-name="Path 63" d="M643.148-62.427s37.49,31.827,0,93.809,14.7,48.793,25.728,87.48c19.615,68.788-118.111,78.629,28.548,214.321,71.91,66.532,15.836,101.848-40.468,172.75-62.371,78.544-25.882,101.433,36.213,199.972,37.066,58.817,65.735,79.779,2.068,176.457" transform="translate(693.264 99.801)" fill="none" stroke="#f5fbfa" stroke-linecap="round" stroke-linejoin="round" stroke-width="1"/>
          <path id="Path_64" data-name="Path 64" d="M651.344-61.23s37.49,31.827,0,93.809,14.7,48.793,25.73,87.48c21.642,75.906-116.438,60.482,28.746,212.387,63.761,66.711,7.887,100.634-40.927,172.017-53.8,78.669-16.5,100.049,33.811,199.449,31.281,61.8,56.7,84.491,4.729,179.647" transform="translate(705.571 100.398)" fill="none" stroke="#f5fbfa" stroke-linecap="round" stroke-linejoin="round" stroke-width="1"/>
          <path id="Path_65" data-name="Path 65" d="M662.024-60.033s37.49,31.827,0,93.809,14.7,48.793,25.728,87.48c11.516,40.39-32.156,63.284-37.762,93.437s21.216,62.416,66.71,117.015c55.643,66.781-.081,99.382-41.389,171.285-45.241,78.748-7.546,99.028,31.411,198.924,25.35,65,47.666,89.2,7.39,182.838" transform="translate(715.396 100.995)" fill="none" stroke="#f5fbfa" stroke-linecap="round" stroke-linejoin="round" stroke-width="1"/>
          <path id="Path_66" data-name="Path 66" d="M672.7-58.836s37.49,31.827,0,93.809,14.7,48.793,25.728,87.48c11.518,40.39-32.154,63.284-37.763,93.437s27.239,59.453,66.91,115.081c47.591,66.735-8.074,98.088-41.848,170.552-36.724,78.785.918,98.292,29.009,198.4,19.19,68.384,38.632,93.914,10.053,186.028" transform="translate(725.221 101.593)" fill="none" stroke="#f5fbfa" stroke-linecap="round" stroke-linejoin="round" stroke-width="1"/>
          <path id="Path_67" data-name="Path 67" d="M683.382-57.639s37.492,31.827,0,93.809,14.7,48.793,25.73,87.48c11.516,40.39-32.156,63.284-37.764,93.437s33.322,56.4,67.112,113.147c39.636,66.574-16.111,96.76-42.311,169.819-28.253,78.782,8.865,97.751,26.609,197.878,12.743,71.9,29.6,98.625,12.714,189.218" transform="translate(735.046 102.19)" fill="none" stroke="#f5fbfa" stroke-linecap="round" stroke-linejoin="round" stroke-width="1"/>
          <path id="Path_68" data-name="Path 68" d="M694.062-56.442s37.49,31.827,0,93.809,14.7,48.793,25.728,87.48c11.516,40.39-32.156,63.284-37.763,93.437s39.5,53.256,67.309,111.214c31.818,66.309-24.2,95.4-42.77,169.086-19.847,78.746,16.3,97.307,24.207,197.355,5.964,75.477,20.563,103.335,15.375,192.408" transform="translate(744.872 102.787)" fill="none" stroke="#f5fbfa" stroke-linecap="round" stroke-linejoin="round" stroke-width="1"/>
          <path id="Path_69" data-name="Path 69" d="M704.741-55.245s37.49,31.827,0,93.809,14.7,48.793,25.73,87.48c11.516,40.39-32.156,63.284-37.765,93.437s45.807,50.042,67.509,109.28c24.167,65.958-32.358,94.02-43.231,168.353-11.51,78.689,23.286,96.88,21.807,196.83-1.169,79.072,11.53,108.048,18.038,195.6" transform="translate(754.696 103.384)" fill="none" stroke="#f5fbfa" stroke-linecap="round" stroke-linejoin="round" stroke-width="1"/>
          <path id="Path_70" data-name="Path 70" d="M715.421-54.048s37.49,31.827,0,93.809,14.7,48.793,25.728,87.48c11.516,40.39-32.156,63.284-37.765,93.437s52.28,46.781,67.711,107.346c16.7,65.554-40.589,92.633-43.693,167.62-3.252,78.624,29.87,96.4,19.407,196.307-8.652,82.62,2.494,112.759,20.7,198.789" transform="translate(764.522 103.982)" fill="none" stroke="#f5fbfa" stroke-linecap="round" stroke-linejoin="round" stroke-width="1"/>
          <path id="Path_71" data-name="Path 71" d="M726.1-52.851s37.49,31.827,0,93.809,14.7,48.793,25.728,87.48c11.518,40.39-32.156,63.284-37.762,93.437s58.938,43.5,67.908,105.412c9.437,65.128-48.895,91.251-44.152,166.887,4.925,78.564,36.125,95.8,17.005,195.784-16.462,86.081-6.54,117.471,23.363,201.979" transform="translate(774.347 104.579)" fill="none" stroke="#f5fbfa" stroke-linecap="round" stroke-linejoin="round" stroke-width="1"/>
          <path id="Path_72" data-name="Path 72" d="M736.779-51.654s37.492,31.827,0,93.809,14.7,48.793,25.73,87.48c11.516,40.39-32.156,63.284-37.765,93.437s65.8,40.235,68.11,103.479c2.365,64.722-57.272,89.887-44.613,166.154,13.031,78.523,42.13,95.06,14.6,195.261-24.566,89.419-15.573,122.181,26.024,205.169" transform="translate(784.171 105.176)" fill="none" stroke="#f5fbfa" stroke-linecap="round" stroke-linejoin="round" stroke-width="1"/>
          <path id="Path_73" data-name="Path 73" d="M747.459-50.458s37.49,31.829,0,93.81,14.7,48.793,25.728,87.48c11.516,40.39-32.156,63.284-37.762,93.437s72.849,37.02,68.308,101.543c-4.529,64.371-65.712,88.553-45.074,165.423,21.079,78.513,47.956,94.15,12.2,194.736-32.918,92.617-24.609,126.893,28.685,208.361" transform="translate(793.997 105.773)" fill="none" stroke="#f5fbfa" stroke-linecap="round" stroke-linejoin="round" stroke-width="1"/>
          <path id="Path_74" data-name="Path 74" d="M758.138-49.261s37.49,31.829,0,93.81,14.7,48.793,25.728,87.48c11.518,40.39-32.154,63.284-37.763,93.437s80.077,33.884,68.509,99.61c-11.284,64.1-74.2,87.255-45.537,164.69,29.078,78.54,53.658,93.064,9.8,194.213-41.474,95.657-33.642,131.6,31.348,211.55" transform="translate(803.822 106.371)" fill="none" stroke="#f5fbfa" stroke-linecap="round" stroke-linejoin="round" stroke-width="1"/>
          <path id="Path_75" data-name="Path 75" d="M769.015-48.064s37.492,31.829,0,93.81,14.7,48.793,25.73,87.48c11.516,40.39-32.156,63.284-37.765,93.437s87.446,30.85,68.709,97.676c-17.929,63.944-82.731,86-46,163.957,37.042,78.609,59.288,91.8,7.4,193.69C736.914,780.524,744.42,818.3,821.1,896.725" transform="translate(813.448 106.968)" fill="none" stroke="#f5fbfa" stroke-linecap="round" stroke-linejoin="round" stroke-width="1"/>
          <path id="Path_76" data-name="Path 76" d="M784-46.867s37.49,31.829,0,93.81,14.7,48.793,25.728,87.48c11.518,40.39-32.156,63.284-37.763,93.437s94.917,27.93,68.909,95.742c-24.511,63.9-91.285,84.785-46.458,163.224,44.989,78.722,64.888,90.37,5,193.167-59,101.269-51.711,141.026,36.672,217.93" transform="translate(818.97 107.565)" fill="none" stroke="#f5fbfa" stroke-linecap="round" stroke-linejoin="round" stroke-width="1"/>
          <path id="Path_77" data-name="Path 77" d="M799-45.669s37.49,31.827,0,93.809,14.7,48.793,25.73,87.48c11.516,40.39-32.156,63.284-37.765,93.437s102.453,25.127,69.109,93.809c-31.06,63.978-99.846,83.611-46.917,162.491s70.487,88.782,2.6,192.642-60.745,145.739,39.333,221.122" transform="translate(824.47 108.163)" fill="none" stroke="#f5fbfa" stroke-linecap="round" stroke-linejoin="round" stroke-width="1"/>
          <path id="Path_78" data-name="Path 78" d="M805.657-45.669s39.755,30.551,2.266,92.531,9.627,52.571,20.657,91.256c11.516,40.391-29.349,60.785-34.958,90.938s96.564,30.71,63.22,99.392c-31.06,63.978-96.849,83.531-43.92,162.41s63.938,97.958,3.487,194.319c-60.5,96.52-53.326,144.222,41.338,213.941" transform="translate(833.886 108.163)" fill="none" stroke="#f5fbfa" stroke-linecap="round" stroke-linejoin="round" stroke-width="1"/>
          <path id="Path_79" data-name="Path 79" d="M812.336-45.669s42.017,29.274,4.527,91.256,4.556,56.345,15.586,95.032c11.518,40.39-26.542,58.285-32.15,88.438s90.676,36.294,57.331,104.976c-31.062,63.978-93.851,83.452-40.925,162.33s57.391,107.132,4.378,195.994c-53.113,89.183-45.909,142.708,43.34,206.763" transform="translate(843.279 108.163)" fill="none" stroke="#f5fbfa" stroke-linecap="round" stroke-linejoin="round" stroke-width="1"/>
          <path id="Path_80" data-name="Path 80" d="M819.043-45.669s44.283,28,6.793,89.979-.516,60.121,10.516,98.808c11.516,40.39-23.737,55.786-29.343,85.939s84.785,41.878,51.441,110.56c-31.062,63.978-90.854,83.372-37.928,162.251s50.842,116.306,5.267,197.668C780.063,781.378,787.3,840.727,871.13,899.119" transform="translate(852.643 108.163)" fill="none" stroke="#f5fbfa" stroke-linecap="round" stroke-linejoin="round" stroke-width="1"/>
          <path id="Path_81" data-name="Path 81" d="M828.319-45.669s46.547,26.722,9.057,88.7-5.585,63.9,5.445,102.584c11.516,40.39-20.93,53.286-26.536,83.438s78.895,47.462,45.55,116.144c-31.06,63.978-87.857,83.291-34.929,162.171s44.292,125.48,6.154,199.342c-38.337,74.506-31.073,139.677,47.349,192.405" transform="translate(859.437 108.163)" fill="none" stroke="#f5fbfa" stroke-linecap="round" stroke-linejoin="round" stroke-width="1"/>
          <path id="Path_82" data-name="Path 82" d="M838.384-45.669S887.2-20.223,849.7,41.758s-10.656,67.672.374,106.358c11.516,40.39-18.121,50.787-23.729,80.939s73.006,53.046,39.661,121.728c-31.06,63.978-84.86,83.212-31.933,162.092s37.745,134.652,7.044,201.018c-30.948,67.165-23.656,138.16,49.352,185.225" transform="translate(865.442 108.163)" fill="none" stroke="#f5fbfa" stroke-linecap="round" stroke-linejoin="round" stroke-width="1"/>
          <path id="Path_83" data-name="Path 83" d="M848.466-45.669s51.076,24.169,13.586,86.15-15.729,71.449-4.7,110.134c11.516,40.391-15.316,48.288-20.924,78.441s67.117,58.63,33.773,127.312c-31.06,63.978-81.863,83.133-28.936,162.011s31.2,143.828,7.932,202.694c-23.558,59.827-16.238,136.644,51.356,178.046" transform="translate(871.431 108.163)" fill="none" stroke="#f5fbfa" stroke-linecap="round" stroke-linejoin="round" stroke-width="1"/>
          <path id="Path_84" data-name="Path 84" d="M858.568-45.669s53.338,22.893,15.848,84.874-20.8,75.224-9.767,113.91c11.516,40.39-12.509,45.788-18.117,75.94s61.229,64.213,27.884,132.9C843.356,425.93,795.548,445,848.477,523.883s24.647,153,8.82,204.369c-16.172,52.488-8.82,135.131,53.359,170.867" transform="translate(877.401 108.163)" fill="none" stroke="#f5fbfa" stroke-linecap="round" stroke-linejoin="round" stroke-width="1"/>
          <path id="Path_85" data-name="Path 85" d="M66.29-55.339s37.49,31.829,0,93.809,14.7,48.795,25.728,87.481c11.516,40.39-32.156,63.283-37.763,93.435s98.246,25.128,64.9,93.809C88.1,377.173,23.519,396.807,76.445,475.685s70.489,88.784,2.6,192.643S18.3,814.068,118.378,889.449" transform="translate(150.375 103.338)" fill="none" stroke="#f5fbfa" stroke-linecap="round" stroke-linejoin="round" stroke-width="1"/>
          <path id="Path_86" data-name="Path 86" d="M58.039-57.8S96.748-26.661,59.258,35.32s11.967,50.826,23,89.512C93.772,165.223,51.61,186.77,46,216.923s99.281,28.135,65.937,96.816c-31.06,63.978-98.231,83.569-45.3,162.447s66.962,93.723,3.078,193.546C5.805,769.64,12.965,814.654,110.126,886.986" transform="translate(144.561 102.108)" fill="none" stroke="#f5fbfa" stroke-linecap="round" stroke-linejoin="round" stroke-width="1"/>
          <path id="Path_87" data-name="Path 87" d="M49.793-60.265s39.928,30.454,2.438,92.434,9.237,52.86,20.268,91.547c11.516,40.39-29.134,60.592-34.74,90.745s96.109,31.141,62.765,99.823c-31.06,63.977-96.616,83.525-43.69,162.4s63.435,98.664,3.556,194.448C.458,767.09,7.633,815.24,101.88,884.523" transform="translate(138.741 100.879)" fill="none" stroke="#f5fbfa" stroke-linecap="round" stroke-linejoin="round" stroke-width="1"/>
          <path id="Path_88" data-name="Path 88" d="M41.553-62.728S82.7-32.962,45.21,29.019s6.5,54.893,17.537,93.579c11.516,40.39-27.623,59.246-33.229,89.4s92.94,34.148,59.595,102.83C58.051,378.8-5.892,398.309,47.036,477.187s59.91,103.6,4.036,195.349C-4.883,764.541,2.31,815.827,93.64,882.06" transform="translate(132.915 99.65)" fill="none" stroke="#f5fbfa" stroke-linecap="round" stroke-linejoin="round" stroke-width="1"/>
          <path id="Path_89" data-name="Path 89" d="M33.321-65.191S75.688-36.112,38.2,25.868,41.972,82.8,53,121.482c11.516,40.39-26.112,57.9-31.718,88.052s89.768,37.155,56.423,105.835c-31.06,63.978-93.391,83.44-40.462,162.318S93.63,586.231,41.761,673.939C-10.215,761.993-3.008,816.413,85.408,879.6" transform="translate(127.081 98.421)" fill="none" stroke="#f5fbfa" stroke-linecap="round" stroke-linejoin="round" stroke-width="1"/>
          <path id="Path_90" data-name="Path 90" d="M25.1-67.654s43.586,28.391,6.1,90.373,1.044,58.959,12.075,97.645c11.518,40.391-24.6,56.555-30.205,86.708s86.6,40.162,53.251,108.842c-31.06,63.978-91.776,83.4-38.847,162.275s52.856,113.483,4.992,197.154c-48,84.1-40.775,141.657,44.726,201.792" transform="translate(121.238 97.192)" fill="none" stroke="#f5fbfa" stroke-linecap="round" stroke-linejoin="round" stroke-width="1"/>
          <path id="Path_91" data-name="Path 91" d="M16.885-70.117S61.69-42.414,24.2,19.568s-1.686,60.992,9.345,99.679c11.516,40.39-23.088,55.209-28.694,85.362s83.426,43.167,50.081,111.849C23.87,380.434-35.232,399.81,17.7,478.69s49.332,118.422,5.472,198.055c-44.02,80.149-36.78,140.842,45.805,197.926" transform="translate(115.385 95.963)" fill="none" stroke="#f5fbfa" stroke-linecap="round" stroke-linejoin="round" stroke-width="1"/>
          <path id="Path_92" data-name="Path 92" d="M10.455-72.58s46.024,27.017,8.534,89S14.574,79.443,25.6,118.13c11.516,40.39-21.577,53.863-27.183,84.015S78.675,248.319,45.33,317C14.27,380.978-43.218,400.311,9.708,479.191s45.805,123.362,5.95,198.957c-40.042,76.2-32.786,140.025,46.884,194.06" transform="translate(107.749 94.734)" fill="none" stroke="#f5fbfa" stroke-linecap="round" stroke-linejoin="round" stroke-width="1"/>
          <path id="Path_93" data-name="Path 93" d="M4.038-75.043s47.244,26.329,9.754,88.31S6.645,78.326,17.676,117.013C29.192,157.4-2.39,169.529-8,199.682s77.082,49.181,43.74,117.862C4.681,381.522-51.193,400.811,1.734,479.691s42.278,128.3,6.428,199.858C-27.9,751.8-20.63,818.76,56.125,869.745" transform="translate(100.1 93.505)" fill="none" stroke="#f5fbfa" stroke-linecap="round" stroke-linejoin="round" stroke-width="1"/>
          <path id="Path_94" data-name="Path 94" d="M-2.375-77.506S46.088-51.864,8.6,10.118-1.28,77.209,9.752,115.894C21.268,156.285-8.8,167.066-14.409,197.219S59.5,249.406,26.158,318.088c-31.06,63.978-85.323,83.224-32.394,162.1S32.516,613.434.67,680.952c-32.085,68.3-24.8,138.394,49.043,186.33" transform="translate(92.447 92.276)" fill="none" stroke="#f5fbfa" stroke-linecap="round" stroke-linejoin="round" stroke-width="1"/>
          <path id="Path_95" data-name="Path 95" d="M-8.782-79.969S40.9-55.015,3.41,6.967-9.2,76.092,1.833,114.777c11.516,40.39-17.044,49.826-22.65,79.979s70.74,55.194,37.4,123.876c-31.06,63.977-83.708,83.182-30.78,162.06S21.026,618.873-6.816,682.355C-34.923,746.7-27.62,819.932,43.305,864.819" transform="translate(84.789 91.047)" fill="none" stroke="#f5fbfa" stroke-linecap="round" stroke-linejoin="round" stroke-width="1"/>
          <path id="Path_96" data-name="Path 96" d="M-15.185-82.432S35.716-58.164-1.776,3.817-17.112,74.974-6.082,113.661c11.518,40.39-15.531,48.48-21.137,78.632s67.571,58.2,34.226,126.881c-31.062,63.978-82.1,83.14-29.169,162.018S9.539,624.315-14.3,683.758c-24.129,60.391-16.81,136.761,51.2,178.6" transform="translate(77.125 89.818)" fill="none" stroke="#f5fbfa" stroke-linecap="round" stroke-linejoin="round" stroke-width="1"/>
          <path id="Path_97" data-name="Path 97" d="M-21.582-84.895S30.538-61.314-6.954.666s-18.067,73.191-7.037,111.878c11.516,40.39-14.02,47.134-19.626,77.286s64.4,61.208,31.054,129.888c-31.06,63.978-80.481,83.1-27.554,161.975S-1.943,629.756-21.774,685.16c-20.15,56.441-12.814,135.946,52.28,174.733" transform="translate(69.457 88.589)" fill="none" stroke="#f5fbfa" stroke-linecap="round" stroke-linejoin="round" stroke-width="1"/>
          <path id="Path_98" data-name="Path 98" d="M-27.974-87.359S25.365-64.465-12.126-2.485s-20.8,75.225-9.767,113.912c11.516,40.39-12.509,45.788-18.115,75.94s61.227,64.213,27.882,132.9c-31.06,63.978-78.866,83.053-25.939,161.931s24.649,153,8.82,204.369c-16.172,52.488-8.82,135.13,53.359,170.867" transform="translate(61.783 87.359)" fill="none" stroke="#f5fbfa" stroke-linecap="round" stroke-linejoin="round" stroke-width="1"/>
        </g>
      </g>
    </g>
  </g>
</svg>
