<svg width="120" height="60" viewBox="0 0 120 60" fill="none" xmlns="http://www.w3.org/2000/svg">
<path d="M59.9248 36.7504C58.9498 36.7504 58.4248 36.2254 58.4248 35.1754V22.7254C58.4248 21.6754 58.9498 21.1504 59.9248 21.1504H60.4498C61.4998 21.1504 61.9498 21.6754 61.9498 22.7254V27.3754H68.6248V22.7254C68.6248 21.6754 69.1498 21.1504 70.1248 21.1504H70.6498C71.6998 21.1504 72.2248 21.6754 72.2248 22.7254V35.1004C72.2248 36.1504 71.6998 36.6754 70.6498 36.6754H70.1248C69.1498 36.6754 68.6248 36.1504 68.6248 35.1004V30.3754H61.9498V35.1004C61.9498 36.1504 61.4248 36.6754 60.4498 36.6754H59.9248V36.7504Z" fill="#00BFF2"/>
<path d="M78.2246 41.175C77.9996 41.175 77.7746 41.1 77.5496 41.025C77.3246 40.95 77.0996 40.875 76.9496 40.725C76.7996 40.575 76.6496 40.5 76.5746 40.425C76.4996 40.35 76.4246 40.275 76.4996 40.2L78.4496 35.85C78.1496 35.85 77.9246 35.775 77.7746 35.625C77.6246 35.55 77.4746 35.325 77.3246 35.1L73.3496 25.8C73.3496 25.725 73.3496 25.65 73.4996 25.575C73.5746 25.5 73.7246 25.35 73.8746 25.275C74.0246 25.2 74.2496 25.05 74.4746 24.975C74.6996 24.9 74.9246 24.825 75.2246 24.825C75.5996 24.825 75.9746 24.9 76.2746 25.125C76.5746 25.35 76.8746 25.8 77.0996 26.475L79.6496 33.075L81.8996 26.475C82.1246 25.8 82.3496 25.35 82.7246 25.125C83.0246 24.9 83.3996 24.75 83.7746 24.75C83.9996 24.75 84.2246 24.825 84.4496 24.9C84.6746 24.975 84.8996 25.05 85.0496 25.2C85.1996 25.275 85.3496 25.425 85.4246 25.5C85.4996 25.575 85.5746 25.65 85.5746 25.725L80.3246 39.45C80.0996 40.05 79.7996 40.5 79.4246 40.725C78.9746 41.1 78.5996 41.175 78.2246 41.175Z" fill="#00BFF2"/>
<path d="M89.7754 35.0996C89.7754 35.6996 89.6254 36.1496 89.3254 36.3746C89.0254 36.5996 88.7254 36.7496 88.2754 36.7496H87.9004C87.4504 36.7496 87.0754 36.6746 86.7754 36.4496C86.4754 36.2246 86.4004 35.7746 86.4004 35.1746V20.4746C86.4004 20.3996 86.5504 20.3246 86.7754 20.2496C87.0004 20.1746 87.3004 20.0996 87.6754 20.0996C87.9004 20.0996 88.2004 20.1746 88.4254 20.2496C88.6504 20.3246 88.8754 20.4746 89.1004 20.6996C89.3254 20.9246 89.4754 21.1496 89.5504 21.5246C89.7004 21.8996 89.7754 22.3496 89.7754 22.8746V30.1496L93.0004 26.0246C93.3004 25.6496 93.6004 25.3496 93.9004 25.1996C94.2004 25.0496 94.5754 24.9746 94.8004 24.9746C95.1004 24.9746 95.3254 25.0496 95.5504 25.1246C95.7754 25.1996 96.0004 25.3496 96.1504 25.4996C96.3004 25.6496 96.4504 25.7246 96.5254 25.8746C96.6004 26.0246 96.6004 26.0996 96.6004 26.0996L93.0004 30.6746L97.1254 35.6996C97.1254 35.7746 97.1254 35.8496 97.0504 35.9246C96.9754 36.0746 96.8254 36.1496 96.6754 36.2996C96.5254 36.4496 96.3004 36.5246 96.0754 36.6746C95.8504 36.7496 95.6254 36.8246 95.3254 36.8246C95.0254 36.8246 94.6504 36.7496 94.3504 36.5996C94.0504 36.4496 93.6754 36.1496 93.3754 35.7746L89.7754 31.3496V35.0996Z" fill="#00BFF2"/>
<path d="M103.425 36.9008C102.525 36.9008 101.7 36.7508 100.875 36.4508C100.125 36.1508 99.4502 35.7758 98.9252 35.2508C98.4002 34.7258 97.9502 34.0508 97.6502 33.3008C97.3502 32.5508 97.2002 31.7258 97.2002 30.8258C97.2002 29.9258 97.3502 29.1008 97.6502 28.3508C97.9502 27.6008 98.4002 27.0008 98.9252 26.4008C99.4502 25.8758 100.125 25.4258 100.875 25.1258C101.625 24.8258 102.45 24.6758 103.425 24.6758C104.325 24.6758 105.15 24.8258 105.9 25.1258C106.65 25.4258 107.325 25.8758 107.85 26.4008C108.375 26.9258 108.825 27.6008 109.125 28.3508C109.425 29.1008 109.575 29.9258 109.575 30.8258C109.575 31.7258 109.425 32.5508 109.125 33.3008C108.825 34.0508 108.375 34.6508 107.85 35.2508C107.325 35.7758 106.65 36.2258 105.9 36.4508C105.15 36.7508 104.325 36.9008 103.425 36.9008ZM103.425 34.2758C103.875 34.2758 104.325 34.2008 104.7 34.0508C105.075 33.9008 105.45 33.6758 105.75 33.3758C106.05 33.0758 106.275 32.7008 106.425 32.3258C106.575 31.8758 106.65 31.4258 106.65 30.9758C106.65 30.4508 106.575 30.0008 106.425 29.5508C106.275 29.1008 106.05 28.7258 105.75 28.4258C105.45 28.1258 105.15 27.9008 104.7 27.6758C104.325 27.5258 103.875 27.4508 103.425 27.4508C102.975 27.4508 102.525 27.5258 102.15 27.6758C101.775 27.8258 101.4 28.1258 101.1 28.4258C100.8 28.7258 100.575 29.1008 100.425 29.5508C100.275 30.0008 100.2 30.4508 100.2 30.9008C100.2 31.3508 100.275 31.8758 100.425 32.2508C100.575 32.7008 100.8 33.0008 101.1 33.3008C101.4 33.6008 101.7 33.8258 102.15 33.9758C102.525 34.2008 102.975 34.2758 103.425 34.2758Z" fill="#00BFF2"/>
<path d="M46.6499 34.8008C46.6499 38.8508 34.2749 44.1008 29.4749 44.1008C24.6749 44.1008 12.2999 38.7758 12.2999 34.8008C12.2999 30.8258 24.6749 25.5008 29.5499 25.5008C34.3499 25.5008 46.6499 30.8258 46.6499 34.8008ZM30.5999 19.8758C30.4499 23.3258 38.1749 25.2758 38.3249 21.8258C38.3999 19.6508 34.7999 12.6758 33.0749 12.6008C31.3499 12.4508 30.6749 17.7008 30.5999 19.8758ZM40.3499 23.5508C39.9749 27.0008 47.3249 29.7758 47.7749 26.4008C47.9999 24.2258 44.3249 16.8008 42.6749 16.5008C40.9499 16.2008 40.6499 21.3758 40.3499 23.5508ZM25.9499 12.6008C24.2249 12.6758 20.6249 19.6508 20.6999 21.8258C20.8499 25.2758 28.5749 23.4008 28.4249 19.8758C28.3499 17.7008 27.6749 12.4508 25.9499 12.6008ZM16.4249 16.5008C14.6999 16.8008 11.0249 24.2258 11.3249 26.4008C11.6999 29.8508 19.1249 27.0008 18.7499 23.5508C18.4499 21.3758 18.0749 16.2008 16.4249 16.5008ZM26.3249 40.2008C26.7749 41.2508 29.3249 41.7008 30.5249 40.4258C30.5249 40.4258 33.6749 36.9008 34.7249 35.7008C35.3999 34.9508 34.8749 33.7508 33.8249 33.7508C33.2999 33.7508 31.3499 33.7508 31.3499 33.7508C31.3499 33.7508 32.8499 31.4258 33.3749 30.6758C33.8249 30.0008 33.5249 29.1008 32.6249 28.8758C31.4999 28.5758 29.2499 28.5758 27.9749 28.8008C27.0749 28.9508 26.4749 29.7758 26.1749 30.3758L24.5249 34.3508C24.2249 35.1008 24.7499 35.8508 25.5749 35.8508H28.1999L26.3249 40.2008Z" fill="#00BFF2"/>
</svg>
