<svg width="32" height="32" viewBox="0 0 32 32" fill="none" xmlns="http://www.w3.org/2000/svg">
<g clip-path="url(#clip0_7168_2994)">
<path d="M28 0H4C1.79086 0 0 1.79086 0 4V28C0 30.2091 1.79086 32 4 32H28C30.2091 32 32 30.2091 32 28V4C32 1.79086 30.2091 0 28 0Z" fill="#C76D13"/>
<g clip-path="url(#clip1_7168_2994)">
<path d="M22.2495 8.94531H9.74951C9.57692 8.94531 9.43701 9.08522 9.43701 9.25781V18.0078C9.43701 18.1804 9.57692 18.3203 9.74951 18.3203H22.2495C22.4221 18.3203 22.562 18.1804 22.562 18.0078V9.25781C22.562 9.08522 22.4221 8.94531 22.2495 8.94531Z" fill="white"/>
<path d="M25.3433 22.8734L24.1089 19.9078C23.9589 19.5516 23.6933 19.2734 23.362 19.1078C23.6401 18.8234 23.812 18.4359 23.812 18.0078V9.25781C23.812 8.39531 23.112 7.69531 22.2495 7.69531H9.74951C8.88701 7.69531 8.18701 8.39531 8.18701 9.25781V18.0078C8.18701 18.4359 8.35889 18.8234 8.63701 19.1078C8.30576 19.2734 8.04014 19.5516 7.89014 19.9078L6.65576 22.8734C6.63701 22.9141 6.62451 22.9609 6.62451 23.0078C6.62451 23.0234 6.62451 23.0391 6.62764 23.0547C6.64951 23.8953 7.34014 24.5703 8.18701 24.5703H23.812C24.6589 24.5703 25.3495 23.8953 25.3714 23.0547C25.3745 23.0391 25.3745 23.0234 25.3745 23.0078C25.3745 22.9609 25.362 22.9141 25.3433 22.8734ZM8.81201 9.25781C8.81201 8.74219 9.23389 8.32031 9.74951 8.32031H22.2495C22.7651 8.32031 23.187 8.74219 23.187 9.25781V18.0078C23.187 18.5234 22.7651 18.9453 22.2495 18.9453H9.74951C9.23389 18.9453 8.81201 18.5234 8.81201 18.0078V9.25781ZM8.46826 20.1484C8.61514 19.7953 8.95264 19.5703 9.33389 19.5703H22.6651C23.0464 19.5703 23.3839 19.7953 23.5308 20.1484L24.5933 22.6953H18.6776L17.8308 21.2859C17.7745 21.1891 17.6714 21.1328 17.562 21.1328H14.437C14.3276 21.1328 14.2245 21.1891 14.1683 21.2859L13.3214 22.6953H7.40576L8.46826 20.1484Z" fill="white"/>
</g>
</g>
<defs>
<clipPath id="clip0_7168_2994">
<rect width="32" height="32" fill="white"/>
</clipPath>
<clipPath id="clip1_7168_2994">
<rect width="20" height="20" fill="white" transform="translate(5.99951 6.13281)"/>
</clipPath>
</defs>
</svg>
