<svg width="40" height="40" viewBox="0 0 40 40" fill="none" xmlns="http://www.w3.org/2000/svg">
<g clip-path="url(#clip0_724_2678)">
<path d="M29.0883 39.9996C28.8083 39.9996 28.5216 39.9646 28.2383 39.8896L2.46661 32.9879C0.699944 32.5012 -0.353389 30.6713 0.109944 28.9046L3.36161 16.7846C3.48161 16.3396 3.93828 16.0813 4.38161 16.1946C4.82661 16.3129 5.08994 16.7713 4.97161 17.2146L1.72161 29.3313C1.48994 30.2146 2.01994 31.1346 2.90494 31.3796L28.6666 38.2779C29.5516 38.5112 30.4649 37.9846 30.6949 37.1046L31.9966 32.2812C32.1166 31.8362 32.5733 31.5713 33.0183 31.6929C33.4633 31.8129 33.7249 32.2712 33.6066 32.7146L32.3066 37.5312C31.9149 39.0146 30.5649 39.9996 29.0883 39.9996Z" fill="#B6B6B7"/>
<path d="M36.6666 29.9997H9.99996C8.16163 29.9997 6.66663 28.5047 6.66663 26.6663V6.66634C6.66663 4.82801 8.16163 3.33301 9.99996 3.33301H36.6666C38.505 3.33301 40 4.82801 40 6.66634V26.6663C40 28.5047 38.505 29.9997 36.6666 29.9997ZM9.99996 4.99967C9.08163 4.99967 8.33329 5.74801 8.33329 6.66634V26.6663C8.33329 27.5847 9.08163 28.333 9.99996 28.333H36.6666C37.585 28.333 38.3333 27.5847 38.3333 26.6663V6.66634C38.3333 5.74801 37.585 4.99967 36.6666 4.99967H9.99996Z" fill="#B6B6B7"/>
<path d="M15 14.9997C13.1616 14.9997 11.6666 13.5047 11.6666 11.6663C11.6666 9.82801 13.1616 8.33301 15 8.33301C16.8383 8.33301 18.3333 9.82801 18.3333 11.6663C18.3333 13.5047 16.8383 14.9997 15 14.9997ZM15 9.99967C14.0816 9.99967 13.3333 10.748 13.3333 11.6663C13.3333 12.5847 14.0816 13.333 15 13.333C15.9183 13.333 16.6666 12.5847 16.6666 11.6663C16.6666 10.748 15.9183 9.99967 15 9.99967Z" fill="#B6B6B7"/>
<path d="M7.61671 28.2163C7.40338 28.2163 7.19004 28.1347 7.02671 27.973C6.70171 27.648 6.70171 27.1197 7.02671 26.7947L14.8984 18.923C15.8417 17.9797 17.49 17.9797 18.4334 18.923L20.7767 21.2663L27.2634 13.483C27.735 12.918 28.4284 12.5897 29.1667 12.583H29.185C29.915 12.583 30.6067 12.8997 31.0834 13.4547L39.8 23.6247C40.1 23.973 40.06 24.4997 39.71 24.7997C39.3617 25.0997 38.8367 25.0613 38.535 24.7097L29.8184 14.5397C29.6567 14.353 29.4334 14.2497 29.185 14.2497C29.0117 14.2347 28.7067 14.3547 28.545 14.5497L21.4734 23.0347C21.3234 23.2147 21.105 23.323 20.87 23.333C20.6334 23.3497 20.4084 23.2563 20.2434 23.0897L17.255 20.1013C16.94 19.788 16.3917 19.788 16.0767 20.1013L8.20504 27.973C8.04338 28.1347 7.83004 28.2163 7.61671 28.2163Z" fill="#B6B6B7"/>
</g>
<defs>
<clipPath id="clip0_724_2678">
<rect width="40" height="40" fill="white"/>
</clipPath>
</defs>
</svg>
