<svg width="16" height="16" viewBox="0 0 16 16" fill="none" xmlns="http://www.w3.org/2000/svg">
<path fill-rule="evenodd" clip-rule="evenodd" d="M4.53122 1.20277C2.50977 1.20277 1.20277 2.58915 1.20277 4.73409V11.2659C1.20277 13.4116 2.50977 14.7972 4.53122 14.7972H11.464C13.4886 14.7972 14.7964 13.4116 14.7964 11.2659V4.73409C14.798 3.64117 14.4645 2.72868 13.8326 2.09602C13.2489 1.51148 12.4318 1.20277 11.468 1.20277H4.53122ZM11.464 16H4.53122C1.82099 16 0 14.0972 0 11.2659V4.73409C0 1.90278 1.82099 0 4.53122 0H11.468C12.7573 0 13.8695 0.43059 14.6834 1.24607C15.5341 2.09762 16.0008 3.33647 15.9992 4.73489V11.2659C15.9992 14.0972 14.1766 16 11.464 16Z" fill="#262626"/>
<path fill-rule="evenodd" clip-rule="evenodd" d="M5.49681 4.56213C5.0125 4.56213 4.61879 4.95584 4.61879 5.44095C4.61879 5.92527 5.0125 6.31898 5.49761 6.31898C5.98193 6.31898 6.37644 5.92528 6.37644 5.44176C6.37564 4.95665 5.98113 4.56293 5.49681 4.56213ZM5.49761 7.52174C4.34937 7.52174 3.41602 6.58839 3.41602 5.44095C3.41602 4.29271 4.34937 3.35938 5.49761 3.35938C6.64506 3.36017 7.57841 4.29351 7.57921 5.44015C7.57921 6.58759 6.64586 7.52174 5.49761 7.52174Z" fill="#262626"/>
<path fill-rule="evenodd" clip-rule="evenodd" d="M1.40229 14.5218C1.30286 14.5218 1.20183 14.497 1.10881 14.4448C0.818544 14.2821 0.71671 13.9156 0.878682 13.6262C0.926793 13.5396 2.07744 11.5053 3.34355 10.4629C4.34746 9.63698 5.42835 10.0908 6.29916 10.4573C6.81154 10.673 7.29585 10.8766 7.76092 10.8766C8.1875 10.8766 8.72233 10.1229 9.19542 9.45817C9.85213 8.53123 10.5978 7.48242 11.69 7.48242C13.43 7.48242 14.9318 9.03479 15.7393 9.86871L15.8323 9.96493C16.0632 10.2031 16.0576 10.584 15.8195 10.8157C15.5829 11.0474 15.202 11.0418 14.9695 10.8029L14.8749 10.705C14.1917 9.99861 12.92 8.68519 11.69 8.68519C11.2185 8.68519 10.6652 9.46538 10.1753 10.1542C9.50333 11.1003 8.80813 12.0794 7.76092 12.0794C7.05289 12.0794 6.4042 11.8068 5.83248 11.5654C4.92319 11.1821 4.51104 11.0594 4.10771 11.3914C3.01399 12.2927 1.93792 14.1963 1.92749 14.2147C1.81764 14.4112 1.61317 14.5218 1.40229 14.5218Z" fill="#262626"/>
</svg>
