<svg width="24" height="25" viewBox="0 0 24 25" fill="none" xmlns="http://www.w3.org/2000/svg">
<path d="M11.0204 0C7.2208 0 4.12124 3.11017 4.12124 6.90979C4.12124 9.23248 5.28347 11.2904 7.05223 12.5422C2.92669 14.1952 0 18.229 0 22.9356C0.00631272 23.22 0.123737 23.4907 0.327132 23.6896C0.530527 23.8885 0.803724 24 1.08823 24C1.37273 24 1.64593 23.8885 1.84932 23.6896C2.05272 23.4907 2.17014 23.22 2.17646 22.9356C2.17646 17.9406 6.20393 13.9152 11.199 13.9152C12.9426 13.9152 14.5611 14.4123 15.9387 15.2649C16.0607 15.3407 16.1964 15.3916 16.3381 15.4148C16.4798 15.438 16.6247 15.4331 16.7645 15.4002C16.9043 15.3674 17.0362 15.3073 17.1527 15.2234C17.2693 15.1395 17.3681 15.0335 17.4436 14.9113C17.519 14.7892 17.5697 14.6533 17.5926 14.5116C17.6155 14.3698 17.6102 14.2249 17.577 14.0852C17.5438 13.9455 17.4834 13.8137 17.3993 13.6973C17.3151 13.581 17.2088 13.4824 17.0865 13.4072C16.4657 13.0231 15.7918 12.7224 15.097 12.4636C16.8087 11.2054 17.9303 9.18612 17.9303 6.90979C17.9303 3.11017 14.8201 0 11.0204 0ZM11.0204 2.1785C13.6438 2.1785 15.7538 4.2864 15.7538 6.90979C15.7538 9.53318 13.6438 11.6325 11.0204 11.6325C8.39705 11.6325 6.29769 9.53318 6.29769 6.90979C6.2977 4.2864 8.39705 2.1785 11.0204 2.1785Z" fill="#717171"/>
<path d="M13.0348 24.1421L13.0347 24.142C12.9294 24.0716 12.8473 23.9716 12.7988 23.8546L13.0348 24.1421ZM13.0348 24.1421C13.1401 24.2124 13.2638 24.25 13.3904 24.25M13.0348 24.1421L13.3904 24.25M13.6357 24.2014C13.7135 24.1692 13.7842 24.1219 13.8436 24.0624C13.8437 24.0624 13.8437 24.0623 13.8438 24.0623L21.0612 16.8437L20.8844 16.6669L13.6357 24.2014ZM13.6357 24.2014C13.5578 24.2336 13.4744 24.2501 13.3904 24.25M13.6357 24.2014L13.3904 24.25M12.7623 23.4844C12.7376 23.6086 12.7503 23.7374 12.7988 23.8545L20.1553 15.9377L20.1553 15.9377L12.9377 23.1563C12.8481 23.2459 12.787 23.3601 12.7623 23.4844Z" fill="#717171" stroke="#717171" stroke-width="0.5"/>
<path d="M21.2001 23.8545L21.2001 23.8546C21.1516 23.9716 21.0695 24.0716 20.9642 24.142L20.9641 24.1421C20.8588 24.2124 20.7351 24.25 20.6085 24.25C20.6084 24.25 20.6083 24.25 20.6083 24.25V24C20.557 24 20.5061 23.99 20.4587 23.9703C20.4113 23.9507 20.3682 23.922 20.332 23.8857L21.2001 23.8545ZM21.2001 23.8545C21.2486 23.7375 21.2613 23.6088 21.2366 23.4845M21.2001 23.8545L21.2366 23.4845M20.1552 24.0624C20.1552 24.0623 20.1551 24.0623 20.155 24.0622L12.9376 16.8437C12.9376 16.8437 12.9376 16.8437 12.9376 16.8437C12.8175 16.7235 12.75 16.5606 12.75 16.3907C12.75 16.2208 12.8175 16.0578 12.9376 15.9377C13.0578 15.8175 13.2207 15.75 13.3906 15.75C13.5605 15.75 13.7235 15.8175 13.8436 15.9377L13.8436 15.9377M20.1552 24.0624L13.6668 16.1144L13.8436 15.9377M20.1552 24.0624C20.2146 24.1219 20.2852 24.1691 20.363 24.2013L20.1552 24.0624ZM13.8436 15.9377L21.0611 23.1563M13.8436 15.9377L21.0611 23.1563M21.0611 23.1563C21.0612 23.1563 21.0612 23.1564 21.0612 23.1564M21.0611 23.1563L21.0612 23.1564M21.2366 23.4845C21.2119 23.3602 21.1509 23.246 21.0612 23.1564M21.2366 23.4845L21.0612 23.1564" fill="#717171" stroke="#717171" stroke-width="0.5"/>
</svg>
