<svg width="12" height="13" viewBox="0 0 12 13" fill="none" xmlns="http://www.w3.org/2000/svg">
<path d="M5.51022 0C3.6104 0 2.06062 1.55509 2.06062 3.45489C2.06062 4.61624 2.64174 5.64519 3.52611 6.27109C1.46334 7.09761 0 9.11449 0 11.4678C0.00315636 11.61 0.0618687 11.7453 0.163566 11.8448C0.265263 11.9443 0.401862 12 0.544114 12C0.686366 12 0.822965 11.9443 0.924662 11.8448C1.02636 11.7453 1.08507 11.61 1.08823 11.4678C1.08823 8.97029 3.10196 6.95761 5.59949 6.95761C6.47129 6.95761 7.28055 7.20615 7.96936 7.63246C8.03035 7.67034 8.09821 7.69578 8.16906 7.7074C8.23991 7.71901 8.31235 7.71654 8.38224 7.70012C8.45214 7.68369 8.5181 7.65364 8.57636 7.61169C8.63463 7.56973 8.68404 7.51675 8.72178 7.45567C8.75951 7.39459 8.78483 7.32666 8.79628 7.25578C8.80773 7.1849 8.80509 7.11244 8.7885 7.04259C8.77192 6.97273 8.74172 6.90683 8.69963 6.84866C8.65754 6.7905 8.60439 6.74122 8.54323 6.70362C8.23285 6.51155 7.89592 6.36118 7.54852 6.2318C8.40436 5.6027 8.96513 4.59306 8.96513 3.45489C8.96513 1.55509 7.41003 0 5.51022 0ZM5.51022 1.08925C6.82191 1.08925 7.8769 2.1432 7.8769 3.45489C7.8769 4.76659 6.82191 5.81627 5.51022 5.81627C4.19852 5.81627 3.14885 4.76659 3.14885 3.45489C3.14885 2.1432 4.19852 1.08925 5.51022 1.08925Z" fill="white"/>
<path d="M6.5035 12.0918L6.50344 12.0918C6.4467 12.0539 6.40244 12 6.37629 11.9368L6.5035 12.0918ZM6.5035 12.0918C6.56025 12.1297 6.62694 12.15 6.69517 12.15M6.5035 12.0918L6.69517 12.15M10.4447 8.33594L10.5483 8.43952L6.93958 12.0488C6.93955 12.0488 6.93952 12.0489 6.9395 12.0489C6.90745 12.081 6.86937 12.1064 6.82739 12.1238M10.4447 8.33594L6.82739 12.1238M10.4447 8.33594L10.5483 8.43952C10.6131 8.37475 10.6494 8.28691 10.6494 8.19534C10.6494 8.10376 10.6131 8.01592 10.5483 7.95116C10.4835 7.88639 10.3957 7.85 10.3041 7.85C10.2125 7.85 10.1247 7.88639 10.06 7.95116M10.4447 8.33594L10.06 7.95116M6.82739 12.1238C6.78541 12.1412 6.74047 12.15 6.69517 12.15M6.82739 12.1238L6.69517 12.15M6.69517 12.15C6.69522 12.15 6.69527 12.15 6.69532 12.15V12L6.69517 12.15ZM6.45118 11.5605C6.40286 11.6088 6.36996 11.6703 6.35664 11.7373C6.34332 11.8043 6.35014 11.8737 6.37628 11.9368L6.45118 11.5605ZM6.45118 11.5605L10.0599 7.95116M6.45118 11.5605L10.0599 7.95116M10.0599 7.95116C10.0599 7.95116 10.0599 7.95116 10.06 7.95116M10.0599 7.95116L10.06 7.95116" fill="white" stroke="white" stroke-width="0.3"/>
<mask id="path-3-outside-1_3283_1285" maskUnits="userSpaceOnUse" x="5.5" y="7" width="6" height="6" fill="black">
<rect fill="white" x="5.5" y="7" width="6" height="6"/>
<path d="M10.3041 12C10.2785 12 10.2531 11.995 10.2294 11.9852C10.2057 11.9754 10.1841 11.961 10.166 11.9428L6.5572 8.33346C6.52058 8.29683 6.5 8.24714 6.5 8.19534C6.5 8.14353 6.52058 8.09385 6.5572 8.05721C6.59383 8.02058 6.64351 8 6.69531 8C6.74711 8 6.79678 8.02058 6.83341 8.05721L10.4422 11.6666C10.4695 11.6939 10.4882 11.7287 10.4957 11.7666C10.5032 11.8045 10.4994 11.8438 10.4846 11.8794C10.4698 11.9151 10.4448 11.9456 10.4126 11.9671C10.3805 11.9885 10.3428 12 10.3041 12Z"/>
</mask>
<path d="M10.3041 12C10.2785 12 10.2531 11.995 10.2294 11.9852C10.2057 11.9754 10.1841 11.961 10.166 11.9428L6.5572 8.33346C6.52058 8.29683 6.5 8.24714 6.5 8.19534C6.5 8.14353 6.52058 8.09385 6.5572 8.05721C6.59383 8.02058 6.64351 8 6.69531 8C6.74711 8 6.79678 8.02058 6.83341 8.05721L10.4422 11.6666C10.4695 11.6939 10.4882 11.7287 10.4957 11.7666C10.5032 11.8045 10.4994 11.8438 10.4846 11.8794C10.4698 11.9151 10.4448 11.9456 10.4126 11.9671C10.3805 11.9885 10.3428 12 10.3041 12Z" fill="white"/>
<path d="M10.3041 12L10.3041 11.7L10.3038 11.7L10.3041 12ZM10.2294 11.9852L10.3442 11.708L10.344 11.7079L10.2294 11.9852ZM10.166 11.9428L10.3784 11.731L10.3782 11.7307L10.166 11.9428ZM6.5572 8.33346L6.76935 8.12134L6.76935 8.12134L6.5572 8.33346ZM6.5572 8.05721L6.76935 8.26933L6.76935 8.26933L6.5572 8.05721ZM6.83341 8.05721L6.62126 8.26932L6.62126 8.26933L6.83341 8.05721ZM10.4422 11.6666L10.2301 11.8787L10.2302 11.8788L10.4422 11.6666ZM10.4957 11.7666L10.2014 11.825L10.2015 11.8252L10.4957 11.7666ZM10.4846 11.8794L10.7617 11.9943L10.7617 11.9942L10.4846 11.8794ZM10.4126 11.9671L10.5792 12.2166L10.5793 12.2165L10.4126 11.9671ZM10.3038 11.7C10.3175 11.7 10.3313 11.7027 10.3442 11.708L10.1145 12.2623C10.1748 12.2873 10.2394 12.3001 10.3044 12.3L10.3038 11.7ZM10.344 11.7079C10.3569 11.7133 10.3686 11.7211 10.3784 11.731L9.9536 12.1547C9.99964 12.2008 10.0544 12.2375 10.1147 12.2624L10.344 11.7079ZM10.3782 11.7307L6.76935 8.12134L6.34506 8.54558L9.95388 12.1549L10.3782 11.7307ZM6.76935 8.12134C6.78898 8.14097 6.8 8.16759 6.8 8.19534H6.2C6.2 8.32669 6.25217 8.45268 6.34506 8.54558L6.76935 8.12134ZM6.8 8.19534C6.8 8.22308 6.78898 8.2497 6.76935 8.26933L6.34506 7.8451C6.25217 7.93799 6.2 8.06398 6.2 8.19534H6.8ZM6.76935 8.26933C6.74972 8.28896 6.72309 8.3 6.69531 8.3V7.7C6.56393 7.7 6.43794 7.7522 6.34506 7.8451L6.76935 8.26933ZM6.69531 8.3C6.66753 8.3 6.64089 8.28896 6.62126 8.26932L7.04556 7.8451C6.95268 7.7522 6.82668 7.7 6.69531 7.7V8.3ZM6.62126 8.26933L10.2301 11.8787L10.6544 11.4545L7.04556 7.8451L6.62126 8.26933ZM10.2302 11.8788C10.2155 11.8641 10.2055 11.8454 10.2014 11.825L10.7899 11.7082C10.7708 11.612 10.7236 11.5237 10.6543 11.4543L10.2302 11.8788ZM10.2015 11.8252C10.1974 11.8048 10.1995 11.7838 10.2074 11.7646L10.7617 11.9942C10.7992 11.9037 10.8091 11.8041 10.7899 11.708L10.2015 11.8252ZM10.2074 11.7645C10.2153 11.7455 10.2287 11.7292 10.2459 11.7177L10.5793 12.2165C10.6608 12.1621 10.7242 12.0847 10.7617 11.9943L10.2074 11.7645ZM10.246 11.7176C10.2632 11.7061 10.2834 11.7 10.3041 11.7V12.3C10.4021 12.3 10.4978 12.271 10.5792 12.2166L10.246 11.7176Z" fill="white" mask="url(#path-3-outside-1_3283_1285)"/>
</svg>
