<svg width="12" height="10" viewBox="0 0 12 10" fill="none" xmlns="http://www.w3.org/2000/svg">
<path d="M6.6107 8.94607H1.67505C1.59079 8.946 1.50999 8.91251 1.45039 8.85295C1.39079 8.79338 1.35726 8.7126 1.35714 8.62834V7.73008C1.35678 7.40309 1.45956 7.08431 1.65086 6.81912C1.84216 6.55393 2.11224 6.35583 2.42264 6.25303L4.30043 5.62646C4.84883 5.44428 5.44141 5.44416 5.98989 5.6261L6.60059 5.82978C6.64521 5.84369 6.6935 5.83954 6.73509 5.81823C6.77669 5.79693 6.80827 5.76016 6.82307 5.71583C6.83786 5.6715 6.83468 5.62313 6.81421 5.58112C6.79374 5.53911 6.75761 5.5068 6.71358 5.49112L6.10219 5.28709C6.78709 4.94232 7.41598 4.15456 7.3907 3.24484C7.39002 2.64968 7.15329 2.07909 6.73245 1.65825C6.31161 1.23741 5.74102 1.00068 5.14586 1C2.6695 1.07896 2.10469 4.24023 4.18816 5.28743L2.30982 5.91421C1.92822 6.04062 1.59622 6.28417 1.36106 6.61019C1.12589 6.93621 0.999549 7.32809 1 7.73008V8.62834C1.00024 8.80729 1.07144 8.97883 1.19799 9.10535C1.32454 9.23186 1.4961 9.30302 1.67505 9.30322H6.6107C6.65748 9.30233 6.70203 9.28312 6.7348 9.24973C6.76756 9.21634 6.78592 9.17143 6.78592 9.12464C6.78592 9.07786 6.76756 9.03295 6.7348 8.99956C6.70203 8.96616 6.65748 8.94696 6.6107 8.94607ZM3.25813 3.24486C3.25869 2.74438 3.45776 2.26456 3.81166 1.91066C4.16555 1.55677 4.64538 1.3577 5.14586 1.35714C7.6502 1.46082 7.64947 5.02931 5.14585 5.1326C4.64536 5.13204 4.16554 4.93297 3.81164 4.57907C3.45775 4.22518 3.25869 3.74535 3.25813 3.24486Z" fill="#222222" stroke="#222222" stroke-width="0.2"/>
<path d="M8.77856 5.19922C8.18959 5.19985 7.62493 5.4341 7.20847 5.85056C6.79201 6.26702 6.55776 6.83168 6.55713 7.42065C6.67901 10.3677 10.8786 10.3668 11 7.42063C10.9993 6.83166 10.7651 6.26701 10.3486 5.85055C9.93218 5.43409 9.36752 5.19985 8.77856 5.19922ZM8.77856 9.28493C8.28423 9.28458 7.81025 9.08805 7.4607 8.7385C7.11116 8.38896 6.91463 7.91498 6.91427 7.42065C7.0172 4.94745 10.5403 4.94818 10.6428 7.42066C10.6425 7.91499 10.446 8.38897 10.0964 8.73851C9.74687 9.08805 9.27289 9.28458 8.77856 9.28493Z" fill="#222222" stroke="#222222" stroke-width="0.2"/>
<path d="M9.05659 8.40461H8.95649V7.07701C8.95651 7.05355 8.9519 7.03033 8.94293 7.00866C8.93396 6.98699 8.92081 6.96729 8.90422 6.95071C8.88764 6.93413 8.86795 6.92097 8.84628 6.912C8.8246 6.90303 8.80138 6.89842 8.77792 6.89844H8.49943C8.45266 6.89933 8.4081 6.91853 8.37533 6.95192C8.34257 6.98532 8.32422 7.03023 8.32422 7.07701C8.32422 7.1238 8.34258 7.16871 8.37534 7.2021C8.40811 7.23549 8.45267 7.25469 8.49944 7.25558H8.59935V8.40461H8.49943C8.45267 8.40552 8.40814 8.42474 8.37539 8.45813C8.34265 8.49152 8.32431 8.53642 8.32431 8.58319C8.32431 8.62995 8.34265 8.67485 8.3754 8.70824C8.40815 8.74163 8.45268 8.76084 8.49944 8.76175H9.05659C9.10336 8.76087 9.14792 8.74166 9.18069 8.70827C9.21345 8.67488 9.23181 8.62996 9.23181 8.58318C9.23181 8.5364 9.21345 8.49149 9.18069 8.45809C9.14792 8.4247 9.10336 8.4055 9.05659 8.40461Z" fill="#222222" stroke="#222222" stroke-width="0.2"/>
<path d="M9.00379 6.35334C9.00273 6.28206 8.97367 6.21405 8.92288 6.16402C8.87209 6.11399 8.80366 6.08594 8.73237 6.08594C8.66108 6.08594 8.59265 6.11398 8.54186 6.16401C8.49107 6.21404 8.46201 6.28205 8.46094 6.35333C8.462 6.42462 8.49107 6.49262 8.54185 6.54265C8.59264 6.59269 8.66107 6.62073 8.73236 6.62074C8.80365 6.62074 8.87208 6.59269 8.92287 6.54266C8.97366 6.49263 9.00273 6.42463 9.00379 6.35334Z" fill="#222222" stroke="#222222" stroke-width="0.2"/>
</svg>
