<svg width="24" height="24" viewBox="0 0 24 24" fill="none" xmlns="http://www.w3.org/2000/svg">
<path d="M12 0C18.6274 0 24 5.37258 24 12C24 18.6274 18.6274 24 12 24C5.37258 24 0 18.6274 0 12C0 5.37258 5.37258 0 12 0ZM12 1.71429C6.31936 1.71429 1.71429 6.31936 1.71429 12C1.71429 17.6806 6.31936 22.2857 12 22.2857C17.6806 22.2857 22.2857 17.6806 22.2857 12C22.2857 6.31936 17.6806 1.71429 12 1.71429Z" fill="#69AB69"/>
<path d="M12.2446 7.46971C12.8533 7.46971 13.3467 6.97631 13.3467 6.36767C13.3467 5.75903 12.8533 5.26562 12.2446 5.26562C11.636 5.26562 11.1426 5.75903 11.1426 6.36767C11.1426 6.97631 11.636 7.46971 12.2446 7.46971Z" fill="#69AB69" stroke="#69AB69"/>
<path d="M14.9194 16.2524C15.9909 16.3043 15.9909 17.9123 14.9194 17.9642L10.07 17.9654C9.59665 17.9654 9.21289 17.5817 9.21289 17.1083C9.21289 16.6507 9.57149 16.2768 10.023 16.2524L11.633 16.251V10.5579L10.5312 10.558C10.0736 10.558 9.69971 10.1994 9.6753 9.74792L9.67403 9.70089C9.67403 9.24329 10.0326 8.86943 10.4841 8.84502L10.5312 8.84375H12.4904C12.948 8.84375 13.3218 9.20235 13.3462 9.65386L13.3475 9.70089L13.3473 16.251L14.9194 16.2524Z" fill="#69AB69"/>
</svg>
