<svg width="14" height="14" viewBox="0 0 14 14" fill="none" xmlns="http://www.w3.org/2000/svg">
<path d="M7.48846 6.33993C7.48846 6.07022 7.2698 5.85156 7.00009 5.85156C6.73038 5.85156 6.51172 6.07022 6.51172 6.33993V10.2469C6.51172 10.5166 6.73038 10.7353 7.00009 10.7353C7.2698 10.7353 7.48846 10.5166 7.48846 10.2469V6.33993Z" fill="#727272"/>
<path fill-rule="evenodd" clip-rule="evenodd" d="M7 0C3.13401 0 0 3.13401 0 7C0 10.866 3.13401 14 7 14C10.866 14 14 10.866 14 7C14 3.13401 10.866 0 7 0ZM0.976744 7C0.976744 3.67345 3.67345 0.976744 7 0.976744C10.3265 0.976744 13.0233 3.67345 13.0233 7C13.0233 10.3265 10.3265 13.0233 7 13.0233C3.67345 13.0233 0.976744 10.3265 0.976744 7Z" fill="#727272"/>
<path d="M7.6512 4.40116C7.6512 4.76079 7.35968 5.05233 7.00004 5.05233C6.6404 5.05233 6.34888 4.76079 6.34888 4.40116C6.34888 4.04154 6.6404 3.75 7.00004 3.75C7.35968 3.75 7.6512 4.04154 7.6512 4.40116Z" fill="#727272"/>
</svg>
