<svg width="24" height="24" viewBox="0 0 24 24" fill="none" xmlns="http://www.w3.org/2000/svg">
<path d="M12 0C5.36761 0 0 5.367 0 12C0 18.6323 5.367 24 12 24C18.6324 24 24 18.633 24 12C24 5.3677 18.633 0 12 0ZM12 22.3256C6.30647 22.3256 1.67442 17.6936 1.67442 12C1.67442 6.30642 6.30647 1.67442 12 1.67442C17.6935 1.67442 22.3256 6.30642 22.3256 12C22.3256 17.6936 17.6935 22.3256 12 22.3256Z" fill="#3F96FD"/>
<path d="M12.0001 10C11.2893 10 10.7838 10.3002 10.7838 10.7425V16.7605C10.7838 17.1397 11.2893 17.5187 12.0001 17.5187C12.6793 17.5187 13.2321 17.1397 13.2321 16.7605V10.7424C13.2321 10.3001 12.6793 10 12.0001 10Z" fill="#3F96FD"/>
<path d="M12.0003 6.29688C11.2737 6.29688 10.7051 6.81813 10.7051 7.41836C10.7051 8.01864 11.2737 8.55569 12.0003 8.55569C12.7111 8.55569 13.2798 8.01864 13.2798 7.41836C13.2798 6.81813 12.711 6.29688 12.0003 6.29688Z" fill="#3F96FD"/>
</svg>
