<svg xmlns="http://www.w3.org/2000/svg" xmlns:xlink="http://www.w3.org/1999/xlink" width="16" height="16" viewBox="0 0 16 16">
  <defs>
    <clipPath id="clip-path">
      <circle id="Ellipse_43" data-name="Ellipse 43" cx="8" cy="8" r="8" transform="translate(4204 7150)" fill="#112d55"/>
    </clipPath>
  </defs>
  <g id="Mask_Group_559" data-name="Mask Group 559" transform="translate(-4204 -7150)" clip-path="url(#clip-path)">
    <path id="info_2_" data-name="info (2)" d="M8.194.228a7.965,7.965,0,1,0,8,7.966A7.993,7.993,0,0,0,8.194.228Zm0,14.791a6.827,6.827,0,1,1,6.861-6.825,6.852,6.852,0,0,1-6.861,6.825ZM9.578,11.85a.569.569,0,0,1-.569.569A1.348,1.348,0,0,1,7.66,11.074V8.007A.209.209,0,0,0,7.45,7.8H7.375a.569.569,0,0,1,0-1.138H7.45A1.348,1.348,0,0,1,8.8,8.007v3.067a.209.209,0,0,0,.211.207A.569.569,0,0,1,9.578,11.85ZM7.623,5.236v-.7a.569.569,0,0,1,1.138,0v.7a.569.569,0,0,1-1.138,0Z" transform="translate(4203.808 7149.808)" fill="#112d55"/>
  </g>
</svg>
