<svg width="16" height="18" viewBox="0 0 16 18" fill="none" xmlns="http://www.w3.org/2000/svg">
<path d="M8.94181 1C8.36837 1 7.67301 1.00011 7.45717 1.15118C7.24133 1.30224 7.15069 1.56635 6.96933 2.09457C6.76309 2.69155 6.61629 3.31117 6.04268 3.66722L5.76447 3.82278C5.0583 4.1744 4.33912 3.87549 3.63494 3.68327C3.26848 3.5825 2.91513 3.5523 2.69855 3.54393C2.5639 3.53874 2.44102 3.61147 2.37152 3.72692L1.05586 5.9124C0.986748 6.0272 0.979596 6.16895 1.04659 6.285C1.14731 6.45949 1.32037 6.72898 1.55351 6.98024C2.10887 7.58197 2.76079 8.11533 2.76079 9.00301C2.76079 9.89093 2.10897 10.4242 1.55351 11.026C1.32038 11.2772 1.14732 11.5468 1.04659 11.7212C0.979596 11.8373 0.986748 11.9791 1.05586 12.0939L2.37151 14.2793C2.44101 14.3948 2.56391 14.4675 2.69856 14.4623C2.91516 14.454 3.2685 14.4237 3.63496 14.3229C4.33921 14.1307 5.0584 13.8318 5.76463 14.1835L6.04279 14.3391C6.61637 14.6952 6.76309 15.3148 6.96933 15.9117C7.15069 16.44 7.24133 16.704 7.45717 16.8551C7.67301 17.0062 8.36837 17 8.94181 17" stroke="#FC6D35" stroke-width="1.2" stroke-linecap="round"/>
<path d="M8.94205 11.8031C7.39565 11.8031 6.14209 10.5495 6.14209 9.00315C6.14209 7.45675 7.39565 6.20312 8.94205 6.20312" stroke="#FC6D35" stroke-width="1.2" stroke-linecap="round"/>
<path d="M14.742 3.20156L12.942 5.00156H11.342M14.142 3.20156C14.142 3.53293 14.4107 3.80156 14.742 3.80156C15.0734 3.80156 15.342 3.53293 15.342 3.20156C15.342 2.87019 15.0734 2.60156 14.742 2.60156C14.4107 2.60156 14.142 2.87019 14.142 3.20156Z" stroke="#FC6D35" stroke-width="1.2" stroke-linecap="round" stroke-linejoin="round"/>
<path d="M14.742 14.8L12.942 13H11.342M14.142 14.8C14.142 14.4686 14.4107 14.2 14.742 14.2C15.0734 14.2 15.342 14.4686 15.342 14.8C15.342 15.1314 15.0734 15.4 14.742 15.4C14.4107 15.4 14.142 15.1314 14.142 14.8Z" stroke="#FC6D35" stroke-width="1.2" stroke-linecap="round" stroke-linejoin="round"/>
<path d="M14.742 8.99844H11.342M14.142 8.99844C14.142 9.3298 14.4107 9.59844 14.742 9.59844C15.0734 9.59844 15.342 9.3298 15.342 8.99844C15.342 8.66708 15.0734 8.39844 14.742 8.39844C14.4107 8.39844 14.142 8.66708 14.142 8.99844Z" stroke="#FC6D35" stroke-width="1.2" stroke-linecap="round" stroke-linejoin="round"/>
</svg>
