<svg width="14" height="13" viewBox="0 0 14 13" fill="none" xmlns="http://www.w3.org/2000/svg">
<path fill-rule="evenodd" clip-rule="evenodd" d="M6.99989 0C7.29729 0 7.53835 0.23596 7.53835 0.527027V8.89623C7.53835 9.18728 7.29729 9.42326 6.99989 9.42326C6.70248 9.42326 6.46143 9.18728 6.46143 8.89623V0.527027C6.46143 0.23596 6.70248 0 6.99989 0Z" fill="white"/>
<path fill-rule="evenodd" clip-rule="evenodd" d="M3.78293 6.12752C3.99293 5.92143 4.33384 5.92097 4.5444 6.12651L7.00008 8.52347L9.45577 6.12651C9.66633 5.92097 10.0072 5.92143 10.2172 6.12752C10.4272 6.33365 10.4268 6.66732 10.2162 6.87287L7.58184 9.44425C7.58179 9.44429 7.58192 9.44421 7.58184 9.44425C7.25734 9.76169 6.74576 9.74512 6.43078 9.45605C6.42673 9.45234 6.42277 9.44859 6.41885 9.44476L3.78396 6.87287C3.5734 6.66732 3.57293 6.33365 3.78293 6.12752Z" fill="white"/>
<path fill-rule="evenodd" clip-rule="evenodd" d="M0.538462 8.62891C0.835847 8.62891 1.07692 8.86489 1.07692 9.15593V10.484C1.07692 11.288 1.7464 11.9457 2.57743 11.9457H11.4226C12.2536 11.9457 12.9231 11.288 12.9231 10.484V9.15593C12.9231 8.86489 13.1641 8.62891 13.4615 8.62891C13.7589 8.62891 14 8.86489 14 9.15593V10.484C14 11.8725 12.8459 12.9997 11.4226 12.9997H2.57743C1.1541 12.9997 0 11.8725 0 10.484V9.15593C0 8.86489 0.241076 8.62891 0.538462 8.62891Z" fill="white"/>
</svg>
