<svg width="24" height="24" viewBox="0 0 24 24" fill="none" xmlns="http://www.w3.org/2000/svg">
<path d="M20.1353 12.0586H8.74543C7.9514 12.061 7.94489 13.2757 8.74543 13.2789H20.1353C20.9293 13.2765 20.9358 12.0618 20.1353 12.0586Z" fill="#525252"/>
<path d="M19.6645 4.21289H16.1369C15.5397 4.2137 15.0565 4.69696 15.0557 5.29411V8.24815C15.0573 8.84448 15.5405 9.32774 16.1369 9.32937H19.6645C20.2608 9.32774 20.7441 8.84448 20.7457 8.24815V5.29411C20.7449 4.69696 20.2616 4.2137 19.6645 4.21289ZM19.5254 8.10903H16.276V5.43323H19.5254V8.10903Z" fill="#525252"/>
<path d="M9.29456 9.05628H12.9401C13.7374 9.05302 13.739 7.83919 12.9401 7.83594H9.29456C8.49809 7.83919 8.49565 9.05302 9.29456 9.05628Z" fill="#525252"/>
<path d="M9.29456 5.70471H12.9401C13.7374 5.70146 13.739 4.48763 12.9401 4.48438H9.29456C8.49809 4.48763 8.49565 5.70146 9.29456 5.70471Z" fill="#525252"/>
<path d="M20.1353 18.5684H8.74543C7.9514 18.5708 7.94489 19.7854 8.74543 19.7887H20.1353C20.9293 19.7863 20.9358 18.5716 20.1353 18.5684Z" fill="#525252"/>
<path d="M20.1353 15.3125H8.74543C7.9514 15.3149 7.94489 16.5296 8.74543 16.5328H20.1353C20.9293 16.5304 20.9358 15.3158 20.1353 15.3125Z" fill="#525252"/>
<path d="M20.1356 0H8.74576C6.61261 0.00244068 4.8838 1.73125 4.88136 3.86441V20.9492C4.82359 23.3589 1.28054 23.3662 1.22034 20.9492V16.4746C1.22115 15.2396 2.22264 14.2381 3.45763 14.2373C3.79444 14.2373 4.0678 13.9639 4.0678 13.6271C4.0678 13.2903 3.79444 13.0169 3.45763 13.0169C1.54902 13.0186 0.00162712 14.566 0 16.4746V20.9492C0.00813559 22.6308 1.36922 23.9919 3.05085 24H20.9492C22.6308 23.9919 23.9919 22.6308 24 20.9492V3.86441C23.9976 1.73125 22.2687 0.00244068 20.1356 0ZM22.7797 20.9492C22.7732 21.9572 21.9572 22.7732 20.9492 22.7797H5.4842C5.88285 22.2525 6.10007 21.6098 6.10169 20.9492V3.86441C6.10332 2.40488 7.28624 1.22197 8.74576 1.22034H20.1356C21.5951 1.22197 22.778 2.40488 22.7797 3.86441V20.9492Z" fill="#525252"/>
</svg>
