<svg width="16" height="14" viewBox="0 0 16 14" fill="none" xmlns="http://www.w3.org/2000/svg">
<path d="M2.4721 12.7537H13.5432C14.4142 12.7537 15.0999 12.068 15.0999 11.197V4.20477C15.0999 3.33377 14.4142 2.64805 13.5432 2.64805H2.4721C1.60111 2.64805 0.915381 3.33377 0.915381 4.20477V11.197C0.915381 12.068 1.60111 12.7537 2.4721 12.7537ZM1.69807 4.20477C1.69807 3.79384 2.06118 3.43073 2.4721 3.43073H13.5432C13.9541 3.43073 14.3172 3.79384 14.3172 4.20477V11.197C14.3172 11.6079 13.9541 11.971 13.5432 11.971H2.4721C2.06118 11.971 1.69807 11.6079 1.69807 11.197V4.20477Z" fill="#112D55" stroke="#112D55" stroke-width="0.2"/>
<path d="M9.65582 3.03941C9.65582 3.14953 9.69296 3.24908 9.76522 3.32134C9.83749 3.3936 9.93703 3.43075 10.0472 3.43075C10.1573 3.43075 10.2568 3.3936 10.3291 3.32134C10.4014 3.24908 10.4385 3.14953 10.4385 3.03941V1.87403C10.4385 1.35265 9.98585 0.9 9.46447 0.9H6.55103C6.02965 0.9 5.577 1.35265 5.577 1.87403V3.03941C5.577 3.14953 5.61415 3.24908 5.68641 3.32134C5.75867 3.3936 5.85822 3.43075 5.96835 3.43075C6.07847 3.43075 6.17802 3.3936 6.25028 3.32134C6.32254 3.24908 6.35969 3.14953 6.35969 3.03941V1.87403C6.35969 1.80935 6.38081 1.76323 6.41052 1.73352C6.44023 1.70381 6.48636 1.68269 6.55103 1.68269H9.46447C9.52915 1.68269 9.57528 1.70381 9.60498 1.73352C9.63469 1.76323 9.65582 1.80935 9.65582 1.87403V3.03941Z" fill="#112D55" stroke="#112D55" stroke-width="0.2"/>
<rect x="0.920485" y="5.66474" width="0.823024" height="7.80591" rx="0.411512" transform="rotate(-70.7609 0.920485 5.66474)" fill="#112D55" stroke="#112D55" stroke-width="0.2"/>
<rect x="14.7576" y="4.9424" width="0.823024" height="7.6603" rx="0.411512" transform="rotate(70.8166 14.7576 4.9424)" fill="#112D55" stroke="#112D55" stroke-width="0.2"/>
</svg>
