<svg width="18" height="18" viewBox="0 0 18 18" fill="none" xmlns="http://www.w3.org/2000/svg">
<mask id="mask0_3393_2877" style="mask-type:luminance" maskUnits="userSpaceOnUse" x="0" y="0" width="18" height="18">
<path d="M0 0H18V18H0V0Z" fill="white"/>
</mask>
<g mask="url(#mask0_3393_2877)">
<path d="M14.3174 17.4727H15.8889C16.7636 17.4727 17.4727 16.7636 17.4727 15.8889V4.74609V2.11113C17.4727 1.23644 16.7636 0.527344 15.8889 0.527344H2.11113C1.23644 0.527344 0.527344 1.23644 0.527344 2.11113V4.74609V15.8889C0.527344 16.7636 1.23644 17.4727 2.11113 17.4727H3.68262H14.3174Z" stroke="white" stroke-miterlimit="10" stroke-linecap="round" stroke-linejoin="round"/>
<path d="M0.527344 4.74609H17.4727" stroke="white" stroke-miterlimit="10" stroke-linecap="round" stroke-linejoin="round"/>
<path d="M2 2.63672H10.5078" stroke="white" stroke-miterlimit="10" stroke-linecap="round" stroke-linejoin="round"/>
<path d="M13.0547 2.63672C13.0547 2.92795 12.8186 3.16406 12.5273 3.16406C12.2361 3.16406 12 2.92795 12 2.63672C12 2.34548 12.2361 2.10937 12.5273 2.10937C12.8186 2.10937 13.0547 2.34548 13.0547 2.63672Z" fill="white"/>
<path d="M15.1641 2.63672C15.1641 2.92795 14.928 3.16406 14.6367 3.16406C14.3455 3.16406 14.1094 2.92795 14.1094 2.63672C14.1094 2.34548 14.3455 2.10937 14.6367 2.10937C14.928 2.10937 15.1641 2.34548 15.1641 2.63672Z" fill="white"/>
</g>
<path d="M6.23611 9.60465C6.23611 8.69127 5.49484 7.95 4.58146 7.95C3.66808 7.95 2.92681 8.69127 2.92681 9.60465C2.92681 10.518 3.66808 11.2593 4.58146 11.2593C5.49484 11.2593 6.23611 10.518 6.23611 9.60465ZM3.44541 9.60465C3.44541 8.97757 3.95437 8.4686 4.58146 8.4686C5.20854 8.4686 5.7175 8.97757 5.7175 9.60465C5.7175 10.2317 5.20854 10.7407 4.58146 10.7407C3.95437 10.7407 3.44541 10.2317 3.44541 9.60465Z" fill="white" stroke="white" stroke-width="0.1"/>
<path d="M6.67442 14.4104C6.97191 14.4104 7.21279 14.1692 7.21279 13.872C7.21279 12.65 6.22203 11.6592 5 11.6592H4.16279C2.94076 11.6592 1.95 12.65 1.95 13.872C1.95 14.1692 2.19088 14.4104 2.48837 14.4104H6.67442ZM2.48837 13.8918C2.47747 13.8918 2.4686 13.8829 2.4686 13.872C2.4686 12.9363 3.22706 12.1778 4.16279 12.1778H5C5.93559 12.1778 6.69395 12.936 6.69419 13.8716C6.69388 13.8837 6.6847 13.8918 6.67442 13.8918H2.48837Z" fill="white" stroke="white" stroke-width="0.1"/>
<path d="M11.4204 8.30435H15.3769C15.7371 8.30435 16.0291 8.01235 16.0291 7.65218C16.0291 7.292 15.7371 7 15.3769 7H11.4204C11.0602 7 10.7682 7.292 10.7682 7.65218C10.7682 8.01235 11.0602 8.30435 11.4204 8.30435Z" fill="white"/>
<path d="M11.4204 11.6088H15.3769C15.7371 11.6088 16.0291 11.3168 16.0291 10.9566C16.0291 10.5964 15.7371 10.3044 15.3769 10.3044H11.4204C11.0602 10.3044 10.7682 10.5964 10.7682 10.9566C10.7682 11.3168 11.0602 11.6088 11.4204 11.6088Z" fill="white"/>
<path d="M11.4204 14.9132H15.3769C15.7371 14.9132 16.0291 14.6212 16.0291 14.2611C16.0291 13.9009 15.7371 13.6089 15.3769 13.6089H11.4204C11.0602 13.6089 10.7682 13.9009 10.7682 14.2611C10.7682 14.6212 11.0602 14.9132 11.4204 14.9132Z" fill="white"/>
<path d="M9.65218 8.30435C10.0124 8.30435 10.3044 8.01236 10.3044 7.65218C10.3044 7.29199 10.0124 7 9.65218 7C9.29199 7 9 7.29199 9 7.65218C9 8.01236 9.29199 8.30435 9.65218 8.30435Z" fill="white"/>
<path d="M9.65218 11.6088C10.0124 11.6088 10.3044 11.3168 10.3044 10.9566C10.3044 10.5964 10.0124 10.3044 9.65218 10.3044C9.29199 10.3044 9 10.5964 9 10.9566C9 11.3168 9.29199 11.6088 9.65218 11.6088Z" fill="white"/>
<path d="M9.65218 14.9132C10.0124 14.9132 10.3044 14.6212 10.3044 14.2611C10.3044 13.9009 10.0124 13.6089 9.65218 13.6089C9.29199 13.6089 9 13.9009 9 14.2611C9 14.6212 9.29199 14.9132 9.65218 14.9132Z" fill="white"/>
</svg>
