<svg width="32" height="32" viewBox="0 0 32 32" fill="none" xmlns="http://www.w3.org/2000/svg">
<rect width="32" height="32" rx="4" fill="#6365FF"/>
<path d="M18.1997 12.0969C17.7949 12.0969 17.4664 11.7683 17.4664 11.3635V10.2635H14.5331V11.3635C14.5331 11.7683 14.2045 12.0969 13.7997 12.0969C13.3949 12.0969 13.0664 11.7683 13.0664 11.3635V10.2635C13.0664 9.45467 13.7242 8.79688 14.5331 8.79688H17.4664C18.2753 8.79688 18.9331 9.45467 18.9331 10.2635V11.3635C18.9331 11.7683 18.6045 12.0969 18.1997 12.0969Z" fill="white"/>
<path d="M16.5204 18.6089C16.3884 18.6602 16.1977 18.6969 15.9997 18.6969C15.8017 18.6969 15.611 18.6602 15.435 18.5942L7.19971 15.8516V21.4469C7.19971 22.5616 8.10171 23.4636 9.21637 23.4636H22.783C23.8977 23.4636 24.7997 22.5616 24.7997 21.4469V15.8516L16.5204 18.6089Z" fill="white"/>
<path d="M24.7997 13.0167V14.696L16.1757 17.5707C16.117 17.5927 16.0584 17.6 15.9997 17.6C15.941 17.6 15.8824 17.5927 15.8237 17.5707L7.19971 14.696V13.0167C7.19971 11.902 8.10171 11 9.21637 11H22.783C23.8977 11 24.7997 11.902 24.7997 13.0167Z" fill="white"/>
</svg>
