<svg width="32" height="32" viewBox="0 0 32 32" fill="none" xmlns="http://www.w3.org/2000/svg">
<path d="M30.2812 24.6562H1.71875C1.02838 24.6562 0.46875 24.0966 0.46875 23.4062V4.28125C0.46875 3.59088 1.02838 3.03125 1.71875 3.03125H30.2812C30.9716 3.03125 31.5312 3.59088 31.5312 4.28125V23.4062C31.5312 24.0966 30.9716 24.6562 30.2812 24.6562Z" fill="#544F57"/>
<path d="M2.34375 22.5312V5.15625C2.34375 5.01819 2.45569 4.90625 2.59375 4.90625H29.4062C29.5443 4.90625 29.6562 5.01819 29.6562 5.15625V22.5312C29.6562 22.6693 29.5443 22.7812 29.4062 22.7812H2.59375C2.45569 22.7812 2.34375 22.6693 2.34375 22.5312Z" fill="#75CEF9"/>
<path d="M29.4062 4.90625H27.5312C27.6693 4.90625 27.7812 5.01819 27.7812 5.15625V22.5312C27.7812 22.6693 27.6693 22.7812 27.5312 22.7812H29.4062C29.5443 22.7812 29.6562 22.6693 29.6562 22.5312V5.15625C29.6562 5.01819 29.5443 4.90625 29.4062 4.90625Z" fill="#6BBEF6"/>
<path d="M23.3124 30.7188H8.68756C8.54944 30.7188 8.4375 30.6067 8.4375 30.4687V29.7812C8.4375 29.2635 8.85725 28.8438 9.375 28.8438H22.625C23.1428 28.8438 23.5625 29.2635 23.5625 29.7812V30.4687C23.5625 30.6067 23.4505 30.7188 23.3124 30.7188Z" fill="#5490F9"/>
<path d="M22.625 28.8438H20.75C21.2678 28.8438 21.6875 29.2635 21.6875 29.7812V30.4687C21.6875 30.6068 21.5755 30.7188 21.4374 30.7188H23.3124C23.4506 30.7188 23.5625 30.6067 23.5625 30.4687V29.7812C23.5625 29.2635 23.1428 28.8438 22.625 28.8438Z" fill="#4A81F6"/>
<path d="M21.833 24.6562V28.8438H10.1667V24.6562H13.4036L13.7208 26.2352C13.7809 26.5346 14.0439 26.75 14.3493 26.75H17.6509C17.9563 26.75 18.2193 26.5345 18.2794 26.235L18.5961 24.6562H21.833Z" fill="#544F57"/>
<path d="M19.9579 24.6562H21.8329V28.8438H19.9579V24.6562Z" fill="#454045"/>
<path d="M30.2812 24.6539H1.71875C1.02838 24.6539 0.46875 24.0943 0.46875 23.4039V20.1797H31.5312V23.4039C31.5312 24.0943 30.9716 24.6539 30.2812 24.6539Z" fill="#5490F9"/>
<path d="M29.6562 20.1797V23.4039C29.6562 24.0943 29.0966 24.6539 28.4062 24.6539H30.2812C30.9716 24.6539 31.5312 24.0943 31.5312 23.4039V20.1797H29.6562Z" fill="#4A81F6"/>
<path d="M25.75 1.93125V9.31075C25.75 10.1185 25.0936 10.7732 24.284 10.7732H17.7056C17.5913 10.7732 17.4848 10.8312 17.423 10.9271L16.2261 12.7831C16.1203 12.9472 15.8798 12.9472 15.7739 12.7831L14.577 10.9271C14.5152 10.8312 14.4087 10.7732 14.2944 10.7732H7.716C6.90631 10.7732 6.25 10.1184 6.25 9.31075V1.93125C6.25 1.1235 6.90638 0.46875 7.716 0.46875H24.2839C25.0936 0.46875 25.75 1.12356 25.75 1.93125Z" fill="#ECF4FF"/>
<path d="M24.284 0.46875H22.6857C23.4954 0.46875 24.1517 1.12356 24.1517 1.93125V9.31075C24.1517 10.1185 23.4953 10.7732 22.6857 10.7732H24.284C25.0937 10.7732 25.75 10.1184 25.75 9.31075V1.93125C25.75 1.12356 25.0937 0.46875 24.284 0.46875Z" fill="#DDEAFB"/>
<path d="M12.9721 16.9199H7.38138C7.19932 16.9199 7.05176 16.7724 7.05176 16.5903V14.1734C7.05176 13.9913 7.19932 13.8438 7.38138 13.8438H12.9721C13.1542 13.8438 13.3018 13.9913 13.3018 14.1734V16.5903C13.3017 16.7724 13.1541 16.9199 12.9721 16.9199Z" fill="#FFD064"/>
<path d="M31.5312 16.9236C31.7901 16.9236 32 16.7138 32 16.4549V4.28125C32 3.3335 31.229 2.5625 30.2812 2.5625H26.2188V1.93125C26.2188 0.866313 25.3508 0 24.2839 0H13.1319C12.8731 0 12.6632 0.209875 12.6632 0.46875C12.6632 0.727625 12.8731 0.9375 13.1319 0.9375H24.2839C24.8338 0.9375 25.2812 1.38331 25.2812 1.93125V9.31075C25.2812 9.85875 24.8339 10.3045 24.2839 10.3045H17.7056C17.4308 10.3045 17.1779 10.4423 17.0291 10.6731L16 12.2688L14.971 10.6731C14.8222 10.4424 14.5693 10.3046 14.2945 10.3046H7.71606C7.16619 10.3046 6.71875 9.85875 6.71875 9.31081V1.93125C6.71875 1.38325 7.16613 0.9375 7.71606 0.9375H10.9097C11.1686 0.9375 11.3785 0.727625 11.3785 0.46875C11.3785 0.209875 11.1686 0 10.9097 0H7.71606C6.64919 0 5.78125 0.866375 5.78125 1.93125V2.5625H1.71875C0.771 2.5625 0 3.3335 0 4.28125V23.4062C0 24.354 0.771 25.125 1.71875 25.125H9.69794V28.375H9.375C8.59956 28.375 7.96875 29.0058 7.96875 29.7812V30.4687C7.96875 30.8651 8.29125 31.1875 8.68756 31.1875H23.3124C23.7087 31.1875 24.0312 30.865 24.0312 30.4687V29.7812C24.0312 29.0058 23.4004 28.375 22.6249 28.375H22.3016V25.125H30.2812C31.229 25.125 32 24.354 32 23.4062V18.7049C32 18.446 31.7901 18.2361 31.5312 18.2361C31.2724 18.2361 31.0625 18.446 31.0625 18.7049V19.7134H30.125V5.15625C30.125 4.75994 29.8026 4.4375 29.4062 4.4375H26.2188V3.5H30.2812C30.7121 3.5 31.0625 3.85044 31.0625 4.28125V16.4549C31.0625 16.7138 31.2724 16.9236 31.5312 16.9236ZM23.0938 29.7812V30.25H8.90625V29.7812C8.90625 29.5227 9.1165 29.3125 9.375 29.3125H22.625C22.8835 29.3125 23.0938 29.5227 23.0938 29.7812ZM1.71875 3.5H5.78125V4.4375H2.59375C2.19744 4.4375 1.875 4.75994 1.875 5.15625V19.7134H0.9375V4.28125C0.9375 3.85044 1.28794 3.5 1.71875 3.5ZM21.3642 28.3748H10.6354V25.125H13.0197L13.2612 26.3273C13.365 26.8437 13.8226 27.2186 14.3493 27.2186H17.6509C18.1778 27.2186 18.6354 26.8436 18.739 26.327L18.9801 25.125H21.3643V28.3748H21.3642ZM13.9759 25.125H18.0239L17.8197 26.1426C17.8037 26.2228 17.7326 26.281 17.6508 26.281H14.3492C14.2674 26.281 14.1964 26.2228 14.1803 26.1426L13.9759 25.125ZM31.0625 23.4062C31.0625 23.8371 30.7121 24.1875 30.2812 24.1875H1.71875C1.28794 24.1875 0.9375 23.8371 0.9375 23.4062V20.6509H31.0625V23.4062ZM29.1875 5.375V19.7134H2.8125V5.375H5.78125V9.31081C5.78125 10.3758 6.64919 11.2421 7.71606 11.2421H14.2224L15.3799 13.0371C15.5163 13.2487 15.7481 13.375 16 13.375C16.2519 13.375 16.4837 13.2487 16.6201 13.0372L17.7776 11.2421H24.2839C25.3507 11.2421 26.2188 10.3757 26.2188 9.31081V5.375H29.1875Z" fill="black"/>
<path d="M17.8742 3.19531H16.7391C16.4803 3.19531 16.2704 3.40519 16.2704 3.66406V7.5715C16.2704 7.69619 16.3201 7.81575 16.4084 7.90369C16.4963 7.99119 16.6152 8.04025 16.7391 8.04025H16.7412C16.7413 8.04025 17.7848 8.03562 18.0724 8.03562C18.9108 8.03562 19.5929 7.3535 19.5929 6.51513C19.5929 6.03125 19.3654 5.59981 19.0121 5.32113C19.1572 5.104 19.242 4.84331 19.242 4.56319C19.2421 3.80894 18.6284 3.19531 17.8742 3.19531ZM17.8742 4.13281C18.1115 4.13281 18.3046 4.32588 18.3046 4.56319C18.3046 4.8005 18.1115 4.99356 17.8742 4.99356C17.7904 4.99356 17.6323 4.994 17.46 4.99463H17.2079V4.13281H17.8742ZM18.0724 7.09813C17.9136 7.09813 17.5251 7.0995 17.2079 7.10081V5.933C17.2906 5.93269 17.3768 5.93237 17.4598 5.93206H18.0724C18.3939 5.93206 18.6554 6.19363 18.6554 6.51506C18.6554 6.8365 18.3939 7.09813 18.0724 7.09813Z" fill="black"/>
<path d="M21.6732 7.10277C21.2793 7.10277 20.9001 6.94384 20.6589 6.67752C20.4851 6.48577 20.1886 6.47115 19.9968 6.64496C19.8049 6.81884 19.7903 7.11527 19.9642 7.30709C20.3803 7.76621 21.0191 8.04027 21.6732 8.04027C22.4871 8.04027 23.1704 7.52165 23.2981 6.80709C23.3939 6.27009 23.1492 5.56827 22.1747 5.20884C21.6914 5.03059 21.2418 4.8364 21.1073 4.77746C20.9909 4.68571 20.9948 4.5569 21.0024 4.5034C21.0129 4.43071 21.0654 4.25315 21.3271 4.17427C21.8886 4.00502 22.4073 4.4159 22.4205 4.42652C22.6186 4.5909 22.9127 4.56471 23.0786 4.3674C23.2452 4.16921 23.2196 3.87352 23.0214 3.70696C22.9849 3.67621 22.1139 2.95802 21.0566 3.27665C20.5246 3.4369 20.1483 3.85596 20.0744 4.37021C20.0053 4.85227 20.2142 5.31596 20.6197 5.58034C20.6404 5.59384 20.6621 5.60565 20.6848 5.61571C20.7074 5.62577 21.2448 5.86509 21.8503 6.08834C22.0262 6.15327 22.4296 6.33715 22.3751 6.64221C22.3348 6.86865 22.0611 7.10277 21.6732 7.10277Z" fill="black"/>
<path d="M13.3242 8.04025C14.6599 8.04025 15.7467 6.95356 15.7467 5.61781C15.7467 4.28206 14.6599 3.19531 13.3242 3.19531C11.9884 3.19531 10.9017 4.28206 10.9017 5.61781C10.9017 6.95356 11.9884 8.04025 13.3242 8.04025ZM13.3242 4.13281C14.143 4.13281 14.8092 4.799 14.8092 5.61781C14.8092 6.43662 14.143 7.10275 13.3242 7.10275C12.5054 7.10275 11.8392 6.43662 11.8392 5.61781C11.8392 4.799 12.5053 4.13281 13.3242 4.13281Z" fill="black"/>
<path d="M19.4678 13.9766H21.4135C21.6723 13.9766 21.8822 13.7667 21.8822 13.5078C21.8822 13.2489 21.6723 13.0391 21.4135 13.0391H19.4678C19.2089 13.0391 18.999 13.2489 18.999 13.5078C18.999 13.7667 19.2089 13.9766 19.4678 13.9766Z" fill="black"/>
<path d="M24.2178 14.9141H19.4678C19.2089 14.9141 18.999 15.1239 18.999 15.3828C18.999 15.6417 19.2089 15.8516 19.4678 15.8516H24.2178C24.4766 15.8516 24.6865 15.6417 24.6865 15.3828C24.6865 15.1239 24.4766 14.9141 24.2178 14.9141Z" fill="black"/>
<path d="M23.6492 16.7891H19.4678C19.2089 16.7891 18.999 16.9989 18.999 17.2578C18.999 17.5167 19.2089 17.7266 19.4678 17.7266H23.6492C23.9081 17.7266 24.118 17.5167 24.118 17.2578C24.118 16.9989 23.9081 16.7891 23.6492 16.7891Z" fill="black"/>
<path d="M12.9721 13.375H7.38132C6.94113 13.375 6.58301 13.7331 6.58301 14.1734V16.5903C6.58301 17.0305 6.94113 17.3887 7.38132 17.3887H12.9721C13.4123 17.3887 13.7705 17.0306 13.7705 16.5903V14.1734C13.7705 13.7331 13.4123 13.375 12.9721 13.375ZM12.833 16.4512H7.52051V14.3125H12.833V16.4512Z" fill="black"/>
<path d="M9.4404 3.67187V6.79487C9.4404 6.91531 9.37884 7.02425 9.27971 7.07925C9.12315 7.16631 8.94446 7.03844 8.87484 6.97938C8.67746 6.81188 8.38165 6.83612 8.21415 7.03344C8.04665 7.23081 8.07084 7.52663 8.26821 7.69413C8.49821 7.88931 8.82209 8.04688 9.17184 8.04688C9.35559 8.04688 9.54659 8.00337 9.73465 7.89894C10.1314 7.67875 10.3779 7.25569 10.3779 6.79481V3.67187C10.3779 3.413 10.168 3.20312 9.90915 3.20312C9.65028 3.20312 9.4404 3.413 9.4404 3.67187Z" fill="black"/>
</svg>
