<svg width="24" height="24" viewBox="0 0 24 24" fill="none" xmlns="http://www.w3.org/2000/svg">
<path d="M2 22.222C1.9999 22.4554 2.04578 22.6866 2.13502 22.9023C2.22425 23.118 2.3551 23.314 2.52009 23.4791C2.68507 23.6442 2.88097 23.7752 3.09659 23.8646C3.31221 23.9541 3.54333 24.0001 3.77675 24.0002H19.325C19.5584 24.0001 19.7895 23.9541 20.0052 23.8646C20.2208 23.7752 20.4167 23.6442 20.5817 23.4791C20.7466 23.314 20.8775 23.118 20.9667 22.9023C21.056 22.6866 21.1018 22.4554 21.1018 22.222V7.55273H2V22.222Z" fill="#D9D9D9"/>
<path d="M19.3247 1.42498e-06H6.8867V3.40725C6.8442 3.81745 6.64962 4.19686 6.34131 4.47075C6.033 4.74463 5.6333 4.89313 5.22095 4.887H2.44595C2.29844 4.86995 2.14946 4.86995 2.00195 4.887V7.5525H21.1037V1.7775C21.1038 1.54392 21.0578 1.31262 20.9685 1.09682C20.8791 0.88102 20.748 0.684964 20.5828 0.519868C20.4175 0.354773 20.2214 0.223878 20.0055 0.134674C19.7896 0.0454692 19.5583 -0.00029439 19.3247 1.42498e-06Z" fill="#F1F1F1"/>
<path d="M2.444 4.887H5.219C5.63135 4.89313 6.03105 4.74463 6.33936 4.47074C6.64767 4.19686 6.84224 3.81745 6.88475 3.40725V0L2 4.887C2.14751 4.86994 2.29649 4.86994 2.444 4.887Z" fill="#B0B7BD"/>
<path d="M9.77475 2.24609V4.37009C9.78344 4.50884 9.76349 4.64789 9.71614 4.77859C9.66879 4.9093 9.59504 5.02886 9.4995 5.12984C9.3981 5.22131 9.27968 5.2919 9.15099 5.33759C9.0223 5.38327 8.88587 5.40315 8.7495 5.39609C8.45957 5.40971 8.17583 5.30929 7.959 5.11634C7.85605 5.01227 7.77614 4.88771 7.72446 4.75075C7.67278 4.61378 7.65047 4.46748 7.659 4.32134H8.41425C8.40595 4.42757 8.43427 4.53344 8.4945 4.62134C8.52276 4.65445 8.55836 4.6805 8.59846 4.69742C8.63857 4.71435 8.68206 4.72168 8.7255 4.71884C8.76547 4.72199 8.80562 4.71561 8.84265 4.70022C8.87967 4.68484 8.91253 4.66089 8.9385 4.63034C8.99544 4.55703 9.02226 4.46476 9.0135 4.37234V2.24609H9.77475Z" fill="#262626"/>
<path d="M10.8811 5.28735C10.7044 5.22328 10.5501 5.10913 10.4371 4.95885C10.3318 4.8078 10.276 4.62775 10.2774 4.4436H11.1084C11.115 4.54389 11.1576 4.63842 11.2284 4.70985C11.3039 4.76984 11.3982 4.80118 11.4946 4.79835C11.5891 4.80234 11.6824 4.77606 11.7609 4.72335C11.7931 4.69736 11.8188 4.6641 11.8357 4.6263C11.8527 4.5885 11.8604 4.54722 11.8584 4.50585C11.8595 4.43472 11.8325 4.36602 11.7834 4.3146C11.7263 4.26358 11.6618 4.2216 11.5921 4.1901C11.5171 4.15935 11.4054 4.12335 11.2681 4.0791C11.0993 4.02881 10.9344 3.9664 10.7746 3.89235C10.645 3.82775 10.5324 3.73344 10.4461 3.6171C10.3498 3.47772 10.3014 3.31086 10.3081 3.1416C10.3028 3.01137 10.3286 2.88174 10.3836 2.76354C10.4385 2.64534 10.5209 2.54198 10.6239 2.4621C10.8688 2.30081 11.1556 2.21484 11.4489 2.21484C11.7421 2.21484 12.029 2.30081 12.2739 2.4621C12.3774 2.54391 12.4613 2.64774 12.5197 2.76605C12.5781 2.88436 12.6094 3.01418 12.6114 3.1461H11.7691C11.769 3.1011 11.759 3.05668 11.7398 3.01599C11.7207 2.97529 11.6928 2.93931 11.6581 2.9106C11.5846 2.8502 11.4915 2.81873 11.3964 2.8221C11.3148 2.81905 11.2348 2.8457 11.1714 2.8971C11.146 2.92597 11.1269 2.95984 11.1154 2.99653C11.1039 3.03321 11.1003 3.0719 11.1046 3.1101C11.1037 3.1588 11.1166 3.20676 11.1418 3.24844C11.1671 3.29011 11.2036 3.3238 11.2471 3.3456C11.3879 3.42254 11.5369 3.48366 11.6911 3.52785C11.8591 3.58384 12.0239 3.64919 12.1846 3.7236C12.3116 3.7883 12.4224 3.88085 12.5086 3.99435C12.6025 4.12301 12.651 4.27916 12.6466 4.43835C12.6497 4.60933 12.6033 4.77755 12.5131 4.92285C12.4167 5.07335 12.2797 5.19348 12.1179 5.26935C11.9283 5.36113 11.7193 5.4054 11.5089 5.39835C11.2933 5.40462 11.0786 5.36685 10.8781 5.28735H10.8811Z" fill="#262626"/>
<path d="M13.7726 5.19343C13.5297 5.06148 13.3282 4.86467 13.1906 4.62493C13.0478 4.37344 12.9727 4.08917 12.9727 3.79993C12.9727 3.5107 13.0478 3.22642 13.1906 2.97493C13.3307 2.73713 13.5316 2.54091 13.7726 2.40643C14.0195 2.27821 14.2948 2.21448 14.5729 2.22118C14.8553 2.21973 15.1335 2.28992 15.3814 2.42518C15.6211 2.55978 15.8205 2.75606 15.9589 2.99368C16.0993 3.24572 16.1712 3.53018 16.1674 3.81868C16.1716 4.1078 16.0981 4.39275 15.9544 4.64368C15.8185 4.88323 15.6185 5.08011 15.3769 5.21218C15.1301 5.34629 14.8537 5.41654 14.5729 5.41654C14.292 5.41654 14.0156 5.34629 13.7689 5.21218L13.7726 5.19343ZM15.1721 4.44343C15.3274 4.26043 15.4078 4.02547 15.3971 3.78568C15.4078 3.54589 15.3274 3.31093 15.1721 3.12793C15.0125 2.96983 14.7968 2.88114 14.5721 2.88114C14.3474 2.88114 14.1318 2.96983 13.9721 3.12793C13.8254 3.31563 13.7456 3.54704 13.7456 3.78531C13.7456 4.02357 13.8254 4.25498 13.9721 4.44268C14.1319 4.60068 14.3476 4.68924 14.5723 4.6891C14.797 4.68896 15.0126 4.60013 15.1721 4.44193V4.44343Z" fill="#262626"/>
<path d="M19.3798 5.36459H18.6201L17.3496 3.44084V5.36459H16.5898V2.25509H17.3496L18.6201 4.18784V2.24609H19.3798V5.36459Z" fill="#262626"/>
<path d="M9.44148 16.4766H10.013C10.0742 16.4766 10.133 16.5009 10.1763 16.5442C10.2196 16.5875 10.244 16.6463 10.244 16.7076V17.2626C10.244 17.3238 10.2196 17.3826 10.1763 17.4259C10.133 17.4692 10.0742 17.4936 10.013 17.4936H9.43998C9.37872 17.4936 9.31996 17.4692 9.27664 17.4259C9.23332 17.3826 9.20898 17.3238 9.20898 17.2626V16.7076C9.20898 16.6771 9.21501 16.6469 9.22671 16.6188C9.23841 16.5907 9.25556 16.5652 9.27717 16.5437C9.29878 16.5222 9.32442 16.5052 9.35262 16.4937C9.38082 16.4822 9.41102 16.4764 9.44148 16.4766Z" fill="#262626"/>
<path d="M11.2631 16.4766H11.8406C11.9003 16.4766 11.9575 16.5003 11.9997 16.5425C12.0419 16.5847 12.0656 16.6419 12.0656 16.7016V17.2656C12.0656 17.3252 12.0419 17.3825 11.9997 17.4247C11.9575 17.4669 11.9003 17.4906 11.8406 17.4906H11.2631C11.2034 17.4906 11.1462 17.4669 11.104 17.4247C11.0618 17.3825 11.0381 17.3252 11.0381 17.2656V16.7016C11.0381 16.6419 11.0618 16.5847 11.104 16.5425C11.1462 16.5003 11.2034 16.4766 11.2631 16.4766Z" fill="#262626"/>
<path d="M13.0889 16.4766H13.6664C13.726 16.4766 13.7833 16.5003 13.8255 16.5425C13.8677 16.5847 13.8914 16.642 13.8914 16.7016V17.2656C13.8914 17.3253 13.8677 17.3825 13.8255 17.4247C13.7833 17.4669 13.726 17.4906 13.6664 17.4906H13.0844C13.0247 17.4906 12.9675 17.4669 12.9253 17.4247C12.8831 17.3825 12.8594 17.3253 12.8594 17.2656V16.7016C12.8594 16.6716 12.8654 16.6418 12.8771 16.6141C12.8887 16.5864 12.9058 16.5614 12.9274 16.5404C12.9489 16.5194 12.9744 16.503 13.0024 16.492C13.0304 16.4811 13.0603 16.4758 13.0904 16.4766H13.0889Z" fill="#262626"/>
<path d="M7.15791 15.707C7.31699 15.8038 7.45704 15.9289 7.57116 16.076C7.67784 16.2303 7.74905 16.4062 7.77966 16.5913C7.82412 16.8584 7.84446 17.129 7.84041 17.3998C7.83136 17.5804 7.83136 17.7614 7.84041 17.942C7.84328 18.0345 7.86605 18.1253 7.90716 18.2083C7.92997 18.2624 7.97303 18.3055 8.02716 18.3283C8.10693 18.3532 8.18875 18.371 8.27166 18.3815C8.3175 18.3877 8.3616 18.4031 8.40131 18.4268C8.44101 18.4506 8.47549 18.4821 8.50266 18.5195C8.56823 18.6096 8.60104 18.7195 8.59566 18.8308C8.59566 19.1268 8.41341 19.2748 8.04891 19.2748C7.83875 19.2778 7.63109 19.2289 7.44441 19.1323C7.27123 19.0413 7.1278 18.9026 7.03116 18.7325C6.93219 18.5497 6.88062 18.3449 6.88116 18.137C6.88116 17.762 6.88116 17.4575 6.85866 17.2483C6.8588 17.0993 6.84701 16.9506 6.82341 16.8035C6.80079 16.6668 6.74433 16.5379 6.65916 16.4285C6.57616 16.3368 6.48044 16.2575 6.37491 16.193C6.28065 16.1415 6.1951 16.0754 6.12141 15.9973C6.05329 15.8851 6.03012 15.7513 6.05655 15.6228C6.08298 15.4942 6.15706 15.3805 6.26391 15.3043C6.40176 15.2246 6.52987 15.1292 6.64566 15.02C6.72517 14.9364 6.7804 14.8327 6.80541 14.72C6.83798 14.5892 6.85584 14.4551 6.85866 14.3203C6.85866 14.1703 6.85866 13.8268 6.88116 13.2703C6.87563 13.1177 6.90226 12.9657 6.95933 12.8241C7.0164 12.6824 7.10263 12.5544 7.21241 12.4483C7.32219 12.3422 7.45307 12.2604 7.59654 12.2082C7.74001 12.156 7.89287 12.1345 8.04516 12.1453C8.40966 12.1453 8.59191 12.2953 8.59191 12.5893C8.59792 12.7014 8.56682 12.8124 8.50341 12.905C8.4759 12.9427 8.44066 12.9741 8.40005 12.9972C8.35945 13.0202 8.3144 13.0343 8.26791 13.0385C8.16247 13.048 8.06023 13.0797 7.96791 13.1315C7.93427 13.1588 7.90692 13.193 7.88776 13.2319C7.8686 13.2707 7.85808 13.3132 7.85691 13.3565C7.8321 13.5779 7.82033 13.8005 7.82166 14.0233C7.82233 14.2864 7.80303 14.5491 7.76391 14.8093C7.73896 14.9951 7.67202 15.1729 7.56816 15.329C7.45994 15.4833 7.32072 15.6133 7.15941 15.7108L7.15791 15.707Z" fill="#262626"/>
<path d="M15.5193 15.3171C15.4154 15.161 15.3485 14.9833 15.3235 14.7974C15.2844 14.5372 15.2651 14.2745 15.2658 14.0114C15.2665 13.7873 15.254 13.5635 15.2283 13.3409C15.2271 13.2976 15.2166 13.2551 15.1974 13.2162C15.1783 13.1774 15.1509 13.1432 15.1173 13.1159C15.025 13.0641 14.9227 13.0324 14.8173 13.0229C14.7708 13.0187 14.7257 13.0045 14.6851 12.9815C14.6445 12.9585 14.6093 12.9271 14.5818 12.8894C14.5184 12.7967 14.4873 12.6858 14.4933 12.5736C14.4933 12.2804 14.6755 12.1296 15.04 12.1296C15.1923 12.1189 15.3452 12.1404 15.4887 12.1926C15.6321 12.2448 15.763 12.3266 15.8728 12.4327C15.9826 12.5388 16.0688 12.6668 16.1259 12.8084C16.1829 12.95 16.2096 13.1021 16.204 13.2546C16.204 13.8096 16.204 14.1434 16.2265 14.3046C16.2294 14.4395 16.2472 14.5735 16.2798 14.7044C16.3048 14.817 16.36 14.9208 16.4395 15.0044C16.5553 15.1136 16.6834 15.209 16.8213 15.2886C16.9281 15.3648 17.0022 15.4786 17.0286 15.6072C17.0551 15.7357 17.0319 15.8695 16.9638 15.9816C16.8901 16.0598 16.8045 16.1259 16.7103 16.1774C16.6054 16.243 16.5104 16.3233 16.4283 16.4159C16.3431 16.5252 16.2866 16.6542 16.264 16.7909C16.2405 16.9377 16.2287 17.0862 16.2288 17.2349C16.2288 17.4599 16.2288 17.7599 16.2063 18.1236C16.2068 18.3316 16.1552 18.5363 16.0563 18.7191C15.9596 18.8892 15.8162 19.028 15.643 19.1189C15.4564 19.2155 15.2487 19.2644 15.0385 19.2614C14.674 19.2614 14.4918 19.1134 14.4918 18.8174C14.4864 18.7061 14.5192 18.5963 14.5848 18.5061C14.612 18.4687 14.6464 18.4372 14.6861 18.4135C14.7258 18.3898 14.7699 18.3743 14.8158 18.3681C14.8987 18.3577 14.9805 18.3398 15.0603 18.3149C15.1144 18.2921 15.1575 18.249 15.1803 18.1949C15.2214 18.112 15.2442 18.0212 15.247 17.9286C15.2561 17.748 15.2561 17.567 15.247 17.3864C15.242 17.1157 15.2613 16.8451 15.3048 16.5779C15.3475 16.393 15.431 16.22 15.5493 16.0716C15.6634 15.9245 15.8035 15.7994 15.9625 15.7026C15.7876 15.6067 15.636 15.4732 15.5185 15.3119L15.5193 15.3171Z" fill="#262626"/>
</svg>
