<svg width="24" height="14" viewBox="0 0 24 14" fill="none" xmlns="http://www.w3.org/2000/svg">
<path d="M12.6543 4.94825C11.8235 2.55849 9.59307 0.845703 6.96481 0.845703C3.62663 0.845703 0.922852 3.59955 0.922852 6.99955C0.922852 10.3995 3.62663 13.1534 6.96481 13.1534C9.59307 13.1534 11.8235 11.4406 12.6543 9.05085H17.0347V13.1534H21.0627V9.05085H23.0767V4.94825H12.6543ZM6.96481 9.0508C5.8521 9.0508 4.95081 8.13287 4.95081 6.9995C4.95081 5.86614 5.8521 4.94825 6.96481 4.94825C8.07753 4.94825 8.97882 5.86618 8.97882 6.99955C8.97882 8.13291 8.07753 9.0508 6.96481 9.0508Z" fill="#525252"/>
</svg>
