<svg width="24" height="14" viewBox="0 0 24 14" fill="none" xmlns="http://www.w3.org/2000/svg">
<path d="M12.6546 4.94825C11.8238 2.55849 9.59331 0.845703 6.96506 0.845703C3.62687 0.845703 0.923096 3.59955 0.923096 6.99955C0.923096 10.3995 3.62687 13.1534 6.96506 13.1534C9.59331 13.1534 11.8238 11.4406 12.6546 9.05085H17.035V13.1534H21.0629V9.05085H23.0769V4.94825H12.6546ZM6.96506 9.0508C5.85235 9.0508 4.95106 8.13287 4.95106 6.9995C4.95106 5.86614 5.85235 4.94825 6.96506 4.94825C8.07777 4.94825 8.97906 5.86618 8.97906 6.99955C8.97906 8.13291 8.07777 9.0508 6.96506 9.0508Z" fill="#525252"/>
</svg>
