<svg width="16" height="16" viewBox="0 0 16 16" fill="none" xmlns="http://www.w3.org/2000/svg">
<path d="M8 0C3.5816 0 0 3.5816 0 8C0 12.4184 3.5816 16 8 16C12.4184 16 16 12.4184 16 8C15.9952 3.584 12.416 0.0048 8 0ZM8 14.7696C6.6611 14.7696 5.35227 14.3726 4.23901 13.6287C3.12576 12.8849 2.25808 11.8276 1.74571 10.5906C1.23333 9.35363 1.09927 7.99249 1.36048 6.67932C1.62168 5.36614 2.26642 4.15992 3.21317 3.21317C4.15992 2.26642 5.36614 1.62168 6.67932 1.36048C7.99249 1.09927 9.35363 1.23333 10.5906 1.74571C11.8276 2.25808 12.8849 3.12576 13.6287 4.23901C14.3726 5.35227 14.7696 6.6611 14.7696 8C14.7677 9.79482 14.0539 11.5156 12.7847 12.7847C11.5156 14.0539 9.79482 14.7677 8 14.7696Z" fill="#717171"/>
</svg>
