<svg width="32" height="32" viewBox="0 0 32 32" fill="none" xmlns="http://www.w3.org/2000/svg">
<rect width="32" height="32" rx="4" fill="#E60023"/>
<path d="M14.608 23.5085H8.4877V15.4688H7.19971V24.7965H15.4838V24.3843C15.4838 23.9014 15.0909 23.5085 14.608 23.5085Z" fill="white"/>
<path d="M23.5108 15.4688V23.5085H17.3905C16.9075 23.5085 16.5146 23.9014 16.5146 24.3843V24.7965H24.7988V15.4688H23.5108Z" fill="white"/>
<path d="M13.681 16.8369C13.6869 16.0977 13.3064 15.4081 12.7065 14.9518C12.3446 14.6366 12.0342 14.2764 11.7808 13.8828H9.51904V22.476H14.6081C14.9237 22.476 15.2217 22.553 15.4839 22.6894V19.0623H13.681V16.8369Z" fill="white"/>
<path d="M19.2921 14.9518C18.6906 15.4055 18.3119 16.0965 18.3176 16.8589V19.0623H16.5146V22.6894C16.7769 22.553 17.0749 22.476 17.3905 22.476H22.4796C22.4796 21.8224 22.4796 14.2608 22.4796 13.8828H20.2171C19.9637 14.2767 19.6537 14.637 19.2921 14.9518Z" fill="white"/>
<path d="M14.7121 18.0329H17.2867C17.2895 17.8631 17.2792 16.7765 17.2946 16.6328C16.5335 16.6328 15.4666 16.6328 14.7056 16.6328C14.7183 16.7467 14.7098 17.8904 14.7121 18.0329Z" fill="white"/>
<path d="M8.57031 8.14062L8.98899 7.19809L10.8456 8.02278L10.4269 8.96532L8.57031 8.14062Z" fill="white"/>
<path d="M8.35498 10.6562H10.3265V11.6875H8.35498V10.6562Z" fill="white"/>
<path d="M21.1558 8.02344L23.0123 7.19874L23.431 8.14128L21.5744 8.96597L21.1558 8.02344Z" fill="white"/>
<path d="M21.6719 10.6562H23.6434V11.6875H21.6719V10.6562Z" fill="white"/>
<path d="M15.9996 7.19531C12.5288 7.2081 10.7319 11.3295 13.083 13.8822C13.2057 14.0145 13.3387 14.1397 13.481 14.2558C13.9211 14.6163 14.2589 15.0759 14.4696 15.5992H15.484C15.484 14.4409 15.484 12.9954 15.484 11.8335H14.3954V10.8023H17.6038V11.8335H16.5152V15.5992H17.5296C17.7403 15.0759 18.078 14.6163 18.5182 14.2558C18.6605 14.1397 18.7935 14.0145 18.9162 13.8822C21.2673 11.3295 19.4704 7.2081 15.9996 7.19531Z" fill="white"/>
</svg>
