<svg width="24" height="22" viewBox="0 0 24 22" fill="none" xmlns="http://www.w3.org/2000/svg">
<path d="M23.2763 10.4517H22.2581V8.66985C22.2581 8.5244 22.1854 8.41531 22.0399 8.34258C21.0217 7.86985 19.9672 7.54258 18.9126 7.36076C18.2945 7.25167 17.6399 7.21531 16.9854 7.21531C17.1672 6.66985 17.2763 6.08803 17.2763 5.50622C17.2763 4.01531 16.6217 2.56076 15.4945 1.54258C14.3672 0.524398 12.8763 0.0516706 11.349 0.233489C8.98537 0.488034 7.13082 2.26985 6.76719 4.66985C6.6581 5.54258 6.73082 6.37894 6.98537 7.17894C6.40355 7.17894 5.8581 7.21531 5.31264 7.3244C4.29446 7.50622 3.23991 7.83349 2.18537 8.30622C2.03991 8.37894 1.96719 8.48803 1.96719 8.63349V10.4153H0.730824C0.512642 10.4153 0.367188 10.5608 0.367188 10.7789V21.4699C0.367188 21.688 0.512642 21.8335 0.730824 21.8335H23.2763C23.4581 21.8335 23.6399 21.688 23.6399 21.4699V10.8153C23.6399 10.5971 23.4581 10.4517 23.2763 10.4517ZM10.3672 14.2699C10.2581 14.2699 10.149 14.1608 10.149 14.0517V13.8335C10.149 13.7244 10.2581 13.6153 10.3672 13.6153H13.6399C13.749 13.6153 13.8581 13.7244 13.8581 13.8335V14.0517C13.8581 14.1608 13.749 14.2699 13.6399 14.2699H10.3672ZM13.4945 14.9971V15.3244C13.4945 15.5789 13.3126 15.7608 13.0581 15.7608H10.949C10.6945 15.7608 10.5126 15.5789 10.5126 15.3244V14.9971H13.4945ZM11.749 19.7244C8.76719 19.0335 5.71264 19.0335 2.73082 19.7244V8.88803C3.63991 8.48803 4.54901 8.19713 5.4581 8.05167C6.07628 7.94258 6.69446 7.90622 7.34901 7.94258C7.56719 8.37894 7.8581 8.77894 8.22173 9.14258C9.23991 10.1971 9.78537 11.6153 9.82173 13.1062C9.60355 13.288 9.4581 13.5426 9.4581 13.8335V14.0517C9.4581 14.3426 9.60355 14.6335 9.82173 14.8153V15.3608C9.82173 16.0153 10.3308 16.5244 10.9854 16.5244H11.749V19.7244ZM21.5308 19.7244C18.549 19.0335 15.4945 19.0335 12.5126 19.7244V16.488H13.0581C13.7126 16.488 14.2217 15.9789 14.2217 15.3244V14.7789C14.4399 14.5971 14.5854 14.3426 14.5854 14.0153V13.7971C14.5854 13.5426 14.4763 13.288 14.2945 13.1062C14.3308 11.5789 14.8763 10.1244 15.8945 9.03349C16.2217 8.70622 16.4763 8.30622 16.6945 7.90622C17.3854 7.86985 18.1126 7.86985 18.8036 8.01531C19.7126 8.16076 20.6217 8.45167 21.5308 8.85167V19.7244Z" fill="#10A37F"/>
</svg>
