<svg xmlns="http://www.w3.org/2000/svg" xmlns:xlink="http://www.w3.org/1999/xlink" width="32" height="32" viewBox="0 0 32 32">
  <defs>
    <clipPath id="clip-path">
      <rect id="Rectangle_3637" data-name="Rectangle 3637" width="32" height="32" transform="translate(488 280)" fill="#112d55" stroke="#707070" stroke-width="1"/>
    </clipPath>
  </defs>
  <g id="Mask_Group_532" data-name="Mask Group 532" transform="translate(-488 -280)" clip-path="url(#clip-path)">
    <g id="language-learning" transform="translate(486.866 278.867)">
      <path id="Path_1986" data-name="Path 1986" d="M31.707,26.449A9.985,9.985,0,0,0,21.218,11.441,10.043,10.043,0,1,0,2.56,16.812L1.176,21.657a1.07,1.07,0,0,0,1.56,1.224l3.945-2.253a9.916,9.916,0,0,0,6.37.891,10.028,10.028,0,0,0,14.536,8.746l3.945,2.253a1.07,1.07,0,0,0,1.56-1.224l-1.385-4.845Zm-24.5-7.971a1.069,1.069,0,0,0-1.071-.005L3.957,19.717l.793-2.779a1.069,1.069,0,0,0-.14-.89A7.955,7.955,0,1,1,7.2,18.478Zm22.309,8.1.793,2.779L28.13,28.11a1.067,1.067,0,0,0-1.071.005A7.894,7.894,0,0,1,15.179,21.29c0-.148.016-.291.025-.438a10.079,10.079,0,0,0,5.818-7.178,7.761,7.761,0,0,1,2.062-.289,7.9,7.9,0,0,1,6.569,12.3,1.069,1.069,0,0,0-.14.89Z" fill="#112d55"/>
      <g id="Group_1323" data-name="Group 1323">
        <path id="Path_1987" data-name="Path 1987" d="M27.818,24.742l-3.212-7.5a1.071,1.071,0,0,0-1.968,0l-3.212,7.5a1.07,1.07,0,0,0,1.968.843l.639-1.493h3.177l.639,1.493a1.068,1.068,0,0,0,.984.649,1.056,1.056,0,0,0,.422-.087,1.07,1.07,0,0,0,.562-1.4Zm-4.867-2.791.67-1.564.67,1.564H22.95Z" fill="#112d55"/>
        <path id="Path_1988" data-name="Path 1988" d="M14.991,8.567H12.314V6.96a1.071,1.071,0,0,0-2.142,0V8.567H7.5a1.071,1.071,0,1,0,0,2.142h.565a7.768,7.768,0,0,0,1.5,4.047,4.635,4.635,0,0,1-.73.271A1.071,1.071,0,0,0,9.1,17.133a1.058,1.058,0,0,0,.269-.034,6.78,6.78,0,0,0,1.876-.8,6.709,6.709,0,0,0,1.877.8,1.058,1.058,0,0,0,.269.034,1.071,1.071,0,0,0,.268-2.107,4.744,4.744,0,0,1-.73-.271,7.761,7.761,0,0,0,1.5-4.047h.565a1.071,1.071,0,0,0,0-2.142Zm-3.748,4.871a5.571,5.571,0,0,1-1.025-2.73h2.051a5.571,5.571,0,0,1-1.025,2.73Z" fill="#112d55"/>
      </g>
    </g>
  </g>
</svg>
