<svg width="14" height="14" viewBox="0 0 14 14" fill="none" xmlns="http://www.w3.org/2000/svg">
<g clip-path="url(#clip0_840_2445)">
<mask id="mask0_840_2445" style="mask-type:luminance" maskUnits="userSpaceOnUse" x="0" y="0" width="14" height="14">
<path d="M14 0H0V14H14V0Z" fill="white"/>
</mask>
<g mask="url(#mask0_840_2445)">
<path d="M13.3756 11.0756C13.8204 10.3505 14.0438 9.51125 14.0183 8.66095C13.9929 7.81066 13.7198 6.98628 13.2325 6.28902C12.7452 5.59176 12.0649 5.05195 11.2751 4.73585C10.4853 4.41975 9.62046 4.34111 8.78664 4.5096C8.77236 3.8368 8.60374 3.17628 8.29378 2.57897C7.98381 1.98166 7.54079 1.46353 6.99888 1.06455C6.45697 0.66556 5.83065 0.396381 5.16824 0.277771C4.50583 0.159162 3.82503 0.194291 3.17834 0.380449C2.53166 0.566608 1.93638 0.89882 1.43841 1.35146C0.940443 1.80411 0.553101 2.36508 0.30626 2.99112C0.0594199 3.61716 -0.0403225 4.29153 0.0147265 4.96222C0.0697755 5.63291 0.278145 6.282 0.623762 6.85941L0.0182622 8.9791C-0.00745389 9.06863 -0.0058734 9.1638 0.0228014 9.25243C0.0514762 9.34106 0.105941 9.41912 0.179228 9.47662C0.252515 9.53412 0.341291 9.56845 0.434198 9.57522C0.527105 9.58198 0.619918 9.56088 0.700762 9.5146L2.4267 8.52891C3.28654 8.96489 4.26711 9.10205 5.21357 8.91872C5.22913 9.65965 5.43212 10.3846 5.80361 11.0258C6.17511 11.6671 6.70298 12.2038 7.338 12.5859C7.97301 12.968 8.69446 13.1829 9.43504 13.2108C10.1756 13.2386 10.9112 13.0784 11.5731 12.7451L13.299 13.7308C13.3799 13.7771 13.4727 13.7982 13.5656 13.7914C13.6585 13.7846 13.7473 13.7503 13.8205 13.6928C13.8938 13.6353 13.9483 13.5572 13.977 13.4686C14.0056 13.38 14.0072 13.2848 13.9815 13.1953L13.3756 11.0756ZM2.65682 7.58828C2.58582 7.54674 2.5051 7.52466 2.42284 7.52428C2.34057 7.52389 2.25966 7.54522 2.18826 7.5861L1.23495 8.13035L1.58189 6.91453C1.60063 6.84909 1.60486 6.78033 1.59429 6.71308C1.58371 6.64583 1.55857 6.58169 1.52064 6.52516C1.04324 5.81544 0.843909 4.95476 0.960707 4.10743C1.0775 3.26009 1.50225 2.48544 2.15385 1.93134C2.80546 1.37724 3.6383 1.08251 4.49339 1.10339C5.34849 1.12427 6.16594 1.45932 6.78973 2.04456C7.41351 2.62981 7.79993 3.42427 7.87522 4.2763C7.95052 5.12833 7.70941 5.97824 7.19793 6.66382C6.68645 7.34939 5.94042 7.8226 5.10224 7.99312C4.26407 8.16364 3.39245 8.01952 2.65376 7.58828H2.65682ZM12.417 11.132L12.7639 12.3478L11.8106 11.8023C11.7393 11.7613 11.6583 11.7399 11.5761 11.7403C11.4938 11.7407 11.4131 11.7628 11.3421 11.8045C10.817 12.1116 10.2201 12.2747 9.61177 12.2771C9.00344 12.2795 8.40528 12.1211 7.8778 11.8181C7.35032 11.5151 6.91224 11.0781 6.60789 10.5513C6.30353 10.0246 6.14371 9.42686 6.14457 8.81853C6.14457 8.75379 6.15157 8.69122 6.15551 8.62691C6.79945 8.34434 7.36647 7.91187 7.80925 7.36558C8.25204 6.81929 8.55776 6.17502 8.70089 5.48653C8.99455 5.40406 9.29799 5.36153 9.60301 5.3601C10.2297 5.35948 10.8447 5.52926 11.3823 5.85126C11.9199 6.17326 12.3599 6.63537 12.6551 7.18814C12.9503 7.74091 13.0897 8.36355 13.0583 8.98943C13.0269 9.61531 12.826 10.2209 12.4769 10.7413C12.439 10.7979 12.4139 10.862 12.4033 10.9293C12.3927 10.9965 12.397 11.0653 12.4157 11.1307L12.417 11.132Z" fill="#717171"/>
<path d="M11.6742 10.3285L10.2689 7.04725C10.2328 6.96307 10.1727 6.89134 10.0962 6.84094C10.0197 6.79053 9.93005 6.76367 9.83843 6.76367C9.7468 6.76367 9.65719 6.79053 9.58067 6.84094C9.50416 6.89134 9.4441 6.96307 9.40793 7.04725L8.00268 10.3285C7.95377 10.4427 7.95222 10.5716 7.99837 10.6869C8.04452 10.8022 8.1346 10.8945 8.24877 10.9434C8.36295 10.9923 8.49187 10.9939 8.60719 10.9477C8.72251 10.9016 8.81477 10.8115 8.86368 10.6973L9.14324 10.0441H10.5332L10.8127 10.6973C10.8487 10.7817 10.9087 10.8536 10.9853 10.904C11.0618 10.9545 11.1515 10.9814 11.2432 10.9812C11.3067 10.9814 11.3696 10.9684 11.4279 10.9432C11.5414 10.8943 11.631 10.8024 11.6771 10.6876C11.7232 10.5729 11.722 10.4446 11.6737 10.3307L11.6742 10.3285ZM9.54486 9.10743L9.83799 8.42318L10.1311 9.10743H9.54486Z" fill="#717171"/>
<path d="M6.06228 3.2517H4.89109V2.54864C4.89109 2.42437 4.84173 2.30519 4.75385 2.21732C4.66598 2.12944 4.5468 2.08008 4.42253 2.08008C4.29826 2.08008 4.17908 2.12944 4.09121 2.21732C4.00333 2.30519 3.95397 2.42437 3.95397 2.54864V3.2517H2.78497C2.6607 3.2517 2.54152 3.30107 2.45365 3.38894C2.36577 3.47681 2.31641 3.59599 2.31641 3.72027C2.31641 3.84454 2.36577 3.96372 2.45365 4.05159C2.54152 4.13946 2.6607 4.18883 2.78497 4.18883H3.03216C3.07926 4.82916 3.3068 5.44304 3.68841 5.95939C3.58546 6.0078 3.47863 6.04746 3.36903 6.07795C3.25946 6.10708 3.16417 6.17495 3.10082 6.26897C3.03748 6.363 3.01037 6.4768 3.02452 6.58928C3.03867 6.70177 3.09313 6.80531 3.1778 6.88071C3.26247 6.95611 3.3716 6.99825 3.48497 6.99933C3.52467 6.99944 3.56423 6.99444 3.60266 6.98445C3.89232 6.90984 4.16904 6.79184 4.42341 6.63445C4.67769 6.7923 4.95462 6.91034 5.24459 6.98445C5.28302 6.99444 5.32258 6.99944 5.36228 6.99933C5.47604 6.99895 5.58579 6.9572 5.67103 6.88186C5.75627 6.80652 5.8112 6.70275 5.82555 6.58989C5.83991 6.47704 5.81271 6.36281 5.74904 6.26853C5.68537 6.17425 5.58958 6.10636 5.47953 6.07752C5.37 6.04681 5.26319 6.00716 5.16016 5.95895C5.54191 5.44269 5.76946 4.82876 5.81641 4.18839H6.06359C6.18786 4.18839 6.30704 4.13902 6.39492 4.05115C6.48279 3.96328 6.53216 3.8441 6.53216 3.71983C6.53216 3.59556 6.48279 3.47638 6.39492 3.3885C6.30704 3.30063 6.18786 3.25127 6.06359 3.25127L6.06228 3.2517ZM4.42253 5.38277C4.16966 5.03152 4.01488 4.61927 3.97409 4.18839H4.87141C4.83062 4.61927 4.67584 5.03152 4.42297 5.38277H4.42253Z" fill="#717171"/>
</g>
</g>
<defs>
<clipPath id="clip0_840_2445">
<rect width="14" height="14" fill="white"/>
</clipPath>
</defs>
</svg>
