<svg width="16" height="16" viewBox="0 0 16 16" fill="none" xmlns="http://www.w3.org/2000/svg">
<path d="M0.583942 0.4H7.0073C7.08938 0.4 7.19124 0.476404 7.19124 0.615385V7.38462C7.19124 7.5236 7.08938 7.6 7.0073 7.6H0.583942C0.501862 7.6 0.4 7.5236 0.4 7.38462V0.615385C0.4 0.476405 0.501862 0.4 0.583942 0.4Z" stroke="#3F3F3F" stroke-width="0.8"/>
<path d="M8.99263 0.4H15.416C15.4981 0.4 15.5999 0.476404 15.5999 0.615385V7.38462C15.5999 7.5236 15.4981 7.6 15.416 7.6H8.99263C8.91055 7.6 8.80869 7.5236 8.80869 7.38462V0.615385C8.80869 0.476405 8.91055 0.4 8.99263 0.4Z" stroke="#3F3F3F" stroke-width="0.8"/>
<rect x="0.4" y="9.1998" width="15.2" height="2.4" rx="0.6" stroke="#3F3F3F" stroke-width="0.8"/>
<rect x="0.4" y="13.1998" width="15.2" height="2.4" rx="0.6" stroke="#3F3F3F" stroke-width="0.8"/>
</svg>
