<svg width="16" height="16" viewBox="0 0 16 16" fill="none" xmlns="http://www.w3.org/2000/svg">
<path d="M0.571429 0.5H6.85714C6.89659 0.5 6.92857 0.531979 6.92857 0.571429V6.85714C6.92857 6.89659 6.89659 6.92857 6.85714 6.92857H0.571429C0.531979 6.92857 0.5 6.89659 0.5 6.85714V0.571429C0.5 0.53198 0.53198 0.5 0.571429 0.5Z" stroke="#3F3F3F"/>
<path d="M0.571429 9.07129H6.85714C6.89659 9.07129 6.92857 9.10327 6.92857 9.14272V15.4284C6.92857 15.4679 6.89659 15.4999 6.85714 15.4999H0.571429C0.531979 15.4999 0.5 15.4679 0.5 15.4284V9.14272C0.5 9.10327 0.53198 9.07129 0.571429 9.07129Z" stroke="#3F3F3F"/>
<path d="M9.14272 2.28592H15.4284C15.58 2.28592 15.7253 2.22572 15.8325 2.11856C15.9397 2.01139 15.9999 1.86605 15.9999 1.7145C15.9999 1.56294 15.9397 1.4176 15.8325 1.31043C15.7253 1.20327 15.58 1.14307 15.4284 1.14307H9.14272C8.99117 1.14307 8.84582 1.20327 8.73866 1.31043C8.63149 1.4176 8.57129 1.56294 8.57129 1.7145C8.57129 1.86605 8.63149 2.01139 8.73866 2.11856C8.84582 2.22572 8.99117 2.28592 9.14272 2.28592Z" fill="#3F3F3F"/>
<path d="M9.14272 6.28592H15.4284C15.58 6.28592 15.7253 6.22572 15.8325 6.11856C15.9397 6.01139 15.9999 5.86605 15.9999 5.7145C15.9999 5.56294 15.9397 5.4176 15.8325 5.31043C15.7253 5.20327 15.58 5.14307 15.4284 5.14307H9.14272C8.99117 5.14307 8.84582 5.20327 8.73866 5.31043C8.63149 5.4176 8.57129 5.56294 8.57129 5.7145C8.57129 5.86605 8.63149 6.01139 8.73866 6.11856C8.84582 6.22572 8.99117 6.28592 9.14272 6.28592Z" fill="#3F3F3F"/>
<path d="M15.4284 9.71436H9.14272C8.99117 9.71436 8.84582 9.77456 8.73866 9.88172C8.63149 9.98889 8.57129 10.1342 8.57129 10.2858C8.57129 10.4373 8.63149 10.5827 8.73866 10.6898C8.84582 10.797 8.99117 10.8572 9.14272 10.8572H15.4284C15.58 10.8572 15.7253 10.797 15.8325 10.6898C15.9397 10.5827 15.9999 10.4373 15.9999 10.2858C15.9999 10.1342 15.9397 9.98889 15.8325 9.88172C15.7253 9.77456 15.58 9.71436 15.4284 9.71436Z" fill="#3F3F3F"/>
<path d="M15.4284 13.7144H9.14272C8.99117 13.7144 8.84582 13.7746 8.73866 13.8817C8.63149 13.9889 8.57129 14.1342 8.57129 14.2858C8.57129 14.4373 8.63149 14.5827 8.73866 14.6898C8.84582 14.797 8.99117 14.8572 9.14272 14.8572H15.4284C15.58 14.8572 15.7253 14.797 15.8325 14.6898C15.9397 14.5827 15.9999 14.4373 15.9999 14.2858C15.9999 14.1342 15.9397 13.9889 15.8325 13.8817C15.7253 13.7746 15.58 13.7144 15.4284 13.7144Z" fill="#3F3F3F"/>
</svg>
