<svg width="16" height="16" viewBox="0 0 16 16" fill="none" xmlns="http://www.w3.org/2000/svg">
<path d="M1.23077 0.4H14.7692C15.0659 0.4 15.3152 0.454924 15.4754 0.526986C15.547 0.559235 15.5831 0.585103 15.6 0.600096V6.5999C15.5831 6.6149 15.547 6.64076 15.4754 6.67301C15.3152 6.74508 15.0659 6.8 14.7692 6.8H1.23077C0.934069 6.8 0.684769 6.74508 0.52463 6.67301C0.452967 6.64077 0.416883 6.6149 0.4 6.5999V0.600095C0.416883 0.585103 0.452967 0.559235 0.52463 0.526986C0.684769 0.454924 0.934069 0.4 1.23077 0.4ZM15.6132 0.614371C15.6131 0.614401 15.6123 0.613416 15.6111 0.611324C15.6127 0.613294 15.6133 0.61434 15.6132 0.614371ZM15.6132 6.58563C15.6133 6.58566 15.6127 6.5867 15.6111 6.58867C15.6123 6.58658 15.6131 6.5856 15.6132 6.58563ZM0.386818 6.58563C0.386929 6.5856 0.387731 6.58658 0.388888 6.58868C0.387285 6.58671 0.386706 6.58566 0.386818 6.58563ZM0.386818 0.614371C0.386707 0.61434 0.387285 0.613294 0.388887 0.611325C0.38773 0.613417 0.386929 0.614401 0.386818 0.614371Z" stroke="#3F3F3F" stroke-width="0.8"/>
<path d="M0.583942 8.4H7.0073C7.08938 8.4 7.19124 8.4764 7.19124 8.61538V15.3846C7.19124 15.5236 7.08938 15.6 7.0073 15.6H0.583942C0.501862 15.6 0.4 15.5236 0.4 15.3846V8.61538C0.4 8.4764 0.501862 8.4 0.583942 8.4Z" stroke="#3F3F3F" stroke-width="0.8"/>
<path d="M8.99263 8.4H15.416C15.4981 8.4 15.5999 8.4764 15.5999 8.61538V15.3846C15.5999 15.5236 15.4981 15.6 15.416 15.6H8.99263C8.91055 15.6 8.80869 15.5236 8.80869 15.3846V8.61538C8.80869 8.4764 8.91055 8.4 8.99263 8.4Z" stroke="#3F3F3F" stroke-width="0.8"/>
</svg>
