<svg width="14" height="12" viewBox="0 0 14 12" fill="none" xmlns="http://www.w3.org/2000/svg">
<path d="M0.175 5.28938L5.425 0.170625C5.65833 -0.056875 6.00833 -0.056875 6.24167 0.170625C6.475 0.398125 6.475 0.739375 6.24167 0.966875L1.98333 5.11875H13.4167C13.7667 5.11875 14 5.34625 14 5.6875C14 6.02875 13.7667 6.25625 13.4167 6.25625H1.98333L6.24167 10.4081C6.475 10.6356 6.475 10.9769 6.24167 11.2044C6.00833 11.4319 5.65833 11.4319 5.425 11.2044L0.175 6.08563C0.0583333 5.97188 0 5.85813 0 5.6875C0 5.51688 0.0583333 5.40313 0.175 5.28938Z" fill="#555555"/>
</svg>
