<svg width="16" height="16" viewBox="0 0 16 16" fill="none" xmlns="http://www.w3.org/2000/svg">
<path fill-rule="evenodd" clip-rule="evenodd" d="M11.2193 12.0375H5.41716C5.08447 12.0375 4.81445 11.7674 4.81445 11.4347C4.81445 11.102 5.08447 10.832 5.41716 10.832H11.2193C11.552 10.832 11.822 11.102 11.822 11.4347C11.822 11.7674 11.552 12.0375 11.2193 12.0375Z" fill="#000000"/>
<path fill-rule="evenodd" clip-rule="evenodd" d="M11.2193 8.67027H5.41716C5.08447 8.67027 4.81445 8.40025 4.81445 8.06756C4.81445 7.73486 5.08447 7.46484 5.41716 7.46484H11.2193C11.552 7.46484 11.822 7.73486 11.822 8.06756C11.822 8.40025 11.552 8.67027 11.2193 8.67027Z" fill="#000000"/>
<path fill-rule="evenodd" clip-rule="evenodd" d="M7.63112 5.3148H5.41717C5.08447 5.3148 4.81445 5.04478 4.81445 4.71209C4.81445 4.37939 5.08447 4.10938 5.41717 4.10938H7.63112C7.96382 4.10938 8.23383 4.37939 8.23383 4.71209C8.23383 5.04478 7.96382 5.3148 7.63112 5.3148Z" fill="#000000"/>
<path fill-rule="evenodd" clip-rule="evenodd" d="M11.3739 1.20542L5.19488 1.20864C3.32406 1.21989 2.20542 2.3771 2.20542 4.30497V11.695C2.20542 13.6358 3.33451 14.7946 5.22381 14.7946L11.4028 14.7922C13.2737 14.7809 14.3923 13.6221 14.3923 11.695V4.30497C14.3923 2.36424 13.264 1.20542 11.3739 1.20542ZM5.22461 16C2.69804 16 1 14.2698 1 11.695V4.30497C1 1.70688 2.645 0.0184831 5.19086 0.00321442L11.3739 0C13.9005 0 15.5977 1.73019 15.5977 4.30497V11.695C15.5977 14.2923 13.9527 15.9815 11.4069 15.9976L5.22461 16Z" fill="#000000"/>
</svg>
