<svg width="18" height="18" viewBox="0 0 18 18" fill="none" xmlns="http://www.w3.org/2000/svg">
<path d="M0.636406 9C0.636406 8.79075 0.716383 8.5813 0.876132 8.42155L9.0579 0.239777C9.37761 -0.0799257 9.89531 -0.0799257 10.2148 0.239777C10.5343 0.55948 10.5345 1.07718 10.2148 1.39668L2.61149 9L10.2148 16.6033C10.5345 16.923 10.5345 17.4407 10.2148 17.7602C9.8951 18.0797 9.3774 18.0799 9.0579 17.7602L0.876132 9.57845C0.716383 9.4187 0.636406 9.20925 0.636406 9ZM7.42155 9.57845L15.6033 17.7602C15.923 18.0799 16.4407 18.0799 16.7602 17.7602C17.0797 17.4405 17.0799 16.9228 16.7602 16.6033L9.1569 9L16.7602 1.39668C17.0799 1.07698 17.0799 0.559275 16.7602 0.239777C16.4405 -0.0797211 15.9228 -0.0799257 15.6033 0.239777L7.42155 8.42155C7.2618 8.5813 7.18182 8.79075 7.18182 9C7.18182 9.20925 7.2618 9.4187 7.42155 9.57845Z" fill="white"/>
</svg>
