<svg width="104" height="100" viewBox="0 0 104 100" fill="none" xmlns="http://www.w3.org/2000/svg">
<path d="M2 29.9991C2 36.7078 42.4731 54.9983 51.9288 54.9983C61.384 54.9983 101.858 36.7078 101.858 29.9991C101.858 23.2905 61.384 5 51.9288 5C42.4731 5 2 23.2905 2 29.9991Z" stroke="#B4B4B4" stroke-width="3" stroke-linecap="round" stroke-linejoin="round"/>
<path d="M21.9702 45L23.1957 73.1485C23.2202 73.712 23.2812 74.2765 23.4445 74.8165C23.9493 76.4854 24.8798 78.0019 26.2994 79.0208C37.4063 86.9911 66.4485 86.9911 77.5551 79.0208C78.9756 78.0019 79.9055 76.4854 80.4105 74.8165C80.5735 74.2765 80.6345 73.712 80.6595 73.1485L81.8845 45" stroke="#B4B4B4" stroke-width="3" stroke-linecap="round" stroke-linejoin="round"/>
<path d="M94.3637 37.5V72.4988M94.3637 72.4988C90.4038 79.7301 88.6528 83.6044 86.8744 89.9982C86.4884 92.2731 86.7949 93.4196 88.3629 94.4376C88.9998 94.851 89.7653 94.998 90.5243 94.998H98.126C98.9345 94.998 99.75 94.8295 100.415 94.3706C101.873 93.3656 102.248 92.2631 101.853 89.9982C100.294 84.0614 98.308 80.0025 94.3637 72.4988Z" stroke="#B4B4B4" stroke-width="3" stroke-linecap="round" stroke-linejoin="round"/>
</svg>
