<svg width="24" height="24" viewBox="0 0 24 24" fill="none" xmlns="http://www.w3.org/2000/svg">
<path fill-rule="evenodd" clip-rule="evenodd" d="M12 0C18.6277 0 24 5.37234 24 12C24 18.6277 18.6277 24 12 24C5.37234 24 0 18.6277 0 12C0 5.37234 5.37234 0 12 0ZM6.65438 17.5692H8.95266V10.1437H6.65438V17.5692ZM7.7925 9.17156C8.54344 9.17156 9.15188 8.5575 9.15188 7.80094C9.15188 7.04437 8.54344 6.43078 7.7925 6.43078C7.04156 6.43078 6.43359 7.04437 6.43359 7.80094C6.43359 8.5575 7.04156 9.17156 7.7925 9.17156ZM12.6267 13.6716C12.6267 12.6277 13.1077 12.0052 14.0278 12.0052C14.8725 12.0052 15.2789 12.6023 15.2789 13.6716V17.5692H17.5664C17.5664 17.5692 17.5664 14.8566 17.5664 12.8677C17.5664 10.8788 16.4391 9.91687 14.8645 9.91687C13.2895 9.91687 12.6267 11.1441 12.6267 11.1441V10.1437H10.4222V17.5692H12.6267C12.6267 17.5692 12.6267 14.8153 12.6267 13.6716Z" fill="#525252"/>
</svg>
