<svg xmlns="http://www.w3.org/2000/svg" width="10.1" height="10.101" viewBox="0 0 10.1 10.101">
  <g id="link_icon" data-name="link icon" transform="translate(0.05 0.05)">
    <path id="Path_1" data-name="Path 1" d="M9.528,5.332a.469.469,0,0,0-.469.469V7.688A1.377,1.377,0,0,1,7.684,9.063H2.313A1.377,1.377,0,0,1,.938,7.688V2.317A1.377,1.377,0,0,1,2.313.942H4.2A.469.469,0,1,0,4.2,0H2.313A2.316,2.316,0,0,0,0,2.317V7.688A2.316,2.316,0,0,0,2.313,10H7.684A2.316,2.316,0,0,0,10,7.688V5.8a.469.469,0,0,0-.469-.469Z" fill="#000000" stroke="#000000" stroke-width="0.1"/>
    <path id="Path_2" data-name="Path 2" d="M9.518,0H6.6a.469.469,0,0,0-.469.46.477.477,0,0,0,.479.478H8.4L4.664,4.673a.469.469,0,0,0,.663.663L9.062,1.6V3.393a.469.469,0,0,0,.938,0V.482A.482.482,0,0,0,9.518,0Z" fill="#000000" stroke="#000000" stroke-width="0.1"/>
  </g>
</svg>
