<svg width="16" height="16" viewBox="0 0 16 16" fill="none" xmlns="http://www.w3.org/2000/svg">
<g id="Group 591">
<path id="Vector" d="M10.5285 5.47046C10.6294 5.57152 10.6861 5.70852 10.6861 5.85136C10.6861 5.9942 10.6294 6.1312 10.5285 6.23226L6.21639 10.5443C6.16704 10.5973 6.10753 10.6398 6.04142 10.6692C5.9753 10.6987 5.90392 10.7145 5.83155 10.7158C5.75918 10.7171 5.68729 10.7038 5.62017 10.6767C5.55305 10.6496 5.49209 10.6092 5.4409 10.558C5.38972 10.5068 5.34937 10.4459 5.32226 10.3788C5.29515 10.3116 5.28184 10.2397 5.28311 10.1674C5.28439 10.095 5.30023 10.0236 5.32969 9.95751C5.35915 9.89139 5.40163 9.83188 5.45459 9.78254L9.76666 5.47046C9.86773 5.36952 10.0047 5.31282 10.1476 5.31282C10.2904 5.31282 10.4274 5.36952 10.5285 5.47046ZM13.8933 2.10488C13.1858 1.39743 12.2262 1 11.2256 1C10.225 1 9.26541 1.39743 8.55785 2.10488L6.53189 4.13012C6.43087 4.23133 6.37419 4.36853 6.37432 4.51153C6.37446 4.65453 6.43139 4.79162 6.5326 4.89264C6.63382 4.99366 6.77101 5.05034 6.91401 5.0502C7.05701 5.05007 7.1941 4.99313 7.29513 4.89192L9.32036 2.871C9.82759 2.37447 10.5102 2.09808 11.22 2.10186C11.9298 2.10564 12.6094 2.38928 13.1113 2.89119C13.6132 3.39309 13.8969 4.07273 13.9007 4.78252C13.9044 5.49231 13.6281 6.17493 13.1315 6.68215L11.1056 8.70739C11.0073 8.80901 10.9529 8.94514 10.9541 9.08646C10.9553 9.22779 11.0119 9.36301 11.1118 9.46299C11.2117 9.56298 11.3468 9.61973 11.4882 9.62102C11.6295 9.62232 11.7657 9.56805 11.8674 9.46991L13.894 7.44108C14.2444 7.09071 14.5224 6.67476 14.712 6.21696C14.9017 5.75917 14.9993 5.2685 14.9993 4.77298C14.9993 4.27746 14.9017 3.7868 14.712 3.329C14.5224 2.87121 14.2437 2.45525 13.8933 2.10488ZM8.68864 11.1222L6.66341 13.1474C6.41477 13.4048 6.11737 13.6101 5.78855 13.7513C5.45973 13.8925 5.10608 13.9668 4.74823 13.9699C4.39038 13.973 4.03551 13.9047 3.70431 13.7692C3.37311 13.6337 3.07222 13.4335 2.8192 13.1804C2.56618 12.9274 2.36609 12.6264 2.23061 12.2952C2.09513 11.964 2.02698 11.6091 2.03012 11.2513C2.03326 10.8934 2.10764 10.5398 2.24892 10.211C2.39019 9.88219 2.59554 9.58482 2.85297 9.33624L4.87749 7.31172C4.9787 7.2106 5.0356 7.07342 5.03566 6.93035C5.03573 6.78728 4.97896 6.65005 4.87785 6.54884C4.77673 6.44763 4.63955 6.39073 4.49648 6.39066C4.35341 6.39059 4.21618 6.44736 4.11497 6.54848L2.08973 8.57444C1.38887 9.28345 0.997101 10.241 1.00002 11.238C1.00293 12.2349 1.40029 13.1902 2.10529 13.8951C2.81028 14.6 3.7656 14.9972 4.76254 15C5.75949 15.0028 6.71701 14.6109 7.42592 13.9099L9.45188 11.884C9.5529 11.7827 9.60958 11.6455 9.60945 11.5025C9.60931 11.3595 9.55238 11.2225 9.45116 11.1214C9.34995 11.0204 9.21276 10.9637 9.06976 10.9639C8.92676 10.964 8.78967 11.0209 8.68864 11.1222Z" fill="#112D55"/>
</g>
</svg>
