<svg id="online_education" xmlns="http://www.w3.org/2000/svg" width="20" height="20" viewBox="0 0 20 20">
  <path id="Path_2972" data-name="Path 2972" d="M16.711,0H3.289A3.292,3.292,0,0,0,0,3.289V16.711A3.292,3.292,0,0,0,3.289,20H16.711A3.292,3.292,0,0,0,20,16.711V3.289A3.292,3.292,0,0,0,16.711,0ZM3.289,1.208H16.711a2.083,2.083,0,0,1,2.081,2.081V5.7H1.208V3.289A2.083,2.083,0,0,1,3.289,1.208ZM16.711,18.792H3.289a2.083,2.083,0,0,1-2.081-2.081v-9.8H18.792v9.8A2.083,2.083,0,0,1,16.711,18.792Z" fill="#333"/>
  <path id="Path_2973" data-name="Path 2973" d="M3.6,3.775H4.745a.6.6,0,0,0,0-1.208H3.6a.6.6,0,1,0,0,1.208Z" transform="translate(0.333 0.285)" fill="#333"/>
  <path id="Path_2974" data-name="Path 2974" d="M7.012,3.775h8.343a.6.6,0,0,0,0-1.208H7.012a.6.6,0,1,0,0,1.208Z" transform="translate(0.712 0.285)" fill="#333"/>
  <path id="Path_2975" data-name="Path 2975" d="M13.848,10.145,10.149,8A1.339,1.339,0,0,0,8.807,8l-3.7,2.15a.822.822,0,0,0,0,1.42l.958.556V13.8a1.319,1.319,0,0,0,.659,1.14l1.544.89a2.433,2.433,0,0,0,2.42,0l1.544-.89a1.32,1.32,0,0,0,.658-1.14V12.122l.958-.556a.821.821,0,0,0,0-1.42ZM9.414,9.04a.129.129,0,0,1,.127,0l3.123,1.815L9.541,12.67a.129.129,0,0,1-.128,0L6.29,10.855Zm2.269,4.76a.108.108,0,0,1-.054.094l-1.544.89a1.221,1.221,0,0,1-1.214,0l-1.544-.89a.108.108,0,0,1-.054-.094v-.976l1.534.891a1.338,1.338,0,0,0,1.342,0l1.534-.891Z" transform="translate(0.522 0.868)" fill="#333"/>
</svg>
