<svg width="18" height="18" viewBox="0 0 18 18" fill="none" xmlns="http://www.w3.org/2000/svg">
<path d="M15.0403 0H2.95973C1.32765 0 0 1.32765 0 2.95973V15.0403C0 16.6723 1.32765 18 2.95973 18H15.0403C16.6723 18 18 16.6723 18 15.0403V2.95973C18 1.32765 16.6723 0 15.0403 0ZM2.95973 1.08725H15.0403C16.0725 1.08725 16.9128 1.92745 16.9128 2.95973V5.13423H1.08725V2.95973C1.08725 1.92745 1.92745 1.08725 2.95973 1.08725ZM15.0403 16.9128H2.95973C1.92745 16.9128 1.08725 16.0725 1.08725 15.0403V6.22148H16.9128V15.0403C16.9128 16.0725 16.0725 16.9128 15.0403 16.9128Z" fill="#112D55"/>
<path d="M3.53947 3.65414H4.56994C4.87015 3.65414 5.11357 3.41072 5.11357 3.11052C5.11357 2.81032 4.87015 2.56689 4.56994 2.56689H3.53947C3.23927 2.56689 2.99585 2.81032 2.99585 3.11052C2.99585 3.41072 3.23927 3.65414 3.53947 3.65414Z" fill="#112D55"/>
<path d="M6.95183 3.65414H14.4605C14.7607 3.65414 15.0041 3.41072 15.0041 3.11052C15.0041 2.81032 14.7607 2.56689 14.4605 2.56689H6.95183C6.65163 2.56689 6.4082 2.81032 6.4082 3.11052C6.4082 3.41072 6.65163 3.65414 6.95183 3.65414Z" fill="#112D55"/>
<path d="M12.9333 9.91231L9.60392 7.97761C9.23184 7.76137 8.76855 7.76137 8.39647 7.97761L5.06647 9.91231C4.83996 10.044 4.69922 10.2892 4.69922 10.5514C4.69922 10.8135 4.83996 11.0581 5.06647 11.1904L5.92841 11.6912V13.2018C5.92841 13.6241 6.15553 14.0173 6.52157 14.2281L7.91143 15.029C8.24727 15.2223 8.62358 15.319 9.00049 15.319C9.37741 15.319 9.75372 15.2223 10.0896 15.029L11.4794 14.2281C11.8449 14.0173 12.072 13.6241 12.072 13.2018V11.6912L12.9339 11.1904C13.1604 11.0588 13.3012 10.8135 13.3012 10.5514C13.3012 10.2892 13.1604 10.044 12.9333 9.91231ZM8.94251 8.91748C8.97814 8.89754 9.02163 8.89754 9.05667 8.91748L11.8678 10.5508L9.05667 12.1841C9.02163 12.204 8.97754 12.2046 8.9419 12.1841L6.13076 10.5508L8.94251 8.91748ZM10.9847 13.2012C10.9847 13.2363 10.966 13.2683 10.9358 13.2858L9.54593 14.0867C9.20828 14.2806 8.79029 14.2806 8.45325 14.0867L7.06398 13.2858C7.03378 13.2683 7.01506 13.2363 7.01506 13.2012V12.3224L8.39586 13.1239C8.58251 13.2326 8.7909 13.2864 8.99989 13.2864C9.20888 13.2864 9.41727 13.2326 9.60392 13.1239L10.9847 12.3218V13.2012Z" fill="#112D55"/>
</svg>
