<svg width="14" height="14" viewBox="0 0 14 14" fill="none" xmlns="http://www.w3.org/2000/svg">
<path d="M13.2045 13.9987H0.795453C0.74656 13.9987 0.698425 13.9868 0.655369 13.9639C0.612312 13.941 0.575682 13.908 0.548766 13.8677C0.521851 13.8274 0.505493 13.7811 0.501161 13.7331C0.496829 13.685 0.504659 13.6366 0.523947 13.5922L2.29668 9.50891C2.31939 9.4564 2.35723 9.41164 2.4055 9.38019C2.45377 9.34874 2.51034 9.332 2.56818 9.33203H3.15909C3.23745 9.33203 3.3126 9.36276 3.36801 9.41746C3.42342 9.47216 3.45454 9.54634 3.45454 9.6237C3.45454 9.70105 3.42342 9.77524 3.36801 9.82994C3.3126 9.88464 3.23745 9.91536 3.15909 9.91536H2.76294L1.24354 13.4154H12.7565L11.2371 9.91536H10.8409C10.7626 9.91536 10.6874 9.88464 10.632 9.82994C10.5766 9.77524 10.5455 9.70105 10.5455 9.6237C10.5455 9.54634 10.5766 9.47216 10.632 9.41746C10.6874 9.36276 10.7626 9.33203 10.8409 9.33203H11.4318C11.4897 9.332 11.5462 9.34874 11.5945 9.38019C11.6428 9.41164 11.6806 9.4564 11.7033 9.50891L13.4761 13.5922C13.4953 13.6366 13.5032 13.685 13.4988 13.7331C13.4945 13.7811 13.4781 13.8274 13.4512 13.8677C13.4243 13.908 13.3877 13.941 13.3446 13.9639C13.3016 13.9868 13.2534 13.9987 13.2045 13.9987Z" fill="#525252"/>
<path d="M7.00022 12.2501C6.92898 12.2501 6.86012 12.2247 6.80633 12.1786C6.62139 12.0196 2.27295 8.24505 2.27295 4.6032C2.28996 3.37659 2.7955 2.20591 3.68019 1.34445C4.56487 0.482981 5.75757 0 7.00022 0C8.24288 0 9.43557 0.482981 10.3203 1.34445C11.2049 2.20591 11.7105 3.37659 11.7275 4.6032C11.7275 8.24505 7.37906 12.0196 7.19411 12.1786C7.14033 12.2247 7.07147 12.2501 7.00022 12.2501ZM7.00022 0.583387C5.91211 0.576238 4.86555 0.995435 4.09011 1.74902C3.31467 2.50261 2.87368 3.52906 2.86386 4.6032C2.86386 7.56203 6.15801 10.7875 7.00022 11.5636C7.84244 10.7875 11.1366 7.56203 11.1366 4.6032C11.1268 3.52906 10.6858 2.50261 9.91034 1.74902C9.1349 0.995435 8.08834 0.576238 7.00022 0.583387Z" fill="#525252"/>
<path d="M7.00027 6.41797C6.64966 6.41797 6.30692 6.31533 6.01539 6.12304C5.72387 5.93075 5.49665 5.65744 5.36248 5.33767C5.22831 5.01789 5.1932 4.66603 5.2616 4.32656C5.33 3.98709 5.49884 3.67527 5.74676 3.43053C5.99468 3.18579 6.31055 3.01912 6.65443 2.9516C6.9983 2.88407 7.35474 2.91873 7.67866 3.05118C8.00259 3.18363 8.27945 3.40794 8.47424 3.69572C8.66903 3.98351 8.773 4.32185 8.773 4.66797C8.77248 5.13194 8.58555 5.57677 8.25321 5.90485C7.92087 6.23293 7.47027 6.41746 7.00027 6.41797ZM7.00027 3.5013C6.76653 3.5013 6.53803 3.56973 6.34368 3.69792C6.14934 3.82612 5.99786 4.00832 5.90841 4.22151C5.81896 4.43469 5.79556 4.66926 5.84116 4.89557C5.88676 5.12189 5.99932 5.32977 6.1646 5.49293C6.32988 5.65609 6.54046 5.7672 6.76971 5.81222C6.99896 5.85723 7.23658 5.83413 7.45253 5.74583C7.66848 5.65753 7.85305 5.50799 7.98291 5.31613C8.11277 5.12428 8.18209 4.89871 8.18209 4.66797C8.18177 4.35864 8.05716 4.06208 7.83559 3.84335C7.61403 3.62463 7.31361 3.50161 7.00027 3.5013Z" fill="#525252"/>
</svg>
