<svg width="189" height="24" viewBox="0 0 189 24" fill="none" xmlns="http://www.w3.org/2000/svg">
<g id="Group">
<path id="Vector" d="M30.9053 23.9881C34.5994 24.1864 37.9271 21.8021 38.8764 18.2783C39.7091 14.4822 37.8594 11.931 33.6386 9.50078C32.3178 8.74115 32.2522 8.07333 32.375 7.52656C32.4375 7.04031 32.9298 6.58536 33.8843 6.58536C34.977 6.73448 35.9705 7.29988 36.6582 8.16412L40.9103 4.45984C40.0079 3.37697 38.8758 2.50966 37.5966 1.92117C36.3173 1.33268 34.9232 1.03785 33.5158 1.05817C30.0674 0.848439 26.9374 3.03552 25.9975 6.31198C25.196 9.86495 27.0145 12.6593 31.0198 14.9894C32.4978 15.87 32.6529 16.5994 32.5291 17.2672C32.4423 17.6271 32.2302 17.9442 31.931 18.1613C31.6318 18.3784 31.2651 18.4813 30.897 18.4516C28.7402 18.4516 27.0457 15.9921 27.0457 15.9921L22.6084 19.3416C24.3404 22.233 27.4985 24.0027 30.9053 23.9881ZM53.5955 1.05087C54.5699 1.00366 55.5423 1.17815 56.4398 1.56125C57.3373 1.94436 58.1367 2.52614 58.7781 3.263C59.4088 3.98895 59.8608 4.85318 60.0976 5.78616C60.3345 6.71914 60.3495 7.69483 60.1416 8.63471C59.4651 12.5122 55.875 15.2398 51.8708 14.9195H49.3092L47.5459 22.9562H40.9103L45.7243 1.05087H53.5955ZM52.5463 6.47998H51.165L50.4864 9.65208H51.9988C52.9117 9.69382 53.71 9.05731 53.8505 8.17246L53.8412 8.18081C53.8943 7.97173 53.8964 7.75291 53.8475 7.54281C53.7986 7.3327 53.7001 7.13746 53.5601 6.97353C53.4178 6.80716 53.2389 6.67611 53.0375 6.59066C52.8362 6.50521 52.6178 6.46768 52.3995 6.48102L52.5463 6.47998ZM67.8046 23.985C72.6801 24.2584 76.9394 20.7399 77.5629 15.9243L80.7428 1.04357H74.0395L71.0157 15.1803C70.7347 16.5754 70.0498 17.2881 68.8642 17.2881C67.2748 17.2881 66.8605 16.3281 67.1499 15.1177L70.1424 1.04357H63.4391L60.5455 14.7462C59.2704 20.792 62.9093 23.985 67.8046 23.985ZM94.6823 1.04983C95.631 1.00545 96.5774 1.1769 97.4506 1.55133C98.3238 1.92576 99.1011 2.49345 99.7244 3.21187C100.338 3.92081 100.779 4.7638 101.01 5.67362C101.242 6.58344 101.258 7.5349 101.058 8.45211C100.631 10.8896 98.9728 12.9494 96.6558 13.9198L100.376 22.9562H93.3625L90.2627 14.6169L88.438 22.9562H81.8201L86.5468 1.04983H94.6823ZM93.3323 6.48832H92.4975L91.6357 10.4472H92.7785C93.9142 10.514 94.9207 9.73452 95.1185 8.63367C95.196 8.37153 95.2075 8.0942 95.1519 7.82652C95.0963 7.55884 94.9754 7.30915 94.7999 7.09979C94.4429 6.67197 93.8944 6.44241 93.3323 6.48832Z" fill="#087498"/>
<path id="Vector_2" d="M119.499 1.04395H102.554L101.197 7.17947H106.342L102.923 22.9565H109.547L112.967 7.17947H118.143L119.499 1.04395Z" fill="#087498"/>
<path id="Vector_3" d="M131.397 23.9828C135.061 24.1779 138.593 22.6169 140.883 19.7923L136.079 15.9952C135.563 16.5717 134.932 17.0323 134.226 17.3465C133.52 17.6607 132.756 17.8214 131.983 17.8181C131.241 17.8102 130.511 17.6339 129.847 17.3024C129.183 16.971 128.602 16.493 128.149 15.9044C127.701 15.3215 127.394 14.6424 127.252 13.9205C127.111 13.1986 127.138 12.4536 127.332 11.7441C127.767 9.13025 130.059 7.21342 132.744 7.21864C134.784 7.23429 136.594 8.50939 137.272 10.4074L143.184 7.82593C141.689 3.73453 137.738 1.01946 133.329 1.05389C127.208 0.813896 121.856 5.08998 120.825 11.045C120.481 12.6047 120.495 14.2225 120.866 15.7759C121.238 17.3294 121.957 18.7778 122.969 20.0114C123.993 21.2573 125.28 22.2599 126.738 22.9466C128.195 23.6334 129.787 23.9873 131.397 23.9828ZM143.184 23.9995H149.493L151.7 15.8637L155.154 23.4047L161.614 16.5837L160.525 23.9995H166.803L170.097 0L157.013 13.0484L150.048 0L143.184 23.9995ZM178.382 23.988C182.081 24.1905 185.415 21.8051 186.365 18.2782C187.198 14.4811 185.348 11.9298 181.125 9.50068C179.803 8.74104 179.738 8.07323 179.862 7.52646C179.923 7.0402 180.417 6.58526 181.371 6.58526C182.464 6.73432 183.458 7.29971 184.146 8.16401L188.4 4.45974C187.497 3.37666 186.364 2.50925 185.084 1.92077C183.804 1.33229 182.409 1.03756 181.001 1.05807C177.553 0.848331 174.421 3.03542 173.48 6.31187C172.679 9.86484 174.498 12.6592 178.505 14.9893C179.985 15.8699 180.14 16.5983 180.015 17.2671C179.928 17.6272 179.716 17.9444 179.416 18.1615C179.117 18.3786 178.75 18.4815 178.382 18.4515C176.224 18.4515 174.528 15.991 174.528 15.991L170.098 19.3405C171.827 22.2277 174.98 23.9953 178.382 23.988Z" fill="#2FACD6"/>
<g id="Group_2">
<path id="Vector_4" d="M19.7424 13.3355H8.16365C7.95841 13.3032 7.77132 13.1988 7.6359 13.0409C7.50048 12.8829 7.42559 12.6818 7.42463 12.4736C7.42463 12.0468 7.73689 11.6826 8.16365 11.6127H19.7424C19.9475 11.6449 20.1345 11.7492 20.2699 11.9069C20.4053 12.0646 20.4803 12.2655 20.4815 12.4736C20.4803 12.6817 20.4053 12.8825 20.2699 13.0402C20.1345 13.1979 19.9475 13.3033 19.7424 13.3355ZM21.6899 2.99586H8.28336C8.12594 3.00412 7.96921 2.96972 7.82965 2.89627C7.69008 2.82283 7.57282 2.71305 7.4902 2.57847C7.4088 2.44495 7.36573 2.29149 7.36573 2.135C7.36573 1.97852 7.4088 1.82506 7.4902 1.69154C7.57282 1.55696 7.69008 1.44718 7.82965 1.37374C7.96921 1.30029 8.12594 1.26589 8.28336 1.27415H21.6899C21.8474 1.26589 22.0041 1.30029 22.1437 1.37374C22.2832 1.44718 22.4005 1.55696 22.4831 1.69154C22.6496 1.96492 22.6496 2.30509 22.4831 2.57847C22.4005 2.71305 22.2832 2.82283 22.1437 2.89627C22.0041 2.96972 21.8474 3.00412 21.6899 2.99586ZM18.2977 8.16514H0.830626C0.608387 8.15604 0.398164 8.06156 0.243524 7.90129C0.0888845 7.74103 0.00168582 7.52726 0 7.30429C0 6.84517 0.364309 6.46639 0.830626 6.44344H18.2967C18.5189 6.45254 18.7291 6.54702 18.8838 6.70729C19.0384 6.86755 19.1256 7.08132 19.1273 7.30429C19.1273 7.76341 18.763 8.14219 18.2977 8.16514Z" fill="#087498"/>
</g>
</g>
</svg>
