<svg xmlns="http://www.w3.org/2000/svg" xmlns:xlink="http://www.w3.org/1999/xlink" width="20" height="20" viewBox="0 0 20 20">
  <defs>
    <clipPath id="clip-path">
      <rect id="Rectangle_4791" data-name="Rectangle 4791" width="20" height="20" fill="#fff" stroke="#707070" stroke-width="1"/>
    </clipPath>
  </defs>
  <g id="Mask_Group_321" data-name="Mask Group 321" clip-path="url(#clip-path)">
    <g id="postgresql" transform="translate(0.3 0)">
      <path id="Path_2834" data-name="Path 2834" d="M19.4,12.047a.984.984,0,0,0-.817-.658,1.871,1.871,0,0,0-.652.036,5.86,5.86,0,0,1-1,.132,19.375,19.375,0,0,0,2.051-4.879c.681-2.635.317-3.835-.108-4.378A5.885,5.885,0,0,0,14.126.067a8.409,8.409,0,0,0-2.467.346A9.184,9.184,0,0,0,10.217.281,4.689,4.689,0,0,0,7.7.9,11.456,11.456,0,0,0,5.93.454a5.5,5.5,0,0,0-4.156.66C.535,1.989-.04,3.509.067,5.632a25.965,25.965,0,0,0,1,4.67,16.128,16.128,0,0,0,1.081,2.76A3.419,3.419,0,0,0,3.9,14.882a1.716,1.716,0,0,0,1.7-.368,1.486,1.486,0,0,0,.357.307,2.377,2.377,0,0,0,.674.284,3.62,3.62,0,0,0,2.357-.14c0,.122.008.239.01.34,0,.164.009.324.015.475a8.315,8.315,0,0,0,.315,2.358c.011.03.026.077.042.126a2.839,2.839,0,0,0,.708,1.247,2.111,2.111,0,0,0,1.493.555,3.355,3.355,0,0,0,.7-.078,3.28,3.28,0,0,0,2.206-1.276,7.329,7.329,0,0,0,.912-4.025c.007-.055.013-.108.019-.159l.012-.1.137.012.035,0a5.4,5.4,0,0,0,2.259-.391c.451-.209,1.9-.972,1.555-2" transform="translate(-0.054 -0.066)"/>
      <path id="Path_2835" data-name="Path 2835" d="M19.278,13.423c-2.259.466-2.414-.3-2.414-.3,2.385-3.539,3.382-8.032,2.522-9.131-2.347-3-6.411-1.581-6.479-1.544l-.022,0A8.057,8.057,0,0,0,11.378,2.3a3.723,3.723,0,0,0-2.386.714S1.743.023,2.08,6.765C2.152,8.2,4.136,17.618,6.5,14.773c.865-1.04,1.7-1.92,1.7-1.92a2.194,2.194,0,0,0,1.433.366l.04-.034a1.579,1.579,0,0,0,.016.405c-.61.681-.43.8-1.649,1.052s-.509.707-.036.825a2.505,2.505,0,0,0,2.8-.908l-.036.143a4.072,4.072,0,0,1,.378,2.2,6.058,6.058,0,0,0,.141,2.122c.188.512.376,1.664,1.978,1.321a2.362,2.362,0,0,0,2.129-2.27c.068-.882.223-.751.233-1.539l.124-.373c.143-1.2.023-1.581.847-1.4l.2.018a4.568,4.568,0,0,0,1.868-.314c1-.466,1.6-1.244.609-1.04h0" transform="translate(-1.229 -1.242)" fill="#336791"/>
      <path id="Path_2836" data-name="Path 2836" d="M18.924,14.651a.7.7,0,0,0-.481.069.177.177,0,0,0-.073.117.343.343,0,0,0,.083.225.629.629,0,0,0,.4.249.455.455,0,0,0,.064,0,.518.518,0,0,0,.49-.334c.025-.177-.233-.3-.483-.33m6.744.006c-.019-.139-.267-.179-.5-.146s-.462.139-.443.278a.476.476,0,0,0,.443.293.423.423,0,0,0,.059,0,.571.571,0,0,0,.322-.176.355.355,0,0,0,.121-.245" transform="translate(-10.738 -8.486)" fill="#fff"/>
      <path id="Path_2837" data-name="Path 2837" d="M19.615,12.939c-.086-.26-.363-.344-.824-.249-1.368.282-1.857.087-2.018-.032a18.805,18.805,0,0,0,2.409-5.4,10.267,10.267,0,0,0,.357-2.324,2.509,2.509,0,0,0-.364-1.57,5.345,5.345,0,0,0-4.321-2.018,7.4,7.4,0,0,0-2.5.394,6.226,6.226,0,0,0-1.405-.18,4.06,4.06,0,0,0-2.408.664,10.751,10.751,0,0,0-1.957-.513,4.985,4.985,0,0,0-3.744.575C1.77,3.043,1.274,4.4,1.37,6.321a25.349,25.349,0,0,0,.981,4.535c.764,2.5,1.6,3.921,2.469,4.213a1.106,1.106,0,0,0,.35.058,1.464,1.464,0,0,0,1.117-.633q.744-.893,1.539-1.741a2.48,2.48,0,0,0,1.107.3c0,.01,0,.02,0,.03q-.1.119-.2.241c-.268.34-.323.41-1.184.588-.245.051-.9.185-.905.641-.01.5.769.708.858.73a3.674,3.674,0,0,0,.892.116,2.6,2.6,0,0,0,1.786-.667,16.91,16.91,0,0,0,.272,4.06,2.039,2.039,0,0,0,1.949,1.5,3.127,3.127,0,0,0,.655-.074,2.473,2.473,0,0,0,2.254-2.294c.126-.733.343-2.482.446-3.42a2.757,2.757,0,0,0,.793.1,4.718,4.718,0,0,0,1.8-.343c.508-.236,1.426-.815,1.259-1.319ZM16.265,6.6a5.691,5.691,0,0,1-.083.791,7.306,7.306,0,0,0-.1.929,7.042,7.042,0,0,0,.074,1.05,3.74,3.74,0,0,1-.164,2.133,2.773,2.773,0,0,1-.148-.3c-.042-.1-.132-.263-.257-.486C15.1,9.838,13.963,7.8,14.546,6.963c.174-.248.614-.5,1.72-.366ZM14.925,1.9a4.727,4.727,0,0,1,3.81,1.8c.7.89-.07,4.937-2.289,8.429l-.067-.085-.028-.035A3.945,3.945,0,0,0,16.712,9.3a6.509,6.509,0,0,1-.07-.965,6.837,6.837,0,0,1,.094-.861,5.439,5.439,0,0,0,.088-1.066.442.442,0,0,0,.009-.15,5.986,5.986,0,0,0-1.365-2.568A6.15,6.15,0,0,0,13.3,2.058,7.319,7.319,0,0,1,14.925,1.9ZM5.857,14.135c-.448.539-.758.436-.859.4-.663-.221-1.433-1.623-2.111-3.845a25.119,25.119,0,0,1-.957-4.4c-.086-1.715.33-2.91,1.236-3.553,1.474-1.045,3.9-.42,4.871-.1l-.042.041A6.928,6.928,0,0,0,6.438,7.218c0,.065.005.157.013.284a11.407,11.407,0,0,1-.058,2.3,2.914,2.914,0,0,0,.768,2.439q.095.1.2.187c-.274.293-.869.942-1.5,1.7Zm1.707-2.278a2.358,2.358,0,0,1-.618-1.974,11.925,11.925,0,0,0,.062-2.415C7.005,7.4,7,7.341,7,7.295a3.075,3.075,0,0,1,2.087-.61.849.849,0,0,1,.656.733,5.117,5.117,0,0,1-.261,3.739c-.066.147-.129.287-.182.431l-.041.111a7.3,7.3,0,0,0-.263.792,1.992,1.992,0,0,1-1.429-.634Zm.081,2.879a1.238,1.238,0,0,1-.373-.161,1.824,1.824,0,0,1,.4-.118c1.013-.209,1.17-.356,1.511-.79.078-.1.167-.212.29-.35h0c.183-.205.267-.17.419-.107a.592.592,0,0,1,.292.375.418.418,0,0,1-.036.351A2.215,2.215,0,0,1,7.646,14.736Zm5.3,4.934a1.509,1.509,0,0,1-1.967-1.09,22.235,22.235,0,0,1-.213-4.9.28.28,0,0,0-.012-.089,1.174,1.174,0,0,0-.035-.164,1.135,1.135,0,0,0-.616-.738.868.868,0,0,0-.567-.069,6.847,6.847,0,0,1,.244-.73l.042-.112c.047-.126.106-.257.168-.4a5.661,5.661,0,0,0,.3-4.087A1.46,1.46,0,0,0,8.526,6.107a4.067,4.067,0,0,0-1.349.42c-.056.028-.107.056-.155.082a5.889,5.889,0,0,1,1.37-3.539,3.365,3.365,0,0,1,2.55-.954,5.4,5.4,0,0,1,4.13,1.973A6.267,6.267,0,0,1,16.2,6.028c-1.045-.106-1.755.1-2.116.615-.784,1.12.429,3.295,1.011,4.339.107.191.2.357.228.427a3.88,3.88,0,0,0,.615.991c.055.069.108.135.149.193-.316.091-.885.3-.833,1.356-.042.529-.339,3-.49,3.878a1.918,1.918,0,0,1-1.82,1.842Zm5.173-5.92a4.082,4.082,0,0,1-1.379.287,1.73,1.73,0,0,1-.925-.119c-.032-.657.212-.725.471-.8.041-.011.08-.023.119-.036a.966.966,0,0,0,.078.057,3.424,3.424,0,0,0,2.421.1l.013,0a3.1,3.1,0,0,1-.8.514Z" transform="translate(-0.815 -0.811)" fill="#fff"/>
    </g>
  </g>
</svg>
