<svg width="28" height="16" viewBox="0 0 28 16" fill="none" xmlns="http://www.w3.org/2000/svg">
<path id="Vector" d="M20.871 15.992C23.4044 16.1302 25.6875 14.4686 26.3383 12.0126C26.9091 9.36643 25.6411 7.58827 22.7459 5.8946C21.8403 5.36525 21.7945 4.89927 21.879 4.51841C21.9216 4.17981 22.2596 3.86232 22.9148 3.86232C23.6694 3.9692 24.3521 4.36423 24.8175 4.96327L27.7333 2.38052C27.1237 1.63033 26.3505 1.02718 25.4719 0.616511C24.5934 0.205838 23.6324 -0.00166081 22.6614 0.00963897C20.2963 -0.136301 18.1499 1.38839 17.5049 3.67158C16.9554 6.14872 18.2021 8.09586 20.949 9.7204C21.9642 10.3342 22.0693 10.8418 21.9848 11.3078C21.9291 11.5559 21.7854 11.7759 21.5798 11.9275C21.3742 12.0791 21.1206 12.1522 20.8651 12.1335C19.3856 12.1335 18.2234 10.4187 18.2234 10.4187L15.1798 12.7531C15.7588 13.741 16.5895 14.5603 17.5884 15.1288C18.5874 15.6973 19.7194 15.995 20.871 15.992ZM13.4668 8.51192H5.5686C5.42716 8.48757 5.29897 8.4143 5.20676 8.3051C5.11456 8.1959 5.0643 8.05783 5.06488 7.91536C5.06488 7.62028 5.27772 7.36744 5.5686 7.3188H13.4668C13.7577 7.36744 13.9712 7.61964 13.9712 7.91536C13.9712 8.21108 13.7583 8.46327 13.4668 8.51192ZM14.7954 1.35062H5.64986C5.54178 1.35577 5.43432 1.33154 5.33908 1.28056C5.24384 1.22958 5.16442 1.15377 5.10939 1.0613C5.05375 0.968329 5.02439 0.862194 5.02439 0.754061C5.02439 0.645927 5.05375 0.539792 5.10939 0.446819C5.16448 0.354254 5.244 0.278382 5.33936 0.227393C5.43473 0.176405 5.54232 0.152237 5.65051 0.1575H14.7954C14.9036 0.152237 15.0112 0.176405 15.1066 0.227393C15.2019 0.278382 15.2814 0.354254 15.3365 0.446819C15.3922 0.539792 15.4215 0.645927 15.4215 0.754061C15.4215 0.862194 15.3922 0.968329 15.3365 1.0613C15.2814 1.15397 15.2018 1.2299 15.1063 1.2809C15.0108 1.33189 14.9037 1.356 14.7954 1.35062ZM12.4813 4.93127H0.56628C0.41286 4.92274 0.268588 4.85611 0.163222 4.74511C0.0578562 4.63411 -0.000566638 4.48721 4.14322e-06 4.33471C-0.000566638 4.18221 0.0578562 4.03531 0.163222 3.92431C0.268588 3.81331 0.41286 3.74667 0.56628 3.73815H12.4813C12.6347 3.74667 12.779 3.81331 12.8844 3.92431C12.9897 4.03531 13.0481 4.18221 13.0476 4.33471C13.0481 4.48721 12.9897 4.63411 12.8844 4.74511C12.779 4.85611 12.6347 4.92274 12.4813 4.93127Z" fill="white"/>
</svg>
