<svg width="16" height="16" viewBox="0 0 16 16" fill="none" xmlns="http://www.w3.org/2000/svg">
<mask id="mask0_1180_4170" style="mask-type:luminance" maskUnits="userSpaceOnUse" x="0" y="0" width="16" height="16">
<path d="M16 0H0V16H16V0Z" fill="white"/>
</mask>
<g mask="url(#mask0_1180_4170)">
<path d="M11.2822 12.2498V13.5003C11.2812 14.1632 11.0174 14.7986 10.5485 15.2672C10.0797 15.7358 9.44416 15.9993 8.78128 16H2.50436C1.84106 16 1.20487 15.7368 0.735505 15.2681C0.266135 14.7994 0.00195488 14.1636 0.000976562 13.5003V2.49969C0.00195322 1.83703 0.265626 1.20179 0.734198 0.733222C1.20277 0.26465 1.83801 0.00097696 2.50067 3.04327e-07H8.77759C9.4411 -0.000326628 10.0776 0.262771 10.5472 0.731484C11.0169 1.2002 11.2812 1.83618 11.2822 2.49969V3.75015C11.2822 3.91598 11.2163 4.07501 11.0991 4.19226C10.9818 4.30951 10.8228 4.37539 10.657 4.37539C10.4912 4.37539 10.3321 4.30951 10.2149 4.19226C10.0976 4.07501 10.0317 3.91598 10.0317 3.75015V2.49969C10.0311 2.16836 9.8991 1.85081 9.6647 1.61664C9.4303 1.38247 9.11261 1.25079 8.78128 1.25046H2.50436C2.33999 1.25014 2.17716 1.28219 2.02517 1.3448C1.87319 1.4074 1.73502 1.49933 1.61856 1.61533C1.5021 1.73133 1.40963 1.86914 1.34643 2.02088C1.28323 2.17262 1.25053 2.33532 1.25021 2.49969V13.5003C1.25053 13.8319 1.38238 14.1497 1.61682 14.3842C1.85126 14.6186 2.16913 14.7504 2.50067 14.7508H8.77759C9.10913 14.7504 9.427 14.6186 9.66144 14.3842C9.89588 14.1497 10.0277 13.8319 10.0281 13.5003V12.2498C10.0281 12.084 10.0939 11.925 10.2112 11.8077C10.3284 11.6905 10.4875 11.6246 10.6533 11.6246C10.8191 11.6246 10.9781 11.6905 11.0954 11.8077C11.2126 11.925 11.2785 12.084 11.2785 12.2498H11.2822ZM15.5431 6.92677L14.1388 5.52739C14.0816 5.46606 14.0125 5.41689 13.9359 5.3828C13.8592 5.34871 13.7764 5.3304 13.6925 5.32897C13.6087 5.32753 13.5253 5.343 13.4475 5.37444C13.3697 5.40589 13.2991 5.45267 13.2397 5.512C13.1804 5.57133 13.1336 5.642 13.1022 5.71979C13.0707 5.79758 13.0553 5.88091 13.0567 5.9648C13.0581 6.0487 13.0765 6.13145 13.1105 6.20812C13.1446 6.28479 13.1938 6.35381 13.2551 6.41108L14.2508 7.40677H6.75421C6.58839 7.40677 6.42936 7.47264 6.3121 7.5899C6.19485 7.70715 6.12898 7.86618 6.12898 8.032C6.12898 8.19782 6.19485 8.35685 6.3121 8.47411C6.42936 8.59136 6.58839 8.65723 6.75421 8.65723H14.2619L13.2662 9.65292C13.2049 9.71019 13.1557 9.77922 13.1216 9.85589C13.0875 9.93256 13.0692 10.0153 13.0678 10.0992C13.0664 10.1831 13.0818 10.2664 13.1133 10.3442C13.1447 10.422 13.1915 10.4927 13.2508 10.552C13.3102 10.6113 13.3808 10.6581 13.4586 10.6896C13.5364 10.721 13.6197 10.7365 13.7036 10.735C13.7875 10.7336 13.8703 10.7153 13.9469 10.6812C14.0236 10.6471 14.0926 10.5979 14.1499 10.5366L15.5493 9.13723C15.8413 8.84313 16.0046 8.44517 16.0035 8.03073C16.0023 7.61629 15.8368 7.21924 15.5431 6.92677Z" fill="#000000"/>
</g>
</svg>
