<svg xmlns="http://www.w3.org/2000/svg" xmlns:xlink="http://www.w3.org/1999/xlink" width="96" height="32" viewBox="0 0 96 32">
  <defs>
    <clipPath id="clip-path">
      <rect id="Rectangle_2976" data-name="Rectangle 2976" width="96" height="32" fill="#05acd7" stroke="#707070" stroke-width="1"/>
    </clipPath>
  </defs>
  <g id="Mask_Group_39" data-name="Mask Group 39" clip-path="url(#clip-path)">
    <g id="Layer_2" data-name="Layer 2" transform="translate(0 9.247)">
      <g id="Layer_1" data-name="Layer 1">
        <g id="Group_29" data-name="Group 29">
          <path id="Path_28" data-name="Path 28" d="M16.5,13.492a4.374,4.374,0,0,0,4.463-3.244c.466-2.156-.569-3.605-2.934-4.985-.738-.432-.776-.811-.706-1.122.033-.277.3-.536.845-.536a2.392,2.392,0,0,1,1.552.9L22.1,2.4A5.261,5.261,0,0,0,17.957.466,4.109,4.109,0,0,0,13.748,3.45c-.457,2.019.569,3.607,2.812,4.93.828.5.913.913.845,1.293a.867.867,0,0,1-.913.673c-1.207,0-2.156-1.4-2.156-1.4l-2.485,1.9a5.367,5.367,0,0,0,4.646,2.64ZM27.758.724h-4.4L20.666,13.239h3.709l.986-4.588h1.432a4.334,4.334,0,0,0,4.625-3.588A3.575,3.575,0,0,0,28.686.8,3.652,3.652,0,0,0,27.758.724Zm.137,4.066a1,1,0,0,1-1.024.84h-.845L26.4,3.82H27.1a.781.781,0,0,1,.805.971Zm7.12,8.7a5.154,5.154,0,0,0,5.4-4.486L42.179.724H38.471L36.8,8.592c-.152.776-.534,1.173-1.19,1.173-.88,0-1.109-.536-.95-1.208L36.314.724H32.6L31,8.35c-.706,3.368,1.309,5.142,4.016,5.142Zm15.994-8.54A3.5,3.5,0,0,0,48.33.8a3.541,3.541,0,0,0-.9-.075H42.869L40.23,13.239h3.71l1.023-4.762L46.7,13.239h3.931L48.546,8.082a4.17,4.17,0,0,0,2.467-3.13ZM46.4,3.83a.957.957,0,0,1,1.035.878.925.925,0,0,1-.035.347,1.254,1.254,0,0,1-1.31,1.035h-.641l.482-2.26ZM61.054.724H51.565l-.761,3.5h2.881l-1.913,9.015h3.707L57.4,4.227h2.891Zm8.54,12.768a6.369,6.369,0,0,0,5.314-2.383L72.219,8.954a3.044,3.044,0,0,1-2.295,1.035,2.739,2.739,0,0,1-2.608-3.445,3.066,3.066,0,0,1,3.031-2.575,2.71,2.71,0,0,1,2.537,1.814L76.2,4.316A5.824,5.824,0,0,0,70.676.466a6.831,6.831,0,0,0-7,5.676,6.058,6.058,0,0,0,5.923,7.35Zm4.83-.253h3.5l1.225-4.485,1.917,4.157,3.585-3.76-.609,4.087h3.485L89.364,0,82.1,7.195,78.234,0Zm18.305.26A4.374,4.374,0,0,0,97.2,10.255c.466-2.156-.569-3.605-2.932-4.985-.74-.432-.776-.811-.708-1.122.035-.277.3-.536.845-.536a2.4,2.4,0,0,1,1.557.89l2.38-2.1A5.261,5.261,0,0,0,94.2.466,4.109,4.109,0,0,0,89.988,3.45c-.457,2.019.569,3.607,2.812,4.93.828.5.913.913.846,1.293a.87.87,0,0,1-.913.673c-1.208,0-2.156-1.4-2.156-1.4l-2.48,1.9a5.369,5.369,0,0,0,4.632,2.64Z" transform="translate(-2.338)" fill="#05acd7"/>
          <g id="Group_27" data-name="Group 27" transform="translate(0 0.586)">
            <path id="Path_25" data-name="Path 25" d="M12.027,9H5.579a.493.493,0,0,1,0-.972h6.448a.493.493,0,0,1,0,.972Z" transform="translate(-1.002 -2.192)" fill="#05acd7"/>
            <path id="Path_26" data-name="Path 26" d="M13.107,1.7H5.641A.487.487,0,0,1,5.594.732h7.513a.487.487,0,0,1,.049.972Z" transform="translate(-0.997 -0.732)" fill="#05acd7"/>
            <path id="Path_27" data-name="Path 27" d="M10.188,5.352H.449a.488.488,0,1,1,0-.977h9.739a.487.487,0,0,1,0,.972Z" transform="translate(0.04 -1.461)" fill="#05acd7"/>
          </g>
        </g>
      </g>
    </g>
  </g>
</svg>
