<svg xmlns="http://www.w3.org/2000/svg" xmlns:xlink="http://www.w3.org/1999/xlink" width="20" height="20" viewBox="0 0 20 20">
  <defs>
    <clipPath id="clip-path">
      <rect id="Rectangle_4790" data-name="Rectangle 4790" width="20" height="20" transform="translate(0)" fill="#fff" stroke="#707070" stroke-width="1"/>
    </clipPath>
  </defs>
  <g id="Mask_Group_320" data-name="Mask Group 320" clip-path="url(#clip-path)">
    <g id="go-8_1_" data-name="go-8 (1)" transform="translate(2.647 0)">
      <path id="Path_2801" data-name="Path 2801" d="M8.243,26.141c.033.583.616.316.883.133.25-.183.333-.033.35-.383.017-.233.033-.45.033-.683a1.66,1.66,0,0,0-1.116.283c-.15.117-.466.5-.15.649" transform="translate(-8.059 -15.316)" fill="#f6d2a2" fill-rule="evenodd"/>
      <path id="Path_2802" data-name="Path 2802" d="M8.491,26.5c-.117,0-.333-.05-.366-.383a.263.263,0,0,1-.133-.2.732.732,0,0,1,.316-.516,1.637,1.637,0,0,1,.982-.3h.216v.05a2.807,2.807,0,0,1-.017.533.461.461,0,0,1-.017.15c-.017.25-.067.283-.183.333a.507.507,0,0,0-.183.1,1.356,1.356,0,0,1-.616.233Zm.8-1.3a1.535,1.535,0,0,0-.916.283c-.117.083-.283.283-.266.416a.156.156,0,0,0,.1.133l.033.017v.033c.017.266.15.3.25.3a1.192,1.192,0,0,0,.55-.216.747.747,0,0,1,.216-.1c.083-.033.1-.033.117-.233a.461.461,0,0,1,.017-.15,4.363,4.363,0,0,0,.017-.466A.325.325,0,0,0,9.291,25.2Z" transform="translate(-7.991 -15.256)"/>
      <path id="Path_2803" data-name="Path 2803" d="M8.433,27.27c.083-.033.183-.05.233-.133" transform="translate(-8.249 -16.445)" fill="#c6b198" fill-rule="evenodd"/>
      <path id="Path_2804" data-name="Path 2804" d="M8.354,27.24c-.017,0-.05-.017-.05-.033-.017-.033,0-.067.033-.067a.058.058,0,0,0,.033-.017c.067-.033.133-.05.167-.1a.06.06,0,0,1,.1.067.386.386,0,0,1-.216.133l-.033.017Z" transform="translate(-8.17 -16.366)"/>
      <path id="Path_2805" data-name="Path 2805" d="M10.182,6.893C7.917,6.26,9.6,3.379,11.414,4.561Z" transform="translate(-8.632 -3.112)" fill="#6ad7e5" fill-rule="evenodd"/>
      <path id="Path_2806" data-name="Path 2806" d="M10.144,6.887l-.05-.017C8.928,6.538,8.945,5.705,8.978,5.455a1.541,1.541,0,0,1,1.482-1.3,1.621,1.621,0,0,1,.916.3l.05.033Zm.316-2.614a1.435,1.435,0,0,0-1.382,1.2c-.083.6.283,1.066,1,1.282L11.26,4.506A1.537,1.537,0,0,0,10.46,4.273Z" transform="translate(-8.561 -3.04)"/>
      <path id="Path_2807" data-name="Path 2807" d="M35.809,4c1.782-1.249,3.414,1.582,1.332,2.3Z" transform="translate(-24.218 -2.764)" fill="#6ad7e5" fill-rule="evenodd"/>
      <path id="Path_2808" data-name="Path 2808" d="M37.031,6.265,35.649,3.883l.05-.033a1.685,1.685,0,0,1,.949-.333A1.516,1.516,0,0,1,38.08,4.766a1.266,1.266,0,0,1-1,1.465ZM35.8,3.933l1.282,2.215a1.182,1.182,0,0,0,.883-1.332,1.392,1.392,0,0,0-1.316-1.149A1.314,1.314,0,0,0,35.8,3.933Z" transform="translate(-24.125 -2.667)"/>
      <path id="Path_2809" data-name="Path 2809" d="M35.369,44.881c.45.283,1.282,1.132.6,1.549-.649.6-1.016-.666-1.6-.833a1.619,1.619,0,0,1,1-.716" transform="translate(-23.379 -26.796)" fill="#f6d2a2" fill-rule="evenodd"/>
      <path id="Path_2810" data-name="Path 2810" d="M35.479,46.576c-.266,0-.5-.266-.7-.516a1.658,1.658,0,0,0-.566-.483l-.083-.017.05-.067a1.643,1.643,0,0,1,1.032-.733h.017l.017.017c.283.183.9.7.883,1.182a.528.528,0,0,1-.283.45.5.5,0,0,1-.366.167Zm-1.166-1.082a1.8,1.8,0,0,1,.533.483c.2.25.4.466.616.466a.432.432,0,0,0,.3-.15h.017a.437.437,0,0,0,.233-.366c0-.383-.483-.866-.816-1.082A1.709,1.709,0,0,0,34.314,45.494Zm1.515.916c-.017,0-.033-.017-.05-.033a1.156,1.156,0,0,1-.083-.216.982.982,0,0,0-.2-.366.059.059,0,1,1,.083-.083,1.034,1.034,0,0,1,.233.416l.083.2a.073.073,0,0,1-.017.083Z" transform="translate(-23.239 -26.726)"/>
      <path id="Path_2811" data-name="Path 2811" d="M14.231,46.1c-.533.083-.833.566-1.282.816a.386.386,0,0,1-.616-.15c-.067-.033-.067.033-.167-.067-.383-.616.4-1.066.816-1.365.583-.133.949.366,1.249.766" transform="translate(-10.366 -27.045)" fill="#f6d2a2" fill-rule="evenodd"/>
      <path id="Path_2812" data-name="Path 2812" d="M12.608,46.959a.431.431,0,0,1-.366-.25h-.017c-.05,0-.083-.017-.15-.083V46.61c-.366-.583.266-1.032.683-1.332l.15-.1h.033a.683.683,0,0,1,.183-.017c.5,0,.816.433,1.082.783l.083.117-.1.017a1.616,1.616,0,0,0-.783.45,3.1,3.1,0,0,1-.466.35A.971.971,0,0,1,12.608,46.959Zm-.366-.35a.126.126,0,0,1,.067.017h.017l.017.017a.353.353,0,0,0,.283.2.5.5,0,0,0,.25-.083,2.249,2.249,0,0,0,.45-.333,2.039,2.039,0,0,1,.749-.466c-.25-.333-.55-.7-.966-.7a.461.461,0,0,0-.15.017l-.133.1c-.433.3-.966.683-.649,1.182C12.192,46.593,12.209,46.61,12.242,46.61Zm.033.117c-.033,0-.067-.033-.05-.067a.941.941,0,0,1,.183-.416,1.242,1.242,0,0,0,.117-.2.053.053,0,1,1,.1.033.944.944,0,0,1-.133.216.755.755,0,0,0-.167.35c0,.067-.017.083-.05.083Z" transform="translate(-10.31 -26.959)"/>
      <path id="Path_2813" data-name="Path 2813" d="M11.389,6.91c-.3-.15-.516-.366-.333-.716.167-.316.483-.283.783-.133ZM22.2,6.61c.3-.15.516-.366.333-.716-.167-.316-.483-.283-.783-.133Z" transform="translate(-9.74 -3.911)" fill-rule="evenodd"/>
      <path id="Path_2814" data-name="Path 2814" d="M41.031,25.941c-.033.583-.616.316-.883.133-.25-.183-.333-.033-.35-.383-.017-.233-.033-.45-.033-.683a1.66,1.66,0,0,1,1.116.283c.167.133.466.5.15.649" transform="translate(-26.526 -15.2)" fill="#f6d2a2" fill-rule="evenodd"/>
      <path id="Path_2815" data-name="Path 2815" d="M40.652,26.3a1.356,1.356,0,0,1-.616-.233,1.066,1.066,0,0,0-.183-.1c-.133-.05-.167-.083-.183-.333a.461.461,0,0,0-.017-.15,2.808,2.808,0,0,1-.017-.533V24.9h.216a1.637,1.637,0,0,1,.982.3.732.732,0,0,1,.316.516.223.223,0,0,1-.133.2C40.985,26.247,40.768,26.3,40.652,26.3Zm-.916-1.282a4.363,4.363,0,0,0,.017.466.461.461,0,0,0,.017.15c.017.2.033.2.117.233a1.968,1.968,0,0,1,.216.1,1.192,1.192,0,0,0,.55.216c.1,0,.233-.033.25-.3v-.033l.033-.017c.067-.033.1-.067.1-.133.017-.133-.15-.333-.266-.416A1.572,1.572,0,0,0,39.853,25,.247.247,0,0,1,39.736,25.015Z" transform="translate(-26.447 -15.14)"/>
      <path id="Path_2816" data-name="Path 2816" d="M42.477,27.07c-.083-.033-.183-.05-.233-.133" transform="translate(-27.972 -16.329)" fill="#c6b198" fill-rule="evenodd"/>
      <path id="Path_2817" data-name="Path 2817" d="M42.415,27.075H42.4l-.033-.017c-.083-.033-.167-.05-.216-.133a.06.06,0,0,1,.1-.067c.033.05.1.067.167.1a.058.058,0,0,1,.033.017c.033.017.05.05.033.067A.126.126,0,0,1,42.415,27.075Z" transform="translate(-27.91 -16.267)"/>
      <path id="Path_2818" data-name="Path 2818" d="M16.826,1.6c2.265,0,4.38.316,5.5,2.5,1,2.431.633,5.062.8,7.643.133,2.215.416,4.763-.6,6.811-1.082,2.148-3.78,2.7-5.995,2.614-1.748-.067-3.847-.633-4.846-2.231-1.149-1.865-.616-4.646-.533-6.728.1-2.465-.666-4.946.15-7.344.816-2.514,3.081-3.081,5.529-3.264" transform="translate(-9.698 -1.548)" fill="#6ad7e5" fill-rule="evenodd"/>
      <path id="Path_2819" data-name="Path 2819" d="M16.783,21.161h-.416a7.9,7.9,0,0,1-2.731-.55A4.377,4.377,0,0,1,11.471,18.9c-.933-1.515-.766-3.6-.616-5.445.033-.466.067-.9.083-1.316a19.5,19.5,0,0,0-.117-2.614,11.73,11.73,0,0,1,.25-4.746,4.2,4.2,0,0,1,2.2-2.531,9.232,9.232,0,0,1,3.4-.766c2.231-.017,4.446.3,5.562,2.514a14.66,14.66,0,0,1,.749,5.545c0,.7,0,1.415.05,2.115.017.216.033.433.033.649.133,2.032.283,4.33-.649,6.195a4.356,4.356,0,0,1-2.4,2.1,8.744,8.744,0,0,1-3.231.566ZM16.7,1.578c-2.348.183-4.646.7-5.5,3.231a11.488,11.488,0,0,0-.25,4.7,23.012,23.012,0,0,1,.117,2.631c-.017.416-.05.849-.083,1.316-.15,1.832-.316,3.9.6,5.379.383.616,1.615,2.082,4.8,2.2H16.8c3.68,0,5.046-1.632,5.545-2.6.916-1.832.766-4.13.649-6.145-.017-.216-.033-.433-.033-.649-.033-.7-.05-1.415-.05-2.115a14.811,14.811,0,0,0-.733-5.512A4.029,4.029,0,0,0,19.9,1.977a10.517,10.517,0,0,0-3.2-.4Z" transform="translate(-9.572 -1.477)"/>
      <path id="Path_2820" data-name="Path 2820" d="M26.052,6.107c.4,2.365,4.263,1.732,3.713-.649-.5-2.131-3.847-1.532-3.713.649" transform="translate(-18.524 -3.025)" fill="#fff" fill-rule="evenodd"/>
      <path id="Path_2821" data-name="Path 2821" d="M27.79,7.6a1.838,1.838,0,0,1-1.9-1.532,1.793,1.793,0,0,1,.483-1.382,2.135,2.135,0,0,1,1.565-.649,1.736,1.736,0,0,1,1.765,1.382,1.656,1.656,0,0,1-.283,1.465A2.116,2.116,0,0,1,27.79,7.6ZM26.008,6.051a1.7,1.7,0,0,0,.649,1.1,1.868,1.868,0,0,0,1.132.35,2.018,2.018,0,0,0,1.549-.683,1.58,1.58,0,0,0,.266-1.382A1.62,1.62,0,0,0,27.94,4.153a2.075,2.075,0,0,0-1.482.616,1.67,1.67,0,0,0-.45,1.282Z" transform="translate(-18.431 -2.97)"/>
      <path id="Path_2822" data-name="Path 2822" d="M14.924,6.77c.533,2.048,3.813,1.532,3.7-.533-.15-2.465-4.213-2-3.7.533" transform="translate(-12.009 -3.305)" fill="#fff" fill-rule="evenodd"/>
      <path id="Path_2823" data-name="Path 2823" d="M16.581,8.056a1.786,1.786,0,0,1-1.815-1.349A1.764,1.764,0,0,1,15.1,5.192a2.076,2.076,0,0,1,1.615-.716,1.746,1.746,0,0,1,1.848,1.682,1.616,1.616,0,0,1-.45,1.266A2.12,2.12,0,0,1,16.581,8.056Zm.133-3.464a2,2,0,0,0-1.532.666,1.607,1.607,0,0,0-.3,1.415,1.668,1.668,0,0,0,1.7,1.266,2,2,0,0,0,1.465-.6,1.528,1.528,0,0,0,.416-1.182,1.61,1.61,0,0,0-1.748-1.565Z" transform="translate(-11.917 -3.227)"/>
      <path id="Path_2824" data-name="Path 2824" d="M26.079,15.363a6.377,6.377,0,0,1,.017.982c-.083.15-.233.167-.366.216a.579.579,0,0,1-.416-.316,6.065,6.065,0,0,1,.033-1.1Z" transform="translate(-18.085 -9.451)" fill="#fff" fill-rule="evenodd"/>
      <path id="Path_2825" data-name="Path 2825" d="M25.658,16.559a.6.6,0,0,1-.466-.35,3.923,3.923,0,0,1,0-.766,2.459,2.459,0,0,0,.017-.35v-.067l.849.266v.033c0,.1.017.2.017.316a2.97,2.97,0,0,1,0,.666v.017a.489.489,0,0,1-.3.216C25.741,16.526,25.708,16.542,25.658,16.559Zm-.366-.4a.5.5,0,0,0,.35.283c.033-.017.067-.017.083-.033a.383.383,0,0,0,.233-.15,2.68,2.68,0,0,0,0-.633c0-.1-.017-.2-.017-.283l-.633-.2c0,.1-.017.2-.017.283a3.587,3.587,0,0,0,0,.733Z" transform="translate(-18.013 -9.381)"/>
      <g id="Group_2166" data-name="Group 2166" transform="translate(3.281 2.382)">
        <path id="Path_2826" data-name="Path 2826" d="M16.965,8.153a.552.552,0,1,1-.55-.6.577.577,0,0,1,.55.6" transform="translate(-15.866 -7.404)" fill-rule="evenodd"/>
        <path id="Path_2827" data-name="Path 2827" d="M17.691,9.1a.134.134,0,1,1-.133-.15.136.136,0,0,1,.133.15" transform="translate(-16.776 -8.22)" fill="#fff" fill-rule="evenodd"/>
        <path id="Path_2828" data-name="Path 2828" d="M28.116,7.793a.552.552,0,1,1-.55-.6.577.577,0,0,1,.55.6" transform="translate(-22.371 -7.194)" fill-rule="evenodd"/>
        <path id="Path_2829" data-name="Path 2829" d="M25.7,8.742a.136.136,0,0,1-.133.15.147.147,0,0,1-.133-.15.136.136,0,0,1,.133-.15.147.147,0,0,1,.133.15m-2.465,2.764c-.25.583.133,1.765.8.9a6.066,6.066,0,0,1,.033-1.1Z" transform="translate(-20.118 -8.01)" fill="#fff" fill-rule="evenodd"/>
      </g>
      <path id="Path_2830" data-name="Path 2830" d="M23.506,16.456a.38.38,0,0,1-.316-.2,1.29,1.29,0,0,1-.083-1.082l.017-.033.916-.233v.067l-.017.366a3.591,3.591,0,0,0,0,.733v.017l-.017.017Q23.756,16.456,23.506,16.456Zm-.3-1.216a1.235,1.235,0,0,0,.083.949c.067.1.133.15.216.15.117,0,.25-.1.383-.266a2.685,2.685,0,0,1,.017-.733l.017-.283Z" transform="translate(-16.761 -9.311)"/>
      <path id="Path_2831" data-name="Path 2831" d="M22.622,12.776a.717.717,0,0,0-.583,1c.316.566,1-.05,1.432,0,.5.017.9.533,1.3.1.45-.483-.2-.949-.683-1.166Z" transform="translate(-16.144 -8.029)" fill="#f6d2a2" fill-rule="evenodd"/>
      <path id="Path_2832" data-name="Path 2832" d="M24.341,14.038a1.159,1.159,0,0,1-.45-.133,1.235,1.235,0,0,0-.5-.133h-.05a1.284,1.284,0,0,0-.45.117,1.621,1.621,0,0,1-.533.117.476.476,0,0,1-.45-.266.648.648,0,0,1,.017-.649.819.819,0,0,1,.616-.433l1.482-.067h.017a1.428,1.428,0,0,1,.866.766.549.549,0,0,1-.15.483.523.523,0,0,1-.416.2Zm-.933-.366a1.5,1.5,0,0,1,.533.15,1.052,1.052,0,0,0,.416.117.436.436,0,0,0,.316-.15.441.441,0,0,0,.133-.383c-.067-.283-.466-.55-.783-.683l-1.449.067a.71.71,0,0,0-.533.366.586.586,0,0,0-.017.55.361.361,0,0,0,.35.216,1.847,1.847,0,0,0,.483-.117,1.445,1.445,0,0,1,.5-.117c0-.033.017-.033.05-.017Z" transform="translate(-16.064 -7.959)" fill="#231f20"/>
      <path id="Path_2833" data-name="Path 2833" d="M23.419,11.9c-.033-.783,1.465-.883,1.632-.233.183.666-1.565.816-1.632.233" transform="translate(-16.99 -7.174)" fill-rule="evenodd"/>
    </g>
  </g>
</svg>
