<svg xmlns="http://www.w3.org/2000/svg" xmlns:xlink="http://www.w3.org/1999/xlink" width="20" height="20" viewBox="0 0 20 20">
  <defs>
    <clipPath id="clip-path">
      <rect id="Rectangle_4793" data-name="Rectangle 4793" width="20" height="20" fill="#fff" stroke="#707070" stroke-width="1"/>
    </clipPath>
  </defs>
  <g id="Mask_Group_323" data-name="Mask Group 323" clip-path="url(#clip-path)">
    <g id="logo-javascript" transform="translate(0 0)">
      <path id="Path_2846" data-name="Path 2846" d="M0,0H20V20H0Z" fill="#f0db4f"/>
      <path id="Path_2847" data-name="Path 2847" d="M25.722,27.932c-.146-.913-.741-1.679-2.5-2.394-.612-.281-1.295-.483-1.5-.947a1.033,1.033,0,0,1-.036-.586.963.963,0,0,1,1.266-.544,1.393,1.393,0,0,1,.814.755c.863-.559.861-.555,1.464-.939a3.73,3.73,0,0,0-.483-.646,2.82,2.82,0,0,0-2.357-.856l-.589.076a2.673,2.673,0,0,0-1.418.837,2.618,2.618,0,0,0,.475,3.728c1.135.852,2.8,1.046,3.015,1.842.207.975-.717,1.291-1.635,1.179a2.143,2.143,0,0,1-1.46-1.11c-.749.433-.749.433-1.519.876a3.38,3.38,0,0,0,.681.926c1.449,1.47,5.074,1.4,5.724-.827A2.746,2.746,0,0,0,25.722,27.932Zm-7.49-6.038H16.361c0,1.616-.008,3.221-.008,4.837a7.91,7.91,0,0,1-.114,2.26,1.051,1.051,0,0,1-1.306.388,1.606,1.606,0,0,1-.69-.717.963.963,0,0,0-.106-.171q-.761.465-1.521.932a3.006,3.006,0,0,0,1.1,1.262,3.632,3.632,0,0,0,2.673.329A2.362,2.362,0,0,0,17.9,29.831a5.8,5.8,0,0,0,.331-2.787c.01-1.715,0-3.43,0-5.15Z" transform="translate(-7.359 -12.702)" fill="#323330"/>
    </g>
  </g>
</svg>
