<svg xmlns="http://www.w3.org/2000/svg" xmlns:xlink="http://www.w3.org/1999/xlink" width="13" height="13" viewBox="0 0 13 13">
  <defs>
    <clipPath id="clip-path">
      <rect id="Rectangle_3794" data-name="Rectangle 3794" width="13" height="13" transform="translate(1139 210)" fill="#112d55" stroke="#707070" stroke-width="1"/>
    </clipPath>
  </defs>
  <g id="Mask_Group_556" data-name="Mask Group 556" transform="translate(-1139 -210)" clip-path="url(#clip-path)">
    <path id="exit" d="M9.179,9.953v1.016A2.034,2.034,0,0,1,7.147,13h-5.1A2.034,2.034,0,0,1,.013,10.969V2.031A2.034,2.034,0,0,1,2.044,0h5.1A2.034,2.034,0,0,1,9.179,2.031V3.047a.508.508,0,0,1-1.016,0V2.031A1.017,1.017,0,0,0,7.147,1.016h-5.1A1.017,1.017,0,0,0,1.028,2.031v8.938a1.017,1.017,0,0,0,1.016,1.016h5.1a1.017,1.017,0,0,0,1.016-1.016V9.953a.508.508,0,0,1,1.016,0Zm3.462-4.325L11.5,4.491a.508.508,0,1,0-.718.718l.809.809H5.5a.508.508,0,0,0,0,1.016h6.1l-.809.809a.508.508,0,1,0,.718.718l1.137-1.137A1.271,1.271,0,0,0,12.641,5.628Zm0,0" transform="translate(1138.988 210)" fill="#112d55"/>
  </g>
</svg>
