<svg xmlns="http://www.w3.org/2000/svg" xmlns:xlink="http://www.w3.org/1999/xlink" width="20" height="20" viewBox="0 0 20 20">
  <defs>
    <clipPath id="clip-path">
      <rect id="Rectangle_4792" data-name="Rectangle 4792" width="20" height="20" fill="#fff" stroke="#707070" stroke-width="1"/>
    </clipPath>
  </defs>
  <g id="Mask_Group_322" data-name="Mask Group 322" clip-path="url(#clip-path)">
    <g id="graphql-logo-2" transform="translate(1.1 0)">
      <path id="Path_2838" data-name="Path 2838" d="M6.016,16.672l-.734-.424L13.461,2.081l.734.424Z" transform="translate(-4.396 -1.429)" fill="#e535ab"/>
      <path id="Path_2839" data-name="Path 2839" d="M4.878,33.365H21.237v.848H4.878Z" transform="translate(-4.16 -19.677)" fill="#e535ab"/>
      <path id="Path_2840" data-name="Path 2840" d="M13.838,20.967,5.655,16.242l.424-.734,8.182,4.724ZM20.946,8.654,12.763,3.93l.424-.734L21.37,7.92Z" transform="translate(-4.614 -2.079)" fill="#e535ab"/>
      <path id="Path_2841" data-name="Path 2841" d="M6.085,8.646l-.424-.734,8.182-4.724.424.734Z" transform="translate(-4.617 -2.074)" fill="#e535ab"/>
      <path id="Path_2842" data-name="Path 2842" d="M21.25,16.672,13.07,2.506l.734-.424,8.179,14.166ZM6.435,6.7h.848v9.448H6.435Z" transform="translate(-5.068 -1.429)" fill="#e535ab"/>
      <path id="Path_2843" data-name="Path 2843" d="M40.56,13.177h.848v9.448H40.56Z" transform="translate(-24.974 -7.901)" fill="#e535ab"/>
      <path id="Path_2844" data-name="Path 2844" d="M24.428,38.334l-.37-.641,7.116-4.109.37.641Z" transform="translate(-15.348 -19.805)" fill="#e535ab"/>
      <path id="Path_2845" data-name="Path 2845" d="M20.712,15.515a1.784,1.784,0,1,1-.654-2.436,1.785,1.785,0,0,1,.654,2.436M6.483,7.3a1.784,1.784,0,1,1-.654-2.436A1.785,1.785,0,0,1,6.483,7.3M3.4,15.515a1.784,1.784,0,1,1,2.436.654A1.786,1.786,0,0,1,3.4,15.515M17.627,7.3a1.784,1.784,0,1,1,2.436.654A1.786,1.786,0,0,1,17.627,7.3M12.055,20.515a1.782,1.782,0,1,1,1.782-1.782,1.781,1.781,0,0,1-1.782,1.782m0-16.435A1.782,1.782,0,1,1,13.837,2.3,1.781,1.781,0,0,1,12.055,4.08" transform="translate(-3.155 -0.515)" fill="#e535ab"/>
    </g>
  </g>
</svg>
