<svg width="120" height="16" viewBox="0 0 120 16" fill="none" xmlns="http://www.w3.org/2000/svg">
<path d="M17.6562 15.9898C18.9111 16.0545 20.1512 15.7076 21.1679 15.0075C22.1845 14.3074 22.9157 13.2967 23.2383 12.1457C23.8208 9.58959 22.5264 7.87221 19.5704 6.23683C18.646 5.72548 18.5996 5.27615 18.6861 4.90814C18.729 4.58079 19.0744 4.27411 19.7413 4.27411C20.5098 4.37761 21.2058 4.7601 21.6822 5.34081L24.6594 2.84607C24.0336 2.11976 23.243 1.53658 22.3464 1.13996C21.4498 0.743351 20.4704 0.543513 19.481 0.555334C18.3092 0.486946 17.148 0.80055 16.1902 1.44405C15.2325 2.08755 14.5359 3.02221 14.2162 4.09276C13.6534 6.48483 14.9281 8.36622 17.7336 9.93493C18.7691 10.5276 18.8767 11.0183 18.7888 11.4683C18.731 11.7095 18.5837 11.9229 18.3738 12.0698C18.1638 12.2166 17.9051 12.2871 17.6449 12.2683C16.1346 12.2683 14.9478 10.6123 14.9478 10.6123L11.8419 12.8677C12.4389 13.824 13.2898 14.6154 14.3099 15.1632C15.33 15.7109 16.4837 15.9959 17.6562 15.9898ZM31.7449 0.856021H26.2373L22.8718 15.6798H27.5113L28.7438 10.2409H30.5349C31.8853 10.3458 33.2281 9.96723 34.2984 9.17996C35.3688 8.39269 36.0889 7.25388 36.3168 5.98816C36.463 5.3534 36.453 4.69529 36.2878 4.06475C36.1226 3.43421 35.8066 2.84813 35.3641 2.35187C34.9217 1.85561 34.3647 1.46247 33.7362 1.20285C33.1078 0.943235 32.4248 0.824104 31.74 0.854679L31.7449 0.856021ZM31.9172 5.67549C31.8693 5.96396 31.7106 6.2255 31.4718 6.41003C31.233 6.59456 30.9307 6.6891 30.6228 6.67552H29.5676L30.0425 4.52944H30.9056C31.0591 4.52058 31.2126 4.54613 31.3537 4.60399C31.4948 4.66185 31.6196 4.75039 31.7178 4.86246C31.8161 4.97453 31.8851 5.10698 31.9192 5.24905C31.9534 5.39111 31.9517 5.5388 31.9144 5.68015L31.9172 5.67549ZM40.822 15.9864C42.4482 16.0732 44.0488 15.5732 45.3018 14.5869C46.5548 13.6006 47.3671 12.2012 47.5754 10.6703L49.7759 0.856021H45.1371L43.0436 10.1803C42.8494 11.1003 42.3746 11.571 41.555 11.571C40.4548 11.571 40.1677 10.937 40.3682 10.1396L42.4393 0.856673H37.8012L35.7977 9.89426C34.9162 13.883 37.4347 15.9898 40.822 15.9898V15.9864ZM60.8221 5.86483C60.9632 5.24532 60.9524 4.60336 60.7904 3.98845C60.6284 3.37354 60.3196 2.80209 59.8878 2.31812C59.4561 1.83414 58.9128 1.45056 58.2999 1.19695C57.687 0.943345 57.0209 0.826484 56.3528 0.85535H50.6511L47.3376 15.6791H51.9764L53.2554 10.0356L55.4284 15.6791H60.3444L57.7373 9.56492C58.5361 9.24155 59.2368 8.73389 59.7756 8.0882C60.3144 7.44251 60.6742 6.67931 60.8221 5.86814V5.86483ZM55.0612 4.53544C55.2552 4.5202 55.4502 4.54991 55.6294 4.62199C55.8086 4.69408 55.9666 4.80639 56.0897 4.94923C56.2129 5.09208 56.2976 5.26116 56.3364 5.44192C56.3753 5.62269 56.3671 5.8097 56.3127 5.98682C56.2461 6.34645 56.0421 6.67026 55.7396 6.89649C55.4372 7.12273 55.0575 7.23557 54.6729 7.21352H53.8723L54.4766 4.53477L55.0612 4.53544ZM73.3786 0.85535H61.5129L60.5639 5.00612H64.1671L61.7753 15.6791H66.4134L68.8052 5.00612H72.4296L73.3786 0.85535ZM84.0582 15.9891C85.3229 16.0536 86.5855 15.8312 87.7412 15.3404C88.897 14.8496 89.9125 14.1045 90.7033 13.167L87.3371 10.611C86.979 10.9977 86.5376 11.3073 86.0426 11.5189C85.5476 11.7305 85.0106 11.8392 84.4676 11.8376C83.9459 11.8313 83.4326 11.7118 82.967 11.4885C82.5014 11.2652 82.0959 10.944 81.7815 10.5493C81.4671 10.1546 81.2522 9.69706 81.1531 9.21156C81.054 8.72606 81.0734 8.2255 81.2098 7.7482C81.357 6.89638 81.8194 6.12206 82.5142 5.56392C83.209 5.00577 84.0908 4.70027 85.0016 4.70212C85.6989 4.70728 86.3776 4.91613 86.9451 5.30018C87.5126 5.68422 87.9414 6.22478 88.1729 6.84817L92.315 5.11013C91.8041 3.76617 90.8655 2.60572 89.6288 1.78899C88.3921 0.972264 86.9183 0.539573 85.411 0.550674C83.3378 0.472626 81.3055 1.1123 79.6936 2.35029C78.0816 3.58827 77.0002 5.33993 76.6512 7.2782C76.4094 8.32677 76.4187 9.41339 76.6786 10.4581C76.9385 11.5028 77.4423 12.4789 78.1529 13.3147C78.8635 14.1505 79.7628 14.8246 80.7847 15.2874C81.8065 15.7503 82.9249 15.99 84.0575 15.9891H84.0582ZM90.0997 15.6824H94.4796L96.0111 10.3663L98.4093 15.2937L102.894 10.8363L102.139 15.6824H106.501L108.788 0L99.7044 8.52622L94.8644 0L90.0997 15.6824ZM112.991 15.9891C114.247 16.0551 115.488 15.7088 116.506 15.0086C117.524 14.3084 118.256 13.297 118.579 12.145C119.161 9.58892 117.867 7.87153 114.911 6.23616C113.987 5.72481 113.94 5.27547 114.027 4.90746C114.07 4.58012 114.415 4.27343 115.082 4.27343C115.85 4.37694 116.546 4.75943 117.023 5.34013L120 2.8454C119.374 2.11908 118.584 1.53591 117.687 1.13929C116.79 0.742679 115.811 0.542841 114.822 0.554662C113.65 0.486307 112.489 0.799954 111.531 1.44346C110.574 2.08697 109.877 3.02161 109.557 4.09211C108.995 6.48418 110.269 8.36555 113.075 9.93426C114.11 10.5269 114.218 11.0176 114.13 11.4676C114.072 11.7088 113.925 11.9223 113.715 12.0691C113.505 12.216 113.246 12.2864 112.986 12.2677C111.476 12.2677 110.289 10.6116 110.289 10.6116L107.188 12.867C107.784 13.8219 108.633 14.6125 109.652 15.1603C110.67 15.7081 111.821 15.994 112.992 15.9898L112.991 15.9891Z" fill="#2FACD6"/>
<path d="M13.7379 8.76922H5.67525C5.53143 8.74642 5.40079 8.67603 5.30657 8.57056C5.21235 8.4651 5.16064 8.33138 5.16064 8.19319C5.16064 8.055 5.21235 7.92129 5.30657 7.81582C5.40079 7.71036 5.53143 7.63998 5.67525 7.61719H13.7386C13.8824 7.63998 14.013 7.71036 14.1073 7.81582C14.2015 7.92129 14.2532 8.055 14.2532 8.19319C14.2532 8.33138 14.2015 8.4651 14.1073 8.57056C14.013 8.67603 13.8824 8.74642 13.7386 8.76922H13.7379Z" fill="#2FACD6"/>
<path d="M15.0941 1.85H5.7574C5.67543 1.85749 5.59272 1.84915 5.51424 1.82549C5.43577 1.80182 5.36318 1.76331 5.30085 1.71231C5.23851 1.6613 5.18774 1.59887 5.1516 1.52875C5.11545 1.45863 5.09468 1.38228 5.09054 1.30433C5.0864 1.22639 5.09897 1.14847 5.12751 1.07526C5.15604 1.00206 5.19992 0.935096 5.25653 0.87842C5.31314 0.821743 5.38129 0.776537 5.45686 0.745522C5.53242 0.714507 5.61384 0.698331 5.69619 0.697974C5.71658 0.696871 5.73701 0.696871 5.7574 0.697974H15.0941C15.176 0.690491 15.2587 0.698826 15.3372 0.722491C15.4157 0.746156 15.4883 0.784652 15.5506 0.835653C15.6129 0.886655 15.6637 0.949111 15.6999 1.01923C15.736 1.08935 15.7568 1.16568 15.7609 1.24362C15.7651 1.32157 15.7525 1.39951 15.724 1.47272C15.6954 1.54592 15.6515 1.61288 15.5949 1.66956C15.5383 1.72624 15.4702 1.77144 15.3946 1.80246C15.319 1.83347 15.2376 1.84965 15.1553 1.85C15.1356 1.85067 15.1152 1.85067 15.0941 1.85Z" fill="#2FACD6"/>
<path d="M12.7318 5.30828H0.567836C0.413781 5.29834 0.269454 5.23332 0.164042 5.12639C0.05863 5.01946 0 4.87859 0 4.73225C0 4.58592 0.05863 4.44505 0.164042 4.33812C0.269454 4.23119 0.413781 4.16619 0.567836 4.15625H12.7318C12.8859 4.16619 13.0302 4.23119 13.1356 4.33812C13.241 4.44505 13.2996 4.58592 13.2996 4.73225C13.2996 4.87859 13.241 5.01946 13.1356 5.12639C13.0302 5.23332 12.8859 5.29834 12.7318 5.30828Z" fill="#2FACD6"/>
</svg>
