<svg xmlns="http://www.w3.org/2000/svg" xmlns:xlink="http://www.w3.org/1999/xlink" width="36.667" height="20" viewBox="0 0 36.667 20">
  <defs>
    <clipPath id="clip-path">
      <rect id="Rectangle_4794" data-name="Rectangle 4794" width="36.667" height="20" fill="#fff" stroke="#707070" stroke-width="1"/>
    </clipPath>
  </defs>
  <g id="Mask_Group_324" data-name="Mask Group 324" clip-path="url(#clip-path)">
    <g id="mysql-4" transform="translate(0.106 0.533)">
      <path id="Path_2849" data-name="Path 2849" d="M2.118,28.472H3.33V23.7L5.2,27.861a1.025,1.025,0,0,0,1.111.675,1.025,1.025,0,0,0,1.111-.675L9.29,23.7v4.776h1.2V23.706a.73.73,0,0,0-.565-.805c-.916-.287-1.536-.037-1.814.583l-1.832,4.1-1.777-4.1c-.268-.62-.9-.87-1.814-.583a.728.728,0,0,0-.574.805v4.766h0ZM11.5,24.585h1.2v2.629c-.009.148.046.481.713.491.333.009,2.6,0,2.619,0V24.576h1.212c.009,0,0,4.266,0,4.285.009,1.055-1.3,1.277-1.906,1.3H11.53v-.814s3.8.009,3.813,0c.777-.074.685-.463.685-.592v-.315H13.464C12.27,28.416,11.511,27.9,11.5,27.3c0-.055.028-2.683,0-2.711Zm26-3.026a4.165,4.165,0,0,0-1.8.259c-.139.056-.352.056-.379.231a1.254,1.254,0,0,1,.148.3,2.4,2.4,0,0,0,.491.564,6.729,6.729,0,0,0,.583.426c.37.222.777.342,1.12.565.213.129.417.3.62.444a1.157,1.157,0,0,0,.287.231v-.018a2.905,2.905,0,0,1-.139-.3l-.278-.278a4.6,4.6,0,0,0-.972-.925c-.287-.2-.935-.491-1.055-.824-.009-.009-.019-.009-.019-.019a6.213,6.213,0,0,0,.63-.148c.315-.083.6-.065.925-.148.148-.046.3-.083.445-.13v-.083a6.566,6.566,0,0,0-.463-.546,12.977,12.977,0,0,0-1.518-1.138,9.407,9.407,0,0,0-.972-.472c-.1-.046-.287-.074-.361-.167a4.328,4.328,0,0,1-.38-.713q-.407-.792-.759-1.61a9.907,9.907,0,0,0-.463-1.055A9.356,9.356,0,0,0,29.6,12.544a4.445,4.445,0,0,0-1.185-.379c-.231-.019-.463-.028-.694-.046A4.182,4.182,0,0,1,27.3,11.8c-.527-.333-1.888-1.064-2.277-.1-.25.6.37,1.194.592,1.5a4.323,4.323,0,0,1,.463.694c.074.157.083.315.148.481a12.457,12.457,0,0,0,.481,1.249,4.449,4.449,0,0,0,.342.574c.074.1.213.148.231.315a2.643,2.643,0,0,0-.213.694,4.08,4.08,0,0,0,.278,3.11c.148.231.491.74.972.546.417-.176.324-.694.444-1.166.028-.1.009-.176.065-.25v.018c.12.259.25.509.38.759a4.969,4.969,0,0,0,1.2,1.249c.213.167.389.454.675.546V22h-.028c-.056-.083-.139-.12-.2-.185a5.569,5.569,0,0,1-.491-.555,13.924,13.924,0,0,1-1.036-1.685c-.148-.287-.278-.6-.4-.888-.047-.111-.047-.278-.148-.342a4.627,4.627,0,0,0-.445.639,5.219,5.219,0,0,0-.25,1.388c-.037.018-.028.009-.047.028-.3-.074-.4-.38-.509-.639a4.074,4.074,0,0,1-.083-2.471c.065-.194.352-.805.232-.99-.056-.176-.232-.287-.333-.426A3.3,3.3,0,0,1,27,15.292c-.222-.518-.324-1.092-.565-1.61a4.7,4.7,0,0,0-.463-.713,4.558,4.558,0,0,1-.509-.722c-.046-.1-.111-.268-.046-.38a.183.183,0,0,1,.129-.13c.12-.093.463.037.592.083a5.589,5.589,0,0,1,.907.472c.139.093.278.268.445.315h.185c.3.065.629.018.907.1a5.214,5.214,0,0,1,1.333.639,8.233,8.233,0,0,1,2.9,3.165c.111.213.157.407.25.629.195.454.444.916.638,1.351a5.906,5.906,0,0,0,.648,1.249c.148.194.7.3.953.4a5.282,5.282,0,0,1,.63.259c.324.185.629.417.935.629.148.1.61.334.629.529Z" transform="translate(-2.118 -11.223)" fill="#00678c" fill-rule="evenodd"/>
      <path id="Path_2850" data-name="Path 2850" d="M33.185,13.976a1.574,1.574,0,0,0-.379.046v.018h.028a2.971,2.971,0,0,0,.3.379c.065.148.139.3.2.444l.028-.028a.5.5,0,0,0,.185-.463c-.046-.056-.056-.12-.1-.185a1.435,1.435,0,0,0-.259-.213Z" transform="translate(-7.243 -11.683)" fill="#00678c" fill-rule="evenodd"/>
      <path id="Path_2851" data-name="Path 2851" d="M21.406,30.812h3.47A2.684,2.684,0,0,0,26,30.58a1.1,1.1,0,0,0,.777-.99V28.7c0-.342-.3-.675-.86-.888a2.9,2.9,0,0,0-1.037-.176H23.414c-.491,0-.722-.148-.777-.472a.446.446,0,0,1-.009-.111v-.546a.375.375,0,0,1,.009-.1c.056-.25.185-.324.611-.361.037,0,.083-.009.12-.009H26.82v-.805h-3.4a3.373,3.373,0,0,0-.972.1c-.722.231-1.037.583-1.037,1.2v.7c0,.546.62,1.009,1.647,1.12.12,0,.231.009.352.009h1.25a.561.561,0,0,1,.129.009c.389.037.546.1.666.24a.317.317,0,0,1,.093.222v.7a.4.4,0,0,1-.176.287.867.867,0,0,1-.509.167c-.046,0-.083.009-.13.009H21.406Zm12.9-1.407c0,.833.611,1.3,1.86,1.388.111.009.231.019.342.019h3.147v-.805H36.491c-.713,0-.981-.176-.981-.6V25.231h-1.2V29.4Zm-6.765.046V26.582c0-.731.509-1.175,1.527-1.314a1.89,1.89,0,0,1,.324-.019h2.295a2.053,2.053,0,0,1,.333.019c1.009.139,1.527.583,1.527,1.314v2.869a1.045,1.045,0,0,1-.722,1.111l1.194,1.074H32.613l-.963-.861-.972.056H29.392a2.546,2.546,0,0,1-.713-.1c-.768-.2-1.138-.611-1.138-1.278Zm1.3-.074a.625.625,0,0,0,.019.13c.074.333.389.518.86.518h1.1l-1.009-.907h1.407l.879.787a.569.569,0,0,0,.306-.38.563.563,0,0,0,.009-.12V26.647a.414.414,0,0,0-.009-.1c-.074-.314-.389-.49-.851-.49H29.726c-.537,0-.879.231-.879.592v2.73h0Zm11.365,1.435h.176v-.666h.241v-.139h-.657v.139h.241v.666Zm1.351,0h.157v-.805h-.241l-.213.555-.213-.555H40.8v.805h.167V30.2l.231.611h.12l.231-.611h.009v.611Z" transform="translate(-5.339 -13.563)" fill="#ce8b2c" fill-rule="evenodd"/>
    </g>
  </g>
</svg>
