<svg width="16" height="16" viewBox="0 0 16 16" fill="none" xmlns="http://www.w3.org/2000/svg">
<path d="M7.86921 16C7.64426 15.9998 7.42309 15.9421 7.22669 15.8325L4.67914 14.4171C3.41284 13.7131 2.3577 12.6834 1.62294 11.4347C0.88818 10.186 0.500491 8.76359 0.5 7.31473V3.38768C0.499849 3.06075 0.620981 2.74538 0.839955 2.50261C1.05893 2.25985 1.36018 2.10694 1.68539 2.07349C2.69882 1.96606 3.69623 1.74065 4.65736 1.40184C5.53832 1.09057 6.38336 0.685742 7.17801 0.194303C7.38605 0.0672327 7.62547 0 7.86924 0C8.11302 0 8.35207 0.0672327 8.5601 0.194303C9.3549 0.685671 10.2 1.09049 11.0811 1.40184C12.0422 1.74066 13.0396 1.96608 14.053 2.07351C14.3782 2.10696 14.6795 2.25987 14.8985 2.50263C15.1174 2.74539 15.2386 3.06075 15.2384 3.38768V7.31475C15.2379 8.76361 14.8502 10.186 14.1155 11.4347C13.3807 12.6835 12.3256 13.7131 11.0593 14.4172L8.51173 15.8325C8.31533 15.9421 8.09416 15.9998 7.86921 16ZM7.77436 1.15898C6.91046 1.69262 5.99196 2.13231 5.03453 2.47057C3.9902 2.8392 2.90628 3.0842 1.80492 3.20055C1.75811 3.20456 1.71451 3.22603 1.68279 3.26069C1.65108 3.29536 1.63356 3.34069 1.63372 3.38768V7.31475C1.63417 8.56141 1.96778 9.78529 2.60002 10.8597C3.23227 11.9342 4.14017 12.8201 5.22976 13.4259L7.77732 14.8412C7.80531 14.8571 7.83698 14.8655 7.86921 14.8655C7.90144 14.8655 7.93311 14.8571 7.9611 14.8412L10.5087 13.4259C11.5983 12.8201 12.5062 11.9342 13.1384 10.8597C13.7706 9.78529 14.1043 8.56141 14.1047 7.31475V3.38768C14.1049 3.34069 14.0873 3.29536 14.0556 3.2607C14.0239 3.22603 13.9803 3.20457 13.9335 3.20057C12.8321 3.08422 11.7482 2.83922 10.7039 2.47059C9.74642 2.13233 8.82792 1.69262 7.96402 1.15898C7.93544 1.1416 7.90262 1.1324 7.86917 1.1324C7.83571 1.1324 7.80295 1.1416 7.77436 1.15898Z" fill="#717171"/>
<path d="M9.75872 11.9509H5.97964C5.52877 11.9504 5.0965 11.771 4.77769 11.4522C4.45887 11.1334 4.27954 10.7011 4.27905 10.2503V7.98281C4.27954 7.53194 4.45887 7.09968 4.77769 6.78086C5.0965 6.46205 5.52877 6.28272 5.97964 6.28223H9.75872C10.2096 6.28272 10.6419 6.46205 10.9607 6.78086C11.2795 7.09968 11.4588 7.53194 11.4593 7.98281V10.2503C11.4588 10.7011 11.2795 11.1334 10.9607 11.4522C10.6419 11.771 10.2096 11.9504 9.75872 11.9509ZM5.97964 7.41595C5.82935 7.41612 5.68526 7.47589 5.57899 7.58216C5.47272 7.68844 5.41294 7.83252 5.41278 7.98281V10.2503C5.41294 10.4006 5.47272 10.5446 5.57899 10.6509C5.68526 10.7572 5.82935 10.817 5.97964 10.8171H9.75872C9.90901 10.817 10.0531 10.7572 10.1594 10.6509C10.2656 10.5446 10.3254 10.4006 10.3256 10.2503V7.98281C10.3254 7.83252 10.2656 7.68844 10.1594 7.58216C10.0531 7.47589 9.90901 7.41612 9.75872 7.41595H5.97964Z" fill="#717171"/>
<path d="M9.3809 7.41578H6.35763C6.2073 7.41574 6.06314 7.356 5.95685 7.24971C5.85055 7.14341 5.79081 6.99925 5.79077 6.84892V5.33728C5.79077 4.78603 6.00976 4.25736 6.39955 3.86757C6.78934 3.47777 7.31802 3.25879 7.86927 3.25879C8.42052 3.25879 8.94919 3.47777 9.33899 3.86757C9.72878 4.25736 9.94776 4.78603 9.94776 5.33728V6.84892C9.94772 6.99925 9.88799 7.14341 9.78169 7.24971C9.67539 7.356 9.53123 7.41574 9.3809 7.41578ZM6.9245 6.28206H8.81404V5.33728C8.81404 5.08672 8.7145 4.84641 8.53732 4.66923C8.36014 4.49205 8.11984 4.39251 7.86927 4.39251C7.6187 4.39251 7.37839 4.49205 7.20121 4.66923C7.02403 4.84641 6.9245 5.08672 6.9245 5.33728V6.28206Z" fill="#717171"/>
</svg>
