<svg width="16" height="16" viewBox="0 0 16 16" fill="none" xmlns="http://www.w3.org/2000/svg">
<path d="M15.3339 7.33388C14.9649 7.33388 14.6678 7.63102 14.6678 8C14.6678 11.6767 11.6767 14.6678 8 14.6678C4.32327 14.6678 1.33224 11.6767 1.33224 8C1.33224 4.32327 4.32327 1.33224 8 1.33224C10.0082 1.33224 11.8694 2.21714 13.1298 3.73878H10.8278C10.4588 3.73878 10.1616 4.03592 10.1616 4.4049C10.1616 4.77388 10.4588 5.07102 10.8278 5.07102H14.5698C14.9388 5.07102 15.2359 4.77388 15.2359 4.4049V0.666122C15.2359 0.297143 14.9388 0 14.5698 0C14.2008 0 13.9037 0.297143 13.9037 0.666122V2.59265C12.3984 0.950204 10.2792 0 8 0C3.58857 0 0 3.58857 0 8C0 12.4114 3.58857 16 8 16C12.4114 16 16 12.4114 16 8C16 7.63102 15.7029 7.33388 15.3339 7.33388Z" fill="#AAAAAA"/>
</svg>
