<svg width="18" height="18" viewBox="0 0 18 18" fill="none" xmlns="http://www.w3.org/2000/svg">
<path d="M4.18605 5.65116C4.18605 6.10652 4.32108 6.55165 4.57406 6.93027C4.82704 7.30888 5.18662 7.60398 5.60731 7.77823C6.028 7.95249 6.49093 7.99809 6.93753 7.90925C7.38414 7.82041 7.79438 7.60114 8.11636 7.27915C8.43835 6.95717 8.65762 6.54693 8.74646 6.10032C8.83529 5.65372 8.7897 5.1908 8.61544 4.7701C8.44119 4.34941 8.14609 3.98983 7.76748 3.73685C7.38886 3.48387 6.94373 3.34884 6.48837 3.34884C5.87789 3.34928 5.29255 3.59199 4.86087 4.02366C4.4292 4.45534 4.18649 5.04068 4.18605 5.65116ZM7.53488 5.65116C7.53488 5.85814 7.47351 6.06048 7.35851 6.23257C7.24352 6.40467 7.08008 6.53881 6.88885 6.61801C6.69763 6.69722 6.48721 6.71795 6.28421 6.67757C6.0812 6.63719 5.89473 6.53752 5.74838 6.39116C5.60202 6.2448 5.50235 6.05833 5.46197 5.85533C5.42159 5.65232 5.44231 5.4419 5.52152 5.25068C5.60073 5.05945 5.73486 4.89601 5.90696 4.78102C6.07906 4.66603 6.28139 4.60465 6.48837 4.60465C6.76579 4.60509 7.03171 4.71549 7.22788 4.91166C7.42404 5.10782 7.53444 5.37375 7.53488 5.65116ZM17.3721 6.69767C17.2056 6.69767 17.0459 6.76383 16.9281 6.88158C16.8103 6.99934 16.7442 7.15905 16.7442 7.32558V9.22353L16.4168 8.94307C15.9696 8.57249 15.407 8.3697 14.8261 8.3697C14.2453 8.3697 13.6827 8.57249 13.2354 8.94307L9.75349 11.9302C9.534 12.105 9.26173 12.2001 8.98116 12.2001C8.7006 12.2001 8.42833 12.105 8.20884 11.9302L7.93088 11.6916C7.51845 11.3503 7.00732 11.1503 6.47273 11.1212C5.93814 11.0921 5.40834 11.2354 4.9613 11.53L1.50614 13.8491C1.32492 13.0835 1.24081 12.2982 1.25581 11.5116V6.48837C1.25581 2.62549 2.62549 1.25581 6.48837 1.25581H9.83721C10.0037 1.25581 10.1635 1.18966 10.2812 1.0719C10.399 0.954149 10.4651 0.794438 10.4651 0.627907C10.4651 0.461376 10.399 0.301665 10.2812 0.18391C10.1635 0.0661543 10.0037 0 9.83721 0H6.48837C1.94065 0 0 1.93981 0 6.48837V11.5116C0 16.0602 1.94065 18 6.48837 18H11.5116C16.0593 18 18 16.0602 18 11.5116V7.32558C18 7.15905 17.9338 6.99934 17.8161 6.88158C17.6983 6.76383 17.5386 6.69767 17.3721 6.69767ZM16.7442 11.5116C16.7442 15.3745 15.3745 16.7442 11.5116 16.7442H6.48837C4.18019 16.7442 2.76781 16.2494 2.00009 15.0321L5.66037 12.5757C5.87987 12.4353 6.1376 12.3666 6.39787 12.3792C6.65813 12.3918 6.90803 12.4851 7.11293 12.646L7.39088 12.8855C7.83779 13.2568 8.40053 13.4601 8.98158 13.4601C9.56263 13.4601 10.1254 13.2568 10.5723 12.8855L14.0567 9.89581C14.2764 9.72183 14.5484 9.62716 14.8287 9.62716C15.1089 9.62716 15.3809 9.72183 15.6006 9.89581L16.7459 10.8787L16.7442 11.5116ZM11.5116 3.13953C11.5116 2.973 11.5778 2.81329 11.6955 2.69554C11.8133 2.57778 11.973 2.51163 12.1395 2.51163H13.814V0.837209C13.814 0.670678 13.8801 0.510967 13.9979 0.393212C14.1156 0.275457 14.2753 0.209302 14.4419 0.209302C14.6084 0.209302 14.7681 0.275457 14.8859 0.393212C15.0036 0.510967 15.0698 0.670678 15.0698 0.837209V2.51163H16.7442C16.9107 2.51163 17.0704 2.57778 17.1882 2.69554C17.3059 2.81329 17.3721 2.973 17.3721 3.13953C17.3721 3.30607 17.3059 3.46578 17.1882 3.58353C17.0704 3.70129 16.9107 3.76744 16.7442 3.76744H15.0698V5.44186C15.0698 5.60839 15.0036 5.7681 14.8859 5.88586C14.7681 6.00361 14.6084 6.06977 14.4419 6.06977C14.2753 6.06977 14.1156 6.00361 13.9979 5.88586C13.8801 5.7681 13.814 5.60839 13.814 5.44186V3.76744H12.1395C11.973 3.76744 11.8133 3.70129 11.6955 3.58353C11.5778 3.46578 11.5116 3.30607 11.5116 3.13953Z" fill="white"/>
</svg>
