<svg width="14" height="14" viewBox="0 0 14 14" fill="none" xmlns="http://www.w3.org/2000/svg">
<path d="M3.25581 4.39535C3.25581 4.74952 3.36084 5.09573 3.5576 5.39021C3.75437 5.68469 4.03403 5.9142 4.36124 6.04974C4.68845 6.18527 5.0485 6.22073 5.39586 6.15164C5.74322 6.08254 6.06229 5.912 6.31273 5.66156C6.56316 5.41113 6.73371 5.09206 6.8028 4.7447C6.8719 4.39734 6.83643 4.03729 6.7009 3.71008C6.56537 3.38287 6.33585 3.1032 6.04137 2.90644C5.74689 2.70967 5.40068 2.60465 5.04651 2.60465C4.57169 2.605 4.11642 2.79377 3.78068 3.12952C3.44493 3.46526 3.25616 3.92053 3.25581 4.39535ZM5.86047 4.39535C5.86047 4.55633 5.81273 4.7137 5.72329 4.84756C5.63385 4.98141 5.50673 5.08574 5.358 5.14734C5.20927 5.20895 5.04561 5.22507 4.88772 5.19366C4.72983 5.16226 4.58479 5.08473 4.47096 4.9709C4.35713 4.85707 4.2796 4.71204 4.2482 4.55414C4.21679 4.39625 4.23291 4.23259 4.29452 4.08386C4.35612 3.93513 4.46045 3.80801 4.5943 3.71857C4.72816 3.62913 4.88553 3.5814 5.04651 3.5814C5.26228 3.58174 5.46911 3.66761 5.62168 3.82018C5.77425 3.97275 5.86012 4.17958 5.86047 4.39535ZM13.5116 5.2093C13.3821 5.2093 13.2579 5.26076 13.1663 5.35234C13.0747 5.44393 13.0233 5.56815 13.0233 5.69767V7.17386L12.7687 6.95572C12.4208 6.66749 11.9832 6.50976 11.5314 6.50976C11.0797 6.50976 10.6421 6.66749 10.2942 6.95572L7.58605 9.27907C7.41533 9.415 7.20357 9.48901 6.98535 9.48901C6.76713 9.48901 6.55537 9.415 6.38465 9.27907L6.16847 9.09349C5.84768 8.82798 5.45014 8.67247 5.03435 8.64985C4.61856 8.62722 4.20649 8.73868 3.85879 8.96781L1.17144 10.7715C1.03049 10.1761 0.965077 9.56527 0.976744 8.95349V5.04651C0.976744 2.04205 2.04205 0.976744 5.04651 0.976744H7.65116C7.78069 0.976744 7.90491 0.925291 7.99649 0.833703C8.08808 0.742116 8.13953 0.617896 8.13953 0.488372C8.13953 0.358848 8.08808 0.234628 7.99649 0.143041C7.90491 0.0514534 7.78069 0 7.65116 0H5.04651C1.5094 0 0 1.50874 0 5.04651V8.95349C0 12.4913 1.5094 14 5.04651 14H8.95349C12.4906 14 14 12.4913 14 8.95349V5.69767C14 5.56815 13.9485 5.44393 13.857 5.35234C13.7654 5.26076 13.6412 5.2093 13.5116 5.2093ZM13.0233 8.95349C13.0233 11.958 11.958 13.0233 8.95349 13.0233H5.04651C3.25126 13.0233 2.15274 12.6384 1.55563 11.6916L4.40251 9.78112C4.57323 9.6719 4.77369 9.61849 4.97612 9.62829C5.17855 9.63809 5.37291 9.71062 5.53228 9.83581L5.74847 10.022C6.09606 10.3109 6.53375 10.469 6.98567 10.469C7.4376 10.469 7.87529 10.3109 8.22288 10.022L10.933 7.69674C11.1039 7.56142 11.3154 7.48779 11.5334 7.48779C11.7513 7.48779 11.9629 7.56142 12.1338 7.69674L13.0246 8.46121L13.0233 8.95349ZM8.95349 2.44186C8.95349 2.31234 9.00494 2.18812 9.09653 2.09653C9.18812 2.00494 9.31234 1.95349 9.44186 1.95349H10.7442V0.651163C10.7442 0.521638 10.7956 0.397419 10.8872 0.305832C10.9788 0.214244 11.103 0.162791 11.2326 0.162791C11.3621 0.162791 11.4863 0.214244 11.5779 0.305832C11.6695 0.397419 11.7209 0.521638 11.7209 0.651163V1.95349H13.0233C13.1528 1.95349 13.277 2.00494 13.3686 2.09653C13.4602 2.18812 13.5116 2.31234 13.5116 2.44186C13.5116 2.57138 13.4602 2.6956 13.3686 2.78719C13.277 2.87878 13.1528 2.93023 13.0233 2.93023H11.7209V4.23256C11.7209 4.36208 11.6695 4.4863 11.5779 4.57789C11.4863 4.66948 11.3621 4.72093 11.2326 4.72093C11.103 4.72093 10.9788 4.66948 10.8872 4.57789C10.7956 4.4863 10.7442 4.36208 10.7442 4.23256V2.93023H9.44186C9.31234 2.93023 9.18812 2.87878 9.09653 2.78719C9.00494 2.6956 8.95349 2.57138 8.95349 2.44186Z" fill="#112D55"/>
</svg>
