<svg width="16" height="16" viewBox="0 0 16 16" fill="none" xmlns="http://www.w3.org/2000/svg">
<mask id="mask0_181_983" style="mask-type:luminance" maskUnits="userSpaceOnUse" x="0" y="0" width="16" height="16">
<path d="M16 0H0V16H16V0Z" fill="white"/>
</mask>
<g mask="url(#mask0_181_983)">
<path d="M4.63663 5.75763C5.25574 5.75763 5.75763 5.25574 5.75763 4.63663C5.75763 4.01751 5.25574 3.51562 4.63663 3.51562C4.01751 3.51562 3.51562 4.01751 3.51562 4.63663C3.51562 5.25574 4.01751 5.75763 4.63663 5.75763Z" stroke="#FC6D35" stroke-width="1.2" stroke-linecap="round" stroke-linejoin="round"/>
<path d="M0.899902 8.00039C0.899902 4.65339 0.899902 2.98039 1.9399 1.94039C2.9799 0.900391 4.6529 0.900391 7.9999 0.900391C11.3469 0.900391 13.0199 0.900391 14.0599 1.94039C15.0999 2.98039 15.0999 4.65339 15.0999 8.00039C15.0999 11.3474 15.0999 13.0204 14.0599 14.0604C13.0199 15.1004 11.3469 15.1004 7.9999 15.1004C4.6529 15.1004 2.9799 15.1004 1.9399 14.0604C0.899902 13.0204 0.899902 11.3494 0.899902 8.00039Z" stroke="#FC6D35" stroke-width="1.2"/>
<path d="M2.76562 14.7273C6.03362 10.8273 9.69662 5.67232 15.0956 9.15432" stroke="#FC6D35" stroke-width="1.2"/>
</g>
</svg>
