<svg width="16" height="16" viewBox="0 0 16 16" fill="none" xmlns="http://www.w3.org/2000/svg">
<path d="M15.4175 10.3457C15.2631 10.3457 15.1149 10.4071 15.0057 10.5163C14.8965 10.6255 14.8351 10.7737 14.8351 10.9282V12.9172C14.8351 13.3861 14.6488 13.8357 14.3173 14.1672C13.9858 14.4987 13.5362 14.685 13.0673 14.685H2.93265C2.46382 14.685 2.01418 14.4987 1.68267 14.1672C1.35115 13.8357 1.16491 13.3861 1.16491 12.9172V10.9282C1.16491 10.7737 1.10354 10.6255 0.99431 10.5163C0.885079 10.4071 0.73693 10.3457 0.582454 10.3457C0.427977 10.3457 0.279828 10.4071 0.170597 10.5163C0.0613654 10.6255 0 10.7737 0 10.9282V12.9172C0.000770999 13.6948 0.309994 14.4403 0.859806 14.9901C1.40962 15.5399 2.1551 15.8491 2.93265 15.8499H13.0673C13.8449 15.8491 14.5904 15.5399 15.1402 14.9901C15.69 14.4403 15.9992 13.6948 16 12.9172V10.9282C16 10.7737 15.9386 10.6255 15.8294 10.5163C15.7202 10.4071 15.572 10.3457 15.4175 10.3457Z" fill="white"/>
<path d="M5.08775 5.30842L7.41757 2.97861V11.628C7.41757 11.7825 7.47893 11.9307 7.58816 12.0399C7.69739 12.1491 7.84554 12.2105 8.00002 12.2105C8.1545 12.2105 8.30265 12.1491 8.41188 12.0399C8.52111 11.9307 8.58247 11.7825 8.58247 11.628V2.98734L10.9123 5.31716C10.9664 5.37127 11.0306 5.4142 11.1014 5.44349C11.1721 5.47277 11.2478 5.48785 11.3244 5.48785C11.4009 5.48785 11.4767 5.47277 11.5474 5.44349C11.6181 5.4142 11.6823 5.37127 11.7365 5.31716C11.7906 5.26304 11.8335 5.1988 11.8628 5.12809C11.8921 5.05738 11.9072 4.9816 11.9072 4.90507C11.9072 4.82854 11.8921 4.75276 11.8628 4.68205C11.8335 4.61135 11.7906 4.5471 11.7365 4.49299L8.41356 1.17009C8.3326 1.09155 8.23202 1.03623 8.12233 1.00991C8.02807 0.99256 7.93101 0.998048 7.8393 1.02592C7.74759 1.05378 7.66389 1.10322 7.59522 1.17009L4.27232 4.48425C4.17985 4.59552 4.1321 4.73722 4.13836 4.88176C4.14463 5.0263 4.20447 5.16334 4.30623 5.26618C4.40798 5.36903 4.54437 5.43032 4.68884 5.43813C4.8333 5.44594 4.9755 5.3997 5.08775 5.30842Z" fill="white"/>
</svg>
