<svg width="100" height="75" viewBox="0 0 100 75" fill="none" xmlns="http://www.w3.org/2000/svg">
<path d="M89.4149 0H81.0968H63.2272H10.6018C4.76746 0 0 4.75079 0 10.6018V16.9028V64.0273C0 69.8783 4.76746 74.6291 10.6018 74.6291H89.3982C95.2492 74.6291 100 69.8783 100 64.0273V16.9028V10.6018C100.017 4.75079 95.2492 0 89.4149 0ZM96.9828 10.6018V15.3859H82.5971V3.01717H89.3982C93.5822 3.03384 96.9828 6.4344 96.9828 10.6018ZM79.5799 16.9028V24.3707L73.1455 18.9198C72.5787 18.4364 71.7453 18.4364 71.1785 18.9198L64.7274 24.3874V16.9195V3.03384H79.5632V16.9028H79.5799ZM3.03384 10.6018C3.03384 6.41773 6.4344 3.01717 10.6184 3.01717H61.7269V15.3859H3.03384V10.6018ZM96.9828 64.044C96.9828 68.228 93.5822 71.6286 89.3982 71.6286H10.6018C6.41773 71.6286 3.01717 68.228 3.01717 64.044V18.4197H61.6936V27.6546C61.6936 28.238 62.0436 28.7881 62.5771 29.0215C62.7604 29.1048 62.9438 29.1382 63.1438 29.1549C63.1605 29.1549 63.1938 29.1715 63.2105 29.1715C63.2438 29.1715 63.2605 29.1549 63.2939 29.1549C63.4105 29.1549 63.5106 29.1215 63.6272 29.1048C63.6772 29.0882 63.7273 29.0882 63.7773 29.0715C63.9273 29.0048 64.0773 28.9381 64.194 28.8215L72.162 22.0703L80.1133 28.8215C80.5634 29.2049 81.1968 29.2882 81.7302 29.0382C82.2637 28.7881 82.6137 28.2547 82.6137 27.6546V18.4197H96.9995V64.044H96.9828Z" fill="#B4B4B4"/>
<path d="M27.0378 26.1406C16.6194 26.1406 8.15137 34.6087 8.15137 45.0271C8.15137 49.0778 9.40157 52.9284 11.7853 56.1456C15.3359 61.0131 21.0368 63.9136 27.0378 63.9136C27.788 63.9136 28.5381 63.8636 29.2715 63.7802C34.4391 63.1634 39.1899 60.413 42.2904 56.1623C44.6574 52.9284 45.9243 49.0944 45.9243 45.0271C45.9243 34.6087 37.4396 26.1406 27.0378 26.1406ZM25.2209 60.7631C25.0208 60.7464 24.8375 60.6964 24.6374 60.663C24.2374 60.5964 23.8373 60.5463 23.4539 60.4463C23.2205 60.3963 23.0038 60.313 22.7871 60.263C22.4371 60.1629 22.087 60.0629 21.737 59.9462C21.5036 59.8629 21.2869 59.7629 21.0535 59.6795C20.7201 59.5462 20.4034 59.4128 20.0867 59.2628C19.87 59.1461 19.6366 59.0294 19.4199 58.9127C19.1199 58.746 18.8198 58.5793 18.5198 58.396C18.3031 58.2626 18.103 58.1126 17.8863 57.9626C17.6029 57.7625 17.3196 57.5625 17.0528 57.3458C16.8528 57.1791 16.6694 57.0291 16.4694 56.8457C16.2027 56.6124 15.9527 56.379 15.7193 56.1289C15.5359 55.9456 15.3692 55.7622 15.1859 55.5622C15.1025 55.4622 15.0192 55.3455 14.9192 55.2455C17.9197 51.7115 22.3537 49.6445 27.0045 49.6445C31.6553 49.6445 36.0893 51.7282 39.0898 55.2455C39.0065 55.3455 38.9231 55.4622 38.8398 55.5622C38.6564 55.7622 38.4731 55.9622 38.2897 56.1456C38.0563 56.379 37.8063 56.6124 37.5563 56.8457C37.3562 57.0291 37.1562 57.1958 36.9562 57.3625C36.6894 57.5792 36.4227 57.7792 36.156 57.9626C35.9393 58.1126 35.7226 58.2626 35.5059 58.396C35.2225 58.5793 34.9225 58.746 34.6224 58.9127C34.4057 59.0294 34.1724 59.1628 33.939 59.2795C33.6223 59.4295 33.3055 59.5628 32.9888 59.6962C32.7555 59.7962 32.5388 59.8962 32.3054 59.9796C31.972 60.0963 31.6219 60.1963 31.2719 60.2963C31.0385 60.363 30.8218 60.4297 30.5884 60.4797C30.205 60.563 29.805 60.6297 29.4049 60.6964C29.2049 60.7297 29.0215 60.7631 28.8215 60.7964C28.2214 60.8631 27.6213 60.9131 27.0045 60.9131C26.3877 60.9131 25.821 60.8297 25.2209 60.7631ZM23.2205 42.7934C23.2205 40.693 24.9375 38.9761 27.0378 38.9761C29.1382 38.9761 30.8551 40.693 30.8551 42.7934C30.8551 44.8937 29.1382 46.6107 27.0378 46.6107C24.9375 46.594 23.2205 44.8937 23.2205 42.7934ZM40.9068 52.6784C38.5231 50.0946 35.4559 48.261 32.1053 47.3275C33.1889 46.1106 33.8723 44.527 33.8723 42.7934C33.8723 39.0261 30.8051 35.9589 27.0378 35.9589C23.2705 35.9589 20.2034 39.0261 20.2034 42.7934C20.2034 44.5437 20.8868 46.1273 21.9703 47.3275C18.6198 48.2776 15.5526 50.0946 13.1689 52.6784C11.8687 50.3613 11.1852 47.7442 11.1852 45.0271C11.1852 36.2923 18.3031 29.1745 27.0378 29.1745C35.7726 29.1745 42.8905 36.2923 42.8905 45.0271C42.8905 47.7442 42.207 50.3613 40.9068 52.6784Z" fill="#B4B4B4"/>
<path d="M53.709 34.4857C53.709 35.3191 54.3924 36.0026 55.2259 36.0026H90.6818C91.5153 36.0026 92.1987 35.3191 92.1987 34.4857C92.1987 33.6522 91.5153 32.9688 90.6818 32.9688H55.2259C54.3924 32.9688 53.709 33.6522 53.709 34.4857Z" fill="#B4B4B4"/>
<path d="M90.6818 43.5078H55.2259C54.3924 43.5078 53.709 44.1913 53.709 45.0247C53.709 45.8582 54.3924 46.5416 55.2259 46.5416H90.6818C91.5153 46.5416 92.1987 45.8582 92.1987 45.0247C92.1987 44.1913 91.5153 43.5078 90.6818 43.5078Z" fill="#B4B4B4"/>
<path d="M90.6818 54.0469H55.2259C54.3924 54.0469 53.709 54.7303 53.709 55.5638C53.709 56.3973 54.3924 57.0807 55.2259 57.0807H90.6818C91.5153 57.0807 92.1987 56.3973 92.1987 55.5638C92.1987 54.7303 91.5153 54.0469 90.6818 54.0469Z" fill="#B4B4B4"/>
</svg>
