<svg width="14" height="14" viewBox="0 0 14 14" fill="none" xmlns="http://www.w3.org/2000/svg">
<g id="Group 684">
<g id="Group">
<path id="Vector" d="M8.5394 6.08402C8.0368 6.08402 7.54717 5.90835 7.16024 5.58904C6.99779 5.45507 6.7578 5.47795 6.62332 5.6404C6.11207 6.34028 8.04951 6.90821 8.5394 6.84669C10.1555 6.84669 11.4701 5.53184 11.4701 3.916C11.3982 0.485243 6.62383 -0.118793 5.70099 3.18281C5.58532 3.67067 6.30605 3.85676 6.43951 3.37297C7.1221 0.931152 10.6545 1.37859 10.7074 3.916C10.7074 5.11136 9.73502 6.08402 8.5394 6.08402Z" fill="#112D55"/>
<path id="Vector_2" d="M7.93252 11.5644C7.93252 11.7749 8.1031 11.9457 8.31385 11.9457H12.6184C12.8291 11.9457 12.9997 11.7749 12.9997 11.5644C12.9987 7.42966 7.78481 5.52934 5.12741 8.69112C4.81192 9.0806 5.38036 9.56006 5.7106 9.18254C7.79524 6.68911 11.8999 7.97803 12.2177 11.1828H8.31385C8.10336 11.183 7.93252 11.3539 7.93252 11.5644Z" fill="#112D55"/>
<path id="Vector_3" d="M1.5293 5.2542C1.5293 6.87005 2.84389 8.18489 4.45999 8.18489C8.34835 8.02372 8.34708 2.48341 4.45999 2.323C2.84389 2.323 1.5293 3.63784 1.5293 5.2542ZM6.62827 5.2542C6.62827 6.44956 5.65561 7.42222 4.45999 7.42222C1.5837 7.30299 1.58472 3.20439 4.45999 3.08567C5.65561 3.08567 6.62827 4.05833 6.62827 5.2542Z" fill="#112D55"/>
<path id="Vector_4" d="M0.381336 13.2838H8.53964C8.75039 13.2838 8.92097 13.1129 8.92097 12.9025C8.67565 6.98437 0.243801 6.98691 0 12.9025C0 13.1132 0.170584 13.2838 0.381336 13.2838ZM4.46036 9.20476C6.3706 9.20476 7.9473 10.661 8.13873 12.5214H0.781993C0.973424 10.6607 2.55012 9.20476 4.46036 9.20476Z" fill="#112D55"/>
</g>
</g>
</svg>
