<svg xmlns="http://www.w3.org/2000/svg" width="19.4" height="19.2" viewBox="0 0 19.4 19.2">
  <g id="Group_1436" data-name="Group 1436" transform="translate(-14.3 -169.5)">
    <path id="Path_2956" data-name="Path 2956" d="M19.5,255.75a3,3,0,1,0-3-3A3,3,0,0,0,19.5,255.75Z" transform="translate(0 -70)" fill="none" stroke="#fff" stroke-linecap="round" stroke-linejoin="round" stroke-width="1"/>
    <path id="Path_2957" data-name="Path 2957" d="M15,258a5.625,5.625,0,0,1,9,0" transform="translate(0 -70)" fill="none" stroke="#fff" stroke-linecap="round" stroke-linejoin="round" stroke-width="1"/>
    <path id="Path_2958" data-name="Path 2958" d="M19.5,246a3,3,0,1,0-3-3A3,3,0,0,0,19.5,246Z" transform="translate(0 -70)" fill="none" stroke="#fff" stroke-linecap="round" stroke-linejoin="round" stroke-width="1"/>
    <path id="Path_2959" data-name="Path 2959" d="M15,248.25a5.625,5.625,0,0,1,9,0" transform="translate(0 -70)" fill="none" stroke="#fff" stroke-linecap="round" stroke-linejoin="round" stroke-width="1"/>
    <path id="Path_2960" data-name="Path 2960" d="M28.5,255.75a3,3,0,1,0-3-3A3,3,0,0,0,28.5,255.75Z" transform="translate(0 -70)" fill="none" stroke="#fff" stroke-linecap="round" stroke-linejoin="round" stroke-width="1"/>
    <path id="Path_2961" data-name="Path 2961" d="M24,258a5.625,5.625,0,0,1,9,0" transform="translate(0 -70)" fill="none" stroke="#fff" stroke-linecap="round" stroke-linejoin="round" stroke-width="1"/>
    <path id="Path_2962" data-name="Path 2962" d="M28.5,246a3,3,0,1,0-3-3A3,3,0,0,0,28.5,246Z" transform="translate(0 -70)" fill="none" stroke="#fff" stroke-linecap="round" stroke-linejoin="round" stroke-width="1"/>
    <path id="Path_2963" data-name="Path 2963" d="M24,248.25a5.625,5.625,0,0,1,9,0" transform="translate(0 -70)" fill="none" stroke="#fff" stroke-linecap="round" stroke-linejoin="round" stroke-width="1"/>
  </g>
</svg>
