<svg width="14" height="14" viewBox="0 0 14 14" fill="none" xmlns="http://www.w3.org/2000/svg">
<g id="Group 687">
<g id="Icon">
<path id="Vector" d="M7.59038 8.80909L7.59018 8.80907C7.18907 8.76603 6.77246 8.74326 6.34524 8.74326C4.34445 8.74326 2.60925 9.24563 1.56313 9.95887L7.59038 8.80909ZM7.59038 8.80909C7.62531 8.81283 7.65123 8.84438 7.6474 8.88021C7.64363 8.915 7.61165 8.94101 7.57629 8.93724L7.53381 9.33498L7.57685 8.9373C7.17911 8.89425 6.76731 8.87183 6.34524 8.87183C4.45641 8.87183 2.73405 9.31619 1.63619 10.0649L7.59038 8.80909ZM0.590684 13.1065L0.591129 13.1069C0.713628 13.2294 0.879331 13.298 1.05238 13.298H7.27381C7.30918 13.298 7.3381 13.2691 7.3381 13.2337C7.3381 13.1984 7.30918 13.1695 7.27381 13.1695H1.05238C0.914848 13.1695 0.78113 13.1153 0.682252 13.0164C0.583816 12.918 0.528571 12.7847 0.528571 12.6456V11.748C0.528571 11.03 1.03838 10.4724 1.6361 10.0649L0.590684 13.1065ZM0.590684 13.1065C0.468866 12.985 0.4 12.8191 0.4 12.6456V11.748C0.4 11.1394 0.768449 10.5008 1.5631 9.9589L0.590684 13.1065Z" stroke="#112D55" stroke-width="0.8"/>
<path id="Vector_2" d="M3.34043 4.40476C3.34043 2.74625 4.68668 1.4 6.34519 1.4C8.00371 1.4 9.34995 2.74625 9.34995 4.40476C9.34995 6.06271 8.00366 7.40952 6.34519 7.40952C4.68672 7.40952 3.34043 6.06271 3.34043 4.40476ZM9.22138 4.40476C9.22138 2.81699 7.93296 1.52857 6.34519 1.52857C4.75742 1.52857 3.469 2.81699 3.469 4.40476C3.469 5.99185 4.75736 7.28095 6.34519 7.28095C7.93303 7.28095 9.22138 5.99185 9.22138 4.40476Z" stroke="#112D55" stroke-width="0.8"/>
<path id="Vector_3" d="M12.7502 10.7572V12.9238C12.7502 13.3843 12.3769 13.7572 11.9169 13.7572H9.13118C8.67116 13.7572 8.29785 13.3843 8.29785 12.9238V10.7572C8.29785 10.2972 8.67126 9.92383 9.13118 9.92383H9.13562H9.14007H9.14454H9.14901H9.15349H9.15799H9.1625H9.16702H9.17155H9.17609H9.18065H9.18521H9.18979H9.19438H9.19898H9.20359H9.20821H9.21284H9.21748H9.22214H9.2268H9.23148H9.23616H9.24086H9.24557H9.25029H9.25502H9.25976H9.26451H9.26927H9.27404H9.27882H9.28361H9.28842H9.29323H9.29805H9.30289H9.30773H9.31258H9.31745H9.32232H9.3272H9.33209H9.337H9.34191H9.34683H9.35176H9.35671H9.36166H9.36662H9.37159H9.37657H9.38156H9.38656H9.39156H9.39658H9.40161H9.40664H9.41169H9.41674H9.42181H9.42688H9.43196H9.43705H9.44215H9.44725H9.45237H9.45749H9.46263H9.46777H9.47292H9.47808H9.48325H9.48843H9.49361H9.4988H9.504H9.50921H9.51443H9.51966H9.52489H9.53013H9.53538H9.54064H9.54591H9.55118H9.55647H9.56176H9.56705H9.57236H9.57767H9.58299H9.58832H9.59365H9.599H9.60435H9.60971H9.61507H9.62044H9.62582H9.63121H9.6366H9.64201H9.64741H9.65283H9.65825H9.66368H9.66912H9.67456H9.68001H9.68547H9.69093H9.6964H9.70188H9.70736H9.71285H9.71834H9.72385H9.72935H9.73487H9.74039H9.74592H9.75145H9.75699H9.76254H9.76809H9.77365H9.77921H9.78478H9.79036H9.79594H9.80153H9.80712H9.81272H9.81832H9.82393H9.82955H9.83517H9.84079H9.84643H9.85206H9.85771H9.86335H9.86901H9.87466H9.88033H9.886H9.89167H9.89735H9.90303H9.90872H9.91441H9.92011H9.92581H9.93152H9.93723H9.94295H9.94867H9.9544H9.96013H9.96586H9.9716H9.97734H9.98309H9.98884H9.9946H10.0004H10.0061H10.0119H10.0177H10.0234H10.0292H10.035H10.0408H10.0466H10.0524H10.0582H10.064H10.0698H10.0756H10.0814H10.0872H10.093H10.0989H10.1047H10.1105H10.1164H10.1222H10.128H10.1339H10.1397H10.1456H10.1514H10.1573H10.1631H10.169H10.1749H10.1807H10.1866H10.1925H10.1983H10.2042H10.2101H10.216H10.2219H10.2278H10.2336H10.2395H10.2454H10.2513H10.2572H10.2631H10.269H10.2749H10.2808H10.2867H10.2926H10.2986H10.3045H10.3104H10.3163H10.3222H10.3281H10.3341H10.34H10.3459H10.3518H10.3577H10.3637H10.3696H10.3755H10.3815H10.3874H10.3933H10.3993H10.4052H10.4111H10.4171H10.423H10.429H10.4349H10.4408H10.4468H10.4527H10.4587H10.4646H10.4705H10.4765H10.4824H10.4884H10.4943H10.5003H10.5062H10.5122H10.5181H10.524H10.53H10.5359H10.5419H10.5478H10.5538H10.5597H10.5657H10.5716H10.5775H10.5835H10.5894H10.5954H10.6013H10.6073H10.6132H10.6191H10.6251H10.631H10.6369H10.6429H10.6488H10.6548H10.6607H10.6666H10.6725H10.6785H10.6844H10.6903H10.6963H10.7022H10.7081H10.714H10.72H10.7259H10.7318H10.7377H10.7436H10.7495H10.7554H10.7614H10.7673H10.7732H10.7791H10.785H10.7909H10.7968H10.8027H10.8086H10.8144H10.8203H10.8262H10.8321H10.838H10.8439H10.8497H10.8556H10.8615H10.8674H10.8732H10.8791H10.8849H10.8908H10.8967H10.9025H10.9084H10.9142H10.92H10.9259H10.9317H10.9376H10.9434H10.9492H10.955H10.9609H10.9667H10.9725H10.9783H10.9841H10.9899H10.9957H11.0015H11.0073H11.0131H11.0189H11.0246H11.0304H11.0362H11.042H11.0477H11.0535H11.0592H11.065H11.0707H11.0765H11.0822H11.088H11.0937H11.0994H11.1051H11.1109H11.1166H11.1223H11.128H11.1337H11.1394H11.1451H11.1507H11.1564H11.1621H11.1678H11.1734H11.1791H11.1847H11.1904H11.196H11.2017H11.2073H11.2129H11.2185H11.2242H11.2298H11.2354H11.241H11.2466H11.2521H11.2577H11.2633H11.2689H11.2744H11.28H11.2855H11.2911H11.2966H11.3022H11.3077H11.3132H11.3187H11.3242H11.3297H11.3352H11.3407H11.3462H11.3517H11.3572H11.3626H11.3681H11.3735H11.379H11.3844H11.3898H11.3953H11.4007H11.4061H11.4115H11.4169H11.4223H11.4276H11.433H11.4384H11.4437H11.4491H11.4544H11.4598H11.4651H11.4704H11.4757H11.481H11.4863H11.4916H11.4969H11.5022H11.5074H11.5127H11.5179H11.5232H11.5284H11.5337H11.5389H11.5441H11.5493H11.5545H11.5597H11.5648H11.57H11.5752H11.5803H11.5855H11.5906H11.5957H11.6008H11.6059H11.611H11.6161H11.6212H11.6263H11.6313H11.6364H11.6414H11.6465H11.6515H11.6565H11.6615H11.6665H11.6715H11.6765H11.6815H11.6864H11.6914H11.6963H11.7013H11.7062H11.7111H11.716H11.7209H11.7258H11.7306H11.7355H11.7404H11.7452H11.75H11.7549H11.7597H11.7645H11.7693H11.774H11.7788H11.7836H11.7883H11.7931H11.7978H11.8025H11.8072H11.8119H11.8166H11.8213H11.8259H11.8306H11.8352H11.8399H11.8445H11.8491H11.8537H11.8583H11.8629H11.8674H11.872H11.8765H11.8811H11.8856H11.8901H11.8946H11.8991H11.9035H11.908H11.9125H11.9169C12.3768 9.92383 12.7502 10.2972 12.7502 10.7572ZM12.3217 12.9238V10.7572C12.3217 10.5337 12.1404 10.3524 11.9169 10.3524H9.13118C8.90769 10.3524 8.72642 10.5337 8.72642 10.7572V12.9238C8.72642 13.1473 8.90769 13.3286 9.13118 13.3286H9.13562H9.14007H9.14454H9.14901H9.15349H9.15799H9.1625H9.16702H9.17155H9.17609H9.18065H9.18521H9.18979H9.19438H9.19898H9.20359H9.20821H9.21284H9.21748H9.22214H9.2268H9.23148H9.23616H9.24086H9.24557H9.25029H9.25502H9.25976H9.26451H9.26927H9.27404H9.27882H9.28361H9.28842H9.29323H9.29805H9.30289H9.30773H9.31258H9.31745H9.32232H9.3272H9.33209H9.337H9.34191H9.34683H9.35176H9.35671H9.36166H9.36662H9.37159H9.37657H9.38156H9.38656H9.39156H9.39658H9.40161H9.40664H9.41169H9.41674H9.42181H9.42688H9.43196H9.43705H9.44215H9.44725H9.45237H9.45749H9.46263H9.46777H9.47292H9.47808H9.48325H9.48843H9.49361H9.4988H9.504H9.50921H9.51443H9.51966H9.52489H9.53013H9.53538H9.54064H9.54591H9.55118H9.55647H9.56176H9.56705H9.57236H9.57767H9.58299H9.58832H9.59365H9.599H9.60435H9.60971H9.61507H9.62044H9.62582H9.63121H9.6366H9.64201H9.64741H9.65283H9.65825H9.66368H9.66912H9.67456H9.68001H9.68547H9.69093H9.6964H9.70188H9.70736H9.71285H9.71834H9.72385H9.72935H9.73487H9.74039H9.74592H9.75145H9.75699H9.76254H9.76809H9.77365H9.77921H9.78478H9.79036H9.79594H9.80153H9.80712H9.81272H9.81832H9.82393H9.82955H9.83517H9.84079H9.84643H9.85206H9.85771H9.86335H9.86901H9.87466H9.88033H9.886H9.89167H9.89735H9.90303H9.90872H9.91441H9.92011H9.92581H9.93152H9.93723H9.94295H9.94867H9.9544H9.96013H9.96586H9.9716H9.97734H9.98309H9.98884H9.9946H10.0004H10.0061H10.0119H10.0177H10.0234H10.0292H10.035H10.0408H10.0466H10.0524H10.0582H10.064H10.0698H10.0756H10.0814H10.0872H10.093H10.0989H10.1047H10.1105H10.1164H10.1222H10.128H10.1339H10.1397H10.1456H10.1514H10.1573H10.1631H10.169H10.1749H10.1807H10.1866H10.1925H10.1983H10.2042H10.2101H10.216H10.2219H10.2278H10.2336H10.2395H10.2454H10.2513H10.2572H10.2631H10.269H10.2749H10.2808H10.2867H10.2926H10.2986H10.3045H10.3104H10.3163H10.3222H10.3281H10.3341H10.34H10.3459H10.3518H10.3577H10.3637H10.3696H10.3755H10.3815H10.3874H10.3933H10.3993H10.4052H10.4111H10.4171H10.423H10.429H10.4349H10.4408H10.4468H10.4527H10.4587H10.4646H10.4705H10.4765H10.4824H10.4884H10.4943H10.5003H10.5062H10.5122H10.5181H10.524H10.53H10.5359H10.5419H10.5478H10.5538H10.5597H10.5657H10.5716H10.5775H10.5835H10.5894H10.5954H10.6013H10.6073H10.6132H10.6191H10.6251H10.631H10.6369H10.6429H10.6488H10.6548H10.6607H10.6666H10.6725H10.6785H10.6844H10.6903H10.6963H10.7022H10.7081H10.714H10.72H10.7259H10.7318H10.7377H10.7436H10.7495H10.7554H10.7614H10.7673H10.7732H10.7791H10.785H10.7909H10.7968H10.8027H10.8086H10.8144H10.8203H10.8262H10.8321H10.838H10.8439H10.8497H10.8556H10.8615H10.8674H10.8732H10.8791H10.8849H10.8908H10.8967H10.9025H10.9084H10.9142H10.92H10.9259H10.9317H10.9376H10.9434H10.9492H10.955H10.9609H10.9667H10.9725H10.9783H10.9841H10.9899H10.9957H11.0015H11.0073H11.0131H11.0189H11.0246H11.0304H11.0362H11.042H11.0477H11.0535H11.0592H11.065H11.0707H11.0765H11.0822H11.088H11.0937H11.0994H11.1051H11.1109H11.1166H11.1223H11.128H11.1337H11.1394H11.1451H11.1507H11.1564H11.1621H11.1678H11.1734H11.1791H11.1847H11.1904H11.196H11.2017H11.2073H11.2129H11.2185H11.2242H11.2298H11.2354H11.241H11.2466H11.2521H11.2577H11.2633H11.2689H11.2744H11.28H11.2855H11.2911H11.2966H11.3022H11.3077H11.3132H11.3187H11.3242H11.3297H11.3352H11.3407H11.3462H11.3517H11.3572H11.3626H11.3681H11.3735H11.379H11.3844H11.3898H11.3953H11.4007H11.4061H11.4115H11.4169H11.4223H11.4276H11.433H11.4384H11.4437H11.4491H11.4544H11.4598H11.4651H11.4704H11.4757H11.481H11.4863H11.4916H11.4969H11.5022H11.5074H11.5127H11.5179H11.5232H11.5284H11.5337H11.5389H11.5441H11.5493H11.5545H11.5597H11.5648H11.57H11.5752H11.5803H11.5855H11.5906H11.5957H11.6008H11.6059H11.611H11.6161H11.6212H11.6263H11.6313H11.6364H11.6414H11.6465H11.6515H11.6565H11.6615H11.6665H11.6715H11.6765H11.6815H11.6864H11.6914H11.6963H11.7013H11.7062H11.7111H11.716H11.7209H11.7258H11.7306H11.7355H11.7404H11.7452H11.75H11.7549H11.7597H11.7645H11.7693H11.774H11.7788H11.7836H11.7883H11.7931H11.7978H11.8025H11.8072H11.8119H11.8166H11.8213H11.8259H11.8306H11.8352H11.8399H11.8445H11.8491H11.8537H11.8583H11.8629H11.8674H11.872H11.8765H11.8811H11.8856H11.8901H11.8946H11.8991H11.9035H11.908H11.9125H11.9169C12.1404 13.3286 12.3217 13.1473 12.3217 12.9238Z" stroke="#112D55" stroke-width="0.5"/>
<path id="Vector_4" d="M11.4028 8.48607L11.4028 8.48607L11.402 8.48531C11.2101 8.29417 10.9506 8.1859 10.6784 8.1859H10.3689C10.0967 8.1859 9.83721 8.29417 9.64525 8.48531L9.64525 8.48531L9.64449 8.48607C9.45327 8.6781 9.34508 8.93827 9.34508 9.20971V10.1383C9.34508 10.2565 9.249 10.3526 9.13079 10.3526C9.01258 10.3526 8.9165 10.2565 8.9165 10.1383V9.20971C8.9165 8.8247 9.0697 8.45496 9.34161 8.18305C9.61419 7.91048 9.98395 7.75732 10.3689 7.75732H10.3732H10.3734H10.3735H10.3737H10.3738H10.374H10.3742H10.3743H10.3745H10.3747H10.3748H10.375H10.3752H10.3754H10.3755H10.3757H10.3759H10.3761H10.3763H10.3765H10.3767H10.3769H10.3771H10.3773H10.3775H10.3777H10.3779H10.3781H10.3783H10.3785H10.3787H10.379H10.3792H10.3794H10.3796H10.3799H10.3801H10.3803H10.3806H10.3808H10.381H10.3813H10.3815H10.3818H10.382H10.3823H10.3825H10.3828H10.383H10.3833H10.3835H10.3838H10.3841H10.3843H10.3846H10.3849H10.3851H10.3854H10.3857H10.386H10.3863H10.3865H10.3868H10.3871H10.3874H10.3877H10.388H10.3883H10.3886H10.3889H10.3892H10.3895H10.3898H10.3901H10.3904H10.3907H10.391H10.3913H10.3916H10.392H10.3923H10.3926H10.3929H10.3932H10.3936H10.3939H10.3942H10.3946H10.3949H10.3952H10.3956H10.3959H10.3963H10.3966H10.3969H10.3973H10.3976H10.398H10.3983H10.3987H10.399H10.3994H10.3998H10.4001H10.4005H10.4008H10.4012H10.4016H10.402H10.4023H10.4027H10.4031H10.4034H10.4038H10.4042H10.4046H10.405H10.4053H10.4057H10.4061H10.4065H10.4069H10.4073H10.4077H10.4081H10.4085H10.4089H10.4093H10.4097H10.4101H10.4105H10.4109H10.4113H10.4117H10.4121H10.4125H10.4129H10.4134H10.4138H10.4142H10.4146H10.415H10.4154H10.4159H10.4163H10.4167H10.4172H10.4176H10.418H10.4184H10.4189H10.4193H10.4197H10.4202H10.4206H10.4211H10.4215H10.4219H10.4224H10.4228H10.4233H10.4237H10.4242H10.4246H10.4251H10.4255H10.426H10.4264H10.4269H10.4274H10.4278H10.4283H10.4287H10.4292H10.4297H10.4301H10.4306H10.4311H10.4315H10.432H10.4325H10.433H10.4334H10.4339H10.4344H10.4349H10.4353H10.4358H10.4363H10.4368H10.4373H10.4378H10.4382H10.4387H10.4392H10.4397H10.4402H10.4407H10.4412H10.4417H10.4422H10.4427H10.4431H10.4436H10.4441H10.4446H10.4451H10.4456H10.4461H10.4466H10.4472H10.4477H10.4482H10.4487H10.4492H10.4497H10.4502H10.4507H10.4512H10.4517H10.4522H10.4528H10.4533H10.4538H10.4543H10.4548H10.4553H10.4559H10.4564H10.4569H10.4574H10.4579H10.4585H10.459H10.4595H10.46H10.4606H10.4611H10.4616H10.4622H10.4627H10.4632H10.4637H10.4643H10.4648H10.4653H10.4659H10.4664H10.467H10.4675H10.468H10.4686H10.4691H10.4696H10.4702H10.4707H10.4713H10.4718H10.4723H10.4729H10.4734H10.474H10.4745H10.4751H10.4756H10.4762H10.4767H10.4773H10.4778H10.4783H10.4789H10.4794H10.48H10.4806H10.4811H10.4817H10.4822H10.4828H10.4833H10.4839H10.4844H10.485H10.4855H10.4861H10.4866H10.4872H10.4878H10.4883H10.4889H10.4894H10.49H10.4906H10.4911H10.4917H10.4922H10.4928H10.4934H10.4939H10.4945H10.495H10.4956H10.4962H10.4967H10.4973H10.4979H10.4984H10.499H10.4996H10.5001H10.5007H10.5013H10.5018H10.5024H10.503H10.5035H10.5041H10.5047H10.5052H10.5058H10.5064H10.5069H10.5075H10.5081H10.5086H10.5092H10.5098H10.5103H10.5109H10.5115H10.512H10.5126H10.5132H10.5138H10.5143H10.5149H10.5155H10.516H10.5166H10.5172H10.5178H10.5183H10.5189H10.5195H10.52H10.5206H10.5212H10.5217H10.5223H10.5229H10.5235H10.524H10.5246H10.5252H10.5257H10.5263H10.5269H10.5275H10.528H10.5286H10.5292H10.5297H10.5303H10.5309H10.5315H10.532H10.5326H10.5332H10.5337H10.5343H10.5349H10.5354H10.536H10.5366H10.5372H10.5377H10.5383H10.5389H10.5394H10.54H10.5406H10.5411H10.5417H10.5423H10.5428H10.5434H10.544H10.5445H10.5451H10.5457H10.5462H10.5468H10.5474H10.5479H10.5485H10.5491H10.5496H10.5502H10.5508H10.5513H10.5519H10.5524H10.553H10.5536H10.5541H10.5547H10.5553H10.5558H10.5564H10.5569H10.5575H10.558H10.5586H10.5592H10.5597H10.5603H10.5608H10.5614H10.5619H10.5625H10.5631H10.5636H10.5642H10.5647H10.5653H10.5658H10.5664H10.5669H10.5675H10.568H10.5686H10.5691H10.5697H10.5702H10.5708H10.5713H10.5719H10.5724H10.5729H10.5735H10.574H10.5746H10.5751H10.5757H10.5762H10.5767H10.5773H10.5778H10.5784H10.5789H10.5794H10.58H10.5805H10.581H10.5816H10.5821H10.5826H10.5832H10.5837H10.5842H10.5848H10.5853H10.5858H10.5863H10.5869H10.5874H10.5879H10.5884H10.589H10.5895H10.59H10.5905H10.591H10.5916H10.5921H10.5926H10.5931H10.5936H10.5941H10.5947H10.5952H10.5957H10.5962H10.5967H10.5972H10.5977H10.5982H10.5987H10.5992H10.5998H10.6003H10.6008H10.6013H10.6018H10.6023H10.6028H10.6033H10.6038H10.6042H10.6047H10.6052H10.6057H10.6062H10.6067H10.6072H10.6077H10.6082H10.6087H10.6091H10.6096H10.6101H10.6106H10.6111H10.6116C10.6144 7.75732 10.6188 7.75749 10.6297 7.75813L10.644 7.75897L10.6582 7.75818C10.67 7.75752 10.6752 7.75732 10.6784 7.75732C11.0633 7.75732 11.4331 7.91048 11.7057 8.18305C11.9776 8.45496 12.1308 8.8247 12.1308 9.20971V10.1383C12.1308 10.2565 12.0347 10.3526 11.9165 10.3526C11.7983 10.3526 11.7022 10.2565 11.7022 10.1383V9.20971C11.7022 8.93827 11.594 8.6781 11.4028 8.48607Z" stroke="#112D55" stroke-width="0.5"/>
<path id="Vector_5" d="M10.3096 12.1502V11.5312C10.3096 11.413 10.4056 11.3169 10.5239 11.3169C10.6421 11.3169 10.7381 11.413 10.7381 11.5312V12.1502C10.7381 12.2684 10.6421 12.3645 10.5239 12.3645C10.4056 12.3645 10.3096 12.2684 10.3096 12.1502Z" stroke="#112D55" stroke-width="0.5"/>
</g>
</g>
</svg>
