<svg width="16" height="16" viewBox="0 0 16 16" fill="none" xmlns="http://www.w3.org/2000/svg">
<path fill-rule="evenodd" clip-rule="evenodd" d="M12.5446 5.55342C12.2483 5.19778 11.8093 4.99219 11.3464 4.99219H3.78015C3.31719 4.99219 2.87825 5.19778 2.58188 5.55342C1.98383 6.27064 0.819246 7.66826 0.216832 8.39079C-0.102937 8.77482 -0.0648768 9.3423 0.30356 9.67985C1.63536 10.9009 5.6214 14.5547 6.93042 15.7545C7.28825 16.0827 7.83732 16.0827 8.19515 15.7545C9.50418 14.5547 13.4902 10.9009 14.8223 9.67985C15.1905 9.3423 15.2285 8.77482 14.9087 8.39079L12.5446 5.55342ZM7.56279 14.9983L9.61305 9.35977H5.51252L7.56279 14.9983ZM8.29155 14.8199L14.248 9.35977H10.2769L8.29155 14.8199ZM6.83402 14.8199L4.84865 9.35977H0.877584L6.83402 14.8199ZM9.52227 5.61613L10.3022 8.73583H14.384L12.0651 5.95305C11.8873 5.73967 11.624 5.61613 11.3464 5.61613H9.52227ZM6.24659 5.61613L5.46666 8.73583H9.65891L8.87899 5.61613H6.24659ZM5.6033 5.61613H3.78015C3.50219 5.61613 3.23888 5.73936 3.06106 5.95274L0.741565 8.73583H4.82338L5.6033 5.61613Z" fill="#FC6D35"/>
<path fill-rule="evenodd" clip-rule="evenodd" d="M5.08138 1.96614L7.15161 0.154305C7.38746 -0.0514351 7.73811 -0.0514351 7.97396 0.154305L10.0442 1.96614L11.4892 0.521314C11.6677 0.342976 11.936 0.289519 12.1693 0.3861C12.4021 0.482682 12.5543 0.710134 12.5543 0.962593V3.11972C12.5543 3.45065 12.4227 3.76809 12.1887 4.00213C11.9547 4.23602 11.6371 4.36749 11.3064 4.36749H3.81915C3.48846 4.36749 3.17087 4.23602 2.9369 4.00213C2.70292 3.76809 2.57127 3.45065 2.57127 3.11972V0.962593C2.57127 0.710134 2.72351 0.482682 2.95624 0.3861C3.18959 0.289519 3.45788 0.342976 3.63633 0.521314L5.08138 1.96614ZM7.56278 0.623885C6.79934 1.29198 6.03582 1.95998 5.2723 2.62798C5.14876 2.73609 4.96283 2.72996 4.84615 2.61376C4.84615 2.61376 3.84161 1.60901 3.19521 0.962592V3.11972C3.19521 3.28518 3.26072 3.44391 3.37802 3.56085C3.4947 3.67795 3.6538 3.74368 3.81915 3.74368H11.3064C11.4718 3.74368 11.6309 3.67795 11.7475 3.56085C11.8648 3.44391 11.9304 3.28519 11.9304 3.11972V0.962593L10.2794 2.61376C10.1627 2.72996 9.97681 2.73609 9.85327 2.62798L7.56278 0.623885Z" fill="#FC6D35"/>
</svg>
