<svg width="104" height="100" viewBox="0 0 104 100" fill="none" xmlns="http://www.w3.org/2000/svg">
<path d="M62 35H82" stroke="#B4B4B4" stroke-width="3.5" stroke-linecap="round" stroke-linejoin="round"/>
<path d="M62 52.5H77" stroke="#B4B4B4" stroke-width="3.5" stroke-linecap="round" stroke-linejoin="round"/>
<path d="M77 5H27C13.1929 5 2 16.1929 2 30V70C2 83.8071 13.1929 95 27 95H77C90.8071 95 102 83.8071 102 70V30C102 16.1929 90.8071 5 77 5Z" stroke="#B4B4B4" stroke-width="3.5" stroke-linecap="round" stroke-linejoin="round"/>
<path d="M17 70C23.0416 57.0945 45.561 56.2455 52 70" stroke="#B4B4B4" stroke-width="3.5" stroke-linecap="round" stroke-linejoin="round"/>
<path d="M44.5 35C44.5 40.5226 40.0229 45.0001 34.5 45.0001C28.9771 45.0001 24.5 40.5226 24.5 35C24.5 29.4771 28.9771 25 34.5 25C40.0229 25 44.5 29.4771 44.5 35Z" stroke="#B4B4B4" stroke-width="3.5" stroke-linecap="round" stroke-linejoin="round"/>
</svg>
