<svg width="104" height="100" viewBox="0 0 104 100" fill="none" xmlns="http://www.w3.org/2000/svg">
<path d="M78.4706 97.1144V85.1756C78.4706 77.868 75.1806 70.7021 68.5312 67.6709C60.4206 63.9738 50.6935 61.8203 40.2353 61.8203C29.7772 61.8203 20.05 63.9738 11.9393 67.6709C5.28982 70.7021 2 77.868 2 85.1756V97.1144" stroke="#B4B4B4" stroke-width="3.5" stroke-linecap="round"/>
<path d="M102 97.144V85.2046C102 77.897 98.7098 70.7317 92.0604 67.7005C90.5275 67.0017 88.9363 66.3576 87.2939 65.7734" stroke="#B4B4B4" stroke-width="3.5" stroke-linecap="round"/>
<path d="M40.2352 44.1765C51.6058 44.1765 60.8234 34.9588 60.8234 23.5882C60.8234 12.2177 51.6058 3 40.2352 3C28.8646 3 19.647 12.2177 19.647 23.5882C19.647 34.9588 28.8646 44.1765 40.2352 44.1765Z" stroke="#B4B4B4" stroke-width="3.5" stroke-linecap="round"/>
<path d="M69.647 3.82812C78.1511 6.35918 84.3529 14.2372 84.3529 23.5638C84.3529 32.8903 78.1511 40.7685 69.647 43.2997" stroke="#B4B4B4" stroke-width="3.5" stroke-linecap="round"/>
</svg>
