<svg width="12" height="14" viewBox="0 0 12 14" fill="none" xmlns="http://www.w3.org/2000/svg">
<path fill-rule="evenodd" clip-rule="evenodd" d="M6.16279 1C7.93433 1 9.3721 2.43777 9.3721 4.2093C9.3721 5.98084 7.93433 7.4186 6.16279 7.4186C4.39126 7.4186 2.95349 5.98084 2.95349 4.2093C2.95349 2.43777 4.39126 1 6.16279 1ZM6.16279 1.83721C4.8534 1.83721 3.7907 2.89991 3.7907 4.2093C3.7907 5.5187 4.8534 6.5814 6.16279 6.5814C7.47219 6.5814 8.53489 5.5187 8.53489 4.2093C8.53489 2.89991 7.47219 1.83721 6.16279 1.83721Z" fill="#112D55" stroke="#112D55" stroke-width="0.1"/>
<path fill-rule="evenodd" clip-rule="evenodd" d="M11.3256 12.0228C11.3256 12.562 10.8886 12.9996 10.3488 12.9996H1.97674C1.43702 12.9996 1 12.562 1 12.0228C1 9.63401 2.93674 7.69727 5.32558 7.69727H7C9.38884 7.69727 11.3256 9.63401 11.3256 12.0228ZM10.9187 12.4297C10.9114 12.4325 10.907 12.4359 10.907 12.4415L10.9187 12.4297ZM1.83721 12.0228C1.83721 12.0999 1.89972 12.1624 1.97674 12.1624H10.3488C10.4253 12.1624 10.4873 12.101 10.4884 12.0228C10.4884 10.0961 8.9267 8.53447 7 8.53447H5.32558C3.39888 8.53447 1.83721 10.0961 1.83721 12.0228Z" fill="#112D55" stroke="#112D55" stroke-width="0.1"/>
</svg>
