<svg width="104" height="100" viewBox="0 0 104 100" fill="none" xmlns="http://www.w3.org/2000/svg">
<path d="M66.9999 30C66.9999 38.2842 60.2844 44.9999 52 44.9999C43.7155 44.9999 37 38.2842 37 30C37 21.7157 43.7155 15 52 15C60.2844 15 66.9999 21.7157 66.9999 30Z" stroke="#B4B4B4" stroke-width="3.5" stroke-linecap="round" stroke-linejoin="round"/>
<path d="M72 10C80.284 10 87 16.7157 87 25C87 31.1154 83.34 36.3761 78.0915 38.7114" stroke="#B4B4B4" stroke-width="3.5" stroke-linecap="round" stroke-linejoin="round"/>
<path d="M60.5715 60H43.4285C31.5939 60 22 69.594 22 81.4284C22 86.1624 25.8375 89.9999 30.5714 89.9999H73.4285C78.1624 89.9999 81.9999 86.1624 81.9999 81.4284C81.9999 69.594 72.406 60 60.5715 60Z" stroke="#B4B4B4" stroke-width="3.5" stroke-linecap="round" stroke-linejoin="round"/>
<path d="M80.5718 55C92.4062 55 102 64.594 102 76.4284C102 81.1624 98.1627 84.9999 93.4287 84.9999" stroke="#B4B4B4" stroke-width="3.5" stroke-linecap="round" stroke-linejoin="round"/>
<path d="M32 10C23.7157 10 17 16.7157 17 25C17 31.1154 20.6596 36.3761 25.9084 38.7114" stroke="#B4B4B4" stroke-width="3.5" stroke-linecap="round" stroke-linejoin="round"/>
<path d="M10.5714 84.9999C5.83754 84.9999 2 81.1624 2 76.4284C2 64.594 11.5939 55 23.4285 55" stroke="#B4B4B4" stroke-width="3.5" stroke-linecap="round" stroke-linejoin="round"/>
</svg>
