<svg width="16" height="16" viewBox="0 0 16 16" fill="none" xmlns="http://www.w3.org/2000/svg">
<path fill-rule="evenodd" clip-rule="evenodd" d="M13.0446 5.55342C12.7483 5.19778 12.3093 4.99219 11.8464 4.99219H4.28015C3.81719 4.99219 3.37825 5.19778 3.08188 5.55342C2.48383 6.27064 1.31925 7.66826 0.716832 8.39079C0.397063 8.77482 0.435123 9.3423 0.80356 9.67985C2.13536 10.9009 6.1214 14.5547 7.43042 15.7545C7.78825 16.0827 8.33732 16.0827 8.69515 15.7545C10.0042 14.5547 13.9902 10.9009 15.3223 9.67985C15.6905 9.3423 15.7285 8.77482 15.4087 8.39079L13.0446 5.55342ZM8.06279 14.9983L10.1131 9.35977H6.01252L8.06279 14.9983ZM8.79155 14.8199L14.748 9.35977H10.7769L8.79155 14.8199ZM7.33402 14.8199L5.34865 9.35977H1.37758L7.33402 14.8199ZM10.0223 5.61613L10.8022 8.73583H14.884L12.5651 5.95305C12.3873 5.73967 12.124 5.61613 11.8464 5.61613H10.0223ZM6.74659 5.61613L5.96666 8.73583H10.1589L9.37899 5.61613H6.74659ZM6.1033 5.61613H4.28015C4.00219 5.61613 3.73888 5.73936 3.56106 5.95274L1.24157 8.73583H5.32338L6.1033 5.61613Z" fill="black"/>
<path fill-rule="evenodd" clip-rule="evenodd" d="M5.58138 1.96614L7.65161 0.154305C7.88746 -0.0514351 8.23811 -0.0514351 8.47396 0.154305L10.5442 1.96614L11.9892 0.521314C12.1677 0.342976 12.436 0.289519 12.6693 0.3861C12.9021 0.482682 13.0543 0.710134 13.0543 0.962593V3.11972C13.0543 3.45065 12.9227 3.76809 12.6887 4.00213C12.4547 4.23602 12.1371 4.36749 11.8064 4.36749H4.31915C3.98846 4.36749 3.67087 4.23602 3.4369 4.00213C3.20292 3.76809 3.07127 3.45065 3.07127 3.11972V0.962593C3.07127 0.710134 3.22351 0.482682 3.45624 0.3861C3.68959 0.289519 3.95788 0.342976 4.13633 0.521314L5.58138 1.96614ZM8.06278 0.623885C7.29934 1.29198 6.53582 1.95998 5.7723 2.62798C5.64876 2.73609 5.46283 2.72996 5.34615 2.61376C5.34615 2.61376 4.34161 1.60901 3.69521 0.962592V3.11972C3.69521 3.28518 3.76072 3.44391 3.87802 3.56085C3.9947 3.67795 4.1538 3.74368 4.31915 3.74368H11.8064C11.9718 3.74368 12.1309 3.67795 12.2475 3.56085C12.3648 3.44391 12.4304 3.28519 12.4304 3.11972V0.962593L10.7794 2.61376C10.6627 2.72996 10.4768 2.73609 10.3533 2.62798L8.06278 0.623885Z" fill="black"/>
</svg>
