<svg width="16" height="16" viewBox="0 0 16 16" fill="none" xmlns="http://www.w3.org/2000/svg">
<g id="Group">
<path id="Vector" d="M10.5103 6.25725C9.89171 6.25725 9.28908 6.04105 8.81286 5.64805C8.61293 5.48316 8.31756 5.51132 8.15204 5.71126C7.52281 6.57265 9.90736 7.27165 10.5103 7.19593C12.4993 7.19593 14.1173 5.57765 14.1173 3.58892C14.0288 -0.633547 8.15266 -1.37698 7.01687 2.68654C6.8745 3.28698 7.76155 3.51602 7.92582 2.92058C8.76593 -0.0847356 13.1136 0.465953 13.1786 3.58892C13.1786 5.06013 11.9818 6.25725 10.5103 6.25725Z" fill="#747CFF"/>
<path id="Vector_2" d="M9.76374 13.0022C9.76374 13.2613 9.97369 13.4715 10.2331 13.4715H15.5309C15.7903 13.4715 16.0003 13.2613 16.0003 13.0022C15.999 7.91332 9.58195 5.57446 6.3113 9.46589C5.923 9.94524 6.62262 10.5353 7.02907 10.0707C9.59478 7.00187 14.6467 8.58823 15.0378 12.5325H10.2331C9.974 12.5328 9.76374 12.7431 9.76374 13.0022Z" fill="#747CFF"/>
<path id="Vector_3" d="M1.88232 5.23605C1.88232 7.22479 3.50028 8.84306 5.48933 8.84306C10.275 8.64469 10.2734 1.82585 5.48933 1.62842C3.50028 1.62842 1.88232 3.24669 1.88232 5.23605ZM8.15798 5.23605C8.15798 6.70727 6.96086 7.90439 5.48933 7.90439C1.94928 7.75764 1.95053 2.71321 5.48933 2.56709C6.96086 2.56709 8.15798 3.76421 8.15798 5.23605Z" fill="#747CFF"/>
<path id="Vector_4" d="M0.469337 15.1185H10.5103C10.7697 15.1185 10.9797 14.9082 10.9797 14.6492C10.6777 7.36538 0.300063 7.36851 0 14.6492C0 14.9086 0.20995 15.1185 0.469337 15.1185ZM5.48967 10.0982C7.84074 10.0982 9.78129 11.8904 10.0169 14.1801H0.962453C1.19806 11.8901 3.13861 10.0982 5.48967 10.0982Z" fill="#747CFF"/>
</g>
</svg>
