<svg width="16" height="16" viewBox="0 0 16 16" fill="none" xmlns="http://www.w3.org/2000/svg">
<mask id="mask0_181_993" style="mask-type:luminance" maskUnits="userSpaceOnUse" x="0" y="0" width="16" height="16">
<path d="M16 0H0V16H16V0Z" fill="white"/>
</mask>
<g mask="url(#mask0_181_993)">
<path d="M8.74404 4.27874C8.74424 4.8677 8.56973 5.44349 8.2426 5.93325C7.91547 6.42301 7.45042 6.80474 6.90629 7.03012C6.36216 7.25551 5.76339 7.31443 5.18577 7.19943C4.60814 7.08444 4.0776 6.80069 3.66128 6.38408C3.24495 5.96748 2.96156 5.43675 2.84695 4.85905C2.73234 4.28134 2.79166 3.68262 3.01742 3.13864C3.24317 2.59466 3.62521 2.12986 4.11519 1.80306C4.60517 1.47626 5.18108 1.30214 5.77004 1.30274C6.5589 1.30353 7.31519 1.61739 7.87281 2.17539C8.43042 2.73338 8.74378 3.48988 8.74404 4.27874Z" stroke="#000000" stroke-width="1.2"/>
<path d="M10.2329 7.25623C10.6284 7.26348 11.0213 7.19185 11.3888 7.04552C11.7563 6.8992 12.0909 6.68111 12.3731 6.40399C12.6554 6.12688 12.8796 5.7963 13.0326 5.43157C13.1856 5.06684 13.2645 4.67527 13.2645 4.27973C13.2645 3.8842 13.1856 3.49263 13.0326 3.1279C12.8796 2.76316 12.6554 2.43259 12.3731 2.15548C12.0909 1.87836 11.7563 1.66027 11.3888 1.51395C11.0213 1.36762 10.6284 1.29599 10.2329 1.30323" stroke="#000000" stroke-width="1.2" stroke-linecap="round" stroke-linejoin="round"/>
<path d="M7.25611 9.48828H4.27911C3.29224 9.48828 2.34578 9.88031 1.64796 10.5781C0.950138 11.276 0.558105 12.2224 0.558105 13.2093C0.558105 13.6039 0.714876 13.9824 0.993931 14.2615C1.27298 14.5405 1.65146 14.6973 2.04611 14.6973H9.48811C9.88275 14.6973 10.2612 14.5405 10.5403 14.2615C10.8193 13.9824 10.9761 13.6039 10.9761 13.2093C10.9761 12.2226 10.5842 11.2763 9.8866 10.5785C9.189 9.8807 8.2428 9.48855 7.25611 9.48828Z" stroke="#000000" stroke-width="1.2" stroke-linejoin="round"/>
<path d="M11.7212 9.48828C12.7081 9.48828 13.6545 9.88031 14.3523 10.5781C15.0502 11.276 15.4422 12.2224 15.4422 13.2093C15.4422 13.6039 15.2854 13.9824 15.0064 14.2615C14.7273 14.5405 14.3488 14.6973 13.9542 14.6973H12.8372" stroke="#000000" stroke-width="1.2" stroke-linecap="round" stroke-linejoin="round"/>
</g>
</svg>
