<svg width="16" height="16" viewBox="0 0 16 16" fill="none" xmlns="http://www.w3.org/2000/svg">
<g clip-path="url(#clip0_8230_4086)">
<path d="M1.33337 11.9987C1.33337 10.9718 1.33337 10.4582 1.56453 10.081C1.69387 9.86996 1.87133 9.6925 2.08239 9.56316C2.4596 9.33203 2.97308 9.33203 4.00004 9.33203C5.027 9.33203 5.54048 9.33203 5.91769 9.56316C6.12875 9.6925 6.30621 9.86996 6.43555 10.081C6.66671 10.4582 6.66671 10.9718 6.66671 11.9987C6.66671 13.0256 6.66671 13.5392 6.43555 13.9164C6.30621 14.1274 6.12875 14.3049 5.91769 14.4342C5.54048 14.6654 5.027 14.6654 4.00004 14.6654C2.97308 14.6654 2.4596 14.6654 2.08239 14.4342C1.87133 14.3049 1.69387 14.1274 1.56453 13.9164C1.33337 13.5392 1.33337 13.0256 1.33337 11.9987Z" stroke="#000000" stroke-width="1.5"/>
<path d="M9.33337 11.9987C9.33337 10.9718 9.33337 10.4582 9.56451 10.081C9.69384 9.86996 9.87131 9.6925 10.0824 9.56316C10.4596 9.33203 10.9731 9.33203 12 9.33203C13.027 9.33203 13.5405 9.33203 13.9177 9.56316C14.1288 9.6925 14.3062 9.86996 14.4356 10.081C14.6667 10.4582 14.6667 10.9718 14.6667 11.9987C14.6667 13.0256 14.6667 13.5392 14.4356 13.9164C14.3062 14.1274 14.1288 14.3049 13.9177 14.4342C13.5405 14.6654 13.027 14.6654 12 14.6654C10.9731 14.6654 10.4596 14.6654 10.0824 14.4342C9.87131 14.3049 9.69384 14.1274 9.56451 13.9164C9.33337 13.5392 9.33337 13.0256 9.33337 11.9987Z" stroke="#000000" stroke-width="1.5"/>
<path d="M1.33337 3.9987C1.33337 2.97174 1.33337 2.45826 1.56453 2.08105C1.69387 1.86998 1.87133 1.69252 2.08239 1.56318C2.4596 1.33203 2.97308 1.33203 4.00004 1.33203C5.027 1.33203 5.54048 1.33203 5.91769 1.56318C6.12875 1.69252 6.30621 1.86998 6.43555 2.08105C6.66671 2.45826 6.66671 2.97174 6.66671 3.9987C6.66671 5.02566 6.66671 5.53914 6.43555 5.91634C6.30621 6.12741 6.12875 6.30487 5.91769 6.43421C5.54048 6.66536 5.027 6.66536 4.00004 6.66536C2.97308 6.66536 2.4596 6.66536 2.08239 6.43421C1.87133 6.30487 1.69387 6.12741 1.56453 5.91634C1.33337 5.53914 1.33337 5.02566 1.33337 3.9987Z" stroke="#000000" stroke-width="1.5"/>
<path d="M9.33337 3.9987C9.33337 2.97174 9.33337 2.45826 9.56451 2.08105C9.69384 1.86998 9.87131 1.69252 10.0824 1.56318C10.4596 1.33203 10.9731 1.33203 12 1.33203C13.027 1.33203 13.5405 1.33203 13.9177 1.56318C14.1288 1.69252 14.3062 1.86998 14.4356 2.08105C14.6667 2.45826 14.6667 2.97174 14.6667 3.9987C14.6667 5.02566 14.6667 5.53914 14.4356 5.91634C14.3062 6.12741 14.1288 6.30487 13.9177 6.43421C13.5405 6.66536 13.027 6.66536 12 6.66536C10.9731 6.66536 10.4596 6.66536 10.0824 6.43421C9.87131 6.30487 9.69384 6.12741 9.56451 5.91634C9.33337 5.53914 9.33337 5.02566 9.33337 3.9987Z" stroke="#000000" stroke-width="1.5"/>
</g>
<defs>
<clipPath id="clip0_8230_4086">
<rect width="16" height="16" fill="white"/>
</clipPath>
</defs>
</svg>
