<svg width="13" height="4" viewBox="0 0 13 4" fill="none" xmlns="http://www.w3.org/2000/svg">
<g opacity="0.3">
<path d="M12.1985 0.570225C11.5805 -0.0478633 10.5783 -0.0478633 9.96024 0.570225C9.34215 1.18831 9.34215 2.19044 9.96024 2.80853C10.5783 3.42662 11.5805 3.42662 12.1985 2.80853C12.8166 2.19046 12.8166 1.18834 12.1985 0.570225Z" fill="#030229"/>
<path d="M7.4505 0.570225C6.83241 -0.0478633 5.83028 -0.0478633 5.21219 0.570225C4.5941 1.18831 4.5941 2.19044 5.21219 2.80853C5.83028 3.42662 6.83241 3.42662 7.4505 2.80853C8.06858 2.19046 8.06858 1.18834 7.4505 0.570225Z" fill="#030229"/>
<path d="M2.7022 0.570225C2.08412 -0.0478633 1.08199 -0.0478633 0.463899 0.570225C-0.15419 1.18831 -0.15419 2.19044 0.463899 2.80853C1.08199 3.42662 2.08412 3.42662 2.7022 2.80853C3.32029 2.19046 3.32029 1.18834 2.7022 0.570225Z" fill="#030229"/>
</g>
</svg>
