<svg width="183" height="40" viewBox="0 0 183 40" fill="none" xmlns="http://www.w3.org/2000/svg">
<g id="Group 2488">
<g id="Group 2487">
<line id="Line 38" x1="29" y1="19.5" x2="143" y2="19.5" stroke="#2FACD6" stroke-dasharray="2 2"/>
<g id="Group">
<path id="Vector" fill-rule="evenodd" clip-rule="evenodd" d="M86 13C82.1391 13 79 16.1391 79 20C79 23.8609 82.1391 27 86 27C89.8609 27 93 23.8609 93 20C93 16.1391 89.8609 13 86 13Z" fill="#078E05"/>
<path id="Vector_2" fill-rule="evenodd" clip-rule="evenodd" d="M89.3853 17.6399C89.5548 17.8095 89.5548 18.0884 89.3853 18.2579L85.2837 22.3595C85.1989 22.4442 85.0868 22.488 84.9747 22.488C84.8626 22.488 84.7505 22.4442 84.6657 22.3595L82.6149 20.3087C82.4454 20.1392 82.4454 19.8603 82.6149 19.6907C82.7845 19.5212 83.0634 19.5212 83.2329 19.6907L84.9747 21.4325L88.7673 17.6399C88.9368 17.4677 89.2157 17.4677 89.3853 17.6399Z" fill="white"/>
</g>
</g>
<g id="Group 2291">
<path id="Vector_3" d="M28.9687 10.9531V37.4219C28.9687 38.8438 27.8125 40 26.3906 40H2.57812C1.15625 40 0 38.8438 0 37.4219V2.57812C0 1.15625 1.15625 0 2.57812 0H18.0156L28.9687 10.9531Z" fill="#2FACD6"/>
<g id="Group_2">
<path id="Vector_4" d="M7.07812 20.0859H21.8906V21.7344H7.07812V20.0859Z" fill="white"/>
<path id="Vector_5" d="M7.07812 23.7578H21.8906V25.4063H7.07812V23.7578Z" fill="white"/>
<path id="Vector_6" d="M7.07812 27.4375H21.8906V29.0859H7.07812V27.4375Z" fill="white"/>
<path id="Vector_7" d="M7.07812 31.1094H17.6172V32.7578H7.07812V31.1094Z" fill="white"/>
</g>
<path id="Vector_8" opacity="0.19" d="M19.5078 10.5391L28.9688 18.2031V11L23.6094 7.89062L19.5078 10.5391Z" fill="#176884"/>
<path id="Vector_9" d="M28.9687 10.9531H20.5938C19.1719 10.9531 18.0156 9.79688 18.0156 8.375V0L28.9687 10.9531Z" fill="#177291"/>
</g>
<path id="Vector_10" d="M173.102 31.0654C176.756 31.2647 180.049 28.8682 180.988 25.3259C181.811 21.5093 179.982 18.9446 175.807 16.5018C174.5 15.7384 174.434 15.0663 174.556 14.5169C174.618 14.0286 175.105 13.5707 176.05 13.5707C177.139 13.7248 178.123 14.2946 178.795 15.1586L183 11.4334C182.121 10.3514 181.006 9.48151 179.738 8.8892C178.471 8.29688 177.085 7.9976 175.685 8.0139C172.274 7.80341 169.178 10.0025 168.247 13.2956C167.455 16.8684 169.253 19.6767 173.215 22.0198C174.679 22.9051 174.831 23.6372 174.709 24.3093C174.629 24.6672 174.421 24.9845 174.125 25.2031C173.828 25.4218 173.462 25.5272 173.094 25.5003C170.96 25.5003 169.284 23.027 169.284 23.027L164.894 26.3939C165.729 27.8188 166.927 29.0005 168.368 29.8204C169.809 30.6404 171.441 31.0697 173.102 31.0654ZM162.423 20.2768H151.032C150.828 20.2417 150.643 20.136 150.51 19.9785C150.377 19.821 150.304 19.6219 150.305 19.4164C150.305 18.9908 150.612 18.6261 151.032 18.556H162.423C162.843 18.6261 163.151 18.9899 163.151 19.4164C163.151 19.8429 162.844 20.2067 162.423 20.2768ZM164.34 9.94801H151.149C150.993 9.95544 150.838 9.92049 150.701 9.84696C150.563 9.77343 150.449 9.66409 150.369 9.53072C150.289 9.39663 150.247 9.24355 150.247 9.08759C150.247 8.93163 150.289 8.77855 150.369 8.64445C150.449 8.51094 150.563 8.40151 150.701 8.32797C150.839 8.25443 150.994 8.21957 151.15 8.22716H164.34C164.496 8.21957 164.651 8.25443 164.788 8.32797C164.926 8.40151 165.041 8.51094 165.12 8.64445C165.2 8.77855 165.243 8.93163 165.243 9.08759C165.243 9.24355 165.2 9.39663 165.12 9.53072C165.041 9.66438 164.926 9.7739 164.788 9.84745C164.65 9.921 164.496 9.95577 164.34 9.94801ZM161.002 15.1124H143.817C143.595 15.1001 143.387 15.004 143.235 14.8439C143.083 14.6838 142.999 14.4719 143 14.252C142.999 14.032 143.083 13.8202 143.235 13.6601C143.387 13.5 143.595 13.4039 143.817 13.3916H161.002C161.223 13.4039 161.431 13.5 161.583 13.6601C161.735 13.8202 161.819 14.032 161.819 14.252C161.819 14.4719 161.735 14.6838 161.583 14.8439C161.431 15.004 161.223 15.1001 161.002 15.1124Z" fill="#2FACD6"/>
</g>
</svg>
