<svg width="14" height="14" viewBox="0 0 14 14" fill="none" xmlns="http://www.w3.org/2000/svg">
<g id="02 User">
<path id="Vector" d="M0.683709 13.9998C0.548491 13.9999 0.416303 13.9598 0.303865 13.8847C0.191427 13.8096 0.103791 13.7028 0.052042 13.5779C0.000292823 13.4529 -0.0132446 13.3155 0.0131421 13.1829C0.0395288 13.0502 0.104654 12.9284 0.20028 12.8328L12.8329 0.200243C12.9611 0.0720295 13.135 0 13.3163 0C13.4976 0 13.6715 0.0720295 13.7997 0.200243C13.9279 0.328456 14 0.50235 14 0.683671C14 0.864992 13.9279 1.03889 13.7997 1.1671L1.16714 13.7997C1.10371 13.8632 1.02835 13.9136 0.945392 13.948C0.86243 13.9823 0.7735 14 0.683709 13.9998Z" fill="#112D55"/>
<path id="Vector_2" d="M13.3163 13.9998C13.2265 14 13.1375 13.9823 13.0546 13.948C12.9716 13.9136 12.8962 13.8632 12.8328 13.7997L0.200243 1.1671C0.0720295 1.03889 0 0.864992 0 0.683671C0 0.50235 0.0720295 0.328456 0.200243 0.200243C0.328456 0.0720295 0.50235 0 0.683671 0C0.864992 0 1.03889 0.0720295 1.1671 0.200243L13.7997 12.8328C13.8953 12.9284 13.9604 13.0502 13.9868 13.1829C14.0132 13.3155 13.9997 13.4529 13.9479 13.5779C13.8962 13.7028 13.8085 13.8096 13.6961 13.8847C13.5837 13.9598 13.4515 13.9999 13.3163 13.9998Z" fill="#112D55"/>
</g>
</svg>
