<svg width="120" height="60" viewBox="0 0 120 60" fill="none" xmlns="http://www.w3.org/2000/svg">
<path d="M13.875 18.2258L15.825 42.9758H104.1L105.075 16.0508L13.875 18.2258Z" fill="black"/>
<path d="M33.9 37.2754V29.7004C33.9 28.5004 33.825 27.8254 33.075 27.8254C32.25 27.8254 31.5 29.1004 31.5 30.9004V37.3504H27.675V29.7004C27.675 28.5004 27.6 27.8254 26.85 27.8254C26.025 27.8254 25.275 29.1004 25.275 30.9754V37.2754H21.45V30.9754C21.45 27.1504 20.1 25.8754 20.1 25.8754L23.175 24.9004C23.175 24.9004 23.925 25.7254 24.225 27.1504C25.05 25.6504 26.475 24.9004 28.2 24.9004C29.625 24.9004 30.525 25.5004 30.975 26.4754C31.8 25.2754 33 24.9004 34.5 24.9004C36.975 24.9004 37.8 26.6254 37.8 29.1004V37.2754H34.05H33.9Z" fill="white"/>
<path d="M50.9247 31.0502C50.9247 34.7252 49.0497 37.5002 45.2247 37.5002C41.3997 37.5002 39.6747 35.1752 39.6747 31.3502C39.6747 27.6752 41.5497 24.9002 45.3747 24.9002C49.2747 24.8252 50.9247 27.1502 50.9247 31.0502Z" fill="white"/>
<path d="M65.8497 37.2754V29.7004C65.8497 28.5004 65.7747 27.8254 65.0247 27.8254C64.1997 27.8254 63.4497 29.1004 63.4497 30.9004V37.3504H59.6247V29.7004C59.6247 28.5004 59.5497 27.8254 58.7997 27.8254C57.9747 27.8254 57.2247 29.1004 57.2247 30.9754V37.2754H53.3997V30.9754C53.3997 27.1504 52.0497 25.8754 52.0497 25.8754L55.1247 24.9004C55.1247 24.9004 55.8747 25.7254 56.1747 27.1504C56.9997 25.6504 58.4247 24.9004 60.1497 24.9004C61.5747 24.9004 62.4747 25.5004 62.9247 26.4754C63.7497 25.2754 64.9497 24.9004 66.4497 24.9004C68.9247 24.9004 69.7497 26.6254 69.7497 29.1004V37.2754H65.9997H65.8497Z" fill="white"/>
<path d="M71.775 34.5758V25.0508H75.6V33.4508C75.6 34.2008 75.9 34.4258 76.35 34.4258C76.65 34.4258 76.875 34.3508 76.95 34.3508L77.325 36.7508C77.25 36.8258 76.275 37.3508 74.925 37.3508C73.05 37.4258 71.775 36.3008 71.775 34.5758Z" fill="white"/>
<path d="M86.1 28.5008C85.725 28.0508 85.35 27.6758 84.675 27.6758C83.85 27.6758 82.65 27.9758 82.65 31.0508C82.65 34.1258 84 34.5758 85.05 34.5758C85.875 34.5758 87 34.1258 87.075 34.1258L87.825 36.6008C87.825 36.6008 86.4 37.4258 84.225 37.4258C80.25 37.4258 78.6 35.0258 78.6 31.4258C78.6 27.0008 81.075 24.6758 84.525 24.6758C86.1 24.6758 87.3 25.4258 88.05 26.4008L86.1 28.5008Z" fill="white"/>
<path d="M94.875 24.8262C97.95 24.8262 99.075 26.4012 99.075 28.5012C99.075 30.8262 96.675 32.7012 92.775 33.0012C93.075 33.9762 93.6 34.5762 94.725 34.5762C96.15 34.5762 98.25 33.7512 98.25 33.7512L99 36.2262C99 36.2262 96.75 37.2762 94.275 37.2762C90.3 37.2762 88.725 34.8762 88.725 31.2762C88.8 27.1512 91.5 24.8262 94.875 24.8262Z" fill="white"/>
</svg>
