<svg width="14" height="14" viewBox="0 0 14 14" fill="none" xmlns="http://www.w3.org/2000/svg">
<path fill-rule="evenodd" clip-rule="evenodd" d="M6.67398 12.3806H1.10723C1.07273 12.3803 1.03973 12.3665 1.01536 12.3421C0.990952 12.3177 0.977122 12.2847 0.976861 12.2502V11.3048C0.976861 10.7646 1.36314 10.2877 1.9581 9.88263C3.0207 9.15731 4.74038 8.70147 6.67398 8.70147C6.80352 8.70147 6.92775 8.65001 7.01935 8.55841C7.11095 8.46681 7.16241 8.34258 7.16241 8.21304C7.16241 8.0835 7.11095 7.95927 7.01935 7.86767C6.92775 7.77607 6.80352 7.72461 6.67398 7.72461C4.51115 7.72461 2.59592 8.26575 1.40733 9.07638C0.498711 9.69452 0 10.4806 0 11.3048V12.2498C0.00011594 12.5433 0.116761 12.8247 0.324299 13.0322C0.531837 13.2398 0.813285 13.3564 1.10679 13.3565H6.67398C6.80352 13.3565 6.92775 13.3051 7.01935 13.2135C7.11095 13.1219 7.16241 12.9977 7.16241 12.8681C7.16241 12.7386 7.11095 12.6143 7.01935 12.5227C6.92775 12.4311 6.80352 12.3797 6.67398 12.3797V12.3806Z" fill="#717171"/>
<path fill-rule="evenodd" clip-rule="evenodd" d="M6.67377 1.06924e-07C5.96548 -0.000172937 5.27304 0.209696 4.68403 0.603068C4.09501 0.996439 3.63588 1.55564 3.36469 2.20996C3.09349 2.86428 3.02243 3.58432 3.16047 4.27903C3.29851 4.97374 3.63947 5.61192 4.14021 6.11285C4.64096 6.61378 5.27901 6.95496 5.97367 7.09326C6.66833 7.23156 7.38839 7.16075 8.04281 6.8898C8.69723 6.61885 9.2566 6.15992 9.65019 5.57105C10.0438 4.98218 10.2539 4.28982 10.254 3.58153C10.2538 2.63195 9.87652 1.72131 9.20519 1.04973C8.53386 0.378147 7.62335 0.00057987 6.67377 1.06924e-07ZM6.67377 0.976861C7.18884 0.976861 7.69234 1.1296 8.1206 1.41575C8.54887 1.70191 8.88266 2.10864 9.07977 2.5845C9.27687 3.06036 9.32845 3.58398 9.22796 4.08915C9.12748 4.59433 8.87945 5.05836 8.51524 5.42256C8.15103 5.78677 7.687 6.0348 7.18183 6.13529C6.67666 6.23577 6.15303 6.1842 5.67717 5.98709C5.20131 5.78998 4.79458 5.45619 4.50843 5.02793C4.22227 4.59966 4.06953 4.09616 4.06953 3.58109C4.06988 2.89052 4.34437 2.22832 4.83268 1.74001C5.32099 1.25169 5.98319 0.977209 6.67377 0.976861Z" fill="#717171"/>
<path fill-rule="evenodd" clip-rule="evenodd" d="M10.5808 8.26172C10.1222 8.26172 9.67394 8.3977 9.29265 8.65247C8.91136 8.90723 8.61419 9.26935 8.4387 9.69301C8.26321 10.1167 8.2173 10.5829 8.30676 11.0326C8.39622 11.4824 8.61704 11.8955 8.9413 12.2198C9.26556 12.544 9.67869 12.7648 10.1284 12.8543C10.5782 12.9438 11.0444 12.8979 11.4681 12.7224C11.8917 12.5469 12.2538 12.2497 12.5086 11.8684C12.7634 11.4871 12.8993 11.0389 12.8993 10.5803C12.8993 9.96536 12.6551 9.37563 12.2203 8.94081C11.7854 8.506 11.1957 8.26172 10.5808 8.26172ZM10.5808 9.23858C10.8464 9.23867 11.106 9.31752 11.3268 9.46516C11.5477 9.61281 11.7197 9.82261 11.8213 10.0681C11.9229 10.3135 11.9494 10.5835 11.8975 10.844C11.8456 11.1045 11.7176 11.3438 11.5297 11.5316C11.3418 11.7193 11.1025 11.8472 10.8419 11.8989C10.5814 11.9506 10.3114 11.9239 10.066 11.8222C9.82061 11.7205 9.61092 11.5483 9.46342 11.3274C9.31591 11.1065 9.23723 10.8468 9.23732 10.5812C9.23755 10.225 9.37918 9.88343 9.63109 9.6316C9.883 9.37978 10.2246 9.23826 10.5808 9.23814V9.23858Z" fill="#717171"/>
<path fill-rule="evenodd" clip-rule="evenodd" d="M11.0689 8.74902V7.65054C11.0689 7.521 11.0174 7.39677 10.9258 7.30517C10.8342 7.21357 10.71 7.16211 10.5805 7.16211C10.4509 7.16211 10.3267 7.21357 10.2351 7.30517C10.1435 7.39677 10.092 7.521 10.092 7.65054V8.74945C10.092 8.87899 10.1435 9.00323 10.2351 9.09483C10.3267 9.18642 10.4509 9.23788 10.5805 9.23788C10.71 9.23788 10.8342 9.18642 10.9258 9.09483C11.0174 9.00323 11.0689 8.87856 11.0689 8.74902Z" fill="#717171"/>
<path fill-rule="evenodd" clip-rule="evenodd" d="M12.2229 9.63136L12.9976 8.85442C13.0864 8.76232 13.1355 8.63904 13.1344 8.5111C13.1332 8.38317 13.0819 8.2608 12.9914 8.17034C12.9009 8.07987 12.7786 8.02853 12.6506 8.02736C12.5227 8.0262 12.3994 8.0753 12.3073 8.1641L11.5304 8.94191C11.4412 9.0342 11.3919 9.15787 11.3931 9.28621C11.3943 9.41455 11.446 9.53726 11.537 9.62781C11.6279 9.71836 11.7508 9.7695 11.8792 9.77016C12.0075 9.77082 12.131 9.72097 12.2229 9.63136Z" fill="#717171"/>
<path fill-rule="evenodd" clip-rule="evenodd" d="M12.4115 11.0706H13.5104C13.64 11.0706 13.7642 11.0192 13.8558 10.9276C13.9474 10.836 13.9989 10.7117 13.9989 10.5822C13.9989 10.4526 13.9474 10.3284 13.8558 10.2368C13.7642 10.1452 13.64 10.0938 13.5104 10.0938H12.4115C12.282 10.0938 12.1578 10.1452 12.0662 10.2368C11.9746 10.3284 11.9231 10.4526 11.9231 10.5822C11.9231 10.7117 11.9746 10.836 12.0662 10.9276C12.1578 11.0192 12.282 11.0706 12.4115 11.0706Z" fill="#717171"/>
<path fill-rule="evenodd" clip-rule="evenodd" d="M11.5304 12.2226L12.3078 12.9996C12.3999 13.0884 12.5231 13.1375 12.6511 13.1363C12.779 13.1352 12.9014 13.0838 12.9918 12.9934C13.0823 12.9029 13.1337 12.7805 13.1348 12.6526C13.136 12.5247 13.0869 12.4014 12.9981 12.3093L12.2229 11.5301C12.1774 11.4847 12.1234 11.4486 12.064 11.424C12.0046 11.3994 11.9409 11.3867 11.8766 11.3867C11.8123 11.3867 11.7487 11.3994 11.6892 11.424C11.6298 11.4486 11.5759 11.4847 11.5304 11.5301C11.4849 11.5756 11.4488 11.6296 11.4242 11.689C11.3996 11.7484 11.387 11.8121 11.387 11.8764C11.387 11.9407 11.3996 12.0044 11.4242 12.0638C11.4488 12.1232 11.4849 12.1772 11.5304 12.2226Z" fill="#717171"/>
<path fill-rule="evenodd" clip-rule="evenodd" d="M10.092 12.4123V13.5112C10.092 13.6407 10.1435 13.7649 10.2351 13.8565C10.3267 13.9481 10.4509 13.9996 10.5805 13.9996C10.71 13.9996 10.8342 13.9481 10.9258 13.8565C11.0174 13.7649 11.0689 13.6407 11.0689 13.5112V12.4123C11.0689 12.2827 11.0174 12.1585 10.9258 12.0669C10.8342 11.9753 10.71 11.9238 10.5805 11.9238C10.4509 11.9238 10.3267 11.9753 10.2351 12.0669C10.1435 12.1585 10.092 12.2827 10.092 12.4123Z" fill="#717171"/>
<path fill-rule="evenodd" clip-rule="evenodd" d="M8.94171 11.5299L8.16477 12.3073C8.0803 12.4001 8.03481 12.5218 8.03773 12.6473C8.04066 12.7727 8.09178 12.8922 8.18048 12.981C8.26919 13.0698 8.38867 13.121 8.51412 13.124C8.63957 13.127 8.76136 13.0815 8.85422 12.9971L9.63116 12.2224C9.72076 12.1305 9.77062 12.007 9.76996 11.8787C9.76929 11.7504 9.71816 11.6274 9.62761 11.5365C9.53705 11.4455 9.41435 11.3938 9.28601 11.3926C9.15767 11.3914 9.034 11.4407 8.94171 11.5299Z" fill="#717171"/>
<path fill-rule="evenodd" clip-rule="evenodd" d="M8.7495 10.0938H7.65103C7.52149 10.0938 7.39725 10.1452 7.30566 10.2368C7.21406 10.3284 7.1626 10.4526 7.1626 10.5822C7.1626 10.7117 7.21406 10.836 7.30566 10.9276C7.39725 11.0192 7.52149 11.0706 7.65103 11.0706H8.7495C8.87904 11.0706 9.00328 11.0192 9.09488 10.9276C9.18648 10.836 9.23793 10.7117 9.23793 10.5822C9.23793 10.4526 9.18648 10.3284 9.09488 10.2368C9.00328 10.1452 8.87904 10.0938 8.7495 10.0938Z" fill="#717171"/>
<path fill-rule="evenodd" clip-rule="evenodd" d="M9.63136 8.94191L8.85442 8.1641C8.76232 8.0753 8.63904 8.0262 8.5111 8.02736C8.38317 8.02853 8.2608 8.07987 8.17034 8.17034C8.07987 8.2608 8.02853 8.38317 8.02736 8.5111C8.0262 8.63904 8.0753 8.76232 8.1641 8.85442L8.94191 9.63136C9.03524 9.71275 9.15599 9.75567 9.27975 9.75144C9.4035 9.74722 9.52104 9.69617 9.6086 9.6086C9.69617 9.52104 9.74722 9.4035 9.75144 9.27975C9.75567 9.15599 9.71275 9.03524 9.63136 8.94191Z" fill="#717171"/>
</svg>
