<svg width="16" height="16" viewBox="0 0 16 16" fill="none" xmlns="http://www.w3.org/2000/svg">
<path d="M4.00742 4.63336C4.00742 3.57054 4.42962 2.55124 5.18115 1.79971C5.93268 1.04818 6.95198 0.625977 8.0148 0.625977C8.54106 0.625977 9.06216 0.72963 9.54836 0.93102C10.0346 1.13241 10.4763 1.42759 10.8484 1.79971C11.2206 2.17183 11.5158 2.6136 11.7171 3.0998C11.9185 3.586 12.0222 4.1071 12.0222 4.63336C12.0222 5.69619 11.6 6.71548 10.8484 7.46701C10.0969 8.21854 9.07763 8.64075 8.0148 8.64075C6.95198 8.64075 5.93268 8.21854 5.18115 7.46701C4.42962 6.71548 4.00742 5.69619 4.00742 4.63336Z" stroke="#000000" stroke-miterlimit="10" stroke-linecap="round" stroke-linejoin="round"/>
<path d="M12.5896 9.54925C13.2268 9.82445 13.8189 10.1941 14.3459 10.6459C14.679 10.9393 14.9457 11.3005 15.1283 11.7052C15.3108 12.11 15.4049 12.549 15.4043 12.9929V14.1511C15.4043 14.4834 15.2723 14.8021 15.0374 15.037C14.8024 15.272 14.4837 15.404 14.1514 15.404H1.87817C1.54587 15.404 1.22719 15.272 0.992218 15.037C0.75725 14.8021 0.625247 14.4834 0.625247 14.1511V12.9929C0.624668 12.549 0.718778 12.11 0.901299 11.7052C1.08382 11.3005 1.35056 10.9393 1.68371 10.6459C3.48374 9.23779 5.73111 8.52596 8.01356 8.64094" stroke="#000000" stroke-miterlimit="10" stroke-linecap="round"/>
</svg>
