<svg width="14" height="14" viewBox="0 0 14 14" fill="none" xmlns="http://www.w3.org/2000/svg">
    <mask id="mask0_840_2320" style="mask-type:luminance" maskUnits="userSpaceOnUse" x="0" y="0" width="14" height="14">
    <path d="M14 0H0V14H14V0Z" fill="white"/>
    </mask>
    <g mask="url(#mask0_840_2320)">
    <path fill-rule="evenodd" clip-rule="evenodd" d="M6.51839 0.299384C6.58231 0.171731 6.6943 0.0746804 6.82974 0.0295599C6.96519 -0.0155605 7.113 -0.00505821 7.24071 0.0587587L12.9842 2.93051C13.0736 2.97523 13.1487 3.04393 13.2012 3.12892C13.2538 3.21391 13.2816 3.31184 13.2817 3.41176C13.2503 5.58833 12.7289 7.72985 11.7561 9.6772C10.7538 11.6582 9.22258 13.3876 7.14752 13.9804C7.05087 14.0081 6.94842 14.0081 6.85177 13.9804C4.77671 13.3876 3.24546 11.6582 2.24314 9.6772C1.27053 7.72982 0.749239 5.58829 0.718018 3.41176C0.718082 3.31184 0.745942 3.21391 0.798481 3.12892C0.851021 3.04393 0.926167 2.97523 1.01552 2.93051L3.88771 1.49245C3.95125 1.45714 4.02129 1.43507 4.09359 1.42755C4.1659 1.42004 4.23898 1.42724 4.30843 1.44873C4.37787 1.47021 4.44225 1.50553 4.49769 1.55256C4.55312 1.59959 4.59846 1.65736 4.63097 1.72238C4.66348 1.7874 4.68249 1.85833 4.68685 1.93089C4.69122 2.00346 4.68085 2.07615 4.65636 2.1446C4.63188 2.21305 4.5938 2.27583 4.5444 2.32917C4.49501 2.38251 4.43533 2.42529 4.36896 2.45495L1.80039 3.74207C1.88094 5.63727 2.35944 7.4943 3.20477 9.19245C4.11039 10.9827 5.39927 12.384 7.00008 12.9011C8.60089 12.3836 9.88977 10.9823 10.7958 9.19245C11.6409 7.49454 12.1192 5.63782 12.1998 3.74295L6.75946 1.0217C6.6318 0.957777 6.53475 0.84579 6.48963 0.710347C6.44451 0.574904 6.45458 0.427087 6.51839 0.299384ZM9.89371 4.8262C9.94372 4.87621 9.9834 4.93558 10.0105 5.00093C10.0375 5.06627 10.0515 5.13631 10.0515 5.20704C10.0515 5.27777 10.0375 5.34781 10.0105 5.41315C9.9834 5.4785 9.94372 5.53787 9.89371 5.58788L6.66277 8.81882C6.56178 8.9197 6.42488 8.97637 6.28214 8.97637C6.1394 8.97637 6.0025 8.9197 5.90152 8.81882L4.82439 7.7417C4.72698 7.63997 4.67329 7.50414 4.67483 7.3633C4.67638 7.22246 4.73303 7.08784 4.83265 6.98827C4.93227 6.88871 5.06693 6.83213 5.20777 6.83067C5.34861 6.82921 5.48441 6.88297 5.58608 6.98045L6.28214 7.67651L9.13202 4.82663C9.233 4.72575 9.3699 4.66909 9.51264 4.66909C9.65538 4.66909 9.79228 4.72575 9.89327 4.82663L9.89371 4.8262Z" fill="#717171"/>
    </g>
    </svg>
    