<svg width="32" height="32" viewBox="0 0 32 32" fill="none" xmlns="http://www.w3.org/2000/svg">
    <mask id="mask0_816_931" style="mask-type:luminance" maskUnits="userSpaceOnUse" x="0" y="0" width="32" height="32">
    <path d="M32 0H0V32H32V0Z" fill="white"/>
    </mask>
    <g mask="url(#mask0_816_931)">
    <path fill-rule="evenodd" clip-rule="evenodd" d="M15.256 28.2992H2.531C2.45216 28.2987 2.37672 28.267 2.321 28.2112C2.26521 28.1555 2.2336 28.0801 2.233 28.0012V25.8403C2.233 24.6052 3.116 23.5152 4.476 22.5892C6.905 20.9312 10.836 19.8892 15.256 19.8892C15.5521 19.8892 15.8361 19.7716 16.0455 19.5622C16.2549 19.3529 16.3725 19.0689 16.3725 18.7727C16.3725 18.4766 16.2549 18.1926 16.0455 17.9833C15.8361 17.7739 15.5521 17.6562 15.256 17.6562C10.312 17.6562 5.934 18.8933 3.217 20.7463C1.14 22.1593 0 23.9563 0 25.8403V28.0002C0.000265027 28.6712 0.266903 29.3145 0.741313 29.7889C1.21572 30.2633 1.85908 30.53 2.53 30.5302H15.256C15.5521 30.5302 15.8361 30.4126 16.0455 30.2032C16.2549 29.9938 16.3725 29.7099 16.3725 29.4137C16.3725 29.1176 16.2549 28.8336 16.0455 28.6243C15.8361 28.4149 15.5521 28.2972 15.256 28.2972V28.2992Z" fill="#717171"/>
    <path fill-rule="evenodd" clip-rule="evenodd" d="M15.256 2.44418e-07C13.6369 -0.000395317 12.0541 0.479344 10.7077 1.37855C9.36124 2.27775 8.3117 3.55603 7.69179 5.05174C7.07187 6.54744 6.90942 8.19338 7.22497 9.78142C7.54052 11.3694 8.31991 12.8282 9.46456 13.9733C10.6092 15.1184 12.0677 15.8983 13.6556 16.2144C15.2436 16.5306 16.8896 16.3687 18.3855 15.7494C19.8814 15.13 21.1601 14.0809 22.0598 12.7348C22.9595 11.3887 23.4398 9.80608 23.44 8.187C23.4395 6.01636 22.5772 3.93472 21.0426 2.39956C19.508 0.864403 17.4266 0.00132552 15.256 2.44418e-07ZM15.256 2.233C16.4334 2.233 17.5843 2.58214 18.5633 3.23626C19.5423 3.89039 20.3053 4.82012 20.7559 5.90789C21.2064 6.99565 21.3243 8.1926 21.0946 9.34737C20.8649 10.5021 20.2979 11.5629 19.4654 12.3954C18.6329 13.2279 17.5721 13.7949 16.4174 14.0246C15.2626 14.2543 14.0657 14.1364 12.9779 13.6859C11.8901 13.2353 10.9604 12.4723 10.3063 11.4933C9.65213 10.5143 9.303 9.36339 9.303 8.186C9.30379 6.60741 9.93124 5.0937 11.0475 3.97747C12.1637 2.86124 13.6774 2.2338 15.256 2.233Z" fill="#717171"/>
    <path fill-rule="evenodd" clip-rule="evenodd" d="M24.187 18.8848C23.1388 18.8848 22.1141 19.1956 21.2425 19.778C20.3709 20.3603 19.6916 21.1881 19.2905 22.1565C18.8893 23.125 18.7844 24.1906 18.9889 25.2187C19.1934 26.2468 19.6981 27.1912 20.4394 27.9324C21.1806 28.6736 22.1249 29.1784 23.153 29.3829C24.1811 29.5874 25.2468 29.4825 26.2152 29.0813C27.1837 28.6802 28.0114 28.0009 28.5938 27.1293C29.1762 26.2577 29.487 25.233 29.487 24.1848C29.487 22.7791 28.9286 21.431 27.9347 20.4371C26.9407 19.4432 25.5927 18.8848 24.187 18.8848ZM24.187 21.1178C24.7942 21.118 25.3877 21.2982 25.8925 21.6357C26.3972 21.9732 26.7905 22.4528 27.0227 23.0139C27.2549 23.5749 27.3155 24.1922 27.1968 24.7877C27.0782 25.3832 26.7856 25.9301 26.3561 26.3593C25.9266 26.7885 25.3795 27.0807 24.784 27.199C24.1884 27.3172 23.5712 27.2562 23.0103 27.0237C22.4494 26.7911 21.97 26.3975 21.6329 25.8925C21.2957 25.3876 21.1158 24.794 21.116 24.1868C21.1166 23.3725 21.4403 22.5918 22.0161 22.0162C22.592 21.4405 23.3728 21.117 24.187 21.1168V21.1178Z" fill="#717171"/>
    <path fill-rule="evenodd" clip-rule="evenodd" d="M25.303 20.0005V17.4895C25.303 17.1934 25.1854 16.9094 24.976 16.7001C24.7666 16.4907 24.4826 16.373 24.1865 16.373C23.8904 16.373 23.6064 16.4907 23.397 16.7001C23.1876 16.9094 23.07 17.1934 23.07 17.4895V20.0015C23.07 20.2977 23.1876 20.5816 23.397 20.791C23.6064 21.0004 23.8904 21.118 24.1865 21.118C24.4826 21.118 24.7666 21.0004 24.976 20.791C25.1854 20.5816 25.303 20.2967 25.303 20.0005Z" fill="#717171"/>
    <path fill-rule="evenodd" clip-rule="evenodd" d="M27.94 22.0162L29.711 20.2402C29.914 20.0297 30.0262 19.7479 30.0236 19.4554C30.0209 19.163 29.9035 18.8833 29.6967 18.6765C29.4899 18.4697 29.2102 18.3523 28.9178 18.3497C28.6253 18.347 28.3435 18.4592 28.133 18.6622L26.357 20.4402C26.1531 20.6512 26.0404 20.9339 26.0432 21.2272C26.046 21.5206 26.1642 21.8011 26.3721 22.0081C26.58 22.2151 26.861 22.332 27.1544 22.3335C27.4478 22.335 27.73 22.2211 27.94 22.0162Z" fill="#717171"/>
    <path fill-rule="evenodd" clip-rule="evenodd" d="M28.372 25.3033H30.884C31.1801 25.3033 31.4641 25.1857 31.6735 24.9763C31.8829 24.7669 32.0005 24.4829 32.0005 24.1868C32.0005 23.8907 31.8829 23.6067 31.6735 23.3973C31.4641 23.1879 31.1801 23.0703 30.884 23.0703H28.372C28.0759 23.0703 27.7919 23.1879 27.5825 23.3973C27.3731 23.6067 27.2555 23.8907 27.2555 24.1868C27.2555 24.4829 27.3731 24.7669 27.5825 24.9763C27.7919 25.1857 28.0759 25.3033 28.372 25.3033Z" fill="#717171"/>
    <path fill-rule="evenodd" clip-rule="evenodd" d="M26.357 27.9401L28.134 29.7161C28.3446 29.9191 28.6264 30.0314 28.9188 30.0287C29.2113 30.026 29.491 29.9087 29.6978 29.7019C29.9046 29.4951 30.0219 29.2154 30.0246 28.9229C30.0273 28.6305 29.915 28.3487 29.712 28.1381L27.94 26.3571C27.8361 26.2532 27.7127 26.1708 27.5769 26.1145C27.4411 26.0582 27.2955 26.0293 27.1485 26.0293C27.0015 26.0293 26.856 26.0582 26.7202 26.1145C26.5844 26.1708 26.461 26.2532 26.357 26.3571C26.2531 26.4611 26.1706 26.5845 26.1144 26.7203C26.0581 26.8561 26.0292 27.0017 26.0292 27.1486C26.0292 27.2956 26.0581 27.4412 26.1144 27.577C26.1706 27.7128 26.2531 27.8362 26.357 27.9401Z" fill="#717171"/>
    <path fill-rule="evenodd" clip-rule="evenodd" d="M23.07 28.3724V30.8844C23.07 31.1805 23.1876 31.4645 23.397 31.6738C23.6064 31.8832 23.8904 32.0009 24.1865 32.0009C24.4826 32.0009 24.7666 31.8832 24.976 31.6738C25.1854 31.4645 25.303 31.1805 25.303 30.8844V28.3724C25.303 28.0762 25.1854 27.7923 24.976 27.5829C24.7666 27.3735 24.4826 27.2559 24.1865 27.2559C23.8904 27.2559 23.6064 27.3735 23.397 27.5829C23.1876 27.7923 23.07 28.0762 23.07 28.3724Z" fill="#717171"/>
    <path fill-rule="evenodd" clip-rule="evenodd" d="M20.44 26.3568L18.664 28.1338C18.4709 28.3459 18.3669 28.6243 18.3736 28.9111C18.3803 29.1978 18.4971 29.471 18.6999 29.6739C18.9027 29.8768 19.1758 29.9939 19.4626 30.0007C19.7493 30.0076 20.0277 29.9038 20.24 29.7108L22.016 27.9398C22.2208 27.7298 22.3348 27.4476 22.3333 27.1542C22.3318 26.8608 22.2149 26.5798 22.0079 26.3719C21.8009 26.164 21.5204 26.0458 21.227 26.043C20.9337 26.0402 20.6509 26.1529 20.44 26.3568Z" fill="#717171"/>
    <path fill-rule="evenodd" clip-rule="evenodd" d="M20 23.0703H17.489C17.1929 23.0703 16.9089 23.1879 16.6995 23.3973C16.4901 23.6067 16.3725 23.8907 16.3725 24.1868C16.3725 24.4829 16.4901 24.7669 16.6995 24.9763C16.9089 25.1857 17.1929 25.3033 17.489 25.3033H20C20.2961 25.3033 20.5801 25.1857 20.7895 24.9763C20.9989 24.7669 21.1165 24.4829 21.1165 24.1868C21.1165 23.8907 20.9989 23.6067 20.7895 23.3973C20.5801 23.1879 20.2961 23.0703 20 23.0703Z" fill="#717171"/>
    <path fill-rule="evenodd" clip-rule="evenodd" d="M22.016 20.4402L20.24 18.6622C20.0294 18.4592 19.7476 18.347 19.4552 18.3497C19.1627 18.3523 18.883 18.4697 18.6762 18.6765C18.4694 18.8833 18.3521 19.163 18.3494 19.4554C18.3467 19.7479 18.459 20.0297 18.662 20.2402L20.44 22.0162C20.6533 22.2023 20.9293 22.3004 21.2122 22.2907C21.4951 22.2811 21.7638 22.1644 21.964 21.9642C22.1641 21.764 22.2808 21.4954 22.2905 21.2125C22.3001 20.9296 22.202 20.6536 22.016 20.4402Z" fill="#717171"/>
    </g>
    </svg>
    