<svg width="32" height="32" viewBox="0 0 32 32" fill="none" xmlns="http://www.w3.org/2000/svg">
<g clip-path="url(#clip0_816_1271)">
<mask id="mask0_816_1271" style="mask-type:luminance" maskUnits="userSpaceOnUse" x="0" y="0" width="32" height="32">
<path d="M32 0H0V32H32V0Z" fill="white"/>
</mask>
<g mask="url(#mask0_816_1271)">
<path fill-rule="evenodd" clip-rule="evenodd" d="M4.266 0C3.13467 0.000265104 2.04975 0.449803 1.24978 1.24978C0.449803 2.04975 0.000265104 3.13467 0 4.266V10.666C-3.10729e-08 11.7975 0.44942 12.8827 1.24942 13.6829C2.04942 14.4831 3.13449 14.9327 4.266 14.933H27.733C28.8647 14.933 29.95 14.4834 30.7502 13.6832C31.5504 12.883 32 11.7977 32 10.666V4.266C31.9997 3.13449 31.5501 2.04942 30.7499 1.24942C29.9497 0.44942 28.8645 -3.10729e-08 27.733 0H4.266ZM2.133 4.266C2.133 3.70029 2.35773 3.15776 2.75774 2.75774C3.15776 2.35773 3.70029 2.133 4.266 2.133H27.733C28.2987 2.133 28.8412 2.35773 29.2413 2.75774C29.6413 3.15776 29.866 3.70029 29.866 4.266V10.666C29.8661 10.9462 29.8111 11.2237 29.7039 11.4826C29.5968 11.7415 29.4397 11.9767 29.2416 12.1749C29.0435 12.3731 28.8083 12.5303 28.5495 12.6375C28.2906 12.7448 28.0132 12.8 27.733 12.8H4.266C3.98581 12.8 3.70836 12.7448 3.44951 12.6375C3.19065 12.5303 2.95547 12.3731 2.75739 12.1749C2.55931 11.9767 2.40221 11.7415 2.29508 11.4826C2.18794 11.2237 2.13287 10.9462 2.133 10.666V4.266Z" fill="#717171"/>
<path fill-rule="evenodd" clip-rule="evenodd" d="M22.933 21.8652C22.4055 21.8652 21.8899 22.0217 21.4513 22.3147C21.0127 22.6078 20.6709 23.0243 20.469 23.5116C20.2671 23.9989 20.2143 24.5352 20.3172 25.0525C20.4201 25.5699 20.6742 26.0451 21.0471 26.4181C21.4201 26.7911 21.8953 27.0451 22.4127 27.148C22.93 27.2509 23.4663 27.1981 23.9536 26.9962C24.4409 26.7944 24.8575 26.4525 25.1505 26.0139C25.4436 25.5754 25.6 25.0597 25.6 24.5322C25.6 23.8249 25.319 23.1465 24.8188 22.6464C24.3187 22.1462 23.6403 21.8652 22.933 21.8652ZM22.4 24.5322C22.4 24.4268 22.4313 24.3238 22.4898 24.2361C22.5484 24.1485 22.6316 24.0801 22.729 24.0398C22.8264 23.9995 22.9336 23.9889 23.037 24.0095C23.1404 24.03 23.2353 24.0808 23.3099 24.1553C23.3844 24.2299 23.4352 24.3249 23.4558 24.4283C23.4763 24.5316 23.4658 24.6388 23.4254 24.7362C23.3851 24.8336 23.3168 24.9168 23.2291 24.9754C23.1415 25.034 23.0384 25.0652 22.933 25.0652C22.863 25.0652 22.7937 25.0514 22.729 25.0247C22.6644 24.9979 22.6056 24.9586 22.5561 24.9091C22.5066 24.8596 22.4674 24.8009 22.4406 24.7362C22.4138 24.6715 22.4 24.6022 22.4 24.5322Z" fill="#717171"/>
<path fill-rule="evenodd" clip-rule="evenodd" d="M4.266 17.0664C3.13449 17.0667 2.04942 17.5163 1.24942 18.3165C0.44942 19.1167 -3.10729e-08 20.2019 0 21.3334V27.7334C0 28.8651 0.449558 29.9504 1.24978 30.7506C2.04999 31.5508 3.13532 32.0004 4.267 32.0004H27.733C28.8647 32.0004 29.95 31.5508 30.7502 30.7506C31.5504 29.9504 32 28.8651 32 27.7334V21.3334C32 20.2017 31.5504 19.1164 30.7502 18.3162C29.95 17.516 28.8647 17.0664 27.733 17.0664H4.266ZM2.133 21.3334C2.133 20.7677 2.35773 20.2252 2.75774 19.8251C3.15776 19.4251 3.70029 19.2004 4.266 19.2004H27.733C28.2987 19.2004 28.8412 19.4251 29.2413 19.8251C29.6413 20.2252 29.866 20.7677 29.866 21.3334V27.7334C29.866 28.2991 29.6413 28.8417 29.2413 29.2417C28.8412 29.6417 28.2987 29.8664 27.733 29.8664H4.266C3.70029 29.8664 3.15776 29.6417 2.75774 29.2417C2.35773 28.8417 2.133 28.2991 2.133 27.7334V21.3334Z" fill="#717171"/>
<path fill-rule="evenodd" clip-rule="evenodd" d="M20.266 7.46583C20.266 6.93835 20.4224 6.42271 20.7155 5.98412C21.0085 5.54554 21.425 5.2037 21.9124 5.00184C22.3997 4.79998 22.9359 4.74717 23.4533 4.85008C23.9706 4.95298 24.4459 5.20699 24.8188 5.57998C25.1918 5.95296 25.4458 6.42818 25.5487 6.94552C25.6517 7.46287 25.5988 7.99912 25.397 8.48645C25.1951 8.97378 24.8533 9.39031 24.4147 9.68336C23.9761 9.97641 23.4605 10.1328 22.933 10.1328C22.2257 10.1328 21.5473 9.85184 21.0471 9.35168C20.547 8.85152 20.266 8.17316 20.266 7.46583ZM22.933 6.93283C22.8276 6.93283 22.7245 6.96409 22.6369 7.02266C22.5492 7.08122 22.4809 7.16447 22.4406 7.26186C22.4002 7.35925 22.3897 7.46642 22.4102 7.56981C22.4308 7.6732 22.4816 7.76818 22.5561 7.84272C22.6306 7.91726 22.7256 7.96802 22.829 7.98859C22.9324 8.00915 23.0396 7.9986 23.137 7.95826C23.2344 7.91792 23.3176 7.8496 23.3762 7.76195C23.4347 7.6743 23.466 7.57125 23.466 7.46583C23.466 7.32447 23.4098 7.1889 23.3099 7.08894C23.2099 6.98898 23.0744 6.93283 22.933 6.93283Z" fill="#717171"/>
</g>
</g>
<defs>
<clipPath id="clip0_816_1271">
<rect width="32" height="32" fill="white"/>
</clipPath>
</defs>
</svg>
