<svg width="32" height="32" viewBox="0 0 32 32" fill="none" xmlns="http://www.w3.org/2000/svg">
<g clip-path="url(#clip0_816_1212)">
<mask id="mask0_816_1212" style="mask-type:luminance" maskUnits="userSpaceOnUse" x="0" y="0" width="32" height="32">
<path d="M32 0H0V32H32V0Z" fill="white"/>
</mask>
<g mask="url(#mask0_816_1212)">
<path d="M28.571 6.28405H13.143C12.8399 6.28405 12.5491 6.16362 12.3348 5.94927C12.1204 5.73492 12 5.44419 12 5.14105C12 4.8379 12.1204 4.54718 12.3348 4.33282C12.5491 4.11847 12.8399 3.99805 13.143 3.99805H28.571C28.8741 3.99805 29.1649 4.11847 29.3792 4.33282C29.5936 4.54718 29.714 4.8379 29.714 5.14105C29.714 5.44419 29.5936 5.73492 29.3792 5.94927C29.1649 6.16362 28.8741 6.28405 28.571 6.28405Z" fill="#717171"/>
<path d="M30.857 8.57005C30.5538 8.57005 30.2631 8.44962 30.0488 8.23527C29.8344 8.02092 29.714 7.73019 29.714 7.42705C29.7137 7.12399 29.5932 6.83341 29.3789 6.61912C29.1646 6.40482 28.874 6.28431 28.571 6.28405C28.2678 6.28405 27.9771 6.16362 27.7628 5.94927C27.5484 5.73492 27.428 5.44419 27.428 5.14105C27.428 4.8379 27.5484 4.54718 27.7628 4.33282C27.9771 4.11847 28.2678 3.99805 28.571 3.99805C29.4802 3.99884 30.3519 4.36037 30.9948 5.00326C31.6377 5.64615 31.9992 6.51786 32 7.42705C32 7.73019 31.8796 8.02092 31.6652 8.23527C31.4508 8.44962 31.1601 8.57005 30.857 8.57005Z" fill="#717171"/>
<path d="M5.71403 6.28405H3.42803C3.12489 6.28405 2.83417 6.16362 2.61981 5.94927C2.40546 5.73492 2.28503 5.44419 2.28503 5.14105C2.28503 4.8379 2.40546 4.54718 2.61981 4.33282C2.83417 4.11847 3.12489 3.99805 3.42803 3.99805H5.71403C6.01718 3.99805 6.3079 4.11847 6.52226 4.33282C6.73661 4.54718 6.85703 4.8379 6.85703 5.14105C6.85703 5.44419 6.73661 5.73492 6.52226 5.94927C6.3079 6.16362 6.01718 6.28405 5.71403 6.28405Z" fill="#717171"/>
<path d="M9.714 6.28405H9.143C8.83986 6.28405 8.54913 6.16362 8.33478 5.94927C8.12042 5.73492 8 5.44419 8 5.14105C8 4.8379 8.12042 4.54718 8.33478 4.33282C8.54913 4.11847 8.83986 3.99805 9.143 3.99805H9.714C10.0171 3.99805 10.3079 4.11847 10.5222 4.33282C10.7366 4.54718 10.857 4.8379 10.857 5.14105C10.857 5.44419 10.7366 5.73492 10.5222 5.94927C10.3079 6.16362 10.0171 6.28405 9.714 6.28405Z" fill="#717171"/>
<path d="M1.143 25.7122C0.839857 25.7122 0.549131 25.5918 0.334777 25.3774C0.120423 25.1631 0 24.8723 0 24.5692V7.4262C4.51717e-09 7.12306 0.120423 6.83233 0.334777 6.61798C0.549131 6.40363 0.839857 6.2832 1.143 6.2832C1.44614 6.2832 1.73687 6.40363 1.95122 6.61798C2.16558 6.83233 2.286 7.12306 2.286 7.4262V24.5692C2.286 24.8723 2.16558 25.1631 1.95122 25.3774C1.73687 25.5918 1.44614 25.7122 1.143 25.7122Z" fill="#717171"/>
<path d="M30.857 25.7122C30.5538 25.7122 30.2631 25.5918 30.0488 25.3774C29.8344 25.1631 29.714 24.8723 29.714 24.5692V7.4262C29.714 7.12306 29.8344 6.83233 30.0488 6.61798C30.2631 6.40363 30.5538 6.2832 30.857 6.2832C31.1601 6.2832 31.4509 6.40363 31.6652 6.61798C31.8796 6.83233 32 7.12306 32 7.4262V24.5692C32 24.8723 31.8796 25.1631 31.6652 25.3774C31.4509 25.5918 31.1601 25.7122 30.857 25.7122Z" fill="#717171"/>
<path d="M3.42802 27.9997C2.51884 27.9989 1.64712 27.6374 1.00423 26.9945C0.361341 26.3516 -0.000182168 25.4799 -0.000976562 24.5707C-0.000976562 24.2676 0.119446 23.9769 0.3338 23.7625C0.548154 23.5482 0.838881 23.4277 1.14202 23.4277C1.44517 23.4277 1.73589 23.5482 1.95025 23.7625C2.1646 23.9769 2.28502 24.2676 2.28502 24.5707C2.28529 24.8738 2.4058 25.1644 2.62009 25.3787C2.83439 25.593 3.12496 25.7135 3.42802 25.7137C3.73117 25.7137 4.02189 25.8342 4.23625 26.0485C4.4506 26.2629 4.57102 26.5536 4.57102 26.8567C4.57102 27.1599 4.4506 27.4506 4.23625 27.665C4.02189 27.8793 3.73117 27.9997 3.42802 27.9997Z" fill="#717171"/>
<path d="M28.571 27.9989H3.42803C3.12489 27.9989 2.83417 27.8785 2.61981 27.6641C2.40546 27.4498 2.28503 27.159 2.28503 26.8559C2.28503 26.5527 2.40546 26.262 2.61981 26.0477C2.83417 25.8333 3.12489 25.7129 3.42803 25.7129H28.571C28.8742 25.7129 29.1649 25.8333 29.3793 26.0477C29.5936 26.262 29.714 26.5527 29.714 26.8559C29.714 27.159 29.5936 27.4498 29.3793 27.6641C29.1649 27.8785 28.8742 27.9989 28.571 27.9989Z" fill="#717171"/>
<path d="M28.571 27.9997C28.2678 27.9997 27.9771 27.8793 27.7628 27.665C27.5484 27.4506 27.428 27.1599 27.428 26.8567C27.428 26.5536 27.5484 26.2629 27.7628 26.0485C27.9771 25.8342 28.2678 25.7137 28.571 25.7137C28.874 25.7135 29.1646 25.593 29.3789 25.3787C29.5932 25.1644 29.7137 24.8738 29.714 24.5707C29.714 24.2676 29.8344 23.9769 30.0488 23.7625C30.2631 23.5482 30.5538 23.4277 30.857 23.4277C31.1601 23.4277 31.4508 23.5482 31.6652 23.7625C31.8796 23.9769 32 24.2676 32 24.5707C31.9992 25.4799 31.6377 26.3516 30.9948 26.9945C30.3519 27.6374 29.4802 27.9989 28.571 27.9997Z" fill="#717171"/>
<path d="M16 18.8122C14.5181 18.809 13.0663 18.3935 11.807 17.6122C11.6793 17.5334 11.5683 17.4302 11.4804 17.3085C11.3925 17.1868 11.3294 17.049 11.2948 16.903C11.2601 16.7569 11.2546 16.6054 11.2785 16.4572C11.3024 16.309 11.3552 16.167 11.434 16.0392C11.5128 15.9114 11.616 15.8004 11.7377 15.7125C11.8594 15.6246 11.9972 15.5616 12.1433 15.5269C12.2894 15.4923 12.4408 15.4868 12.589 15.5107C12.7372 15.5346 12.8793 15.5874 13.007 15.6662C13.9066 16.2235 14.9438 16.5188 16.002 16.5188C17.0602 16.5188 18.0975 16.2235 18.997 15.6662C19.1248 15.5874 19.2669 15.5346 19.4151 15.5107C19.5633 15.4868 19.7147 15.4923 19.8608 15.5269C20.0069 15.5616 20.1447 15.6246 20.2664 15.7125C20.3881 15.8004 20.4912 15.9114 20.57 16.0392C20.6488 16.167 20.7017 16.309 20.7256 16.4572C20.7495 16.6054 20.744 16.7569 20.7093 16.903C20.6747 17.049 20.6116 17.1868 20.5237 17.3085C20.4358 17.4302 20.3248 17.5334 20.197 17.6122C18.9366 18.3942 17.4833 18.8097 16 18.8122Z" fill="#717171"/>
<path d="M19.594 17.7874C19.3452 17.7875 19.1032 17.7063 18.9047 17.5563C18.7062 17.4063 18.562 17.1956 18.4942 16.9562C18.4263 16.7169 18.4384 16.4619 18.5286 16.23C18.6188 15.9981 18.7822 15.802 18.994 15.6714L30.257 8.74044C30.5151 8.58131 30.8258 8.53121 31.1208 8.60116C31.4158 8.67111 31.6709 8.85538 31.83 9.11344C31.9892 9.37149 32.0393 9.68219 31.9693 9.97719C31.8994 10.2722 31.7151 10.5273 31.457 10.6864L20.192 17.6134C20.0118 17.7249 19.804 17.7838 19.592 17.7834L19.594 17.7874Z" fill="#717171"/>
<path d="M12.405 17.7874C12.193 17.7878 11.9852 17.7289 11.805 17.6174L0.543981 10.6864C0.285925 10.5273 0.101653 10.2722 0.0317018 9.97719C-0.0382492 9.68219 0.0118508 9.37149 0.170981 9.11344C0.330111 8.85538 0.585235 8.67111 0.88023 8.60116C1.17522 8.53121 1.48593 8.58131 1.74398 8.74044L13.007 15.6714C13.2188 15.802 13.3822 15.9981 13.4724 16.23C13.5626 16.4619 13.5747 16.7169 13.5069 16.9562C13.439 17.1956 13.2948 17.4063 13.0963 17.5563C12.8978 17.7063 12.6558 17.7875 12.407 17.7874H12.405Z" fill="#717171"/>
<path d="M1.143 8.571C0.839857 8.571 0.549131 8.45058 0.334777 8.23622C0.120423 8.02187 0 7.73114 0 7.428C0.00105863 6.51916 0.362562 5.64785 1.00521 5.00521C1.64785 4.36256 2.51916 4.00106 3.428 4C3.5781 4 3.72673 4.02956 3.86541 4.08701C4.00408 4.14445 4.13009 4.22864 4.23622 4.33478C4.34236 4.44091 4.42655 4.56692 4.48399 4.70559C4.54144 4.84427 4.571 4.9929 4.571 5.143C4.571 5.2931 4.54144 5.44173 4.48399 5.58041C4.42655 5.71908 4.34236 5.84509 4.23622 5.95122C4.13009 6.05736 4.00408 6.14155 3.86541 6.19899C3.72673 6.25644 3.5781 6.286 3.428 6.286C3.12511 6.28626 2.83469 6.40664 2.62042 6.62072C2.40615 6.8348 2.28553 7.12511 2.285 7.428C2.285 7.73097 2.16471 8.02154 1.95058 8.23587C1.73644 8.4502 1.44597 8.57074 1.143 8.571Z" fill="#717171"/>
</g>
</g>
<defs>
<clipPath id="clip0_816_1212">
<rect width="32" height="32" fill="white"/>
</clipPath>
</defs>
</svg>
