<svg width="32" height="32" viewBox="0 0 32 32" fill="none" xmlns="http://www.w3.org/2000/svg">
<g clip-path="url(#clip0_816_1202)">
<mask id="mask0_816_1202" style="mask-type:luminance" maskUnits="userSpaceOnUse" x="0" y="0" width="32" height="32">
<path d="M32 0H0V32H32V0Z" fill="white"/>
</mask>
<g mask="url(#mask0_816_1202)">
<path d="M30.573 25.3165C31.5896 23.659 32.1003 21.7408 32.0422 19.7973C31.9841 17.8538 31.3598 15.9695 30.2459 14.3757C29.132 12.782 27.5771 11.5481 25.7719 10.8256C23.9667 10.1031 21.9899 9.92338 20.084 10.3085C20.0514 8.77067 19.6659 7.2609 18.9574 5.89562C18.249 4.53035 17.2363 3.34605 15.9977 2.43408C14.759 1.52212 13.3275 0.906851 11.8134 0.635743C10.2993 0.364635 8.74317 0.44493 7.26503 0.870435C5.78689 1.29594 4.42625 2.05528 3.28804 3.08989C2.14983 4.12451 1.26447 5.40674 0.700268 6.83769C0.136061 8.26863 -0.0919216 9.81006 0.0339047 11.3431C0.159731 12.8761 0.636003 14.3597 1.42599 15.6795L0.0419862 20.5245C-0.0167933 20.7291 -0.0131808 20.9467 0.0523616 21.1492C0.117904 21.3518 0.242396 21.5303 0.409909 21.6617C0.577422 21.7931 0.780339 21.8716 0.992698 21.8871C1.20506 21.9025 1.4172 21.8543 1.60199 21.7485L5.54699 19.4955C7.51234 20.492 9.75363 20.8055 11.917 20.3865C11.9525 22.08 12.4165 23.737 13.2656 25.2027C14.1148 26.6685 15.3214 27.8953 16.7728 28.7686C18.2243 29.6419 19.8733 30.1333 21.566 30.1969C23.2588 30.2606 24.9401 29.8944 26.453 29.1325L30.398 31.3855C30.5828 31.4913 30.7949 31.5395 31.0073 31.5241C31.2196 31.5086 31.4226 31.4301 31.5901 31.2987C31.7576 31.1673 31.8821 30.9888 31.9476 30.7862C32.0132 30.5837 32.0168 30.3661 31.958 30.1615L30.573 25.3165ZM6.07299 17.3455C5.91068 17.2505 5.7262 17.2001 5.53816 17.1992C5.35012 17.1983 5.16517 17.2471 5.00199 17.3405L2.82299 18.5845L3.61599 15.8055C3.65883 15.6559 3.66851 15.4987 3.64433 15.345C3.62014 15.1913 3.56269 15.0447 3.47599 14.9155C2.38478 13.2933 1.92918 11.326 2.19615 9.38924C2.46311 7.45248 3.43395 5.68185 4.92334 4.41533C6.41273 3.14882 8.31636 2.47514 10.2709 2.52287C12.2254 2.57061 14.0938 3.33642 15.5196 4.67413C16.9454 6.01184 17.8287 7.82775 18.0008 9.77524C18.1729 11.7227 17.6218 13.6654 16.4527 15.2324C15.2836 16.7994 13.5784 17.8811 11.6625 18.2708C9.74668 18.6606 7.75441 18.3312 6.06599 17.3455H6.07299ZM28.382 25.4455L29.175 28.2245L26.996 26.9775C26.8329 26.8839 26.6479 26.835 26.4598 26.8359C26.2717 26.8368 26.0872 26.8873 25.925 26.9825C24.7248 27.6846 23.3605 28.0572 21.97 28.0627C20.5795 28.0682 19.2123 27.7063 18.0066 27.0136C16.801 26.321 15.7997 25.3221 15.104 24.1182C14.4083 22.9143 14.043 21.548 14.045 20.1575C14.045 20.0095 14.061 19.8665 14.07 19.7195C15.5418 19.0736 16.8379 18.0851 17.85 16.8364C18.8621 15.5878 19.5608 14.1152 19.888 12.5415C20.5592 12.353 21.2528 12.2558 21.95 12.2525C23.3824 12.2511 24.7882 12.6391 26.017 13.3751C27.2458 14.1111 28.2514 15.1674 28.9262 16.4309C29.601 17.6943 29.9196 19.1175 29.8478 20.5481C29.7761 21.9787 29.3168 23.3628 28.519 24.5525C28.4323 24.6817 28.3748 24.8283 28.3506 24.982C28.3265 25.1357 28.3361 25.2929 28.379 25.4425L28.382 25.4455Z" fill="#717171"/>
<path d="M26.684 23.6091L23.472 16.1091C23.3894 15.9167 23.2521 15.7527 23.0772 15.6375C22.9023 15.5223 22.6975 15.4609 22.488 15.4609C22.2786 15.4609 22.0738 15.5223 21.8989 15.6375C21.724 15.7527 21.5867 15.9167 21.504 16.1091L18.292 23.6091C18.1803 23.8701 18.1767 24.1648 18.2822 24.4284C18.3877 24.6919 18.5936 24.9028 18.8545 25.0146C19.1155 25.1264 19.4102 25.1299 19.6738 25.0244C19.9374 24.919 20.1483 24.7131 20.26 24.4521L20.899 22.9591H24.076L24.715 24.4521C24.7973 24.6449 24.9344 24.8092 25.1094 24.9247C25.2844 25.0401 25.4894 25.1014 25.699 25.1011C25.8442 25.1014 25.9878 25.0718 26.121 25.0141C26.3806 24.9023 26.5854 24.6923 26.6907 24.43C26.796 24.1677 26.7933 23.8744 26.683 23.6141L26.684 23.6091ZM21.817 20.8181L22.487 19.2541L23.157 20.8181H21.817Z" fill="#717171"/>
<path d="M13.857 7.43386H11.18V5.82686C11.18 5.54281 11.0672 5.2704 10.8664 5.06955C10.6655 4.8687 10.3931 4.75586 10.109 4.75586C9.825 4.75586 9.55258 4.8687 9.35173 5.06955C9.15088 5.2704 9.03804 5.54281 9.03804 5.82686V7.43386H6.36604C6.082 7.43386 5.80958 7.5467 5.60873 7.74755C5.40788 7.9484 5.29504 8.22081 5.29504 8.50486C5.29504 8.78891 5.40788 9.06132 5.60873 9.26217C5.80958 9.46302 6.082 9.57586 6.36604 9.57586H6.93104C7.03872 11.0395 7.55879 12.4426 8.43104 13.6229C8.19574 13.7335 7.95155 13.8242 7.70104 13.8939C7.4506 13.9604 7.2328 14.1156 7.088 14.3305C6.9432 14.5454 6.88124 14.8055 6.91359 15.0626C6.94594 15.3197 7.07042 15.5564 7.26394 15.7287C7.45747 15.9011 7.70692 15.9974 7.96604 15.9999C8.0568 16.0001 8.14721 15.9887 8.23504 15.9659C8.89714 15.7953 9.52962 15.5256 10.111 15.1659C10.6923 15.5267 11.3252 15.7965 11.988 15.9659C12.0759 15.9887 12.1663 16.0001 12.257 15.9999C12.5171 15.999 12.7679 15.9036 12.9628 15.7314C13.1576 15.5592 13.2831 15.322 13.3159 15.064C13.3488 14.806 13.2866 14.545 13.1411 14.3295C12.9955 14.114 12.7766 13.9588 12.525 13.8929C12.2747 13.8227 12.0305 13.732 11.795 13.6219C12.6676 12.4418 13.1877 11.0386 13.295 9.57486H13.86C14.1441 9.57486 14.4165 9.46202 14.6174 9.26117C14.8182 9.06032 14.931 8.78791 14.931 8.50386C14.931 8.21981 14.8182 7.9474 14.6174 7.74655C14.4165 7.5457 14.1441 7.43286 13.86 7.43286L13.857 7.43386ZM10.109 12.3049C9.53105 11.502 9.17726 10.5597 9.08404 9.57486H11.135C11.0418 10.5597 10.688 11.502 10.11 12.3049H10.109Z" fill="#717171"/>
</g>
</g>
<defs>
<clipPath id="clip0_816_1202">
<rect width="32" height="32" fill="white"/>
</clipPath>
</defs>
</svg>
