<svg width="32" height="32" viewBox="0 0 32 32" fill="none" xmlns="http://www.w3.org/2000/svg">
<g clip-path="url(#clip0_816_1019)">
<mask id="mask0_816_1019" style="mask-type:luminance" maskUnits="userSpaceOnUse" x="0" y="0" width="32" height="32">
<path d="M32 0H0V32H32V0Z" fill="white"/>
</mask>
<g mask="url(#mask0_816_1019)">
<path fill-rule="evenodd" clip-rule="evenodd" d="M13.768 28.2992H2.531C2.45216 28.2987 2.37672 28.267 2.321 28.2112C2.26521 28.1555 2.2336 28.0801 2.233 28.0012V25.8403C2.233 24.6033 3.116 23.5142 4.476 22.5882C6.905 20.9302 10.836 19.8882 15.256 19.8882C15.985 19.8882 16.701 19.9182 17.401 19.9732C17.5476 19.9858 17.6953 19.9693 17.8356 19.9246C17.9758 19.8798 18.1058 19.8078 18.218 19.7127C18.3303 19.6175 18.4227 19.5011 18.4898 19.37C18.5568 19.239 18.5974 19.0961 18.609 18.9493C18.6206 18.8026 18.603 18.655 18.5574 18.5151C18.5117 18.3752 18.4388 18.2457 18.3429 18.1341C18.247 18.0224 18.1299 17.9309 17.9985 17.8646C17.867 17.7984 17.7238 17.7589 17.577 17.7482C16.821 17.6869 16.0477 17.6562 15.257 17.6562C10.313 17.6562 5.935 18.8933 3.218 20.7463C1.14 22.1593 1.98116e-07 23.9563 1.98116e-07 25.8403V28.0002C-0.000131328 28.3325 0.0652265 28.6615 0.192337 28.9684C0.319447 29.2754 0.505816 29.5543 0.740787 29.7892C0.975759 30.024 1.25472 30.2103 1.56173 30.3373C1.86874 30.4643 2.19777 30.5295 2.53 30.5292C5.53 30.5292 13.767 30.5292 13.767 30.5292C14.0631 30.5292 14.3471 30.4116 14.5565 30.2022C14.7659 29.9929 14.8835 29.7089 14.8835 29.4127C14.8835 29.1166 14.7659 28.8326 14.5565 28.6233C14.3471 28.4139 14.0631 28.2962 13.767 28.2962L13.768 28.2992Z" fill="#717171"/>
<path fill-rule="evenodd" clip-rule="evenodd" d="M15.256 2.44418e-07C13.6369 -0.000395317 12.0541 0.479344 10.7077 1.37855C9.36124 2.27775 8.3117 3.55603 7.69179 5.05174C7.07187 6.54744 6.90942 8.19338 7.22497 9.78142C7.54052 11.3694 8.31991 12.8282 9.46456 13.9733C10.6092 15.1184 12.0677 15.8983 13.6556 16.2144C15.2436 16.5306 16.8896 16.3687 18.3855 15.7494C19.8814 15.13 21.1601 14.0809 22.0598 12.7348C22.9595 11.3887 23.4398 9.80608 23.44 8.187C23.4395 6.01636 22.5772 3.93472 21.0426 2.39956C19.508 0.864403 17.4266 0.00132552 15.256 2.44418e-07ZM15.256 2.233C16.4334 2.233 17.5843 2.58214 18.5633 3.23626C19.5423 3.89039 20.3053 4.82012 20.7559 5.90789C21.2064 6.99565 21.3243 8.1926 21.0946 9.34737C20.8649 10.5021 20.2979 11.5629 19.4654 12.3954C18.6329 13.2279 17.5721 13.7949 16.4174 14.0246C15.2626 14.2543 14.0657 14.1364 12.9779 13.6859C11.8901 13.2353 10.9604 12.4723 10.3063 11.4933C9.65213 10.5143 9.303 9.36339 9.303 8.186C9.30379 6.60741 9.93124 5.0937 11.0475 3.97747C12.1637 2.86124 13.6774 2.2338 15.256 2.233Z" fill="#717171"/>
<path fill-rule="evenodd" clip-rule="evenodd" d="M25.157 28.2163C26.3971 28.4036 27.6646 28.1946 28.7789 27.6192C29.8932 27.0438 30.7975 26.1314 31.3628 25.0119C31.9281 23.8924 32.1257 22.6231 31.9272 21.3848C31.7288 20.1464 31.1446 19.0024 30.2578 18.1156C29.371 17.2288 28.2269 16.6445 26.9886 16.4461C25.7503 16.2477 24.4809 16.4452 23.3615 17.0105C22.242 17.5759 21.3295 18.4801 20.7541 19.5944C20.1788 20.7088 19.9698 21.9763 20.157 23.2163L16.701 26.6713C16.4917 26.8809 16.374 27.1651 16.374 27.4613V30.8833C16.3743 31.1792 16.492 31.4629 16.7012 31.6722C16.9104 31.8814 17.1941 31.9991 17.49 31.9993H20.912C21.2083 31.9993 21.4924 31.8817 21.702 31.6723L25.157 28.2163ZM25.08 25.9243C24.8911 25.874 24.6922 25.8742 24.5034 25.925C24.3145 25.9757 24.1423 26.0751 24.004 26.2133L20.45 29.7673H18.605V27.9233L22.159 24.3693C22.2972 24.231 22.3967 24.0588 22.4474 23.87C22.4981 23.6811 22.4983 23.4823 22.448 23.2933C22.2354 22.5014 22.2901 21.6615 22.6036 20.9039C22.9171 20.1462 23.4719 19.5132 24.1819 19.1031C24.8918 18.693 25.7173 18.5286 26.5303 18.6355C27.3432 18.7424 28.0981 19.1147 28.6779 19.6944C29.2577 20.2742 29.6299 21.0292 29.7369 21.8421C29.8438 22.655 29.6794 23.4805 29.2693 24.1905C28.8591 24.9005 28.2261 25.4553 27.4685 25.7688C26.7108 26.0823 25.8709 26.137 25.079 25.9243H25.08Z" fill="#717171"/>
<path fill-rule="evenodd" clip-rule="evenodd" d="M24.904 23.4699C24.6785 23.2443 24.525 22.9569 24.4629 22.644C24.4008 22.3312 24.4328 22.0069 24.5549 21.7122C24.677 21.4176 24.8838 21.1657 25.149 20.9886C25.4142 20.8114 25.726 20.7168 26.045 20.7168C26.364 20.7168 26.6758 20.8114 26.941 20.9886C27.2062 21.1657 27.413 21.4176 27.5351 21.7122C27.6572 22.0069 27.6892 22.3312 27.6271 22.644C27.565 22.9569 27.4115 23.2443 27.186 23.4699C26.8833 23.7724 26.4729 23.9424 26.045 23.9424C25.6171 23.9424 25.2067 23.7724 24.904 23.4699Z" fill="#717171"/>
</g>
</g>
<defs>
<clipPath id="clip0_816_1019">
<rect width="32" height="32" fill="white"/>
</clipPath>
</defs>
</svg>
