<svg width="32" height="32" viewBox="0 0 32 32" fill="none" xmlns="http://www.w3.org/2000/svg">
<mask id="mask0_816_983" style="mask-type:luminance" maskUnits="userSpaceOnUse" x="0" y="0" width="32" height="32">
<path d="M32 0H0V32H32V0Z" fill="white"/>
</mask>
<g mask="url(#mask0_816_983)">
<path fill-rule="evenodd" clip-rule="evenodd" d="M14.899 0.681795C15.0451 0.390018 15.3011 0.168187 15.6106 0.0650544C15.9202 -0.038078 16.2581 -0.0140728 16.55 0.131794L29.678 6.69579C29.8822 6.79802 30.054 6.95505 30.1741 7.14931C30.2942 7.34357 30.3578 7.56741 30.358 7.79579C30.2863 12.7708 29.0945 17.6657 26.871 22.1168C24.58 26.6448 21.08 30.5978 16.337 31.9528C16.1161 32.0159 15.8819 32.0159 15.661 31.9528C10.918 30.5978 7.41799 26.6448 5.12699 22.1168C2.90387 17.6656 1.71236 12.7707 1.64099 7.79579C1.64114 7.56741 1.70482 7.34357 1.82491 7.14931C1.945 6.95505 2.11676 6.79802 2.32099 6.69579L8.88599 3.40879C9.03124 3.3281 9.19132 3.27764 9.35659 3.26047C9.52186 3.24329 9.6889 3.25975 9.84764 3.30886C10.0064 3.35797 10.1535 3.4387 10.2802 3.5462C10.4069 3.6537 10.5106 3.78574 10.5849 3.93435C10.6592 4.08297 10.7026 4.2451 10.7126 4.41096C10.7226 4.57682 10.6989 4.74298 10.6429 4.89944C10.587 5.05589 10.4999 5.1994 10.387 5.32131C10.2741 5.44322 10.1377 5.54101 9.98599 5.60879L4.11499 8.55079C4.29911 12.8827 5.39281 17.1273 7.32499 21.0088C9.39499 25.1008 12.341 28.3038 16 29.4858C19.659 28.3028 22.605 25.0998 24.676 21.0088C26.6076 17.1279 27.7009 12.8839 27.885 8.55279L15.45 2.33279C15.1582 2.18669 14.9364 1.93072 14.8333 1.62114C14.7301 1.31155 14.7531 0.973688 14.899 0.681795ZM22.614 11.0288C22.7283 11.1431 22.819 11.2788 22.8809 11.4282C22.9427 11.5775 22.9746 11.7376 22.9746 11.8993C22.9746 12.061 22.9427 12.221 22.8809 12.3704C22.819 12.5198 22.7283 12.6555 22.614 12.7698L15.229 20.1548C14.9982 20.3854 14.6853 20.5149 14.359 20.5149C14.0327 20.5149 13.7198 20.3854 13.489 20.1548L11.027 17.6928C10.8043 17.4603 10.6816 17.1498 10.6851 16.8279C10.6887 16.506 10.8182 16.1983 11.0459 15.9707C11.2736 15.7431 11.5814 15.6138 11.9033 15.6105C12.2252 15.6071 12.5356 15.73 12.768 15.9528L14.359 17.5438L20.873 11.0298C21.1038 10.7992 21.4167 10.6697 21.743 10.6697C22.0693 10.6697 22.3822 10.7992 22.613 11.0298L22.614 11.0288Z" fill="#717171"/>
</g>
</svg>
