<svg width="32" height="32" viewBox="0 0 32 32" fill="none" xmlns="http://www.w3.org/2000/svg">
<mask id="mask0_816_1041" style="mask-type:luminance" maskUnits="userSpaceOnUse" x="0" y="0" width="32" height="32">
<path d="M32 0H0V32H32V0Z" fill="white"/>
</mask>
<g mask="url(#mask0_816_1041)">
<path d="M6.88398 13.1486C5.90278 13.1486 4.94362 12.8576 4.12779 12.3125C3.31196 11.7674 2.6761 10.9926 2.30061 10.0861C1.92512 9.17955 1.82688 8.18206 2.0183 7.21972C2.20972 6.25738 2.68221 5.37342 3.37602 4.67961C4.06983 3.9858 4.95379 3.51331 5.91613 3.32189C6.87847 3.13047 7.87596 3.22871 8.78247 3.6042C9.68897 3.97968 10.4638 4.61555 11.0089 5.43138C11.554 6.24721 11.845 7.20637 11.845 8.18756C11.845 8.83905 11.7167 9.48416 11.4673 10.0861C11.218 10.688 10.8526 11.2348 10.3919 11.6955C9.93126 12.1562 9.38436 12.5216 8.78247 12.7709C8.18057 13.0202 7.53546 13.1486 6.88398 13.1486ZM6.88398 5.45856C6.34423 5.45856 5.81661 5.61862 5.36782 5.91848C4.91904 6.21835 4.56926 6.64456 4.36271 7.14322C4.15616 7.64188 4.10211 8.19059 4.20741 8.71997C4.31271 9.24934 4.57262 9.7356 4.95428 10.1173C5.33594 10.4989 5.8222 10.7588 6.35157 10.8641C6.88095 10.9694 7.42966 10.9154 7.92832 10.7088C8.42698 10.5023 8.85319 10.1525 9.15306 9.70372C9.45292 9.25493 9.61298 8.72731 9.61298 8.18756C9.61311 7.8291 9.54262 7.47413 9.40553 7.14291C9.26844 6.8117 9.06745 6.51074 8.81402 6.25722C8.5606 6.00371 8.25971 5.8026 7.92855 5.66539C7.59739 5.52819 7.24244 5.45856 6.88398 5.45856Z" fill="#717171"/>
<path d="M8.008 20.844H3.915C2.877 20.843 1.88182 20.4301 1.14785 19.6962C0.413871 18.9622 0.00105891 17.967 0 16.929V16.676C0.00185245 15.1489 0.609303 13.6849 1.68911 12.6051C2.76892 11.5253 4.23292 10.9179 5.76 10.916H6.877C7.17311 10.916 7.4571 11.0336 7.66648 11.243C7.87587 11.4524 7.9935 11.7364 7.9935 12.0325C7.9935 12.3286 7.87587 12.6126 7.66648 12.822C7.4571 13.0314 7.17311 13.149 6.877 13.149H5.761C4.82564 13.1501 3.9289 13.5221 3.2675 14.1835C2.6061 14.8449 2.23406 15.7417 2.233 16.677V16.93C2.23353 17.3759 2.41091 17.8035 2.72623 18.1188C3.04155 18.4341 3.46907 18.6115 3.915 18.612H8.008C8.30411 18.612 8.5881 18.7296 8.79749 18.939C9.00687 19.1484 9.1245 19.4324 9.1245 19.7285C9.1245 20.0246 9.00687 20.3086 8.79749 20.518C8.5881 20.7274 8.30411 20.844 8.008 20.844Z" fill="#717171"/>
<path d="M25.117 13.1486C24.1358 13.1486 23.1767 12.8576 22.3608 12.3125C21.545 11.7674 20.9091 10.9926 20.5336 10.0861C20.1582 9.17955 20.0599 8.18206 20.2513 7.21972C20.4428 6.25738 20.9152 5.37342 21.6091 4.67961C22.3029 3.9858 23.1868 3.51331 24.1492 3.32189C25.1115 3.13047 26.109 3.22871 27.0155 3.6042C27.922 3.97968 28.6968 4.61555 29.2419 5.43138C29.7871 6.24721 30.078 7.20637 30.078 8.18756C30.078 9.5033 29.5553 10.7652 28.625 11.6955C27.6946 12.6259 26.4327 13.1486 25.117 13.1486ZM25.117 5.45856C24.5773 5.45856 24.0496 5.61862 23.6009 5.91848C23.1521 6.21835 22.8023 6.64456 22.5957 7.14322C22.3892 7.64188 22.3351 8.19059 22.4404 8.71997C22.5457 9.24934 22.8057 9.7356 23.1873 10.1173C23.569 10.4989 24.0552 10.7588 24.5846 10.8641C25.114 10.9694 25.6627 10.9154 26.1614 10.7088C26.66 10.5023 27.0862 10.1525 27.3861 9.70372C27.686 9.25493 27.846 8.72731 27.846 8.18756C27.8461 7.8291 27.7756 7.47413 27.6386 7.14291C27.5015 6.8117 27.3005 6.51074 27.0471 6.25722C26.7936 6.00371 26.4927 5.8026 26.1616 5.66539C25.8304 5.52819 25.4755 5.45856 25.117 5.45856Z" fill="#717171"/>
<path d="M28.101 20.844H23.993C23.6969 20.844 23.4129 20.7264 23.2035 20.517C22.9942 20.3076 22.8765 20.0236 22.8765 19.7275C22.8765 19.4314 22.9942 19.1474 23.2035 18.938C23.4129 18.7286 23.6969 18.611 23.993 18.611H28.101C28.545 18.6086 28.9699 18.4302 29.2824 18.1148C29.595 17.7995 29.7696 17.373 29.768 16.929V16.676C29.7667 15.7408 29.3945 14.8443 28.7332 14.1832C28.0718 13.522 27.1752 13.1501 26.24 13.149H25.124C24.8279 13.149 24.5439 13.0314 24.3345 12.822C24.1252 12.6126 24.0075 12.3286 24.0075 12.0325C24.0075 11.7364 24.1252 11.4524 24.3345 11.243C24.5439 11.0336 24.8279 10.916 25.124 10.916H26.24C27.7671 10.9179 29.2311 11.5253 30.3109 12.6051C31.3907 13.6849 31.9982 15.1489 32 16.676V16.929C32.0008 17.9649 31.5906 18.9588 30.8595 19.6926C30.1283 20.4264 29.1359 20.8401 28.1 20.843L28.101 20.844Z" fill="#717171"/>
<path d="M16 18.8536C14.9943 18.8536 14.0111 18.5554 13.1749 17.9966C12.3387 17.4379 11.6869 16.6437 11.3021 15.7145C10.9172 14.7854 10.8165 13.763 11.0127 12.7766C11.2089 11.7902 11.6932 10.8841 12.4043 10.173C13.1155 9.46181 14.0216 8.97751 15.0079 8.7813C15.9943 8.5851 17.0168 8.6858 17.9459 9.07067C18.8751 9.45554 19.6693 10.1073 20.228 10.9435C20.7867 11.7797 21.085 12.7629 21.085 13.7686C21.085 14.4364 20.9535 15.0976 20.6979 15.7145C20.4424 16.3315 20.0678 16.892 19.5956 17.3642C19.1234 17.8364 18.5629 18.211 17.9459 18.4665C17.329 18.7221 16.6678 18.8536 16 18.8536ZM16 10.9166C15.436 10.9166 14.8846 11.0838 14.4156 11.3972C13.9466 11.7105 13.5811 12.1559 13.3652 12.677C13.1493 13.198 13.0927 13.7714 13.2027 14.3246C13.3127 14.8778 13.5842 15.386 13.983 15.7849C14.3817 16.1838 14.8898 16.4555 15.443 16.5657C15.9961 16.6758 16.5695 16.6195 17.0907 16.4038C17.6119 16.1881 18.0573 15.8227 18.3708 15.3538C18.6843 14.8849 18.8518 14.3336 18.852 13.7696C18.8521 13.395 18.7784 13.024 18.6352 12.6779C18.4919 12.3317 18.2818 12.0172 18.017 11.7523C17.7522 11.4873 17.4377 11.2772 17.0916 11.1338C16.7455 10.9904 16.3746 10.9166 16 10.9166Z" fill="#717171"/>
<path d="M18.977 28.777H13.024C11.9391 28.7752 10.8991 28.3434 10.1319 27.5762C9.3647 26.809 8.93288 25.769 8.93103 24.684V23.693C8.93103 21.818 9.6759 20.0197 11.0018 18.6938C12.3277 17.3679 14.1259 16.623 16.001 16.623C17.8761 16.623 19.6744 17.3679 21.0003 18.6938C22.3262 20.0197 23.071 21.818 23.071 23.693V24.686C23.0692 25.771 22.6374 26.811 21.8702 27.5782C21.103 28.3454 20.063 28.7772 18.978 28.779L18.977 28.777ZM16 18.854C14.7173 18.8556 13.4876 19.366 12.5808 20.2732C11.674 21.1804 11.1641 22.4103 11.163 23.693V24.686C11.1636 25.1792 11.3597 25.652 11.7084 26.0007C12.0571 26.3494 12.5299 26.5455 13.023 26.546H18.976C19.4692 26.5455 19.942 26.3494 20.2907 26.0007C20.6394 25.652 20.8355 25.1792 20.836 24.686V23.693C20.8344 22.4107 20.3243 21.1813 19.4176 20.2745C18.5108 19.3678 17.2814 18.8576 15.999 18.856L16 18.854Z" fill="#717171"/>
</g>
</svg>
