<svg width="84" height="100" viewBox="0 0 84 100" fill="none" xmlns="http://www.w3.org/2000/svg">
<path d="M63.4559 2.34787L63.6789 6.86536L65.9164 6.75481L65.5829 0L0 3.23671L4.37928 91.9574L6.61679 91.8471L2.34787 5.36375L63.4559 2.34787Z" fill="#B4B4B4"/>
<path d="M78.627 14.8828V17.123H81.5151V94.5745H78.627V96.8147H83.7553V14.8828H78.627Z" fill="#B4B4B4"/>
<path d="M33.8298 74.3594H21.8643V76.5995H33.8298V74.3594Z" fill="#B4B4B4"/>
<path d="M62.5354 74.3594H40.6084V76.5995H62.5354V74.3594Z" fill="#B4B4B4"/>
<path d="M55.8158 82.8438H25.4009V85.0839H55.8158V82.8438Z" fill="#B4B4B4"/>
<path d="M9.83984 100.003H75.5033V74.4453L57.1109 56.0541C60.0489 52.6215 61.6515 48.3015 61.6515 43.7348C61.6515 38.6651 59.6773 33.8988 56.0924 30.3139C52.5076 26.7291 47.7413 24.7548 42.6715 24.7548C37.6017 24.7548 32.8354 26.7291 29.2506 30.3139C25.6658 33.8988 23.6915 38.665 23.6915 43.7348C23.6915 48.8045 25.6658 53.5708 29.2506 57.1556C32.8355 60.7404 37.6017 62.7148 42.6715 62.7148C47.4934 62.7148 52.0399 60.9277 55.5573 57.6687L73.263 75.3733V97.7627H12.08V12.2949H73.2631V61.5951H75.5033V10.0547H9.83984V100.003ZM30.8348 55.5716C24.3079 49.0447 24.3079 38.4248 30.8348 31.8979C34.0982 28.6345 38.3848 27.0028 42.6716 27.0028C46.9582 27.0028 51.245 28.6345 54.5084 31.8979C61.0352 38.4248 61.0352 49.0447 54.5084 55.5716C47.9817 62.0985 37.3616 62.0984 30.8348 55.5716Z" fill="#B4B4B4"/>
<path d="M47.3129 37.5078L42.6716 42.1492L38.0303 37.5078L36.4463 39.0919L41.0876 43.7333L36.4463 48.3746L38.0303 49.9586L42.6716 45.3172L47.3129 49.9586L48.897 48.3746L44.2556 43.7333L48.897 39.0919L47.3129 37.5078Z" fill="#B4B4B4"/>
</svg>
