<svg width="18" height="18" viewBox="0 0 18 18" fill="none" xmlns="http://www.w3.org/2000/svg">
<path d="M16.1111 11.6667C16.1111 13.3234 16.1111 14.1516 15.8404 14.8051C15.4795 15.6763 14.7873 16.3684 13.9161 16.7293C13.2627 17 12.4344 17 10.7777 17H8.11108C4.75888 17 3.08276 17 2.04136 15.9586C0.999956 14.9172 0.999974 13.2411 1 9.8888L1.00005 4.5554C1.00007 2.5918 2.59189 1 4.55549 1" stroke="#717171" stroke-width="1.2" stroke-linecap="round" stroke-linejoin="round"/>
<path d="M7.22217 5.89063L7.60768 9.41854C7.64448 9.71347 7.82573 9.97054 8.09879 10.0879C8.70857 10.3497 9.85062 10.7795 10.7777 10.7795C11.7049 10.7795 12.847 10.3497 13.4567 10.0879C13.7298 9.97054 13.9111 9.71347 13.9479 9.41854L14.3333 5.89063M16.5555 5.00174V8.35214M10.7777 1.89062L4.55554 4.55729L10.7777 7.22396L17 4.55729L10.7777 1.89062Z" stroke="#717171" stroke-width="1.2" stroke-linecap="round" stroke-linejoin="round"/>
</svg>
