<svg width="16" height="18" viewBox="0 0 16 18" fill="none" xmlns="http://www.w3.org/2000/svg">
<path d="M14.2 3.79688L13.7042 11.817C13.5775 13.866 13.5142 14.8906 13.0006 15.6272C12.7466 15.9914 12.4197 16.2987 12.0405 16.5297C11.2736 16.9969 10.2472 16.9969 8.19411 16.9969C6.13845 16.9969 5.11059 16.9969 4.34319 16.5288C3.96379 16.2974 3.63675 15.9895 3.3829 15.6247C2.86946 14.887 2.80751 13.861 2.68364 11.809L2.19995 3.79688" stroke="#717171" stroke-width="1.2" stroke-linecap="round"/>
<path d="M1 3.8H15.4M11.4446 3.8L10.8985 2.67338C10.5357 1.92501 10.3542 1.55082 10.0414 1.31745C9.972 1.26568 9.89848 1.21963 9.8216 1.17976C9.47512 1 9.05928 1 8.2276 1C7.37504 1 6.9488 1 6.59654 1.1873C6.51848 1.22881 6.44398 1.27672 6.37383 1.33054C6.05731 1.57336 5.8805 1.96124 5.52689 2.73701L5.04234 3.8" stroke="#717171" stroke-width="1.2" stroke-linecap="round"/>
<path d="M6.19995 12.5969V7.79688" stroke="#717171" stroke-width="1.2" stroke-linecap="round"/>
<path d="M10.2 12.5969V7.79688" stroke="#717171" stroke-width="1.2" stroke-linecap="round"/>
</svg>
