<svg width="32" height="32" viewBox="0 0 32 32" fill="none" xmlns="http://www.w3.org/2000/svg">
<rect width="32" height="32" rx="4" fill="black"/>
<path d="M22.1377 24.7968C22.0476 24.7968 21.9576 24.7968 21.8675 24.7805C20.5244 24.6495 19.4761 23.4299 19.4761 22.0139V12.7155C19.4761 12.3799 19.7545 12.1016 20.0903 12.1016H22.5472C23.7921 12.1016 24.7994 13.1083 24.7994 14.3525V22.1284C24.7994 22.8815 24.48 23.6018 23.9231 24.1011C23.4317 24.5431 22.7929 24.7886 22.1295 24.7886L22.1377 24.7968ZM20.7127 13.3375V22.022C20.7127 22.816 21.2778 23.4954 21.9985 23.5609C22.408 23.6018 22.8011 23.4708 23.1123 23.2007C23.4153 22.9306 23.5873 22.5459 23.5873 22.1366V14.3607C23.5873 13.7959 23.1287 13.3375 22.5636 13.3375H20.7209H20.7127Z" fill="white"/>
<path d="M22.146 23.5657C21.3597 23.5657 20.7127 22.9191 20.7127 22.1333V9.44625C20.7127 8.20209 19.7054 7.19531 18.4606 7.19531H9.45188C8.20704 7.19531 7.19971 8.20209 7.19971 9.44625V20.9055C7.19971 23.0501 8.94412 24.7935 11.0898 24.7935H22.146C22.4817 24.7935 22.7602 24.5152 22.7602 24.1796C22.7602 23.844 22.4817 23.5657 22.146 23.5657ZM10.6803 10.4694H14.3657C14.7015 10.4694 14.9799 10.7477 14.9799 11.0833C14.9799 11.4189 14.7015 11.6972 14.3657 11.6972H10.6803C10.3446 11.6972 10.0661 11.4189 10.0661 11.0833C10.0661 10.7477 10.3446 10.4694 10.6803 10.4694ZM17.2321 21.5194H10.6803C10.3446 21.5194 10.0661 21.2411 10.0661 20.9055C10.0661 20.57 10.3446 20.2917 10.6803 20.2917H17.2321C17.5679 20.2917 17.8463 20.57 17.8463 20.9055C17.8463 21.2411 17.5679 21.5194 17.2321 21.5194ZM17.2321 18.2454H10.6803C10.3446 18.2454 10.0661 17.9671 10.0661 17.6315C10.0661 17.2959 10.3446 17.0176 10.6803 17.0176H17.2321C17.5679 17.0176 17.8463 17.2959 17.8463 17.6315C17.8463 17.9671 17.5679 18.2454 17.2321 18.2454ZM17.2321 14.9713H10.6803C10.3446 14.9713 10.0661 14.693 10.0661 14.3574C10.0661 14.0218 10.3446 13.7435 10.6803 13.7435H17.2321C17.5679 13.7435 17.8463 14.0218 17.8463 14.3574C17.8463 14.693 17.5679 14.9713 17.2321 14.9713Z" fill="white"/>
</svg>
