<svg width="16" height="16" viewBox="0 0 16 16" fill="none" xmlns="http://www.w3.org/2000/svg">
<g id="Group 603">
<path id="Vector" d="M2.07667 2.53386H1.87263C1.93506 2.5121 2.00355 2.5 2.07667 2.5H13.9233C13.9964 2.5 14.0649 2.5121 14.1274 2.53386H13.9233H2.07667ZM1.5 3.03386C1.5 2.94056 1.52737 2.84927 1.57667 2.76931V3.03386V3.65885V4.15885H2.07667H13.9233H14.4233V3.65885V3.03386V2.76931C14.4726 2.84927 14.5 2.94056 14.5 3.03386V12.3411C14.5 12.4344 14.4726 12.5257 14.4233 12.6057V12.3411V5.31771V4.81771H13.9233H2.07667H1.57667V5.31771V9.28031V12.1765V12.6057C1.52737 12.5257 1.5 12.4344 1.5 12.3411V3.03386ZM13.9164 12.8411L14.1192 12.8439C14.059 12.8639 13.9933 12.875 13.9233 12.875H2.07667C1.88539 12.875 1.7258 12.7922 1.62336 12.6703L2.06972 12.6765L13.9164 12.8411Z" stroke="#112D55"/>
</g>
</svg>
