<svg width="32" height="32" viewBox="0 0 32 32" fill="none" xmlns="http://www.w3.org/2000/svg">
<path d="M5 29.6875V0.625H29.875V29.6875C29.875 30.6195 29.1195 31.375 28.1875 31.375H3.3125C4.2445 31.375 5 30.6195 5 29.6875Z" fill="white"/>
<path d="M3.3125 31.375C4.2445 31.375 5 30.6195 5 29.6875V6H1.625V29.6875C1.625 30.6195 2.3805 31.375 3.3125 31.375Z" fill="#FFCB7C"/>
<path d="M7.8125 12.5H18.3125V24.5H7.8125V12.5Z" fill="#CEE3FF"/>
<path d="M18.4261 24.493V18.2419L15.4655 15.2812L12.0458 18.7009L17.8542 24.493H18.4261Z" fill="#D8EC84"/>
<path d="M10.2807 16.9375L7.8125 19.4037V24.4896H17.8542L10.2807 16.9375Z" fill="#D8EC84"/>
<path d="M29.875 0H5C4.65481 0 4.375 0.279875 4.375 0.625V5.375H1.625C1.27981 5.375 1 5.65488 1 6V29.6875C1 30.9626 2.03737 32 3.3125 32H28.1875C29.4626 32 30.5 30.9626 30.5 29.6875V21.3099C30.5 20.9648 30.2202 20.6849 29.875 20.6849C29.5298 20.6849 29.25 20.9648 29.25 21.3099V29.6875C29.25 30.2734 28.7734 30.75 28.1875 30.75H5.36544C5.53088 30.4316 5.625 30.0704 5.625 29.6875V1.25H29.25V15.6849C29.25 16.03 29.5298 16.3099 29.875 16.3099C30.2202 16.3099 30.5 16.03 30.5 15.6849V0.625C30.5 0.279875 30.2202 0 29.875 0ZM2.25 29.6875V6.625H4.375V29.6875C4.375 30.2734 3.89837 30.75 3.3125 30.75C2.72663 30.75 2.25 30.2734 2.25 29.6875Z" fill="black"/>
<path d="M7.81561 9.3125C8.1608 9.3125 8.44061 9.03262 8.44061 8.6875V6.45037L10.1699 8.95444C10.3499 9.21431 10.6515 9.32419 10.9383 9.23469C11.2301 9.14344 11.4187 8.87244 11.4187 8.54425V4.4375C11.4187 4.09237 11.1389 3.8125 10.7937 3.8125C10.4486 3.8125 10.1687 4.09237 10.1687 4.4375V6.75312L8.32986 4.09037C8.17443 3.86525 7.89068 3.76769 7.62955 3.84888C7.36843 3.93031 7.19055 4.17206 7.19055 4.44556V8.68756C7.19061 9.03263 7.47043 9.3125 7.81561 9.3125Z" fill="black"/>
<path d="M15.0846 5.0625C15.4298 5.0625 15.7096 4.78262 15.7096 4.4375C15.7096 4.09237 15.4298 3.8125 15.0846 3.8125H13.2938C12.9486 3.8125 12.6688 4.09237 12.6688 4.4375V8.6875C12.6688 9.03262 12.9486 9.3125 13.2938 9.3125H15.0846C15.4298 9.3125 15.7096 9.03262 15.7096 8.6875C15.7096 8.34238 15.4298 8.0625 15.0846 8.0625H13.9188V7.18756H14.9525C15.2977 7.18756 15.5775 6.90769 15.5775 6.56256C15.5775 6.21744 15.2977 5.93756 14.9525 5.93756H13.9188V5.0625H15.0846Z" fill="black"/>
<path d="M25.7805 8.06216C25.3841 8.06216 25.0035 7.90341 24.7625 7.63747C24.5307 7.38166 24.1355 7.36235 23.8797 7.59416C23.624 7.82597 23.6045 8.22122 23.8363 8.47697C24.3175 9.00772 25.026 9.31216 25.7805 9.31216C26.7216 9.31216 27.5125 8.70816 27.6612 7.87597C27.7736 7.24604 27.4924 6.42485 26.3658 6.00935C25.86 5.82279 25.3879 5.61997 25.2265 5.54941C25.1595 5.48929 25.1586 5.41085 25.1649 5.36654C25.1732 5.30929 25.2161 5.16904 25.4372 5.10241C25.9853 4.93735 26.5031 5.34191 26.5205 5.35579C26.7848 5.57429 27.1763 5.53922 27.3973 5.27635C27.6194 5.0121 27.5852 4.61791 27.321 4.39579C27.2793 4.36066 26.2858 3.54154 25.0767 3.90554C24.4546 4.09297 24.0143 4.58472 23.9276 5.18891C23.8459 5.75804 24.0927 6.30566 24.5718 6.61791C24.5994 6.63591 24.6283 6.65166 24.6585 6.6651C24.6832 6.67616 25.2712 6.93791 25.9332 7.18204C26.0613 7.22929 26.4758 7.40316 26.4306 7.65622C26.3958 7.85141 26.1373 8.06216 25.7805 8.06216Z" fill="black"/>
<path d="M17.685 8.83176C17.7866 9.11995 18.0591 9.31276 18.3641 9.31276C18.3657 9.31276 18.3674 9.31276 18.369 9.3127C18.676 9.31063 18.9483 9.11357 19.0465 8.82245C19.0483 8.81707 19.05 8.81163 19.0517 8.8062L19.7374 6.57438L20.42 8.80663C20.4225 8.81507 20.4253 8.82345 20.4282 8.8317C20.5298 9.11988 20.8023 9.3127 21.1073 9.3127C21.1089 9.3127 21.1105 9.3127 21.1122 9.31263C21.4191 9.31063 21.6913 9.11363 21.7897 8.82257C21.7984 8.79682 21.8054 8.77045 21.8107 8.7437L22.6358 4.56651C22.7027 4.22788 22.4824 3.89913 22.1438 3.83226C21.8052 3.76563 21.4764 3.98563 21.4095 4.32432L20.9962 6.41651L20.3352 4.25495C20.2342 3.92482 19.8847 3.73901 19.5548 3.84001C19.3321 3.90807 19.1755 4.08938 19.128 4.30145L18.478 6.41695L18.0658 4.3172C17.9993 3.97851 17.6709 3.75788 17.3321 3.82432C16.9934 3.89076 16.7727 4.21926 16.8392 4.55801L17.6611 8.7442C17.667 8.77401 17.675 8.80326 17.685 8.83176Z" fill="black"/>
<path d="M7.1875 24.5C7.1875 24.8451 7.46731 25.125 7.8125 25.125H18.3125C18.6577 25.125 18.9375 24.8451 18.9375 24.5V12.5C18.9375 12.1549 18.6577 11.875 18.3125 11.875H7.8125C7.46731 11.875 7.1875 12.1549 7.1875 12.5V24.5ZM8.4375 19.6749L10.2807 17.8317L11.5933 19.1442C11.5934 19.1444 11.5936 19.1447 11.5939 19.1449C11.5941 19.1451 11.5944 19.1453 11.5946 19.1455L16.324 23.8749H8.4375V19.6749ZM17.6875 23.4707L12.9197 18.703L15.4505 16.1722L17.6875 18.4091V23.4707ZM17.6875 13.125V16.6413L15.8925 14.8463C15.6484 14.6023 15.2527 14.6023 15.0086 14.8463L12.0358 17.8191L10.7226 16.5059C10.4786 16.2618 10.0828 16.2619 9.83875 16.5059L8.4375 17.9071V13.125H17.6875Z" fill="black"/>
<path d="M27.0625 23.875H21.4375C21.0923 23.875 20.8125 24.1549 20.8125 24.5C20.8125 24.8451 21.0923 25.125 21.4375 25.125H27.0625C27.4077 25.125 27.6875 24.8451 27.6875 24.5C27.6875 24.1549 27.4077 23.875 27.0625 23.875Z" fill="black"/>
<path d="M27.0625 14.875H21.4375C21.0923 14.875 20.8125 15.1549 20.8125 15.5C20.8125 15.8451 21.0923 16.125 21.4375 16.125H27.0625C27.4077 16.125 27.6875 15.8451 27.6875 15.5C27.6875 15.1549 27.4077 14.875 27.0625 14.875Z" fill="black"/>
<path d="M27.0625 17.875H21.4375C21.0923 17.875 20.8125 18.1549 20.8125 18.5C20.8125 18.8451 21.0923 19.125 21.4375 19.125H27.0625C27.4077 19.125 27.6875 18.8451 27.6875 18.5C27.6875 18.1549 27.4077 17.875 27.0625 17.875Z" fill="black"/>
<path d="M27.0625 11.875H21.4375C21.0923 11.875 20.8125 12.1549 20.8125 12.5C20.8125 12.8451 21.0923 13.125 21.4375 13.125H27.0625C27.4077 13.125 27.6875 12.8451 27.6875 12.5C27.6875 12.1549 27.4077 11.875 27.0625 11.875Z" fill="black"/>
<path d="M27.0625 20.875H21.4375C21.0923 20.875 20.8125 21.1549 20.8125 21.5C20.8125 21.8451 21.0923 22.125 21.4375 22.125H27.0625C27.4077 22.125 27.6875 21.8451 27.6875 21.5C27.6875 21.1549 27.4077 20.875 27.0625 20.875Z" fill="black"/>
<path d="M7.8125 28.625H27.0625C27.4077 28.625 27.6875 28.3451 27.6875 28C27.6875 27.6549 27.4077 27.375 27.0625 27.375H7.8125C7.46731 27.375 7.1875 27.6549 7.1875 28C7.1875 28.3451 7.46731 28.625 7.8125 28.625Z" fill="black"/>
<path d="M29.875 17.875C29.71 17.875 29.5494 17.9419 29.4331 18.0581C29.3169 18.1744 29.25 18.335 29.25 18.5C29.25 18.6644 29.3169 18.8256 29.4331 18.9419C29.5494 19.0581 29.71 19.125 29.875 19.125C30.0394 19.125 30.2006 19.0581 30.3169 18.9419C30.4331 18.8256 30.5 18.6644 30.5 18.5C30.5 18.3356 30.4331 18.1744 30.3169 18.0581C30.2006 17.9419 30.0394 17.875 29.875 17.875Z" fill="black"/>
</svg>
