<svg width="120" height="60" viewBox="0 0 120 60" fill="none" xmlns="http://www.w3.org/2000/svg">
<path d="M27.6 20.625V31.8L18.75 20.625H16.95L27.975 34.425H29.1V20.625H27.6ZM13.95 20.625L24.9 34.5H26.7L15.75 20.625H13.95ZM34.05 20.625H35.475V42.375H34.05V20.625ZM18.6 28.35H16.8L27.6 42.375H29.4L18.6 28.35ZM31.65 20.625H33.075V42.375H31.65V20.625ZM14.475 28.275V42.375H15.9V30.975L24.75 42.375H26.55L15.6 28.275H14.475ZM10.425 20.625H11.85V42.375H10.425V20.625Z" fill="#0018A8"/>
<path d="M67.7256 29.0992V32.2492L65.7756 29.0992H64.0506V34.1992H65.4006V30.8992L67.5756 34.1992H69.0006V29.0992H67.7256ZM59.3256 29.0992H60.6756V34.1992H59.3256V29.0992ZM75.3006 29.0242L74.2506 32.4742L73.1256 29.0242H71.7006L73.5006 34.1242H75.0756L76.7256 29.0242H75.3006ZM79.4256 29.0242V34.1242H83.4006V32.9992H80.8506V32.0992H83.1756V30.9742H80.8506V30.2242H83.4006V29.0242H79.4256ZM88.0506 32.0992C87.6756 32.0242 87.3006 31.8742 87.0006 31.5742C86.7006 31.2742 86.5506 30.8992 86.5506 30.5242C86.5506 30.0742 86.7756 29.6242 87.1506 29.3242C87.5256 29.0242 88.0506 28.8742 88.5756 28.8742C89.3256 28.8742 90.0756 29.1742 90.5256 29.7742L89.7006 30.6742C89.3256 30.2242 88.9506 29.9992 88.5006 29.9992C88.1256 29.9992 87.9006 30.1492 87.9006 30.3742C87.9006 30.5242 88.0506 30.6742 88.3506 30.7492L89.0256 30.8992C90.0756 31.1242 90.6756 31.6492 90.6756 32.5492C90.6756 32.9992 90.4506 33.4492 90.0756 33.6742C89.6256 33.9742 89.1006 34.1242 88.5756 34.1242C87.7506 34.1242 86.9256 33.7492 86.4006 33.0742L87.2256 32.2492C87.5256 32.6992 88.0506 32.9992 88.6506 32.9992C89.1006 32.9992 89.3256 32.8492 89.3256 32.6242C89.3256 32.3992 89.1756 32.3242 88.8006 32.2492L88.0506 32.0992ZM93.2256 29.0242V30.2242H94.9506V34.1992H96.3006V30.2242H97.8756V29.0242H93.2256ZM51.4506 20.8492V23.9992L49.5006 20.8492H47.7756V25.9492H49.1256V22.6492L51.3006 25.9492H52.8756V20.8492H51.4506ZM55.9506 20.8492H57.3006V25.9492H55.9506V20.8492ZM60.6006 25.9492V20.8492H62.4756C63.1506 20.8492 63.8256 20.9992 64.3506 21.3742C64.8756 21.7492 65.2506 22.4242 65.2506 23.3992C65.2506 25.3492 63.8256 26.0242 62.4756 26.0242H60.6006V25.9492ZM61.9506 22.0492V24.8242H62.3256C63.3756 24.8242 63.9006 24.3742 63.9006 23.3992C63.9006 22.4992 63.3756 22.0492 62.3256 22.0492H61.9506ZM71.5506 25.9492L71.2506 25.1242H69.4506L69.1506 25.9492H67.8006L69.6756 20.8492H71.1006L72.9756 25.9492H71.5506ZM70.3506 22.5742L69.8256 23.9992H70.8006L70.3506 22.5742ZM78.8256 25.9492L77.8506 24.3742H77.2506V25.9492H75.9006V20.8492H78.0756C79.4256 20.8492 80.1756 21.4492 80.1756 22.6492C80.1756 23.3992 79.8756 23.8492 79.2756 24.1492L80.3256 25.9492H78.8256ZM77.2506 22.0492V23.2492H78.0006C78.6006 23.2492 78.9006 23.0242 78.9006 22.6492C78.9006 22.2742 78.6756 22.0492 78.0006 22.0492H77.2506ZM86.4006 25.9492V23.9992H84.8256V25.9492H83.4756V20.8492H84.8256V22.7992H86.4006V20.8492H87.7506V25.9492H86.4006ZM91.2006 21.5242C92.2506 20.5492 93.9006 20.5492 94.8756 21.5242C95.4006 22.0492 95.6256 22.7242 95.6256 23.3992C95.6256 24.0742 95.4006 24.8242 94.8756 25.2742C93.8256 26.2492 92.1756 26.2492 91.2006 25.2742C90.6756 24.7492 90.4506 24.0742 90.4506 23.3992C90.4506 22.7242 90.6756 22.0492 91.2006 21.5242ZM92.1756 24.4492C92.4006 24.7492 92.7006 24.8992 93.0756 24.8242C93.4506 24.8242 93.7506 24.6742 93.9756 24.4492C94.2006 24.1492 94.3506 23.7742 94.2756 23.3992C94.2756 23.0242 94.2006 22.6492 93.9756 22.3492C93.7506 22.0492 93.4506 21.8992 93.0756 21.9742C92.7006 21.9742 92.4006 22.1242 92.1756 22.3492C91.9506 22.6492 91.8006 23.0242 91.8756 23.3992C91.8006 23.7742 91.9506 24.1492 92.1756 24.4492ZM98.1006 25.9492V20.8492H99.4506V24.8242H101.701V26.0242H98.1006V25.9492ZM108.001 20.8492L106.951 23.3242L105.901 20.8492H104.326V25.8742H105.676V23.2492L106.426 24.8992H107.551L108.301 23.2492V25.8742H109.651V20.8492C109.576 20.8492 108.001 20.8492 108.001 20.8492Z" fill="#1A2155"/>
</svg>
