<svg width="24" height="24" viewBox="0 0 24 24" fill="none" xmlns="http://www.w3.org/2000/svg">
<path d="M11.5 2.9502V12.6002H19.1V11.6502H12.5V2.9502H11.5Z" fill="#525252"/>
<path d="M23.85 10.1L22.9 10.25C23 10.85 23.05 11.4 23.05 12C23.05 18.1 18.1 23.05 12 23.05C5.9 23.05 0.95 18.1 0.95 12C0.95 5.9 5.9 0.95 12 0.95C15.8 0.95 19.3 2.9 21.3 6.05L17.45 5.25L17.25 6.2L22.6 7.3L23.7 1.95L22.75 1.75L22 5.4C19.85 2.05 16.1 0 12 0C5.4 0 0 5.4 0 12C0 18.6 5.4 24 12 24C18.6 24 24 18.6 24 12C24 11.35 23.95 10.7 23.85 10.1Z" fill="#525252"/>
</svg>
