<svg width="209" height="137" viewBox="0 0 209 137" fill="none" xmlns="http://www.w3.org/2000/svg">
<path d="M199.551 32C210.551 32 211.151 15.4 200.151 14.9C199.851 14.9 199.551 14.9 199.251 14.9C197.251 14.9 195.351 15.2 193.651 15.8C192.151 6.8 184.351 0 174.951 0C165.351 0 157.451 7.19999 156.151 16.4C153.851 15.3 151.351 14.7 148.651 14.7C147.151 14.7 145.651 14.9 144.251 15.3C134.651 17.8 136.651 32.1 146.551 32.1H199.551V32Z" fill="#F9F7F8"/>
<path d="M14.338 131.338C14.338 131.338 -10.5714 111.531 5.2743 88.2326C21.12 64.934 42.4087 76.6482 41.3788 49.5272C40.3488 22.4061 90.3341 20.0762 106.243 27.9419C122.152 35.8076 122.057 45.2763 154.905 42.1417C187.754 39.0071 194.029 65.1287 185.48 78.4459C173.358 97.3378 219.128 94.2227 190.289 131.345H14.338V131.338Z" fill="#FCFCFC"/>
<path d="M122.83 76.1895H77V93.6072H122.83V76.1895Z" fill="#F0F0F0"/>
<path d="M99.915 98.0004C112.571 98.0004 122.83 96.0341 122.83 93.6086C122.83 91.1831 112.571 89.2168 99.915 89.2168C87.2594 89.2168 77 91.1831 77 93.6086C77 96.0341 87.2594 98.0004 99.915 98.0004Z" fill="#F0F0F0"/>
<path d="M99.915 80.5805C112.571 80.5805 122.83 78.6142 122.83 76.1887C122.83 73.7631 112.571 71.7969 99.915 71.7969C87.2594 71.7969 77 73.7631 77 76.1887C77 78.6142 87.2594 80.5805 99.915 80.5805Z" fill="#CACACA"/>
<path d="M120.948 59.5781H78.8823V74.9345H120.948V59.5781Z" fill="#152027"/>
<path d="M99.9151 78.7881C111.531 78.7881 120.948 77.0626 120.948 74.9341C120.948 72.8056 111.531 71.0801 99.9151 71.0801C88.299 71.0801 78.8823 72.8056 78.8823 74.9341C78.8823 77.0626 88.299 78.7881 99.9151 78.7881Z" fill="#152027"/>
<path d="M122.83 54.6191H77V72.0369H122.83V54.6191Z" fill="#F0F0F0"/>
<path d="M99.915 76.4301C112.571 76.4301 122.83 74.4638 122.83 72.0383C122.83 69.6128 112.571 67.6465 99.915 67.6465C87.2594 67.6465 77 69.6128 77 72.0383C77 74.4638 87.2594 76.4301 99.915 76.4301Z" fill="#F0F0F0"/>
<path d="M99.915 59.0121C112.571 59.0121 122.83 57.0458 122.83 54.6203C122.83 52.1948 112.571 50.2285 99.915 50.2285C87.2594 50.2285 77 52.1948 77 54.6203C77 57.0458 87.2594 59.0121 99.915 59.0121Z" fill="#CACACA"/>
<path d="M120.948 37.9805H78.8823V53.3368H120.948V37.9805Z" fill="#152027"/>
<path d="M99.9151 57.1905C111.531 57.1905 120.948 55.465 120.948 53.3364C120.948 51.2079 111.531 49.4824 99.9151 49.4824C88.299 49.4824 78.8823 51.2079 78.8823 53.3364C78.8823 55.465 88.299 57.1905 99.9151 57.1905Z" fill="#152027"/>
<path d="M122.83 32.3926H77V49.8104H122.83V32.3926Z" fill="#F0F0F0"/>
<path d="M99.915 54.2035C112.571 54.2035 122.83 52.2372 122.83 49.8117C122.83 47.3862 112.571 45.4199 99.915 45.4199C87.2594 45.4199 77 47.3862 77 49.8117C77 52.2372 87.2594 54.2035 99.915 54.2035Z" fill="#F0F0F0"/>
<path d="M99.915 36.7836C112.571 36.7836 122.83 34.8173 122.83 32.3918C122.83 29.9663 112.571 28 99.915 28C87.2594 28 77 29.9663 77 32.3918C77 34.8173 87.2594 36.7836 99.915 36.7836Z" fill="#CACACA"/>
<path d="M99.9148 35.7372C109.617 35.7372 117.482 34.2391 117.482 32.391C117.482 30.543 109.617 29.0449 99.9148 29.0449C90.2127 29.0449 82.3477 30.543 82.3477 32.391C82.3477 34.2391 90.2127 35.7372 99.9148 35.7372Z" fill="#152027"/>
<path d="M90.3847 45.1186C90.3847 45.9253 89.7274 46.5527 88.9507 46.5527C88.144 46.5527 87.5166 45.8954 87.5166 45.1186C87.5166 44.3418 88.1739 43.6846 88.9507 43.6846C89.7573 43.6547 90.3847 44.312 90.3847 45.1186Z" fill="#152027"/>
<path d="M104.683 45.1176C104.683 45.9243 104.025 46.5517 103.249 46.5517C102.472 46.5517 101.814 45.8944 101.814 45.1176C101.814 44.3409 102.472 43.6836 103.249 43.6836C104.025 43.6836 104.683 44.311 104.683 45.1176Z" fill="white"/>
<path d="M96.1806 46.5517C96.9726 46.5517 97.6147 45.9097 97.6147 45.1176C97.6147 44.3256 96.9726 43.6836 96.1806 43.6836C95.3886 43.6836 94.7466 44.3256 94.7466 45.1176C94.7466 45.9097 95.3886 46.5517 96.1806 46.5517Z" fill="#152027"/>
<path d="M115.182 46.5523H108.998C108.37 46.5523 107.833 46.0444 107.833 45.3871V44.8195C107.833 44.1921 108.34 43.6543 108.998 43.6543H115.182C115.809 43.6543 116.347 44.1622 116.347 44.8195V45.3871C116.347 46.0444 115.839 46.5523 115.182 46.5523Z" fill="#CACACA"/>
<path d="M90.3847 67.645C90.3847 68.4516 89.7274 69.079 88.9507 69.079C88.144 69.079 87.5166 68.4218 87.5166 67.645C87.5166 66.8383 88.1739 66.2109 88.9507 66.2109C89.7573 66.2109 90.3847 66.8383 90.3847 67.645Z" fill="#152027"/>
<path d="M97.6147 67.645C97.6147 68.4516 96.9574 69.079 96.1806 69.079C95.4039 69.079 94.7466 68.4218 94.7466 67.645C94.7466 66.8383 95.4039 66.2109 96.1806 66.2109C96.9574 66.2109 97.6147 66.8383 97.6147 67.645Z" fill="white"/>
<path d="M103.381 69.079C104.173 69.079 104.815 68.437 104.815 67.645C104.815 66.853 104.173 66.2109 103.381 66.2109C102.589 66.2109 101.947 66.853 101.947 67.645C101.947 68.437 102.589 69.079 103.381 69.079Z" fill="#152027"/>
<path d="M115.182 69.0796H108.998C108.37 69.0796 107.833 68.5717 107.833 67.9145V67.3468C107.833 66.7194 108.34 66.1816 108.998 66.1816H115.182C115.809 66.1816 116.347 66.6895 116.347 67.3468V67.9145C116.347 68.5717 115.839 69.0796 115.182 69.0796Z" fill="#CACACA"/>
<path d="M90.3847 90.1704C90.3847 90.977 89.7274 91.6044 88.9507 91.6044C88.144 91.6044 87.5166 90.9472 87.5166 90.1704C87.5166 89.3936 88.1739 88.7363 88.9507 88.7363C89.7573 88.7363 90.3847 89.3637 90.3847 90.1704Z" fill="white"/>
<path d="M97.6147 90.1704C97.6147 90.977 96.9574 91.6044 96.1806 91.6044C95.4039 91.6044 94.7466 90.9472 94.7466 90.1704C94.7466 89.3936 95.4039 88.7363 96.1806 88.7363C96.9574 88.7363 97.6147 89.3637 97.6147 90.1704Z" fill="#152027"/>
<path d="M104.815 90.1704C104.815 90.977 104.158 91.6044 103.381 91.6044C102.604 91.6044 101.947 90.9472 101.947 90.1704C101.947 89.3936 102.604 88.7363 103.381 88.7363C104.158 88.7363 104.815 89.3637 104.815 90.1704Z" fill="#152027"/>
<path d="M115.182 91.605H108.998C108.37 91.605 107.833 91.0971 107.833 90.4398V89.8722C107.833 89.2448 108.34 88.707 108.998 88.707H115.182C115.809 88.707 116.347 89.2149 116.347 89.8722V90.4398C116.347 91.0971 115.839 91.605 115.182 91.605Z" fill="#CACACA"/>
<path d="M165.21 62.9311L157.21 60.0311C156.61 59.8311 155.91 60.6311 156.01 61.4311L157.61 69.4311C157.71 70.1311 158.41 70.3311 158.91 69.9311L165.21 64.7311C165.91 64.2311 165.91 63.1311 165.21 62.9311Z" stroke="#121212" stroke-miterlimit="10" stroke-linejoin="round"/>
<path d="M69.2096 128.931L61.2096 126.031C60.6096 125.831 59.9096 126.631 60.0096 127.431L61.6096 135.431C61.7096 136.131 62.4096 136.331 62.9096 135.931L69.2096 130.731C69.9096 130.231 69.9096 129.131 69.2096 128.931Z" stroke="#121212" stroke-miterlimit="10" stroke-linejoin="round"/>
<mask id="mask0_1660_1043" style="mask-type:luminance" maskUnits="userSpaceOnUse" x="188" y="104" width="20" height="6">
<path d="M208 104H188V110H208V104Z" fill="white"/>
</mask>
<g mask="url(#mask0_1660_1043)">
<path d="M188 109.5H202" stroke="#121212" stroke-miterlimit="10" stroke-linejoin="round"/>
<path d="M199.1 104.5H208" stroke="#121212" stroke-miterlimit="10" stroke-linejoin="round"/>
</g>
<mask id="mask1_1660_1043" style="mask-type:luminance" maskUnits="userSpaceOnUse" x="32" y="44" width="20" height="6">
<path d="M52 44H32V50H52V44Z" fill="white"/>
</mask>
<g mask="url(#mask1_1660_1043)">
<path d="M32 49.5H46" stroke="#121212" stroke-miterlimit="10" stroke-linejoin="round"/>
<path d="M43.1001 44.5H52.0001" stroke="#121212" stroke-miterlimit="10" stroke-linejoin="round"/>
</g>
<path d="M20.6 99.3C20.6 101.1 19.1 102.6 17.3 102.6C15.5 102.6 14 101.1 14 99.3C14 97.5 15.5 96 17.3 96C19.1 96.1 20.6 97.5 20.6 99.3Z" stroke="#121212" stroke-miterlimit="10" stroke-linejoin="round"/>
<path d="M172.6 122.3C172.6 124.1 171.1 125.6 169.3 125.6C167.5 125.6 166 124.1 166 122.3C166 120.5 167.5 119 169.3 119C171.1 119.1 172.6 120.5 172.6 122.3Z" stroke="#121212" stroke-miterlimit="10" stroke-linejoin="round"/>
<path d="M38.236 112V103.6H41.56C42 103.6 42.396 103.708 42.748 103.924C43.1 104.14 43.38 104.44 43.588 104.824C43.796 105.2 43.9 105.624 43.9 106.096C43.9 106.592 43.796 107.036 43.588 107.428C43.38 107.812 43.1 108.12 42.748 108.352C42.396 108.576 42 108.688 41.56 108.688H39.172V112H38.236ZM39.172 107.776H41.608C41.856 107.776 42.076 107.704 42.268 107.56C42.468 107.408 42.628 107.208 42.748 106.96C42.868 106.704 42.928 106.412 42.928 106.084C42.928 105.788 42.868 105.524 42.748 105.292C42.628 105.052 42.468 104.864 42.268 104.728C42.076 104.584 41.856 104.512 41.608 104.512H39.172V107.776ZM45.7008 112V103.6H46.6368V111.088H50.6688V112H45.7008ZM54.6633 112.12C54.0393 112.12 53.4833 111.984 52.9953 111.712C52.5153 111.44 52.1393 111.06 51.8673 110.572C51.5953 110.084 51.4593 109.524 51.4593 108.892C51.4593 108.404 51.5353 107.964 51.6873 107.572C51.8393 107.172 52.0513 106.824 52.3233 106.528C52.6033 106.232 52.9353 106.004 53.3193 105.844C53.7033 105.676 54.1193 105.592 54.5673 105.592C54.9913 105.592 55.3753 105.668 55.7193 105.82C56.0713 105.972 56.3713 106.184 56.6193 106.456C56.8753 106.72 57.0673 107.036 57.1953 107.404C57.3233 107.772 57.3793 108.176 57.3633 108.616L57.3513 109.036H52.1313L51.9993 108.28H56.6673L56.4513 108.484V108.196C56.4353 107.908 56.3513 107.632 56.1993 107.368C56.0473 107.096 55.8313 106.876 55.5513 106.708C55.2793 106.54 54.9513 106.456 54.5673 106.456C54.1193 106.456 53.7313 106.548 53.4033 106.732C53.0753 106.908 52.8233 107.172 52.6473 107.524C52.4713 107.876 52.3833 108.312 52.3833 108.832C52.3833 109.328 52.4793 109.76 52.6713 110.128C52.8633 110.488 53.1353 110.768 53.4873 110.968C53.8473 111.168 54.2793 111.268 54.7833 111.268C55.0793 111.268 55.3713 111.22 55.6593 111.124C55.9553 111.02 56.2793 110.82 56.6313 110.524L57.0993 111.172C56.9153 111.356 56.6953 111.52 56.4393 111.664C56.1833 111.8 55.9033 111.912 55.5993 112C55.2953 112.08 54.9833 112.12 54.6633 112.12ZM61.0896 112.12C60.5456 112.12 60.0536 111.98 59.6136 111.7C59.1736 111.412 58.8256 111.024 58.5696 110.536C58.3136 110.04 58.1856 109.48 58.1856 108.856C58.1856 108.224 58.3176 107.664 58.5816 107.176C58.8456 106.688 59.1976 106.304 59.6376 106.024C60.0856 105.744 60.5856 105.604 61.1376 105.604C61.4656 105.604 61.7696 105.652 62.0496 105.748C62.3296 105.844 62.5776 105.98 62.7936 106.156C63.0176 106.324 63.2016 106.524 63.3456 106.756C63.4976 106.98 63.6016 107.224 63.6576 107.488L63.3936 107.356L63.4296 105.736H64.3296V112H63.4176V110.464L63.6576 110.308C63.6016 110.548 63.4936 110.78 63.3336 111.004C63.1736 111.22 62.9776 111.412 62.7456 111.58C62.5216 111.748 62.2656 111.88 61.9776 111.976C61.6976 112.072 61.4016 112.12 61.0896 112.12ZM61.2936 111.256C61.7096 111.256 62.0816 111.156 62.4096 110.956C62.7376 110.748 62.9936 110.464 63.1776 110.104C63.3696 109.736 63.4656 109.32 63.4656 108.856C63.4656 108.392 63.3696 107.98 63.1776 107.62C62.9936 107.26 62.7376 106.976 62.4096 106.768C62.0816 106.56 61.7096 106.456 61.2936 106.456C60.8696 106.456 60.4936 106.56 60.1656 106.768C59.8456 106.976 59.5896 107.26 59.3976 107.62C59.2136 107.98 59.1216 108.392 59.1216 108.856C59.1216 109.312 59.2136 109.724 59.3976 110.092C59.5816 110.452 59.8376 110.736 60.1656 110.944C60.4936 111.152 60.8696 111.256 61.2936 111.256ZM68.135 112.12C67.599 112.12 67.119 112.02 66.695 111.82C66.271 111.62 65.935 111.356 65.687 111.028L66.323 110.476C66.555 110.756 66.827 110.968 67.139 111.112C67.459 111.256 67.815 111.328 68.207 111.328C68.407 111.328 68.587 111.308 68.747 111.268C68.907 111.22 69.047 111.152 69.167 111.064C69.287 110.976 69.379 110.872 69.443 110.752C69.507 110.632 69.539 110.5 69.539 110.356C69.539 110.092 69.423 109.872 69.191 109.696C69.087 109.624 68.939 109.552 68.747 109.48C68.555 109.4 68.323 109.324 68.051 109.252C67.603 109.124 67.231 108.996 66.935 108.868C66.639 108.732 66.407 108.576 66.239 108.4C66.119 108.256 66.027 108.1 65.963 107.932C65.907 107.764 65.879 107.58 65.879 107.38C65.879 107.124 65.931 106.888 66.035 106.672C66.147 106.456 66.299 106.268 66.491 106.108C66.691 105.94 66.923 105.816 67.187 105.736C67.459 105.648 67.751 105.604 68.063 105.604C68.359 105.604 68.651 105.644 68.939 105.724C69.227 105.804 69.495 105.92 69.743 106.072C69.991 106.224 70.203 106.404 70.379 106.612L69.827 107.212C69.675 107.052 69.507 106.908 69.323 106.78C69.139 106.652 68.943 106.552 68.735 106.48C68.535 106.408 68.327 106.372 68.111 106.372C67.919 106.372 67.739 106.396 67.571 106.444C67.411 106.492 67.271 106.56 67.151 106.648C67.039 106.728 66.951 106.828 66.887 106.948C66.831 107.068 66.803 107.2 66.803 107.344C66.803 107.464 66.827 107.572 66.875 107.668C66.923 107.764 66.991 107.848 67.079 107.92C67.191 108.008 67.347 108.092 67.547 108.172C67.755 108.244 68.011 108.32 68.315 108.4C68.667 108.496 68.963 108.596 69.203 108.7C69.451 108.796 69.655 108.912 69.815 109.048C70.031 109.208 70.183 109.392 70.271 109.6C70.367 109.808 70.415 110.044 70.415 110.308C70.415 110.66 70.315 110.972 70.115 111.244C69.923 111.516 69.655 111.732 69.311 111.892C68.967 112.044 68.575 112.12 68.135 112.12ZM74.5852 112.12C73.9612 112.12 73.4052 111.984 72.9172 111.712C72.4372 111.44 72.0612 111.06 71.7892 110.572C71.5172 110.084 71.3812 109.524 71.3812 108.892C71.3812 108.404 71.4572 107.964 71.6092 107.572C71.7612 107.172 71.9732 106.824 72.2452 106.528C72.5252 106.232 72.8572 106.004 73.2412 105.844C73.6252 105.676 74.0412 105.592 74.4892 105.592C74.9132 105.592 75.2972 105.668 75.6412 105.82C75.9932 105.972 76.2932 106.184 76.5412 106.456C76.7972 106.72 76.9892 107.036 77.1172 107.404C77.2452 107.772 77.3012 108.176 77.2852 108.616L77.2732 109.036H72.0532L71.9212 108.28H76.5892L76.3732 108.484V108.196C76.3572 107.908 76.2732 107.632 76.1212 107.368C75.9692 107.096 75.7532 106.876 75.4732 106.708C75.2012 106.54 74.8732 106.456 74.4892 106.456C74.0412 106.456 73.6532 106.548 73.3252 106.732C72.9972 106.908 72.7452 107.172 72.5692 107.524C72.3932 107.876 72.3052 108.312 72.3052 108.832C72.3052 109.328 72.4012 109.76 72.5932 110.128C72.7852 110.488 73.0572 110.768 73.4092 110.968C73.7692 111.168 74.2012 111.268 74.7052 111.268C75.0012 111.268 75.2932 111.22 75.5812 111.124C75.8772 111.02 76.2012 110.82 76.5532 110.524L77.0212 111.172C76.8372 111.356 76.6172 111.52 76.3612 111.664C76.1052 111.8 75.8252 111.912 75.5212 112C75.2172 112.08 74.9052 112.12 74.5852 112.12ZM84.7348 112.12C84.3108 112.12 83.9108 112.06 83.5348 111.94C83.1588 111.82 82.8148 111.64 82.5028 111.4C82.1908 111.16 81.9148 110.864 81.6748 110.512L82.3228 109.792C82.6988 110.328 83.0828 110.704 83.4748 110.92C83.8748 111.136 84.3228 111.244 84.8188 111.244C85.1788 111.244 85.5068 111.184 85.8028 111.064C86.0988 110.944 86.3308 110.776 86.4988 110.56C86.6668 110.344 86.7508 110.096 86.7508 109.816C86.7508 109.632 86.7188 109.468 86.6548 109.324C86.5988 109.18 86.5108 109.052 86.3908 108.94C86.2708 108.828 86.1228 108.728 85.9468 108.64C85.7708 108.552 85.5668 108.472 85.3348 108.4C85.1108 108.328 84.8588 108.256 84.5788 108.184C84.1708 108.088 83.8108 107.976 83.4988 107.848C83.1948 107.712 82.9348 107.548 82.7188 107.356C82.5108 107.164 82.3508 106.944 82.2388 106.696C82.1348 106.44 82.0828 106.14 82.0828 105.796C82.0828 105.468 82.1508 105.164 82.2868 104.884C82.4308 104.604 82.6268 104.364 82.8748 104.164C83.1228 103.956 83.4148 103.796 83.7508 103.684C84.0868 103.572 84.4468 103.516 84.8308 103.516C85.2628 103.516 85.6468 103.576 85.9828 103.696C86.3268 103.808 86.6308 103.976 86.8948 104.2C87.1588 104.424 87.3868 104.692 87.5788 105.004L86.9188 105.652C86.7508 105.388 86.5588 105.16 86.3428 104.968C86.1348 104.776 85.9028 104.632 85.6468 104.536C85.3988 104.432 85.1228 104.38 84.8188 104.38C84.4668 104.38 84.1548 104.44 83.8828 104.56C83.6188 104.68 83.4108 104.848 83.2588 105.064C83.1068 105.272 83.0308 105.512 83.0308 105.784C83.0308 105.984 83.0668 106.164 83.1388 106.324C83.2108 106.476 83.3228 106.612 83.4748 106.732C83.6348 106.844 83.8388 106.948 84.0868 107.044C84.3428 107.132 84.6468 107.216 84.9988 107.296C85.4148 107.392 85.7868 107.508 86.1148 107.644C86.4508 107.78 86.7348 107.944 86.9668 108.136C87.2068 108.32 87.3868 108.536 87.5068 108.784C87.6348 109.032 87.6988 109.316 87.6988 109.636C87.6988 110.132 87.5748 110.568 87.3268 110.944C87.0788 111.312 86.7308 111.6 86.2828 111.808C85.8428 112.016 85.3268 112.12 84.7348 112.12ZM91.9876 112.12C91.3636 112.12 90.8076 111.984 90.3196 111.712C89.8396 111.44 89.4636 111.06 89.1916 110.572C88.9196 110.084 88.7836 109.524 88.7836 108.892C88.7836 108.404 88.8596 107.964 89.0116 107.572C89.1636 107.172 89.3756 106.824 89.6476 106.528C89.9276 106.232 90.2596 106.004 90.6436 105.844C91.0276 105.676 91.4436 105.592 91.8916 105.592C92.3156 105.592 92.6996 105.668 93.0436 105.82C93.3956 105.972 93.6956 106.184 93.9436 106.456C94.1996 106.72 94.3916 107.036 94.5196 107.404C94.6476 107.772 94.7036 108.176 94.6876 108.616L94.6756 109.036H89.4556L89.3236 108.28H93.9916L93.7756 108.484V108.196C93.7596 107.908 93.6756 107.632 93.5236 107.368C93.3716 107.096 93.1556 106.876 92.8756 106.708C92.6036 106.54 92.2756 106.456 91.8916 106.456C91.4436 106.456 91.0556 106.548 90.7276 106.732C90.3996 106.908 90.1476 107.172 89.9716 107.524C89.7956 107.876 89.7076 108.312 89.7076 108.832C89.7076 109.328 89.8036 109.76 89.9956 110.128C90.1876 110.488 90.4596 110.768 90.8116 110.968C91.1716 111.168 91.6036 111.268 92.1076 111.268C92.4036 111.268 92.6956 111.22 92.9836 111.124C93.2796 111.02 93.6036 110.82 93.9556 110.524L94.4236 111.172C94.2396 111.356 94.0196 111.52 93.7636 111.664C93.5076 111.8 93.2276 111.912 92.9236 112C92.6196 112.08 92.3076 112.12 91.9876 112.12ZM95.9898 112V103.12H96.8898V112H95.9898ZM101.304 112.12C100.68 112.12 100.124 111.984 99.636 111.712C99.156 111.44 98.78 111.06 98.508 110.572C98.236 110.084 98.1 109.524 98.1 108.892C98.1 108.404 98.176 107.964 98.328 107.572C98.48 107.172 98.692 106.824 98.964 106.528C99.244 106.232 99.576 106.004 99.96 105.844C100.344 105.676 100.76 105.592 101.208 105.592C101.632 105.592 102.016 105.668 102.36 105.82C102.712 105.972 103.012 106.184 103.26 106.456C103.516 106.72 103.708 107.036 103.836 107.404C103.964 107.772 104.02 108.176 104.004 108.616L103.992 109.036H98.772L98.64 108.28H103.308L103.092 108.484V108.196C103.076 107.908 102.992 107.632 102.84 107.368C102.688 107.096 102.472 106.876 102.192 106.708C101.92 106.54 101.592 106.456 101.208 106.456C100.76 106.456 100.372 106.548 100.044 106.732C99.716 106.908 99.464 107.172 99.288 107.524C99.112 107.876 99.024 108.312 99.024 108.832C99.024 109.328 99.12 109.76 99.312 110.128C99.504 110.488 99.776 110.768 100.128 110.968C100.488 111.168 100.92 111.268 101.424 111.268C101.72 111.268 102.012 111.22 102.3 111.124C102.596 111.02 102.92 110.82 103.272 110.524L103.74 111.172C103.556 111.356 103.336 111.52 103.08 111.664C102.824 111.8 102.544 111.912 102.24 112C101.936 112.08 101.624 112.12 101.304 112.12ZM107.922 112.12C107.33 112.12 106.802 111.98 106.338 111.7C105.874 111.412 105.506 111.024 105.234 110.536C104.97 110.04 104.838 109.48 104.838 108.856C104.838 108.232 104.97 107.676 105.234 107.188C105.506 106.692 105.874 106.304 106.338 106.024C106.802 105.744 107.334 105.604 107.934 105.604C108.47 105.604 108.958 105.712 109.398 105.928C109.838 106.136 110.19 106.428 110.454 106.804L109.926 107.452C109.774 107.252 109.59 107.076 109.374 106.924C109.166 106.772 108.938 106.656 108.69 106.576C108.45 106.488 108.21 106.444 107.97 106.444C107.546 106.444 107.166 106.552 106.83 106.768C106.494 106.976 106.226 107.26 106.026 107.62C105.834 107.98 105.738 108.392 105.738 108.856C105.738 109.32 105.834 109.736 106.026 110.104C106.226 110.464 106.494 110.748 106.83 110.956C107.166 111.164 107.542 111.268 107.958 111.268C108.198 111.268 108.434 111.232 108.666 111.16C108.898 111.08 109.118 110.968 109.326 110.824C109.534 110.68 109.726 110.5 109.902 110.284L110.43 110.932C110.158 111.292 109.794 111.58 109.338 111.796C108.882 112.012 108.41 112.12 107.922 112.12ZM112.463 112V104.092H113.363V112H112.463ZM111.047 106.6V105.736H114.947V106.6H111.047ZM122.223 112.12C121.799 112.12 121.399 112.06 121.023 111.94C120.647 111.82 120.303 111.64 119.991 111.4C119.679 111.16 119.403 110.864 119.163 110.512L119.811 109.792C120.187 110.328 120.571 110.704 120.963 110.92C121.363 111.136 121.811 111.244 122.307 111.244C122.667 111.244 122.995 111.184 123.291 111.064C123.587 110.944 123.819 110.776 123.987 110.56C124.155 110.344 124.239 110.096 124.239 109.816C124.239 109.632 124.207 109.468 124.143 109.324C124.087 109.18 123.999 109.052 123.879 108.94C123.759 108.828 123.611 108.728 123.435 108.64C123.259 108.552 123.055 108.472 122.823 108.4C122.599 108.328 122.347 108.256 122.067 108.184C121.659 108.088 121.299 107.976 120.987 107.848C120.683 107.712 120.423 107.548 120.207 107.356C119.999 107.164 119.839 106.944 119.727 106.696C119.623 106.44 119.571 106.14 119.571 105.796C119.571 105.468 119.639 105.164 119.775 104.884C119.919 104.604 120.115 104.364 120.363 104.164C120.611 103.956 120.903 103.796 121.239 103.684C121.575 103.572 121.935 103.516 122.319 103.516C122.751 103.516 123.135 103.576 123.471 103.696C123.815 103.808 124.119 103.976 124.383 104.2C124.647 104.424 124.875 104.692 125.067 105.004L124.407 105.652C124.239 105.388 124.047 105.16 123.831 104.968C123.623 104.776 123.391 104.632 123.135 104.536C122.887 104.432 122.611 104.38 122.307 104.38C121.955 104.38 121.643 104.44 121.371 104.56C121.107 104.68 120.899 104.848 120.747 105.064C120.595 105.272 120.519 105.512 120.519 105.784C120.519 105.984 120.555 106.164 120.627 106.324C120.699 106.476 120.811 106.612 120.963 106.732C121.123 106.844 121.327 106.948 121.575 107.044C121.831 107.132 122.135 107.216 122.487 107.296C122.903 107.392 123.275 107.508 123.603 107.644C123.939 107.78 124.223 107.944 124.455 108.136C124.695 108.32 124.875 108.536 124.995 108.784C125.123 109.032 125.187 109.316 125.187 109.636C125.187 110.132 125.063 110.568 124.815 110.944C124.567 111.312 124.219 111.6 123.771 111.808C123.331 112.016 122.815 112.12 122.223 112.12ZM127.58 112V104.092H128.48V112H127.58ZM126.164 106.6V105.736H130.064V106.6H126.164ZM133.882 112.12C133.258 112.12 132.702 111.98 132.214 111.7C131.734 111.42 131.354 111.032 131.074 110.536C130.802 110.04 130.666 109.476 130.666 108.844C130.666 108.22 130.802 107.664 131.074 107.176C131.354 106.688 131.734 106.304 132.214 106.024C132.702 105.744 133.258 105.604 133.882 105.604C134.498 105.604 135.046 105.744 135.526 106.024C136.014 106.304 136.394 106.688 136.666 107.176C136.946 107.664 137.086 108.22 137.086 108.844C137.086 109.476 136.946 110.04 136.666 110.536C136.394 111.032 136.014 111.42 135.526 111.7C135.046 111.98 134.498 112.12 133.882 112.12ZM133.882 111.268C134.322 111.268 134.714 111.164 135.058 110.956C135.402 110.74 135.67 110.452 135.862 110.092C136.054 109.724 136.15 109.308 136.15 108.844C136.15 108.38 136.054 107.968 135.862 107.608C135.67 107.248 135.402 106.968 135.058 106.768C134.714 106.56 134.322 106.456 133.882 106.456C133.442 106.456 133.046 106.56 132.694 106.768C132.35 106.968 132.078 107.252 131.878 107.62C131.686 107.98 131.594 108.388 131.602 108.844C131.594 109.308 131.686 109.724 131.878 110.092C132.078 110.452 132.35 110.74 132.694 110.956C133.046 111.164 133.442 111.268 133.882 111.268ZM138.399 112V105.736H139.299L139.323 107.404L139.227 107.176C139.315 106.896 139.455 106.636 139.647 106.396C139.847 106.156 140.083 105.964 140.355 105.82C140.627 105.676 140.927 105.604 141.255 105.604C141.391 105.604 141.519 105.616 141.639 105.64C141.759 105.656 141.859 105.68 141.939 105.712L141.687 106.72C141.583 106.672 141.475 106.64 141.363 106.624C141.259 106.6 141.159 106.588 141.063 106.588C140.791 106.588 140.547 106.636 140.331 106.732C140.115 106.828 139.931 106.964 139.779 107.14C139.627 107.308 139.511 107.504 139.431 107.728C139.351 107.952 139.311 108.192 139.311 108.448V112H138.399ZM145.054 112.12C144.51 112.12 144.018 111.98 143.578 111.7C143.138 111.412 142.79 111.024 142.534 110.536C142.278 110.04 142.15 109.48 142.15 108.856C142.15 108.224 142.282 107.664 142.546 107.176C142.81 106.688 143.162 106.304 143.602 106.024C144.05 105.744 144.55 105.604 145.102 105.604C145.43 105.604 145.734 105.652 146.014 105.748C146.294 105.844 146.542 105.98 146.758 106.156C146.982 106.324 147.166 106.524 147.31 106.756C147.462 106.98 147.566 107.224 147.622 107.488L147.358 107.356L147.394 105.736H148.294V112H147.382V110.464L147.622 110.308C147.566 110.548 147.458 110.78 147.298 111.004C147.138 111.22 146.942 111.412 146.71 111.58C146.486 111.748 146.23 111.88 145.942 111.976C145.662 112.072 145.366 112.12 145.054 112.12ZM145.258 111.256C145.674 111.256 146.046 111.156 146.374 110.956C146.702 110.748 146.958 110.464 147.142 110.104C147.334 109.736 147.43 109.32 147.43 108.856C147.43 108.392 147.334 107.98 147.142 107.62C146.958 107.26 146.702 106.976 146.374 106.768C146.046 106.56 145.674 106.456 145.258 106.456C144.834 106.456 144.458 106.56 144.13 106.768C143.81 106.976 143.554 107.26 143.362 107.62C143.178 107.98 143.086 108.392 143.086 108.856C143.086 109.312 143.178 109.724 143.362 110.092C143.546 110.452 143.802 110.736 144.13 110.944C144.458 111.152 144.834 111.256 145.258 111.256ZM152.748 114.76C152.284 114.76 151.844 114.688 151.428 114.544C151.012 114.4 150.668 114.22 150.396 114.004L150.756 113.248C150.916 113.376 151.1 113.488 151.308 113.584C151.524 113.688 151.756 113.768 152.004 113.824C152.252 113.888 152.504 113.92 152.76 113.92C153.224 113.92 153.616 113.832 153.936 113.656C154.264 113.488 154.512 113.236 154.68 112.9C154.856 112.564 154.944 112.148 154.944 111.652V110.452L155.088 110.416C155.016 110.72 154.86 111.004 154.62 111.268C154.38 111.524 154.088 111.732 153.744 111.892C153.4 112.044 153.036 112.12 152.652 112.12C152.068 112.12 151.544 111.98 151.08 111.7C150.624 111.42 150.264 111.036 150 110.548C149.736 110.052 149.604 109.492 149.604 108.868C149.604 108.236 149.736 107.676 150 107.188C150.272 106.692 150.636 106.304 151.092 106.024C151.548 105.744 152.06 105.604 152.628 105.604C152.876 105.604 153.116 105.636 153.348 105.7C153.58 105.756 153.792 105.84 153.984 105.952C154.184 106.064 154.364 106.192 154.524 106.336C154.684 106.48 154.816 106.636 154.92 106.804C155.032 106.972 155.112 107.144 155.16 107.32L154.908 107.284L154.944 105.736H155.844V111.616C155.844 112.12 155.772 112.564 155.628 112.948C155.484 113.34 155.272 113.668 154.992 113.932C154.72 114.204 154.392 114.408 154.008 114.544C153.632 114.688 153.212 114.76 152.748 114.76ZM152.76 111.256C153.184 111.256 153.56 111.156 153.888 110.956C154.224 110.748 154.488 110.464 154.68 110.104C154.872 109.744 154.968 109.328 154.968 108.856C154.968 108.392 154.872 107.98 154.68 107.62C154.496 107.26 154.236 106.976 153.9 106.768C153.564 106.56 153.184 106.456 152.76 106.456C152.328 106.456 151.944 106.56 151.608 106.768C151.28 106.976 151.02 107.26 150.828 107.62C150.636 107.98 150.54 108.392 150.54 108.856C150.54 109.312 150.632 109.724 150.816 110.092C151.008 110.452 151.268 110.736 151.596 110.944C151.932 111.152 152.32 111.256 152.76 111.256ZM160.355 112.12C159.731 112.12 159.175 111.984 158.687 111.712C158.207 111.44 157.831 111.06 157.559 110.572C157.287 110.084 157.151 109.524 157.151 108.892C157.151 108.404 157.227 107.964 157.379 107.572C157.531 107.172 157.743 106.824 158.015 106.528C158.295 106.232 158.627 106.004 159.011 105.844C159.395 105.676 159.811 105.592 160.259 105.592C160.683 105.592 161.067 105.668 161.411 105.82C161.763 105.972 162.063 106.184 162.311 106.456C162.567 106.72 162.759 107.036 162.887 107.404C163.015 107.772 163.071 108.176 163.055 108.616L163.043 109.036H157.823L157.691 108.28H162.359L162.143 108.484V108.196C162.127 107.908 162.043 107.632 161.891 107.368C161.739 107.096 161.523 106.876 161.243 106.708C160.971 106.54 160.643 106.456 160.259 106.456C159.811 106.456 159.423 106.548 159.095 106.732C158.767 106.908 158.515 107.172 158.339 107.524C158.163 107.876 158.075 108.312 158.075 108.832C158.075 109.328 158.171 109.76 158.363 110.128C158.555 110.488 158.827 110.768 159.179 110.968C159.539 111.168 159.971 111.268 160.475 111.268C160.771 111.268 161.063 111.22 161.351 111.124C161.647 111.02 161.971 110.82 162.323 110.524L162.791 111.172C162.607 111.356 162.387 111.52 162.131 111.664C161.875 111.8 161.595 111.912 161.291 112C160.987 112.08 160.675 112.12 160.355 112.12Z" fill="#152027"/>
</svg>
