<svg width="321" height="320" viewBox="0 0 321 320" fill="none" xmlns="http://www.w3.org/2000/svg">
<path d="M228.6 119.523C230.703 117.865 231.974 114.861 231.974 114.861C231.974 114.861 233.246 111.858 232.971 109.194L228.841 108.971C229.557 105.748 229.557 102.48 228.916 99.3651L233.049 99.2069C233.362 96.5465 232.139 93.5244 232.139 93.5244C232.139 93.5244 230.914 90.5024 228.837 88.8113L225.76 91.5735C224.051 88.8919 221.776 86.5448 219.018 84.7302L221.828 81.6953C220.17 79.5922 217.166 78.3215 217.166 78.3215C217.166 78.3215 214.162 77.05 211.498 77.3234L211.275 81.4535C208.053 80.7372 204.785 80.7379 201.669 81.3774L201.51 77.2466C198.851 76.9333 195.828 78.158 195.828 78.158C195.828 78.158 192.806 79.3828 191.115 81.4595L193.877 84.5366C191.194 86.245 188.849 88.5205 187.032 91.2775L183.997 88.4678C181.894 90.1257 180.623 93.1289 180.623 93.1289C180.623 93.1289 179.352 96.1329 179.627 98.7972L183.758 99.0201C183.041 102.244 183.041 105.511 183.682 108.627L179.548 108.785C179.235 111.445 180.458 114.468 180.458 114.468C180.458 114.468 181.683 117.491 183.761 119.182L186.838 116.417C188.548 119.1 190.823 121.448 193.579 123.264L190.769 126.298C192.427 128.401 195.431 129.672 195.431 129.672C195.431 129.672 198.434 130.944 201.098 130.67L201.322 126.541C204.544 127.256 207.812 127.255 210.929 126.614L211.086 130.748C213.746 131.063 216.768 129.837 216.768 129.837C216.768 129.837 219.791 128.612 221.481 126.536L218.718 123.458C221.401 121.749 223.747 119.474 225.563 116.716L228.6 119.523ZM201.03 116.441C194.156 113.532 190.941 105.6 193.851 98.7241C196.762 91.8499 204.694 88.6358 211.568 91.5449C218.442 94.4547 221.656 102.387 218.746 109.261C215.837 116.137 207.905 119.351 201.03 116.441Z" fill="#DEDEDE"/>
<path d="M212.869 88.4704C204.296 84.842 194.404 88.8493 190.776 97.4228C187.148 105.995 191.155 115.888 199.728 119.517C208.301 123.146 218.194 119.136 221.822 110.564C225.451 101.991 221.442 92.0996 212.869 88.4704ZM201.362 115.658C194.919 112.931 191.908 105.499 194.635 99.0566C197.362 92.614 204.793 89.6025 211.236 92.3293C217.678 95.0568 220.689 102.488 217.963 108.93C215.235 115.374 207.805 118.385 201.362 115.658Z" fill="#A4A5A7"/>
<path d="M261.824 80.7783C262.616 79.5987 262.766 77.8752 262.766 77.8752C262.766 77.8752 262.915 76.1526 262.342 74.8532L260.223 75.4151C260.057 73.6728 259.524 72.0247 258.692 70.5574L260.751 69.8026C260.476 68.4091 259.362 67.0856 259.362 67.0856C259.362 67.0856 258.251 65.7614 256.927 65.2477L255.827 67.1429C254.526 66.0688 252.995 65.2575 251.309 64.792L252.231 62.8019C251.052 62.0117 249.328 61.8618 249.328 61.8618C249.328 61.8618 247.607 61.7104 246.307 62.2837L246.868 64.4033C245.126 64.5683 243.478 65.1031 242.011 65.9339L241.256 63.8768C239.863 64.1525 238.54 65.2635 238.54 65.2635C238.54 65.2635 237.214 66.3746 236.701 67.698L238.598 68.7993C237.523 70.0987 236.712 71.6293 236.245 73.3173L234.256 72.3953C233.466 73.5749 233.315 75.2976 233.315 75.2976C233.315 75.2976 233.164 77.0211 233.736 78.3204L235.858 77.7577C236.022 79.5008 236.556 81.1489 237.387 82.6155L235.329 83.371C235.605 84.7645 236.717 86.0887 236.717 86.0887C236.717 86.0887 237.828 87.4137 239.152 87.9274L240.255 86.0307C241.555 87.1049 243.083 87.9169 244.771 88.3831L243.848 90.3732C245.029 91.1634 246.751 91.314 246.751 91.314C246.751 91.314 248.474 91.4647 249.774 90.8915L249.211 88.7718C250.953 88.6061 252.601 88.072 254.069 87.2404L254.823 89.2998C256.216 89.0241 257.541 87.9123 257.541 87.9123C257.541 87.9123 258.866 86.8013 259.38 85.4771L257.483 84.3766C258.556 83.0757 259.368 81.5459 259.833 79.8571L261.824 80.7783ZM247.635 81.2152C245.079 80.9915 243.189 78.7377 243.412 76.1819C243.637 73.6254 245.89 71.7347 248.445 71.9584C251.002 72.1822 252.893 74.4359 252.669 76.9917C252.444 79.5482 250.191 81.4389 247.635 81.2152Z" fill="#DEDEDE"/>
<path d="M248.718 68.8426C244.44 68.4682 240.669 71.6326 240.295 75.9103C239.92 80.1888 243.085 83.9604 247.362 84.3347C251.64 84.7091 255.411 81.5447 255.786 77.2677C256.161 72.9892 252.996 69.2169 248.718 68.8426ZM247.638 81.1809C245.103 80.9586 243.228 78.723 243.449 76.1868C243.672 73.6521 245.907 71.7757 248.442 71.9979C250.979 72.2202 252.855 74.4551 252.632 76.9913C252.41 79.5275 250.175 81.4031 247.638 81.1809Z" fill="#A4A5A7"/>
<path d="M171.722 260.992H146.436V287.727H171.722V260.992Z" fill="#D2D2D2"/>
<path d="M210.837 287.729C210.837 290.075 208.937 291.977 206.591 291.977H111.564C109.221 291.977 107.318 290.076 107.318 287.729C107.318 285.386 109.22 283.484 111.564 283.484H206.591C208.937 283.484 210.837 285.386 210.837 287.729Z" fill="#B4B4B4"/>
<path d="M272.271 252.308C272.271 257.09 268.36 261.002 263.579 261.002H54.5783C49.7974 261.002 45.8857 257.09 45.8857 252.308V112.052C45.8857 107.271 49.7974 103.359 54.5783 103.359H263.579C268.36 103.359 272.271 107.271 272.271 112.052V252.308Z" fill="#B4B4B4"/>
<path d="M264.573 250.139C264.573 251.444 263.506 252.51 262.201 252.51H55.9545C54.6513 252.51 53.584 251.444 53.584 250.139V114.222C53.584 112.919 54.6513 111.852 55.9545 111.852H262.202C263.507 111.852 264.574 112.919 264.574 114.222V250.139H264.573Z" fill="#F9F9F9"/>
<path opacity="0.1" d="M272.271 252.308V112.052C272.271 107.271 268.36 103.359 263.579 103.359H242.238C215.892 202.77 78.7027 240.326 45.8857 247.959V252.308C45.8857 257.089 49.7974 261.001 54.5783 261.001H263.579C268.359 261.002 272.271 257.09 272.271 252.308Z" fill="#6D6D6D"/>
<path d="M225.316 278.275C225.316 278.982 224.738 279.56 224.033 279.56H187.598C186.892 279.56 186.315 278.981 186.315 278.275V230.72C186.315 230.014 186.893 229.438 187.598 229.438H224.033C224.738 229.438 225.316 230.014 225.316 230.72V278.275Z" fill="#FFFFFD"/>
<path d="M221.384 234.078H190.247V236.446H221.384V234.078Z" fill="#DEDEDE"/>
<path d="M221.384 241.773H190.247V244.141H221.384V241.773Z" fill="#DEDEDE"/>
<path d="M221.384 249.477H190.247V251.844H221.384V249.477Z" fill="#DEDEDE"/>
<path d="M221.384 257.172H190.247V259.539H221.384V257.172Z" fill="#CAD6E8"/>
<path d="M221.384 264.875H190.247V267.242H221.384V264.875Z" fill="#CAD6E8"/>
<path d="M221.384 272.57H190.247V274.938H221.384V272.57Z" fill="#CAD6E8"/>
<path d="M207.33 246.852C205.213 246.852 203.481 248.586 203.481 250.702V252.05C203.481 254.167 201.748 255.898 199.632 255.898H181.007C178.89 255.898 177.308 257.624 177.492 259.735L180.032 288.888C180.215 290.998 182.098 292.724 184.216 292.724H226.218C228.336 292.724 230.189 290.995 230.337 288.882L233.007 250.693C233.155 248.58 231.544 246.852 229.426 246.852L207.33 246.852Z" fill="#DEDEDE"/>
<path d="M214.098 270.519C213.442 270.519 212.811 270.622 212.217 270.814C211.3 267.149 207.988 264.438 204.042 264.438C199.386 264.438 195.613 268.21 195.613 272.866C195.613 273.205 195.635 273.538 195.674 273.866C195.38 273.806 195.077 273.775 194.767 273.775C192.252 273.775 190.214 275.814 190.214 278.327C190.214 280.841 192.252 282.879 194.767 282.879H214.099C217.512 282.879 220.279 280.113 220.279 276.7C220.278 273.287 217.511 270.519 214.098 270.519Z" fill="#FFFFFD"/>
<path opacity="0.1" d="M229.425 246.852H223.549C222.39 276.204 208.161 287.994 196.788 292.723H226.217C228.335 292.723 230.188 290.994 230.336 288.882L233.006 250.692C233.154 248.58 231.542 246.852 229.425 246.852Z" fill="#6D6D6D"/>
<g filter="url(#filter0_d_3616_2949)">
<path d="M250.018 289.429C250.018 290.803 248.904 291.917 247.53 291.917C246.157 291.917 245.042 290.803 245.042 289.429V250.002C245.042 248.628 246.156 247.516 247.53 247.516C248.904 247.516 250.018 248.628 250.018 250.002V289.429Z" fill="white"/>
</g>
<mask id="mask0_3616_2949" style="mask-type:luminance" maskUnits="userSpaceOnUse" x="245" y="247" width="6" height="45">
<path d="M250.018 289.421C250.018 290.795 248.903 291.909 247.53 291.909C246.156 291.909 245.042 290.795 245.042 289.421V249.994C245.042 248.62 246.155 247.508 247.53 247.508C248.903 247.508 250.018 248.62 250.018 249.994V289.421Z" fill="white"/>
</mask>
<g mask="url(#mask0_3616_2949)">
<path opacity="0.3" d="M248.5 294.421C248.5 294.958 248.066 295.391 247.53 295.391C246.994 295.391 246.56 294.958 246.56 294.421V265.485C246.56 264.949 246.994 264.516 247.53 264.516C248.066 264.516 248.5 264.949 248.5 265.485V294.421Z" fill="#CACBCD"/>
</g>
<path d="M254.871 231.148V240.24L247.53 244.479L240.189 240.24V231.15C236.918 233.458 234.775 237.26 234.775 241.567C234.775 248.613 240.485 254.323 247.53 254.323C254.575 254.323 260.285 248.613 260.285 241.567C260.285 237.26 258.143 233.458 254.871 231.148Z" fill="#FFFFFD"/>
<g opacity="0.2">
<path d="M259.287 236.641C259.409 237.345 259.476 238.068 259.476 238.808C259.476 245.852 253.765 251.563 246.721 251.563C241.448 251.563 236.924 248.364 234.981 243.8C236.038 249.779 241.247 254.325 247.529 254.325C254.574 254.325 260.284 248.615 260.284 241.569C260.285 239.821 259.926 238.158 259.287 236.641Z" fill="#F0F0EF"/>
</g>
<path d="M44.5228 96.1824C41.2183 91.3246 34.5121 91.3246 31.2076 96.1824C30.7458 96.861 31.8463 97.4953 32.3028 96.8226C35.0522 92.7807 40.6775 92.7807 43.4276 96.8226C43.8848 97.4953 44.9846 96.861 44.5228 96.1824Z" fill="#B4B4B4"/>
<path d="M49.0924 93.8118C43.7172 85.6044 32.0147 85.6044 26.6395 93.8118C26.189 94.4988 27.2888 95.1338 27.7347 94.4521C32.5781 87.0574 43.1538 87.0574 47.9964 94.4521C48.4424 95.1338 49.5421 94.498 49.0924 93.8118Z" fill="#B4B4B4"/>
<path d="M54.5232 91.7836C46.6879 79.593 29.0444 79.593 21.2083 91.7836C20.7639 92.4743 21.8629 93.1101 22.3036 92.4239C29.6169 81.0467 46.1139 81.0467 53.4272 92.4239C53.8679 93.1101 54.9669 92.4736 54.5232 91.7836Z" fill="#B4B4B4"/>
<path d="M37.8658 102.49C39.3302 102.49 40.5173 101.303 40.5173 99.839C40.5173 98.3746 39.3302 97.1875 37.8658 97.1875C36.4014 97.1875 35.2144 98.3746 35.2144 99.839C35.2144 101.303 36.4014 102.49 37.8658 102.49Z" fill="#B4B4B4"/>
<path opacity="0.5" d="M135.74 204.681C135.74 205.535 135.042 206.231 134.189 206.231H25.7187C24.866 206.231 24.1685 205.535 24.1685 204.681V130.316C24.1685 129.464 24.866 128.766 25.7187 128.766H134.189C135.042 128.766 135.74 129.464 135.74 130.316V204.681Z" fill="#E8E8E8"/>
<path d="M131.75 200.622C131.75 201.414 131.103 202.061 130.311 202.061H29.5969C28.8053 202.061 28.1582 201.414 28.1582 200.622V134.369C28.1582 133.578 28.8053 132.93 29.5969 132.93H130.311C131.103 132.93 131.75 133.577 131.75 134.369V200.622Z" fill="#FFFFFD"/>
<path d="M131.75 143.791V134.369C131.75 133.578 131.103 132.93 130.311 132.93H29.5969C28.8053 132.93 28.1582 133.577 28.1582 134.369V143.791H131.75Z" fill="#B4B4B4"/>
<path d="M36.7642 138.597C36.7642 139.76 35.8211 140.702 34.6573 140.702C33.4958 140.702 32.5527 139.76 32.5527 138.597C32.5527 137.435 33.4958 136.492 34.6573 136.492C35.8211 136.491 36.7642 137.434 36.7642 138.597Z" fill="#FFFFFD"/>
<path d="M45.398 138.597C45.398 139.76 44.4549 140.702 43.2911 140.702C42.1288 140.702 41.1865 139.76 41.1865 138.597C41.1865 137.435 42.1288 136.492 43.2911 136.492C44.4549 136.491 45.398 137.434 45.398 138.597Z" fill="#FFFFFD"/>
<path d="M54.031 138.597C54.031 139.76 53.088 140.702 51.9242 140.702C50.7627 140.702 49.8188 139.76 49.8188 138.597C49.8188 137.435 50.7627 136.492 51.9242 136.492C53.088 136.491 54.031 137.434 54.031 138.597Z" fill="#FFFFFD"/>
<path d="M128.351 146.883H31.5562V198.251H128.351V146.883Z" fill="#FFFFFD"/>
<mask id="mask1_3616_2949" style="mask-type:luminance" maskUnits="userSpaceOnUse" x="31" y="146" width="98" height="53">
<path d="M128.351 146.883H31.5562V198.251H128.351V146.883Z" fill="white"/>
</mask>
<g mask="url(#mask1_3616_2949)">
<path d="M132.629 199.079C135.795 199.079 136.692 197.119 134.621 194.724L103.67 158.922C101.601 156.526 98.2126 156.526 96.1419 158.922L70.5802 188.491C68.5103 190.885 65.1222 190.885 63.0522 188.491L51.4265 175.041C49.3573 172.647 45.9692 172.647 43.8985 175.041L26.8833 194.725C24.8126 197.119 25.7082 199.08 28.8741 199.08H55.6711C58.8363 199.08 61.4267 199.08 61.4267 199.08C61.4267 199.08 64.0164 199.08 67.1823 199.08H132.629V199.079Z" fill="#DEDEDE"/>
</g>
<path d="M77.8682 163.41C77.8682 168.099 74.0673 171.898 69.3798 171.898C64.6915 171.898 60.8906 168.098 60.8906 163.41C60.8906 158.722 64.6915 154.922 69.3798 154.922C74.0673 154.922 77.8682 158.722 77.8682 163.41Z" fill="#DEDEDE"/>
<path opacity="0.1" d="M130.311 202.061C131.103 202.061 131.75 201.414 131.75 200.622V134.369C131.75 133.578 131.103 132.93 130.311 132.93H120.619C117.715 201.211 67.6242 202.056 65.5249 202.061H130.311Z" fill="#6D6D6D"/>
<path opacity="0.5" d="M294.326 213.901C294.326 214.974 293.451 215.851 292.382 215.851H156.327C155.258 215.851 154.383 214.974 154.383 213.901V120.295C154.383 119.222 155.258 118.344 156.327 118.344H292.382C293.451 118.344 294.326 119.222 294.326 120.295V213.901Z" fill="#E8E8E8"/>
<path d="M290.605 211.145C290.605 211.937 289.958 212.584 289.167 212.584H159.676C158.883 212.584 158.236 211.937 158.236 211.145V123.307C158.236 122.516 158.883 121.867 159.676 121.867H289.167C289.958 121.867 290.605 122.516 290.605 123.307V211.145Z" fill="#FFFFFD"/>
<path d="M290.605 132.729V123.307C290.605 122.516 289.958 121.867 289.167 121.867H159.676C158.883 121.867 158.236 122.516 158.236 123.307V132.729H290.605Z" fill="#B4B4B4"/>
<path d="M166.843 127.534C166.843 128.697 165.9 129.64 164.737 129.64C163.575 129.64 162.632 128.697 162.632 127.534C162.632 126.372 163.575 125.43 164.737 125.43C165.9 125.429 166.843 126.371 166.843 127.534Z" fill="#FFFFFD"/>
<path d="M175.476 127.534C175.476 128.697 174.533 129.64 173.369 129.64C172.208 129.64 171.266 128.697 171.266 127.534C171.266 126.372 172.208 125.43 173.369 125.43C174.533 125.429 175.476 126.371 175.476 127.534Z" fill="#FFFFFD"/>
<path d="M184.11 127.534C184.11 128.697 183.167 129.64 182.004 129.64C180.841 129.64 179.899 128.697 179.899 127.534C179.899 126.372 180.841 125.43 182.004 125.43C183.167 125.429 184.11 126.371 184.11 127.534Z" fill="#FFFFFD"/>
<path d="M221.301 139.852H165.86V166.503H221.301V139.852Z" fill="#DEDEDE"/>
<path d="M231.161 153.033C231.161 148.282 234.796 144.914 239.747 144.914C242.625 144.914 244.946 145.963 246.463 147.859L243.652 150.402C242.67 149.22 241.466 148.573 239.97 148.573C237.406 148.573 235.622 150.357 235.622 153.033C235.622 155.711 237.406 157.495 239.97 157.495C241.466 157.495 242.67 156.848 243.652 155.665L246.463 158.208C244.946 160.104 242.625 161.153 239.747 161.153C234.796 161.153 231.161 157.786 231.161 153.033Z" fill="white"/>
<path d="M262.524 160.841L262.479 152.565L258.465 159.301H256.501L252.509 152.788V160.841H248.427V145.227H252.064L257.55 154.238L262.904 145.227H266.538L266.584 160.841H262.524Z" fill="white"/>
<path d="M268.617 159.435L270.067 156.179C271.45 157.093 273.413 157.719 275.22 157.719C277.049 157.719 277.763 157.205 277.763 156.447C277.763 153.971 268.886 155.777 268.886 149.978C268.886 147.19 271.16 144.914 275.801 144.914C277.831 144.914 279.927 145.383 281.466 146.275L280.105 149.554C278.611 148.751 277.138 148.35 275.779 148.35C273.927 148.35 273.258 148.975 273.258 149.755C273.258 152.142 282.113 150.357 282.113 156.113C282.113 158.834 279.839 161.153 275.197 161.153C272.633 161.153 270.089 160.462 268.617 159.435Z" fill="white"/>
<path d="M221.301 171.695H165.86V174.349H221.301V171.695Z" fill="#DEDEDE"/>
<path d="M221.301 177.797H165.86V180.451H221.301V177.797Z" fill="#DEDEDE"/>
<path d="M221.301 183.898H165.86V186.552H221.301V183.898Z" fill="#DEDEDE"/>
<path d="M221.301 190H165.86V192.654H221.301V190Z" fill="#DEDEDE"/>
<path d="M221.301 196.102H165.86V198.755H221.301V196.102Z" fill="#DEDEDE"/>
<path d="M221.301 202.203H165.86V204.857H221.301V202.203Z" fill="#DEDEDE"/>
<path d="M282.981 170.695H232.03V204.854H282.981V170.695Z" fill="#DEDEDE"/>
<path d="M282.981 170.695H232.03V174.825H282.981V170.695Z" fill="#B4B4B4"/>
<path d="M235.792 172.76C235.792 173.349 235.316 173.826 234.727 173.826C234.139 173.826 233.662 173.349 233.662 172.76C233.662 172.172 234.139 171.695 234.727 171.695C235.316 171.695 235.792 172.172 235.792 172.76Z" fill="#FFFFFD"/>
<path d="M240.109 172.76C240.109 173.349 239.632 173.826 239.043 173.826C238.454 173.826 237.978 173.349 237.978 172.76C237.978 172.172 238.454 171.695 239.043 171.695C239.632 171.695 240.109 172.172 240.109 172.76Z" fill="#FFFFFD"/>
<path d="M244.426 172.76C244.426 173.349 243.949 173.826 243.36 173.826C242.772 173.826 242.296 173.349 242.296 172.76C242.296 172.172 242.772 171.695 243.36 171.695C243.949 171.695 244.426 172.172 244.426 172.76Z" fill="#FFFFFD"/>
<path d="M266.368 189.213C266.368 194.106 262.4 198.073 257.506 198.073C252.614 198.073 248.646 194.106 248.646 189.213C248.646 184.32 252.614 180.352 257.506 180.352C262.4 180.352 266.368 184.32 266.368 189.213Z" fill="#B4B4B4"/>
<path d="M255.663 184.156V194.26L261.508 189.208L255.663 184.156Z" fill="#FFFFFD"/>
<path opacity="0.1" d="M290.605 211.137V123.299C290.605 122.508 289.959 121.859 289.167 121.859H273.024C273.284 189.5 214.361 212.576 214.361 212.576H289.167C289.959 212.576 290.605 211.929 290.605 211.137Z" fill="#6D6D6D"/>
<path opacity="0.5" d="M145.183 117.986C145.183 118.846 144.479 119.55 143.619 119.55H73.2244C72.3642 119.55 71.6606 118.846 71.6606 117.986V64.8379C71.6606 63.9777 72.3649 63.2734 73.2244 63.2734H143.619C144.48 63.2734 145.183 63.9777 145.183 64.8379V117.986Z" fill="#E8E8E8"/>
<path d="M142.232 114.462C142.232 115.253 141.584 115.901 140.793 115.901H76.05C75.2591 115.901 74.6113 115.253 74.6113 114.462V68.3528C74.6113 67.5619 75.2591 66.9141 76.05 66.9141H140.793C141.584 66.9141 142.232 67.5611 142.232 68.3528V114.462Z" fill="#FFFFFD"/>
<path d="M142.232 77.7752V68.3528C142.232 67.5619 141.584 66.9141 140.793 66.9141H76.05C75.2591 66.9141 74.6113 67.5611 74.6113 68.3528V77.7752H142.232Z" fill="#B4B4B4"/>
<path d="M83.2175 72.5812C83.2175 73.7442 82.2744 74.6872 81.1107 74.6872C79.9492 74.6872 79.0068 73.7442 79.0068 72.5812C79.0068 71.4181 79.9492 70.4766 81.1107 70.4766C82.2744 70.4766 83.2175 71.4181 83.2175 72.5812Z" fill="#FFFFFD"/>
<path d="M91.8513 72.5812C91.8513 73.7442 90.9083 74.6872 89.7445 74.6872C88.583 74.6872 87.6392 73.7442 87.6392 72.5812C87.6392 71.4181 88.583 70.4766 89.7445 70.4766C90.9083 70.4766 91.8513 71.4181 91.8513 72.5812Z" fill="#FFFFFD"/>
<path d="M100.484 72.5812C100.484 73.7442 99.5413 74.6872 98.3775 74.6872C97.2153 74.6872 96.2729 73.7442 96.2729 72.5812C96.2729 71.4181 97.2153 70.4766 98.3775 70.4766C99.5413 70.4766 100.484 71.4181 100.484 72.5812Z" fill="#FFFFFD"/>
<path d="M110.694 86.3573C108.487 93.0461 106.276 99.7358 104.067 106.425C103.629 107.75 105.715 108.316 106.15 106.998C108.36 100.31 110.57 93.6216 112.778 86.9327C113.214 85.6055 111.129 85.0421 110.694 86.3573Z" fill="#DEDEDE"/>
<path d="M102.706 100.45C100.88 99.1924 99.0516 97.9352 97.2227 96.6788C99.0524 95.4231 100.88 94.1674 102.706 92.9087C103.85 92.1239 102.77 90.252 101.616 91.0422C99.3378 92.6097 97.0547 94.178 94.7746 95.7447C94.0816 96.2223 94.0816 97.1353 94.7746 97.6121C97.0547 99.1781 99.3378 100.746 101.616 102.317C102.77 103.106 103.85 101.235 102.706 100.45Z" fill="#DEDEDE"/>
<path d="M114.138 100.45C115.962 99.1924 117.79 97.9352 119.618 96.6788C117.789 95.4231 115.962 94.1674 114.138 92.9087C112.998 92.1239 114.078 90.252 115.226 91.0422C117.507 92.6097 119.787 94.178 122.066 95.7447C122.762 96.2223 122.762 97.1353 122.066 97.6121C119.787 99.1781 117.507 100.746 115.226 102.317C114.078 103.106 112.998 101.235 114.138 100.45Z" fill="#DEDEDE"/>
<path opacity="0.1" d="M140.793 115.901C141.584 115.901 142.232 115.253 142.232 114.462V68.3528C142.232 67.5619 141.584 66.9141 140.793 66.9141H132.099C129.366 92.3808 116.89 107.416 105.846 115.901H140.793Z" fill="#6D6D6D"/>
<path opacity="0.3" d="M137.756 275.189C137.756 276.049 137.052 276.753 136.192 276.753H65.7962C64.9367 276.753 64.2324 276.049 64.2324 275.189V222.04C64.2324 221.179 64.9375 220.477 65.7962 220.477H136.191C137.052 220.477 137.755 221.18 137.755 222.04L137.756 275.189Z" fill="#FFFFFD"/>
<path d="M134.805 271.658C134.805 272.45 134.158 273.097 133.366 273.097H68.6235C67.8333 273.097 67.1855 272.45 67.1855 271.658V225.548C67.1855 224.756 67.8333 224.109 68.6235 224.109H133.366C134.158 224.109 134.805 224.756 134.805 225.548V271.658Z" fill="#FFFFFD"/>
<path d="M134.805 234.971V225.548C134.805 224.756 134.158 224.109 133.366 224.109H68.6235C67.8333 224.109 67.1855 224.756 67.1855 225.548V234.971H134.805Z" fill="#B4B4B4"/>
<path d="M75.7908 229.776C75.7908 230.938 74.8484 231.881 73.6847 231.881C72.5232 231.881 71.5801 230.938 71.5801 229.776C71.5801 228.613 72.5232 227.672 73.6847 227.672C74.8484 227.672 75.7908 228.613 75.7908 229.776Z" fill="#FFFFFD"/>
<path d="M84.4251 229.776C84.4251 230.938 83.482 231.881 82.3182 231.881C81.156 231.881 80.2129 230.938 80.2129 229.776C80.2129 228.613 81.156 227.672 82.3182 227.672C83.482 227.672 84.4251 228.613 84.4251 229.776Z" fill="#FFFFFD"/>
<path d="M93.0584 229.776C93.0584 230.938 92.1153 231.881 90.9515 231.881C89.7893 231.881 88.8462 230.938 88.8462 229.776C88.8462 228.613 89.7893 227.672 90.9515 227.672C92.1153 227.672 93.0584 228.613 93.0584 229.776Z" fill="#FFFFFD"/>
<path d="M85.9933 237.562H70.6992V239.992H85.9933V237.562Z" fill="#DEDEDE"/>
<path d="M130.996 237.562H88.7773V239.992H130.996V237.562Z" fill="#DEDEDE"/>
<path d="M82.3445 243.766H70.6992V246.195H82.3445V243.766Z" fill="#DEDEDE"/>
<path d="M122.978 243.766H84.4658V246.195H122.978V243.766Z" fill="#DEDEDE"/>
<path d="M85.9933 249.977H70.6992V252.406H85.9933V249.977Z" fill="#DEDEDE"/>
<path d="M115.219 249.977H88.7773V252.406H115.219V249.977Z" fill="#DEDEDE"/>
<path d="M82.3445 256.18H70.6992V258.609H82.3445V256.18Z" fill="#DEDEDE"/>
<path d="M127.634 256.18H84.4658V258.609H127.634V256.18Z" fill="#DEDEDE"/>
<path d="M85.9933 262.383H70.6992V264.812H85.9933V262.383Z" fill="#DEDEDE"/>
<path d="M130.996 262.383H88.7773V264.812H130.996V262.383Z" fill="#DEDEDE"/>
<path d="M82.3445 268.586H70.6992V271.015H82.3445V268.586Z" fill="#DEDEDE"/>
<path d="M122.978 268.586H84.4658V271.015H122.978V268.586Z" fill="#DEDEDE"/>
<path opacity="0.1" d="M133.365 273.105C134.157 273.105 134.804 272.458 134.804 271.666V225.556C134.804 224.764 134.157 224.117 133.365 224.117H124.671C121.939 249.584 109.463 264.62 98.4189 273.105H133.365Z" fill="#6D6D6D"/>
<path d="M6.25921 69.448L5.08037 66.5796V66.5781V66.5796L3.89927 69.448L1 70.4868L3.89927 71.5285L5.08037 74.3961V74.3984V74.3961L6.25921 71.5285L9.15848 70.4868L6.25921 69.448Z" fill="#DEDEDE"/>
<path d="M11.0657 115.43L8.80898 109.94V109.938V109.94L6.54846 115.43L1 117.418L6.54846 119.411L8.80898 124.9V124.903V124.9L11.0657 119.411L16.6142 117.418L11.0657 115.43Z" fill="#DEDEDE"/>
<path d="M7.72042 213.05L6.54082 210.181V210.18V210.181L5.35972 213.05L2.46045 214.088L5.35972 215.13L6.54082 217.998V217.999V217.998L7.72042 215.13L10.6189 214.088L7.72042 213.05Z" fill="#DEDEDE"/>
<path d="M9.46244 171.329L8.80711 169.734L8.15102 171.329L6.53906 171.907L8.15102 172.485L8.80711 174.078V174.08V174.078L9.46244 172.485L11.0736 171.907L9.46244 171.329Z" fill="#DEDEDE"/>
<path d="M55.2827 69.9079L54.6274 68.3133V68.3125V68.3133L53.9713 69.9079L52.3594 70.4849L53.9713 71.0634L54.6274 72.6573V72.6588V72.6573L55.2827 71.0634L56.894 70.4849L55.2827 69.9079Z" fill="#DEDEDE"/>
<path d="M29.4558 238.032L28.8012 236.438L28.1444 238.032L26.5332 238.611L28.1444 239.188L28.8012 240.782V240.784V240.782L29.4558 239.188L31.0678 238.611L29.4558 238.032Z" fill="#DEDEDE"/>
<path d="M168.023 81.1355L166.845 78.2664V78.2656V78.2664L165.663 81.1355L162.764 82.1743L165.663 83.216L166.845 86.0836V86.0851V86.0836L168.023 83.216L170.923 82.1743L168.023 81.1355Z" fill="#DEDEDE"/>
<path d="M208.558 57.4537L206.302 51.9632V51.9609V51.9632L204.041 57.4537L198.491 59.4415L204.041 61.4354L206.302 66.9236V66.9273V66.9236L208.558 61.4354L214.107 59.4415L208.558 57.4537Z" fill="#DEDEDE"/>
<path d="M158.372 46.5946L157.716 45L157.06 46.5946L155.448 47.1724L157.06 47.7509L157.716 49.344V49.3455V49.344L158.372 47.7509L159.982 47.1724L158.372 46.5946Z" fill="#DEDEDE"/>
<path d="M38.5222 46.5946L37.8669 45L37.2108 46.5946L35.5996 47.1724L37.2108 47.7509L37.8669 49.344V49.3455V49.344L38.5222 47.7509L40.1334 47.1724L38.5222 46.5946Z" fill="#DEDEDE"/>
<path d="M103.178 32.0418L101.999 29.1734V29.1719V29.1734L100.818 32.0418L97.9189 33.0805L100.818 34.1223L101.999 36.9899V36.9914V36.9899L103.178 34.1223L106.077 33.0805L103.178 32.0418Z" fill="#DEDEDE"/>
<path d="M315.451 152.696L313.195 147.205V147.203V147.205L310.935 152.696L305.386 154.684L310.935 156.678L313.195 162.166V162.17V162.166L315.451 156.678L321 154.684L315.451 152.696Z" fill="#DEDEDE"/>
<path d="M314.373 110.8L313.195 107.93V107.93V107.93L312.013 110.8L309.114 111.838L312.013 112.879L313.195 115.747V115.749V115.747L314.373 112.879L317.273 111.838L314.373 110.8Z" fill="#DEDEDE"/>
<path d="M294.982 94.2431L294.328 92.6484L293.672 94.2431L292.06 94.8201L293.672 95.3986L294.328 96.9924V96.994V96.9924L294.982 95.3986L296.594 94.8201L294.982 94.2431Z" fill="#DEDEDE"/>
<path d="M306.042 61.2587L305.386 59.6641L304.729 61.2587L303.118 61.8357L304.729 62.4142L305.386 64.0081V64.0096V64.0081L306.042 62.4142L307.652 61.8357L306.042 61.2587Z" fill="#DEDEDE"/>
<path d="M292.715 243.204L292.06 241.611V241.609V241.611L291.404 243.204L289.792 243.782L291.404 244.36L292.06 245.953V245.955V245.953L292.715 244.36L294.327 243.782L292.715 243.204Z" fill="#DEDEDE"/>
<path d="M310.294 199.222L309.115 196.353V196.352V196.353L307.933 199.222L305.035 200.261L307.933 201.303L309.115 204.17V204.171V204.17L310.294 201.303L313.193 200.261L310.294 199.222Z" fill="#DEDEDE"/>
<path d="M263.439 36.415L262.784 34.8203L262.127 36.415L260.516 36.9927L262.127 37.5712L262.784 39.1643V39.1658V39.1643L263.439 37.5712L265.05 36.9927L263.439 36.415Z" fill="#DEDEDE"/>
<path d="M190.903 28.5946L190.248 27L189.591 28.5946L187.979 29.1724L189.591 29.7509L190.248 31.344V31.3455V31.344L190.903 29.7509L192.514 29.1724L190.903 28.5946Z" fill="#DEDEDE"/>
<defs>
<filter id="filter0_d_3616_2949" x="240.042" y="242.516" width="14.9761" height="54.3984" filterUnits="userSpaceOnUse" color-interpolation-filters="sRGB">
<feFlood flood-opacity="0" result="BackgroundImageFix"/>
<feColorMatrix in="SourceAlpha" type="matrix" values="0 0 0 0 0 0 0 0 0 0 0 0 0 0 0 0 0 0 127 0" result="hardAlpha"/>
<feOffset/>
<feGaussianBlur stdDeviation="2.5"/>
<feComposite in2="hardAlpha" operator="out"/>
<feColorMatrix type="matrix" values="0 0 0 0 0 0 0 0 0 0 0 0 0 0 0 0 0 0 0.03 0"/>
<feBlend mode="normal" in2="BackgroundImageFix" result="effect1_dropShadow_3616_2949"/>
<feBlend mode="normal" in="SourceGraphic" in2="effect1_dropShadow_3616_2949" result="shape"/>
</filter>
</defs>
</svg>
