<svg width="100" height="82" viewBox="0 0 100 82" fill="none" xmlns="http://www.w3.org/2000/svg">
<path d="M31.7899 3.09384L32.497 2.38673L31.7899 3.09384C33.1286 4.43251 33.8816 6.24751 33.8837 8.14068V26.743C33.8816 28.6362 33.1286 30.4512 31.7899 31.7899C30.4512 33.1285 28.6362 33.8816 26.743 33.8837H8.14068C6.24751 33.8816 4.43251 33.1285 3.09384 31.7899C1.7553 30.4513 1.00231 28.6366 1 26.7436V8.14012C1.00231 6.24716 1.7553 4.43238 3.09384 3.09384C4.43238 1.7553 6.24716 1.00231 8.14012 1H26.7436C28.6366 1.00231 30.4513 1.7553 31.7899 3.09384ZM6.61021 6.61021L7.2163 7.2163L6.61021 6.61021C6.20461 7.01581 5.97674 7.56593 5.97674 8.13953V26.7442C5.97674 27.3178 6.20461 27.8679 6.61021 28.2735C7.01581 28.6791 7.56593 28.907 8.13953 28.907H26.7442C27.3178 28.907 27.8679 28.6791 28.2735 28.2735C28.6791 27.8679 28.907 27.3178 28.907 26.7442V8.13953C28.907 7.56593 28.6791 7.01581 28.2735 6.61021C27.8679 6.20461 27.3178 5.97674 26.7442 5.97674H8.13953C7.56593 5.97674 7.01581 6.20461 6.61021 6.61021Z" fill="#B4B4B4" stroke="white" stroke-width="2"/>
<path d="M31.7899 49.6017L32.497 48.8945L31.7899 49.6017C33.1286 50.9403 33.8816 52.7553 33.8837 54.6485V73.2509C33.8816 75.144 33.1286 76.959 31.7899 78.2977C30.4512 79.6364 28.6362 80.3894 26.743 80.3915H8.14068C6.24751 80.3894 4.43251 79.6364 3.09384 78.2977C1.7553 76.9592 1.00231 75.1444 1 73.2514V54.6479C1.00231 52.755 1.7553 50.9402 3.09384 49.6017C4.43238 48.2631 6.24716 47.5101 8.14012 47.5078H26.7436C28.6366 47.5101 30.4513 48.2631 31.7899 49.6017ZM6.61021 53.118L7.2163 53.7241L6.61021 53.118C6.20461 53.5236 5.97674 54.0737 5.97674 54.6473V73.252C5.97674 73.8256 6.20461 74.3757 6.61021 74.7813C7.01581 75.1869 7.56593 75.4148 8.13953 75.4148H26.7442C27.3178 75.4148 27.8679 75.1869 28.2735 74.7813C28.6791 74.3757 28.907 73.8256 28.907 73.252V54.6473C28.907 54.0737 28.6791 53.5236 28.2735 53.118C27.8679 52.7124 27.3178 52.4846 26.7442 52.4846H8.13953C7.56593 52.4846 7.01581 52.7124 6.61021 53.118Z" fill="#B4B4B4" stroke="white" stroke-width="2"/>
<path d="M96.5117 11.1252H50.0001C49.2075 11.1252 48.4474 10.8103 47.887 10.2499C47.3266 9.68948 47.0117 8.92937 47.0117 8.13681C47.0117 7.34424 47.3266 6.58414 47.887 6.02371C48.4474 5.46328 49.2075 5.14844 50.0001 5.14844H96.5117C97.3043 5.14844 98.0644 5.46328 98.6248 6.02371C99.1852 6.58414 99.5001 7.34424 99.5001 8.13681C99.5001 8.92938 99.1852 9.68948 98.6248 10.2499C98.0644 10.8103 97.3043 11.1252 96.5117 11.1252Z" fill="#B4B4B4" stroke="white"/>
<path d="M73.2559 29.7346H50.0001C49.2075 29.7346 48.4474 29.4197 47.887 28.8593C47.3266 28.2989 47.0117 27.5387 47.0117 26.7462C47.0117 25.9536 47.3266 25.1935 47.887 24.6331C48.4474 24.0727 49.2075 23.7578 50.0001 23.7578H73.2559C74.0485 23.7578 74.8086 24.0727 75.369 24.6331C75.9294 25.1935 76.2443 25.9536 76.2443 26.7462C76.2443 27.5388 75.9294 28.2989 75.369 28.8593C74.8086 29.4197 74.0485 29.7346 73.2559 29.7346Z" fill="#B4B4B4" stroke="white"/>
<path d="M96.5117 57.6408H50.0001C49.2075 57.6408 48.4474 57.326 47.887 56.7655C47.3266 56.2051 47.0117 55.445 47.0117 54.6524C47.0117 53.8599 47.3266 53.0998 47.887 52.5393C48.4474 51.9789 49.2075 51.6641 50.0001 51.6641H96.5117C97.3043 51.6641 98.0644 51.9789 98.6248 52.5393C99.1852 53.0998 99.5001 53.8599 99.5001 54.6524C99.5001 55.445 99.1852 56.2051 98.6248 56.7655C98.0644 57.326 97.3043 57.6408 96.5117 57.6408Z" fill="#B4B4B4" stroke="white"/>
<path d="M87.2098 29.7346H82.5587C81.7661 29.7346 81.006 29.4197 80.4456 28.8593C79.8852 28.2989 79.5703 27.5388 79.5703 26.7462C79.5703 25.9536 79.8852 25.1935 80.4456 24.6331C81.006 24.0727 81.7661 23.7578 82.5587 23.7578H87.2098C88.0024 23.7578 88.7625 24.0727 89.3229 24.6331C89.8834 25.1935 90.1982 25.9536 90.1982 26.7462C90.1982 27.5388 89.8834 28.2989 89.3229 28.8593C88.7625 29.4197 88.0024 29.7346 87.2098 29.7346Z" fill="#B4B4B4" stroke="white"/>
<path d="M73.2559 76.2424H50.0001C49.2075 76.2424 48.4474 75.9275 47.887 75.3671C47.3266 74.8067 47.0117 74.0466 47.0117 73.254C47.0117 72.4614 47.3266 71.7013 47.887 71.1409C48.4474 70.5805 49.2075 70.2656 50.0001 70.2656H73.2559C74.0485 70.2656 74.8086 70.5805 75.369 71.1409C75.9294 71.7013 76.2443 72.4614 76.2443 73.254C76.2443 74.0466 75.9294 74.8067 75.369 75.3671C74.8086 75.9275 74.0485 76.2424 73.2559 76.2424Z" fill="#B4B4B4" stroke="white"/>
<path d="M87.2098 76.2424H82.5587C81.7661 76.2424 81.006 75.9275 80.4456 75.3671C79.8852 74.8067 79.5703 74.0466 79.5703 73.254C79.5703 72.4614 79.8852 71.7013 80.4456 71.1409C81.006 70.5805 81.7661 70.2656 82.5587 70.2656H87.2098C88.0024 70.2656 88.7625 70.5805 89.3229 71.1409C89.8834 71.7013 90.1982 72.4614 90.1982 73.254C90.1982 74.0466 89.8834 74.8067 89.3229 75.3671C88.7625 75.9275 88.0024 76.2424 87.2098 76.2424Z" fill="#B4B4B4" stroke="white"/>
</svg>
