<svg width="100" height="100" viewBox="0 0 100 100" fill="none" xmlns="http://www.w3.org/2000/svg">
<mask id="mask0_3822_2262" style="mask-type:luminance" maskUnits="userSpaceOnUse" x="0" y="0" width="100" height="100">
<path d="M0 0H100V100H0V0Z" fill="white"/>
</mask>
<g mask="url(#mask0_3822_2262)">
<path fill-rule="evenodd" clip-rule="evenodd" d="M46.0564 4.94453C46.0564 3.03242 44.4949 1.46953 42.5848 1.46953H9.34004C7.42969 1.46953 5.86816 3.03242 5.86816 4.94453V19.7982C5.86816 21.7104 7.42969 23.2734 9.34004 23.2734H42.5848C44.4949 23.2734 46.0564 21.7104 46.0564 19.7982V4.94453Z" fill="#F9F9F9"/>
<path fill-rule="evenodd" clip-rule="evenodd" d="M74.0243 35.2472C73.3874 32.8529 72.1472 30.7855 70.5136 29.1505C67.1915 25.8361 62.2468 24.3341 57.3964 25.6367C55.0044 26.274 52.9335 27.5156 51.3057 29.1505C47.9944 32.4761 46.4938 37.4253 47.7895 42.2806C49.0575 47.0027 52.6567 50.4779 57.0143 51.7859C60.2923 52.8722 65.4087 55.6046 70.0983 48.7763C72.8614 46.2267 74.4948 42.6021 74.4893 38.7667C74.4893 37.6029 74.3397 36.4222 74.0243 35.2472Z" fill="#F9F9F9"/>
<path fill-rule="evenodd" clip-rule="evenodd" d="M28.8527 54.6525C24.9046 47.8021 16.1505 45.4521 9.3068 49.4094C2.46305 53.3668 0.115198 62.1236 4.06852 68.9742C8.01656 75.8303 16.7709 78.1746 23.6146 74.2174C30.4586 70.2656 32.806 61.5029 28.8527 54.6525Z" fill="#F9F9F9"/>
<path fill-rule="evenodd" clip-rule="evenodd" d="M21.6152 58.837C19.9706 55.9827 16.3327 55.0073 13.4812 56.6532C10.6351 58.2995 9.66066 61.9464 11.3052 64.7952C12.9497 67.6441 16.5876 68.6195 19.439 66.9734C22.2853 65.3273 23.2597 61.6859 21.6152 58.837Z" fill="#DEDEDE"/>
<path fill-rule="evenodd" clip-rule="evenodd" d="M72.5955 55.9732V52.6533C72.5955 50.5805 71.4826 49.2836 70.0982 48.7791C67.8226 47.9422 64.8047 49.2336 64.8047 52.6533V39.1131C64.8047 33.615 57.0142 33.615 57.0142 39.1131V51.7887V67.1023C57.0142 70.0621 56.3885 72.2957 54.3894 69.8072C51.3055 65.3178 49.0406 62.8736 44.7105 63.6273C42.1693 64.0762 41.2002 66.4373 42.9389 68.6766L55.2754 86.7893C57.9168 90.6744 58.2822 93.1463 58.2822 96.6104C58.2822 97.6689 59.1514 98.5391 60.2144 98.5391H83.293C84.3562 98.5391 85.2256 97.6689 85.2256 96.6104V92.8416V90.6357C85.2256 85.6252 87.5123 86.0963 88.1713 79.9721V59.2932C88.1713 53.7951 80.3861 53.7895 80.3861 59.2932V55.9732C80.3861 50.4752 72.5955 50.4752 72.5955 55.9732Z" fill="#F9F9F9"/>
<path fill-rule="evenodd" clip-rule="evenodd" d="M46.0562 4.94453C46.0562 3.03242 44.4947 1.46953 42.5846 1.46953H35.4971C37.4074 1.46953 38.9688 3.03242 38.9688 4.94453V8.77988V15.8021V19.7982C38.9688 21.7104 37.4074 23.2734 35.4971 23.2734H42.5846C44.4947 23.2734 46.0562 21.7104 46.0562 19.7982V4.94453Z" fill="#F1F1EF"/>
<path fill-rule="evenodd" clip-rule="evenodd" d="M74.0242 35.2543C73.3873 32.86 72.1471 30.7926 70.5135 29.1576C67.1914 25.8432 62.2467 24.3412 57.3963 25.6437C55.7076 26.0926 54.1848 26.8465 52.8613 27.8219C57.4738 26.8465 62.0973 28.365 65.2479 31.5133C66.8814 33.1426 68.1215 35.2156 68.7584 37.6043C69.074 38.785 69.2234 39.9654 69.2234 41.1238C69.2289 44.0279 68.2932 46.8104 66.6432 49.0938C67.673 48.473 68.9744 48.3678 70.0982 48.7834C72.8613 46.2338 74.4947 42.6092 74.4893 38.7738C74.4893 37.61 74.3396 36.4293 74.0242 35.2543Z" fill="#F1F1EF"/>
<path fill-rule="evenodd" clip-rule="evenodd" d="M88.1711 59.2932C88.1711 55.6129 84.6828 54.3936 82.3736 55.6406C83.5143 56.2559 84.3615 57.4752 84.3615 59.2932V79.9719C83.7025 86.0963 81.4158 85.6252 81.4158 90.6357V92.8416V96.6104C81.4158 97.6689 80.5465 98.5391 79.4834 98.5391H83.2928C84.3561 98.5391 85.2254 97.6689 85.2254 96.6104V92.8416V90.6357C85.2254 85.6252 87.5121 86.0963 88.1711 79.9719V68.1887V66.9361V59.2932Z" fill="#ECECEC"/>
<path d="M72.5957 55.966C72.5957 50.468 80.3863 50.468 80.3863 55.966V68.2812" stroke="#B4B4B4" stroke-width="1.5" stroke-miterlimit="10" stroke-linecap="round" stroke-linejoin="round"/>
<path d="M80.3857 59.292C80.3857 53.7883 88.1709 53.7939 88.1709 59.292V68.1875" stroke="#B4B4B4" stroke-width="1.5" stroke-miterlimit="10" stroke-linecap="round" stroke-linejoin="round"/>
<path d="M57.0146 39.1047C57.0146 33.6066 64.8053 33.6066 64.8053 39.1047V64.3672" stroke="#B4B4B4" stroke-width="1.5" stroke-miterlimit="10" stroke-linecap="round" stroke-linejoin="round"/>
<path d="M64.8047 52.6494C64.8047 47.1514 72.5955 47.1514 72.5955 52.6494V66.3281" stroke="#B4B4B4" stroke-width="1.5" stroke-miterlimit="10" stroke-linecap="round" stroke-linejoin="round"/>
<path d="M57.0146 39.1068V66.3203" stroke="#B4B4B4" stroke-width="1.5" stroke-miterlimit="10" stroke-linecap="round" stroke-linejoin="round"/>
<path d="M57.0142 64.2535V67.1023C57.0142 70.0619 56.3884 72.2955 54.3896 69.807C51.3054 65.3176 49.0407 62.8734 44.7107 63.6271C42.1693 64.0762 41.2001 66.4373 42.939 68.6764L55.2755 86.7891C57.9167 90.6742 58.2821 93.1463 58.2821 96.6104C58.2821 97.6689 59.1513 98.5391 60.2146 98.5391H83.2931C84.3562 98.5391 85.2255 97.6689 85.2255 96.6104V92.8414V90.6355C85.2255 85.6252 87.5122 86.0963 88.1712 79.9719V74.9559" stroke="#B4B4B4" stroke-width="1.5" stroke-miterlimit="10" stroke-linecap="round" stroke-linejoin="round"/>
<path d="M81.8205 17.8309L70.5137 29.1484" stroke="#B4B4B4" stroke-width="1.5" stroke-miterlimit="10" stroke-linecap="round" stroke-linejoin="round"/>
<path d="M85.1926 38.7578H74.4893" stroke="#B4B4B4" stroke-width="1.5" stroke-miterlimit="10" stroke-linecap="round" stroke-linejoin="round"/>
<path d="M45.3643 23.2014L51.3057 29.1484" stroke="#B4B4B4" stroke-width="1.5" stroke-miterlimit="10" stroke-linecap="round" stroke-linejoin="round"/>
<path d="M20.8848 23.2734H9.34004C7.42969 23.2734 5.86816 21.7105 5.86816 19.7984V4.94453C5.86816 3.03242 7.42969 1.46953 9.34004 1.46953H42.5848C44.4949 1.46953 46.0564 3.03242 46.0564 4.94453V19.7984C46.0564 21.7049 44.4949 23.2734 42.5848 23.2734H27.6512" stroke="#B4B4B4" stroke-width="1.5" stroke-miterlimit="10" stroke-linecap="round" stroke-linejoin="round"/>
<path d="M23.809 8.78125H39.1025M11.8047 8.78125H16.2619" stroke="#DEDEDE" stroke-width="1.5" stroke-miterlimit="10" stroke-linecap="round" stroke-linejoin="round"/>
<path d="M29.3066 52.9609L47.7895 42.2752" stroke="#B4B4B4" stroke-width="1.5" stroke-miterlimit="10" stroke-linecap="round" stroke-linejoin="round"/>
<path d="M57.0139 51.7891C52.6561 50.4811 49.0571 47.0059 47.7891 42.2838C45.8512 35.0342 50.1479 27.5797 57.396 25.6398C64.6384 23.6943 72.0858 28.001 74.0239 35.2504C75.3803 40.3051 73.6971 45.4596 70.0979 48.7795" stroke="#B4B4B4" stroke-width="1.5" stroke-miterlimit="10" stroke-linecap="round" stroke-linejoin="round"/>
<path d="M27.098 15.8047H11.8047M39.1025 15.8047H34.6451" stroke="#DEDEDE" stroke-width="1.5" stroke-miterlimit="10" stroke-linecap="round" stroke-linejoin="round"/>
<path fill-rule="evenodd" clip-rule="evenodd" d="M96.1613 38.7629C96.1613 35.7312 93.7082 33.2703 90.6797 33.2703C87.6508 33.2703 85.1924 35.7312 85.1924 38.7629C85.1924 41.7945 87.6508 44.25 90.6797 44.25C93.7082 44.25 96.1613 41.7945 96.1613 38.7629Z" fill="#F9F9F9"/>
<path fill-rule="evenodd" clip-rule="evenodd" d="M95.3969 6.17007C92.1299 2.89995 86.8256 2.89995 83.5588 6.17007C80.2864 9.44019 80.2864 14.7498 83.5588 18.0199C86.8256 21.2955 92.1299 21.2955 95.3969 18.0199C98.6694 14.7498 98.6694 9.44019 95.3969 6.17007Z" fill="#F9F9F9"/>
<path fill-rule="evenodd" clip-rule="evenodd" d="M95.3967 18.0207C98.6691 14.7506 98.6691 9.44104 95.3967 6.17093C93.0047 3.77659 89.5164 3.13362 86.543 4.24768C87.9826 4.5969 89.3502 5.33401 90.4797 6.46467C93.7467 9.73479 93.7467 15.0444 90.4797 18.3145C89.6051 19.1901 88.5807 19.833 87.4953 20.2377C90.2416 20.9084 93.2539 20.1657 95.3967 18.0207Z" fill="#F1F1EF"/>
<path fill-rule="evenodd" clip-rule="evenodd" d="M96.1613 38.7629C96.1613 35.7312 93.7082 33.2703 90.6797 33.2703C89.6773 33.2703 88.7359 33.542 87.9277 34.0131C89.8766 34.85 91.2443 36.7953 91.2443 39.0566C91.2443 41.0797 90.1426 42.8533 88.509 43.801C89.1734 44.0893 89.9043 44.25 90.6797 44.25C93.7082 44.25 96.1613 41.7945 96.1613 38.7629Z" fill="#F1F1EF"/>
<path d="M83.5588 6.17007C86.8258 2.89995 92.1301 2.89995 95.3969 6.17007C98.6694 9.44019 98.6694 14.7498 95.3969 18.0199C92.1301 21.2955 86.8258 21.2955 83.5588 18.0199C80.2864 14.7498 80.2864 9.44019 83.5588 6.17007Z" stroke="#B4B4B4" stroke-width="1.5" stroke-miterlimit="10" stroke-linecap="round" stroke-linejoin="round"/>
<path d="M90.6797 33.2705C93.7084 33.2705 96.1613 35.7314 96.1613 38.7631C96.1613 41.7947 93.7084 44.25 90.6797 44.25C87.6508 44.25 85.1924 41.7947 85.1924 38.7631C85.1924 35.7314 87.6508 33.2705 90.6797 33.2705Z" stroke="#B4B4B4" stroke-width="1.5" stroke-miterlimit="10" stroke-linecap="round" stroke-linejoin="round"/>
<path fill-rule="evenodd" clip-rule="evenodd" d="M23.1773 54.7851C27.1307 61.6355 24.7832 70.3981 17.9393 74.3499C16.6656 75.087 15.3201 75.6079 13.958 75.9185C17.1641 76.4892 20.575 75.9737 23.6146 74.2169C30.4586 70.2651 32.8063 61.5024 28.8529 54.6521C25.6412 49.0763 19.2459 46.4825 13.2881 47.8403C17.2971 48.5554 20.9791 50.972 23.1773 54.7851Z" fill="#F1F1EF"/>
<path d="M23.6145 74.2174C16.7707 78.1746 8.01661 75.8303 4.06857 68.9742C0.115248 62.1238 2.4629 53.3668 9.30665 49.4094C16.1504 45.4521 24.9045 47.8021 28.8526 54.6525C32.8061 61.5029 30.4584 70.2656 23.6145 74.2174Z" stroke="#B4B4B4" stroke-width="1.5" stroke-miterlimit="10" stroke-linecap="round" stroke-linejoin="round"/>
<path d="M19.439 66.9734C16.5875 68.6195 12.9496 67.6441 11.3051 64.7952C9.66072 61.9464 10.6351 58.2995 13.4812 56.6534C16.3328 55.0073 19.9707 55.9827 21.6152 58.837C23.2597 61.6859 22.2851 65.3273 19.439 66.9734Z" stroke="#B4B4B4" stroke-width="1.5" stroke-miterlimit="10" stroke-linecap="round" stroke-linejoin="round"/>
</g>
</svg>
