<svg width="100" height="100" viewBox="0 0 100 100" fill="none" xmlns="http://www.w3.org/2000/svg">
<path d="M56.8184 70.4453H43.1821C31.9039 70.4453 22.7275 79.6217 22.7275 90.8999V93.1726C22.7275 96.9324 25.786 99.9908 29.5457 99.9908H70.4548C74.2146 99.9908 77.273 96.9324 77.273 93.1726V90.8999C77.273 79.6217 68.0966 70.4453 56.8184 70.4453Z" fill="#F9F9F9"/>
<path d="M79.5458 36.3594H65.9094C64.6543 36.3594 63.6367 37.377 63.6367 38.6321C63.6367 39.8872 64.6543 40.9048 65.9094 40.9048H79.5458C88.3182 40.9048 95.4549 48.0415 95.4549 56.8139V59.0866C95.4549 60.3395 94.4351 61.3594 93.1822 61.3594H67.1867C65.9316 61.3594 64.914 62.377 64.914 63.6321C64.914 64.8872 65.9316 65.9048 67.1867 65.9048H93.1822C96.9419 65.9048 100 62.8464 100 59.0866V56.8139C100 45.5357 90.824 36.3594 79.5458 36.3594Z" fill="#BDDBFF"/>
<path d="M35.0863 63.6321C35.0863 62.377 34.0687 61.3594 32.8136 61.3594H6.81818C5.5653 61.3594 4.54545 60.3395 4.54545 59.0866V56.8139C4.54545 48.0415 11.6821 40.9048 20.4545 40.9048H34.0909C35.346 40.9048 36.3636 39.8872 36.3636 38.6321C36.3636 37.377 35.346 36.3594 34.0909 36.3594H20.4545C9.17636 36.3594 0 45.5357 0 56.8139V59.0866C0 62.8464 3.05842 65.9048 6.81818 65.9048H32.8136C34.0687 65.9048 35.0863 64.8872 35.0863 63.6321Z" fill="#BDDBFF"/>
<path d="M62.8866 95.4496V96.1996H63.6366H70.4548C72.1219 96.1996 73.4775 94.844 73.4775 93.1769V90.9041C73.4775 81.7175 66.0051 74.245 56.8184 74.245H43.1821C33.9955 74.245 26.523 81.7175 26.523 90.9041V93.1769C26.523 94.8439 27.8786 96.1996 29.5457 96.1996H36.3639H37.1139V95.4496V86.3587C37.1139 85.5178 37.7957 84.8359 38.6366 84.8359C39.4775 84.8359 40.1594 85.5178 40.1594 86.3587V95.4496V96.1996H40.9094H59.0912H59.8412V95.4496V86.3587C59.8412 85.5178 60.523 84.8359 61.3639 84.8359C62.2048 84.8359 62.8866 85.5178 62.8866 86.3587V95.4496ZM43.1821 71.1996H56.8184C67.6824 71.1996 76.523 80.0402 76.523 90.9041V93.1769C76.523 96.5224 73.8004 99.245 70.4548 99.245H29.5457C26.2002 99.245 23.4775 96.5224 23.4775 93.1769V90.9041C23.4775 80.0402 32.3181 71.1996 43.1821 71.1996ZM65.1594 49.995C65.1594 58.3532 58.3585 65.1541 50.0003 65.1541C41.6421 65.1541 34.8412 58.3532 34.8412 49.995C34.8412 41.6368 41.6421 34.8359 50.0003 34.8359C58.3585 34.8359 65.1594 41.6368 65.1594 49.995ZM62.1139 49.995C62.1139 43.3153 56.68 37.8814 50.0003 37.8814C43.3205 37.8814 37.8866 43.3153 37.8866 49.995C37.8866 56.6748 43.3205 62.1087 50.0003 62.1087C56.68 62.1087 62.1139 56.6748 62.1139 49.995Z" fill="#B4B4B4" stroke="white" stroke-width="1.5"/>
<path d="M99.25 56.8182V59.0909C99.25 62.4365 96.5274 65.1591 93.1818 65.1591H67.1864C66.3455 65.1591 65.6637 64.4773 65.6637 63.6364C65.6637 62.7955 66.3455 62.1136 67.1864 62.1136H93.1818C94.8489 62.1136 96.2045 60.758 96.2045 59.0909V56.8182C96.2045 47.6316 88.7321 40.1591 79.5455 40.1591H65.9091C65.0682 40.1591 64.3864 39.4773 64.3864 38.6364C64.3864 37.7955 65.0682 37.1136 65.9091 37.1136H79.5455C90.4094 37.1136 99.25 45.9542 99.25 56.8182ZM72.7273 31.0682C64.3691 31.0682 57.5682 24.2673 57.5682 15.9091C57.5682 7.55089 64.3691 0.75 72.7273 0.75C81.0855 0.75 87.8864 7.55089 87.8864 15.9091C87.8864 24.2673 81.0855 31.0682 72.7273 31.0682ZM72.7273 28.0227C79.407 28.0227 84.8409 22.5888 84.8409 15.9091C84.8409 9.22934 79.407 3.79545 72.7273 3.79545C66.0475 3.79545 60.6136 9.22934 60.6136 15.9091C60.6136 22.5888 66.0475 28.0227 72.7273 28.0227ZM20.4545 37.1136H34.0909C34.9318 37.1136 35.6136 37.7955 35.6136 38.6364C35.6136 39.4773 34.9318 40.1591 34.0909 40.1591H20.4545C11.2679 40.1591 3.79545 47.6316 3.79545 56.8182V59.0909C3.79545 60.758 5.15108 62.1136 6.81818 62.1136H32.8136C33.6545 62.1136 34.3363 62.7955 34.3363 63.6364C34.3363 64.4773 33.6545 65.1591 32.8136 65.1591H6.81818C3.47263 65.1591 0.75 62.4365 0.75 59.0909V56.8182C0.75 45.9542 9.59057 37.1136 20.4545 37.1136ZM42.4318 15.9091C42.4318 24.2673 35.6309 31.0682 27.2727 31.0682C18.9145 31.0682 12.1136 24.2673 12.1136 15.9091C12.1136 7.55089 18.9145 0.75 27.2727 0.75C35.6309 0.75 42.4318 7.55089 42.4318 15.9091ZM39.3864 15.9091C39.3864 9.22934 33.9525 3.79545 27.2727 3.79545C20.593 3.79545 15.1591 9.22934 15.1591 15.9091C15.1591 22.5888 20.593 28.0227 27.2727 28.0227C33.9525 28.0227 39.3864 22.5888 39.3864 15.9091Z" fill="#B4B4B4" stroke="white" stroke-width="1.5"/>
</svg>
