<svg width="24" height="24" viewBox="0 0 24 24" fill="none" xmlns="http://www.w3.org/2000/svg">
<path d="M7.20001 0H3.60001C1.608 0 0 1.608 0 3.60001V7.20001C0 9.19202 1.608 10.8 3.60001 10.8H7.20001C9.19202 10.8 10.8 9.19202 10.8 7.20001V3.60001C10.8 1.608 9.19202 0 7.20001 0ZM9.00002 7.20001C9.00002 8.19602 8.19602 9.00002 7.20001 9.00002H3.60001C2.604 9.00002 1.8 8.19602 1.8 7.20001V3.60001C1.8 2.60401 2.604 1.8 3.60001 1.8H7.20001C8.19602 1.8 9.00002 2.60401 9.00002 3.60001V7.20001Z" fill="#717171"/>
<path d="M20.4002 0H16.8002C14.8082 0 13.2002 1.608 13.2002 3.60001V7.20001C13.2002 9.19202 14.8082 10.8 16.8002 10.8H20.4002C22.3922 10.8 24.0002 9.19202 24.0002 7.20001V3.60001C24.0002 1.608 22.3922 0 20.4002 0ZM22.2002 7.20001C22.2002 8.19602 21.3962 9.00002 20.4002 9.00002H16.8002C15.8042 9.00002 15.0002 8.19602 15.0002 7.20001V3.60001C15.0002 2.60401 15.8042 1.8 16.8002 1.8H20.4002C21.3962 1.8 22.2002 2.60401 22.2002 3.60001V7.20001Z" fill="#717171"/>
<path d="M7.20001 13.1992H3.60001C1.608 13.1992 0 14.8072 0 16.7992V20.3992C0 22.3912 1.608 23.9992 3.60001 23.9992H7.20001C9.19202 23.9992 10.8 22.3912 10.8 20.3992V16.7992C10.8 14.8072 9.19202 13.1992 7.20001 13.1992ZM9.00002 20.3992C9.00002 21.3952 8.19602 22.1992 7.20001 22.1992H3.60001C2.604 22.1992 1.8 21.3952 1.8 20.3992V16.7992C1.8 15.8032 2.604 14.9992 3.60001 14.9992H7.20001C8.19602 14.9992 9.00002 15.8032 9.00002 16.7992V20.3992Z" fill="#717171"/>
<path d="M22.1996 17.6996H19.4996V14.9996C19.4996 14.5076 19.0916 14.0996 18.5996 14.0996C18.1076 14.0996 17.6996 14.5076 17.6996 14.9996V17.6996H14.9996C14.5076 17.6996 14.0996 18.1076 14.0996 18.5996C14.0996 19.0916 14.5076 19.4996 14.9996 19.4996H17.6996V22.1996C17.6996 22.6916 18.1076 23.0996 18.5996 23.0996C19.0916 23.0996 19.4996 22.6916 19.4996 22.1996V19.4996H22.1996C22.6916 19.4996 23.0996 19.0916 23.0996 18.5996C23.0996 18.1076 22.6916 17.6996 22.1996 17.6996Z" fill="#717171"/>
</svg>
