<svg width="21" height="24" viewBox="0 0 21 24" fill="none" xmlns="http://www.w3.org/2000/svg">
<path d="M7.65932 13.8536H11.1386C13.2802 13.8536 15.2365 14.9312 16.3729 16.7361C16.5863 17.0752 17.0341 17.1775 17.3724 16.9633C17.7107 16.7498 17.8129 16.3028 17.5995 15.9638C16.5775 14.3393 15.0142 13.1988 13.2198 12.6963C15.0883 11.4543 16.3246 9.33212 16.3246 6.9256C16.3246 3.10722 13.2182 0 9.39897 0C5.57978 0 2.47418 3.10641 2.47418 6.9248C2.47418 9.33293 3.71046 11.456 5.58059 12.6971C2.36545 13.6064 0 16.5606 0 20.0616V21.0522C0 22.1428 0.769959 23.0786 1.82664 23.2784C4.28954 23.7576 6.83701 24 9.39897 24H9.7614C10.1617 24 10.4863 23.6754 10.4863 23.2751C10.4863 22.8749 10.1617 22.5503 9.7614 22.5503H9.39897C6.92963 22.5503 4.47559 22.3167 2.09967 21.8544C1.72355 21.7836 1.44971 21.4461 1.44971 21.0531V20.0624C1.44971 16.6387 4.23558 13.8536 7.65932 13.8536ZM3.92308 6.9248C3.92308 3.90537 6.37954 1.44971 9.39817 1.44971C12.4176 1.44971 14.8741 3.90537 14.8741 6.9248C14.8741 9.94423 12.4176 12.4007 9.39817 12.4007C6.37954 12.4007 3.92308 9.94423 3.92308 6.9248Z" fill="#525252"/>
<path d="M20.3815 20.9805L18.5999 19.199C18.3164 18.9155 17.8582 18.9155 17.5755 19.199C17.2928 19.4825 17.292 19.9415 17.5755 20.2242L18.1191 20.7679H12.822C12.4217 20.7679 12.0972 21.0924 12.0972 21.4927C12.0972 21.893 12.4217 22.2176 12.822 22.2176H18.1191L17.5755 22.7612C17.292 23.0447 17.292 23.5038 17.5755 23.7865C17.7172 23.9282 17.9025 23.9991 18.0877 23.9991C18.2729 23.9991 18.4582 23.9282 18.5999 23.7865L20.3815 22.005C20.665 21.7231 20.665 21.264 20.3815 20.9805Z" fill="#525252"/>
</svg>
