<svg width="100" height="100" viewBox="0 0 100 100" fill="none" xmlns="http://www.w3.org/2000/svg">
<path d="M100 91.4782C100 94.5043 77.6142 96.957 50 96.957C22.3858 96.957 0 94.5043 0 91.4782C0 88.4523 22.3858 85.9996 50 85.9996C77.6142 85.9996 100 88.4523 100 91.4782Z" fill="#F7F7F7"/>
<path d="M87.0078 73.7324C88.7821 62.5203 92.3936 39.701 94.4005 27.0311C94.7757 24.6497 94.0794 22.2235 92.49 20.3904C90.9003 18.5569 88.5763 17.5 86.1276 17.5H86.0255H85.9229H85.8199H85.7164H85.6125H85.5081H85.4032H85.2979H85.1922H85.086H84.9794H84.8724H84.7648H84.6569H84.5485H84.4397H84.3305H84.2208H84.1108H84.0002H83.8893H83.7779H83.6662H83.554H83.4413H83.3283H83.2149H83.101H82.9867H82.8721H82.757H82.6415H82.5256H82.4093H82.2927H82.1756H82.0581H81.9402H81.822H81.7033H81.5843H81.4649H81.345H81.2248H81.1043H80.9833H80.862H80.7403H80.6182H80.4958H80.3729H80.2498H80.1262H80.0023H79.878H79.7534H79.6284H79.503H79.3773H79.2512H79.1248H78.998H78.8709H78.7434H78.6156H78.4875H78.359H78.2302H78.101H77.9715H77.8416H77.7115H77.581H77.4501H77.319H77.1875H77.0557H76.9235H76.7911H76.6583H76.5253H76.3919H76.2581H76.1241H75.9898H75.8552H75.7202H75.585H75.4494H75.3136H75.1774H75.041H74.9043H74.7672H74.6299H74.4923H74.3544H74.2162H74.0778H73.939H73.8H73.6607H73.5211H73.3812H73.2411H73.1007H72.96H72.8191H72.6779H72.5364H72.3947H72.2527H72.1105H71.968H71.8252H71.6822H71.5389H71.3954H71.2516H71.1076H70.9634H70.8189H70.6742H70.5292H70.384H70.2385H70.0928H69.9469H69.8008H69.6544H69.5078H69.361H69.214H69.0667H68.9192H68.7715H68.6236H68.4755H68.3271H68.1786H68.0298H67.8808H67.7317H67.5823H67.4327H67.2829H67.133H66.9828H66.8324H66.6819H66.5311H66.3802H66.2291H66.0778H65.9263H65.7746H65.6228H65.4707H65.3185H65.1662H65.0136H64.8609H64.708H64.5549H64.4017H64.2483H64.0948H63.9411H63.7872H63.6332H63.479H63.3247H63.1702H63.0156H62.8608H62.7059H62.5508H62.3956H62.2403H62.0848H61.9292H61.7734H61.6175H61.4615H61.3054H61.1491H60.9927H60.8362H60.6795H60.5227H60.3659H60.2089H60.0517H59.8945H59.7372H59.5797H59.4221H59.2645H59.1067H58.9488H58.7909H58.6328H58.4746H58.3164H58.158H57.9995H57.841H57.6824H57.5237H57.3649H57.206H57.047H56.888H56.7289H56.5697H56.4104H56.2511H56.0917H55.9322H55.7727H55.613H55.4534H55.2936H55.1339H54.974H54.8141H54.6541H54.4941H54.3341H54.174H54.0138H53.8536H53.6934H53.5331H53.3728H53.2124H53.052H52.8916H52.7311H52.5706H52.4101H52.2495H52.089H51.9284H51.7677H51.6071H51.4464H51.2858H51.1251H50.9644H50.8037H50.6429H50.4822H50.3215H50.1607H50H49.8393H49.6785H49.5178H49.3571H49.1963H49.0356H48.8749H48.7142H48.5536H48.3929H48.2323H48.0716H47.911H47.7505H47.5899H47.4294H47.2689H47.1084H46.948H46.7876H46.6273H46.4669H46.3066H46.1464H45.9862H45.826H45.6659H45.5059H45.3459H45.1859H45.026H44.8662H44.7064H44.5466H44.387H44.2274H44.0678H43.9083H43.7489H43.5896H43.4303H43.2711H43.112H42.953H42.794H42.6351H42.4763H42.3176H42.159H42.0005H41.842H41.6836H41.5254H41.3672H41.2091H41.0512H40.8933H40.7355H40.5779H40.4203H40.2628H40.1055H39.9483H39.7912H39.6341H39.4773H39.3205H39.1638H39.0073H38.8509H38.6946H38.5385H38.3825H38.2266H38.0708H37.9152H37.7597H37.6044H37.4492H37.2941H37.1392H36.9844H36.8298H36.6753H36.521H36.3668H36.2128H36.0589H35.9052H35.7517H35.5983H35.4451H35.292H35.1391H34.9864H34.8338H34.6815H34.5293H34.3772H34.2254H34.0737H33.9222H33.7709H33.6198H33.4689H33.3181H33.1676H33.0172H32.867H32.7171H32.5673H32.4177H32.2683H32.1192H31.9702H31.8214H31.6729H31.5245H31.3764H31.2285H31.0808H30.9333H30.7861H30.639H30.4922H30.3456H30.1992H30.0531H29.9072H29.7615H29.616H29.4708H29.3259H29.1811H29.0366H28.8924H28.7484H28.6046H28.4611H28.3178H28.1748H28.032H27.8895H27.7473H27.6053H27.4636H27.3221H27.1809H27.04H26.8993H26.7589H26.6188H26.4789H26.3393H26.2H26.061H25.9222H25.7838H25.6456H25.5077H25.3701H25.2328H25.0957H24.959H24.8226H24.6864H24.5506H24.415H24.2798H24.1448H24.0102H23.8759H23.7419H23.6082H23.4748H23.3417H23.2089H23.0765H22.9443H22.8125H22.681H22.5499H22.419H22.2885H22.1584H22.0285H21.899H21.7698H21.641H21.5125H21.3844H21.2566H21.1291H21.002H20.8752H20.7488H20.6227H20.497H20.3716H20.2466H20.122H19.9977H19.8738H19.7502H19.6271H19.5042H19.3818H19.2597H19.138H19.0167H18.8957H18.7752H18.655H18.5352H18.4157H18.2967H18.178H18.0598H17.9419H17.8244H17.7074H17.5907H17.4744H17.3585H17.243H17.1279H17.0133H16.899H16.7851H16.6717H16.5587H16.446H16.3338H16.2221H16.1107H15.9998H15.8892H15.7792H15.6695H15.5603H15.4515H15.3431H15.2352H15.1277H15.0206H14.914H14.8078H14.7021H14.5968H14.4919H14.3875H14.2836H14.1801H14.0771H13.9745H13.8724C11.4237 17.5 9.09971 18.5569 7.50996 20.3904C5.92057 22.2235 5.22434 24.6497 5.59952 27.0311L8.21869 43.5746L9.22475 49.9289L9.52016 51.7948L9.59951 52.2959L9.62003 52.4255L9.62525 52.4584L9.62656 52.4667L9.62686 52.4686C9.66732 52.7213 9.91322 52.9059 10.1831 52.8649C10.4538 52.8222 10.6271 52.5756 10.5871 52.3249L10.587 52.3243L6.55949 26.8855L6.55942 26.8851C6.22686 24.7734 6.84564 22.6231 8.25046 21.0004L8.25071 21.0001C9.65759 19.3776 11.7121 18.4459 13.8724 18.4459H86.1276C88.2879 18.4459 90.3424 19.3776 91.7493 21.0001L91.7495 21.0004C93.1544 22.6231 93.7731 24.7734 93.4406 26.8851L93.4405 26.8856C91.4336 39.5553 87.8221 62.3748 86.0478 73.5871L86.0478 73.5874C85.4822 77.1505 82.3769 79.7688 78.7349 79.7688H78.6554H78.5754H78.495H78.4143H78.3332H78.2517H78.1699H78.0876H78.005H77.922H77.8387H77.755H77.6709H77.5864H77.5016H77.4164H77.3309H77.245H77.1587H77.0721H76.9852H76.8978H76.8102H76.7221H76.6338H76.5451H76.456H76.3666H76.2768H76.1867H76.0963H76.0055H75.9144H75.823H75.7312H75.6391H75.5466H75.4539H75.3608H75.2673H75.1736H75.0795H74.9851H74.8904H74.7954H74.7H74.6043H74.5084H74.4121H74.3155H74.2185H74.1213H74.0238H73.9259H73.8278H73.7294H73.6306H73.5316H73.4322H73.3326H73.2327H73.1324H73.0319H72.9311H72.83H72.7286H72.627H72.525H72.4228H72.3203H72.2175H72.1144H72.011H71.9074H71.8035H71.6993H71.5949H71.4902H71.3852H71.28H71.1744H71.0687H70.9626H70.8563H70.7498H70.643H70.5359H70.4286H70.321H70.2132H70.1051H69.9968H69.8882H69.7794H69.6703H69.561H69.4515H69.3417H69.2317H69.1214H69.0109H68.9002H68.7893H68.6781H68.5667H68.455H68.3432H68.2311H68.1188H68.0062H67.8935H67.7805H67.6673H67.5539H67.4403H67.3265H67.2124H67.0982H66.9837H66.8691H66.7542H66.6391H66.5238H66.4084H66.2927H66.1768H66.0608H65.9445H65.8281H65.7114H65.5946H65.4776H65.3604H65.243H65.1254H65.0077H64.8897H64.7716H64.6533H64.5349H64.4162H64.2974H64.1784H64.0593H63.9399H63.8204H63.7008H63.581H63.461H63.3408H63.2205H63.1001H62.9795H62.8587H62.7378H62.6167H62.4955H62.3741H62.2526H62.1309H62.0091H61.8871H61.765H61.6428H61.5204H61.3979H61.2752H61.1524H61.0295H60.9065H60.7833H60.66H60.5366H60.413H60.2893H60.1655H60.0416H59.9176H59.7934H59.6691H59.5448H59.4203H59.2957H59.1709H59.0461H58.9212H58.7961H58.671H58.5457H58.4204H58.2949H58.1694H58.0438H57.918H57.7922H57.6663H57.5403H57.4142H57.288H57.1617H57.0353H56.9089H56.7824H56.6558H56.5291H56.4023H56.2755H56.1486H56.0216H55.8946H55.7675H55.6403H55.513H55.3857H55.2583H55.1309H55.0034H54.8758H54.7482H54.6206H54.4928H54.365H54.2372H54.1093H53.9814H53.8534H53.7254H53.5974H53.4692H53.3411H53.2129H53.0847H52.9564H52.8281H52.6998H52.5715H52.4431H52.3147H52.1862H52.0578H51.9293H51.8007H51.6722H51.5437H51.4151H51.2865H51.1579H51.0293H50.9006H50.772H50.6433H50.5147H50.386H50.2573H50.1287H50H49.8713H49.7427H49.614H49.4853H49.3567H49.228H49.0994H48.9707H48.8421H48.7135H48.5849H48.4564H48.3278H48.1993H48.0707H47.9423H47.8138H47.6853H47.5569H47.4285H47.3002H47.1719H47.0436H46.9153H46.7871H46.6589H46.5308H46.4026H46.2746H46.1466H46.0186H45.8907H45.7628H45.635H45.5072H45.3795H45.2518H45.1242H44.9966H44.8691H44.7417H44.6143H44.487H44.3597H44.2325H44.1054H43.9784H43.8514H43.7245H43.5977H43.4709H43.3442H43.2176H43.0911H42.9647H42.8383H42.712H42.5859H42.4598H42.3337H42.2078H42.082H41.9563H41.8306H41.7051H41.5796H41.4543H41.329H41.2039H41.0788H40.9539H40.8291H40.7044H40.5797H40.4552H40.3309H40.2066H40.0824H39.9584H39.8345H39.7107H39.587H39.4634H39.34H39.2167H39.0935H38.9705H38.8476H38.7248H38.6021H38.4796H38.3572H38.235H38.1129H37.9909H37.8691H37.7475H37.6259H37.5046H37.3833H37.2622H37.1413H37.0205H36.8999H36.7795H36.6592H36.539H36.419H36.2992H36.1796H36.0601H35.9407H35.8216H35.7026H35.5838H35.4651H35.3467H35.2284H35.1103H34.9923H34.8746H34.757H34.6396H34.5224H34.4054H34.2886H34.1719H34.0555H33.9392H33.8232H33.7073H33.5916H33.4762H33.3609H33.2458H33.131H33.0163H32.9018H32.7876H32.6735H32.5597H32.4461H32.3327H32.2195H32.1065H31.9938H31.8813H31.7689H31.6568H31.545H31.4333H31.3219H31.2107H31.0998H30.9891H30.8786H30.7683H30.6583H30.5485H30.439H30.3297H30.2206H30.1118H30.0032H29.8949H29.7868H29.679H29.5714H29.4641H29.357H29.2502H29.1437H29.0374H28.9313H28.8256H28.72H28.6148H28.5098H28.4051H28.3007H28.1965H28.0926H27.989H27.8856H27.7825H27.6797H27.5772H27.475H27.373H27.2714H27.17H27.0689H26.9681H26.8676H26.7673H26.6674H26.5678H26.4684H26.3694H26.2706H26.1722H26.0741H25.9762H25.8787H25.7815H25.6845H25.5879H25.4916H25.3957H25.3H25.2046H25.1096H25.0149H24.9205H24.8264H24.7327H24.6392H24.5461H24.4534H24.3609H24.2688H24.177H24.0856H23.9945H23.9037H23.8133H23.7232H23.6334H23.544H23.455H23.3662H23.2779H23.1898H23.1022H23.0148H22.9279H22.8413H22.755H22.6691H22.5836H22.4984H22.4136H22.3291H22.245H22.1613H22.078H21.995H21.9124H21.8301H21.7483H21.6668H21.5857H21.505H21.4246H21.3446H21.2651C17.6231 79.7688 14.5178 77.1505 13.9522 73.5874L13.9522 73.5871C13.412 70.1721 12.758 66.04 12.2391 62.7616L11.593 58.6808L11.4043 57.4887L11.3537 57.1693L11.3406 57.0867L11.3373 57.0657L11.3364 57.0604L11.3362 57.0591L11.3362 57.0588C11.3362 57.0587 11.3362 57.0587 11.83 56.9805L11.3362 57.0587L11.336 57.0575C11.2966 56.8049 11.0525 56.6209 10.7812 56.6631C10.5109 56.7051 10.337 56.9517 10.3763 57.2028L10.3762 57.2024L10.3761 57.2021C10.3761 57.202 10.3761 57.202 9.88228 57.2802L10.3763 57.2029L10.3764 57.2037L10.3772 57.209L10.3806 57.23L10.3936 57.3125L10.4442 57.632L10.633 58.8241L11.279 62.9052C11.798 66.1837 12.452 70.3162 12.9921 73.7322M87.0078 73.7324C87.0078 73.7324 87.0079 73.7323 87.0079 73.7322L87.5017 73.8106L87.0078 73.7324ZM87.0078 73.7324C86.3708 77.7465 82.8661 80.7147 78.7349 80.7147H21.2651C17.1338 80.7147 13.6291 77.7463 12.9921 73.7322M12.9921 73.7322L12.4983 73.8106L12.9922 73.7325C12.9922 73.7324 12.9921 73.7323 12.9921 73.7322Z" fill="white" stroke="#AAAAAA"/>
<path fill-rule="evenodd" clip-rule="evenodd" d="M89.0156 14.5217V8.8377C89.0156 7.29071 88.3927 5.80599 87.2828 4.71045C86.1729 3.61685 84.6687 3 83.1015 3C76.0419 3 64.4127 3 58.1871 3C55.6499 3 53.3966 4.59759 52.5844 6.96964L52.0226 8.68398H16.0743C14.5051 8.68398 13.0009 9.29888 11.891 10.3944C10.7831 11.488 10.1602 12.9727 10.1602 14.5217H89.0156Z" fill="#EDEDED"/>
</svg>
