<svg width="100" height="116" viewBox="0 0 100 116" fill="none" xmlns="http://www.w3.org/2000/svg">
<path d="M74.8508 7.43359V86.2807H17.4688V92.5494H81.1215V7.43359H74.8508Z" fill="#ECECEC"/>
<path d="M59.4727 68.4832C53.1231 74.8306 42.7874 74.8306 36.4379 68.4832C30.0884 62.1357 30.0884 51.8034 36.4379 45.4559C42.7874 39.1084 53.1231 39.1084 59.4727 45.4559C65.8379 51.7876 65.8379 62.1199 59.4727 68.4832Z" fill="#ECECEC"/>
<path d="M69.0836 74.2796L65.8537 71.0508C65.3023 71.7438 64.7193 72.4211 64.0734 73.0668C63.4274 73.7126 62.7499 74.2954 62.0566 74.8467L65.2865 78.0755C64.9242 79.7136 65.3653 81.4776 66.6258 82.7534L81.1682 97.2911C83.1377 99.2599 86.3361 99.2599 88.3055 97.2911C90.275 95.3223 90.275 92.125 88.3055 90.1562L73.7631 75.6184C72.4869 74.3584 70.7222 73.9174 69.0836 74.2796Z" fill="#B6B6B7"/>
<path d="M27.2995 17.263V1.16602L11.1973 17.263H27.2995Z" fill="#ECECEC"/>
<path d="M60.2905 44.6052C56.9976 41.3134 52.6018 39.4863 47.9223 39.4863C43.2429 39.4863 38.8471 41.2976 35.5542 44.6052C32.2612 47.9129 30.4336 52.2915 30.4336 56.9694C30.4336 61.6473 32.2455 66.0417 35.5542 69.3335C38.8471 72.6254 43.2429 74.4525 47.9223 74.4525C52.6018 74.4525 56.9976 72.6412 60.2905 69.3335C67.0969 62.5136 67.0969 51.4252 60.2905 44.6052ZM58.6204 67.664C55.7686 70.5148 51.9715 72.0899 47.9223 72.0899C43.8731 72.0899 40.076 70.5148 37.2243 67.664C34.3725 64.8132 32.7969 61.0173 32.7969 56.9694C32.7969 52.9215 34.3725 49.1256 37.2243 46.2748C40.076 43.424 43.8731 41.8489 47.9223 41.8489C51.9715 41.8489 55.7686 43.424 58.6204 46.2748C64.513 52.1655 64.513 61.7576 58.6204 67.664Z" fill="#B6B6B7"/>
<path d="M89.156 89.3831L74.5978 74.8139C73.2428 73.4593 71.3679 72.8293 69.4772 73.0341L67.3817 70.9393C74.1251 61.5677 73.3058 48.416 64.8923 39.9895C55.5335 30.6337 40.3135 30.6337 30.9547 39.9895C21.5958 49.3453 21.5958 64.5603 30.9547 73.9161C35.6341 78.594 41.7788 80.9251 47.9235 80.9251C52.8392 80.9251 57.755 79.3973 61.9145 76.4047L64.01 78.4995C63.7894 80.3896 64.4354 82.2639 65.7904 83.6027L80.3486 98.1719C81.5618 99.3847 83.1531 99.999 84.7602 99.999C86.3515 99.999 87.9585 99.3847 89.1717 98.1719C90.3534 96.9906 90.9994 95.4313 90.9994 93.7618C90.9836 92.1237 90.3219 90.5487 89.156 89.3831ZM32.609 72.2623C24.1798 63.8358 24.1798 50.1013 32.609 41.6748C36.8315 37.4537 42.3618 35.3431 47.9077 35.3431C53.4537 35.3431 58.9839 37.4537 63.2065 41.6748C71.6357 50.1013 71.6357 63.8358 63.2065 72.2623C54.7772 80.6888 41.054 80.6888 32.609 72.2623ZM87.4859 96.5181C85.9733 98.0301 83.5155 98.0301 82.0187 96.5181L67.4605 81.9646C66.5309 81.0353 66.137 79.6808 66.4364 78.3735C66.5309 77.9797 66.4048 77.5702 66.1212 77.2867L63.8052 74.9714C63.8367 74.9399 63.8524 74.9084 63.8682 74.8769C64.2148 74.5619 64.5772 74.2784 64.9081 73.9319C65.2389 73.6011 65.5225 73.2546 65.8376 72.9081C65.8692 72.8766 65.9164 72.8608 65.9322 72.8293L68.2483 75.1447C68.5319 75.4282 68.9415 75.5542 69.3354 75.4597C70.6431 75.1604 71.9823 75.5542 72.9277 76.4834L87.4859 91.0527C88.2106 91.7772 88.6203 92.7537 88.6203 93.7933C88.6203 94.817 88.2106 95.7936 87.4859 96.5181Z" fill="#B6B6B7"/>
<path d="M54.7766 50.1023C54.3197 49.6456 53.5635 49.6456 53.1065 50.1023L47.9229 55.2843L42.7393 50.1023C42.2824 49.6456 41.5262 49.6456 41.0692 50.1023C40.6123 50.5591 40.6123 51.3151 41.0692 51.7719L46.2528 56.9696L41.0692 62.1515C40.6123 62.6082 40.6123 63.3643 41.0692 63.821C41.3056 64.0573 41.6049 64.1675 41.9043 64.1675C42.2037 64.1675 42.503 64.0573 42.7393 63.821L47.9229 58.6391L53.1065 63.821C53.3429 64.0573 53.6422 64.1675 53.9416 64.1675C54.2409 64.1675 54.5403 64.0573 54.7766 63.821C55.2336 63.3643 55.2336 62.6082 54.7766 62.1515L49.593 56.9696L54.7766 51.7719C55.2336 51.3151 55.2336 50.5749 54.7766 50.1023Z" fill="#B6B6B7"/>
<path d="M36.1856 9.37234H66.0425C66.6885 9.37234 67.2242 8.83682 67.2242 8.19105C67.2242 7.54528 66.6885 7.00977 66.0425 7.00977H36.1856C35.5396 7.00977 35.0039 7.54528 35.0039 8.19105C35.0039 8.83682 35.5396 9.37234 36.1856 9.37234Z" fill="#B6B6B7"/>
<path d="M66.0584 13.2617H36.17C35.524 13.2617 34.9883 13.7972 34.9883 14.443C34.9883 15.0888 35.524 15.6243 36.17 15.6243H66.0584C66.7044 15.6243 67.2401 15.0888 67.2401 14.443C67.2401 13.7972 66.7044 13.2617 66.0584 13.2617Z" fill="#B6B6B7"/>
<path d="M66.0598 19.5781H50.3672C49.7212 19.5781 49.1855 20.1136 49.1855 20.7594C49.1855 21.4052 49.7212 21.9407 50.3672 21.9407H66.0598C66.7058 21.9407 67.2415 21.4052 67.2415 20.7594C67.2415 20.1136 66.7058 19.5781 66.0598 19.5781Z" fill="#B6B6B7"/>
<path d="M66.0598 25.8789H50.3672C49.7212 25.8789 49.1855 26.4144 49.1855 27.0602C49.1855 27.706 49.7212 28.2415 50.3672 28.2415H66.0598C66.7058 28.2415 67.2415 27.706 67.2415 27.0602C67.2415 26.4144 66.7058 25.8789 66.0598 25.8789Z" fill="#B6B6B7"/>
<path d="M69.8084 91.4947H18.6498V87.5886H63.5376C64.1836 87.5886 64.7193 87.0531 64.7193 86.4073C64.7193 85.7615 64.1836 85.226 63.5376 85.226H12.3633V18.4753H27.2997C27.9457 18.4753 28.4814 17.9398 28.4814 17.2941V2.36258H73.7315V70.7198C73.7315 71.3656 74.2672 71.9011 74.9132 71.9011C75.5592 71.9011 76.0949 71.3656 76.0949 70.7198V8.63128H80.0023V76.4057C80.0023 77.0515 80.538 77.587 81.1839 77.587C81.8299 77.587 82.3656 77.0515 82.3656 76.4057V7.44999C82.3656 6.80422 81.8299 6.2687 81.1839 6.2687H76.0949V1.18129C76.0949 0.535517 75.5592 0 74.9132 0H27.3154C27.0003 0 26.701 0.126004 26.4804 0.346511L10.3466 16.4593C10.126 16.6798 10 16.9791 10 17.2941V86.3916C10 87.0373 10.5357 87.5728 11.1817 87.5728H16.2707V92.6603C16.2707 93.306 16.8064 93.8416 17.4524 93.8416H69.7926C70.4386 93.8416 70.9743 93.306 70.9743 92.6603C70.9743 92.0145 70.4543 91.4947 69.8084 91.4947ZM26.1338 4.03213V16.1128H14.0334L26.1338 4.03213Z" fill="#B6B6B7"/>
<path d="M100 110.478C100 113.504 77.6142 115.957 50 115.957C22.3858 115.957 0 113.504 0 110.478C0 107.452 22.3858 105 50 105C77.6142 105 100 107.452 100 110.478Z" fill="#ECECEC"/>
</svg>
