<svg width="100" height="100" viewBox="0 0 100 100" fill="none" xmlns="http://www.w3.org/2000/svg">
<path d="M71.3551 6.4082V74.3804H21.2764V79.7845H76.8278V6.4082H71.3551Z" fill="#ECECEC"/>
<path d="M57.9348 59.0373C52.3934 64.5093 43.3732 64.5093 37.8318 59.0373C32.2904 53.5653 32.2904 44.658 37.8318 39.186C43.3732 33.714 52.3934 33.714 57.9348 39.186C63.49 44.6444 63.49 53.5517 57.9348 59.0373Z" fill="#ECECEC"/>
<path d="M66.3231 64.0345L63.5043 61.251C63.023 61.8484 62.5142 62.4323 61.9505 62.989C61.3867 63.5457 60.7954 64.0481 60.1904 64.5233L63.0092 67.3068C62.693 68.719 63.078 70.2397 64.178 71.3395L76.8696 83.8722C78.5884 85.5694 81.3797 85.5694 83.0985 83.8722C84.8173 82.1749 84.8173 79.4185 83.0985 77.7213L70.4069 65.1886C69.2932 64.1024 67.7531 63.7222 66.3231 64.0345Z" fill="#ECECEC"/>
<path d="M29.8566 14.8817V1.00488L15.8037 14.8817H29.8566Z" fill="#ECECEC"/>
<path d="M58.6477 38.4529C55.7739 35.6151 51.9376 34.04 47.8537 34.04C43.7698 34.04 39.9335 35.6015 37.0597 38.4529C34.1859 41.3043 32.5908 45.0791 32.5908 49.1118C32.5908 53.1445 34.1721 56.9328 37.0597 59.7706C39.9335 62.6084 43.7698 64.1835 47.8537 64.1835C51.9376 64.1835 55.7739 62.622 58.6477 59.7706C64.5879 53.8913 64.5879 44.3323 58.6477 38.4529ZM57.1902 58.3313C54.7014 60.789 51.3875 62.1468 47.8537 62.1468C44.3199 62.1468 41.006 60.789 38.5172 58.3313C36.0284 55.8737 34.6534 52.6014 34.6534 49.1118C34.6534 45.6222 36.0284 42.3499 38.5172 39.8922C41.006 37.4346 44.3199 36.0768 47.8537 36.0768C51.3875 36.0768 54.7014 37.4346 57.1902 39.8922C62.3328 44.9704 62.3328 53.2395 57.1902 58.3313Z" fill="#AAAAAA"/>
<path d="M83.8395 77.0549L71.1342 64.4951C69.9516 63.3274 68.3153 62.7843 66.6653 62.9608L64.8365 61.1549C70.7216 53.0759 70.0066 41.7382 62.6639 34.4739C54.4962 26.4085 41.2134 26.4085 33.0457 34.4739C24.878 42.5393 24.878 55.6558 33.0457 63.7212C37.1296 67.7539 42.4922 69.7635 47.8548 69.7635C52.1449 69.7635 56.435 68.4464 60.0651 65.8665L61.8939 67.6724C61.7014 69.3018 62.2652 70.9176 63.4477 72.0717L76.153 84.6315C77.2118 85.677 78.6006 86.2066 80.0031 86.2066C81.3919 86.2066 82.7944 85.677 83.8532 84.6315C84.8845 83.6132 85.4483 82.2689 85.4483 80.8296C85.4345 79.4175 84.857 78.0597 83.8395 77.0549ZM34.4895 62.2955C27.1331 55.0312 27.1331 43.191 34.4895 35.9267C38.1746 32.2878 43.0009 30.4683 47.8411 30.4683C52.6812 30.4683 57.5076 32.2878 61.1927 35.9267C68.5491 43.191 68.5491 55.0312 61.1927 62.2955C53.8362 69.5598 41.8597 69.5598 34.4895 62.2955ZM82.3819 83.2058C81.0619 84.5093 78.9168 84.5093 77.6106 83.2058L64.9052 70.6596C64.094 69.8585 63.7502 68.6908 64.0115 67.5638C64.094 67.2243 63.984 66.8713 63.7365 66.6269L61.7152 64.6309C61.7427 64.6038 61.7564 64.5766 61.7702 64.5495C62.0727 64.2779 62.3889 64.0335 62.6777 63.7348C62.9664 63.4496 63.214 63.1509 63.489 62.8522C63.5165 62.825 63.5577 62.8115 63.5715 62.7843L65.5928 64.7803C65.8403 65.0247 66.1978 65.1333 66.5415 65.0518C67.6828 64.7939 68.8516 65.1333 69.6766 65.9344L82.3819 78.4942C83.0145 79.1188 83.372 79.9606 83.372 80.8568C83.372 81.7394 83.0145 82.5812 82.3819 83.2058Z" fill="#AAAAAA"/>
<path d="M53.8371 43.1918C53.4383 42.798 52.7783 42.798 52.3795 43.1918L47.8557 47.659L43.3318 43.1918C42.933 42.798 42.273 42.798 41.8743 43.1918C41.4755 43.5856 41.4755 44.2373 41.8743 44.6311L46.3981 49.1119L41.8743 53.5791C41.4755 53.9728 41.4755 54.6246 41.8743 55.0184C42.0805 55.222 42.3418 55.3171 42.603 55.3171C42.8643 55.3171 43.1255 55.222 43.3318 55.0184L47.8557 50.5512L52.3795 55.0184C52.5858 55.222 52.847 55.3171 53.1083 55.3171C53.3695 55.3171 53.6308 55.222 53.8371 55.0184C54.2358 54.6246 54.2358 53.9728 53.8371 53.5791L49.3132 49.1119L53.8371 44.6311C54.2358 44.2373 54.2358 43.5992 53.8371 43.1918Z" fill="#AAAAAA"/>
<path d="M37.6114 8.07969H63.6683C64.232 8.07969 64.6995 7.61803 64.6995 7.06133C64.6995 6.50463 64.232 6.04297 63.6683 6.04297H37.6114C37.0476 6.04297 36.5801 6.50463 36.5801 7.06133C36.5801 7.61803 37.0476 8.07969 37.6114 8.07969Z" fill="#AAAAAA"/>
<path d="M63.6821 11.4326H37.5977C37.0339 11.4326 36.5664 11.8943 36.5664 12.451C36.5664 13.0077 37.0339 13.4693 37.5977 13.4693H63.6821C64.2459 13.4693 64.7134 13.0077 64.7134 12.451C64.7134 11.8943 64.2459 11.4326 63.6821 11.4326Z" fill="#AAAAAA"/>
<path d="M63.6837 16.8779H49.9883C49.4245 16.8779 48.957 17.3396 48.957 17.8963C48.957 18.453 49.4245 18.9147 49.9883 18.9147H63.6837C64.2474 18.9147 64.7149 18.453 64.7149 17.8963C64.7149 17.3396 64.2474 16.8779 63.6837 16.8779Z" fill="#AAAAAA"/>
<path d="M63.6837 22.3096H49.9883C49.4245 22.3096 48.957 22.7712 48.957 23.3279C48.957 23.8846 49.4245 24.3463 49.9883 24.3463H63.6837C64.2474 24.3463 64.7149 23.8846 64.7149 23.3279C64.7149 22.7712 64.2474 22.3096 63.6837 22.3096Z" fill="#AAAAAA"/>
<path d="M66.9551 78.8754H22.3077V75.508H61.4825C62.0462 75.508 62.5137 75.0464 62.5137 74.4897C62.5137 73.933 62.0462 73.4713 61.4825 73.4713H16.8213V15.9272H29.8567C30.4204 15.9272 30.8879 15.4655 30.8879 14.9088V2.03672H70.3789V60.9659C70.3789 61.5226 70.8464 61.9842 71.4102 61.9842C71.974 61.9842 72.4415 61.5226 72.4415 60.9659V7.44082H75.8516V65.8676C75.8516 66.4243 76.3191 66.8859 76.8828 66.8859C77.4466 66.8859 77.9141 66.4243 77.9141 65.8676V6.42246C77.9141 5.86576 77.4466 5.4041 76.8828 5.4041H72.4415V1.01836C72.4415 0.461657 71.974 0 71.4102 0H29.8704C29.5954 0 29.3342 0.108625 29.1416 0.298719L15.0613 14.1892C14.8688 14.3793 14.7588 14.6372 14.7588 14.9088V74.4761C14.7588 75.0328 15.2263 75.4945 15.7901 75.4945H20.2314V79.8802C20.2314 80.4369 20.6989 80.8986 21.2627 80.8986H66.9413C67.5051 80.8986 67.9726 80.4369 67.9726 79.8802C67.9726 79.3235 67.5189 78.8754 66.9551 78.8754ZM28.8391 3.476V13.8904H18.2789L28.8391 3.476Z" fill="#AAAAAA"/>
<path d="M93.2076 95.6896C93.2076 98.0703 73.9093 100 50.1038 100C26.2983 100 7 98.0703 7 95.6896C7 93.3089 26.2983 91.3792 50.1038 91.3792C73.9093 91.3792 93.2076 93.3089 93.2076 95.6896Z" fill="#F7F7F7"/>
</svg>
