<svg width="30" height="21" viewBox="0 0 30 21" fill="none" xmlns="http://www.w3.org/2000/svg">
<g id="Group 2189">
<g id="Group">
<path id="Vector" d="M27 21H3C1.35 21 0 19.65 0 18V15C0 14.1 0.6 13.5 1.5 13.5C2.4 13.5 3 14.1 3 15V18H27V12H16.5C15.6 12 15 11.4 15 10.5C15 9.6 15.6 9 16.5 9H27C28.65 9 30 10.35 30 12V18C30 19.65 28.65 21 27 21Z" fill="#B6B6B7"/>
</g>
<g id="Group_2">
<path id="Vector_2" d="M12 7.5H3C2.1 7.5 1.5 6.9 1.5 6C1.5 5.1 2.1 4.5 3 4.5H12C12.9 4.5 13.5 5.1 13.5 6C13.5 6.9 12.9 7.5 12 7.5Z" fill="#B6B6B7"/>
</g>
<g id="Group_3">
<path id="Vector_3" d="M7.5 12C6.6 12 6 11.4 6 10.5V1.5C6 0.6 6.6 0 7.5 0C8.4 0 9 0.6 9 1.5V10.5C9 11.4 8.4 12 7.5 12Z" fill="#B6B6B7"/>
</g>
</g>
</svg>
