<svg width="16" height="15" viewBox="0 0 16 15" fill="none" xmlns="http://www.w3.org/2000/svg">
<path d="M14.2857 3.46154H13.1429V1.73077C13.1429 1.27174 12.9622 0.831513 12.6408 0.506931C12.3193 0.182348 11.8832 0 11.4286 0H1.71429C1.25963 0 0.823594 0.182348 0.502103 0.506931C0.180612 0.831513 0 1.27174 0 1.73077V13.2692C0 13.7283 0.180612 14.1685 0.502103 14.4931C0.823594 14.8177 1.25963 15 1.71429 15H14C14.5304 15 15.0391 14.7873 15.4142 14.4086C15.7893 14.0299 16 13.5163 16 12.9808V5.19231C16 4.73328 15.8194 4.29305 15.4979 3.96847C15.1764 3.64389 14.7404 3.46154 14.2857 3.46154ZM1.14286 13.2692V1.73077C1.14286 1.57776 1.20306 1.43102 1.31022 1.32282C1.41739 1.21463 1.56273 1.15385 1.71429 1.15385H11.4286C11.5801 1.15385 11.7255 1.21463 11.8326 1.32282C11.9398 1.43102 12 1.57776 12 1.73077V12.9808C12.0012 13.2808 12.0696 13.5766 12.2 13.8462H1.71429C1.56273 13.8462 1.41739 13.7854 1.31022 13.6772C1.20306 13.569 1.14286 13.4222 1.14286 13.2692ZM14.8571 12.9808C14.8571 13.2103 14.7668 13.4304 14.6061 13.5927C14.4453 13.755 14.2273 13.8462 14 13.8462C13.7727 13.8462 13.5547 13.755 13.3939 13.5927C13.2332 13.4304 13.1429 13.2103 13.1429 12.9808V4.61538H14.2857C14.4373 4.61538 14.5826 4.67617 14.6898 4.78436C14.7969 4.89256 14.8571 5.0393 14.8571 5.19231V12.9808Z" fill="#10A37F"/>
<path d="M10.2857 4.03906H4.57143C4.41988 4.03906 4.27453 4.09985 4.16737 4.20804C4.0602 4.31623 4 4.46298 4 4.61599C4 4.769 4.0602 4.91574 4.16737 5.02393C4.27453 5.13213 4.41988 5.19291 4.57143 5.19291H10.2857C10.4373 5.19291 10.5826 5.13213 10.6898 5.02393C10.7969 4.91574 10.8571 4.769 10.8571 4.61599C10.8571 4.46298 10.7969 4.31623 10.6898 4.20804C10.5826 4.09985 10.4373 4.03906 10.2857 4.03906Z" fill="#10A37F"/>
<path d="M10.2858 6.92188H2.8572C2.70564 6.92188 2.5603 6.98266 2.45313 7.09085C2.34597 7.19905 2.28577 7.34579 2.28577 7.4988C2.28577 7.65181 2.34597 7.79855 2.45313 7.90674C2.5603 8.01494 2.70564 8.07572 2.8572 8.07572H10.2858C10.4373 8.07572 10.5827 8.01494 10.6898 7.90674C10.797 7.79855 10.8572 7.65181 10.8572 7.4988C10.8572 7.34579 10.797 7.19905 10.6898 7.09085C10.5827 6.98266 10.4373 6.92188 10.2858 6.92188Z" fill="#10A37F"/>
<path d="M10.2858 9.80859H2.8572C2.70564 9.80859 2.5603 9.86938 2.45313 9.97757C2.34597 10.0858 2.28577 10.2325 2.28577 10.3855C2.28577 10.5385 2.34597 10.6853 2.45313 10.7935C2.5603 10.9017 2.70564 10.9624 2.8572 10.9624H10.2858C10.4373 10.9624 10.5827 10.9017 10.6898 10.7935C10.797 10.6853 10.8572 10.5385 10.8572 10.3855C10.8572 10.2325 10.797 10.0858 10.6898 9.97757C10.5827 9.86938 10.4373 9.80859 10.2858 9.80859Z" fill="#10A37F"/>
</svg>
