<svg xmlns="http://www.w3.org/2000/svg" xmlns:xlink="http://www.w3.org/1999/xlink" width="20" height="20" viewBox="0 0 20 20">
  <defs>
    <clipPath id="clip-path">
      <rect id="Rectangle_3273" data-name="Rectangle 3273" width="20" height="20" fill="#fff" stroke="#333" stroke-width="1.2"/>
    </clipPath>
  </defs>
  <g id="Mask_Group_9" data-name="Mask Group 9" clip-path="url(#clip-path)">
    <path id="bell-alt-svgrepo-com" d="M12,5a5.76,5.76,0,0,1,3.818,1.406A4.546,4.546,0,0,1,17.4,9.8a9.488,9.488,0,0,0,1.022,4.528,11.513,11.513,0,0,1,1.086,2.236.386.386,0,0,1-.206.343A8.223,8.223,0,0,1,17.23,17H6.77A8.223,8.223,0,0,1,4.7,16.906a.386.386,0,0,1-.206-.343,11.511,11.511,0,0,1,1.086-2.236A9.488,9.488,0,0,0,6.6,9.8,4.546,4.546,0,0,1,8.182,6.405,5.76,5.76,0,0,1,12,5Zm0,0V3M9.354,20a4.006,4.006,0,0,0,5.3,0" transform="translate(-2 -2)" fill="none" stroke="#333" stroke-linecap="round" stroke-linejoin="round" stroke-width="1.2"/>
  </g>
</svg>
