<svg width="16" height="16" viewBox="0 0 16 16" fill="none" xmlns="http://www.w3.org/2000/svg">
<mask id="mask0_181_1034" style="mask-type:luminance" maskUnits="userSpaceOnUse" x="0" y="0" width="16" height="16">
<path d="M16 0H0V16H16V0Z" fill="white"/>
</mask>
<g mask="url(#mask0_181_1034)">
<path d="M0.952665 9.78233C0.90789 10.237 1.02566 10.6927 1.28508 11.0688C1.54449 11.4448 1.92876 11.7168 2.36966 11.8363C6.00559 13.1717 9.99774 13.1717 13.6337 11.8363C14.0744 11.7166 14.4584 11.4445 14.7176 11.0685C14.9769 10.6925 15.0945 10.2368 15.0497 9.78233C14.8648 9.17361 14.5456 8.61417 14.1157 8.14533C13.7162 7.49617 13.5363 6.73566 13.6027 5.97633C13.5779 4.51553 12.9742 3.12433 11.9241 2.10855C10.874 1.09276 9.46348 0.535522 8.00266 0.559326C6.54185 0.535522 5.13137 1.09276 4.08127 2.10855C3.03117 3.12433 2.42739 4.51553 2.40266 5.97633C2.46902 6.73566 2.28915 7.49617 1.88966 8.14533C1.45863 8.6139 1.13841 9.17335 0.952665 9.78233Z" stroke="#000000" stroke-width="1.116" stroke-linecap="round" stroke-linejoin="round"/>
<path d="M5.76953 14.6982C6.4136 15.1813 7.19696 15.4424 8.00203 15.4424C8.8071 15.4424 9.59046 15.1813 10.2345 14.6982" stroke="#000000" stroke-width="1.116" stroke-linecap="round" stroke-linejoin="round"/>
</g>
</svg>
