<svg width="18" height="18" viewBox="0 0 18 18" fill="none" xmlns="http://www.w3.org/2000/svg">
<path d="M15.0403 0H2.95973C1.32765 0 0 1.32765 0 2.95973V15.0403C0 16.6723 1.32765 18 2.95973 18H15.0403C16.6723 18 18 16.6723 18 15.0403V2.95973C18 1.32765 16.6723 0 15.0403 0ZM2.95973 1.08725H15.0403C16.0725 1.08725 16.9128 1.92745 16.9128 2.95973V5.13423H1.08725V2.95973C1.08725 1.92745 1.92745 1.08725 2.95973 1.08725ZM15.0403 16.9128H2.95973C1.92745 16.9128 1.08725 16.0725 1.08725 15.0403V6.22148H16.9128V15.0403C16.9128 16.0725 16.0725 16.9128 15.0403 16.9128Z" fill="#E0F6FE"/>
<path d="M3.53972 3.65365H4.57019C4.87039 3.65365 5.11381 3.41023 5.11381 3.11003C5.11381 2.80983 4.87039 2.56641 4.57019 2.56641H3.53972C3.23952 2.56641 2.99609 2.80983 2.99609 3.11003C2.99609 3.41023 3.23952 3.65365 3.53972 3.65365Z" fill="#E0F6FE"/>
<path d="M6.95183 3.65365H14.4605C14.7607 3.65365 15.0041 3.41023 15.0041 3.11003C15.0041 2.80983 14.7607 2.56641 14.4605 2.56641H6.95183C6.65163 2.56641 6.4082 2.80983 6.4082 3.11003C6.4082 3.41023 6.65163 3.65365 6.95183 3.65365Z" fill="#E0F6FE"/>
<path d="M12.9333 9.91133L9.60392 7.97663C9.23184 7.76039 8.76855 7.76039 8.39647 7.97663L5.06647 9.91133C4.83996 10.043 4.69922 10.2882 4.69922 10.5504C4.69922 10.8125 4.83996 11.0572 5.06647 11.1895L5.92841 11.6902V13.2009C5.92841 13.6231 6.15553 14.0163 6.52157 14.2271L7.91143 15.028C8.24727 15.2213 8.62358 15.318 9.00049 15.318C9.37741 15.318 9.75372 15.2213 10.0896 15.028L11.4794 14.2271C11.8449 14.0163 12.072 13.6231 12.072 13.2009V11.6902L12.9339 11.1895C13.1604 11.0578 13.3012 10.8125 13.3012 10.5504C13.3012 10.2882 13.1604 10.043 12.9333 9.91133ZM8.94251 8.9165C8.97814 8.89657 9.02163 8.89657 9.05667 8.9165L11.8678 10.5498L9.05667 12.1831C9.02163 12.203 8.97754 12.2036 8.9419 12.1831L6.13076 10.5498L8.94251 8.9165ZM10.9847 13.2003C10.9847 13.2353 10.966 13.2673 10.9358 13.2848L9.54593 14.0858C9.20828 14.2797 8.79029 14.2797 8.45325 14.0858L7.06398 13.2848C7.03378 13.2673 7.01506 13.2353 7.01506 13.2003V12.3214L8.39586 13.1229C8.58251 13.2317 8.7909 13.2854 8.99989 13.2854C9.20888 13.2854 9.41727 13.2317 9.60392 13.1229L10.9847 12.3208V13.2003Z" fill="#E0F6FE"/>
</svg>
