<svg width="16" height="18" viewBox="0 0 16 18" fill="none" xmlns="http://www.w3.org/2000/svg">
<path d="M14.949 7.5282C15.1304 6.98203 15.1931 6.40344 15.133 5.83109C15.0729 5.25875 14.8914 4.70581 14.6005 4.20923C14.1693 3.45865 13.5108 2.8644 12.7201 2.51215C11.9294 2.15989 11.0473 2.06785 10.2008 2.24927C9.71998 1.71438 9.10684 1.31543 8.42299 1.09249C7.73915 0.869558 7.00868 0.830485 6.30496 0.979198C5.60124 1.12791 4.94904 1.45918 4.41385 1.93972C3.87867 2.42026 3.47936 3.03317 3.25601 3.71688C2.69213 3.83251 2.15942 4.06716 1.69349 4.40516C1.22755 4.74315 0.839126 5.17671 0.554168 5.67684C0.118269 6.42617 -0.0680321 7.29471 0.0222005 8.1569C0.112433 9.01908 0.474523 9.83023 1.05612 10.4731C0.874092 11.019 0.810737 11.5975 0.870296 12.1698C0.929856 12.7422 1.11096 13.2952 1.40148 13.792C1.83324 14.5428 2.49225 15.1372 3.28353 15.4895C4.07481 15.8417 4.95749 15.9337 5.80437 15.752C6.1864 16.1822 6.65582 16.526 7.18129 16.7603C7.70675 16.9947 8.27616 17.1142 8.85151 17.111C9.71905 17.1118 10.5644 16.8369 11.2656 16.326C11.9667 15.8151 12.4874 15.0946 12.7524 14.2685C13.3162 14.1527 13.8488 13.9179 14.3147 13.58C14.7806 13.242 15.1691 12.8085 15.4542 12.3085C15.885 11.5603 16.0681 10.695 15.9773 9.83639C15.8866 8.97782 15.5267 8.16986 14.949 7.5282ZM8.85151 16.0494C8.141 16.0505 7.45277 15.8015 6.9075 15.346L7.0034 15.2916L10.2328 13.4275C10.3132 13.3803 10.3799 13.3131 10.4265 13.2324C10.473 13.1517 10.4977 13.0602 10.4982 12.967V8.4139L11.8634 9.2037C11.8702 9.20712 11.876 9.21208 11.8805 9.21819C11.885 9.2243 11.8879 9.23137 11.8891 9.23884V13.0118C11.8874 13.8169 11.5668 14.5886 10.9975 15.1578C10.4282 15.7271 9.6566 16.0477 8.85151 16.0494ZM2.32233 13.2612C1.966 12.6459 1.83806 11.9247 1.96102 11.2244L2.05699 11.282L5.28958 13.1461C5.36956 13.1931 5.46062 13.2178 5.55336 13.2178C5.6461 13.2178 5.73716 13.1931 5.81715 13.1461L9.766 10.8695V12.4459C9.76563 12.4541 9.76342 12.462 9.75953 12.4692C9.75565 12.4764 9.75019 12.4827 9.74356 12.4874L6.47259 14.3739C5.77452 14.7761 4.9454 14.8848 4.16727 14.6762C3.38914 14.4675 2.72559 13.9586 2.32233 13.2612ZM1.47184 6.22685C1.83063 5.60761 2.39696 5.1353 3.07056 4.89353V8.73047C3.06934 8.82316 3.09303 8.91449 3.13914 8.99491C3.18526 9.07533 3.25211 9.1419 3.33272 9.18768L7.26238 11.4547L5.8971 12.2444C5.88971 12.2483 5.88147 12.2504 5.87311 12.2504C5.86474 12.2504 5.8565 12.2483 5.84911 12.2444L2.58456 10.3612C1.8878 9.95728 1.37948 9.29375 1.17093 8.51587C0.96237 7.73799 1.07057 6.90917 1.47184 6.2109V6.22685ZM12.6884 8.83279L8.74601 6.54342L10.1081 5.75673C10.1155 5.7528 10.1237 5.75075 10.1321 5.75075C10.1405 5.75075 10.1487 5.7528 10.1561 5.75673L13.4207 7.64323C13.9198 7.93124 14.3267 8.35531 14.5939 8.86591C14.8611 9.37652 14.9775 9.95259 14.9296 10.5269C14.8816 11.1012 14.6713 11.65 14.3232 12.1092C13.975 12.5684 13.5034 12.9192 12.9634 13.1205V9.28351C12.9606 9.19097 12.9338 9.10076 12.8855 9.02173C12.8373 8.9427 12.7694 8.87763 12.6884 8.83279ZM14.0474 6.78963L13.9514 6.73205L10.7252 4.85197C10.6448 4.80474 10.5531 4.77984 10.4598 4.77984C10.3665 4.77984 10.2749 4.80474 10.1944 4.85197L6.24888 7.1285V5.55222C6.24804 5.5442 6.24938 5.53611 6.25276 5.52879C6.25614 5.52148 6.26143 5.51521 6.26807 5.51065L9.53263 3.62733C10.033 3.33909 10.605 3.19927 11.1819 3.22422C11.7588 3.24917 12.3167 3.43787 12.7903 3.76823C13.2638 4.09859 13.6336 4.55697 13.8562 5.08975C14.0788 5.62253 14.1452 6.20769 14.0474 6.77679L14.0474 6.78963ZM5.50376 9.58406L4.13854 8.79751C4.13171 8.7934 4.12587 8.78783 4.12143 8.78121C4.11699 8.77459 4.11406 8.76707 4.11286 8.75919V4.99586C4.11361 4.41853 4.2787 3.85334 4.58882 3.36638C4.89895 2.87942 5.3413 2.49081 5.86415 2.24598C6.38699 2.00116 6.96873 1.91024 7.54135 1.98385C8.11397 2.05746 8.6538 2.29257 9.09772 2.66167L9.00175 2.71608L5.77241 4.58007C5.69203 4.62721 5.6253 4.69445 5.57877 4.77518C5.53223 4.85591 5.5075 4.94735 5.507 5.04053L5.50376 9.58406ZM6.24557 7.98541L8.00413 6.97177L9.766 7.98541V10.0126L8.01055 11.0261L6.24881 10.0126L6.24557 7.98541Z" fill="black"/>
</svg>
