<svg width="32" height="34" viewBox="0 0 32 34" fill="none" xmlns="http://www.w3.org/2000/svg">
<path d="M29.8981 14.0564C30.2608 12.9641 30.3862 11.8069 30.266 10.6622C30.1458 9.51749 29.7827 8.41163 29.201 7.41847C28.3386 5.9173 27.0217 4.7288 25.4403 4.02429C23.8588 3.31979 22.0945 3.13569 20.4017 3.49854C19.44 2.42875 18.2137 1.63086 16.846 1.18499C15.4783 0.739115 14.0174 0.660969 12.6099 0.958396C11.2025 1.25582 9.89807 1.91835 8.82771 2.87944C7.75735 3.84053 6.95872 5.06634 6.51203 6.43375C5.38426 6.66501 4.31884 7.13432 3.38697 7.81032C2.4551 8.48631 1.67825 9.35341 1.10834 10.3537C0.236537 11.8523 -0.136064 13.5894 0.044401 15.3138C0.224866 17.0382 0.949046 18.6605 2.11224 19.9462C1.74818 21.038 1.62147 22.1949 1.74059 23.3397C1.85971 24.4844 2.22191 25.5905 2.80296 26.5839C3.66648 28.0857 4.9845 29.2744 6.56705 29.9789C8.14961 30.6834 9.91498 30.8673 11.6087 30.504C12.3728 31.3644 13.3116 32.052 14.3626 32.5207C15.4135 32.9894 16.5523 33.2285 17.703 33.222C19.4381 33.2236 21.1288 32.6738 22.5311 31.652C23.9334 30.6302 24.9747 29.1892 25.5048 27.537C26.6324 27.3054 27.6977 26.8359 28.6295 26.1599C29.5613 25.4839 30.3382 24.617 30.9084 23.617C31.7699 22.1205 32.1361 20.3899 31.9547 18.6728C31.7732 16.9556 31.0533 15.3397 29.8981 14.0564ZM17.703 31.0988C16.282 31.101 14.9055 30.6029 13.815 29.6919L14.0068 29.5832L20.4656 25.855C20.6264 25.7607 20.7598 25.6262 20.8529 25.4648C20.946 25.3033 20.9954 25.1204 20.9964 24.9341V15.8278L23.7269 17.4074C23.7404 17.4142 23.7521 17.4242 23.761 17.4364C23.7699 17.4486 23.7758 17.4627 23.7782 17.4777V25.0237C23.7748 26.6339 23.1336 28.1771 21.9951 29.3157C20.8565 30.4542 19.3132 31.0954 17.703 31.0988ZM4.64465 25.5225C3.932 24.2919 3.67612 22.8494 3.92203 21.4488L4.11398 21.564L10.5792 25.2923C10.7391 25.3861 10.9212 25.4356 11.1067 25.4356C11.2922 25.4356 11.4743 25.3861 11.6343 25.2923L19.532 20.7391V23.8918C19.5313 23.9081 19.5268 23.9241 19.5191 23.9385C19.5113 23.9529 19.5004 23.9653 19.4871 23.9749L12.9452 27.7479C11.549 28.5522 9.8908 28.7696 8.33454 28.3523C6.77827 27.9351 5.45119 26.9173 4.64465 25.5225ZM2.94367 11.4537C3.66127 10.2152 4.79392 9.27061 6.14112 8.78706V16.4609C6.13869 16.6463 6.18606 16.829 6.27829 16.9898C6.37051 17.1507 6.50422 17.2838 6.66544 17.3754L14.5248 21.9094L11.7942 23.4888C11.7794 23.4967 11.7629 23.5008 11.7462 23.5008C11.7295 23.5008 11.713 23.4967 11.6982 23.4888L5.16911 19.7223C3.77559 18.9146 2.75896 17.5875 2.34185 16.0317C1.92474 14.476 2.14114 12.8183 2.94367 11.4218V11.4537ZM25.3769 16.6656L17.492 12.0868L20.2162 10.5135C20.231 10.5056 20.2475 10.5015 20.2642 10.5015C20.281 10.5015 20.2974 10.5056 20.3122 10.5135L26.8413 14.2865C27.8396 14.8625 28.6535 15.7106 29.1878 16.7318C29.7222 17.753 29.955 18.9052 29.8591 20.0538C29.7633 21.2023 29.3426 22.2999 28.6463 23.2184C27.9501 24.1369 27.0069 24.8384 25.9269 25.2409V17.567C25.9212 17.3819 25.8675 17.2015 25.7711 17.0435C25.6746 16.8854 25.5389 16.7553 25.3769 16.6656ZM28.0948 12.5793L27.9028 12.4641L21.4505 8.70393C21.2895 8.60948 21.1063 8.55969 20.9197 8.55969C20.733 8.55969 20.5498 8.60948 20.3888 8.70393L12.4978 13.257V10.1044C12.4961 10.0884 12.4988 10.0722 12.5055 10.0576C12.5123 10.043 12.5229 10.0304 12.5361 10.0213L19.0653 6.25465C20.0659 5.67818 21.2101 5.39854 22.3638 5.44844C23.5176 5.49835 24.6333 5.87573 25.5805 6.53646C26.5277 7.19719 27.2671 8.11394 27.7124 9.1795C28.1577 10.2451 28.2903 11.4154 28.0949 12.5536L28.0948 12.5793ZM11.0075 18.1681L8.27708 16.595C8.26342 16.5868 8.25173 16.5757 8.24286 16.5624C8.23398 16.5492 8.22813 16.5341 8.22571 16.5184V8.99171C8.22721 7.83705 8.55739 6.70668 9.17765 5.73276C9.7979 4.75884 10.6826 3.98162 11.7283 3.49197C12.774 3.00232 13.9375 2.82047 15.0827 2.9677C16.2279 3.11492 17.3076 3.58513 18.1954 4.32335L18.0035 4.43216L11.5448 8.16015C11.3841 8.25442 11.2506 8.3889 11.1575 8.55036C11.0645 8.71181 11.015 8.8947 11.014 9.08106L11.0075 18.1681ZM12.4911 14.9708L16.0083 12.9435L19.532 14.9708V19.0251L16.0211 21.0523L12.4976 19.0251L12.4911 14.9708Z" fill="#717171"/>
</svg>
