<svg width="10" height="2" viewBox="0 0 10 2" fill="none" xmlns="http://www.w3.org/2000/svg">
<g id="Group 799">
<g id="Group">
<g id="Group_2">
<path id="Vector" d="M1 2C1.55228 2 2 1.55228 2 1C2 0.447715 1.55228 0 1 0C0.447715 0 0 0.447715 0 1C0 1.55228 0.447715 2 1 2Z" fill="#09ABD8"/>
</g>
</g>
<g id="Group_3">
<g id="Group_4">
<path id="Vector_2" d="M5 2C5.55228 2 6 1.55228 6 1C6 0.447715 5.55228 0 5 0C4.44772 0 4 0.447715 4 1C4 1.55228 4.44772 2 5 2Z" fill="#09ABD8"/>
</g>
</g>
<g id="Group_5">
<g id="Group_6">
<path id="Vector_3" d="M9 2C9.55228 2 10 1.55228 10 1C10 0.447715 9.55228 0 9 0C8.44772 0 8 0.447715 8 1C8 1.55228 8.44772 2 9 2Z" fill="#09ABD8"/>
</g>
</g>
</g>
</svg>
