<svg width="12" height="12" viewBox="0 0 12 12" fill="none" xmlns="http://www.w3.org/2000/svg">
<path fill-rule="evenodd" clip-rule="evenodd" d="M6 0C2.69063 0 0 2.69063 0 6C0 9.30937 2.69063 12 6 12C9.30937 12 12 9.30937 12 6C12 2.69063 9.30937 0 6 0Z" fill="#4BAE4F"/>
<path fill-rule="evenodd" clip-rule="evenodd" d="M8.90137 3.97793C9.04668 4.12324 9.04668 4.3623 8.90137 4.50762L5.38574 8.02324C5.31309 8.0959 5.21699 8.1334 5.1209 8.1334C5.0248 8.1334 4.92871 8.0959 4.85605 8.02324L3.09824 6.26543C2.95293 6.12012 2.95293 5.88105 3.09824 5.73574C3.24355 5.59043 3.48262 5.59043 3.62793 5.73574L5.1209 7.22871L8.37168 3.97793C8.51699 3.83027 8.75605 3.83027 8.90137 3.97793Z" fill="white"/>
</svg>
