<svg width="104" height="104" viewBox="0 0 104 104" fill="none" xmlns="http://www.w3.org/2000/svg">
<path d="M2 59.1395V31.9922H102V59.1395C102 79.3458 102 89.4489 95.4915 95.7259C88.9825 102.003 78.507 102.003 57.5555 102.003H46.4445C25.4931 102.003 15.0175 102.003 8.50875 95.7259C2 89.4489 2 79.3458 2 59.1395Z" stroke="#B4B4B4" stroke-width="3.5" stroke-linecap="round" stroke-linejoin="round"/>
<path d="M2 32.0048L6.8077 20.4645C10.5363 11.5144 12.4006 7.03931 16.1795 4.51965C19.9583 2 24.8056 2 34.5 2H69.5C79.1945 2 84.0415 2 87.8205 4.51965C91.5995 7.03931 93.4635 11.5144 97.1925 20.4645L102 32.0048" stroke="#B4B4B4" stroke-width="3.5" stroke-linecap="round"/>
<path d="M52 32.0048V2" stroke="#B4B4B4" stroke-width="3.5" stroke-linecap="round"/>
<path d="M41.9995 52.0078H61.9995" stroke="#B4B4B4" stroke-width="3.5" stroke-linecap="round"/>
</svg>
