<svg width="16" height="13" viewBox="0 0 16 13" fill="none" xmlns="http://www.w3.org/2000/svg">
<path d="M13.1219 9.25313H13.1596L13.1699 9.21688L15.0481 2.65438L15.0663 2.59063H15H4.48572L4.32149 1.92364L4.30923 1.87388L4.30791 1.87424C4.15323 1.34105 3.66072 0.95 3.07812 0.95H2.23047C1.52437 0.95 0.95 1.52437 0.95 2.23047V2.28047H1H1.82031H1.87031V2.23047C1.87031 2.03192 2.03192 1.87031 2.23047 1.87031H3.07812C3.27667 1.87031 3.43828 2.03192 3.43828 2.23047V2.28047H3.46157L4.98323 8.46022C4.555 8.66744 4.25859 9.10615 4.25859 9.61328C4.25859 10.3194 4.83297 10.8938 5.53906 10.8938H5.95102C5.9174 11.0081 5.89922 11.1289 5.89922 11.2539C5.89922 11.96 6.47359 12.5344 7.17969 12.5344C7.88578 12.5344 8.46016 11.96 8.46016 11.2539C8.46016 11.1289 8.44198 11.0081 8.40836 10.8938H10.8729C10.8393 11.0081 10.8211 11.1289 10.8211 11.2539C10.8211 11.96 11.3955 12.5344 12.1016 12.5344C12.8077 12.5344 13.3821 11.96 13.3821 11.2539C13.3821 10.5478 12.8077 9.97344 12.1016 9.97344H5.53906C5.34052 9.97344 5.17891 9.81183 5.17891 9.61328C5.17891 9.41474 5.34052 9.25313 5.53906 9.25313H13.1219ZM4.71236 3.51094H13.8462L12.4654 8.33281H5.89967L4.71236 3.51094ZM7.53984 11.2539C7.53984 11.4525 7.37823 11.6141 7.17969 11.6141C6.98114 11.6141 6.81953 11.4525 6.81953 11.2539C6.81953 11.0554 6.98114 10.8938 7.17969 10.8938C7.37823 10.8938 7.53984 11.0554 7.53984 11.2539ZM12.1016 11.6141C11.903 11.6141 11.7414 11.4525 11.7414 11.2539C11.7414 11.0554 11.903 10.8938 12.1016 10.8938C12.3001 10.8938 12.4617 11.0554 12.4617 11.2539C12.4617 11.4525 12.3001 11.6141 12.1016 11.6141Z" fill="#112D55" stroke="#112D55" stroke-width="0.1"/>
</svg>
