<svg width="13" height="16" viewBox="0 0 13 16" fill="none" xmlns="http://www.w3.org/2000/svg">
<path d="M12.9586 3.8L12.9232 3.73143C12.9232 3.73143 12.9232 3.68 12.8818 3.65714L10.1932 0.228571C10.1381 0.157602 10.0668 0.1 9.98472 0.0603273C9.90267 0.0206543 9.81219 0 9.72045 0H1.77273C1.30257 0 0.851671 0.180612 0.51922 0.502103C0.186769 0.823594 0 1.25963 0 1.71429V14.2857C0 14.7404 0.186769 15.1764 0.51922 15.4979C0.851671 15.8194 1.30257 16 1.77273 16H11.2273C11.6974 16 12.1483 15.8194 12.4808 15.4979C12.8132 15.1764 13 14.7404 13 14.2857V4C12.9987 3.93147 12.9847 3.86373 12.9586 3.8ZM11.2273 3.42857H10.0455V1.93143L11.2273 3.42857ZM11.2273 14.8571H1.77273C1.61601 14.8571 1.46571 14.7969 1.35489 14.6898C1.24407 14.5826 1.18182 14.4373 1.18182 14.2857V1.71429C1.18182 1.56273 1.24407 1.41739 1.35489 1.31022C1.46571 1.20306 1.61601 1.14286 1.77273 1.14286H8.86364V3.42857C8.86364 3.73168 8.98815 4.02237 9.20978 4.23669C9.43142 4.45102 9.73202 4.57143 10.0455 4.57143H11.8182V14.2857C11.8182 14.4373 11.7559 14.5826 11.6451 14.6898C11.5343 14.7969 11.384 14.8571 11.2273 14.8571Z" fill="#EEBC36"/>
</svg>
