<svg width="100" height="100" viewBox="0 0 100 100" fill="none" xmlns="http://www.w3.org/2000/svg">
<path d="M17.9396 48.0078C16.4355 48.0078 15.2148 49.2285 15.2148 50.7325C15.2148 52.2366 16.4355 53.4573 17.9396 53.4573H37.0889C38.593 53.4573 39.8136 52.2366 39.8136 50.7325C39.8136 49.2285 38.593 48.0078 37.0889 48.0078H17.9396Z" fill="#F44336"/>
<path d="M100 49.4486C99.9591 46.4923 99.8801 43.7785 99.7493 41.2717C99.7493 41.2608 99.7493 41.2526 99.7493 41.2417C99.7493 41.1327 99.7412 41.0265 99.7275 40.9202C99.0518 28.7026 96.9892 21.6973 90.8041 17.662C83.6544 13 71.701 13 49.9986 13C28.2962 13 16.3456 13 9.19593 17.662C3.00809 21.6973 0.945478 28.7026 0.272472 40.9202C0.258849 41.0265 0.250676 41.1327 0.250676 41.2417V41.2717C0.119889 43.7757 0.0408708 46.4896 0 49.4459V51.296V51.3341C0.250674 68.9712 1.68933 78.2271 9.19321 83.1207C16.3429 87.7827 28.2962 87.7827 49.9986 87.7827C53.8786 87.7827 57.5434 87.7827 60.8567 87.7555C62.3607 87.7418 63.5705 86.513 63.5596 85.0089C63.546 83.5103 62.3307 82.306 60.8349 82.306H60.8131C57.5189 82.3333 53.8677 82.3333 49.9986 82.3333C30.0237 82.3333 17.9641 82.3333 12.1713 78.5541C7.27228 75.3607 5.70284 68.9849 5.44944 51.2742V49.5031C5.47669 47.5168 5.52301 45.6749 5.5884 43.9637H94.4116C94.477 45.6749 94.5206 47.5168 94.5506 49.5031V51.296C94.5506 52.8 95.7712 54.0207 97.2753 54.0207C98.7793 54.0207 100 52.8 100 51.296V49.4459V49.4486ZM5.8963 38.517C6.66194 28.896 8.46298 24.6482 12.1741 22.2259C17.9668 18.4467 30.0264 18.4467 50.0014 18.4467C69.9763 18.4467 82.0359 18.4467 87.8287 22.2259C91.5397 24.6455 93.3408 28.8933 94.1064 38.517H5.8963Z" fill="#F44336"/>
<path d="M97.703 60.7345C96.6376 59.6718 94.9129 59.6718 93.8502 60.7345L84.6734 69.9113L75.4965 60.7345C74.4311 59.6718 72.7064 59.6718 71.6438 60.7345C70.5784 61.7998 70.5784 63.5246 71.6438 64.5872L80.8206 73.7641L71.6438 82.941C70.5784 84.0063 70.5784 85.7311 71.6438 86.7937C72.1751 87.325 72.8726 87.5921 73.5701 87.5921C74.2677 87.5921 74.9652 87.325 75.4965 86.7937L84.6734 77.6169L93.8502 86.7937C94.3816 87.325 95.0791 87.5921 95.7766 87.5921C96.4741 87.5921 97.1717 87.325 97.703 86.7937C98.7684 85.7284 98.7684 84.0036 97.703 82.941L88.5261 73.7641L97.703 64.5872C98.7684 63.5219 98.7684 61.7971 97.703 60.7345Z" fill="#F44336"/>
</svg>
