<svg width="100" height="100" viewBox="0 0 100 100" fill="none" xmlns="http://www.w3.org/2000/svg">
<path d="M59.2676 72.7324C58.291 71.7559 56.709 71.7559 55.7324 72.7324C54.7559 73.709 54.7559 75.291 55.7324 76.2676L70.7324 91.2676C71.2207 91.7559 71.8604 92 72.5 92C73.1396 92 73.7793 91.7559 74.2676 91.2676L99.2676 66.2676C100.244 65.291 100.244 63.709 99.2676 62.7324C98.291 61.7559 96.709 61.7559 95.7324 62.7324L72.5 85.9648L59.2676 72.7324Z" fill="#4BB729"/>
<path d="M12.5 77H47.5C48.8818 77 50 75.8818 50 74.5C50 73.1182 48.8818 72 47.5 72H12.5C8.36426 72 5 68.6357 5 64.5V37H90V54.5C90 55.8818 91.1182 57 92.5 57C93.8818 57 95 55.8818 95 54.5V19.5C95 12.608 89.392 7 82.5 7H12.5C5.60801 7 0 12.608 0 19.5V64.5C0 71.392 5.60801 77 12.5 77ZM12.5 12H82.5C86.6357 12 90 15.3643 90 19.5V32H5V19.5C5 15.3643 8.36426 12 12.5 12Z" fill="#4BB729"/>
<path d="M22.5 52C21.1182 52 20 53.1182 20 54.5C20 55.8818 21.1182 57 22.5 57H32.5C33.8818 57 35 55.8818 35 54.5C35 53.1182 33.8818 52 32.5 52H22.5Z" fill="#4BB729"/>
</svg>
