<svg width="548" height="162" viewBox="0 0 548 162" fill="none" xmlns="http://www.w3.org/2000/svg">
<path fill-rule="evenodd" clip-rule="evenodd" d="M177.817 98.874C177.817 100.34 177.977 101.529 178.256 102.4C178.576 103.272 178.975 104.223 179.533 105.253C179.733 105.57 179.813 105.887 179.813 106.165C179.813 106.561 179.573 106.957 179.055 107.353L176.54 109.017C176.181 109.255 175.822 109.374 175.503 109.374C175.103 109.374 174.704 109.176 174.305 108.819C173.746 108.225 173.268 107.591 172.868 106.957C172.469 106.283 172.07 105.531 171.631 104.619C168.518 108.265 164.607 110.087 159.897 110.087C156.545 110.087 153.871 109.136 151.915 107.234C149.96 105.332 148.962 102.796 148.962 99.6266C148.962 96.2585 150.159 93.5248 152.594 91.4643C155.029 89.4039 158.261 88.3739 162.372 88.3739C163.729 88.3739 165.126 88.4926 166.603 88.6909C168.079 88.8889 169.596 89.2059 171.192 89.5626V86.6702C171.192 83.6587 170.554 81.559 169.316 80.3306C168.039 79.1022 165.884 78.5079 162.811 78.5079C161.414 78.5079 159.977 78.6662 158.5 79.0229C157.024 79.3796 155.587 79.8153 154.19 80.3699C153.552 80.6473 153.073 80.8056 152.793 80.885C152.514 80.9643 152.315 81.0036 152.155 81.0036C151.596 81.0036 151.317 80.6073 151.317 79.7752V77.8338C151.317 77.1998 151.397 76.7245 151.596 76.4471C151.795 76.1698 152.155 75.8924 152.713 75.6151C154.11 74.9017 155.787 74.3074 157.742 73.832C159.698 73.317 161.773 73.0793 163.969 73.0793C168.718 73.0793 172.19 74.149 174.425 76.2888C176.62 78.4285 177.738 81.6773 177.738 86.0358V98.8736H177.818L177.817 98.874ZM161.613 104.897C162.931 104.897 164.287 104.659 165.724 104.183C167.161 103.708 168.438 102.836 169.516 101.648C170.154 100.895 170.633 100.063 170.873 99.112C171.112 98.1609 171.272 97.0119 171.272 95.6649V94.0008C170.114 93.7235 168.877 93.4858 167.6 93.3271C166.323 93.1688 165.086 93.0894 163.849 93.0894C161.175 93.0894 159.219 93.6045 157.902 94.6745C156.585 95.7442 155.946 97.2499 155.946 99.231C155.946 101.093 156.425 102.48 157.423 103.431C158.381 104.422 159.778 104.897 161.614 104.897L161.613 104.897ZM193.662 109.176C192.943 109.176 192.464 109.057 192.145 108.779C191.826 108.542 191.546 107.987 191.307 107.234L181.928 76.6058C181.688 75.8135 181.569 75.2984 181.569 75.0211C181.569 74.3871 181.888 74.0304 182.527 74.0304H186.438C187.196 74.0304 187.715 74.1494 187.995 74.4267C188.314 74.6644 188.553 75.2191 188.793 75.9721L195.498 102.202L201.724 75.9721C201.923 75.1798 202.163 74.6644 202.482 74.4267C202.801 74.1891 203.36 74.0304 204.079 74.0304H207.271C208.03 74.0304 208.549 74.1494 208.868 74.4267C209.187 74.6644 209.467 75.2191 209.626 75.9721L215.932 102.519L222.837 75.9721C223.076 75.1798 223.356 74.6644 223.635 74.4267C223.954 74.1891 224.473 74.0304 225.192 74.0304H228.903C229.542 74.0304 229.901 74.3474 229.901 75.0211C229.901 75.2191 229.861 75.4175 229.821 75.6551C229.781 75.8928 229.701 76.2098 229.542 76.6458L219.923 107.274C219.684 108.066 219.405 108.581 219.085 108.819C218.766 109.057 218.247 109.216 217.569 109.216H214.136C213.378 109.216 212.859 109.097 212.54 108.819C212.22 108.542 211.941 108.027 211.782 107.234L205.595 81.6777L199.449 107.195C199.25 107.987 199.01 108.502 198.691 108.779C198.371 109.057 197.812 109.176 197.094 109.176H193.662H193.662ZM244.947 110.245C242.872 110.245 240.796 110.008 238.801 109.532C236.805 109.057 235.249 108.542 234.211 107.947C233.572 107.591 233.134 107.195 232.974 106.838C232.814 106.481 232.734 106.085 232.734 105.729V103.708C232.734 102.876 233.054 102.479 233.652 102.479C233.892 102.479 234.131 102.519 234.371 102.598C234.61 102.678 234.969 102.836 235.368 102.995C236.725 103.589 238.202 104.064 239.759 104.381C241.355 104.699 242.912 104.857 244.508 104.857C247.022 104.857 248.978 104.421 250.335 103.549C251.692 102.677 252.41 101.409 252.41 99.785C252.41 98.6756 252.051 97.7642 251.333 97.0115C250.614 96.2585 249.258 95.5852 247.302 94.9511L241.515 93.1681C238.602 92.2567 236.446 90.9097 235.129 89.1266C233.812 87.3832 233.134 85.4418 233.134 83.3814C233.134 81.7173 233.493 80.2513 234.211 78.9832C234.93 77.7152 235.888 76.6058 237.085 75.7341C238.282 74.8227 239.639 74.1494 241.236 73.6737C242.832 73.198 244.508 73 246.265 73C247.143 73 248.061 73.0397 248.939 73.1583C249.857 73.2773 250.695 73.4357 251.533 73.594C252.331 73.792 253.089 73.9904 253.808 74.228C254.526 74.4657 255.085 74.7034 255.484 74.9414C256.043 75.2584 256.442 75.5754 256.681 75.9318C256.921 76.2488 257.04 76.6848 257.04 77.2395V79.1019C257.04 79.9339 256.721 80.3699 256.122 80.3699C255.803 80.3699 255.284 80.2113 254.606 79.8942C252.331 78.8642 249.776 78.3488 246.943 78.3488C244.668 78.3488 242.872 78.7055 241.635 79.4582C240.397 80.2109 239.759 81.3599 239.759 82.9847C239.759 84.094 240.158 85.0451 240.956 85.7978C241.754 86.5505 243.231 87.3035 245.346 87.9768L251.014 89.7599C253.887 90.6713 255.963 91.9393 257.2 93.5637C258.437 95.1881 259.036 97.0505 259.036 99.1109C259.036 100.815 258.677 102.36 257.998 103.707C257.28 105.054 256.322 106.243 255.085 107.194C253.848 108.184 252.371 108.898 250.655 109.413C248.859 109.967 246.983 110.245 244.947 110.245L244.947 110.245Z" fill="#252F3E"/>
<path fill-rule="evenodd" clip-rule="evenodd" d="M252.49 129.511C239.36 139.14 220.282 144.251 203.879 144.251C180.89 144.251 160.177 135.811 144.532 121.785C143.294 120.676 144.412 119.17 145.889 120.042C162.811 129.789 183.685 135.692 205.276 135.692C219.843 135.692 235.847 132.681 250.575 126.5C252.77 125.509 254.646 127.926 252.49 129.511Z" fill="#FF9900"/>
<path fill-rule="evenodd" clip-rule="evenodd" d="M257.958 123.313C256.282 121.173 246.863 122.283 242.592 122.798C241.315 122.956 241.116 121.847 242.273 121.015C249.776 115.785 262.109 117.29 263.545 119.034C264.982 120.817 263.146 133.06 256.122 138.924C255.045 139.836 254.007 139.36 254.486 138.172C256.083 134.249 259.634 125.413 257.958 123.313H257.958Z" fill="#FF9900"/>
<path d="M60 117.058V105.413C72.3269 105.413 81.8955 93.1883 77.1623 80.2147C75.4256 75.4474 71.5777 71.5996 66.7764 69.863C53.8025 65.1639 41.5777 74.6983 41.5777 87.025H29.9659C29.9659 67.3772 48.9671 52.054 69.5687 58.4897C78.5584 61.316 85.7434 68.4669 88.5357 77.4565C94.9716 98.0577 79.6481 117.058 60 117.058Z" fill="#0080FF"/>
<path fill-rule="evenodd" clip-rule="evenodd" d="M60.0338 105.479H48.422V93.8672H60.0338V105.479Z" fill="#0080FF"/>
<path fill-rule="evenodd" clip-rule="evenodd" d="M48.4224 114.372H39.5348V105.484H48.4224V114.372Z" fill="#0080FF"/>
<path fill-rule="evenodd" clip-rule="evenodd" d="M39.5347 105.481H32.0773V98.0234H39.5347V105.481Z" fill="#0080FF"/>
<path d="M10.3519 128.848C8.85357 127.792 6.94665 127.281 4.76731 127.281H0V142.434H4.80136C6.9807 142.434 8.88762 141.889 10.3859 140.766C11.2032 140.187 11.8502 139.37 12.3269 138.348C12.7696 137.326 13.0079 136.101 13.0079 134.773C13.0079 133.445 12.7696 132.253 12.3269 131.231C11.8502 130.21 11.2032 129.392 10.3519 128.848ZM2.79228 129.835H4.29058C5.95914 129.835 7.32122 130.176 8.37684 130.823C9.53462 131.538 10.1135 132.866 10.1135 134.773C10.1135 136.748 9.53462 138.144 8.37684 138.893C7.38933 139.54 6.02724 139.88 4.32463 139.88H2.79228V129.835Z" fill="#0080FF"/>
<path d="M16.3111 127.078C15.8344 127.078 15.4598 127.248 15.1193 127.555C14.8128 127.861 14.6426 128.236 14.6426 128.713C14.6426 129.189 14.8128 129.564 15.1193 129.904C15.4258 130.211 15.8344 130.381 16.3111 130.381C16.7538 130.381 17.1624 130.211 17.503 129.904C17.8094 129.598 17.9797 129.189 17.9797 128.713C17.9797 128.236 17.8094 127.861 17.503 127.555C17.1624 127.248 16.7538 127.078 16.3111 127.078Z" fill="#0080FF"/>
<path d="M17.6393 131.742H14.9492V142.434H17.6393V131.742Z" fill="#0080FF"/>
<path d="M27.4121 132.627C26.5948 131.911 25.7095 131.469 24.722 131.469C23.2237 131.469 21.9978 131.98 21.0443 133.001C20.0909 133.989 19.5801 135.283 19.5801 136.849C19.5801 138.347 20.0568 139.641 21.0103 140.663C21.9637 141.65 23.2237 142.161 24.6879 142.161C25.7095 142.161 26.6289 141.889 27.344 141.31V141.548C27.344 142.433 27.1056 143.114 26.6289 143.591C26.1522 144.068 25.5052 144.306 24.6879 144.306C23.462 144.306 22.6788 143.829 21.7254 142.536L19.8865 144.306L19.9206 144.374C20.3292 144.919 20.9081 145.464 21.7254 145.975C22.5086 146.486 23.5301 146.758 24.722 146.758C26.3224 146.758 27.6164 146.281 28.5699 145.294C29.5233 144.306 30.0001 143.012 30.0001 141.412V131.707H27.344V132.627H27.4121ZM26.697 138.96C26.2203 139.505 25.6073 139.743 24.8582 139.743C24.075 139.743 23.4961 139.471 23.0194 138.96C22.5426 138.415 22.3383 137.734 22.3383 136.883C22.3383 135.998 22.5767 135.317 23.0194 134.772C23.462 134.227 24.109 133.989 24.8582 133.989C25.6414 133.989 26.2203 134.261 26.697 134.772C27.1737 135.317 27.4121 136.032 27.4121 136.883C27.4121 137.734 27.1737 138.415 26.697 138.96Z" fill="#0080FF"/>
<path d="M35.0397 131.742H32.3496V142.434H35.0397V131.742Z" fill="#0080FF"/>
<path d="M33.7115 127.078C33.2348 127.078 32.8602 127.248 32.5197 127.555C32.2132 127.861 32.043 128.236 32.043 128.713C32.043 129.189 32.2132 129.564 32.5197 129.904C32.8262 130.211 33.2348 130.381 33.7115 130.381C34.1542 130.381 34.5628 130.211 34.9034 129.904C35.2098 129.598 35.3801 129.189 35.3801 128.713C35.3801 128.236 35.2098 127.861 34.9034 127.555C34.5628 127.248 34.1883 127.078 33.7115 127.078Z" fill="#0080FF"/>
<path d="M40.9306 128.844H38.2745V131.738H36.7422V134.19H38.2745V138.617C38.2745 140.013 38.547 141 39.0918 141.579C39.6366 142.158 40.6241 142.43 41.9862 142.43C42.4289 142.43 42.8716 142.43 43.2802 142.396H43.4164V139.945L42.497 139.979C41.85 139.979 41.4414 139.876 41.2371 139.638C41.0328 139.4 40.9306 138.923 40.9306 138.208V134.156H43.4505V131.704H40.9306V128.844Z" fill="#0080FF"/>
<path d="M58.7399 127.25H56.0498V142.437H58.7399V127.25Z" fill="#0080FF"/>
<path d="M85.9136 138.622C85.4369 139.167 84.9261 139.643 84.5515 139.882C84.177 140.12 83.7002 140.256 83.1554 140.256C82.3722 140.256 81.7252 139.984 81.2144 139.371C80.7036 138.792 80.4312 138.009 80.4312 137.124C80.4312 136.204 80.7036 135.455 81.2144 134.876C81.7252 134.297 82.3722 133.991 83.1554 133.991C84.0067 133.991 84.9261 134.536 85.7093 135.455L87.48 133.752C86.3222 132.254 84.858 131.539 83.0873 131.539C81.623 131.539 80.3291 132.084 79.2734 133.139C78.2178 134.195 77.707 135.523 77.707 137.124C77.707 138.724 78.2519 140.052 79.2734 141.108C80.3291 142.163 81.589 142.708 83.0873 142.708C85.0283 142.708 86.5947 141.857 87.6843 140.324L85.9136 138.622Z" fill="#0080FF"/>
<path d="M96.9809 133.237C96.6063 132.692 96.0956 132.283 95.4486 131.977C94.8016 131.67 94.0524 131.5 93.2352 131.5C91.7369 131.5 90.511 132.045 89.5916 133.134C88.7062 134.224 88.2295 135.552 88.2295 137.153C88.2295 138.787 88.7403 140.115 89.6937 141.137C90.6813 142.158 91.9752 142.669 93.5757 142.669C95.3805 142.669 96.8788 141.92 98.0025 140.49L98.0706 140.422L96.2999 138.719C96.1296 138.923 95.8912 139.128 95.6869 139.332C95.4145 139.57 95.1761 139.775 94.9037 139.911C94.4951 140.115 94.0524 140.217 93.5416 140.217C92.7925 140.217 92.1796 140.013 91.7028 139.57C91.2601 139.162 90.9877 138.617 90.9196 137.936H98.0365L98.0706 136.948C98.0706 136.267 97.9684 135.586 97.7982 134.973C97.6279 134.36 97.3555 133.781 96.9809 133.237ZM91.0899 135.756C91.2261 135.246 91.4645 134.803 91.805 134.497C92.1795 134.122 92.6563 133.952 93.2011 133.952C93.8481 133.952 94.3589 134.122 94.6994 134.497C95.0059 134.837 95.2102 135.246 95.2442 135.756H91.0899Z" fill="#0080FF"/>
<path d="M107.299 132.556C106.482 131.875 105.358 131.5 103.962 131.5C103.076 131.5 102.225 131.704 101.476 132.079C100.761 132.419 100.08 133.032 99.6371 133.781L99.6711 133.816L101.408 135.45C102.123 134.326 102.906 133.918 103.962 133.918C104.541 133.918 104.983 134.054 105.358 134.36C105.698 134.667 105.903 135.041 105.903 135.518V136.029C105.222 135.825 104.575 135.722 103.928 135.722C102.6 135.722 101.51 136.029 100.693 136.642C99.8754 137.255 99.4668 138.174 99.4668 139.332C99.4668 140.353 99.8073 141.137 100.522 141.75C101.238 142.328 102.089 142.635 103.11 142.635C104.132 142.635 105.085 142.226 105.971 141.511V142.397H108.627V135.518C108.525 134.258 108.116 133.237 107.299 132.556ZM102.531 138.344C102.838 138.14 103.281 138.038 103.825 138.038C104.472 138.038 105.154 138.174 105.869 138.412V139.468C105.29 140.013 104.507 140.285 103.553 140.285C103.076 140.285 102.736 140.183 102.463 139.979C102.225 139.775 102.089 139.536 102.089 139.196C102.089 138.821 102.225 138.549 102.531 138.344Z" fill="#0080FF"/>
<path d="M118.876 132.76C118.127 131.909 117.071 131.5 115.743 131.5C114.688 131.5 113.802 131.806 113.155 132.419V131.772H110.533V142.431H113.223V136.54C113.223 135.722 113.428 135.075 113.802 134.633C114.177 134.19 114.688 133.952 115.403 133.952C116.016 133.952 116.458 134.156 116.799 134.565C117.139 134.973 117.31 135.552 117.31 136.233V142.431H120V136.233C120 134.769 119.625 133.577 118.876 132.76Z" fill="#0080FF"/>
<path d="M52.6787 132.556C51.8614 131.875 50.7377 131.5 49.3416 131.5C48.4562 131.5 47.6049 131.704 46.8558 132.079C46.1407 132.419 45.4596 133.032 45.0169 133.781L45.051 133.816L46.7877 135.45C47.5028 134.326 48.286 133.918 49.3416 133.918C49.9205 133.918 50.3631 134.054 50.7377 134.36C51.0782 134.667 51.2825 135.041 51.2825 135.518V136.029C50.6015 135.825 49.9545 135.722 49.3075 135.722C47.9795 135.722 46.8898 136.029 46.0726 136.642C45.2553 137.255 44.8467 138.174 44.8467 139.332C44.8467 140.353 45.1872 141.137 45.9023 141.75C46.6174 142.328 47.4687 142.635 48.4903 142.635C49.5118 142.635 50.4653 142.226 51.3507 141.511V142.397H54.0067V135.518C53.9046 134.258 53.4959 133.237 52.6787 132.556ZM47.9114 138.344C48.2178 138.14 48.6605 138.038 49.2054 138.038C49.8524 138.038 50.5334 138.174 51.2485 138.412V139.468C50.6696 140.013 49.8864 140.285 48.9329 140.285C48.4562 140.285 48.1157 140.183 47.8433 139.979C47.6049 139.775 47.4687 139.536 47.4687 139.196C47.4687 138.821 47.6049 138.549 47.9114 138.344Z" fill="#0080FF"/>
<path d="M68.513 142.672C64.1884 142.672 60.681 139.164 60.681 134.84C60.681 130.515 64.1884 127.008 68.513 127.008C72.8377 127.008 76.345 130.515 76.345 134.84C76.345 139.164 72.8377 142.672 68.513 142.672ZM68.513 129.766C65.7208 129.766 63.4393 132.047 63.4393 134.84C63.4393 137.632 65.7208 139.913 68.513 139.913C71.3053 139.913 73.5868 137.632 73.5868 134.84C73.5868 132.047 71.3053 129.766 68.513 129.766Z" fill="#0080FF"/>
<path d="M2.256 24V7.2H5.064L14.808 20.328L14.28 20.424C14.216 19.976 14.16 19.52 14.112 19.056C14.064 18.576 14.016 18.08 13.968 17.568C13.936 17.056 13.904 16.52 13.872 15.96C13.856 15.4 13.84 14.816 13.824 14.208C13.808 13.584 13.8 12.928 13.8 12.24V7.2H16.896V24H14.04L4.248 11.064L4.872 10.896C4.952 11.792 5.016 12.56 5.064 13.2C5.128 13.824 5.176 14.368 5.208 14.832C5.24 15.28 5.264 15.656 5.28 15.96C5.312 16.264 5.328 16.544 5.328 16.8C5.344 17.04 5.352 17.272 5.352 17.496V24H2.256ZM25.6524 24.24C24.6124 24.24 23.6684 23.952 22.8204 23.376C21.9724 22.8 21.2924 22.016 20.7804 21.024C20.2684 20.032 20.0124 18.904 20.0124 17.64C20.0124 16.376 20.2684 15.248 20.7804 14.256C21.2924 13.264 21.9884 12.488 22.8684 11.928C23.7484 11.368 24.7404 11.088 25.8444 11.088C26.4844 11.088 27.0684 11.184 27.5964 11.376C28.1244 11.552 28.5884 11.808 28.9884 12.144C29.3884 12.48 29.7164 12.864 29.9724 13.296C30.2444 13.728 30.4284 14.192 30.5244 14.688L29.8764 14.52V11.352H32.8524V24H29.8524V20.976L30.5484 20.856C30.4364 21.288 30.2284 21.712 29.9244 22.128C29.6364 22.528 29.2684 22.888 28.8204 23.208C28.3884 23.512 27.9004 23.76 27.3564 23.952C26.8284 24.144 26.2604 24.24 25.6524 24.24ZM26.4684 21.624C27.1564 21.624 27.7644 21.456 28.2924 21.12C28.8204 20.784 29.2284 20.32 29.5164 19.728C29.8204 19.12 29.9724 18.424 29.9724 17.64C29.9724 16.872 29.8204 16.192 29.5164 15.6C29.2284 15.008 28.8204 14.544 28.2924 14.208C27.7644 13.872 27.1564 13.704 26.4684 13.704C25.7804 13.704 25.1724 13.872 24.6444 14.208C24.1324 14.544 23.7324 15.008 23.4444 15.6C23.1564 16.192 23.0124 16.872 23.0124 17.64C23.0124 18.424 23.1564 19.12 23.4444 19.728C23.7324 20.32 24.1324 20.784 24.6444 21.12C25.1724 21.456 25.7804 21.624 26.4684 21.624ZM37.6429 24V8.136H40.5949V24H37.6429ZM35.1469 14.088V11.352H43.3549V14.088H35.1469ZM45.939 24V11.352H48.891V24H45.939ZM47.379 8.664C46.787 8.664 46.323 8.52 45.987 8.232C45.667 7.928 45.507 7.504 45.507 6.96C45.507 6.448 45.675 6.032 46.011 5.712C46.347 5.392 46.803 5.232 47.379 5.232C47.987 5.232 48.451 5.384 48.771 5.688C49.107 5.976 49.275 6.4 49.275 6.96C49.275 7.456 49.107 7.864 48.771 8.184C48.435 8.504 47.971 8.664 47.379 8.664ZM56.6903 24L51.3623 11.352H54.5783L58.1783 20.808L57.5543 20.976L61.3463 11.352H64.4903L58.8983 24H56.6903ZM72.2263 24.24C70.8983 24.24 69.7223 23.96 68.6983 23.4C67.6903 22.84 66.8983 22.08 66.3223 21.12C65.7623 20.144 65.4823 19.032 65.4823 17.784C65.4823 16.792 65.6423 15.888 65.9623 15.072C66.2823 14.256 66.7223 13.552 67.2823 12.96C67.8583 12.352 68.5383 11.888 69.3223 11.568C70.1223 11.232 70.9943 11.064 71.9383 11.064C72.7703 11.064 73.5463 11.224 74.2663 11.544C74.9863 11.864 75.6103 12.304 76.1383 12.864C76.6663 13.408 77.0663 14.064 77.3383 14.832C77.6263 15.584 77.7623 16.408 77.7463 17.304L77.7223 18.336H67.4743L66.9223 16.32H75.2503L74.8663 16.728V16.2C74.8183 15.704 74.6583 15.272 74.3863 14.904C74.1143 14.52 73.7623 14.224 73.3303 14.016C72.9143 13.792 72.4503 13.68 71.9383 13.68C71.1543 13.68 70.4903 13.832 69.9463 14.136C69.4183 14.44 69.0183 14.88 68.7463 15.456C68.4743 16.016 68.3383 16.72 68.3383 17.568C68.3383 18.384 68.5063 19.096 68.8423 19.704C69.1943 20.312 69.6823 20.784 70.3063 21.12C70.9463 21.44 71.6903 21.6 72.5383 21.6C73.1303 21.6 73.6743 21.504 74.1703 21.312C74.6663 21.12 75.2023 20.776 75.7783 20.28L77.2423 22.32C76.8103 22.72 76.3143 23.064 75.7543 23.352C75.2103 23.624 74.6343 23.84 74.0263 24C73.4183 24.16 72.8183 24.24 72.2263 24.24ZM92.0235 24.24C90.7755 24.24 89.6875 23.968 88.7595 23.424C87.8315 22.864 86.9755 21.92 86.1915 20.592L88.5435 19.104C88.9115 19.696 89.2875 20.176 89.6715 20.544C90.0715 20.896 90.4715 21.16 90.8715 21.336C91.2875 21.496 91.7275 21.576 92.1915 21.576C92.7195 21.576 93.1995 21.448 93.6315 21.192C94.0795 20.936 94.4315 20.584 94.6875 20.136C94.9595 19.688 95.0955 19.176 95.0955 18.6C95.0955 18.024 94.9835 17.536 94.7595 17.136C94.5515 16.736 94.2395 16.432 93.8235 16.224C93.4235 16 92.9355 15.888 92.3595 15.888C92.1035 15.888 91.8315 15.92 91.5435 15.984C91.2555 16.032 90.9515 16.112 90.6315 16.224C90.3115 16.32 89.9595 16.44 89.5755 16.584L88.8075 14.544L93.5835 9.264L94.3035 9.96L87.2235 9.912V7.152H97.0875L97.6635 8.304L92.1435 14.328L91.4235 13.536C91.5515 13.472 91.7595 13.416 92.0475 13.368C92.3515 13.304 92.6155 13.272 92.8395 13.272C93.5435 13.272 94.2155 13.408 94.8555 13.68C95.4955 13.936 96.0475 14.304 96.5115 14.784C96.9915 15.264 97.3675 15.824 97.6395 16.464C97.9115 17.088 98.0475 17.768 98.0475 18.504C98.0475 19.608 97.7755 20.592 97.2315 21.456C96.7035 22.304 95.9835 22.984 95.0715 23.496C94.1595 23.992 93.1435 24.24 92.0235 24.24ZM100.634 24V11.352H103.538L103.586 15.384L103.178 14.472C103.354 13.832 103.658 13.256 104.09 12.744C104.522 12.232 105.018 11.832 105.578 11.544C106.154 11.24 106.754 11.088 107.378 11.088C107.65 11.088 107.906 11.112 108.146 11.16C108.402 11.208 108.61 11.264 108.77 11.328L107.978 14.568C107.802 14.472 107.586 14.392 107.33 14.328C107.074 14.264 106.818 14.232 106.562 14.232C106.162 14.232 105.778 14.312 105.41 14.472C105.058 14.616 104.746 14.824 104.474 15.096C104.202 15.368 103.986 15.688 103.826 16.056C103.682 16.408 103.61 16.808 103.61 17.256V24H100.634ZM115.285 24.24C114.165 24.24 113.157 23.96 112.261 23.4C111.381 22.824 110.677 22.048 110.149 21.072C109.637 20.08 109.381 18.944 109.381 17.664C109.381 16.4 109.637 15.272 110.149 14.28C110.661 13.288 111.357 12.512 112.237 11.952C113.133 11.376 114.141 11.088 115.261 11.088C115.869 11.088 116.453 11.184 117.013 11.376C117.589 11.568 118.101 11.832 118.549 12.168C118.997 12.488 119.349 12.848 119.605 13.248C119.877 13.648 120.029 14.064 120.061 14.496L119.269 14.592V6.24H122.221V24H119.365L119.293 21.024L119.869 21.072C119.853 21.472 119.709 21.856 119.437 22.224C119.181 22.592 118.845 22.928 118.429 23.232C118.013 23.536 117.525 23.784 116.965 23.976C116.421 24.152 115.861 24.24 115.285 24.24ZM115.861 21.744C116.549 21.744 117.157 21.568 117.685 21.216C118.213 20.864 118.621 20.384 118.909 19.776C119.213 19.168 119.365 18.464 119.365 17.664C119.365 16.88 119.213 16.184 118.909 15.576C118.621 14.952 118.213 14.472 117.685 14.136C117.157 13.784 116.549 13.608 115.861 13.608C115.173 13.608 114.565 13.784 114.037 14.136C113.509 14.472 113.093 14.952 112.789 15.576C112.501 16.184 112.357 16.88 112.357 17.664C112.357 18.464 112.501 19.168 112.789 19.776C113.093 20.384 113.509 20.864 114.037 21.216C114.565 21.568 115.173 21.744 115.861 21.744ZM132.626 29.28V11.352H135.53L135.578 14.232L135.074 14.016C135.17 13.52 135.442 13.056 135.89 12.624C136.338 12.176 136.882 11.816 137.522 11.544C138.178 11.272 138.858 11.136 139.562 11.136C140.682 11.136 141.674 11.416 142.538 11.976C143.418 12.536 144.106 13.304 144.602 14.28C145.114 15.256 145.37 16.384 145.37 17.664C145.37 18.928 145.114 20.056 144.602 21.048C144.106 22.024 143.418 22.8 142.538 23.376C141.674 23.936 140.698 24.216 139.61 24.216C138.874 24.216 138.162 24.072 137.474 23.784C136.802 23.496 136.226 23.12 135.746 22.656C135.282 22.192 134.994 21.704 134.882 21.192L135.602 20.856V29.28H132.626ZM139.01 21.6C139.682 21.6 140.282 21.432 140.81 21.096C141.338 20.76 141.746 20.296 142.034 19.704C142.338 19.112 142.49 18.432 142.49 17.664C142.49 16.896 142.346 16.224 142.058 15.648C141.77 15.056 141.362 14.592 140.834 14.256C140.306 13.92 139.698 13.752 139.01 13.752C138.306 13.752 137.69 13.92 137.162 14.256C136.65 14.576 136.242 15.032 135.938 15.624C135.634 16.216 135.482 16.896 135.482 17.664C135.482 18.432 135.634 19.112 135.938 19.704C136.242 20.296 136.65 20.76 137.162 21.096C137.69 21.432 138.306 21.6 139.01 21.6ZM152.777 24.24C151.737 24.24 150.793 23.952 149.945 23.376C149.097 22.8 148.417 22.016 147.905 21.024C147.393 20.032 147.137 18.904 147.137 17.64C147.137 16.376 147.393 15.248 147.905 14.256C148.417 13.264 149.113 12.488 149.993 11.928C150.873 11.368 151.865 11.088 152.969 11.088C153.609 11.088 154.193 11.184 154.721 11.376C155.249 11.552 155.713 11.808 156.113 12.144C156.513 12.48 156.841 12.864 157.097 13.296C157.369 13.728 157.553 14.192 157.649 14.688L157.001 14.52V11.352H159.977V24H156.977V20.976L157.673 20.856C157.561 21.288 157.353 21.712 157.049 22.128C156.761 22.528 156.393 22.888 155.945 23.208C155.513 23.512 155.025 23.76 154.481 23.952C153.953 24.144 153.385 24.24 152.777 24.24ZM153.593 21.624C154.281 21.624 154.889 21.456 155.417 21.12C155.945 20.784 156.353 20.32 156.641 19.728C156.945 19.12 157.097 18.424 157.097 17.64C157.097 16.872 156.945 16.192 156.641 15.6C156.353 15.008 155.945 14.544 155.417 14.208C154.889 13.872 154.281 13.704 153.593 13.704C152.905 13.704 152.297 13.872 151.769 14.208C151.257 14.544 150.857 15.008 150.569 15.6C150.281 16.192 150.137 16.872 150.137 17.64C150.137 18.424 150.281 19.12 150.569 19.728C150.857 20.32 151.257 20.784 151.769 21.12C152.297 21.456 152.905 21.624 153.593 21.624ZM163.4 24V11.352H166.304L166.352 15.384L165.944 14.472C166.12 13.832 166.424 13.256 166.856 12.744C167.288 12.232 167.784 11.832 168.344 11.544C168.92 11.24 169.52 11.088 170.144 11.088C170.416 11.088 170.672 11.112 170.912 11.16C171.168 11.208 171.376 11.264 171.536 11.328L170.744 14.568C170.568 14.472 170.352 14.392 170.096 14.328C169.84 14.264 169.584 14.232 169.328 14.232C168.928 14.232 168.544 14.312 168.176 14.472C167.824 14.616 167.512 14.824 167.24 15.096C166.968 15.368 166.752 15.688 166.592 16.056C166.448 16.408 166.376 16.808 166.376 17.256V24H163.4ZM175.338 24V8.136H178.29V24H175.338ZM172.842 14.088V11.352H181.05V14.088H172.842ZM185.218 29.52L187.906 23.304L187.93 25.272L181.69 11.352H185.098L188.578 19.608C188.69 19.816 188.802 20.096 188.914 20.448C189.026 20.784 189.122 21.12 189.202 21.456L188.602 21.648C188.714 21.344 188.834 21.024 188.962 20.688C189.09 20.336 189.21 19.976 189.322 19.608L192.298 11.352H195.73L190.45 24L188.29 29.52H185.218ZM204.962 24V11.352H207.914V24H204.962ZM206.402 8.664C205.81 8.664 205.346 8.52 205.01 8.232C204.69 7.928 204.53 7.504 204.53 6.96C204.53 6.448 204.698 6.032 205.034 5.712C205.37 5.392 205.826 5.232 206.402 5.232C207.01 5.232 207.474 5.384 207.794 5.688C208.13 5.976 208.298 6.4 208.298 6.96C208.298 7.456 208.13 7.864 207.794 8.184C207.458 8.504 206.994 8.664 206.402 8.664ZM211.658 24V11.352H214.538L214.586 13.944L214.034 14.232C214.194 13.656 214.506 13.136 214.97 12.672C215.434 12.192 215.986 11.808 216.626 11.52C217.266 11.232 217.922 11.088 218.594 11.088C219.554 11.088 220.354 11.28 220.994 11.664C221.65 12.048 222.138 12.624 222.458 13.392C222.794 14.16 222.962 15.12 222.962 16.272V24H220.01V16.488C220.01 15.848 219.922 15.32 219.746 14.904C219.57 14.472 219.298 14.16 218.93 13.968C218.562 13.76 218.114 13.664 217.586 13.68C217.154 13.68 216.754 13.752 216.386 13.896C216.034 14.024 215.722 14.216 215.45 14.472C215.194 14.712 214.986 14.992 214.826 15.312C214.682 15.632 214.61 15.984 214.61 16.368V24H213.146C212.858 24 212.586 24 212.33 24C212.09 24 211.866 24 211.658 24ZM227.651 24V8.136H230.603V24H227.651ZM225.155 14.088V11.352H233.363V14.088H225.155ZM241.422 24.24C240.094 24.24 238.918 23.96 237.894 23.4C236.886 22.84 236.094 22.08 235.518 21.12C234.958 20.144 234.678 19.032 234.678 17.784C234.678 16.792 234.838 15.888 235.158 15.072C235.478 14.256 235.918 13.552 236.478 12.96C237.054 12.352 237.734 11.888 238.518 11.568C239.318 11.232 240.19 11.064 241.134 11.064C241.966 11.064 242.742 11.224 243.462 11.544C244.182 11.864 244.806 12.304 245.334 12.864C245.862 13.408 246.262 14.064 246.534 14.832C246.822 15.584 246.958 16.408 246.942 17.304L246.918 18.336H236.67L236.118 16.32H244.446L244.062 16.728V16.2C244.014 15.704 243.854 15.272 243.582 14.904C243.31 14.52 242.958 14.224 242.526 14.016C242.11 13.792 241.646 13.68 241.134 13.68C240.35 13.68 239.686 13.832 239.142 14.136C238.614 14.44 238.214 14.88 237.942 15.456C237.67 16.016 237.534 16.72 237.534 17.568C237.534 18.384 237.702 19.096 238.038 19.704C238.39 20.312 238.878 20.784 239.502 21.12C240.142 21.44 240.886 21.6 241.734 21.6C242.326 21.6 242.87 21.504 243.366 21.312C243.862 21.12 244.398 20.776 244.974 20.28L246.438 22.32C246.006 22.72 245.51 23.064 244.95 23.352C244.406 23.624 243.83 23.84 243.222 24C242.614 24.16 242.014 24.24 241.422 24.24ZM255.127 29.52C254.183 29.52 253.239 29.376 252.295 29.088C251.367 28.8 250.615 28.424 250.039 27.96L251.095 25.776C251.431 26.016 251.807 26.224 252.223 26.4C252.639 26.576 253.079 26.712 253.543 26.808C254.023 26.904 254.495 26.952 254.959 26.952C255.807 26.952 256.511 26.816 257.071 26.544C257.647 26.288 258.079 25.888 258.367 25.344C258.655 24.816 258.799 24.152 258.799 23.352V21.024L259.231 21.192C259.135 21.688 258.871 22.16 258.439 22.608C258.007 23.056 257.463 23.424 256.807 23.712C256.151 23.984 255.479 24.12 254.791 24.12C253.591 24.12 252.527 23.84 251.599 23.28C250.687 22.72 249.959 21.96 249.415 21C248.887 20.024 248.623 18.904 248.623 17.64C248.623 16.376 248.887 15.256 249.415 14.28C249.943 13.288 250.663 12.512 251.575 11.952C252.503 11.376 253.543 11.088 254.695 11.088C255.175 11.088 255.639 11.144 256.087 11.256C256.535 11.368 256.943 11.528 257.311 11.736C257.695 11.944 258.039 12.176 258.343 12.432C258.647 12.688 258.895 12.96 259.087 13.248C259.279 13.536 259.399 13.816 259.447 14.088L258.823 14.28L258.871 11.352H261.775V23.136C261.775 24.16 261.623 25.064 261.319 25.848C261.015 26.632 260.575 27.296 259.999 27.84C259.423 28.4 258.727 28.816 257.911 29.088C257.095 29.376 256.167 29.52 255.127 29.52ZM255.247 21.6C255.967 21.6 256.599 21.432 257.143 21.096C257.703 20.76 258.135 20.296 258.439 19.704C258.743 19.112 258.895 18.432 258.895 17.664C258.895 16.88 258.735 16.192 258.415 15.6C258.111 14.992 257.687 14.52 257.143 14.184C256.599 13.848 255.967 13.68 255.247 13.68C254.527 13.68 253.895 13.856 253.351 14.208C252.807 14.544 252.375 15.016 252.055 15.624C251.751 16.216 251.599 16.896 251.599 17.664C251.599 18.416 251.751 19.096 252.055 19.704C252.375 20.296 252.807 20.76 253.351 21.096C253.895 21.432 254.527 21.6 255.247 21.6ZM265.189 24V11.352H268.093L268.141 15.384L267.733 14.472C267.909 13.832 268.213 13.256 268.645 12.744C269.077 12.232 269.573 11.832 270.133 11.544C270.709 11.24 271.309 11.088 271.933 11.088C272.205 11.088 272.461 11.112 272.701 11.16C272.957 11.208 273.165 11.264 273.325 11.328L272.533 14.568C272.357 14.472 272.141 14.392 271.885 14.328C271.629 14.264 271.373 14.232 271.117 14.232C270.717 14.232 270.333 14.312 269.965 14.472C269.613 14.616 269.301 14.824 269.029 15.096C268.757 15.368 268.541 15.688 268.381 16.056C268.237 16.408 268.165 16.808 268.165 17.256V24H265.189ZM279.527 24.24C278.487 24.24 277.543 23.952 276.695 23.376C275.847 22.8 275.167 22.016 274.655 21.024C274.143 20.032 273.887 18.904 273.887 17.64C273.887 16.376 274.143 15.248 274.655 14.256C275.167 13.264 275.863 12.488 276.743 11.928C277.623 11.368 278.615 11.088 279.719 11.088C280.359 11.088 280.943 11.184 281.471 11.376C281.999 11.552 282.463 11.808 282.863 12.144C283.263 12.48 283.591 12.864 283.847 13.296C284.119 13.728 284.303 14.192 284.399 14.688L283.751 14.52V11.352H286.727V24H283.727V20.976L284.423 20.856C284.311 21.288 284.103 21.712 283.799 22.128C283.511 22.528 283.143 22.888 282.695 23.208C282.263 23.512 281.775 23.76 281.231 23.952C280.703 24.144 280.135 24.24 279.527 24.24ZM280.343 21.624C281.031 21.624 281.639 21.456 282.167 21.12C282.695 20.784 283.103 20.32 283.391 19.728C283.695 19.12 283.847 18.424 283.847 17.64C283.847 16.872 283.695 16.192 283.391 15.6C283.103 15.008 282.695 14.544 282.167 14.208C281.639 13.872 281.031 13.704 280.343 13.704C279.655 13.704 279.047 13.872 278.519 14.208C278.007 14.544 277.607 15.008 277.319 15.6C277.031 16.192 276.887 16.872 276.887 17.64C276.887 18.424 277.031 19.12 277.319 19.728C277.607 20.32 278.007 20.784 278.519 21.12C279.047 21.456 279.655 21.624 280.343 21.624ZM291.518 24V8.136H294.47V24H291.518ZM289.022 14.088V11.352H297.23V14.088H289.022ZM299.814 24V11.352H302.766V24H299.814ZM301.254 8.664C300.662 8.664 300.198 8.52 299.862 8.232C299.542 7.928 299.382 7.504 299.382 6.96C299.382 6.448 299.55 6.032 299.886 5.712C300.222 5.392 300.678 5.232 301.254 5.232C301.862 5.232 302.326 5.384 302.646 5.688C302.982 5.976 303.15 6.4 303.15 6.96C303.15 7.456 302.982 7.864 302.646 8.184C302.31 8.504 301.846 8.664 301.254 8.664ZM312.293 24.24C311.029 24.24 309.901 23.96 308.909 23.4C307.917 22.824 307.133 22.04 306.557 21.048C305.981 20.056 305.693 18.928 305.693 17.664C305.693 16.4 305.981 15.272 306.557 14.28C307.133 13.288 307.917 12.512 308.909 11.952C309.901 11.376 311.029 11.088 312.293 11.088C313.541 11.088 314.661 11.376 315.653 11.952C316.645 12.512 317.421 13.288 317.981 14.28C318.557 15.272 318.845 16.4 318.845 17.664C318.845 18.928 318.557 20.056 317.981 21.048C317.421 22.04 316.645 22.824 315.653 23.4C314.661 23.96 313.541 24.24 312.293 24.24ZM312.293 21.624C312.981 21.624 313.589 21.448 314.117 21.096C314.661 20.744 315.085 20.272 315.389 19.68C315.709 19.088 315.861 18.416 315.845 17.664C315.861 16.896 315.709 16.216 315.389 15.624C315.085 15.032 314.661 14.568 314.117 14.232C313.589 13.88 312.981 13.704 312.293 13.704C311.605 13.704 310.981 13.88 310.421 14.232C309.877 14.568 309.453 15.04 309.149 15.648C308.845 16.24 308.693 16.912 308.693 17.664C308.693 18.416 308.845 19.088 309.149 19.68C309.453 20.272 309.877 20.744 310.421 21.096C310.981 21.448 311.605 21.624 312.293 21.624ZM321.486 24V11.352H324.366L324.414 13.944L323.862 14.232C324.022 13.656 324.334 13.136 324.798 12.672C325.262 12.192 325.814 11.808 326.454 11.52C327.094 11.232 327.75 11.088 328.422 11.088C329.382 11.088 330.182 11.28 330.822 11.664C331.478 12.048 331.966 12.624 332.286 13.392C332.622 14.16 332.79 15.12 332.79 16.272V24H329.838V16.488C329.838 15.848 329.75 15.32 329.574 14.904C329.398 14.472 329.126 14.16 328.758 13.968C328.39 13.76 327.942 13.664 327.414 13.68C326.982 13.68 326.582 13.752 326.214 13.896C325.862 14.024 325.55 14.216 325.278 14.472C325.022 14.712 324.814 14.992 324.654 15.312C324.51 15.632 324.438 15.984 324.438 16.368V24H322.974C322.686 24 322.414 24 322.158 24C321.918 24 321.694 24 321.486 24Z" fill="#262626"/>
<path d="M320.031 92.4878H321.475L325.589 88.3741L325.791 86.6275C323.434 84.5475 320.586 83.1025 317.516 82.4292C314.445 81.7559 311.254 81.8764 308.243 82.7793C305.232 83.6823 302.501 85.3379 300.308 87.5897C298.115 89.8416 296.532 92.6153 295.709 95.6489C296.167 95.4611 296.675 95.4306 297.152 95.5623L305.38 94.2055C305.38 94.2055 305.799 93.5127 306.015 93.556C307.778 91.6198 310.215 90.4308 312.826 90.2322C315.436 90.0337 318.025 90.8406 320.06 92.4878H320.031Z" fill="#EA4335"/>
<path d="M331.448 95.6476C330.502 92.1655 328.561 89.0352 325.862 86.6406L320.088 92.4143C321.291 93.3975 322.256 94.6412 322.908 96.0514C323.561 97.4616 323.885 99.0016 323.855 100.555V101.58C324.53 101.58 325.199 101.713 325.822 101.971C326.445 102.229 327.012 102.608 327.489 103.085C327.966 103.562 328.345 104.129 328.603 104.752C328.861 105.376 328.994 106.044 328.994 106.719C328.994 107.393 328.861 108.062 328.603 108.685C328.345 109.309 327.966 109.875 327.489 110.352C327.012 110.829 326.445 111.208 325.822 111.466C325.199 111.724 324.53 111.857 323.855 111.857H313.578L312.553 112.897V119.06L313.578 120.085H323.855C326.725 120.107 329.526 119.205 331.844 117.512C334.161 115.819 335.873 113.426 336.724 110.685C337.576 107.944 337.522 105.002 336.572 102.294C335.622 99.5859 333.825 97.2555 331.448 95.6476Z" fill="#4285F4"/>
<path d="M303.286 120.025H313.564V111.798H303.286C302.554 111.798 301.83 111.64 301.164 111.336L299.721 111.783L295.578 115.897L295.217 117.341C297.54 119.095 300.375 120.038 303.286 120.025Z" fill="#34A853"/>
<path d="M303.287 93.3438C300.502 93.3605 297.792 94.2464 295.535 95.8779C293.278 97.5094 291.588 99.805 290.699 102.444C289.81 105.083 289.768 107.934 290.578 110.598C291.388 113.262 293.01 115.607 295.218 117.305L301.179 111.343C300.422 111.001 299.758 110.48 299.246 109.825C298.734 109.17 298.389 108.401 298.24 107.583C298.09 106.765 298.142 105.924 298.389 105.13C298.637 104.336 299.073 103.615 299.661 103.027C300.249 102.439 300.971 102.003 301.764 101.755C302.558 101.508 303.4 101.456 304.217 101.605C305.035 101.755 305.805 102.1 306.46 102.612C307.115 103.124 307.636 103.787 307.978 104.545L313.939 98.5835C312.688 96.9477 311.075 95.6236 309.227 94.7146C307.379 93.8056 305.346 93.3365 303.287 93.3438Z" fill="#FBBC05"/>
<path d="M364.691 114.281C362.921 114.304 361.165 113.969 359.528 113.297C357.891 112.625 356.407 111.629 355.164 110.37C353.882 109.164 352.864 107.704 352.176 106.084C351.488 104.464 351.144 102.719 351.166 100.959C351.144 99.1986 351.489 97.4535 352.177 95.8335C352.865 94.2135 353.882 92.7541 355.164 91.5475C356.401 90.275 357.883 89.266 359.52 88.5813C361.157 87.8967 362.916 87.5505 364.691 87.5636C366.382 87.5411 368.06 87.8549 369.629 88.4868C371.197 89.1187 372.625 90.056 373.828 91.2444L371.258 93.857C369.499 92.1565 367.137 91.2223 364.691 91.2588C363.422 91.2432 362.163 91.4918 360.995 91.9888C359.827 92.4858 358.775 93.2203 357.906 94.1457C357.004 95.0414 356.291 96.1106 355.812 97.2889C355.334 98.4673 355.098 99.7303 355.121 101.002C355.11 102.259 355.351 103.506 355.829 104.668C356.308 105.831 357.014 106.886 357.906 107.772C359.694 109.553 362.106 110.566 364.63 110.596C367.153 110.626 369.588 109.669 371.417 107.93C372.549 106.69 373.244 105.114 373.395 103.441H364.734V99.7461H376.989C377.109 100.49 377.158 101.244 377.133 101.998C377.21 103.557 376.969 105.116 376.425 106.58C375.882 108.044 375.047 109.382 373.972 110.514C372.777 111.759 371.332 112.738 369.733 113.387C368.134 114.036 366.416 114.341 364.691 114.281ZM393.185 111.828C391.54 113.404 389.35 114.284 387.072 114.284C384.793 114.284 382.603 113.404 380.958 111.828C380.14 111.034 379.495 110.079 379.065 109.023C378.635 107.967 378.43 106.833 378.461 105.693C378.431 104.553 378.637 103.42 379.067 102.364C379.496 101.308 380.141 100.353 380.958 99.5585C382.605 97.9853 384.794 97.1074 387.072 97.1074C389.349 97.1074 391.538 97.9853 393.185 99.5585C394.002 100.353 394.647 101.308 395.077 102.364C395.506 103.42 395.712 104.553 395.682 105.693C395.711 106.834 395.503 107.968 395.071 109.024C394.639 110.081 393.991 111.035 393.17 111.828H393.185ZM383.658 109.417C384.095 109.884 384.624 110.257 385.211 110.511C385.798 110.766 386.432 110.897 387.072 110.897C387.712 110.897 388.345 110.766 388.932 110.511C389.519 110.257 390.048 109.884 390.485 109.417C390.962 108.924 391.336 108.341 391.584 107.701C391.832 107.061 391.949 106.379 391.929 105.693C391.95 105.005 391.833 104.32 391.585 103.678C391.337 103.036 390.963 102.45 390.485 101.955C390.042 101.492 389.51 101.124 388.921 100.873C388.332 100.622 387.698 100.492 387.057 100.492C386.417 100.492 385.783 100.622 385.194 100.873C384.604 101.124 384.072 101.492 383.629 101.955C383.151 102.45 382.777 103.036 382.529 103.678C382.281 104.32 382.164 105.005 382.185 105.693C382.167 106.38 382.287 107.063 382.537 107.703C382.788 108.342 383.164 108.925 383.643 109.417H383.658ZM411.978 111.828C410.334 113.404 408.144 114.284 405.865 114.284C403.587 114.284 401.397 113.404 399.752 111.828C398.934 111.034 398.289 110.079 397.859 109.023C397.429 107.967 397.224 106.833 397.255 105.693C397.224 104.553 397.431 103.42 397.86 102.364C398.29 101.308 398.934 100.353 399.752 99.5585C401.397 97.982 403.587 97.1019 405.865 97.1019C408.144 97.1019 410.334 97.982 411.978 99.5585C412.796 100.353 413.44 101.308 413.87 102.364C414.3 103.42 414.506 104.553 414.476 105.693C414.507 106.833 414.301 107.967 413.872 109.023C413.442 110.079 412.797 111.034 411.978 111.828ZM402.452 109.417C402.889 109.884 403.418 110.257 404.005 110.511C404.592 110.766 405.225 110.897 405.865 110.897C406.505 110.897 407.139 110.766 407.726 110.511C408.313 110.257 408.842 109.884 409.279 109.417C409.756 108.924 410.13 108.341 410.377 107.701C410.625 107.061 410.743 106.379 410.723 105.693C410.744 105.005 410.627 104.32 410.379 103.678C410.131 103.036 409.757 102.45 409.279 101.955C408.836 101.492 408.304 101.124 407.715 100.873C407.125 100.622 406.491 100.492 405.851 100.492C405.21 100.492 404.576 100.622 403.987 100.873C403.398 101.124 402.866 101.492 402.423 101.955C401.945 102.45 401.571 103.036 401.323 103.678C401.075 104.32 400.958 105.005 400.979 105.693C400.961 106.38 401.081 107.063 401.331 107.703C401.581 108.342 401.958 108.925 402.437 109.417H402.452ZM424.334 121.989C422.604 122.044 420.908 121.504 419.528 120.459C418.302 119.538 417.337 118.315 416.727 116.908L420.018 115.537C420.377 116.378 420.937 117.116 421.65 117.688C422.412 118.303 423.369 118.625 424.349 118.597C424.97 118.635 425.592 118.539 426.172 118.314C426.752 118.09 427.278 117.744 427.712 117.298C428.582 116.249 429.011 114.904 428.91 113.545V112.304H428.78C428.23 112.957 427.535 113.473 426.751 113.812C425.967 114.15 425.115 114.301 424.262 114.253C423.178 114.256 422.106 114.034 421.112 113.602C420.118 113.17 419.225 112.536 418.488 111.741C417.689 110.952 417.058 110.01 416.634 108.97C416.21 107.931 416.001 106.816 416.02 105.693C416 104.564 416.208 103.442 416.633 102.396C417.057 101.349 417.688 100.399 418.488 99.6018C419.223 98.8034 420.116 98.1666 421.11 97.7317C422.104 97.2969 423.177 97.0735 424.262 97.0758C425.18 97.0742 426.088 97.2763 426.918 97.6676C427.637 97.9814 428.277 98.4496 428.795 99.0389H428.925V97.6676H432.504V113.04C432.599 114.256 432.444 115.479 432.049 116.633C431.654 117.787 431.028 118.848 430.209 119.752C429.429 120.498 428.507 121.081 427.498 121.465C426.489 121.849 425.413 122.028 424.334 121.989ZM424.594 110.904C425.211 110.917 425.822 110.795 426.386 110.546C426.95 110.296 427.452 109.926 427.856 109.46C428.747 108.44 429.217 107.119 429.17 105.765C429.223 104.389 428.754 103.043 427.856 101.998C427.453 101.532 426.951 101.161 426.387 100.911C425.823 100.662 425.211 100.54 424.594 100.554C423.961 100.541 423.332 100.663 422.75 100.912C422.167 101.161 421.645 101.531 421.216 101.998C420.262 103.005 419.743 104.349 419.773 105.736C419.758 106.417 419.878 107.094 420.126 107.728C420.374 108.362 420.744 108.941 421.216 109.432C421.643 109.903 422.164 110.278 422.747 110.531C423.329 110.785 423.959 110.912 424.594 110.904ZM438.87 88.5307V113.762H435.103V88.5307H438.87ZM449.205 114.281C448.077 114.31 446.955 114.106 445.909 113.681C444.863 113.257 443.917 112.621 443.128 111.813C442.328 111.012 441.699 110.056 441.28 109.004C440.861 107.952 440.659 106.825 440.689 105.693C440.646 104.558 440.832 103.426 441.237 102.365C441.641 101.303 442.255 100.334 443.042 99.5152C443.783 98.7335 444.68 98.1154 445.674 97.7003C446.668 97.2852 447.738 97.0823 448.815 97.1047C449.806 97.0942 450.788 97.2858 451.702 97.6676C452.526 97.9999 453.276 98.4903 453.911 99.111C454.456 99.6373 454.94 100.223 455.354 100.858C455.689 101.393 455.974 101.959 456.206 102.546L456.596 103.528L445.048 108.277C445.397 109.079 445.981 109.757 446.723 110.221C447.466 110.685 448.331 110.913 449.205 110.875C450.056 110.877 450.893 110.659 451.634 110.242C452.375 109.824 452.995 109.222 453.434 108.493L456.321 110.442C455.585 111.496 454.642 112.39 453.55 113.069C452.251 113.889 450.741 114.311 449.205 114.281ZM444.384 105.433L452.063 102.243C451.827 101.681 451.404 101.217 450.865 100.93C450.262 100.589 449.58 100.415 448.888 100.425C447.713 100.455 446.598 100.948 445.784 101.796C445.297 102.262 444.919 102.829 444.677 103.458C444.435 104.087 444.335 104.761 444.384 105.433ZM476.328 114.281C474.725 114.309 473.134 114.013 471.649 113.41C470.165 112.807 468.817 111.911 467.687 110.775C466.557 109.638 465.669 108.285 465.075 106.797C464.481 105.308 464.194 103.715 464.232 102.113C464.194 100.511 464.481 98.9184 465.075 97.43C465.669 95.9417 466.557 94.5886 467.687 93.4522C468.817 92.3157 470.165 91.4193 471.649 90.8166C473.134 90.214 474.725 89.9176 476.328 89.9453C477.949 89.8946 479.562 90.211 481.044 90.8708C482.526 91.5307 483.84 92.517 484.887 93.7559L482.809 95.7767C482.04 94.8095 481.053 94.0374 479.93 93.5232C478.806 93.009 477.577 92.7673 476.342 92.8177C475.154 92.7909 473.972 93.0047 472.868 93.4463C471.764 93.8878 470.761 94.5479 469.919 95.387C469.043 96.2675 468.359 97.3196 467.909 98.4771C467.46 99.6347 467.254 100.873 467.306 102.113C467.254 103.354 467.46 104.592 467.909 105.75C468.359 106.907 469.043 107.959 469.919 108.84C470.761 109.679 471.764 110.339 472.868 110.78C473.972 111.222 475.154 111.436 476.342 111.409C477.722 111.424 479.087 111.129 480.336 110.544C481.586 109.959 482.688 109.101 483.559 108.031L485.638 110.11C484.55 111.411 483.183 112.452 481.64 113.156C479.976 113.924 478.16 114.309 476.328 114.281ZM491.224 113.762H488.236V90.4505H491.224V113.762ZM496.103 99.7317C497.669 98.1768 499.786 97.3042 501.992 97.3042C504.199 97.3042 506.316 98.1768 507.882 99.7317C508.647 100.54 509.246 101.492 509.642 102.532C510.038 103.573 510.225 104.681 510.191 105.794C510.225 106.907 510.038 108.016 509.642 109.056C509.246 110.096 508.647 111.048 507.882 111.856C506.316 113.411 504.199 114.284 501.992 114.284C499.786 114.284 497.669 113.411 496.103 111.856C495.337 111.048 494.739 110.096 494.343 109.056C493.946 108.016 493.76 106.907 493.794 105.794C493.76 104.681 493.946 103.573 494.343 102.532C494.739 101.492 495.337 100.54 496.103 99.7317ZM498.326 109.98C498.797 110.478 499.364 110.874 499.993 111.145C500.622 111.416 501.3 111.555 501.985 111.555C502.67 111.555 503.348 111.416 503.977 111.145C504.606 110.874 505.174 110.478 505.644 109.98C506.167 109.42 506.572 108.761 506.837 108.042C507.102 107.324 507.222 106.559 507.189 105.794C507.222 105.029 507.102 104.265 506.837 103.546C506.572 102.827 506.167 102.169 505.644 101.608C505.174 101.111 504.606 100.714 503.977 100.444C503.348 100.173 502.67 100.033 501.985 100.033C501.3 100.033 500.622 100.173 499.993 100.444C499.364 100.714 498.797 101.111 498.326 101.608C497.804 102.169 497.398 102.827 497.133 103.546C496.868 104.265 496.748 105.029 496.781 105.794C496.752 106.558 496.875 107.32 497.143 108.036C497.41 108.752 497.817 109.408 498.34 109.966L498.326 109.98ZM526.748 113.762H523.861V111.553H523.774C523.26 112.392 522.533 113.08 521.667 113.545C520.768 114.066 519.747 114.34 518.708 114.339C517.864 114.397 517.018 114.263 516.233 113.948C515.448 113.633 514.745 113.145 514.175 112.52C513.082 111.137 512.532 109.402 512.631 107.642V97.8264H515.619V107.093C515.619 110.067 516.932 111.553 519.559 111.553C520.143 111.572 520.723 111.45 521.25 111.199C521.777 110.948 522.237 110.575 522.59 110.11C523.365 109.128 523.778 107.91 523.76 106.66V97.8264H526.748V113.762ZM536.895 114.281C535.882 114.285 534.879 114.068 533.957 113.647C533.035 113.226 532.215 112.61 531.554 111.842C530.058 110.189 529.256 108.023 529.317 105.794C529.256 103.565 530.058 101.399 531.554 99.7461C532.215 98.9778 533.035 98.3619 533.957 97.9408C534.879 97.5197 535.882 97.3034 536.895 97.3068C538.031 97.2888 539.153 97.5569 540.157 98.0862C541.04 98.5305 541.788 99.2034 542.323 100.035H542.452L542.323 97.8264V90.4505H545.31V113.762H542.424V111.553H542.294C541.759 112.385 541.011 113.058 540.128 113.502C539.132 114.027 538.021 114.295 536.895 114.281ZM537.386 111.553C538.061 111.563 538.731 111.429 539.351 111.161C539.97 110.892 540.526 110.494 540.98 109.994C541.995 108.839 542.514 107.33 542.424 105.794C542.514 104.259 541.995 102.749 540.98 101.594C540.523 101.091 539.966 100.69 539.344 100.415C538.723 100.14 538.051 99.9984 537.371 99.9984C536.692 99.9984 536.02 100.14 535.399 100.415C534.777 100.69 534.22 101.091 533.763 101.594C533.259 102.162 532.872 102.825 532.624 103.543C532.376 104.261 532.273 105.021 532.319 105.78C532.273 106.538 532.376 107.298 532.624 108.017C532.872 108.735 533.259 109.397 533.763 109.966C534.218 110.474 534.777 110.879 535.402 111.153C536.027 111.427 536.704 111.564 537.386 111.553Z" fill="#5F6368"/>
</svg>
