<svg width="27" height="32" viewBox="0 0 27 32" fill="none" xmlns="http://www.w3.org/2000/svg">
<path d="M24.1676 8.26748C24.2218 7.82717 24.2501 7.37886 24.2501 6.92392C24.2501 3.09999 21.1502 0 17.3262 0H5.75484C5.02696 0 4.40553 0.525624 4.28478 1.24337L0.0210374 26.5855C-0.131962 27.4949 0.569036 28.3236 1.4911 28.3236H5.72302C6.4509 28.3236 7.08402 27.7983 7.20471 27.0805C7.20471 27.0805 7.21177 27.0384 7.22452 26.9627H7.22458L6.63483 30.4681C6.50008 31.2695 7.1179 31.9999 7.93058 31.9999H11.6329C12.2744 31.9999 12.8222 31.5366 12.9286 30.904L13.9804 24.6528C14.1617 23.5751 15.0946 22.7861 16.1873 22.7861H17.1599C22.443 22.7861 26.7258 18.5033 26.7258 13.2202C26.7258 11.1759 25.7153 9.36885 24.1676 8.26748Z" fill="#002987"/>
<path d="M24.1676 8.26562C23.5055 13.6518 18.9148 17.8225 13.3497 17.8225H10.1207C9.39186 17.8225 8.76242 18.3079 8.56499 18.9943L6.63487 30.4661C6.50005 31.2676 7.11786 31.9981 7.93055 31.9981H11.6329C12.2744 31.9981 12.8222 31.5348 12.9285 30.9021L13.9803 24.6509C14.1617 23.5733 15.0946 22.7842 16.1873 22.7842H17.1599C22.443 22.7842 26.7258 18.5014 26.7258 13.2184C26.7258 11.1741 25.7153 9.367 24.1676 8.26562Z" fill="#0085CC"/>
<path d="M10.1207 17.821H13.3497C18.9149 17.821 23.5055 13.6504 24.1676 8.26425C23.1746 7.55762 21.9611 7.14062 20.6495 7.14062H12.2214C11.2618 7.14062 10.4425 7.83356 10.2832 8.77981L8.56494 18.9928C8.76238 18.3064 9.39188 17.821 10.1207 17.821Z" fill="#00186A"/>
</svg>
