<svg width="32" height="32" viewBox="0 0 32 32" fill="none" xmlns="http://www.w3.org/2000/svg">
<path d="M26.5381 10.1426C26.5532 10.1577 26.5683 10.1653 26.5834 10.1804L26.5381 10.1426Z" fill="#253B80"/>
<path fill-rule="evenodd" clip-rule="evenodd" d="M26.5383 10.1426C26.4854 10.6414 26.3947 11.1251 26.2738 11.5937C25.8506 13.1733 25.0116 14.5866 23.8855 15.7127C22.2228 17.3755 19.9176 18.4109 17.3782 18.4109H11.3924L8.6791 28.4553C8.42969 30.0651 8.18784 31.229 8.18784 31.229C8.11981 31.5767 8.34655 31.9168 8.69421 31.9848C8.732 31.9924 8.77735 31.9999 8.81514 31.9999H14.9143C15.2469 31.9999 15.5265 31.7354 15.5492 31.4104L16.6451 23.7921H21.724C23.878 23.7921 25.8279 22.938 27.2412 21.5625C28.6621 20.1794 29.5388 18.2673 29.5388 16.1586C29.5388 14.9721 29.2592 13.8459 28.7603 12.8407C28.2464 11.7978 27.4982 10.8908 26.5837 10.1804L26.5383 10.1426Z" fill="#179BD7"/>
<path d="M10.0395 28.0094C10.0168 28.1606 9.99413 28.3118 9.97145 28.4554H8.67906H2.64032V28.4478C2.61009 28.4478 2.57986 28.4478 2.54963 28.4478C2.20197 28.3949 1.96012 28.0699 2.00546 27.7222L5.81463 0.597071C5.8373 0.264525 6.11694 0 6.45705 0H17.3782C19.9252 0 22.2228 1.03543 23.893 2.69816C25.5558 4.36089 26.5836 6.66604 26.5836 9.20548C26.5836 9.52291 26.5685 9.83278 26.5383 10.1427C26.4854 10.6415 26.3947 11.1252 26.2738 11.5938C25.8505 13.1734 25.0116 14.5867 23.8855 15.7128C22.2228 17.3755 19.9176 18.411 17.3782 18.411H11.3923L10.0697 27.8583C10.0621 27.9112 10.0546 27.9641 10.0395 28.0094Z" fill="#253B80"/>
</svg>
