<svg width="16" height="16" viewBox="0 0 16 16" fill="none" xmlns="http://www.w3.org/2000/svg">
<mask id="mask0_60_1437" style="mask-type:luminance" maskUnits="userSpaceOnUse" x="0" y="0" width="16" height="16">
<path d="M16 0H0V16H16V0Z" fill="white"/>
</mask>
<g mask="url(#mask0_60_1437)">
<path fill-rule="evenodd" clip-rule="evenodd" d="M6.884 14.1496H1.2655C1.22608 14.1493 1.18836 14.1335 1.1605 14.1056C1.13261 14.0778 1.1168 14.04 1.1165 14.0006V12.9201C1.1165 12.3016 1.558 11.7571 2.238 11.2941C3.4525 10.4651 5.418 9.94412 7.628 9.94412C7.9925 9.94412 8.3505 9.95912 8.7005 9.98662C8.77382 9.99292 8.84766 9.98465 8.91778 9.96228C8.98789 9.93992 9.05289 9.90391 9.10902 9.85633C9.16516 9.80874 9.21133 9.75053 9.24488 9.68502C9.27842 9.61952 9.29868 9.54803 9.30448 9.47467C9.31029 9.40131 9.30152 9.32752 9.27869 9.25756C9.25586 9.1876 9.21942 9.12285 9.17146 9.06703C9.1235 9.01121 9.06497 8.96543 8.99925 8.93232C8.93352 8.89922 8.8619 8.87944 8.7885 8.87412C8.4105 8.84346 8.02383 8.82812 7.6285 8.82812C5.1565 8.82812 2.9675 9.44663 1.609 10.3731C0.57 11.0796 9.90582e-08 11.9781 9.90582e-08 12.9201V14.0001C-6.56638e-05 14.1662 0.0326133 14.3307 0.0961683 14.4842C0.159723 14.6377 0.252908 14.7771 0.370394 14.8946C0.487879 15.012 0.627362 15.1052 0.780866 15.1686C0.934369 15.2321 1.09888 15.2648 1.265 15.2646C2.765 15.2646 6.8835 15.2646 6.8835 15.2646C7.03156 15.2646 7.17355 15.2058 7.27824 15.1011C7.38293 14.9964 7.44175 14.8544 7.44175 14.7064C7.44175 14.5583 7.38293 14.4163 7.27824 14.3116C7.17355 14.2069 7.03156 14.1481 6.8835 14.1481L6.884 14.1496Z" fill="#717171"/>
<path fill-rule="evenodd" clip-rule="evenodd" d="M7.62794 1.22209e-07C6.8184 -0.000197658 6.02698 0.239672 5.35377 0.689274C4.68056 1.13888 4.15579 1.77802 3.84583 2.52587C3.53588 3.27372 3.45465 4.09669 3.61242 4.89071C3.7702 5.68472 4.15989 6.41412 4.73222 6.98666C5.30455 7.55919 6.0338 7.94915 6.82776 8.10722C7.62172 8.26529 8.44472 8.18436 9.19268 7.87468C9.94065 7.56499 10.58 7.04046 11.0298 6.36742C11.4797 5.69437 11.7198 4.90304 11.7199 4.0935C11.7197 3.00818 11.2885 1.96736 10.5212 1.19978C9.75392 0.432202 8.71326 0.000662761 7.62794 1.22209e-07ZM7.62794 1.1165C8.21663 1.1165 8.79211 1.29107 9.28159 1.61813C9.77107 1.94519 10.1526 2.41006 10.3779 2.95394C10.6031 3.49783 10.6621 4.0963 10.5472 4.67369C10.4324 5.25107 10.1489 5.78143 9.73264 6.1977C9.31637 6.61397 8.78601 6.89746 8.20862 7.01231C7.63124 7.12716 7.03276 7.06821 6.48888 6.84293C5.945 6.61764 5.48013 6.23614 5.15307 5.74665C4.82601 5.25717 4.65144 4.6817 4.65144 4.093C4.65183 3.3037 4.96556 2.54685 5.52367 1.98874C6.08179 1.43062 6.83864 1.1169 7.62794 1.1165Z" fill="#717171"/>
<path fill-rule="evenodd" clip-rule="evenodd" d="M12.5785 14.1082C13.1985 14.2018 13.8323 14.0973 14.3895 13.8096C14.9466 13.5219 15.3988 13.0657 15.6814 12.5059C15.9641 11.9462 16.0628 11.3115 15.9636 10.6924C15.8644 10.0732 15.5723 9.50118 15.1289 9.05779C14.6855 8.61439 14.1135 8.32227 13.4943 8.22306C12.8751 8.12385 12.2405 8.22261 11.6807 8.50527C11.121 8.78793 10.6648 9.24006 10.3771 9.79722C10.0894 10.3544 9.98489 10.9881 10.0785 11.6082L8.35051 13.3357C8.24583 13.4405 8.18702 13.5825 8.18701 13.7307V15.4417C8.18714 15.5896 8.24598 15.7315 8.35059 15.8361C8.45521 15.9407 8.59706 15.9995 8.74501 15.9997H10.456C10.6041 15.9997 10.7462 15.9409 10.851 15.8362L12.5785 14.1082ZM12.54 12.9622C12.4455 12.937 12.3461 12.9371 12.2517 12.9625C12.1573 12.9878 12.0712 13.0376 12.002 13.1067L10.225 14.8837H9.30251V13.9617L11.0795 12.1847C11.1486 12.1155 11.1983 12.0294 11.2237 11.935C11.2491 11.8406 11.2492 11.7411 11.224 11.6467C11.1177 11.2507 11.1451 10.8308 11.3018 10.4519C11.4585 10.0731 11.7359 9.75662 12.0909 9.55155C12.4459 9.34648 12.8587 9.2643 13.2651 9.31776C13.6716 9.37122 14.0491 9.55733 14.339 9.84722C14.6289 10.1371 14.815 10.5146 14.8684 10.921C14.9219 11.3275 14.8397 11.7403 14.6346 12.0953C14.4296 12.4503 14.1131 12.7276 13.7342 12.8844C13.3554 13.0411 12.9355 13.0685 12.5395 12.9622H12.54Z" fill="#717171"/>
<path fill-rule="evenodd" clip-rule="evenodd" d="M12.4521 11.735C12.3393 11.6221 12.2626 11.4784 12.2315 11.322C12.2004 11.1656 12.2165 11.0035 12.2775 10.8561C12.3386 10.7088 12.4419 10.5829 12.5746 10.4943C12.7072 10.4057 12.8631 10.3584 13.0226 10.3584C13.182 10.3584 13.338 10.4057 13.4706 10.4943C13.6032 10.5829 13.7066 10.7088 13.7676 10.8561C13.8287 11.0035 13.8447 11.1656 13.8136 11.322C13.7825 11.4784 13.7058 11.6221 13.5931 11.735C13.4417 11.8862 13.2365 11.9712 13.0226 11.9712C12.8086 11.9712 12.6034 11.8862 12.4521 11.735Z" fill="#717171"/>
</g>
</svg>
