<svg width="32" height="32" viewBox="0 0 32 32" fill="none" xmlns="http://www.w3.org/2000/svg">
<path fill-rule="evenodd" clip-rule="evenodd" d="M28.1134 3.41753C28.1134 2.63133 27.7877 1.87732 27.2079 1.3214C26.6281 0.765416 25.8418 0.453125 25.0219 0.453125C19.6998 0.453125 8.86698 0.453125 3.54494 0.453125C2.72498 0.453125 1.93865 0.765416 1.3589 1.3214C0.779138 1.87732 0.453438 2.63133 0.453438 3.41753V5.41565H28.1134V3.41753Z" fill="#FFDB4E"/>
<path fill-rule="evenodd" clip-rule="evenodd" d="M30.8872 23.1646C28.9103 23.1646 27.9177 25.5602 29.3159 26.9584C29.5732 27.2157 29.5732 27.6343 29.3159 27.8917L27.8964 29.3112C27.639 29.5685 27.2203 29.5685 26.963 29.3112C25.5648 27.913 23.1693 28.9057 23.1693 30.8825C23.1693 31.2478 22.874 31.5419 22.5099 31.5419H20.5022C20.1381 31.5419 19.8428 31.2478 19.8428 30.8825C19.8428 28.9033 17.4485 27.9119 16.0491 29.3112C15.7918 29.5685 15.3743 29.5685 15.117 29.3112L13.6963 27.8917C13.439 27.6343 13.439 27.2157 13.6963 26.9584C15.0945 25.5602 14.1031 23.1646 12.125 23.1646C11.7609 23.1646 11.4656 22.8694 11.4656 22.5053V20.4976C11.4656 20.1335 11.7609 19.8382 12.125 19.8382C14.1031 19.8382 15.0945 17.4427 13.6963 16.0445C13.439 15.7872 13.439 15.3697 13.6963 15.1124L15.117 13.6916C15.3743 13.4343 15.7918 13.4343 16.0491 13.6916C17.4473 15.0898 19.8428 14.0984 19.8428 12.1203C19.8428 11.7563 20.1381 11.4609 20.5022 11.4609H22.5099C22.874 11.4609 23.1693 11.7563 23.1693 12.1203C23.1693 14.0984 25.5648 15.0898 26.963 13.6916C27.2203 13.4343 27.639 13.4343 27.8964 13.6916L29.3159 15.1124C29.5732 15.3697 29.5732 15.7872 29.3159 16.0445C27.9177 17.4427 28.9103 19.8382 30.8872 19.8382C31.2525 19.8382 31.5466 20.1335 31.5466 20.4976V22.5053C31.5466 22.8694 31.2525 23.1646 30.8872 23.1646ZM21.5067 26.8132C24.4312 26.8132 26.8178 24.4266 26.8178 21.502C26.8178 18.5762 24.4312 16.1908 21.5067 16.1908C18.5809 16.1908 16.1955 18.5762 16.1955 21.502C16.1955 24.4266 18.5809 26.8132 21.5067 26.8132Z" fill="#FF6677"/>
<path d="M18.915 22.9642C19.3085 22.9642 19.6275 22.6451 19.6275 22.2516C19.6275 21.8581 19.3085 21.5391 18.915 21.5391C18.5214 21.5391 18.2024 21.8581 18.2024 22.2516C18.2024 22.6451 18.5214 22.9642 18.915 22.9642Z" fill="white"/>
<path d="M21.5061 21.4017C21.8996 21.4017 22.2186 21.0826 22.2186 20.6891C22.2186 20.2956 21.8996 19.9766 21.5061 19.9766C21.1125 19.9766 20.7935 20.2956 20.7935 20.6891C20.7935 21.0826 21.1125 21.4017 21.5061 21.4017Z" fill="white"/>
<path d="M24.0972 22.9642C24.4907 22.9642 24.8097 22.6451 24.8097 22.2516C24.8097 21.8581 24.4907 21.5391 24.0972 21.5391C23.7036 21.5391 23.3846 21.8581 23.3846 22.2516C23.3846 22.6451 23.7036 22.9642 24.0972 22.9642Z" fill="white"/>
<path fill-rule="evenodd" clip-rule="evenodd" d="M13.8478 24.9926H3.54306C2.60573 24.9926 1.70734 24.6342 1.04453 23.9987C0.374802 23.3564 0 22.4848 0 21.5766V3.41785V3.41603C0 1.5347 1.58115 0 3.54306 0H3.54494H25.0221H25.0237C26.9856 0 28.5667 1.53464 28.5668 3.41584V3.41785V13.7258L29.6365 14.7964C30.0709 15.2308 30.0709 15.9354 29.6365 16.3697C28.5236 17.4826 29.3137 19.3894 30.8872 19.3894C31.5036 19.3894 32 19.8877 32 20.5022V22.5099C32 23.1244 31.5036 23.6227 30.8872 23.6227C29.3137 23.6227 28.5236 25.5295 29.6365 26.6424C30.0707 27.0765 30.0707 27.7828 29.6365 28.2169L28.2169 29.6365C27.7828 30.0707 27.0765 30.0707 26.6424 29.6365C25.5295 28.5236 23.6227 29.3137 23.6227 30.8872C23.6227 31.5036 23.1244 32 22.5099 32H20.5022C19.8877 32 19.3894 31.5036 19.3894 30.8872C19.3894 29.3117 17.4836 28.5227 16.3697 29.6365C15.9354 30.0709 15.2308 30.0709 14.7965 29.6367L13.3757 28.2169C12.9415 27.7828 12.9415 27.0765 13.3757 26.6424C13.8509 26.1671 13.9793 25.5471 13.8478 24.9926ZM0.906883 5.86941V21.5766C0.906883 22.2397 1.18316 22.8751 1.67223 23.3441C2.16823 23.8198 2.84152 24.0857 3.54306 24.0857H13.3228C13.0195 23.8033 12.6094 23.6227 12.125 23.6227C11.5105 23.6227 11.0121 23.1244 11.0121 22.5099V20.5022C11.0121 19.8877 11.5105 19.3894 12.125 19.3894C13.6994 19.3894 14.4886 17.4826 13.3757 16.3697C12.9413 15.9354 12.9413 15.2308 13.3757 14.7964L14.7964 13.3757C15.2308 12.9413 15.9354 12.9413 16.3697 13.3757C17.4826 14.4886 19.3894 13.6994 19.3894 12.125C19.3894 11.5105 19.8877 11.0121 20.5022 11.0121H22.5099C23.1244 11.0121 23.6227 11.5105 23.6227 12.125C23.6227 13.6994 25.5295 14.4886 26.6424 13.3757C26.9183 13.0998 27.304 12.9992 27.6599 13.0739V5.86941H0.906883ZM0.906883 3.41785V4.96253H27.6599V3.41785V3.41603C27.6594 2.75304 27.3831 2.11789 26.8941 1.64897C26.3981 1.17344 25.7251 0.907336 25.0237 0.906883H25.0219H3.54494H3.54306C2.84172 0.907336 2.16868 1.17344 1.67275 1.64897C1.18374 2.11789 0.907401 2.75304 0.906883 3.41603V3.41785ZM30.8872 22.7159C31.0013 22.7159 31.0931 22.6237 31.0931 22.5099V20.5022C31.0931 20.3885 31.0013 20.2963 30.8872 20.2963C28.5069 20.2963 27.3117 17.412 28.9952 15.7285C29.0756 15.6482 29.0756 15.5179 28.9952 15.4376L27.5757 14.0169C27.4952 13.9364 27.3642 13.9364 27.2836 14.0169C25.6002 15.7004 22.7159 14.5067 22.7159 12.125C22.7159 12.0113 22.6237 11.919 22.5099 11.919H20.5022C20.3885 11.919 20.2963 12.0113 20.2963 12.125C20.2963 14.5067 17.412 15.7004 15.7285 14.0169C15.6482 13.9366 15.5179 13.9366 15.4376 14.0169L14.0169 15.4376C13.9366 15.5179 13.9366 15.6482 14.0169 15.7285C15.7004 17.412 14.5067 20.2963 12.125 20.2963C12.0113 20.2963 11.919 20.3885 11.919 20.5022V22.5099C11.919 22.6237 12.0113 22.7159 12.125 22.7159C14.5067 22.7159 15.7004 25.6002 14.0169 27.2836C13.9364 27.3642 13.9364 27.4952 14.0169 27.5757L15.4376 28.9952C15.5179 29.0756 15.6482 29.0756 15.7285 28.9952C17.4134 27.3103 20.2963 28.504 20.2963 30.8872C20.2963 31.0013 20.3885 31.0931 20.5022 31.0931H22.5099C22.6237 31.0931 22.7159 31.0013 22.7159 30.8872C22.7159 28.5069 25.6002 27.3117 27.2836 28.9952C27.3642 29.0758 27.4952 29.0758 27.5757 28.9952L28.9952 27.5757C29.0758 27.4952 29.0758 27.3642 28.9952 27.2836C27.3117 25.6002 28.5069 22.7159 30.8872 22.7159ZM21.5067 27.2713C18.331 27.2713 15.7421 24.6809 15.7421 21.5067C15.7421 18.331 18.331 15.7421 21.5067 15.7421C24.6809 15.7421 27.2713 18.331 27.2713 21.5067C27.2713 24.6809 24.6809 27.2713 21.5067 27.2713ZM21.5067 26.3644C24.1815 26.3644 26.3644 24.1815 26.3644 21.5067C26.3644 18.8306 24.1815 16.6489 21.5067 16.6489C18.8306 16.6489 16.6489 18.8306 16.6489 21.5067C16.6489 24.1815 18.8306 26.3644 21.5067 26.3644ZM18.4615 23.3257C18.043 23.1486 17.749 22.7341 17.749 22.2513C17.749 21.7686 18.043 21.354 18.4615 21.1769V19.4008C18.4615 19.1506 18.6647 18.9474 18.915 18.9474C19.1652 18.9474 19.3684 19.1506 19.3684 19.4008V21.1769C19.7869 21.354 20.081 21.7686 20.081 22.2513C20.081 22.7341 19.7869 23.1486 19.3684 23.3257V23.6113C19.3684 23.8616 19.1652 24.0648 18.915 24.0648C18.6647 24.0648 18.4615 23.8616 18.4615 23.6113V23.3257ZM18.915 21.9922C18.772 21.9922 18.6559 22.1083 18.6559 22.2513C18.6559 22.3943 18.772 22.5104 18.915 22.5104C19.058 22.5104 19.1741 22.3943 19.1741 22.2513C19.1741 22.1083 19.058 21.9922 18.915 21.9922ZM23.6437 23.3257C23.2252 23.1486 22.9312 22.7341 22.9312 22.2513C22.9312 21.7686 23.2252 21.354 23.6437 21.1769V19.4008C23.6437 19.1506 23.8469 18.9474 24.0972 18.9474C24.3474 18.9474 24.5506 19.1506 24.5506 19.4008V21.1769C24.9691 21.354 25.2632 21.7686 25.2632 22.2513C25.2632 22.7341 24.9691 23.1486 24.5506 23.3257V23.6113C24.5506 23.8616 24.3474 24.0648 24.0972 24.0648C23.8469 24.0648 23.6437 23.8616 23.6437 23.6113V23.3257ZM24.0972 21.9922C23.9541 21.9922 23.8381 22.1083 23.8381 22.2513C23.8381 22.3943 23.9541 22.5104 24.0972 22.5104C24.2402 22.5104 24.3563 22.3943 24.3563 22.2513C24.3563 22.1083 24.2402 21.9922 24.0972 21.9922ZM21.0526 21.7708C20.6341 21.5937 20.3401 21.1791 20.3401 20.6964C20.3401 20.2136 20.6341 19.799 21.0526 19.622V19.4008C21.0526 19.1506 21.2558 18.9474 21.5061 18.9474C21.7563 18.9474 21.9595 19.1506 21.9595 19.4008V19.622C22.378 19.799 22.6721 20.2136 22.6721 20.6964C22.6721 21.1791 22.378 21.5937 21.9595 21.7708V23.6113C21.9595 23.8616 21.7563 24.0648 21.5061 24.0648C21.2558 24.0648 21.0526 23.8616 21.0526 23.6113V21.7708ZM21.5061 20.4372C21.363 20.4372 21.247 20.5533 21.247 20.6964C21.247 20.8394 21.363 20.9555 21.5061 20.9555C21.6491 20.9555 21.7652 20.8394 21.7652 20.6964C21.7652 20.5533 21.6491 20.4372 21.5061 20.4372ZM20.5723 2.19757C20.9794 2.19757 21.3099 2.52787 21.3099 2.93474C21.3099 3.34154 20.9794 3.67184 20.5723 3.67184C20.1652 3.67184 19.8347 3.34154 19.8347 2.93474C19.8347 2.52787 20.1652 2.19757 20.5723 2.19757ZM23.0754 2.19757C23.4826 2.19757 23.8131 2.52787 23.8131 2.93474C23.8131 3.34154 23.4826 3.67184 23.0754 3.67184C22.6684 3.67184 22.3379 3.34154 22.3379 2.93474C22.3379 2.52787 22.6684 2.19757 23.0754 2.19757ZM25.5786 2.19757C25.9857 2.19757 26.3162 2.52787 26.3162 2.93474C26.3162 3.34154 25.9857 3.67184 25.5786 3.67184C25.1715 3.67184 24.841 3.34154 24.841 2.93474C24.841 2.52787 25.1715 2.19757 25.5786 2.19757Z" fill="black"/>
</svg>
