<svg width="32" height="32" viewBox="0 0 32 32" fill="none" xmlns="http://www.w3.org/2000/svg">
<path fill-rule="evenodd" clip-rule="evenodd" d="M14.5174 1.58081C14.5174 0.968937 14.0177 0.46875 13.4064 0.46875H2.7681C2.15679 0.46875 1.65717 0.968875 1.65717 1.58081V6.334C1.65717 6.94588 2.15685 7.44606 2.7681 7.44606H13.4064C14.0177 7.44606 14.5173 6.94594 14.5173 6.334L14.5174 1.58081Z" fill="#FFDB4E"/>
<path fill-rule="evenodd" clip-rule="evenodd" d="M23.467 11.2795C23.2633 10.5133 22.8664 9.85175 22.3437 9.32856C21.2805 8.26793 19.6983 7.78731 18.1461 8.20412C17.3807 8.40806 16.718 8.80537 16.197 9.32856C15.1375 10.3927 14.6573 11.9765 15.0719 13.5302C15.4777 15.0412 16.6294 16.1533 18.0239 16.5719C19.0728 16.9195 20.71 17.7939 22.2108 15.6088C23.095 14.7929 23.6177 13.6331 23.6159 12.4057C23.6159 12.0332 23.568 11.6555 23.467 11.2795Z" fill="#B1D7FE"/>
<path fill-rule="evenodd" clip-rule="evenodd" d="M9.01217 17.4882C7.74886 15.296 4.94749 14.544 2.75749 15.8104C0.567487 17.0767 -0.183763 19.879 1.0813 22.0711C2.34461 24.265 5.14599 25.0152 7.33599 23.7489C9.52605 22.4844 10.2773 19.6803 9.01217 17.4882Z" fill="#FF8389"/>
<path fill-rule="evenodd" clip-rule="evenodd" d="M6.69639 18.8298C6.17014 17.9164 5.00602 17.6042 4.09352 18.1309C3.18277 18.6577 2.87095 19.8247 3.3972 20.7363C3.92345 21.6479 5.08758 21.9601 6.00008 21.4333C6.91077 20.9066 7.22264 19.7414 6.69639 18.8298Z" fill="#E7ECF1"/>
<path fill-rule="evenodd" clip-rule="evenodd" d="M23.0099 17.9101V16.8477C23.0099 16.1844 22.6538 15.7694 22.2108 15.608C21.4825 15.3402 20.5169 15.7534 20.5169 16.8477V12.5148C20.5169 10.7555 18.0239 10.7555 18.0239 12.5148V16.571V21.4714C18.0239 22.4185 17.8237 23.1333 17.184 22.3369C16.1971 20.9003 15.4724 20.1182 14.0868 20.3593C13.2735 20.503 12.9634 21.2585 13.5198 21.9751L17.4675 27.7712C18.3127 29.0144 18.4296 29.8055 18.4296 30.914C18.4296 31.2527 18.7078 31.5312 19.048 31.5312H26.4331C26.7733 31.5312 27.0515 31.2527 27.0515 30.914V29.7079V29.002C27.0515 27.3987 27.7832 27.5495 27.9941 25.5897C27.9941 23.3833 27.9941 21.1788 27.9941 18.9724C27.9941 17.213 25.5028 17.2112 25.5028 18.9724V17.91C25.5029 16.1507 23.0099 16.1507 23.0099 17.9101Z" fill="#FFECE4"/>
<path fill-rule="evenodd" clip-rule="evenodd" d="M14.5174 1.58081C14.5174 0.968937 14.0177 0.46875 13.4064 0.46875H11.1384C11.7497 0.46875 12.2494 0.968875 12.2494 1.58081V2.80813V5.05525V6.334C12.2494 6.94588 11.7497 7.44606 11.1384 7.44606H13.4064C14.0177 7.44606 14.5174 6.94594 14.5174 6.334V1.58081Z" fill="#FFAF5D"/>
<path fill-rule="evenodd" clip-rule="evenodd" d="M23.4671 11.2795C23.2633 10.5133 22.8664 9.85175 22.3437 9.32856C21.2806 8.26793 19.6983 7.78731 18.1461 8.20412C17.6057 8.34781 17.1184 8.589 16.6949 8.90112C18.1709 8.589 19.6504 9.07493 20.6586 10.0823C21.1813 10.6037 21.5783 11.2671 21.782 12.0315C21.883 12.4092 21.9308 12.7871 21.9308 13.1577C21.9326 14.0871 21.6331 14.9774 21.1051 15.7082C21.4347 15.5096 21.8511 15.4759 22.2108 15.6089C23.0949 14.793 23.6176 13.6331 23.6158 12.4058C23.6159 12.0332 23.5681 11.6555 23.4671 11.2795Z" fill="#8BC6F8"/>
<path fill-rule="evenodd" clip-rule="evenodd" d="M27.9942 18.9686C27.9942 17.791 26.8779 17.4007 26.139 17.7998C26.504 17.9967 26.7752 18.3868 26.7752 18.9686V25.5859C26.5643 27.5457 25.8325 27.3949 25.8325 28.9982V29.7041V30.9102C25.8325 31.2489 25.5544 31.5274 25.2142 31.5274H26.4332C26.7734 31.5274 27.0516 31.2489 27.0516 30.9102V29.7041V28.9982C27.0516 27.3949 27.7834 27.5457 27.9942 25.5859C27.9942 24.3284 27.9942 23.0709 27.9942 21.8152V21.4144V18.9686H27.9942Z" fill="#FFDDCE"/>
<path fill-rule="evenodd" clip-rule="evenodd" d="M30.551 12.4061C30.551 11.4359 29.7661 10.6484 28.7969 10.6484C27.8277 10.6484 27.041 11.4359 27.041 12.4061C27.041 13.3762 27.8276 14.1619 28.7969 14.1619C29.7661 14.1619 30.551 13.3763 30.551 12.4061Z" fill="#FF8389"/>
<path fill-rule="evenodd" clip-rule="evenodd" d="M30.3065 1.98014C29.2611 0.933703 27.5636 0.933703 26.5182 1.98014C25.4711 3.02658 25.4711 4.72564 26.5182 5.77208C27.5636 6.82027 29.2611 6.82027 30.3065 5.77208C31.3537 4.72564 31.3537 3.02652 30.3065 1.98014Z" fill="#FF8389"/>
<path fill-rule="evenodd" clip-rule="evenodd" d="M30.3065 5.77228C31.3537 4.72584 31.3537 3.02678 30.3065 1.98034C29.5411 1.21415 28.4248 1.0084 27.4733 1.3649C27.934 1.47665 28.3716 1.71253 28.7331 2.07434C29.7785 3.12078 29.7785 4.81984 28.7331 5.86628C28.4532 6.14653 28.1254 6.35221 27.7781 6.48171C28.6569 6.69634 29.6208 6.45865 30.3065 5.77228Z" fill="#FF6677"/>
<path fill-rule="evenodd" clip-rule="evenodd" d="M30.551 12.4061C30.551 11.4359 29.7661 10.6484 28.7969 10.6484C28.4762 10.6484 28.1749 10.7353 27.9163 10.8861C28.5399 11.1539 28.9776 11.7764 28.9776 12.5001C28.9776 13.1474 28.625 13.7149 28.1023 14.0183C28.3149 14.1105 28.5488 14.1619 28.7969 14.1619C29.7661 14.1619 30.551 13.3763 30.551 12.4061Z" fill="#FF6677"/>
<path fill-rule="evenodd" clip-rule="evenodd" d="M7.19606 17.5312C8.46118 19.7234 7.70987 22.5274 5.51987 23.792C5.11237 24.0279 4.68181 24.1946 4.24587 24.2939C5.27181 24.4766 6.36324 24.3117 7.33599 23.7494C9.52599 22.4849 10.2773 19.6808 9.01218 17.4887C7.98449 15.7044 5.93799 14.8744 4.03149 15.3089C5.31431 15.5377 6.49262 16.311 7.19606 17.5312Z" fill="#FF6677"/>
<path d="M12.2919 2.33594H7.39801C7.13907 2.33594 6.92926 2.54581 6.92926 2.80469C6.92926 3.06356 7.13907 3.27344 7.39801 3.27344H12.2919C12.5509 3.27344 12.7607 3.06356 12.7607 2.80469C12.7607 2.54581 12.5509 2.33594 12.2919 2.33594Z" fill="black"/>
<path d="M3.55664 3.27344H4.98295C5.24189 3.27344 5.4517 3.06356 5.4517 2.80469C5.4517 2.54581 5.24189 2.33594 4.98295 2.33594H3.55664C3.2977 2.33594 3.08789 2.54581 3.08789 2.80469C3.08789 3.06356 3.29777 3.27344 3.55664 3.27344Z" fill="black"/>
<path d="M3.55664 5.52344H8.45052C8.70945 5.52344 8.91927 5.31356 8.91927 5.05469C8.91927 4.79581 8.70945 4.58594 8.45052 4.58594H3.55664C3.2977 4.58594 3.08789 4.79581 3.08789 5.05469C3.08789 5.31356 3.29777 5.52344 3.55664 5.52344Z" fill="black"/>
<path d="M12.2919 4.58594H10.8655C10.6066 4.58594 10.3968 4.79581 10.3968 5.05469C10.3968 5.31356 10.6066 5.52344 10.8655 5.52344H12.2919C12.5509 5.52344 12.7607 5.31356 12.7607 5.05469C12.7607 4.79581 12.5509 4.58594 12.2919 4.58594Z" fill="black"/>
<path d="M28.7969 10.1786C27.7309 10.1786 26.838 10.9329 26.6222 11.9362H24.0616C24.0359 11.676 23.9892 11.4158 23.9199 11.1576C23.7394 10.4823 23.421 9.86806 22.9902 9.34387L26.2096 6.12138C26.8011 6.70275 27.5819 7.02306 28.4124 7.02306C29.2536 7.02306 30.0442 6.69494 30.6378 6.09975C31.2329 5.50513 31.5606 4.714 31.5606 3.87219C31.5606 3.03038 31.2329 2.23931 30.6381 1.64494C30.0439 1.05019 29.2535 0.722687 28.4124 0.722687C27.5712 0.722687 26.7809 1.05025 26.1867 1.64494C25.5917 2.23956 25.2641 3.03056 25.2641 3.87219C25.2641 4.40263 25.3945 4.91281 25.6395 5.36637C25.6365 5.36925 25.6332 5.37175 25.6303 5.37475L22.3265 8.68169C22.1238 8.51562 21.9069 8.364 21.6754 8.23038C20.5621 7.58763 19.2656 7.41725 18.025 7.75044C17.3398 7.93381 16.7289 8.25731 16.2144 8.68169L14.7297 7.19569C14.8916 6.94762 14.9862 6.65169 14.9862 6.33388V1.58075C14.9861 0.709125 14.2775 0 13.4064 0H2.76811C1.89711 0 1.18843 0.709125 1.18843 1.58075V6.33394C1.18843 7.20556 1.89711 7.91469 2.76811 7.91469H6.46243C6.72136 7.91469 6.93118 7.70481 6.93118 7.44594C6.93118 7.18706 6.72136 6.97719 6.46243 6.97719H2.76811C2.41399 6.97719 2.12593 6.68863 2.12593 6.33394V1.58075C2.12593 1.22606 2.41399 0.9375 2.76811 0.9375H13.4064C13.7606 0.9375 14.0486 1.22606 14.0486 1.58075V6.33394C14.0486 6.68863 13.7606 6.97719 13.4064 6.97719H8.62768C8.36874 6.97719 8.15893 7.18706 8.15893 7.44594C8.15893 7.70481 8.36874 7.91469 8.62768 7.91469H13.4064C13.6182 7.91469 13.8201 7.8725 14.0048 7.79656L15.5532 9.34644C14.6753 10.4187 14.2682 11.8546 14.5399 13.2955L8.9228 16.543C8.92236 16.5432 8.92205 16.5436 8.92161 16.5438C8.26036 15.7473 7.37261 15.1742 6.35236 14.9008C5.05018 14.5517 3.69005 14.7313 2.52286 15.4061C0.112551 16.7999 -0.716324 19.8956 0.675113 22.3066C1.34849 23.4761 2.43674 24.3125 3.73936 24.6619C4.17418 24.7785 4.6153 24.8362 5.05368 24.8362C5.92868 24.8362 6.79249 24.6063 7.57061 24.1564C9.96055 22.7761 10.7947 19.7226 9.45299 17.3195L14.8109 14.2219C15.3127 15.4613 16.2976 16.4283 17.5552 16.9062V21.2232V21.4716C17.5552 21.7079 17.5421 21.8811 17.5252 22.0061C16.5714 20.6249 15.6932 19.6043 14.0053 19.8979C13.4519 19.9957 13.0331 20.3149 12.8562 20.7738C12.6759 21.2416 12.7794 21.779 13.1402 22.2504L17.0799 28.0349C17.8338 29.1438 17.961 29.8192 17.961 30.9141C17.961 31.5129 18.4487 32 19.0481 32H26.4332C27.0327 32 27.5204 31.5129 27.5204 30.9141V29.0022C27.5204 28.3069 27.6655 28.0243 27.8663 27.6332C28.0802 27.2166 28.3466 26.698 28.4604 25.6399C28.4621 25.6233 28.4631 25.6066 28.4631 25.5898V23.9847C28.4631 23.7258 28.2532 23.5159 27.9943 23.5159C27.7354 23.5159 27.5256 23.7258 27.5256 23.9847V25.5643C27.4292 26.4319 27.2274 26.8249 27.0323 27.205C26.8114 27.6353 26.5829 28.0802 26.5829 29.0021V30.914C26.5829 30.9945 26.5144 31.0624 26.4332 31.0624H19.048C18.9669 31.0624 18.8984 30.9944 18.8984 30.914C18.8984 29.6726 18.7371 28.8049 17.855 27.5074L13.9073 21.7113C13.9018 21.7033 13.8961 21.6954 13.8901 21.6877C13.7281 21.4791 13.6701 21.2688 13.731 21.1108C13.7869 20.9659 13.9462 20.8603 14.1672 20.8213C15.2494 20.6328 15.8289 21.1921 16.7977 22.6024C16.8042 22.6121 16.8113 22.6214 16.8186 22.6306C17.1722 23.0708 17.526 23.2326 17.8702 23.1116C18.3007 22.9601 18.4927 22.4543 18.4927 21.4715V21.2232V12.5149C18.4927 11.8869 18.9116 11.6641 19.2704 11.6641C19.6292 11.6641 20.0481 11.8869 20.0481 12.5149V20.5989C20.0481 20.8578 20.2579 21.0677 20.5169 21.0677C20.7758 21.0677 20.9856 20.8578 20.9856 20.5989V16.8478C20.9856 16.2198 21.4046 15.997 21.7634 15.997C21.8498 15.997 21.9397 16.0103 22.0264 16.0387C22.0404 16.0447 22.0547 16.0501 22.0691 16.0546C22.3242 16.155 22.5411 16.3963 22.5411 16.8478V21.225C22.5411 21.4839 22.7509 21.6938 23.0099 21.6938C23.2688 21.6938 23.4786 21.4839 23.4786 21.225V17.9102C23.4786 17.2822 23.8976 17.0594 24.2564 17.0594C24.6151 17.0594 25.034 17.2822 25.034 17.9102V21.8511C25.034 22.1099 25.2439 22.3198 25.5028 22.3198C25.7617 22.3198 25.9715 22.1099 25.9715 21.8511V18.9726C25.9715 18.3441 26.3898 18.1211 26.748 18.1211C26.9514 18.1211 27.1465 18.1949 27.2832 18.3237C27.4439 18.4749 27.5253 18.6932 27.5253 18.9725V21.8191C27.5253 22.0779 27.7351 22.2878 27.9941 22.2878C28.253 22.2878 28.4628 22.0779 28.4628 21.8191V18.9725C28.4628 17.798 27.6001 17.1835 26.7479 17.1835C26.4583 17.1835 26.1676 17.2548 25.9099 17.3947C25.6982 16.557 24.9736 16.1218 24.2562 16.1218C23.9662 16.1218 23.6751 16.1931 23.417 16.3331C23.3317 15.9949 23.1629 15.7222 22.9445 15.5174C23.5841 14.7617 23.9688 13.8386 24.0625 12.8737H26.6221C26.838 13.8759 27.7308 14.6296 28.7967 14.6296C30.0224 14.6296 31.0196 13.6316 31.0196 12.4049C31.0197 11.1773 30.0226 10.1786 28.7969 10.1786ZM26.8496 2.30787C26.8497 2.30781 26.8498 2.30769 26.8499 2.30763C27.2669 1.89019 27.8219 1.66025 28.4124 1.66025C29.0029 1.66025 29.5578 1.89019 29.9751 2.30787C30.393 2.72544 30.6231 3.281 30.6231 3.87225C30.6231 4.4635 30.3929 5.01913 29.9746 5.43719C29.5576 5.85531 29.0027 6.08563 28.4124 6.08563C27.822 6.08563 27.2672 5.85537 26.8496 5.43669C26.4317 5.01912 26.2016 4.46356 26.2016 3.87231C26.2016 3.28106 26.4317 2.72537 26.8496 2.30787ZM7.10161 23.3446C7.10149 23.3447 7.10143 23.3447 7.10136 23.3447C6.15036 23.8947 5.04255 24.0408 3.98224 23.7564C2.92174 23.472 2.0358 22.791 1.4873 21.8384C0.353863 19.8744 1.02893 17.3529 2.99211 16.2178C3.6253 15.8517 4.32805 15.6646 5.0403 15.6646C5.39693 15.6646 5.75599 15.7116 6.10974 15.8064C7.1708 16.0907 8.05736 16.7717 8.60618 17.7241C9.74036 19.6894 9.06536 22.2107 7.10161 23.3446ZM23.1475 12.4123C23.1467 13.3984 22.7691 14.3565 22.0724 15.0867C21.9703 15.0687 21.8668 15.0595 21.7634 15.0595C21.4962 15.0595 21.228 15.1199 20.9857 15.2389V12.5149C20.9857 11.3409 20.1228 10.7266 19.2704 10.7266C18.4181 10.7266 17.5552 11.3409 17.5552 12.5149V15.8853C16.5594 15.3965 15.8196 14.5061 15.5249 13.4083C14.9722 11.3406 16.2025 9.20881 18.2679 8.656C19.2667 8.38775 20.3105 8.52481 21.2067 9.04237C22.1046 9.56069 22.7465 10.3979 23.0144 11.4002C23.1027 11.7293 23.1465 12.0629 23.1478 12.3935C23.1477 12.3973 23.1472 12.4011 23.1472 12.4049C23.1472 12.4074 23.1475 12.4098 23.1475 12.4123ZM28.7969 13.6921C28.0871 13.6921 27.5097 13.1147 27.5097 12.4049C27.5097 11.6943 28.0871 11.1161 28.7969 11.1161C29.5057 11.1161 30.0822 11.6943 30.0822 12.4049C30.0822 13.1146 29.5057 13.6921 28.7969 13.6921Z" fill="black"/>
<path d="M5.66121 17.4882C5.04902 17.324 4.40908 17.4082 3.85877 17.7258C2.72558 18.3812 2.3364 19.8371 2.99115 20.9713C3.30827 21.5208 3.82015 21.9136 4.4324 22.0776C4.63671 22.1323 4.84396 22.1595 5.05002 22.1595C5.46158 22.1595 5.86802 22.0514 6.23433 21.84C6.2344 21.8399 6.23452 21.8398 6.23465 21.8398C7.3674 21.1847 7.75665 19.7295 7.10252 18.5964C6.7854 18.0461 6.27358 17.6526 5.66121 17.4882ZM5.76527 21.0282C5.43258 21.2202 5.04533 21.2714 4.67502 21.1721C4.30465 21.0729 3.99502 20.8351 3.80308 20.5026C3.40658 19.8158 3.64215 18.9341 4.32783 18.5376C4.54965 18.4095 4.79552 18.3441 5.04452 18.3441C5.16921 18.3441 5.29471 18.3605 5.41821 18.3937C5.78852 18.4931 6.09821 18.7313 6.29033 19.0648C6.6864 19.7509 6.4509 20.6317 5.76527 21.0282Z" fill="black"/>
</svg>
