<svg width="10" height="10" viewBox="0 0 10 10" fill="none" xmlns="http://www.w3.org/2000/svg">
<path d="M0.488364 9.99988C0.391779 9.9999 0.297359 9.97127 0.217046 9.91762C0.136734 9.86397 0.0741365 9.78771 0.0371728 9.69847C0.00020916 9.60924 -0.00946041 9.51105 0.00938721 9.41633C0.0282348 9.3216 0.0747529 9.23459 0.143057 9.1663L9.16633 0.143031C9.25791 0.0514496 9.38212 0 9.51163 0C9.64115 0 9.76536 0.0514496 9.85694 0.143031C9.94852 0.234611 9.99997 0.358822 9.99997 0.488337C9.99997 0.617852 9.94852 0.742062 9.85694 0.833643L0.83367 9.85691C0.788365 9.90231 0.734538 9.93831 0.67528 9.96285C0.616022 9.98738 0.5525 9.99997 0.488364 9.99988Z" fill="#262626"/>
<path d="M9.51161 9.99988C9.44747 9.99997 9.38395 9.98738 9.32469 9.96285C9.26543 9.93831 9.21161 9.90231 9.1663 9.85691L0.14303 0.833643C0.0514496 0.742062 0 0.617852 0 0.488337C0 0.358822 0.0514496 0.234611 0.14303 0.143031C0.234611 0.0514496 0.358822 0 0.488337 0C0.617852 0 0.742062 0.0514496 0.833643 0.143031L9.85691 9.1663C9.92522 9.23459 9.97174 9.3216 9.99058 9.41633C10.0094 9.51105 9.99976 9.60924 9.9628 9.69847C9.92583 9.78771 9.86324 9.86397 9.78293 9.91762C9.70261 9.97127 9.60819 9.9999 9.51161 9.99988Z" fill="#262626"/>
</svg>
