<svg width="163" height="38" viewBox="0 0 163 38" fill="none" xmlns="http://www.w3.org/2000/svg">
<path d="M71.022 17.08V6.692H72.072L72.1 8.47L71.904 8.498C71.988 8.14333 72.17 7.82133 72.45 7.532C72.73 7.23333 73.0707 6.99533 73.472 6.818C73.8733 6.64067 74.298 6.552 74.746 6.552C75.3993 6.552 75.9827 6.71533 76.496 7.042C77.0187 7.36867 77.434 7.81667 77.742 8.386C78.05 8.95533 78.204 9.60867 78.204 10.346C78.204 11.074 78.0547 11.7227 77.756 12.292C77.4573 12.8613 77.0467 13.314 76.524 13.65C76.0013 13.9767 75.4133 14.14 74.76 14.14C74.3027 14.14 73.8687 14.0467 73.458 13.86C73.0473 13.6733 72.6973 13.4307 72.408 13.132C72.1187 12.824 71.9273 12.4927 71.834 12.138H72.086V17.08H71.022ZM74.592 13.132C75.0867 13.132 75.5253 13.0107 75.908 12.768C76.2907 12.5253 76.594 12.194 76.818 11.774C77.042 11.354 77.154 10.878 77.154 10.346C77.154 9.80467 77.042 9.324 76.818 8.904C76.594 8.484 76.2907 8.15267 75.908 7.91C75.5253 7.66733 75.0867 7.546 74.592 7.546C74.0973 7.546 73.654 7.66733 73.262 7.91C72.8793 8.14333 72.576 8.47 72.352 8.89C72.128 9.31 72.016 9.79067 72.016 10.332C72.016 10.8733 72.128 11.354 72.352 11.774C72.576 12.194 72.8793 12.5253 73.262 12.768C73.654 13.0107 74.0973 13.132 74.592 13.132ZM82.965 14.14C82.237 14.14 81.5883 13.9767 81.019 13.65C80.459 13.3233 80.0157 12.8707 79.689 12.292C79.3717 11.7133 79.213 11.0553 79.213 10.318C79.213 9.59 79.3717 8.94133 79.689 8.372C80.0157 7.80267 80.459 7.35467 81.019 7.028C81.5883 6.70133 82.237 6.538 82.965 6.538C83.6837 6.538 84.323 6.70133 84.883 7.028C85.4523 7.35467 85.8957 7.80267 86.213 8.372C86.5397 8.94133 86.703 9.59 86.703 10.318C86.703 11.0553 86.5397 11.7133 86.213 12.292C85.8957 12.8707 85.4523 13.3233 84.883 13.65C84.323 13.9767 83.6837 14.14 82.965 14.14ZM82.965 13.146C83.4783 13.146 83.9357 13.0247 84.337 12.782C84.7383 12.53 85.051 12.194 85.275 11.774C85.499 11.3447 85.611 10.8593 85.611 10.318C85.611 9.77667 85.499 9.296 85.275 8.876C85.051 8.456 84.7383 8.12933 84.337 7.896C83.9357 7.65333 83.4783 7.532 82.965 7.532C82.4517 7.532 81.9897 7.65333 81.579 7.896C81.1777 8.12933 80.8603 8.46067 80.627 8.89C80.403 9.31 80.2957 9.786 80.305 10.318C80.2957 10.8593 80.403 11.3447 80.627 11.774C80.8603 12.194 81.1777 12.53 81.579 12.782C81.9897 13.0247 82.4517 13.146 82.965 13.146ZM89.6835 14L87.1495 6.692L88.2695 6.678L90.2435 12.628L89.8935 12.6L92.0355 7.812H92.6655L94.8215 12.6L94.4015 12.628L96.4175 6.692H97.5235L94.9895 14H94.3735L92.1055 8.792L92.5255 8.82L90.3275 14H89.6835ZM101.777 14.14C101.049 14.14 100.4 13.9813 99.8312 13.664C99.2712 13.3467 98.8325 12.9033 98.5152 12.334C98.1978 11.7647 98.0392 11.1113 98.0392 10.374C98.0392 9.80467 98.1278 9.29133 98.3052 8.834C98.4825 8.36733 98.7298 7.96133 99.0472 7.616C99.3738 7.27067 99.7612 7.00467 100.209 6.818C100.657 6.622 101.142 6.524 101.665 6.524C102.16 6.524 102.608 6.61267 103.009 6.79C103.42 6.96733 103.77 7.21467 104.059 7.532C104.358 7.84 104.582 8.20867 104.731 8.638C104.88 9.06733 104.946 9.53867 104.927 10.052L104.913 10.542H98.8232L98.6692 9.66H104.115L103.863 9.898V9.562C103.844 9.226 103.746 8.904 103.569 8.596C103.392 8.27867 103.14 8.022 102.813 7.826C102.496 7.63 102.113 7.532 101.665 7.532C101.142 7.532 100.69 7.63933 100.307 7.854C99.9245 8.05933 99.6305 8.36733 99.4252 8.778C99.2198 9.18867 99.1172 9.69733 99.1172 10.304C99.1172 10.8827 99.2292 11.3867 99.4532 11.816C99.6772 12.236 99.9945 12.5627 100.405 12.796C100.825 13.0293 101.329 13.146 101.917 13.146C102.262 13.146 102.603 13.09 102.939 12.978C103.284 12.8567 103.662 12.6233 104.073 12.278L104.619 13.034C104.404 13.2487 104.148 13.44 103.849 13.608C103.55 13.7667 103.224 13.8973 102.869 14C102.514 14.0933 102.15 14.14 101.777 14.14ZM106.418 14V6.692H107.468L107.496 8.638L107.384 8.372C107.487 8.04533 107.65 7.742 107.874 7.462C108.108 7.182 108.383 6.958 108.7 6.79C109.018 6.622 109.368 6.538 109.75 6.538C109.909 6.538 110.058 6.552 110.198 6.58C110.338 6.59867 110.455 6.62667 110.548 6.664L110.254 7.84C110.133 7.784 110.007 7.74667 109.876 7.728C109.755 7.7 109.638 7.686 109.526 7.686C109.209 7.686 108.924 7.742 108.672 7.854C108.42 7.966 108.206 8.12467 108.028 8.33C107.851 8.526 107.716 8.75467 107.622 9.016C107.529 9.27733 107.482 9.55733 107.482 9.856V14H106.418ZM114.547 14.14C113.819 14.14 113.17 13.9813 112.601 13.664C112.041 13.3467 111.602 12.9033 111.285 12.334C110.967 11.7647 110.809 11.1113 110.809 10.374C110.809 9.80467 110.897 9.29133 111.075 8.834C111.252 8.36733 111.499 7.96133 111.817 7.616C112.143 7.27067 112.531 7.00467 112.979 6.818C113.427 6.622 113.912 6.524 114.435 6.524C114.929 6.524 115.377 6.61267 115.779 6.79C116.189 6.96733 116.539 7.21467 116.829 7.532C117.127 7.84 117.351 8.20867 117.501 8.638C117.65 9.06733 117.715 9.53867 117.697 10.052L117.683 10.542H111.593L111.439 9.66H116.885L116.633 9.898V9.562C116.614 9.226 116.516 8.904 116.339 8.596C116.161 8.27867 115.909 8.022 115.583 7.826C115.265 7.63 114.883 7.532 114.435 7.532C113.912 7.532 113.459 7.63933 113.077 7.854C112.694 8.05933 112.4 8.36733 112.195 8.778C111.989 9.18867 111.887 9.69733 111.887 10.304C111.887 10.8827 111.999 11.3867 112.223 11.816C112.447 12.236 112.764 12.5627 113.175 12.796C113.595 13.0293 114.099 13.146 114.687 13.146C115.032 13.146 115.373 13.09 115.709 12.978C116.054 12.8567 116.432 12.6233 116.843 12.278L117.389 13.034C117.174 13.2487 116.917 13.44 116.619 13.608C116.32 13.7667 115.993 13.8973 115.639 14C115.284 14.0933 114.92 14.14 114.547 14.14ZM122.156 14.14C121.493 14.14 120.896 13.9767 120.364 13.65C119.841 13.3233 119.426 12.8753 119.118 12.306C118.819 11.7273 118.67 11.074 118.67 10.346C118.67 9.60867 118.824 8.95533 119.132 8.386C119.44 7.80733 119.855 7.35467 120.378 7.028C120.901 6.70133 121.489 6.538 122.142 6.538C122.506 6.538 122.856 6.594 123.192 6.706C123.537 6.818 123.845 6.97667 124.116 7.182C124.387 7.378 124.611 7.60667 124.788 7.868C124.965 8.12 125.073 8.386 125.11 8.666L124.788 8.554V3.64H125.838V14H124.802L124.774 12.18L125.04 12.082C125.003 12.3433 124.895 12.6 124.718 12.852C124.55 13.0947 124.335 13.314 124.074 13.51C123.813 13.706 123.514 13.86 123.178 13.972C122.851 14.084 122.511 14.14 122.156 14.14ZM122.31 13.174C122.795 13.174 123.229 13.0527 123.612 12.81C123.995 12.5673 124.293 12.2313 124.508 11.802C124.732 11.3727 124.844 10.8827 124.844 10.332C124.844 9.78133 124.732 9.296 124.508 8.876C124.293 8.44667 123.995 8.11067 123.612 7.868C123.229 7.616 122.795 7.49 122.31 7.49C121.806 7.49 121.363 7.616 120.98 7.868C120.607 8.11067 120.308 8.44667 120.084 8.876C119.869 9.296 119.762 9.78133 119.762 10.332C119.762 10.8733 119.869 11.3587 120.084 11.788C120.299 12.2173 120.597 12.558 120.98 12.81C121.363 13.0527 121.806 13.174 122.31 13.174ZM135.517 14.14C135.172 14.14 134.836 14.0887 134.509 13.986C134.182 13.874 133.884 13.7247 133.613 13.538C133.352 13.3513 133.128 13.1367 132.941 12.894C132.764 12.6513 132.642 12.3993 132.577 12.138L132.885 12.152L132.843 13.986H131.807V3.64H132.857V8.442L132.647 8.498C132.712 8.23667 132.829 7.98933 132.997 7.756C133.174 7.51333 133.394 7.30333 133.655 7.126C133.916 6.93933 134.201 6.79467 134.509 6.692C134.826 6.58933 135.153 6.538 135.489 6.538C136.142 6.538 136.726 6.70133 137.239 7.028C137.762 7.35467 138.177 7.80267 138.485 8.372C138.793 8.94133 138.947 9.59467 138.947 10.332C138.947 11.0693 138.798 11.7273 138.499 12.306C138.2 12.8753 137.79 13.3233 137.267 13.65C136.754 13.9767 136.17 14.14 135.517 14.14ZM135.349 13.146C135.844 13.146 136.282 13.0247 136.665 12.782C137.048 12.53 137.346 12.194 137.561 11.774C137.785 11.3447 137.897 10.864 137.897 10.332C137.897 9.79067 137.785 9.31 137.561 8.89C137.346 8.47 137.048 8.13867 136.665 7.896C136.282 7.65333 135.844 7.532 135.349 7.532C134.854 7.532 134.416 7.65333 134.033 7.896C133.65 8.13867 133.347 8.47 133.123 8.89C132.908 9.31 132.801 9.79067 132.801 10.332C132.801 10.8733 132.908 11.3587 133.123 11.788C133.347 12.208 133.65 12.5393 134.033 12.782C134.416 13.0247 134.854 13.146 135.349 13.146ZM141.434 17.22L142.848 13.776L142.946 14.77L139.278 6.692H140.468L142.974 12.292C143.048 12.4413 143.123 12.6187 143.198 12.824C143.272 13.02 143.342 13.216 143.408 13.412L143.016 13.37C143.081 13.2113 143.142 13.048 143.198 12.88C143.263 12.712 143.324 12.5487 143.38 12.39L145.578 6.692H146.782L143.828 14L142.568 17.22H141.434Z" fill="white"/>
<path d="M59.396 34.14C58.864 34.14 58.3693 34.07 57.912 33.93C57.464 33.79 57.0533 33.58 56.68 33.3C56.316 33.0107 55.9893 32.656 55.7 32.236L56.736 31.046C57.1933 31.6993 57.632 32.152 58.052 32.404C58.472 32.656 58.9713 32.782 59.55 32.782C59.9047 32.782 60.2267 32.726 60.516 32.614C60.8053 32.502 61.034 32.348 61.202 32.152C61.37 31.956 61.454 31.732 61.454 31.48C61.454 31.312 61.426 31.1533 61.37 31.004C61.314 30.8547 61.2253 30.7193 61.104 30.598C60.992 30.4767 60.8427 30.3647 60.656 30.262C60.4787 30.1593 60.2687 30.0707 60.026 29.996C59.7833 29.912 59.5033 29.842 59.186 29.786C58.682 29.6833 58.2433 29.548 57.87 29.38C57.4967 29.212 57.184 29.002 56.932 28.75C56.68 28.498 56.4933 28.2133 56.372 27.896C56.2507 27.5693 56.19 27.2053 56.19 26.804C56.19 26.412 56.274 26.048 56.442 25.712C56.6193 25.376 56.8573 25.0867 57.156 24.844C57.464 24.592 57.8233 24.4007 58.234 24.27C58.6447 24.13 59.088 24.06 59.564 24.06C60.068 24.06 60.53 24.1253 60.95 24.256C61.37 24.3867 61.7433 24.5827 62.07 24.844C62.3967 25.096 62.6673 25.4087 62.882 25.782L61.818 26.832C61.6313 26.524 61.4213 26.2673 61.188 26.062C60.9547 25.8473 60.698 25.6887 60.418 25.586C60.138 25.474 59.8393 25.418 59.522 25.418C59.158 25.418 58.8407 25.474 58.57 25.586C58.2993 25.698 58.0847 25.8567 57.926 26.062C57.7767 26.258 57.702 26.4913 57.702 26.762C57.702 26.958 57.7393 27.14 57.814 27.308C57.8887 27.4667 58.0007 27.6113 58.15 27.742C58.3087 27.8633 58.5187 27.9753 58.78 28.078C59.0413 28.1713 59.354 28.2553 59.718 28.33C60.2313 28.442 60.6887 28.5867 61.09 28.764C61.4913 28.932 61.832 29.1327 62.112 29.366C62.392 29.5993 62.602 29.8607 62.742 30.15C62.8913 30.4393 62.966 30.752 62.966 31.088C62.966 31.7133 62.8213 32.2547 62.532 32.712C62.2427 33.1693 61.832 33.524 61.3 33.776C60.768 34.0187 60.1333 34.14 59.396 34.14ZM64.7443 37.08V26.65H66.2003V28.33L65.9763 28.204C66.0323 27.924 66.191 27.658 66.4523 27.406C66.7137 27.1447 67.031 26.9347 67.4043 26.776C67.787 26.608 68.179 26.524 68.5803 26.524C69.243 26.524 69.831 26.6873 70.3443 27.014C70.8577 27.3407 71.2637 27.7887 71.5623 28.358C71.861 28.9273 72.0103 29.5807 72.0103 30.318C72.0103 31.046 71.861 31.6993 71.5623 32.278C71.273 32.8473 70.8717 33.3 70.3583 33.636C69.845 33.9627 69.2663 34.126 68.6223 34.126C68.193 34.126 67.7777 34.042 67.3763 33.874C66.975 33.6967 66.6343 33.4727 66.3543 33.202C66.0743 32.9313 65.9017 32.6513 65.8363 32.362L66.2003 32.166V37.08H64.7443ZM68.3843 32.796C68.8137 32.796 69.1963 32.6887 69.5323 32.474C69.8683 32.2593 70.1343 31.9653 70.3303 31.592C70.5263 31.2187 70.6243 30.794 70.6243 30.318C70.6243 29.842 70.5263 29.422 70.3303 29.058C70.1437 28.6847 69.8823 28.3907 69.5463 28.176C69.2103 27.9613 68.823 27.854 68.3843 27.854C67.9457 27.854 67.5583 27.9613 67.2223 28.176C66.8863 28.3813 66.6203 28.6707 66.4243 29.044C66.2283 29.4173 66.1303 29.842 66.1303 30.318C66.1303 30.794 66.2283 31.2187 66.4243 31.592C66.6203 31.9653 66.8863 32.2593 67.2223 32.474C67.5583 32.6887 67.9457 32.796 68.3843 32.796ZM76.1524 34.14C75.6297 34.14 75.1724 34.0187 74.7804 33.776C74.3977 33.5333 74.099 33.1927 73.8844 32.754C73.679 32.3153 73.5764 31.7927 73.5764 31.186V26.65H75.0184V30.794C75.0184 31.2233 75.0837 31.5967 75.2144 31.914C75.3544 32.222 75.5504 32.46 75.8024 32.628C76.0637 32.796 76.3764 32.88 76.7404 32.88C77.011 32.88 77.2584 32.838 77.4824 32.754C77.7064 32.6607 77.8977 32.5347 78.0564 32.376C78.2244 32.2173 78.355 32.026 78.4484 31.802C78.5417 31.578 78.5884 31.3353 78.5884 31.074V26.65H80.0304V34H78.5884V32.46L78.8404 32.292C78.7284 32.6373 78.537 32.95 78.2664 33.23C78.005 33.51 77.6924 33.734 77.3284 33.902C76.9644 34.0607 76.5724 34.14 76.1524 34.14ZM82.0529 34V26.65H83.5089V28.96L83.3689 28.4C83.4716 28.0453 83.6443 27.7233 83.8869 27.434C84.1389 27.1447 84.4236 26.916 84.7409 26.748C85.0676 26.58 85.4036 26.496 85.7489 26.496C85.9076 26.496 86.0569 26.51 86.1969 26.538C86.3463 26.566 86.4629 26.5987 86.5469 26.636L86.1689 28.204C86.0569 28.1573 85.9309 28.12 85.7909 28.092C85.6603 28.0547 85.5296 28.036 85.3989 28.036C85.1469 28.036 84.9043 28.0873 84.6709 28.19C84.4469 28.2833 84.2463 28.4187 84.0689 28.596C83.9009 28.764 83.7656 28.9647 83.6629 29.198C83.5603 29.422 83.5089 29.6693 83.5089 29.94V34H82.0529ZM88.8828 34V24.774H90.3248V34H88.8828ZM87.3568 28.05V26.65H92.0328V28.05H87.3568ZM101.61 34.14C100.928 34.14 100.303 34.0187 99.7337 33.776C99.1644 33.5333 98.6697 33.188 98.2497 32.74C97.8297 32.2827 97.5031 31.746 97.2697 31.13C97.0457 30.514 96.9337 29.8373 96.9337 29.1C96.9337 28.4 97.0551 27.7513 97.2977 27.154C97.5497 26.5473 97.8951 26.0153 98.3337 25.558C98.7724 25.1007 99.2811 24.746 99.8597 24.494C100.438 24.242 101.064 24.116 101.736 24.116C102.212 24.116 102.674 24.1907 103.122 24.34C103.579 24.48 103.99 24.6807 104.354 24.942C104.727 25.194 105.03 25.4833 105.264 25.81L104.256 26.86C103.985 26.5893 103.71 26.3653 103.43 26.188C103.159 26.0013 102.879 25.8613 102.59 25.768C102.31 25.6747 102.025 25.628 101.736 25.628C101.278 25.628 100.849 25.7167 100.448 25.894C100.056 26.062 99.7104 26.3 99.4117 26.608C99.1224 26.916 98.8937 27.2847 98.7257 27.714C98.5577 28.134 98.4737 28.596 98.4737 29.1C98.4737 29.632 98.5531 30.1173 98.7117 30.556C98.8797 30.9853 99.1131 31.354 99.4117 31.662C99.7104 31.97 100.065 32.208 100.476 32.376C100.896 32.5347 101.358 32.614 101.862 32.614C102.17 32.614 102.473 32.572 102.772 32.488C103.07 32.404 103.35 32.2827 103.612 32.124C103.873 31.9653 104.111 31.7787 104.326 31.564L105.082 32.796C104.867 33.048 104.573 33.2767 104.2 33.482C103.836 33.6873 103.425 33.8507 102.968 33.972C102.52 34.084 102.067 34.14 101.61 34.14ZM107.136 34V24.2H108.62L112.19 30.01L111.476 29.996L115.088 24.2H116.488V34H114.976V29.982C114.976 29.142 114.994 28.386 115.032 27.714C115.078 27.042 115.153 26.3747 115.256 25.712L115.452 26.23L112.246 31.186H111.322L108.214 26.286L108.368 25.712C108.47 26.3373 108.54 26.9813 108.578 27.644C108.624 28.2973 108.648 29.0767 108.648 29.982V34H107.136ZM122.259 34.14C121.727 34.14 121.233 34.07 120.775 33.93C120.327 33.79 119.917 33.58 119.543 33.3C119.179 33.0107 118.853 32.656 118.563 32.236L119.599 31.046C120.057 31.6993 120.495 32.152 120.915 32.404C121.335 32.656 121.835 32.782 122.413 32.782C122.768 32.782 123.09 32.726 123.379 32.614C123.669 32.502 123.897 32.348 124.065 32.152C124.233 31.956 124.317 31.732 124.317 31.48C124.317 31.312 124.289 31.1533 124.233 31.004C124.177 30.8547 124.089 30.7193 123.967 30.598C123.855 30.4767 123.706 30.3647 123.519 30.262C123.342 30.1593 123.132 30.0707 122.889 29.996C122.647 29.912 122.367 29.842 122.049 29.786C121.545 29.6833 121.107 29.548 120.733 29.38C120.36 29.212 120.047 29.002 119.795 28.75C119.543 28.498 119.357 28.2133 119.235 27.896C119.114 27.5693 119.053 27.2053 119.053 26.804C119.053 26.412 119.137 26.048 119.305 25.712C119.483 25.376 119.721 25.0867 120.019 24.844C120.327 24.592 120.687 24.4007 121.097 24.27C121.508 24.13 121.951 24.06 122.427 24.06C122.931 24.06 123.393 24.1253 123.813 24.256C124.233 24.3867 124.607 24.5827 124.933 24.844C125.26 25.096 125.531 25.4087 125.745 25.782L124.681 26.832C124.495 26.524 124.285 26.2673 124.051 26.062C123.818 25.8473 123.561 25.6887 123.281 25.586C123.001 25.474 122.703 25.418 122.385 25.418C122.021 25.418 121.704 25.474 121.433 25.586C121.163 25.698 120.948 25.8567 120.789 26.062C120.64 26.258 120.565 26.4913 120.565 26.762C120.565 26.958 120.603 27.14 120.677 27.308C120.752 27.4667 120.864 27.6113 121.013 27.742C121.172 27.8633 121.382 27.9753 121.643 28.078C121.905 28.1713 122.217 28.2553 122.581 28.33C123.095 28.442 123.552 28.5867 123.953 28.764C124.355 28.932 124.695 29.1327 124.975 29.366C125.255 29.5993 125.465 29.8607 125.605 30.15C125.755 30.4393 125.829 30.752 125.829 31.088C125.829 31.7133 125.685 32.2547 125.395 32.712C125.106 33.1693 124.695 33.524 124.163 33.776C123.631 34.0187 122.997 34.14 122.259 34.14ZM131.825 34L131.363 32.852L134.359 29.478C134.518 29.31 134.681 29.1187 134.849 28.904C135.027 28.68 135.195 28.4513 135.353 28.218C135.512 27.9847 135.638 27.756 135.731 27.532C135.834 27.2987 135.885 27.0793 135.885 26.874C135.885 26.5753 135.825 26.3233 135.703 26.118C135.591 25.9033 135.423 25.74 135.199 25.628C134.985 25.516 134.723 25.46 134.415 25.46C134.145 25.46 133.879 25.5393 133.617 25.698C133.356 25.8567 133.118 26.0807 132.903 26.37C132.689 26.6593 132.521 26.9953 132.399 27.378L131.237 26.65C131.396 26.1087 131.634 25.6467 131.951 25.264C132.278 24.872 132.665 24.5733 133.113 24.368C133.571 24.1627 134.065 24.06 134.597 24.06C135.148 24.06 135.638 24.1767 136.067 24.41C136.497 24.634 136.833 24.9513 137.075 25.362C137.318 25.7633 137.439 26.23 137.439 26.762C137.439 26.9767 137.416 27.196 137.369 27.42C137.323 27.644 137.248 27.8773 137.145 28.12C137.043 28.3533 136.912 28.6007 136.753 28.862C136.595 29.114 136.403 29.38 136.179 29.66C135.965 29.94 135.717 30.234 135.437 30.542L133.211 32.964L132.931 32.544H137.747V34H131.825ZM142.435 34.14C141.689 34.14 141.045 33.9347 140.503 33.524C139.971 33.1133 139.561 32.5347 139.271 31.788C138.982 31.032 138.837 30.136 138.837 29.1C138.837 28.064 138.982 27.1727 139.271 26.426C139.561 25.67 139.971 25.0867 140.503 24.676C141.045 24.2653 141.689 24.06 142.435 24.06C143.182 24.06 143.826 24.2653 144.367 24.676C144.909 25.0867 145.324 25.67 145.613 26.426C145.903 27.1727 146.047 28.064 146.047 29.1C146.047 30.136 145.903 31.032 145.613 31.788C145.324 32.5347 144.909 33.1133 144.367 33.524C143.826 33.9347 143.182 34.14 142.435 34.14ZM142.435 32.768C143.117 32.768 143.644 32.4507 144.017 31.816C144.391 31.172 144.577 30.2667 144.577 29.1C144.577 27.9333 144.391 27.0327 144.017 26.398C143.644 25.754 143.117 25.432 142.435 25.432C141.754 25.432 141.227 25.754 140.853 26.398C140.48 27.0327 140.293 27.9333 140.293 29.1C140.293 30.2667 140.48 31.172 140.853 31.816C141.227 32.4507 141.754 32.768 142.435 32.768ZM147.999 34L147.537 32.852L150.533 29.478C150.692 29.31 150.855 29.1187 151.023 28.904C151.201 28.68 151.369 28.4513 151.527 28.218C151.686 27.9847 151.812 27.756 151.905 27.532C152.008 27.2987 152.059 27.0793 152.059 26.874C152.059 26.5753 151.999 26.3233 151.877 26.118C151.765 25.9033 151.597 25.74 151.373 25.628C151.159 25.516 150.897 25.46 150.589 25.46C150.319 25.46 150.053 25.5393 149.791 25.698C149.53 25.8567 149.292 26.0807 149.077 26.37C148.863 26.6593 148.695 26.9953 148.573 27.378L147.411 26.65C147.57 26.1087 147.808 25.6467 148.125 25.264C148.452 24.872 148.839 24.5733 149.287 24.368C149.745 24.1627 150.239 24.06 150.771 24.06C151.322 24.06 151.812 24.1767 152.241 24.41C152.671 24.634 153.007 24.9513 153.249 25.362C153.492 25.7633 153.613 26.23 153.613 26.762C153.613 26.9767 153.59 27.196 153.543 27.42C153.497 27.644 153.422 27.8773 153.319 28.12C153.217 28.3533 153.086 28.6007 152.927 28.862C152.769 29.114 152.577 29.38 152.353 29.66C152.139 29.94 151.891 30.234 151.611 30.542L149.385 32.964L149.105 32.544H153.921V34H147.999ZM157.965 34.098C157.321 34.098 156.738 33.9533 156.215 33.664C155.693 33.3653 155.259 32.9407 154.913 32.39L155.753 31.452C156.192 31.9373 156.575 32.2687 156.901 32.446C157.228 32.6233 157.583 32.712 157.965 32.712C158.348 32.712 158.693 32.628 159.001 32.46C159.309 32.292 159.552 32.0633 159.729 31.774C159.916 31.4847 160.009 31.1627 160.009 30.808C160.009 30.4347 159.921 30.1033 159.743 29.814C159.575 29.5153 159.347 29.282 159.057 29.114C158.768 28.9367 158.441 28.848 158.077 28.848C157.9 28.848 157.732 28.862 157.573 28.89C157.415 28.9087 157.223 28.96 156.999 29.044C156.775 29.128 156.481 29.2587 156.117 29.436L155.319 28.358L155.893 24.2H161.185V25.6H156.845L157.139 25.334L156.677 28.442L156.327 28.036C156.421 27.9427 156.579 27.854 156.803 27.77C157.027 27.6767 157.275 27.602 157.545 27.546C157.825 27.4807 158.091 27.448 158.343 27.448C158.941 27.448 159.473 27.588 159.939 27.868C160.415 28.1387 160.789 28.5167 161.059 29.002C161.339 29.4873 161.479 30.0427 161.479 30.668C161.479 31.312 161.325 31.8953 161.017 32.418C160.709 32.9313 160.289 33.342 159.757 33.65C159.225 33.9487 158.628 34.098 157.965 34.098Z" fill="white"/>
<path d="M24.0819 28.4523C27.005 28.6118 29.6394 26.6945 30.3903 23.8606C31.0489 20.8074 29.5859 18.7557 26.2452 16.8015C25.2004 16.1907 25.1475 15.653 25.245 15.2136C25.2941 14.8229 25.6841 14.4565 26.4402 14.4565C27.3108 14.5798 28.0985 15.0357 28.6355 15.7269L32 12.7468C31.2966 11.8811 30.4044 11.1852 29.3907 10.7114C28.377 10.2375 27.2682 9.99808 26.1477 10.0111C23.4188 9.84273 20.9421 11.602 20.198 14.2364C19.5639 17.0947 21.0024 19.3414 24.1719 21.2158C25.3433 21.9241 25.4646 22.5098 25.3671 23.0475C25.3028 23.3338 25.137 23.5875 24.8998 23.7625C24.6626 23.9374 24.3699 24.0218 24.0752 24.0002C22.368 24.0002 21.027 22.0216 21.027 22.0216L17.5152 24.7152C18.1832 25.855 19.1417 26.8004 20.2943 27.4563C21.4469 28.1123 22.7532 28.4558 24.0819 28.4523ZM15.5386 19.8214H6.42531C6.2621 19.7933 6.11419 19.7088 6.0078 19.5828C5.90142 19.4568 5.84342 19.2975 5.8441 19.1331C5.8441 18.7926 6.08968 18.5009 6.42531 18.4448H15.5386C15.8742 18.5009 16.1206 18.7919 16.1206 19.1331C16.1206 19.4743 15.875 19.7653 15.5386 19.8214ZM17.0716 11.5584H6.51907C6.39436 11.5643 6.27037 11.5364 6.16048 11.4776C6.05059 11.4187 5.95895 11.3313 5.89545 11.2246C5.83125 11.1173 5.79737 10.9948 5.79737 10.8701C5.79737 10.7453 5.83125 10.6228 5.89545 10.5156C5.95901 10.4088 6.05077 10.3212 6.1608 10.2624C6.27084 10.2035 6.39498 10.1757 6.51982 10.1817H17.0716C17.1965 10.1757 17.3206 10.2035 17.4306 10.2624C17.5407 10.3212 17.6324 10.4088 17.696 10.5156C17.7602 10.6228 17.7941 10.7453 17.7941 10.8701C17.7941 10.9948 17.7602 11.1173 17.696 11.2246C17.6324 11.3315 17.5405 11.4191 17.4303 11.478C17.3201 11.5368 17.1966 11.5646 17.0716 11.5584ZM14.4015 15.6899H0.6534C0.476377 15.6801 0.309909 15.6032 0.188333 15.4751C0.0667572 15.347 -0.000653813 15.1775 4.78064e-06 15.0016C-0.000653813 14.8256 0.0667572 14.6561 0.188333 14.528C0.309909 14.4 0.476377 14.3231 0.6534 14.3132H14.4015C14.5785 14.3231 14.745 14.4 14.8666 14.528C14.9881 14.6561 15.0555 14.8256 15.0549 15.0016C15.0555 15.1775 14.9881 15.347 14.8666 15.4751C14.745 15.6032 14.5785 15.6801 14.4015 15.6899Z" fill="#2FACD6"/>
<path d="M36.1201 26.9209L38.2148 20.8906H39.2354L36.6035 28H35.876L36.1201 26.9209ZM34.1621 20.8906L36.2373 26.9209L36.4961 28H35.7686L33.1416 20.8906H34.1621ZM38.9668 27.5215C38.9668 27.3685 39.014 27.2399 39.1084 27.1357C39.2061 27.0283 39.346 26.9746 39.5283 26.9746C39.7106 26.9746 39.849 27.0283 39.9434 27.1357C40.041 27.2399 40.0898 27.3685 40.0898 27.5215C40.0898 27.6712 40.041 27.7982 39.9434 27.9023C39.849 28.0065 39.7106 28.0586 39.5283 28.0586C39.346 28.0586 39.2061 28.0065 39.1084 27.9023C39.014 27.7982 38.9668 27.6712 38.9668 27.5215ZM46.1494 27.2578V28H41.4961V27.3506L43.8252 24.7578C44.1117 24.4388 44.333 24.1686 44.4893 23.9473C44.6488 23.7227 44.7594 23.5225 44.8213 23.3467C44.8864 23.1676 44.9189 22.9854 44.9189 22.7998C44.9189 22.5654 44.8701 22.3538 44.7725 22.165C44.6781 21.973 44.5381 21.82 44.3525 21.7061C44.167 21.5921 43.9424 21.5352 43.6787 21.5352C43.363 21.5352 43.0993 21.597 42.8877 21.7207C42.6794 21.8411 42.5231 22.0104 42.4189 22.2285C42.3148 22.4466 42.2627 22.6973 42.2627 22.9805H41.3594C41.3594 22.5801 41.4473 22.2139 41.623 21.8818C41.7988 21.5498 42.0592 21.2861 42.4043 21.0908C42.7493 20.8923 43.1742 20.793 43.6787 20.793C44.1279 20.793 44.512 20.8727 44.8311 21.0322C45.1501 21.1885 45.3942 21.4098 45.5635 21.6963C45.736 21.9795 45.8223 22.3115 45.8223 22.6924C45.8223 22.9007 45.7865 23.1123 45.7148 23.3271C45.6465 23.5387 45.5505 23.7503 45.4268 23.9619C45.3063 24.1735 45.1647 24.3818 45.002 24.5869C44.8424 24.792 44.6715 24.9938 44.4893 25.1924L42.585 27.2578H46.1494Z" fill="#2FACD6"/>
</svg>
