<svg width="32" height="32" viewBox="0 0 32 32" fill="none" xmlns="http://www.w3.org/2000/svg">
<path d="M15.9999 20.5671C18.5209 20.5671 20.5647 18.5234 20.5647 16.0023C20.5647 13.4812 18.5209 11.4375 15.9999 11.4375C13.4788 11.4375 11.4351 13.4812 11.4351 16.0023C11.4351 18.5234 13.4788 20.5671 15.9999 20.5671Z" fill="#FCD770"/>
<path d="M20.565 16.0025C20.565 18.5237 18.5212 20.5675 16 20.5675C15.5231 20.5675 15.0637 20.4944 14.6318 20.3588C16.4843 19.7775 17.8281 18.0469 17.8281 16.0025C17.8281 13.9581 16.4843 12.2275 14.6318 11.6462C15.0637 11.5106 15.5231 11.4375 16 11.4375C18.5212 11.4375 20.565 13.4812 20.565 16.0025Z" fill="#FFC729"/>
<path d="M30.4709 14.9396H28.8909C28.3783 8.65137 23.3486 3.62169 17.0604 3.10906V1.52906C17.0604 0.943438 16.5856 0.46875 16.0001 0.46875C15.4145 0.46875 14.9397 0.9435 14.9397 1.52906V3.10906C8.65144 3.62169 3.62175 8.65137 3.10906 14.9396H1.52906C0.9435 14.9396 0.46875 15.4143 0.46875 15.9999C0.46875 16.5856 0.9435 17.0602 1.52906 17.0602H3.10906C3.62175 23.3485 8.65137 28.3782 14.9396 28.8908V30.4708C14.9396 31.0564 15.4144 31.5311 15.9999 31.5311C16.5855 31.5311 17.0602 31.0564 17.0602 30.4708V28.8908C23.3485 28.3781 28.3782 23.3485 28.8908 17.0602H30.4708C31.0564 17.0602 31.5311 16.5855 31.5311 15.9999C31.5311 15.4144 31.0565 14.9396 30.4709 14.9396ZM17.0603 26.7619V25.0132C17.0603 24.4276 16.5856 23.9529 16 23.9529C15.4144 23.9529 14.9397 24.4276 14.9397 25.0132V26.7619C9.82156 26.2614 5.7385 22.1784 5.23806 17.0602H6.98675C7.57238 17.0602 8.04706 16.5855 8.04706 15.9999C8.04706 15.4144 7.57231 14.9396 6.98675 14.9396H5.23806C5.7385 9.8215 9.82156 5.73844 14.9397 5.238V6.98669C14.9397 7.57231 15.4144 8.047 16 8.047C16.5856 8.047 17.0603 7.57225 17.0603 6.98669V5.238C22.1784 5.73844 26.2615 9.8215 26.7619 14.9396H25.0133C24.4276 14.9396 23.9529 15.4144 23.9529 15.9999C23.9529 16.5855 24.4277 17.0602 25.0133 17.0602H26.7619C26.2615 22.1784 22.1784 26.2614 17.0603 26.7619Z" fill="#E7F3FF"/>
<path d="M16.0001 17.6116C16.8896 17.6116 17.6106 16.8906 17.6106 16.0011C17.6106 15.1117 16.8896 14.3906 16.0001 14.3906C15.1107 14.3906 14.3896 15.1117 14.3896 16.0011C14.3896 16.8906 15.1107 17.6116 16.0001 17.6116Z" fill="#FB3A82"/>
<path d="M12.0306 17.0164C11.9667 16.7654 11.7114 16.6143 11.4606 16.6778C11.2098 16.7416 11.0582 16.9968 11.122 17.2477C11.6899 19.4781 13.6958 21.0359 15.9999 21.0359C18.7754 21.0359 21.0335 18.7778 21.0335 16.0023C21.0335 13.2268 18.7754 10.9688 15.9999 10.9688C13.7064 10.9688 11.7028 12.5175 11.1276 14.7352C11.0626 14.9858 11.213 15.2416 11.4636 15.3066C11.7141 15.3718 11.9701 15.2211 12.0351 14.9706C12.5031 13.1664 14.1335 11.9063 15.9999 11.9063C18.2586 11.9063 20.096 13.7438 20.096 16.0024C20.096 18.261 18.2586 20.0984 15.9999 20.0984C14.1248 20.0984 12.4926 18.831 12.0306 17.0164Z" fill="black"/>
<path d="M25.0131 15.4048H26.7618C26.8941 15.4048 27.0202 15.3489 27.1091 15.251C27.1979 15.153 27.2412 15.022 27.2284 14.8904C26.7059 9.54741 22.4488 5.29023 17.1058 4.76779C16.9741 4.75516 16.8433 4.79829 16.7452 4.8871C16.6473 4.97598 16.5914 5.10204 16.5914 5.23435V6.98304C16.5914 7.30923 16.326 7.5746 15.9998 7.5746C15.6736 7.5746 15.4083 7.30923 15.4083 6.98304V5.23441C15.4083 5.10216 15.3524 4.97604 15.2544 4.88716C15.1564 4.79835 15.0253 4.75498 14.8939 4.76785C9.55088 5.29029 5.29369 9.54748 4.77125 14.8905C4.75844 15.022 4.80175 15.153 4.89057 15.251C4.97944 15.349 5.1055 15.4049 5.23781 15.4049H6.9865C7.31269 15.4049 7.57806 15.6702 7.57806 15.9964C7.57806 16.3226 7.31269 16.588 6.9865 16.588H5.23794C5.10569 16.588 4.97956 16.6439 4.89069 16.7418C4.80188 16.8397 4.75857 16.9707 4.77138 17.1024C4.96169 19.0484 5.66294 20.9217 6.79938 22.52C7.91313 24.0864 9.41519 25.3517 11.1431 26.179C11.3766 26.2906 11.6566 26.1921 11.7684 25.9587C11.8802 25.7252 11.7815 25.4452 11.5481 25.3334C8.45013 23.8502 6.27232 20.8899 5.76813 17.5255H6.98669C7.82982 17.5255 8.51575 16.8396 8.51575 15.9965C8.51575 15.1534 7.82982 14.4674 6.98669 14.4674H5.76775C6.43469 9.98248 9.98588 6.43129 14.4708 5.76435V6.98323C14.4708 7.82635 15.1568 8.51229 15.9999 8.51229C16.843 8.51229 17.5289 7.82635 17.5289 6.98323V5.76423C22.0139 6.43116 25.5651 9.98235 26.232 14.4673H25.0131C24.17 14.4673 23.4841 15.1532 23.4841 15.9964C23.4841 16.8395 24.17 17.5254 25.0131 17.5254H26.232C25.5651 22.0104 22.0139 25.5615 17.5289 26.2285V25.0096C17.5289 24.1665 16.843 23.4805 15.9999 23.4805C15.1568 23.4805 14.4708 24.1665 14.4708 25.0096V26.2282C14.1766 26.1843 13.8834 26.1275 13.5946 26.0585C13.3427 25.9984 13.0899 26.1537 13.0297 26.4055C12.9695 26.6573 13.1248 26.9102 13.3767 26.9704C13.8751 27.0894 14.3856 27.175 14.8939 27.2248C15.0261 27.2382 15.1565 27.1944 15.2544 27.1055C15.3524 27.0167 15.4083 26.8906 15.4083 26.7583V25.0096C15.4083 24.6834 15.6737 24.418 15.9999 24.418C16.3261 24.418 16.5914 24.6834 16.5914 25.0096V26.7583C16.5914 26.8905 16.6473 27.0167 16.7453 27.1055C16.8319 27.1841 16.9443 27.227 17.0602 27.227C17.0753 27.227 17.0906 27.2263 17.1058 27.2249C22.4488 26.7024 26.7059 22.4452 27.2284 17.1022C27.2412 16.9707 27.1979 16.8397 27.1091 16.7417C27.0202 16.6437 26.8941 16.5879 26.7618 16.5879H25.0131C24.6869 16.5879 24.4216 16.3225 24.4216 15.9963C24.4216 15.6701 24.6869 15.4048 25.0131 15.4048Z" fill="black"/>
<path d="M30.4709 14.4709H29.316C29.0154 11.8279 27.9449 9.36406 26.2052 7.32119C26.0374 7.12406 25.7416 7.10025 25.5444 7.26819C25.3473 7.43606 25.3236 7.73187 25.4914 7.929C27.1971 9.93175 28.2111 12.3692 28.4236 14.9777C28.4434 15.221 28.6467 15.4084 28.8909 15.4084H30.4709C30.7971 15.4084 31.0625 15.6737 31.0625 15.9999C31.0625 16.3261 30.7971 16.5915 30.4709 16.5915H28.8909C28.6467 16.5915 28.4435 16.7789 28.4236 17.0222C28.1848 19.9528 26.9014 22.7186 24.81 24.8099C22.7186 26.9014 19.9528 28.1848 17.0222 28.4236C16.7789 28.4434 16.5916 28.6467 16.5916 28.8909V30.4709C16.5916 30.7971 16.3262 31.0624 16 31.0624C15.6738 31.0624 15.4084 30.7971 15.4084 30.4709V28.8909C15.4084 28.6467 15.2211 28.4435 14.9777 28.4236C12.0471 28.1848 9.28138 26.9014 7.19 24.8099C5.09862 22.7185 3.81519 19.9528 3.57631 17.0222C3.5565 16.7789 3.35325 16.5915 3.10906 16.5915H1.52906C1.20288 16.5915 0.9375 16.3261 0.9375 15.9999C0.9375 15.6737 1.20288 15.4084 1.52906 15.4084H3.10906C3.35319 15.4084 3.55644 15.221 3.57631 14.9777C3.81519 12.0471 5.09856 9.28131 7.19 7.18994C9.28144 5.09856 12.0472 3.81513 14.9777 3.57625C15.2211 3.55644 15.4084 3.35319 15.4084 3.109V1.529C15.4084 1.20281 15.6738 0.937437 16 0.937437C16.3262 0.937437 16.5916 1.20281 16.5916 1.529V3.109C16.5916 3.35312 16.7789 3.55638 17.0222 3.57625C19.5633 3.78338 21.9506 4.75538 23.926 6.38713C24.1256 6.552 24.4211 6.52388 24.5859 6.32425C24.7508 6.12469 24.7227 5.82919 24.5231 5.66431C22.5109 4.00219 20.1011 2.97675 17.5291 2.68388V1.52906C17.5291 0.685938 16.8431 0 16 0C15.1569 0 14.4709 0.685938 14.4709 1.52906V2.68406C11.4795 3.02662 8.67281 4.38125 6.52706 6.52706C4.38125 8.67281 3.02662 11.4794 2.68406 14.4709H1.52906C0.685938 14.4709 0 15.1569 0 16C0 16.8431 0.685938 17.5291 1.52906 17.5291H2.68406C3.02662 20.5205 4.38125 23.3272 6.52706 25.4729C8.67281 27.6187 11.4794 28.9734 14.4709 29.3159V30.4709C14.4709 31.3141 15.1569 32 16 32C16.8431 32 17.5291 31.3141 17.5291 30.4709V29.3159C20.5205 28.9734 23.3272 27.6187 25.4729 25.4729C27.6187 23.3272 28.9734 20.5206 29.3159 17.5291H30.4709C31.3141 17.5291 32 16.8431 32 16C32 15.1569 31.3141 14.4709 30.4709 14.4709Z" fill="black"/>
<path d="M18.0794 16.0011C18.0794 14.8546 17.1466 13.9219 16.0001 13.9219C14.8536 13.9219 13.9209 14.8546 13.9209 16.0011C13.9209 17.1476 14.8536 18.0804 16.0001 18.0804C17.1466 18.0804 18.0794 17.1476 18.0794 16.0011ZM14.8584 16.0011C14.8584 15.3716 15.3705 14.8594 16.0001 14.8594C16.6298 14.8594 17.1419 15.3715 17.1419 16.0011C17.1419 16.6308 16.6298 17.1429 16.0001 17.1429C15.3705 17.1429 14.8584 16.6307 14.8584 16.0011Z" fill="black"/>
</svg>
