<svg width="14" height="14" viewBox="0 0 14 14" fill="none" xmlns="http://www.w3.org/2000/svg">
<path d="M0.857393 9.7168C0.57352 7.87161 0.289647 6.02645 0.00577421 4.18126C-0.0571791 3.77222 0.408227 3.49325 0.73928 3.74156C1.62371 4.40488 2.50809 5.06816 3.39251 5.73147C3.68371 5.94987 4.09858 5.8788 4.30046 5.57593L6.50933 2.2626C6.74275 1.91247 7.25721 1.91247 7.49063 2.2626L9.6995 5.57593C9.90139 5.8788 10.3163 5.94983 10.6075 5.73147C11.4919 5.06816 12.3763 4.40488 13.2607 3.74156C13.5917 3.49325 14.0571 3.77222 13.9942 4.18126C13.7104 6.02645 13.4265 7.87161 13.1426 9.7168H0.857393Z" fill="#FCB603"/>
<path d="M12.5021 12.7897H1.49792C1.14419 12.7897 0.857422 12.5029 0.857422 12.1492V10.7422H13.1426V12.1492C13.1426 12.5029 12.8558 12.7897 12.5021 12.7897Z" fill="#FCB603"/>
</svg>
