<svg width="18" height="16" viewBox="0 0 18 16" fill="none" xmlns="http://www.w3.org/2000/svg">
<path d="M16.6352 6.836C16.8784 7.17704 17 7.3476 17 7.6C17 7.8524 16.8784 8.02296 16.6352 8.364C15.5423 9.89648 12.7514 13.2 9 13.2C5.24862 13.2 2.45768 9.89648 1.36483 8.364C1.12161 8.02296 1 7.8524 1 7.6C1 7.3476 1.12161 7.17704 1.36483 6.836C2.45768 5.30355 5.24862 2 9 2C12.7514 2 15.5423 5.30355 16.6352 6.836Z" stroke="#262626" stroke-width="1.1"/>
<path d="M11.4001 7.60313C11.4001 6.2776 10.3256 5.20312 9.0001 5.20312C7.67458 5.20312 6.6001 6.2776 6.6001 7.60313C6.6001 8.92865 7.67458 10.0031 9.0001 10.0031C10.3256 10.0031 11.4001 8.92865 11.4001 7.60313Z" stroke="#262626" stroke-width="1.1"/>
</svg>
