<svg width="16" height="16" viewBox="0 0 16 16" fill="none" xmlns="http://www.w3.org/2000/svg">
<path d="M15.8983 7.7877C15.7554 7.59217 12.3497 3 7.99993 3C3.6502 3 0.244313 7.59217 0.101532 7.78751C-0.0338438 7.97301 -0.0338438 8.22461 0.101532 8.41011C0.244313 8.60564 3.6502 13.1978 7.99993 13.1978C12.3497 13.1978 15.7554 8.60561 15.8983 8.41027C16.0339 8.2248 16.0339 7.97301 15.8983 7.7877ZM7.99993 12.1429C4.79589 12.1429 2.02085 9.09496 1.19938 8.09855C2.01979 7.10126 4.78901 4.05494 7.99993 4.05494C11.2038 4.05494 13.9787 7.10232 14.8005 8.09926C13.9801 9.09652 11.2108 12.1429 7.99993 12.1429Z" fill="#717171"/>
<path d="M7.99994 4.93359C6.25487 4.93359 4.83508 6.35338 4.83508 8.09845C4.83508 9.84351 6.25487 11.2633 7.99994 11.2633C9.745 11.2633 11.1648 9.84351 11.1648 8.09845C11.1648 6.35338 9.745 4.93359 7.99994 4.93359ZM7.99994 10.2083C6.8365 10.2083 5.89005 9.26186 5.89005 8.09845C5.89005 6.93504 6.83653 5.98857 7.99994 5.98857C9.16335 5.98857 10.1098 6.93504 10.1098 8.09845C10.1098 9.26186 9.16338 10.2083 7.99994 10.2083Z" fill="#717171"/>
</svg>
