<svg xmlns="http://www.w3.org/2000/svg" xmlns:xlink="http://www.w3.org/1999/xlink" width="32" height="32" viewBox="0 0 32 32">
  <defs>
    <clipPath id="clip-path">
      <rect id="Rectangle_3644" data-name="Rectangle 3644" width="32" height="32" transform="translate(104 184)" fill="#112d55" stroke="#707070" stroke-width="1"/>
    </clipPath>
  </defs>
  <g id="Mask_Group_534" data-name="Mask Group 534" transform="translate(-104 -184)" clip-path="url(#clip-path)">
    <g id="Icon" transform="translate(102.14 182.14)">
      <path id="Path_1995" data-name="Path 1995" d="M17.116,30.159H4.391a.3.3,0,0,1-.21-.088.3.3,0,0,1-.088-.21V27.7c0-1.235.883-2.325,2.243-3.251,2.429-1.658,6.36-2.7,10.78-2.7a1.116,1.116,0,0,0,0-2.233c-4.944,0-9.322,1.237-12.039,3.09C3,24.019,1.86,25.816,1.86,27.7v2.16a2.531,2.531,0,0,0,2.53,2.53H17.116a1.116,1.116,0,0,0,0-2.233Z" fill="#112d55" fill-rule="evenodd"/>
      <path id="Path_1996" data-name="Path 1996" d="M17.116,1.86A8.186,8.186,0,1,0,25.3,10.047,8.189,8.189,0,0,0,17.116,1.86Zm0,2.233a5.953,5.953,0,1,1-5.953,5.953A5.956,5.956,0,0,1,17.116,4.093Z" fill="#112d55" fill-rule="evenodd"/>
      <path id="Path_1997" data-name="Path 1997" d="M26.047,20.745a5.3,5.3,0,1,0,5.3,5.3A5.3,5.3,0,0,0,26.047,20.745Zm0,2.233a3.07,3.07,0,1,1-3.071,3.069A3.072,3.072,0,0,1,26.047,22.977Z" fill="#112d55" fill-rule="evenodd"/>
      <path id="Path_1998" data-name="Path 1998" d="M27.163,21.86V19.349a1.116,1.116,0,1,0-2.233,0v2.512a1.116,1.116,0,1,0,2.233,0Z" fill="#112d55" fill-rule="evenodd"/>
      <path id="Path_1999" data-name="Path 1999" d="M29.8,23.876,31.571,22.1a1.116,1.116,0,0,0-1.578-1.578L28.217,22.3A1.117,1.117,0,0,0,29.8,23.876Z" fill="#112d55" fill-rule="evenodd"/>
      <path id="Path_2000" data-name="Path 2000" d="M30.232,27.163h2.512a1.116,1.116,0,1,0,0-2.233H30.232a1.116,1.116,0,0,0,0,2.233Z" fill="#112d55" fill-rule="evenodd"/>
      <path id="Path_2001" data-name="Path 2001" d="M28.217,29.8l1.777,1.776a1.116,1.116,0,0,0,1.578-1.578L29.8,28.217A1.117,1.117,0,0,0,28.217,29.8Z" fill="#112d55" fill-rule="evenodd"/>
      <path id="Path_2002" data-name="Path 2002" d="M24.93,30.232v2.512a1.116,1.116,0,1,0,2.233,0V30.232a1.116,1.116,0,0,0-2.233,0Z" fill="#112d55" fill-rule="evenodd"/>
      <path id="Path_2003" data-name="Path 2003" d="M22.3,28.217l-1.776,1.777A1.116,1.116,0,0,0,22.1,31.571L23.876,29.8A1.117,1.117,0,0,0,22.3,28.217Z" fill="#112d55" fill-rule="evenodd"/>
      <path id="Path_2004" data-name="Path 2004" d="M21.86,24.93H19.349a1.116,1.116,0,1,0,0,2.233H21.86a1.116,1.116,0,0,0,0-2.233Z" fill="#112d55" fill-rule="evenodd"/>
      <path id="Path_2005" data-name="Path 2005" d="M23.876,22.3,22.1,20.522A1.116,1.116,0,0,0,20.522,22.1L22.3,23.876A1.117,1.117,0,0,0,23.876,22.3Z" fill="#112d55" fill-rule="evenodd"/>
    </g>
  </g>
</svg>
