<svg width="14" height="16" viewBox="0 0 14 16" fill="none" xmlns="http://www.w3.org/2000/svg">
<path d="M6.89647 7.70728C7.97523 7.70728 8.90922 7.32751 9.67259 6.57825C10.4357 5.8291 10.8227 4.91248 10.8227 3.85352C10.8227 2.79492 10.4358 1.87817 9.67246 1.12878C8.9091 0.379761 7.97511 0 6.89647 0C5.81759 0 4.88372 0.379761 4.12048 1.12891C3.35724 1.87805 2.97021 2.7948 2.97021 3.85352C2.97021 4.91248 3.35724 5.82922 4.12048 6.57837C4.88397 7.32739 5.81796 7.70728 6.89647 7.70728ZM4.79604 1.79187C5.38169 1.21704 6.06869 0.937622 6.89647 0.937622C7.72413 0.937622 8.41126 1.21704 8.99703 1.79187C9.58267 2.36682 9.86747 3.04126 9.86747 3.85352C9.86747 4.66602 9.58267 5.34033 8.99703 5.91528C8.41126 6.49023 7.72413 6.76965 6.89647 6.76965C6.06894 6.76965 5.38193 6.49011 4.79604 5.91528C4.21028 5.34045 3.92548 4.66602 3.92548 3.85352C3.92548 3.04126 4.21028 2.36682 4.79604 1.79187Z" fill="#262626"/>
<path d="M13.767 12.3031C13.745 11.9913 13.7005 11.6512 13.6349 11.2921C13.5688 10.9303 13.4836 10.5883 13.3816 10.2756C13.2761 9.95251 13.133 9.63342 12.9557 9.32764C12.7721 9.01025 12.5562 8.73389 12.3139 8.50647C12.0606 8.26855 11.7504 8.07727 11.3917 7.93774C11.0343 7.79895 10.6382 7.72864 10.2145 7.72864C10.0481 7.72864 9.88712 7.79565 9.57633 7.99426C9.38506 8.1167 9.16132 8.2583 8.91159 8.41492C8.69805 8.54846 8.40878 8.67358 8.05147 8.78687C7.70287 8.89758 7.34892 8.95374 6.99945 8.95374C6.65023 8.95374 6.29628 8.89758 5.94744 8.78687C5.5905 8.67371 5.3011 8.54858 5.08794 8.41504C4.84057 8.25989 4.61671 8.11829 4.42257 7.99414C4.11203 7.79553 3.9511 7.72852 3.7847 7.72852C3.36086 7.72852 2.96487 7.79895 2.60757 7.93787C2.24914 8.07715 1.93885 8.26843 1.68526 8.50659C1.443 8.73413 1.2271 9.01038 1.04353 9.32764C0.866557 9.63342 0.723286 9.95239 0.617823 10.2758C0.515967 10.5884 0.430776 10.9303 0.364613 11.2921C0.298947 11.6508 0.254548 11.991 0.232535 12.3035C0.210895 12.609 0.199951 12.927 0.199951 13.2483C0.199951 14.0835 0.470449 14.7596 1.00386 15.2583C1.53068 15.7504 2.22763 15.9999 3.07543 15.9999H10.9245C11.772 15.9999 12.469 15.7504 12.9959 15.2583C13.5295 14.76 13.8 14.0836 13.8 13.2482C13.7998 12.9258 13.7888 12.6078 13.767 12.3031ZM12.3373 14.579C11.9892 14.9042 11.527 15.0623 10.9243 15.0623H3.07543C2.47263 15.0623 2.01048 14.9042 1.6625 14.5791C1.32112 14.2601 1.15521 13.8247 1.15521 13.2483C1.15521 12.9485 1.16529 12.6525 1.18543 12.3683C1.20508 12.0895 1.24525 11.7832 1.30483 11.4578C1.36365 11.1364 1.43852 10.8347 1.52757 10.5616C1.61301 10.2998 1.72954 10.0405 1.87405 9.79077C2.01197 9.55273 2.17067 9.34851 2.34577 9.18396C2.50957 9.03003 2.71601 8.90405 2.95928 8.80957C3.18426 8.72217 3.43709 8.67432 3.71157 8.66711C3.74502 8.68457 3.8046 8.7179 3.90111 8.77966C4.09748 8.90527 4.32383 9.04858 4.57405 9.20544C4.85612 9.38196 5.21952 9.54138 5.65368 9.67896C6.09755 9.81982 6.55024 9.89136 6.99958 9.89136C7.44892 9.89136 7.90173 9.81982 8.34535 9.67908C8.77989 9.54126 9.14316 9.38196 9.4256 9.2052C9.68167 9.04456 9.90168 8.9054 10.0981 8.77966C10.1946 8.71802 10.2541 8.68457 10.2876 8.66711C10.5622 8.67432 10.815 8.72217 11.0401 8.80957C11.2833 8.90405 11.4897 9.03015 11.6535 9.18396C11.8286 9.34839 11.9873 9.55261 12.1252 9.79089C12.2699 10.0405 12.3865 10.2999 12.4718 10.5615C12.561 10.835 12.636 11.1365 12.6947 11.4576C12.7542 11.7837 12.7944 12.0901 12.8141 12.3684V12.3687C12.8344 12.6517 12.8446 12.9476 12.8447 13.2483C12.8446 13.8248 12.6787 14.2601 12.3373 14.579Z" fill="#262626"/>
</svg>
