<svg width="120" height="60" viewBox="0 0 120 60" fill="none" xmlns="http://www.w3.org/2000/svg">
<path d="M98.8502 42.075C97.8002 42.075 97.8752 41.775 98.2502 41.025C99.2252 39 100.125 36.9 101.1 34.875C101.55 33.975 101.475 33.225 101.025 32.325C99.3002 28.95 97.5752 25.5 95.9252 22.05C95.7002 21.675 95.5502 21.3 95.3252 20.7C96.4502 20.7 97.4252 20.7 98.4752 20.7C99.1502 20.7 99.3002 21.225 99.5252 21.675C100.65 23.925 101.775 26.25 102.9 28.5C103.05 28.875 103.275 29.175 103.575 29.7C104.7 27.225 105.9 24.975 106.725 22.65C107.325 21 108.15 20.625 109.95 20.625C110.85 20.625 110.775 20.625 111.225 20.625C111.225 20.775 111.225 20.925 111.225 21.075C109.95 23.325 109.425 24.675 108.525 26.475C106.275 31.2 104.1 35.925 102 40.65C101.55 41.625 101.1 41.925 99.9002 41.925L98.8502 42.075Z" fill="#52DCD3"/>
<path d="M10.125 34.0514C10.125 31.8014 10.125 29.5514 10.125 27.2264C10.2 23.6264 13.35 20.4764 17.1 20.2514C20.85 20.0264 24.3 22.7264 24.9 26.4764C25.425 29.9264 23.025 33.7514 19.725 34.6514C18.15 35.1014 16.575 34.9514 14.925 35.0264C13.35 35.1014 13.35 35.0264 13.35 36.6764C13.35 38.1764 13.35 39.6764 13.35 41.1014C13.35 41.7764 13.125 42.0764 12.375 42.0764C10.125 42.1514 10.125 42.1514 10.125 39.9014C10.125 37.9514 10.125 36.0014 10.125 34.0514ZM15.825 31.9514C16.35 31.9514 16.95 31.9514 17.475 31.9514C19.875 31.8764 21.75 30.0764 21.825 27.7514C21.9 25.7264 20.175 23.7764 18.225 23.4764C15.675 23.1764 13.8 24.6014 13.425 27.1514C13.275 27.9014 13.35 28.6514 13.35 29.4014C13.2 31.9514 13.2 31.9514 15.825 31.9514Z" fill="#52DCD3"/>
<path d="M44.475 35.0264C40.275 35.0264 36.9 31.8014 36.975 27.6764C36.975 23.5514 40.35 20.3264 44.625 20.3264C48.825 20.3264 52.125 23.6264 52.125 27.7514C52.05 31.9514 48.675 35.1014 44.475 35.0264ZM48.6 27.7514C48.6 25.2764 46.875 23.4764 44.475 23.4764C42.075 23.4764 40.35 25.2764 40.35 27.7514C40.35 30.1514 42.075 31.9514 44.4 31.9514C46.875 32.0264 48.6 30.2264 48.6 27.7514Z" fill="#52DCD3"/>
<path d="M79.6502 35.0273C75.3752 35.0273 72.0752 31.8773 72.0752 27.7523C72.0752 23.5523 75.3752 20.4023 79.6502 20.4023C83.9252 20.4023 87.0752 23.5523 87.0752 27.7523C87.1502 31.9523 83.9252 35.1023 79.6502 35.0273ZM75.5252 27.7523C75.5252 30.3023 77.1752 32.0273 79.6502 32.0273C81.9752 32.0273 83.7752 30.2273 83.7752 27.8273C83.7752 25.3523 82.0502 23.5523 79.6502 23.4773C77.2502 23.4773 75.5252 25.2023 75.5252 27.7523Z" fill="#52DCD3"/>
<path d="M30.8996 22.5014C32.1746 20.8514 33.8246 20.3264 35.6996 20.4014C36.2996 20.4014 36.2996 20.6264 36.3746 21.2264C36.3746 21.7514 36.3746 21.8264 36.3746 22.1264C36.3746 23.1014 35.9996 23.5514 34.7996 23.5514C32.3996 23.4764 31.0496 24.9764 31.0496 27.3764C31.0496 29.5514 31.0496 31.6514 31.0496 33.8264C31.0496 34.5764 30.8246 34.8014 29.9996 34.8014C29.3246 34.8014 29.3996 34.8014 28.7996 34.8014C27.5996 34.8014 27.5996 34.3514 27.5996 32.4764C27.5996 28.9514 27.5996 25.3514 27.5996 21.8264C27.5996 20.9264 27.8246 20.7014 28.7246 20.7014C28.8746 20.7014 28.9496 20.7014 29.0996 20.7014C30.6746 20.7014 30.6746 20.7014 30.8996 22.5014Z" fill="#52DCD3"/>
<path d="M54.6748 34.0514C54.6748 31.8014 54.6748 29.5514 54.6748 27.2264C54.7498 23.6264 57.8998 20.4764 61.6498 20.2514C65.3998 20.0264 68.8498 22.7264 69.4498 26.4764C69.9748 29.9264 67.5748 33.7514 64.2748 34.6514C62.6998 35.1014 61.1248 34.9514 59.4748 35.0264C57.8998 35.1014 57.8998 35.0264 57.8998 36.6764C57.8998 38.1764 57.8998 39.6764 57.8998 41.1014C57.8998 41.7764 57.6748 42.0764 56.9248 42.0764C54.6748 42.1514 54.6748 42.1514 54.6748 39.9014C54.6748 37.9514 54.6748 36.0014 54.6748 34.0514ZM60.3748 31.9514C60.8998 31.9514 61.4998 31.9514 62.0248 31.9514C64.4248 31.8764 66.2998 30.0764 66.3748 27.7514C66.4498 25.7264 64.7248 23.7764 62.7748 23.4764C60.2248 23.1764 58.3498 24.6014 57.9748 27.1514C57.8248 27.9014 57.8998 28.6514 57.8998 29.4014C57.7498 31.9514 57.7498 31.9514 60.3748 31.9514Z" fill="#52DCD3"/>
<path d="M93.225 13.875H89.925V34.05C89.925 34.5 90.3 34.8 90.675 34.8H92.475C92.925 34.8 93.225 34.425 93.225 34.05V13.875Z" fill="#52DCD3"/>
</svg>
