<svg width="14" height="12" viewBox="0 0 14 12" fill="none" xmlns="http://www.w3.org/2000/svg">
<path d="M2.04592 8.2027C2.04565 8.34548 2.16308 8.46143 2.3082 8.4617C2.31361 8.4617 2.31903 8.46155 2.32443 8.46124L2.32968 8.4664C3.60253 8.46599 4.82692 8.93067 5.76803 9.76501C5.68421 9.73594 5.59996 9.70845 5.51531 9.68253M2.04592 8.2027V3.07339C2.01223 3.08226 1.97889 3.09123 1.94592 3.10032M2.04592 8.2027H1.94592V8.20261M2.04592 8.2027L1.94592 8.20251C1.94592 8.20254 1.94592 8.20258 1.94592 8.20261M1.94592 3.10032V2.99663C1.79705 3.03716 1.6552 3.07999 1.52042 3.12515M1.94592 3.10032C1.83316 3.1314 1.72465 3.1638 1.62042 3.19751M1.94592 3.10032V8.20261M1.52042 3.12515V9.609C1.5537 9.60014 1.58704 9.59152 1.62042 9.58315M1.52042 3.12515L1.55218 3.21997C1.57472 3.21242 1.59747 3.20493 1.62042 3.19751M1.52042 3.12515H1.62042V3.19751M1.62042 9.58315V9.68629C2.97351 9.34161 4.39912 9.40026 5.71649 9.85301C5.65082 9.79433 5.58374 9.73749 5.51531 9.68253M1.62042 9.58315C2.90535 9.26062 4.25372 9.2963 5.51531 9.68253M1.62042 9.58315V3.19751M5.51531 9.68253C4.62018 8.9636 3.4958 8.56603 2.32971 8.5664L2.28874 8.56641L2.28305 8.56081C2.09573 8.54783 1.94561 8.39369 1.94592 8.20261M11.7091 0.900005C9.86187 0.918527 8.12844 1.77312 7.00719 3.21282C5.89598 1.7718 4.16765 0.916026 2.32532 0.900004V0.9H2.32445C2.12564 0.9 1.96169 1.05901 1.96169 1.25854V2.3539C1.68399 2.4235 1.40984 2.5062 1.14019 2.60172L1.13107 2.60495L1.12273 2.60987L1.09371 2.62701H1.08423H1.03471L1.0047 2.66639L0.973165 2.70776L0.972875 2.70754L0.968293 2.71476L0.942009 2.75613L0.928727 2.77704L0.926739 2.80173C0.92607 2.81002 0.925692 2.81834 0.925604 2.82666C0.917362 2.84309 0.910421 2.86015 0.904841 2.87769L0.900132 2.89248V2.90801V10.0598C0.898516 10.0799 0.898667 10.1001 0.900584 10.1202L0.901703 10.1319L0.905515 10.143C0.911153 10.1595 0.918058 10.1756 0.926189 10.1911C0.932426 10.2046 0.939522 10.2176 0.947428 10.2301V10.2801L0.988058 10.31L1.03011 10.3411L1.0299 10.3413L1.03709 10.3458L1.07914 10.3716L1.10324 10.3865H1.13153H1.1683H1.23137H1.27342H1.32071H1.33683L1.35212 10.3814C3.17824 9.77722 5.18474 10.0267 6.80056 11.0584L6.80044 11.0586L6.80641 11.0619L6.8537 11.0877L6.87612 11.1H6.90168H6.98051H7.05933H7.10663H7.13536L7.15971 11.0848C8.77605 10.0725 10.7703 9.83111 12.5881 10.428L12.6033 10.433H12.6193H12.6666H12.7086H12.7717H12.8085H12.8383L12.8633 10.4166L12.9106 10.3856L12.9106 10.3856L12.9133 10.3838L12.9501 10.3579L12.9925 10.328V10.296C13.0279 10.2701 13.0583 10.2378 13.082 10.2006L13.0951 10.1799L13.0973 10.1556C13.0987 10.1391 13.099 10.1224 13.098 10.1059C13.0991 10.0888 13.099 10.0717 13.0977 10.0546V2.93868C13.0994 2.91949 13.0995 2.90019 13.098 2.88098C13.0989 2.86485 13.0986 2.84868 13.0973 2.83257L13.0953 2.80798L13.0821 2.78715L13.0558 2.74578L13.0561 2.74558L13.0509 2.73879L13.0194 2.69741L12.9894 2.65803H12.9398H12.9329L12.9106 2.64339L12.9003 2.6366L12.8886 2.63254C12.6206 2.53949 12.3484 2.45856 12.0729 2.38997V1.25854C12.0729 1.05901 11.9089 0.9 11.7101 0.899995L11.7091 0.900005ZM6.64402 3.92124V9.73083C5.62695 8.62129 4.21104 7.94024 2.69247 7.83464V1.6302C4.29246 1.76846 5.74505 2.60975 6.64402 3.92124ZM11.3369 7.85537C9.81547 7.96234 8.39663 8.64331 7.3748 9.75259V3.92159C8.28325 2.61511 9.73621 1.77565 11.3369 1.63029V7.85537ZM12.3879 3.19791V9.5834C11.1044 9.26363 9.75835 9.29951 8.49805 9.68346C9.39678 8.96262 10.5245 8.56311 11.6946 8.56126C11.8933 8.56118 12.0572 8.4022 12.0572 8.20272V3.09994C12.1667 3.12988 12.2769 3.16253 12.3879 3.19791Z" fill="white" stroke="white" stroke-width="0.2"/>
</svg>
