<svg width="10" height="9" viewBox="0 0 10 9" fill="none" xmlns="http://www.w3.org/2000/svg">
<mask id="path-1-inside-1_19_381" fill="white">
<path d="M9.99886 7.67253V1.63788C10.0004 1.62333 10.0004 1.60865 9.99886 1.5941C9.99981 1.58244 9.99981 1.57071 9.99886 1.55905L9.97696 1.52401L9.95068 1.48897H9.92003L9.88062 1.4627C9.63917 1.37751 9.39364 1.30443 9.1449 1.24372V0.218971C9.1449 0.0980413 9.04686 0 8.92593 0C7.37486 0.0158065 5.92216 0.762448 5.00647 2.01447C4.09957 0.76138 2.6513 0.0136716 1.10453 0C0.983595 0 0.885554 0.0980413 0.885554 0.218971V1.21308C0.635113 1.27452 0.38808 1.34907 0.145461 1.43642L0.101675 1.4627H0.0710061L0.0447303 1.49774L0.022827 1.53278C0.0219033 1.54444 0.0219033 1.55616 0.022827 1.56782C0.013569 1.58291 0.00621996 1.59908 0.000923756 1.616V7.67691C-0.000307919 7.69002 -0.000307919 7.7032 0.000923756 7.71632C0.00447509 7.72687 0.00886806 7.73714 0.0140616 7.74697C0.0210001 7.76257 0.0298271 7.77729 0.0403374 7.79076V7.81703L0.0753785 7.84331L0.11042 7.86521H0.141068H0.193619H0.22866H0.268074C1.81356 7.34553 3.51173 7.56002 4.87947 8.44765L4.91888 8.46955H4.98457H5.05026H5.08967C6.45767 7.5988 8.14533 7.39126 9.68355 7.90462H9.72297H9.75801H9.81056H9.84121L9.88062 7.87835L9.91127 7.85644V7.8258C9.94725 7.8082 9.97759 7.7809 9.99886 7.74697C9.99987 7.73531 9.99987 7.72359 9.99886 7.71193C10.0001 7.69883 10.0001 7.68565 9.99886 7.67253ZM0.434494 7.37913V1.79991C0.571703 1.75319 0.717697 1.7094 0.872416 1.66853V6.10036C0.87219 6.22129 0.970047 6.3195 1.09098 6.31972C1.09549 6.31972 1.10001 6.3196 1.1045 6.31933L1.10888 6.32371C2.24161 6.32334 3.32827 6.77218 4.13059 7.5718C2.95142 7.11149 1.65517 7.04393 0.434494 7.37913ZM4.7875 7.61998C3.9306 6.57721 2.67555 5.94172 1.32787 5.86828V0.442336C2.73003 0.537236 4.00845 1.2784 4.7875 2.44806V7.61998ZM5.22982 7.63749V2.44804C6.01628 1.28414 7.29289 0.544975 8.69384 0.442315H8.69821V5.88576C7.34842 5.96055 6.09115 6.59554 5.22982 7.63749ZM9.57408 7.37913C8.35458 7.04676 7.06062 7.1143 5.88234 7.57183C6.68798 6.7713 7.77706 6.32118 8.91281 6.31936C9.03374 6.31936 9.13178 6.22131 9.13178 6.10038V1.66853C9.27776 1.70649 9.42519 1.75027 9.5741 1.79991V7.37913H9.57408Z"/>
</mask>
<path d="M9.99886 7.67253V1.63788C10.0004 1.62333 10.0004 1.60865 9.99886 1.5941C9.99981 1.58244 9.99981 1.57071 9.99886 1.55905L9.97696 1.52401L9.95068 1.48897H9.92003L9.88062 1.4627C9.63917 1.37751 9.39364 1.30443 9.1449 1.24372V0.218971C9.1449 0.0980413 9.04686 0 8.92593 0C7.37486 0.0158065 5.92216 0.762448 5.00647 2.01447C4.09957 0.76138 2.6513 0.0136716 1.10453 0C0.983595 0 0.885554 0.0980413 0.885554 0.218971V1.21308C0.635113 1.27452 0.38808 1.34907 0.145461 1.43642L0.101675 1.4627H0.0710061L0.0447303 1.49774L0.022827 1.53278C0.0219033 1.54444 0.0219033 1.55616 0.022827 1.56782C0.013569 1.58291 0.00621996 1.59908 0.000923756 1.616V7.67691C-0.000307919 7.69002 -0.000307919 7.7032 0.000923756 7.71632C0.00447509 7.72687 0.00886806 7.73714 0.0140616 7.74697C0.0210001 7.76257 0.0298271 7.77729 0.0403374 7.79076V7.81703L0.0753785 7.84331L0.11042 7.86521H0.141068H0.193619H0.22866H0.268074C1.81356 7.34553 3.51173 7.56002 4.87947 8.44765L4.91888 8.46955H4.98457H5.05026H5.08967C6.45767 7.5988 8.14533 7.39126 9.68355 7.90462H9.72297H9.75801H9.81056H9.84121L9.88062 7.87835L9.91127 7.85644V7.8258C9.94725 7.8082 9.97759 7.7809 9.99886 7.74697C9.99987 7.73531 9.99987 7.72359 9.99886 7.71193C10.0001 7.69883 10.0001 7.68565 9.99886 7.67253ZM0.434494 7.37913V1.79991C0.571703 1.75319 0.717697 1.7094 0.872416 1.66853V6.10036C0.87219 6.22129 0.970047 6.3195 1.09098 6.31972C1.09549 6.31972 1.10001 6.3196 1.1045 6.31933L1.10888 6.32371C2.24161 6.32334 3.32827 6.77218 4.13059 7.5718C2.95142 7.11149 1.65517 7.04393 0.434494 7.37913ZM4.7875 7.61998C3.9306 6.57721 2.67555 5.94172 1.32787 5.86828V0.442336C2.73003 0.537236 4.00845 1.2784 4.7875 2.44806V7.61998ZM5.22982 7.63749V2.44804C6.01628 1.28414 7.29289 0.544975 8.69384 0.442315H8.69821V5.88576C7.34842 5.96055 6.09115 6.59554 5.22982 7.63749ZM9.57408 7.37913C8.35458 7.04676 7.06062 7.1143 5.88234 7.57183C6.68798 6.7713 7.77706 6.32118 8.91281 6.31936C9.03374 6.31936 9.13178 6.22131 9.13178 6.10038V1.66853C9.27776 1.70649 9.42519 1.75027 9.5741 1.79991V7.37913H9.57408Z" fill="#747474"/>
<path d="M9.99886 7.67253H8.99886V7.71938L9.00324 7.76602L9.99886 7.67253ZM9.99886 1.63788L9.00426 1.53407L8.99886 1.58584V1.63788H9.99886ZM9.99886 1.5941L9.00212 1.51337L8.99464 1.60574L9.00426 1.6979L9.99886 1.5941ZM9.99886 1.55905L10.9956 1.47833L10.9759 1.23556L10.8468 1.02902L9.99886 1.55905ZM9.97696 1.52401L10.8249 0.993975L10.8025 0.958016L10.777 0.924089L9.97696 1.52401ZM9.95068 1.48897L10.7507 0.889047L10.4507 0.488972H9.95068V1.48897ZM9.92003 1.48897L9.36533 2.32102L9.61726 2.48897H9.92003V1.48897ZM9.88062 1.4627L10.4353 0.630648L10.3313 0.561281L10.2133 0.519673L9.88062 1.4627ZM9.1449 1.24372H8.1449V2.02903L8.90782 2.21522L9.1449 1.24372ZM8.92593 0V-1.00005L8.91574 -0.999948L8.92593 0ZM5.00647 2.01447L4.19637 2.60076L5.00223 3.71423L5.81363 2.6048L5.00647 2.01447ZM1.10453 0L1.11336 -1H1.10453V0ZM0.885554 1.21308L1.12382 2.18428L1.88555 1.9974V1.21308H0.885554ZM0.145461 1.43642L-0.19327 0.495537L-0.28526 0.528655L-0.369094 0.578963L0.145461 1.43642ZM0.101675 1.4627V2.4627H0.378696L0.616229 2.32015L0.101675 1.4627ZM0.0710061 1.4627V0.462696H-0.429053L-0.72905 0.862771L0.0710061 1.4627ZM0.0447303 1.49774L-0.755326 0.897813L-0.780765 0.931737L-0.80324 0.967694L0.0447303 1.49774ZM0.022827 1.53278L-0.825143 1.00274L-0.954739 1.21006L-0.974049 1.4538L0.022827 1.53278ZM0.022827 1.56782L0.875162 2.09082L1.04541 1.81336L1.0197 1.48884L0.022827 1.56782ZM0.000923756 1.616L-0.953391 1.3172L-0.999076 1.46311V1.616H0.000923756ZM0.000923756 7.67691L0.996544 7.77039L1.00092 7.72375V7.67691H0.000923756ZM0.000923756 7.71632L-0.994697 7.80981L-0.983849 7.92534L-0.946834 8.03531L0.000923756 7.71632ZM0.0140616 7.74697L0.927774 7.34061L0.91406 7.30977L0.898298 7.27993L0.0140616 7.74697ZM0.0403374 7.79076H1.04034V7.4467L0.828653 7.17548L0.0403374 7.79076ZM0.0403374 7.81703H-0.959663V8.31709L-0.559587 8.61709L0.0403374 7.81703ZM0.0753785 7.84331L-0.524546 8.64336L-0.490624 8.6688L-0.454671 8.69127L0.0753785 7.84331ZM0.11042 7.86521L-0.41963 8.71318L-0.176409 8.86521H0.11042V7.86521ZM0.268074 7.86521V8.86521H0.431702L0.586797 8.81306L0.268074 7.86521ZM4.87947 8.44765L4.33508 9.28648L4.36379 9.30511L4.3937 9.32174L4.87947 8.44765ZM4.91888 8.46955L4.43311 9.34364L4.65968 9.46955H4.91888V8.46955ZM5.08967 8.46955V9.46955H5.38093L5.62664 9.31316L5.08967 8.46955ZM9.68355 7.90462L9.36698 8.85319L9.52109 8.90462H9.68355V7.90462ZM9.84121 7.90462V8.90462H10.144L10.3959 8.73668L9.84121 7.90462ZM9.88062 7.87835L10.4353 8.7104L10.4488 8.70138L10.4621 8.69193L9.88062 7.87835ZM9.91127 7.85644L10.4927 8.67003L10.9113 8.3709V7.85644H9.91127ZM9.91127 7.8258L9.47207 6.92741L8.91127 7.20157V7.8258H9.91127ZM9.99886 7.74697L10.8462 8.27803L10.9744 8.07345L10.9952 7.83292L9.99886 7.74697ZM9.99886 7.71193L9.00325 7.6183L8.99481 7.70806L9.00256 7.79788L9.99886 7.71193ZM0.434494 7.37913H-0.565506V8.69075L0.699295 8.34343L0.434494 7.37913ZM0.434494 1.79991L0.112155 0.853284L-0.565506 1.08404V1.79991H0.434494ZM0.872416 1.66853H1.87242V0.370063L0.617014 0.701695L0.872416 1.66853ZM0.872416 6.10036L1.87242 6.10223V6.10036H0.872416ZM1.09098 6.31972L1.08911 7.31972H1.09098V6.31972ZM1.1045 6.31933L1.81159 5.6122L1.49382 5.29446L1.04525 5.32109L1.1045 6.31933ZM1.10888 6.32371L0.401796 7.03084L0.69482 7.32384L1.1092 7.32371L1.10888 6.32371ZM4.13059 7.5718L3.76694 8.50334L4.83651 6.86351L4.13059 7.5718ZM4.7875 7.61998L4.01489 8.25487L5.7875 10.412V7.61998H4.7875ZM1.32787 5.86828H0.327869V6.81526L1.27345 6.86679L1.32787 5.86828ZM1.32787 0.442336L1.3954 -0.555382L0.327869 -0.627634V0.442336H1.32787ZM4.7875 2.44806H5.7875V2.14551L5.61979 1.89371L4.7875 2.44806ZM5.22982 7.63749H4.22982V10.4167L6.00057 8.27463L5.22982 7.63749ZM5.22982 2.44804L4.40124 1.88815L4.22982 2.14185V2.44804H5.22982ZM8.69384 0.442315V-0.557685H8.65725L8.62076 -0.555011L8.69384 0.442315ZM8.69821 0.442315H9.69821V-0.557685H8.69821V0.442315ZM8.69821 5.88576L8.75353 6.88423L9.69821 6.83189V5.88576H8.69821ZM9.57408 7.37913L9.31112 8.34394L9.44025 8.37913H9.57408V7.37913ZM5.88234 7.57183L5.17748 6.86247L6.24431 8.50402L5.88234 7.57183ZM8.91281 6.31936V5.31935L8.9112 5.31936L8.91281 6.31936ZM9.13178 1.66853L9.38343 0.700712L8.13178 0.375258V1.66853H9.13178ZM9.5741 1.79991H10.5741V1.07915L9.89033 0.851225L9.5741 1.79991ZM9.5741 7.37913V8.37913H10.5741V7.37913H9.5741ZM10.9989 7.67253V1.63788H8.99886V7.67253H10.9989ZM10.9935 1.74169C11.0022 1.65812 11.0022 1.57386 10.9935 1.49029L9.00426 1.6979C8.99858 1.64344 8.99858 1.58854 9.00426 1.53407L10.9935 1.74169ZM10.9956 1.67482C11.0009 1.60943 11.0009 1.54372 10.9956 1.47833L9.00212 1.63978C8.99872 1.59771 8.99872 1.55544 9.00212 1.51337L10.9956 1.67482ZM10.8468 1.02902L10.8249 0.993975L9.12898 2.05405L9.15089 2.08909L10.8468 1.02902ZM10.777 0.924089L10.7507 0.889047L9.15063 2.0889L9.1769 2.12394L10.777 0.924089ZM9.95068 0.488972H9.92003V2.48897H9.95068V0.488972ZM10.4747 0.656924L10.4353 0.630648L9.32592 2.29474L9.36533 2.32102L10.4747 0.656924ZM10.2133 0.519673C9.94052 0.423409 9.66306 0.340828 9.38198 0.272235L8.90782 2.21522C9.12422 2.26802 9.33783 2.3316 9.54789 2.40572L10.2133 0.519673ZM10.1449 1.24372V0.218971H8.1449V1.24372H10.1449ZM10.1449 0.218971C10.1449 -0.454242 9.59914 -1 8.92593 -1V1C8.49457 1 8.1449 0.650325 8.1449 0.218971H10.1449ZM8.91574 -0.999948C7.04928 -0.980928 5.30119 -0.0824667 4.19931 1.42413L5.81363 2.6048C6.54313 1.60736 7.70044 1.01254 8.93612 0.999948L8.91574 -0.999948ZM5.81657 1.42817C4.72344 -0.0822289 2.97777 -0.983482 1.11336 -0.999961L1.09569 0.999961C2.32483 1.01083 3.4757 1.60499 4.19637 2.60076L5.81657 1.42817ZM1.10453 -1C0.43131 -1 -0.114446 -0.454243 -0.114446 0.218971H1.88555C1.88555 0.650326 1.53588 1 1.10453 1V-1ZM-0.114446 0.218971V1.21308H1.88555V0.218971H-0.114446ZM0.647291 0.241876C0.362824 0.311664 0.0822567 0.396344 -0.19327 0.495537L0.484192 2.3773C0.693904 2.3018 0.907402 2.23737 1.12382 2.18428L0.647291 0.241876ZM-0.369094 0.578963L-0.41288 0.605239L0.616229 2.32015L0.660015 2.29388L-0.369094 0.578963ZM0.101675 0.462696H0.0710061V2.4627H0.101675V0.462696ZM-0.72905 0.862771L-0.755326 0.897813L0.844787 2.09766L0.871062 2.06262L-0.72905 0.862771ZM-0.80324 0.967694L-0.825143 1.00274L0.870798 2.06282L0.892701 2.02778L-0.80324 0.967694ZM-0.974049 1.4538C-0.979138 1.51803 -0.979138 1.58257 -0.974049 1.6468L1.0197 1.48884C1.02294 1.52975 1.02294 1.57085 1.0197 1.61176L-0.974049 1.4538ZM-0.829507 1.04482C-0.882059 1.13047 -0.923579 1.22198 -0.953391 1.3172L0.955239 1.9148C0.936019 1.97618 0.909197 2.03535 0.875162 2.09082L-0.829507 1.04482ZM-0.999076 1.616V7.67691H1.00092V1.616H-0.999076ZM-0.994697 7.58342C-1.00177 7.65873 -1.00177 7.7345 -0.994697 7.80981L0.996544 7.62284C1.00115 7.67191 1.00115 7.72132 0.996544 7.77039L-0.994697 7.58342ZM-0.946834 8.03531C-0.926323 8.09625 -0.900779 8.15607 -0.870175 8.21401L0.898298 7.27993C0.918515 7.31821 0.935274 7.35749 0.948681 7.39733L-0.946834 8.03531ZM-0.899651 8.15333C-0.859682 8.2432 -0.808794 8.32811 -0.747978 8.40603L0.828653 7.17548C0.868448 7.22647 0.901682 7.28194 0.927774 7.34061L-0.899651 8.15333ZM-0.959663 7.79076V7.81703H1.04034V7.79076H-0.959663ZM-0.559587 8.61709L-0.524546 8.64336L0.675303 7.04325L0.640262 7.01697L-0.559587 8.61709ZM-0.454671 8.69127L-0.41963 8.71318L0.640469 7.01724L0.605428 6.99534L-0.454671 8.69127ZM0.11042 8.86521H0.141068V6.86521H0.11042V8.86521ZM0.141068 8.86521H0.193619V6.86521H0.141068V8.86521ZM0.193619 8.86521H0.22866V6.86521H0.193619V8.86521ZM0.22866 8.86521H0.268074V6.86521H0.22866V8.86521ZM0.586797 8.81306C1.84301 8.39064 3.22334 8.56499 4.33508 9.28648L5.42385 7.60881C3.80012 6.55505 1.78411 6.30041 -0.0506491 6.91736L0.586797 8.81306ZM4.3937 9.32174L4.43311 9.34364L5.40464 7.59546L5.36523 7.57356L4.3937 9.32174ZM4.91888 9.46955H4.98457V7.46955H4.91888V9.46955ZM4.98457 9.46955H5.05026V7.46955H4.98457V9.46955ZM5.05026 9.46955H5.08967V7.46955H5.05026V9.46955ZM5.62664 9.31316C6.74046 8.60419 8.11456 8.43521 9.36698 8.85319L10.0001 6.95606C8.17611 6.34731 6.17488 6.59341 4.55271 7.62595L5.62664 9.31316ZM9.68355 8.90462H9.72297V6.90462H9.68355V8.90462ZM9.72297 8.90462H9.75801V6.90462H9.72297V8.90462ZM9.75801 8.90462H9.81056V6.90462H9.75801V8.90462ZM9.81056 8.90462H9.84121V6.90462H9.81056V8.90462ZM10.3959 8.73668L10.4353 8.7104L9.32592 7.0463L9.28651 7.07257L10.3959 8.73668ZM10.4621 8.69193L10.4927 8.67003L9.32982 7.04286L9.29918 7.06476L10.4621 8.69193ZM10.9113 7.85644V7.8258H8.91127V7.85644H10.9113ZM10.3505 8.72418C10.554 8.62467 10.7258 8.47016 10.8462 8.27803L9.15153 7.21591C9.22941 7.09164 9.34048 6.99174 9.47207 6.92741L10.3505 8.72418ZM10.9952 7.83292C11.0011 7.76406 11.0011 7.69483 10.9952 7.62598L9.00256 7.79788C8.99863 7.75234 8.99863 7.70655 9.00256 7.66102L10.9952 7.83292ZM10.9945 7.80556C11.0016 7.73013 11.0015 7.6543 10.9945 7.57905L9.00324 7.76602C8.99864 7.717 8.99862 7.66753 9.00325 7.6183L10.9945 7.80556ZM1.43449 7.37913V1.79991H-0.565506V7.37913H1.43449ZM0.756833 2.74653C0.869768 2.70808 0.993271 2.67091 1.12782 2.63536L0.617014 0.701695C0.442123 0.747895 0.273637 0.798297 0.112155 0.853284L0.756833 2.74653ZM-0.127584 1.66853V6.10036H1.87242V1.66853H-0.127584ZM-0.127582 6.0985C-0.12884 6.77182 0.416001 7.31847 1.08911 7.31972L1.09284 5.31973C1.52409 5.32053 1.87322 5.67077 1.87241 6.10223L-0.127582 6.0985ZM1.09098 7.31972C1.11355 7.31972 1.1379 7.31911 1.16376 7.31758L1.04525 5.32109C1.06212 5.32009 1.07743 5.31972 1.09098 5.31972V7.31972ZM0.397423 7.02647L0.401796 7.03084L1.81596 5.61657L1.81159 5.6122L0.397423 7.02647ZM1.1092 7.32371C1.97718 7.32342 2.80987 7.66736 3.42467 8.2801L4.83651 6.86351C3.84668 5.877 2.50603 5.32325 1.10855 5.32371L1.1092 7.32371ZM4.49424 6.64027C3.11456 6.10167 1.5979 6.02264 0.169693 6.41483L0.699295 8.34343C1.71243 8.06522 2.78829 8.1213 3.76694 8.50334L4.49424 6.64027ZM5.56011 6.9851C4.52533 5.72586 3.00974 4.95845 1.38229 4.86976L1.27345 6.86679C2.34135 6.92499 3.33587 7.42855 4.01489 8.25487L5.56011 6.9851ZM2.32787 5.86828V0.442336H0.327869V5.86828H2.32787ZM1.26034 1.44005C2.35256 1.51398 3.34837 2.0913 3.95521 3.0024L5.61979 1.89371C4.66852 0.46549 3.1075 -0.439504 1.3954 -0.555382L1.26034 1.44005ZM3.7875 2.44806V7.61998H5.7875V2.44806H3.7875ZM6.22982 7.63749V2.44804H4.22982V7.63749H6.22982ZM6.05839 3.00792C6.67332 2.09788 7.67151 1.51991 8.76692 1.43964L8.62076 -0.555011C6.91427 -0.429961 5.35924 0.470413 4.40124 1.88815L6.05839 3.00792ZM8.69384 1.44232H8.69821V-0.557685H8.69384V1.44232ZM7.69821 0.442315V5.88576H9.69821V0.442315H7.69821ZM8.64289 4.8873C7.01468 4.9775 5.49806 5.74348 4.45907 7.00036L6.00057 8.27463C6.68423 7.4476 7.68217 6.94359 8.75353 6.88423L8.64289 4.8873ZM9.83703 6.41432C8.4111 6.02569 6.8981 6.10466 5.52037 6.63964L6.24431 8.50402C7.22313 8.12394 8.29805 8.06783 9.31112 8.34394L9.83703 6.41432ZM6.58719 8.28118C7.20587 7.66642 8.04223 7.32076 8.91442 7.31935L8.9112 5.31936C7.5119 5.32161 6.17008 5.87618 5.17748 6.86247L6.58719 8.28118ZM8.91281 7.31936C9.58603 7.31936 10.1318 6.7736 10.1318 6.10038H8.13178C8.13178 5.66903 8.48146 5.31936 8.91281 5.31936V7.31936ZM10.1318 6.10038V1.66853H8.13178V6.10038H10.1318ZM8.88013 2.63635C9.00354 2.66844 9.12944 2.70578 9.25787 2.74859L9.89033 0.851225C9.72094 0.794764 9.55197 0.744535 9.38343 0.700712L8.88013 2.63635ZM8.5741 1.79991V7.37913H10.5741V1.79991H8.5741ZM9.5741 6.37913H9.57408V8.37913H9.5741V6.37913Z" fill="#222222" mask="url(#path-1-inside-1_19_381)"/>
</svg>
