<svg width="32" height="32" viewBox="0 0 32 32" fill="none" xmlns="http://www.w3.org/2000/svg">
<rect width="32" height="32" rx="4" fill="#E7E7E7"/>
<path d="M16.6546 13.9483C15.8238 11.5585 13.5933 9.8457 10.9651 9.8457C7.62687 9.8457 4.9231 12.5995 4.9231 15.9995C4.9231 19.3995 7.62687 22.1534 10.9651 22.1534C13.5933 22.1534 15.8238 20.4406 16.6546 18.0508H21.035V22.1534H25.0629V18.0508H27.0769V13.9483H16.6546ZM10.9651 18.0508C9.85235 18.0508 8.95106 17.1329 8.95106 15.9995C8.95106 14.8661 9.85235 13.9483 10.9651 13.9483C12.0778 13.9483 12.9791 14.8662 12.9791 15.9995C12.9791 17.1329 12.0778 18.0508 10.9651 18.0508Z" fill="#525252"/>
</svg>
