<svg width="8" height="8" viewBox="0 0 8 8" fill="none" xmlns="http://www.w3.org/2000/svg">
<path d="M0.390696 8C0.313427 8.00001 0.23789 7.97711 0.173639 7.93419C0.109388 7.89127 0.0593099 7.83026 0.0297386 7.75887C0.00016733 7.68749 -0.00756842 7.60893 0.00750986 7.53315C0.0225881 7.45737 0.0598031 7.38776 0.114447 7.33313L7.33315 0.114426C7.40642 0.0411602 7.50579 0 7.6094 0C7.71301 0 7.81238 0.0411602 7.88565 0.114426C7.95891 0.187691 8.00007 0.287061 8.00007 0.390674C8.00007 0.494287 7.95891 0.593657 7.88565 0.666922L0.666944 7.88563C0.6307 7.92194 0.587637 7.95075 0.54023 7.97037C0.492823 7.99 0.442005 8.00007 0.390696 8Z" fill="#525252"/>
<path d="M7.60938 8C7.55807 8.00007 7.50725 7.99 7.45984 7.97037C7.41244 7.95074 7.36937 7.92194 7.33313 7.88563L0.114426 0.666922C0.0411602 0.593657 0 0.494287 0 0.390674C0 0.287061 0.0411602 0.187691 0.114426 0.114426C0.187691 0.0411602 0.287061 0 0.390674 0C0.494287 0 0.593657 0.0411602 0.666922 0.114426L7.88563 7.33313C7.94027 7.38776 7.97748 7.45737 7.99256 7.53315C8.00764 7.60893 7.99991 7.68749 7.97033 7.75887C7.94076 7.83026 7.89068 7.89127 7.82643 7.93419C7.76218 7.97711 7.68665 8.00001 7.60938 8Z" fill="#525252"/>
</svg>
