<svg width="32" height="32" viewBox="0 0 32 32" fill="none" xmlns="http://www.w3.org/2000/svg">
<path d="M5.71875 14.6953H26.628C27.3184 14.6953 27.878 15.2549 27.878 15.9453V20.7273C27.878 21.4177 27.3184 21.9773 26.628 21.9773H5.71875C5.02838 21.9773 4.46875 21.4177 4.46875 20.7273V15.9453C4.46875 15.2549 5.02838 14.6953 5.71875 14.6953Z" fill="#FF8389"/>
<path d="M8.55555 19.8474C9.39147 19.8474 10.0691 19.1698 10.0691 18.3339C10.0691 17.498 9.39147 16.8203 8.55555 16.8203C7.71964 16.8203 7.04199 17.498 7.04199 18.3339C7.04199 19.1698 7.71964 19.8474 8.55555 19.8474Z" fill="white"/>
<path d="M5.71875 24.25H26.628C27.3184 24.25 27.878 24.8096 27.878 25.5V30.282C27.878 30.9724 27.3184 31.532 26.628 31.532H5.71875C5.02838 31.532 4.46875 30.9724 4.46875 30.282V25.5C4.46875 24.8096 5.02838 24.25 5.71875 24.25Z" fill="#B1D7FE"/>
<path d="M8.55555 29.4021C9.39147 29.4021 10.0691 28.7245 10.0691 27.8886C10.0691 27.0526 9.39147 26.375 8.55555 26.375C7.71964 26.375 7.04199 27.0526 7.04199 27.8886C7.04199 28.7245 7.71964 29.4021 8.55555 29.4021Z" fill="white"/>
<path d="M16.1724 2.18125C16.5221 2.18125 16.8598 2.23331 17.1788 2.32888C17.3025 2.13981 17.3751 1.91425 17.3751 1.67144C17.3751 1.00719 16.8367 0.46875 16.1724 0.46875C15.5082 0.46875 14.9697 1.00719 14.9697 1.67144C14.9697 1.91425 15.0423 2.13988 15.166 2.32888C15.485 2.23331 15.8227 2.18125 16.1724 2.18125Z" fill="#FEDF30"/>
<path d="M14.5595 10.8359C14.5425 10.9304 14.5332 11.0274 14.5332 11.1267C14.5332 12.0322 15.2673 12.7662 16.1728 12.7662C17.0783 12.7662 17.8123 12.0322 17.8123 11.1267C17.8123 11.0274 17.803 10.9303 17.7861 10.8359H14.5595Z" fill="#FED402"/>
<path d="M19.7482 7.91475V5.69269C19.7482 3.718 18.1474 2.11719 16.1727 2.11719C14.198 2.11719 12.5972 3.718 12.5972 5.69269V7.91475L11.6925 8.8195C11.583 8.929 11.5215 9.0775 11.5215 9.23237V10.3096C11.5215 10.6321 11.7829 10.8935 12.1054 10.8935H20.2402C20.5627 10.8935 20.824 10.6321 20.824 10.3096V9.23237C20.824 9.0775 20.7625 8.929 20.653 8.8195L19.7482 7.91475Z" fill="#FED402"/>
<path d="M20.653 8.82269L19.7482 7.91794V5.69588C19.7482 4.6945 19.336 3.78975 18.6727 3.14062V8.37663C18.6727 8.72181 18.3929 9.00163 18.0477 9.00163H11.5709C11.5389 9.07475 11.5215 9.15419 11.5215 9.23556V10.3128C11.5215 10.6353 11.7829 10.8967 12.1054 10.8967H20.2402C20.5626 10.8967 20.824 10.6353 20.824 10.3128V9.23556C20.824 9.08069 20.7625 8.93219 20.653 8.82269Z" fill="#FAC600"/>
<path d="M20.4989 8.82975C22.1821 8.82975 23.5465 7.46525 23.5465 5.78206C23.5465 4.09887 22.1821 2.73438 20.4989 2.73438C18.8157 2.73438 17.4512 4.09887 17.4512 5.78206C17.4512 7.46525 18.8157 8.82975 20.4989 8.82975Z" fill="#FF8389"/>
<path d="M21.1618 2.80469C21.6365 3.34206 21.9251 4.04763 21.9251 4.821C21.9251 6.50419 20.5606 7.86869 18.8774 7.86869C18.6498 7.86869 18.4282 7.84294 18.2148 7.79563C18.7733 8.42781 19.5895 8.827 20.4993 8.827C22.1825 8.827 23.547 7.4625 23.547 5.77931C23.547 4.32375 22.5263 3.10731 21.1618 2.80469Z" fill="#FF6677"/>
<path d="M26.628 14.6953H25.9234V19.4054C25.9234 19.7506 25.6436 20.0304 25.2984 20.0304H4.46875V20.7273C4.46875 21.4177 5.02838 21.9773 5.71875 21.9773H26.628C27.3184 21.9773 27.878 21.4177 27.878 20.7273V15.9453C27.878 15.2549 27.3184 14.6953 26.628 14.6953Z" fill="#FF6677"/>
<path d="M26.628 24.25H25.9234V28.9601C25.9234 29.3053 25.6436 29.5851 25.2984 29.5851H4.46875V30.282C4.46875 30.9724 5.02838 31.532 5.71875 31.532H26.628C27.3184 31.532 27.878 30.9724 27.878 30.282V25.5C27.878 24.8096 27.3184 24.25 26.628 24.25Z" fill="#8BC6F8"/>
<path d="M12.0869 17.6328H25.3055C25.5645 17.6328 25.7743 17.4229 25.7743 17.1641C25.7743 16.9052 25.5645 16.6953 25.3055 16.6953H12.0869C11.828 16.6953 11.6182 16.9052 11.6182 17.1641C11.6182 17.4229 11.828 17.6328 12.0869 17.6328Z" fill="black"/>
<path d="M12.0869 19.9844H25.3055C25.5645 19.9844 25.7743 19.7745 25.7743 19.5156C25.7743 19.2567 25.5645 19.0469 25.3055 19.0469H12.0869C11.828 19.0469 11.6182 19.2567 11.6182 19.5156C11.6182 19.7745 11.828 19.9844 12.0869 19.9844Z" fill="black"/>
<path d="M25.3055 26.2422H12.0869C11.828 26.2422 11.6182 26.4521 11.6182 26.7109C11.6182 26.9698 11.828 27.1797 12.0869 27.1797H25.3055C25.5645 27.1797 25.7743 26.9698 25.7743 26.7109C25.7743 26.4521 25.5645 26.2422 25.3055 26.2422Z" fill="black"/>
<path d="M25.3055 28.6016H12.0869C11.828 28.6016 11.6182 28.8114 11.6182 29.0703C11.6182 29.3292 11.828 29.5391 12.0869 29.5391H25.3055C25.5645 29.5391 25.7743 29.3292 25.7743 29.0703C25.7743 28.8114 25.5645 28.6016 25.3055 28.6016Z" fill="black"/>
<path d="M9.5462 8.60159C9.65382 8.60159 9.76201 8.56471 9.85026 8.4894C10.0472 8.32134 10.0706 8.02546 9.90251 7.82852C8.94288 6.70396 8.94288 4.87415 9.90251 3.74959C10.0706 3.55265 10.0471 3.25677 9.8502 3.08877C9.65332 2.92071 9.35738 2.94409 9.18938 3.14109C7.94338 4.60121 7.94338 6.97702 9.18938 8.43715C9.28213 8.54577 9.41376 8.60159 9.5462 8.60159Z" fill="black"/>
<path d="M10.8613 7.23438C10.969 7.23438 11.0771 7.1975 11.1654 7.12219C11.3623 6.95419 11.3858 6.65825 11.2177 6.46131C10.9068 6.09694 10.9068 5.48119 11.2177 5.11675C11.3858 4.91982 11.3623 4.62394 11.1654 4.45594C10.9685 4.28788 10.6725 4.31131 10.5046 4.50825C9.8917 5.2265 9.8917 6.35169 10.5046 7.06994C10.5973 7.17856 10.7289 7.23438 10.8613 7.23438Z" fill="black"/>
<path d="M24.6196 8.48938C24.7079 8.56476 24.816 8.60157 24.9236 8.60157C25.056 8.60157 25.1877 8.54576 25.2804 8.43707C26.5264 6.97701 26.5264 4.60119 25.2804 3.14107C25.1124 2.94419 24.8165 2.92063 24.6196 3.08876C24.4227 3.25676 24.3993 3.55263 24.5673 3.74957C25.5269 4.87419 25.5269 6.70401 24.5673 7.82857C24.3992 8.02544 24.4226 8.32132 24.6196 8.48938Z" fill="black"/>
<path d="M21.107 6.96387V4.60938C21.107 4.3505 20.8972 4.14062 20.6382 4.14062H20.0322C19.7733 4.14062 19.5635 4.3505 19.5635 4.60938C19.5635 4.86825 19.7733 5.07812 20.0322 5.07812H20.1695V6.96381C20.1695 7.22269 20.3793 7.43256 20.6382 7.43256C20.8972 7.43256 21.107 7.22275 21.107 6.96387Z" fill="black"/>
<path d="M6.57227 18.3417C6.57227 19.4348 7.46158 20.324 8.55464 20.324C9.6477 20.324 10.537 19.4347 10.537 18.3417C10.537 17.2487 9.64764 16.3594 8.55464 16.3594C7.46152 16.3593 6.57227 17.2486 6.57227 18.3417ZM8.55458 17.2968C9.1307 17.2968 9.59939 17.7656 9.59939 18.3416C9.59939 18.9177 9.13064 19.3864 8.55458 19.3864C7.97845 19.3864 7.5097 18.9177 7.5097 18.3416C7.5097 17.7656 7.97845 17.2968 8.55458 17.2968Z" fill="black"/>
<path d="M6.57227 27.8886C6.57227 28.9816 7.46158 29.8709 8.55464 29.8709C9.6477 29.8709 10.537 28.9816 10.537 27.8886C10.537 26.7956 9.64764 25.9062 8.55464 25.9062C7.46152 25.9062 6.57227 26.7955 6.57227 27.8886ZM9.59945 27.8886C9.59945 28.4647 9.1307 28.9334 8.55464 28.9334C7.97852 28.9334 7.50977 28.4646 7.50977 27.8886C7.50977 27.3125 7.97852 26.8438 8.55464 26.8438C9.1307 26.8438 9.59945 27.3124 9.59945 27.8886Z" fill="black"/>
<path d="M26.628 14.2266H9.54838C9.2895 14.2266 9.07963 14.4364 9.07963 14.6953C9.07963 14.9542 9.2895 15.1641 9.54838 15.1641H26.628C27.0588 15.1641 27.4092 15.5145 27.4092 15.9453V20.7273C27.4092 21.1581 27.0588 21.5086 26.628 21.5086H5.71875C5.28794 21.5086 4.9375 21.1581 4.9375 20.7273V15.9453C4.9375 15.5145 5.28794 15.1641 5.71875 15.1641H7.36087C7.61975 15.1641 7.82962 14.9542 7.82962 14.6953C7.82962 14.4364 7.61975 14.2266 7.36087 14.2266H5.71875C4.771 14.2266 4 14.9976 4 15.9453V20.7273C4 21.6751 4.771 22.4461 5.71875 22.4461H26.6281C27.5757 22.4461 28.3468 21.6751 28.3468 20.7273V15.9453C28.3467 14.9976 27.5757 14.2266 26.628 14.2266Z" fill="black"/>
<path d="M26.628 23.7812H23.3609C23.1019 23.7812 22.8921 23.9911 22.8921 24.25C22.8921 24.5089 23.1019 24.7188 23.3609 24.7188H26.628C27.0588 24.7188 27.4092 25.0692 27.4092 25.5V30.282C27.4092 30.7128 27.0588 31.0632 26.628 31.0632H5.71875C5.28794 31.0632 4.9375 30.7128 4.9375 30.282V25.5C4.9375 25.0692 5.28794 24.7188 5.71875 24.7188H21.1734C21.4323 24.7188 21.6421 24.5089 21.6421 24.25C21.6421 23.9911 21.4323 23.7812 21.1734 23.7812H5.71875C4.771 23.7812 4 24.5523 4 25.5V30.282C4 31.2297 4.771 32.0007 5.71875 32.0007H26.6281C27.5757 32.0007 28.3468 31.2297 28.3468 30.282V25.5C28.3467 24.5523 27.5757 23.7812 26.628 23.7812Z" fill="black"/>
<path d="M11.0537 10.3111C11.0537 10.8916 11.5259 11.3638 12.1063 11.3638H14.0796C14.1994 12.4134 15.0926 13.2316 16.1737 13.2316C17.2549 13.2316 18.1481 12.4134 18.2678 11.3638H20.2411C20.8215 11.3638 21.2937 10.8915 21.2937 10.3111V9.23394C21.2937 9.22669 21.2928 9.21962 21.2927 9.21237C22.8508 8.85162 24.016 7.45344 24.016 5.78725C24.016 3.84831 22.4385 2.27081 20.4995 2.27081C19.909 2.27081 19.3523 2.41781 18.8632 2.67613C18.5486 2.39625 18.1935 2.16837 17.8123 1.99919C17.834 1.89156 17.8451 1.78175 17.8451 1.67138C17.8451 0.749813 17.0953 0 16.1737 0C15.2521 0 14.5023 0.749812 14.5023 1.67144C14.5023 1.78131 14.5133 1.89069 14.5348 1.99787C13.8642 2.29556 13.2767 2.77425 12.8468 3.3955C12.6995 3.60837 12.7526 3.90038 12.9655 4.04769C13.0468 4.104 13.1398 4.13106 13.2318 4.131C13.3804 4.131 13.5266 4.0605 13.6176 3.929C14.199 3.089 15.1546 2.5875 16.1737 2.5875C16.8765 2.5875 17.5373 2.81663 18.0789 3.24025C17.4047 3.88131 16.9831 4.78569 16.9831 5.78725C16.9831 7.67813 18.4835 9.2245 20.3562 9.30006V10.3111C20.3562 10.3746 20.3046 10.4263 20.2411 10.4263H12.1063C12.0428 10.4263 11.9912 10.3746 11.9912 10.3111V9.23394C11.9912 9.20362 12.0035 9.174 12.025 9.1525L12.9297 8.24775C13.0176 8.15988 13.067 8.04063 13.067 7.91631V5.7725C13.067 5.51363 12.8571 5.30375 12.5983 5.30375C12.3394 5.30375 12.1295 5.51363 12.1295 5.7725V7.72219L11.3621 8.48962C11.1633 8.68844 11.0538 8.95281 11.0538 9.23394L11.0537 10.3111ZM15.4427 1.71675C15.4418 1.70163 15.4398 1.68675 15.4398 1.67144C15.4398 1.26675 15.769 0.9375 16.1737 0.9375C16.5785 0.9375 16.9076 1.26675 16.9076 1.67144C16.9076 1.68738 16.9056 1.70287 16.9046 1.71862C16.6648 1.67412 16.4203 1.65 16.1737 1.65C15.9263 1.65 15.6818 1.67275 15.4427 1.71675ZM17.9206 5.78725C17.9206 4.36525 19.0775 3.20831 20.4995 3.20831C21.9215 3.20831 23.0785 4.36519 23.0785 5.78725C23.0785 7.20931 21.9215 8.36619 20.4995 8.36619C19.0775 8.36619 17.9206 7.20925 17.9206 5.78725ZM17.3196 11.3638C17.2085 11.8944 16.7369 12.2941 16.1737 12.2941C15.6105 12.2941 15.139 11.8944 15.0278 11.3638H17.3196Z" fill="black"/>
</svg>
