<svg width="24" height="24" viewBox="0 0 24 24" xmlns="http://www.w3.org/2000/svg">
    <path d="M20.709 19.296a1 1 0 0 1 0 1.412C20.573 20.84 17.352 24 12 24c-4.674 0-8.066-2.8-10-4.981V22a1 1 0 0 1-2 0v-6a1 1 0 0 1 1-1h6a1 1 0 0 1 0 2H2.93c1.54 1.919 4.695 5 9.07 5 4.5 0 7.267-2.683 7.295-2.71a1 1 0 0 1 1.414.006zM23 1a1 1 0 0 0-1 1v2.981C20.066 2.8 16.674 0 12 0 6.647 0 3.428 3.159 3.293 3.292A1 1 0 0 0 4.705 4.71C4.732 4.683 7.5 2 12 2c4.375 0 7.53 3.081 9.07 5H17a1 1 0 0 0 0 2h6a1 1 0 0 0 1-1V2a1 1 0 0 0-1-1z" fill="#152027" fill-rule="nonzero"/>
</svg>