<svg width="16" height="16" viewBox="0 0 16 16" fill="none" xmlns="http://www.w3.org/2000/svg">
<path d="M8 0C3.58878 0 0 3.58878 0 8C0 12.4112 3.58878 16 8 16C12.4112 16 16 12.4112 16 8C16 3.58878 12.4112 0 8 0Z" fill="white"/>
<path d="M8 0C3.58878 0 0 3.58878 0 8C0 12.4112 3.58878 16 8 16C12.4112 16 16 12.4112 16 8C16 3.58878 12.4112 0 8 0ZM8 14.5455C4.3908 14.5455 1.45455 11.609 1.45455 8C1.45455 4.3908 4.3908 1.45455 8 1.45455C11.6092 1.45455 14.5455 4.3908 14.5455 8C14.5455 11.609 11.6092 14.5455 8 14.5455Z" fill="#717171"/>
<path d="M11.0855 10.0589C11.3696 10.343 11.3696 10.8033 11.0855 11.0874C10.9437 11.2294 10.7574 11.3004 10.5713 11.3004C10.3852 11.3004 10.199 11.2294 10.0571 11.0874L7.99994 9.03018L5.94277 11.0874C5.8009 11.2294 5.61465 11.3004 5.42857 11.3004C5.24249 11.3004 5.05623 11.2294 4.91436 11.0874C4.63027 10.8033 4.63027 10.343 4.91436 10.0589L6.97154 8.00178L4.91436 5.9446C4.63027 5.66069 4.63027 5.20011 4.91436 4.91619C5.1981 4.6321 5.65904 4.6321 5.94277 4.91619L7.99994 6.97337L10.0571 4.91619C10.3409 4.6321 10.8018 4.6321 11.0855 4.91619C11.3696 5.20011 11.3696 5.66069 11.0855 5.9446L9.02835 8.00178L11.0855 10.0589Z" fill="#717171"/>
</svg>
