<svg width="16" height="16" viewBox="0 0 16 16" fill="none" xmlns="http://www.w3.org/2000/svg">
<circle cx="8" cy="8" r="7.5" fill="white" stroke="#EDEDED"/>
<path d="M5.29295 11.05C5.22514 11.05 5.15885 11.0299 5.10246 10.9922C5.04604 10.9545 5.00207 10.901 4.97611 10.8383C4.95015 10.7756 4.94335 10.7066 4.95659 10.6401C4.96983 10.5736 5.00251 10.5125 5.05048 10.4645C5.05048 10.4645 5.05048 10.4645 5.05048 10.4645L10.4645 5.05046C10.5288 4.98614 10.6161 4.95 10.7071 4.95C10.798 4.95 10.8853 4.98614 10.9496 5.05046C11.0139 5.11479 11.0501 5.20203 11.0501 5.29301C11.0501 5.38398 11.0139 5.47122 10.9496 5.53555L5.5356 10.9495L5.29295 11.05ZM5.29295 11.05C5.33802 11.0501 5.38266 11.0412 5.4243 11.024L5.40517 10.9778L5.4243 11.024C5.46592 11.0067 5.50374 10.9815 5.53556 10.9496L5.29295 11.05Z" fill="#717171" stroke="#717171" stroke-width="0.1"/>
<path d="M10.7071 11.05C10.662 11.0501 10.6174 11.0412 10.5758 11.024C10.5341 11.0067 10.4963 10.9815 10.4645 10.9496L10.7071 11.05ZM10.7071 11.05C10.7749 11.05 10.8412 11.0299 10.8976 10.9922C10.954 10.9545 10.998 10.901 11.0239 10.8383C11.0499 10.7756 11.0567 10.7066 11.0435 10.6401C11.0302 10.5736 10.9976 10.5125 10.9496 10.4645C10.9496 10.4645 10.9496 10.4645 10.9496 10.4645L5.53555 5.05046C5.47122 4.98614 5.38398 4.95 5.29301 4.95C5.20203 4.95 5.11479 4.98614 5.05046 5.05046C4.98614 5.11479 4.95 5.20203 4.95 5.29301C4.95 5.38398 4.98614 5.47122 5.05046 5.53555L10.4645 10.9495L10.707 11.05C10.7071 11.05 10.7071 11.05 10.7071 11.05Z" fill="#717171" stroke="#717171" stroke-width="0.1"/>
</svg>
