<svg width="16" height="16" viewBox="0 0 16 16" fill="none" xmlns="http://www.w3.org/2000/svg">
<circle cx="8" cy="8" r="8" fill="black" fill-opacity="0.4"/>
<path d="M5.07468 11.0338C5.13928 11.0769 5.21521 11.1 5.29289 11.1C5.34454 11.1001 5.3957 11.0899 5.44343 11.0702L5.40517 10.9778C5.44073 10.9631 5.47302 10.9415 5.50021 10.9142L5.57092 10.9849L5.57099 10.9849L10.9849 5.5709C11.0586 5.4972 11.1001 5.39724 11.1001 5.29301C11.1001 5.18877 11.0586 5.08881 10.9849 5.01511L10.9849 5.01511C10.9112 4.94141 10.8113 4.9 10.707 4.9C10.6028 4.9 10.5029 4.94141 10.4292 5.01511L5.01513 10.4291C5.01513 10.4291 5.01513 10.4291 5.01512 10.4291C4.96016 10.4841 4.92272 10.5541 4.90755 10.6303C4.89239 10.7066 4.90017 10.7856 4.92992 10.8574C4.95967 10.9292 5.01004 10.9906 5.07468 11.0338Z" fill="white" stroke="white" stroke-width="0.2"/>
<path d="M10.7072 11.1C10.6555 11.1001 10.6044 11.0899 10.5566 11.0702C10.5089 11.0504 10.4656 11.0214 10.4291 10.9849M10.7072 11.1C10.7848 11.1 10.8608 11.0769 10.9254 11.0338C10.99 10.9906 11.0404 10.9292 11.0701 10.8574C11.0999 10.7856 11.1077 10.7066 11.0925 10.6303C11.0773 10.5541 11.0399 10.4841 10.9849 10.4291C10.9849 10.4291 10.9849 10.4291 10.9849 10.4291L5.5709 5.01511C5.4972 4.94141 5.39724 4.9 5.29301 4.9C5.18877 4.9 5.08881 4.94141 5.01511 5.01511C4.94141 5.08881 4.9 5.18877 4.9 5.29301C4.9 5.39724 4.94141 5.4972 5.01511 5.5709L10.4291 10.9849M10.7072 11.1C10.7071 11.1 10.7071 11.1 10.707 11.1L10.707 11L10.7072 11.1ZM10.4291 10.9849L10.4998 10.9142L10.4291 10.9849L10.4291 10.9849Z" fill="white" stroke="white" stroke-width="0.2"/>
</svg>
