<svg width="16" height="14" viewBox="0 0 16 14" fill="none" xmlns="http://www.w3.org/2000/svg">
<path d="M9.32993 11.3891H1.23077C0.904479 11.3887 0.591674 11.2589 0.360952 11.0282C0.130229 10.7974 0.000423352 10.4846 0 10.1583V4.0045C0.000423352 3.67821 0.130229 3.36541 0.360952 3.13469C0.591674 2.90397 0.904479 2.77416 1.23077 2.77374H9.29023C9.45194 2.77602 9.60624 2.84186 9.71978 2.95702C9.83332 3.07218 9.89698 3.2274 9.89698 3.38912C9.89698 3.55084 9.83332 3.70606 9.71978 3.82122C9.60624 3.93638 9.45194 4.00222 9.29023 4.0045H1.23077V10.1583H9.32993C9.49106 10.1615 9.64453 10.2277 9.75738 10.3428C9.87022 10.4578 9.93343 10.6126 9.93343 10.7737C9.93343 10.9349 9.87022 11.0896 9.75738 11.2047C9.64453 11.3198 9.49106 11.386 9.32993 11.3891ZM16 4.0045V10.1583C15.9996 10.4846 15.8698 10.7974 15.639 11.0282C15.4083 11.2589 15.0955 11.3887 14.7692 11.3891H12.3077V12.6397H12.7049C12.866 12.6429 13.0195 12.7091 13.1323 12.8241C13.2452 12.9392 13.3084 13.0939 13.3084 13.2551C13.3084 13.4163 13.2452 13.571 13.1324 13.6861C13.0195 13.8011 12.8661 13.8673 12.7049 13.8705H10.4417C10.2806 13.8674 10.1271 13.8011 10.0143 13.6861C9.90144 13.571 9.83823 13.4163 9.83822 13.2551C9.83822 13.094 9.90142 12.9392 10.0143 12.8242C10.1271 12.7091 10.2806 12.6429 10.4417 12.6397H11.0769C11.0755 11.4016 11.0776 3.02138 11.0769 1.5628H10.4417C10.2785 1.5628 10.122 1.49797 10.0066 1.38256C9.89116 1.26715 9.82632 1.11063 9.82632 0.947416C9.82632 0.784206 9.89116 0.62768 10.0066 0.512273C10.122 0.396866 10.2785 0.332031 10.4417 0.332031H12.7049C12.866 0.335168 13.0195 0.401379 13.1323 0.51644C13.2452 0.631502 13.3084 0.786234 13.3084 0.947398C13.3084 1.10856 13.2452 1.2633 13.1324 1.37837C13.0195 1.49343 12.8661 1.55965 12.7049 1.5628H12.3077V2.77374H14.7692C15.0955 2.77416 15.4083 2.90397 15.639 3.13469C15.8698 3.36541 15.9996 3.67821 16 4.0045ZM14.7692 4.0045H12.3077V10.1583H14.7692V4.0045Z" fill="#717171"/>
</svg>
