<svg width="32" height="32" viewBox="0 0 32 32" fill="none" xmlns="http://www.w3.org/2000/svg">
<path d="M29.9355 11.3498H20.6451V5.15625H29.9355V11.3498Z" fill="#FF6677"/>
<path d="M29.9355 17.5436H20.6451V12.8984H29.9355V17.5436Z" fill="#FFDB4E"/>
<path d="M18.5806 11.3594H2.06451V17.5529H18.5806V11.3594Z" fill="#FF6677"/>
<path d="M9.29032 23.7472H2.06451V18.5859H9.29032V23.7472Z" fill="#8BC6F8"/>
<path d="M17.5484 23.7472H10.3226V18.5859H17.5484V23.7472Z" fill="#FFDB4E"/>
<path d="M29.4194 0H21.1613C19.7383 0 18.5806 1.15768 18.5806 2.58065V9.29032H2.58065C1.15768 9.29032 0 10.448 0 11.871V26.3226C0 27.7455 1.15768 28.9032 2.58065 28.9032H9.29032V30.9677H7.22581V32H20.6452V30.9677H18.5806V28.9032H25.2903C26.7133 28.9032 27.871 27.7455 27.871 26.3226V23.7419H29.4194C30.8423 23.7419 32 22.5843 32 21.1613V2.58065C32 1.15768 30.8423 0 29.4194 0ZM21.1613 1.03226H29.4194C30.273 1.03226 30.9677 1.72697 30.9677 2.58065V3.09677H19.6129V2.58065C19.6129 1.72697 20.3076 1.03226 21.1613 1.03226ZM30.9677 4.12903V18.5806H19.6129V4.12903H30.9677ZM17.5484 30.9677H10.3226V28.9032H17.5484V30.9677ZM25.2903 27.871H2.58065C1.72697 27.871 1.03226 27.1763 1.03226 26.3226V25.8065H26.8387V26.3226C26.8387 27.1763 26.144 27.871 25.2903 27.871ZM26.8387 24.7742H1.03226V11.871C1.03226 11.0173 1.72697 10.3226 2.58065 10.3226H18.5806V21.1613C18.5806 22.5843 19.7383 23.7419 21.1613 23.7419H26.8387V24.7742ZM29.4194 22.7097H21.1613C20.3076 22.7097 19.6129 22.015 19.6129 21.1613V19.6129H30.9677V21.1613C30.9677 22.015 30.273 22.7097 29.4194 22.7097Z" fill="black"/>
<path d="M26.8387 20.6484H23.7419V21.6807H26.8387V20.6484Z" fill="black"/>
<path d="M29.9355 16.5156H28.9032V17.5479H29.9355V16.5156Z" fill="black"/>
<path d="M27.871 16.5156H20.6452V17.5479H27.871V16.5156Z" fill="black"/>
<path d="M29.9355 14.4531H20.6452V15.4854H29.9355V14.4531Z" fill="black"/>
<path d="M29.9355 12.3906H20.6452V13.4229H29.9355V12.3906Z" fill="black"/>
<path d="M17.5484 18.5781H10.3226V19.6104H17.5484V18.5781Z" fill="black"/>
<path d="M17.5484 20.6484H10.3226V21.6807H17.5484V20.6484Z" fill="black"/>
<path d="M15.4839 22.7109H10.3226V23.7432H15.4839V22.7109Z" fill="black"/>
<path d="M17.5484 22.7109H16.5161V23.7432H17.5484V22.7109Z" fill="black"/>
</svg>
