<svg width="24" height="24" viewBox="0 0 24 24" fill="none" xmlns="http://www.w3.org/2000/svg">
<path d="M13.8667 7.68437H13.8167V7.73438V8.26771V8.31771H13.8667C16.9269 8.31771 19.4167 10.8076 19.4167 13.8677C19.4167 16.9279 16.9269 19.4177 13.8667 19.4177C10.8066 19.4177 8.31673 16.9279 8.31673 13.8677C8.31673 12.6194 8.72124 11.4409 9.48651 10.4591L9.51723 10.4197L9.47783 10.389L9.05725 10.0608L9.01781 10.0301L8.98706 10.0695C8.13424 11.1637 7.6834 12.4772 7.6834 13.8677C7.6834 17.2774 10.4572 20.051 13.8667 20.051C17.2762 20.051 20.0501 17.2774 20.0501 13.8677C20.0501 10.4581 17.2764 7.68437 13.8667 7.68437Z" fill="#717171" stroke="#717171" stroke-width="0.1"/>
<path d="M10.9081 10.498L10.9456 10.4649L10.9126 10.4274L10.5603 10.0269L10.5272 9.98932L10.4897 10.0224C9.38402 10.9954 8.7498 12.3955 8.7498 13.8635C8.7498 16.6849 11.0451 18.9802 13.8665 18.9802C16.6878 18.9802 18.9831 16.6849 18.9831 13.8635C18.9831 11.0422 16.6878 8.74687 13.8665 8.74687H13.8165V8.79688V9.33021V9.38021H13.8665C16.3386 9.38021 18.3498 11.3914 18.3498 13.8635C18.3498 16.3357 16.3386 18.3469 13.8665 18.3469C11.3943 18.3469 9.38314 16.3357 9.38314 13.8635C9.38314 12.5775 9.93889 11.3507 10.9081 10.498Z" fill="#717171" stroke="#717171" stroke-width="0.1"/>
<path d="M13.5996 9.62187H13.5496V9.67188V10.5457V10.5957H13.5996H14.1329H14.1829V10.5457V9.67188V9.62187H14.1329H13.5996Z" fill="#717171" stroke="#717171" stroke-width="0.1"/>
<path d="M10.6746 11.0506L10.6393 11.0859L10.6746 11.1213L11.2925 11.7392L11.3279 11.7746L11.3632 11.7392L11.7404 11.3621L11.7757 11.3267L11.7404 11.2914L11.1224 10.6735L11.0871 10.6381L11.0517 10.6735L10.6746 11.0506Z" fill="#717171" stroke="#717171" stroke-width="0.1"/>
<path d="M9.6709 13.5516H9.6209V13.6016V14.1349V14.1849H9.6709H10.5448H10.5948V14.1349V13.6016V13.5516H10.5448H9.6709Z" fill="#717171" stroke="#717171" stroke-width="0.1"/>
<path d="M10.6746 16.6053L10.6393 16.6406L10.6746 16.676L11.0517 17.0531L11.0871 17.0885L11.1224 17.0531L11.7404 16.4352L11.7757 16.3998L11.7404 16.3645L11.3632 15.9874L11.3279 15.952L11.2925 15.9874L10.6746 16.6053Z" fill="#717171" stroke="#717171" stroke-width="0.1"/>
<path d="M13.5996 17.1375H13.5496V17.1875V18.0614V18.1114H13.5996H14.1329H14.1829V18.0614V17.1875V17.1375H14.1329H13.5996Z" fill="#717171" stroke="#717171" stroke-width="0.1"/>
<path d="M15.9891 16.3709L15.9537 16.4062L15.9891 16.4416L16.607 17.0595L16.6423 17.0949L16.6777 17.0595L17.0548 16.6824L17.0902 16.647L17.0548 16.6117L16.4369 15.9938L16.4015 15.9584L16.3662 15.9938L15.9891 16.3709Z" fill="#717171" stroke="#717171" stroke-width="0.1"/>
<path d="M17.1885 13.5516H17.1385V13.6016V14.1349V14.1849H17.1885H18.0623H18.1123V14.1349V13.6016V13.5516H18.0623H17.1885Z" fill="#717171" stroke="#717171" stroke-width="0.1"/>
<path d="M15.9891 11.2928L15.9537 11.3281L15.9891 11.3635L16.3662 11.7406L16.4015 11.776L16.4369 11.7406L17.0548 11.1227L17.0902 11.0873L17.0548 11.052L16.6777 10.6749L16.6423 10.6395L16.607 10.6749L15.9891 11.2928Z" fill="#717171" stroke="#717171" stroke-width="0.1"/>
<path d="M14.1829 13.104V11.2109V11.1609H14.1329H13.5996H13.5496V11.2109V13.8685C13.5496 13.9964 13.6265 14.1121 13.745 14.161L14.1829 13.104Z" fill="#717171" stroke="#717171" stroke-width="0.1"/>
<path d="M17.6891 6.89088V6.84088H18.5923C18.6936 6.84088 18.7863 6.78333 18.8313 6.69245C18.8761 6.60156 18.8657 6.49323 18.8042 6.4125L17.6391 7.88724V7.83724V6.89088H17.6891ZM17.6891 6.89088H18.5923C18.7126 6.89088 18.8226 6.82254 18.8761 6.71465L18.8762 6.71455C18.9293 6.60666 18.917 6.47804 18.844 6.38221L18.844 6.38218L17.0847 4.0747L17.9527 6.25755M17.6891 6.89088V7.88724V7.93724H17.6391H17.1058H17.0558V7.88724V6.57422C17.0558 6.39921 17.1975 6.25755 17.3725 6.25755H17.9527M15.9764 6.89088H15.0732C14.9529 6.89088 14.8429 6.82254 14.7894 6.71465L14.7893 6.71455C14.7362 6.60666 14.7485 6.47804 14.8215 6.38221L14.8215 6.38218L16.5811 4.0747C16.5811 4.07468 16.5811 4.07467 16.5811 4.07466L16.5811 4.07463L16.6209 4.10495C16.6712 4.0388 16.7498 4 16.8329 4C16.9159 4 16.9946 4.0388 17.0449 4.10495L15.9764 6.89088ZM15.9764 6.89088V7.37187V7.42187H16.0264H16.5597H16.6097V7.37187V6.57422C16.6097 6.39921 16.468 6.25755 16.293 6.25755H15.7131L16.8329 4.78897M15.9764 6.89088L16.8329 4.78897M17.9527 6.25755L16.8329 4.78897M17.9527 6.25755L16.8329 4.78897" fill="#717171" stroke="#717171" stroke-width="0.1"/>
<path d="M7.39258 6.41094H7.34258V6.46094V6.99427V7.04427H7.39258H11.4352H11.4852V6.99427V6.46094V6.41094H11.4352H7.39258Z" fill="#717171" stroke="#717171" stroke-width="0.1"/>
<path d="M5.58984 6.41094H5.53984V6.46094V6.99427V7.04427H5.58984H6.83864H6.88864V6.99427V6.46094V6.41094H6.83864H5.58984Z" fill="#717171" stroke="#717171" stroke-width="0.1"/>
<path d="M9.99023 7.74687H9.94023V7.79688V8.33021V8.38021H9.99023H11.4348H11.4848V8.33021V7.79688V7.74687H11.4348H9.99023Z" fill="#717171" stroke="#717171" stroke-width="0.1"/>
<path d="M5.58984 7.74687H5.53984V7.79688V8.33021V8.38021H5.58984H9.29411H9.34411V8.33021V7.79688V7.74687H9.29411H5.58984Z" fill="#717171" stroke="#717171" stroke-width="0.1"/>
<path d="M5.58984 5.08281H5.53984V5.13281V5.66615V5.71615H5.58984H11.4357H11.4857V5.66615V5.13281V5.08281H11.4357H5.58984Z" fill="#717171" stroke="#717171" stroke-width="0.1"/>
<path d="M7.94886 10.1304L7.9489 10.1305C8.00873 10.2084 8.02914 10.3098 8.00379 10.405L7.95547 10.3922L8.00379 10.4051L7.47045 12.4077C7.44138 12.5168 7.35607 12.6025 7.24677 12.6319L7.94886 10.1304ZM7.94886 10.1304C7.8889 10.0525 7.79615 10.0068 7.69779 10.0068H7.22708M7.94886 10.1304L7.22708 10.0068M7.22708 10.0068V9.51328H12.2251C12.6938 9.51328 13.075 9.13204 13.075 8.66328V4.8C13.075 4.33124 12.6938 3.95 12.2251 3.95H4.8C4.33124 3.95 3.95 4.33124 3.95 4.8V8.66328C3.95 9.13204 4.33124 9.51328 4.8 9.51328H5.27292V10.751C5.27292 10.8352 5.30633 10.9156 5.36569 10.9749L6.94047 12.5498C6.94049 12.5499 6.9405 12.5499 6.94052 12.5499L7.22708 10.0068ZM6.91042 10.6401H7.28573L6.99992 11.7135L5.90625 10.6199V9.19662C5.90625 9.02159 5.76445 8.87995 5.58958 8.87995H4.8C4.68059 8.87995 4.58333 8.78279 4.58333 8.66328V4.8C4.58333 4.68049 4.68059 4.58333 4.8 4.58333H12.2251C12.3445 4.58333 12.4417 4.68046 12.4417 4.8V8.66328C12.4417 8.78282 12.3445 8.87995 12.2251 8.87995H6.91042C6.73555 8.87995 6.59375 9.02159 6.59375 9.19661V10.3234C6.59375 10.4985 6.73555 10.6401 6.91042 10.6401Z" fill="#717171" stroke="#717171" stroke-width="0.1"/>
</svg>
