<svg width="14" height="13" viewBox="0 0 14 13" fill="none" xmlns="http://www.w3.org/2000/svg">
<path d="M11.5828 4.06645C10.6555 2.18479 8.73168 0.95 6.5565 0.95C3.46507 0.95 0.95 3.46507 0.95 6.55665C0.95 9.64823 3.46507 12.1635 6.5565 12.1633C8.37676 12.1633 10.0902 11.2744 11.1408 9.78522L11.1696 9.74437L11.1288 9.71554L10.4119 9.20961L10.371 9.18077L10.3422 9.22163C9.47453 10.4515 8.05952 11.1859 6.5565 11.1859C4.00415 11.1859 1.9273 9.10915 1.9273 6.55665C1.9273 4.00416 4.00415 1.92759 6.5565 1.92759C8.3301 1.92759 9.90067 2.92069 10.677 4.44057L9.40047 3.82571L9.35543 3.80402L9.33373 3.84905L8.95282 4.63951L8.93111 4.68456L8.97616 4.70626L11.6771 6.00743L11.7222 6.02913L11.7439 5.98409L13.045 3.28327L13.0667 3.23823L13.0217 3.21653L12.2312 2.83577L12.1862 2.81407L12.1645 2.85911L11.5828 4.06645Z" fill="#10A37F" stroke="#10A37F" stroke-width="0.1"/>
</svg>
