<svg width="24" height="24" viewBox="0 0 24 24" fill="none" xmlns="http://www.w3.org/2000/svg">
<path d="M18.4152 14.2889H13.1584C13.5922 12.9873 13.8227 11.8919 13.8607 10.9575C13.9504 8.75389 12.9099 7.88141 12.0213 7.53753C11.984 7.52311 11.9454 7.51271 11.9059 7.5065C11.2173 7.39785 10.9722 7.7218 10.8098 8.08799L10.7884 8.13585C10.7647 8.18839 10.7491 8.24428 10.7424 8.30155C10.6034 9.49233 10.2295 10.6437 9.64233 11.6889C9.05515 12.7341 8.26638 13.6524 7.32173 14.3906C7.22266 14.2331 7.08529 14.1033 6.92245 14.0133C6.75961 13.9233 6.57661 13.876 6.39055 13.8759H2.50794C2.21605 13.8763 1.9362 13.9923 1.7298 14.1987C1.52341 14.4051 1.40731 14.685 1.40699 14.9769V22.899C1.40731 23.1909 1.52341 23.4708 1.7298 23.6772C1.9362 23.8836 2.21605 23.9997 2.50794 24H6.39055C6.61641 23.9997 6.83675 23.9301 7.02177 23.8006C7.20679 23.6711 7.34757 23.4878 7.42509 23.2757C7.85244 23.6148 8.34978 23.8548 8.88116 23.9783C8.92104 23.9875 8.96182 23.9924 9.00276 23.9929C9.44277 23.9976 9.96735 24 10.5723 24C11.1757 24 11.8591 23.9976 12.6173 23.9929H17.5696C17.8591 23.993 18.1435 23.9162 18.3936 23.7703C18.6437 23.6244 18.8506 23.4147 18.993 23.1626C19.1355 22.9105 19.2084 22.6251 19.2043 22.3356C19.2002 22.0461 19.1193 21.7629 18.9698 21.5149C19.3003 21.2644 19.5232 20.8976 19.5931 20.4889C19.663 20.0801 19.5748 19.6601 19.3464 19.314C19.6672 19.042 19.8707 18.6568 19.9144 18.2385C19.9582 17.8202 19.8388 17.4011 19.5811 17.0687C19.8069 16.839 19.9598 16.5478 20.0206 16.2315C20.0814 15.9152 20.0473 15.588 19.9227 15.291C19.7982 14.994 19.5886 14.7405 19.3204 14.5622C19.0522 14.3839 18.7373 14.2889 18.4152 14.289V14.2889ZM6.36651 22.875H2.53213V15.0009H6.36651V22.875ZM15.125 17.5586H18.2883C18.4227 17.5599 18.5512 17.6142 18.6457 17.7097C18.7403 17.8052 18.7933 17.9341 18.7933 18.0685C18.7933 18.2029 18.7403 18.3318 18.6457 18.4273C18.5512 18.5228 18.4227 18.5771 18.2883 18.5784H15.576C15.4268 18.5784 15.2837 18.6376 15.1782 18.7431C15.0727 18.8486 15.0135 18.9917 15.0135 19.1409C15.0135 19.2901 15.0727 19.4331 15.1782 19.5386C15.2837 19.6441 15.4268 19.7034 15.576 19.7034H17.9816C18.116 19.7047 18.2444 19.759 18.339 19.8544C18.4336 19.9499 18.4866 20.0789 18.4866 20.2133C18.4866 20.3477 18.4336 20.4766 18.339 20.5721C18.2444 20.6676 18.116 20.7219 17.9816 20.7232H15.9712C15.8221 20.7232 15.679 20.7824 15.5735 20.8879C15.468 20.9934 15.4087 21.1365 15.4087 21.2857C15.4087 21.4348 15.468 21.5779 15.5735 21.6834C15.679 21.7889 15.8221 21.8482 15.9712 21.8482H17.5697C17.7041 21.8494 17.8325 21.9037 17.9271 21.9992C18.0217 22.0947 18.0747 22.2236 18.0747 22.358C18.0747 22.4924 18.0217 22.6214 17.9271 22.7169C17.8325 22.8123 17.7041 22.8666 17.5697 22.8679H12.6139C11.1354 22.8771 9.94668 22.8773 9.07949 22.8686C8.74693 22.7835 8.43494 22.6322 8.16213 22.4238C7.88932 22.2154 7.66129 21.9542 7.49165 21.6557V15.6609C8.65973 14.8625 9.64858 13.8293 10.3951 12.6274C11.1417 11.4255 11.6295 10.0812 11.8276 8.68021C12.207 8.8783 12.7987 9.38872 12.737 10.9118C12.6967 11.9027 12.4022 13.1275 11.837 14.6563C11.8055 14.7413 11.7951 14.8327 11.8066 14.9226C11.8181 15.0126 11.8511 15.0984 11.9029 15.1728C11.9548 15.2472 12.0238 15.308 12.1042 15.35C12.1845 15.3919 12.2739 15.4139 12.3645 15.4139H18.4152C18.5496 15.4151 18.678 15.4694 18.7726 15.5649C18.8672 15.6604 18.9202 15.7893 18.9202 15.9237C18.9202 16.0581 18.8672 16.1871 18.7726 16.2826C18.678 16.378 18.5496 16.4323 18.4152 16.4336H15.125C14.9758 16.4336 14.8327 16.4929 14.7272 16.5984C14.6217 16.7039 14.5625 16.8469 14.5625 16.9961C14.5625 17.1453 14.6217 17.2884 14.7272 17.3939C14.8327 17.4994 14.9758 17.5586 15.125 17.5586ZM2.82964 15.9425C2.82964 15.7933 2.88891 15.6502 2.9944 15.5447C3.09989 15.4392 3.24296 15.38 3.39214 15.38H3.80493C3.95411 15.38 4.09718 15.4392 4.20267 15.5447C4.30816 15.6502 4.36743 15.7933 4.36743 15.9425C4.36743 16.0916 4.30816 16.2347 4.20267 16.3402C4.09718 16.4457 3.95411 16.505 3.80493 16.505H3.39219C3.24301 16.505 3.09993 16.4457 2.99444 16.3402C2.88895 16.2347 2.82969 16.0916 2.82969 15.9425H2.82964ZM15.3013 2.75093C15.268 2.64841 15.2059 2.55762 15.1224 2.48936C15.039 2.42111 14.9377 2.37827 14.8306 2.36595L12.8537 2.13851L12.0265 0.328667C11.9817 0.23062 11.9096 0.147515 11.8189 0.0892467C11.7282 0.0309781 11.6227 0 11.5149 0C11.4071 0 11.3015 0.0309781 11.2109 0.0892467C11.1202 0.147515 11.0481 0.23062 11.0033 0.328667L10.176 2.13851L8.19918 2.36595C8.09209 2.37828 7.9908 2.42112 7.90736 2.48937C7.82393 2.55763 7.76186 2.64842 7.72855 2.75094C7.69524 2.85346 7.69209 2.96339 7.71947 3.06765C7.74685 3.17191 7.80362 3.26611 7.88301 3.33903L9.34865 4.68505L8.95406 6.63547C8.93268 6.74113 8.94212 6.85071 8.98125 6.95116C9.02038 7.0516 9.08755 7.13869 9.17476 7.20206C9.26197 7.26542 9.36556 7.30239 9.47318 7.30856C9.58081 7.31474 9.68794 7.28985 9.78182 7.23688L11.5149 6.25888L13.2479 7.23688C13.3418 7.28985 13.4489 7.31474 13.5565 7.30856C13.6642 7.30239 13.7678 7.26542 13.855 7.20206C13.9422 7.13869 14.0093 7.0516 14.0485 6.95116C14.0876 6.85071 14.097 6.74113 14.0757 6.63547L13.6811 4.68505L15.1468 3.33903C15.2262 3.26611 15.2829 3.17192 15.3103 3.06766C15.3377 2.9634 15.3346 2.85346 15.3013 2.75093ZM12.6864 4.07117C12.615 4.13669 12.5618 4.21951 12.5319 4.31163C12.502 4.40375 12.4963 4.50203 12.5155 4.59697L12.729 5.65227L11.7915 5.12314C11.7071 5.07554 11.6119 5.05053 11.5151 5.05053C11.4182 5.05053 11.323 5.07554 11.2387 5.12314L10.3012 5.65227L10.5146 4.59697C10.5338 4.50203 10.5282 4.40375 10.4982 4.31163C10.4683 4.21951 10.4151 4.13669 10.3438 4.07117L9.5504 3.34287L10.62 3.21983C10.7162 3.20876 10.808 3.17303 10.8863 3.11609C10.9647 3.05915 11.0271 2.98294 11.0673 2.89484L11.5149 1.91562L11.9624 2.89484C12.0027 2.98294 12.065 3.05914 12.1434 3.11608C12.2218 3.17301 12.3135 3.20875 12.4097 3.21983L13.4794 3.34287L12.6864 4.07117ZM22.0022 4.86031C21.9689 4.75779 21.9069 4.66699 21.8234 4.59874C21.74 4.53049 21.6387 4.48765 21.5316 4.47533L19.9963 4.29865L19.3541 2.89311C19.3093 2.79506 19.2373 2.71195 19.1466 2.65369C19.0559 2.59542 18.9503 2.56444 18.8425 2.56444C18.7347 2.56444 18.6292 2.59542 18.5385 2.65369C18.4478 2.71195 18.3758 2.79506 18.3309 2.89311L17.6883 4.29865L16.153 4.47533C16.0459 4.48766 15.9447 4.5305 15.8612 4.59875C15.7778 4.667 15.7157 4.75779 15.6824 4.86031C15.6491 4.96283 15.6459 5.07277 15.6733 5.17703C15.7007 5.28129 15.7575 5.37549 15.8369 5.44841L16.9751 6.49372L16.6687 8.00844C16.6473 8.1141 16.6567 8.22368 16.6959 8.32413C16.735 8.42457 16.8022 8.51166 16.8894 8.57503C16.9766 8.63839 17.0802 8.67536 17.1878 8.68153C17.2954 8.68771 17.4025 8.66282 17.4964 8.60985L18.8423 7.85047L20.1882 8.60985C20.2821 8.66282 20.3892 8.68771 20.4969 8.68153C20.6045 8.67536 20.7081 8.63839 20.7953 8.57503C20.8825 8.51166 20.9497 8.42457 20.9888 8.32413C21.0279 8.22368 21.0374 8.1141 21.016 8.00844L20.7096 6.49372L21.8478 5.44841C21.9272 5.37548 21.984 5.28128 22.0113 5.17702C22.0387 5.07276 22.0356 4.96283 22.0022 4.86031ZM19.7147 5.87984C19.6434 5.94536 19.5902 6.0282 19.5602 6.12032C19.5303 6.21245 19.5247 6.31074 19.5439 6.40569L19.6692 7.02528L19.1187 6.71459C19.0343 6.66699 18.9391 6.64198 18.8422 6.64198C18.7454 6.64198 18.6501 6.66699 18.5658 6.71459L18.0153 7.02528L18.1406 6.40569C18.1598 6.31074 18.1542 6.21245 18.1243 6.12032C18.0943 6.0282 18.0411 5.94536 17.9698 5.87984L17.5042 5.45225L18.1323 5.38001C18.2285 5.36895 18.3203 5.33322 18.3986 5.27628C18.477 5.21934 18.5393 5.14313 18.5796 5.05503L18.8424 4.48011L19.1051 5.05503C19.1454 5.14313 19.2077 5.21934 19.2861 5.27628C19.3645 5.33322 19.4562 5.36895 19.5525 5.38001L20.1806 5.45225L19.7147 5.87984ZM7.34769 4.86031C7.31438 4.75779 7.25231 4.66699 7.16886 4.59874C7.08542 4.53049 6.98412 4.48765 6.87702 4.47533L5.34144 4.29865L4.69925 2.89311C4.65444 2.79506 4.5824 2.71195 4.4917 2.65369C4.401 2.59542 4.29546 2.56444 4.18766 2.56444C4.07986 2.56444 3.97432 2.59542 3.88363 2.65369C3.79293 2.71195 3.72088 2.79506 3.67607 2.89311L3.03346 4.29865L1.49821 4.47533C1.39111 4.48765 1.28981 4.53048 1.20637 4.59873C1.12293 4.66698 1.06085 4.75777 1.02754 4.8603C0.994222 4.96282 0.991067 5.07275 1.01845 5.17702C1.04583 5.28128 1.10259 5.37548 1.18199 5.44841L2.32025 6.49372L2.01383 8.00844C1.99246 8.1141 2.0019 8.22368 2.04103 8.32413C2.08016 8.42457 2.14732 8.51166 2.23454 8.57503C2.32175 8.63839 2.42533 8.67536 2.53296 8.68153C2.64058 8.68771 2.74771 8.66282 2.8416 8.60985L4.18752 7.85047L5.5334 8.60985C5.62728 8.66282 5.73441 8.68771 5.84204 8.68153C5.94966 8.67536 6.05324 8.63839 6.14046 8.57503C6.22767 8.51166 6.29484 8.42457 6.33397 8.32413C6.37309 8.22368 6.38253 8.1141 6.36116 8.00844L6.05474 6.49372L7.19296 5.44841C7.2724 5.37552 7.32922 5.28133 7.35665 5.17707C7.38408 5.07281 7.38097 4.96286 7.34769 4.86031ZM5.06019 5.87984C4.98885 5.94536 4.93563 6.0282 4.90569 6.12032C4.87576 6.21245 4.87013 6.31074 4.88933 6.40569L5.01468 7.02528L4.46418 6.71459C4.37979 6.66695 4.28452 6.64191 4.18761 6.64191C4.0907 6.64191 3.99544 6.66695 3.91105 6.71459L3.36055 7.02528L3.48585 6.40569C3.50506 6.31074 3.49942 6.21245 3.46949 6.12032C3.43955 6.0282 3.38633 5.94536 3.31499 5.87984L2.84943 5.45225L3.47755 5.38001C3.57379 5.36895 3.66553 5.33322 3.7439 5.27628C3.82227 5.21934 3.88461 5.14313 3.92488 5.05503L4.18766 4.48011L4.45016 5.05503C4.49043 5.14313 4.55277 5.21934 4.63114 5.27628C4.70951 5.33322 4.80125 5.36895 4.89749 5.38001L5.52562 5.45225L5.06019 5.87984Z" fill="#717171"/>
</svg>
