<svg width="14" height="13" viewBox="0 0 14 13" fill="none" xmlns="http://www.w3.org/2000/svg">
<path id="Vector" d="M7.84199 3.25002V6.19339L10.3713 7.66015C10.4988 7.7341 10.5907 7.85399 10.6268 7.99346C10.6629 8.13293 10.6402 8.28055 10.5637 8.40384C10.4872 8.52713 10.3632 8.61599 10.219 8.65088C10.0748 8.68576 9.92211 8.66382 9.79461 8.58987L6.99363 6.96442C6.91074 6.91628 6.84215 6.8482 6.79454 6.76682C6.74694 6.68543 6.72194 6.59351 6.72197 6.50001V3.25002C6.72197 3.1064 6.78097 2.96866 6.88599 2.86711C6.99102 2.76555 7.13346 2.7085 7.28198 2.7085C7.4305 2.7085 7.57295 2.76555 7.67797 2.86711C7.78299 2.96866 7.84199 3.1064 7.84199 3.25002ZM7.28198 2.09851e-05C6.39822 -0.00215677 5.52278 0.165186 4.70635 0.492362C3.88992 0.819539 3.1487 1.30005 2.52561 1.90609C2.0389 2.38274 1.57006 2.87616 1.12002 3.3854V2.16609C1.12002 2.02247 1.06102 1.88473 0.955996 1.78318C0.850974 1.68162 0.708533 1.62457 0.56001 1.62457C0.411486 1.62457 0.269045 1.68162 0.164023 1.78318C0.0590009 1.88473 0 2.02247 0 2.16609L0 4.87546C0 5.17401 0.250335 5.41698 0.56001 5.41698H3.36099C3.43459 5.41698 3.50747 5.40296 3.57547 5.37572C3.64347 5.34849 3.70525 5.30857 3.7573 5.25824C3.80934 5.20791 3.85063 5.14817 3.87879 5.08241C3.90696 5.01666 3.92146 4.94619 3.92146 4.87501C3.92146 4.80384 3.90696 4.73337 3.87879 4.66761C3.85063 4.60186 3.80934 4.54211 3.7573 4.49179C3.70525 4.44146 3.64347 4.40154 3.57547 4.3743C3.50747 4.34707 3.43459 4.33305 3.36099 4.33305H1.75049C2.25058 3.75948 2.77327 3.20471 3.31741 2.66995C4.09589 1.91698 5.0866 1.40254 6.16572 1.19093C7.24484 0.979318 8.36452 1.07991 9.38486 1.48014C10.4052 1.88037 11.2809 2.56248 11.9026 3.44125C12.5243 4.32001 12.8644 5.35646 12.8805 6.42107C12.8965 7.48568 12.5877 8.53125 11.9926 9.42712C11.3976 10.323 10.5428 11.0294 9.53489 11.4582C8.52702 11.8869 7.41083 12.019 6.3258 11.8378C5.24078 11.6566 4.23503 11.1702 3.43423 10.4395C3.38146 10.3871 3.31827 10.3455 3.24847 10.3174C3.17866 10.2892 3.10369 10.275 3.02806 10.2755C2.95242 10.2761 2.87769 10.2914 2.80834 10.3207C2.739 10.3499 2.67649 10.3923 2.62456 10.4455C2.57263 10.4987 2.53236 10.5615 2.50617 10.6301C2.47998 10.6987 2.46841 10.7717 2.47216 10.8448C2.47591 10.9178 2.49489 10.9894 2.52798 11.0552C2.56106 11.121 2.60756 11.1796 2.66468 11.2275C3.46256 11.9556 4.43258 12.4837 5.49008 12.7659C6.54759 13.048 7.66044 13.0756 8.73151 12.8462C9.80258 12.6169 10.7993 12.1375 11.6347 11.4499C12.4702 10.7624 13.1189 9.88762 13.5242 8.9019C13.9296 7.91619 14.0793 6.84951 13.9603 5.79497C13.8413 4.74044 13.4573 3.73008 12.8416 2.8521C12.2259 1.97411 11.3974 1.25517 10.4283 0.758029C9.4592 0.260885 8.379 0.000644747 7.28198 2.09851e-05Z" fill="#09ABD8"/>
</svg>
