<svg width="18" height="18" viewBox="0 0 18 18" fill="none" xmlns="http://www.w3.org/2000/svg">
<path d="M17.3636 9C17.3636 9.20925 17.2836 9.4187 17.1239 9.57845L8.9421 17.7602C8.62239 18.0799 8.10469 18.0799 7.78519 17.7602C7.4657 17.4405 7.46549 16.9228 7.78519 16.6033L15.3885 9L7.78519 1.39668C7.46549 1.07698 7.46549 0.559274 7.78519 0.239776C8.1049 -0.079722 8.6226 -0.0799265 8.9421 0.239776L17.1239 8.42155C17.2836 8.5813 17.3636 8.79075 17.3636 9ZM10.5785 8.42155L2.39668 0.239776C2.07698 -0.0799265 1.55928 -0.0799265 1.23978 0.239776C0.920279 0.559479 0.920074 1.07718 1.23978 1.39668L8.8431 9L1.23978 16.6033C0.920074 16.923 0.920074 17.4407 1.23978 17.7602C1.55948 18.0797 2.07718 18.0799 2.39668 17.7602L10.5785 9.57845C10.7382 9.4187 10.8182 9.20925 10.8182 9C10.8182 8.79075 10.7382 8.5813 10.5785 8.42155Z" fill="white"/>
</svg>
