<svg width="16" height="8" viewBox="0 0 16 8" fill="none" xmlns="http://www.w3.org/2000/svg">
<path d="M15.8167 3.43259C15.8165 3.4324 15.8163 3.43218 15.8161 3.432L12.5504 0.181998C12.3057 -0.0614707 11.91 -0.0605647 11.6665 0.184123C11.423 0.428779 11.4239 0.824497 11.6686 1.068L13.8612 3.25H0.625C0.279812 3.25 0 3.52981 0 3.875C0 4.22018 0.279812 4.5 0.625 4.5H13.8611L11.6686 6.68199C11.4239 6.92549 11.423 7.32121 11.6665 7.56587C11.91 7.81059 12.3058 7.81143 12.5504 7.56799L15.8161 4.318C15.8163 4.31781 15.8165 4.31759 15.8167 4.3174C16.0615 4.07309 16.0607 3.67609 15.8167 3.43259Z" fill="#AAAAAA"/>
</svg>
