<svg width="17" height="12" viewBox="0 0 17 12" fill="none" xmlns="http://www.w3.org/2000/svg">
<path d="M15.9084 5.77906L11.2209 1.09156C11.0989 0.96948 10.9011 0.96948 10.7791 1.09156C10.657 1.21364 10.657 1.41139 10.7791 1.53344L14.9331 5.6875H1.31251C1.13978 5.6875 1 5.82728 1 6.00001C1 6.17275 1.13978 6.31252 1.31251 6.31252H14.9331L10.7791 10.4666C10.657 10.5886 10.657 10.7864 10.7791 10.9084C10.8401 10.9695 10.9201 11 11 11C11.08 11 11.1599 10.9695 11.221 10.9084L15.9085 6.22094C16.0305 6.09889 16.0305 5.90114 15.9084 5.77906Z" stroke="#fff" stroke-width="0.75"/>
</svg>
