<svg width="14" height="14" viewBox="0 0 14 14" fill="none" xmlns="http://www.w3.org/2000/svg">
<g clip-path="url(#clip0_840_2260)">
<mask id="mask0_840_2260" style="mask-type:luminance" maskUnits="userSpaceOnUse" x="0" y="0" width="14" height="14">
<path d="M14 0H0V14H14V0Z" fill="white"/>
</mask>
<g mask="url(#mask0_840_2260)">
<path fill-rule="evenodd" clip-rule="evenodd" d="M6.0235 12.3809H1.10731C1.07282 12.3807 1.03981 12.3668 1.01544 12.3424C0.99103 12.318 0.977199 12.285 0.976938 12.2505V11.3051C0.976938 10.7639 1.36325 10.2875 1.95825 9.88236C3.02094 9.15698 4.74075 8.70111 6.6745 8.70111C6.99344 8.70111 7.30669 8.71423 7.61294 8.7383C7.67709 8.7438 7.74171 8.73657 7.80305 8.717C7.8644 8.69743 7.92127 8.66592 7.9704 8.62429C8.01952 8.58265 8.05992 8.53171 8.08927 8.4744C8.11862 8.41708 8.13634 8.35453 8.14142 8.29034C8.1465 8.22614 8.13883 8.16158 8.11885 8.10037C8.09888 8.03915 8.06699 7.98249 8.02503 7.93365C7.98306 7.88481 7.93185 7.84475 7.87434 7.81578C7.81683 7.78681 7.75416 7.76951 7.68994 7.76486C7.35919 7.73803 7.02085 7.72461 6.67494 7.72461C4.51194 7.72461 2.59656 8.2658 1.40788 9.07648C0.49875 9.69467 8.66759e-08 10.4809 8.66759e-08 11.3051V12.2501C-5.74558e-05 12.3955 0.0285366 12.5394 0.0841473 12.6737C0.139758 12.808 0.221294 12.93 0.324094 13.0328C0.426894 13.1355 0.548942 13.217 0.683257 13.2726C0.817573 13.3281 0.961523 13.3567 1.10687 13.3565C2.41937 13.3565 6.02306 13.3565 6.02306 13.3565C6.15261 13.3565 6.27686 13.3051 6.36846 13.2135C6.46007 13.1219 6.51153 12.9976 6.51153 12.8681C6.51153 12.7385 6.46007 12.6143 6.36846 12.5227C6.27686 12.4311 6.15261 12.3796 6.02306 12.3796L6.0235 12.3809Z" fill="#717171"/>
<path fill-rule="evenodd" clip-rule="evenodd" d="M6.67454 1.06933e-07C5.96619 -0.000172951 5.2737 0.209713 4.68464 0.603115C4.09558 0.996517 3.63641 1.55576 3.3652 2.21013C3.09398 2.8645 3.02291 3.5846 3.16096 4.27937C3.29902 4.97413 3.64 5.61236 4.14078 6.11333C4.64157 6.61429 5.27967 6.95551 5.97438 7.09382C6.66909 7.23213 7.38922 7.16132 8.04369 6.89034C8.69816 6.61937 9.25757 6.16041 9.65119 5.57149C10.0448 4.98257 10.2549 4.29016 10.255 3.58181C10.2548 2.63216 9.87754 1.72144 9.20616 1.04981C8.53477 0.378176 7.62419 0.000579916 6.67454 1.06933e-07ZM6.67454 0.976938C7.18965 0.976938 7.69319 1.12969 8.12148 1.41586C8.54978 1.70204 8.8836 2.1088 9.08072 2.5847C9.27785 3.0606 9.32942 3.58426 9.22893 4.08948C9.12844 4.59469 8.88039 5.05875 8.51615 5.42299C8.15192 5.78723 7.68785 6.03528 7.18264 6.13577C6.67743 6.23626 6.15376 6.18469 5.67786 5.98756C5.20196 5.79044 4.79521 5.45662 4.50903 5.02832C4.22285 4.60003 4.0701 4.09648 4.0701 3.58137C4.07045 2.89074 4.34495 2.2285 4.83331 1.74014C5.32166 1.25179 5.9839 0.977285 6.67454 0.976938Z" fill="#717171"/>
<path fill-rule="evenodd" clip-rule="evenodd" d="M11.0061 12.3444C11.5487 12.4263 12.1032 12.3349 12.5907 12.0832C13.0782 11.8314 13.4738 11.4322 13.7212 10.9425C13.9685 10.4527 14.0549 9.89735 13.9681 9.35559C13.8813 8.81383 13.6257 8.31329 13.2377 7.92532C12.8498 7.53735 12.3492 7.28174 11.8075 7.19493C11.2657 7.10812 10.7103 7.19454 10.2206 7.44187C9.73081 7.68919 9.33161 8.08481 9.07988 8.57233C8.82814 9.05984 8.73672 9.61438 8.81864 10.1569L7.30664 11.6685C7.21504 11.7602 7.16358 11.8845 7.16357 12.0141V13.5112C7.16369 13.6407 7.21517 13.7648 7.30671 13.8563C7.39825 13.9479 7.52237 13.9994 7.65182 13.9995H9.14895C9.27856 13.9995 9.40287 13.948 9.49457 13.8564L11.0061 12.3444ZM10.9724 11.3417C10.8898 11.3196 10.8028 11.3197 10.7202 11.3419C10.6375 11.3641 10.5622 11.4076 10.5017 11.4681L8.94682 13.023H8.13964V12.2162L9.69451 10.6613C9.75498 10.6008 9.79849 10.5255 9.82068 10.4429C9.84287 10.3603 9.84296 10.2733 9.82095 10.1906C9.72793 9.84414 9.75186 9.47667 9.88901 9.1452C10.0262 8.81374 10.2689 8.5368 10.5795 8.35736C10.8901 8.17792 11.2513 8.10601 11.6069 8.15279C11.9626 8.19957 12.2929 8.36242 12.5465 8.61608C12.8002 8.86973 12.963 9.20001 13.0098 9.55567C13.0566 9.91133 12.9847 10.2725 12.8052 10.5831C12.6258 10.8937 12.3489 11.1364 12.0174 11.2736C11.6859 11.4107 11.3185 11.4347 10.972 11.3417H10.9724Z" fill="#717171"/>
<path fill-rule="evenodd" clip-rule="evenodd" d="M10.8955 10.267C10.7968 10.1683 10.7297 10.0425 10.7025 9.90566C10.6753 9.76879 10.6893 9.62692 10.7427 9.49801C10.7962 9.36909 10.8866 9.25891 11.0026 9.18139C11.1187 9.10387 11.2551 9.0625 11.3947 9.0625C11.5342 9.0625 11.6706 9.10387 11.7867 9.18139C11.9027 9.25891 11.9931 9.36909 12.0466 9.49801C12.1 9.62692 12.114 9.76879 12.0868 9.90566C12.0596 10.0425 11.9925 10.1683 11.8938 10.267C11.7614 10.3993 11.5819 10.4737 11.3947 10.4737C11.2074 10.4737 11.0279 10.3993 10.8955 10.267Z" fill="#717171"/>
</g>
</g>
<defs>
<clipPath id="clip0_840_2260">
<rect width="14" height="14" fill="white"/>
</clipPath>
</defs>
</svg>
