<svg width="32" height="32" viewBox="0 0 32 32" fill="none" xmlns="http://www.w3.org/2000/svg">
<path d="M29.8644 27.5538H2.13564V7.98882C2.13564 6.94219 2.98407 6.09375 4.0307 6.09375H27.9693C29.0159 6.09375 29.8644 6.94219 29.8644 7.98882L29.8644 27.5538Z" fill="white"/>
<path d="M16 17.128C21.3765 17.128 25.7507 12.7539 25.7507 7.37732C25.7507 6.94231 25.7221 6.51388 25.6666 6.09375H6.33351C6.27801 6.51388 6.24939 6.94231 6.24939 7.37732C6.24933 12.7539 10.6235 17.128 16 17.128Z" fill="#B1D7FE"/>
<path d="M20.9219 25.9297V27.1138H11.0781V25.9297H0.625V28.1828C0.625 29.4388 1.64313 30.4569 2.89907 30.4569H29.101C30.3569 30.4569 31.3751 29.4388 31.3751 28.1828V25.9297H20.9219Z" fill="#8BC6F8"/>
<path d="M22.9774 23.2475H9.02264C8.38151 23.2475 7.86176 22.7277 7.86176 22.0866V18.2312C7.86176 17.5901 8.38151 17.0703 9.02264 17.0703H22.9775C23.6186 17.0703 24.1384 17.5901 24.1384 18.2312V22.0866C24.1384 22.7277 23.6186 23.2475 22.9774 23.2475Z" fill="#FFDB4E"/>
<path d="M16 7.37844C16.9783 7.37844 17.7713 6.58543 17.7713 5.60719C17.7713 4.62895 16.9783 3.83594 16 3.83594C15.0218 3.83594 14.2288 4.62895 14.2288 5.60719C14.2288 6.58543 15.0218 7.37844 16 7.37844Z" fill="#FDE0BE"/>
<path d="M16 7.375C14.4631 7.375 13.2171 8.62094 13.2171 10.1579H18.7828C18.7829 8.62088 17.537 7.375 16 7.375Z" fill="white"/>
<path d="M13.1733 19.0659C12.9292 18.8218 12.5335 18.8218 12.2893 19.0659L12.0771 19.2781L11.8648 19.0659C11.6208 18.8218 11.225 18.8218 10.9809 19.0659C10.7368 19.3099 10.7368 19.7057 10.9809 19.9498L11.1931 20.162L10.9809 20.3743C10.7368 20.6184 10.7368 21.0141 10.9809 21.2582C11.103 21.3803 11.2629 21.4413 11.4228 21.4413C11.5828 21.4413 11.7428 21.3803 11.8648 21.2582L12.077 21.046L12.2893 21.2582C12.4113 21.3803 12.5713 21.4413 12.7312 21.4413C12.8912 21.4413 13.0512 21.3803 13.1732 21.2582C13.4172 21.0142 13.4172 20.6184 13.1732 20.3743L12.9609 20.162L13.1732 19.9498C13.4173 19.7057 13.4173 19.31 13.1733 19.0659Z" fill="black"/>
<path d="M17.0962 19.0659C16.8521 18.8218 16.4563 18.8218 16.2122 19.0659L16 19.2781L15.7878 19.0659C15.5437 18.8218 15.148 18.8218 14.9038 19.0659C14.6598 19.3099 14.6598 19.7057 14.9038 19.9498L15.1161 20.162L14.9038 20.3743C14.6598 20.6184 14.6598 21.0141 14.9038 21.2582C15.0259 21.3803 15.1858 21.4413 15.3458 21.4413C15.5057 21.4413 15.6657 21.3803 15.7877 21.2582L16 21.046L16.2122 21.2582C16.3343 21.3803 16.4942 21.4413 16.6542 21.4413C16.8141 21.4413 16.9741 21.3803 17.0961 21.2582C17.3402 21.0142 17.3402 20.6184 17.0961 20.3743L16.8838 20.162L17.0961 19.9498C17.3402 19.7057 17.3402 19.31 17.0962 19.0659Z" fill="black"/>
<path d="M20.8069 20.162L21.0191 19.9498C21.2632 19.7057 21.2632 19.31 21.0191 19.0659C20.775 18.8218 20.3793 18.8218 20.1352 19.0659L19.9229 19.2781L19.7107 19.0659C19.4666 18.8218 19.0708 18.8218 18.8267 19.0659C18.5827 19.3099 18.5827 19.7057 18.8267 19.9498L19.039 20.162L18.8267 20.3743C18.5827 20.6184 18.5827 21.0141 18.8267 21.2582C18.9488 21.3803 19.1087 21.4413 19.2687 21.4413C19.4286 21.4413 19.5886 21.3803 19.7106 21.2582L19.9229 21.046L20.1351 21.2582C20.2572 21.3803 20.4171 21.4413 20.577 21.4413C20.737 21.4413 20.897 21.3803 21.019 21.2582C21.263 21.0142 21.263 20.6184 21.019 20.3743L20.8069 20.162Z" fill="black"/>
<path d="M31.3751 25.3022H30.4894V7.9872C30.4894 6.59764 29.3589 5.46714 27.9694 5.46714H23.1254C22.2822 2.32225 19.4072 0 16 0C12.5928 0 9.71789 2.32225 8.87471 5.46714H4.03076C2.64119 5.46714 1.51069 6.59764 1.51069 7.9872V25.3022H0.625001C0.279813 25.3022 0 25.582 0 25.9272V28.1804C0 29.7789 1.30057 31.0794 2.89907 31.0794H29.1009C30.6995 31.0794 32 29.7789 32 28.1804V25.9272C32.0001 25.582 31.7203 25.3022 31.3751 25.3022ZM16 1.25C19.3777 1.25 22.1257 3.99795 22.1257 7.3757C22.1257 10.7535 19.3777 13.5014 16 13.5014C12.6223 13.5014 9.87433 10.7534 9.87433 7.3757C9.87433 3.99801 12.6223 1.25 16 1.25ZM2.76063 7.9872C2.76063 7.28689 3.33038 6.71714 4.0307 6.71714H8.65346C8.63414 6.93414 8.62433 7.15376 8.62433 7.3757C8.62433 11.4427 11.933 14.7514 16 14.7514C20.067 14.7514 23.3757 11.4427 23.3757 7.3757C23.3757 7.15376 23.3659 6.93414 23.3466 6.71714H27.9694C28.6697 6.71714 29.2394 7.28689 29.2394 7.9872V25.3022H20.9219C20.5767 25.3022 20.2969 25.582 20.2969 25.9272V26.4862H11.7031V25.9272C11.7031 25.582 11.4233 25.3022 11.0781 25.3022H2.76063V7.9872ZM30.7501 28.1804C30.7501 29.0897 30.0103 29.8294 29.101 29.8294H2.89907C1.98975 29.8294 1.25 29.0897 1.25 28.1804V26.5522H10.4531V27.1112C10.4531 27.4564 10.733 27.7362 11.0781 27.7362H20.9219C21.2671 27.7362 21.5469 27.4564 21.5469 27.1112V26.5522H30.7501V28.1804Z" fill="black"/>
<path d="M24.7634 22.0866V18.2313C24.7634 17.2465 23.9622 16.4453 22.9774 16.4453H9.02264C8.03789 16.4453 7.2367 17.2464 7.2367 18.2313V22.0866C7.2367 23.0714 8.03783 23.8725 9.02264 23.8725H22.9774C23.9622 23.8725 24.7634 23.0714 24.7634 22.0866ZM8.4867 22.0866V18.2313C8.4867 17.9358 8.72714 17.6953 9.02264 17.6953H22.9774C23.2729 17.6953 23.5134 17.9358 23.5134 18.2313V22.0866C23.5134 22.3821 23.2729 22.6225 22.9774 22.6225H9.02264C8.72714 22.6225 8.4867 22.3821 8.4867 22.0866Z" fill="black"/>
<path d="M13.2172 10.7863H18.7829C19.1281 10.7863 19.4079 10.5065 19.4079 10.1613C19.4079 8.9227 18.7437 7.83632 17.7528 7.23963C18.1518 6.81144 18.3963 6.23732 18.3963 5.60719C18.3963 4.28588 17.3214 3.21094 16.0001 3.21094C14.6788 3.21094 13.6038 4.28588 13.6038 5.60719C13.6038 6.23732 13.8483 6.81144 14.2474 7.23963C13.2565 7.83632 12.5923 8.9227 12.5923 10.1613C12.5922 10.5065 12.872 10.7863 13.2172 10.7863ZM14.8538 5.60719C14.8538 4.97513 15.368 4.46094 16 4.46094C16.632 4.46094 17.1463 4.97519 17.1463 5.60719C17.1463 6.23919 16.632 6.75344 16 6.75344C15.368 6.75344 14.8538 6.23926 14.8538 5.60719ZM16 8.00351C16.9727 8.00351 17.797 8.65026 18.0656 9.53639H13.9344C14.203 8.65026 15.0274 8.00351 16 8.00351Z" fill="black"/>
</svg>
