<svg xmlns="http://www.w3.org/2000/svg" xmlns:xlink="http://www.w3.org/1999/xlink" width="32" height="32" viewBox="0 0 32 32">
  <defs>
    <clipPath id="clip-path">
      <rect id="Rectangle_3259" data-name="Rectangle 3259" width="32" height="32" transform="translate(488 184)" fill="#112d55" stroke="#707070" stroke-width="1"/>
    </clipPath>
  </defs>
  <g id="Mask_Group_11" data-name="Mask Group 11" transform="translate(-488 -184)" clip-path="url(#clip-path)">
    <g id="Icon" transform="translate(486.14 182.14)">
      <path id="Path_1597" data-name="Path 1597" d="M15.628,30.159H4.391a.3.3,0,0,1-.21-.088.3.3,0,0,1-.088-.21V27.7c0-1.237.883-2.326,2.243-3.252,2.429-1.658,6.36-2.7,10.78-2.7.729,0,1.445.03,2.145.085a1.116,1.116,0,1,0,.176-2.225q-1.134-.092-2.32-.092c-4.944,0-9.322,1.237-12.039,3.09C3,24.019,1.86,25.816,1.86,27.7v2.16a2.528,2.528,0,0,0,2.53,2.529c3,0,11.237,0,11.237,0a1.116,1.116,0,1,0,0-2.233Z" fill="#112d55" fill-rule="evenodd"/>
      <path id="Path_1598" data-name="Path 1598" d="M17.116,1.86A8.186,8.186,0,1,0,25.3,10.047,8.189,8.189,0,0,0,17.116,1.86Zm0,2.233a5.953,5.953,0,1,1-5.953,5.953A5.956,5.956,0,0,1,17.116,4.093Z" fill="#112d55" fill-rule="evenodd"/>
      <path id="Path_1599" data-name="Path 1599" d="M27.017,30.077a5.956,5.956,0,1,0-5-5s-3.456,3.455-3.456,3.455a1.118,1.118,0,0,0-.327.79v3.422a1.117,1.117,0,0,0,1.116,1.116h3.422a1.118,1.118,0,0,0,.79-.327Zm-.077-2.292a1.116,1.116,0,0,0-1.076.289l-3.554,3.554H20.465V29.784l3.554-3.554a1.116,1.116,0,0,0,.289-1.076,3.724,3.724,0,1,1,2.631,2.631Z" fill="#112d55" fill-rule="evenodd"/>
      <path id="Path_1600" data-name="Path 1600" d="M26.764,25.329a1.613,1.613,0,1,1,2.282,0,1.614,1.614,0,0,1-2.282,0Z" fill="#112d55" fill-rule="evenodd"/>
    </g>
  </g>
</svg>
