<svg width="16" height="16" viewBox="0 0 16 16" fill="none" xmlns="http://www.w3.org/2000/svg">
<path d="M8.39998 0C10.4973 0.000264979 12.5097 0.828246 14 2.304V0.8C14 0.587827 14.0843 0.384344 14.2343 0.234315C14.3843 0.0842854 14.5878 0 14.8 0C15.0121 0 15.2156 0.0842854 15.3657 0.234315C15.5157 0.384344 15.6 0.587827 15.6 0.8V4.8C15.6 5.01217 15.5157 5.21566 15.3657 5.36568C15.2156 5.51571 15.0121 5.6 14.8 5.6H10.8C10.5878 5.6 10.3843 5.51571 10.2343 5.36568C10.0843 5.21566 9.99998 5.01217 9.99998 4.8C9.99998 4.58783 10.0843 4.38434 10.2343 4.23431C10.3843 4.08429 10.5878 4 10.8 4H13.3793C12.5583 2.9815 11.4444 2.23955 10.1881 1.87442C8.93188 1.50928 7.59382 1.53854 6.35474 1.95826C5.11565 2.37797 4.03526 3.1679 3.25951 4.22132C2.48377 5.27475 2.05006 6.54091 2.01699 7.84873C1.98392 9.15655 2.35308 10.443 3.07459 11.5343C3.7961 12.6256 4.8352 13.4691 6.05148 13.9509C7.26777 14.4327 8.60264 14.5296 9.87574 14.2284C11.1488 13.9272 12.2988 13.2425 13.1703 12.2668C13.2401 12.1874 13.3249 12.1226 13.4198 12.0762C13.5147 12.0298 13.6179 12.0026 13.7234 11.9963C13.8289 11.99 13.9346 12.0046 14.0344 12.0394C14.1342 12.0742 14.2261 12.1284 14.3049 12.1988C14.3836 12.2693 14.4476 12.3547 14.4931 12.4501C14.5387 12.5455 14.5649 12.6489 14.5702 12.7544C14.5756 12.86 14.5599 12.9656 14.5242 13.065C14.4886 13.1645 14.4335 13.2559 14.3623 13.334C13.4726 14.3285 12.3482 15.0847 11.0916 15.5336C9.83499 15.9826 8.48603 16.1101 7.16755 15.9045C5.84907 15.6989 4.60296 15.1668 3.54267 14.3566C2.48239 13.5463 1.64162 12.4838 1.09691 11.2656C0.552203 10.0474 0.320863 8.71236 0.423957 7.38194C0.52705 6.05152 0.961301 4.76801 1.68717 3.6483C2.41304 2.52858 3.40747 1.60822 4.57991 0.971019C5.75235 0.333815 7.06557 1.14112e-05 8.39998 0Z" fill="#717171"/>
</svg>
