<svg width="16" height="16" viewBox="0 0 16 16" fill="none" xmlns="http://www.w3.org/2000/svg">
<path d="M6.55238 0.158203C6.45235 0.258218 6.39616 0.393848 6.39616 0.53527C6.39616 0.676691 6.45235 0.812322 6.55238 0.912337L6.70871 1.0686H4.7954C3.8052 1.06973 2.85588 1.46343 2.15571 2.16332C1.45553 2.86321 1.06167 3.81214 1.06054 4.80194V6.71447L0.904214 6.5582C0.803585 6.46105 0.668809 6.40729 0.528914 6.40851C0.389019 6.40973 0.255198 6.46582 0.156273 6.5647C0.0573487 6.66358 0.00123582 6.79735 2.01696e-05 6.93719C-0.00119548 7.07703 0.0525834 7.21175 0.149774 7.31234L1.21687 8.379C1.31693 8.47899 1.45262 8.53516 1.59409 8.53516C1.73557 8.53516 1.87126 8.47899 1.97132 8.379L3.03842 7.31234C3.13561 7.21175 3.18939 7.07703 3.18817 6.93719C3.18695 6.79735 3.13084 6.66358 3.03192 6.5647C2.93299 6.46582 2.79917 6.40973 2.65928 6.40851C2.51938 6.40729 2.3846 6.46105 2.28398 6.5582L2.12765 6.71447L2.12765 4.80194C2.12849 4.09495 2.40983 3.41717 2.90995 2.91725C3.41006 2.41734 4.08813 2.13612 4.7954 2.13527H6.70871L6.55238 2.29154C6.45519 2.39212 6.40141 2.52685 6.40263 2.66668C6.40384 2.80652 6.45995 2.94029 6.55888 3.03917C6.6578 3.13806 6.79162 3.19415 6.93152 3.19536C7.07141 3.19658 7.20619 3.14282 7.30682 3.04567L8.37392 1.979C8.47395 1.87899 8.53014 1.74336 8.53014 1.60194C8.53014 1.46052 8.47395 1.32488 8.37392 1.22487L7.30682 0.158203C7.20676 0.058218 7.07108 0.0020504 6.9296 0.0020504C6.78812 0.0020504 6.65243 0.058218 6.55238 0.158203Z" fill="#717171"/>
<path d="M4.26184 5.86667L4.26184 14.4C4.26184 14.8243 4.43048 15.2313 4.73066 15.5314C5.03084 15.8314 5.43797 16 5.86249 16H14.3993C14.8238 16 15.231 15.8314 15.5311 15.5314C15.8313 15.2313 16 14.8243 16 14.4V5.86667C16 5.44232 15.8313 5.03535 15.5311 4.7353C15.231 4.43524 14.8238 4.26667 14.3993 4.26667H5.86249C5.43797 4.26667 5.03084 4.43524 4.73066 4.7353C4.43048 5.03535 4.26184 5.44232 4.26184 5.86667ZM14.3993 5.33333C14.5408 5.33333 14.6765 5.38952 14.7766 5.48954C14.8766 5.58956 14.9328 5.72522 14.9328 5.86667V14.4C14.9328 14.5414 14.8766 14.6771 14.7766 14.7771C14.6765 14.8771 14.5408 14.9333 14.3993 14.9333H5.86249C5.72099 14.9333 5.58528 14.8771 5.48522 14.7771C5.38515 14.6771 5.32894 14.5414 5.32894 14.4L5.32894 5.86667C5.32894 5.72522 5.38515 5.58956 5.48522 5.48954C5.58528 5.38952 5.72099 5.33333 5.86249 5.33333H14.3993Z" fill="#717171"/>
</svg>
