<svg width="16" height="16" viewBox="0 0 16 16" fill="none" xmlns="http://www.w3.org/2000/svg">
<path d="M15.8438 6.55238C15.7437 6.45235 15.6081 6.39616 15.4667 6.39616C15.3253 6.39616 15.1896 6.45235 15.0896 6.55238L14.9334 6.70871V4.7954C14.9322 3.8052 14.5385 2.85588 13.8386 2.15571C13.1387 1.45553 12.1898 1.06167 11.2 1.06054H9.28748L9.44375 0.904214C9.5409 0.803585 9.59466 0.668809 9.59344 0.528914C9.59223 0.389019 9.53614 0.255198 9.43725 0.156273C9.33837 0.0573487 9.2046 0.00123582 9.06476 2.01696e-05C8.92493 -0.00119548 8.7902 0.0525834 8.68962 0.149774L7.62295 1.21687C7.52297 1.31693 7.4668 1.45262 7.4668 1.59409C7.4668 1.73557 7.52297 1.87126 7.62295 1.97132L8.68962 3.03842C8.7902 3.13561 8.92493 3.18939 9.06476 3.18817C9.2046 3.18695 9.33837 3.13084 9.43725 3.03192C9.53614 2.93299 9.59223 2.79917 9.59344 2.65928C9.59466 2.51938 9.5409 2.3846 9.44375 2.28398L9.28748 2.12765H11.2C11.907 2.12849 12.5848 2.40983 13.0847 2.90995C13.5846 3.41006 13.8658 4.08813 13.8667 4.7954V6.70871L13.7104 6.55238C13.6098 6.45519 13.4751 6.40141 13.3353 6.40263C13.1954 6.40384 13.0617 6.45995 12.9628 6.55888C12.8639 6.6578 12.8078 6.79162 12.8066 6.93152C12.8054 7.07141 12.8591 7.20619 12.9563 7.30682L14.0229 8.37392C14.123 8.47395 14.2586 8.53014 14.4 8.53014C14.5414 8.53014 14.6771 8.47395 14.7771 8.37392L15.8438 7.30682C15.9437 7.20676 15.9999 7.07108 15.9999 6.9296C15.9999 6.78812 15.9437 6.65243 15.8438 6.55238Z" fill="#262626"/>
<path d="M10.1333 4.26172H1.6C1.17565 4.26172 0.768687 4.43036 0.468629 4.73054C0.168571 5.03072 0 5.43785 0 5.86237V14.3992C0 14.8237 0.168571 15.2308 0.468629 15.531C0.768687 15.8312 1.17565 15.9998 1.6 15.9998H10.1333C10.5577 15.9998 10.9646 15.8312 11.2647 15.531C11.5648 15.2308 11.7333 14.8237 11.7333 14.3992V5.86237C11.7333 5.43785 11.5648 5.03072 11.2647 4.73054C10.9646 4.43036 10.5577 4.26172 10.1333 4.26172ZM10.6667 14.3992C10.6667 14.5407 10.6105 14.6764 10.5105 14.7765C10.4104 14.8765 10.2748 14.9327 10.1333 14.9327H1.6C1.45855 14.9327 1.3229 14.8765 1.22288 14.7765C1.12286 14.6764 1.06667 14.5407 1.06667 14.3992V5.86237C1.06667 5.72086 1.12286 5.58515 1.22288 5.48509C1.3229 5.38503 1.45855 5.32882 1.6 5.32882H10.1333C10.2748 5.32882 10.4104 5.38503 10.5105 5.48509C10.6105 5.58515 10.6667 5.72086 10.6667 5.86237V14.3992Z" fill="#262626"/>
<rect x="1" y="5" width="10" height="10" fill="#262626"/>
</svg>
