<svg xmlns="http://www.w3.org/2000/svg" width="11.2" height="11.265" viewBox="0 0 11.2 11.265">
  <g id="Layer_10" data-name="Layer 10" transform="translate(-2.9 -2.834)">
    <g id="Group_1457" data-name="Group 1457" transform="translate(3 2.999)">
      <path id="Path_2998" data-name="Path 2998" d="M22.943,6.576H20.779a.423.423,0,0,1,0-.846h1.768l.127-1.969a.43.43,0,0,1,.45-.395.423.423,0,0,1,.395.45l-.153,2.365A.423.423,0,0,1,22.943,6.576Z" transform="translate(-13.013 -3.211)" fill="#112d55" stroke="#112d55" stroke-width="0.2"/>
      <path id="Path_2999" data-name="Path 2999" d="M3.423,8.923A.423.423,0,0,1,3,8.5a5.5,5.5,0,0,1,10.264-2.75.423.423,0,1,1-.733.424A4.654,4.654,0,0,0,3.846,8.5a.423.423,0,0,1-.423.423Z" transform="translate(-3 -2.999)" fill="#112d55" stroke="#112d55" stroke-width="0.2"/>
      <path id="Path_3000" data-name="Path 3000" d="M3.423,8.923A.423.423,0,0,1,3,8.5a5.5,5.5,0,0,1,10.264-2.75.423.423,0,1,1-.733.424A4.654,4.654,0,0,0,3.846,8.5a.423.423,0,0,1-.423.423Z" transform="translate(-3 -2.999)" fill="#112d55" stroke="#112d55" stroke-width="0.2"/>
    </g>
    <path id="Path_3001" data-name="Path 3001" d="M9.426,20.923a5.52,5.52,0,0,1-4.764-2.75.423.423,0,0,1,.733-.424,4.654,4.654,0,0,0,8.685-2.326.423.423,0,0,1,.846,0,5.506,5.506,0,0,1-5.5,5.5Z" transform="translate(-0.926 -6.924)" fill="#112d55" stroke="#112d55" stroke-width="0.2"/>
    <path id="Path_3002" data-name="Path 3002" d="M4.591,24.257H4.563a.423.423,0,0,1-.395-.45l.153-2.365a.423.423,0,0,1,.422-.4H6.908a.423.423,0,1,1,0,.846H5.14l-.127,1.969A.423.423,0,0,1,4.591,24.257Z" transform="translate(-0.673 -10.412)" fill="#112d55" stroke="#112d55" stroke-width="0.2"/>
    <path id="Path_3003" data-name="Path 3003" d="M9.426,20.923a5.52,5.52,0,0,1-4.764-2.75.423.423,0,0,1,.733-.424,4.654,4.654,0,0,0,8.685-2.326.423.423,0,0,1,.846,0,5.506,5.506,0,0,1-5.5,5.5Z" transform="translate(-0.926 -6.924)" fill="#112d55" stroke="#112d55" stroke-width="0.2"/>
  </g>
</svg>
