<svg width="16" height="16" viewBox="0 0 16 16" fill="none" xmlns="http://www.w3.org/2000/svg">
<path d="M7.60002 0C5.50272 0.000264979 3.49027 0.828246 2.00002 2.304V0.8C2.00002 0.587827 1.91574 0.384344 1.76571 0.234315C1.61568 0.0842854 1.4122 0 1.20002 0C0.987851 0 0.784368 0.0842854 0.634339 0.234315C0.48431 0.384344 0.400024 0.587827 0.400024 0.8V4.8C0.400024 5.01217 0.48431 5.21566 0.634339 5.36568C0.784368 5.51571 0.987851 5.6 1.20002 5.6H5.20002C5.4122 5.6 5.61568 5.51571 5.76571 5.36568C5.91574 5.21566 6.00002 5.01217 6.00002 4.8C6.00002 4.58783 5.91574 4.38434 5.76571 4.23431C5.61568 4.08429 5.4122 4 5.20002 4H2.62066C3.44172 2.9815 4.55562 2.23955 5.81187 1.87442C7.06812 1.50928 8.40618 1.53854 9.64526 1.95826C10.8843 2.37797 11.9647 3.1679 12.7405 4.22132C13.5162 5.27475 13.9499 6.54091 13.983 7.84873C14.0161 9.15655 13.6469 10.443 12.9254 11.5343C12.2039 12.6256 11.1648 13.4691 9.94852 13.9509C8.73223 14.4327 7.39736 14.5296 6.12426 14.2284C4.85116 13.9272 3.70119 13.2425 2.8297 12.2668C2.75994 12.1874 2.67515 12.1226 2.58021 12.0762C2.48527 12.0298 2.38208 12.0026 2.27658 11.9963C2.17109 11.99 2.06539 12.0046 1.96559 12.0394C1.86579 12.0742 1.77387 12.1284 1.69513 12.1988C1.6164 12.2693 1.55241 12.3547 1.50686 12.4501C1.46132 12.5455 1.43512 12.6489 1.42978 12.7544C1.42444 12.86 1.44006 12.9656 1.47575 13.065C1.51144 13.1645 1.56648 13.2559 1.6377 13.334C2.52742 14.3285 3.65178 15.0847 4.9084 15.5336C6.16501 15.9826 7.51397 16.1101 8.83245 15.9045C10.1509 15.6989 11.397 15.1668 12.4573 14.3566C13.5176 13.5463 14.3584 12.4838 14.9031 11.2656C15.4478 10.0474 15.6791 8.71236 15.576 7.38194C15.4729 6.05152 15.0387 4.76801 14.3128 3.6483C13.587 2.52858 12.5925 1.60822 11.4201 0.971019C10.2476 0.333815 8.93443 1.14112e-05 7.60002 0Z" fill="#717171"/>
</svg>
