<svg xmlns="http://www.w3.org/2000/svg" width="20" height="20" viewBox="0 0 20 20">
  <g id="Group_2744" data-name="Group 2744" transform="translate(-943 -836)">
    <rect id="Rectangle_5197" data-name="Rectangle 5197" width="20" height="20" rx="10" transform="translate(943 836)" fill="#085873"/>
    <g id="Stripe_Logo__revised_2016_1_" data-name="Stripe_Logo,_revised_2016 (1)" transform="translate(895.512 773.4)">
      <path id="Path_30281" data-name="Path 30281" d="M56.78,70.578c0-.429.352-.593.934-.593a6.129,6.129,0,0,1,2.725.7V68.105a7.247,7.247,0,0,0-2.725-.505C55.484,67.6,54,68.765,54,70.71c0,3.033,4.176,2.549,4.176,3.857,0,.505-.44.67-1.055.67a6.84,6.84,0,0,1-3-.879v2.615a7.618,7.618,0,0,0,3,.626c2.286,0,3.857-1.132,3.857-3.1C60.967,71.226,56.78,71.809,56.78,70.578Z" fill="#fff" fill-rule="evenodd"/>
    </g>
  </g>
</svg>
