<svg width="24" height="24" viewBox="0 0 24 24" fill="none" xmlns="http://www.w3.org/2000/svg">
<path d="M0.69557 20.4112L0.67157 20.4352C0.34757 19.7272 0.14357 18.9232 0.0595703 18.0352C0.14357 18.9112 0.37157 19.7032 0.69557 20.4112Z" fill="#AAAAAA"/>
<path d="M8.39995 10.0558C9.97732 10.0558 11.2559 8.77707 11.2559 7.19975C11.2559 5.62242 9.97732 4.34375 8.39995 4.34375C6.82262 4.34375 5.54395 5.62242 5.54395 7.19975C5.54395 8.77707 6.82262 10.0558 8.39995 10.0558Z" fill="#AAAAAA"/>
<path d="M17.028 0H6.972C2.604 0 0 2.604 0 6.972V17.028C0 18.336 0.228 19.476 0.672 20.436C1.704 22.716 3.912 24 6.972 24H17.028C21.396 24 24 21.396 24 17.028V14.28V6.972C24 2.604 21.396 0 17.028 0ZM22.044 12.6C21.108 11.796 19.596 11.796 18.66 12.6L13.668 16.884C12.732 17.688 11.22 17.688 10.284 16.884L9.876 16.548C9.024 15.804 7.668 15.732 6.708 16.38L2.22 19.392C1.956 18.72 1.8 17.94 1.8 17.028V6.972C1.8 3.588 3.588 1.8 6.972 1.8H17.028C20.412 1.8 22.2 3.588 22.2 6.972V12.732L22.044 12.6Z" fill="#AAAAAA"/>
</svg>
