<svg width="40" height="40" viewBox="0 0 40 40" fill="none" xmlns="http://www.w3.org/2000/svg">
<path d="M20 9.63867C20 11.4645 18.5083 12.9584 16.6667 12.9584H8.33333H3.33333C1.49233 12.9584 0 14.4523 0 16.2781V29.557V34.5366C0 36.3625 1.49238 37.8564 3.33333 37.8564H36.6667C38.5083 37.8564 40 36.3625 40 34.5366V29.557V12.9584C40 11.1325 38.5083 9.63867 36.6667 9.63867H20Z" fill="#FFD563"/>
<path d="M3.33333 3C1.49233 3 0 4.48624 0 6.31973V14.619H16.6667V16.2789H40V7.97959C40 6.14611 38.5083 4.65986 36.6667 4.65986H19.5317C18.955 3.66909 17.9 3 16.6667 3H3.33333Z" fill="#FCBC1A"/>
<path d="M20 7.98047C20 9.80632 18.5083 11.3002 16.6667 11.3002H8.33333H3.33333C1.49233 11.3002 0 12.7941 0 14.6199V27.8988V32.8784C0 34.7043 1.49238 36.1982 3.33333 36.1982H36.6667C38.5083 36.1982 40 34.7043 40 32.8784V27.8988V11.3002C40 9.47435 38.5083 7.98047 36.6667 7.98047H20Z" fill="#FFD563"/>
</svg>
