<svg width="24" height="24" viewBox="0 0 24 24" fill="none" xmlns="http://www.w3.org/2000/svg">
<path d="M18.8563 1.875V2.05H19.0312H20.25C22.2211 2.05 23.825 3.6539 23.825 5.625V10.9688C23.825 11.3899 23.4836 11.7312 23.0625 11.7312C22.6414 11.7312 22.3 11.3899 22.3 10.9688V5.625C22.3 4.49448 21.3805 3.575 20.25 3.575H19.0312H18.8563V3.75V4.6875C18.8563 5.10863 18.5149 5.45 18.0938 5.45C17.6726 5.45 17.3312 5.10863 17.3312 4.6875V3.75V3.575H17.1562H12.8906H12.7156V3.75V4.6875C12.7156 5.10863 12.3743 5.45 11.9531 5.45C11.532 5.45 11.1906 5.10863 11.1906 4.6875V3.75V3.575H11.0156H6.79688H6.62187V3.75V4.6875C6.62187 5.10863 6.28051 5.45 5.85938 5.45C5.43824 5.45 5.09688 5.10863 5.09688 4.6875V3.75V3.575H4.92188H3.75C2.61948 3.575 1.7 4.49448 1.7 5.625V20.25C1.7 21.3805 2.61948 22.3 3.75 22.3H10.9219C11.343 22.3 11.6844 22.6414 11.6844 23.0625C11.6844 23.4836 11.343 23.825 10.9219 23.825H3.75C1.7789 23.825 0.175 22.2211 0.175 20.25V5.625C0.175 3.6539 1.7789 2.05 3.75 2.05H4.92188H5.09688V1.875V0.9375C5.09688 0.516369 5.43824 0.175 5.85938 0.175C6.28051 0.175 6.62187 0.516369 6.62187 0.9375V1.875V2.05H6.79688H11.0156H11.1906V1.875V0.9375C11.1906 0.516369 11.532 0.175 11.9531 0.175C12.3743 0.175 12.7156 0.516369 12.7156 0.9375V1.875V2.05H12.8906H17.1562H17.3312V1.875V0.9375C17.3312 0.516369 17.6726 0.175 18.0938 0.175C18.5149 0.175 18.8563 0.516369 18.8563 0.9375V1.875ZM19.0906 17.3906V17.5656H19.2656H19.6875C20.1086 17.5656 20.45 17.907 20.45 18.3281C20.45 18.7493 20.1086 19.0906 19.6875 19.0906H18.3281C17.907 19.0906 17.5656 18.7493 17.5656 18.3281V16.4062C17.5656 15.9851 17.907 15.6438 18.3281 15.6438C18.7493 15.6438 19.0906 15.9851 19.0906 16.4062V17.3906ZM18.8563 9.84375C18.8563 10.2649 18.5149 10.6062 18.0938 10.6062C17.6726 10.6062 17.3312 10.2649 17.3312 9.84375C17.3312 9.42263 17.6726 9.08125 18.0938 9.08125C18.5149 9.08125 18.8563 9.42263 18.8563 9.84375ZM12.8313 18.3281C12.8313 15.2973 15.2973 12.8313 18.3281 12.8313C21.359 12.8313 23.825 15.2973 23.825 18.3281C23.825 21.359 21.359 23.825 18.3281 23.825C15.2973 23.825 12.8313 21.359 12.8313 18.3281ZM14.3562 18.3281C14.3562 20.5184 16.1379 22.3 18.3281 22.3C20.5184 22.3 22.3 20.5184 22.3 18.3281C22.3 16.1378 20.5184 14.3562 18.3281 14.3562C16.1379 14.3562 14.3562 16.1378 14.3562 18.3281ZM14.7781 9.84375C14.7781 10.2649 14.4367 10.6062 14.0156 10.6062C13.5945 10.6062 13.2531 10.2649 13.2531 9.84375C13.2531 9.42263 13.5945 9.08125 14.0156 9.08125C14.4367 9.08125 14.7781 9.42263 14.7781 9.84375ZM10.7 13.9219C10.7 14.343 10.3586 14.6844 9.9375 14.6844C9.51638 14.6844 9.175 14.343 9.175 13.9219C9.175 13.5008 9.51638 13.1594 9.9375 13.1594C10.3586 13.1594 10.7 13.5008 10.7 13.9219ZM6.62187 9.84375C6.62187 10.2649 6.28049 10.6062 5.85938 10.6062C5.43826 10.6062 5.09688 10.2649 5.09688 9.84375C5.09688 9.42263 5.43826 9.08125 5.85938 9.08125C6.28049 9.08125 6.62187 9.42263 6.62187 9.84375ZM6.62187 13.9219C6.62187 14.343 6.28049 14.6844 5.85938 14.6844C5.43826 14.6844 5.09688 14.343 5.09688 13.9219C5.09688 13.5008 5.43826 13.1594 5.85938 13.1594C6.28049 13.1594 6.62187 13.5008 6.62187 13.9219ZM6.62187 18C6.62187 18.4211 6.28049 18.7625 5.85938 18.7625C5.43826 18.7625 5.09688 18.4211 5.09688 18C5.09688 17.5789 5.43826 17.2375 5.85938 17.2375C6.28049 17.2375 6.62187 17.5789 6.62187 18ZM10.7 18C10.7 18.4211 10.3586 18.7625 9.9375 18.7625C9.51638 18.7625 9.175 18.4211 9.175 18C9.175 17.5789 9.51638 17.2375 9.9375 17.2375C10.3586 17.2375 10.7 17.5789 10.7 18ZM10.7 9.84375C10.7 10.2649 10.3586 10.6062 9.9375 10.6062C9.51638 10.6062 9.175 10.2649 9.175 9.84375C9.175 9.42263 9.51638 9.08125 9.9375 9.08125C10.3586 9.08125 10.7 9.42263 10.7 9.84375Z" fill="#717171" stroke="white" stroke-width="0.35"/>
</svg>
