<svg width="32" height="32" viewBox="0 0 32 32" fill="none" xmlns="http://www.w3.org/2000/svg">
<path d="M10.8387 9.8067V11.8712C10.8387 13.0119 9.09934 13.9357 5.6774 13.9357C2.25547 13.9357 0.516113 13.0119 0.516113 11.8712V7.74219C0.516113 8.88283 2.25547 9.8067 5.6774 9.8067C9.09934 9.8067 10.8387 8.88283 10.8387 7.74219V9.8067Z" fill="#FFC729"/>
<path d="M10.8387 16V18.9213V20.129C10.8387 21.2697 9.09934 22.1935 5.6774 22.1935C2.25547 22.1935 0.516113 21.2697 0.516113 20.129V16C0.516113 17.1406 2.25547 18.0645 5.6774 18.0645C9.09934 18.0645 10.8387 17.1406 10.8387 16Z" fill="#FFC729"/>
<path d="M10.8387 22.1895V24.254C10.8387 25.3947 9.09934 26.3185 5.6774 26.3185C2.25547 26.3185 0.516113 25.3947 0.516113 24.254V20.125C0.516113 21.2656 2.25547 22.1895 5.6774 22.1895C9.09934 22.1895 10.8387 21.2656 10.8387 20.125V22.1895Z" fill="#FCD770"/>
<path d="M10.8387 13.0827V16.004C10.8387 17.1447 9.09934 18.0685 5.6774 18.0685C2.25547 18.0685 0.516113 17.1447 0.516113 16.004V11.875C0.516113 13.0156 2.25547 13.9395 5.6774 13.9395C9.09934 13.9395 10.8387 13.0156 10.8387 11.875V13.0827Z" fill="#FCD770"/>
<path d="M5.6774 9.80091C8.52791 9.80091 10.8387 8.87659 10.8387 7.73639C10.8387 6.59619 8.52791 5.67188 5.6774 5.67188C2.8269 5.67188 0.516113 6.59619 0.516113 7.73639C0.516113 8.87659 2.8269 9.80091 5.6774 9.80091Z" fill="#FCD770"/>
<path d="M31.4836 5.15675V10.318C31.4836 10.6019 31.2513 10.8342 30.9675 10.8342H28.3868H25.8062C25.5223 10.8342 25.29 10.6019 25.29 10.318V5.15675C25.29 4.87288 25.5223 4.64062 25.8062 4.64062H28.3868H30.9675C31.2513 4.64062 31.4836 4.87288 31.4836 5.15675Z" fill="#B1D7FE"/>
<path d="M31.4836 13.4146V18.5759C31.4836 18.8597 31.2513 19.092 30.9675 19.092H28.3868H25.8062C25.5223 19.092 25.29 18.8597 25.29 18.5759V13.4146C25.29 13.1307 25.5223 12.8984 25.8062 12.8984H28.3868H30.9675C31.2513 12.8984 31.4836 13.1307 31.4836 13.4146Z" fill="#B1D7FE"/>
<path d="M31.4836 21.6724V26.8337C31.4836 27.1175 31.2513 27.3498 30.9675 27.3498H28.3868H25.8062C25.5223 27.3498 25.29 27.1175 25.29 26.8337V21.6724C25.29 21.3885 25.5223 21.1562 25.8062 21.1562H28.3868H30.9675C31.2513 21.1562 31.4836 21.3885 31.4836 21.6724Z" fill="#B1D7FE"/>
<path d="M17.0323 31.4786C17.6024 31.4786 18.0645 31.0164 18.0645 30.4463C18.0645 29.8762 17.6024 29.4141 17.0323 29.4141C16.4622 29.4141 16 29.8762 16 30.4463C16 31.0164 16.4622 31.4786 17.0323 31.4786Z" fill="#FF826E"/>
<path d="M17.0323 2.58014C17.6024 2.58014 18.0645 2.11798 18.0645 1.54788C18.0645 0.977783 17.6024 0.515625 17.0323 0.515625C16.4622 0.515625 16 0.977783 16 1.54788C16 2.11798 16.4622 2.58014 17.0323 2.58014Z" fill="#FF826E"/>
<path d="M10.8384 18.9195C11.1635 19.0331 11.5093 19.095 11.8706 19.095C13.579 19.095 14.9674 17.7066 14.9674 15.9982C14.9674 14.2898 13.579 12.9015 11.8706 12.9015C11.5093 12.9015 11.1635 12.9634 10.8384 13.0769V11.8692V9.80469H12.9029V9.83565C12.9029 10.4447 13.2693 10.9918 13.8319 11.224C13.8371 11.2292 13.8422 11.2292 13.8526 11.2344C14.4152 11.4666 15.0655 11.3428 15.499 10.9092L15.5197 10.8886L16.9803 12.3492L16.9597 12.3698C16.5261 12.8034 16.4022 13.4537 16.6345 14.0163C16.6397 14.0266 16.6397 14.0318 16.6448 14.0369C16.8771 14.5995 17.4242 14.966 18.0332 14.966H18.0642V17.0305H18.0332C17.4242 17.0305 16.8771 17.3969 16.6448 17.9595C16.6397 17.9647 16.6397 17.9698 16.6345 17.9802C16.4022 18.5428 16.5261 19.1931 16.9597 19.6266L16.9803 19.6473L15.5197 21.1079L15.499 21.0873C15.0655 20.6537 14.4152 20.5298 13.8526 20.7621C13.8422 20.7673 13.8371 20.7673 13.8319 20.7724C13.2693 21.0047 12.9029 21.5518 12.9029 22.1608V22.1918H10.8384V20.1273V18.9195Z" fill="#A0D468"/>
<path d="M10.8384 15.9952C10.8384 16.563 11.3029 17.0275 11.8706 17.0275C12.4384 17.0275 12.9029 16.563 12.9029 15.9952C12.9029 15.4275 12.4384 14.963 11.8706 14.963C11.3029 14.963 10.8384 15.4275 10.8384 15.9952V13.0739C11.1635 12.9604 11.5093 12.8984 11.8706 12.8984C13.579 12.8984 14.9674 14.2868 14.9674 15.9952C14.9674 17.7036 13.579 19.092 11.8706 19.092C11.5093 19.092 11.1635 19.0301 10.8384 18.9165V15.9952Z" fill="#B4DD7F"/>
<path d="M26.8389 16.5156H29.9356V17.5479H26.8389V16.5156Z" fill="black"/>
<path d="M26.8389 14.4531H29.9356V15.4854H26.8389V14.4531Z" fill="black"/>
<path d="M26.8389 24.7734H29.9356V25.8057H26.8389V24.7734Z" fill="black"/>
<path d="M26.8389 22.7109H29.9356V23.7432H26.8389V22.7109Z" fill="black"/>
<path d="M30.9677 11.3548C31.537 11.3548 32 10.8919 32 10.3226V5.16129C32 4.592 31.537 4.12903 30.9677 4.12903H28.9032V2.58065C28.9032 1.72697 28.2085 1.03226 27.3548 1.03226H18.4857C18.272 0.433032 17.7043 0 17.0323 0C16.3603 0 15.7925 0.433032 15.5788 1.03226H6.70968C5.856 1.03226 5.16129 1.72697 5.16129 2.58065V5.17006C1.91948 5.26039 0 6.20645 0 7.74194V24.2581C0 25.7935 1.91948 26.7396 5.16129 26.8299V29.4194C5.16129 30.273 5.856 30.9677 6.70968 30.9677H15.5788C15.7925 31.567 16.3603 32 17.0323 32C17.7043 32 18.272 31.567 18.4857 30.9677H27.3548C28.2085 30.9677 28.9032 30.273 28.9032 29.4194V27.871H30.9677C31.537 27.871 32 27.408 32 26.8387V21.6774C32 21.1081 31.537 20.6452 30.9677 20.6452H28.9032V19.6129H30.9677C31.537 19.6129 32 19.1499 32 18.5806V13.4194C32 12.8501 31.537 12.3871 30.9677 12.3871H28.9032V11.3548H30.9677ZM30.9683 10.3226H25.8065V5.16129H30.9677L30.9683 10.3226ZM17.0323 1.03226C17.3172 1.03226 17.5484 1.264 17.5484 1.54839C17.5484 1.83277 17.3172 2.06452 17.0323 2.06452C16.7474 2.06452 16.5161 1.83277 16.5161 1.54839C16.5161 1.264 16.7474 1.03226 17.0323 1.03226ZM5.16129 6.20181V8.25806H6.19355V6.20181C8.90581 6.28439 10.3226 7.01729 10.3226 7.74194C10.3226 8.51148 8.72671 9.29032 5.67742 9.29032C2.62813 9.29032 1.03226 8.51148 1.03226 7.74194C1.03226 7.01729 2.44903 6.2849 5.16129 6.20181ZM16.1677 14.2348C16.4155 14.8346 16.9254 15.2666 17.5484 15.4214V16.575C16.9337 16.7272 16.4165 17.1639 16.161 17.7812C15.9092 18.384 15.9628 19.0534 16.2947 19.6052L15.4787 20.4212C14.9352 20.0934 14.2575 20.0377 13.6361 20.2968C13.0364 20.5445 12.6044 21.0545 12.4495 21.6774H11.3548V19.569C11.5257 19.5938 11.697 19.6129 11.871 19.6129C13.8627 19.6129 15.4839 17.9917 15.4839 16C15.4839 14.0077 13.8627 12.3871 11.871 12.3871C11.697 12.3871 11.5252 12.4062 11.3548 12.431V10.3226H12.4459C12.5982 10.9373 13.0348 11.4545 13.6521 11.7099C14.2555 11.9618 14.9244 11.9081 15.4761 11.5763L16.2921 12.3923C15.9644 12.9363 15.9086 13.6139 16.1677 14.2348ZM11.3548 17.4534C11.5169 17.5112 11.6893 17.5484 11.871 17.5484C12.7246 17.5484 13.4194 16.8537 13.4194 16C13.4194 15.1463 12.7246 14.4516 11.871 14.4516C11.6893 14.4516 11.5169 14.4888 11.3548 14.5466V13.4766C11.5241 13.4421 11.696 13.4194 11.871 13.4194C13.2939 13.4194 14.4516 14.577 14.4516 16C14.4516 17.423 13.2939 18.5806 11.871 18.5806C11.696 18.5806 11.5241 18.5579 11.3548 18.5234V17.4534ZM11.871 15.4839C12.1559 15.4839 12.3871 15.7156 12.3871 16C12.3871 16.2844 12.1559 16.5161 11.871 16.5161C11.5861 16.5161 11.3548 16.2844 11.3548 16C11.3548 15.7156 11.5861 15.4839 11.871 15.4839ZM1.03226 9.38013C1.99123 9.98555 3.58297 10.3226 5.67742 10.3226C7.77187 10.3226 9.36361 9.98555 10.3226 9.38013V11.871C10.3226 12.6405 8.72671 13.4194 5.67742 13.4194C2.62813 13.4194 1.03226 12.6405 1.03226 11.871V9.38013ZM1.03226 13.5092C1.99123 14.1146 3.58297 14.4516 5.67742 14.4516C7.77187 14.4516 9.36361 14.1146 10.3226 13.5092V16C10.3226 16.7695 8.72671 17.5484 5.67742 17.5484C2.62813 17.5484 1.03226 16.7695 1.03226 16V13.5092ZM1.03226 17.6382C1.99123 18.2436 3.58297 18.5806 5.67742 18.5806C7.77187 18.5806 9.36361 18.2436 10.3226 17.6382V20.129C10.3226 20.8986 8.72671 21.6774 5.67742 21.6774C2.62813 21.6774 1.03226 20.8986 1.03226 20.129V17.6382ZM1.03226 24.2581V21.7672C1.99123 22.3726 3.58297 22.7097 5.67742 22.7097C7.77187 22.7097 9.36361 22.3726 10.3226 21.7672V24.2581C10.3226 25.0276 8.72671 25.8065 5.67742 25.8065C2.62813 25.8065 1.03226 25.0276 1.03226 24.2581ZM17.0323 30.9677C16.7474 30.9677 16.5161 30.7365 16.5161 30.4516C16.5161 30.1667 16.7474 29.9355 17.0323 29.9355C17.3172 29.9355 17.5484 30.1667 17.5484 30.4516C17.5484 30.7365 17.3172 30.9677 17.0323 30.9677ZM30.9688 26.8387H25.8065V21.6774H30.9677L30.9688 26.8387ZM30.9688 18.5806H25.8065V13.4194H30.9677L30.9688 18.5806ZM27.871 12.3871H25.8065C25.2372 12.3871 24.7742 12.8501 24.7742 13.4194V18.5806C24.7742 19.1499 25.2372 19.6129 25.8065 19.6129H27.871V20.6452H25.8065C25.2372 20.6452 24.7742 21.1081 24.7742 21.6774V26.8387C24.7742 27.408 25.2372 27.871 25.8065 27.871H27.871V29.4194C27.871 29.7043 27.6397 29.9355 27.3548 29.9355H18.4857C18.272 29.3363 17.7043 28.9032 17.0323 28.9032C16.3603 28.9032 15.7925 29.3363 15.5788 29.9355H6.70968C6.42477 29.9355 6.19355 29.7043 6.19355 29.4194V26.8299C9.43535 26.7396 11.3548 25.7941 11.3548 24.2581V22.7097H12.9032L13.4194 22.6803V22.1641C13.4194 21.7626 13.6594 21.4039 14.0506 21.2428C14.4263 21.0854 14.8511 21.169 15.1561 21.4741L15.521 21.839L17.3455 20.0145L17.6898 19.6289L17.3249 19.264C17.04 18.9791 16.9574 18.5538 17.1226 18.159C17.2754 17.7884 17.6335 17.5484 18.0645 17.5484H18.5806V14.9677L18.5512 14.4516H18.0351C17.6335 14.4516 17.2748 14.2121 17.1138 13.8204C16.9569 13.4462 17.0395 13.0204 17.3471 12.7128L17.7079 12.3479L15.8854 10.5254L15.4999 10.1812L15.135 10.5461C14.8501 10.8305 14.4258 10.9135 14.0299 10.7489C13.6594 10.5956 13.4194 10.2369 13.4194 9.80645V9.29032H11.3548V7.74194C11.3548 6.20645 9.43535 5.26039 6.19355 5.17006V2.58065C6.19355 2.29626 6.42477 2.06452 6.70968 2.06452H15.5788C15.7925 2.66374 16.3603 3.09677 17.0323 3.09677C17.7043 3.09677 18.272 2.66374 18.4857 2.06452H27.3548C27.6397 2.06452 27.871 2.29626 27.871 2.58065V4.12903H25.8065C25.2372 4.12903 24.7742 4.592 24.7742 5.16129V10.3226C24.7742 10.8919 25.2372 11.3548 25.8065 11.3548H27.871V12.3871Z" fill="black"/>
<path d="M26.8389 8.25781H29.9356V9.29007H26.8389V8.25781Z" fill="black"/>
<path d="M26.8389 6.19531H29.9356V7.22757H26.8389V6.19531Z" fill="black"/>
</svg>
