<svg width="14" height="14" viewBox="0 0 14 14" fill="none" xmlns="http://www.w3.org/2000/svg">
<path id="Vector" d="M13.8807 13.305L10.6997 10.124C11.676 9.01064 12.2147 7.60191 12.2147 6.10736C12.2147 4.47594 11.5793 2.94235 10.4258 1.78887C9.27237 0.635388 7.73877 0 6.10736 0C4.47594 0 2.94235 0.635388 1.78887 1.78887C0.635388 2.94235 0 4.47594 0 6.10736C0 7.73877 0.635388 9.27237 1.78887 10.4258C2.94235 11.5793 4.47594 12.2147 6.10736 12.2147C7.60191 12.2147 9.01064 11.676 10.124 10.6997L13.305 13.8807C13.3845 13.9602 13.4887 14 13.5928 14C13.697 14 13.8012 13.9602 13.8807 13.8807C14.0398 13.7217 14.0398 13.464 13.8807 13.305ZM2.36461 9.8501C1.36501 8.8503 0.814314 7.52107 0.814314 6.10736C0.814314 4.69364 1.36501 3.36441 2.36461 2.36461C3.36441 1.36501 4.69364 0.814314 6.10736 0.814314C7.52107 0.814314 8.8503 1.36501 9.8501 2.36461C10.8497 3.36441 11.4004 4.69364 11.4004 6.10736C11.4004 7.52107 10.8497 8.8503 9.8501 9.8501C8.8503 10.8497 7.52107 11.4004 6.10736 11.4004C4.69364 11.4004 3.36441 10.8497 2.36461 9.8501Z" fill="#9F9F9F"/>
</svg>
