<svg width="16" height="16" viewBox="0 0 16 16" fill="none" xmlns="http://www.w3.org/2000/svg">
<g id="Group 602">
<g id="Union">
<mask id="path-1-inside-1_18_8608" fill="white">
<path fill-rule="evenodd" clip-rule="evenodd" d="M13.9233 2C14.0763 2 14.2219 2.03235 14.3537 2.09067C14.6124 2.20514 14.8182 2.41965 14.9233 2.68582C14.9728 2.81102 15 2.94764 15 3.09067V12.9093C15 13.0524 14.9728 13.189 14.9233 13.3142C14.8182 13.5804 14.6124 13.7949 14.3537 13.9093C14.2219 13.9676 14.0763 14 13.9233 14H2.07667C1.482 14 1 13.5113 1 12.9093V3.09067C1 2.94764 1.02721 2.81102 1.07667 2.68582C1.18182 2.41965 1.38756 2.20514 1.6463 2.09067C1.7781 2.03235 1.92365 2 2.07667 2H13.9233ZM2.07667 3.09067H3.07667H12.9233H13.9233V4.09067V4.818V5.818H12.9233H3.07667H2.07667V4.818V4.09067V3.09067ZM13.9233 12.9093H12.9233H7.92333H6.92333V11.9093V7.90933V6.90933H7.92333H12.9233H13.9233V7.90933V11.9093V12.9093Z"/>
</mask>
<path d="M14.3537 2.09067L16.3767 -2.48181L16.3767 -2.48181L14.3537 2.09067ZM14.9233 2.68582L19.5736 0.848704V0.848701L14.9233 2.68582ZM14.9233 13.3142L19.5736 15.1513L19.5736 15.1513L14.9233 13.3142ZM14.3537 13.9093L12.3307 9.33686L12.3307 9.33686L14.3537 13.9093ZM1.07667 2.68582L5.72693 4.52295L1.07667 2.68582ZM1.6463 2.09067L-0.376691 -2.48181H-0.376691L1.6463 2.09067ZM2.07667 3.09067V-1.90933H-2.92333V3.09067H2.07667ZM13.9233 3.09067H18.9233V-1.90933H13.9233V3.09067ZM13.9233 5.818V10.818H18.9233V5.818H13.9233ZM2.07667 5.818H-2.92333V10.818H2.07667V5.818ZM13.9233 12.9093V17.9093H18.9233V12.9093H13.9233ZM6.92333 12.9093H1.92333V17.9093H6.92333V12.9093ZM6.92333 6.90933V1.90933H1.92333V6.90933H6.92333ZM13.9233 6.90933H18.9233V1.90933H13.9233V6.90933ZM16.3767 -2.48181C15.6213 -2.816 14.7878 -3 13.9233 -3V7C13.3649 7 12.8225 6.88071 12.3307 6.66314L16.3767 -2.48181ZM19.5736 0.848701C18.9898 -0.628994 17.8462 -1.83168 16.3767 -2.48181L12.3307 6.66314C11.3787 6.24195 10.6465 5.46829 10.2731 4.52294L19.5736 0.848701ZM20 3.09067C20 2.30918 19.8506 1.54988 19.5736 0.848704L10.2731 4.52294C10.095 4.07215 10 3.58611 10 3.09067H20ZM20 12.9093V3.09067H10V12.9093H20ZM19.5736 15.1513C19.8506 14.4501 20 13.6908 20 12.9093H10C10 12.4139 10.095 11.9278 10.2731 11.4771L19.5736 15.1513ZM16.3767 18.4818C17.8462 17.8317 18.9898 16.629 19.5736 15.1513L10.2731 11.4771C10.6465 10.5317 11.3787 9.75805 12.3307 9.33686L16.3767 18.4818ZM13.9233 19C14.7878 19 15.6213 18.816 16.3767 18.4818L12.3307 9.33686C12.8225 9.11929 13.3649 9 13.9233 9V19ZM2.07667 19H13.9233V9H2.07667V19ZM-4 12.9093C-4 16.2105 -1.34131 19 2.07667 19V9C4.30531 9 6 10.8122 6 12.9093H-4ZM-4 3.09067V12.9093H6V3.09067H-4ZM-3.5736 0.848688C-3.85061 1.54988 -4 2.30918 -4 3.09067H6C6 3.58611 5.90502 4.07215 5.72693 4.52295L-3.5736 0.848688ZM-0.376691 -2.48181C-1.84615 -1.83168 -2.98982 -0.629 -3.5736 0.848689L5.72693 4.52295C5.35346 5.46829 4.62128 6.24195 3.66929 6.66314L-0.376691 -2.48181ZM2.07667 -3C1.21217 -3 0.378676 -2.816 -0.376691 -2.48181L3.66929 6.66314C3.17752 6.88071 2.63514 7 2.07667 7V-3ZM13.9233 -3H2.07667V7H13.9233V-3ZM3.07667 -1.90933H2.07667V8.09067H3.07667V-1.90933ZM12.9233 -1.90933H3.07667V8.09067H12.9233V-1.90933ZM13.9233 -1.90933H12.9233V8.09067H13.9233V-1.90933ZM18.9233 4.09067V3.09067H8.92333V4.09067H18.9233ZM18.9233 4.818V4.09067H8.92333V4.818H18.9233ZM18.9233 5.818V4.818H8.92333V5.818H18.9233ZM12.9233 10.818H13.9233V0.818H12.9233V10.818ZM3.07667 10.818H12.9233V0.818H3.07667V10.818ZM2.07667 10.818H3.07667V0.818H2.07667V10.818ZM-2.92333 4.818V5.818H7.07667V4.818H-2.92333ZM-2.92333 4.09067V4.818H7.07667V4.09067H-2.92333ZM-2.92333 3.09067V4.09067H7.07667V3.09067H-2.92333ZM12.9233 17.9093H13.9233V7.90933H12.9233V17.9093ZM7.92333 17.9093H12.9233V7.90933H7.92333V17.9093ZM6.92333 17.9093H7.92333V7.90933H6.92333V17.9093ZM1.92333 11.9093V12.9093H11.9233V11.9093H1.92333ZM1.92333 7.90933V11.9093H11.9233V7.90933H1.92333ZM1.92333 6.90933V7.90933H11.9233V6.90933H1.92333ZM7.92333 1.90933H6.92333V11.9093H7.92333V1.90933ZM12.9233 1.90933H7.92333V11.9093H12.9233V1.90933ZM13.9233 1.90933H12.9233V11.9093H13.9233V1.90933ZM18.9233 7.90933V6.90933H8.92333V7.90933H18.9233ZM18.9233 11.9093V7.90933H8.92333V11.9093H18.9233ZM18.9233 12.9093V11.9093H8.92333V12.9093H18.9233Z" fill="#112D55" mask="url(#path-1-inside-1_18_8608)"/>
</g>
</g>
</svg>
