<svg xmlns="http://www.w3.org/2000/svg" xmlns:xlink="http://www.w3.org/1999/xlink" width="32" height="32" viewBox="0 0 32 32">
  <defs>
    <clipPath id="clip-path">
      <rect id="Rectangle_3640" data-name="Rectangle 3640" width="32" height="32" transform="translate(920 179)" fill="#112d55" stroke="#707070" stroke-width="1"/>
    </clipPath>
  </defs>
  <g id="Mask_Group_537" data-name="Mask Group 537" transform="translate(-920 -179)" clip-path="url(#clip-path)">
    <path id="check_1_" data-name="check (1)" d="M18.591,4.373a1.231,1.231,0,0,1,1.651-.55l13.128,6.564a1.231,1.231,0,0,1,.68,1.1,33.114,33.114,0,0,1-3.487,14.321c-2.291,4.528-5.791,8.481-10.534,9.836a1.23,1.23,0,0,1-.676,0c-4.743-1.355-8.243-5.308-10.534-9.836A33.114,33.114,0,0,1,5.333,11.487a1.231,1.231,0,0,1,.68-1.1L12.578,7.1a1.231,1.231,0,1,1,1.1,2.2L7.807,12.242A30.9,30.9,0,0,0,11.017,24.7c2.07,4.092,5.016,7.295,8.675,8.477,3.659-1.183,6.605-4.386,8.676-8.477a30.9,30.9,0,0,0,3.209-12.456L19.142,6.024a1.231,1.231,0,0,1-.55-1.651Zm7.715,10.347a1.231,1.231,0,0,1,0,1.741l-7.385,7.385a1.231,1.231,0,0,1-1.74,0l-2.462-2.462a1.231,1.231,0,0,1,1.741-1.74l1.591,1.591,6.514-6.514a1.231,1.231,0,0,1,1.74,0Z" transform="translate(916.308 175.308)" fill="#112d55" fill-rule="evenodd"/>
  </g>
</svg>
