<svg width="16" height="16" viewBox="0 0 16 16" fill="none" xmlns="http://www.w3.org/2000/svg">
<g id="Group 606">
<g id="Group 593">
<path id="Vector" fill-rule="evenodd" clip-rule="evenodd" d="M2.07692 4H13.9231C14.2087 4 14.4826 4.11346 14.6846 4.31542C14.8865 4.51739 15 4.79131 15 5.07692V11C15 11.2856 14.8865 11.5595 14.6846 11.7615C14.4826 11.9635 14.2087 12.0769 13.9231 12.0769H2.07692C1.79131 12.0769 1.51739 11.9635 1.31542 11.7615C1.11346 11.5595 1 11.2856 1 11V5.07692C1 4.79131 1.11346 4.51739 1.31542 4.31542C1.51739 4.11346 1.79131 4 2.07692 4Z" stroke="#112D55"/>
<g id="Vector_2">
<mask id="path-2-inside-1_18_8573" fill="white">
<path d="M6.94693 7.342L5.12891 9.34123C5.11274 9.35954 5.0929 9.37423 5.07067 9.38437C5.04844 9.3945 5.02433 9.39983 4.99991 9.40003C4.97559 9.39975 4.95159 9.39437 4.92947 9.38424C4.90736 9.37412 4.88761 9.35946 4.87151 9.34123L3.05348 7.3414C3.02773 7.31212 3.01044 7.27637 3.00346 7.238C2.99649 7.19963 3.00009 7.16008 3.01388 7.1236C3.02589 7.0883 3.04844 7.05752 3.07847 7.03542C3.10851 7.01332 3.1446 7.00096 3.18189 7H6.81793C6.89173 7 6.95834 7.0486 6.98594 7.1236C6.99981 7.16003 7.00351 7.19954 6.99664 7.23791C6.98977 7.27628 6.97259 7.31266 6.94693 7.342Z"/>
</mask>
<path d="M6.94693 7.342L7.68677 8.01479L7.69341 8.00749L7.69989 8.00007L6.94693 7.342ZM5.12891 9.34123L4.38907 8.66845L4.38422 8.67379L4.37944 8.6792L5.12891 9.34123ZM4.99991 9.40003L4.98834 10.4L4.99817 10.4001L5.008 10.4L4.99991 9.40003ZM4.87151 9.34123L5.62101 8.67923L5.61627 8.67386L5.61145 8.66856L4.87151 9.34123ZM3.05348 7.3414L2.30247 8.0017L2.30796 8.00793L2.31354 8.01408L3.05348 7.3414ZM3.01388 7.1236L3.94925 7.47728L3.9552 7.46155L3.96061 7.44564L3.01388 7.1236ZM3.18189 7V6H3.16905L3.15621 6.00033L3.18189 7ZM6.98594 7.1236L6.0474 7.46898L6.05141 7.4795L6.98594 7.1236ZM6.99664 7.23791L6.01229 7.06165L6.99664 7.23791ZM6.20709 6.66922L4.38907 8.66845L5.86875 10.014L7.68677 8.01479L6.20709 6.66922ZM4.37944 8.6792C4.4562 8.5923 4.5504 8.52253 4.65591 8.47443L5.48543 10.2943C5.63539 10.2259 5.76928 10.1268 5.87838 10.0033L4.37944 8.6792ZM4.65591 8.47443C4.76143 8.42634 4.87588 8.401 4.99182 8.40006L5.008 10.4C5.17279 10.3987 5.33546 10.3627 5.48543 10.2943L4.65591 8.47443ZM5.01148 8.4001C5.12696 8.40144 5.24086 8.42697 5.34584 8.47504L4.51311 10.2934C4.66232 10.3618 4.82421 10.3981 4.98834 10.4L5.01148 8.4001ZM5.34584 8.47504C5.45081 8.52311 5.54455 8.59267 5.62101 8.67923L4.12201 10.0032C4.23067 10.1263 4.36391 10.2251 4.51311 10.2934L5.34584 8.47504ZM5.61145 8.66856L3.79342 6.66873L2.31354 8.01408L4.13157 10.0139L5.61145 8.66856ZM3.80449 6.68111C3.89862 6.78817 3.96183 6.91884 3.98733 7.05911L2.01959 7.41688C2.05905 7.63389 2.15684 7.83606 2.30247 8.0017L3.80449 6.68111ZM3.98733 7.05911C4.01284 7.19938 3.99967 7.34394 3.94925 7.47728L2.07852 6.76993C2.00051 6.97622 1.98014 7.19987 2.01959 7.41688L3.98733 7.05911ZM3.96061 7.44564C3.90678 7.60389 3.80574 7.74184 3.67109 7.84091L2.48586 6.22993C2.29113 6.3732 2.14501 6.57271 2.06716 6.80156L3.96061 7.44564ZM3.67109 7.84091C3.53644 7.93997 3.37466 7.99538 3.20756 7.99967L3.15621 6.00033C2.91455 6.00654 2.68059 6.08667 2.48586 6.22993L3.67109 7.84091ZM3.18189 8H6.81793V6H3.18189V8ZM6.81793 8C6.43413 8 6.15083 7.74986 6.04746 7.46896L7.92441 6.77824C7.76584 6.34735 7.34934 6 6.81793 6V8ZM6.05141 7.4795C6.0007 7.34635 5.98718 7.20191 6.01229 7.06165L7.98098 7.41417C8.01984 7.19718 7.99891 6.97371 7.92046 6.7677L6.05141 7.4795ZM6.01229 7.06165C6.03659 6.92596 6.0972 6.79467 6.19397 6.68394L7.69989 8.00007C7.84797 7.83064 7.94294 7.6266 7.98098 7.41417L6.01229 7.06165Z" fill="#112D55" mask="url(#path-2-inside-1_18_8573)"/>
</g>
</g>
</g>
</svg>
