<svg width="16" height="16" viewBox="0 0 16 16" fill="none" xmlns="http://www.w3.org/2000/svg">
<path fill-rule="evenodd" clip-rule="evenodd" d="M0 1.71429C0 0.767512 0.767512 0 1.71429 0H11.619C12.5659 0 13.3333 0.76752 13.3333 1.71429V11.619C13.3333 12.5659 12.5659 13.3333 11.619 13.3333H1.71429C0.76752 13.3333 0 12.5659 0 11.619V1.71429ZM1.71429 1.14286C1.3987 1.14286 1.14286 1.3987 1.14286 1.71429V11.619C1.14286 11.9346 1.39869 12.1905 1.71429 12.1905H11.619C11.9346 12.1905 12.1905 11.9346 12.1905 11.619V1.71429C12.1905 1.39869 11.9346 1.14286 11.619 1.14286H1.71429Z" fill="#262626"/>
<path fill-rule="evenodd" clip-rule="evenodd" d="M15.428 3.04883C15.7435 3.04883 15.9994 3.30466 15.9994 3.62026V14.6671C15.9994 15.4035 15.4024 16.0005 14.666 16.0005H3.61977C3.30418 16.0005 3.04834 15.7446 3.04834 15.429C3.04834 15.1135 3.30418 14.8576 3.61977 14.8576H14.666C14.7712 14.8576 14.8565 14.7723 14.8565 14.6671V3.62026C14.8565 3.30466 15.1124 3.04883 15.428 3.04883Z" fill="#262626"/>
<path fill-rule="evenodd" clip-rule="evenodd" d="M10.1125 4.24559C10.3388 4.46552 10.3441 4.82729 10.1241 5.05363L6.31443 8.97426C6.09868 9.19635 5.74531 9.20618 5.51754 8.99643L3.23194 6.89159C2.9998 6.6778 2.98491 6.31635 3.19869 6.08417C3.41248 5.85202 3.77398 5.83713 4.00613 6.05092L5.8825 7.77883L9.30444 4.2572C9.52441 4.03086 9.88616 4.02566 10.1125 4.24559Z" fill="#262626"/>
</svg>
