<svg width="120" height="60" viewBox="0 0 120 60" fill="none" xmlns="http://www.w3.org/2000/svg">
<path d="M91.5748 21.2242C91.6498 21.2992 91.7998 21.2992 91.8748 21.2992C93.1498 21.6742 94.1248 22.7992 94.1248 24.1492C94.1248 24.5242 93.8998 24.8242 93.5248 24.9742C92.4748 25.2742 91.3498 25.6492 90.2998 25.9492C90.0748 26.0242 89.9998 26.0992 90.0748 26.3242C90.0748 26.3992 90.0748 26.3992 90.0748 26.4742C90.0748 26.9242 90.0748 26.9242 90.4498 26.9992C91.4248 27.2992 92.3998 27.5992 93.3748 27.8992C94.1998 28.1242 94.2748 28.4992 94.1248 29.1742C93.8998 30.5992 92.6248 31.7242 91.1998 31.7242C88.9498 31.7242 86.6998 31.7242 84.3748 31.7242C82.7248 31.7242 81.4498 30.4492 81.3748 28.7992C81.3748 28.3492 81.5248 28.1242 81.9748 27.9742C83.0998 27.5992 84.2248 27.2992 85.3498 26.9242C85.4998 26.8492 85.5748 26.7742 85.5748 26.6242C85.5748 26.5492 85.5748 26.4742 85.5748 26.3992C85.5748 25.9492 85.5748 25.9492 85.1998 25.8742C84.1498 25.5742 83.1748 25.2742 82.1248 24.8992C81.6748 24.7492 81.4498 24.5242 81.5248 23.9992C81.5998 22.6492 82.5748 21.4492 83.9248 21.1492C83.9998 21.1492 83.9998 21.1492 84.0748 21.0742C86.3998 21.2242 88.9498 21.2242 91.5748 21.2242ZM85.7248 30.2242C86.2498 30.2242 86.7748 30.2242 87.2248 30.2242C87.3748 30.2242 87.4498 30.2242 87.4498 30.0742C87.4498 29.6992 87.4498 29.3242 87.4498 28.9492C87.4498 28.7992 87.3748 28.7242 87.2998 28.7242C86.6248 28.5742 86.0998 28.1992 85.7248 27.5992C85.6498 27.4492 85.5748 27.4492 85.4248 27.5242C84.7498 27.7492 83.9998 27.9742 83.3248 28.1992C82.8748 28.3492 82.8748 28.3492 82.8748 28.7992C82.8748 29.6242 83.5498 30.2992 84.3748 30.2992C84.8248 30.2242 85.2748 30.2242 85.7248 30.2242ZM89.6248 30.2242C90.0748 30.2242 90.5998 30.2242 91.0498 30.2242C91.3498 30.2242 91.6498 30.1492 91.9498 29.9242C92.4748 29.5492 92.6248 28.9492 92.5498 28.3492C92.5498 28.2742 92.4748 28.2742 92.3998 28.1992C91.5748 27.9742 90.7498 27.6742 89.9248 27.4492C89.7748 27.3742 89.7748 27.4492 89.6998 27.5242C89.3248 28.1242 88.7998 28.5742 88.1248 28.7242C87.9748 28.7242 87.9748 28.7992 87.9748 28.9492C87.9748 29.3242 87.9748 29.6992 87.9748 30.0742C87.9748 30.2242 88.0498 30.2242 88.1248 30.2242C88.6498 30.2242 89.1748 30.2242 89.6248 30.2242ZM85.7248 22.7242C85.2748 22.7242 84.7498 22.7242 84.2998 22.7242C83.9998 22.7242 83.6998 22.7992 83.4748 22.9492C82.9498 23.3242 82.6498 23.9992 82.7998 24.5992C82.7998 24.6742 82.8748 24.6742 82.9498 24.7492C83.7748 24.9742 84.5998 25.2742 85.4248 25.4992C85.4998 25.4992 85.5748 25.4992 85.6498 25.4242C86.0248 24.7492 86.5498 24.3742 87.2248 24.2242C87.3748 24.2242 87.3748 24.1492 87.3748 24.0742C87.3748 23.6992 87.3748 23.3242 87.3748 22.9492C87.3748 22.7992 87.2998 22.7242 87.1498 22.7242C86.6998 22.7242 86.2498 22.7242 85.7248 22.7242ZM89.6998 22.7242C89.1748 22.7242 88.7248 22.7242 88.1998 22.7242C88.0498 22.7242 87.9748 22.7992 87.9748 22.9492C87.9748 23.3242 87.9748 23.6242 87.9748 23.9992C87.9748 24.1492 88.0498 24.2242 88.1998 24.2992C88.8748 24.4492 89.3998 24.8242 89.6998 25.4242C89.7748 25.5742 89.8498 25.5742 89.9998 25.4992C90.7498 25.2742 91.4248 25.0492 92.1748 24.8242C92.5498 24.6742 92.5498 24.6742 92.5498 24.2992C92.5498 23.3992 91.8748 22.7242 90.9748 22.7242C90.5998 22.7242 90.1498 22.7242 89.6998 22.7242ZM87.6748 28.1992C88.6498 28.1992 89.3998 27.4492 89.3998 26.4742C89.3998 25.4992 88.6498 24.7492 87.6748 24.6742C86.6998 24.6742 85.9498 25.4242 85.9498 26.3992C85.9498 27.4492 86.6998 28.1992 87.6748 28.1992Z" fill="#F7982B"/>
<path d="M112.575 31.1984C112.5 31.2734 112.5 31.3484 112.425 31.4234C112.125 31.7984 111.6 31.8734 111.225 31.4984C110.25 30.5234 109.275 29.5484 108.3 28.5734C107.925 28.1984 107.475 27.7484 107.1 27.3734C107.025 27.2984 106.875 27.2234 106.8 27.2234C105.075 27.2234 103.275 27.2234 101.55 27.2234C101.4 27.2234 101.325 27.2984 101.325 27.4484C101.325 28.6484 101.325 29.7734 101.325 30.9734C101.325 31.3484 101.1 31.6484 100.65 31.7234C100.35 31.7984 99.975 31.5734 99.825 31.1984C99.75 31.0484 99.75 30.8984 99.75 30.7484C99.75 29.3234 99.75 27.9734 99.75 26.5484C99.75 25.8734 100.05 25.6484 100.65 25.6484C102.825 25.6484 105 25.6484 107.1 25.6484C107.4 25.6484 107.625 25.7234 107.85 25.9484C109.275 27.3734 110.7 28.7984 112.125 30.2234C112.275 30.3734 112.35 30.5234 112.425 30.6734C112.575 30.8984 112.575 31.0484 112.575 31.1984Z" fill="#252525"/>
<path d="M45.3748 21.2246C46.2748 21.8246 47.0998 22.5746 47.9248 23.2496C50.9248 25.6496 53.8498 27.9746 56.8498 30.3746C57.1498 30.5996 57.2248 30.8996 57.1498 31.1996C57.0748 31.4996 56.8498 31.7246 56.5498 31.7246C56.3248 31.7996 56.0998 31.6496 55.8748 31.4996C54.2248 30.1496 52.5748 28.8746 50.9248 27.5246C48.8998 25.8746 46.8748 24.2996 44.8498 22.6496C44.2498 22.1246 44.2498 21.5996 44.9998 21.2246C45.0748 21.2246 45.2248 21.2246 45.3748 21.2246Z" fill="#252525"/>
<path d="M38.1749 21.2246C38.1749 21.2996 38.3249 21.2996 38.3999 21.3746C38.6249 21.5996 38.7749 21.8246 38.6999 22.1246C38.6249 22.4246 38.3999 22.6496 38.0999 22.7246C38.0249 22.7246 37.8749 22.7246 37.7999 22.7246C34.8749 22.7246 32.0249 22.7246 29.0999 22.7246C28.1249 22.7246 27.5249 23.2496 27.4499 24.2996C27.4499 24.6746 27.0749 25.0496 26.6999 24.9746C26.3249 24.9746 25.9499 24.6746 25.9499 24.2246C25.8749 22.9496 26.8499 21.6746 28.1249 21.2996C28.1999 21.2996 28.3499 21.2996 28.4249 21.2246C31.6499 21.2246 34.9499 21.2246 38.1749 21.2246Z" fill="#252525"/>
<path d="M75.15 21.2246C75.15 21.2996 75.225 21.2996 75.3 21.2996C75.6 21.4496 75.675 21.8246 75.6 22.1246C75.525 22.4246 75.3 22.6496 74.925 22.7246C74.85 22.7246 74.775 22.7246 74.625 22.7246C71.7 22.7246 68.85 22.7246 65.925 22.7246C64.95 22.7246 64.35 23.2496 64.275 24.2246C64.275 24.6746 63.9 24.9746 63.525 24.9746C63.075 24.9746 62.775 24.6746 62.775 24.2246C62.7 22.8746 63.825 21.5246 65.25 21.2996C65.325 21.2996 65.325 21.2996 65.4 21.2246C68.7 21.2246 71.925 21.2246 75.15 21.2246Z" fill="#252525"/>
<path d="M19.7248 21.2234C20.0248 21.3734 20.2498 21.5984 20.2498 21.9734C20.2498 22.3484 20.0248 22.6484 19.5748 22.7234C19.4998 22.7234 19.4248 22.7234 19.2748 22.7234C16.3498 22.7234 13.4248 22.7234 10.5748 22.7234C9.59981 22.7234 8.9248 23.4734 8.9248 24.2234C8.9248 24.6734 8.5498 24.9734 8.1748 24.9734C7.7248 24.9734 7.4248 24.6734 7.4248 24.1484C7.4248 22.7234 8.4748 21.4484 9.8998 21.2234C9.8998 21.2234 9.97481 21.2234 9.97481 21.1484C13.2748 21.2234 16.4998 21.2234 19.7248 21.2234Z" fill="#252525"/>
<path d="M112.575 24.5238C112.425 24.7488 112.2 24.9738 111.9 25.0488C111.45 25.0488 111.075 24.8238 111.075 24.3738C111.075 23.9238 110.925 23.4738 110.55 23.1738C110.25 22.8738 109.875 22.7988 109.5 22.7988C106.575 22.7988 103.65 22.7988 100.725 22.7988C100.125 22.7988 99.825 22.4238 99.9 21.8988C99.975 21.5988 100.2 21.4488 100.425 21.2988C103.65 21.2988 106.875 21.2988 110.1 21.2988C110.1 21.2988 110.1 21.3738 110.175 21.3738C111.3 21.5988 112.05 22.1988 112.5 23.2488C112.575 23.4738 112.65 23.6988 112.725 23.8488C112.575 24.0738 112.575 24.2988 112.575 24.5238Z" fill="#252525"/>
<path d="M56.6249 21.2246C56.9999 21.4496 57.1499 21.7496 57.1499 22.1996C57.1499 23.6246 57.1499 24.9746 57.1499 26.3996C57.1499 26.9246 56.8499 27.2246 56.3999 27.2246C55.9499 27.2246 55.6499 26.9246 55.6499 26.3996C55.6499 24.9746 55.6499 23.5496 55.6499 22.1246C55.6499 21.6746 55.7999 21.3746 56.1749 21.2246C56.3249 21.2246 56.4749 21.2246 56.6249 21.2246Z" fill="#252525"/>
<path d="M112.575 38.7738C112.2 38.8488 111.9 38.6988 111.6 38.3988C110.85 37.6488 110.1 36.9738 109.425 36.2988C109.35 36.2238 109.35 36.2238 109.275 36.1488C109.2 36.2238 109.275 36.2988 109.275 36.3738C109.275 37.1238 109.275 37.7988 109.275 38.5488C109.275 38.6988 109.275 38.7738 109.05 38.7738C108.6 38.7738 108.6 38.7738 108.6 38.3238C108.6 37.3488 108.6 36.4488 108.6 35.4738C108.6 35.3238 108.675 35.2488 108.825 35.2488C109.125 35.2488 109.275 35.3238 109.5 35.4738C110.325 36.2238 111.15 37.0488 111.975 37.7988C112.05 37.7238 111.975 37.6488 111.975 37.5738C111.975 36.8238 111.975 36.1488 111.975 35.3988C111.975 35.2488 112.05 35.1738 112.2 35.1738C112.35 35.1738 112.5 35.1738 112.65 35.1738C112.575 36.3738 112.575 37.5738 112.575 38.7738Z" fill="#252525"/>
<path d="M68.1745 31.7246C66.6745 31.7246 65.1745 31.7246 63.6745 31.7246C63.2995 31.7246 62.9995 31.4996 62.9245 31.1996C62.8495 30.8996 62.9245 30.5246 63.2245 30.3746C63.3745 30.2246 63.5995 30.2246 63.8245 30.2246C66.7495 30.2246 69.7495 30.2246 72.6745 30.2246C73.3495 30.2246 73.9495 29.7746 74.0995 29.1746C74.3245 28.2746 73.7245 27.2246 72.5245 27.2996C70.5745 27.2996 68.6245 27.2996 66.7495 27.2996C66.3745 27.2996 66.0745 27.1496 65.9995 26.7746C65.8495 26.2496 66.1495 25.7246 66.6745 25.7246C67.4995 25.7246 68.3245 25.7246 69.1495 25.7246C70.2745 25.7246 71.4745 25.7246 72.5995 25.7246C74.1745 25.7246 75.4495 26.8496 75.5995 28.4246C75.7495 29.9246 74.6995 31.3496 73.1995 31.6496C72.9745 31.7246 72.7495 31.7246 72.5245 31.7246C71.0995 31.7996 69.5995 31.7246 68.1745 31.7246Z" fill="#252525"/>
<path d="M12.7498 31.7246C11.2498 31.7246 9.7498 31.7246 8.2498 31.7246C7.7248 31.7246 7.4248 31.4246 7.4248 30.9746C7.4248 30.5996 7.72481 30.2246 8.09981 30.2246C8.17481 30.2246 8.24981 30.2246 8.32481 30.2246C11.2498 30.2246 14.1748 30.2246 17.0998 30.2246C17.9248 30.2246 18.5998 29.6246 18.6748 28.7246C18.6748 27.9746 18.0748 27.2996 17.2498 27.2246C16.7998 27.2246 16.2748 27.2246 15.8248 27.2246C14.2498 27.2246 12.7498 27.2246 11.1748 27.2246C10.6498 27.2246 10.2748 26.7746 10.4248 26.2496C10.4998 25.9496 10.7998 25.7246 11.0998 25.7246C13.1998 25.7246 15.2248 25.7246 17.3248 25.7246C18.7498 25.7246 20.0248 26.9996 20.1748 28.4246C20.3248 29.9996 19.3498 31.3496 17.9248 31.6496C17.6248 31.7246 17.3998 31.7246 17.0998 31.7246C15.6748 31.7246 14.1748 31.7246 12.7498 31.7246Z" fill="#252525"/>
<path d="M33.375 31.7246C31.875 31.7246 30.45 31.7246 28.95 31.7246C27.6 31.7246 26.4 30.8246 26.025 29.4746C25.95 29.1746 25.875 28.8746 25.95 28.6496C25.95 28.2746 26.325 27.9746 26.7 27.9746C27.075 27.9746 27.45 28.2746 27.45 28.7246C27.525 29.6996 28.125 30.2246 29.025 30.2246C31.95 30.2246 34.875 30.2246 37.8 30.2246C38.175 30.2246 38.4 30.2996 38.625 30.6746C38.925 31.1996 38.55 31.7996 37.875 31.7996C36.675 31.7996 35.475 31.7996 34.35 31.7996C33.975 31.7246 33.675 31.7246 33.375 31.7246Z" fill="#252525"/>
<path d="M32.625 25.7246C33.6 25.7246 34.575 25.7246 35.55 25.7246C36.075 25.7246 36.375 26.0246 36.375 26.4746C36.375 26.9246 36.075 27.2246 35.55 27.2246C33.6 27.2246 31.65 27.2246 29.7 27.2246C29.175 27.2246 28.875 26.9246 28.875 26.4746C28.875 26.0246 29.175 25.7246 29.7 25.7246C30.75 25.7246 31.65 25.7246 32.625 25.7246Z" fill="#252525"/>
<path d="M45.8999 28.7246C45.8999 29.4746 45.8999 30.1496 45.8999 30.8996C45.8999 31.4246 45.5999 31.7246 45.1499 31.7246C44.6999 31.7246 44.3999 31.3496 44.3999 30.8996C44.3999 29.4746 44.3999 27.9746 44.3999 26.5496C44.3999 26.0246 44.6999 25.7246 45.1499 25.7246C45.5999 25.7246 45.8999 26.0246 45.8999 26.5496C45.8999 27.2996 45.8999 28.0496 45.8999 28.7246Z" fill="#252525"/>
<path d="M42.9748 38.7742C42.5998 38.7742 42.1498 38.7742 41.7748 38.7742C41.3248 38.7742 41.0248 38.5492 41.0248 38.0992C40.9498 37.4242 40.9498 36.6742 41.0248 35.9992C41.0998 35.5492 41.3248 35.3242 41.8498 35.3242C42.2998 35.3242 42.7498 35.3242 43.1248 35.3242C43.4998 35.3242 43.7998 35.3242 44.1748 35.3242C44.7748 35.3242 45.0748 35.6242 45.0748 36.2242C45.0748 36.8242 45.0748 37.4242 45.0748 37.9492C45.0748 38.5492 44.7748 38.7742 44.1748 38.7742C43.7248 38.7742 43.3498 38.7742 42.9748 38.7742ZM42.9748 38.1742C43.2748 38.1742 43.5748 38.1742 43.9498 38.1742C44.2498 38.1742 44.3998 38.0242 44.3998 37.7992C44.3998 37.2742 44.3998 36.7492 44.3998 36.2242C44.3998 35.9242 44.2498 35.8492 43.9498 35.7742C43.3498 35.7742 42.6748 35.7742 42.0748 35.7742C41.7748 35.7742 41.6998 35.9242 41.6998 36.1492C41.6998 36.6742 41.6998 37.1992 41.6998 37.7242C41.6998 38.0242 41.8498 38.0992 42.1498 38.0992C42.3748 38.1742 42.6748 38.1742 42.9748 38.1742Z" fill="#252525"/>
<path d="M98.2499 38.775C97.8749 38.775 97.4249 38.775 97.0499 38.775C96.5999 38.775 96.2999 38.55 96.2999 38.1C96.2249 37.35 96.2249 36.675 96.2999 35.925C96.3749 35.475 96.5999 35.325 97.0499 35.25C97.9499 35.25 98.7749 35.25 99.6749 35.25C100.125 35.25 100.35 35.475 100.425 35.925C100.5 36.6 100.5 37.275 100.425 37.95C100.35 38.475 100.125 38.7 99.5999 38.7C99.0749 38.775 98.6999 38.775 98.2499 38.775ZM98.2499 38.175C98.5499 38.175 98.8499 38.175 99.2249 38.175C99.5249 38.175 99.6749 38.025 99.6749 37.725C99.6749 37.2 99.6749 36.75 99.6749 36.225C99.6749 35.925 99.5249 35.775 99.2249 35.775C98.6249 35.775 97.9499 35.775 97.3499 35.775C97.0499 35.775 96.9749 35.925 96.9749 36.225C96.9749 36.75 96.9749 37.275 96.9749 37.725C96.9749 38.025 97.1249 38.175 97.4249 38.175C97.6499 38.175 97.9499 38.175 98.2499 38.175Z" fill="#252525"/>
<path d="M17.0998 36.15C17.0998 36.975 17.0998 37.8 17.0998 38.55C17.0998 38.7 17.0248 38.775 16.8748 38.775C16.4248 38.775 16.4248 38.775 16.4248 38.325C16.4248 37.425 16.4248 36.45 16.4248 35.55C16.4248 35.325 16.4248 35.25 16.7248 35.25C16.9498 35.25 17.0998 35.325 17.2498 35.475C17.9998 36.225 18.8248 36.975 19.6498 37.65C19.7248 37.725 19.7248 37.725 19.7998 37.8C19.8748 37.725 19.8748 37.65 19.8748 37.65C19.8748 36.9 19.8748 36.225 19.8748 35.475C19.8748 35.325 19.8748 35.25 20.0998 35.25C20.5498 35.25 20.5498 35.25 20.5498 35.7C20.5498 36.675 20.5498 37.575 20.5498 38.55C20.5498 38.7 20.5498 38.775 20.3248 38.775C20.0248 38.775 19.8748 38.7 19.6498 38.475C18.7498 37.725 17.9248 36.9 17.0998 36.15Z" fill="#252525"/>
<path d="M29.3249 36.15C29.3249 36.975 29.3249 37.8 29.3249 38.55C29.3249 38.7 29.2499 38.775 29.0999 38.775C28.6499 38.775 28.6499 38.775 28.6499 38.325C28.6499 37.35 28.6499 36.45 28.6499 35.475C28.6499 35.325 28.7249 35.25 28.8749 35.25C29.0999 35.25 29.3249 35.325 29.4749 35.475C30.2999 36.225 31.1249 37.05 31.9499 37.8C32.0249 37.725 32.0249 37.65 32.0249 37.65C32.0249 36.9 32.0249 36.225 32.0249 35.475C32.0249 35.325 32.0999 35.25 32.2499 35.25C32.6999 35.25 32.6999 35.25 32.6999 35.7C32.6999 36.675 32.6999 37.575 32.6999 38.55C32.6999 38.7 32.6249 38.775 32.4749 38.775C32.2499 38.775 32.0249 38.7 31.8749 38.55C31.0499 37.8 30.2249 37.05 29.4749 36.3C29.4749 36.225 29.3999 36.15 29.3249 36.15Z" fill="#252525"/>
<path d="M64.1248 38.6992C64.4998 38.0242 64.8748 37.3492 65.2498 36.6742C65.4748 36.2992 65.6998 35.9242 65.9248 35.4742C65.9998 35.3242 66.0748 35.2492 66.2998 35.2492C66.6748 35.1742 66.8998 35.3242 67.0498 35.6992C67.5748 36.6742 68.0998 37.6492 68.6248 38.5492C68.6248 38.6242 68.6998 38.6242 68.6998 38.6992C68.4748 38.6992 68.2498 38.6992 68.0248 38.6992C67.9498 38.6992 67.8748 38.6242 67.8748 38.5492C67.7248 38.0992 67.4248 37.9492 66.8998 37.9492C66.3748 38.0242 65.9248 37.9492 65.3998 37.9492C65.2498 37.9492 65.1748 37.9492 65.1748 38.0992C65.1748 38.0992 65.1748 38.0992 65.1748 38.1742C64.9498 38.6992 64.6498 38.8492 64.1248 38.6992ZM67.2748 37.4242C66.9748 36.8242 66.6748 36.2992 66.3748 35.7742C66.0748 36.3742 65.7748 36.8992 65.4748 37.4242C66.0748 37.4242 66.6748 37.4242 67.2748 37.4242Z" fill="#252525"/>
<path d="M52.9497 35.325C53.4747 35.175 53.7747 35.4 53.9997 35.85C54.2997 36.525 54.6747 37.2 55.0497 37.875C55.1247 37.95 55.1247 38.025 55.1997 38.1C55.6497 37.275 56.0997 36.45 56.5497 35.55C56.6247 35.325 56.7747 35.25 56.9997 35.25C57.1497 35.25 57.2247 35.25 57.3747 35.25C57.4497 35.325 57.3747 35.4 57.3747 35.4C56.7747 36.45 56.1747 37.5 55.6497 38.55C55.5747 38.7 55.4997 38.7 55.3497 38.7C55.1997 38.625 54.9747 38.775 54.8247 38.625C54.1497 37.575 53.5497 36.45 52.9497 35.325Z" fill="#252525"/>
<path d="M77.4 35.25C78 35.25 78.525 35.25 79.125 35.25C79.35 35.25 79.35 35.325 79.35 35.475C79.35 35.55 79.35 35.55 79.35 35.625C79.35 35.775 79.35 35.85 79.125 35.85C78.75 35.85 78.3 35.85 77.925 35.85C77.775 35.85 77.7 35.925 77.7 36.075C77.7 36.9 77.7 37.725 77.7 38.55C77.7 38.775 77.625 38.775 77.475 38.775C77.025 38.775 77.025 38.775 77.025 38.325C77.025 37.575 77.025 36.825 77.025 36.075C77.025 35.925 76.95 35.85 76.8 35.85C76.425 35.85 75.975 35.85 75.6 35.85C75.45 35.85 75.375 35.85 75.375 35.7C75.375 35.325 75.375 35.325 75.75 35.325C76.35 35.25 76.875 35.25 77.4 35.25Z" fill="#252525"/>
<path d="M7.4248 36.975C7.4248 36.45 7.4248 35.925 7.4248 35.4C7.4248 35.25 7.42481 35.25 7.57481 35.25C8.09981 35.25 8.09981 35.25 8.09981 35.775C8.09981 36.675 8.09981 37.65 8.09981 38.55C8.09981 38.7 8.0998 38.775 7.8748 38.775C7.4248 38.775 7.4248 38.775 7.4248 38.325C7.4248 37.875 7.4248 37.425 7.4248 36.975Z" fill="#252525"/>
<path d="M87.375 36.975C87.375 36.45 87.375 36 87.375 35.475C87.375 35.25 87.45 35.25 87.6 35.25C88.05 35.25 88.05 35.25 88.05 35.7C88.05 36.6 88.05 37.575 88.05 38.475C88.05 38.625 88.05 38.7 87.825 38.7C87.375 38.7 87.375 38.7 87.375 38.25C87.375 37.875 87.375 37.425 87.375 36.975Z" fill="#252525"/>
<path d="M67.2746 37.4234C66.6746 37.4234 66.0746 37.4234 65.4746 37.4234C65.7746 36.8984 66.0746 36.2984 66.3746 35.7734C66.6746 36.3734 66.9746 36.8984 67.2746 37.4234Z" fill="#FEFEFE"/>
</svg>
