<svg width="32" height="32" viewBox="0 0 32 32" fill="none" xmlns="http://www.w3.org/2000/svg">
<path d="M23.7417 31.4864H8.25781C8.25781 30.9186 8.49007 30.4025 8.86168 30.0257C9.23846 29.6541 9.75459 29.4219 10.3223 29.4219H11.3546H20.6449H21.6772C22.8178 29.4219 23.7417 30.3457 23.7417 31.4864Z" fill="#8BC6F8"/>
<path d="M11.3545 26.3203H20.6448V29.4182H11.3545V26.3203Z" fill="#8BC6F8"/>
<path d="M29.4193 22.1875V24.2528C29.4193 25.3939 28.4954 26.3181 27.3548 26.3181H20.6451H11.3548H4.64508C3.50444 26.3181 2.58057 25.3939 2.58057 24.2528V22.1875H29.4193Z" fill="#E7F3FF"/>
<path d="M4.64508 7.74219H27.3548C28.4949 7.74219 29.4193 8.66692 29.4193 9.80747V22.1992H2.58057V9.80747C2.58057 8.66692 3.50495 7.74219 4.64508 7.74219Z" fill="white"/>
<path d="M24.2583 7.73379V7.74411C24.2583 8.31723 23.7938 8.77675 23.2261 8.77675H18.0648L15.1693 10.6975C15.0351 10.7852 14.8854 10.8317 14.7306 10.8317C14.2919 10.8317 13.9357 10.4754 13.9357 10.0366V8.77675H8.77445C8.2067 8.77675 7.74219 8.31723 7.74219 7.74411V7.73379V1.54827C7.74219 0.980313 8.2067 0.515625 8.77445 0.515625H23.2261C23.7938 0.515625 24.2583 0.980313 24.2583 1.54827V7.73379Z" fill="#E7F3FF"/>
<path d="M31.4836 11.8672V20.1283H29.4191H25.29V16.5141V11.8672H29.4191H31.4836Z" fill="#FFAF5D"/>
<path d="M21.1612 16.5035V20.1177H19.0967V13.9219H21.1612V16.5035Z" fill="#FF6677"/>
<path d="M14.9678 12.8906H17.0323V20.1191H14.9678V12.8906Z" fill="#FF6677"/>
<path d="M12.9029 14.9609V20.1241H10.8384V16.5099V14.9609H12.9029Z" fill="#FF6677"/>
<path d="M4.12902 12.8906C6.12644 12.8906 7.74192 14.5067 7.74192 16.5049C7.74192 18.503 6.12644 20.1191 4.12902 20.1191C3.57676 20.1191 3.05031 19.9952 2.58579 19.7732C1.36257 19.1949 0.516113 17.9506 0.516113 16.5049C0.516113 15.0592 1.3574 13.82 2.58063 13.2417C3.05031 13.0145 3.5716 12.8906 4.12902 12.8906Z" fill="#FFDB4E"/>
<path d="M4.12895 18.0589C4.9841 18.0589 5.67734 17.3654 5.67734 16.5099C5.67734 15.6544 4.9841 14.9609 4.12895 14.9609C3.2738 14.9609 2.58057 15.6544 2.58057 16.5099C2.58057 17.3654 3.2738 18.0589 4.12895 18.0589Z" fill="#FFEAA7"/>
<path d="M11.8712 6.19306H10.8389C10.554 6.19306 10.3228 5.96124 10.3228 5.67674H9.29053C9.29053 6.53074 9.98524 7.22571 10.8389 7.22571H11.8712C12.7248 7.22571 13.4196 6.53074 13.4196 5.67674C13.4196 4.82275 12.7248 4.12778 11.8712 4.12778H10.8389C10.554 4.12778 10.3228 3.89595 10.3228 3.61146C10.3228 3.32697 10.554 3.09514 10.8389 3.09514H11.8712C12.1561 3.09514 12.3873 3.32697 12.3873 3.61146H13.4196C13.4196 2.75747 12.7248 2.0625 11.8712 2.0625H10.8389C9.98524 2.0625 9.29053 2.75747 9.29053 3.61146C9.29053 4.46546 9.98524 5.16042 10.8389 5.16042H11.8712C12.1561 5.16042 12.3873 5.39225 12.3873 5.67674C12.3873 5.96124 12.1561 6.19306 11.8712 6.19306Z" fill="black"/>
<path d="M16 7.22571H17.5484V6.19306H16C15.7151 6.19306 15.4839 5.96124 15.4839 5.67674V5.16042H17.5484V4.12778H15.4839V3.61146C15.4839 3.32697 15.7151 3.09514 16 3.09514H17.5484V2.0625H16C15.1464 2.0625 14.4517 2.75747 14.4517 3.61146V5.67674C14.4517 6.53074 15.1464 7.22571 16 7.22571Z" fill="black"/>
<path d="M20.129 7.22571H21.1612C22.0149 7.22571 22.7096 6.53074 22.7096 5.67674V3.61146C22.7096 2.75747 22.0149 2.0625 21.1612 2.0625H20.129C19.2753 2.0625 18.5806 2.75747 18.5806 3.61146V5.67674C18.5806 6.53074 19.2753 7.22571 20.129 7.22571ZM19.6128 3.61146C19.6128 3.32697 19.8441 3.09514 20.129 3.09514H21.1612C21.4461 3.09514 21.6773 3.32697 21.6773 3.61146V5.67674C21.6773 5.96124 21.4461 6.19306 21.1612 6.19306H20.129C19.8441 6.19306 19.6128 5.96124 19.6128 5.67674V3.61146Z" fill="black"/>
<path d="M32 11.3472H29.9355V9.79822C29.9355 8.37472 28.7778 7.21661 27.3548 7.21661H24.7742V1.54896C24.7742 0.694967 24.0795 0 23.2258 0H8.77419C7.92052 0 7.22581 0.694967 7.22581 1.54896V7.21661H4.64516C3.22219 7.21661 2.06452 8.37472 2.06452 9.79822V12.9385C0.832516 13.6541 0 14.9857 0 16.5104C0 18.0351 0.832516 19.3667 2.06452 20.0823V24.2552C2.06452 25.6787 3.22219 26.8368 4.64516 26.8368H10.8387V28.9021H10.3226C8.89961 28.9021 7.74194 30.0602 7.74194 31.4837V32H24.2581V31.4837C24.2581 30.0602 23.1004 28.9021 21.6774 28.9021H21.1613V26.8368H27.3548C28.7778 26.8368 29.9355 25.6787 29.9355 24.2552V20.6409H32V11.3472ZM8.25806 1.54896C8.25806 1.26447 8.48929 1.03264 8.77419 1.03264H23.2258C23.5107 1.03264 23.7419 1.26447 23.7419 1.54896V7.74481C23.7419 8.0293 23.5107 8.26113 23.2258 8.26113H17.9086L14.8815 10.2686C14.7097 10.3842 14.4516 10.2448 14.4516 10.0373V8.26113H8.77419C8.48929 8.26113 8.25806 8.0293 8.25806 7.74481V1.54896ZM3.09677 9.79822C3.09677 8.94422 3.79148 8.24925 4.64516 8.24925H7.31716C7.52774 8.8549 8.09755 9.29377 8.77419 9.29377H13.4194V10.0373C13.4194 10.7596 14.0067 11.3472 14.7288 11.3472C14.9868 11.3472 15.2366 11.2718 15.4519 11.1293L18.2199 9.29377H23.2258C23.9019 9.29377 24.4723 8.8549 24.6828 8.24925H27.3548C28.2085 8.24925 28.9032 8.94422 28.9032 9.79822V11.3472H24.7742V15.9941H21.6774V13.4125H18.5806V19.6083H17.5484V12.3798H14.4516V19.6083H13.4194V14.4451H10.3226V15.9941H8.22245C7.96697 13.9598 6.23071 12.3798 4.12903 12.3798C3.77187 12.3798 3.42761 12.4299 3.09677 12.5156V9.79822ZM19.6129 19.6083V14.4451H20.6452V19.6083H19.6129ZM16.5161 19.6083H15.4839V13.4125H16.5161V19.6083ZM12.3871 19.6083H11.3548V15.4777H12.3871V19.6083ZM1.03226 16.5104C1.03226 14.8019 2.42116 13.4125 4.12903 13.4125C5.8369 13.4125 7.22581 14.8019 7.22581 16.5104C7.22581 18.2189 5.8369 19.6083 4.12903 19.6083C2.42116 19.6083 1.03226 18.2189 1.03226 16.5104ZM23.1375 30.9674H8.86245C9.07561 30.3664 9.64955 29.9347 10.3226 29.9347H21.6774C22.3505 29.9347 22.9244 30.3664 23.1375 30.9674ZM20.129 28.9021H11.871V26.8368H20.129V28.9021ZM27.3548 25.8042H4.64516C3.79148 25.8042 3.09677 25.1092 3.09677 24.2552V22.7062H28.9032V24.2552C28.9032 25.1092 28.2085 25.8042 27.3548 25.8042ZM28.9032 21.6736H3.09677V20.5052C3.42761 20.5909 3.77187 20.6409 4.12903 20.6409C6.23071 20.6409 7.96697 19.061 8.22245 17.0267H10.3226V19.6083H9.29032V20.6409H22.7097V19.6083H21.6774V17.0267H24.7742V20.6409H28.9032V21.6736ZM30.9677 19.6083H25.8065V12.3798H30.9677V19.6083Z" fill="black"/>
<path d="M13.9356 24.7744C14.2206 24.7744 14.4517 24.5434 14.4517 24.2583C14.4517 23.9733 14.2206 23.7422 13.9356 23.7422C13.6505 23.7422 13.4194 23.9733 13.4194 24.2583C13.4194 24.5434 13.6505 24.7744 13.9356 24.7744Z" fill="black"/>
<path d="M16 24.7744C16.2851 24.7744 16.5161 24.5434 16.5161 24.2583C16.5161 23.9733 16.2851 23.7422 16 23.7422C15.715 23.7422 15.4839 23.9733 15.4839 24.2583C15.4839 24.5434 15.715 24.7744 16 24.7744Z" fill="black"/>
<path d="M18.0645 24.7744C18.3495 24.7744 18.5806 24.5434 18.5806 24.2583C18.5806 23.9733 18.3495 23.7422 18.0645 23.7422C17.7794 23.7422 17.5483 23.9733 17.5483 24.2583C17.5483 24.5434 17.7794 24.7744 18.0645 24.7744Z" fill="black"/>
<path d="M6.19349 16.5184C6.19349 15.3794 5.26755 14.4531 4.12897 14.4531C2.99039 14.4531 2.06445 15.3794 2.06445 16.5184C2.06445 17.6574 2.99039 18.5837 4.12897 18.5837C5.26755 18.5837 6.19349 17.6574 6.19349 16.5184ZM3.09671 16.5184C3.09671 15.9489 3.55968 15.4858 4.12897 15.4858C4.69826 15.4858 5.16123 15.9489 5.16123 16.5184C5.16123 17.0879 4.69826 17.551 4.12897 17.551C3.55968 17.551 3.09671 17.0879 3.09671 16.5184Z" fill="black"/>
<path d="M26.8389 13.4219H29.9356V14.4541H26.8389V13.4219Z" fill="black"/>
<path d="M26.8389 15.4844H29.9356V16.5166H26.8389V15.4844Z" fill="black"/>
<path d="M26.8389 17.5469H29.9356V18.5791H26.8389V17.5469Z" fill="black"/>
</svg>
