<svg width="14" height="14" viewBox="0 0 14 14" fill="none" xmlns="http://www.w3.org/2000/svg">
<path id="Vector" d="M13.4231 5.38462V4.88462H12.9231H1.07692H0.576923V5.38462V12.0256C0.576923 12.7964 1.20355 13.4231 1.97436 13.4231H12.0256C12.7964 13.4231 13.4231 12.7964 13.4231 12.0256V5.38462ZM0.576923 4.30769V4.80769H1.07692H12.9231H13.4231V4.30769V1.97436C13.4231 1.20355 12.7964 0.576923 12.0256 0.576923H1.97436C1.20355 0.576923 0.576923 1.20355 0.576923 1.97436V4.30769ZM8.47436 10.0513V10.5513H8.97436H9.87179C10.247 10.5513 10.5513 10.247 10.5513 9.87179V8.4359C10.5513 8.06068 10.247 7.75641 9.87179 7.75641H8.97436H8.47436V8.25641V10.0513ZM7.89744 10.5513H8.39744V10.0513V8.25641V7.75641H7.89744H4.12821C3.75299 7.75641 3.44872 8.06068 3.44872 8.4359V9.87179C3.44872 10.247 3.75299 10.5513 4.12821 10.5513H7.89744ZM3.44872 2.69231C3.44872 2.7134 3.43134 2.73077 3.41026 2.73077H2.69231C2.67122 2.73077 2.65385 2.7134 2.65385 2.69231C2.65385 2.67122 2.67122 2.65385 2.69231 2.65385H3.41026C3.43135 2.65385 3.44872 2.67122 3.44872 2.69231ZM13.5 1.97436V12.0256C13.5 12.8386 12.8386 13.5 12.0256 13.5H1.97436C1.16137 13.5 0.5 12.8386 0.5 12.0256V1.97436C0.5 1.16137 1.16137 0.5 1.97436 0.5H12.0256C12.8386 0.5 13.5 1.16137 13.5 1.97436ZM5.5641 2.65385H6.28205C6.30314 2.65385 6.32051 2.67122 6.32051 2.69231C6.32051 2.7134 6.30314 2.73077 6.28205 2.73077H5.5641C5.54301 2.73077 5.52564 2.7134 5.52564 2.69231C5.52564 2.67122 5.54301 2.65385 5.5641 2.65385ZM3.37179 9.87179V8.4359C3.37179 8.01922 3.71153 7.67949 4.12821 7.67949H9.87179C10.2885 7.67949 10.6282 8.01922 10.6282 8.4359V9.87179C10.6282 10.2885 10.2885 10.6282 9.87179 10.6282H4.12821C3.71153 10.6282 3.37179 10.2885 3.37179 9.87179Z" stroke="#112D55"/>
</svg>
