<svg width="16" height="16" viewBox="0 0 16 16" fill="none" xmlns="http://www.w3.org/2000/svg">
<path d="M10.6043 8.00039C10.6043 8.51462 10.4518 9.01731 10.1661 9.44487C9.88043 9.87244 9.47436 10.2057 8.99927 10.4025C8.52419 10.5993 8.00141 10.6508 7.49706 10.5504C6.99271 10.4501 6.52944 10.2025 6.16582 9.83887C5.8022 9.47525 5.55458 9.01198 5.45426 8.50763C5.35393 8.00327 5.40542 7.4805 5.60221 7.00541C5.799 6.53033 6.13225 6.12426 6.55982 5.83857C6.98738 5.55288 7.49007 5.40039 8.0043 5.40039C8.69386 5.40039 9.35518 5.67432 9.84278 6.16191C10.3304 6.64951 10.6043 7.31083 10.6043 8.00039Z" stroke="#717171" stroke-width="1.116"/>
<path d="M14.5416 5.88166C15.0153 6.50091 15.3249 7.2298 15.4416 8.00066C15.3249 8.77153 15.0153 9.50042 14.5416 10.1197L13.1096 12.5877C12.5096 13.6177 12.2096 14.1327 11.7216 14.4157C10.9969 14.6994 10.2127 14.7967 9.44062 14.6987H6.55862C5.78658 14.7967 5.0023 14.6993 4.27762 14.4157C3.78662 14.1327 3.48762 13.6157 2.88962 12.5877L1.45762 10.1207C0.983956 9.50139 0.674382 8.77252 0.557617 8.00166C0.674382 7.23081 0.983956 6.50193 1.45762 5.88266L2.88962 3.41366C3.48962 2.38366 3.78962 1.86866 4.27762 1.58566C5.00229 1.30194 5.78658 1.20463 6.55862 1.30266H9.44162C10.2137 1.20463 10.9979 1.30194 11.7226 1.58566C12.2136 1.86866 12.5126 2.38566 13.1106 3.41366L14.5416 5.88166Z" stroke="#717171" stroke-width="1.116"/>
</svg>
