<svg xmlns="http://www.w3.org/2000/svg" xmlns:xlink="http://www.w3.org/1999/xlink" width="20" height="20" viewBox="0 0 20 20">
  <defs>
    <clipPath id="clip-path">
      <rect id="Rectangle_3252" data-name="Rectangle 3252" width="20" height="20" transform="translate(0)" fill="#0e213e"/>
    </clipPath>
  </defs>
  <g id="Mask_Group_8" data-name="Mask Group 8" clip-path="url(#clip-path)">
    <g id="Interface_Settings_Future" data-name="Interface / Settings_Future" transform="translate(1.611 0.649)">
      <g id="Vector" transform="translate(0)">
        <path id="Path_1582" data-name="Path 1582" d="M12.7,19.68l5.1-2.943a4.122,4.122,0,0,0,1.014-.691,1.867,1.867,0,0,0,.388-.672,4.115,4.115,0,0,0,.091-1.22V8.26A4.114,4.114,0,0,0,19.2,7.04a1.867,1.867,0,0,0-.388-.673,4.1,4.1,0,0,0-1.007-.687L12.7,2.734A4.125,4.125,0,0,0,11.6,2.2a1.867,1.867,0,0,0-.776,0,4.127,4.127,0,0,0-1.106.532l-5.1,2.944a4.123,4.123,0,0,0-1.013.69,1.868,1.868,0,0,0-.388.673,4.132,4.132,0,0,0-.091,1.224V14.15a4.131,4.131,0,0,0,.091,1.224,1.867,1.867,0,0,0,.388.672,4.126,4.126,0,0,0,1.014.691l5.1,2.943a4.13,4.13,0,0,0,1.106.533,1.87,1.87,0,0,0,.776,0A4.13,4.13,0,0,0,12.7,19.68Z" transform="translate(-3.124 -2.16)" fill="none" stroke="#333" stroke-linecap="round" stroke-linejoin="round" stroke-width="1.2"/>
        <path id="Path_1583" data-name="Path 1583" d="M8.418,11.219a2.8,2.8,0,1,0,2.8-2.8A2.8,2.8,0,0,0,8.418,11.219Z" transform="translate(-3.134 -2.172)" fill="none" stroke="#333" stroke-linecap="round" stroke-linejoin="round" stroke-width="1.2"/>
      </g>
    </g>
  </g>
</svg>
