<svg width="16" height="16" viewBox="0 0 16 16" fill="none" xmlns="http://www.w3.org/2000/svg">
<mask id="mask0_181_1017" style="mask-type:luminance" maskUnits="userSpaceOnUse" x="0" y="0" width="16" height="16">
<path d="M16 0H0V16H16V0Z" fill="white"/>
</mask>
<g mask="url(#mask0_181_1017)">
<path d="M10.6053 8.00039C10.6053 8.51462 10.4528 9.01731 10.1671 9.44487C9.8814 9.87244 9.47534 10.2057 9.00025 10.4025C8.52516 10.5993 8.00239 10.6508 7.49804 10.5504C6.99369 10.4501 6.53041 10.2025 6.1668 9.83887C5.80318 9.47525 5.55555 9.01198 5.45523 8.50763C5.35491 8.00327 5.4064 7.4805 5.60319 7.00541C5.79998 6.53033 6.13322 6.12426 6.56079 5.83857C6.98836 5.55288 7.49104 5.40039 8.00528 5.40039C8.69484 5.40039 9.35616 5.67432 9.84375 6.16191C10.3313 6.64951 10.6053 7.31083 10.6053 8.00039Z" stroke="#000000" stroke-width="1.116"/>
<path d="M14.5421 5.88118C15.0158 6.50042 15.3254 7.22931 15.4421 8.00018C15.3254 8.77104 15.0158 9.49993 14.5421 10.1192L13.1101 12.5872C12.5101 13.6172 12.2101 14.1322 11.7221 14.4152C10.9974 14.6989 10.2131 14.7962 9.44111 14.6982H6.55911C5.78707 14.7962 5.00279 14.6989 4.27811 14.4152C3.78711 14.1322 3.48811 13.6152 2.89011 12.5872L1.45811 10.1202C0.984444 9.50091 0.67487 8.77203 0.558105 8.00118C0.67487 7.23032 0.984444 6.50145 1.45811 5.88218L2.89011 3.41318C3.49011 2.38318 3.79011 1.86818 4.27811 1.58518C5.00278 1.30145 5.78707 1.20415 6.55911 1.30218H9.44211C10.2141 1.20415 10.9984 1.30145 11.7231 1.58518C12.2141 1.86818 12.5131 2.38518 13.1111 3.41318L14.5421 5.88118Z" stroke="#000000" stroke-width="1.116"/>
</g>
</svg>
