<svg width="14" height="14" viewBox="0 0 14 14" fill="none" xmlns="http://www.w3.org/2000/svg">
<g id="Group 686">
<path id="Vector" d="M11.5966 2.52199L11.7576 2.80087L12.9079 4.79248L13.0688 5.07102C13.0738 4.9609 13.048 4.8483 12.9889 4.74594L11.5966 2.52199ZM11.5966 2.52199C11.6948 2.57265 11.7797 2.65148 11.8389 2.75406C11.8389 2.75406 11.8389 2.75407 11.8389 2.75407L12.9889 4.74591L11.5966 2.52199ZM13.0687 8.92815L12.9077 9.20715L11.7577 11.1991L11.5967 11.478C11.6948 11.4273 11.7797 11.3485 11.8389 11.2459L13.0687 8.92815ZM13.0687 8.92815C13.074 9.03853 13.0482 9.15144 12.9889 9.25403C12.9889 9.25404 12.9889 9.25405 12.9889 9.25406L11.8389 11.2459L13.0687 8.92815ZM11.4509 11.5303L11.1493 11.4173L10.4429 11.1526C10.4429 11.1526 10.4428 11.1526 10.4428 11.1526C9.60867 10.8401 8.69812 11.3672 8.55195 12.2443L8.42795 12.9884L8.37501 13.3061C8.44914 13.2242 8.50091 13.1207 8.52037 13.0039L8.52037 13.0039L8.64437 12.2598C8.78108 11.4394 9.63247 10.9492 10.4099 11.2404L11.4509 11.5303ZM11.4509 11.5303C11.3429 11.5536 11.2273 11.5466 11.1164 11.5051C11.1164 11.5051 11.1164 11.5051 11.1164 11.5051L10.41 11.2405L11.4509 11.5303ZM0.528272 8.7759L0.776976 8.57116L1.35937 8.09172C2.04708 7.52557 2.04587 6.47343 1.35937 5.90828L0.776976 5.42884L0.528318 5.22414C0.562159 5.32929 0.625954 5.42592 0.717386 5.5012L0.528272 8.7759ZM0.528272 8.7759C0.562104 8.67072 0.625903 8.57406 0.71735 8.49876C0.71736 8.49875 0.717371 8.49874 0.717381 8.49873L1.29977 8.01931C1.9406 7.49179 1.94208 6.50939 1.29978 5.98064C1.29978 5.98064 1.29977 5.98064 1.29977 5.98063L0.717396 5.50121L0.528272 8.7759ZM10.4099 2.75959L10.41 2.75957L11.1164 2.49492C11.1164 2.49491 11.1164 2.49491 11.1164 2.49491C11.2273 2.45338 11.3428 2.44646 11.4508 2.46973L11.1492 2.58271L10.4429 2.84736C10.4428 2.84737 10.4428 2.84737 10.4428 2.84737C9.61004 3.15928 8.69835 2.63427 8.55192 1.75566L8.42792 1.01156L8.37497 0.693833C8.44913 0.775719 8.50092 0.879283 8.52039 0.996098C8.52039 0.996104 8.5204 0.996111 8.5204 0.996118L8.6444 1.74023C8.78087 2.55924 9.63112 3.05129 10.4099 2.75959ZM12.8285 5.3961L13.0561 5.1685C13.0287 5.29503 12.9594 5.41286 12.8521 5.50124L12.2697 5.98063C11.6287 6.50817 11.6275 7.49066 12.2697 8.01933L12.2697 8.01934L12.8521 8.49876C12.8521 8.49877 12.8521 8.49878 12.8521 8.49878C12.9435 8.57406 13.0073 8.67069 13.0411 8.77586L12.7924 8.57113L12.21 8.09169C11.5235 7.52653 11.5223 6.47436 12.21 5.90826L12.2101 5.90825L12.7908 5.43017C12.7939 5.42759 12.7971 5.4249 12.8004 5.4221C12.8049 5.41827 12.8095 5.4142 12.8141 5.40988L12.8212 5.4032L12.8248 5.3997L12.8267 5.39791L12.8276 5.39701L12.828 5.39655L12.8283 5.39633L12.8284 5.39621C12.8284 5.39615 12.8285 5.3961 12.4749 5.04254L12.8285 5.3961ZM7.93475 13.4063H8.2568C8.16383 13.4659 8.05316 13.5 7.93472 13.5H5.6347C5.51627 13.5 5.40559 13.4659 5.31262 13.4063H5.63473H7.93475ZM5.14153 12.9885L5.19449 13.3062C5.12031 13.2243 5.0685 13.1207 5.04902 13.0038L5.04902 13.0038L4.92499 12.2597C4.92499 12.2597 4.92499 12.2597 4.92499 12.2597C4.78853 11.4411 3.93854 10.9485 3.15945 11.2404L2.45312 11.505C2.4531 11.505 2.45307 11.5051 2.45305 11.5051C2.34215 11.5466 2.2266 11.5535 2.11864 11.5303L2.42017 11.4173L3.12658 11.1526C3.12659 11.1526 3.12659 11.1526 3.1266 11.1526C3.95939 10.8407 4.87108 11.3658 5.0175 12.2443L5.0175 12.2444L5.14153 12.9885ZM1.81174 11.1991L1.97274 11.4779C1.87458 11.4273 1.78977 11.3485 1.73055 11.2459C1.73055 11.2459 1.73055 11.2459 1.73054 11.2459L0.580531 9.25403L0.147519 9.50403L0.580528 9.25403C0.521311 9.15146 0.495469 9.03858 0.500683 8.92821L0.661747 9.20718L1.81174 11.1991ZM0.500703 5.07175C0.495489 4.96138 0.521333 4.84849 0.580556 4.74592L0.580559 4.74591L1.73053 2.7541C1.73054 2.75409 1.73055 2.75407 1.73056 2.75406C1.78979 2.65151 1.87462 2.57271 1.97279 2.52205L1.81177 2.80093L0.661749 4.79282L0.500703 5.07175ZM2.42021 2.58272L2.11865 2.46973C2.22663 2.44646 2.34219 2.45339 2.45304 2.4949C2.45305 2.49491 2.45307 2.49491 2.45308 2.49492L3.15947 2.75959L3.15951 2.75961C3.93672 3.05073 4.78824 2.56088 4.92502 1.74025C4.92502 1.74025 4.92502 1.74024 4.92502 1.74024L5.04905 0.996145L5.04905 0.996116C5.06851 0.879312 5.12029 0.775752 5.19444 0.693863L5.1415 1.01156L5.0175 1.75566C4.87133 2.63273 3.96082 3.15983 3.12661 2.84738C3.12659 2.84737 3.12658 2.84737 3.12657 2.84736L2.42021 2.58272ZM5.6347 0.59375H5.31262C5.40559 0.53406 5.51627 0.5 5.63473 0.5H7.93475C8.05318 0.5 8.16385 0.534059 8.25682 0.59375H7.93472H5.6347ZM6.78472 9.19793C5.57323 9.19793 4.5868 8.2115 4.5868 7C4.5868 5.78851 5.57323 4.80207 6.78472 4.80207C7.99622 4.80207 8.98265 5.78851 8.98265 7C8.98265 8.2115 7.99622 9.19793 6.78472 9.19793ZM4.68055 7C4.68055 8.16069 5.62404 9.10418 6.78472 9.10418C7.94541 9.10418 8.8889 8.16069 8.8889 7C8.8889 5.83931 7.94541 4.89582 6.78472 4.89582C5.62404 4.89582 4.68055 5.83931 4.68055 7Z" stroke="#112D55"/>
</g>
</svg>
