<svg width="14" height="14" viewBox="0 0 14 14" fill="none" xmlns="http://www.w3.org/2000/svg">
<g clip-path="url(#clip0_6542_3086)">
<path d="M9.51448 2.5586C9.16973 2.5586 8.99729 2.5586 8.84026 2.50033C8.81844 2.49223 8.79698 2.48333 8.7758 2.47363C8.62355 2.40379 8.50169 2.2819 8.25786 2.03811C7.69675 1.477 7.41623 1.19645 7.07101 1.17058C7.02464 1.1671 6.97797 1.1671 6.93159 1.17058C6.58638 1.19645 6.30579 1.477 5.74471 2.0381C5.50093 2.2819 5.37903 2.40379 5.22678 2.47363C5.20564 2.48333 5.18414 2.49223 5.16233 2.50033C5.00528 2.5586 4.83289 2.5586 4.48813 2.5586H4.42454C3.54492 2.5586 3.10512 2.5586 2.83186 2.83186C2.5586 3.10512 2.5586 3.54492 2.5586 4.42454V4.48813C2.5586 4.83289 2.5586 5.00528 2.50033 5.16233C2.49223 5.18414 2.48333 5.20564 2.47363 5.22678C2.40379 5.37903 2.2819 5.50093 2.0381 5.74471C1.477 6.30579 1.19645 6.58638 1.17058 6.93159C1.1671 6.97797 1.1671 7.02464 1.17058 7.07101C1.19645 7.41623 1.477 7.69675 2.0381 8.25786C2.2819 8.50169 2.40379 8.62355 2.47363 8.7758C2.48333 8.79698 2.49223 8.81844 2.50033 8.84026C2.5586 8.99729 2.5586 9.16973 2.5586 9.51448V9.57806C2.5586 10.4577 2.5586 10.8975 2.83186 11.1707C3.10512 11.444 3.54492 11.444 4.42454 11.444H4.48813C4.83289 11.444 5.00528 11.444 5.16233 11.5023C5.18414 11.5104 5.20564 11.5193 5.22678 11.529C5.37903 11.5988 5.50093 11.7207 5.74471 11.9645C6.30579 12.5256 6.58638 12.8062 6.93159 12.832C6.97797 12.8355 7.02458 12.8355 7.07101 12.832C7.41623 12.8062 7.69675 12.5256 8.25786 11.9645C8.50169 11.7207 8.62355 11.5988 8.7758 11.529C8.79698 11.5193 8.81844 11.5104 8.84026 11.5023C8.99729 11.444 9.16973 11.444 9.51448 11.444H9.57806C10.4577 11.444 10.8975 11.444 11.1707 11.1707C11.444 10.8975 11.444 10.4577 11.444 9.57806V9.51448C11.444 9.16973 11.444 8.99729 11.5023 8.84026C11.5104 8.81844 11.5193 8.79698 11.529 8.7758C11.5988 8.62355 11.7207 8.50169 11.9645 8.25786C12.5256 7.69675 12.8062 7.41623 12.832 7.07101C12.8355 7.02458 12.8355 6.97797 12.832 6.93159C12.8062 6.58638 12.5256 6.30579 11.9645 5.74471C11.7207 5.50093 11.5988 5.37903 11.529 5.22678C11.5193 5.20564 11.5104 5.18414 11.5023 5.16233C11.444 5.00528 11.444 4.83289 11.444 4.48813V4.42454C11.444 3.54492 11.444 3.10512 11.1707 2.83186C10.8975 2.5586 10.4577 2.5586 9.57806 2.5586H9.51448Z" fill="white" stroke="white" stroke-width="1.5"/>
<path d="M9.04036 6.9987C9.04036 8.12628 8.12628 9.04036 6.9987 9.04036C5.87111 9.04036 4.95703 8.12628 4.95703 6.9987C4.95703 5.87111 5.87111 4.95703 6.9987 4.95703C8.12628 4.95703 9.04036 5.87111 9.04036 6.9987Z" fill="#10A37F" stroke="#10A37F" stroke-width="1.5"/>
</g>
<defs>
<clipPath id="clip0_6542_3086">
<rect width="14" height="14" fill="white"/>
</clipPath>
</defs>
</svg>
