<svg width="12" height="14" viewBox="0 0 12 14" fill="none" xmlns="http://www.w3.org/2000/svg">
<path d="M10 9.71875C11.0625 9.71875 11.9375 10.5938 11.9375 11.6562C11.9375 12.75 11.0625 13.625 10 13.625C8.9375 13.625 8.0625 12.75 8.0625 11.6562C8.0625 11.5312 8.0625 11.375 8.09375 11.2188L3.375 8.46875C3 8.78125 2.53125 9 2 9C0.90625 9 0 8.09375 0 7C0 5.90625 0.90625 5 2 5C2.53125 5 3 5.21875 3.375 5.53125L8.0625 2.8125C8.03125 2.65625 8 2.5 8 2.34375C8 1.21875 8.90625 0.34375 10 0.34375C11.0938 0.34375 12 1.21875 12 2.34375C12 3.4375 11.0938 4.34375 10 4.34375C9.46875 4.34375 9 4.125 8.625 3.78125L3.9375 6.53125C3.96875 6.6875 4 6.84375 4 7C4 7.15625 3.96875 7.3125 3.9375 7.46875L8.6875 10.2188C9.03125 9.90625 9.5 9.71875 10 9.71875ZM10 1.65625C9.625 1.65625 9.34375 1.96875 9.34375 2.34375C9.34375 2.6875 9.625 3 10 3C10.375 3 10.6562 2.6875 10.6562 2.34375C10.6562 1.96875 10.375 1.65625 10 1.65625ZM2 7.65625C2.375 7.65625 2.65625 7.375 2.65625 7C2.65625 6.625 2.375 6.34375 2 6.34375C1.625 6.34375 1.34375 6.625 1.34375 7C1.34375 7.375 1.625 7.65625 2 7.65625ZM10 12.3438C10.375 12.3438 10.6562 12.0312 10.6562 11.6875C10.6562 11.3125 10.375 11 10 11C9.625 11 9.34375 11.3125 9.34375 11.6875C9.34375 12.0312 9.625 12.3438 10 12.3438Z" fill="#717171"/>
</svg>
