<svg width="18" height="18" viewBox="0 0 18 18" fill="none" xmlns="http://www.w3.org/2000/svg">
<mask id="mask0_1376_4352" style="mask-type:luminance" maskUnits="userSpaceOnUse" x="0" y="0" width="18" height="18">
<path d="M0 0H18V18H0V0Z" fill="white"/>
</mask>
<g mask="url(#mask0_1376_4352)">
<path d="M14.3174 17.4727H15.8889C16.7636 17.4727 17.4727 16.7636 17.4727 15.8889V4.74609V2.11113C17.4727 1.23644 16.7636 0.527344 15.8889 0.527344H2.11113C1.23644 0.527344 0.527344 1.23644 0.527344 2.11113V4.74609V15.8889C0.527344 16.7636 1.23644 17.4727 2.11113 17.4727H3.68262H14.3174Z" stroke="white" stroke-miterlimit="10" stroke-linecap="round" stroke-linejoin="round"/>
<path d="M0.527344 4.74609H17.4727" stroke="white" stroke-miterlimit="10" stroke-linecap="round" stroke-linejoin="round"/>
<path d="M6.85547 2.63672H15.3633" stroke="white" stroke-miterlimit="10" stroke-linecap="round" stroke-linejoin="round"/>
<path d="M3.16406 2.63672C3.16406 2.92795 2.92795 3.16406 2.63672 3.16406C2.34548 3.16406 2.10938 2.92795 2.10938 2.63672C2.10938 2.34548 2.34548 2.10937 2.63672 2.10937C2.92795 2.10937 3.16406 2.34548 3.16406 2.63672Z" fill="white"/>
<path d="M5.27344 2.63672C5.27344 2.92795 5.03733 3.16406 4.74609 3.16406C4.45486 3.16406 4.21875 2.92795 4.21875 2.63672C4.21875 2.34548 4.45486 2.10937 4.74609 2.10937C5.03733 2.10937 5.27344 2.34548 5.27344 2.63672Z" fill="white"/>
<path d="M13.6005 10.3531L12.6751 13.252H6.46462L5.35938 8.68807H12.3841C13.2488 8.68807 13.8634 9.52943 13.6005 10.3531Z" stroke="white" stroke-miterlimit="10" stroke-linecap="round" stroke-linejoin="round"/>
<path d="M8.25879 14.3086C8.25879 14.8911 7.78661 15.3633 7.2041 15.3633C6.6216 15.3633 6.14941 14.8911 6.14941 14.3086C6.14941 13.7261 6.6216 13.2539 7.2041 13.2539C7.78661 13.2539 8.25879 13.7261 8.25879 14.3086Z" stroke="white" stroke-miterlimit="10" stroke-linecap="round" stroke-linejoin="round"/>
<path d="M13.2158 14.3086C13.2158 14.8911 12.7436 15.3633 12.1611 15.3633C11.5786 15.3633 11.1064 14.8911 11.1064 14.3086C11.1064 13.7261 11.5786 13.2539 12.1611 13.2539C12.7436 13.2539 13.2158 13.7261 13.2158 14.3086Z" stroke="white" stroke-miterlimit="10" stroke-linecap="round" stroke-linejoin="round"/>
<path d="M5.7175 10.1641L4.92578 6.85445" stroke="white" stroke-miterlimit="10" stroke-linecap="round" stroke-linejoin="round"/>
<path d="M4.92535 6.85547H2.93164" stroke="white" stroke-miterlimit="10" stroke-linecap="round" stroke-linejoin="round"/>
</g>
</svg>
