<svg width="20" height="20" viewBox="0 0 20 20" fill="none" xmlns="http://www.w3.org/2000/svg">
<path d="M7.62647 1H2.32529C1.59453 1 1 1.59453 1 2.32529V9.74694C1 10.4777 1.59453 11.0722 2.32529 11.0722H7.62647C8.35724 11.0722 8.95176 10.4777 8.95176 9.74694V2.32529C8.95176 1.59453 8.35724 1 7.62647 1ZM8.42165 9.74694C8.42165 10.1854 8.06494 10.5421 7.62647 10.5421H2.32529C1.88682 10.5421 1.53012 10.1854 1.53012 9.74694V2.32529C1.53012 1.88685 1.88682 1.53012 2.32529 1.53012H7.62647C8.06494 1.53012 8.42165 1.88685 8.42165 2.32529V9.74694Z" stroke="#E0F6FE" stroke-width="0.75"/>
<path d="M7.62647 13.1687H2.32529C1.59453 13.1687 1 13.7632 1 14.494V17.6747C1 18.4055 1.59453 19 2.32529 19H7.62647C8.35724 19 8.95176 18.4055 8.95176 17.6747V14.494C8.95176 13.7632 8.35724 13.1687 7.62647 13.1687ZM8.42165 17.6747C8.42165 18.1131 8.06494 18.4699 7.62647 18.4699H2.32529C1.88682 18.4699 1.53012 18.1131 1.53012 17.6747V14.494C1.53012 14.0556 1.88682 13.6988 2.32529 13.6988H7.62647C8.06494 13.6988 8.42165 14.0556 8.42165 14.494V17.6747Z" stroke="#E0F6FE" stroke-width="0.75"/>
<path d="M18.9996 17.6747V10.253C18.9996 9.52226 18.4051 8.92773 17.6743 8.92773H12.3731C11.6424 8.92773 11.0479 9.52226 11.0479 10.253V17.6747C11.0479 18.4054 11.6424 19 12.3731 19H17.6743C18.4051 19 18.9996 18.4054 18.9996 17.6747ZM18.4695 17.6747C18.4695 18.1131 18.1128 18.4698 17.6743 18.4698H12.3731C11.9347 18.4698 11.578 18.1131 11.578 17.6747V10.253C11.578 9.81459 11.9347 9.45785 12.3731 9.45785H17.6743C18.1128 9.45785 18.4695 9.81459 18.4695 10.253V17.6747Z" stroke="#E0F6FE" stroke-width="0.75"/>
<path d="M18.9996 5.506V2.32529C18.9996 1.59453 18.4051 1 17.6743 1H12.3731C11.6424 1 11.0479 1.59453 11.0479 2.32529V5.506C11.0479 6.23677 11.6424 6.83129 12.3731 6.83129H17.6743C18.4051 6.83129 18.9996 6.23677 18.9996 5.506ZM18.4695 5.506C18.4695 5.94444 18.1128 6.30117 17.6743 6.30117H12.3731C11.9347 6.30117 11.578 5.94444 11.578 5.506V2.32529C11.578 1.88685 11.9347 1.53012 12.3731 1.53012H17.6743C18.1128 1.53012 18.4695 1.88685 18.4695 2.32529V5.506Z" stroke="#E0F6FE" stroke-width="0.75"/>
</svg>
