<svg width="18" height="18" viewBox="0 0 18 18" fill="none" xmlns="http://www.w3.org/2000/svg">
<mask id="mask0_1376_4318" style="mask-type:luminance" maskUnits="userSpaceOnUse" x="0" y="0" width="18" height="18">
<path d="M0 0H18V18H0V0Z" fill="white"/>
</mask>
<g mask="url(#mask0_1376_4318)">
<path d="M15.7513 16.9453H2.24873C1.59033 16.9453 1.05469 16.4097 1.05469 15.7513V4.5H16.9453V15.7513C16.9453 16.4097 16.4097 16.9453 15.7513 16.9453ZM2.24873 1.05469H15.7513C16.4097 1.05469 16.9453 1.59033 16.9453 2.24873V3.44531H1.05469V2.24873C1.05469 1.59033 1.59033 1.05469 2.24873 1.05469ZM15.7513 0H2.24873C1.00877 0 0 1.00877 0 2.24873V15.7513C0 16.9913 1.00877 18 2.24873 18H15.7513C16.9913 18 18 16.9913 18 15.7513V2.24873C18 1.00877 16.9913 0 15.7513 0Z" fill="#E0F6FE"/>
<path d="M2.26172 2.8125H3.03575C3.32699 2.8125 3.5631 2.57639 3.5631 2.28516C3.5631 1.99392 3.32699 1.75781 3.03575 1.75781H2.26172C1.97048 1.75781 1.73438 1.99392 1.73438 2.28516C1.73438 2.57639 1.97048 2.8125 2.26172 2.8125Z" fill="#E0F6FE"/>
<path d="M4.61719 2.8125H5.39122C5.68246 2.8125 5.91857 2.57639 5.91857 2.28516C5.91857 1.99392 5.68246 1.75781 5.39122 1.75781H4.61719C4.32595 1.75781 4.08984 1.99392 4.08984 2.28516C4.08984 2.57639 4.32595 2.8125 4.61719 2.8125Z" fill="#E0F6FE"/>
<path d="M6.97363 2.8125H15.7184C16.0096 2.8125 16.2457 2.57639 16.2457 2.28516C16.2457 1.99392 16.0096 1.75781 15.7184 1.75781H6.97363C6.6824 1.75781 6.44629 1.99392 6.44629 2.28516C6.44629 2.57639 6.6824 2.8125 6.97363 2.8125Z" fill="#E0F6FE"/>
<path d="M12.7238 11.3291H12.2202C11.9976 11.3291 11.799 11.4688 11.7238 11.6783C11.6936 11.7624 11.6591 11.8461 11.6212 11.9269C11.5268 12.1283 11.5689 12.3674 11.7266 12.5244L12.0855 12.8818C12.2041 13.0004 12.2694 13.1581 12.2694 13.3258C12.2694 13.4936 12.2041 13.6513 12.0855 13.7699C11.8407 14.0147 11.4423 14.0147 11.1964 13.7688L10.8418 13.4162C10.6839 13.2591 10.4442 13.2182 10.2431 13.3141C10.1597 13.3538 10.0736 13.3898 9.98737 13.4212C9.77879 13.4968 9.63992 13.695 9.63989 13.9168L9.63982 14.4248C9.63982 14.771 9.35811 15.0527 9.01186 15.0527C8.6656 15.0527 8.3839 14.771 8.3839 14.4247L8.38386 13.9253C8.38382 13.702 8.24323 13.503 8.03279 13.4283C7.94251 13.3963 7.85261 13.3592 7.7656 13.3181C7.69357 13.284 7.61668 13.2675 7.54043 13.2675C7.40349 13.2675 7.26856 13.3208 7.16745 13.4219L6.81107 13.7782C6.56625 14.023 6.16789 14.023 5.92303 13.7782C5.80441 13.6596 5.73909 13.5019 5.73909 13.3341C5.73909 13.1664 5.80441 13.0087 5.9231 12.89L6.27927 12.5337C6.43673 12.3762 6.47825 12.1368 6.38308 11.9355C6.3435 11.8518 6.30764 11.7653 6.27642 11.6784C6.20125 11.4689 6.00269 11.3292 5.78019 11.3292L5.2764 11.3291C4.93015 11.3291 4.64844 11.0473 4.64844 10.7011C4.64844 10.3548 4.93014 10.0731 5.2765 10.0731L5.78019 10.073C6.00273 10.073 6.20125 9.93325 6.27642 9.72379C6.30869 9.63389 6.34589 9.54456 6.38702 9.45829C6.48293 9.25716 6.44207 9.01753 6.28503 8.85954L5.93132 8.50376C5.81271 8.38514 5.74742 8.22743 5.74742 8.0597C5.74742 7.89197 5.81271 7.73429 5.93132 7.61568C6.17524 7.37183 6.57145 7.37088 6.81652 7.61283L7.16299 7.97219C7.31993 8.13497 7.56317 8.17948 7.76764 8.08311C7.85367 8.04254 7.94289 8.00573 8.03286 7.97381C8.24323 7.89911 8.38379 7.70012 8.38382 7.47695L8.3839 6.97738C8.3839 6.63109 8.6656 6.34938 9.01186 6.34938C9.35811 6.34938 9.63982 6.63109 9.63982 6.97741L9.63985 7.48528C9.63985 7.70712 9.77872 7.90522 9.98723 7.98095C10.0709 8.01132 10.1542 8.04602 10.2346 8.08403C10.4359 8.17919 10.6753 8.13771 10.8328 7.98021L11.1892 7.62397C11.3077 7.50535 11.4654 7.44007 11.6332 7.44007C11.8009 7.44007 11.9586 7.50535 12.0772 7.62397C12.1958 7.74259 12.2611 7.9003 12.2611 8.068C12.2611 8.23576 12.1958 8.39344 12.0771 8.51213L11.721 8.86843C11.5636 9.02586 11.522 9.26528 11.6171 9.46655C11.6567 9.55032 11.6926 9.63688 11.7238 9.72379C11.799 9.93325 11.9975 10.073 12.22 10.073L12.7237 10.0731H12.7238C13.0701 10.0731 13.3518 10.3548 13.3518 10.7011C13.3518 11.0473 13.0701 11.3291 12.7238 11.3291ZM13.0057 9.04204C13.2072 8.75941 13.3158 8.42205 13.3158 8.068C13.3158 7.61856 13.1408 7.19598 12.823 6.8782C12.5052 6.56039 12.0826 6.38538 11.6332 6.38538C11.2835 6.38538 10.9501 6.49134 10.6696 6.68801C10.532 5.89759 9.84102 5.29469 9.01186 5.29469C8.18178 5.29469 7.49019 5.89889 7.35368 6.6905C6.69678 6.22064 5.77506 6.28041 5.18556 6.86991C4.86774 7.18768 4.69273 7.61026 4.69273 8.0597C4.69273 8.41661 4.80306 8.75653 5.00707 9.03996C4.20681 9.1692 3.59375 9.8649 3.59375 10.7011C3.59375 11.5329 4.20048 12.2256 4.99448 12.3601C4.79304 12.6427 4.6844 12.9801 4.6844 13.3341C4.6844 13.7836 4.85945 14.2061 5.17726 14.5239C5.76866 15.1153 6.69429 15.1736 7.35153 14.6989C7.48281 15.4968 8.17739 16.1074 9.01186 16.1074C9.84555 16.1074 10.5396 15.4979 10.6718 14.7012C11.3281 15.1643 12.2444 15.1026 12.8313 14.5157C13.1491 14.1979 13.3241 13.7753 13.3241 13.3258C13.3241 12.9745 13.2172 12.6396 13.0183 12.358C13.8063 12.2183 14.4065 11.5285 14.4065 10.7011C14.4065 9.86933 13.7998 9.17654 13.0057 9.04204Z" fill="#E0F6FE"/>
<path d="M8.99989 11.4043C8.61278 11.4043 8.29785 11.0894 8.29785 10.7023C8.29785 10.3152 8.61278 10.0002 8.99989 10.0002C9.38699 10.0002 9.70192 10.3152 9.70192 10.7023C9.70192 11.0894 9.38699 11.4043 8.99989 11.4043ZM8.99989 8.94554C8.03123 8.94554 7.24316 9.7336 7.24316 10.7023C7.24316 11.6709 8.03123 12.459 8.99989 12.459C9.96855 12.459 10.7566 11.6709 10.7566 10.7023C10.7566 9.7336 9.96855 8.94554 8.99989 8.94554Z" fill="#E0F6FE"/>
</g>
</svg>
