<svg width="20" height="20" viewBox="0 0 20 20" fill="none" xmlns="http://www.w3.org/2000/svg">
<path d="M5.49999 16.75C7.15684 16.75 8.49998 15.4068 8.49998 13.75C8.49998 12.0931 7.15684 10.75 5.49999 10.75C3.84314 10.75 2.5 12.0931 2.5 13.75C2.5 15.4068 3.84314 16.75 5.49999 16.75Z" stroke="#E0F6FE" stroke-linecap="round" stroke-linejoin="round"/>
<path d="M1 18.9998C1.52407 18.3014 2.20352 17.7345 2.98457 17.3441C3.76561 16.9537 4.6268 16.7505 5.49998 16.7505C6.37316 16.7505 7.23436 16.9537 8.0154 17.3441C8.79644 17.7345 9.47589 18.3014 9.99997 18.9998" stroke="#E0F6FE" stroke-linecap="round" stroke-linejoin="round"/>
<path d="M5.49999 6.99998C7.15684 6.99998 8.49998 5.65684 8.49998 3.99999C8.49998 2.34314 7.15684 1 5.49999 1C3.84314 1 2.5 2.34314 2.5 3.99999C2.5 5.65684 3.84314 6.99998 5.49999 6.99998Z" stroke="#E0F6FE" stroke-linecap="round" stroke-linejoin="round"/>
<path d="M1 9.25006C1.52407 8.55164 2.20352 7.98479 2.98457 7.59438C3.76561 7.20398 4.6268 7.00073 5.49998 7.00073C6.37316 7.00073 7.23436 7.20398 8.0154 7.59438C8.79644 7.98479 9.47589 8.55164 9.99997 9.25006" stroke="#E0F6FE" stroke-linecap="round" stroke-linejoin="round"/>
<path d="M14.5 16.75C16.1568 16.75 17.5 15.4068 17.5 13.75C17.5 12.0931 16.1568 10.75 14.5 10.75C12.8431 10.75 11.5 12.0931 11.5 13.75C11.5 15.4068 12.8431 16.75 14.5 16.75Z" stroke="#E0F6FE" stroke-linecap="round" stroke-linejoin="round"/>
<path d="M10 18.9998C10.5241 18.3014 11.2035 17.7345 11.9846 17.3441C12.7656 16.9537 13.6268 16.7505 14.5 16.7505C15.3732 16.7505 16.2344 16.9537 17.0154 17.3441C17.7964 17.7345 18.4759 18.3014 19 18.9998" stroke="#E0F6FE" stroke-linecap="round" stroke-linejoin="round"/>
<path d="M14.5 6.99998C16.1568 6.99998 17.5 5.65684 17.5 3.99999C17.5 2.34314 16.1568 1 14.5 1C12.8431 1 11.5 2.34314 11.5 3.99999C11.5 5.65684 12.8431 6.99998 14.5 6.99998Z" stroke="#E0F6FE" stroke-linecap="round" stroke-linejoin="round"/>
<path d="M10 9.25006C10.5241 8.55164 11.2035 7.98479 11.9846 7.59438C12.7656 7.20398 13.6268 7.00073 14.5 7.00073C15.3732 7.00073 16.2344 7.20398 17.0154 7.59438C17.7964 7.98479 18.4759 8.55164 19 9.25006" stroke="#E0F6FE" stroke-linecap="round" stroke-linejoin="round"/>
</svg>
