<svg width="18" height="18" viewBox="0 0 18 18" fill="none" xmlns="http://www.w3.org/2000/svg">
<mask id="mask0_688_2785" style="mask-type:luminance" maskUnits="userSpaceOnUse" x="0" y="0" width="18" height="18">
<path d="M0 0H18V18H0V0Z" fill="white"/>
</mask>
<g mask="url(#mask0_688_2785)">
<path d="M15.7513 16.9453H2.24873C1.59033 16.9453 1.05469 16.4097 1.05469 15.7513V4.5H16.9453V15.7513C16.9453 16.4097 16.4097 16.9453 15.7513 16.9453ZM2.24873 1.05469H15.7513C16.4097 1.05469 16.9453 1.59033 16.9453 2.24873V3.44531H1.05469V2.24873C1.05469 1.59033 1.59033 1.05469 2.24873 1.05469ZM15.7513 0H2.24873C1.00877 0 0 1.00877 0 2.24873V15.7513C0 16.9913 1.00877 18 2.24873 18H15.7513C16.9913 18 18 16.9913 18 15.7513V2.24873C18 1.00877 16.9913 0 15.7513 0Z" fill="white"/>
<path d="M2.26172 2.8125H3.03575C3.32699 2.8125 3.5631 2.57639 3.5631 2.28516C3.5631 1.99392 3.32699 1.75781 3.03575 1.75781H2.26172C1.97048 1.75781 1.73438 1.99392 1.73438 2.28516C1.73438 2.57639 1.97048 2.8125 2.26172 2.8125Z" fill="white"/>
<path d="M4.61719 2.8125H5.39122C5.68246 2.8125 5.91857 2.57639 5.91857 2.28516C5.91857 1.99392 5.68246 1.75781 5.39122 1.75781H4.61719C4.32595 1.75781 4.08984 1.99392 4.08984 2.28516C4.08984 2.57639 4.32595 2.8125 4.61719 2.8125Z" fill="white"/>
<path d="M6.97363 2.8125H15.7184C16.0096 2.8125 16.2457 2.57639 16.2457 2.28516C16.2457 1.99392 16.0096 1.75781 15.7184 1.75781H6.97363C6.6824 1.75781 6.44629 1.99392 6.44629 2.28516C6.44629 2.57639 6.6824 2.8125 6.97363 2.8125Z" fill="white"/>
<path d="M12.7238 11.3298H12.2202C11.9976 11.3298 11.799 11.4696 11.7238 11.6791C11.6936 11.7632 11.6591 11.8468 11.6212 11.9276C11.5268 12.1291 11.5689 12.3681 11.7266 12.5251L12.0855 12.8825C12.2041 13.0012 12.2694 13.1588 12.2694 13.3266C12.2694 13.4943 12.2041 13.652 12.0855 13.7706C11.8407 14.0154 11.4423 14.0155 11.1964 13.7696L10.8418 13.4169C10.6839 13.2598 10.4442 13.219 10.2431 13.3148C10.1597 13.3546 10.0736 13.3906 9.98737 13.4219C9.77879 13.4976 9.63992 13.6957 9.63989 13.9175L9.63982 14.4255C9.63982 14.7718 9.35811 15.0535 9.01186 15.0535C8.6656 15.0535 8.3839 14.7718 8.3839 14.4255L8.38386 13.926C8.38382 13.7028 8.24323 13.5037 8.03279 13.4291C7.94251 13.397 7.85261 13.3599 7.7656 13.3188C7.69357 13.2848 7.61668 13.2683 7.54043 13.2683C7.40349 13.2683 7.26856 13.3216 7.16745 13.4226L6.81107 13.7789C6.56625 14.0237 6.16789 14.0237 5.92303 13.7789C5.80441 13.6603 5.73909 13.5026 5.73909 13.3349C5.73909 13.1672 5.80441 13.0094 5.9231 12.8908L6.27927 12.5345C6.43673 12.377 6.47825 12.1376 6.38308 11.9362C6.3435 11.8526 6.30764 11.766 6.27642 11.6791C6.20125 11.4697 6.00269 11.3299 5.78019 11.3299L5.2764 11.3298C4.93015 11.3298 4.64844 11.0481 4.64844 10.7018C4.64844 10.3555 4.93014 10.0738 5.2765 10.0738L5.78019 10.0737C6.00273 10.0737 6.20125 9.93398 6.27642 9.72452C6.30869 9.63462 6.34589 9.54529 6.38702 9.45902C6.48293 9.25789 6.44207 9.01826 6.28503 8.86027L5.93132 8.50449C5.81271 8.38587 5.74742 8.22816 5.74742 8.06043C5.74742 7.8927 5.81271 7.73503 5.93132 7.61641C6.17524 7.37256 6.57145 7.37162 6.81652 7.61356L7.16299 7.97293C7.31993 8.1357 7.56317 8.18021 7.76764 8.08385C7.85367 8.04327 7.94289 8.00647 8.03286 7.97454C8.24323 7.89984 8.38379 7.70085 8.38382 7.47768L8.3839 6.97811C8.3839 6.63182 8.6656 6.35011 9.01186 6.35011C9.35811 6.35011 9.63982 6.63182 9.63982 6.97815L9.63985 7.48601C9.63985 7.70785 9.77872 7.90596 9.98723 7.98168C10.0709 8.01206 10.1542 8.04676 10.2346 8.08476C10.4359 8.17993 10.6753 8.13844 10.8328 7.98094L11.1892 7.6247C11.3077 7.50609 11.4654 7.4408 11.6332 7.4408C11.8009 7.4408 11.9586 7.50609 12.0772 7.6247C12.1958 7.74332 12.2611 7.90103 12.2611 8.06873C12.2611 8.23649 12.1958 8.39417 12.0771 8.51286L11.721 8.86917C11.5636 9.0266 11.522 9.26601 11.6171 9.46728C11.6567 9.55106 11.6926 9.63761 11.7238 9.72452C11.799 9.93398 11.9975 10.0737 12.22 10.0737L12.7237 10.0738H12.7238C13.0701 10.0738 13.3518 10.3555 13.3518 10.7018C13.3518 11.0481 13.0701 11.3298 12.7238 11.3298ZM13.0057 9.04277C13.2072 8.76015 13.3158 8.42279 13.3158 8.06873C13.3158 7.61929 13.1408 7.19671 12.823 6.87894C12.5052 6.56112 12.0826 6.38612 11.6332 6.38612C11.2835 6.38612 10.9501 6.49208 10.6696 6.68874C10.532 5.89832 9.84102 5.29543 9.01186 5.29543C8.18178 5.29543 7.49019 5.89962 7.35368 6.69124C6.69678 6.22137 5.77506 6.28114 5.18556 6.87064C4.86774 7.18842 4.69273 7.61099 4.69273 8.06043C4.69273 8.41734 4.80306 8.75726 5.00707 9.04069C4.20681 9.16993 3.59375 9.86563 3.59375 10.7018C3.59375 11.5336 4.20048 12.2263 4.99448 12.3608C4.79304 12.6435 4.6844 12.9808 4.6844 13.3349C4.6844 13.7843 4.85945 14.2069 5.17726 14.5247C5.76866 15.1161 6.69429 15.1744 7.35153 14.6997C7.48281 15.4976 8.17739 16.1082 9.01186 16.1082C9.84555 16.1082 10.5396 15.4987 10.6718 14.7019C11.3281 15.1651 12.2444 15.1033 12.8313 14.5164C13.1491 14.1986 13.3241 13.776 13.3241 13.3266C13.3241 12.9752 13.2172 12.6403 13.0183 12.3587C13.8063 12.2191 14.4065 11.5292 14.4065 10.7018C14.4065 9.87006 13.7998 9.17728 13.0057 9.04277Z" fill="white"/>
<path d="M8.99989 11.4038C8.61278 11.4038 8.29785 11.0889 8.29785 10.7018C8.29785 10.3147 8.61278 9.99974 8.99989 9.99974C9.38699 9.99974 9.70192 10.3147 9.70192 10.7018C9.70192 11.0889 9.38699 11.4038 8.99989 11.4038ZM8.99989 8.94505C8.03123 8.94505 7.24316 9.73311 7.24316 10.7018C7.24316 11.6704 8.03123 12.4585 8.99989 12.4585C9.96855 12.4585 10.7566 11.6704 10.7566 10.7018C10.7566 9.73311 9.96855 8.94505 8.99989 8.94505Z" fill="white"/>
</g>
</svg>
