<svg width="32" height="32" viewBox="0 0 32 32" fill="none" xmlns="http://www.w3.org/2000/svg">
<path d="M15.9913 22.4455C19.5488 22.4455 22.4328 19.5615 22.4328 16.004C22.4328 12.4465 19.5488 9.5625 15.9913 9.5625C12.4338 9.5625 9.5498 12.4465 9.5498 16.004C9.5498 19.5615 12.4338 22.4455 15.9913 22.4455Z" fill="#EDF2FA"/>
<path d="M15.991 20.1323C18.269 20.1323 20.1157 18.2856 20.1157 16.0076C20.1157 13.7295 18.269 11.8828 15.991 11.8828C13.7129 11.8828 11.8662 13.7295 11.8662 16.0076C11.8662 18.2856 13.7129 20.1323 15.991 20.1323Z" fill="#FAC600"/>
<path d="M15.9979 22.4469C12.4371 22.4469 9.55056 19.5603 9.55056 15.9995C9.55056 12.4387 12.4371 9.55212 15.9979 9.55212V0.625H13.1956V3.0545C11.6108 3.395 10.1312 4.01862 8.81275 4.87069L7.10025 3.15819L3.15006 7.11131L4.86112 8.82238C4.00912 10.1408 3.3855 11.6204 3.04506 13.2052H0.625V18.7938H3.045C3.3855 20.3786 4.00906 21.8582 4.86106 23.1767L3.15 24.8877L7.10019 28.8409L8.81269 27.1284C10.1311 27.9804 11.6107 28.6041 13.1956 28.9446V31.371L15.9979 31.3726L15.9979 22.4469Z" fill="#FED402"/>
<path d="M29.873 8.71863C30.7014 8.71863 31.3729 8.04708 31.3729 7.21869C31.3729 6.39029 30.7014 5.71875 29.873 5.71875C29.0446 5.71875 28.373 6.39029 28.373 7.21869C28.373 8.04708 29.0446 8.71863 29.873 8.71863Z" fill="#62CD4D"/>
<path d="M29.873 26.2889C30.7014 26.2889 31.3729 25.6174 31.3729 24.789C31.3729 23.9606 30.7014 23.2891 29.873 23.2891C29.0446 23.2891 28.373 23.9606 28.373 24.789C28.373 25.6174 29.0446 26.2889 29.873 26.2889Z" fill="#62CD4D"/>
<path d="M26.499 31.3749C27.3274 31.3749 27.9989 30.7033 27.9989 29.8749C27.9989 29.0465 27.3274 28.375 26.499 28.375C25.6706 28.375 24.999 29.0465 24.999 29.8749C24.999 30.7033 25.6706 31.3749 26.499 31.3749Z" fill="#FF5D5D"/>
<path d="M26.499 3.62488C27.3274 3.62488 27.9989 2.95333 27.9989 2.12494C27.9989 1.29654 27.3274 0.625 26.499 0.625C25.6706 0.625 24.999 1.29654 24.999 2.12494C24.999 2.95333 25.6706 3.62488 26.499 3.62488Z" fill="#FF6677"/>
<path d="M29.873 17.5077C30.7014 17.5077 31.3729 16.8361 31.3729 16.0077C31.3729 15.1794 30.7014 14.5078 29.873 14.5078C29.0446 14.5078 28.373 15.1794 28.373 16.0077C28.373 16.8361 29.0446 17.5077 29.873 17.5077Z" fill="#8BC6F8"/>
<path d="M12.8525 8.02687C13.1737 7.90018 13.3312 7.53718 13.2045 7.21612C13.0778 6.89505 12.7148 6.7373 12.3937 6.86418C10.5809 7.57962 9.03372 8.80755 7.91959 10.4153C6.77872 12.0614 6.17578 13.994 6.17578 16.0038C6.17578 16.349 6.45566 16.6287 6.80072 16.6287C7.14584 16.6287 7.42566 16.3489 7.42566 16.0038C7.42566 12.4591 9.55584 9.32799 12.8525 8.02687Z" fill="black"/>
<path d="M20.1156 15.3826C19.7705 15.3826 19.4907 15.6624 19.4907 16.0075C19.4907 17.9373 17.9208 19.5073 15.9909 19.5073C14.061 19.5073 12.4911 17.9373 12.4911 16.0075C12.4911 14.0778 14.061 12.5077 15.9909 12.5077C16.336 12.5077 16.6158 12.2279 16.6158 11.8827C16.6158 11.5376 16.336 11.2578 15.9909 11.2578C13.372 11.2578 11.2412 13.3885 11.2412 16.0075C11.2412 18.6265 13.372 20.7572 15.9909 20.7572C18.6098 20.7572 20.7406 18.6265 20.7406 16.0075C20.7406 15.6624 20.4608 15.3826 20.1156 15.3826Z" fill="black"/>
<path d="M21.8076 15.9843V16.0079C21.8076 16.3531 22.0875 16.6328 22.4326 16.6328C22.7776 16.6328 23.0575 16.353 23.0575 16.0079V15.9843C23.0575 15.6391 22.7776 15.3594 22.4326 15.3594C22.0875 15.3594 21.8076 15.6391 21.8076 15.9843Z" fill="black"/>
<path d="M19.02 21.0581C18.9038 21.1744 18.8369 21.335 18.8369 21.5C18.8369 21.6644 18.9037 21.8256 19.02 21.9419C19.1364 22.0581 19.2969 22.1244 19.4619 22.1244C19.6263 22.1244 19.7875 22.0581 19.9037 21.9419C20.02 21.8256 20.0869 21.6644 20.0869 21.5C20.0869 21.335 20.02 21.1744 19.9037 21.0581C19.7875 20.9412 19.6263 20.875 19.4619 20.875C19.2975 20.8751 19.1364 20.9413 19.02 21.0581Z" fill="black"/>
<path d="M29.8729 22.6599C29.5139 22.6599 29.1756 22.7497 28.8788 22.9076L27.0293 21.0581C26.912 20.9409 26.7531 20.875 26.5873 20.875H22.0302C21.6851 20.875 21.4053 21.1548 21.4053 21.4999C21.4053 21.8451 21.6851 22.1249 22.0302 22.1249H26.3284L27.9951 23.7916C27.8376 24.0882 27.748 24.4261 27.748 24.7846C27.748 25.9563 28.7011 26.9095 29.8728 26.9095C31.0445 26.9095 31.9977 25.9563 31.9977 24.7846C31.9977 23.6129 31.0445 22.6599 29.8729 22.6599ZM29.8729 25.6597C29.3904 25.6597 28.998 25.2672 28.998 24.7847C28.998 24.3023 29.3905 23.9098 29.8729 23.9098C30.3554 23.9098 30.7478 24.3023 30.7478 24.7847C30.7478 25.2672 30.3553 25.6597 29.8729 25.6597Z" fill="black"/>
<path d="M26.4985 27.7502C26.2013 27.7502 25.9182 27.8118 25.6611 27.9226L23.761 24.4566C23.6513 24.2564 23.4412 24.132 23.213 24.132H16.6228V22.4494C16.6228 22.1043 16.3429 21.8245 15.9978 21.8245C12.7873 21.8245 10.1754 19.2126 10.1754 16.0021C10.1754 12.8305 12.7246 10.2434 15.8816 10.1812C15.9172 10.1876 15.9536 10.1914 15.9911 10.1914C18.4099 10.1914 20.6014 11.7139 21.4445 13.9799C21.5381 14.2316 21.7766 14.3871 22.0303 14.3871C22.1026 14.3871 22.1763 14.3744 22.2481 14.3477C22.5716 14.2274 22.7363 13.8676 22.6159 13.5441C22.2743 12.6257 21.7495 11.8086 21.0937 11.1264H26.5876C26.7534 11.1264 26.9123 11.0605 27.0296 10.9433L28.8791 9.09381C29.1759 9.25169 29.5142 9.3415 29.8732 9.3415C31.0449 9.3415 31.9981 8.38831 31.9981 7.21663C31.9981 6.04494 31.0449 5.09175 29.8732 5.09175C28.7015 5.09175 27.7483 6.04494 27.7483 7.21663C27.7483 7.57525 27.8379 7.91313 27.9955 8.20975L26.3288 9.87644H19.4902C18.6214 9.37962 17.6458 9.06406 16.6229 8.97125V7.84156H23.2129C23.4406 7.84156 23.6502 7.71781 23.7601 7.51856L25.6593 4.07675C25.9169 4.18787 26.2005 4.24975 26.4985 4.24975C27.6702 4.24975 28.6234 3.29656 28.6234 2.12488C28.6234 0.953188 27.6702 0 26.4985 0C25.3268 0 24.3736 0.953188 24.3736 2.12488C24.3736 2.53463 24.4905 2.91731 24.6922 3.24219L22.844 6.59156H16.6229V0.627563C16.6229 0.282375 16.343 0.002625 15.9979 0.002625H13.1956C12.8504 0.002625 12.5706 0.282438 12.5706 0.627563V2.5615C11.2794 2.88863 10.0499 3.39806 8.90425 4.08094L7.542 2.71875C7.42475 2.60156 7.26575 2.53569 7.09994 2.53569C6.93419 2.53569 6.77519 2.60162 6.658 2.71894L2.70781 6.67206C2.46388 6.91619 2.46394 7.31169 2.70794 7.55569L4.06862 8.91644C3.38581 10.0622 2.87638 11.2916 2.54931 12.5828H0.624938C0.279813 12.5828 0 12.8626 0 13.2078V18.7963C0 19.1415 0.279875 19.4212 0.624938 19.4212H2.54944C2.87644 20.7124 3.38587 21.9418 4.06875 23.0876L2.70806 24.4483C2.46406 24.6923 2.464 25.0878 2.70794 25.3319L6.65812 29.2851C6.77531 29.4023 6.93431 29.4683 7.10006 29.4683H7.10019C7.26594 29.4683 7.42488 29.4024 7.54213 29.2852L8.90431 27.9231C10.0501 28.6059 11.2795 29.1154 12.5706 29.4426V31.3734C12.5706 31.7185 12.8503 31.9982 13.1952 31.9984H15.9975H15.9979C16.1636 31.9984 16.3225 31.9341 16.4397 31.817C16.5569 31.6997 16.6229 31.5407 16.6229 31.3749V25.3819H22.8429L24.6929 28.7566C24.4908 29.0817 24.3737 29.4648 24.3737 29.875C24.3737 31.0467 25.3269 31.9999 26.4986 31.9999C27.6703 31.9999 28.6234 31.0467 28.6234 29.875C28.6234 28.7034 27.6702 27.7502 26.4985 27.7502ZM29.8732 6.34156C30.3557 6.34156 30.7481 6.73406 30.7481 7.2165C30.7481 7.69894 30.3556 8.09144 29.8732 8.09144C29.3907 8.09144 28.9983 7.69894 28.9983 7.2165C28.9983 6.73406 29.3907 6.34156 29.8732 6.34156ZM26.4985 1.24994C26.981 1.24994 27.3734 1.64244 27.3734 2.12488C27.3734 2.60731 26.9809 2.99981 26.4985 2.99981C26.016 2.99981 25.6236 2.60731 25.6236 2.12488C25.6236 1.64244 26.016 1.24994 26.4985 1.24994ZM15.3729 30.7498L13.8205 30.7489V28.9471C13.8205 28.6526 13.6148 28.398 13.3268 28.3361C11.8379 28.0162 10.4333 27.4342 9.15187 26.6061C8.9045 26.4462 8.57912 26.4807 8.37075 26.6891L7.10031 27.9596L4.03363 24.8906L5.303 23.6212C5.51125 23.4129 5.54588 23.0875 5.38594 22.8401C4.55788 21.5586 3.97581 20.1541 3.65606 18.6652C3.59419 18.3772 3.33963 18.1714 3.04506 18.1714H1.24987V13.8328H3.04494C3.33956 13.8328 3.59406 13.6271 3.65594 13.3391C3.97575 11.8502 4.55775 10.4456 5.38581 9.16419C5.54575 8.91681 5.51113 8.59137 5.30288 8.38306L4.0335 7.11369L7.10019 4.04469L8.37062 5.31519C8.579 5.52356 8.90437 5.558 9.15175 5.39819C10.4331 4.57013 11.8377 3.988 13.3267 3.66812C13.6147 3.60625 13.8204 3.35169 13.8204 3.05713V1.25256H15.3728V8.95719C11.7649 9.27469 8.92537 12.3131 8.92537 16.0021C8.92537 19.6911 11.7647 22.7296 15.3727 23.0471L15.3729 30.7498ZM26.4985 30.7501C26.016 30.7501 25.6236 30.3576 25.6236 29.8751C25.6236 29.3926 26.0161 29.0002 26.4985 29.0002C26.981 29.0002 27.3734 29.3927 27.3734 29.8751C27.3734 30.3576 26.9809 30.7501 26.4985 30.7501Z" fill="black"/>
<path d="M29.8728 13.8828C28.9185 13.8828 28.1094 14.5151 27.8419 15.3827H25.998C25.6529 15.3827 25.373 15.6626 25.373 16.0077C25.373 16.3529 25.6529 16.6326 25.998 16.6326H27.8418C28.1093 17.5002 28.9185 18.1326 29.8727 18.1326C31.0444 18.1326 31.9976 17.1794 31.9976 16.0077C31.9977 14.836 31.0444 13.8828 29.8728 13.8828ZM29.8728 16.8826C29.3903 16.8826 28.9979 16.4901 28.9979 16.0077C28.9979 15.5252 29.3904 15.1327 29.8728 15.1327C30.3553 15.1327 30.7477 15.5252 30.7477 16.0077C30.7477 16.4901 30.3552 16.8826 29.8728 16.8826Z" fill="black"/>
</svg>
