<svg width="32" height="32" viewBox="0 0 32 32" fill="none" xmlns="http://www.w3.org/2000/svg">
<path fill-rule="evenodd" clip-rule="evenodd" d="M22.6132 26.9674L11.7324 26.7534L14.4293 21.2685L19.7021 21.0469L22.6132 26.9674Z" fill="#B1D7FE"/>
<path fill-rule="evenodd" clip-rule="evenodd" d="M9.76936 26.1484H24.4708C25.0054 26.1484 25.4429 26.5858 25.4429 27.1204C25.4429 27.6551 25.0054 28.0924 24.4708 28.0924H9.76936C9.23473 28.0924 8.79736 27.6551 8.79736 27.1204C8.79736 26.5858 9.23473 26.1484 9.76936 26.1484Z" fill="#B1D7FE"/>
<path fill-rule="evenodd" clip-rule="evenodd" d="M4.04861 1.47656H30.1918C30.9282 1.47656 31.5307 2.07902 31.5307 2.81546V20.8725C31.5307 21.6089 30.9282 22.2114 30.1918 22.2114H4.04861C3.31218 22.2114 2.70972 21.6089 2.70972 20.8725V2.81546C2.70972 2.07902 3.31218 1.47656 4.04861 1.47656Z" fill="#B1D7FE"/>
<path fill-rule="evenodd" clip-rule="evenodd" d="M4.70723 3.24219H29.5334C29.6614 3.24219 29.7662 3.34698 29.7662 3.47505V20.215C29.7662 20.3431 29.6614 20.4479 29.5334 20.4479H4.70723C4.57916 20.4479 4.47437 20.3431 4.47437 20.215V3.47505C4.47437 3.34698 4.57916 3.24219 4.70723 3.24219Z" fill="white"/>
<path fill-rule="evenodd" clip-rule="evenodd" d="M18.1287 14.073H8.1675C8.02939 14.073 7.9165 13.9601 7.9165 13.822V12.0401C7.9165 11.902 8.02939 11.7891 8.1675 11.7891H18.1287C18.2668 11.7891 18.3797 11.902 18.3797 12.0401V13.822C18.3797 13.9601 18.2668 14.073 18.1287 14.073Z" fill="#FFD54F"/>
<path fill-rule="evenodd" clip-rule="evenodd" d="M11.6497 5.04688H7.53982C7.40177 5.04688 7.28882 5.15976 7.28882 5.29787V9.95447C7.28882 10.0925 7.40177 10.2055 7.53982 10.2055H11.6497C11.7877 10.2055 11.9007 10.0926 11.9007 9.95447V5.29794C11.9007 5.15982 11.7877 5.04688 11.6497 5.04688Z" fill="#FF6372"/>
<path fill-rule="evenodd" clip-rule="evenodd" d="M18.1287 5.04688H14.7561C14.6181 5.04688 14.5051 5.15976 14.5051 5.29787V9.95447C14.5051 10.0925 14.6181 10.2055 14.7561 10.2055H18.1287C18.2667 10.2055 18.3797 10.0926 18.3797 9.95447V5.29794C18.3797 5.15982 18.2668 5.04688 18.1287 5.04688Z" fill="#FFD54F"/>
<path fill-rule="evenodd" clip-rule="evenodd" d="M26.7003 7.33084H21.9707C21.8327 7.33084 21.7197 7.21789 21.7197 7.07984V5.29787C21.7197 5.15982 21.8327 5.04688 21.9707 5.04688H26.7003C26.8384 5.04688 26.9513 5.15982 26.9513 5.29787V7.07984C26.9513 7.21789 26.8384 7.33084 26.7003 7.33084Z" fill="#FF6372"/>
<path fill-rule="evenodd" clip-rule="evenodd" d="M2.82136 30.6012L6.32939 24.5256C7.02817 24.7696 7.77898 24.9027 8.56096 24.9027C12.2987 24.9027 15.3287 21.8726 15.3287 18.1349C15.3287 14.3973 12.2987 11.3672 8.56096 11.3672C4.82327 11.3672 1.79321 14.3973 1.79321 18.1349C1.79321 20.1841 2.70396 22.0206 4.14281 23.2615L0.62625 29.3534C0.294053 29.9651 0.507967 30.7241 1.09637 31.0637C1.69689 31.4105 2.47417 31.2006 2.82136 30.6012Z" fill="#B1D7FE"/>
<path d="M12.1969 21.7795C14.2066 19.7698 14.2066 16.5114 12.1969 14.5017C10.1872 12.4921 6.92885 12.4921 4.91915 14.5017C2.90945 16.5114 2.90945 19.7698 4.91915 21.7795C6.92885 23.7892 10.1872 23.7892 12.1969 21.7795Z" fill="white"/>
<path fill-rule="evenodd" clip-rule="evenodd" d="M8.559 22.8064C5.98073 22.8064 3.88301 20.7086 3.88301 18.1301C3.88301 15.5518 5.98073 13.4541 8.559 13.4541C11.1376 13.4541 13.2353 15.5518 13.2353 18.1301C13.2354 20.7086 11.1376 22.8064 8.559 22.8064ZM8.559 12.5128C5.46166 12.5128 2.9417 15.0328 2.9417 18.1301C2.9417 21.2277 5.46166 23.7477 8.559 23.7477C11.6569 23.7477 14.1766 21.2277 14.1766 18.1301C14.1766 15.0328 11.657 12.5128 8.559 12.5128ZM27.248 14.0675C27.248 14.3276 27.037 14.5383 26.7771 14.5383H21.8908C21.6313 14.5383 21.4203 14.3276 21.4203 14.0675C21.4203 13.8077 21.6312 13.597 21.8908 13.597H26.7771C27.037 13.597 27.248 13.8077 27.248 14.0675ZM27.248 11.7836C27.248 12.0434 27.037 12.2541 26.7771 12.2541H21.8908C21.6313 12.2541 21.4203 12.0434 21.4203 11.7836C21.4203 11.5238 21.6312 11.3128 21.8908 11.3128H26.7771C27.037 11.3129 27.248 11.5238 27.248 11.7836ZM27.248 9.49952C27.248 9.75962 27.037 9.97034 26.7771 9.97034H21.8908C21.6313 9.97034 21.4203 9.75962 21.4203 9.49952C21.4203 9.23968 21.6312 9.02903 21.8908 9.02903H26.7771C27.037 9.02896 27.248 9.23968 27.248 9.49952ZM26.4791 6.85374H22.189V5.5109H26.4791V6.85374ZM26.95 4.56959H21.7183C21.4584 4.56959 21.2478 4.7803 21.2478 5.04008V7.32424C21.2478 7.58402 21.4585 7.79474 21.7183 7.79474H26.95C27.2095 7.79474 27.4205 7.58402 27.4205 7.32424V5.04008C27.4205 4.7803 27.2095 4.56959 26.95 4.56959ZM17.9075 9.72825H14.9738V5.5109H17.9075V9.72825ZM18.3783 4.56959H14.5033C14.2435 4.56959 14.0328 4.7803 14.0328 5.04008V10.1987C14.0328 10.4588 14.2436 10.6696 14.5033 10.6696H18.3783C18.6378 10.6696 18.8488 10.4588 18.8488 10.1987V5.04008C18.8488 4.7803 18.6378 4.56959 18.3783 4.56959ZM11.4288 9.72825H7.75831V5.5109H11.4288V9.72825ZM11.8993 4.56959H7.28781C7.0274 4.56959 6.81731 4.7803 6.81731 5.04008V10.1987C6.81731 10.4588 7.0274 10.6696 7.28781 10.6696H11.8993C12.1591 10.6696 12.3698 10.4588 12.3698 10.1987V5.04008C12.3698 4.7803 12.1591 4.56959 11.8993 4.56959ZM31.0587 20.8664V2.80952C31.0587 2.33073 30.669 1.941 30.1902 1.941H4.04728C3.5685 1.941 3.17908 2.33073 3.17908 2.80952V13.2937C3.4324 13.0117 3.70787 12.7501 4.00229 12.511V3.23502C4.00229 2.97524 4.21301 2.76452 4.47279 2.76452H29.7647C30.0245 2.76452 30.2355 2.97524 30.2355 3.23502V20.4408C30.2355 20.7007 30.0245 20.9113 29.7647 20.9113H15.2419C15.1233 21.1951 14.9871 21.4703 14.8347 21.7345H30.1902C30.669 21.7346 31.0587 21.3452 31.0587 20.8664ZM21.4516 25.6693L19.9801 22.6759H14.2574L12.7853 25.6693H21.4516ZM24.9706 27.1119C24.9706 27.3886 24.746 27.6134 24.4693 27.6134H9.76844C9.49146 27.6134 9.26688 27.3886 9.26688 27.1119C9.26688 26.8355 9.49146 26.6106 9.76844 26.6106H24.4693C24.746 26.6106 24.9706 26.8355 24.9706 27.1119ZM15.7319 19.106C15.692 19.4001 15.6349 19.6884 15.5606 19.9701H29.2942V3.70583H4.94354V11.8615C6.00822 11.2451 7.24307 10.8918 8.559 10.8918C9.41239 10.8918 10.2318 11.0407 10.9926 11.3129H18.3783C18.6378 11.3129 18.8488 11.5239 18.8488 11.7837V14.0676C18.8488 14.3277 18.6378 14.5384 18.3783 14.5384H14.8421C15.0845 14.961 15.2851 15.4104 15.4396 15.8809H26.7771C27.0369 15.8809 27.248 16.0916 27.248 16.3514C27.248 16.6115 27.037 16.8222 26.7771 16.8222H15.6793C15.7571 17.2466 15.7979 17.6837 15.7979 18.1302C15.7979 18.1417 15.7974 18.1533 15.7974 18.1651H26.7772C27.037 18.1651 27.248 18.3759 27.248 18.6356C27.248 18.8957 27.0371 19.1061 26.7772 19.1061H15.7319V19.106ZM12.7814 12.2541C13.3117 12.6364 13.7888 13.0886 14.1977 13.597H17.9075V12.2541H12.7814ZM6.4826 24.0764C7.14957 24.3093 7.84823 24.4271 8.559 24.4271C12.0315 24.4271 14.8566 21.6023 14.8566 18.1301C14.8566 14.6579 12.0316 11.8331 8.559 11.8331C5.08705 11.8331 2.26199 14.6579 2.26199 18.1301C2.26199 19.9632 3.05916 21.702 4.44876 22.9002C4.6195 23.0478 4.66179 23.2964 4.54878 23.492L1.03542 29.578C0.83211 29.9592 0.963257 30.4394 1.33016 30.6513C1.70803 30.8693 2.19303 30.7389 2.41259 30.3604L5.9203 24.2854C6.03344 24.0897 6.26926 24.0021 6.4826 24.0764ZM30.1902 1H4.04728C3.04975 1 2.23777 1.81167 2.23777 2.80952V14.6082C1.6542 15.6513 1.32099 16.8524 1.32099 18.1301C1.32099 20.1065 2.12645 21.987 3.54416 23.3495L0.217288 29.1132C0.215217 29.1167 0.21346 29.1203 0.210762 29.1241C-0.237837 29.9502 0.0533226 31.0011 0.85972 31.4665C1.13136 31.6233 1.42817 31.698 1.72171 31.698C2.32123 31.698 2.90536 31.3872 3.22733 30.8321C3.22733 30.8321 3.22733 30.8318 3.22733 30.8316L6.5463 25.0841C7.19877 25.2731 7.87408 25.3684 8.55906 25.3684C9.98687 25.3684 11.3182 24.9533 12.4408 24.2374L11.7368 25.6693H9.76844C8.97277 25.6693 8.32557 26.3165 8.32557 27.1119C8.32557 27.9076 8.9727 28.5544 9.76844 28.5544H24.4693C25.2651 28.5544 25.9119 27.9076 25.9119 27.1119C25.9119 26.3165 25.265 25.6693 24.4693 25.6693H22.5009L21.0288 22.6759H30.1902C31.188 22.6759 32 21.8642 32 20.8664V2.80952C32 1.81167 31.188 1 30.1902 1Z" fill="black"/>
</svg>
