<svg width="32" height="32" viewBox="0 0 32 32" fill="none" xmlns="http://www.w3.org/2000/svg">
<path d="M26.7771 10.0857C26.7314 7.20572 24.3771 4.89714 21.4857 4.89714C20.1029 4.89714 18.8571 5.42286 17.92 6.30286C16.4229 4.30286 14.0229 3 11.3371 3C6.75429 3 3.05143 6.72571 3.05143 11.2857C3.05143 11.8457 3.09714 12.4057 3.22286 12.9429C1.29143 14.0286 0 16.0971 0 18.4629C0 21.6114 2.27771 24.2126 5.26857 24.7291V19.3909C5.26857 17.2286 7.02171 15.4709 9.17714 15.4709H22.8229C24.9783 15.4709 26.7314 17.2297 26.7314 19.3909V24.4709C29.7886 23.4971 32 20.6343 32 17.2629C32 13.9143 29.8057 11.0686 26.7771 10.0857Z" fill="#428BC6"/>
<path d="M17.4736 25.4283C17.0256 25.69 16.5182 25.8294 16.0005 25.8294C15.4827 25.8294 14.9753 25.6911 14.5307 25.4305L7.32617 21.1562V28.6111C7.32617 29.6397 8.14903 30.474 9.1776 30.474H22.8233C23.8519 30.474 24.6747 29.6397 24.6747 28.6111V21.1562L17.4736 25.4283Z" fill="#428BC6"/>
<path d="M15.5762 23.6599C15.7007 23.7331 15.8493 23.7742 16.0002 23.7742C16.151 23.7742 16.2996 23.7342 16.4276 23.6576L24.5784 18.8233C24.3407 18.0736 23.6527 17.5273 22.823 17.5273H9.1773C8.34759 17.5273 7.66073 18.0736 7.42188 18.8233L15.5762 23.6599Z" fill="#428BC6"/>
</svg>
