<svg width="16" height="16" viewBox="0 0 16 16" fill="none" xmlns="http://www.w3.org/2000/svg">
<path d="M12.8032 12.2922V12.5336L12.974 12.3629L14.7491 10.5878L14.6784 10.5171L14.7491 10.5878C15.0124 10.3245 15.4392 10.3245 15.7025 10.5878C15.9658 10.8511 15.9658 11.2779 15.7025 11.5412L12.6057 14.638C12.3425 14.9013 11.9157 14.9013 11.6524 14.638L8.55558 11.5412C8.29228 11.2779 8.29228 10.8511 8.55557 10.5878C8.81887 10.3245 9.24567 10.3245 9.50897 10.5878L9.57968 10.5171L9.50897 10.5878L11.2841 12.3629L11.4549 12.5336V12.2922V1.77419C11.4549 1.40185 11.7567 1.1 12.1291 1.1C12.5014 1.1 12.8032 1.40185 12.8032 1.77419V12.2922ZM3.19678 3.64327V3.40184L3.02607 3.57256L1.25092 5.3477C0.987634 5.61099 0.560751 5.61099 0.297465 5.3477C0.0341785 5.08442 0.0341785 4.65753 0.297465 4.39425L3.39424 1.29747C3.65753 1.03418 4.08441 1.03418 4.3477 1.29747L7.44445 4.39425L7.51516 4.32354L7.44445 4.39425C7.70774 4.65753 7.70774 5.08441 7.44445 5.3477C7.18115 5.61099 6.75435 5.61099 6.49105 5.3477L4.71588 3.57255L4.54517 3.40185V3.64327V14.1613C4.54517 14.5336 4.24332 14.8355 3.87097 14.8355C3.49863 14.8355 3.19678 14.5336 3.19678 14.1613V3.64327Z" fill="#10A37F" stroke="white" stroke-width="0.2"/>
</svg>
