<svg width="12" height="12" viewBox="0 0 12 12" fill="none" xmlns="http://www.w3.org/2000/svg">
<path d="M9.62743 9.21915V9.33986L9.71279 9.25451L11.0442 7.9232C11.2514 7.71596 11.5873 7.71596 11.7946 7.9232C12.0018 8.13043 12.0018 8.46636 11.7946 8.6736L9.47199 10.9962C9.26475 11.2034 8.92882 11.2034 8.72159 10.9962L6.399 8.6736C6.19177 8.46636 6.19177 8.13043 6.399 7.9232C6.60624 7.71596 6.94217 7.71596 7.1494 7.9232L7.18476 7.88784L7.14941 7.9232L8.48079 9.25451L8.56614 9.33986V9.21915V1.33065C8.56614 1.03758 8.80373 0.8 9.09679 0.8C9.38985 0.8 9.62743 1.03758 9.62743 1.33065V9.21915ZM2.37258 2.73245V2.61174L2.28723 2.69709L0.955868 4.02845C0.74864 4.23568 0.412649 4.23568 0.205421 4.02845C-0.00180693 3.82123 -0.00180693 3.48524 0.205421 3.27801L2.52801 0.955423C2.73523 0.748195 3.07122 0.748195 3.27845 0.955423L5.60101 3.27801C5.80825 3.48524 5.80825 3.82123 5.60101 4.02845C5.39378 4.23568 5.05785 4.23568 4.85061 4.02845L3.51923 2.69709L3.43388 2.61174V2.73245V10.621C3.43388 10.914 3.19629 11.1516 2.90323 11.1516C2.61016 11.1516 2.37258 10.914 2.37258 10.621V2.73245Z" fill="#262626" stroke="white" stroke-width="0.1"/>
</svg>
