<svg xmlns="http://www.w3.org/2000/svg" width="18" height="17.331" viewBox="0 0 18 17.331">
  <path id="Path_2964" data-name="Path 2964" d="M32.689,299.876a.671.671,0,0,0-.316-.1.678.678,0,0,0-.326.064,1.667,1.667,0,1,1,0-3.013.667.667,0,0,0,.953-.6v-3.557a1.332,1.332,0,0,0-1.333-1.333H28.648a3,3,0,1,0-5.961,0H19.667a1.332,1.332,0,0,0-1.333,1.333v2.684a3.007,3.007,0,0,0-2.52.928,2.976,2.976,0,0,0-.807,2.251,3.005,3.005,0,0,0,3.327,2.788V304a1.334,1.334,0,0,0,1.333,1.333h12A1.334,1.334,0,0,0,33,304V300.44a.666.666,0,0,0-.311-.564ZM31.667,304h-12V300.44a.664.664,0,0,0-.082-.321.665.665,0,0,0-.87-.281,1.667,1.667,0,1,1,0-3.013.667.667,0,0,0,.953-.6v-3.557h3.891a.67.67,0,0,0,.564-.31.668.668,0,0,0,.039-.643,1.667,1.667,0,1,1,3.013,0,.667.667,0,0,0,.6.953h3.89v2.686a3,3,0,1,0,0,5.962Z" transform="translate(-15 -288)" fill="#e0f6fe"/>
</svg>
