<svg width="32" height="32" viewBox="0 0 32 32" fill="none" xmlns="http://www.w3.org/2000/svg">
<path d="M28.1058 2.03125H17.9326C17.8129 2.03125 17.698 2.07879 17.6133 2.16341C17.5287 2.24803 17.481 2.36282 17.481 2.48254V9.32562C17.481 9.4454 17.5285 9.56027 17.6132 9.64496C17.6979 9.72966 17.8128 9.77724 17.9326 9.77724H18.8966C19.0335 9.77724 19.1648 9.83161 19.2616 9.92841C19.3584 10.0252 19.4128 10.1565 19.4128 10.2934V11.3256L20.8102 9.92807C20.8582 9.88015 20.9151 9.84213 20.9777 9.8162C21.0403 9.79026 21.1074 9.77691 21.1752 9.77691H28.1058C28.2255 9.77681 28.3403 9.72919 28.4249 9.6445C28.5095 9.55982 28.557 9.44501 28.557 9.3253V2.48254C28.5569 2.36289 28.5094 2.24816 28.4247 2.16355C28.3401 2.07893 28.2254 2.03135 28.1058 2.03125Z" fill="#FFDB4E"/>
<path d="M10.1459 6.9925C10.193 6.92149 10.2569 6.86323 10.332 6.82293C10.4071 6.78263 10.4909 6.76154 10.5761 6.76154H16.4495V4.90625H3.00885C2.82229 4.90644 2.64343 4.98063 2.51151 5.11254C2.37959 5.24445 2.30538 5.4233 2.30518 5.60986V8.17695H9.36084L10.1459 6.9925Z" fill="#B1D7FE"/>
<path d="M5.54102 21.8828C4.64928 21.8826 3.77751 22.1469 3.03597 22.6422C2.29444 23.1375 1.71644 23.8416 1.3751 24.6654C1.03376 25.4893 0.944396 26.3958 1.11832 27.2704C1.29224 28.145 1.72164 28.9484 2.3522 29.579C2.98275 30.2095 3.78615 30.6389 4.66076 30.8129C5.53538 30.9868 6.44193 30.8974 7.26576 30.5561C8.08959 30.2147 8.79368 29.6367 9.28898 28.8952C9.78429 28.1537 10.0486 27.2819 10.0484 26.3902C10.0468 25.1952 9.57137 24.0497 8.72643 23.2048C7.88148 22.3598 6.73595 21.8844 5.54102 21.8828Z" fill="#FF6677"/>
<path d="M24.8941 17.1804V15.0156H16.2519C16.2197 15.0161 16.1889 15.0291 16.1661 15.0519C16.1433 15.0747 16.1303 15.1055 16.1299 15.1378V30.7679C16.1303 30.8001 16.1433 30.8309 16.1661 30.8537C16.1889 30.8765 16.2197 30.8895 16.2519 30.8899H28.0436C28.0758 30.8895 28.1067 30.8765 28.1295 30.8537C28.1523 30.8309 28.1652 30.8001 28.1657 30.7679V25.6716L27.3293 27.1198C27.2988 27.1726 27.2592 27.2196 27.2123 27.2586L24.8916 29.1876C24.8105 29.255 24.7107 29.296 24.6055 29.305C24.5004 29.314 24.3951 29.2905 24.3037 29.2378C24.2123 29.1851 24.1393 29.1056 24.0945 29.0101C24.0496 28.9146 24.0351 28.8077 24.0529 28.7037L24.5632 25.7284C24.5735 25.6683 24.5944 25.6105 24.6248 25.5576L28.1656 19.424V18.3346H26.0484C25.7424 18.3342 25.449 18.2125 25.2326 17.9962C25.0162 17.7798 24.8945 17.4864 24.8941 17.1804Z" fill="white"/>
<path d="M25.4107 13.9877C25.4791 13.9877 25.5469 14.0013 25.61 14.0277C25.6731 14.0541 25.7304 14.0928 25.7784 14.1416L28.0068 16.4027V10.8084H21.3891L19.2618 12.9358C19.1896 13.0079 19.0977 13.0569 18.9977 13.0768C18.8976 13.0967 18.794 13.0864 18.6997 13.0474C18.6055 13.0084 18.5249 12.9424 18.4682 12.8576C18.4115 12.7728 18.3811 12.6732 18.381 12.5712V10.8084H17.9334C17.54 10.8081 17.1627 10.6516 16.8845 10.3734C16.6063 10.0952 16.4499 9.71798 16.4495 9.32454V7.78906H10.8532L10.0681 8.97364C10.0211 9.04466 9.95714 9.10291 9.88207 9.14321C9.80701 9.18351 9.72314 9.20461 9.63794 9.20461H2.30518V21.8927C3.2471 21.2141 4.37843 20.8486 5.53933 20.8479C6.70022 20.8473 7.83199 21.2113 8.77473 21.8888C9.71747 22.5662 10.4235 23.5227 10.7931 24.6232C11.1627 25.7237 11.1772 26.9125 10.8345 28.0217H15.0981V15.1421C15.0985 14.836 15.2202 14.5426 15.4366 14.3262C15.653 14.1098 15.9464 13.9881 16.2524 13.9877H25.4107Z" fill="white"/>
<path d="M3.87529 6.53967C3.8751 6.43748 3.90522 6.33754 3.96183 6.25247C4.01844 6.1674 4.09901 6.10103 4.19335 6.06175C4.28768 6.02247 4.39155 6.01205 4.4918 6.0318C4.59206 6.05155 4.68421 6.10059 4.7566 6.17272C4.82898 6.24484 4.87836 6.33681 4.89847 6.437C4.91859 6.53718 4.90854 6.64109 4.86961 6.73556C4.83067 6.83004 4.76459 6.91085 4.67973 6.96777C4.59486 7.02469 4.49503 7.05517 4.39284 7.05534C4.25596 7.05516 4.12471 7.00083 4.02775 6.90421C3.93078 6.8076 3.87598 6.67655 3.87529 6.53967ZM6.1011 7.05534C6.20336 7.05554 6.30338 7.02537 6.38849 6.96868C6.4736 6.91198 6.53997 6.8313 6.5792 6.73686C6.61842 6.64241 6.62873 6.53845 6.60883 6.43815C6.58892 6.33784 6.5397 6.24569 6.46739 6.17338C6.39507 6.10107 6.30293 6.05184 6.20262 6.03194C6.10231 6.01203 5.99835 6.02235 5.90391 6.06157C5.80946 6.10079 5.72878 6.16716 5.67209 6.25227C5.61539 6.33738 5.58523 6.4374 5.58542 6.53967C5.58588 6.67625 5.64032 6.80711 5.73687 6.90371C5.83343 7.00031 5.96452 7.05482 6.1011 7.05534ZM7.80916 7.05534C7.91142 7.05552 8.01144 7.02535 8.09654 6.96865C8.18164 6.91194 8.248 6.83126 8.28721 6.73681C8.32642 6.64237 8.33673 6.53841 8.31682 6.43811C8.29691 6.3378 8.24768 6.24566 8.17536 6.17336C8.10305 6.10105 8.0109 6.05183 7.91059 6.03193C7.81028 6.01203 7.70633 6.02235 7.61189 6.06157C7.51745 6.1008 7.43677 6.16717 7.38008 6.25228C7.32339 6.33739 7.29323 6.43741 7.29342 6.53967C7.29354 6.67636 7.34788 6.80743 7.44452 6.90411C7.54116 7.00078 7.67246 7.05517 7.80916 7.05534ZM8.4789 26.3866C8.47894 26.4802 8.45351 26.5721 8.40533 26.6524C8.35716 26.7327 8.28805 26.7983 8.20541 26.8423L4.17465 28.9893C4.096 29.0312 4.00785 29.052 3.91878 29.0497C3.8297 29.0474 3.74273 29.0221 3.66634 28.9763C3.58994 28.9304 3.52672 28.8655 3.48283 28.788C3.43894 28.7105 3.41587 28.6229 3.41588 28.5338V24.2418C3.41587 24.1527 3.43894 24.0651 3.48283 23.9875C3.52672 23.91 3.58994 23.8451 3.66634 23.7992C3.74273 23.7534 3.8297 23.7281 3.91878 23.7258C4.00785 23.7235 4.096 23.7443 4.17465 23.7862L8.20483 25.9311C8.28749 25.9751 8.35664 26.0407 8.40487 26.1209C8.4531 26.2011 8.47886 26.293 8.4789 26.3866ZM6.86419 26.3872L4.44813 25.1015V27.6741L6.86419 26.3872ZM13.3339 11.4224V18.732C13.3339 18.8689 13.2795 19.0002 13.1828 19.097C13.086 19.1938 12.9547 19.2482 12.8178 19.2482H4.52084C4.38396 19.2482 4.25268 19.1938 4.15588 19.097C4.05909 19.0002 4.00471 18.8689 4.00471 18.732V11.4224C4.00471 11.2855 4.05909 11.1542 4.15588 11.0574C4.25268 10.9606 4.38396 10.9062 4.52084 10.9062H12.8176C12.8854 10.9062 12.9525 10.9195 13.0152 10.9455C13.0778 10.9714 13.1347 11.0094 13.1827 11.0573C13.2306 11.1053 13.2687 11.1622 13.2946 11.2248C13.3206 11.2874 13.3339 11.3546 13.3339 11.4224ZM5.03716 11.9385V17.4099L6.84226 15.4504C6.88987 15.3987 6.94754 15.3573 7.01172 15.3287C7.0759 15.3001 7.14525 15.2849 7.21551 15.284C7.28577 15.2832 7.35546 15.2967 7.42032 15.3237C7.48518 15.3507 7.54384 15.3907 7.59271 15.4412L8.16335 16.0309L10.0169 14.0185C10.0645 13.9668 10.1222 13.9254 10.1864 13.8968C10.2505 13.8682 10.3199 13.853 10.3902 13.8521C10.4604 13.8512 10.5301 13.8647 10.595 13.8918C10.6599 13.9188 10.7185 13.9588 10.7674 14.0093L12.3017 15.5944V11.9385H5.03716ZM7.23122 16.552L5.69826 18.2156H8.84064L7.23122 16.552ZM12.3022 18.2156V17.079L10.4059 15.1202L8.88238 16.7743L10.277 18.2156H12.3022ZM6.33871 13.7229C6.33871 13.4566 6.41767 13.1963 6.56562 12.9749C6.71357 12.7534 6.92385 12.5809 7.16987 12.479C7.41589 12.3771 7.68661 12.3504 7.94778 12.4024C8.20896 12.4543 8.44886 12.5826 8.63715 12.7709C8.82545 12.9592 8.95367 13.1991 9.00562 13.4603C9.05756 13.7214 9.03089 13.9921 8.92897 14.2382C8.82706 14.4842 8.65448 14.6945 8.43306 14.8424C8.21164 14.9903 7.95132 15.0693 7.68503 15.0693C7.32799 15.069 6.98564 14.9271 6.73313 14.6746C6.48062 14.4222 6.3391 14.0799 6.33871 13.7229ZM7.37097 13.7229C7.37095 13.785 7.38937 13.8458 7.42388 13.8974C7.45839 13.9491 7.50745 13.9894 7.56485 14.0132C7.62225 14.0369 7.68542 14.0432 7.74636 14.031C7.8073 14.0189 7.86328 13.989 7.90722 13.9451C7.95115 13.9011 7.98107 13.8452 7.99319 13.7842C8.00531 13.7233 7.99908 13.6601 7.9753 13.6027C7.95151 13.5453 7.91124 13.4962 7.85957 13.4617C7.80791 13.4272 7.74716 13.4088 7.68503 13.4088C7.60168 13.4088 7.52172 13.4418 7.46273 13.5007C7.40374 13.5596 7.37107 13.6395 7.37097 13.7229ZM31.7921 19.3995L29.1985 23.8903V30.7741C29.1982 31.0802 29.0765 31.3736 28.8601 31.59C28.6437 31.8064 28.3503 31.9281 28.0442 31.9285H16.2521C15.9461 31.9281 15.6527 31.8064 15.4362 31.59C15.2198 31.3736 15.0981 31.0802 15.0977 30.7741V29.0554H10.3945C10.0233 29.7318 9.51489 30.3232 8.90181 30.7917C8.28874 31.2602 7.58453 31.5955 6.83435 31.776C6.08416 31.9564 5.30454 31.9782 4.54545 31.8398C3.78637 31.7014 3.06457 31.406 2.42633 30.9724C1.78808 30.5388 1.24747 29.9767 0.839141 29.322C0.430813 28.6673 0.163781 27.9345 0.0551585 27.1706C-0.0534635 26.4067 -0.00127819 25.6285 0.20837 24.8859C0.418017 24.1434 0.780502 23.4528 1.27259 22.8585V5.60702C1.27314 5.1468 1.45621 4.70558 1.78164 4.38016C2.10707 4.05474 2.5483 3.87169 3.00852 3.87116H16.4492V2.48355C16.4497 2.09017 16.6061 1.71303 16.8843 1.4349C17.1625 1.15677 17.5397 1.00036 17.9331 1H28.1059C28.4993 1.00038 28.8765 1.15683 29.1547 1.43503C29.4329 1.71323 29.5894 2.09044 29.5898 2.48387V9.32663C29.5898 9.54758 29.5404 9.76573 29.4451 9.9651C29.3499 10.1645 29.2112 10.34 29.0393 10.4788V17.4518L29.0498 17.4624C29.1128 17.5266 29.158 17.6061 29.1808 17.6931C29.4176 17.372 29.7684 17.1538 30.161 17.083C30.5536 17.0123 30.9585 17.0945 31.2924 17.3128C31.6264 17.531 31.8642 17.8688 31.9571 18.2568C32.05 18.6448 31.991 19.0536 31.7921 19.3995ZM25.3069 27.5065L25.9832 26.9443L25.4556 26.6394L25.3069 27.5065ZM29.2429 21.7485L28.3251 21.2191L25.7771 25.633L26.6937 26.1627L29.2429 21.7485ZM29.7591 20.8546L29.9478 20.5278L29.0299 19.998L28.8411 20.3249L29.7591 20.8546ZM25.9265 17.1865C25.9269 17.2187 25.9399 17.2496 25.9627 17.2724C25.9855 17.2952 26.0164 17.3082 26.0486 17.3086H27.4486L25.9265 15.7645V17.1865ZM17.4813 9.32663C17.4813 9.44641 17.5289 9.56127 17.6136 9.64597C17.6983 9.73066 17.8132 9.77824 17.9329 9.77824H18.8966C19.0335 9.77824 19.1648 9.83262 19.2616 9.92941C19.3584 10.0262 19.4128 10.1575 19.4128 10.2944V11.3266L20.8102 9.92908C20.8582 9.88115 20.9151 9.84313 20.9777 9.81719C21.0403 9.79125 21.1075 9.77791 21.1753 9.77792H28.1059C28.2257 9.77792 28.3405 9.73034 28.4252 9.64565C28.5099 9.56095 28.5575 9.44608 28.5575 9.32631V2.48355C28.5574 2.36383 28.5098 2.24904 28.4251 2.16442C28.3404 2.07979 28.2256 2.03226 28.1059 2.03226H17.9328C17.813 2.03226 17.6982 2.07979 17.6135 2.16442C17.5288 2.24904 17.4812 2.36383 17.4811 2.48355L17.4813 9.32663ZM2.30478 5.60702V8.17412H9.36051L10.1456 6.98967C10.1927 6.91865 10.2566 6.8604 10.3317 6.82009C10.4067 6.77979 10.4906 6.7587 10.5758 6.7587H16.4492V4.90341H3.00852C2.82196 4.9036 2.64309 4.97779 2.51115 5.10969C2.37922 5.2416 2.305 5.42046 2.30478 5.60702ZM10.0486 26.3868C10.0485 25.4951 9.78387 24.6235 9.28834 23.8823C8.79281 23.141 8.08859 22.5633 7.26473 22.2222C6.44087 21.8811 5.53438 21.7921 4.65989 21.9662C3.78539 22.1403 2.98217 22.5699 2.3518 23.2005C1.72143 23.8311 1.29222 24.6345 1.11845 25.5091C0.944679 26.3837 1.03415 27.2901 1.37555 28.1138C1.71695 28.9376 2.29494 29.6415 3.03644 30.1368C3.77793 30.632 4.64963 30.8962 5.54129 30.896C6.73662 30.8947 7.88258 30.4191 8.72764 29.5737C9.57269 28.7283 10.0478 27.5821 10.0486 26.3868ZM15.0977 28.0231V15.1438C15.0981 14.8378 15.2198 14.5444 15.4362 14.328C15.6526 14.1116 15.9461 13.9898 16.2521 13.9895H25.4104C25.4788 13.9894 25.5466 14.003 25.6097 14.0294C25.6728 14.0558 25.7301 14.0946 25.7781 14.1433L28.0065 16.4045V10.8102H21.3888L19.2615 12.9376C19.1893 13.0098 19.0973 13.059 18.9972 13.0789C18.897 13.0988 18.7932 13.0886 18.6989 13.0496C18.6046 13.0105 18.524 12.9443 18.4673 12.8594C18.4105 12.7745 18.3803 12.6747 18.3803 12.5726V10.8102H17.9328C17.5393 10.8098 17.1621 10.6534 16.8839 10.3752C16.6057 10.097 16.4492 9.71975 16.4489 9.32631V7.79083H10.8529L10.0678 8.97541C10.0207 9.04642 9.95681 9.10468 9.88174 9.14498C9.80668 9.18528 9.72281 9.20637 9.63761 9.20637H2.30478V21.8944C3.24671 21.2158 4.37805 20.8504 5.53895 20.8496C6.69986 20.8489 7.83165 21.213 8.7744 21.8905C9.71716 22.5679 10.4232 23.5245 10.7928 24.625C11.1624 25.7255 11.1769 26.9143 10.8342 28.0234L15.0977 28.0231ZM28.1658 25.6777L27.3294 27.1259C27.299 27.1787 27.2594 27.2257 27.2125 27.2647L24.8918 29.1937C24.8107 29.2611 24.7108 29.3021 24.6057 29.3111C24.5006 29.32 24.3953 29.2966 24.3039 29.2439C24.2125 29.1912 24.1395 29.1117 24.0946 29.0162C24.0498 28.9207 24.0353 28.8138 24.0531 28.7098L24.5633 25.7345C24.5736 25.6744 24.5945 25.6165 24.625 25.5637L28.1658 19.4301V18.3407H26.0486C25.7426 18.3403 25.4492 18.2186 25.2328 18.0023C25.0164 17.7859 24.8946 17.4925 24.8942 17.1865V15.0217H16.2521C16.2199 15.0222 16.189 15.0352 16.1662 15.058C16.1434 15.0808 16.1304 15.1116 16.13 15.1438V30.7739C16.1304 30.8062 16.1434 30.837 16.1662 30.8598C16.189 30.8826 16.2199 30.8956 16.2521 30.896H28.0438C28.076 30.8956 28.1068 30.8826 28.1296 30.8598C28.1524 30.837 28.1654 30.8062 28.1658 30.7739V25.6777ZM30.9489 18.4819C30.9214 18.3811 30.8648 18.2907 30.7861 18.222C30.7075 18.1533 30.6103 18.1093 30.5068 18.0956C30.4032 18.0819 30.2979 18.0991 30.2041 18.145C30.1103 18.1909 30.0321 18.2634 29.9794 18.3536L29.546 19.1043L30.4641 19.6342L30.8976 18.8835C30.9323 18.8232 30.9547 18.7567 30.9635 18.6878C30.9723 18.6189 30.9673 18.5489 30.9489 18.4819ZM17.834 27.2245H19.3738C19.5107 27.2245 19.6419 27.1702 19.7387 27.0734C19.8355 26.9766 19.8899 26.8453 19.8899 26.7084C19.8899 26.5715 19.8355 26.4402 19.7387 26.3434C19.6419 26.2467 19.5107 26.1923 19.3738 26.1923H17.834C17.6971 26.1923 17.5658 26.2467 17.469 26.3434C17.3722 26.4402 17.3179 26.5715 17.3179 26.7084C17.3179 26.8453 17.3722 26.9766 17.469 27.0734C17.5658 27.1702 17.6971 27.2245 17.834 27.2245ZM23.1097 28.281H17.834C17.6971 28.281 17.5658 28.3354 17.469 28.4322C17.3722 28.5289 17.3179 28.6602 17.3179 28.7971C17.3179 28.934 17.3722 29.0653 17.469 29.1621C17.5658 29.2589 17.6971 29.3132 17.834 29.3132H23.1097C23.2466 29.3132 23.3779 29.2589 23.4747 29.1621C23.5715 29.0653 23.6258 28.934 23.6258 28.7971C23.6258 28.6602 23.5715 28.5289 23.4747 28.4322C23.3779 28.3354 23.2466 28.281 23.1097 28.281ZM23.1097 26.1925H21.1404C21.0035 26.1925 20.8722 26.2469 20.7754 26.3437C20.6786 26.4405 20.6242 26.5718 20.6242 26.7087C20.6242 26.8455 20.6786 26.9768 20.7754 27.0736C20.8722 27.1704 21.0035 27.2248 21.1404 27.2248H23.1097C23.2466 27.2248 23.3779 27.1704 23.4747 27.0736C23.5715 26.9768 23.6258 26.8455 23.6258 26.7087C23.6258 26.5718 23.5715 26.4405 23.4747 26.3437C23.3779 26.2469 23.2466 26.1925 23.1097 26.1925ZM17.8339 23.0462H19.3737C19.5105 23.0462 19.6418 22.9918 19.7386 22.895C19.8354 22.7983 19.8898 22.667 19.8898 22.5301C19.8898 22.3932 19.8354 22.2619 19.7386 22.1651C19.6418 22.0683 19.5105 22.014 19.3737 22.014H17.834C17.6971 22.014 17.5658 22.0683 17.469 22.1651C17.3722 22.2619 17.3179 22.3932 17.3179 22.5301C17.3179 22.667 17.3722 22.7983 17.469 22.895C17.5658 22.9918 17.697 23.0462 17.8339 23.0462ZM23.1097 24.1023H17.834C17.6971 24.1023 17.5658 24.1567 17.469 24.2535C17.3722 24.3503 17.3179 24.4816 17.3179 24.6185C17.3179 24.7554 17.3722 24.8866 17.469 24.9834C17.5658 25.0802 17.6971 25.1346 17.834 25.1346H23.1097C23.2466 25.1346 23.3779 25.0802 23.4747 24.9834C23.5715 24.8866 23.6258 24.7554 23.6258 24.6185C23.6258 24.4816 23.5715 24.3503 23.4747 24.2535C23.3779 24.1567 23.2466 24.1023 23.1097 24.1023ZM24.986 22.014H21.1402C21.0033 22.014 20.8721 22.0683 20.7753 22.1651C20.6785 22.2619 20.6241 22.3932 20.6241 22.5301C20.6241 22.667 20.6785 22.7983 20.7753 22.895C20.8721 22.9918 21.0033 23.0462 21.1402 23.0462H24.986C25.1229 23.0462 25.2542 22.9918 25.351 22.895C25.4478 22.7983 25.5022 22.667 25.5022 22.5301C25.5022 22.3932 25.4478 22.2619 25.351 22.1651C25.2542 22.0683 25.1229 22.014 24.986 22.014ZM17.8339 20.9559H25.895C26.0319 20.9559 26.1632 20.9015 26.26 20.8047C26.3567 20.7079 26.4111 20.5767 26.4111 20.4398C26.4111 20.3029 26.3567 20.1716 26.26 20.0748C26.1632 19.978 26.0319 19.9236 25.895 19.9236H17.834C17.6971 19.9236 17.5658 19.978 17.469 20.0748C17.3722 20.1716 17.3179 20.3029 17.3179 20.4398C17.3179 20.5767 17.3722 20.7079 17.469 20.8047C17.5658 20.9015 17.697 20.9559 17.8339 20.9559ZM17.8339 18.8675H19.8034C19.9403 18.8675 20.0716 18.8131 20.1684 18.7163C20.2651 18.6196 20.3195 18.4883 20.3195 18.3514C20.3195 18.2145 20.2651 18.0832 20.1684 17.9864C20.0716 17.8896 19.9403 17.8353 19.8034 17.8353H17.834C17.6971 17.8353 17.5658 17.8896 17.469 17.9864C17.3722 18.0832 17.3179 18.2145 17.3179 18.3514C17.3179 18.4883 17.3722 18.6196 17.469 18.7163C17.5658 18.8131 17.697 18.8675 17.8339 18.8675ZM19.6074 6.35683V4.8207C19.6074 4.30012 20.0555 3.87664 20.6063 3.87664H23.1336C23.9787 3.87664 24.7225 3.70135 25.3989 3.34283V3.07974C25.3989 2.94285 25.4533 2.81157 25.5501 2.71478C25.6469 2.61799 25.7782 2.56361 25.9151 2.56361C26.0519 2.56361 26.1832 2.61799 26.28 2.71478C26.3768 2.81157 26.4312 2.94285 26.4312 3.07974V8.09592C26.4312 8.23281 26.3768 8.36409 26.28 8.46088C26.1832 8.55767 26.0519 8.61205 25.9151 8.61205C25.7782 8.61205 25.6469 8.55767 25.5501 8.46088C25.4533 8.36409 25.3989 8.23281 25.3989 8.09592V7.83463C24.7225 7.47612 23.9786 7.30083 23.1336 7.30083H23.0408V8.72863C23.0408 8.86552 22.9864 8.9968 22.8896 9.09359C22.7928 9.19038 22.6616 9.24476 22.5247 9.24476H21.486C21.3668 9.24476 21.2513 9.20352 21.1591 9.12805C21.0669 9.05257 21.0036 8.94751 20.98 8.8307L20.6715 7.30083H20.6065C20.0555 7.30083 19.6074 6.87734 19.6074 6.35683ZM22.0086 7.30083H21.7247L21.9086 8.2125H22.0087L22.0086 7.30083ZM23.1336 4.9089H23.0408V6.26857H23.1336C23.9095 6.26217 24.6791 6.40788 25.3989 6.69747V4.47999C24.6791 4.76959 23.9095 4.9153 23.1336 4.9089ZM20.6397 6.26793L22.0086 6.26831V4.9089H20.6397V6.26793Z" fill="black"/>
<path d="M20.6396 4.90625H22.0085V6.26547H20.6396V4.90625Z" fill="#FF6677"/>
<path d="M25.3992 6.69404V4.47656C24.6793 4.76615 23.9097 4.91186 23.1338 4.90546H23.041V6.26514H23.1338C23.9097 6.25874 24.6793 6.40445 25.3992 6.69404Z" fill="#72D1FB"/>
<path d="M4.44824 27.6663L6.86411 26.3795L4.44824 25.0938V27.6663Z" fill="white"/>
<path d="M21.908 8.20855H22.0082V7.29688H21.7241L21.908 8.20855Z" fill="#41739F"/>
<path d="M25.4558 26.6406L25.3071 27.5078L25.9835 26.9455L25.4558 26.6406Z" fill="#F4BAA6"/>
<path d="M28.8472 20.3359L29.0358 20.0091L29.9536 20.5391L29.765 20.8658L28.8472 20.3359Z" fill="#83A7C5"/>
<path d="M25.7773 25.6327L26.694 26.1624L29.2433 21.7482L28.3254 21.2188L25.7773 25.6327Z" fill="#FFAF5D"/>
<path d="M30.7032 18.1561C30.5814 18.0866 30.4372 18.0678 30.3017 18.1039C30.1662 18.14 30.0504 18.228 29.9793 18.3488L29.5459 19.0995L30.464 19.6294L30.8976 18.8787C30.9668 18.7569 30.9852 18.6128 30.9488 18.4775C30.9124 18.3422 30.8241 18.2267 30.7032 18.1561V18.1561Z" fill="#FF6677"/>
<path d="M7.68418 14.0267C7.74631 14.0267 7.80705 14.0083 7.85872 13.9738C7.91039 13.9393 7.95066 13.8902 7.97444 13.8328C7.99823 13.7754 8.00446 13.7123 7.99235 13.6513C7.98023 13.5904 7.95032 13.5344 7.90639 13.4905C7.86246 13.4465 7.80649 13.4166 7.74555 13.4045C7.68462 13.3924 7.62145 13.3986 7.56405 13.4223C7.50665 13.4461 7.45758 13.4864 7.42306 13.538C7.38854 13.5897 7.37012 13.6504 7.37012 13.7126C7.37022 13.7958 7.40334 13.8757 7.46221 13.9346C7.52109 13.9934 7.60091 14.0266 7.68418 14.0267Z" fill="white"/>
<path d="M8.88184 16.7634L10.2764 18.2048H12.3011V17.0681L10.4053 15.1094L8.88184 16.7634Z" fill="white"/>
<path d="M5.69775 18.2105H8.84014L7.23053 16.5469L5.69775 18.2105Z" fill="white"/>
<path d="M26.0484 17.3017H27.4484L25.9263 15.7578V17.1798C25.9268 17.212 25.9398 17.2428 25.9626 17.2656C25.9854 17.2883 26.0162 17.3013 26.0484 17.3017Z" fill="#CADEEF"/>
<path d="M5.03662 17.4089L6.84191 15.4494C6.88953 15.3977 6.94719 15.3563 7.01138 15.3277C7.07557 15.2991 7.14492 15.2839 7.21519 15.283C7.28546 15.2821 7.35516 15.2956 7.42003 15.3227C7.4849 15.3497 7.54356 15.3897 7.59242 15.4402L8.163 16.0299L10.0165 14.0175C10.0642 13.9658 10.1218 13.9244 10.186 13.8958C10.2502 13.8671 10.3196 13.8519 10.3898 13.8511C10.4601 13.8502 10.5298 13.8637 10.5947 13.8907C10.6596 13.9178 10.7183 13.9578 10.7671 14.0083L12.3013 15.5934V11.9375H5.03662V17.4089ZM7.68416 12.3756C7.95046 12.3756 8.21078 12.4545 8.4322 12.6024C8.65362 12.7504 8.8262 12.9607 8.92811 13.2067C9.03003 13.4527 9.0567 13.7234 9.00475 13.9846C8.9528 14.2458 8.82457 14.4857 8.63627 14.674C8.44797 14.8623 8.20806 14.9905 7.94688 15.0425C7.6857 15.0944 7.41498 15.0677 7.16896 14.9658C6.92294 14.8639 6.71266 14.6913 6.56472 14.4699C6.41679 14.2485 6.33783 13.9882 6.33784 13.7219C6.33829 13.365 6.48028 13.0228 6.73266 12.7704C6.98505 12.518 7.32723 12.376 7.68416 12.3756Z" fill="#9DD46F"/>
</svg>
