<svg width="120" height="60" viewBox="0 0 120 60" fill="none" xmlns="http://www.w3.org/2000/svg">
<path d="M92.775 27.675C92.775 30.6 92.775 33.525 92.775 36.45C92.775 36.675 92.7 36.75 92.475 36.75C91.725 36.75 90.975 36.75 90.225 36.75C90 36.75 89.85 36.675 89.775 36.45C89.625 36.075 89.475 35.7 89.325 35.325C89.25 35.1 89.1 35.1 89.025 35.325C88.275 36.3 87.3 36.825 86.1 37.05C85.65 37.125 85.125 37.125 84.675 37.125C83.55 36.975 82.575 36.6 81.675 35.85C80.625 34.95 80.025 33.75 79.65 32.4C79.5 31.65 79.5 30.9 79.5 30.15C79.5 29.025 79.8 27.9 80.325 26.925C81.225 25.2 82.65 24.15 84.675 24C85.575 23.925 86.4 24 87.225 24.375C87.6 24.525 87.975 24.825 88.2 25.2C88.275 25.275 88.275 25.425 88.425 25.425C88.575 25.35 88.5 25.2 88.5 25.125C88.5 23.1 88.5 21.075 88.5 19.05C88.5 18.825 88.575 18.75 88.8 18.75C90.075 18.75 91.275 18.75 92.55 18.75C92.775 18.75 92.85 18.825 92.85 19.05C92.775 21.825 92.775 24.75 92.775 27.675ZM88.725 30.375C88.725 29.925 88.65 29.55 88.575 29.175C88.275 28.2 87.525 27.525 86.625 27.45C85.5 27.375 84.675 27.75 84.225 28.65C83.625 29.85 83.625 31.125 84.3 32.325C84.675 33.15 85.425 33.525 86.325 33.525C87.3 33.525 87.975 33.075 88.35 32.175C88.65 31.575 88.725 30.975 88.725 30.375Z" fill="#060909"/>
<path d="M46.5 32.7738C46.5 29.9988 46.5 27.2238 46.5 24.4488C46.5 24.2238 46.575 24.1488 46.8 24.1488C47.55 24.1488 48.3 24.1488 48.975 24.1488C49.125 24.1488 49.2 24.2238 49.275 24.3738C49.425 24.8238 49.575 25.2738 49.8 25.7238C49.8 25.7988 49.8 25.8738 49.95 25.8738C50.025 25.8738 50.1 25.7988 50.175 25.7238C51.225 24.2238 52.725 23.7738 54.525 23.9238C55.2 23.9238 55.8 24.0738 56.4 24.3738C57.15 24.6738 57.825 25.1988 58.35 25.8738C59.175 26.9238 59.625 28.1238 59.775 29.4738C60 31.1988 59.7 32.7738 58.95 34.3488C58.65 34.9488 58.2 35.4738 57.675 35.9238C56.55 36.8238 55.275 37.1988 53.85 37.1988C53.1 37.1988 52.425 36.9738 51.825 36.5988C51.525 36.4488 51.3 36.1488 51.15 35.9238C51.15 35.8488 51.075 35.7738 51 35.7738C50.925 35.8488 50.925 35.9238 50.925 35.9988C50.925 36.2988 50.925 36.5988 50.925 36.9738C50.925 38.3988 50.925 39.8238 50.925 41.3238C50.925 41.6238 50.85 41.6988 50.55 41.6988C49.35 41.6988 48.15 41.6988 46.95 41.6988C46.65 41.6988 46.575 41.6988 46.575 41.3238C46.575 38.7738 46.575 36.2238 46.575 33.5988C46.5 33.1488 46.5 32.9988 46.5 32.7738ZM55.5 30.2988C55.5 29.6238 55.35 28.9488 54.975 28.3488C54 26.9988 51.9 26.9988 51.075 28.5738C50.4 29.8488 50.4 31.1238 51.075 32.3988C51.825 33.8988 53.925 33.9738 54.9 32.6238C55.35 31.9488 55.5 31.1988 55.5 30.2988Z" fill="#060909"/>
<path d="M65.9246 30.4492C65.9246 28.4242 65.9246 26.3992 65.9246 24.4492C65.9246 24.2242 65.9996 24.1492 66.2246 24.1492C66.8246 24.1492 67.4246 24.1492 68.0246 24.1492C68.5496 24.1492 68.5496 24.1492 68.7746 24.6742C68.9246 24.9742 68.9996 25.3492 69.1496 25.6492C69.2246 25.9492 69.2996 25.9492 69.5246 25.7242C69.5996 25.6492 69.5996 25.6492 69.5996 25.5742C70.1246 24.8242 70.7246 24.2992 71.5496 23.9992C72.2996 23.7742 73.1246 23.6992 73.8746 23.7742C74.7746 23.8492 75.6746 24.0742 76.4996 24.6742C77.3246 25.1992 77.8496 25.9492 78.2246 26.8492C78.5996 27.6742 78.6746 28.5742 78.6746 29.3992C78.6746 31.7242 78.6746 34.1242 78.6746 36.4492C78.6746 36.6742 78.6746 36.7492 78.3746 36.7492C77.0996 36.7492 75.8246 36.7492 74.6246 36.7492C74.3996 36.7492 74.3246 36.6742 74.3246 36.4492C74.3246 34.2742 74.3246 32.0242 74.3246 29.8492C74.3246 28.7242 73.9496 28.0492 72.8246 27.7492C71.4746 27.3742 70.1996 28.1992 70.1996 29.6992C70.1996 31.9492 70.1996 34.1992 70.1996 36.4492C70.1996 36.6742 70.1246 36.7492 69.8996 36.7492C68.6246 36.7492 67.4246 36.7492 66.1496 36.7492C65.9246 36.7492 65.8496 36.6742 65.8496 36.4492C65.9246 34.4242 65.9246 32.4742 65.9246 30.4492Z" fill="#060909"/>
<path d="M95.55 41.3992C95.925 40.5742 96.3 39.7492 96.675 38.9242C97.125 37.9492 97.575 37.0492 98.025 36.1492C98.1 35.9992 98.175 35.8492 98.25 35.6992C98.4 35.3992 98.175 35.1742 98.1 34.9492C97.8 34.3492 97.575 33.6742 97.275 33.0742C96.975 32.5492 96.75 31.9492 96.525 31.3492C96.3 30.7492 96 30.2242 95.775 29.6242C95.55 29.0992 95.25 28.5742 95.025 27.9742C94.8 27.3742 94.5 26.8492 94.275 26.2492C93.975 25.5742 93.675 24.8242 93.375 24.0742C94.875 24.0742 96.45 24.0742 97.95 24.0742C98.175 24.0742 98.175 24.2242 98.175 24.3742C98.55 25.4992 98.925 26.6992 99.3 27.8242C99.6 28.7992 99.975 29.8492 100.275 30.8992C100.35 31.0492 100.35 31.2742 100.425 31.4992C100.425 31.5742 100.35 31.6492 100.5 31.6492C100.575 31.6492 100.575 31.5742 100.65 31.4992C100.725 31.1992 100.725 30.9742 100.8 30.6742C101.1 29.7742 101.4 28.8742 101.7 27.8992C101.925 27.2992 102 26.6992 102.225 26.0992C102.45 25.4992 102.6 24.8992 102.825 24.2242C102.9 24.0742 102.975 24.0742 103.05 24.0742C104.475 24.0742 105.9 24.0742 107.325 24.0742C107.1 24.6742 106.8 25.2742 106.575 25.8742C106.125 26.9992 105.675 28.0492 105.15 29.1742C104.625 30.3742 104.1 31.6492 103.575 32.8492C103.125 33.9742 102.675 35.0992 102.15 36.2242C101.475 37.8742 100.8 39.4492 100.125 41.0992C100.05 41.2492 100.05 41.3242 99.825 41.3242C98.475 41.3242 97.05 41.3242 95.7 41.3242C95.625 41.3992 95.625 41.3992 95.55 41.3992Z" fill="#060909"/>
<path d="M45.0748 28.4236C44.6998 28.3486 44.3248 28.1236 44.0248 27.9736C43.2748 27.6736 42.5248 27.3736 41.6998 27.1486C41.0998 26.9986 40.4998 26.9236 39.8998 26.9236C39.6748 26.9236 39.4498 26.9986 39.2998 27.0736C38.9248 27.2986 38.9248 27.8236 39.2998 28.0486C39.7498 28.3486 40.3498 28.4986 40.8748 28.5736C41.8498 28.7986 42.8998 29.0236 43.7998 29.5486C44.3248 29.8486 44.7748 30.2236 45.1498 30.7486C45.9748 32.0236 45.8998 33.3736 45.3748 34.6486C45.1498 35.1736 44.7748 35.5486 44.3248 35.8486C43.4998 36.4486 42.5998 36.6736 41.6998 36.8236C40.7998 36.9736 39.8248 36.9736 38.8498 36.8986C37.4998 36.8236 36.1498 36.5986 34.9498 35.9236C34.6498 35.9986 34.4998 35.8486 34.4998 35.6236C34.4998 34.5736 34.4998 33.5236 34.4998 32.3986C35.3998 32.8486 36.2248 33.2236 37.0498 33.4486C37.8748 33.7486 38.7748 33.9736 39.5998 33.9736C39.9748 33.9736 40.2748 33.9736 40.6498 33.7486C41.0998 33.4486 41.0998 32.9236 40.5748 32.6986C39.9748 32.3986 39.2998 32.2486 38.6998 32.0986C37.6498 31.7986 36.6748 31.5736 35.8498 30.8986C35.0998 30.2986 34.5748 29.4736 34.4998 28.4986C34.4998 27.8236 34.4248 27.2236 34.6498 26.5486C35.0248 25.6486 35.5498 24.9736 36.4498 24.5986C37.2748 24.2236 38.0998 23.9986 38.9998 23.9236C39.9748 23.8486 40.9498 23.9236 41.9248 23.9986C42.8998 24.0736 43.7998 24.2236 44.6998 24.5986C44.9248 24.6736 44.9998 24.7486 44.9998 25.0486C45.0748 26.0986 45.0748 27.2236 45.0748 28.4236Z" fill="#060909"/>
<path d="M65.025 30.4492C65.025 32.4742 65.025 34.4992 65.025 36.4492C65.025 36.6742 64.95 36.7492 64.725 36.7492C63.45 36.7492 62.25 36.7492 60.975 36.7492C60.75 36.7492 60.75 36.6742 60.75 36.4492C60.75 32.3992 60.75 28.4242 60.75 24.3742C60.75 24.1492 60.825 24.0742 61.05 24.0742C62.325 24.0742 63.525 24.0742 64.8 24.0742C65.025 24.0742 65.1 24.1492 65.1 24.3742C65.025 26.3992 65.025 28.4242 65.025 30.4492Z" fill="#060909"/>
<path d="M62.7748 22.9496C61.4998 22.9496 60.5998 21.8246 60.6748 20.7746C60.7498 19.5746 61.4998 18.5996 62.9248 18.5996C64.1248 18.5996 65.0998 19.6496 65.0998 20.8496C65.0248 21.8246 64.1998 23.0246 62.7748 22.9496Z" fill="#060909"/>
<path d="M110.325 24.6742C110.1 24.8992 110.1 25.1992 109.95 25.4242C109.875 25.4992 109.875 25.6492 109.725 25.6492C109.575 25.6492 109.575 25.4992 109.575 25.4242C109.5 25.1992 109.425 24.9742 109.275 24.6742C109.2 24.9742 109.275 25.1992 109.2 25.4242C109.2 25.4992 109.2 25.5742 109.05 25.5742C108.9 25.5742 108.975 25.4992 108.975 25.4242C108.975 25.0492 108.975 24.6742 108.975 24.2992C108.975 24.2242 108.9 24.1492 109.05 24.0742C109.2 24.0742 109.2 24.1492 109.275 24.2242C109.35 24.4492 109.425 24.6742 109.575 24.9742C109.575 25.0492 109.575 25.1242 109.65 25.1242C109.725 25.1242 109.725 25.0492 109.8 24.9742C109.875 24.7492 109.95 24.5242 110.025 24.2992C110.1 24.1492 110.1 24.0742 110.325 24.0742C110.55 24.0742 110.4 24.2242 110.4 24.3742C110.4 24.6742 110.4 25.0492 110.4 25.3492C110.4 25.4242 110.475 25.5742 110.25 25.5742C110.1 25.5742 110.1 25.4242 110.1 25.3492C110.25 25.1242 110.25 24.8992 110.325 24.6742Z" fill="#060909"/>
<path d="M108.15 24.9746C108.15 24.8246 108.15 24.7496 108.15 24.5996C108.15 24.3746 108.075 24.2246 107.85 24.2996C107.775 24.2996 107.7 24.3746 107.7 24.2246C107.7 24.0746 107.775 24.1496 107.85 24.1496C108.15 24.1496 108.375 24.1496 108.675 24.1496C108.75 24.1496 108.75 24.1496 108.825 24.2246C108.825 24.2996 108.75 24.3746 108.675 24.2996C108.3 24.2246 108.375 24.4496 108.375 24.6746C108.375 24.8996 108.375 25.1246 108.375 25.4246C108.375 25.4996 108.375 25.5746 108.3 25.5746C108.15 25.5746 108.225 25.4996 108.225 25.4246C108.15 25.2746 108.15 25.1246 108.15 24.9746Z" fill="#060909"/>
<path d="M21.2249 26.4754C21.2249 26.6254 21.2249 26.7004 21.2999 26.7004C21.8999 26.7754 22.4999 27.0004 23.0249 27.3754C23.0999 27.3754 23.1749 27.3754 23.2499 27.3004C23.6999 26.8504 24.1499 26.4004 24.5249 25.9504C25.5749 24.9004 26.5499 23.9254 27.5999 22.8754C27.6749 22.7254 27.7499 22.6504 27.8999 22.5754C28.1999 22.2754 28.4249 22.0504 28.7249 21.7504C28.7249 21.7504 28.7249 21.7504 28.7249 21.6754C26.7749 19.8004 24.1499 18.6004 21.2249 18.5254C21.2249 18.6004 21.1499 18.6004 21.1499 18.6754C21.2249 21.3754 21.2249 23.9254 21.2249 26.4754Z" fill="#EC3FAB"/>
<path d="M12.9746 21.8258C13.6496 22.5008 14.3246 23.2508 14.9996 23.9258C15.9746 24.9008 16.8746 25.8008 17.8496 26.7758C18.0746 27.0008 18.2246 27.1508 18.4496 27.3758C18.5246 27.4508 18.5996 27.4508 18.6746 27.4508C19.1246 27.0758 19.7246 26.8508 20.3246 26.7758H20.3996H20.4746V26.7008C20.4746 24.0758 20.4746 21.4508 20.4746 18.8258C20.4746 18.7508 20.4746 18.6758 20.3996 18.6758C17.5496 18.6758 14.9246 19.8758 12.9746 21.8258Z" fill="#E90828"/>
<path d="M9.7499 29.8496C12.1499 29.8496 14.5499 29.8496 16.9499 29.8496C17.0249 29.8496 17.0999 29.8496 17.1749 29.8496C17.2499 29.8496 17.3249 29.9246 17.3249 29.9246C17.3999 29.2496 17.6249 28.6496 17.9999 28.1246C18.0749 27.9746 17.9999 27.8246 17.6999 27.5996C16.0499 25.9496 14.3999 24.2996 12.7499 22.5746C12.5999 22.4246 12.5249 22.3496 12.3749 22.3496C11.4749 23.3246 10.7249 24.4496 10.2749 25.7246C10.2749 25.7996 10.1999 25.8746 10.1999 25.9496C9.9749 26.4746 9.8249 26.9996 9.7499 27.5246V27.5996C9.7499 27.6746 9.7499 27.6746 9.7499 27.7496C9.6749 28.0496 9.6749 28.2746 9.5999 28.5746C9.5249 29.0246 9.5249 29.3996 9.5249 29.8496C9.5249 29.8496 9.6749 29.8496 9.7499 29.8496Z" fill="#FD6B03"/>
<path d="M28.8749 22.5754C28.8749 22.7254 28.7249 22.8004 28.6499 22.8004C28.4999 22.9504 28.4249 23.1004 28.2749 23.2504C26.7749 24.7504 25.3499 26.2504 23.8499 27.6754C23.6999 27.8254 23.6999 27.9004 23.6999 27.9754C24.0749 28.5004 24.2999 29.0254 24.3749 29.7004C24.4499 29.7754 24.4499 29.7754 24.5999 29.7754C24.9749 29.7754 25.3499 29.7754 25.7249 29.7754C27.8249 29.7754 29.9249 29.7754 31.9499 29.7754C32.0999 29.7754 32.2499 29.8504 32.2499 29.6254C32.2499 29.5504 32.2499 29.4754 32.2499 29.3254C32.0999 26.6254 30.9749 24.1504 29.2499 22.2754C29.1749 22.2754 29.0249 22.3504 28.8749 22.5754Z" fill="#9163CC"/>
<path d="M11.4749 36.5254C11.5499 36.6004 11.6999 36.7504 11.7749 36.9004C11.9249 37.2004 12.1499 37.4254 12.3749 37.6504C12.6749 37.9504 12.6749 37.9504 12.9749 37.6504C13.5749 37.0504 14.1749 36.3754 14.8499 35.7754C15.8999 34.7254 16.9499 33.6754 17.9999 32.6254C18.0749 32.5504 18.0749 32.5504 18.0749 32.4754C17.6249 31.9504 17.3249 31.2754 17.3249 30.5254C17.2499 30.5254 17.0999 30.5254 17.0249 30.5254C14.8499 30.5254 12.5999 30.5254 10.4249 30.5254C10.1249 30.5254 9.8249 30.5254 9.5249 30.5254V30.6004C9.5999 30.9004 9.5999 31.1254 9.5999 31.4254C9.5999 31.5004 9.5999 31.5004 9.5999 31.5754C9.6749 31.8754 9.6749 32.1754 9.7499 32.4754C9.7499 32.5504 9.8249 32.7004 9.8249 32.7754C9.8999 32.9254 9.8999 33.1504 9.9749 33.3004C10.0499 33.6004 10.1999 33.9004 10.2749 34.2004C10.3499 34.2754 10.3499 34.4254 10.4249 34.5004C10.7249 35.1754 11.0249 35.9254 11.4749 36.5254Z" fill="#FDAD02"/>
<path d="M32.1749 30.5254C31.4249 30.5254 30.7499 30.5254 30.1499 30.5254C28.2749 30.5254 26.3999 30.5254 24.5249 30.5254H24.4499C24.3749 31.2004 24.1499 31.8754 23.6999 32.4004C23.6999 32.4754 23.7749 32.5504 23.8499 32.6254C24.5999 33.3004 25.2749 34.0504 26.0249 34.7254C26.9999 35.7004 27.9749 36.6754 28.9499 37.7254C29.0999 37.8754 29.2499 37.9504 29.3999 37.7254C29.3999 37.5754 29.5499 37.5754 29.6249 37.5004C29.9249 37.2004 30.2249 36.8254 30.4499 36.4504C30.6749 36.0754 30.8249 35.7754 31.0499 35.4004C31.1249 35.3254 31.1249 35.2504 31.1999 35.1754C31.2749 35.0254 31.2749 34.8754 31.4249 34.8004C31.4999 34.7254 31.4999 34.6504 31.4999 34.5754C31.5749 34.3504 31.6499 34.1254 31.7249 33.9004C31.7249 33.8254 31.7999 33.7504 31.7999 33.6754C31.7999 33.6004 31.7999 33.6004 31.7999 33.6004C32.0999 32.7004 32.2499 31.8004 32.3249 30.9004V30.8254C32.2499 30.6004 32.2499 30.5254 32.1749 30.5254Z" fill="#0B71CD"/>
<path d="M18.5252 33.0758C16.8002 34.8008 15.0752 36.6008 13.2752 38.3258C13.2752 38.4008 13.2002 38.4758 13.2002 38.5508L13.2752 38.6258C13.4252 38.7758 13.5002 38.8508 13.6502 39.0008C13.7252 39.0008 13.8002 39.0758 13.8752 39.1508C14.2502 39.4508 14.6252 39.7508 15.0752 39.9758C15.2252 40.0508 15.3752 40.1258 15.5252 40.2008C15.7502 40.2758 15.9752 40.4258 16.2752 40.5008C16.2752 40.5008 16.3502 40.5008 16.3502 40.5758H16.4252C16.4252 40.5758 16.5002 40.5758 16.5002 40.6508C16.5002 40.6508 16.5752 40.6508 16.5752 40.7258C16.8002 40.8758 17.1002 40.8758 17.3252 41.0258C17.4002 41.0258 17.4752 41.0258 17.5502 41.1008H17.6252C17.6252 41.1008 17.7002 41.1008 17.7002 41.1758H17.7752C17.8502 41.1758 17.8502 41.1758 17.9252 41.2508H18.0002C18.0752 41.2508 18.0752 41.2508 18.1502 41.2508C18.6002 41.4008 19.0502 41.4758 19.5002 41.4758C19.8752 41.4758 20.2502 41.6258 20.5502 41.4758V41.4008C20.5502 38.8508 20.5502 36.3758 20.5502 33.8258C19.8002 33.7508 19.1252 33.4508 18.6002 33.0758C18.6002 33.0008 18.5252 33.0008 18.5252 33.0758Z" fill="#02BCB5"/>
<path d="M21.2246 33.975C21.2246 35.175 21.2246 36.375 21.2246 37.575C21.2246 38.85 21.2246 40.125 21.2246 41.325V41.4C21.5996 41.475 21.9746 41.4 22.2746 41.4C22.7996 41.4 23.2496 41.175 23.7746 41.1C23.8496 41.025 23.9246 41.025 23.9996 41.025C24.0746 41.025 24.0746 41.025 24.1496 40.95C24.4496 40.875 24.7496 40.725 25.1246 40.65C25.2746 40.575 25.4246 40.5 25.6496 40.425C25.7246 40.35 25.7996 40.35 25.8746 40.35C26.0246 40.275 26.0996 40.125 26.3246 40.125C26.4746 40.05 26.6246 39.975 26.7746 39.9C26.8496 39.825 26.9246 39.825 26.9996 39.75C27.1496 39.675 27.2246 39.525 27.3746 39.525C27.5996 39.375 27.8246 39.15 28.0496 39C28.1246 38.925 28.1996 38.85 28.2746 38.775C28.3496 38.625 28.6496 38.55 28.6496 38.4L28.5746 38.325C28.4246 38.175 28.2746 38.1 28.1996 37.95L28.1246 37.875C27.9746 37.725 27.8246 37.575 27.6746 37.425L27.5996 37.35C27.4496 37.2 27.2996 37.05 27.1496 36.9L27.0746 36.825C26.9246 36.675 26.7746 36.525 26.6246 36.375L26.5496 36.3C26.3996 36.15 26.2496 36 26.0996 35.85L26.0246 35.775C25.8746 35.7 25.7246 35.55 25.6496 35.4C25.5746 35.4 25.4996 35.325 25.4996 35.25C24.6746 34.5 23.9996 33.75 23.2496 33.075C23.1746 33 23.1746 33 23.0996 33C22.5746 33.45 21.9746 33.675 21.2246 33.825C21.2246 33.75 21.2246 33.825 21.2246 33.975Z" fill="#03A7D1"/>
</svg>
