<svg width="189" height="50" viewBox="0 0 189 50" fill="none" xmlns="http://www.w3.org/2000/svg">
<path d="M30.9043 49.9881C34.5984 50.1864 37.9261 47.8021 38.8754 44.2783C39.7081 40.4822 37.8585 37.931 33.6377 35.5008C32.3168 34.7411 32.2512 34.0733 32.374 33.5266C32.4365 33.0403 32.9288 32.5854 33.8833 32.5854C34.9761 32.7345 35.9695 33.2999 36.6573 34.1641L40.9093 30.4598C40.0069 29.377 38.8748 28.5097 37.5956 27.9212C36.3164 27.3327 34.9222 27.0378 33.5148 27.0582C30.0664 26.8484 26.9365 29.0355 25.9965 32.312C25.1951 35.865 27.0135 38.6593 31.0188 40.9894C32.4969 41.87 32.652 42.5994 32.5281 43.2672C32.4413 43.6271 32.2292 43.9442 31.93 44.1613C31.6308 44.3784 31.2641 44.4813 30.896 44.4516C28.7393 44.4516 27.0447 41.9921 27.0447 41.9921L22.6074 45.3416C24.3395 48.233 27.4975 50.0027 30.9043 49.9881ZM53.5945 27.0509C54.5689 27.0037 55.5413 27.1781 56.4388 27.5613C57.3364 27.9444 58.1358 28.5261 58.7771 29.263C59.4078 29.9889 59.8598 30.8532 60.0966 31.7862C60.3335 32.7191 60.3485 33.6948 60.1407 34.6347C59.4641 38.5122 55.8741 41.2398 51.8698 40.9195H49.3082L47.5449 48.9562H40.9093L45.7234 27.0509H53.5945ZM52.5453 32.48H51.1641L50.4854 35.6521H51.9978C52.9107 35.6938 53.709 35.0573 53.8496 34.1725L53.8402 34.1808C53.8933 33.9717 53.8955 33.7529 53.8466 33.5428C53.7977 33.3327 53.6991 33.1375 53.5591 32.9735C53.4168 32.8072 53.2379 32.6761 53.0365 32.5907C52.8352 32.5052 52.6168 32.4677 52.3986 32.481L52.5453 32.48ZM67.8036 49.985C72.6791 50.2584 76.9384 46.7399 77.5619 41.9243L80.7418 27.0436H74.0385L71.0148 41.1803C70.7337 42.5754 70.0488 43.2881 68.8633 43.2881C67.2738 43.2881 66.8596 42.3281 67.1489 41.1177L70.1415 27.0436H63.4382L60.5445 40.7462C59.2694 46.792 62.9084 49.985 67.8036 49.985ZM94.6813 27.0498C95.63 27.0054 96.5765 27.1769 97.4496 27.5513C98.3228 27.9258 99.1002 28.4935 99.7234 29.2119C100.338 29.9208 100.778 30.7638 101.009 31.6736C101.241 32.5834 101.257 33.5349 101.057 34.4521C100.63 36.8896 98.9719 38.9494 96.6549 39.9198L100.375 48.9562H93.3615L90.2618 40.6169L88.4371 48.9562H81.8191L86.5458 27.0498H94.6813ZM93.3313 32.4883H92.4965L91.6347 36.4472H92.7776C93.9132 36.514 94.9197 35.7345 95.1175 34.6337C95.195 34.3715 95.2065 34.0942 95.1509 33.8265C95.0953 33.5588 94.9744 33.3091 94.799 33.0998C94.4419 32.672 93.8934 32.4424 93.3313 32.4883Z" fill="#2FACD6"/>
<path d="M119.499 27.0439H102.554L101.197 33.1795H106.342L102.923 48.9565H109.547L112.967 33.1795H118.143L119.499 27.0439Z" fill="#2FACD6"/>
<path d="M131.397 49.9828C135.061 50.1779 138.592 48.6169 140.882 45.7923L136.079 41.9952C135.563 42.5717 134.931 43.0323 134.225 43.3465C133.519 43.6607 132.755 43.8214 131.983 43.8181C131.241 43.8102 130.51 43.6339 129.846 43.3024C129.182 42.971 128.601 42.493 128.148 41.9044C127.7 41.3215 127.393 40.6424 127.252 39.9205C127.11 39.1986 127.138 38.4536 127.332 37.7441C127.766 35.1302 130.058 33.2134 132.744 33.2186C134.784 33.2343 136.594 34.5094 137.271 36.4074L143.184 33.8259C141.689 29.7345 137.738 27.0195 133.329 27.0539C127.207 26.8139 121.856 31.09 120.824 37.045C120.48 38.6047 120.494 40.2225 120.866 41.7759C121.237 43.3294 121.956 44.7778 122.969 46.0114C123.993 47.2573 125.28 48.2599 126.737 48.9466C128.195 49.6334 129.786 49.9873 131.397 49.9828ZM143.184 49.9995H149.492L151.699 41.8637L155.154 49.4047L161.614 42.5837L160.525 49.9995H166.802L170.097 26L157.013 39.0484L150.047 26L143.184 49.9995ZM178.381 49.988C182.08 50.1905 185.414 47.8051 186.365 44.2782C187.197 40.4811 185.348 37.9298 181.125 35.5007C179.803 34.741 179.737 34.0732 179.861 33.5265C179.923 33.0402 180.416 32.5853 181.371 32.5853C182.464 32.7343 183.457 33.2997 184.146 34.164L188.4 30.4597C187.497 29.3767 186.364 28.5093 185.084 27.9208C183.804 27.3323 182.409 27.0376 181.001 27.0581C177.553 26.8483 174.421 29.0354 173.48 32.3119C172.678 35.8648 174.498 38.6592 178.505 40.9893C179.984 41.8699 180.139 42.5983 180.014 43.2671C179.927 43.6272 179.715 43.9444 179.416 44.1615C179.116 44.3786 178.749 44.4815 178.381 44.4515C176.223 44.4515 174.528 41.991 174.528 41.991L170.098 45.3405C171.827 48.2277 174.979 49.9953 178.381 49.988Z" fill="#2FACD6"/>
<path d="M19.7424 39.336H8.16365C7.95841 39.3037 7.77132 39.1993 7.6359 39.0414C7.50048 38.8834 7.42559 38.6823 7.42463 38.4741C7.42463 38.0473 7.73689 37.6831 8.16365 37.6132H19.7424C19.9475 37.6454 20.1345 37.7497 20.2699 37.9074C20.4053 38.0651 20.4803 38.266 20.4815 38.4741C20.4803 38.6821 20.4053 38.883 20.2699 39.0407C20.1345 39.1984 19.9475 39.3038 19.7424 39.336ZM21.6899 28.9963H8.28336C8.12594 29.0046 7.96921 28.9702 7.82965 28.8968C7.69008 28.8233 7.57282 28.7135 7.4902 28.579C7.4088 28.4454 7.36573 28.292 7.36573 28.1355C7.36573 27.979 7.4088 27.8256 7.4902 27.692C7.57282 27.5574 7.69008 27.4477 7.82965 27.3742C7.96921 27.3008 8.12594 27.2664 8.28336 27.2746H21.6899C21.8474 27.2664 22.0041 27.3008 22.1437 27.3742C22.2832 27.4477 22.4005 27.5574 22.4831 27.692C22.6496 27.9654 22.6496 28.3056 22.4831 28.579C22.4005 28.7135 22.2832 28.8233 22.1437 28.8968C22.0041 28.9702 21.8474 29.0046 21.6899 28.9963ZM18.2977 34.1656H0.830626C0.608387 34.1565 0.398164 34.062 0.243524 33.9018C0.0888845 33.7415 0.00168582 33.5277 0 33.3048C0 32.8457 0.364309 32.4669 0.830626 32.4439H18.2967C18.5189 32.453 18.7291 32.5475 18.8838 32.7078C19.0384 32.868 19.1256 33.0818 19.1273 33.3048C19.1273 33.7639 18.763 34.1427 18.2977 34.1656Z" fill="#2FACD6"/>
<rect x="141" width="47" height="23" rx="11.5" fill="#0FA27F"/>
<path d="M153.746 9.36364L151.026 17H149.038L146.318 9.36364H148.237L149.992 15.0362H150.072L151.832 9.36364H153.746ZM159.113 6.81818V17H157.268V8.61293H157.208L154.827 10.1342V8.44389L157.358 6.81818H159.113ZM162.266 17.1094C161.964 17.1094 161.706 17.0033 161.49 16.7912C161.275 16.5791 161.169 16.3205 161.172 16.0156C161.169 15.7173 161.275 15.4621 161.49 15.25C161.706 15.0379 161.964 14.9318 162.266 14.9318C162.557 14.9318 162.811 15.0379 163.026 15.25C163.245 15.4621 163.356 15.7173 163.36 16.0156C163.356 16.2178 163.303 16.4018 163.2 16.5675C163.101 16.7332 162.968 16.8658 162.803 16.9652C162.64 17.0613 162.461 17.1094 162.266 17.1094ZM165.198 17V15.6676L168.733 12.2024C169.071 11.861 169.352 11.5578 169.578 11.2926C169.803 11.0275 169.972 10.7706 170.085 10.522C170.198 10.2734 170.254 10.0083 170.254 9.72656C170.254 9.40507 170.181 9.12997 170.035 8.90128C169.889 8.66927 169.689 8.49029 169.434 8.36435C169.178 8.2384 168.888 8.17543 168.564 8.17543C168.229 8.17543 167.935 8.24503 167.684 8.38423C167.432 8.52012 167.236 8.71401 167.097 8.96591C166.961 9.2178 166.893 9.51776 166.893 9.86577H165.138C165.138 9.21946 165.286 8.65767 165.581 8.1804C165.876 7.70312 166.282 7.33357 166.799 7.07173C167.319 6.8099 167.916 6.67898 168.588 6.67898C169.271 6.67898 169.871 6.80658 170.388 7.06179C170.905 7.317 171.306 7.66667 171.591 8.1108C171.88 8.55492 172.024 9.06203 172.024 9.6321C172.024 10.0133 171.951 10.3878 171.805 10.7557C171.659 11.1236 171.402 11.5312 171.034 11.9787C170.67 12.4261 170.158 12.968 169.498 13.6044L167.743 15.3892V15.4588H172.178V17H165.198ZM175.022 17.1094C174.72 17.1094 174.462 17.0033 174.246 16.7912C174.031 16.5791 173.925 16.3205 173.928 16.0156C173.925 15.7173 174.031 15.4621 174.246 15.25C174.462 15.0379 174.72 14.9318 175.022 14.9318C175.313 14.9318 175.567 15.0379 175.782 15.25C176.001 15.4621 176.112 15.7173 176.115 16.0156C176.112 16.2178 176.059 16.4018 175.956 16.5675C175.857 16.7332 175.724 16.8658 175.559 16.9652C175.396 17.0613 175.217 17.1094 175.022 17.1094ZM180.837 6.81818V17H178.993V8.61293H178.933L176.552 10.1342V8.44389L179.082 6.81818H180.837Z" fill="white"/>
</svg>
