<svg width="47" height="32" viewBox="0 0 47 32" fill="none" xmlns="http://www.w3.org/2000/svg">
<path d="M24.0819 25.4523C27.005 25.6118 29.6394 23.6945 30.3903 20.8606C31.0489 17.8074 29.5859 15.7557 26.2452 13.8015C25.2004 13.1907 25.1475 12.653 25.245 12.2136C25.2941 11.8229 25.6841 11.4565 26.4402 11.4565C27.3108 11.5798 28.0985 12.0357 28.6355 12.7269L32 9.74676C31.2966 8.88115 30.4044 8.18521 29.3907 7.71136C28.377 7.23751 27.2682 6.99808 26.1477 7.01112C23.4188 6.84273 20.9421 8.60199 20.198 11.2364C19.5639 14.0947 21.0024 16.3414 24.1719 18.2158C25.3433 18.9241 25.4646 19.5098 25.3671 20.0475C25.3028 20.3338 25.137 20.5875 24.8998 20.7625C24.6626 20.9374 24.3699 21.0218 24.0752 21.0002C22.368 21.0002 21.027 19.0216 21.027 19.0216L17.5152 21.7152C18.1832 22.855 19.1417 23.8004 20.2943 24.4563C21.4469 25.1123 22.7532 25.4558 24.0819 25.4523ZM15.5386 16.8214H6.42531C6.2621 16.7933 6.11419 16.7088 6.0078 16.5828C5.90141 16.4568 5.84342 16.2975 5.8441 16.1331C5.8441 15.7926 6.08968 15.5009 6.42531 15.4448H15.5386C15.8742 15.5009 16.1206 15.7919 16.1206 16.1331C16.1206 16.4743 15.875 16.7653 15.5386 16.8214ZM17.0716 8.55841H6.51907C6.39436 8.56435 6.27037 8.53639 6.16048 8.47757C6.05059 8.41874 5.95895 8.33127 5.89545 8.22458C5.83125 8.1173 5.79737 7.99484 5.79737 7.87007C5.79737 7.7453 5.83125 7.62284 5.89545 7.51556C5.95901 7.40875 6.05077 7.32121 6.1608 7.26238C6.27084 7.20354 6.39498 7.17566 6.51982 7.18173H17.0716C17.1965 7.17566 17.3206 7.20354 17.4306 7.26238C17.5407 7.32121 17.6324 7.40875 17.696 7.51556C17.7602 7.62284 17.7941 7.7453 17.7941 7.87007C17.7941 7.99484 17.7602 8.1173 17.696 8.22458C17.6324 8.3315 17.5405 8.41912 17.4303 8.47796C17.3201 8.5368 17.1966 8.56462 17.0716 8.55841ZM14.4015 12.6899H0.6534C0.476377 12.6801 0.309909 12.6032 0.188333 12.4751C0.0667572 12.347 -0.000653813 12.1775 4.78064e-06 12.0016C-0.000653813 11.8256 0.0667572 11.6561 0.188333 11.528C0.309909 11.4 0.476377 11.3231 0.6534 11.3132H14.4015C14.5785 11.3231 14.745 11.4 14.8666 11.528C14.9881 11.6561 15.0555 11.8256 15.0549 12.0016C15.0555 12.1775 14.9881 12.347 14.8666 12.4751C14.745 12.6032 14.5785 12.6801 14.4015 12.6899Z" fill="#D1D1D1"/>
<path d="M36.1201 23.9209L38.2148 17.8906H39.2354L36.6035 25H35.876L36.1201 23.9209ZM34.1621 17.8906L36.2373 23.9209L36.4961 25H35.7686L33.1416 17.8906H34.1621ZM38.9668 24.5215C38.9668 24.3685 39.014 24.2399 39.1084 24.1357C39.2061 24.0283 39.346 23.9746 39.5283 23.9746C39.7106 23.9746 39.849 24.0283 39.9434 24.1357C40.041 24.2399 40.0898 24.3685 40.0898 24.5215C40.0898 24.6712 40.041 24.7982 39.9434 24.9023C39.849 25.0065 39.7106 25.0586 39.5283 25.0586C39.346 25.0586 39.2061 25.0065 39.1084 24.9023C39.014 24.7982 38.9668 24.6712 38.9668 24.5215ZM44.46 17.8516V25H43.5566V18.9795L41.7354 19.6436V18.8281L44.3184 17.8516H44.46Z" fill="#D1D1D1"/>
</svg>
