<svg width="18" height="18" viewBox="0 0 18 18" fill="none" xmlns="http://www.w3.org/2000/svg">
<path d="M13.546 14.3794C15.1903 14.4691 16.6722 13.3907 17.0946 11.7966C17.465 10.0792 16.642 8.92508 14.7629 7.82582C14.1752 7.48225 14.1455 7.17981 14.2003 6.93262C14.228 6.71286 14.4473 6.5068 14.8726 6.5068C15.3623 6.57616 15.8054 6.83255 16.1075 7.22136L18 5.54505C17.6043 5.05815 17.1025 4.66668 16.5323 4.40014C15.9621 4.1336 15.3383 3.99892 14.7081 4.00626C13.1731 3.91154 11.78 4.90112 11.3614 6.383C11.0047 7.99075 11.8139 9.25452 13.5967 10.3089C14.2556 10.7073 14.3238 11.0368 14.269 11.3392C14.2328 11.5002 14.1395 11.643 14.0061 11.7414C13.8727 11.8398 13.7081 11.8873 13.5423 11.8751C12.582 11.8751 11.8277 10.7622 11.8277 10.7622L9.85228 12.2773C10.2281 12.9184 10.7672 13.4502 11.4156 13.8192C12.0639 14.1882 12.7987 14.3814 13.546 14.3794ZM8.74047 9.52456H3.61423C3.52243 9.50876 3.43923 9.4612 3.37939 9.39033C3.31955 9.31945 3.28692 9.22984 3.2873 9.13737C3.2873 8.94585 3.42544 8.78175 3.61423 8.75018H8.74047C8.92926 8.78175 9.06782 8.94544 9.06782 9.13737C9.06782 9.3293 8.92968 9.49299 8.74047 9.52456ZM9.60279 4.87661H3.66698C3.59683 4.87994 3.52709 4.86422 3.46527 4.83113C3.40346 4.79804 3.35191 4.74884 3.31619 4.68883C3.28008 4.62848 3.26102 4.5596 3.26102 4.48941C3.26102 4.41923 3.28008 4.35035 3.31619 4.29C3.35194 4.22992 3.40356 4.18068 3.46545 4.14759C3.52735 4.11449 3.59718 4.09881 3.6674 4.10222H9.60279C9.67301 4.09881 9.74284 4.11449 9.80474 4.14759C9.86663 4.18068 9.91825 4.22992 9.954 4.29C9.99011 4.35035 10.0092 4.41923 10.0092 4.48941C10.0092 4.5596 9.99011 4.62848 9.954 4.68883C9.91821 4.74897 9.86653 4.79825 9.80456 4.83135C9.74258 4.86445 9.67308 4.8801 9.60279 4.87661ZM8.10084 7.20058H0.367538C0.267962 7.19505 0.174324 7.1518 0.105937 7.07976C0.0375509 7.00771 -0.00036777 6.91237 2.68911e-06 6.81339C-0.00036777 6.71442 0.0375509 6.61907 0.105937 6.54703C0.174324 6.47498 0.267962 6.43173 0.367538 6.4262H8.10084C8.20041 6.43173 8.29405 6.47498 8.36244 6.54703C8.43083 6.61907 8.46874 6.71442 8.46837 6.81339C8.46874 6.91237 8.43083 7.00771 8.36244 7.07976C8.29405 7.1518 8.20041 7.19505 8.10084 7.20058Z" fill="#2FACD6"/>
</svg>
