<svg width="103" height="16" viewBox="0 0 103 16" fill="none" xmlns="http://www.w3.org/2000/svg">
<path d="M5.67552 15.9898C6.86072 16.0545 8.03197 15.7076 8.99219 15.0075C9.95241 14.3074 10.643 13.2967 10.9477 12.1457C11.4978 9.58959 10.2753 7.87221 7.48341 6.23683C6.61036 5.72548 6.5665 5.27615 6.64822 4.90814C6.68875 4.58079 7.01498 4.27411 7.64485 4.27411C8.37067 4.37761 9.02798 4.7601 9.47799 5.34081L12.2898 2.84607C11.6988 2.11976 10.9521 1.53658 10.1053 1.13996C9.2585 0.743351 8.33345 0.543513 7.39902 0.555334C6.29228 0.486946 5.19553 0.80055 4.29097 1.44405C3.38641 2.08755 2.7285 3.02221 2.4265 4.09276C1.89497 6.48483 3.0989 8.36622 5.74861 9.93493C6.72664 10.5276 6.8283 11.0183 6.74524 11.4683C6.69067 11.7095 6.55155 11.9229 6.35324 12.0698C6.15493 12.2166 5.91064 12.2871 5.66489 12.2683C4.23838 12.2683 3.11749 10.6123 3.11749 10.6123L0.184082 12.8677C0.74796 13.824 1.55162 14.6154 2.51507 15.1632C3.47853 15.7109 4.56817 15.9959 5.67552 15.9898ZM18.9819 0.856021H13.7801L10.6015 15.6798H14.9834L16.1475 10.2409H17.8391C19.1145 10.3458 20.3827 9.96723 21.3936 9.17996C22.4045 8.39269 23.0847 7.25388 23.3 5.98816C23.438 5.3534 23.4286 4.69529 23.2725 4.06475C23.1165 3.43421 22.818 2.84813 22.4001 2.35187C21.9822 1.85561 21.4562 1.46247 20.8626 1.20285C20.2691 0.943235 19.624 0.824104 18.9772 0.854679L18.9819 0.856021ZM19.1447 5.67549C19.0993 5.96396 18.9495 6.2255 18.724 6.41003C18.4984 6.59456 18.2129 6.6891 17.9221 6.67552H16.9255L17.374 4.52944H18.1892C18.3342 4.52058 18.4792 4.54613 18.6124 4.60399C18.7457 4.66185 18.8635 4.75039 18.9563 4.86246C19.0491 4.97453 19.1143 5.10698 19.1465 5.24905C19.1788 5.39111 19.1773 5.5388 19.142 5.68015L19.1447 5.67549ZM27.5549 15.9864C29.0909 16.0732 30.6026 15.5732 31.786 14.5869C32.9694 13.6006 33.7366 12.2012 33.9334 10.6703L36.0117 0.856021H31.6305L29.6532 10.1803C29.4698 11.1003 29.0213 11.571 28.2473 11.571C27.2081 11.571 26.937 10.937 27.1264 10.1396L29.0824 0.856673H24.7019L22.8096 9.89426C21.9771 13.883 24.3557 15.9898 27.5549 15.9898V15.9864ZM46.4444 5.86483C46.5777 5.24532 46.5675 4.60336 46.4145 3.98845C46.2615 3.37354 45.9699 2.80209 45.5621 2.31812C45.1543 1.83414 44.6412 1.45056 44.0623 1.19695C43.4835 0.943345 42.8543 0.826484 42.2233 0.85535H36.8382L33.7088 15.6791H38.09L39.2979 10.0356L41.3503 15.6791H45.9933L43.5309 9.56492C44.2854 9.24155 44.9472 8.73389 45.4561 8.0882C45.965 7.44251 46.3047 6.67931 46.4444 5.86814V5.86483ZM41.0035 4.53544C41.1867 4.5202 41.3709 4.54991 41.5401 4.62199C41.7093 4.69408 41.8585 4.80639 41.9749 4.94923C42.0912 5.09208 42.1712 5.26116 42.2079 5.44192C42.2445 5.62269 42.2369 5.8097 42.1855 5.98682C42.1225 6.34645 41.9298 6.67026 41.6442 6.89649C41.3586 7.12273 40.9999 7.23557 40.6367 7.21352H39.8806L40.4513 4.53477L41.0035 4.53544ZM58.3037 0.85535H47.0969L46.2006 5.00612H49.6037L47.3447 15.6791H51.7253L53.9843 5.00612H57.4074L58.3037 0.85535ZM68.3903 15.9891C69.5847 16.0536 70.7772 15.8312 71.8688 15.3404C72.9604 14.8496 73.9194 14.1045 74.6664 13.167L71.4871 10.611C71.1488 10.9977 70.7319 11.3073 70.2645 11.5189C69.797 11.7305 69.2898 11.8392 68.777 11.8376C68.2842 11.8313 67.7994 11.7118 67.3597 11.4885C66.9199 11.2652 66.537 10.944 66.24 10.5493C65.9431 10.1546 65.7401 9.69706 65.6465 9.21156C65.5529 8.72606 65.5712 8.2255 65.7 7.7482C65.8391 6.89638 66.2758 6.12206 66.932 5.56392C67.5882 5.00577 68.421 4.70027 69.2812 4.70212C69.9399 4.70728 70.5809 4.91613 71.1169 5.30018C71.6529 5.68422 72.0578 6.22478 72.2765 6.84817L76.1886 5.11013C75.7061 3.76617 74.8196 2.60572 73.6515 1.78899C72.4835 0.972264 71.0916 0.539573 69.6679 0.550674C67.7099 0.472626 65.7904 1.1123 64.268 2.35029C62.7455 3.58827 61.7242 5.33993 61.3946 7.2782C61.1662 8.32677 61.175 9.41339 61.4205 10.4581C61.6659 11.5028 62.1417 12.4789 62.8129 13.3147C63.484 14.1505 64.3334 14.8246 65.2985 15.2874C66.2636 15.7503 67.3199 15.99 68.3896 15.9891H68.3903ZM74.0963 15.6824H78.233L79.6795 10.3663L81.9445 15.2937L86.1802 10.8363L85.4672 15.6824H89.5866L91.7467 0L83.1677 8.52622L78.5965 0L74.0963 15.6824ZM95.7166 15.9891C96.9027 16.0551 98.0752 15.7088 99.0365 15.0086C99.9978 14.3084 100.689 13.297 100.994 12.145C101.544 9.58892 100.322 7.87153 97.5298 6.23616C96.6568 5.72481 96.6129 5.27547 96.6946 4.90746C96.7351 4.58012 97.0614 4.27343 97.6913 4.27343C98.4171 4.37694 99.0744 4.75943 99.5244 5.34013L102.336 2.8454C101.745 2.11908 100.998 1.53591 100.152 1.13929C99.3049 0.742679 98.3798 0.542841 97.4454 0.554662C96.3388 0.486307 95.2421 0.799954 94.3377 1.44346C93.4332 2.08697 92.7754 3.02161 92.4735 4.09211C91.942 6.48418 93.1459 8.36555 95.7957 9.93426C96.7737 10.5269 96.8753 11.0176 96.7923 11.4676C96.7377 11.7088 96.5986 11.9223 96.4003 12.0691C96.202 12.216 95.9577 12.2864 95.7119 12.2677C94.2854 12.2677 93.1646 10.6116 93.1646 10.6116L90.2358 12.867C90.7988 13.8219 91.6009 14.6125 92.5624 15.1603C93.524 15.7081 94.6116 15.994 95.7173 15.9898L95.7166 15.9891Z" fill="white"/>
</svg>
