<svg width="12" height="12" viewBox="0 0 12 12" fill="none" xmlns="http://www.w3.org/2000/svg">
<path d="M2.68585 12C2.55438 12 2.42382 11.9572 2.3124 11.8731C2.10484 11.7162 2.00789 11.4464 2.06438 11.186L2.83637 7.6375L0.218262 5.24163C0.0258136 5.06632 -0.0477051 4.78869 0.0313069 4.53466C0.110319 4.2811 0.32529 4.10159 0.579813 4.07703L4.04389 3.74887L5.41346 0.404407C5.51444 0.158687 5.74443 0 5.99996 0C6.25549 0 6.48548 0.158687 6.58646 0.403834L7.95603 3.74887L11.4196 4.07703C11.6746 4.10101 11.8896 4.2811 11.9686 4.53466C12.0476 4.78821 11.9746 5.06632 11.7821 5.24163L9.16401 7.63702L9.936 11.1855C9.99258 11.4464 9.89553 11.7162 9.68807 11.8726C9.48106 12.0291 9.20503 12.0412 8.98703 11.9045L5.99996 10.0418L3.01289 11.9055C2.9119 11.9681 2.79938 12 2.68585 12ZM5.99996 9.23937C6.11349 9.23937 6.22592 9.27118 6.32699 9.33376L9.14606 11.0932L8.41747 7.74393C8.36547 7.50557 8.44301 7.25669 8.61953 7.09543L11.0916 4.83311L7.82099 4.52319C7.58551 4.50074 7.38299 4.34626 7.29098 4.11983L5.99996 0.96368L4.70739 4.12031C4.61638 4.34521 4.41386 4.49969 4.17893 4.52214L0.907854 4.83206L3.37984 7.09437C3.55691 7.25612 3.63436 7.50451 3.5819 7.74345L2.85386 11.0926L5.67293 9.33376C5.77391 9.27118 5.88643 9.23937 5.99996 9.23937ZM4.01743 3.81354C4.01743 3.81354 4.01743 3.81412 4.01688 3.81459L4.01743 3.81354ZM7.98148 3.81202L7.98203 3.81307C7.98203 3.81249 7.98203 3.81249 7.98148 3.81202Z" fill="#AAAAAA"/>
</svg>
