<svg width="48" height="20" viewBox="0 0 48 20" fill="none" xmlns="http://www.w3.org/2000/svg">
<path fill-rule="evenodd" clip-rule="evenodd" d="M48.0003 10.339C48.0003 6.92245 46.347 4.22656 43.187 4.22656C40.0137 4.22656 38.0938 6.92245 38.0938 10.3123C38.0938 14.3295 40.3604 16.358 43.6137 16.358C45.2003 16.358 46.4003 15.9977 47.307 15.4905V12.8213C46.4003 13.2751 45.3603 13.5554 44.0403 13.5554C42.747 13.5554 41.6003 13.1016 41.4537 11.5267H47.9736C47.9737 11.3532 48.0003 10.6592 48.0003 10.339ZM41.4137 9.07108C41.4137 7.56296 42.3338 6.93568 43.1737 6.93568C43.9871 6.93568 44.8537 7.56296 44.8537 9.07108H41.4137Z" fill="white"/>
<path fill-rule="evenodd" clip-rule="evenodd" d="M32.9465 4.22656C31.6399 4.22656 30.7999 4.84043 30.3332 5.26757L30.1599 4.44013H27.2266V20.0016L30.5599 19.2942L30.5732 15.5174C31.0532 15.8644 31.7598 16.3581 32.9331 16.3581C35.3198 16.3581 37.4931 14.4363 37.4931 10.2056C37.4799 6.33522 35.2799 4.22656 32.9465 4.22656ZM32.1465 13.4219C31.3598 13.4219 30.8932 13.1416 30.5732 12.7946L30.5599 7.84325C30.9065 7.45618 31.3865 7.18931 32.1465 7.18931C33.3599 7.18931 34.1998 8.55058 34.1998 10.2989C34.1999 12.0873 33.3732 13.4219 32.1465 13.4219Z" fill="white"/>
<path fill-rule="evenodd" clip-rule="evenodd" d="M22.6396 3.42986L25.9862 2.70921V0L22.6396 0.70733V3.42986Z" fill="white"/>
<path d="M25.9862 4.44531H22.6396V16.123H25.9862V4.44531Z" fill="white"/>
<path fill-rule="evenodd" clip-rule="evenodd" d="M19.0533 5.4302L18.84 4.44259H15.96V16.1203H19.2933V8.20613C20.0799 7.17845 21.4133 7.36537 21.8266 7.51212V4.44259C21.4 4.28251 19.84 3.9889 19.0533 5.4302Z" fill="white"/>
<path fill-rule="evenodd" clip-rule="evenodd" d="M12.3868 1.54688L9.13343 2.24088L9.12012 12.931C9.12012 14.9062 10.6001 16.3609 12.5734 16.3609C13.6668 16.3609 14.4667 16.1607 14.9067 15.9204V13.2112C14.4801 13.3847 12.3735 13.9986 12.3735 12.0235V7.28564H14.9067V4.443H12.3735L12.3868 1.54688Z" fill="white"/>
<path fill-rule="evenodd" clip-rule="evenodd" d="M3.37334 7.84325C3.37334 7.32275 3.79997 7.1226 4.50662 7.1226C5.51992 7.1226 6.79992 7.42953 7.81331 7.97678V4.84043C6.70664 4.40006 5.61329 4.22656 4.50662 4.22656C1.80001 4.22656 0 5.64122 0 8.00343C0 11.6869 5.06666 11.0997 5.06666 12.6879C5.06666 13.3018 4.53334 13.502 3.78666 13.502C2.67999 13.502 1.26669 13.0482 0.146712 12.4343V15.6106C1.38668 16.1445 2.64006 16.3714 3.78666 16.3714C6.55993 16.3714 8.46662 14.9967 8.46662 12.6078C8.45331 8.63071 3.37334 9.33804 3.37334 7.84325Z" fill="white"/>
</svg>
