<svg width="32" height="32" viewBox="0 0 32 32" fill="none" xmlns="http://www.w3.org/2000/svg">
<path d="M28.5422 32H3.45777C1.54813 32 0 30.4519 0 28.5422V3.45777C0 1.54813 1.54813 0 3.45777 0H28.5422C30.4519 0 31.9999 1.54813 31.9999 3.45777V28.5422C32 30.4519 30.4519 32 28.5422 32Z" fill="#635BFF"/>
<path fill-rule="evenodd" clip-rule="evenodd" d="M28.2544 16.1758C28.2544 14.4356 27.4115 13.0625 25.8004 13.0625C24.1827 13.0625 23.2038 14.4356 23.2038 16.1622C23.2038 18.2083 24.3594 19.2415 26.018 19.2415C26.8269 19.2415 27.4387 19.058 27.9009 18.7997V17.4402C27.4387 17.6713 26.9085 17.8141 26.2355 17.8141C25.5761 17.8141 24.9915 17.5829 24.9168 16.7808H28.2408C28.2408 16.6924 28.2544 16.339 28.2544 16.1758ZM24.8964 15.5301C24.8964 14.7619 25.3654 14.4424 25.7936 14.4424C26.2083 14.4424 26.6501 14.7619 26.6501 15.5301H24.8964Z" fill="white"/>
<path fill-rule="evenodd" clip-rule="evenodd" d="M20.5798 13.0625C19.9137 13.0625 19.4854 13.3751 19.2475 13.5927L19.1592 13.1712H17.6637V21.0972L19.3631 20.737L19.3699 18.8133C19.6146 18.99 19.9749 19.2415 20.573 19.2415C21.7899 19.2415 22.8978 18.2627 22.8978 16.1078C22.8911 14.1365 21.7695 13.0625 20.5798 13.0625ZM20.172 17.746C19.771 17.746 19.533 17.6033 19.3699 17.4265L19.3631 14.9046C19.5398 14.7075 19.7845 14.5715 20.172 14.5715C20.7906 14.5715 21.2188 15.2649 21.2188 16.1554C21.2188 17.0663 20.7974 17.746 20.172 17.746Z" fill="white"/>
<path fill-rule="evenodd" clip-rule="evenodd" d="M15.3253 12.661L17.0315 12.2939V10.9141L15.3253 11.2743V12.661Z" fill="white"/>
<path fill-rule="evenodd" clip-rule="evenodd" d="M15.3253 13.1797H17.0315V19.1276H15.3253V13.1797Z" fill="white"/>
<path fill-rule="evenodd" clip-rule="evenodd" d="M13.4968 13.6827L13.388 13.1796H11.9197V19.1275H13.6191V15.0966C14.0202 14.5731 14.6999 14.6683 14.9107 14.7431V13.1796C14.6931 13.0981 13.8978 12.9485 13.4968 13.6827Z" fill="white"/>
<path fill-rule="evenodd" clip-rule="evenodd" d="M10.098 11.7031L8.43936 12.0566L8.43256 17.5015C8.43256 18.5075 9.18711 19.2485 10.1931 19.2485C10.7505 19.2485 11.1584 19.1465 11.3827 19.0241V17.6442C11.1652 17.7326 10.0912 18.0453 10.0912 17.0393V14.6261H11.3827V13.1782H10.0912L10.098 11.7031Z" fill="white"/>
<path fill-rule="evenodd" clip-rule="evenodd" d="M5.50282 14.9047C5.50282 14.6395 5.72032 14.5376 6.08064 14.5376C6.59723 14.5376 7.24978 14.6939 7.76642 14.9726V13.3752C7.20221 13.1509 6.6448 13.0625 6.08064 13.0625C4.7007 13.0625 3.78302 13.783 3.78302 14.9862C3.78302 16.8624 6.36612 16.5633 6.36612 17.3722C6.36612 17.6849 6.09419 17.7868 5.71357 17.7868C5.14936 17.7868 4.42883 17.5557 3.85781 17.243V18.8608C4.49001 19.1328 5.12895 19.2483 5.71357 19.2483C7.12742 19.2483 8.09953 18.5481 8.09953 17.3314C8.09273 15.3057 5.50282 15.666 5.50282 14.9047Z" fill="white"/>
</svg>
