<svg width="32" height="32" viewBox="0 0 32 32" fill="none" xmlns="http://www.w3.org/2000/svg">
<path d="M24.4824 6.93901H6.78201C5.03844 6.93901 3.625 5.52557 3.625 3.78201C3.625 2.03844 5.03844 0.625 6.78201 0.625H24.4824C26.226 0.625 27.6394 2.03844 27.6394 3.78201C27.6394 5.52557 26.226 6.93901 24.4824 6.93901Z" fill="#B1D7FE"/>
<path d="M9.77864 3.78201C9.77864 2.674 9.97195 1.61125 10.3258 0.625H6.78207C5.03844 0.625 3.625 2.03844 3.625 3.78201C3.625 5.52557 5.03844 6.93901 6.78201 6.93901H10.3258C9.97189 5.95282 9.77864 4.89007 9.77864 3.78201Z" fill="#8BC6F8"/>
<path d="M10.6296 10.4609C10.1597 10.4609 9.77881 10.8419 9.77881 11.3118V14.2093C9.77881 14.6791 10.1597 15.0601 10.6296 15.0601H13.5489V10.4609H10.6296Z" fill="white"/>
<path d="M27.6395 14.2093V11.3118C27.6395 10.8419 27.2586 10.4609 26.7887 10.4609H13.5488V15.0601H26.7888C27.2587 15.06 27.6395 14.6791 27.6395 14.2093Z" fill="#FF6677"/>
<path d="M26.7888 23.2163C27.2587 23.2163 27.6396 22.8354 27.6396 22.3655V19.468C27.6396 18.9981 27.2587 18.6172 26.7888 18.6172H13.5488V23.2163H26.7888Z" fill="#FFDB4E"/>
<path d="M9.77881 19.468V22.3655C9.77881 22.8354 10.1597 23.2163 10.6296 23.2163H13.5489V18.6172H10.6296C10.1597 18.6173 9.77881 18.9981 9.77881 19.468Z" fill="white"/>
<path d="M26.7888 31.3726C27.2587 31.3726 27.6396 30.9916 27.6396 30.5218V27.6243C27.6396 27.1544 27.2587 26.7734 26.7888 26.7734H13.5488V31.3726H26.7888Z" fill="#8BC6F8"/>
<path d="M9.77881 27.6243V30.5218C9.77881 30.9916 10.1597 31.3726 10.6296 31.3726H13.5489V26.7734H10.6296C10.1597 26.7734 9.77881 27.1544 9.77881 27.6243Z" fill="white"/>
<path d="M26.7886 9.83721H10.6295C9.8157 9.83721 9.15364 10.4992 9.15364 11.313V12.1367H6.56776V7.55758C6.63869 7.56158 6.71007 7.56402 6.78201 7.56402H24.4824C26.5679 7.56402 28.2644 5.86739 28.2644 3.78201C28.2644 1.69663 26.5679 0 24.4824 0H6.78201C4.69657 0 3 1.69663 3 3.78201C3 5.34851 3.95738 6.69551 5.31775 7.26889V28.3722C5.31775 29.1046 5.91363 29.7004 6.64601 29.7004H9.15364V30.5242C9.15364 31.3379 9.8157 32 10.6295 32H26.7887C27.6024 32 28.2645 31.3379 28.2645 30.5242V27.6267C28.2645 26.8129 27.6024 26.1509 26.7887 26.1509H10.6295C9.8157 26.1509 9.15364 26.8129 9.15364 27.6267V28.4504H6.64601C6.60288 28.4504 6.56776 28.4153 6.56776 28.3722V21.5436H9.15364V22.3674C9.15364 23.1811 9.8157 23.8432 10.6295 23.8432H26.7887C27.6024 23.8432 28.2645 23.1811 28.2645 22.3674V19.4699C28.2645 18.6561 27.6024 17.9941 26.7887 17.9941H10.6295C9.8157 17.9941 9.15364 18.6561 9.15364 19.4699V20.2936H6.56776V13.3867H9.15364V14.2105C9.15364 15.0242 9.8157 15.6863 10.6295 15.6863H26.7887C27.6024 15.6863 28.2645 15.0242 28.2645 14.2105V11.313C28.2644 10.4992 27.6024 9.83721 26.7886 9.83721ZM10.4036 27.6267C10.4036 27.5022 10.505 27.401 10.6295 27.401H26.7887C26.9132 27.401 27.0145 27.5023 27.0145 27.6267V30.5242C27.0145 30.6487 26.9132 30.7501 26.7887 30.7501H10.6295C10.505 30.7501 10.4036 30.6487 10.4036 30.5242V27.6267ZM10.4036 19.4699C10.4036 19.3454 10.505 19.2441 10.6295 19.2441H26.7887C26.9132 19.2441 27.0145 19.3454 27.0145 19.4699V22.3674C27.0145 22.4919 26.9132 22.5932 26.7887 22.5932H10.6295C10.505 22.5932 10.4036 22.4919 10.4036 22.3674V19.4699ZM4.25 3.78201C4.25 2.38588 5.38588 1.25 6.78201 1.25H24.4824C25.8785 1.25 27.0144 2.38588 27.0144 3.78201C27.0144 5.17814 25.8785 6.31401 24.4824 6.31401H6.78201C5.38588 6.31401 4.25 5.1782 4.25 3.78201ZM27.0144 14.2105C27.0144 14.335 26.9131 14.4363 26.7886 14.4363H10.6295C10.505 14.4363 10.4036 14.335 10.4036 14.2105V11.313C10.4036 11.1885 10.505 11.0873 10.6295 11.0873H26.7887C26.9132 11.0873 27.0145 11.1886 27.0145 11.313V14.2105H27.0144Z" fill="black"/>
</svg>
