<svg width="100" height="100" viewBox="0 0 100 100" fill="none" xmlns="http://www.w3.org/2000/svg">
<path d="M20.1754 80.2033H7.89474C3.81746 80.2033 0.5 76.8858 0.5 72.8085V16.6682C0.5 12.5909 3.81746 9.27344 7.89474 9.27344H20.1754C21.353 9.27344 22.307 10.2275 22.307 11.405C22.307 12.5826 21.353 13.5366 20.1754 13.5366H7.89474C6.16745 13.5366 4.76316 14.9409 4.76316 16.6682V72.8085C4.76316 74.5358 6.16746 75.9401 7.89474 75.9401H20.1754C21.353 75.9401 22.307 76.8941 22.307 78.0717C22.307 79.2492 21.353 80.2033 20.1754 80.2033Z" fill="#B4B4B4" stroke="white"/>
<path d="M86.8419 60.2034C85.6644 60.2034 84.7104 59.2494 84.7104 58.0719V16.6682C84.7104 14.9409 83.3061 13.5366 81.5788 13.5366H69.2981C68.1205 13.5366 67.1665 12.5826 67.1665 11.405C67.1665 10.2275 68.1205 9.27344 69.2981 9.27344H81.5788C85.6561 9.27344 88.9735 12.5909 88.9735 16.6682V58.0719C88.9735 59.2494 88.0195 60.2034 86.8419 60.2034Z" fill="#B4B4B4" stroke="white"/>
<path d="M46.4913 88.9737H25.4387C21.3614 88.9737 18.0439 85.6562 18.0439 81.5789V7.89474C18.0439 3.81746 21.3614 0.5 25.4387 0.5H64.0352C68.1125 0.5 71.4299 3.81746 71.4299 7.89474V56.4736C71.4299 57.6511 70.4759 58.6052 69.2983 58.6052C68.1208 58.6052 67.1668 57.6511 67.1668 56.4736V7.89474C67.1668 6.16745 65.7625 4.76316 64.0352 4.76316H25.4387C23.7114 4.76316 22.3071 6.16745 22.3071 7.89474V81.5789C22.3071 83.3062 23.7114 84.7105 25.4387 84.7105H46.4913C47.6689 84.7105 48.6229 85.6646 48.6229 86.8421C48.6229 88.0197 47.6689 88.9737 46.4913 88.9737Z" fill="#B4B4B4" stroke="white"/>
<path d="M33.735 13.207L33.7349 13.2069C33.0904 12.7231 32.2258 12.6455 31.5027 13.0059C30.7803 13.3676 30.3247 14.1051 30.3247 14.9126V32.4565C30.3247 33.634 31.2787 34.5881 32.4563 34.5881H57.0177C58.1952 34.5881 59.1492 33.6341 59.1492 32.4565V14.9126C59.1492 14.1051 58.6936 13.3676 57.9713 13.0059C57.249 12.6464 56.385 12.7231 55.7386 13.2072L50.5468 17.1004L50.2 17.3605L49.8934 17.054L46.2426 13.405L33.735 13.207ZM33.735 13.207L38.9262 17.1012L39.2732 17.3616M33.735 13.207L39.2732 17.3616M39.2732 17.3616L39.5799 17.0547M39.2732 17.3616L39.5799 17.0547M39.5799 17.0547L43.2273 13.4056M39.5799 17.0547L43.2273 13.4056M43.2273 13.4056C43.2274 13.4055 43.2274 13.4055 43.2274 13.4055M43.2273 13.4056L43.2274 13.4055M43.2274 13.4055C44.0599 12.5731 45.4095 12.5735 46.2424 13.4048L43.2274 13.4055ZM34.5879 29.8249L34.5879 30.3249H35.0879H54.3861H54.8861V29.8249V20.1749V19.1749L54.0861 19.7749L51.2789 21.8806L51.2787 21.8807C50.432 22.5166 49.244 22.433 48.4929 21.6827L45.0896 18.2803L44.736 17.9267L44.3825 18.2804L40.9821 21.6825C40.982 21.6825 40.982 21.6826 40.982 21.6826C40.2298 22.4333 39.0425 22.5173 38.1951 21.8815L38.1951 21.8814L35.3879 19.7758L34.5878 19.1757L34.5878 20.1758L34.5879 29.8249Z" fill="#B4B4B4" stroke="white"/>
<path d="M44.7368 70.3621C42.755 70.3621 40.9495 69.1952 40.2437 67.4577C39.8456 66.4789 40.3172 65.3625 41.2966 64.9644C42.2734 64.565 43.3918 65.0366 43.7899 66.0173C43.912 66.3169 44.3101 66.5344 44.7368 66.5344C45.515 66.5344 46.1723 66.031 46.1723 65.4354V65.2877C46.1723 64.6784 44.8614 64.2423 44.4098 64.1607C42.5843 63.8567 39.4736 62.4792 39.4736 59.2619V59.1143C39.4736 56.3979 41.8349 54.1875 44.7368 54.1875C46.7186 54.1875 48.5241 55.3544 49.23 57.092C49.6281 58.0707 49.1565 59.1872 48.1771 59.5853C47.1996 59.9834 46.0813 59.5124 45.6838 58.5324C45.5617 58.2327 45.1636 58.0153 44.7368 58.0153C43.9587 58.0153 43.3014 58.5187 43.3014 59.1143V59.2619C43.3014 59.8712 44.6122 60.3074 45.0639 60.389C46.8893 60.693 50 62.0705 50 65.2877V65.4354C50 68.1517 47.6388 70.3621 44.7368 70.3621Z" fill="#B4B4B4"/>
<path d="M44.7366 58.0155C43.6794 58.0155 42.8228 57.1589 42.8228 56.1017V53.3436C42.8228 52.2863 43.6794 51.4297 44.7366 51.4297C45.7939 51.4297 46.6505 52.2863 46.6505 53.3436V56.1017C46.6505 57.1589 45.7939 58.0155 44.7366 58.0155Z" fill="#B4B4B4"/>
<path d="M44.7366 73.1171C43.6794 73.1171 42.8228 72.2605 42.8228 71.2032V68.4451C42.8228 67.3879 43.6794 66.5312 44.7366 66.5312C45.7939 66.5312 46.6505 67.3879 46.6505 68.4451V71.2032C46.6505 72.2605 45.7939 73.1171 44.7366 73.1171Z" fill="#B4B4B4"/>
<path d="M76.316 99.5012C63.5328 99.5012 53.1318 89.1003 53.1318 76.317C53.1318 63.5338 63.5328 53.1328 76.316 53.1328C89.0993 53.1328 99.5003 63.5338 99.5003 76.317C99.5003 89.1003 89.0993 99.5012 76.316 99.5012ZM76.316 57.396C65.8828 57.396 57.395 65.8838 57.395 76.317C57.395 86.7503 65.8828 95.2381 76.316 95.2381C86.7493 95.2381 95.2371 86.7503 95.2371 76.317C95.2371 65.8838 86.7493 57.396 76.316 57.396Z" fill="#B4B4B4" stroke="white"/>
<path d="M63.8443 76.9448L63.8441 76.9446C63.0116 76.1128 63.0116 74.7626 63.8441 73.9308L63.8443 73.9307C64.677 73.098 66.0257 73.098 66.8584 73.9307L66.8584 73.9307L72.8925 79.964L73.2461 80.3175L73.5996 79.9639L85.7741 67.7886L85.7744 67.7883C86.6051 66.9561 87.9553 66.9557 88.7882 67.7886L88.7883 67.7887C89.6207 68.6205 89.621 69.9699 88.7882 70.8027L88.7881 70.8027L74.7531 84.8395C74.3533 85.2393 73.8114 85.464 73.2461 85.464C72.6807 85.464 72.1388 85.2393 71.739 84.8395L63.8443 76.9448Z" fill="#B4B4B4" stroke="white"/>
</svg>
