<svg xmlns="http://www.w3.org/2000/svg" xmlns:xlink="http://www.w3.org/1999/xlink" width="16" height="16" viewBox="0 0 16 16">
  <defs>
    <clipPath id="clip-path">
      <rect id="Rectangle_5426" data-name="Rectangle 5426" width="16" height="16" transform="translate(410 1373)" fill="#fff" stroke="#000" stroke-width="1.2"/>
    </clipPath>
  </defs>
  <g id="Mask_Group_790" data-name="Mask Group 790" transform="translate(-410 -1373)" clip-path="url(#clip-path)">
    <g id="settings-02-stroke-rounded_1_" data-name="settings-02-stroke-rounded (1)" transform="translate(409.07 1372.069)">
      <path id="Path_39368" data-name="Path 39368" d="M11.535,8.93a2.6,2.6,0,1,1-2.6-2.6A2.6,2.6,0,0,1,11.535,8.93Z" fill="none" stroke="#000" stroke-width="1.2"/>
      <path id="Path_39369" data-name="Path 39369" d="M15.636,10.49c.388-.1.583-.157.659-.257s.077-.261.077-.583V8.211c0-.322,0-.483-.077-.583s-.271-.153-.659-.257a2.8,2.8,0,0,1-1.985-3.351c.1-.4.154-.595.105-.711s-.19-.2-.473-.357L12,2.223c-.277-.157-.415-.236-.54-.219s-.265.157-.545.436a2.829,2.829,0,0,1-3.969,0C6.666,2.16,6.526,2.02,6.4,2s-.263.062-.54.219l-1.283.729c-.282.16-.423.24-.473.357s0,.315.105.711A2.8,2.8,0,0,1,2.224,7.37c-.388.1-.583.157-.659.257s-.077.261-.077.583V9.65c0,.322,0,.483.077.583s.271.153.659.257A2.8,2.8,0,0,1,4.21,13.841c-.1.4-.155.595-.105.711s.19.2.473.357l1.283.729c.277.157.416.236.54.219s.265-.157.545-.437a2.831,2.831,0,0,1,3.971,0c.28.28.421.42.545.437s.263-.062.54-.219l1.283-.729c.282-.16.424-.24.473-.357s0-.315-.105-.711A2.8,2.8,0,0,1,15.636,10.49Z" fill="none" stroke="#000" stroke-linecap="round" stroke-width="1.2"/>
    </g>
  </g>
</svg>
