<svg width="80" height="80" viewBox="0 0 80 80" fill="none" xmlns="http://www.w3.org/2000/svg">
<path d="M40 80C62.0914 80 80 62.0914 80 40C80 17.9086 62.0914 0 40 0C17.9086 0 0 17.9086 0 40C0 62.0914 17.9086 80 40 80Z" fill="#00BA00"/>
<path fill-rule="evenodd" clip-rule="evenodd" d="M27.5096 59.5092L12.8803 43.8515C10.8775 41.7079 10.9925 38.3164 13.1361 36.3136C15.2797 34.3108 18.6712 34.426 20.674 36.5693L31.9585 48.6468L49.8202 31.958C49.9808 31.8078 50.1487 31.6701 50.3222 31.5435L58.7219 23.6956C60.8655 21.6928 64.2574 21.8081 66.2599 23.9517C68.2627 26.095 68.1474 29.4868 66.0041 31.4896L40.3493 55.4597L40.3219 55.4304L31.4476 63.7221L27.5096 59.5092Z" fill="white"/>
</svg>
