<svg width="100" height="104" viewBox="0 0 100 104" fill="none" xmlns="http://www.w3.org/2000/svg">
<path d="M10 85.229V32.2713C10 18.0013 10 10.8663 14.3934 6.43315C18.7868 2 25.8579 2 40 2H60C74.142 2 81.213 2 85.6065 6.43315C90 10.8663 90 18.0013 90 32.2713V85.229C90 92.7875 90 96.5665 87.69 98.054C83.9155 100.486 78.0805 95.387 75.1455 93.5365C72.7205 92.007 71.5085 91.2425 70.1625 91.1985C68.7085 91.1505 67.4745 91.884 64.8545 93.5365L55.3 99.562C52.7225 101.187 51.434 102 50 102C48.566 102 47.2775 101.187 44.7 99.562L35.1456 93.5365C32.7207 92.007 31.5083 91.2425 30.1626 91.1985C28.7086 91.1505 27.4747 91.884 24.8544 93.5365C21.9197 95.387 16.0843 100.486 12.3097 98.054C10 96.5665 10 92.7875 10 85.229Z" stroke="#B4B4B4" stroke-width="3.5" stroke-linecap="round" stroke-linejoin="round"/>
<path d="M70 22H30" stroke="#B4B4B4" stroke-width="3.5" stroke-linecap="round" stroke-linejoin="round"/>
<path d="M40 42H30" stroke="#B4B4B4" stroke-width="3.5" stroke-linecap="round" stroke-linejoin="round"/>
<path d="M62.5 41.375C58.358 41.375 55 44.313 55 47.9375C55 51.562 58.358 54.5 62.5 54.5C66.642 54.5 70 57.438 70 61.0625C70 64.687 66.642 67.625 62.5 67.625M62.5 41.375C65.7655 41.375 68.5435 43.201 69.573 45.75M62.5 41.375V37M62.5 67.625C59.2345 67.625 56.4565 65.799 55.427 63.25M62.5 67.625V72" stroke="#B4B4B4" stroke-width="3.5" stroke-linecap="round"/>
</svg>
