<svg width="120" height="54" viewBox="0 0 120 54" fill="none" xmlns="http://www.w3.org/2000/svg">
<g clip-path="url(#clip0_189_1852)">
<path d="M25.4348 39.5082L25.3097 39.8836V39.8169L25.2513 39.942L25.3097 39.8836L25.2513 40.0088V39.942C24.9385 40.5542 24.564 41.1328 24.1335 41.6688V41.6104C24.3207 41.2387 24.5267 40.8767 24.7508 40.526C24.991 40.1676 25.1977 39.7878 25.3681 39.3914L25.2513 39.3247C25.2513 39.4081 25.2513 39.4415 25.3097 39.4165C25.3681 39.3914 25.3097 39.4165 25.3097 39.5082L23.2075 42.845C23.425 42.7112 23.5989 42.517 23.708 42.2861C23.8202 42.0614 23.9634 41.8536 24.1335 41.6688V41.7356L23.4578 42.7199C23.7769 42.4509 24.0576 42.1394 24.292 41.7939C24.5144 41.4658 24.7313 41.1155 24.9426 40.7429C24.8167 41.0707 24.6719 41.3911 24.5089 41.7022C24.342 42.0108 24.1585 42.3278 23.9499 42.6615H23.8332V42.845C23.63 43.0831 23.4127 43.3088 23.1825 43.5207C23.074 43.6042 23.0073 43.6459 22.9656 43.6459H22.8989C22.8471 43.7835 22.7858 43.9173 22.7153 44.0463C22.5765 44.3143 22.3765 44.5458 22.1314 44.722C21.8712 44.924 21.6335 45.1533 21.4223 45.406C21.3389 45.406 21.3222 45.406 21.3639 45.3393V45.2225L21.0469 45.648C21.0469 45.5645 20.9885 45.5812 20.9885 45.648C20.9885 45.7147 20.9885 45.7814 20.9301 45.7397V45.5562C20.5049 46.1328 20.0182 46.6615 19.4786 47.1328C19.0031 47.4999 18.5443 47.8252 18.0855 48.1172C17.9187 48.1172 17.8603 48.1172 17.902 48.2423C17.8186 48.1589 17.7185 48.1589 17.5933 48.2423C17.5051 48.2967 17.4215 48.3581 17.3431 48.4259C17.2547 48.43 17.17 48.4622 17.1012 48.5176C17.0117 48.5826 16.928 48.6552 16.8509 48.7345C16.7225 48.7762 16.6074 48.851 16.5172 48.9514C16.4288 49.0292 16.3552 49.1225 16.3003 49.2267L16.2336 49.1683C16.1919 49.1683 16.1168 49.3101 15.9917 49.6021C15.8248 49.477 15.708 49.4352 15.6496 49.477L15.4327 49.6021L15.3744 49.477L15.2492 49.6021L15.3076 49.6605C15.2539 49.6846 15.2035 49.7155 15.1575 49.7522C15.1575 49.7522 15.1575 49.7522 15.1575 49.6605C14.4388 50.1387 13.6343 50.473 12.7883 50.6448C11.9375 50.8324 11.1012 51.0805 10.2857 51.3873C10.2506 51.4655 10.1947 51.5325 10.1241 51.5811C10.0535 51.6296 9.97087 51.6578 9.8853 51.6626C9.73784 51.6691 9.59684 51.7249 9.48488 51.8211C9.35975 51.7376 9.32638 51.7043 9.39312 51.7293C9.45986 51.7543 9.48488 51.7293 9.48488 51.6375C9.26447 51.5543 9.02125 51.5543 8.80083 51.6375C8.7127 51.6819 8.61342 51.6993 8.51546 51.6874C8.4175 51.6755 8.32523 51.635 8.25026 51.5708C8.21559 51.6102 8.17095 51.6395 8.12104 51.6556C8.07113 51.6718 8.01779 51.6742 7.96663 51.6626C7.86653 51.6626 7.81647 51.6626 7.81647 51.8211C8.04986 51.874 8.29216 51.874 8.52555 51.8211C8.75794 51.7652 8.99566 51.7344 9.23462 51.7293C8.9985 51.836 8.74859 51.909 8.49218 51.9462C8.21717 52.0001 7.93812 52.0308 7.65798 52.0379C7.417 51.9212 7.14374 51.8888 6.88217 51.9462C6.67002 52.0041 6.45139 52.035 6.23149 52.0379C6.05868 52.0458 5.88742 52.0022 5.73931 51.9128C5.61003 51.8305 5.45865 51.7898 5.30553 51.796H5.24713C4.87849 51.8378 4.50629 51.8378 4.13764 51.796C4.17935 51.796 4.13764 51.796 4.07091 51.6709C4.22457 51.7112 4.38059 51.7418 4.53806 51.7627C4.71294 51.7773 4.88873 51.7773 5.06361 51.7627L4.01251 51.3289C3.82971 51.1408 3.59405 51.0128 3.33681 50.9618C3.10284 50.9255 2.87348 50.864 2.65276 50.7783C2.65276 50.7783 2.65277 50.845 2.7195 50.8701C2.78624 50.8951 2.83629 50.9785 2.83629 51.1454C2.77078 51.0851 2.71949 51.011 2.68613 50.9285L2.59437 50.8367C2.58939 50.7553 2.56066 50.6772 2.51173 50.6119C2.4628 50.5467 2.39583 50.4972 2.31908 50.4697C2.20134 50.439 2.0868 50.3971 1.97706 50.3445C1.61736 50.1415 1.31135 49.8555 1.08446 49.5103C0.833585 49.138 0.615859 48.7444 0.433786 48.3341C0.514661 48.3884 0.61229 48.4121 0.709074 48.4008C0.826012 48.3945 0.94288 48.4145 1.0511 48.4592C0.924516 48.2089 0.758313 47.9808 0.558917 47.7835C0.369416 47.5972 0.201514 47.3901 0.0583939 47.1662C0.0583939 46.6657 0 46.2653 0 45.9566C0.00333599 45.6388 0.0228256 45.3214 0.0583939 45.0056C0.113409 44.608 0.197046 44.2149 0.308654 43.8294C0.433784 43.3789 0.61731 42.7783 0.867571 42.0359V41.9775C0.825861 41.9775 0.825861 41.9775 0.867571 41.7939C0.884313 41.6209 0.929405 41.4518 1.00104 41.2934C1.05944 41.0849 1.13451 40.9681 1.21793 40.9264L1.27633 40.9848C1.29811 40.9598 1.31453 40.9306 1.32458 40.8991C1.33462 40.8675 1.33808 40.8342 1.33473 40.8013C1.55322 40.6231 1.71547 40.3855 1.80188 40.1172C1.8982 39.8414 2.05496 39.5906 2.26069 39.3831C2.56753 38.9049 2.84607 38.4091 3.09489 37.8982C3.36907 37.3695 3.69907 36.8717 4.07925 36.4133C4.16267 36.088 4.24609 35.9295 4.32951 35.9545C4.41293 35.9796 4.51304 35.8795 4.63817 35.6792L7.67466 32.4092C7.81699 32.3476 7.94275 32.2533 8.04171 32.1339L8.29197 31.8586L8.65902 31.7001C8.73244 31.6812 8.79722 31.6378 8.84271 31.5772C8.8882 31.5165 8.91168 31.4422 8.90928 31.3664C9.05038 31.299 9.17551 31.2023 9.27633 31.0828C9.35975 30.9827 9.44317 30.8909 9.52659 30.8075C9.86281 30.6201 10.1811 30.4023 10.4776 30.1568C10.7602 29.919 11.0615 29.7042 11.3785 29.5145C11.5295 29.3632 11.6943 29.2264 11.8707 29.1057C12.0709 28.9639 12.2795 28.8138 12.488 28.6469C13.147 28.1964 13.8227 27.7627 14.5235 27.3539C15.2242 26.9452 15.9249 26.5698 16.6257 26.2361L17.3014 25.6188C17.4682 25.6188 17.5516 25.5687 17.5516 25.4686C17.5516 25.3685 17.6267 25.3101 17.7935 25.3101L17.4265 24.8179C17.2179 24.6177 17.0261 24.4425 16.8425 24.2924C16.6532 24.1502 16.4944 23.9715 16.3754 23.7668C15.2975 22.6888 14.1524 21.6802 12.9468 20.747C11.7118 19.7751 10.6219 18.6319 9.71011 17.3518C9.37643 16.7345 9.06778 16.0838 8.78415 15.4081C8.48366 14.6536 8.35816 13.8407 8.4171 13.0307C8.4171 12.7804 8.49218 12.5218 8.53389 12.2548C8.57216 12.0131 8.63362 11.7757 8.71741 11.5458C8.88426 10.9702 9.06778 10.3946 9.27633 9.81898C9.46175 9.29755 9.74487 8.81625 10.1105 8.40083C10.4109 7.85405 10.7628 7.33727 11.1616 6.85756C11.6348 6.18088 12.2461 5.61223 12.9552 5.18916C13.418 4.66707 13.926 4.18693 14.4734 3.75433C15.074 3.30386 15.7247 2.84505 16.4171 2.39458C16.9927 2.14432 17.61 1.89406 18.269 1.61877C18.928 1.34348 19.5454 1.07654 20.121 0.784567C20.3075 0.66623 20.5187 0.592049 20.7383 0.567676C20.9528 0.54207 21.1631 0.488795 21.3639 0.409179C21.5442 0.366454 21.7292 0.346829 21.9145 0.350782H22.0396C22.1002 0.338864 22.1626 0.338864 22.2232 0.350782C22.4198 0.353572 22.6133 0.301583 22.7821 0.200628C22.8898 0.118824 23.0157 0.064427 23.1491 0.042128C23.4029 0.0267229 23.6568 0.069524 23.8916 0.16726C24.0596 0.225257 24.2173 0.309743 24.3587 0.41752C24.4474 0.405618 24.5376 0.413672 24.6227 0.441094C24.7079 0.468516 24.7858 0.514612 24.8509 0.576017C24.9711 0.701456 25.12 0.795911 25.2847 0.851305C25.6142 1.09301 25.9139 1.37304 26.1773 1.68551C26.4403 1.9983 26.74 2.27837 27.0699 2.51971C27.7244 3.11756 28.2252 3.86442 28.5297 4.69698C28.7316 5.39822 28.8051 6.13018 28.7466 6.85756C28.6899 7.52775 28.5641 8.19028 28.3712 8.83462C28.1959 9.45822 27.97 10.0664 27.6955 10.6532C27.4119 11.2455 27.1616 11.8377 26.9531 12.4133C26.7112 12.5802 26.6277 12.7387 26.7112 12.9055C26.5277 13.0928 26.3327 13.2683 26.1272 13.4311C25.8873 13.5979 25.6264 13.7326 25.3514 13.8315C24.9031 13.87 24.4516 13.8161 24.025 13.673C23.6037 13.5539 23.1999 13.38 22.8238 13.1558H22.5735C22.4876 12.9813 22.3719 12.8232 22.2315 12.6886C22.0897 12.5468 21.9562 12.405 21.8311 12.2548C21.7102 12.1214 21.6167 11.9655 21.5558 11.796C21.4865 11.5961 21.4865 11.3787 21.5558 11.1787C21.6892 10.8904 21.8425 10.6116 22.0146 10.3445C22.2112 10.0512 22.4286 9.7724 22.6653 9.51033C22.7374 9.31055 22.7877 9.10359 22.8154 8.89301C22.8352 8.73839 22.8893 8.59016 22.9739 8.45923C23.0991 8.1756 23.2075 7.88363 23.316 7.62503C23.4262 7.29954 23.5181 6.96812 23.5912 6.63233C23.9113 6.02345 23.9773 5.31265 23.7748 4.65527C23.6366 4.70829 23.4887 4.73104 23.341 4.722C23.1291 4.72414 22.9196 4.76661 22.7237 4.84713C22.6403 4.63858 22.4651 4.58853 22.1981 4.68863C22.0304 4.76351 21.8538 4.81677 21.6726 4.84713C21.5975 4.93055 21.5641 4.94724 21.5808 4.90553V4.84713C21.4608 4.81837 21.3363 4.81388 21.2145 4.83393C21.0927 4.85399 20.9762 4.89819 20.8717 4.96392C20.7432 5.07664 20.6066 5.1798 20.463 5.27258C20.1304 5.40182 19.8185 5.57887 19.537 5.79812L18.5193 6.5489C16.7959 7.6791 15.3662 9.20318 14.3483 10.9952L13.9479 12.0964V12.2215H13.8895L13.9479 12.0964L13.8895 12.0296C13.8895 12.113 13.8895 12.1798 13.8895 12.2215C13.7195 12.6296 13.5937 13.0546 13.5141 13.4895C13.4099 14.0081 13.379 14.5389 13.4223 15.0661V15.1245C13.4223 15.1245 13.4223 15.1245 13.3306 15.1245C13.5621 16.1912 14.0982 17.1678 14.8738 17.9358C15.6351 18.6136 16.3565 19.335 17.0344 20.0963C17.3681 20.3466 17.7185 20.6136 18.0855 20.9305C18.4526 21.2475 18.8697 21.5645 19.3201 21.9733C19.5157 22.2054 19.7465 22.4052 20.0042 22.5656C20.2589 22.7263 20.504 22.9018 20.7383 23.0911C20.8901 23.1771 21.0664 23.2095 21.2388 23.1829C21.4301 23.1622 21.6164 23.1086 21.7894 23.0244C21.7048 23.1205 21.6009 23.1977 21.4845 23.2509C21.368 23.3041 21.2417 23.3321 21.1137 23.3331C21.2388 23.5416 21.3806 23.5917 21.5474 23.4916C21.653 23.4062 21.78 23.3513 21.9145 23.3331C21.9979 23.3331 22.0146 23.2913 21.9729 23.2079C21.9312 23.1245 21.9729 23.0494 22.098 22.966C22.3884 22.8148 22.7009 22.7106 23.024 22.6574C23.4034 22.5929 23.7752 22.4895 24.1335 22.3487C24.3197 22.2762 24.4962 22.181 24.659 22.0651C24.8843 21.9233 25.0428 21.8982 25.1262 21.9733C25.0303 22.0305 24.9262 22.0727 24.8175 22.0984C24.862 22.1819 24.9037 22.1819 24.9426 22.0984C24.9426 22.015 25.0177 22.015 25.0594 22.0984L28.6465 20.8054C29.4268 20.7044 30.199 20.5483 30.9573 20.3383C31.7532 20.1211 32.5695 19.9869 33.3931 19.9379C33.48 19.9384 33.5657 19.9184 33.6434 19.8795C33.7432 19.8305 33.8463 19.7887 33.952 19.7543C34.473 19.6722 34.9884 19.558 35.4953 19.4123C35.8206 19.3122 36.3295 19.4874 36.9135 19.9379L36.9802 19.8795V19.8127C37.0754 19.8169 37.1689 19.8396 37.2555 19.8795L37.5975 20.0046C37.5581 20.0386 37.5078 20.0574 37.4557 20.0574C37.4036 20.0574 37.3533 20.0386 37.3139 20.0046C37.2138 19.9462 37.1387 19.9379 37.097 20.0046C37.1541 20.0668 37.2305 20.108 37.3139 20.1214C37.3904 20.1264 37.4646 20.1493 37.5308 20.1881C37.4022 20.256 37.259 20.2916 37.1137 20.2916C36.9683 20.2916 36.8251 20.256 36.6966 20.1881C36.5949 20.1302 36.4822 20.0944 36.3658 20.0829C36.2494 20.0714 36.1319 20.0845 36.0209 20.1214L37.7477 20.5552L37.3723 20.6803C37.3723 20.8054 37.4557 20.8305 37.4974 20.7721C37.5391 20.7137 37.5975 20.7053 37.6809 20.7721C37.7643 20.8388 37.6392 20.8972 37.5641 20.8972C37.6309 20.9745 37.7173 21.0324 37.8142 21.0647C37.9111 21.097 38.0149 21.1025 38.1147 21.0807C38.2114 21.061 38.3112 21.062 38.4075 21.0836C38.5038 21.1051 38.5945 21.1468 38.6736 21.2058C38.6736 21.2893 38.5819 21.3143 38.5151 21.2726C38.4828 21.2517 38.4451 21.2407 38.4067 21.2407C38.3682 21.2407 38.3306 21.2517 38.2982 21.2726C38.2231 21.3477 38.2065 21.406 38.2982 21.4227C38.39 21.4394 38.39 21.5145 38.39 21.6396C38.3737 21.6563 38.3542 21.6695 38.3327 21.6785C38.3112 21.6876 38.2882 21.6922 38.2649 21.6922C38.2416 21.6922 38.2185 21.6876 38.197 21.6785C38.1755 21.6695 38.156 21.6563 38.1397 21.6396C38.0721 21.582 37.9866 21.5495 37.8978 21.5479C37.8144 21.5479 37.8311 21.6063 37.9562 21.7314C37.714 21.6507 37.4657 21.5893 37.2138 21.5479C36.9346 21.5108 36.6508 21.5307 36.3796 21.6063C36.3796 21.6897 36.3796 21.723 36.438 21.698H36.5631H36.3796L36.3128 21.5729C36.1712 21.5312 36.0206 21.5312 35.879 21.5729C35.7182 21.6134 35.5527 21.633 35.3869 21.6313L35.4536 21.698H35.17C35.0108 21.7123 34.8555 21.7546 34.7112 21.8232V21.8815C34.6753 21.8797 34.6395 21.8872 34.6073 21.9033C34.5752 21.9194 34.5477 21.9435 34.5276 21.9733C34.5276 22.0317 34.3775 22.0234 34.219 21.9733C33.9607 22.1043 33.6743 22.1702 33.3848 22.1652C33.3295 22.2329 33.2594 22.287 33.1798 22.3232C33.1002 22.3594 33.0133 22.3767 32.926 22.3737C32.6979 22.3737 32.4811 22.4071 32.2753 22.4738C32.2753 22.5489 32.2169 22.5906 32.0918 22.5906C31.391 22.7992 30.8071 22.9827 30.3316 23.1495C29.8561 23.3164 29.3723 23.4999 28.8801 23.7084C28.755 23.7084 28.6966 23.7502 28.6966 23.8252C28.6966 23.9003 28.6048 23.8252 28.6966 23.7668C28.755 23.7668 28.7883 23.7084 28.6966 23.7668L28.6298 23.8252H28.5047V23.7668C28.5047 23.7668 28.4463 23.7668 28.4463 23.892C28.4403 23.8742 28.4303 23.858 28.4172 23.8446C28.4041 23.8312 28.3882 23.821 28.3706 23.8145C28.3529 23.8081 28.3341 23.8058 28.3154 23.8076C28.2968 23.8095 28.2788 23.8155 28.2628 23.8252C28.1953 23.8568 28.1333 23.899 28.0792 23.9504V23.892C27.9958 23.892 27.9541 23.892 27.9541 23.9504C27.9541 24.0088 27.9541 24.0171 27.829 24.0171C27.7869 24.0718 27.7297 24.1128 27.6644 24.1351C27.5991 24.1573 27.5286 24.1598 27.4619 24.1422L26.7779 24.4509H26.7195L26.194 24.7929C25.9542 24.9437 25.6925 25.0563 25.4181 25.1266C25.1912 25.4072 24.8771 25.6039 24.5255 25.6855C24.1643 25.7792 23.8481 25.9979 23.6329 26.3028C23.6329 26.3445 23.7164 26.3612 23.8832 26.3612V26.6115C23.8847 26.6688 23.8743 26.7257 23.8528 26.7788C23.8313 26.8319 23.799 26.88 23.7581 26.9201C24.2503 27.6626 24.7341 28.4884 25.2096 29.4227C25.7057 30.4136 26.0489 31.474 26.2273 32.5677C26.3492 33.1149 26.3886 33.6772 26.3441 34.2361L26.4692 34.7283V34.6198V34.7449V34.8617V34.9869C26.3858 35.5208 26.3024 36.0296 26.219 36.4968C26.156 36.8819 26.0724 37.2634 25.9687 37.6396V37.7064L25.7852 38.0734V38.015L25.6934 38.1068C25.6635 38.1178 25.6381 38.1386 25.6214 38.1659C25.6048 38.1932 25.5978 38.2252 25.6017 38.2569L25.7852 38.0734C25.7899 38.1794 25.7699 38.2851 25.7268 38.3821C25.5193 38.6152 25.3883 38.9064 25.3514 39.2163V38.7074H25.293V38.7908C25.2808 38.9571 25.3006 39.1242 25.3514 39.283V39.5249L25.4348 39.5082ZM1.29301 41.2934C1.35025 41.1975 1.39245 41.0934 1.41814 40.9848C1.41814 40.9848 1.41814 40.9848 1.29301 41.235V41.2934ZM4.13764 43.5791C4.03465 43.749 3.9613 43.9352 3.92075 44.1297C3.86594 44.3629 3.79344 44.5916 3.70386 44.8138V44.9389L3.3952 46.1735C3.3952 46.1735 3.3952 46.0651 3.3952 45.9816C3.3952 45.8982 3.44526 45.8649 3.3952 45.8649C3.36971 46.0055 3.36971 46.1496 3.3952 46.2903C3.47386 46.4842 3.56874 46.6712 3.67883 46.8492V46.7241V46.6657C3.66873 46.7816 3.63763 46.8946 3.58707 46.9994C3.52868 47.1495 3.53702 47.1746 3.58707 47.0995C3.58282 47.2283 3.60848 47.3563 3.66203 47.4736C3.71559 47.5908 3.79558 47.694 3.89573 47.7752C4.09593 47.942 4.26278 48.0838 4.38791 48.209V48.1422C4.49032 48.3065 4.5716 48.4831 4.62982 48.6678C4.65935 48.7456 4.71025 48.8135 4.77666 48.8637C4.84307 48.9138 4.92229 48.9443 5.00521 48.9514V48.8012L5.13035 48.9264C5.08585 49.0098 5.04414 49.0515 5.00521 49.0515H5.06361C5.15109 49.0589 5.23867 49.0384 5.31387 48.9931L5.40563 49.0849C5.40563 49.0849 5.45568 49.0265 5.62252 48.9931V49.1766C6.07299 49.0932 6.45673 49.0265 6.67362 48.9931C6.94783 48.9369 7.20159 48.8071 7.40772 48.6177C7.53285 48.7011 7.64129 48.6678 7.71637 48.526C7.79145 48.3841 7.96663 48.3341 8.21689 48.3758C8.3073 48.2758 8.42492 48.2044 8.55532 48.1704C8.68572 48.1363 8.82323 48.141 8.95099 48.1839C9.15954 48.0254 9.32638 47.9003 9.45151 47.8169C9.57664 47.7335 9.73514 47.6334 9.94369 47.5082H10.0688V47.3831L10.1272 47.4498C10.5265 47.2543 10.9391 47.0871 11.3618 46.9493C11.7312 46.8293 12.0843 46.664 12.4129 46.4571V46.2736C12.4129 46.357 12.4129 46.3737 12.4713 46.332C12.5912 46.3094 12.7041 46.2592 12.8011 46.1854C12.8981 46.1115 12.9766 46.0161 13.0302 45.9066C13.1874 45.8726 13.3327 45.7976 13.4514 45.6891C13.5701 45.5807 13.658 45.4427 13.7059 45.2893C13.7894 45.4478 13.8311 45.4728 13.8311 45.3477V45.2225C14.277 45.0734 14.6863 44.8318 15.0323 44.5135C15.6831 44.0049 16.2939 43.4471 16.8592 42.845C17.5804 42.0668 18.2598 41.251 18.8947 40.4008C19.6166 39.4456 20.277 38.4453 20.8717 37.406C20.9438 37.3249 20.9953 37.2276 21.0219 37.1224H20.9552C20.9552 37.1224 20.9552 37.0557 20.9552 36.9389C21.0803 36.4801 21.1887 36.038 21.2972 35.6042C21.3984 35.1693 21.4487 34.7242 21.4473 34.2778C21.5426 33.1174 21.4382 31.9493 21.1387 30.8242C20.8756 29.8501 20.4828 28.9158 19.9708 28.0463C19.7768 28.0763 19.5995 28.1738 19.4703 28.3216C19.4116 28.3945 19.3363 28.4523 19.2507 28.4901C19.165 28.5278 19.0715 28.5444 18.9781 28.5385L19.0699 28.4133C19.1134 28.3632 19.1676 28.3233 19.2284 28.2966V28.0797C19.2284 27.9712 19.2284 27.9629 19.2868 28.0797C19.2845 28.1132 19.2893 28.1469 19.3008 28.1785C19.3123 28.2101 19.3302 28.2389 19.3535 28.2632C19.3811 28.1908 19.4324 28.13 19.4991 28.0906C19.5658 28.0512 19.6438 28.0356 19.7205 28.0463C19.8874 28.0463 19.9458 27.9378 19.9041 27.6459C19.9041 27.7293 19.8206 27.7543 19.7789 27.7126C19.7372 27.6709 19.6955 27.7126 19.6622 27.771C19.6644 27.7375 19.6596 27.7038 19.6481 27.6722C19.6366 27.6406 19.6187 27.6118 19.5954 27.5875C19.5954 27.7543 19.537 27.8127 19.4119 27.771C19.3285 27.771 19.3201 27.8461 19.4119 27.8878C19.5037 27.9295 19.4619 27.9545 19.4119 27.9545V27.8294C19.4119 27.8294 19.4119 27.8294 19.3451 27.8294V27.9545C19.0873 28.0606 18.8479 28.207 18.6361 28.3883C18.4294 28.561 18.1873 28.6863 17.927 28.7554L17.9854 28.6302C17.7321 28.655 17.4943 28.7636 17.3097 28.9389C17.2263 28.9 17.1846 29.0251 17.1846 29.3143C17.0693 29.3886 16.9462 29.4502 16.8175 29.4978C16.7597 29.5156 16.7069 29.5467 16.6634 29.5888C16.6199 29.6308 16.587 29.6825 16.5673 29.7397C16.5292 29.727 16.4964 29.7022 16.4738 29.669C16.4512 29.6359 16.4401 29.5963 16.4421 29.5562C16.4421 29.4728 16.3837 29.4728 16.3837 29.5562C16.3837 29.6396 16.3837 29.6646 16.2586 29.6229C16.259 29.7002 16.2822 29.7757 16.3253 29.8398C16.3455 29.8709 16.3561 29.9071 16.3561 29.9441C16.3561 29.9811 16.3455 30.0173 16.3253 30.0484C16.2419 30.0484 16.2169 29.9733 16.2586 29.9316C16.3003 29.8899 16.2586 29.8649 16.2002 29.8649C16.2002 29.9483 16.2002 30.015 16.2002 30.0484C16.1382 30.1418 16.0956 30.2468 16.0751 30.357L17.0594 29.8065C16.7438 30.0685 16.3927 30.2848 16.0167 30.4488C15.6609 30.6281 15.3391 30.8681 15.0657 31.1579V31.2163C14.6069 31.5499 14.2315 31.8336 13.7977 32.0505C13.3865 32.2994 13.0105 32.6024 12.6799 32.9514C11.9791 33.527 11.3285 34.1109 10.7112 34.7116C10.0938 35.3122 9.49322 35.8711 8.91762 36.38C8.8378 36.4555 8.78503 36.5551 8.76747 36.6636C8.75565 36.7107 8.72714 36.7518 8.68725 36.7795C8.64735 36.8071 8.59878 36.8193 8.55057 36.8138C8.69629 36.5467 8.87267 36.2975 9.07612 36.0713C9.29043 35.8415 9.52806 35.6346 9.78519 35.454H9.75183C9.71012 35.454 9.75183 35.454 9.81856 35.3956C9.81622 35.3081 9.79336 35.2224 9.75183 35.1454C9.70758 35.1709 9.67058 35.2072 9.6443 35.251C9.61803 35.2948 9.60336 35.3446 9.60167 35.3956C9.60167 35.5124 9.52659 35.5374 9.44317 35.454C9.44317 35.6626 9.44317 35.7877 9.38478 35.8211C9.38478 35.7043 9.38478 35.6375 9.25965 35.6375L9.20125 35.7627V35.8211C9.11783 35.8211 9.07612 35.8211 9.07612 35.8211H9.00938H8.95099L9.00938 35.8795H8.95099L8.8926 35.8211C8.8207 35.8821 8.77575 35.969 8.76747 36.063C8.76747 36.1464 8.70073 36.2298 8.58394 36.3132L8.6757 36.1881C8.7341 36.1881 8.6757 36.1047 8.58394 36.063C8.54236 36.228 8.45571 36.3782 8.33368 36.4968C8.19974 36.6392 8.09489 36.8064 8.02503 36.9889H7.8999C7.8999 36.8304 7.8999 36.747 7.8415 36.747C7.8415 36.6219 7.8415 36.5635 7.96663 36.5635V36.747C8.02724 36.7234 8.07821 36.6802 8.11145 36.6242C8.1447 36.5683 8.15833 36.5029 8.15016 36.4384C8.06674 36.3549 8.03337 36.3549 8.05839 36.4384C8.08342 36.5218 8.05839 36.5385 8.05839 36.4968C8.05839 36.4551 8.0584 36.3132 8.18353 36.3132C8.15768 36.283 8.14347 36.2446 8.14347 36.2048C8.14347 36.165 8.15768 36.1266 8.18353 36.0963L8.40042 35.8795C8.40042 35.9629 8.40042 36.0296 8.30031 36.063C8.20021 36.0964 8.19187 36.2131 8.30031 36.3716C8.38794 36.1658 8.52558 35.9852 8.70073 35.8461C8.89413 35.6932 9.07034 35.5198 9.22628 35.3289H9.10115L9.03441 35.2621L8.88426 35.3539C8.8599 35.3848 8.84665 35.423 8.84665 35.4624C8.84665 35.5017 8.8599 35.5399 8.88426 35.5708C8.96768 35.3706 9.02607 35.2872 9.06778 35.3289C8.9927 35.6125 8.84254 35.7543 8.64234 35.7543C8.41159 35.8739 8.20285 36.0319 8.02503 36.2215C7.89989 36.3633 7.77477 36.5218 7.64964 36.6803V36.9305C7.69065 36.8521 7.75469 36.788 7.83316 36.747V36.9889H7.89155L7.95829 37.1141L7.8415 37.1224C7.8415 37.2058 7.89155 37.2559 7.8415 37.2726C7.79145 37.2893 7.8415 37.3477 7.8415 37.4311H7.71637L7.67466 37.2893C7.67466 37.3727 7.67466 37.4144 7.73306 37.4144C7.52632 37.5391 7.37211 37.7348 7.29927 37.965C7.26842 37.7322 7.31223 37.4956 7.4244 37.2893V37.2309L7.4828 37.1641C7.48002 37.1977 7.48454 37.2315 7.49606 37.2632C7.50758 37.2949 7.52582 37.3237 7.54953 37.3476C7.54162 37.198 7.49877 37.0523 7.4244 36.9222C7.34478 37.125 7.22888 37.3116 7.08238 37.4728C6.89193 37.7091 6.71641 37.9571 6.55683 38.2152C6.46402 38.3133 6.39295 38.4298 6.34828 38.5572C6.28602 38.6959 6.21353 38.8298 6.13139 38.9577L5.29719 39.7919L5.42231 39.3581C5.29718 39.5666 5.15537 39.7835 4.98853 40.0088C4.85429 40.1957 4.73171 40.3907 4.62148 40.5927L5.1804 40.0421L4.87174 40.7178C4.72035 40.9834 4.55321 41.2397 4.37122 41.4853C4.21892 41.694 4.13447 41.9444 4.1293 42.2027L4.06256 42.0776V42.3195L4.1293 42.4446C4.1301 42.3817 4.14384 42.3196 4.16967 42.2622C4.19551 42.2048 4.23288 42.1533 4.27946 42.111C4.3248 42.0656 4.35026 42.0041 4.35026 41.9399C4.35026 41.8758 4.3248 41.8143 4.27946 41.7689C4.38519 41.6508 4.46984 41.5153 4.52972 41.3685C4.61614 41.1629 4.71937 40.9648 4.83837 40.7762L4.95516 40.7178C4.95988 40.6502 4.97954 40.5844 5.01271 40.5253C5.04589 40.4661 5.09176 40.4151 5.14703 40.3758C5.28778 40.2351 5.37358 40.0487 5.38895 39.8503C5.57913 39.699 5.73784 39.512 5.8561 39.2997C6.01961 39.0289 6.23851 38.7958 6.49844 38.6156C6.49844 38.4571 6.56517 38.3654 6.6903 38.3404C6.74758 38.3322 6.80115 38.3073 6.84422 38.2687C6.88729 38.23 6.91792 38.1795 6.93222 38.1235H7.05735C7.07744 38.0936 7.10489 38.0695 7.13705 38.0534C7.16921 38.0374 7.20497 38.0299 7.24088 38.0317C7.20194 38.1093 7.18193 38.1951 7.18248 38.282C6.94087 38.482 6.7226 38.7087 6.53181 38.9577C6.35051 39.2031 6.23299 39.4898 6.18978 39.7919C5.96203 40.0634 5.71681 40.3197 5.45568 40.5593C5.20968 40.7815 5.03543 41.0719 4.95516 41.3935C4.95516 41.3935 4.99687 41.3351 5.08029 41.3351C4.99687 41.5437 4.93014 41.7189 4.8634 41.8607C4.78786 42.0203 4.67305 42.158 4.52972 42.2611L4.58811 42.136C4.58811 42.136 4.58811 42.0526 4.52972 42.0108C4.49778 42.0914 4.47538 42.1754 4.46298 42.2611C4.42127 42.2194 4.40459 42.2611 4.40459 42.3195V42.4446L4.46298 42.5114L4.33785 42.6282L4.40459 42.4446L4.1877 42.7533C4.17105 42.7696 4.15782 42.7891 4.1488 42.8106C4.13977 42.832 4.13512 42.8551 4.13512 42.8784C4.13512 42.9017 4.13977 42.9248 4.1488 42.9463C4.15782 42.9678 4.17105 42.9872 4.1877 43.0035L4.06256 43.3122L4.1877 43.0619C4.19393 43.1584 4.17066 43.2544 4.12096 43.3372C4.10013 43.3696 4.08905 43.4072 4.08905 43.4457C4.08905 43.4841 4.10013 43.5218 4.12096 43.5541H4.06256L4.13764 43.5791ZM3.50365 51.7376C3.50365 51.7376 3.50365 51.6292 3.44526 51.5458C3.67643 51.5438 3.90584 51.5862 4.12096 51.6709H3.8123C3.70559 51.6685 3.59982 51.6913 3.50365 51.7376ZM3.56204 42.9034C3.72888 42.9034 3.8123 42.8284 3.8123 42.6615C3.72888 42.6615 3.68718 42.6615 3.68718 42.7533C3.68494 42.7859 3.67359 42.8173 3.65442 42.8439C3.63525 42.8704 3.60903 42.891 3.57873 42.9034H3.56204ZM4.05422 43.404V43.5207H4.12096L4.05422 43.404ZM4.05422 44.0797C4.02867 43.8844 4.07299 43.6864 4.17936 43.5207V43.6125L4.05422 44.0797ZM4.33785 41.2934C4.38814 41.1949 4.44973 41.1025 4.52138 41.0181C4.55792 40.9818 4.58355 40.936 4.59535 40.8859C4.60714 40.8357 4.60464 40.7833 4.58811 40.7345C4.55397 40.8119 4.49912 40.8782 4.42962 40.9264C4.39567 40.9561 4.36954 40.9937 4.35354 41.0359C4.33754 41.0781 4.33215 41.1235 4.33785 41.1683L4.27946 41.1099L4.21272 41.2601C4.21119 41.336 4.19114 41.4105 4.15433 41.477L4.21272 41.4186L4.33785 41.2934ZM4.39625 48.0254V48.0838V48.1422L4.32951 48.0838L4.39625 48.0254ZM5.26382 39.8753L5.20542 40.0004C5.19921 39.9313 5.22015 39.8625 5.26382 39.8085V39.8753ZM5.32221 39.8085L5.26382 39.8753V39.8085H5.32221ZM6.00626 38.7074C5.92284 38.7074 5.86444 38.7908 5.82273 38.9577L6.00626 38.7074ZM6.24818 38.4655C6.30832 38.4103 6.35641 38.3433 6.38943 38.2686C6.42245 38.194 6.43968 38.1133 6.44004 38.0317C6.40198 38.106 6.36021 38.1784 6.31491 38.2486C6.26486 38.3102 6.23566 38.3862 6.23149 38.4655H6.24818ZM7.08238 36.9806L7.39103 36.6136V36.5468L7.08238 36.9806ZM7.51616 36.3049C7.39103 36.4217 7.34932 36.4884 7.39103 36.4884H7.44943V36.3967L7.51616 36.3049ZM7.57456 36.9806L7.67466 37.1224V37.0557L7.57456 36.9806ZM7.69969 36.3633C7.69969 36.2799 7.69969 36.2298 7.75808 36.2048C7.81647 36.1798 7.75808 36.113 7.69969 35.9962L7.64129 36.1464C7.61627 36.2048 7.67466 36.2882 7.71637 36.3633H7.69969ZM7.75808 36.0546C7.89714 35.97 8.02352 35.866 8.13347 35.746C7.8999 35.9128 7.77477 36.0129 7.77477 36.0546H7.75808ZM8.13347 37.2893C8.13347 37.4144 8.03337 37.3727 7.94995 37.1641L8.13347 37.2893ZM8.75078 35.1287C8.75078 35.2121 8.70073 35.2621 8.59228 35.2788C8.48384 35.2955 8.48384 35.3539 8.59228 35.4373C8.59228 35.3539 8.64233 35.2955 8.74244 35.2538C8.84254 35.2121 8.85089 35.1704 8.76747 35.1287H8.75078ZM9.40146 35.0703V34.9451L9.4682 34.82C9.38752 34.8585 9.32041 34.9206 9.27573 34.9981C9.23105 35.0755 9.2109 35.1647 9.21793 35.2538L9.40146 35.0703ZM11.6288 33.2183L11.5037 33.3351C11.3241 33.5582 11.1167 33.7573 10.8863 33.9274C10.6917 34.0544 10.5403 34.2378 10.4526 34.453C10.2857 34.3696 10.2273 34.3278 10.269 34.3278C10.3107 34.3278 10.269 34.5364 10.3274 34.5698L10.0188 34.6949C9.94356 34.7906 9.88852 34.9006 9.85697 35.0181C9.82543 35.1357 9.81804 35.2584 9.83525 35.3789C9.91867 35.3789 9.96038 35.3456 9.96038 35.2788L10.0188 35.1287L9.96038 35.0703H10.0188H10.0855V35.137L10.2023 35.0119H10.1773V34.9451L10.2357 34.7616H10.3024C10.6277 34.6365 10.7946 34.4947 10.7946 34.3278C10.9197 34.3695 11.0448 34.3278 11.17 34.1443C11.2595 34.0077 11.3871 33.9004 11.537 33.8357L11.4703 33.7773H11.537C11.6311 33.7215 11.7133 33.6478 11.7789 33.5604C11.7985 33.5389 11.8223 33.5217 11.8489 33.5099C11.8755 33.4982 11.9042 33.4921 11.9333 33.4921C11.9623 33.4921 11.9911 33.4982 12.0176 33.5099C12.0442 33.5217 12.068 33.5389 12.0876 33.5604C12.1709 33.4762 12.2263 33.3685 12.2461 33.2517C12.2461 33.1266 12.3128 33.0682 12.3962 33.0682C12.3128 32.9848 12.3045 32.9514 12.3962 32.9764H12.5464L13.2888 32.3591L13.1637 32.1172C13.1949 32.0806 13.2332 32.0507 13.2761 32.0292C13.3191 32.0077 13.366 31.9951 13.414 31.9921L13.2888 32.3591L13.8478 31.9921L14.1564 31.6834C14.263 31.5789 14.3873 31.4942 14.5235 31.4332L14.9573 31.308C15.085 31.1021 15.2523 30.9234 15.4494 30.7825C15.658 30.6407 15.8582 30.5072 16.0667 30.3821C16.025 30.307 15.9917 30.2903 15.975 30.3821C15.9583 30.4738 15.975 30.4321 15.975 30.3821C15.975 30.332 16.0584 30.1985 16.1001 30.1985C16.1418 30.1985 16.1668 30.1151 16.1668 29.9483L16.2252 29.8899L16.0167 29.5145V29.7564C16.0167 29.673 15.8999 29.673 15.7998 29.7564C15.6997 29.8398 15.6663 29.9233 15.708 30.0067L15.7664 29.9399L15.708 30.2486V30.1902H15.5829C15.4995 30.1902 15.4578 30.2653 15.4578 30.282C15.4578 30.2986 15.4578 30.282 15.3326 30.282C15.3775 30.2309 15.4117 30.1714 15.4332 30.1069C15.4547 30.0425 15.463 29.9743 15.4578 29.9066C15.3744 29.99 15.341 30.0567 15.366 30.0984V30.2152C15.2826 30.2152 15.2325 30.2152 15.2159 30.282C15.1992 30.3487 15.1408 30.282 15.0574 30.282C15.1825 30.4071 15.1992 30.4655 15.1241 30.4655C15.049 30.4655 14.9239 30.4154 14.7821 30.5572C14.6402 30.6991 14.5235 30.7575 14.44 30.7157C14.5235 30.8325 14.5235 30.8993 14.44 30.8993C14.4003 30.8985 14.3612 30.9102 14.3283 30.9326C14.2955 30.955 14.2704 30.9871 14.2565 31.0244C14.3369 30.9836 14.4102 30.9301 14.4734 30.8659C14.5015 30.8368 14.5352 30.8136 14.5725 30.7979C14.6098 30.7821 14.6498 30.774 14.6903 30.7741V30.9577C14.6007 30.9642 14.5149 30.997 14.4437 31.0519C14.3726 31.1067 14.3191 31.1813 14.2899 31.2663C14.2559 31.3578 14.1897 31.4337 14.1036 31.4798C14.0176 31.5259 13.9177 31.539 13.8227 31.5166C13.8177 31.4632 13.8305 31.4097 13.8592 31.3644C13.8879 31.3191 13.9308 31.2846 13.9812 31.2663C14.0326 31.2438 14.0785 31.2106 14.1159 31.1689C14.1533 31.1271 14.1814 31.0779 14.1981 31.0244V30.8993C14.1147 30.9438 14.073 30.9938 14.073 31.0494C14.073 31.1162 14.0063 31.1829 13.8895 31.2663L13.9479 31.0828C13.8911 31.1381 13.8297 31.1883 13.7643 31.233C13.7283 31.2571 13.6982 31.2892 13.6765 31.3268C13.6548 31.3644 13.6421 31.4065 13.6392 31.4498L13.4557 31.283C13.4139 31.3697 13.3507 31.4443 13.2722 31.4999C13.2306 31.5322 13.1975 31.5742 13.1757 31.6221C13.1539 31.6701 13.144 31.7226 13.147 31.7752C13.147 31.7752 13.147 31.7168 13.0469 31.7168C12.9468 31.7168 13.0469 31.8419 12.9885 31.8419C12.9935 31.9155 12.9704 31.9881 12.924 32.0454C12.8776 32.1026 12.8112 32.1402 12.7383 32.1506C12.6564 32.1746 12.5835 32.2223 12.5286 32.2876C12.4737 32.3528 12.4393 32.4329 12.4296 32.5176C12.5836 32.4415 12.729 32.3492 12.8634 32.2423C12.9713 32.1564 13.0744 32.0645 13.1721 31.967C13.1737 32.0223 13.1564 32.0764 13.123 32.1204C13.0896 32.1644 13.0421 32.1957 12.9885 32.209C12.9816 32.2956 12.9483 32.378 12.8931 32.4451C12.8379 32.5122 12.7635 32.5608 12.6799 32.5844C12.6055 32.5978 12.5347 32.6261 12.4716 32.6677C12.4085 32.7093 12.3545 32.7632 12.3128 32.8263C12.3128 32.7429 12.2461 32.7846 12.121 32.9514C11.9958 33.1182 11.8957 33.1349 11.8123 33.0098L11.6288 33.2183ZM9.89364 34.0526C9.81856 34.136 9.80188 34.161 9.89364 34.1193L10.0438 33.9942C9.96038 33.9942 9.93535 33.9942 9.95203 33.9942L9.89364 34.0526ZM10.1439 34.1777C10.3017 34.1277 10.4411 34.0319 10.5443 33.9024C10.6051 33.7996 10.6779 33.7043 10.7612 33.6188C10.6379 33.7015 10.5233 33.7966 10.4192 33.9024L10.1439 34.1777ZM10.8863 33.6188V33.6855L10.9447 33.6188V33.5604V33.502L10.8863 33.6188ZM11.195 33.3101C11.1116 33.3101 11.0699 33.3101 11.0699 33.3101C11.0671 33.3859 11.0471 33.4601 11.0115 33.527C11.1783 33.4603 11.2367 33.3768 11.2367 33.3351L11.195 33.3101ZM12.0292 32.0755C11.8783 32.1931 11.7335 32.3184 11.5954 32.4509L11.3535 32.6928C11.4505 32.6027 11.5637 32.532 11.6872 32.4843C11.8467 32.4113 11.9721 32.2799 12.0375 32.1172L12.0292 32.0755ZM11.5954 32.9097C11.6051 32.9789 11.6051 33.0491 11.5954 33.1182C11.5828 33.19 11.5828 33.2634 11.5954 33.3351V33.2767L11.7205 33.2183C11.6997 33.186 11.6886 33.1484 11.6886 33.1099C11.6886 33.0714 11.6997 33.0338 11.7205 33.0015C11.7039 32.9514 11.6872 32.9514 11.6038 32.9514L11.5954 32.9097ZM11.8457 32.9097L11.9708 32.843V32.7846V32.7178L11.9124 32.843L11.8457 32.9097ZM17.2763 28.3967V28.3383C17.2763 28.3383 17.2763 28.2548 17.1846 28.2131C17.1846 28.3383 17.1429 28.3967 17.0594 28.3967C16.9986 28.4514 16.9477 28.5163 16.9093 28.5885L16.8175 28.6469V28.5552C16.8175 28.5552 16.8759 28.4801 16.8759 28.3967L16.634 28.7053H16.5089L16.4421 28.7721C16.1301 29.0478 15.8013 29.3041 15.4578 29.5395C15.1535 29.7562 14.8227 29.9328 14.4734 30.0651C14.3925 30.2277 14.2607 30.3595 14.098 30.4405C13.9192 30.5397 13.7718 30.6871 13.6726 30.8659H13.6058C13.3556 31.0745 13.0886 31.283 12.7716 31.4832C12.5095 31.6706 12.2613 31.8769 12.0292 32.1005C12.6197 31.7724 13.1783 31.3898 13.6976 30.9577C14.2193 30.5311 14.7776 30.1515 15.366 29.8231C15.4125 29.7349 15.4896 29.6666 15.5829 29.6313C15.6294 29.6166 15.6726 29.5929 15.7098 29.5614C15.7471 29.5298 15.7776 29.4912 15.7998 29.4478C15.8832 29.4478 15.9333 29.4478 15.9583 29.4478C15.9833 29.4478 16.025 29.4478 16.1084 29.4478L17.2179 28.5218L18.8279 27.6876C18.9501 27.6023 19.0853 27.5374 19.2284 27.4957C19.3035 27.4725 19.3725 27.4328 19.4303 27.3793C19.4881 27.3259 19.5331 27.2602 19.562 27.1871L17.2763 28.3967ZM13.5725 31.7335C13.5725 31.6501 13.5725 31.6083 13.6392 31.6083H13.756C13.6058 31.6918 13.5141 31.7335 13.5808 31.7335H13.5725ZM19.2534 26.7283H19.1867C19.1024 26.8621 18.9717 26.9601 18.8196 27.0035C18.6512 27.0381 18.4864 27.0884 18.3274 27.1537C17.605 27.5394 16.9033 27.9626 16.2252 28.4217C15.5245 28.8972 14.8488 29.381 14.1898 29.8732L18.8196 27.1537C18.916 27.1593 19.0125 27.1451 19.1032 27.112C19.2117 27.112 19.2617 27.0119 19.2617 26.9285L19.2534 26.7283ZM22.3399 42.7783C22.4285 42.6819 22.5094 42.5787 22.5819 42.4697C22.6938 42.3272 22.8444 42.2201 23.0156 42.161C22.7831 42.1741 22.5635 42.272 22.3983 42.4363C22.305 42.4977 22.2395 42.5933 22.2161 42.7026C22.1927 42.8119 22.2132 42.926 22.2732 43.0202C22.1564 43.0202 22.0897 43.0202 22.0897 43.1454C22.0926 43.1624 22.0914 43.18 22.0861 43.1965C22.0808 43.213 22.0717 43.228 22.0595 43.2403C22.0472 43.2525 22.0322 43.2617 22.0157 43.2669C21.9992 43.2722 21.9816 43.2734 21.9645 43.2705C21.9645 43.1454 21.9645 43.087 22.0647 43.087C22.1648 43.087 22.1147 43.087 22.0647 43.0202C22.0146 42.9535 21.8811 43.1287 21.9979 43.3289C21.8503 43.4114 21.7082 43.5034 21.5725 43.6042C21.3528 43.7624 21.1464 43.9381 20.9552 44.1297C20.7466 44.3383 20.5631 44.5385 20.3962 44.722C20.2617 44.841 20.1732 45.0033 20.146 45.1808C20.0626 45.1808 20.0292 45.1808 20.0292 45.2475C20.0292 45.3143 20.0292 45.3059 19.9041 45.3059C19.907 45.2889 19.9058 45.2713 19.9005 45.2548C19.8952 45.2383 19.8861 45.2233 19.8738 45.211C19.8616 45.1988 19.8466 45.1896 19.8301 45.1844C19.8136 45.1791 19.796 45.1779 19.7789 45.1808C19.6782 45.369 19.5422 45.5361 19.3785 45.673C19.1823 45.8431 18.929 45.9326 18.6694 45.9233L15.5829 48.4259C15.7462 48.3629 15.9004 48.2788 16.0417 48.1756L16.9426 47.625L17.8686 47.0327C18.0384 46.9303 18.2027 46.8189 18.3608 46.6991V46.8826C18.1993 46.9734 18.053 47.0888 17.927 47.2246C17.6767 47.4498 17.6017 47.5583 17.6767 47.5583C18.0045 47.4643 18.2957 47.2722 18.5109 47.0077C18.8196 46.674 19.0615 46.4071 19.22 46.1735C19.3751 46.1352 19.5208 46.0659 19.6483 45.9699C19.7759 45.8738 19.8828 45.753 19.9625 45.6146L19.9041 45.5562L20.3962 45.0307C20.525 44.872 20.6291 44.6948 20.7049 44.5051C20.7883 44.5051 20.9218 44.5051 21.1053 44.3466C21.3018 44.1945 21.4885 44.0301 21.6642 43.8544L22.3733 43.1454C22.4671 42.9686 22.6051 42.8192 22.7737 42.7116C22.9572 42.5864 23.0073 42.4863 22.9239 42.4029C22.8579 42.4086 22.7945 42.4317 22.7403 42.4698C22.6861 42.5079 22.643 42.5596 22.6152 42.6198C22.5488 42.7432 22.4675 42.8581 22.3733 42.9618L22.3399 42.7783ZM16.8509 28.8972C16.8509 29.0529 16.8092 29.1447 16.7258 29.1725C16.6507 29.1725 16.6257 29.2475 16.6674 29.3226C16.7091 29.3977 16.8926 29.2058 17.1012 29.0807C17.0177 29.0807 16.976 29.0807 16.976 28.9889C16.976 28.8972 16.9343 28.8972 16.8509 28.8972ZM17.0344 29.7314H17.1012H17.1595H17.0344ZM18.269 28.8972C18.104 29.0711 17.9193 29.2251 17.7185 29.356C17.5416 29.4659 17.3544 29.5581 17.1595 29.6313L17.7185 29.3226C17.8019 29.2475 17.9187 29.1308 18.0855 28.9889C18.2247 28.8567 18.3934 28.7595 18.5777 28.7053C18.5777 28.7887 18.5777 28.8304 18.5193 28.8304C18.4609 28.8304 18.4609 28.8304 18.4609 28.9556L18.269 28.8972ZM17.5933 48.0838C17.5147 48.1628 17.4211 48.2252 17.318 48.2674C17.2096 48.2674 17.1846 48.3508 17.2263 48.3925L17.3764 48.3007C17.4675 48.2538 17.5429 48.1813 17.5933 48.0922V48.0838ZM22.2232 44.2548C22.39 44.0964 22.4734 43.9712 22.4734 43.8878C22.4362 43.8852 22.3993 43.8966 22.37 43.9197C22.3407 43.9429 22.321 43.9761 22.3149 44.0129C22.2961 44.1002 22.2652 44.1844 22.2232 44.2632V44.2548ZM22.6903 43.796C22.8571 43.796 22.8905 43.796 22.8154 43.6792C22.7404 43.5625 22.6903 43.796 22.6903 43.796ZM24.2336 41.6355L24.1668 41.7022V41.6355H24.2336ZM25.2847 39.967L25.3431 40.0838L24.976 40.7011C25.0857 40.4779 25.1778 40.2464 25.2513 40.0088L25.2847 39.967ZM25.6517 21.5062C25.6517 21.5896 25.4849 21.7147 25.1595 21.8732C25.1595 21.7147 25.2179 21.6313 25.3431 21.6313C25.4347 21.6085 25.5201 21.5657 25.5933 21.5062C25.6768 21.4644 25.7018 21.4644 25.6184 21.5479L25.6517 21.5062ZM25.4015 38.357C25.4015 38.357 25.3431 38.357 25.3431 38.5406C25.3653 38.4682 25.4089 38.4042 25.4682 38.357L25.3431 38.1735C25.3431 38.2569 25.3431 38.2986 25.4015 38.2986V38.357ZM25.4682 38.6073C25.3848 38.6073 25.3848 38.5656 25.4682 38.4822H25.4015V38.6073H25.4682ZM25.4015 38.4822L25.4682 38.4238V38.357L25.4015 38.4822ZM25.5933 38.9743C25.5933 38.9743 25.5933 38.7741 25.7768 38.4822L25.5266 39.3164V39.1912L25.4682 39.1328V39.0744C25.4682 39.0744 25.4765 39.0161 25.56 39.0161L25.5933 38.9743ZM25.5933 38.1401C25.5099 38.2236 25.5099 38.2569 25.5933 38.2569V38.1401ZM25.8352 38.3237C25.8386 38.3566 25.8351 38.3899 25.8251 38.4215C25.8151 38.4531 25.7986 38.4822 25.7768 38.5072V38.3821L25.8352 38.3237ZM25.8352 37.7064C26.0075 37.4289 26.0945 37.1069 26.0855 36.7804L25.8352 37.7064ZM26.5193 36.8722C26.4748 37.1613 26.4331 37.47 26.3942 37.7981C26.3422 38.1331 26.2698 38.4647 26.1773 38.7908L26.5193 36.8722ZM26.5193 36.5635C26.5152 36.3865 26.5349 36.2097 26.5777 36.038C26.6198 35.8653 26.6198 35.6851 26.5777 35.5124C26.5525 35.625 26.5525 35.7418 26.5777 35.8544C26.5934 35.8884 26.6015 35.9254 26.6015 35.9629C26.6015 36.0003 26.5934 36.0373 26.5777 36.0713C26.5307 36.0106 26.498 35.9401 26.4821 35.8649C26.4662 35.7898 26.4675 35.7121 26.4859 35.6375C26.5049 35.4302 26.5355 35.2241 26.5777 35.0202C26.5695 35.1034 26.5695 35.1873 26.5777 35.2705C26.5894 35.3507 26.5894 35.4322 26.5777 35.5124L26.6444 35.3956V36.0129C26.6259 36.1993 26.5721 36.3805 26.4859 36.5468L26.5193 36.5635ZM27.4119 23.7752C27.2061 23.7752 27.081 23.8169 27.0365 23.9003C27.1175 23.8717 27.2058 23.8717 27.2868 23.9003C27.3702 23.8836 27.4119 23.8503 27.4119 23.7752ZM30.7487 22.7908C30.1731 22.916 29.6142 23.0578 29.0803 23.2246C28.5464 23.3914 28.0292 23.575 27.5287 23.7752L30.7487 22.7908ZM28.0375 22.7908L27.7873 22.916V23.0995C27.9124 23.1829 27.9708 23.1579 27.9708 23.0411H28.0375V22.941L28.0959 22.9994C28.1554 22.933 28.2297 22.8815 28.3128 22.8492C28.3471 22.834 28.378 22.8122 28.4038 22.785C28.4295 22.7578 28.4497 22.7257 28.463 22.6907C28.2628 22.6907 28.1376 22.7575 28.0959 22.8742L28.0375 22.7908ZM28.5297 22.2319C28.6131 22.3153 28.6799 22.3487 28.7466 22.3237C28.838 22.3121 28.9305 22.3121 29.0219 22.3237L29.0886 22.1985C28.9748 22.2083 28.8604 22.2083 28.7466 22.1985C28.5881 22.1068 28.5297 22.1485 28.5297 22.2236V22.2319ZM28.5881 22.6073C28.5881 22.7324 28.5881 22.7491 28.8384 22.6657C29.0886 22.5823 29.0219 22.6657 29.0219 22.5406V22.4238C28.9401 22.483 28.846 22.523 28.7466 22.5406L28.5881 22.6073ZM31.0323 22.1068V22.04L30.9656 22.1068C30.9656 22.0234 30.9656 21.9816 30.9656 21.9816C30.9656 21.9816 30.9656 21.9816 30.9656 21.8565C30.8394 21.9062 30.7316 21.9936 30.6569 22.1068C30.6509 22.089 30.641 22.0728 30.6279 22.0594C30.6148 22.046 30.5988 22.0358 30.5812 22.0294C30.5636 22.0229 30.5447 22.0206 30.5261 22.0224C30.5074 22.0243 30.4894 22.0303 30.4734 22.04C30.3932 22.0786 30.3285 22.1433 30.2899 22.2236V22.1318C30.2065 22.2903 30.098 22.3404 29.9562 22.282C29.8268 22.2264 29.6882 22.1953 29.5474 22.1902C29.5474 22.2319 29.5474 22.357 29.4891 22.5572C29.3639 22.4822 29.3222 22.4238 29.3639 22.4071L29.4307 22.3153C29.3516 22.3519 29.2891 22.4166 29.2551 22.4968C29.2212 22.577 29.2183 22.6669 29.2471 22.7491C29.8075 22.4487 30.409 22.2323 31.0323 22.1068ZM29.0636 22.1068C29.0636 22.1902 29.1137 22.2069 29.2138 22.1652C29.3061 22.1326 29.3832 22.0673 29.4307 21.9816L29.0636 22.1068ZM30.0146 22.1068L30.1064 22.015H29.7977C29.8978 22.1068 29.9729 22.1068 30.0313 22.1068H30.0146ZM31.341 22.1985C31.4244 22.1985 31.4661 22.1985 31.4661 22.1985H31.5328V22.0734H31.4661C31.4661 22.1568 31.4661 22.1819 31.3744 22.1652C31.2826 22.1485 31.2742 22.1068 31.3577 22.1652L31.341 22.1985ZM32.7007 21.7314C32.5867 21.6767 32.4591 21.6564 32.3337 21.673V21.7981C32.1857 21.815 32.0359 21.792 31.8999 21.7314H31.7748C31.7748 21.8565 31.7748 21.9149 31.7164 21.9149V21.7981L31.5328 21.9816V22.04V22.1068C31.6163 22.1068 31.6663 22.1068 31.683 22.04C31.6997 21.9733 31.7581 22.04 31.8415 22.04L32.7007 21.7314ZM32.2669 21.6063L32.4254 21.673V21.6063C32.342 21.5312 32.2753 21.4978 32.2169 21.5145C32.1585 21.5312 32.2002 21.5645 32.2836 21.6063H32.2669ZM32.7007 22.2236H32.609H32.5172L32.951 22.1568L32.7007 22.2236ZM32.7007 21.7314C32.7885 21.7427 32.8773 21.722 32.951 21.673C32.9339 21.6759 32.9164 21.6747 32.8999 21.6694C32.8833 21.6642 32.8683 21.655 32.8561 21.6428C32.8438 21.6305 32.8347 21.6155 32.8294 21.599C32.8242 21.5825 32.8229 21.5649 32.8259 21.5479C32.8259 21.6313 32.8259 21.6647 32.7591 21.6396C32.6924 21.6146 32.7007 21.648 32.7007 21.7314ZM32.951 20.2548C32.964 20.2891 32.9841 20.3202 33.0099 20.3461C33.0358 20.3719 33.0669 20.392 33.1012 20.405C33.1512 20.405 33.1679 20.405 33.1012 20.405L33.0428 20.2882L32.951 20.2548ZM33.1929 21.5479C33.1095 21.5479 33.0678 21.6229 33.0678 21.6396H33.0094H33.2596C33.2596 21.6396 33.2096 21.6313 33.2096 21.5479H33.1929ZM33.4432 21.673C33.5548 21.6403 33.6735 21.6403 33.7852 21.673C33.844 21.6879 33.9057 21.6873 33.9642 21.6712C34.0226 21.6551 34.076 21.6241 34.1189 21.5812L34.0605 21.5228C33.9771 21.5228 33.9354 21.5228 33.9354 21.4561L33.8269 21.2726L33.5183 21.3643C33.4348 21.4144 33.4181 21.5062 33.4599 21.673H33.4432ZM35.7289 21.673C35.7289 21.5896 35.7289 21.5896 35.8457 21.673H35.7289ZM37.0803 20.6219V20.6803L37.147 20.747C37.147 20.6636 37.147 20.6302 37.2388 20.6553L37.0803 20.6219Z" fill="black"/>
<path d="M43.6453 32.66C43.5769 33.0167 43.4286 33.3532 43.2115 33.6443C42.9789 33.9828 42.8119 34.362 42.7193 34.7622L41.5431 36.9227L40.492 38.5911C40.1555 39.1435 39.7643 39.6605 39.3241 40.1344C39.1575 40.2187 39.0185 40.349 38.9237 40.5098C38.857 40.6352 38.7593 40.7414 38.6401 40.8185L38.3981 41.0938C38.3301 41.1821 38.245 41.2558 38.1479 41.3106C37.9288 41.3987 37.7214 41.5136 37.5306 41.6527C37.2764 41.8163 36.9932 41.9296 36.6964 41.9864C36.4731 42.0282 36.244 42.0282 36.0207 41.9864C35.7445 41.9453 35.4656 41.9258 35.1865 41.928C35.1035 41.9154 35.0192 41.9154 34.9362 41.928C34.8351 41.9548 34.7287 41.9548 34.6276 41.928L33.9518 41.6777H33.7016C33.4467 41.6509 33.2085 41.5379 33.0265 41.3574C32.8445 41.1769 32.7295 40.9397 32.7005 40.685L32.4503 39.0833C32.3673 38.0567 32.3367 37.0265 32.3585 35.9968C32.3585 34.8789 32.4336 33.7695 32.517 32.66C32.517 32.3346 32.517 31.9676 32.517 31.5755C32.517 31.1834 32.517 30.808 32.517 30.441C32.5248 30.3076 32.5248 30.1739 32.517 30.0406C32.5015 29.8435 32.5015 29.6454 32.517 29.4483L32.3919 25.928C32.3919 25.1522 32.4503 24.4097 32.4503 23.709C32.4488 23.0067 32.4098 22.3049 32.3335 21.6068C32.3118 21.4237 32.2582 21.2458 32.175 21.0812C32.1115 20.9575 32.08 20.8199 32.0832 20.6808C32.0901 20.4832 32.1209 20.2871 32.175 20.0969C32.2166 19.9403 32.2696 19.787 32.3335 19.6381C32.3735 19.4917 32.4472 19.3566 32.5485 19.2437C32.6499 19.1307 32.7762 19.043 32.9174 18.9874C33.1549 18.8907 33.3748 18.7554 33.5681 18.587C33.7663 18.6659 33.9872 18.6659 34.1854 18.587C34.3192 18.5217 34.463 18.4794 34.6109 18.4618C34.8594 18.5115 35.0933 18.617 35.2949 18.7705C35.4277 18.751 35.5626 18.751 35.6953 18.7705C35.7934 18.808 35.886 18.8585 35.9706 18.9207C36.1263 19.0023 36.2917 19.0639 36.4628 19.1042C36.6372 19.1569 36.7896 19.2653 36.8966 19.4128C37.1806 19.7252 37.3356 20.1336 37.3304 20.5557C37.3309 21.0041 37.3927 21.4504 37.5139 21.8821C37.5139 22.5828 37.5806 23.2919 37.5806 24.0176C37.581 24.7286 37.5392 25.4389 37.4555 26.1448C37.5377 26.8089 37.5572 27.4792 37.5139 28.1469C37.4722 28.831 37.4305 29.4566 37.3888 30.0322C37.521 30.4533 37.544 30.9012 37.4555 31.3336C37.3721 32.1094 37.322 32.8935 37.297 33.6777C37.272 34.4618 37.2469 35.2794 37.2052 36.1803C37.4874 36.0232 37.7058 35.7723 37.8225 35.4712C37.9431 35.1697 38.1091 34.8884 38.3147 34.637C38.4964 34.1542 38.7025 33.6809 38.932 33.2189C39.1823 32.7184 39.4075 32.2512 39.6161 31.7924C40.1574 30.8714 40.6126 29.9024 40.9758 28.8977C41.2826 28.432 41.5109 27.9191 41.6515 27.3795C41.7661 26.8717 42.0629 26.4235 42.4857 26.1198C42.4851 26.0424 42.5084 25.9666 42.5525 25.9029C42.5982 25.8113 42.6372 25.7165 42.6693 25.6193C42.7527 25.6193 42.7944 25.6193 42.7944 25.686L43.6953 23.125C43.9787 22.2907 44.3595 21.4927 44.8298 20.7476C44.2609 19.9161 43.9346 18.9427 43.8872 17.9363C43.8872 17.9363 43.9539 17.9363 43.9539 17.8779C43.9539 17.8195 43.9956 17.7778 44.0791 17.8195C43.9512 17.6916 43.9512 17.5248 44.0791 17.319C44.0741 17.4105 44.0878 17.5021 44.1194 17.5881C44.1509 17.6742 44.1997 17.7529 44.2626 17.8195C44.283 17.6481 44.325 17.4799 44.3877 17.319C44.5045 17.319 44.5712 17.2022 44.5712 16.9519H44.4461L44.8132 16.5182V16.7017C44.8132 16.7434 44.9133 16.7017 44.9717 16.6433C45.0301 16.5849 45.1051 16.5599 45.1886 16.6433V16.7017C45.272 16.7017 45.322 16.6516 45.3387 16.5515C45.351 16.4728 45.3825 16.3983 45.4305 16.3346C45.5139 16.3346 45.5556 16.3346 45.5556 16.3346H45.6223C45.7723 16.2699 45.8999 16.1626 45.9894 16.026C46.1145 15.8675 46.2563 15.8842 46.4232 16.0927C46.5875 16.2417 46.773 16.3654 46.9737 16.4598C46.9717 16.4998 46.9828 16.5395 47.0054 16.5726C47.028 16.6057 47.0608 16.6306 47.0989 16.6433C47.1759 16.6848 47.2616 16.7077 47.3491 16.71C47.3491 16.71 47.2824 16.7684 47.1656 16.7684C47.199 16.9111 47.199 17.0595 47.1656 17.2022C47.1457 17.2747 47.1405 17.3505 47.1506 17.4251C47.1606 17.4996 47.1856 17.5713 47.224 17.636H47.3491C47.3399 17.7582 47.3399 17.8809 47.3491 18.003C47.362 18.1579 47.4136 18.3071 47.4993 18.4368C47.4988 18.3607 47.4787 18.286 47.4409 18.2199C47.4409 18.1615 47.4409 18.0698 47.4993 17.9446L47.3742 17.8779C47.4993 17.8028 47.5577 17.7194 47.5577 17.636C47.6057 17.639 47.6525 17.6517 47.6955 17.6731C47.7385 17.6946 47.7767 17.7246 47.8079 17.7611C47.8092 18.1412 47.7785 18.5207 47.7162 18.8956C47.6543 19.2734 47.6236 19.6557 47.6244 20.0385V20.1636C47.6244 20.247 47.7746 20.5223 47.9664 20.9978C48.1019 21.3286 48.2134 21.6687 48.3001 22.0155C48.467 22.3909 48.6088 22.7246 48.7339 23.0333C48.8612 23.3467 49.1027 23.6002 49.4096 23.7423C49.658 23.9908 49.9857 24.1443 50.3356 24.1761C50.6831 24.2706 51.0518 24.2501 51.3867 24.1177H51.6369C51.7641 23.9923 51.9105 23.8881 52.0707 23.8091C52.2654 23.7012 52.4498 23.5756 52.6213 23.4337C52.678 23.4367 52.7348 23.4279 52.7879 23.4078C52.8411 23.3877 52.8894 23.3568 52.93 23.3169C53.0098 23.2587 53.0934 23.2057 53.1802 23.1584C53.2668 23.1061 53.3592 23.0641 53.4555 23.0333C53.5389 23.0333 53.5806 23.0333 53.5806 23.0333C53.7934 22.9862 53.9929 22.8922 54.1646 22.758L54.6901 22.2324C54.6067 22.4327 54.5566 22.5578 54.5316 22.5995L54.4732 22.6662L54.4148 22.7246C54.4148 22.7246 54.3397 22.8915 54.2563 23.0917C54.1729 23.0917 54.1312 23.1751 54.1312 23.3419C54.3398 23.2168 54.4399 23.1334 54.4399 23.0917C54.4399 23.05 54.5233 22.9916 54.6901 22.9081C54.8152 22.9916 54.8903 23.0166 54.932 22.9749C55.0257 22.9425 55.1254 22.9311 55.224 22.9415C55.0468 23.1917 54.8517 23.4287 54.6401 23.6506C54.4474 23.8483 54.3094 24.0926 54.2396 24.3597L54.298 24.3013C54.298 24.3013 54.298 24.3013 54.3564 24.3597C54.315 24.4466 54.2517 24.5213 54.1729 24.5765C54.0626 24.6596 53.9594 24.7517 53.8643 24.8518H53.931C53.7351 25.1786 53.444 25.4376 53.0968 25.5943C52.749 25.7481 52.4409 25.9792 52.1959 26.27L52.2626 26.3367L52.3877 26.27C52.2186 26.4529 52.0064 26.5905 51.7704 26.6704C51.5536 26.7388 51.3462 26.8341 51.1531 26.954C51.0005 26.9986 50.8441 27.0294 50.6859 27.0458C50.7527 27.0458 50.6359 27.0458 50.3439 27.0458C50.2605 26.9624 50.1938 26.9457 50.1354 27.0458C50.0766 27.1017 49.9995 27.1343 49.9185 27.1375C49.5848 27.0541 49.4513 27.0124 49.5181 27.0124C49.5765 27.0124 49.5181 26.9123 49.2344 26.7038C49.1513 26.6802 49.0704 26.6495 48.9925 26.612L48.9258 26.5536L48.834 26.4869C48.6945 26.4263 48.5606 26.3537 48.4336 26.27C48.1677 26.1245 47.9677 25.8827 47.8747 25.5943C47.7332 25.2625 47.548 24.9511 47.3241 24.6683C47.3292 24.6018 47.3207 24.535 47.2992 24.4719C47.2777 24.4088 47.2436 24.3508 47.199 24.3013V24.6099L47.0739 24.5432L46.9487 24.418V24.3597L46.8903 24.3013H46.9487C46.9487 24.1761 46.8903 24.1094 46.7652 24.1094V24.1761L46.6401 24.1094C46.6724 24.1925 46.7238 24.2668 46.7902 24.3263C46.7068 24.3263 46.6317 24.3263 46.5483 24.1428C46.4649 23.9592 46.3815 23.9592 46.298 24.076C46.0478 25.027 45.7725 25.9697 45.4638 26.9207C45.1552 27.8716 44.8382 28.7809 44.5045 29.6151C44.5879 29.6151 44.613 29.6151 44.5712 29.5567C44.5295 29.4983 44.5712 29.49 44.6296 29.49C44.5605 29.6237 44.5288 29.7736 44.5379 29.9238C44.5524 30.0532 44.5198 30.1835 44.4461 30.2908H44.3794V30.2324L44.4378 30.1073C44.4378 30.1073 44.3794 30.1073 44.3794 30.2324C44.394 30.1036 44.4336 29.9789 44.4962 29.8654C44.3161 30.1143 44.191 30.3987 44.1291 30.6996C43.9965 30.795 43.8882 30.9201 43.8129 31.065C43.7375 31.2099 43.6973 31.3705 43.6953 31.5338V31.8425C43.7345 31.7226 43.7877 31.6078 43.8538 31.5004C43.9173 31.3767 43.9489 31.239 43.9456 31.1C43.8863 31.1472 43.8427 31.2111 43.8205 31.2835C43.8205 31.2085 43.8205 31.1084 44.004 31.0082C44.0852 30.9583 44.1548 30.8915 44.2081 30.8123C44.2613 30.7332 44.297 30.6435 44.3126 30.5494C44.3126 30.7496 44.3126 30.8998 44.2542 30.9749C44.1699 31.1894 44.0666 31.396 43.9456 31.5922C43.8593 31.7479 43.7557 31.8934 43.6369 32.026C43.6336 31.993 43.637 31.9597 43.6471 31.9282C43.6571 31.8966 43.6736 31.8674 43.6953 31.8425C43.6119 31.8425 43.5702 31.8425 43.5702 31.9008L43.5118 32.026C43.438 32.0926 43.3857 32.1798 43.3616 32.2762L43.2615 32.5849L43.3283 32.5182C43.3442 32.5811 43.3442 32.6471 43.3283 32.71V32.8268V32.8935V32.9519V32.7851C43.0363 32.9937 42.8945 33.1772 42.8945 33.3357L43.3283 32.8435C43.1197 33.3023 42.9279 33.6777 42.7443 34.0447C42.5612 34.3938 42.405 34.7563 42.2772 35.1292C42.3606 35.2126 42.4023 35.2293 42.4023 35.1876C42.8945 34.3534 43.345 33.5192 43.7621 32.685C43.6786 32.5599 43.6786 32.4598 43.7621 32.3763L43.6453 32.66ZM43.2115 32.66C42.9195 32.7434 42.7777 32.8685 42.7777 33.027L43.2115 32.66ZM43.2699 33.027C43.2699 33.027 43.2699 32.9519 43.3366 32.7851L43.395 32.8435C43.2699 32.9519 43.2282 33.027 43.2699 33.027ZM43.3366 32.66C43.3747 32.5856 43.4165 32.5132 43.4618 32.4431C43.5081 32.3591 43.5284 32.2633 43.5202 32.1678C43.6036 32.2067 43.6036 32.2985 43.5202 32.4431C43.4367 32.5849 43.3783 32.66 43.3366 32.66ZM43.395 32.1678C43.395 32.1678 43.395 32.1011 43.5202 31.9843L43.395 32.1678ZM43.5202 32.66V32.6016L43.5785 32.66H43.5202ZM43.8872 17.7194C43.8872 17.7194 43.8872 17.7861 43.8872 17.9029V17.7194ZM44.1375 18.2116C44.2209 18.0948 44.2376 18.0114 44.1959 17.9697C44.1504 17.9129 44.1113 17.8513 44.0791 17.7861C44.0492 17.8153 44.0265 17.8511 44.0129 17.8906C43.9994 17.9301 43.9953 17.9722 44.0009 18.0136C44.0066 18.055 44.0219 18.0945 44.0456 18.1288C44.0694 18.1632 44.1008 18.1916 44.1375 18.2116ZM44.0791 31.734L44.4461 30.7496C44.5295 30.6662 44.5462 30.6495 44.5045 30.7496L44.4461 30.8998L44.0791 31.734ZM44.8132 20.6224L44.8799 20.564L44.9383 20.4973C44.871 20.3584 44.7775 20.2338 44.663 20.1302C44.6085 20.0739 44.5709 20.0033 44.5547 19.9266C44.5385 19.8498 44.5442 19.7701 44.5712 19.6965C44.4266 19.5866 44.319 19.4353 44.2626 19.2627C44.346 19.5129 44.4127 19.7465 44.4795 19.9718C44.5466 20.2086 44.66 20.4298 44.8132 20.6224ZM44.7548 29.0812C44.8382 29.4066 44.7548 29.5734 44.6296 29.5734C44.6296 29.49 44.7047 29.4316 44.7214 29.3899C44.7532 29.2903 44.7646 29.1853 44.7548 29.0812ZM45.005 28.9561L44.8799 29.3232C44.8768 29.1718 44.9205 29.0232 45.005 28.8977V28.9561ZM44.9383 20.9311C44.9383 20.9311 45.0217 20.9311 45.0634 20.806C45.0733 20.7905 45.0797 20.773 45.0821 20.7548C45.0845 20.7365 45.0829 20.718 45.0773 20.7005C45.0717 20.683 45.0624 20.6669 45.0499 20.6534C45.0374 20.6399 45.0221 20.6293 45.005 20.6224L44.9383 20.9311ZM45.1218 28.831C45.1497 28.7836 45.1721 28.7333 45.1886 28.6808V28.7809L45.1218 28.831ZM45.8643 25.1271L45.931 25.002L45.9894 24.8852C45.8643 25.002 45.8225 25.0854 45.8643 25.1271ZM46.4232 23.7674L46.298 23.8341L46.1729 24.076L46.4232 23.8341V23.7674ZM46.5483 24.3263C46.5483 24.4097 46.5483 24.4431 46.5483 24.418C46.5483 24.393 46.5483 24.4681 46.5483 24.6349V24.6099L46.6067 24.4848C46.6484 24.4848 46.6651 24.5432 46.6067 24.6683C46.5483 24.7934 46.5566 24.8518 46.5149 24.8518C46.4732 24.8518 46.4315 24.7934 46.5149 24.6683C46.4816 24.4264 46.4649 24.3263 46.5483 24.3263ZM46.7902 24.2679V24.3263V24.3847L46.7235 24.3263L46.7902 24.2679ZM46.9737 24.3847H46.882V24.2679L46.9737 24.3847ZM47.224 24.5765L47.3491 24.6349C47.2657 24.9686 47.2824 25.1271 47.4075 25.1271C47.3241 25.2105 47.2741 25.1772 47.2574 25.0354C47.2351 24.8946 47.2239 24.7524 47.224 24.6099V24.5765ZM47.7162 17.3524V17.4441V17.5359V17.5943H47.6494L47.4075 17.3524C47.4365 17.34 47.4678 17.3336 47.4993 17.3336C47.5308 17.3336 47.562 17.34 47.5911 17.3524C47.6324 17.3597 47.6748 17.3597 47.7162 17.3524ZM47.7829 19.1376C47.8168 19.2291 47.8168 19.3297 47.7829 19.4212L47.7162 19.6047C47.703 19.446 47.7258 19.2863 47.7829 19.1376ZM47.7829 20.1302C47.7829 19.9634 47.7829 19.8633 47.8413 19.8216L47.7829 20.1302ZM54.7569 22.8414L54.882 22.7246C54.9732 22.6584 55.0791 22.6155 55.1906 22.5995L54.7569 22.8414ZM55.1906 22.2908V22.3492H54.9988L55.1906 22.2908Z" fill="black"/>
<path d="M70.1902 29.0138C70.1061 29.0971 69.9983 29.1525 69.8816 29.1723C69.7743 29.1854 69.6699 29.2164 69.5729 29.264C69.2392 29.7145 68.7387 30.3735 67.9045 31.2411C67.0703 32.1087 66.2945 33.018 65.4019 33.9856C64.5093 34.9533 63.5416 35.8626 62.599 36.7051C61.8608 37.3932 61.0685 38.0209 60.2298 38.5821L60.2966 38.6488C59.8693 38.9603 59.4003 39.2102 58.9035 39.3913C58.3944 39.5537 57.8542 39.5937 57.3268 39.5081H57.1767C57.0647 39.4771 56.9466 39.4771 56.8346 39.5081C56.4714 39.3232 56.0651 39.2397 55.6584 39.2661C55.1681 39.1075 54.6617 39.004 54.1485 38.9575C54.0379 38.9205 53.9229 38.898 53.8065 38.8907C53.3977 38.8157 53.2059 38.6905 53.2225 38.5237C53.2392 38.3569 53.0724 38.1733 52.697 37.9648C52.1628 37.3068 51.7836 36.537 51.5875 35.7124C51.3784 34.7054 51.3784 33.6662 51.5875 32.6593C51.7899 31.9262 51.8826 31.1672 51.8628 30.4069C51.8464 29.6768 51.9857 28.9517 52.2716 28.2797C52.3287 28.2288 52.3694 28.162 52.3883 28.0878L52.3299 27.971C52.5802 27.4371 52.7804 26.97 52.9473 26.5779C53.1141 26.1858 53.2559 25.7938 53.381 25.4017C53.5062 25.0096 53.6313 24.6175 53.7815 24.2004C53.9515 23.718 54.1464 23.2446 54.3654 22.7823C54.4794 22.5989 54.5718 22.403 54.6407 22.1984C54.7074 22.0065 54.7742 21.8146 54.8576 21.6061C54.9387 21.5338 55.0114 21.4526 55.0745 21.3642C55.1419 21.2767 55.2144 21.1931 55.2914 21.1139C55.4749 20.6271 55.7128 20.1626 56.0004 19.7291C56.3103 19.2837 56.6503 18.86 57.0182 18.4611L57.4186 17.9356C57.5604 17.7586 57.6757 17.5619 57.7606 17.3516C57.7731 17.2771 57.8011 17.2059 57.8428 17.1428C57.8844 17.0797 57.9388 17.026 58.0024 16.9851C58.066 16.9443 58.1375 16.9172 58.2122 16.9056C58.287 16.894 58.3633 16.8982 58.4363 16.9179H58.5614C58.6214 16.7303 58.7535 16.5743 58.9285 16.4841L59.4207 16.2422C59.5233 16.2321 59.6267 16.2321 59.7293 16.2422C59.8153 16.2653 59.899 16.2961 59.9796 16.3339C60.0335 16.2581 60.1132 16.2044 60.2037 16.1829C60.2942 16.1615 60.3895 16.1736 60.4718 16.2171C60.6556 16.1741 60.8469 16.1741 61.0307 16.2171H61.1475L61.2726 16.1504L61.3644 16.2755C61.4048 16.3309 61.4596 16.3742 61.5229 16.4007C61.6063 16.4841 61.673 16.5091 61.7397 16.4924C61.8065 16.4757 61.8732 16.4924 61.9566 16.5842C62.0864 16.5998 62.2114 16.6424 62.3237 16.7093L62.3904 16.6426C62.3904 16.6426 62.3904 16.6426 62.5072 16.6426L62.4488 16.9512C62.5322 16.9512 62.5739 16.9512 62.5739 16.9512H62.6323C62.6956 16.9777 62.7504 17.021 62.7908 17.0764C62.7908 17.0764 62.8576 17.1347 62.941 17.1347V17.2015C63.3935 17.4912 63.7733 17.8812 64.0511 18.3412C64.3288 18.8012 64.497 19.3189 64.5427 19.8543C64.7124 21.0228 64.5655 22.2154 64.1172 23.3078V23.433C63.7657 23.8501 63.4634 24.3064 63.2163 24.7927C63.0106 25.2128 62.7528 25.6052 62.4488 25.9606C62.4343 26.0562 62.3991 26.1475 62.3459 26.2281C62.2926 26.3088 62.2224 26.3769 62.1402 26.4278C61.9913 26.5126 61.8631 26.6294 61.7648 26.7698C61.3016 27.1096 60.8789 27.5015 60.5051 27.9377C60.1025 28.4031 59.6084 28.7808 59.0536 29.0472C58.7513 29.2456 58.43 29.4132 58.0943 29.5477C57.7202 29.6994 57.3601 29.8836 57.0182 30.0983C56.8901 30.3517 56.7334 30.5897 56.551 30.8073C56.4597 30.9014 56.3786 31.0048 56.3091 31.116C56.2314 31.2597 56.1885 31.4198 56.184 31.5831C56.184 31.7833 56.1089 32.1587 56.0255 32.6926C55.9391 33.2753 55.8165 33.852 55.6584 34.4194C55.4954 34.9397 55.4527 35.4902 55.5333 36.0294C55.5776 36.3495 55.7027 36.6531 55.8968 36.9114C56.0909 37.1697 56.3476 37.3744 56.6428 37.506C57.2122 37.3855 57.7568 37.1682 58.2528 36.8636C58.7461 36.551 59.2197 36.2083 59.6709 35.8376C59.7543 35.8821 59.8044 35.8821 59.8211 35.8376C59.8413 35.8164 59.8661 35.8001 59.8936 35.79C59.921 35.7799 59.9505 35.7762 59.9796 35.7792C60.3237 35.5072 60.686 35.2592 61.064 35.0367C61.4396 34.8263 61.751 34.5178 61.965 34.1441L62.1485 33.9523H62.0818C62.2429 33.7953 62.4326 33.6707 62.6407 33.5852C62.7561 33.53 62.8592 33.452 62.9438 33.3559C63.0283 33.2599 63.0927 33.1478 63.1329 33.0263V33.093L63.4749 32.9095C63.5455 32.865 63.5989 32.7978 63.6261 32.719C63.6534 32.6401 63.6531 32.5543 63.625 32.4757L63.7502 32.5341V32.409C63.8835 32.2835 64.0089 32.1497 64.1256 32.0086C64.2095 31.8976 64.3144 31.8041 64.4342 31.7333C64.9251 31.3438 65.3827 30.9141 65.8023 30.4486L67.0369 29.0305C67.454 28.555 67.8711 28.0628 68.3967 27.5456C68.93 26.9927 69.5105 26.4875 70.1318 26.0357C70.2526 25.9524 70.3572 25.8478 70.4405 25.727C70.508 25.6145 70.5893 25.5109 70.6824 25.4184C70.7519 25.3903 70.8151 25.3485 70.8681 25.2954C70.9211 25.2424 70.9629 25.1792 70.991 25.1097C71.0768 24.9355 71.1802 24.7706 71.2997 24.6175C71.4665 24.9012 71.6084 24.9679 71.7335 24.8011C71.9306 24.6747 72.115 24.5294 72.2841 24.3673C72.4378 24.2116 72.5827 24.0472 72.7178 23.8751C72.7327 23.8942 72.7516 23.9096 72.7733 23.9202C72.795 23.9308 72.8188 23.9363 72.843 23.9363C72.8671 23.9363 72.8909 23.9308 72.9126 23.9202C72.9343 23.9096 72.9533 23.8942 72.9681 23.8751L72.843 24.0002H73.0265L72.9681 24.1504C72.9681 24.2088 72.9264 24.2421 72.843 24.2421C72.7091 24.3885 72.5864 24.5446 72.4759 24.7093C72.3091 24.9373 72.2674 25.0291 72.3508 24.9846C72.2676 25.1222 72.1634 25.246 72.0421 25.3516C71.9634 25.4185 71.9086 25.5093 71.886 25.6101C71.8634 25.711 71.8743 25.8164 71.917 25.9106C71.917 25.9106 71.917 25.9106 71.9754 25.7521C72.0338 25.5936 72.0839 25.5435 72.1673 25.5435L72.5343 25.1681C72.4926 25.2515 72.4843 25.2932 72.5343 25.2932L72.6261 25.2349L72.7262 25.1681C72.7262 25.1681 72.7262 25.2349 72.7262 25.3516C72.7679 25.2766 72.7262 25.3516 72.6011 25.4768C72.5091 25.6105 72.4058 25.7361 72.2924 25.8522C72.0435 26.4248 71.6388 26.9162 71.1245 27.2703C71.1213 27.4666 71.0438 27.6544 70.9076 27.7959C70.807 27.856 70.7144 27.9289 70.6323 28.0127C70.6323 27.9293 70.6824 27.8793 70.7825 27.8542C70.8826 27.8292 70.9744 27.7458 71.0578 27.579C70.7324 27.8209 70.5656 27.971 70.5656 28.0127C70.5185 28.0082 70.471 28.0167 70.4283 28.0373C70.3856 28.0579 70.3495 28.0898 70.3237 28.1295C70.2822 28.2066 70.2593 28.2923 70.257 28.3798V28.5049C70.1767 28.5435 70.112 28.6082 70.0734 28.6884C70.0349 28.7687 69.9701 28.8334 69.8899 28.872C69.9316 28.872 69.8899 28.872 69.8899 28.9387L69.6146 29.3058L70.1902 29.0138ZM52.2298 31.116C52.238 31.1992 52.238 31.283 52.2298 31.3662C52.2181 31.4464 52.2181 31.5279 52.2298 31.6082C52.1933 31.6394 52.1634 31.6776 52.1419 31.7206C52.1204 31.7636 52.1077 31.8104 52.1047 31.8584C52.1019 31.9638 52.0822 32.068 52.0463 32.1671V32.2255C51.9598 32.4961 51.9066 32.7762 51.8878 33.0597C51.8878 33.3516 51.8378 33.6436 51.7961 33.8939C51.83 33.9491 51.848 34.0126 51.848 34.0774C51.848 34.1422 51.83 34.2057 51.7961 34.2609C51.7457 34.3569 51.7145 34.4617 51.7043 34.5696L51.8878 35.2536C51.8883 35.8429 51.9927 36.4275 52.1965 36.9804C52.4276 37.584 52.8381 38.1022 53.3727 38.4653C53.2846 38.3745 53.2114 38.2703 53.1558 38.1566C53.1136 38.067 53.0603 37.9829 52.9973 37.9064C52.7971 37.4559 52.5969 37.0722 52.4134 36.6718C52.2222 36.2681 52.128 35.8253 52.1381 35.3788C52.1494 34.0616 52.3345 32.7517 52.6887 31.483C52.6946 31.2441 52.7253 31.0065 52.7804 30.774C52.8324 30.563 52.8324 30.3426 52.7804 30.1316C52.4579 30.215 52.2827 30.3569 52.2549 30.5571C52.2382 30.7656 52.2298 30.9491 52.2298 31.116ZM57.2351 18.0273L56.893 17.9356C56.893 17.9356 56.893 17.8522 57.0766 17.6853L57.2351 18.0273ZM59.3289 26.3694L59.3956 26.4361C59.4791 26.4361 59.5208 26.4361 59.5208 26.3694C60.0627 26.0722 60.5348 25.6626 60.9055 25.1681C61.2793 24.6562 61.5797 24.0947 61.7981 23.4997C61.7437 23.4879 61.6954 23.457 61.6617 23.4126C61.6281 23.3683 61.6114 23.3134 61.6146 23.2578L61.8649 23.0743L62.2987 20.7218C62.2635 20.6609 62.245 20.5919 62.245 20.5216C62.245 20.4513 62.2635 20.3823 62.2987 20.3214C62.3221 20.2689 62.3343 20.2121 62.3343 20.1546C62.3343 20.0971 62.3221 20.0402 62.2987 19.9877L61.9566 20.1045C61.7974 20.1989 61.6607 20.327 61.5562 20.4799C61.3894 20.7218 61.2059 21.0221 60.9973 21.3725C60.8033 21.7084 60.5553 22.0099 60.2632 22.2651L59.7043 23.0993L59.2121 24.2088C59.0036 24.6592 58.8117 25.1347 58.6198 25.6269C58.428 26.1191 58.2611 26.6029 58.0943 27.0784C57.9274 27.5539 57.7856 27.9544 57.6688 28.2797C57.9816 28.0184 58.2796 27.7399 58.5614 27.4455C58.876 27.1313 59.133 26.7642 59.3206 26.361L59.3289 26.3694ZM71.3581 27.946C71.4415 27.946 71.4248 28.0127 71.2997 28.0127H71.0745C71.0328 27.9293 71.0745 27.9043 71.1996 27.946C71.3247 27.9877 71.3581 27.946 71.3581 27.946ZM71.8586 27.2703L71.7919 27.4205C71.7466 27.4906 71.7048 27.563 71.6668 27.6374C71.5917 27.4371 71.6501 27.312 71.8586 27.2286V27.2703ZM71.9754 26.5279C71.9754 26.5279 71.9754 26.5279 71.9754 26.653C71.9616 26.6903 71.9365 26.7224 71.9036 26.7448C71.8707 26.7672 71.8317 26.7789 71.7919 26.7781C71.8183 26.7149 71.8616 26.66 71.917 26.6196L71.9754 26.5279ZM72.7429 24.9429L72.5594 25.1264V25.068L72.7429 24.9429ZM72.9347 24.7594C72.9347 24.7594 72.868 24.8845 72.7429 25.0013V24.8845L72.8096 24.8178V24.8845L72.9347 24.7594ZM72.868 24.6342C73.0348 24.384 73.0932 24.2839 73.0515 24.3256L72.868 24.6342Z" fill="black"/>
<path d="M86.5487 37.6563C86.5106 37.6343 86.4674 37.6228 86.4235 37.6228C86.3796 37.6228 86.3364 37.6343 86.2984 37.6563C86.2048 37.7289 86.1208 37.813 86.0481 37.9066C85.9894 37.9885 85.9191 38.0615 85.8396 38.1235C85.7728 38.1652 85.7395 38.1235 85.7395 38.0567C85.7078 38.0529 85.6757 38.0598 85.6484 38.0765C85.6212 38.0932 85.6004 38.1185 85.5893 38.1485C85.5893 38.2152 85.4976 38.2402 85.3724 38.2402C85.3286 38.3272 85.2784 38.4109 85.2223 38.4905C85.1555 38.5739 85.1305 38.4905 85.1305 38.3654C85.0395 38.4154 84.9553 38.4771 84.8802 38.5489C84.7806 38.674 84.7171 38.824 84.6967 38.9827H84.4214L84.6717 39.0494C84.3849 39.209 84.0709 39.3137 83.7457 39.3581C83.3917 39.4054 83.0527 39.5308 82.753 39.7251C82.5393 39.7725 82.3321 39.8453 82.1357 39.942C81.9463 40.0418 81.7286 40.0742 81.5184 40.0338C81.6713 39.8899 81.8682 39.8018 82.0773 39.7835C82.2484 39.7846 82.4172 39.7445 82.5695 39.6667C82.4037 39.6057 82.2263 39.5823 82.0503 39.5981C81.8743 39.614 81.704 39.6688 81.5518 39.7585C81.3891 39.8489 81.209 39.9038 81.0236 39.9197C80.8381 39.9355 80.6513 39.9118 80.4757 39.8503C80.5507 39.7668 80.6175 39.7335 80.6592 39.7585H80.776C80.8594 39.5499 80.8761 39.4999 80.776 39.6083C80.6759 39.7168 80.7092 39.6584 80.776 39.4498C80.5906 39.4136 80.4146 39.3398 80.2588 39.2329C80.1781 39.1891 80.0878 39.1662 79.996 39.1662C79.9042 39.1662 79.8139 39.1891 79.7332 39.2329V39.0494H79.6665C79.4688 38.7297 79.2544 38.4206 79.0241 38.1235C78.7999 37.8293 78.6484 37.4863 78.582 37.1224C78.3415 36.2685 78.2484 35.3799 78.3067 34.4947C78.3667 33.6833 78.5007 32.8791 78.7071 32.0922C78.9356 31.2422 79.2141 30.4066 79.5413 29.5896C79.9054 28.6518 80.2146 27.6936 80.4673 26.7199C80.904 25.5351 81.1845 24.2984 81.3015 23.0411C81.3015 22.2069 80.9845 21.9399 80.2838 22.1485C80.151 22.2254 80.0278 22.3178 79.9167 22.4238C79.7779 22.5437 79.6521 22.6779 79.5413 22.8242C79.5413 22.8242 79.4996 22.8242 79.4162 22.8909C79.3328 22.9577 79.2577 23.0578 79.1743 23.1328H78.7989C78.7103 23.2292 78.6294 23.3324 78.557 23.4415C78.4736 23.5666 78.3902 23.6334 78.3067 23.6334C77.8815 24.1662 77.4157 24.6655 76.9136 25.1266C76.4798 25.5437 76.021 26.0359 75.5205 26.6115L75.4287 26.7032C75.4287 26.7616 75.362 26.7783 75.2786 26.7032C75.1713 26.7701 75.0847 26.8654 75.0283 26.9785C74.9361 27.1384 74.833 27.2917 74.7197 27.4373V27.3789L74.7864 27.2538L74.8448 27.1287C74.7197 27.1287 74.6613 27.2371 74.6613 27.3205V27.5625V27.5041V27.4373C74.6613 27.6459 74.5194 28.1464 74.3526 28.9556C74.1858 29.7648 73.9939 30.624 73.7687 31.4582C73.5643 32.2553 73.3165 33.0406 73.0262 33.8106C72.7593 34.5114 72.5424 34.8534 72.3839 34.8534C72.3835 34.935 72.3663 35.0157 72.3333 35.0903C72.3003 35.165 72.2522 35.232 72.192 35.2872H72.0085C71.9251 35.454 71.8667 35.5875 71.825 35.6876C71.8042 35.7448 71.7986 35.8064 71.8089 35.8663C71.8191 35.9263 71.8448 35.9826 71.8834 36.0296L71.5163 35.7793C71.4329 35.7793 71.4162 35.7793 71.4579 35.7793C71.3995 35.8628 71.4579 35.8628 71.4579 35.7793C71.5163 35.6959 71.4579 35.6792 71.3662 35.7126C71.3453 35.757 71.3345 35.8054 71.3345 35.8544C71.3345 35.9035 71.3453 35.9519 71.3662 35.9962C71.4079 36.0963 71.4079 36.1714 71.3662 36.2131L71.2994 36.2715L71.241 36.3299C71.1576 36.3299 71.1242 36.3299 71.1493 36.3299C71.1743 36.3299 71.1493 36.2548 71.0575 36.1714L70.7489 36.7303C70.6654 36.8138 70.5987 36.7303 70.557 36.5468C70.4731 36.629 70.3648 36.6817 70.2483 36.697C70.0802 36.7363 69.9156 36.7894 69.7562 36.8555C69.622 36.6993 69.4348 36.5983 69.2306 36.5718C69.0471 36.5718 68.8135 36.7053 68.5215 37.039L68.4631 36.9723C68.4631 36.9305 68.4214 36.9139 68.338 36.9139C68.2546 36.9139 68.2796 36.9139 68.2796 37.039L68.2129 37.0974C68.1522 37.1085 68.09 37.1085 68.0294 37.0974C67.9275 37.0767 67.8225 37.0767 67.7207 37.0974C67.7207 36.6469 67.7207 36.1798 67.7207 35.7043C67.7482 35.1722 67.8407 34.6456 67.996 34.136C67.996 34.0915 67.9543 34.0915 67.8709 34.136C67.7874 34.1805 67.7457 34.1388 67.7457 34.0108C67.9126 34.0108 67.996 34.0108 67.996 33.9441L68.6133 30.9827C68.6338 30.9457 68.6445 30.904 68.6445 30.8617C68.6445 30.8194 68.6338 30.7778 68.6133 30.7408C68.5744 30.6631 68.5544 30.5774 68.5549 30.4905L68.8636 29.2559C68.9944 28.9055 69.0867 28.5418 69.1388 28.1714C69.1972 27.7877 69.2723 27.3372 69.3557 26.9118L69.8479 24.0088L70.4068 21.7898C70.3986 21.7066 70.3986 21.6227 70.4068 21.5395C70.4194 21.4566 70.4194 21.3722 70.4068 21.2893V21.0473L70.532 20.9806C70.6069 20.7752 70.627 20.5538 70.5904 20.3383C70.5425 20.1043 70.5425 19.8631 70.5904 19.6292C70.6321 19.6292 70.7238 19.454 70.874 19.1036C71.0241 18.7533 71.1243 18.5781 71.2077 18.5781C71.3234 18.2121 71.5137 17.8741 71.7666 17.5854C71.9431 17.4052 72.1527 17.2607 72.3839 17.16C72.5955 17.0727 72.8129 17.0002 73.0346 16.9431C73.27 16.8746 73.4887 16.7581 73.6769 16.601C73.7939 16.5938 73.911 16.6138 74.0189 16.6594C74.0773 16.7011 74.2108 16.6594 74.4193 16.601C74.5452 16.6695 74.6799 16.7201 74.8198 16.7512C74.9334 16.7648 75.0482 16.7648 75.1618 16.7512C75.5288 17.0015 75.8625 17.235 76.1462 17.4603C76.2798 17.5483 76.3818 17.6767 76.4373 17.8267C76.4928 17.9768 76.499 18.1407 76.4548 18.2945L76.2713 19.8377L76.1462 20.5802L75.654 23.6667L76.3964 22.6824C76.6734 22.3235 77.0057 22.011 77.3808 21.7564C77.7828 21.4808 78.1212 21.1224 78.3735 20.7053L79.0158 20.3633C79.2335 20.2385 79.4328 20.0841 79.6081 19.9045C80.3839 19.404 81.0679 18.9535 81.6435 18.5447C82.2578 18.1303 82.9506 17.8464 83.679 17.7105C83.7506 17.6966 83.8243 17.6966 83.8959 17.7105C83.9543 17.7105 84.0294 17.7105 84.1128 17.6188C84.2094 17.6641 84.3147 17.6877 84.4214 17.6877C84.5281 17.6877 84.6335 17.6641 84.7301 17.6188C84.9386 17.5187 85.0971 17.6188 85.2223 17.8357C85.2976 17.794 85.3823 17.7722 85.4684 17.7722C85.5544 17.7722 85.6391 17.794 85.7145 17.8357L86.2066 18.0192L86.1482 18.2027C86.1482 18.2861 86.2483 18.3695 86.4569 18.453L86.5236 18.5781L86.582 18.6365V18.7032L86.6404 18.6365H86.7072C86.6782 18.8505 86.7223 19.068 86.8323 19.2538C86.9156 19.3431 87.0227 19.4067 87.1409 19.4373C87.1306 19.643 87.1306 19.849 87.1409 20.0546C87.1735 20.1777 87.1735 20.307 87.1409 20.43C87.1409 20.5969 87.2077 20.7303 87.2327 20.8304C87.2382 20.9884 87.2067 21.1455 87.1409 21.2893C87.216 21.3727 87.2327 21.5562 87.1409 21.8482C87.0865 22.0921 87.0558 22.3408 87.0492 22.5906C86.9552 23.1587 86.81 23.7171 86.6154 24.259C86.439 24.7956 86.2329 25.322 85.9981 25.8357C85.7144 26.82 85.4558 27.6042 85.2306 28.1798C85.0054 28.7554 84.7885 29.2893 84.5799 29.7898C84.3714 30.2903 84.1712 30.8075 83.9626 31.3581C83.7075 32.0944 83.5013 32.8469 83.3453 33.6104C83.2202 34.2635 83.2202 34.9344 83.3453 35.5875C83.3964 35.7101 83.4761 35.8187 83.5777 35.9043C83.6792 35.9899 83.7998 36.05 83.9293 36.0797C84.1804 36.1214 84.4383 36.0896 84.6717 35.9879C84.9628 35.8835 85.2424 35.7493 85.5059 35.5875L86.215 35.1537C86.3818 35.0369 86.4652 35.0119 86.4652 35.0953L86.6488 34.9118H86.8406C87.0408 34.7449 87.2577 34.5781 87.483 34.4196C87.7219 34.2384 87.9401 34.0314 88.1336 33.8023C88.2171 33.8023 88.2588 33.7689 88.2588 33.7022H88.3172C88.4271 33.5821 88.5535 33.4782 88.6925 33.3935L89.0596 33.0181L90.4194 31.9087C90.6613 31.625 90.8281 31.4415 90.9115 31.3581C90.9788 31.2887 91.0513 31.2245 91.1284 31.1662C91.2197 31.1036 91.3037 31.0308 91.3787 30.9493C91.5715 30.7286 91.7446 30.4913 91.8959 30.2402C92.0585 30.0838 92.2039 29.9104 92.3297 29.723C92.4589 29.5197 92.5626 29.3011 92.6383 29.0724H92.8219C92.8909 28.8894 92.9959 28.722 93.1305 28.5802C93.2559 28.453 93.3602 28.3066 93.4392 28.1464H93.5059C93.6644 27.8961 93.7812 27.7877 93.8479 27.8044C93.9147 27.8211 94.0398 27.6709 94.2483 27.3456H94.4319L94.7989 26.4196C94.8356 26.5595 94.8442 26.7052 94.8241 26.8484C94.8041 26.9916 94.7558 27.1294 94.6821 27.2538C94.6045 27.3591 94.5528 27.4811 94.531 27.6101C94.5093 27.7391 94.5182 27.8713 94.557 27.9962C94.7449 27.8246 94.893 27.6139 94.9908 27.3789C95.1129 27.0895 95.3308 26.8509 95.6081 26.7032L95.3578 27.0119C95.4412 27.0953 95.483 27.0703 95.483 26.9452L95.5414 27.0119C95.5414 27.0953 95.5414 27.1454 95.5414 27.162V27.2538V27.3789L95.6665 27.4373C95.3328 28.0213 95.0659 28.4801 94.8323 28.8304C94.5987 29.1808 94.4319 29.4978 94.2483 29.7898C94.052 30.0833 93.8345 30.3621 93.5977 30.624L92.6133 31.8002C92.4413 31.8886 92.3013 32.0286 92.2129 32.2006C92.1079 32.3839 91.9429 32.5253 91.7457 32.601V32.6928C91.5675 32.8727 91.4208 33.0814 91.3119 33.3101C91.2833 33.4073 91.2412 33.4999 91.1868 33.5854L91.0367 33.8023C90.8996 33.9466 90.7422 34.0703 90.5695 34.1693C90.5629 34.2445 90.5432 34.3179 90.5111 34.3862C90.4594 34.5046 90.3719 34.6038 90.2609 34.6699H90.2024V34.7616V34.8534C90.2024 34.6865 90.2025 34.6532 90.1024 34.7616C90.0184 34.8304 89.9645 34.9291 89.9522 35.0369C89.7019 34.8701 89.5434 35.0369 89.46 35.5291C89.46 35.5291 89.3933 35.5291 89.3933 35.404V35.2204C89.3099 35.2204 89.2431 35.2955 89.1764 35.4373C89.117 35.5758 89.0472 35.7097 88.9678 35.8377V35.9045L88.8761 35.9629L88.776 36.0213C88.7362 36.0205 88.6971 36.0322 88.6643 36.0546C88.6314 36.077 88.6063 36.1091 88.5924 36.1464V36.088L88.6592 36.0213V35.9629C88.4923 36.088 88.4506 36.1464 88.534 36.1464C88.4048 36.1913 88.2877 36.2655 88.192 36.3633L87.9167 36.6386V36.7053H87.7916L87.4496 36.9222C87.2901 37.0241 87.1369 37.1355 86.9908 37.2559C87.0486 37.2271 87.1105 37.2074 87.1743 37.1975L87.0492 37.2559H86.9908C86.9158 37.2902 86.8521 37.3452 86.8073 37.4144C86.8073 37.4728 86.7238 37.4144 86.6821 37.2559V37.5645L86.7405 37.6313L86.5487 37.6563ZM70.4319 21.2726L70.4986 21.2142C70.4184 21.4031 70.3542 21.5984 70.3067 21.7981C70.2959 21.9199 70.2558 22.0372 70.1899 22.1401L70.4319 21.2726ZM81.485 39.4248C81.485 39.2997 81.3683 39.2663 81.2682 39.3247C81.1233 39.4054 80.965 39.4591 80.801 39.4832C80.9514 39.4709 81.1022 39.5028 81.2348 39.575C81.3182 39.625 81.4016 39.5499 81.485 39.3914V39.4248ZM81.3599 40.1589C81.3599 40.1589 81.3599 40.1005 81.485 40.1005L81.3599 40.1589ZM87.1993 37.381C87.1646 37.4399 87.1419 37.5051 87.1326 37.5729L87.0742 37.6897C87.0693 37.6233 87.0902 37.5575 87.1326 37.5061L87.1993 37.381ZM95.7165 26.7032C95.6964 26.8256 95.6309 26.9358 95.533 27.0119L95.7165 26.7032Z" fill="black"/>
<path d="M110.865 37.656C110.829 37.6339 110.787 37.6223 110.744 37.6223C110.702 37.6223 110.66 37.6339 110.623 37.656C110.53 37.7287 110.446 37.8127 110.373 37.9063C110.312 37.9888 110.239 38.0619 110.156 38.1232C110.098 38.1649 110.064 38.1232 110.064 38.0564C110.064 37.9897 109.931 38.0564 109.914 38.1482C109.897 38.24 109.822 38.24 109.697 38.24C109.654 38.3288 109.6 38.4127 109.539 38.4902C109.48 38.5736 109.447 38.4902 109.447 38.3651C109.357 38.4133 109.276 38.4752 109.205 38.5486C109.102 38.6728 109.036 38.8229 109.013 38.9824H108.771L109.013 39.0491C108.728 39.2118 108.413 39.3167 108.087 39.3578C107.736 39.4052 107.4 39.5306 107.103 39.7248C106.889 39.7709 106.681 39.8438 106.486 39.9417C106.296 40.0409 106.079 40.0732 105.868 40.0335C106.021 39.8896 106.218 39.8015 106.427 39.7832C106.598 39.7833 106.767 39.7433 106.919 39.6664C106.754 39.6054 106.576 39.582 106.4 39.5978C106.224 39.6137 106.054 39.6685 105.902 39.7582C105.737 39.8488 105.556 39.9038 105.369 39.9196C105.182 39.9355 104.994 39.9117 104.817 39.85C104.901 39.7665 104.959 39.7332 105.001 39.7582H105.126C105.209 39.5497 105.218 39.4996 105.126 39.6081C105.034 39.7165 105.051 39.6581 105.126 39.4496C104.938 39.4132 104.759 39.3395 104.6 39.2327C104.52 39.1888 104.429 39.1659 104.338 39.1659C104.246 39.1659 104.155 39.1888 104.075 39.2327V39.0491H104.016C103.811 38.7266 103.594 38.4179 103.366 38.1232C103.14 37.8339 102.984 37.4974 102.907 37.1388C102.668 36.2845 102.572 35.3966 102.623 34.5111C102.69 33.7 102.827 32.8962 103.032 32.1086C103.253 31.2563 103.531 30.4201 103.866 29.606C104.223 28.6656 104.532 27.7078 104.792 26.7363C105.225 25.5503 105.505 24.3141 105.626 23.0575C105.626 22.2233 105.301 21.9563 104.609 22.1649C104.474 22.2432 104.348 22.3354 104.233 22.4402C104.097 22.5599 103.974 22.6942 103.866 22.8406C103.866 22.8406 103.825 22.8406 103.741 22.9073L103.491 23.1492H103.124C103.032 23.2453 102.949 23.3485 102.874 23.4579C102.79 23.583 102.715 23.6498 102.632 23.6498C102.225 24.1725 101.781 24.6659 101.305 25.1263C100.871 25.5434 100.404 26.0356 99.9121 26.6112L99.8203 26.7029C99.8203 26.7613 99.7453 26.778 99.6702 26.7029C99.5629 26.7698 99.4763 26.8651 99.4199 26.9782C99.3277 27.1381 99.2246 27.2914 99.1113 27.437V27.3786L99.1696 27.2535L99.2364 27.1284C99.1113 27.1284 99.0529 27.2368 99.0529 27.3202V27.5622V27.5038V27.437C99.0529 27.6456 98.9111 28.1461 98.7442 28.9553C98.5774 29.7645 98.3855 30.6237 98.1603 31.4579C97.935 32.2921 97.6848 33.1263 97.4178 33.8103C97.1509 34.4944 96.934 34.8531 96.7672 34.8531C96.7684 34.9342 96.7527 35.0146 96.7211 35.0893C96.6895 35.164 96.6427 35.2313 96.5836 35.2869H96.4001C96.3308 35.4165 96.2695 35.5502 96.2166 35.6873C96.1958 35.7445 96.1902 35.8061 96.2005 35.866C96.2107 35.926 96.2364 35.9823 96.275 36.0293L95.9079 35.7791C95.8245 35.7791 95.7995 35.7791 95.8412 35.7791C95.7911 35.8625 95.7995 35.8625 95.8412 35.7791C95.8912 35.6956 95.8412 35.679 95.7494 35.7123C95.7286 35.7567 95.7178 35.8051 95.7178 35.8541C95.7178 35.9032 95.7286 35.9516 95.7494 35.996C95.7911 36.0961 95.7911 36.1711 95.7494 36.2128L95.691 36.2712L95.6326 36.3296C95.5492 36.3296 95.5159 36.3296 95.5325 36.3296C95.5325 36.3296 95.5325 36.2546 95.4408 36.1711L95.1321 36.73C95.0487 36.8135 94.9903 36.73 94.9486 36.5465C94.8637 36.6272 94.7559 36.6797 94.6399 36.6967C94.4715 36.7349 94.3068 36.7879 94.1478 36.8552C94.0091 36.7047 93.8241 36.6048 93.6222 36.5715C93.4387 36.5715 93.1968 36.705 92.9131 37.0387L92.8547 36.972C92.8547 36.9303 92.8547 36.9136 92.7296 36.9136C92.6045 36.9136 92.6629 36.9136 92.6629 37.0387L92.6045 37.0971C92.5438 37.1082 92.4816 37.1082 92.421 37.0971C92.319 37.0779 92.2143 37.0779 92.1123 37.0971C92.1123 36.6466 92.1123 36.1795 92.1123 35.704C92.1398 35.172 92.2323 34.6453 92.3876 34.1357C92.3876 34.0912 92.3459 34.0912 92.2625 34.1357C92.179 34.1802 92.1373 34.1385 92.1373 34.0105C92.3042 34.0105 92.3876 34.0106 92.3876 33.9438L93.0049 30.9824C93.0253 30.9454 93.0361 30.9037 93.0361 30.8614C93.0361 30.8191 93.0253 30.7775 93.0049 30.7405C92.9634 30.6634 92.9405 30.5777 92.9382 30.4902L93.2468 29.2556C93.3767 28.9043 93.4717 28.541 93.5304 28.1711C93.5888 27.7874 93.6639 27.3369 93.7473 26.9115L94.2395 24.0085L94.7901 21.7895C94.7819 21.7063 94.7819 21.6224 94.7901 21.5392C94.8027 21.4563 94.8027 21.3719 94.7901 21.289V21.0471L94.9152 20.9803C94.9853 20.7738 95.0053 20.5537 94.9736 20.338C94.9257 20.104 94.9257 19.8628 94.9736 19.6289C95.0181 19.6289 95.1099 19.4537 95.2489 19.1034C95.3907 18.753 95.5075 18.5778 95.5909 18.5778C95.7067 18.2119 95.897 17.8738 96.1498 17.5851C96.3248 17.403 96.5348 17.2583 96.7672 17.1597C96.9759 17.0724 97.1906 17 97.4095 16.9428C97.6467 16.8726 97.8678 16.7563 98.0602 16.6008C98.1771 16.5944 98.294 16.6144 98.4022 16.6591C98.4606 16.7009 98.5941 16.6591 98.8026 16.6008C99.0297 16.7261 99.2857 16.7894 99.545 16.7843C99.9121 17.0345 100.237 17.2681 100.529 17.4933C100.661 17.5831 100.762 17.7117 100.817 17.8612C100.872 18.0107 100.88 18.1737 100.838 18.3276L100.655 19.8708L100.529 20.6133L100.037 23.6998L100.78 22.7155C101.054 22.3546 101.387 22.0418 101.764 21.7895C102.164 21.5137 102.499 21.1553 102.748 20.7384L103.399 20.3964C103.614 20.2712 103.811 20.1168 103.983 19.9376C104.767 19.437 105.443 18.9866 106.027 18.5778C106.641 18.1634 107.334 17.8795 108.062 17.7436C108.134 17.7303 108.207 17.7303 108.279 17.7436C108.338 17.7436 108.413 17.7436 108.496 17.6518C108.593 17.6967 108.698 17.7199 108.805 17.7199C108.911 17.7199 109.017 17.6967 109.113 17.6518C109.314 17.5517 109.48 17.6518 109.606 17.8687C109.681 17.8271 109.766 17.8053 109.852 17.8053C109.938 17.8053 110.022 17.8271 110.098 17.8687L110.59 18.0523L110.531 18.2358C110.531 18.3192 110.632 18.4026 110.84 18.486L110.899 18.6112L110.965 18.6696V18.7363L111.024 18.6696H111.082C111.053 18.8836 111.097 19.1011 111.207 19.2869C111.292 19.3748 111.398 19.4382 111.516 19.4704C111.501 19.6759 111.501 19.8822 111.516 20.0877C111.549 20.2106 111.549 20.3402 111.516 20.4631C111.516 20.6299 111.591 20.7634 111.608 20.8635C111.621 21.0221 111.59 21.1813 111.516 21.3223C111.599 21.4058 111.608 21.5893 111.516 21.8813C111.458 22.1245 111.427 22.3736 111.424 22.6237C111.33 23.1918 111.185 23.7502 110.99 24.2921C110.782 24.8927 110.582 25.4183 110.373 25.8687C110.081 26.8531 109.831 27.6372 109.606 28.2128L108.955 29.8229C108.746 30.315 108.538 30.8406 108.338 31.3912C108.078 32.1263 107.872 32.879 107.72 33.6435C107.595 34.2966 107.595 34.9675 107.72 35.6206C107.771 35.7432 107.851 35.8518 107.953 35.9374C108.054 36.023 108.175 36.0831 108.304 36.1127C108.555 36.1545 108.813 36.1226 109.047 36.021C109.338 35.9166 109.617 35.7824 109.881 35.6206L110.59 35.1868C110.757 35.07 110.84 35.045 110.84 35.1284L111.024 34.9449H111.207C111.416 34.778 111.633 34.6112 111.858 34.4527C112.097 34.2715 112.315 34.0645 112.509 33.8354C112.584 33.8354 112.625 33.8354 112.625 33.7353H112.692C112.798 33.614 112.922 33.5098 113.059 33.4266L113.435 33.0512L114.786 31.9417C115.036 31.6581 115.203 31.4746 115.286 31.3912C115.349 31.3202 115.419 31.2559 115.495 31.1993C115.59 31.141 115.674 31.0678 115.745 30.9824C115.939 30.7603 116.115 30.5232 116.271 30.2733C116.433 30.1169 116.579 29.9435 116.705 29.7561C116.834 29.5528 116.938 29.3342 117.013 29.1054H117.197C117.263 28.9208 117.368 28.7528 117.505 28.6133C117.631 28.4861 117.735 28.3397 117.814 28.1795H117.872C118.039 27.9292 118.156 27.8208 118.214 27.8375C118.273 27.8541 118.406 27.704 118.615 27.3786H118.682L119.049 26.4527C119.086 26.5929 119.094 26.7393 119.073 26.8828C119.051 27.0263 119 27.1638 118.924 27.2869C118.846 27.3922 118.794 27.5142 118.772 27.6432C118.751 27.7722 118.76 27.9044 118.798 28.0293C118.986 27.8577 119.134 27.647 119.232 27.412C119.36 27.1261 119.576 26.8891 119.85 26.7363L119.608 27.045C119.683 27.1284 119.724 27.1034 119.724 26.9782L119.791 27.045C119.791 27.1284 119.791 27.1784 119.791 27.1951V27.2869V27.412L119.916 27.4704C119.591 28.0543 119.324 28.5132 119.082 28.8635C118.84 29.2139 118.682 29.5309 118.498 29.8229C118.299 30.1144 118.082 30.393 117.847 30.6571L116.955 31.8583C116.782 31.9488 116.64 32.088 116.546 32.2587C116.449 32.4452 116.285 32.5883 116.087 32.6591V32.7509C115.909 32.9308 115.762 33.1395 115.653 33.3682C115.625 33.4654 115.583 33.558 115.528 33.6435L115.378 33.8604C115.241 34.0048 115.084 34.1284 114.911 34.2274C114.9 34.3018 114.881 34.3746 114.853 34.4443C114.801 34.5627 114.713 34.6619 114.602 34.728H114.452V34.8197V34.9115C114.494 34.7446 114.452 34.7113 114.36 34.8197C114.277 34.8885 114.223 34.9872 114.21 35.095C113.96 34.9282 113.793 35.095 113.71 35.5872C113.668 35.5872 113.651 35.5872 113.651 35.4621V35.2785C113.568 35.2785 113.493 35.3536 113.435 35.4954C113.376 35.6357 113.303 35.7698 113.218 35.8958V35.9626L113.126 36.021L113.034 36.0794C112.994 36.0786 112.955 36.0903 112.922 36.1127C112.89 36.1351 112.864 36.1672 112.851 36.2045V36.1461L112.909 36.0794V36.021C112.742 36.1461 112.7 36.2045 112.784 36.2045C112.658 36.2515 112.544 36.3256 112.45 36.4214L112.167 36.6967V36.7634H111.95L111.608 36.9803C111.508 37.0387 111.349 37.1555 111.14 37.314C111.201 37.2849 111.266 37.2652 111.332 37.2556L111.207 37.314H111.14C111.067 37.351 111.004 37.4054 110.957 37.4725C110.957 37.5309 110.874 37.4725 110.832 37.314V37.6226L110.899 37.6894L110.865 37.656ZM94.7567 21.2723L94.8151 21.2139C94.7375 21.403 94.6761 21.5983 94.6316 21.7978C94.6156 21.9197 94.5729 22.0365 94.5065 22.1399L94.7567 21.2723ZM105.81 39.4245C105.81 39.2994 105.693 39.266 105.593 39.3244C105.448 39.4038 105.29 39.4575 105.126 39.4829C105.276 39.4707 105.427 39.5025 105.56 39.5747C105.643 39.6247 105.726 39.5497 105.81 39.3912V39.4245ZM105.685 40.1586C105.685 40.1586 105.685 40.1002 105.81 40.1002L105.685 40.1586ZM111.482 37.3807C111.449 37.4397 111.429 37.5052 111.424 37.5726L111.366 37.6894C111.361 37.623 111.382 37.5572 111.424 37.5059L111.482 37.3807ZM120.008 26.7029C120.008 26.7864 119.941 26.8865 119.816 27.0116L120.008 26.7029Z" fill="black"/>
<path d="M98.4942 45.1393H98.0938L98.4776 45.0893M98.8279 45.4062C98.7695 45.4062 98.6277 45.3228 98.5276 45.2644C98.6314 45.3034 98.7319 45.3508 98.8279 45.4062ZM85.2972 44.9808C80.7424 45.0475 76.2878 45.2477 71.4327 45.448C67.8456 45.5814 64.3837 45.6148 60.9802 45.84C48.684 46.6742 33.8436 49.1768 31.3493 50.6701C28.3295 52.4386 30.6653 53.4229 30.8321 53.4646C31.3316 53.6199 31.8523 53.6959 32.3754 53.6899C32.951 53.6899 48.976 51.2874 50.1939 51.0955C51.9207 50.8286 75.6788 48.2175 83.562 48.009C85.4555 47.8628 87.3386 47.6037 89.2012 47.2331C89.4348 47.2331 89.6767 47.2331 89.9186 47.2331C90.4275 47.2331 90.9447 47.2331 91.4286 47.2331C91.9124 47.2331 92.3879 47.2331 92.805 47.2331H92.8968C94.3692 47.183 95.8373 47.0437 97.293 46.816C95.7831 46.9162 94.6819 47.0413 93.0052 47.1497H92.9051C91.9958 47.1497 93.7894 46.6075 94.5151 46.474H94.6069C94.7727 46.4865 94.9343 46.5319 95.0824 46.6075C95.2318 46.6795 95.3928 46.7246 95.5579 46.741H95.658C96.3549 46.6859 97.0466 46.5771 97.7268 46.4156H97.8102C97.854 46.4163 97.8966 46.4302 97.9323 46.4555C97.968 46.4808 97.9953 46.5164 98.0104 46.5574L98.1439 46.6909C99.0615 46.5908 99.8123 46.1487 100.396 46.1403H100.58L101.956 46.2988C102.156 46.2988 102.365 46.2988 102.582 46.2988H102.79L103.341 46.1904C104.676 45.9401 106.211 45.7149 107.645 45.523H107.128C106.485 45.5457 105.842 45.4783 105.218 45.3228C105.477 45.3979 105.401 45.498 105.018 45.5147L104.684 45.3228C105.07 45.2501 105.46 45.2054 105.852 45.1894C106.205 45.1809 106.556 45.2404 106.886 45.3645L107.362 45.2227C107.604 45.2728 107.595 45.3979 107.645 45.5064H108.138C107.668 45.3148 107.182 45.1668 106.686 45.0642H105.927C104.092 45.0642 102.34 45.0642 100.621 45.0642C100.52 45.1435 100.399 45.1926 100.271 45.206H100.171C100.024 45.1435 99.8699 45.0987 99.7122 45.0726H98.878H98.586C98.4192 45.1226 98.4692 45.1894 98.586 45.2394C98.4371 45.1898 98.2833 45.1562 98.1272 45.1393H97.7602H97.4682C97.2656 45.1544 97.0629 45.111 96.8842 45.0142H98.5109H98.611H98.7445H96.8008H96.4004C96.1876 45.0475 95.9732 45.0698 95.7581 45.0809C95.5558 45.0917 95.3542 45.0485 95.1741 44.9558H94.8238H94.8905H94.757H93.2888C92.9718 45.0392 92.6465 45.1476 92.3212 45.2144L91.9875 45.0225C91.8249 45.1323 91.6395 45.2036 91.4452 45.2311C91.3119 45.2401 91.1781 45.2401 91.0448 45.2311C90.6523 45.2326 90.2626 45.1648 89.8936 45.0309C90.0624 44.9841 90.2359 44.9561 90.4108 44.9474C90.7687 44.9556 91.1209 45.038 91.4452 45.1894C91.6395 45.1619 91.8249 45.0905 91.9875 44.9808L92.3212 45.1727C92.6465 45.1059 92.9718 44.9975 93.2888 44.9141H90.3691C88.7007 44.9141 87.0323 44.9141 85.3639 44.9141" fill="black"/>
</g>
<defs>
<clipPath id="clip0_189_1852">
<rect width="120" height="53.7143" fill="white"/>
</clipPath>
</defs>
</svg>
