<svg xmlns="http://www.w3.org/2000/svg" width="18" height="14" viewBox="0 0 18 14">
  <g id="youtube_1_" data-name="youtube (1)" transform="translate(0 -61)">
    <path id="Path_3066" data-name="Path 3066" d="M201.025,168.774l-4.219-2.692a.518.518,0,0,0-.535-.014.54.54,0,0,0-.272.471v5.385a.54.54,0,0,0,.272.471.518.518,0,0,0,.535-.014l4.219-2.692a.545.545,0,0,0,0-.913Zm-3.971,2.177V167.51l2.7,1.721Z" transform="translate(-189.636 -101.231)" fill="#05acd7 "/>
    <path id="Path_3067" data-name="Path 3067" d="M15.363,61H2.637A2.668,2.668,0,0,0,0,63.692v8.615A2.668,2.668,0,0,0,2.637,75H15.363A2.668,2.668,0,0,0,18,72.308V63.692A2.668,2.668,0,0,0,15.363,61Zm1.582,11.308a1.6,1.6,0,0,1-1.582,1.615H2.637a1.6,1.6,0,0,1-1.582-1.615V63.692a1.6,1.6,0,0,1,1.582-1.615H15.363a1.6,1.6,0,0,1,1.582,1.615Z" transform="translate(0)" fill="#05acd7 "/>
  </g>
</svg>