<svg xmlns="http://www.w3.org/2000/svg" xmlns:xlink="http://www.w3.org/1999/xlink" width="14" height="14" viewBox="0 0 14 14">
  <defs>
    <clipPath id="clip-path">
      <rect id="Rectangle_4895" data-name="Rectangle 4895" width="14" height="14" transform="translate(181 343)" fill="#fff"/>
    </clipPath>
  </defs>
  <g id="Mask_Group_350" data-name="Mask Group 350" transform="translate(-181 -343)" clip-path="url(#clip-path)">
    <g id="github" transform="translate(181 343)">
      <path id="Path_3068" data-name="Path 3068" d="M14,7a7,7,0,0,1-5.921,6.917q-.114.018-.229.031A6.982,6.982,0,0,1,7.1,14H6.9a6.982,6.982,0,0,1-.75-.05q-.115-.014-.229-.031A7,7,0,1,1,14,7Z" fill="#f2f2f2"/>
      <g id="Group_2214" data-name="Group 2214">
        <path id="Path_3069" data-name="Path 3069" d="M14,7a7.039,7.039,0,0,1-.043.78c0,.029-.006.057-.01.086q-.027.218-.067.431-.008.042-.016.084a7.009,7.009,0,0,1-4.647,5.26c-.355.069-.481-.149-.481-.336,0-.231.008-.984.008-1.921a1.674,1.674,0,0,0-.475-1.3,3.136,3.136,0,0,0,2.973-1.954c.01-.028.019-.057.029-.085q.042-.131.075-.273c.007-.028.013-.057.019-.086a5.112,5.112,0,0,0,.1-1.055,2.7,2.7,0,0,0-.721-1.879A2.511,2.511,0,0,0,10.677,2.9s-.587-.188-1.923.718a6.636,6.636,0,0,0-3.506,0C3.91,2.715,3.322,2.9,3.322,2.9a2.516,2.516,0,0,0-.068,1.853,2.71,2.71,0,0,0-.721,1.879,5.091,5.091,0,0,0,.1,1.055c.006.029.012.058.019.086q.033.142.075.273c.009.029.019.057.029.085a3.142,3.142,0,0,0,2.965,1.96,1.491,1.491,0,0,0-.445.936,1.49,1.49,0,0,1-2.037-.582,1.472,1.472,0,0,0-1.073-.721s-.683-.009-.048.425A1.856,1.856,0,0,1,2.9,11.176s.411,1.249,2.358.826c0,.585.009,1.136.009,1.3,0,.185-.128.4-.478.337A7.01,7.01,0,0,1,.136,8.382h0C.131,8.354.125,8.326.12,8.3Q.08,8.084.053,7.866c0-.029-.007-.057-.01-.086A7,7,0,1,1,14,7Z" fill="#05acd7 "/>
        <path id="Path_3070" data-name="Path 3070" d="M2.589,9.945c-.051-.024-.105-.014-.121.022s.012.082.063.105.1.014.12-.021S2.64,9.968,2.589,9.945Z" fill="#05acd7 "/>
        <path id="Path_3071" data-name="Path 3071" d="M2.915,10.221c-.046-.049-.109-.063-.143-.032a.107.107,0,0,0,.02.145c.044.049.11.063.143.033S2.961,10.271,2.915,10.221Z" fill="#05acd7 "/>
        <path id="Path_3072" data-name="Path 3072" d="M3.212,10.6c-.044-.062-.113-.089-.156-.059s-.044.1,0,.167.113.09.157.06S3.255,10.665,3.212,10.6Z" fill="#05acd7 "/>
        <path id="Path_3073" data-name="Path 3073" d="M3.551,10.981c-.06-.057-.143-.069-.181-.027a.135.135,0,0,0,.04.179c.06.058.142.069.18.027S3.611,11.037,3.551,10.981Z" fill="#05acd7 "/>
        <path id="Path_3074" data-name="Path 3074" d="M4,11.242c-.08-.025-.159,0-.175.056s.036.12.115.144.158,0,.175-.057S4.075,11.266,4,11.242Z" fill="#05acd7 "/>
        <path id="Path_3075" data-name="Path 3075" d="M4.532,11.325c-.084,0-.149.049-.149.107s.069.1.152.1.151-.049.149-.107S4.615,11.324,4.532,11.325Z" fill="#05acd7 "/>
        <path id="Path_3076" data-name="Path 3076" d="M5.217,11.337c-.011-.057-.085-.091-.167-.077s-.14.073-.13.131.085.091.167.076S5.226,11.393,5.217,11.337Z" fill="#05acd7 "/>
      </g>
    </g>
  </g>
</svg>
