<svg xmlns="http://www.w3.org/2000/svg" xmlns:xlink="http://www.w3.org/1999/xlink" width="14" height="14" viewBox="0 0 14 14">
  <defs>
    <clipPath id="clip-path">
      <rect id="Rectangle_4897" data-name="Rectangle 4897" width="14" height="14" transform="translate(455 343)" fill="#202224"/>
    </clipPath>
  </defs>
  <g id="Mask_Group_352" data-name="Mask Group 352" transform="translate(-455 -343)" clip-path="url(#clip-path)">
    <path id="box-minimalistic-svgrepo-com" d="M7.814.814a2.954,2.954,0,0,0-1.153.262c-.383.159-.829.392-1.383.683l-1.346.706c-.68.357-1.225.643-1.645.924A3.114,3.114,0,0,0,1.27,4.4,3.28,3.28,0,0,0,.865,5.8C.814,6.313.814,6.95.814,7.751v.127c0,.8,0,1.437.051,1.955a3.28,3.28,0,0,0,.406,1.394,3.114,3.114,0,0,0,1.015,1.012c.42.281.965.567,1.645.924l1.346.707c.554.291,1,.525,1.383.683a2.954,2.954,0,0,0,1.153.262,2.954,2.954,0,0,0,1.153-.262c.383-.159.829-.392,1.383-.683l1.346-.707c.68-.357,1.225-.643,1.645-.924a3.113,3.113,0,0,0,1.015-1.012,3.281,3.281,0,0,0,.406-1.394c.051-.518.051-1.154.051-1.955V7.75c0-.8,0-1.437-.051-1.955A3.281,3.281,0,0,0,14.357,4.4a3.114,3.114,0,0,0-1.015-1.012c-.42-.281-.965-.567-1.645-.924L10.35,1.759c-.554-.291-1-.525-1.383-.683A2.954,2.954,0,0,0,7.814.814Zm-2.1,1.821c.579-.3.985-.517,1.323-.656a2,2,0,0,1,.78-.188,2,2,0,0,1,.78.188c.337.14.743.352,1.323.656l1.3.683c.71.372,1.208.635,1.581.883a3.028,3.028,0,0,1,.445.351L7.814,7.268,2.384,4.553A3.025,3.025,0,0,1,2.828,4.2c.372-.249.871-.511,1.581-.883Zm-3.8,2.775a3.669,3.669,0,0,0-.076.482c-.046.464-.046,1.053-.046,1.884v.076c0,.832,0,1.42.046,1.884a2.324,2.324,0,0,0,.275.995,2.155,2.155,0,0,0,.716.7c.372.249.871.511,1.581.883l1.3.683c.579.3.985.517,1.323.656.107.044.2.079.292.107V8.116ZM8.3,13.756c.089-.028.185-.063.292-.107.337-.139.743-.352,1.323-.656l1.3-.683c.71-.372,1.208-.635,1.581-.883a2.155,2.155,0,0,0,.716-.7,2.323,2.323,0,0,0,.275-.995c.046-.464.046-1.053.046-1.884V7.776c0-.832,0-1.42-.046-1.884a3.664,3.664,0,0,0-.076-.482L8.3,8.116Z" transform="translate(454.186 342.186)" fill="#202224" fill-rule="evenodd"/>
  </g>
</svg>
