<svg xmlns="http://www.w3.org/2000/svg" xmlns:xlink="http://www.w3.org/1999/xlink" width="14" height="14" viewBox="0 0 14 14">
  <defs>
    <clipPath id="clip-path">
      <rect id="Rectangle_4896" data-name="Rectangle 4896" width="14" height="14" transform="translate(300 343)" fill="#202224"/>
    </clipPath>
  </defs>
  <g id="Mask_Group_351" data-name="Mask Group 351" transform="translate(-300 -343)" clip-path="url(#clip-path)">
    <path id="document-text-svgrepo-com" d="M7.126.814H8.5a23.784,23.784,0,0,1,2.886.1,3.068,3.068,0,0,1,1.869.806,3.068,3.068,0,0,1,.806,1.869,23.8,23.8,0,0,1,.1,2.886V9.153a23.8,23.8,0,0,1-.1,2.886,3.068,3.068,0,0,1-.806,1.869,3.068,3.068,0,0,1-1.869.806,23.8,23.8,0,0,1-2.886.1H7.126a23.8,23.8,0,0,1-2.886-.1,3.068,3.068,0,0,1-1.869-.806,3.068,3.068,0,0,1-.806-1.869,23.784,23.784,0,0,1-.1-2.886V6.475a23.785,23.785,0,0,1,.1-2.886A3.067,3.067,0,0,1,2.371,1.72,3.067,3.067,0,0,1,4.24.914,23.785,23.785,0,0,1,7.126.814ZM4.37,1.882a2.114,2.114,0,0,0-1.308.529,2.114,2.114,0,0,0-.529,1.308,23.437,23.437,0,0,0-.091,2.793v2.6a23.438,23.438,0,0,0,.091,2.793,2.114,2.114,0,0,0,.529,1.308,2.114,2.114,0,0,0,1.308.529,23.432,23.432,0,0,0,2.793.091h1.3a23.433,23.433,0,0,0,2.793-.091,2.114,2.114,0,0,0,1.308-.529,2.114,2.114,0,0,0,.529-1.308,23.433,23.433,0,0,0,.091-2.793v-2.6A23.432,23.432,0,0,0,13.1,3.719a2.114,2.114,0,0,0-.529-1.308,2.114,2.114,0,0,0-1.308-.529,23.438,23.438,0,0,0-2.793-.091h-1.3A23.437,23.437,0,0,0,4.37,1.882Zm.351,3.328a.488.488,0,0,1,.488-.488h5.209a.488.488,0,0,1,0,.977H5.209A.488.488,0,0,1,4.721,5.209Zm0,2.6a.488.488,0,0,1,.488-.488h5.209a.488.488,0,0,1,0,.977H5.209A.488.488,0,0,1,4.721,7.814Zm0,2.6a.488.488,0,0,1,.488-.488H8.465a.488.488,0,1,1,0,.977H5.209A.488.488,0,0,1,4.721,10.419Z" transform="translate(299.186 342.186)" fill="#202224" fill-rule="evenodd"/>
  </g>
</svg>
