<svg width="32" height="32" viewBox="0 0 32 32" fill="none" xmlns="http://www.w3.org/2000/svg">
<path d="M9.96898 6.6389L10.2808 8.45698C10.3916 9.10327 9.71285 9.59583 9.13277 9.28994L7.50218 8.4301C7.27156 8.30851 6.9958 8.30838 6.76512 8.42985L5.12815 9.29163C4.54813 9.59695 3.86984 9.10445 3.98061 8.45836L4.29269 6.63884C4.3367 6.38234 4.25168 6.12065 4.06532 5.93904L2.73999 4.64722C2.27063 4.18967 2.52982 3.39253 3.17854 3.29863L5.00743 3.03382C5.26493 2.9965 5.48768 2.83489 5.60296 2.60159L6.42379 0.94036C6.71411 0.352776 7.55232 0.353339 7.84189 0.941297L8.65903 2.60071C8.77418 2.83452 8.99711 2.99656 9.25499 3.03388L11.0832 3.29863C11.7319 3.39259 11.9911 4.18973 11.5217 4.64722L10.1964 5.9391C10.0101 6.12071 9.92497 6.3824 9.96898 6.6389Z" fill="#FFCD7E"/>
<path d="M9.96898 17.6937L10.2808 19.5117C10.3916 20.158 9.71285 20.6506 9.13277 20.3447L7.50218 19.4848C7.27156 19.3633 6.9958 19.3631 6.76512 19.4846L5.12815 20.3464C4.54813 20.6517 3.86984 20.1592 3.98061 19.5131L4.29269 17.6936C4.3367 17.4371 4.25168 17.1754 4.06532 16.9938L2.73999 15.7019C2.27063 15.2444 2.52982 14.4472 3.17854 14.3533L5.00743 14.0885C5.26493 14.0512 5.48768 13.8896 5.60296 13.6563L6.42379 11.995C6.71411 11.4075 7.55232 11.408 7.84189 11.996L8.65903 13.6554C8.77418 13.8892 8.99711 14.0512 9.25499 14.0886L11.0832 14.3533C11.7319 14.4473 11.9911 15.2444 11.5217 15.7019L10.1964 16.9938C10.0101 17.1755 9.92497 17.4372 9.96898 17.6937Z" fill="#FF787D"/>
<path d="M9.96898 28.7561L10.2808 30.5742C10.3916 31.2205 9.71285 31.713 9.13277 31.4071L7.50218 30.5473C7.27156 30.4257 6.9958 30.4256 6.76512 30.547L5.12815 31.4089C4.54813 31.7142 3.86984 31.2217 3.98061 30.5756L4.29269 28.7561C4.3367 28.4996 4.25168 28.2379 4.06532 28.0563L2.73999 26.7644C2.27063 26.3069 2.52982 25.5097 3.17854 25.4158L5.00743 25.151C5.26493 25.1137 5.48768 24.9521 5.60296 24.7188L6.42379 23.0575C6.71411 22.47 7.55232 22.4705 7.84189 23.0585L8.65903 24.7179C8.77418 24.9517 8.99711 25.1137 9.25499 25.1511L11.0832 25.4158C11.7319 25.5098 11.9911 26.3069 11.5217 26.7644L10.1964 28.0563C10.0101 28.238 9.92497 28.4997 9.96898 28.7561Z" fill="#43C3FF"/>
<path d="M11.1547 2.80407L9.3271 2.53944C9.23214 2.52525 9.14987 2.46573 9.10736 2.37977L8.29022 0.72061C7.81772 -0.239254 6.44938 -0.240505 5.97564 0.718672L5.15462 2.38021C5.11217 2.46567 5.03059 2.52525 4.93563 2.53887L3.10705 2.804C2.0486 2.95692 1.62493 4.25905 2.391 5.00511L3.71614 6.29706C3.78472 6.36395 3.81623 6.46016 3.8001 6.55437L3.48758 8.37364C3.30635 9.4324 4.41956 10.2306 5.36105 9.73398L6.99821 8.8722C7.08316 8.82775 7.184 8.82725 7.26896 8.8722L8.8993 9.73204C9.84929 10.2317 10.9541 9.42484 10.7735 8.3722L10.4615 6.55437C10.4454 6.46016 10.4766 6.36395 10.5455 6.29706L11.8704 5.00511C12.637 4.25924 12.2131 2.95698 11.1547 2.80407ZM11.1725 4.28937L9.8476 5.58082C9.54315 5.87771 9.40424 6.30444 9.47601 6.72335H9.47626L9.78803 8.54118C9.82922 8.77974 9.57922 8.95991 9.36592 8.84732L7.73558 7.98748C7.35861 7.78924 6.90868 7.78924 6.53222 7.98748L4.89531 8.84926C4.68032 8.96166 4.43288 8.77943 4.4732 8.54262L4.78572 6.72335C4.85724 6.30494 4.71858 5.87764 4.41438 5.58132L3.08898 4.28937C2.91625 4.12027 3.01115 3.82795 3.25034 3.79331L5.07867 3.52868C5.49933 3.46767 5.8628 3.20398 6.05103 2.82313L6.87205 1.16153C6.97883 0.945853 7.28634 0.946041 7.3933 1.16203L8.21045 2.82163C8.39843 3.20298 8.76196 3.46761 9.18356 3.52862L11.0116 3.79325C11.2512 3.82807 11.3449 4.12096 11.1725 4.28937Z" fill="black"/>
<path d="M7.87741 4.1621L6.64941 5.39009L6.38429 5.12496C6.18899 4.92967 5.8726 4.92967 5.6773 5.12496C5.482 5.32026 5.482 5.63665 5.6773 5.83195L6.29595 6.45061C6.49125 6.6459 6.80764 6.6459 7.00294 6.45061L8.58446 4.86909C8.77976 4.67379 8.77976 4.3574 8.58446 4.1621C8.3891 3.9668 8.07271 3.9668 7.87741 4.1621Z" fill="black"/>
<path d="M14.7366 2.16406H30.362C30.6381 2.16406 30.862 1.94044 30.862 1.66406C30.862 1.38768 30.6381 1.16406 30.362 1.16406H14.7366C14.4605 1.16406 14.2366 1.38768 14.2366 1.66406C14.2366 1.94044 14.4605 2.16406 14.7366 2.16406Z" fill="black"/>
<path d="M30.3619 4.44531H14.7366C14.4605 4.44531 14.2366 4.66893 14.2366 4.94531C14.2366 5.22169 14.4605 5.44531 14.7366 5.44531H30.362C30.6381 5.44531 30.862 5.22169 30.862 4.94531C30.8619 4.66893 30.638 4.44531 30.3619 4.44531Z" fill="black"/>
<path d="M14.7366 8.71875H25.8535C26.1297 8.71875 26.3535 8.49513 26.3535 8.21875C26.3535 7.94237 26.1297 7.71875 25.8535 7.71875H14.7366C14.4605 7.71875 14.2366 7.94237 14.2366 8.21875C14.2366 8.49513 14.4605 8.71875 14.7366 8.71875Z" fill="black"/>
<path d="M11.1547 13.8588L9.3271 13.5941C9.23214 13.5799 9.14987 13.5204 9.10736 13.4345L8.29022 11.7753C7.81804 10.8152 6.44926 10.8144 5.97558 11.7734L5.15456 13.435C5.11212 13.5204 5.03053 13.58 4.93557 13.5936L3.10699 13.8588C2.0486 14.0117 1.62493 15.3138 2.391 16.0599L3.71614 17.3518C3.78472 17.4187 3.81623 17.5149 3.8001 17.6091L3.48759 19.4284C3.30604 20.4888 4.42119 21.2845 5.36105 20.7887L6.99821 19.927C7.08317 19.8825 7.18401 19.882 7.26896 19.927L8.89931 20.7868C9.84929 21.2864 10.9541 20.4796 10.7735 19.427L10.4615 17.6091C10.4454 17.5149 10.4766 17.4187 10.5455 17.3518L11.8705 16.0599C12.637 15.3139 12.2131 14.0117 11.1547 13.8588ZM11.1725 15.3441L9.84761 16.6355C9.54316 16.9324 9.40425 17.3591 9.47601 17.778H9.47626L9.78803 19.5959C9.82904 19.8334 9.5806 20.0147 9.36592 19.902L7.73558 19.0422C7.35861 18.8439 6.90869 18.8439 6.53222 19.0422L4.89531 19.9039C4.68107 20.016 4.43276 19.8357 4.47321 19.5973L4.78572 17.778C4.85724 17.3596 4.71858 16.9323 4.41438 16.636L3.08899 15.3441C2.91626 15.175 3.01115 14.8826 3.25034 14.848L5.07867 14.5834C5.49934 14.5224 5.8628 14.2587 6.05104 13.8778L6.87205 12.2167C6.97852 12.0009 7.28647 12.0002 7.39331 12.2167L8.21045 13.8763C8.39843 14.2577 8.76196 14.5223 9.18357 14.5833L11.0116 14.8479C11.2512 14.8828 11.3449 15.1756 11.1725 15.3441Z" fill="black"/>
<path d="M7.87744 15.2246L6.64969 16.4526L6.38457 16.187C6.18927 15.9917 5.87263 15.9917 5.67733 16.187C5.48203 16.3818 5.48203 16.6987 5.67708 16.894L6.29573 17.5131C6.49028 17.7077 6.80698 17.7091 7.00297 17.5131L8.58449 15.9316C8.77979 15.7363 8.77979 15.4199 8.58449 15.2246C8.38913 15.0293 8.07274 15.0293 7.87744 15.2246Z" fill="black"/>
<path d="M30.3619 12.2266H14.7366C14.4605 12.2266 14.2366 12.4502 14.2366 12.7266C14.2366 13.0029 14.4605 13.2266 14.7366 13.2266H30.362C30.6381 13.2266 30.862 13.0029 30.862 12.7266C30.862 12.4502 30.638 12.2266 30.3619 12.2266Z" fill="black"/>
<path d="M30.3619 15.5H14.7366C14.4605 15.5 14.2366 15.7236 14.2366 16C14.2366 16.2764 14.4605 16.5 14.7366 16.5H30.362C30.6381 16.5 30.862 16.2764 30.862 16C30.862 15.7236 30.638 15.5 30.3619 15.5Z" fill="black"/>
<path d="M14.7366 19.7734H25.8535C26.1297 19.7734 26.3535 19.5498 26.3535 19.2734C26.3535 18.9971 26.1297 18.7734 25.8535 18.7734H14.7366C14.4605 18.7734 14.2366 18.9971 14.2366 19.2734C14.2366 19.5498 14.4605 19.7734 14.7366 19.7734Z" fill="black"/>
<path d="M11.1547 24.9212L9.3271 24.6566C9.23189 24.6424 9.14987 24.5829 9.10736 24.4974L8.29022 22.8378C7.81804 21.8777 6.44926 21.8769 5.97558 22.8359L5.15456 24.4975C5.11211 24.5829 5.03003 24.6425 4.93582 24.6566L3.10699 24.9213C2.04854 25.0742 1.62487 26.3763 2.39094 27.1224L3.71608 28.4143C3.78466 28.4812 3.81617 28.5774 3.80004 28.6716L3.48752 30.4909C3.30629 31.5497 4.419 32.3482 5.36099 31.8512L6.99815 30.9894C7.08235 30.9445 7.18369 30.945 7.2689 30.9899L8.89949 31.8498C9.84504 32.3489 10.9543 31.5447 10.7737 30.49L10.4617 28.6716H10.4614C10.4453 28.5774 10.4766 28.4812 10.5454 28.4143L11.8703 27.1224C12.637 26.3764 12.2131 25.0741 11.1547 24.9212ZM11.1725 26.4065L9.8476 27.6979C9.54315 27.9948 9.40424 28.4216 9.47601 28.8405L9.78828 30.6588C9.82904 30.8982 9.57722 31.0771 9.36592 30.9649L7.73558 30.1051C7.35842 29.9059 6.90844 29.9064 6.53222 30.1046L4.89531 30.9664C4.68269 31.0775 4.43251 30.8996 4.4732 30.6597L4.78572 28.8405C4.85724 28.4221 4.71858 27.9948 4.41438 27.6984L3.08899 26.4065C2.91657 26.2377 3.01097 25.9451 3.25009 25.9104L5.07961 25.6458C5.50002 25.5848 5.86305 25.3206 6.05103 24.9403L6.87205 23.2792C6.97852 23.0634 7.28647 23.0627 7.39331 23.2792L8.2107 24.9393C8.39868 25.3206 8.76221 25.5847 9.18356 25.6458L11.0116 25.9104C11.2512 25.9452 11.3449 26.2381 11.1725 26.4065Z" fill="black"/>
<path d="M7.87744 26.2793L6.64969 27.5073L6.38457 27.2417C6.18927 27.0464 5.87263 27.0464 5.67733 27.2417C5.48203 27.4365 5.48203 27.7533 5.67708 27.9486L6.29573 28.5678C6.49028 28.7623 6.80698 28.7638 7.00297 28.5678L8.58449 26.9863C8.77979 26.791 8.77979 26.4746 8.58449 26.2793C8.38913 26.084 8.07274 26.084 7.87744 26.2793Z" fill="black"/>
<path d="M30.3619 23.2812H14.7366C14.4605 23.2812 14.2366 23.5049 14.2366 23.7813C14.2366 24.0576 14.4605 24.2812 14.7366 24.2812H30.362C30.6381 24.2812 30.862 24.0576 30.862 23.7813C30.862 23.5049 30.638 23.2812 30.3619 23.2812Z" fill="black"/>
<path d="M30.3619 26.5547H14.7366C14.4605 26.5547 14.2366 26.7783 14.2366 27.0547C14.2366 27.3311 14.4605 27.5547 14.7366 27.5547H30.362C30.6381 27.5547 30.862 27.3311 30.862 27.0547C30.862 26.7783 30.638 26.5547 30.3619 26.5547Z" fill="black"/>
<path d="M25.8535 29.8359H14.7366C14.4605 29.8359 14.2366 30.0596 14.2366 30.3359C14.2366 30.6123 14.4605 30.8359 14.7366 30.8359H25.8535C26.1297 30.8359 26.3535 30.6123 26.3535 30.3359C26.3535 30.0596 26.1296 29.8359 25.8535 29.8359Z" fill="black"/>
</svg>
