<svg width="32" height="32" viewBox="0 0 32 32" fill="none" xmlns="http://www.w3.org/2000/svg">
<path d="M25.5192 8.48469C26.626 8.48469 27.5233 7.58744 27.5233 6.48063C27.5233 5.37381 26.626 4.47656 25.5192 4.47656C24.4124 4.47656 23.5151 5.37381 23.5151 6.48063C23.5151 7.58744 24.4124 8.48469 25.5192 8.48469Z" fill="#FFDB4E"/>
<path d="M16 20.5103C18.4903 20.5103 20.5091 18.4915 20.5091 16.0013C20.5091 13.511 18.4903 11.4922 16 11.4922C13.5097 11.4922 11.491 13.511 11.491 16.0013C11.491 18.4915 13.5097 20.5103 16 20.5103Z" fill="#B1D7FE"/>
<path d="M17.2526 19.2586C14.7623 19.2586 12.7435 17.2398 12.7435 14.7496C12.7435 13.8247 13.0229 12.9656 13.5005 12.25C12.2894 13.0584 11.491 14.4366 11.491 16.0021C11.491 18.4923 13.5097 20.5111 16 20.5111C17.5655 20.5111 18.9437 19.7128 19.7521 18.5016C19.0367 18.9792 18.1775 19.2586 17.2526 19.2586Z" fill="#8BC6F8"/>
<path d="M3.97581 7.48287C5.91271 7.48287 7.48287 5.91271 7.48287 3.97581C7.48287 2.03892 5.91271 0.46875 3.97581 0.46875C2.03892 0.46875 0.46875 2.03892 0.46875 3.97581C0.46875 5.91271 2.03892 7.48287 3.97581 7.48287Z" fill="#FFDB4E"/>
<path d="M4.95 6.50581C3.01312 6.50581 1.44294 4.93563 1.44294 2.99875C1.44294 2.27944 1.66025 1.61119 2.03175 1.05469C1.08975 1.68344 0.46875 2.75538 0.46875 3.97294C0.46875 5.90981 2.03887 7.48 3.97581 7.48C5.19337 7.48 6.26531 6.859 6.89406 5.917C6.33756 6.2885 5.66931 6.50581 4.95 6.50581Z" fill="#FFAF5D"/>
<path d="M28.5251 25.0199C30.1853 25.0199 31.5312 23.6741 31.5312 22.0139C31.5312 20.3537 30.1853 19.0078 28.5251 19.0078C26.8649 19.0078 25.519 20.3537 25.519 22.0139C25.519 23.6741 26.8649 25.0199 28.5251 25.0199Z" fill="#FF8389"/>
<path d="M29.3601 24.1803C27.6999 24.1803 26.354 22.8344 26.354 21.1742C26.354 20.5576 26.5403 19.9848 26.8587 19.5078C26.0513 20.0468 25.519 20.9656 25.519 22.0092C25.519 23.6694 26.8649 25.0153 28.5251 25.0153C29.5687 25.0153 30.4875 24.483 31.0265 23.6756C30.5495 23.994 29.9767 24.1803 29.3601 24.1803Z" fill="#FF6677"/>
<path d="M26.2707 7.7305C25.1639 7.7305 24.2666 6.83325 24.2666 5.72644C24.2666 5.36675 24.3691 5.03406 24.5349 4.74219C23.9288 5.08681 23.5151 5.73075 23.5151 6.47794C23.5151 7.58469 24.4124 8.482 25.5192 8.482C26.2663 8.482 26.9104 8.06838 27.2549 7.46219C26.9631 7.62806 26.6303 7.7305 26.2707 7.7305Z" fill="#FFD064"/>
<path d="M1.97175 31.5294C2.80183 31.5294 3.47475 30.8565 3.47475 30.0264C3.47475 29.1964 2.80183 28.5234 1.97175 28.5234C1.14167 28.5234 0.46875 29.1964 0.46875 30.0264C0.46875 30.8565 1.14167 31.5294 1.97175 31.5294Z" fill="#FFDB4E"/>
<path d="M15.9999 29.5238C17.1067 29.5238 18.004 28.6265 18.004 27.5197C18.004 26.4129 17.1067 25.5156 15.9999 25.5156C14.8931 25.5156 13.9958 26.4129 13.9958 27.5197C13.9958 28.6265 14.8931 29.5238 15.9999 29.5238Z" fill="#ECEAEC"/>
<path d="M16.7514 28.7773C15.6446 28.7773 14.7473 27.8801 14.7473 26.7733C14.7473 26.4136 14.8498 26.0809 15.0157 25.7891C14.4095 26.1337 13.9958 26.7776 13.9958 27.5248C13.9958 28.6316 14.8931 29.5289 15.9999 29.5289C16.747 29.5289 17.3911 29.1152 17.7357 28.5091C17.4438 28.6749 17.1111 28.7773 16.7514 28.7773Z" fill="#DAD8DB"/>
<path d="M31.8528 21.0085C31.7781 20.7606 31.5165 20.6201 31.2687 20.6949C31.0208 20.7696 30.8804 21.031 30.9551 21.2789C31.0263 21.5155 31.0624 21.7621 31.0624 22.0121C31.0624 23.4111 29.9243 24.5494 28.5251 24.5494C27.126 24.5494 25.9878 23.4111 25.9878 22.0121C25.9878 20.613 27.126 19.4748 28.5251 19.4748C29.0012 19.4748 29.4651 19.6073 29.8665 19.8578C30.0861 19.9949 30.3753 19.9281 30.5123 19.7084C30.6494 19.4888 30.5826 19.1997 30.3629 19.0626C29.8124 18.7189 29.1769 18.5373 28.5251 18.5373C27.315 18.5373 26.2479 19.1594 25.6255 20.1003L20.6704 17.7219C20.8689 17.185 20.9777 16.605 20.9777 16C20.9777 14.7961 20.5479 13.6907 19.8339 12.8289L20.9463 11.7165C21.1049 11.9001 21.2549 12.0931 21.3921 12.293C21.4756 12.4147 21.6064 12.4846 21.7431 12.4951C21.8459 12.5029 21.9521 12.477 22.0439 12.4141C22.2572 12.2676 22.3115 11.9757 22.165 11.7623C21.9953 11.5153 21.8087 11.2771 21.6107 11.0521L24.1343 8.5285C24.5297 8.79675 25.0064 8.95362 25.5191 8.95362C26.8826 8.95362 27.9918 7.84431 27.9918 6.48081C27.9918 5.11731 26.8825 4.00806 25.5191 4.00806C24.1556 4.00806 23.0462 5.11738 23.0462 6.48081C23.0462 6.9935 23.2032 7.47025 23.4714 7.86556L19.171 12.1659C18.3092 11.4519 17.2039 11.0221 15.9999 11.0221C14.7959 11.0221 13.6906 11.4519 12.8287 12.1659L11.7139 11.0512C11.7381 11.0303 11.7619 11.0089 11.7864 10.9883C11.9847 10.8219 12.0106 10.5262 11.8442 10.3279C11.6778 10.1296 11.3821 10.1038 11.1838 10.2701C11.1384 10.3082 11.094 10.3475 11.0494 10.3867L7.09681 6.43406C7.63125 5.757 7.95144 4.90331 7.95144 3.97575C7.95144 3.68337 7.9195 3.39156 7.85644 3.10844C7.80019 2.85575 7.54994 2.69656 7.29706 2.75275C7.04437 2.809 6.88512 3.05944 6.94137 3.31212C6.98956 3.5285 7.01394 3.75181 7.01394 3.97575C7.01394 5.65106 5.65094 7.01406 3.97563 7.01406C2.30031 7.01406 0.9375 5.65112 0.9375 3.97581C0.9375 2.3005 2.3005 0.9375 3.97581 0.9375C4.71312 0.9375 5.42412 1.20481 5.97775 1.69025C6.17237 1.86088 6.46856 1.84144 6.63925 1.64681C6.80987 1.45213 6.79044 1.156 6.59581 0.985313C5.87106 0.349937 4.94062 0 3.97581 0C1.78356 0 0 1.78356 0 3.97581C0 6.16806 1.78356 7.95162 3.97581 7.95162C4.90337 7.95162 5.75706 7.63144 6.43412 7.097L10.398 11.0609C10.3079 11.2431 10.3442 11.4699 10.5016 11.6141C10.582 11.6876 10.6812 11.7279 10.7821 11.7357C10.8652 11.7421 10.9494 11.7258 11.0254 11.6883L12.166 12.8289C11.452 13.6908 11.0222 14.7961 11.0222 16.0001C11.0222 17.2041 11.452 18.3094 12.166 19.1712L2.99425 28.3428C2.69594 28.1612 2.34588 28.0564 1.97175 28.0564C0.8845 28.0564 0 28.941 0 30.0282C0 31.1155 0.8845 32 1.97175 32C3.059 32 3.9435 31.1155 3.9435 30.0282C3.9435 29.6542 3.83875 29.3041 3.65712 29.0058L11.0494 21.6135C11.1973 21.7441 11.3498 21.8697 11.5068 21.9874C11.5808 22.0431 11.666 22.0734 11.752 22.08C11.9063 22.0918 12.0632 22.027 12.1631 21.894C12.3185 21.6869 12.2767 21.3931 12.0696 21.2377C11.9479 21.1463 11.8291 21.0498 11.7134 20.9495L12.8289 19.8339C13.5775 20.4542 14.5101 20.8591 15.5312 20.955V25.0955C14.3913 25.3153 13.5273 26.3199 13.5273 27.5231C13.5273 28.8866 14.6366 29.9959 16 29.9959C17.3634 29.9959 18.4727 28.8866 18.4727 27.5231C18.4727 26.3199 17.6087 25.3152 16.4687 25.0955V23.4692C16.7849 23.4493 17.1026 23.4093 17.4137 23.3492C17.6679 23.3001 17.8342 23.0542 17.7851 22.8C17.7359 22.5459 17.4901 22.3796 17.2359 22.4287C16.9832 22.4775 16.7256 22.5107 16.4687 22.5291V20.955C18.0782 20.8039 19.4674 19.8839 20.2635 18.5664L21.6793 19.2459C21.5376 19.5282 21.2669 19.8954 21.0946 20.1087C20.932 20.3101 20.9634 20.6053 21.1649 20.7679C21.2416 20.8299 21.3318 20.8636 21.4232 20.8706C21.5718 20.882 21.7234 20.8224 21.8241 20.6978C22.0128 20.464 22.3441 19.9943 22.5185 19.6488L25.2188 20.9449C25.1099 21.2813 25.0505 21.6398 25.0505 22.012C25.0505 23.928 26.6092 25.4868 28.5253 25.4868C30.4414 25.4868 32 23.9281 32 22.0121C32 21.6705 31.9505 21.3329 31.8528 21.0085ZM25.5192 4.94556C26.3658 4.94556 27.0544 5.63431 27.0544 6.48081C27.0544 7.32731 26.3657 8.01612 25.5192 8.01612C24.6727 8.01612 23.9839 7.32738 23.9839 6.48081C23.9839 5.63425 24.6726 4.94556 25.5192 4.94556ZM1.97175 31.0625C1.40144 31.0625 0.9375 30.5986 0.9375 30.0282C0.9375 29.4579 1.40144 28.994 1.97175 28.994C2.54206 28.994 3.006 29.4579 3.006 30.0282C3.006 30.5986 2.54206 31.0625 1.97175 31.0625ZM17.5352 27.5232C17.5352 28.3698 16.8465 29.0584 16 29.0584C15.1535 29.0584 14.4648 28.3697 14.4648 27.5232C14.4648 26.6767 15.1535 25.9879 16 25.9879C16.8465 25.9879 17.5352 26.6766 17.5352 27.5232ZM16 20.0403C13.7721 20.0403 11.9597 18.2278 11.9597 16C11.9597 13.7722 13.7722 11.9597 16 11.9597C18.2278 11.9597 20.0403 13.7722 20.0403 16C20.0403 18.2278 18.2279 20.0403 16 20.0403Z" fill="black"/>
<path d="M19.7325 21.3728C19.4969 21.5364 19.2482 21.686 18.9931 21.8174C18.763 21.936 18.6726 22.2187 18.7912 22.4488C18.8685 22.5989 19.0157 22.6895 19.1726 22.7015C19.2562 22.708 19.3426 22.692 19.4226 22.6507C19.714 22.5006 19.9981 22.3297 20.2672 22.1428C20.4798 21.9952 20.5325 21.7031 20.3848 21.4905C20.2372 21.2778 19.9451 21.2252 19.7325 21.3728Z" fill="black"/>
<path d="M18.6683 10.022C18.9304 10.1387 19.1869 10.2741 19.4307 10.4241C19.4964 10.4645 19.5682 10.4868 19.6402 10.4923C19.8097 10.5053 19.9804 10.4253 20.0756 10.2706C20.2113 10.0501 20.1426 9.76143 19.9221 9.62574C19.6431 9.45399 19.3496 9.29918 19.0497 9.16562C18.8132 9.06043 18.5362 9.16655 18.4308 9.40305C18.3255 9.63949 18.4318 9.91668 18.6683 10.022Z" fill="black"/>
<path d="M15.984 9.45182C15.9953 9.45269 16.0068 9.45313 16.0183 9.45319C16.3044 9.45438 16.5935 9.47475 16.8785 9.51375C17.1356 9.54838 17.3714 9.36944 17.4066 9.11294C17.4417 8.85644 17.2623 8.62007 17.0058 8.58488C16.6801 8.54032 16.3494 8.51707 16.0222 8.51563C15.7633 8.5145 15.5526 8.7235 15.5515 8.98238C15.5505 9.22988 15.7412 9.43325 15.984 9.45182Z" fill="black"/>
<path d="M14.3161 23.293C14.3396 23.2984 14.3631 23.302 14.3865 23.3037C14.6136 23.3211 14.8255 23.1705 14.8783 22.9418C14.9366 22.6895 14.7794 22.4378 14.5271 22.3795L14.4937 22.3717C14.2246 22.3082 13.9577 22.2273 13.7004 22.1313C13.4578 22.0408 13.1878 22.164 13.0973 22.4066C13.0068 22.6491 13.1301 22.9191 13.3726 23.0096C13.6665 23.1193 13.9712 23.2116 14.2782 23.2841L14.3161 23.293Z" fill="black"/>
<path d="M13.1424 10.0412C13.2167 10.0469 13.2935 10.0349 13.3665 10.0028C13.6295 9.88712 13.9022 9.788 14.1774 9.70806C14.426 9.63587 14.569 9.37581 14.4967 9.12719C14.4245 8.8785 14.1644 8.73556 13.9159 8.80781C13.6014 8.89919 13.2895 9.0125 12.9891 9.14469C12.7521 9.24894 12.6445 9.52556 12.7488 9.7625C12.8209 9.92644 12.9755 10.0285 13.1424 10.0412Z" fill="black"/>
<path d="M9.90225 12.4929C9.66963 12.3794 9.38894 12.4758 9.27531 12.7084C9.13169 13.0025 9.00613 13.3095 8.90219 13.6211C8.82019 13.8666 8.95281 14.1321 9.19838 14.2141C9.23581 14.2266 9.27375 14.2342 9.31138 14.2371C9.52063 14.2531 9.72194 14.1261 9.79144 13.9179C9.88238 13.6454 9.99219 13.3769 10.1178 13.1199C10.2313 12.8873 10.1349 12.6066 9.90225 12.4929Z" fill="black"/>
<path d="M9.3062 18.1585C9.0657 18.2544 8.94858 18.5271 9.04445 18.7676C9.16583 19.072 9.3087 19.3713 9.46895 19.6573C9.54864 19.7995 9.69133 19.884 9.84252 19.8956C9.93152 19.9024 10.0234 19.8839 10.107 19.837C10.3328 19.7105 10.4133 19.4248 10.2867 19.199C10.1464 18.9486 10.0214 18.6867 9.91514 18.4203C9.81933 18.1798 9.5467 18.0625 9.3062 18.1585Z" fill="black"/>
<path d="M22.8577 15.1754C22.8978 15.1785 22.939 15.1764 22.9803 15.1687C23.2347 15.1208 23.4022 14.8759 23.3545 14.6215C23.294 14.2994 23.2113 13.978 23.1087 13.6662C23.0278 13.4202 22.7628 13.2865 22.517 13.3673C22.271 13.4482 22.1373 13.7132 22.2182 13.9591C22.308 14.2318 22.3802 14.5128 22.4331 14.7944C22.4731 15.0075 22.6514 15.1597 22.8577 15.1754Z" fill="black"/>
<path d="M22.6514 18.2719C22.6801 18.2796 22.7088 18.2844 22.7373 18.2866C22.9579 18.3034 23.1661 18.1616 23.2254 17.9403C23.2446 17.8682 23.263 17.7956 23.2802 17.7226C23.3557 17.4028 23.4108 17.0758 23.4438 16.7508C23.47 16.4933 23.2824 16.2633 23.0248 16.2371C22.7667 16.2094 22.5373 16.3984 22.5111 16.656C22.4821 16.9406 22.434 17.2269 22.3678 17.5073C22.3527 17.5713 22.3366 17.6348 22.3198 17.6979C22.2528 17.948 22.4013 18.205 22.6514 18.2719Z" fill="black"/>
<path d="M8.51891 15.7159C8.50598 16.0439 8.51498 16.3759 8.5456 16.7026C8.56716 16.9332 8.75248 17.1091 8.97598 17.1262C9.00216 17.1282 9.02891 17.1281 9.05604 17.1256C9.31379 17.1014 9.50316 16.8729 9.47904 16.6151C9.45229 16.3296 9.44448 16.0395 9.45579 15.7528C9.46591 15.4941 9.26466 15.2746 9.00585 15.266C8.74704 15.2557 8.5291 15.4572 8.51891 15.7159Z" fill="black"/>
</svg>
