<svg width="120" height="60" viewBox="0 0 120 60" fill="none" xmlns="http://www.w3.org/2000/svg">
<path d="M20.1748 39.2996C15.0748 39.2996 10.8748 35.2496 10.7998 29.9996C10.7248 24.7496 14.9248 20.4746 20.1748 20.4746C25.4248 20.4746 29.4748 24.5996 29.5498 29.6246C29.6998 35.0246 25.4248 39.2996 20.1748 39.2996ZM16.8748 23.6246C16.7998 23.6246 16.7998 23.6246 16.8748 23.6246C16.1248 25.1996 15.4498 26.6996 14.7748 28.2746C14.7748 28.3496 14.6998 28.4246 14.7748 28.4996C14.8498 29.0246 15.1498 29.4746 15.5998 29.6996C16.0498 29.9246 16.4998 29.9246 16.9498 29.8496C17.6998 29.6996 18.5248 29.6246 19.2748 29.7746C20.2498 29.9246 20.9998 30.3746 21.5998 31.1246C21.5998 31.1246 21.5998 31.0496 21.6748 31.0496C22.3498 29.5496 23.0248 27.9746 23.6998 26.4746C23.7748 26.3996 23.6998 26.3246 23.6998 26.2496C23.3998 25.8746 23.0998 25.5746 22.6498 25.3496C21.6748 24.8246 20.6248 24.8246 19.5748 24.9746C19.1998 25.0496 18.8248 25.1246 18.3748 25.0496C17.6998 24.9746 17.1748 24.6746 16.9498 23.9996C16.9498 23.8496 16.8748 23.6996 16.8748 23.6246ZM25.1248 26.2496C24.9748 26.2496 24.8248 26.3996 24.6748 26.6246C23.4748 29.3246 22.2748 31.9496 20.9998 34.6496C20.7748 35.2496 20.4748 35.7746 20.2498 36.3746C20.0248 36.8246 20.3248 37.2746 20.7748 37.1996C20.9998 37.1996 21.1498 36.9746 21.2248 36.7496C22.4248 34.1246 23.6248 31.4246 24.8248 28.7996C25.0498 28.1996 25.3498 27.6746 25.5748 27.0746C25.8748 26.6246 25.6498 26.2496 25.1248 26.2496Z" fill="#F1693F"/>
<path d="M104.475 33.075C102.975 33.075 101.475 33.075 99.9748 33.075C99.7498 33.075 99.7498 33.15 99.7498 33.3C99.8248 33.9 99.8998 34.5 100.125 35.1C100.725 36.6 101.775 37.425 103.35 37.65C105.075 37.875 106.65 37.425 108.075 36.375C108.15 36.375 108.15 36.3 108.225 36.3C108.3 36.225 108.3 36.3 108.3 36.375C108.3 36.975 108.3 37.575 108.3 38.175C108.3 38.25 108.225 38.325 108.15 38.325C107.4 38.85 106.5 39.15 105.6 39.3C104.85 39.45 104.1 39.45 103.35 39.45C100.725 39.45 98.6248 37.95 97.8748 35.4C97.4998 34.275 97.4248 33.075 97.4998 31.95C97.5748 30.825 97.7998 29.775 98.3248 28.725C99.1498 27.225 100.275 26.1 101.925 25.65C103.575 25.2 105.225 25.275 106.725 26.175C107.775 26.85 108.45 27.825 108.825 28.95C109.125 29.775 109.2 30.675 109.2 31.575C109.2 31.95 109.2 32.325 109.2 32.775C109.2 32.925 109.125 33 108.975 33C107.475 33.075 105.975 33.075 104.475 33.075ZM103.35 31.2C104.475 31.2 105.6 31.2 106.8 31.2C106.95 31.2 107.025 31.125 106.95 30.975C106.875 30.675 106.875 30.3 106.8 30C106.65 29.1 106.275 28.35 105.525 27.825C104.475 27.075 102.825 27.075 101.7 27.825C100.575 28.575 99.9748 29.7 99.7498 30.975C99.6748 31.2 99.7498 31.2 99.9748 31.2C101.1 31.2 102.225 31.2 103.35 31.2Z" fill="#47C7EF"/>
<path d="M53.1742 37.1992C52.9492 37.5742 52.7242 37.9492 52.4242 38.2492C51.6742 38.9992 50.8492 39.4492 49.7992 39.5242C48.8992 39.5992 47.9992 39.5992 47.0992 39.2242C45.7492 38.6992 44.9992 37.7242 44.8492 36.2992C44.6992 35.3242 44.8492 34.4242 45.2992 33.5242C45.8242 32.5492 46.7242 32.0242 47.6992 31.6492C48.4492 31.4242 49.1992 31.2742 49.9492 31.1992C50.6992 31.1242 51.4492 30.9742 52.1242 30.8992C52.4242 30.8242 52.7992 30.8242 53.0992 30.7492C53.1742 30.7492 53.2492 30.7492 53.2492 30.5992C53.1742 29.9992 53.1742 29.3992 52.9492 28.7992C52.5742 27.8992 51.8992 27.4492 50.9992 27.3742C49.2742 27.2242 47.6992 27.7492 46.3492 28.8742C46.2742 28.9492 46.2742 28.9492 46.1992 28.9492C46.1992 28.3492 46.1992 27.8242 46.1992 27.2992C46.1992 26.7742 46.1992 26.7742 46.6492 26.4742C47.6242 25.9492 48.5992 25.6492 49.6492 25.5742C50.6242 25.4992 51.5992 25.4992 52.5742 25.7242C54.0742 26.1742 54.8992 27.1492 55.2742 28.6492C55.4242 29.2492 55.4992 29.8492 55.4992 30.4492C55.4992 33.2992 55.4992 36.1492 55.4992 38.9992C55.4992 39.2242 55.4242 39.2242 55.2742 39.2242C54.6742 39.2242 54.1492 39.2242 53.5492 39.2242C53.3992 39.2242 53.3992 39.1492 53.3992 39.0742C53.3992 38.5492 53.3992 37.9492 53.3992 37.4242C53.1742 37.3492 53.1742 37.2742 53.1742 37.1992ZM53.1742 32.4742C53.0242 32.4742 52.9492 32.4742 52.7992 32.5492C52.0492 32.6242 51.2992 32.7742 50.5492 32.8492C49.8742 32.9242 49.2742 32.9992 48.5992 33.2242C48.1492 33.3742 47.6242 33.5992 47.3242 33.9742C47.0242 34.3492 46.9492 34.8742 46.8742 35.3242C46.7992 36.0742 47.0992 36.7492 47.6992 37.1992C48.2992 37.6492 48.9742 37.7242 49.6492 37.7242C51.0742 37.6492 52.1242 36.8992 52.7242 35.6242C53.3242 34.6492 53.1742 33.5242 53.1742 32.4742Z" fill="#F1693F"/>
<path d="M41.3998 30.8238C41.3998 33.5238 41.3998 36.2988 41.3998 38.9988C41.3998 39.1488 41.3248 39.2238 41.1748 39.2238C40.5748 39.2238 40.0498 39.2238 39.4498 39.2238C39.2248 39.2238 39.2248 39.1488 39.2248 38.9988C39.2248 33.8988 39.2248 28.7988 39.2248 23.7738C39.2248 23.3988 39.2248 23.0988 39.2248 22.7238C39.2248 22.4238 39.2998 22.4988 38.9248 22.4988C36.9748 22.4988 35.0998 22.4988 33.1498 22.4988C32.9248 22.4988 32.9248 22.4238 32.9248 22.2738C32.9248 21.7488 32.9248 21.2238 32.9248 20.6988C32.9248 20.5488 32.9998 20.5488 33.0748 20.5488C37.8748 20.5488 42.6748 20.5488 47.4748 20.5488C47.6248 20.5488 47.6248 20.6238 47.6248 20.6988C47.6248 21.2238 47.6248 21.8238 47.6248 22.3488C47.6248 22.4988 47.5498 22.5738 47.3998 22.5738C45.4498 22.5738 43.4998 22.5738 41.5498 22.5738C41.3248 22.5738 41.3248 22.6488 41.3248 22.7988C41.3998 25.4238 41.3998 28.1238 41.3998 30.8238Z" fill="#F1693F"/>
<path d="M71.1748 32.0238C71.9248 31.2738 72.5998 30.5238 73.2748 29.7738C74.3998 28.4988 75.5998 27.2238 76.7248 25.9488C76.7998 25.8738 76.8748 25.7988 76.9498 25.7988C77.8498 25.7988 78.6748 25.7988 79.5748 25.7988C79.5748 25.7988 79.5748 25.7988 79.6498 25.7988C79.3498 26.0988 79.1248 26.3988 78.8248 26.6238C77.3248 28.1988 75.8248 29.7738 74.3248 31.2738C74.0998 31.5738 73.7998 31.7988 73.5748 32.0988C73.4998 32.1738 73.4998 32.2488 73.5748 32.3238C74.5498 33.2988 75.5248 34.3488 76.4998 35.3238C77.6998 36.5238 78.8248 37.7238 80.0248 38.9988C80.0998 39.0738 80.0998 39.0738 80.0998 39.1488C80.0248 39.2238 80.0248 39.1488 79.9498 39.1488C79.0498 39.1488 78.1498 39.1488 77.2498 39.1488C77.0998 39.1488 77.0248 39.1488 76.9498 38.9988C75.0748 36.8988 73.1998 34.8738 71.2498 32.7738C71.2498 32.7738 71.1748 32.6988 71.0998 32.6988C71.0248 32.7738 71.0998 32.8488 71.0998 32.9238C71.0998 34.9488 71.0998 36.8988 71.0998 38.9238C71.0998 39.0738 71.0248 39.1488 70.8748 39.1488C70.2748 39.1488 69.6748 39.1488 69.0748 39.1488C68.9248 39.1488 68.9248 39.1488 68.9248 38.9988C68.9248 34.6488 68.9248 30.2988 68.9248 25.9488C68.9248 25.7988 68.9998 25.7988 69.0748 25.7988C69.6748 25.7988 70.2748 25.7988 70.8748 25.7988C71.0248 25.7988 71.0248 25.8738 71.0248 26.0238C71.0248 27.8988 71.0248 29.8488 71.0248 31.7238C71.1748 31.7988 71.1748 31.8738 71.1748 32.0238Z" fill="#F1693F"/>
<path d="M88.5746 37.35C88.6496 37.35 88.7246 37.35 88.7996 37.35C91.2746 37.35 93.6746 37.35 96.1496 37.35C96.2996 37.35 96.3746 37.35 96.3746 37.575C96.3746 38.025 96.3746 38.55 96.3746 39C96.3746 39.15 96.3746 39.225 96.1496 39.225C92.6246 39.225 89.0246 39.225 85.4996 39.225C85.3496 39.225 85.3496 39.15 85.3496 39.075C85.3496 38.775 85.4246 38.475 85.6496 38.175C88.1246 34.725 90.6746 31.275 93.1496 27.9C93.2246 27.825 93.2246 27.825 93.2246 27.75C93.1496 27.675 93.0746 27.75 92.9996 27.75C90.7496 27.75 88.5746 27.75 86.3246 27.75C86.0996 27.75 86.0996 27.675 86.0996 27.525C86.0996 27.075 86.0996 26.55 86.0996 26.1C86.0996 25.95 86.1746 25.875 86.3246 25.875C88.4246 25.875 90.5246 25.875 92.6246 25.875C93.8246 25.875 95.0996 25.875 96.2996 25.875C96.4496 25.875 96.5246 25.95 96.5246 26.1C96.5246 26.4 96.4496 26.625 96.2996 26.85C93.7496 30.3 91.2746 33.825 88.7246 37.275C88.7246 37.275 88.6496 37.275 88.5746 37.35Z" fill="#47C7EF"/>
<path d="M57.7498 36.4496C58.0498 36.5996 58.2748 36.7496 58.4998 36.8996C59.6248 37.5746 60.8998 37.7996 62.2498 37.6496C62.6998 37.6496 63.1498 37.4996 63.5998 37.2746C64.2748 36.8996 64.4998 36.2246 64.4248 35.5496C64.3498 34.8746 63.8998 34.4246 63.2998 34.1246C62.6998 33.7496 62.0998 33.5996 61.4998 33.2996C60.7498 32.9996 60.0748 32.6996 59.3998 32.3246C58.5748 31.7996 57.9748 31.0496 57.8248 29.9996C57.5998 28.4996 58.1248 27.2996 59.3998 26.3996C60.2248 25.8746 61.0498 25.5746 62.0248 25.4996C63.3748 25.3496 64.6498 25.4996 65.8498 25.9496C65.9998 26.0246 65.9998 26.0996 65.9998 26.2496C65.9998 26.9246 65.9998 27.5246 65.9998 28.1996C65.9248 28.2746 65.9248 28.1996 65.8498 28.1246C65.0248 27.5996 64.1248 27.3746 63.1498 27.2996C62.4748 27.2246 61.7998 27.2996 61.1248 27.5246C60.5998 27.7496 60.1498 28.1246 59.9998 28.7246C59.8498 29.4746 60.0748 30.1496 60.7498 30.5996C61.2748 30.9746 61.9498 31.1996 62.5498 31.4246C63.2998 31.7246 64.1248 32.0246 64.7998 32.4746C65.6248 32.9996 66.2998 33.5996 66.5248 34.5746C66.8998 36.2996 66.2998 37.7246 64.7248 38.6246C63.8998 39.0746 63.0748 39.2996 62.0998 39.3746C61.0498 39.4496 59.9998 39.3746 58.9498 39.1496C58.5748 39.0746 58.1248 38.9246 57.8248 38.6996C57.7498 38.6996 57.6748 38.6246 57.6748 38.5496C57.7498 37.9496 57.7498 37.1996 57.7498 36.4496Z" fill="#F1693F"/>
<path d="M81.5254 32.55C81.5254 30.375 81.5254 28.2 81.5254 26.1C81.5254 25.875 81.6004 25.875 81.7504 25.875C82.3504 25.875 82.8754 25.875 83.4754 25.875C83.6254 25.875 83.7004 25.875 83.7004 26.025C83.7004 30.375 83.7004 34.725 83.7004 39.075C83.7004 39.225 83.6254 39.225 83.5504 39.225C82.9504 39.225 82.3504 39.225 81.7504 39.225C81.6004 39.225 81.5254 39.15 81.5254 39C81.5254 36.825 81.5254 34.65 81.5254 32.55Z" fill="#47C7EF"/>
</svg>
