<svg xmlns="http://www.w3.org/2000/svg" xmlns:xlink="http://www.w3.org/1999/xlink" width="32" height="32" viewBox="0 0 32 32">
  <defs>
    <clipPath id="clip-path">
      <rect id="Rectangle_3643" data-name="Rectangle 3643" width="32" height="32" transform="translate(104 280)" fill="#112d55" stroke="#707070" stroke-width="1"/>
    </clipPath>
  </defs>
  <g id="Mask_Group_533" data-name="Mask Group 533" transform="translate(-104 -280)" clip-path="url(#clip-path)">
    <g id="Layer_2" data-name="Layer 2" transform="translate(102.14 277.892)">
      <g id="Group_1324" data-name="Group 1324">
        <path id="Path_1989" data-name="Path 1989" d="M8.744,15.256a4.961,4.961,0,1,1,4.961-4.961,4.961,4.961,0,0,1-4.961,4.961Zm0-7.69a2.729,2.729,0,1,0,2.729,2.729A2.729,2.729,0,0,0,8.744,7.565Z" fill="#112d55"/>
        <path id="Path_1990" data-name="Path 1990" d="M9.868,22.951H5.775A3.919,3.919,0,0,1,1.86,19.036v-.253a5.767,5.767,0,0,1,5.76-5.76H8.737a1.116,1.116,0,0,1,0,2.233H7.621a3.532,3.532,0,0,0-3.528,3.528v.253a1.684,1.684,0,0,0,1.682,1.682H9.868a1.116,1.116,0,0,1,0,2.233Z" fill="#112d55"/>
        <path id="Path_1991" data-name="Path 1991" d="M26.977,15.256a4.961,4.961,0,1,1,4.961-4.961,4.961,4.961,0,0,1-4.961,4.961Zm0-7.69a2.729,2.729,0,1,0,2.729,2.729A2.729,2.729,0,0,0,26.977,7.565Z" fill="#112d55"/>
        <path id="Path_1992" data-name="Path 1992" d="M29.961,22.951H25.853a1.116,1.116,0,0,1,0-2.233h4.108a1.676,1.676,0,0,0,1.667-1.682v-.253A3.532,3.532,0,0,0,28.1,15.256H26.984a1.116,1.116,0,0,1,0-2.233H28.1a5.767,5.767,0,0,1,5.76,5.76v.253a3.911,3.911,0,0,1-3.9,3.914Z" fill="#112d55"/>
      </g>
      <path id="Path_1993" data-name="Path 1993" d="M17.86,20.961a5.085,5.085,0,1,1,5.085-5.085,5.085,5.085,0,0,1-5.085,5.085Zm0-7.937a2.852,2.852,0,1,0,2.852,2.853,2.852,2.852,0,0,0-2.852-2.853Z" fill="#112d55"/>
      <path id="Path_1994" data-name="Path 1994" d="M20.837,30.884H14.884a4.1,4.1,0,0,1-4.093-4.093V25.8a7.07,7.07,0,1,1,14.14,0v.993a4.1,4.1,0,0,1-4.093,4.093ZM17.86,20.961A4.843,4.843,0,0,0,13.023,25.8v.993a1.862,1.862,0,0,0,1.86,1.86h5.953a1.862,1.862,0,0,0,1.86-1.86V25.8a4.843,4.843,0,0,0-4.837-4.837Z" fill="#112d55"/>
    </g>
  </g>
</svg>
