<svg width="14" height="14" viewBox="0 0 14 14" fill="none" xmlns="http://www.w3.org/2000/svg">
<mask id="mask0_840_2270" style="mask-type:luminance" maskUnits="userSpaceOnUse" x="0" y="0" width="14" height="14">
<path d="M14 0H0V14H14V0Z" fill="white"/>
</mask>
<g mask="url(#mask0_840_2270)">
<path d="M3.01175 5.75103C2.58248 5.75103 2.16284 5.62374 1.80592 5.38525C1.44899 5.14676 1.1708 4.80778 1.00652 4.41119C0.842249 4.01459 0.799267 3.57819 0.883014 3.15716C0.966761 2.73614 1.17347 2.3494 1.47702 2.04586C1.78056 1.74232 2.16729 1.53561 2.58832 1.45186C3.00934 1.36811 3.44574 1.4111 3.84234 1.57537C4.23893 1.73965 4.57791 2.01784 4.8164 2.37476C5.05489 2.73169 5.18218 3.15132 5.18218 3.58059C5.18218 3.86562 5.12604 4.14786 5.01697 4.41119C4.9079 4.67451 4.74802 4.91378 4.54648 5.11533C4.34493 5.31687 4.10567 5.47674 3.84234 5.58582C3.57901 5.69489 3.29677 5.75103 3.01175 5.75103ZM3.01175 2.38666C2.77561 2.38666 2.54477 2.45668 2.34843 2.58787C2.15209 2.71906 1.99906 2.90553 1.90869 3.12369C1.81833 3.34186 1.79468 3.58192 1.84075 3.81352C1.88682 4.04512 2.00053 4.25786 2.16751 4.42484C2.33448 4.59181 2.54722 4.70552 2.77882 4.75159C3.01042 4.79766 3.25048 4.77402 3.46865 4.68365C3.68681 4.59328 3.87328 4.44025 4.00447 4.24391C4.13566 4.04757 4.20568 3.81673 4.20568 3.58059C4.20574 3.42377 4.1749 3.26847 4.11493 3.12356C4.05495 2.97865 3.96702 2.84698 3.85614 2.73607C3.74527 2.62516 3.61363 2.53717 3.46875 2.47714C3.32386 2.41712 3.16857 2.38666 3.01175 2.38666Z" fill="#717171"/>
<path d="M3.5035 9.11694H1.71281C1.25869 9.11647 0.823297 8.93587 0.502183 8.61475C0.181069 8.29364 0.000463274 7.85825 0 7.40412V7.29344C0.000810447 6.62534 0.26657 5.98484 0.738986 5.51242C1.2114 5.04001 1.8519 4.77425 2.52 4.77344H3.00869C3.13824 4.77344 3.26248 4.8249 3.35409 4.91651C3.44569 5.00811 3.49716 5.13236 3.49716 5.26191C3.49716 5.39146 3.44569 5.5157 3.35409 5.60731C3.26248 5.69891 3.13824 5.75037 3.00869 5.75037H2.52044C2.11122 5.75084 1.71889 5.91361 1.42953 6.20297C1.14017 6.49233 0.977401 6.88466 0.976937 7.29388V7.40456C0.977169 7.59966 1.05477 7.7867 1.19273 7.92465C1.33068 8.0626 1.51772 8.14021 1.71281 8.14044H3.5035C3.63305 8.14044 3.75729 8.1919 3.8489 8.28351C3.94051 8.37511 3.99197 8.49936 3.99197 8.62891C3.99197 8.75846 3.94051 8.8827 3.8489 8.97431C3.75729 9.06591 3.63305 9.11694 3.5035 9.11694Z" fill="#717171"/>
<path d="M10.9888 5.75103C10.5595 5.75103 10.1399 5.62374 9.78297 5.38525C9.42604 5.14676 9.14785 4.80778 8.98357 4.41119C8.8193 4.01459 8.77632 3.57819 8.86006 3.15716C8.94381 2.73614 9.15053 2.3494 9.45407 2.04586C9.75761 1.74232 10.1443 1.53561 10.5654 1.45186C10.9864 1.36811 11.4228 1.4111 11.8194 1.57537C12.216 1.73965 12.555 2.01784 12.7935 2.37476C13.0319 2.73169 13.1592 3.15132 13.1592 3.58059C13.1592 4.15623 12.9306 4.70829 12.5235 5.11533C12.1165 5.52236 11.5644 5.75103 10.9888 5.75103ZM10.9888 2.38666C10.7527 2.38666 10.5218 2.45668 10.3255 2.58787C10.1291 2.71906 9.97611 2.90553 9.88574 3.12369C9.79538 3.34186 9.77173 3.58192 9.8178 3.81352C9.86387 4.04512 9.97758 4.25786 10.1446 4.42484C10.3115 4.59181 10.5243 4.70552 10.7559 4.75159C10.9875 4.79766 11.2275 4.77402 11.4457 4.68365C11.6639 4.59328 11.8503 4.44025 11.9815 4.24391C12.1127 4.04757 12.1827 3.81673 12.1827 3.58059C12.1828 3.42377 12.152 3.26847 12.092 3.12356C12.032 2.97865 11.9441 2.84698 11.8332 2.73607C11.7223 2.62516 11.5907 2.53717 11.4458 2.47714C11.3009 2.41712 11.1456 2.38666 10.9888 2.38666Z" fill="#717171"/>
<path d="M12.2943 9.11694H10.497C10.3675 9.11694 10.2432 9.06547 10.1516 8.97387C10.06 8.88226 10.0085 8.75802 10.0085 8.62847C10.0085 8.49892 10.06 8.37468 10.1516 8.28307C10.2432 8.19146 10.3675 8.14 10.497 8.14H12.2943C12.4885 8.13896 12.6744 8.06089 12.8111 7.92292C12.9479 7.78495 13.0243 7.59837 13.0236 7.40412V7.29344C13.023 6.88429 12.8602 6.49208 12.5708 6.20281C12.2815 5.91354 11.8892 5.75084 11.4801 5.75037H10.9918C10.8623 5.75037 10.738 5.69891 10.6464 5.60731C10.5548 5.5157 10.5034 5.39146 10.5034 5.26191C10.5034 5.13236 10.5548 5.00811 10.6464 4.91651C10.738 4.8249 10.8623 4.77344 10.9918 4.77344H11.4801C12.1482 4.77425 12.7887 5.04001 13.2611 5.51242C13.7335 5.98484 13.9993 6.62534 14.0001 7.29344V7.40412C14.0004 7.85732 13.821 8.29215 13.5011 8.61318C13.1812 8.93421 12.747 9.11523 12.2938 9.1165L12.2943 9.11694Z" fill="#717171"/>
<path d="M7.00008 8.2482C6.56008 8.2482 6.12996 8.11773 5.76411 7.87328C5.39826 7.62882 5.11312 7.28138 4.94474 6.87487C4.77635 6.46836 4.7323 6.02105 4.81814 5.5895C4.90398 5.15795 5.11586 4.76155 5.42699 4.45042C5.73812 4.1393 6.13452 3.92742 6.56606 3.84158C6.99761 3.75574 7.44492 3.79979 7.85143 3.96817C8.25794 4.13655 8.60539 4.4217 8.84984 4.78755C9.09429 5.15339 9.22477 5.58352 9.22477 6.02352C9.22477 6.31567 9.16722 6.60496 9.05542 6.87487C8.94362 7.14478 8.77975 7.39003 8.57317 7.59661C8.36659 7.80319 8.12134 7.96706 7.85143 8.07886C7.58152 8.19066 7.29223 8.2482 7.00008 8.2482ZM7.00008 4.77577C6.75332 4.77577 6.51209 4.84893 6.30691 4.98602C6.10173 5.12311 5.9418 5.31795 5.84735 5.54592C5.7529 5.77389 5.72816 6.02475 5.77627 6.26678C5.82438 6.50881 5.94318 6.73114 6.11763 6.90565C6.29209 7.08017 6.51438 7.19904 6.75639 7.24724C6.9984 7.29543 7.24927 7.27078 7.47727 7.17641C7.70527 7.08204 7.90018 6.92218 8.03733 6.71705C8.17449 6.51191 8.24774 6.27072 8.24783 6.02395C8.24789 5.86006 8.21566 5.69776 8.15298 5.54633C8.0903 5.39489 7.9984 5.25729 7.88253 5.14138C7.76666 5.02547 7.62909 4.93352 7.47767 4.87079C7.32626 4.80805 7.16397 4.77577 7.00008 4.77577Z" fill="#717171"/>
<path d="M8.30235 12.5889H5.69791C5.22324 12.5881 4.76824 12.3991 4.4326 12.0635C4.09696 11.7278 3.90804 11.2728 3.90723 10.7982V10.3646C3.90723 9.54426 4.23311 8.75751 4.81318 8.17744C5.39326 7.59737 6.18 7.27148 7.00035 7.27148C7.8207 7.27148 8.60745 7.59737 9.18752 8.17744C9.76759 8.75751 10.0935 9.54426 10.0935 10.3646V10.799C10.0927 11.2737 9.90375 11.7287 9.5681 12.0644C9.23246 12.4 8.77746 12.5889 8.30279 12.5897L8.30235 12.5889ZM6.99991 8.24755C6.43873 8.24824 5.90074 8.47154 5.504 8.86844C5.10726 9.26534 4.88419 9.80342 4.88373 10.3646V10.799C4.88396 11.0148 4.96977 11.2216 5.12232 11.3742C5.27488 11.5268 5.48173 11.6126 5.69748 11.6128H8.30191C8.51766 11.6126 8.72451 11.5268 8.87707 11.3742C9.02962 11.2216 9.11543 11.0148 9.11566 10.799V10.3646C9.11497 9.80357 8.89179 9.26572 8.49508 8.86901C8.09837 8.47229 7.56051 8.24912 6.99948 8.24842L6.99991 8.24755Z" fill="#717171"/>
</g>
</svg>
