<svg width="14" height="14" viewBox="0 0 14 14" fill="none" xmlns="http://www.w3.org/2000/svg">
<g clip-path="url(#clip0_469_396)">
<mask id="mask0_469_396" style="mask-type:luminance" maskUnits="userSpaceOnUse" x="0" y="0" width="14" height="14">
<path d="M14 0H0V14H14V0Z" fill="white"/>
</mask>
<g mask="url(#mask0_469_396)">
<path d="M14 7.00125C14.0002 8.67088 13.4035 10.2856 12.3178 11.554C11.232 12.8224 9.72867 13.6609 8.079 13.9183C8.003 13.9303 7.92667 13.9406 7.85 13.9493C7.60111 13.98 7.35075 13.9974 7.1 14.0013H6.9C6.64928 13.9981 6.39892 13.9814 6.15 13.9513C6.07333 13.9419 5.997 13.9316 5.921 13.9202C4.59874 13.714 3.36332 13.133 2.36111 12.2461C1.35891 11.3593 0.631931 10.2037 0.266311 8.91635C-0.0993088 7.62901 -0.0882453 6.26384 0.298191 4.98259C0.684627 3.70134 1.43024 2.55771 2.44668 1.68721C3.46313 0.816709 4.7078 0.255817 6.03324 0.0709914C7.35867 -0.113834 8.7093 0.0851527 9.92512 0.644376C11.1409 1.2036 12.171 2.09962 12.8932 3.22627C13.6154 4.35293 13.9995 5.66299 14 7.00125Z" fill="#F2F2F2"/>
<path d="M14 7.00249C14.0001 7.26308 13.9858 7.52349 13.957 7.78249C13.957 7.81149 13.951 7.83949 13.947 7.86849C13.929 8.01382 13.9067 8.15749 13.88 8.29949C13.8747 8.32749 13.8693 8.35549 13.864 8.38349C13.6202 9.59136 13.0622 10.7136 12.2463 11.6371C11.4305 12.5605 10.3856 13.2526 9.217 13.6435C8.862 13.7125 8.736 13.4945 8.736 13.3075C8.736 13.0765 8.744 12.3235 8.744 11.3865C8.76209 11.1485 8.72907 10.9093 8.64714 10.6851C8.56522 10.4609 8.43629 10.2568 8.269 10.0865C8.90415 10.1003 9.5285 9.9208 10.0594 9.57187C10.5903 9.22294 11.0027 8.72099 11.242 8.13249C11.252 8.10449 11.261 8.07549 11.271 8.04749C11.299 7.96016 11.324 7.86915 11.346 7.77449C11.353 7.74649 11.359 7.71749 11.365 7.68849C11.4348 7.34124 11.4683 6.98767 11.465 6.63349C11.4758 5.93764 11.2175 5.2645 10.744 4.75449C10.9586 4.15119 10.9347 3.4887 10.677 2.90249C10.677 2.90249 10.09 2.71449 8.754 3.62049C7.60646 3.30619 6.39553 3.30619 5.248 3.62049C3.91 2.71749 3.322 2.90249 3.322 2.90249C3.06425 3.48897 3.03993 4.15169 3.254 4.75549C2.78138 5.26605 2.52323 5.93883 2.533 6.63449C2.52954 6.98868 2.56306 7.34226 2.633 7.68949C2.639 7.71849 2.645 7.74749 2.652 7.77549C2.674 7.87015 2.699 7.96115 2.727 8.04849C2.736 8.07749 2.746 8.10549 2.756 8.13349C2.99457 8.72133 3.40549 9.22318 3.93472 9.57303C4.46395 9.92287 5.08668 10.1043 5.721 10.0935C5.46551 10.3422 5.30763 10.6743 5.276 11.0295C5.10429 11.1261 4.91512 11.1877 4.71945 11.2107C4.52378 11.2337 4.32548 11.2177 4.13604 11.1636C3.9466 11.1095 3.76977 11.0183 3.6158 10.8954C3.46182 10.7725 3.33375 10.6202 3.239 10.4475C3.1268 10.2536 2.97183 10.0878 2.78588 9.9629C2.59994 9.83795 2.38792 9.75709 2.166 9.72649C2.166 9.72649 1.483 9.71749 2.118 10.1515C2.49315 10.3892 2.77061 10.7536 2.9 11.1785C2.9 11.1785 3.311 12.4275 5.258 12.0045C5.258 12.5895 5.267 13.1405 5.267 13.3045C5.267 13.4895 5.139 13.7045 4.789 13.6415C3.61972 13.2516 2.5739 12.5604 1.75698 11.6374C0.940071 10.7145 0.38095 9.59246 0.135998 8.38449C0.130998 8.35649 0.124998 8.32849 0.119998 8.30249C0.0933318 8.15849 0.0709985 8.01382 0.0529985 7.86849C0.0529985 7.83949 0.0459985 7.81149 0.0429985 7.78249C-0.0623241 6.83664 0.0263318 5.87924 0.303548 4.96881C0.580765 4.05838 1.04072 3.21404 1.6553 2.48739C2.26988 1.76075 3.02618 1.16705 3.87798 0.74259C4.72978 0.31813 5.65919 0.0718224 6.60941 0.0187187C7.55962 -0.0343849 8.51069 0.106831 9.40448 0.433737C10.2983 0.760642 11.116 1.26637 11.8077 1.92002C12.4995 2.57366 13.0506 3.36149 13.4276 4.23536C13.8045 5.10923 13.9993 6.05079 14 7.00249Z" fill="#202224"/>
<path d="M2.589 9.94668C2.538 9.92268 2.484 9.93268 2.468 9.96868C2.452 10.0047 2.48 10.0507 2.531 10.0737C2.582 10.0967 2.631 10.0877 2.651 10.0527C2.671 10.0177 2.64 9.96968 2.589 9.94668Z" fill="#202224"/>
<path d="M2.915 10.2242C2.869 10.1752 2.806 10.1612 2.772 10.1922C2.75628 10.2144 2.74961 10.2418 2.75332 10.2687C2.75704 10.2956 2.77086 10.3201 2.792 10.3372C2.836 10.3862 2.902 10.4002 2.935 10.3702C2.968 10.3402 2.961 10.2742 2.915 10.2242Z" fill="#202224"/>
<path d="M3.212 10.6025C3.168 10.5405 3.099 10.5135 3.056 10.5435C3.013 10.5735 3.012 10.6435 3.056 10.7105C3.1 10.7775 3.169 10.8005 3.213 10.7705C3.257 10.7405 3.255 10.6675 3.212 10.6025Z" fill="#202224"/>
<path d="M3.551 10.9817C3.491 10.9247 3.408 10.9127 3.37 10.9547C3.3529 10.9841 3.34752 11.0189 3.35493 11.0521C3.36235 11.0853 3.38202 11.1144 3.41 11.1337C3.47 11.1917 3.552 11.2027 3.59 11.1607C3.628 11.1187 3.611 11.0377 3.551 10.9817Z" fill="#202224"/>
<path d="M3.99998 11.2441C3.91998 11.2191 3.84098 11.2441 3.82498 11.3001C3.80898 11.3561 3.86098 11.4201 3.93998 11.4441C4.01898 11.4681 4.09798 11.4441 4.11498 11.3871C4.13198 11.3301 4.07498 11.2681 3.99998 11.2441Z" fill="#202224"/>
<path d="M4.532 11.3281C4.448 11.3281 4.383 11.3771 4.383 11.4351C4.383 11.4931 4.452 11.5351 4.535 11.5351C4.618 11.5351 4.686 11.4861 4.684 11.4281C4.682 11.3701 4.615 11.3271 4.532 11.3281Z" fill="#202224"/>
<path d="M5.21701 11.338C5.20601 11.281 5.13201 11.247 5.05001 11.261C4.96801 11.275 4.91001 11.334 4.92001 11.392C4.93001 11.45 5.00501 11.483 5.08701 11.468C5.16901 11.453 5.22601 11.394 5.21701 11.338Z" fill="#202224"/>
</g>
</g>
<defs>
<clipPath id="clip0_469_396">
<rect width="14" height="14" fill="white"/>
</clipPath>
</defs>
</svg>
