<svg width="16" height="16" viewBox="0 0 16 16" fill="none" xmlns="http://www.w3.org/2000/svg">
<mask id="mask0_181_1073" style="mask-type:luminance" maskUnits="userSpaceOnUse" x="0" y="0" width="16" height="16">
<path d="M0.5 15.5V0.5H15.5V15.5H0.5Z" fill="white" stroke="white"/>
</mask>
<g mask="url(#mask0_181_1073)">
<path d="M8 10.3359V11.5029" stroke="#FC6D35" stroke-width="1.2" stroke-linecap="round" stroke-linejoin="round"/>
<path d="M0.995117 7.2217L1.11412 9.4507C1.24212 12.2637 1.30612 13.6697 2.20812 14.5317C3.11012 15.3937 4.51812 15.3937 7.33412 15.3937H8.66612C11.4821 15.3937 12.8891 15.3937 13.7921 14.5317C14.6951 13.6697 14.7601 12.2597 14.8861 9.4497L15.0051 7.2207" stroke="#FC6D35" stroke-width="1.2" stroke-linecap="round" stroke-linejoin="round"/>
<path d="M0.875969 6.78808C2.19897 9.30308 5.18197 10.3351 7.99997 10.3351C10.818 10.3351 13.8 9.30308 15.124 6.78808C15.755 5.58808 15.277 3.33008 13.724 3.33008H2.27797C0.722969 3.33008 0.244969 5.58808 0.875969 6.78808Z" stroke="#FC6D35" stroke-width="1.2"/>
<path d="M11.1132 3.33047L11.0442 3.08947C10.7022 1.88947 10.5302 1.28947 10.1232 0.948469C9.71621 0.607469 9.17421 0.605469 8.09121 0.605469H7.90921C6.82621 0.605469 6.28521 0.605469 5.87721 0.948469C5.46921 1.29147 5.29821 1.89047 4.95621 3.08947L4.88721 3.33047" stroke="#FC6D35" stroke-width="1.2"/>
</g>
</svg>
