<svg width="16" height="16" viewBox="0 0 16 16" fill="none" xmlns="http://www.w3.org/2000/svg">
<g id="Group 599">
<g id="Group 571">
<g id="Vector">
<mask id="path-1-inside-1_18_8595" fill="white">
<path d="M10.3102 1.14538C10.2168 1.05225 10.0904 0.999962 9.95854 1H3.994C3.44477 1 3 1.44531 3 1.994V7.46154C3 7.59335 3.05236 7.71976 3.14557 7.81297C3.23877 7.90617 3.36519 7.95854 3.497 7.95854C3.62881 7.95854 3.75523 7.90617 3.84843 7.81297C3.94164 7.71976 3.994 7.59335 3.994 7.46154V1.994H9.46154V4.97654C9.46154 5.25115 9.68392 5.47354 9.95854 5.47354H12.9411V12.9291H11.4495C11.3177 12.9291 11.1913 12.9814 11.0981 13.0746C11.0049 13.1678 10.9525 13.2943 10.9525 13.4261C10.9525 13.5579 11.0049 13.6843 11.0981 13.7775C11.1913 13.8707 11.3177 13.9231 11.4495 13.9231H12.9411C13.4903 13.9231 13.9351 13.4778 13.9351 12.9291V4.976C13.935 4.84435 13.8827 4.7181 13.7897 4.62492L10.3102 1.14538ZM10.4555 2.69669L12.2378 4.479H10.4555V2.69669Z"/>
</mask>
<path d="M10.3102 1.14538L11.0173 0.438277L11.0166 0.437592L10.3102 1.14538ZM9.95854 1V2L9.95883 2L9.95854 1ZM3.497 7.95854V6.95854V7.95854ZM3.994 1.994V0.994H2.994V1.994H3.994ZM9.46154 1.994H10.4615V0.994H9.46154V1.994ZM12.9411 5.47354H13.9411V4.47354H12.9411V5.47354ZM12.9411 12.9291V13.9291H13.9411V12.9291H12.9411ZM10.9525 13.4261H11.9525H10.9525ZM11.4495 13.9231V12.9231V13.9231ZM13.9351 4.976H14.9351L14.9351 4.97521L13.9351 4.976ZM13.7897 4.62492L14.4975 3.9185L14.4968 3.91782L13.7897 4.62492ZM10.4555 2.69669L11.1626 1.98959L9.45554 0.282478V2.69669H10.4555ZM12.2378 4.479V5.479H14.6521L12.945 3.77189L12.2378 4.479ZM10.4555 4.479H9.45554V5.479H10.4555V4.479ZM11.0166 0.437592C10.7357 0.157272 10.3551 -0.000114679 9.95825 5.96046e-08L9.95883 2C9.82568 2.00004 9.69797 1.94723 9.60373 1.85318L11.0166 0.437592ZM9.95854 0H3.994V2H9.95854V0ZM3.994 0C2.89213 0 2 0.893376 2 1.994H4C4 1.99313 4.00007 1.9933 3.99989 1.99419C3.99972 1.99502 3.99945 1.99589 3.99912 1.99666C3.99852 1.99808 3.99809 1.9984 3.99828 1.99821C3.99846 1.99803 3.99811 1.99849 3.99664 1.99911C3.99585 1.99945 3.99496 1.99972 3.99412 1.99989C3.99323 2.00008 3.99308 2 3.994 2V0ZM2 1.994V7.46154H4V1.994H2ZM2 7.46154C2 7.85856 2.15772 8.23933 2.43846 8.52008L3.85267 7.10586C3.94701 7.20019 4 7.32814 4 7.46154H2ZM2.43846 8.52008C2.7192 8.80082 3.09997 8.95854 3.497 8.95854V6.95854C3.6304 6.95854 3.75834 7.01153 3.85267 7.10586L2.43846 8.52008ZM3.497 8.95854C3.89403 8.95854 4.2748 8.80082 4.55554 8.52008L3.14133 7.10586C3.23566 7.01153 3.3636 6.95854 3.497 6.95854V8.95854ZM4.55554 8.52008C4.83628 8.23933 4.994 7.85856 4.994 7.46154H2.994C2.994 7.32814 3.04699 7.20019 3.14133 7.10586L4.55554 8.52008ZM4.994 7.46154V1.994H2.994V7.46154H4.994ZM3.994 2.994H9.46154V0.994H3.994V2.994ZM8.46154 1.994V4.97654H10.4615V1.994H8.46154ZM8.46154 4.97654C8.46154 5.80344 9.13164 6.47354 9.95854 6.47354V4.47354C10.2362 4.47354 10.4615 4.69887 10.4615 4.97654H8.46154ZM9.95854 6.47354H12.9411V4.47354H9.95854V6.47354ZM11.9411 5.47354V12.9291H13.9411V5.47354H11.9411ZM12.9411 11.9291H11.4495V13.9291H12.9411V11.9291ZM11.4495 11.9291C11.0525 11.9291 10.6717 12.0868 10.391 12.3675L11.8052 13.7817C11.7109 13.8761 11.5829 13.9291 11.4495 13.9291V11.9291ZM10.391 12.3675C10.1103 12.6483 9.95254 13.029 9.95254 13.4261H11.9525C11.9525 13.5595 11.8995 13.6874 11.8052 13.7817L10.391 12.3675ZM9.95254 13.4261C9.95254 13.8231 10.1103 14.2039 10.391 14.4846L11.8052 13.0704C11.8995 13.1647 11.9525 13.2927 11.9525 13.4261H9.95254ZM10.391 14.4846C10.6717 14.7654 11.0525 14.9231 11.4495 14.9231V12.9231C11.5829 12.9231 11.7109 12.9761 11.8052 13.0704L10.391 14.4846ZM11.4495 14.9231H12.9411V12.9231H11.4495V14.9231ZM12.9411 14.9231C14.0429 14.9231 14.9351 14.0297 14.9351 12.9291H12.9351C12.9351 12.9299 12.935 12.9298 12.9352 12.9289C12.9354 12.9281 12.9356 12.9272 12.936 12.9264C12.9366 12.925 12.937 12.9247 12.9368 12.9249C12.9366 12.925 12.937 12.9246 12.9384 12.924C12.9392 12.9236 12.9401 12.9233 12.9409 12.9232C12.9418 12.923 12.942 12.9231 12.9411 12.9231V14.9231ZM14.9351 12.9291V4.976H12.9351V12.9291H14.9351ZM14.9351 4.97521C14.9348 4.57895 14.7774 4.19897 14.4975 3.9185L13.0819 5.33134C12.988 5.23724 12.9352 5.10975 12.9351 4.97679L14.9351 4.97521ZM14.4968 3.91782L11.0173 0.438278L9.60304 1.85249L13.0826 5.33203L14.4968 3.91782ZM9.74843 3.4038L11.5307 5.18611L12.945 3.77189L11.1626 1.98959L9.74843 3.4038ZM12.2378 3.479H10.4555V5.479H12.2378V3.479ZM11.4555 4.479V2.69669H9.45554V4.479H11.4555Z" fill="#112D55" mask="url(#path-1-inside-1_18_8595)"/>
</g>
<path id="Vector_2" d="M7.44753 10.7677V14.5H7.25753V10.7677V10.2677H6.75753H5.42676V10.1692H9.33322V10.2677H7.94753H7.44753V10.7677Z" stroke="#112D55"/>
</g>
</g>
</svg>
