<svg width="16" height="16" viewBox="0 0 16 16" fill="none" xmlns="http://www.w3.org/2000/svg">
<g id="Group 598">
<path id="Vector" d="M1 3.57621C1 3.25801 1.26122 3 1.58325 3H14.4167C14.7388 3 15 3.25801 15 3.57621C15 3.89441 14.7388 4.15242 14.4167 4.15242H1.58325C1.42963 4.1531 1.28202 4.09282 1.17279 3.98479C1.06357 3.87677 1.00102 3.72983 1 3.57621ZM1 3.57621H1.5C1.5 3.57568 1.50001 3.57515 1.50002 3.57461M1 3.57621L1.49999 3.5729C1.49999 3.57347 1.5 3.57404 1.50002 3.57461M1.50002 3.57461C1.50093 3.53873 1.53234 3.5 1.58325 3.5H14.4167C14.4684 3.5 14.5 3.53989 14.5 3.57621C14.5 3.61253 14.4684 3.65242 14.4167 3.65242H1.58325V3.65242L1.58103 3.65243C1.55983 3.65252 1.53946 3.6442 1.52439 3.62929C1.50877 3.61385 1.5006 3.59388 1.50002 3.57461ZM1.58103 9.2621V9.26211H1.58325H14.4167C14.4677 9.26211 14.4991 9.30086 14.5 9.33675C14.4994 9.35733 14.4909 9.37693 14.4762 9.39143C14.4611 9.40635 14.4407 9.41465 14.4195 9.41454V9.41453H14.4167H1.58325C1.53303 9.41453 1.50154 9.37645 1.50066 9.33989C1.50124 9.31932 1.50973 9.29974 1.52439 9.28524C1.53946 9.27033 1.55983 9.26201 1.58103 9.2621ZM1.58104 12.1432H1.58325H10.9172C10.9668 12.1432 10.9983 12.1806 10.9992 12.2178C10.9986 12.2384 10.9901 12.258 10.9755 12.2725L11.327 12.628L10.9755 12.2725C10.9604 12.2874 10.94 12.2957 10.9188 12.2956H10.9166H1.58325C1.53302 12.2956 1.50154 12.2575 1.50066 12.2209C1.50124 12.2004 1.50973 12.1808 1.52439 12.1663C1.53946 12.1514 1.55983 12.1431 1.58104 12.1432ZM13.6709 6.53347H1.74523C1.64075 6.53347 1.56425 6.5002 1.5241 6.46916C1.51835 6.46471 1.51376 6.46073 1.51012 6.45726C1.51376 6.4538 1.51835 6.44982 1.5241 6.44537C1.56425 6.41432 1.64075 6.38105 1.74523 6.38105H13.6709C13.7754 6.38105 13.8519 6.41433 13.892 6.44537C13.8978 6.44982 13.9023 6.4538 13.906 6.45727C13.9023 6.46073 13.8978 6.46471 13.892 6.46916C13.8519 6.5002 13.7754 6.53347 13.6709 6.53347ZM1.49705 6.44095C1.49717 6.44093 1.49767 6.44175 1.49822 6.44348C1.49722 6.44183 1.49694 6.44097 1.49705 6.44095ZM1.49822 6.47105C1.49767 6.47278 1.49717 6.4736 1.49706 6.47358C1.49694 6.47356 1.49722 6.4727 1.49822 6.47105ZM13.9191 6.47358C13.9189 6.4736 13.9184 6.47277 13.9179 6.47105C13.9189 6.4727 13.9192 6.47357 13.9191 6.47358ZM13.9179 6.44348C13.9184 6.44174 13.9189 6.44092 13.9191 6.44095C13.9192 6.44097 13.9189 6.44184 13.9179 6.44348Z" stroke="#112D55"/>
</g>
</svg>
