<svg width="16" height="16" viewBox="0 0 16 16" fill="none" xmlns="http://www.w3.org/2000/svg">
<path fill-rule="evenodd" clip-rule="evenodd" d="M7.98385 1.23167H15.3486C15.6874 1.23167 15.9624 0.955775 15.9624 0.615835C15.9624 0.275894 15.6874 0 15.3486 0H7.98385C7.64507 0 7.37012 0.275894 7.37012 0.615835C7.37012 0.955775 7.64507 1.23167 7.98385 1.23167Z" fill="#262626"/>
<path fill-rule="evenodd" clip-rule="evenodd" d="M0.617754 15.9504L15.37 16.0003C15.7088 16.0015 15.985 15.7263 15.9862 15.3863C15.9874 15.047 15.7131 14.7699 15.3743 14.7686L0.621437 14.7188C0.282657 14.7181 0.00709094 14.9928 0.00586348 15.3327C0.00463601 15.6727 0.278974 15.9492 0.617754 15.9504Z" fill="#262626"/>
<path fill-rule="evenodd" clip-rule="evenodd" d="M0.631426 8.59495L15.3837 8.64484C15.7225 8.64607 15.9987 8.37079 15.9999 8.03085C16.0011 7.69091 15.7268 7.4144 15.388 7.41317L0.635109 7.36329C0.296942 7.36205 0.0207628 7.63733 0.0195354 7.97727C0.0183079 8.31721 0.292646 8.59372 0.631426 8.59495Z" fill="#262626"/>
<path fill-rule="evenodd" clip-rule="evenodd" d="M0.619591 12.3137H15.3492C15.6879 12.3137 15.9629 12.0378 15.9629 11.6979C15.9629 11.3579 15.6879 11.082 15.3492 11.082H0.619591C0.280811 11.082 0.00585938 11.3579 0.00585938 11.6979C0.00585938 12.0378 0.280811 12.3137 0.619591 12.3137Z" fill="#262626"/>
<path fill-rule="evenodd" clip-rule="evenodd" d="M7.98385 4.92554L15.3486 4.92308C15.6874 4.92308 15.9624 4.64718 15.9624 4.30724C15.9624 3.9673 15.6874 3.69141 15.3486 3.69141L7.98385 3.69387C7.64507 3.69387 7.37012 3.96976 7.37012 4.3097C7.37012 4.64964 7.64507 4.92554 7.98385 4.92554Z" fill="#262626"/>
<path fill-rule="evenodd" clip-rule="evenodd" d="M4.91538 0.619741C4.91538 0.2798 4.64043 0.00390625 4.30165 0.00390625H0.613732C0.274952 0.00390625 0 0.2798 0 0.619741V4.31044C0 4.65038 0.274952 4.92627 0.613732 4.92627H4.30165C4.64043 4.92627 4.91538 4.65038 4.91538 4.31044V0.619741ZM3.68792 1.23558V3.6946H1.22746V1.23558H3.68792Z" fill="#262626"/>
</svg>
