<svg width="14" height="16" viewBox="0 0 14 16" fill="none" xmlns="http://www.w3.org/2000/svg">
<path d="M11.6667 16H1.66667C0.748 16 0 15.252 0 14.3333V1.66667C0 0.748 0.748 0 1.66667 0H11.6667C12.5853 0 13.3333 0.748 13.3333 1.66667V14.3333C13.3333 15.252 12.5853 16 11.6667 16ZM1.66667 0.666667C1.11533 0.666667 0.666667 1.11533 0.666667 1.66667V14.3333C0.666667 14.8847 1.11533 15.3333 1.66667 15.3333H11.6667C12.218 15.3333 12.6667 14.8847 12.6667 14.3333V1.66667C12.6667 1.11533 12.218 0.666667 11.6667 0.666667H1.66667Z" fill="#10A37F"/>
<path d="M6.33333 6.66536C6.14933 6.66536 6 6.51603 6 6.33203V5.9987H2.66667V6.33203C2.66667 6.51603 2.51733 6.66536 2.33333 6.66536C2.14933 6.66536 2 6.51603 2 6.33203V5.66536C2 5.48136 2.14933 5.33203 2.33333 5.33203H6.33333C6.51733 5.33203 6.66667 5.48136 6.66667 5.66536V6.33203C6.66667 6.51603 6.51733 6.66536 6.33333 6.66536Z" fill="#10A37F"/>
<path d="M4.33333 9.9987C4.14933 9.9987 4 9.84936 4 9.66536V5.66536C4 5.48136 4.14933 5.33203 4.33333 5.33203C4.51733 5.33203 4.66667 5.48136 4.66667 5.66536V9.66536C4.66667 9.84936 4.51733 9.9987 4.33333 9.9987Z" fill="#10A37F"/>
<path d="M4.99998 9.9987H3.66665C3.48265 9.9987 3.33331 9.84936 3.33331 9.66536C3.33331 9.48136 3.48265 9.33203 3.66665 9.33203H4.99998C5.18398 9.33203 5.33331 9.48136 5.33331 9.66536C5.33331 9.84936 5.18398 9.9987 4.99998 9.9987Z" fill="#10A37F"/>
<path d="M11 5.9987H8.33333C8.14933 5.9987 8 5.84936 8 5.66536C8 5.48136 8.14933 5.33203 8.33333 5.33203H11C11.184 5.33203 11.3333 5.48136 11.3333 5.66536C11.3333 5.84936 11.184 5.9987 11 5.9987Z" fill="#10A37F"/>
<path d="M11 7.9987H8.33333C8.14933 7.9987 8 7.84936 8 7.66536C8 7.48136 8.14933 7.33203 8.33333 7.33203H11C11.184 7.33203 11.3333 7.48136 11.3333 7.66536C11.3333 7.84936 11.184 7.9987 11 7.9987Z" fill="#10A37F"/>
<path d="M11 9.9987H8.33333C8.14933 9.9987 8 9.84936 8 9.66536C8 9.48136 8.14933 9.33203 8.33333 9.33203H11C11.184 9.33203 11.3333 9.48136 11.3333 9.66536C11.3333 9.84936 11.184 9.9987 11 9.9987Z" fill="#10A37F"/>
<path d="M11 11.9987H2.33333C2.14933 11.9987 2 11.8494 2 11.6654C2 11.4814 2.14933 11.332 2.33333 11.332H11C11.184 11.332 11.3333 11.4814 11.3333 11.6654C11.3333 11.8494 11.184 11.9987 11 11.9987Z" fill="#10A37F"/>
<path d="M11 13.9987H2.33333C2.14933 13.9987 2 13.8494 2 13.6654C2 13.4814 2.14933 13.332 2.33333 13.332H11C11.184 13.332 11.3333 13.4814 11.3333 13.6654C11.3333 13.8494 11.184 13.9987 11 13.9987Z" fill="#10A37F"/>
</svg>
