<svg width="16" height="16" viewBox="0 0 16 16" fill="none" xmlns="http://www.w3.org/2000/svg">
<path d="M1.41016 4.12361C1.63667 4.12361 1.82031 3.93997 1.82031 3.71346V1.82031H3.71346C3.93997 1.82031 4.12361 1.63667 4.12361 1.41016C4.12361 1.18364 3.93997 1 3.71346 1H1.41016C1.18364 1 1 1.18364 1 1.41016V3.71346C1 3.94 1.18364 4.12361 1.41016 4.12361Z" fill="#262626"/>
<path d="M14.5894 1H12.2861C12.0596 1 11.876 1.18364 11.876 1.41016C11.876 1.63667 12.0596 1.82031 12.2861 1.82031H14.1793V3.71346C14.1793 3.93997 14.3629 4.12361 14.5894 4.12361C14.8159 4.12361 14.9996 3.93997 14.9996 3.71346V1.41016C14.9996 1.18364 14.8159 1 14.5894 1Z" fill="#262626"/>
<path d="M14.5894 11.875C14.3629 11.875 14.1793 12.0586 14.1793 12.2852V14.1783H12.2861C12.0596 14.1783 11.876 14.3619 11.876 14.5885C11.876 14.815 12.0596 14.9986 12.2861 14.9986H14.5894C14.8159 14.9986 14.9996 14.815 14.9996 14.5885V12.2852C14.9996 12.0586 14.8159 11.875 14.5894 11.875Z" fill="#262626"/>
<path d="M3.71346 14.1783H1.82031V12.2852C1.82031 12.0586 1.63667 11.875 1.41016 11.875C1.18364 11.875 1 12.0586 1 12.2852V14.5885C1 14.815 1.18364 14.9986 1.41016 14.9986H3.71346C3.93997 14.9986 4.12361 14.815 4.12361 14.5885C4.12361 14.3619 3.94 14.1783 3.71346 14.1783Z" fill="#262626"/>
<path d="M12.4755 6.23313V3.64285C12.4755 3.51434 12.3714 3.41016 12.2426 3.41016H8.00047H3.75836C3.62957 3.41016 3.52539 3.51434 3.52539 3.64285V6.23313C3.52539 6.36191 3.62957 6.46609 3.75836 6.46609H4.99539C5.12391 6.46609 5.22809 6.36191 5.22809 6.23313V5.34582C5.22809 5.21703 5.33254 5.11285 5.46105 5.11285H6.91602C7.0448 5.11285 7.14898 5.21703 7.14898 5.34582V11.7481C7.14898 11.8769 7.0448 11.9811 6.91602 11.9811H6.27973C6.15094 11.9811 6.04676 12.0852 6.04676 12.214V13.4511C6.04676 13.5796 6.15094 13.6837 6.27973 13.6837H8.00047H9.72121C9.85 13.6837 9.95418 13.5796 9.95418 13.4511V12.214C9.95418 12.0852 9.85 11.9811 9.72121 11.9811H9.08492C8.95613 11.9811 8.85195 11.8769 8.85195 11.7481V5.34582C8.85195 5.21703 8.95613 5.11285 9.08492 5.11285H10.5399C10.6684 5.11285 10.7729 5.21703 10.7729 5.34582V6.23313C10.7729 6.36191 10.877 6.46609 11.0055 6.46609H12.2426C12.3714 6.46609 12.4755 6.36191 12.4755 6.23313Z" fill="#262626"/>
</svg>
