<svg width="120" height="60" viewBox="0 0 120 60" fill="none" xmlns="http://www.w3.org/2000/svg">
<path d="M96.9748 34.7255C95.8498 33.6005 94.7998 32.4755 93.6748 31.4255C89.4748 27.1505 85.3498 22.9505 81.1498 18.6755C81.0748 18.6005 80.9998 18.5255 80.9248 18.4505C80.9998 18.3005 80.9998 18.3005 81.0748 18.2255C82.8748 16.5005 84.8248 15.0755 87.0748 13.8755C87.1498 13.8755 87.2248 13.8005 87.2998 13.8005C87.4498 13.8755 87.5998 13.8755 87.7498 13.8755C88.1248 13.9505 88.4998 14.0255 88.8748 14.0255C89.3248 14.0255 89.7748 14.1005 90.2248 14.1755C90.7498 14.2505 91.2748 14.2505 91.7998 14.3255C92.3248 14.4005 92.9248 14.4005 93.4498 14.4005C94.0498 14.4005 94.7248 14.4755 95.3248 14.4755C95.3998 14.4755 95.4748 14.4755 95.5498 14.4755C95.5498 15.2255 95.6248 15.9755 95.6248 16.6505C95.6248 18.4505 95.6248 20.2505 95.5498 21.9755C95.4748 22.6505 95.4748 23.4005 95.5498 24.1505C95.6248 24.7505 95.5498 25.3505 95.6248 25.9505C95.6248 26.3255 95.6998 26.7005 95.6998 27.0755C95.6998 27.3005 95.6998 27.4505 95.7748 27.6755C95.8498 28.3505 95.9248 28.9505 95.9998 29.6255C96.0748 30.3005 96.2248 31.0505 96.3748 31.7255C96.5248 32.7005 96.7498 33.6005 96.9748 34.5005C97.0498 34.6505 97.0498 34.7255 96.9748 34.7255Z" fill="#3D0029"/>
<path d="M32.2498 33.0009C32.4748 32.8509 32.5498 32.7009 32.6998 32.6259C33.5248 32.0259 34.4248 31.6509 35.4748 31.5009C36.3748 31.4259 37.2748 31.4259 38.0998 31.7259C39.2998 32.1009 40.1248 32.8509 40.5748 33.9759C40.7998 34.5759 40.9498 35.2509 41.0248 35.8509C41.0248 36.2259 41.0998 36.5259 41.0998 36.9009C41.0998 39.6009 41.0998 42.2259 41.0998 44.9259C41.0998 45.3009 41.0998 45.2259 40.7998 45.2259C39.8248 45.2259 38.8498 45.2259 37.9498 45.2259C37.8748 45.2259 37.7998 45.2259 37.7998 45.2259C37.7248 45.2259 37.6498 45.1509 37.6498 45.0759C37.6498 45.0009 37.6498 44.9259 37.6498 44.8509C37.6498 42.3009 37.6498 39.7509 37.6498 37.1259C37.6498 36.6759 37.6498 36.3009 37.5748 35.9259C37.4998 35.7759 37.4998 35.6259 37.4248 35.4759C37.1998 35.1009 36.8998 34.8759 36.5248 34.8009C35.5498 34.6509 34.7248 34.8759 33.8998 35.4009C33.0748 36.0009 32.6998 36.8259 32.4748 37.7259C32.3998 38.1009 32.3998 38.4759 32.3998 38.7759C32.3998 40.8009 32.3998 42.8259 32.3998 44.8509C32.3998 45.1509 32.3998 45.1509 32.0998 45.1509C31.1248 45.1509 30.1498 45.1509 29.1748 45.1509C29.0998 45.1509 29.0998 45.1509 29.0248 45.1509C28.8748 45.1509 28.8748 45.1509 28.8748 45.0009C28.8748 44.9259 28.8748 44.8509 28.8748 44.7759C28.8748 39.7509 28.8748 34.7259 28.8748 29.7009C28.8748 29.6259 28.8748 29.5509 28.8748 29.5509C28.8748 29.3259 28.8748 29.3259 28.6498 29.3259C28.4248 29.3259 28.4248 29.3259 28.4248 29.1009C28.4248 28.6509 28.4248 28.1259 28.4248 27.6759C28.4248 27.4509 28.4248 27.4509 28.6498 27.4509C29.3998 27.4509 30.1498 27.4509 30.8248 27.4509C30.9748 27.4509 31.0498 27.5259 31.1998 27.6009C31.5748 27.8259 31.8748 28.0509 32.2498 28.2009C32.3998 28.2759 32.4748 28.3509 32.3998 28.5009C32.3998 29.8509 32.3998 31.2009 32.3998 32.5509C32.2498 32.7759 32.2498 32.8509 32.2498 33.0009Z" fill="#89CDD3"/>
<path d="M54.3751 40.5764C54.8251 41.2514 55.2001 41.9264 55.6501 42.6764C55.7251 42.8264 55.8001 42.9764 55.8751 43.1264C55.9501 43.2764 55.9501 43.3514 55.8001 43.4264C55.4251 43.8014 54.9751 44.1764 54.4501 44.4764C53.6251 45.0014 52.6501 45.3764 51.6751 45.5264C51.0751 45.6014 50.5501 45.6764 49.9501 45.6014C49.2001 45.5264 48.5251 45.4514 47.8501 45.1514C45.9001 44.4764 44.5501 43.1264 43.8001 41.2514C43.4251 40.3514 43.3501 39.4514 43.3501 38.5514C43.3501 37.5014 43.5001 36.5264 43.9501 35.5514C44.2501 34.8764 44.6251 34.2014 45.1501 33.6764C46.1251 32.6264 47.3251 31.9514 48.7501 31.6514C49.4251 31.5014 50.0251 31.5014 50.7001 31.5764C52.1251 31.7264 53.4001 32.1764 54.3751 33.2264C55.1251 33.9764 55.5751 34.9514 55.8001 35.9264C56.0251 36.7514 56.0251 37.5764 56.0251 38.4014C56.0251 38.7014 55.9501 39.0014 55.9501 39.3014C55.9501 39.4514 55.8751 39.4514 55.8001 39.4514C55.7251 39.4514 55.6501 39.4514 55.5751 39.4514C52.8751 39.4514 50.1001 39.4514 47.4001 39.4514C47.0251 39.4514 47.0251 39.4514 47.1751 39.8264C47.3251 40.4264 47.6251 40.9514 48.0751 41.4014C48.6751 42.0014 49.4251 42.3014 50.3251 42.3764C51.8251 42.5264 53.0251 41.9264 54.0751 40.9514C54.1501 40.8764 54.2251 40.8014 54.3001 40.8014C54.2251 40.7264 54.3001 40.6514 54.3751 40.5764ZM49.8001 36.5264C50.3251 36.5264 50.9251 36.5264 51.4501 36.5264C51.6751 36.5264 51.9751 36.5264 52.2001 36.5264C52.2751 36.5264 52.3501 36.4514 52.3501 36.3764C52.2001 35.5514 51.6001 34.8014 50.7751 34.5764C50.4751 34.5014 50.1751 34.5014 49.8001 34.5014C48.7501 34.5764 48.0001 35.1014 47.4751 36.0014C47.4001 36.1514 47.3251 36.2264 47.3251 36.3764C47.3251 36.4514 47.3251 36.5264 47.4001 36.5264C47.4751 36.5264 47.5501 36.5264 47.5501 36.5264C48.3001 36.5264 49.0501 36.5264 49.8001 36.5264Z" fill="#89CDD3"/>
<path d="M77.4001 38.5491C77.4001 37.3491 77.6251 36.2241 78.2251 35.1741C78.9001 33.9741 79.8001 32.9991 81.0751 32.3241C81.8251 31.8741 82.7251 31.6491 83.5501 31.4991C85.4251 31.2741 87.2251 31.5741 88.8001 32.6991C90.3751 33.7491 91.4251 35.2491 91.8001 37.1991C92.0251 38.6241 91.8751 40.0491 91.3501 41.3241C90.9751 42.0741 90.5251 42.8241 89.9251 43.4241C88.8751 44.4741 87.6001 45.1491 86.1751 45.3741C85.7251 45.4491 85.2001 45.5241 84.6751 45.5241C82.9501 45.5241 81.3751 44.9991 80.0251 43.9491C79.0501 43.1991 78.3751 42.2241 77.9251 41.0991C77.5501 40.2741 77.3251 39.3741 77.4001 38.5491ZM88.2001 38.3991C88.2001 37.8741 88.1251 37.2741 87.8251 36.7491C87.5251 36.0741 87.0001 35.5491 86.4001 35.1741C85.6501 34.7241 84.8251 34.5741 83.9251 34.7241C82.6501 34.9491 81.8251 35.6241 81.2251 36.7491C80.8501 37.5741 80.7751 38.3991 80.9251 39.2991C81.0751 40.2741 81.6001 41.0241 82.3501 41.6241C83.1001 42.1491 83.9251 42.3741 84.9001 42.2991C85.8751 42.2241 86.7001 41.7741 87.3001 40.9491C87.9751 40.2741 88.2751 39.4491 88.2001 38.3991Z" fill="#89CDD3"/>
<path d="M18.975 27.6013C21.45 27.6013 24 27.6013 26.475 27.6013C26.55 27.6013 26.55 27.6013 26.625 27.6013C26.925 27.6013 26.925 27.6013 26.925 27.9013C26.925 29.1013 26.925 30.3013 26.925 31.5013C26.925 31.8013 27 32.0263 26.925 32.3263C26.925 32.5513 26.925 32.5513 26.7 32.5513C25.725 32.5513 24.75 32.5513 23.85 32.5513C23.625 32.5513 23.625 32.5513 23.625 32.3263C23.625 31.8763 23.625 31.5013 23.625 31.0513C23.625 30.8263 23.625 30.8263 23.4 30.8263C22.575 30.8263 21.75 30.8263 20.925 30.8263C20.7 30.8263 20.7 30.8263 20.7 31.0513C20.7 31.1263 20.7 31.2013 20.7 31.2763C20.7 35.8513 20.7 40.4263 20.7 44.9263C20.7 45.3013 20.7 45.3013 20.325 45.3013C19.35 45.3013 18.375 45.3013 17.4 45.3013C17.325 45.3013 17.25 45.3013 17.175 45.3013C17.1 45.3013 17.025 45.2263 17.025 45.1513C17.025 45.0763 17.025 45.0013 17.025 44.9263C17.025 40.3513 17.025 35.7763 17.025 31.2013C17.025 30.8263 17.025 30.8263 16.65 30.8263C15.9 30.8263 15.15 30.8263 14.4 30.8263C14.175 30.8263 14.175 30.8263 14.175 31.0513C14.175 31.4263 14.175 31.8013 14.175 32.2513C14.175 32.4763 14.175 32.4763 13.95 32.4763C12.975 32.4763 12 32.4763 11.1 32.4763C10.875 32.4763 10.875 32.4763 10.875 32.2513C10.875 31.9513 10.875 31.7263 10.875 31.4263C10.875 30.3013 10.875 29.1013 10.875 27.9763C10.875 27.9013 10.875 27.8263 10.875 27.7513C10.875 27.6013 10.95 27.6013 11.025 27.6013C11.1 27.6013 11.175 27.6013 11.25 27.6013C13.875 27.6013 16.425 27.6013 18.975 27.6013Z" fill="#88CDD3"/>
<path d="M96.975 34.725C97.05 34.65 97.05 34.65 96.975 34.575C96.75 33.675 96.525 32.7 96.375 31.8C96.225 31.125 96.15 30.375 96 29.7C95.925 29.025 95.85 28.425 95.775 27.75C95.775 27.525 95.7 27.3 95.7 27.15C95.7 26.775 95.625 26.4 95.625 26.025C95.55 25.425 95.625 24.825 95.55 24.225C95.475 23.475 95.55 22.8 95.55 22.05C95.625 20.25 95.625 18.45 95.625 16.725C95.625 15.975 95.55 15.225 95.55 14.55C95.775 14.55 96 14.625 96.3 14.625C96.975 14.625 97.575 14.625 98.25 14.625C99.975 14.625 101.7 14.625 103.35 14.55C103.725 14.55 104.1 14.475 104.55 14.475C104.85 14.475 105.15 14.475 105.45 14.4C105.9 14.325 106.35 14.325 106.8 14.25C106.875 14.25 106.95 14.25 106.95 14.325C104.775 15.75 102.6 17.175 100.35 18.6C100.05 18.825 100.05 18.825 100.05 19.125C100.2 20.325 100.35 21.6 100.425 22.8C100.5 23.85 100.65 24.825 100.725 25.875C100.8 26.55 100.8 27.15 100.8 27.825C100.875 29.175 100.95 30.525 101.025 31.95C101.025 32.25 101.025 32.475 100.875 32.7C100.275 34.125 99.675 35.475 99.075 36.9C99.075 36.975 99 37.05 99 37.05C98.925 37.05 98.925 37.05 98.85 36.975C98.4 36.15 97.725 35.475 96.975 34.725Z" fill="#6F617E"/>
<path d="M60 40.2754C60.15 40.4254 60.225 40.5754 60.375 40.7254C61.05 41.5504 61.95 42.0754 63 42.3004C63.525 42.4504 64.125 42.4504 64.65 42.2254C64.875 42.1504 65.1 42.0004 65.175 41.7754C65.325 41.4754 65.325 41.1754 65.025 40.9504C64.875 40.8004 64.725 40.7254 64.575 40.5754C64.05 40.2754 63.45 40.0504 62.85 39.8254C62.025 39.5254 61.275 39.1504 60.525 38.7004C59.925 38.3254 59.4 37.8754 59.025 37.2754C58.725 36.7504 58.575 36.2254 58.575 35.7004C58.575 35.1754 58.575 34.6504 58.8 34.1254C59.025 33.4504 59.475 32.8504 60.075 32.4004C60.75 31.8754 61.575 31.5754 62.4 31.5004C63 31.4254 63.675 31.3504 64.275 31.4254C65.175 31.5004 66.15 31.6504 66.975 32.1754C67.65 32.5504 68.175 33.0754 68.325 33.9004C68.4 34.1254 68.4 34.2754 68.4 34.5004C68.4 34.9504 68.4 35.4004 68.4 35.9254C68.4 36.2254 68.4 36.2254 68.1 36.2254C67.2 36.2254 66.225 36.2254 65.325 36.2254C65.1 36.2254 65.1 36.2254 65.1 36.0004C65.1 35.7004 65.1 35.4754 65.1 35.1754C65.1 35.0254 65.025 34.9504 64.875 34.8754C64.575 34.7254 64.275 34.6504 63.975 34.6504C63.6 34.6504 63.225 34.6504 62.85 34.7254C62.625 34.8004 62.475 34.8754 62.325 35.0254C62.1 35.2504 62.1 35.7004 62.325 35.9254C62.625 36.2254 63 36.4504 63.45 36.6004C64.125 36.9004 64.8 37.1254 65.55 37.4254C66.3 37.7254 67.05 38.1004 67.725 38.7004C68.475 39.3754 68.925 40.2004 68.925 41.2504C68.925 41.9254 68.85 42.6004 68.55 43.2004C68.1 44.1004 67.35 44.7754 66.45 45.1504C65.775 45.4504 65.025 45.6004 64.35 45.6754C63 45.7504 61.65 45.5254 60.45 44.8504C59.625 44.4004 58.875 43.8754 58.275 43.0504C58.2 42.9754 58.2 42.9004 58.275 42.7504C58.875 42.0004 59.475 41.2504 60 40.5004C59.85 40.3504 59.925 40.3504 60 40.2754Z" fill="#89CDD3"/>
<path d="M74.9249 38.9255C74.9249 40.9505 74.9249 42.9005 74.9249 44.9255C74.9249 45.2255 74.9249 45.2255 74.6249 45.2255C73.7249 45.2255 72.7499 45.2255 71.8499 45.2255H71.7749C71.5499 45.2255 71.5499 45.2255 71.5499 45.0005C71.5499 44.9255 71.5499 44.8505 71.5499 44.8505C71.5499 41.2505 71.5499 37.5755 71.5499 33.9755C71.5499 33.6755 71.5499 33.6755 71.2499 33.6755C71.0999 33.6755 71.0249 33.6755 71.0249 33.5255C71.0249 33.0005 71.0249 32.5505 71.0249 32.0255C71.0249 31.8005 71.0249 31.8005 71.2499 31.8005C71.9249 31.8005 72.6749 31.8005 73.3499 31.8005C73.4249 31.8005 73.4999 31.8005 73.5749 31.8755C73.9499 32.1005 74.3249 32.3255 74.6999 32.5505C74.8499 32.6255 74.9249 32.7755 74.9249 32.9255C74.9249 34.8755 74.9249 36.9005 74.9249 38.9255Z" fill="#89CDD3"/>
<path d="M107.025 14.25C106.95 14.175 106.95 14.175 106.875 14.175C106.425 14.25 105.975 14.25 105.525 14.325C105.225 14.325 104.925 14.4 104.625 14.4C104.25 14.4 103.875 14.475 103.425 14.475C101.7 14.55 99.975 14.625 98.325 14.55C97.65 14.55 97.05 14.55 96.375 14.55C96.15 14.55 95.925 14.475 95.625 14.475C95.625 14.025 95.55 13.5 95.55 13.05C95.55 12.45 95.475 11.85 95.4 11.25C95.925 11.175 96.45 11.1 96.9 11.1C97.95 11.025 98.925 10.95 99.975 11.025C100.575 11.025 101.25 11.1 101.85 11.175C102.675 11.25 103.5 11.4 104.325 11.55C105.825 11.85 107.325 12.3 108.75 12.9C108.825 12.9 108.9 12.9 108.9 12.975C108.9 13.05 108.825 13.05 108.825 13.05C108.3 13.425 107.775 13.725 107.25 14.025C107.25 14.1 107.175 14.175 107.025 14.25Z" fill="#88CDD3"/>
<path d="M95.475 11.25C95.55 11.85 95.55 12.45 95.625 13.05C95.625 13.5 95.7 14.025 95.7 14.475C95.625 14.475 95.55 14.475 95.475 14.475C94.875 14.475 94.2 14.4 93.6 14.4C93.075 14.4 92.475 14.325 91.95 14.325C91.425 14.25 90.9 14.25 90.375 14.175C89.925 14.1 89.475 14.1 89.025 14.025C88.65 14.025 88.275 13.95 87.9 13.875C87.75 13.875 87.6 13.875 87.45 13.8C87.525 13.725 87.6 13.725 87.675 13.65C90 12.45 92.475 11.625 95.1 11.25C95.1 11.325 95.25 11.25 95.475 11.25Z" fill="#592844"/>
</svg>
