<svg width="11" height="16" viewBox="0 0 11 16" fill="none" xmlns="http://www.w3.org/2000/svg">
<path d="M10 6H6.04138L6.66394 0.745361C6.66602 0.732666 6.66663 0.680054 6.66663 0.666626C6.66663 0.292725 6.37402 0 6 0C5.79138 0 5.59131 0.0993653 5.45605 0.281982L0.133301 8.26672C0.0473633 8.38135 0 8.52332 0 8.66663C0 9.04065 0.292725 9.33337 0.666626 9.33337H3.96265L3.33533 15.2646C3.33398 15.2766 3.33337 15.3213 3.33337 15.3334C3.33337 15.7073 3.62598 16 4 16C4.20862 16 4.40869 15.9006 4.54065 15.7227L10.5333 7.06665C10.6194 6.95203 10.6666 6.81006 10.6666 6.66663C10.6666 6.29272 10.374 6 10 6Z" fill="#FFC107"/>
</svg>
