<svg width="120" height="60" viewBox="0 0 120 60" fill="none" xmlns="http://www.w3.org/2000/svg">
<path fill-rule="evenodd" clip-rule="evenodd" d="M39.7121 32.1914V27.8414H38.6621V26.1914H39.7121V23.9414H41.6621V26.1914H43.9121V27.8414H41.6621V31.8914C41.6621 32.6414 42.0371 32.9414 42.7121 32.9414C43.1621 32.9414 43.5371 32.8664 43.9121 32.6414V34.2164C43.4621 34.5164 42.9371 34.6664 42.1871 34.6664C40.6871 34.6664 39.7121 34.0664 39.7121 32.1914Z" fill="#414042"/>
<path d="M45.5625 23.1152H47.5875V24.9152H45.5625V23.1152ZM45.6375 26.1902H47.5875V34.5152H45.6375V26.1902Z" fill="#414042"/>
<path fill-rule="evenodd" clip-rule="evenodd" d="M49.2371 30.391C49.2371 27.991 51.0371 26.041 53.5871 26.041C55.1621 26.041 56.1371 26.641 56.9621 27.466L55.7621 28.741C55.1621 28.141 54.5621 27.691 53.5871 27.691C52.1621 27.691 51.1871 28.891 51.1871 30.316C51.1871 31.816 52.2371 32.941 53.6621 32.941C54.5621 32.941 55.2371 32.566 55.8371 31.891L56.9621 33.016C56.1371 33.916 55.1621 34.591 53.5121 34.591C51.1121 34.741 49.2371 32.791 49.2371 30.391Z" fill="#414042"/>
<path fill-rule="evenodd" clip-rule="evenodd" d="M58.4621 23.041H60.4121V29.866L63.8621 26.191H66.1871L62.8871 29.566L66.2621 34.516H64.0871L61.6121 30.916L60.4121 32.116V34.516H58.4621V23.041Z" fill="#414042"/>
<path d="M66.4871 30.391C66.4871 27.991 68.2121 26.041 70.6121 26.041C73.3121 26.041 74.5871 28.141 74.5871 30.541C74.5871 30.691 74.5871 30.916 74.5871 31.066H68.4371C68.6621 32.416 69.6371 33.166 70.8371 33.166C71.7371 33.166 72.4121 32.791 73.0871 32.191L74.2121 33.166C73.3871 34.141 72.3371 34.741 70.7621 34.741C68.3621 34.741 66.4871 32.941 66.4871 30.391ZM72.7121 29.791C72.5621 28.591 71.8871 27.616 70.6121 27.616C69.4121 27.616 68.5871 28.516 68.4371 29.791H72.7121Z" fill="#414042"/>
<path fill-rule="evenodd" clip-rule="evenodd" d="M76.6125 32.1914V27.8414H75.5625V26.1914H76.6125V23.9414H78.5625V26.1914H80.8125V27.8414H78.5625V31.8914C78.5625 32.6414 78.9375 32.9414 79.6125 32.9414C80.0625 32.9414 80.4375 32.8664 80.8125 32.6414V34.2164C80.3625 34.5164 79.8375 34.6664 79.0875 34.6664C77.6625 34.6664 76.6125 34.0664 76.6125 32.1914Z" fill="#414042"/>
<path fill-rule="evenodd" clip-rule="evenodd" d="M82.6875 23.041H83.8875V34.516H82.6875V23.041Z" fill="#414042"/>
<path d="M85.9121 30.4664C85.9121 28.0664 87.5621 26.1914 89.8121 26.1914C92.2121 26.1914 93.6371 28.1414 93.6371 30.4664C93.6371 30.6164 93.6371 30.6914 93.6371 30.8414H87.1121C87.2621 32.6414 88.5371 33.6164 89.9621 33.6164C91.0871 33.6164 91.9121 33.1664 92.5121 32.4914L93.2621 33.1664C92.4371 34.0664 91.4621 34.6664 89.8871 34.6664C87.7871 34.7414 85.9121 33.0164 85.9121 30.4664ZM92.4371 30.0164C92.2871 28.5164 91.4621 27.2414 89.8121 27.2414C88.3871 27.2414 87.3371 28.4414 87.1121 30.0164H92.4371Z" fill="#414042"/>
<path fill-rule="evenodd" clip-rule="evenodd" d="M94.8369 33.4656L95.4369 32.5656C96.3369 33.2406 97.3119 33.6156 98.2869 33.6156C99.2619 33.6156 100.012 33.0906 100.012 32.3406C100.012 31.5156 99.0369 31.2156 97.9869 30.9156C96.7119 30.5406 95.2869 30.0906 95.2869 28.5906C95.2869 27.1656 96.4869 26.2656 98.0619 26.2656C99.0369 26.2656 100.162 26.6406 100.987 27.1656L100.462 28.0656C99.7119 27.5406 98.8119 27.3156 98.0619 27.3156C97.0869 27.3156 96.4869 27.8406 96.4869 28.5156C96.4869 29.2656 97.5369 29.5656 98.5869 29.9406C99.8619 30.3156 101.212 30.8406 101.212 32.2656C101.212 33.8406 99.9369 34.6656 98.2869 34.6656C97.0869 34.6656 95.7369 34.2156 94.8369 33.4656Z" fill="#414042"/>
<path fill-rule="evenodd" clip-rule="evenodd" d="M102.262 33.4656L102.862 32.5656C103.762 33.2406 104.737 33.6156 105.712 33.6156C106.687 33.6156 107.437 33.0906 107.437 32.3406C107.437 31.5156 106.462 31.2156 105.412 30.9156C104.137 30.5406 102.712 30.0906 102.712 28.5906C102.712 27.1656 103.912 26.2656 105.487 26.2656C106.462 26.2656 107.587 26.6406 108.412 27.1656L107.887 28.0656C107.137 27.5406 106.237 27.3156 105.487 27.3156C104.512 27.3156 103.912 27.8406 103.912 28.5156C103.912 29.2656 104.962 29.5656 106.012 29.9406C107.287 30.3156 108.637 30.8406 108.637 32.2656C108.637 33.8406 107.362 34.6656 105.712 34.6656C104.512 34.6656 103.162 34.2156 102.262 33.4656Z" fill="#414042"/>
<path fill-rule="evenodd" clip-rule="evenodd" d="M15.45 22.0496L16.425 21.0746V19.3496H13.875C13.125 19.3496 12.45 19.9496 12.45 20.7746V21.9746L15.45 22.0496Z" fill="#92278F"/>
<path fill-rule="evenodd" clip-rule="evenodd" d="M21.075 19.4238V21.5238C21.3 21.7488 21.45 22.0488 21.45 22.3488C21.45 22.9488 21 23.3988 20.4 23.3988C19.8 23.3988 19.35 22.9488 19.35 22.3488C19.35 22.0488 19.5 21.7488 19.725 21.5238V19.4238H17.7V21.6738L15.975 23.3988H12.375V24.7488H16.575C16.8 24.3738 17.25 24.0738 17.7 24.0738C18.45 24.0738 19.05 24.6738 19.05 25.4238C19.05 26.1738 18.45 26.7738 17.7 26.7738C17.175 26.7738 16.8 26.4738 16.575 26.0988H12.375V28.1238H18.375V29.9988H22.35V19.4238H21.075Z" fill="#92278F"/>
<path fill-rule="evenodd" clip-rule="evenodd" d="M20.4002 38.4V40.575H22.4252V35.85C20.9252 35.55 19.7252 34.2 19.7252 32.625H22.4252V31.275H17.1002V29.25H12.4502V31.875H15.7502V35.55L17.1002 36.9V40.5H19.1252V38.325C18.7502 38.1 18.4502 37.65 18.4502 37.2C18.4502 36.45 19.0502 35.85 19.8002 35.85C20.5502 35.85 21.1502 36.45 21.1502 37.2C21.0752 37.725 20.8502 38.175 20.4002 38.4Z" fill="#92278F"/>
<path d="M32.3254 19.4238H23.7754V32.6238H26.4754C26.4754 34.1988 25.3504 35.5488 23.7754 35.8488V40.5738H32.4004C33.1504 40.5738 33.8254 39.9738 33.8254 39.1488V20.8488C33.7504 20.0238 33.1504 19.4238 32.3254 19.4238ZM28.4254 26.6988C27.6754 26.6988 27.0754 26.0988 27.0754 25.3488C27.0754 24.5988 27.6754 23.9988 28.4254 23.9988C29.1754 23.9988 29.7754 24.5988 29.7754 25.3488C29.7754 26.0988 29.1754 26.6988 28.4254 26.6988Z" fill="#92278F"/>
<path fill-rule="evenodd" clip-rule="evenodd" d="M15.75 37.5738L14.4 36.2238V33.2988H12.375V39.1488C12.375 39.8988 12.975 40.5738 13.8 40.5738H15.75V37.5738Z" fill="#92278F"/>
</svg>
