<svg width="18" height="18" viewBox="0 0 18 18" fill="none" xmlns="http://www.w3.org/2000/svg">
<path d="M9 17C13.4107 17 17 13.4107 17 9C17 4.58934 13.4107 1 9 1C4.5893 1 1 4.58934 1 9C1 13.4107 4.58934 17 9 17ZM9 2.06665C12.824 2.06665 15.9334 5.17597 15.9334 9C15.9334 12.824 12.824 15.9334 9 15.9334C5.17597 15.9334 2.06665 12.824 2.06665 9C2.06665 5.17597 5.17602 2.06665 9 2.06665Z" fill="#B6B6B7" stroke="#B6B6B7" stroke-width="0.5"/>
<path d="M11.3335 11.5486C11.4321 11.6285 11.5494 11.6659 11.6668 11.6659C11.8241 11.6659 11.9788 11.5966 12.0828 11.4659C12.2668 11.2366 12.2294 10.9006 12.0001 10.7165L9.53345 8.74321V4.73254C9.53345 4.43921 9.29346 4.19922 9.00012 4.19922C8.70678 4.19922 8.4668 4.43921 8.4668 4.73254V8.99923C8.4668 9.16191 8.54148 9.3139 8.66679 9.41521L11.3335 11.5486Z" fill="#B6B6B7" stroke="#B6B6B7" stroke-width="0.5"/>
</svg>
