<svg width="32" height="32" viewBox="0 0 32 32" fill="none" xmlns="http://www.w3.org/2000/svg">
<path d="M22.9085 3.64915C22.0506 2.84118 20.952 2.45312 19.8449 2.45312C18.5987 2.45312 17.3411 2.94483 16.403 3.8833L15.9999 4.28636L15.5969 3.88315C14.6588 2.94506 13.4011 2.45312 12.1549 2.45312C11.0477 2.45312 9.94959 2.84118 9.09137 3.64915C7.20404 5.42621 7.17034 8.39776 8.99034 10.2178L16 17.2274L23.0096 10.2178C24.8296 8.39768 24.7959 5.42613 22.9085 3.64915Z" fill="#EF5261"/>
<path d="M13.5431 29.5459L13.5377 22.6006C13.5377 19.2464 11.8195 17.2799 9.54385 16.5392C8.90871 16.347 8.33967 15.842 7.81042 15.3125C6.84886 14.3111 5.8209 12.9415 4.48929 12.9585L4.48806 12.9534C4.05368 12.9591 3.61938 13.116 3.24279 13.4926C2.35965 14.3758 2.71646 15.7251 3.4781 16.4867L5.95217 18.9606C6.18302 19.1914 6.31283 19.5046 6.31283 19.8311C6.31283 20.1577 6.18302 20.4708 5.95217 20.7017L2.60758 17.3573C2.0263 16.7761 1.63132 15.9903 1.52367 15.2018C1.38962 14.2193 1.6908 13.3033 2.37188 12.6222C2.88198 12.1121 3.5078 11.8242 4.19042 11.7514L3.69087 9.73367C3.65301 2.2459 0.000307797 3.16068 0.000307797 4.92212L0 18.0673C0 18.8837 0.316261 19.6532 0.890917 20.2338C7.00714 26.4067 6.15593 24.418 6.15593 29.5459H13.5431Z" fill="#262626"/>
<path d="M31.9998 4.92208C31.9998 3.16072 28.3471 2.24587 28.3092 9.73371L27.8097 11.7514C28.4923 11.8242 29.1181 12.1121 29.6282 12.6222C30.3093 13.3033 30.6105 14.2194 30.4764 15.2018C30.3688 15.9904 29.9739 16.7761 29.3925 17.3573L26.0479 20.7017C25.8171 20.4707 25.6873 20.1577 25.6873 19.8311C25.6873 19.5047 25.8171 19.1915 26.0479 18.9606L28.522 16.4868C29.2836 15.7251 29.6404 14.3757 28.7573 13.4927C28.3807 13.1161 27.9463 12.9591 27.512 12.9534L27.5108 12.9585C26.1792 12.9415 25.1512 14.3111 24.1897 15.3125C23.6603 15.842 23.0913 16.347 22.4562 16.5392C20.1805 17.2799 18.4624 19.2465 18.4624 22.6006L18.457 29.5459H25.8442C25.8442 24.4182 24.9929 26.4067 31.1092 20.2338C31.6839 19.6531 32.0001 18.8836 32.0001 18.0672L31.9998 4.92208Z" fill="#262626"/>
</svg>
