<svg width="22" height="22" viewBox="0 0 22 22" fill="none" xmlns="http://www.w3.org/2000/svg">
<mask id="mask0_596_2037" style="mask-type:luminance" maskUnits="userSpaceOnUse" x="0" y="0" width="22" height="22">
<path d="M22 0H0V22H22V0Z" fill="white"/>
</mask>
<g mask="url(#mask0_596_2037)">
<path d="M20.625 11C20.625 9.09636 20.0605 7.23546 19.0029 5.65264C17.9453 4.06982 16.4421 2.83616 14.6833 2.10766C12.9246 1.37917 10.9893 1.18856 9.12226 1.55995C7.25519 1.93133 5.54018 2.84802 4.1941 4.1941C2.84802 5.54018 1.93133 7.25519 1.55995 9.12226C1.18856 10.9893 1.37917 12.9246 2.10766 14.6833C2.83616 16.4421 4.06982 17.9453 5.65264 19.0029C7.23546 20.0605 9.09636 20.625 11 20.625C12.264 20.625 13.5156 20.376 14.6833 19.8923C15.8511 19.4086 16.9121 18.6997 17.8059 17.8059C18.6997 16.9121 19.4086 15.8511 19.8923 14.6833C20.376 13.5156 20.625 12.264 20.625 11Z" stroke="#278E2B" stroke-width="1.5"/>
<path d="M6.90625 11.5116L9.46425 14.0696L15.0933 7.93262" stroke="#278E2B" stroke-width="1.5" stroke-linecap="round" stroke-linejoin="round"/>
</g>
</svg>
