<svg width="120" height="60" viewBox="0 0 120 60" fill="none" xmlns="http://www.w3.org/2000/svg">
<path d="M33.3 16.0504C33.3 17.2504 32.925 18.3754 31.95 19.1254C31.425 19.5004 30.825 19.7254 30.15 19.8004C29.925 19.8004 29.625 19.8754 29.4 19.9504C29.175 19.9504 29.175 20.0254 29.25 20.2504C29.775 21.2254 30.15 22.2004 30.375 23.2504C30.6 24.5254 30.45 25.7254 30.15 26.9254C29.7 28.6504 29.025 30.2254 28.125 31.8004C27.825 32.2504 27.75 32.7004 27.975 33.2254C28.125 33.5254 28.2 33.8254 28.275 34.0504C28.35 34.2004 28.275 34.3504 28.2 34.5004C27.9 34.7254 27.6 34.8754 27.225 34.8004C26.85 34.7254 26.475 34.5754 26.175 34.3504C26.1 34.2754 26.025 34.2004 26.025 34.0504C25.95 33.6754 25.95 33.3754 26.025 33.0004C26.1 32.7004 25.95 32.4004 25.8 32.1004C25.725 32.0254 25.725 31.9504 25.65 31.9504C25.575 31.8004 25.575 31.6504 25.425 31.5754C25.275 31.5754 25.2 31.6504 25.05 31.7254C24.075 32.1004 23.1 32.0254 22.2 31.6504C22.05 31.5754 21.975 31.5754 21.9 31.7254C21.825 31.8754 21.75 31.9504 21.675 32.1004C21.45 32.4004 21.375 32.7004 21.45 33.0004C21.45 33.2254 21.45 33.5254 21.45 33.7504C21.45 34.1254 21.225 34.3504 20.925 34.5004C20.55 34.6504 20.175 34.8004 19.725 34.7254C19.5 34.6504 19.35 34.5754 19.2 34.4254C19.05 34.2754 18.975 34.2004 19.125 33.9754C19.275 33.6754 19.35 33.3754 19.5 33.0004C19.65 32.5504 19.575 32.1754 19.35 31.8004C18.45 30.3004 17.775 28.7254 17.325 27.0754C16.875 25.3504 16.725 23.7004 17.325 21.9754C17.55 21.3754 17.775 20.7004 18.15 20.1754C18.3 19.8754 18.3 19.9504 18 19.8754C17.55 19.8004 17.1 19.7254 16.65 19.6504C15.225 19.2754 14.475 18.3004 14.25 16.8754C14.1 16.0504 14.175 15.3004 14.4 14.4754C14.4 14.3254 14.475 14.1754 14.625 14.1754C14.85 14.1754 14.85 14.3254 14.85 14.4754C14.925 15.1504 15 15.8254 15.15 16.5004C15.3 17.0254 15.6 17.3254 16.05 17.5504C16.875 17.9254 17.775 18.1504 18.75 18.3004C18.975 18.3754 19.2 18.4504 19.425 18.3754C19.65 18.3004 19.65 18.0004 19.8 17.7754C20.4 16.8004 21.15 15.9754 22.125 15.4504C23.325 14.7754 24.45 14.8504 25.65 15.5254C26.7 16.1254 27.45 17.0254 27.975 18.0754C28.125 18.3004 28.2 18.3754 28.5 18.3004C29.325 18.1504 30.15 17.9254 30.975 17.7004C31.95 17.4004 32.475 16.7254 32.625 15.6754C32.7 15.2254 32.7 14.7754 32.775 14.3254C32.775 14.1754 32.775 14.0254 33 14.0254C33.225 14.0254 33.225 14.1754 33.3 14.3254C33.225 15.0754 33.3 15.5254 33.3 16.0504ZM21.6 25.0504C21.6 25.4254 21.6 25.7254 21.6 26.1004C21.6 26.4754 21.6 26.8504 21.6 27.1504C21.675 28.2754 22.2 28.8754 23.325 29.1004C24.75 29.3254 25.8 28.4254 25.8 27.1504C25.8 26.4754 25.8 25.7254 25.8 25.0504C25.875 25.7254 26.025 26.4004 26.1 27.1504C26.7 26.6254 27.225 26.1004 27.45 25.4254C27.675 24.6754 27.75 23.8504 27.825 23.1004C27.825 22.8004 27.975 22.7254 28.2 22.7254C28.65 22.6504 29.175 22.5754 29.55 22.2754C29.925 22.0504 29.925 21.6004 29.625 21.3004C29.475 21.1504 29.25 21.0004 29.025 21.0004C28.725 20.9254 28.35 20.9254 28.05 21.0004C27.825 21.0004 27.75 21.0004 27.75 20.7754C27.675 20.5504 27.6 20.5504 27.375 20.5504C26.55 20.7004 26.325 20.1004 26.4 19.6504C26.475 19.3504 26.625 19.0504 26.925 18.8254C27 18.7504 27.075 18.7504 27 18.6004C26.475 17.9254 25.875 17.3254 25.05 16.9504C24.15 16.4254 23.325 16.5004 22.425 16.9504C21.75 17.3254 21.15 17.9254 20.625 18.5254C20.475 18.6754 20.475 18.7504 20.7 18.9754C21.075 19.2754 21.225 19.8004 21 20.2504C20.85 20.5504 20.55 20.7004 20.1 20.6254C19.875 20.5504 19.8 20.6254 19.8 20.8504C19.725 21.0004 19.65 21.0754 19.425 21.0754C18.975 21.0004 18.525 21.0004 18.15 21.2254C17.925 21.3754 17.7 21.6004 17.7 21.8254C17.7 22.1254 17.85 22.2754 18.075 22.4254C18.225 22.5004 18.45 22.5754 18.6 22.6504C18.9 22.7254 19.125 22.8004 19.425 22.8754C19.575 22.8754 19.65 22.9504 19.65 23.1004C19.725 23.6254 19.725 24.0754 19.8 24.6004C19.95 25.5754 20.25 26.4754 21.075 27.1504C21.15 27.2254 21.225 27.3004 21.375 27.3004C21.45 26.4004 21.525 25.7254 21.6 25.0504Z" fill="#F69220"/>
<path d="M21.2251 35.0246C21.8251 34.7996 22.0501 34.2746 22.0501 33.5996C22.1251 33.7496 22.2001 33.8246 22.2751 33.9746C22.6501 34.4246 23.1001 34.2746 23.3251 33.7496C23.4751 33.2996 23.9251 33.1496 24.2251 32.9246C24.2251 32.9246 24.2251 32.9246 24.3001 32.9246C24.8251 32.8496 24.8251 32.8496 24.7501 32.3996C25.2001 32.3246 25.3501 32.3996 25.2751 32.9246C25.2751 32.9996 25.2751 33.0746 25.2751 33.0746C25.1251 33.0746 24.9001 33.0746 24.9001 33.2996C24.9001 33.5246 25.1251 33.5246 25.2751 33.5996C25.2751 33.5996 25.2751 33.5996 25.3501 33.5996C25.4251 33.9746 25.3501 34.3496 25.5751 34.5746C25.9501 34.9496 26.4001 35.1746 26.9251 35.3246C27.3751 35.3996 27.7501 35.3996 28.1251 35.1746C28.4251 35.3996 28.6501 35.6246 29.0251 35.6996C29.1001 35.6996 29.2501 35.7746 29.1751 35.9246C29.1751 36.0746 29.0251 36.1496 28.9501 36.1496C28.8751 36.1496 28.8001 36.1496 28.7251 36.1496C28.5751 36.1496 28.5001 36.0746 28.4251 36.2246C28.3501 36.3746 28.2751 36.5246 28.4251 36.6746C28.5001 36.7496 28.5001 36.8996 28.5001 36.9746C28.5001 37.2746 28.6501 37.3496 28.9501 37.3496C29.1751 37.3496 29.4001 37.2746 29.6251 37.1246C29.8501 37.0496 29.9251 36.8996 29.8501 36.6746C29.7001 36.2996 29.8501 35.9996 30.0751 35.6246C30.1501 35.5496 30.2251 35.4746 30.3001 35.5496C30.6001 35.6996 30.9001 35.6246 31.2001 35.6996C31.3501 35.7746 31.5751 36.0746 31.5001 36.2246C31.3501 36.4496 31.5751 36.3746 31.6501 36.4496C31.8751 36.4496 31.8751 36.2996 31.8751 36.0746C31.7251 35.6246 31.4251 35.5496 31.0501 35.3996C30.9001 35.3996 30.8251 35.3246 30.6751 35.2496C30.6001 35.1746 30.5251 35.1746 30.6001 35.0996C30.6001 35.0246 30.7501 35.0246 30.7501 35.0996C31.1251 35.3246 31.6501 35.2496 31.9501 35.7746C32.0251 35.8496 32.1001 35.9246 32.1751 35.9246C32.3251 35.9246 32.2501 35.7746 32.3251 35.6996C32.4751 35.8496 32.6251 35.9246 32.7751 35.6246C32.8501 35.4746 32.9251 35.4746 33.0751 35.5496C33.1501 35.6246 33.3001 35.6996 33.3751 35.8496C33.5251 36.0746 33.5251 36.3746 33.3751 36.5996C33.0001 36.8996 32.8501 36.7496 32.6251 36.7496C32.3251 36.6746 32.3251 36.6746 32.4001 36.9746C32.4751 37.1246 32.4001 37.1996 32.2501 37.2746C32.1751 37.3496 32.0251 37.3496 31.9501 37.2746C31.8001 37.1996 31.7251 37.1996 31.5751 37.1996C31.4251 37.1996 31.2751 37.1996 31.2001 36.9746C31.1251 36.7496 31.0501 36.7496 30.9001 36.8246C30.5251 36.8996 30.2251 37.0496 30.0001 37.4246C29.9251 37.5746 29.8501 37.6496 29.7001 37.6496C29.1751 37.7996 28.8751 38.2496 28.9501 38.7746C28.9501 38.9246 28.9501 39.0746 28.8001 39.1496C28.5751 39.2246 28.5001 39.3746 28.5001 39.5246C28.4251 39.7496 28.3501 39.9746 28.2751 40.1996C28.1251 40.7246 28.2751 41.1746 28.8001 41.5496C28.9501 41.6246 29.1001 41.7746 29.1751 41.9246C29.2501 42.0746 29.3251 42.1496 29.4751 42.2246C29.5501 42.2996 29.7751 42.2996 29.7001 42.4496C27.5251 43.0496 25.2751 43.4246 23.0251 43.6496C21.2251 43.7996 19.5001 43.7996 17.7001 43.5746C17.7001 43.1996 17.5501 42.8996 17.1751 42.5996C16.8751 42.3746 16.5001 42.1496 16.2001 41.8496C16.0501 41.6246 15.9001 41.4746 16.0501 41.1746C16.1251 41.0996 16.0501 41.0246 15.9751 41.0246C15.8251 40.9496 15.6751 41.0246 15.5251 41.0246C15.3751 41.0246 15.2251 40.9496 15.1501 40.7996C15.1501 40.5746 15.3001 40.6496 15.4501 40.6496C15.6001 40.6496 15.6751 40.5746 15.6751 40.4246C15.6751 40.2746 15.6001 40.1996 15.4501 40.1246C15.3001 40.0496 15.1501 40.0496 15.0001 40.1996C14.8501 40.3496 14.7001 40.4996 14.5501 40.3496C14.3251 40.1996 14.1001 39.9746 14.1001 39.6746C14.1001 39.2996 14.4751 38.6996 14.8501 38.5496C15.0001 38.4746 15.0751 38.5496 15.1501 38.6996C15.2251 39.0746 15.3001 39.0746 15.6001 38.8496C15.8251 38.6996 15.9751 38.7746 16.2001 38.8496C16.3501 38.9996 16.3501 39.1496 16.2751 39.2996V39.3746C16.2751 39.5996 16.2751 39.7496 16.5001 39.8996C16.5751 39.9746 16.6501 39.8996 16.7251 39.8996C16.8751 39.7496 16.8001 39.5246 16.7251 39.3746C16.6501 39.1496 16.6501 38.9996 16.7251 38.7746C16.8751 38.5496 17.1001 38.3996 17.3251 38.2496C17.7001 38.0996 17.9251 37.8746 18.0751 37.4996C18.1501 37.2746 18.3001 37.1246 18.5251 37.1246C18.8251 37.0496 19.1251 37.0496 19.3501 36.8246C19.4251 36.7496 19.5001 36.8246 19.5751 36.8246C19.8751 36.8996 20.1751 36.8246 20.4751 36.6746C20.5501 36.6746 20.6251 36.5996 20.5501 36.5246C20.5501 36.4496 20.4751 36.4496 20.4001 36.4496C20.2501 36.4496 20.1751 36.4496 20.0251 36.3746C19.9501 36.3746 19.8001 36.2996 19.8001 36.1496C19.8001 35.9996 19.8751 35.9996 19.9501 35.9246C20.2501 35.7746 20.5501 35.7746 20.9251 35.7746C20.9251 35.9246 20.7751 35.9246 20.7001 35.9996C20.6251 36.1496 20.6251 36.2246 20.7751 36.2996C21.0001 36.3746 21.2251 36.4496 21.4501 36.4496C21.6751 36.3746 21.7501 36.2246 21.7501 35.9996C21.7501 35.7746 21.6001 35.7746 21.4501 35.7746C21.3751 35.7746 21.2251 35.7746 21.3001 35.6246C21.5251 35.3246 21.3001 35.1746 21.2251 35.0246ZM16.4251 40.4246C16.5001 40.4246 16.5751 40.4246 16.6501 40.2746C16.6501 40.1246 16.3501 39.9746 16.2001 39.9746C16.1251 39.9746 16.0501 39.9746 16.0501 40.0496C16.0501 40.2746 16.2001 40.4246 16.4251 40.4246ZM30.5251 36.2246C30.5251 36.4496 30.5251 36.5246 30.6751 36.5996C30.7501 36.5996 30.8251 36.5996 30.8251 36.5246C30.8251 36.3746 30.6751 36.2996 30.5251 36.2246Z" fill="#1C2B39"/>
<path d="M29.6248 42.3013C29.6998 42.0763 29.4748 42.0763 29.3998 42.0763C29.2498 42.0013 29.1748 42.0013 29.0998 41.8513C29.0248 41.7013 28.8748 41.6263 28.7248 41.4763C28.2748 41.1763 28.0498 40.7263 28.1998 40.1263C28.2748 39.9013 28.3498 39.6763 28.4248 39.4513C28.4998 39.3013 28.5748 39.1513 28.7248 39.0763C28.8748 39.0013 28.9498 38.9263 28.8748 38.7013C28.7998 38.1763 29.0998 37.7263 29.6248 37.5763C29.7748 37.5763 29.8498 37.5013 29.9248 37.3513C30.1498 36.9763 30.4498 36.9013 30.8248 36.7513C30.9748 36.6763 31.1248 36.7513 31.1248 36.9013C31.1998 37.1263 31.3498 37.0513 31.4998 37.1263C31.6498 37.1263 31.7998 37.1263 31.8748 37.2013C31.9498 37.2763 32.0248 37.3513 32.1748 37.2013C32.2498 37.1263 32.3248 37.0513 32.3248 36.9013C32.2498 36.6013 32.2498 36.6013 32.5498 36.6763C32.6998 36.7513 32.9248 36.8263 33.0748 36.6013C33.2248 36.3763 33.2248 36.0763 33.0748 35.8513C32.9998 35.7763 32.9248 35.6263 32.7748 35.5513C32.6248 35.4763 32.5498 35.4763 32.4748 35.6263C32.5498 36.0013 32.3998 36.0013 32.2498 35.7763C32.1748 35.8513 32.2498 36.0013 32.0998 36.0013C31.9498 36.0013 31.8748 35.9263 31.8748 35.8513C31.6498 35.4013 31.1248 35.4013 30.6748 35.1763C30.5998 35.1763 30.5248 35.1763 30.5248 35.1763C30.4498 35.2513 30.5248 35.3263 30.5998 35.3263C30.6748 35.4013 30.8248 35.4763 30.9748 35.4763C31.3498 35.5513 31.6498 35.7013 31.7998 36.1513C31.8748 36.3763 31.7998 36.5263 31.5748 36.5263C31.4998 36.5263 31.2748 36.5263 31.4248 36.3013C31.4998 36.1513 31.2748 35.8513 31.1248 35.7763C30.8248 35.7013 30.5248 35.7763 30.2248 35.6263C30.1498 35.5513 29.9998 35.6263 29.9998 35.7013C29.8498 36.0013 29.6998 36.3763 29.7748 36.7513C29.8498 36.9763 29.7748 37.1263 29.5498 37.2013C29.3248 37.2763 29.0998 37.4263 28.8748 37.4263C28.5748 37.4263 28.4248 37.2763 28.4248 37.0513C28.4248 36.9013 28.4248 36.8263 28.3498 36.7513C28.2748 36.6013 28.2748 36.4513 28.3498 36.3013C28.4248 36.1513 28.5748 36.1513 28.6498 36.2263C28.7248 36.2263 28.7998 36.2263 28.8748 36.2263C29.0248 36.2263 29.0998 36.1513 29.0998 36.0013C29.0998 35.8513 29.0248 35.7763 28.9498 35.7763C28.5748 35.6263 28.3498 35.4013 28.0498 35.2513C28.3498 35.0263 28.5748 34.8763 28.7998 34.5763C28.8748 34.4263 28.8748 34.2763 28.8748 34.1263C28.7248 33.7513 28.5748 33.3013 28.4248 32.9263C28.3498 32.7013 28.3498 32.4763 28.4998 32.2513C28.5748 32.1763 28.5748 32.1013 28.5748 32.1013C28.8748 31.6513 28.8748 31.6513 29.2498 31.9513C30.2248 32.5513 31.1248 33.2263 31.7998 34.1263C31.5748 34.2013 31.5748 34.5013 31.3498 34.5013V34.5763C31.3498 34.7263 31.4248 34.8763 31.4998 34.9513C31.5748 35.1013 31.7998 35.1013 31.8748 35.0263C31.9498 34.8763 32.1748 34.8013 32.2498 34.6513C32.8498 35.4013 33.3748 36.2263 33.6748 37.2013C33.5248 37.2013 33.4498 37.0513 33.2998 37.0513C33.3748 37.4263 33.5998 37.5013 33.8998 37.6513C34.1998 38.4013 34.3498 39.1513 34.4248 39.9013V39.9763C34.4998 40.7263 34.4998 40.7263 33.8248 40.9513C32.5498 41.4763 31.1248 42.0013 29.6248 42.3013ZM31.9498 35.4013C31.8748 35.3263 31.8748 35.3263 31.9498 35.4013C31.7998 35.3263 31.8748 35.4013 31.9498 35.4013C31.9498 35.5513 32.0248 35.6263 32.0998 35.7013V35.6263C32.0998 35.5513 32.0248 35.4013 31.9498 35.4013ZM29.8498 33.6013C29.8498 33.5263 29.8498 33.3763 29.6998 33.3013C29.5498 33.2263 29.4748 33.1513 29.3998 33.0013C29.3998 32.9263 29.3248 32.9263 29.2498 32.9263C29.1748 32.9263 29.1748 33.0013 29.1748 33.0763C29.1748 33.2263 29.1748 33.4513 29.1748 33.6013C29.1748 33.8263 29.2498 33.9763 29.4748 33.9763C29.6248 34.1263 29.8498 33.9013 29.8498 33.6013Z" fill="#717F89"/>
<path d="M21.2251 35.0247C21.3001 35.1747 21.4501 35.3247 21.3001 35.4747C21.2251 35.5497 21.3751 35.6247 21.4501 35.6247C21.6001 35.6247 21.7501 35.6247 21.7501 35.8497C21.7501 36.0747 21.6751 36.2247 21.4501 36.2997C21.2251 36.3747 21.0001 36.2997 20.7751 36.1497C20.6251 36.0747 20.6251 35.9997 20.7001 35.8497C20.7751 35.7747 20.8501 35.6997 20.9251 35.6247C20.6251 35.6247 20.2501 35.6247 19.9501 35.7747C19.8751 35.8497 19.8001 35.8497 19.8001 35.9997C19.8001 36.1497 19.8751 36.1497 20.0251 36.2247C20.1001 36.2247 20.2501 36.2997 20.4001 36.2997C20.4751 36.2997 20.5501 36.2997 20.5501 36.3747C20.5501 36.4497 20.5501 36.5247 20.4751 36.5247C20.1751 36.7497 19.8751 36.7497 19.5751 36.6747C19.5001 36.6747 19.4251 36.5997 19.3501 36.6747C19.1251 36.8997 18.8251 36.8997 18.5251 36.9747C18.3001 37.0497 18.1501 37.1997 18.0751 37.3497C18.0001 37.7247 17.7001 37.9497 17.3251 38.0997C17.1001 38.2497 16.8751 38.3247 16.7251 38.6247C16.5751 38.8497 16.6501 38.9997 16.7251 39.2247C16.8001 39.3747 16.8751 39.5997 16.7251 39.7497C16.6501 39.8247 16.5751 39.8247 16.5001 39.7497C16.3501 39.5997 16.3501 39.3747 16.2751 39.2247V39.1497C16.3501 38.9997 16.3501 38.8497 16.2001 38.6997C16.0501 38.5497 15.8251 38.5497 15.6001 38.6997C15.2251 38.9247 15.2251 38.9247 15.1501 38.5497C15.0751 38.3997 15.0001 38.3247 14.8501 38.3997C14.4751 38.5497 14.0251 39.1497 14.1001 39.5247C14.1001 39.8247 14.3251 40.0497 14.5501 40.1997C14.7001 40.3497 14.9251 40.1997 15.0001 40.0497C15.1501 39.8997 15.3001 39.8997 15.4501 39.9747C15.6001 40.0497 15.6751 40.1247 15.6751 40.2747C15.6751 40.4247 15.6751 40.4997 15.4501 40.4997C15.3001 40.4997 15.1501 40.4247 15.1501 40.6497C15.1501 40.7997 15.3751 40.8747 15.5251 40.8747C15.6751 40.8747 15.8251 40.8747 15.9751 40.8747C16.0501 40.8747 16.1251 40.9497 16.0501 41.0247C15.9001 41.3247 16.0501 41.4747 16.2001 41.6997C16.4251 42.0747 16.8001 42.2247 17.1751 42.4497C17.4751 42.6747 17.7001 42.9747 17.7001 43.4247C16.8751 43.3497 16.1251 43.1997 15.3751 42.9747C14.6251 42.7497 13.8751 42.4497 13.1251 42.0747C13.0501 42.0747 13.0501 41.9997 12.9751 41.9997C13.0501 41.5497 13.2001 41.0247 13.3501 40.5747C13.4251 40.3497 13.5001 40.1247 13.3501 39.8997C13.2001 39.5997 13.2751 39.3747 13.5001 39.1497C13.5751 39.0747 13.7251 38.9247 13.5751 38.7747C13.5001 38.6247 13.5001 38.4747 13.5001 38.3247C13.5001 38.0997 13.5001 37.9497 13.4251 37.7247C13.3501 37.7997 13.3501 37.8747 13.3501 37.9497C13.2751 38.1747 13.2751 38.3997 13.2001 38.5497C13.1251 38.6997 13.0501 38.6997 12.9751 38.5497C13.1251 37.6497 13.5001 36.8247 13.8751 36.0747C14.9251 34.1247 16.3501 32.6247 18.2251 31.5747C18.3751 31.4997 18.4501 31.4997 18.6001 31.6497C18.9751 32.1747 19.0501 32.6997 18.7501 33.2997C18.6001 33.5247 18.6001 33.7497 18.5251 33.9747C18.4501 34.1247 18.4501 34.1997 18.5251 34.3497C18.5251 34.4247 18.5251 34.4997 18.5251 34.5747C18.5251 34.7247 18.4501 34.8747 18.6001 34.8747C18.7501 34.9497 18.7501 34.7247 18.8251 34.6497C19.1251 34.8747 19.4251 35.0997 19.8751 35.1747C20.3251 35.2497 20.7001 35.1747 21.1501 34.9497C21.0751 35.0997 21.1501 35.0997 21.2251 35.0247ZM16.8001 36.6747C16.8751 36.5997 16.8751 36.5997 16.8001 36.6747C17.0251 36.4497 17.1001 36.2247 17.2501 35.9997C17.3251 35.9247 17.2501 35.9247 17.1751 35.9247C16.9501 35.9247 16.6501 36.2247 16.6501 36.3747C16.6501 36.4497 16.6501 36.5997 16.8001 36.6747ZM17.6251 35.9247C17.5501 35.9997 17.4001 35.9997 17.4001 36.1497C17.4001 36.2997 17.4751 36.4497 17.5501 36.4497C17.7001 36.3747 17.7001 36.2247 17.7751 36.0747C17.8501 35.9247 17.7751 35.9247 17.6251 35.9247ZM17.4001 35.3997C17.4001 35.3247 17.3251 35.2497 17.2501 35.2497C17.1751 35.2497 17.1001 35.3247 17.1751 35.3997C17.1751 35.4747 17.2501 35.6247 17.3251 35.6247C17.4001 35.6247 17.4001 35.4747 17.4001 35.3997Z" fill="#717F89"/>
<path d="M70.125 29.1004C70.2 29.1004 70.2 29.1004 70.125 29.1004C70.35 29.1004 70.65 29.0254 70.875 29.1004C71.1 29.1754 70.95 29.5504 71.025 29.7004C71.175 30.3004 71.625 30.6754 72.15 30.9004C72.825 31.1254 73.5 31.1254 74.25 30.9754C75.075 30.7504 75.45 30.0754 75.3 29.3254C75.225 28.8754 74.925 28.6504 74.475 28.5004C73.95 28.3504 73.425 28.2004 72.9 28.0504C72.375 27.9004 71.85 27.7504 71.325 27.6004C70.2 27.2254 69.675 26.4754 69.6 25.3504C69.6 24.1504 70.2 23.3254 71.25 22.8754C72.525 22.2754 73.875 22.3504 75.15 22.9504C76.05 23.4004 76.575 24.2254 76.725 25.2754C76.725 25.5004 76.725 25.5754 76.5 25.5754C76.05 25.5754 75.675 25.5754 75.225 25.5754C75.15 25.5754 75.075 25.5754 75 25.4254C74.85 24.2254 73.95 23.8504 72.975 23.8504C72.6 23.8504 72.225 23.9254 71.925 24.0754C71.55 24.2254 71.325 24.5254 71.25 24.9754C71.25 25.4254 71.4 25.8004 71.775 26.0254C72.075 26.2504 72.45 26.3254 72.825 26.4004C73.5 26.6254 74.25 26.7754 74.925 26.9254C76.125 27.2254 76.8 28.0504 76.875 29.2504C76.95 30.3004 76.5 31.3504 75.45 31.8754C73.95 32.6254 72.45 32.6254 70.95 31.9504C69.825 31.4254 69.3 30.4504 69.225 29.2504C69.225 29.1004 69.225 29.0254 69.375 29.0254C69.675 29.1004 69.9 29.1004 70.125 29.1004Z" fill="#F69220"/>
<path d="M18.3 45.7513C16.425 45.7513 14.55 45.6013 12.675 45.0013C11.775 44.7013 10.875 44.3263 10.2 43.5763C9.29998 42.6763 9.14998 41.5513 9.44998 40.3513C9.74998 39.0763 10.425 38.0263 11.25 36.9763C11.4 36.7513 11.625 36.5263 11.775 36.3013C11.85 36.2263 11.925 36.0763 12 36.2263C12.075 36.3013 12 36.3763 11.925 36.4513C11.325 37.2013 10.8 38.0263 10.575 39.0013C10.125 40.5763 10.65 41.7763 11.925 42.6763C12.9 43.3513 13.95 43.6513 15.075 43.8763C17.25 44.3263 19.35 44.4763 21.525 44.4013C25.8 44.2513 29.85 43.2763 33.75 41.7763C34.275 41.5513 34.8 41.3263 35.325 41.1013C35.4 41.1013 35.55 40.9513 35.625 41.1013C35.7 41.2513 35.55 41.2513 35.4 41.3263C32.475 42.7513 29.475 43.8763 26.4 44.7013C24.3 45.2263 22.2 45.6013 20.1 45.7513C19.575 45.7513 18.975 45.7513 18.3 45.7513Z" fill="#F69220"/>
<path d="M59.4003 31.3508C58.8003 32.2508 58.0503 32.4758 57.1503 32.4758C55.1253 32.4008 54.3003 30.9758 54.1503 29.4008C54.0753 28.5008 54.1503 27.5258 54.6003 26.7008C55.5753 24.9758 57.9753 24.6758 59.3253 26.1758C59.3253 26.1758 59.4003 26.1758 59.4003 26.2508C59.4003 25.5758 59.4003 24.9758 59.4003 24.3758C59.4003 23.9258 59.4003 23.4758 59.4003 23.0258C59.4003 22.8758 59.4753 22.8008 59.6253 22.8008C60.0003 22.8008 60.3753 22.8008 60.7503 22.8008C60.9003 22.8008 60.9753 22.8758 60.9753 23.0258C60.9753 23.4758 60.9753 23.8508 60.9753 24.3008C60.9753 26.8508 60.9753 29.4008 60.9753 31.9508C60.9753 32.3258 60.9753 32.3258 60.6003 32.3258C60.3003 32.3258 60.0753 32.3258 59.7753 32.3258C59.5503 32.3258 59.5503 32.2508 59.5503 32.1008C59.4003 31.8008 59.4003 31.6508 59.4003 31.3508ZM55.5753 28.9508C55.5753 29.4008 55.6503 29.9258 55.9503 30.3758C56.6253 31.5008 58.2003 31.5758 58.9503 30.4508C59.6253 29.4008 59.6253 28.3508 59.0253 27.2258C58.4253 26.0258 56.7003 26.1008 56.0253 27.2258C55.6503 27.7508 55.5753 28.2758 55.5753 28.9508Z" fill="#1E2D3B"/>
<path d="M99.2251 31.4249C99.2251 32.3999 99.2251 33.2999 99.2251 34.1999C99.2251 34.7999 99.2251 34.7999 98.6251 34.7999C98.4001 34.7999 98.1001 34.7999 97.8751 34.7999C97.7251 34.7999 97.7251 34.7999 97.7251 34.6499V34.5749C97.7251 31.6499 97.7251 28.7249 97.7251 25.7249C97.7251 25.4999 97.8001 25.4249 98.0251 25.4249C98.3251 25.4249 98.7001 25.4249 99.0001 25.4249C99.1501 25.4249 99.1501 25.4999 99.1501 25.5749C99.1501 25.7999 99.1501 26.0249 99.1501 26.1749C99.2251 26.1749 99.2251 26.1749 99.2251 26.1749C99.8251 25.3499 100.65 25.1999 101.55 25.2749C103.35 25.4249 104.175 26.6249 104.4 28.0499C104.55 28.8749 104.475 29.6249 104.25 30.3749C103.575 32.6249 100.95 33.2249 99.2251 31.4249ZM102.975 29.0249C102.975 28.1999 102.825 27.5999 102.45 27.1499C101.7 26.1749 100.125 26.1749 99.5251 27.2249C98.9251 28.2749 98.9251 29.3999 99.6001 30.4499C100.35 31.6499 102 31.4999 102.675 30.2999C102.9 29.8499 102.975 29.3999 102.975 29.0249Z" fill="#F69220"/>
<path d="M51.4497 31.651C50.4747 32.326 49.4998 32.626 48.2998 32.326C46.7248 31.951 46.4247 30.601 46.8747 29.476C47.0997 28.951 47.4747 28.651 47.9997 28.501C48.6747 28.276 49.4248 28.201 50.1748 28.126C50.3998 28.051 50.6998 28.051 50.9248 27.976C51.1498 27.901 51.3747 27.751 51.3747 27.451C51.4497 27.151 51.3747 26.851 51.0747 26.626C50.5497 26.251 49.4247 26.251 48.8997 26.626C48.6747 26.776 48.5247 27.001 48.5247 27.226C48.5247 27.376 48.4498 27.376 48.2998 27.376C47.9248 27.376 47.5497 27.376 47.0997 27.376C46.9497 27.376 46.8747 27.301 46.9497 27.151C47.0247 26.401 47.3997 25.876 47.9997 25.501C49.1997 24.901 50.4747 24.826 51.7497 25.426C52.4247 25.726 52.7998 26.326 52.7998 27.076C52.7998 28.201 52.7998 29.326 52.7998 30.451C52.7998 30.976 52.8747 31.051 53.3997 30.976C53.5497 30.976 53.5498 30.976 53.5498 31.126C53.5498 31.276 53.5498 31.426 53.5498 31.576C53.5498 32.026 53.5498 32.026 53.0998 32.101C52.9498 32.101 52.7247 32.176 52.4997 32.176C52.0497 32.476 51.5997 32.251 51.4497 31.651ZM51.3747 28.876C50.8497 29.176 50.2498 29.176 49.7248 29.251C49.4248 29.326 49.0497 29.326 48.7497 29.551C48.3747 29.776 48.2248 30.076 48.2998 30.451C48.2998 30.826 48.5997 31.051 48.8997 31.126C49.4997 31.351 50.0997 31.276 50.6997 31.051C51.1497 30.826 51.3747 30.451 51.3747 30.001C51.3747 29.626 51.3747 29.251 51.3747 28.876Z" fill="#1E2D3B"/>
<path d="M110.025 31.6496C108.975 32.3996 107.85 32.6246 106.65 32.2496C105.9 32.0246 105.375 31.4996 105.3 30.7496C105.225 29.9996 105.3 29.3996 105.9 28.8746C106.35 28.4996 106.95 28.4246 107.55 28.3496C108.075 28.2746 108.6 28.1996 109.125 28.1246C109.725 28.0496 110.025 27.7496 109.95 27.2246C109.875 26.8496 109.65 26.6246 109.35 26.5496C108.825 26.3996 108.3 26.3996 107.85 26.5496C107.475 26.6996 107.25 26.9246 107.175 27.2996C107.1 27.5246 107.025 27.5246 106.875 27.5246C106.575 27.5246 106.2 27.5246 105.9 27.5246C105.675 27.5246 105.6 27.4496 105.675 27.2246C105.825 26.4746 106.2 25.8746 106.95 25.5746C108 25.1246 109.125 25.0496 110.25 25.4996C111.15 25.7996 111.6 26.3996 111.6 27.3746C111.6 28.4996 111.6 29.6246 111.6 30.7496C111.6 31.1996 111.675 31.2746 112.125 31.1996C112.275 31.1996 112.35 31.2746 112.35 31.4246C112.35 31.5746 112.35 31.6496 112.35 31.7996C112.35 32.2496 112.35 32.2496 111.9 32.3996C111.75 32.3996 111.6 32.4746 111.45 32.4746C110.625 32.4746 110.175 32.3246 110.025 31.6496ZM109.875 28.8746C109.425 29.0996 108.975 29.0996 108.525 29.1746C108.15 29.2496 107.7 29.2496 107.325 29.4746C106.95 29.6996 106.8 29.9996 106.8 30.3746C106.8 30.7496 107.025 30.9746 107.4 31.0496C108.075 31.2746 108.675 31.2746 109.275 30.8996C109.65 30.6746 109.875 30.4496 109.875 29.9996C109.875 29.6996 109.875 29.3246 109.875 28.8746Z" fill="#F69220"/>
<path d="M79.7251 26.325C80.2501 25.65 80.8501 25.275 81.6001 25.275C83.0251 25.2 84.2251 25.875 84.2251 27.525C84.2251 29.025 84.2251 30.525 84.2251 32.025C84.2251 32.25 84.1501 32.325 84.0001 32.25C83.7001 32.25 83.3251 32.25 83.0251 32.25C82.8001 32.25 82.7251 32.175 82.7251 31.95C82.7251 30.6 82.7251 29.325 82.7251 27.975C82.7251 27.675 82.7251 27.375 82.5751 27.075C82.3501 26.475 81.6751 26.25 80.9251 26.475C80.1751 26.7 79.7251 27.3 79.7251 28.2C79.7251 29.475 79.7251 30.75 79.7251 32.025C79.7251 32.25 79.6501 32.325 79.4251 32.325C79.1251 32.325 78.7501 32.325 78.4501 32.325C78.2251 32.325 78.2251 32.25 78.2251 32.1C78.2251 30.375 78.2251 28.575 78.2251 26.85C78.2251 25.65 78.2251 24.375 78.2251 23.175C78.2251 22.95 78.3001 22.875 78.4501 22.95C78.7501 22.95 79.1251 22.95 79.4251 22.95C79.6501 22.95 79.7251 23.025 79.7251 23.25C79.7251 24.15 79.7251 25.2 79.7251 26.325Z" fill="#F69220"/>
<path d="M65.9996 29.2507C65.2496 29.2507 64.4996 29.2507 63.7496 29.2507C63.5246 29.2507 63.5246 29.3257 63.5246 29.4757C63.6746 30.8257 64.6496 31.5007 65.9246 31.2007C66.3746 31.0507 66.7496 30.7507 66.8996 30.3757C66.9746 30.2257 67.0496 30.1507 67.1996 30.1507C67.4996 30.1507 67.8746 30.1507 68.1746 30.1507C68.3996 30.1507 68.3996 30.2257 68.3246 30.3757C67.9496 31.5757 67.0496 32.2507 65.8496 32.4007C65.0246 32.5507 64.2746 32.4007 63.5246 32.0257C62.5496 31.5007 62.0996 30.6007 61.9496 29.5507C61.7996 28.4257 61.9496 27.3757 62.6246 26.4757C63.4496 25.4257 64.4996 25.0507 65.8496 25.2757C67.1246 25.5007 67.9496 26.3257 68.3246 27.6007C68.4746 28.0507 68.4746 28.5007 68.4746 28.9507C68.4746 29.1757 68.3996 29.2507 68.1746 29.2507C67.5746 29.2507 66.7496 29.2507 65.9996 29.2507ZM65.2496 28.2007C65.6996 28.2007 66.1496 28.2007 66.5996 28.2007C67.0496 28.2007 67.0496 28.2007 66.8996 27.7507C66.6746 26.9257 65.9246 26.3257 65.1746 26.4007C64.2746 26.4757 63.5996 27.1507 63.5246 27.9757C63.5246 28.1257 63.5246 28.2007 63.7496 28.2007C64.1996 28.2007 64.7246 28.2007 65.2496 28.2007Z" fill="#1E2D3B"/>
<path d="M89.3998 29.2512C88.6498 29.2512 87.8998 29.2512 87.1498 29.2512C86.9248 29.2512 86.9248 29.3262 86.9248 29.4762C86.9998 30.7512 88.0498 31.5012 89.3248 31.2012C89.7748 31.0512 90.1498 30.8262 90.2998 30.3762C90.3748 30.1512 90.5248 30.1512 90.6748 30.1512C90.9748 30.1512 91.2748 30.1512 91.5748 30.1512C91.8748 30.1512 91.8748 30.1512 91.7998 30.4512C91.4998 31.4262 90.8248 32.1012 89.7748 32.3262C88.4998 32.6262 87.2998 32.4762 86.3248 31.5012C85.6498 30.8262 85.4248 29.8512 85.4248 28.9512C85.4248 27.7512 85.7998 26.7012 86.7748 25.9512C88.3498 24.7512 91.1248 25.1262 91.8748 27.7512C92.0248 28.2012 92.0248 28.6512 92.0248 29.1012C92.0248 29.2512 91.9498 29.3262 91.7998 29.3262C90.9748 29.2512 90.1498 29.2512 89.3998 29.2512ZM88.6498 28.2012C89.1748 28.2012 89.6998 28.2012 90.2248 28.2012C90.3748 28.2012 90.4498 28.1262 90.4498 27.9762C90.3748 27.3762 89.9998 26.7762 89.3998 26.5512C88.1998 26.1012 87.2248 26.8512 86.9998 27.9762C86.9998 28.1262 86.9998 28.2012 87.2248 28.2012C87.5998 28.2012 88.1248 28.2012 88.6498 28.2012Z" fill="#F69220"/>
<path d="M38.1001 28.2746C38.1001 26.9996 38.1001 25.7996 38.1001 24.5246C38.1001 24.2996 38.0251 24.2246 37.8001 24.2246C36.9751 24.2246 36.1501 24.2246 35.3251 24.2246C35.1751 24.2246 35.1001 24.2246 35.1001 23.9996C35.1001 23.6996 35.1001 23.3996 35.1001 23.0246C35.1001 22.7996 35.1751 22.7246 35.4001 22.7246C36.6751 22.7246 38.0251 22.7246 39.3001 22.7246C40.3501 22.7246 41.4751 22.7246 42.5251 22.7246C42.7501 22.7246 42.8251 22.7246 42.7501 22.9496C42.7501 23.2496 42.7501 23.6246 42.7501 23.9246C42.7501 24.0746 42.6751 24.1496 42.5251 24.1496C41.7001 24.1496 40.8751 24.1496 39.9751 24.1496C39.7501 24.1496 39.6751 24.2246 39.6751 24.4496C39.6751 26.9246 39.6751 29.3996 39.6751 31.8746C39.6751 32.0996 39.6751 32.1746 39.3751 32.1746C39.0001 32.1746 38.6251 32.1746 38.2501 32.1746C38.0251 32.1746 37.9501 32.0996 37.9501 31.8746C38.1001 30.7496 38.1001 29.4746 38.1001 28.2746Z" fill="#1C2B39"/>
<path d="M94.425 26.7004C94.725 26.1004 95.1 25.6504 95.625 25.4254C96 25.2754 96.375 25.2004 96.75 25.2754C96.9 25.2754 96.975 25.3504 96.975 25.5754C96.975 25.8754 96.975 26.1754 96.975 26.5504C96.975 26.7754 96.9 26.8504 96.675 26.7754C96 26.6254 95.4 26.8504 94.95 27.4504C94.65 27.9004 94.5 28.4254 94.5 28.9504C94.5 30.0004 94.5 30.9754 94.5 32.0254C94.5 32.2504 94.425 32.3254 94.2 32.3254C93.825 32.3254 93.45 32.3254 93.15 32.3254C93 32.3254 92.925 32.2504 92.925 32.1004C92.925 29.9254 92.925 27.8254 92.925 25.6504C92.925 25.5004 93 25.4254 93.15 25.4254C93.525 25.4254 93.825 25.4254 94.2 25.4254C94.35 25.4254 94.425 25.5004 94.425 25.6504C94.425 25.9504 94.425 26.2504 94.425 26.7004Z" fill="#F69220"/>
<path d="M43.8 26.7009C43.95 26.3259 44.1 26.1009 44.325 25.8759C44.85 25.4259 45.45 25.2009 46.2 25.2759C46.35 25.2759 46.35 25.3509 46.35 25.5009C46.35 25.8759 46.35 26.2509 46.35 26.6259C46.35 26.7759 46.35 26.8509 46.2 26.7759C44.925 26.4759 43.95 27.3759 43.875 28.8759C43.875 29.9259 43.875 30.9759 43.875 32.1009C43.875 32.3259 43.8 32.4009 43.575 32.4009C43.275 32.4009 42.9 32.4009 42.6 32.4009C42.375 32.4009 42.375 32.3259 42.375 32.1759C42.375 30.5259 42.375 28.9509 42.375 27.3009C42.375 26.7759 42.375 26.2509 42.375 25.7259C42.375 25.5759 42.45 25.5009 42.6 25.5009C42.975 25.5009 43.275 25.5009 43.65 25.5009C43.8 25.5009 43.8 25.5009 43.8 25.6509C43.8 25.9509 43.8 26.2509 43.8 26.7009Z" fill="#1C2B39"/>
<path d="M12.9748 38.6244C13.0498 38.7744 13.1248 38.7744 13.1998 38.6244C13.2748 38.3994 13.2748 38.1744 13.3498 38.0244C13.3498 37.9494 13.3498 37.8744 13.4248 37.7994C13.4998 38.0244 13.4998 38.1744 13.4998 38.3994C13.4998 38.5494 13.4998 38.6244 13.5748 38.7744C13.6498 38.9244 13.5748 39.0744 13.4998 39.1494C13.2748 39.3744 13.1998 39.5994 13.3498 39.8994C13.4248 40.1244 13.4248 40.3494 13.3498 40.5744C13.1998 41.0244 13.0498 41.4744 12.9748 41.9994C11.4748 41.0994 10.8748 39.6744 11.5498 38.0244C12.0748 36.7494 12.8998 35.7744 13.8748 34.7994C13.9498 34.7244 14.0248 34.6494 14.0998 34.7244C14.1748 34.7994 14.0998 34.8744 14.0248 34.9494C13.4248 35.4744 12.9748 36.0744 12.6748 36.8244C12.3748 37.5744 12.2998 38.3994 12.8248 39.1494C12.8248 39.2244 12.8998 39.2244 12.8998 39.2994C12.8248 38.9994 12.8998 38.8494 12.9748 38.6244Z" fill="#1E2D3B"/>
<path d="M69.9002 36.75C69.9002 37.65 69.9002 38.55 69.9002 39.45C69.9002 39.675 69.8252 39.75 69.6752 39.75C69.4502 39.75 69.4502 39.675 69.4502 39.525C69.4502 38.4 69.4502 37.35 69.4502 36.225C69.4502 36 69.5252 36 69.6752 36C70.1252 36 70.1252 36 70.2752 36.45C70.5752 37.275 70.8752 38.025 71.1752 38.85C71.1752 38.925 71.2502 39 71.3252 39.15C71.5502 38.55 71.7752 38.025 71.9252 37.5C72.0752 37.125 72.2252 36.75 72.3002 36.375C72.3752 36.075 72.5252 36 72.8252 36C73.0502 36 73.2002 36.075 73.2002 36.375C73.2002 37.425 73.2002 38.475 73.2002 39.525C73.2002 39.75 73.2002 39.825 72.9752 39.825C72.7502 39.825 72.7502 39.75 72.7502 39.525C72.7502 38.625 72.7502 37.725 72.6752 36.825C72.5252 37.275 72.3002 37.8 72.1502 38.25C72.0002 38.7 71.7752 39.15 71.6252 39.6C71.5502 39.75 71.4752 39.825 71.3252 39.825C71.1752 39.825 71.1002 39.75 71.0252 39.6C70.7252 38.775 70.4252 37.95 70.1252 37.125C70.0502 36.975 70.0502 36.825 69.9002 36.75Z" fill="#78858F"/>
<path d="M37.7998 37.8008C37.7998 37.2758 37.7998 36.6758 37.7998 36.1508C37.7998 36.0008 37.8748 35.9258 38.0248 35.9258C38.7748 35.9258 39.4498 35.9258 40.1998 35.9258C40.3498 35.9258 40.4248 36.0008 40.4248 36.1508C40.4248 36.3008 40.4248 36.3758 40.1998 36.3758C39.6748 36.3758 39.1498 36.3758 38.6248 36.3758C38.3998 36.3758 38.3248 36.4508 38.3248 36.6008C38.3248 36.8258 38.3248 37.0508 38.3248 37.2758C38.3248 37.4258 38.3998 37.5008 38.5498 37.5008C39.0748 37.5008 39.5248 37.5008 40.0498 37.5008C40.2748 37.5008 40.2748 37.5758 40.2748 37.7258C40.2748 37.8758 40.1998 37.9508 40.0498 37.9508C39.5248 37.9508 39.0748 37.9508 38.5498 37.9508C38.3998 37.9508 38.3248 38.0258 38.3248 38.1758C38.3248 38.4758 38.3248 38.7008 38.3248 39.0008C38.3248 39.1508 38.3998 39.2258 38.5498 39.2258C39.0748 39.2258 39.5998 39.2258 40.1998 39.2258C40.3498 39.2258 40.4248 39.2258 40.4248 39.4508C40.4248 39.6008 40.3498 39.6758 40.1998 39.6758C39.4498 39.6758 38.7748 39.6758 38.0248 39.6758C37.8748 39.6758 37.7998 39.6008 37.7998 39.4508C37.7998 38.9258 37.7998 38.4008 37.7998 37.8008Z" fill="#78858F"/>
<path d="M107.025 39.7512C106.725 39.7512 106.425 39.6762 106.125 39.5262C105.825 39.3762 105.6 39.0762 105.525 38.7762C105.525 38.6262 105.375 38.4762 105.6 38.4012C105.75 38.4012 105.975 38.3262 105.975 38.6262C105.975 38.9262 106.2 39.0762 106.425 39.1512C106.8 39.3012 107.175 39.3012 107.55 39.1512C107.775 39.0762 107.925 38.9262 107.925 38.6262C107.925 38.3262 107.775 38.1762 107.55 38.1012C107.25 37.9512 106.95 37.9512 106.65 37.8762C106.5 37.8012 106.275 37.8012 106.125 37.7262C105.75 37.5762 105.525 37.3512 105.525 36.9762C105.525 36.6012 105.6 36.3012 105.975 36.0762C106.425 35.7012 107.325 35.7012 107.85 36.0762C108.075 36.2262 108.225 36.5262 108.3 36.8262C108.3 36.9012 108.375 37.0512 108.225 37.0512C108.075 37.0512 107.925 37.1262 107.85 36.9762C107.55 36.3762 107.175 36.2262 106.575 36.3762C106.35 36.4512 106.2 36.6012 106.125 36.9012C106.125 37.2012 106.275 37.2762 106.5 37.3512C106.8 37.5012 107.1 37.5012 107.4 37.5762C107.625 37.6512 107.775 37.6512 108 37.8012C108.6 38.1762 108.675 39.0012 108.15 39.4512C107.775 39.7512 107.4 39.8262 107.025 39.7512Z" fill="#78858F"/>
<path d="M104.925 37.4258C104.925 37.8008 105 38.2508 104.925 38.7008C104.775 39.3008 104.4 39.6758 103.8 39.7508C103.575 39.7508 103.35 39.7508 103.125 39.7508C102.375 39.6758 102 39.1508 101.925 38.4008C101.925 37.6508 101.925 36.9008 101.925 36.1508C101.925 35.9258 102 35.9258 102.225 35.9258C102.375 35.9258 102.525 35.9258 102.525 36.1508C102.525 36.9008 102.525 37.5758 102.525 38.3258C102.525 39.1508 103.2 39.6008 103.95 39.3008C104.325 39.1508 104.475 38.8508 104.475 38.5508C104.475 37.8008 104.475 37.0508 104.475 36.3008C104.475 36.0008 104.625 35.9258 104.925 36.0008C105.075 36.0758 105 36.1508 105 36.2258C104.925 36.5258 104.925 36.9758 104.925 37.4258Z" fill="#78858F"/>
<path d="M110.4 35.9262C110.55 35.8512 110.625 36.0012 110.7 36.1512C111.075 37.2012 111.525 38.3262 111.975 39.3762C111.975 39.4512 112.125 39.5262 111.975 39.6762C111.825 39.7512 111.525 39.6762 111.45 39.5262C111.375 39.2262 111.225 39.0012 111.15 38.7012C111.075 38.5512 111.075 38.4762 110.925 38.5512C110.55 38.5512 110.1 38.5512 109.725 38.5512C109.575 38.5512 109.5 38.6262 109.5 38.7012C109.425 39.0012 109.275 39.2262 109.2 39.5262C109.125 39.6762 108.75 39.7512 108.675 39.6762C108.6 39.6012 108.675 39.6012 108.675 39.5262C109.125 38.4012 109.575 37.2012 110.025 36.0762C110.1 35.9262 110.25 36.0012 110.4 35.9262ZM110.4 36.4512C110.175 37.0512 110.025 37.5762 109.8 38.0262C109.725 38.1762 109.875 38.1012 109.95 38.1012C110.25 38.1012 110.55 38.1012 110.85 38.1012C111 38.1012 111 38.0262 111 37.9512C110.775 37.5012 110.55 36.9762 110.4 36.4512Z" fill="#78858F"/>
<path d="M44.1 39.3754C44.1 39.7504 44.1 40.1254 44.1 40.5004C44.1 40.6504 44.025 40.7254 43.875 40.7254C43.725 40.7254 43.65 40.6504 43.65 40.5004C43.65 39.3754 43.65 38.3254 43.65 37.2004C43.65 37.0504 43.65 36.9004 43.8 36.9754C43.95 36.9754 44.175 36.9004 44.1 37.2754C44.4 36.9754 44.775 36.9004 45.15 36.9004C45.975 37.0504 46.35 37.7254 46.2 38.7004C46.05 39.5254 45.45 39.9004 44.7 39.7504C44.475 39.6754 44.25 39.6004 44.1 39.3754ZM44.1 38.3254C44.1 38.4754 44.1 38.7004 44.175 38.8504C44.325 39.2254 44.55 39.3754 44.925 39.3754C45.3 39.3754 45.525 39.1504 45.675 38.8504C45.75 38.5504 45.75 38.1754 45.675 37.8754C45.45 37.4254 45 37.2754 44.55 37.5004C44.175 37.6504 44.1 37.9504 44.1 38.3254Z" fill="#78858F"/>
<path d="M54.3749 39.4508C53.8499 39.8258 53.3249 39.9008 52.8749 39.6008C52.3499 39.2258 52.1999 38.7008 52.2749 38.1008C52.4249 36.9758 53.3249 36.5258 54.2999 37.2008C54.2999 37.2008 54.2999 37.2008 54.3749 37.2008C54.3749 36.9008 54.3749 36.5258 54.3749 36.1508C54.3749 36.0008 54.4499 35.9258 54.5999 35.9258C54.8249 35.9258 54.8249 36.0008 54.8249 36.1508C54.8249 37.2008 54.8249 38.3258 54.8249 39.3758C54.8249 39.4508 54.8999 39.6758 54.6749 39.6758C54.5249 39.7508 54.2999 39.7508 54.3749 39.4508ZM53.5499 37.3508C53.1749 37.3508 52.9499 37.5008 52.7999 37.8008C52.7249 37.9508 52.7249 38.1008 52.7249 38.3258C52.7249 39.0008 53.0999 39.4508 53.6249 39.3758C54.0749 39.3758 54.2999 39.0008 54.3749 38.4758C54.3749 37.8008 54.1499 37.3508 53.5499 37.3508Z" fill="#78858F"/>
<path d="M76.05 38.4003C76.05 38.5503 76.05 38.7754 76.05 38.9254C76.05 39.0754 75.975 39.3003 76.275 39.3753C76.35 39.3753 76.35 39.6753 76.2 39.7503C75.975 39.8253 75.75 39.8253 75.6 39.6003C75.525 39.4503 75.45 39.4503 75.375 39.5253C75.075 39.7503 74.7 39.8253 74.25 39.7503C73.875 39.6753 73.725 39.4503 73.65 39.0753C73.65 38.7753 73.8 38.4753 74.1 38.3253C74.4 38.1753 74.7 38.1753 75 38.1003C75.225 38.0253 75.525 38.1003 75.525 37.7253C75.525 37.5003 75.3 37.3503 74.925 37.3503C74.625 37.3503 74.325 37.4254 74.25 37.8004C74.175 37.9504 74.025 37.8753 73.875 37.8753C73.725 37.8753 73.8 37.7253 73.8 37.6503C73.8 37.5003 73.95 37.3503 74.1 37.2003C74.475 36.9003 75.3 36.9003 75.675 37.1253C75.9 37.2753 75.975 37.5003 75.975 37.7253C76.05 37.9503 76.05 38.1753 76.05 38.4003ZM75.525 38.3253C75.15 38.4003 74.85 38.4004 74.55 38.5504C74.325 38.6254 74.25 38.7753 74.25 39.0003C74.25 39.2253 74.475 39.3004 74.625 39.3004C75.3 39.4504 75.6 39.0753 75.525 38.3253Z" fill="#78858F"/>
<path d="M99 38.4754C98.7 38.4754 98.475 38.4754 98.175 38.4754C98.025 38.4754 98.025 38.4754 98.025 38.6254C98.1 39.0004 98.325 39.2254 98.625 39.3004C99 39.3754 99.3 39.2254 99.45 38.9254C99.525 38.7004 99.75 38.7754 99.9 38.8504C100.05 38.8504 99.9 39.0004 99.9 39.0754C99.75 39.5254 99.375 39.7504 98.85 39.7504C98.325 39.7504 97.95 39.6004 97.725 39.1504C97.5 38.7004 97.425 38.1754 97.65 37.7254C97.875 37.2004 98.4 36.9004 98.925 36.9004C99.45 36.9754 99.9 37.3504 100.05 37.9504C100.2 38.4754 100.125 38.4754 99.675 38.4754C99.375 38.4754 99.15 38.4754 99 38.4754ZM98.7 38.1004C98.925 38.1004 99.075 38.1004 99.3 38.1004C99.45 38.1004 99.525 38.0254 99.45 37.8754C99.375 37.5754 99.075 37.3504 98.7 37.3504C98.4 37.3504 98.1 37.5754 98.025 37.8754C98.025 38.0254 98.025 38.1004 98.175 38.1004C98.325 38.1004 98.55 38.1004 98.7 38.1004Z" fill="#78858F"/>
<path d="M48.3752 39.4507C48.0002 39.7507 47.6252 39.9007 47.1752 39.7507C46.8002 39.6757 46.6502 39.4507 46.5752 39.0757C46.5752 38.7007 46.7252 38.4007 47.0252 38.3257C47.3252 38.2507 47.5502 38.1757 47.8502 38.1757C48.2252 38.1007 48.3752 38.0257 48.3752 37.8007C48.3752 37.5757 48.1502 37.4257 47.8502 37.4257C47.5502 37.4257 47.2502 37.5007 47.1752 37.8757C47.1002 38.0257 46.9502 37.9507 46.8002 37.9507C46.6502 37.9507 46.7252 37.8007 46.7252 37.7257C46.7252 37.5757 46.8752 37.4257 47.0252 37.2757C47.4002 36.9757 48.2252 36.9007 48.6002 37.2007C48.7502 37.3507 48.9002 37.5007 48.9002 37.7257C48.9002 38.1757 48.9002 38.7007 48.9002 39.1507C48.9002 39.3007 48.9002 39.4507 49.1252 39.4507C49.2002 39.4507 49.2002 39.5257 49.2002 39.6007C49.2002 39.6757 49.2002 39.8257 49.0502 39.8257C48.6752 39.8257 48.5252 39.7507 48.3752 39.4507ZM48.3752 38.6257C48.3002 38.5507 48.4502 38.4007 48.3002 38.4007C48.0002 38.4757 47.6252 38.4757 47.3252 38.6257C47.1752 38.7007 47.1002 38.8507 47.1002 39.0007C47.1002 39.1507 47.1752 39.3007 47.2502 39.3007C47.5502 39.4507 47.7752 39.3757 48.0752 39.2257C48.3002 39.0757 48.3752 38.9257 48.3752 38.6257Z" fill="#78858F"/>
<path d="M78.9 38.1754C79.275 37.8754 79.575 37.5754 79.8 37.2754C80.025 36.9754 80.325 36.9754 80.7 37.0504C80.4 37.3504 80.1 37.6504 79.8 37.8754C79.65 38.0254 79.65 38.1004 79.725 38.1754C80.1 38.7004 80.4 39.1504 80.7 39.6754C80.175 39.7504 80.175 39.7504 79.875 39.3754C79.65 39.0754 79.5 38.7754 79.275 38.4754C79.2 38.3254 79.125 38.3254 78.975 38.4754C78.825 38.6254 78.675 38.7754 78.75 39.0004C78.75 39.1504 78.75 39.3004 78.75 39.4504C78.75 39.6754 78.675 39.7504 78.45 39.7504C78.3 39.7504 78.3 39.6754 78.3 39.5254C78.3 38.4004 78.3 37.2754 78.3 36.1504C78.3 35.9254 78.375 36.0004 78.525 36.0004C78.675 36.0004 78.75 36.0004 78.75 36.2254C78.9 36.7504 78.9 37.4254 78.9 38.1754Z" fill="#78858F"/>
<path d="M82.5002 38.476C82.2002 38.476 81.9752 38.476 81.6752 38.476C81.5252 38.476 81.5252 38.551 81.5252 38.701C81.6002 39.001 81.8252 39.301 82.1252 39.376C82.5002 39.451 82.8002 39.301 82.9502 39.001C83.0252 38.851 83.2502 38.776 83.4002 38.851C83.4752 38.926 83.4002 39.001 83.4002 39.076C83.2502 39.526 82.7252 39.826 82.2002 39.826C81.3002 39.751 80.7752 39.001 81.0002 38.026C81.1502 37.276 81.7502 36.826 82.5002 36.976C83.1002 37.126 83.5502 37.801 83.4752 38.401C83.4752 38.551 83.4002 38.551 83.3252 38.551C83.0252 38.476 82.8002 38.476 82.5002 38.476ZM82.2752 38.101C82.4252 38.101 82.6502 38.101 82.8002 38.101C83.0252 38.101 83.0252 38.026 82.9502 37.801C82.8002 37.501 82.5002 37.276 82.2002 37.351C81.9002 37.351 81.6752 37.576 81.5252 37.876C81.4502 38.026 81.5252 38.101 81.6752 38.101C81.8252 38.101 82.0502 38.101 82.2752 38.101Z" fill="#78858F"/>
<path d="M95.1749 37.35C95.4749 36.975 95.8499 36.9 96.2249 36.975C96.6749 37.05 96.8999 37.35 96.8999 37.8C96.8999 38.4 96.8999 39 96.8999 39.6C96.8999 39.75 96.8249 39.75 96.6749 39.75C96.5249 39.75 96.4499 39.75 96.4499 39.6C96.4499 39.15 96.4499 38.625 96.4499 38.175C96.4499 37.65 96.2999 37.5 95.9249 37.425C95.4749 37.35 95.1749 37.65 95.0999 38.1C95.0249 38.55 95.0999 39.075 95.0999 39.525C95.0999 39.675 95.0999 39.825 94.8749 39.825C94.6499 39.825 94.6499 39.75 94.6499 39.525C94.6499 38.475 94.6499 37.35 94.6499 36.3C94.6499 36.075 94.6499 36 94.8749 36C95.0999 36 95.0999 36.15 95.0999 36.3C95.1749 36.6 95.1749 36.9 95.1749 37.35Z" fill="#78858F"/>
<path d="M62.7749 38.1757C62.7749 39.3757 61.9499 39.9757 60.9749 39.6757C60.4499 39.5257 60.1499 38.9257 60.1499 38.2507C60.1499 37.7257 60.3749 37.2757 60.8999 37.0507C61.4249 36.8257 61.8749 36.9007 62.3249 37.2007C62.6999 37.5007 62.7749 37.8757 62.7749 38.1757ZM62.3249 38.3257C62.3249 37.6507 61.9499 37.2757 61.4249 37.3507C60.9749 37.4257 60.7499 37.7257 60.6749 38.3257C60.5999 38.9257 61.0499 39.4507 61.5749 39.3757C62.0249 39.3007 62.3249 38.9257 62.3249 38.3257Z" fill="#78858F"/>
<path d="M88.5 38.3264C88.5 36.9764 89.7 36.6764 90.45 37.0514C90.975 37.3514 91.125 37.8014 91.125 38.3264C91.125 39.3014 90.45 39.9014 89.475 39.6764C88.875 39.6014 88.5 39.0764 88.5 38.3264ZM89.025 38.3264C89.025 38.9264 89.4 39.3764 89.85 39.3014C90.3 39.3014 90.675 38.9264 90.675 38.3264C90.675 37.7264 90.375 37.3514 89.925 37.2764C89.325 37.3514 89.025 37.7264 89.025 38.3264Z" fill="#78858F"/>
<path d="M56.625 35.9996C57.15 35.9246 57.15 35.9246 57.45 36.2996C57.75 36.7496 58.05 37.1996 58.35 37.7246C58.5 37.4246 58.725 37.1996 58.875 36.8996C59.025 36.6746 59.175 36.5246 59.25 36.2996C59.4 35.9246 59.7 35.8496 60 35.9246C60 35.9996 59.925 36.0746 59.925 36.1496C59.55 36.7496 59.175 37.3496 58.8 37.9496C58.725 38.0996 58.65 38.1746 58.65 38.3246C58.65 38.6996 58.65 39.0746 58.65 39.4496C58.65 39.5996 58.575 39.6746 58.425 39.6746C58.275 39.6746 58.125 39.7496 58.125 39.4496C58.125 39.2246 58.125 39.0746 58.125 38.8496C58.2 38.3246 58.05 37.8746 57.675 37.4246C57.225 37.0496 56.925 36.5246 56.625 35.9996Z" fill="#78858F"/>
<path d="M65.1 39.3004C64.8 39.6754 64.425 39.8254 63.975 39.7504C63.6 39.6754 63.375 39.5254 63.3 39.0754C63.225 38.6254 63.3 38.1754 63.225 37.7254C63.225 37.5754 63.225 37.4254 63.225 37.2754C63.225 37.1254 63.225 36.9754 63.45 36.9754C63.675 36.9754 63.675 37.1254 63.675 37.2754C63.675 37.7254 63.675 38.2504 63.675 38.7004C63.675 39.0754 63.825 39.3004 64.05 39.3004C64.35 39.3754 64.725 39.2254 64.875 38.9254C64.95 38.7754 64.95 38.6254 64.95 38.4754C64.95 38.0254 64.95 37.5754 64.95 37.1254C64.95 36.9004 65.025 36.9004 65.175 36.9004C65.4 36.9004 65.4 36.9754 65.4 37.1254C65.4 37.8754 65.4 38.5504 65.4 39.3004C65.4 39.4504 65.475 39.6004 65.175 39.6004C65.025 39.7504 65.1 39.5254 65.1 39.3004Z" fill="#78858F"/>
<path d="M24.825 32.4004C24.9 32.8504 24.9 32.9254 24.375 32.9254H24.3C24 33.1504 23.55 33.3004 23.4 33.7504C23.175 34.2754 22.8 34.3504 22.35 33.9754C22.275 33.9004 22.2 33.7504 22.125 33.6004C22.125 33.3004 22.05 33.0754 22.05 32.7754C22.05 32.4004 22.2 32.2504 22.575 32.3254C23.325 32.5504 24.075 32.5504 24.825 32.4004Z" fill="#717F89"/>
<path d="M40.6499 39.6759C40.9499 39.3009 41.1749 38.8509 41.4749 38.4759C41.6249 38.2509 41.6249 38.1759 41.4749 38.0259C41.2499 37.7259 41.0249 37.4259 40.8749 37.2009C40.8749 37.1259 40.7999 37.1259 40.7999 37.0509C40.7999 36.9759 40.9499 37.0509 40.9499 37.0509C41.1749 36.9759 41.3999 37.1259 41.4749 37.3509C41.6249 37.5759 41.7749 37.8009 41.9249 38.0259C42.0749 37.8009 42.2249 37.5759 42.3749 37.3509C42.5249 37.0509 42.8249 37.0509 43.1249 37.0509C42.8249 37.4259 42.5999 37.7259 42.3749 38.1009C42.2249 38.2509 42.2249 38.3259 42.3749 38.4759C42.6749 38.8509 42.9749 39.3009 43.2749 39.6759C42.8249 39.7509 42.7499 39.7509 42.5249 39.3759C42.3749 39.1509 42.2249 39.0009 42.1499 38.7759C42.0749 38.6259 41.9999 38.5509 41.8499 38.7759C41.6999 39.0009 41.6249 39.1509 41.4749 39.3759C41.0999 39.7509 41.0999 39.7509 40.6499 39.6759Z" fill="#78858F"/>
<path d="M49.95 37.3504C50.25 36.9754 50.625 36.9004 51.075 36.9754C51.525 37.0504 51.75 37.3504 51.75 37.7254C51.75 38.3254 51.75 38.9254 51.75 39.5254C51.75 39.6754 51.675 39.6754 51.525 39.6754C51.375 39.6754 51.3 39.6754 51.3 39.4504C51.3 38.9254 51.3 38.4754 51.3 37.9504C51.3 37.5004 51.15 37.2754 50.85 37.2754C50.475 37.2004 50.1 37.4254 50.025 37.8004C49.95 38.3254 49.95 38.8504 49.95 39.3754C49.95 39.6004 49.875 39.6754 49.65 39.6754C49.575 39.6754 49.5 39.6004 49.5 39.5254C49.5 38.7004 49.5 37.9504 49.5 37.1254C49.5 36.9754 49.575 36.9754 49.65 36.9754C49.725 36.9754 49.875 36.9004 49.875 37.1254C49.95 37.2004 49.95 37.2754 49.95 37.3504Z" fill="#78858F"/>
<path d="M84.075 38.4004C84.075 38.1754 84.075 37.9504 84.075 37.6504C84.075 37.5004 84.075 37.3504 83.85 37.4254C83.7 37.4254 83.625 37.4254 83.625 37.2004C83.625 37.0504 83.7 36.9754 83.85 36.9754C84 36.9754 84.075 36.9004 84.075 36.7504C84.075 36.6754 84.075 36.5254 84.075 36.4504C84 36.2254 84.15 36.1504 84.375 36.1504C84.525 36.1504 84.525 36.2254 84.525 36.3004C84.525 36.3754 84.525 36.4504 84.525 36.5254C84.525 36.9004 84.525 36.9004 84.9 36.9004C85.05 36.9004 85.05 36.9754 85.05 37.1254C85.05 37.2004 85.05 37.3504 84.9 37.3504C84.525 37.3504 84.525 37.3504 84.525 37.7254C84.525 38.1004 84.525 38.4754 84.525 38.8504C84.525 39.0754 84.6 39.2254 84.825 39.2254C85.05 39.2254 85.05 39.3004 85.05 39.4504C85.05 39.6754 84.975 39.6754 84.825 39.6754C84.75 39.6754 84.675 39.6754 84.6 39.6754C84.225 39.6754 84.075 39.5254 84.075 39.0754C84.075 38.8504 84.075 38.6254 84.075 38.4004Z" fill="#78858F"/>
<path d="M87.15 38.4004C87.15 38.1754 87.15 37.8754 87.15 37.6504C87.15 37.5004 87.15 37.4254 86.925 37.4254C86.775 37.4254 86.7 37.4254 86.7 37.2004C86.7 36.9754 86.775 36.9754 86.925 36.9754C87.075 36.9754 87.15 36.9004 87.15 36.7504C87.15 36.6754 87.15 36.5254 87.15 36.4504C87.15 36.3004 87.15 36.1504 87.375 36.1504C87.6 36.1504 87.6 36.3004 87.6 36.4504C87.6 36.5254 87.6 36.5254 87.6 36.6004C87.525 36.9004 87.6 37.0504 87.975 36.9754C88.125 36.9754 88.2 37.0504 88.2 37.2004C88.2 37.3504 88.125 37.4254 87.975 37.3504C87.675 37.2754 87.6 37.4254 87.6 37.7254C87.6 38.1004 87.6 38.5504 87.6 38.9254C87.6 39.1504 87.675 39.3004 87.9 39.2254C88.05 39.2254 88.125 39.2254 88.125 39.4504C88.125 39.6004 88.05 39.6754 87.9 39.6754C87.825 39.6754 87.75 39.6754 87.6 39.6754C87.225 39.6004 87.075 39.5254 87.075 39.1504C87.15 38.9254 87.15 38.6254 87.15 38.4004Z" fill="#78858F"/>
<path d="M93.225 38.4004C93.225 38.1004 93.225 37.8754 93.225 37.6504C93.225 37.5004 93.225 37.4254 93 37.4254C92.85 37.4254 92.775 37.4254 92.775 37.2004C92.775 36.9754 92.85 36.9754 93 36.9754C93.15 36.9754 93.225 36.9004 93.225 36.7504C93.225 36.6754 93.225 36.5254 93.225 36.4504C93.15 36.2254 93.3 36.1504 93.525 36.1504C93.675 36.1504 93.675 36.2254 93.675 36.3004C93.675 36.3754 93.675 36.3754 93.675 36.4504C93.675 36.6004 93.675 36.7504 93.675 36.9004C93.75 37.0504 93.9 36.9754 94.05 36.9754C94.2 36.9754 94.2 37.1254 94.2 37.2004C94.2 37.2754 94.2 37.3504 94.05 37.4254C93.675 37.4254 93.675 37.4254 93.675 37.8754C93.675 38.2504 93.675 38.6254 93.675 39.0004C93.675 39.2254 93.75 39.3754 93.975 39.3004C94.125 39.3004 94.2 39.3004 94.2 39.5254C94.2 39.7504 94.125 39.7504 93.975 39.7504C93.825 39.7504 93.75 39.7504 93.6 39.7504C93.375 39.7504 93.225 39.6004 93.225 39.3754C93.225 39.0004 93.3 38.7004 93.225 38.4004Z" fill="#78858F"/>
<path d="M66.6751 37.4249C66.9001 37.1249 67.1251 36.9749 67.4251 36.9749C67.5001 36.9749 67.6501 36.8999 67.6501 37.1249C67.6501 37.2749 67.8001 37.4999 67.5001 37.4999C66.8251 37.4999 66.6751 38.0249 66.6751 38.6249C66.6751 38.9999 66.6751 39.2999 66.6751 39.6749C66.6751 39.8249 66.6001 39.8249 66.4501 39.8249C66.3001 39.8249 66.2251 39.8999 66.2251 39.6749C66.2251 38.8499 66.2251 38.0999 66.2251 37.2749C66.2251 37.1249 66.3001 37.1249 66.4501 37.1249C66.6001 37.1249 66.6751 37.1249 66.6751 37.3499C66.6001 37.2749 66.6001 37.3499 66.6751 37.4249Z" fill="#78858F"/>
<path d="M77.1751 37.4246C77.4001 37.1996 77.6251 36.9746 77.9251 36.9746C78.0001 36.9746 78.1501 36.9746 78.1501 37.1246C78.1501 37.2746 78.3001 37.4996 78.0001 37.4996C77.4001 37.5746 77.1751 37.9496 77.1751 38.5496C77.1751 38.9246 77.1751 39.2246 77.1751 39.5996C77.1751 39.8246 77.1001 39.7496 76.9501 39.8246C76.8001 39.8246 76.7251 39.8246 76.7251 39.5996C76.7251 38.8496 76.7251 38.0246 76.7251 37.2746C76.7251 37.1246 76.8001 37.0496 76.9501 37.0496C77.1001 37.0496 77.2501 37.0496 77.1751 37.2746C77.1001 37.2746 77.1001 37.3496 77.1751 37.4246Z" fill="#78858F"/>
<path d="M32.4 34.5758C32.325 34.7258 32.175 34.8008 32.025 34.9508C31.95 35.1008 31.725 35.1008 31.65 34.8758C31.575 34.7258 31.575 34.6508 31.5 34.5008V34.4258C31.725 34.4258 31.725 34.1258 31.95 34.0508C32.1 34.2008 32.25 34.4258 32.4 34.5758Z" fill="#1E2D3B"/>
<path d="M34.0502 37.5746C33.8252 37.4246 33.5252 37.2746 33.4502 36.9746C33.6002 36.9746 33.6752 37.1246 33.8252 37.1246C33.9752 37.2746 33.9752 37.4246 34.0502 37.5746Z" fill="#1E2D3B"/>
<path d="M25.3497 33.6012C25.1247 33.5262 24.8997 33.5262 24.9747 33.3012C24.9747 33.0762 25.1997 33.0762 25.3497 33.0762C25.3497 33.3012 25.3497 33.4512 25.3497 33.6012Z" fill="#717F89"/>
<path d="M18.7499 34.8C18.6749 34.875 18.6749 35.1 18.5249 35.025C18.3749 34.95 18.4499 34.8 18.4499 34.725C18.4499 34.65 18.4499 34.575 18.4499 34.5C18.5249 34.575 18.5999 34.65 18.7499 34.8Z" fill="#1E2D3B"/>
<path d="M16.4248 40.4258C16.1998 40.4258 16.0498 40.2758 16.0498 40.1258C16.0498 40.0508 16.1248 40.0508 16.1998 40.0508C16.3498 40.0508 16.6498 40.2008 16.6498 40.3508C16.5748 40.4258 16.4998 40.4258 16.4248 40.4258Z" fill="#717F89"/>
<path d="M30.5249 36.2246C30.6749 36.2996 30.8249 36.3746 30.8249 36.5246C30.8249 36.5996 30.7499 36.5996 30.6749 36.5996C30.5999 36.5246 30.5249 36.3746 30.5249 36.2246Z" fill="#717F89"/>
<path d="M29.8498 33.6C29.8498 33.825 29.6248 34.05 29.4748 34.05C29.2498 34.05 29.1748 33.825 29.1748 33.675C29.1748 33.525 29.1748 33.3 29.1748 33.15C29.1748 33.075 29.1748 33 29.2498 33C29.3248 33 29.3998 33 29.3998 33.075C29.4748 33.225 29.5498 33.3 29.6998 33.375C29.7748 33.375 29.8498 33.525 29.8498 33.6Z" fill="#1E2D3B"/>
<path d="M31.95 35.4004C32.1 35.4754 32.1 35.5504 32.175 35.7004C31.95 35.6254 31.95 35.5504 31.95 35.4004C31.875 35.4004 31.875 35.4004 31.95 35.4004Z" fill="#1C2B39"/>
<path d="M31.8751 35.4012C31.8751 35.4012 31.8001 35.3262 31.8751 35.3262C31.8751 35.3262 31.8751 35.3262 31.8751 35.4012Z" fill="#1C2B39"/>
<path d="M32.1001 35.625C32.1751 35.7 32.1751 35.7 32.1001 35.625V35.625Z" fill="#1C2B39"/>
<path d="M16.7999 36.6758C16.6499 36.6008 16.6499 36.5258 16.6499 36.3758C16.6499 36.1508 16.9499 35.8508 17.1749 35.9258C17.2499 35.9258 17.3249 35.9258 17.2499 36.0008C17.1749 36.2258 17.0249 36.3758 16.7999 36.6758C16.8749 36.6008 16.8749 36.6008 16.7999 36.6758Z" fill="#1E2D3B"/>
<path d="M17.6249 35.9258C17.6999 35.9258 17.7749 36.0008 17.7749 36.0758C17.6999 36.2258 17.6999 36.4508 17.5499 36.4508C17.4749 36.4508 17.3999 36.3008 17.3999 36.1508C17.3999 36.0008 17.5499 35.9258 17.6249 35.9258Z" fill="#1E2D3B"/>
<path d="M17.4001 35.4008C17.4001 35.4758 17.4001 35.5508 17.2501 35.5508C17.1751 35.5508 17.1001 35.4008 17.1001 35.3258C17.1001 35.2508 17.1751 35.1758 17.1751 35.1758C17.3251 35.2508 17.4001 35.3258 17.4001 35.4008Z" fill="#1E2D3B"/>
<path d="M20.625 21.5246C20.625 21.3746 20.625 21.1496 20.85 21.0746C21.075 20.9996 21.225 21.1496 21.375 21.2996C21.675 21.6746 21.975 22.0496 22.125 22.4996C22.2 22.7996 22.125 22.8746 21.825 22.8746C20.925 22.7246 20.625 22.4246 20.625 21.5246Z" fill="#F69220"/>
<path d="M26.85 21.6004C26.85 21.7504 26.775 21.9004 26.775 22.0504C26.7 22.5754 26.025 22.9504 25.5 22.8004C25.35 22.8004 25.35 22.6504 25.35 22.5754C25.35 22.3504 25.425 22.1254 25.575 21.9754C25.725 21.7504 25.875 21.4504 26.1 21.2254C26.25 21.0754 26.4 20.9254 26.625 21.0004C26.775 21.1504 26.85 21.3754 26.85 21.6004Z" fill="#F69220"/>
<path d="M22.3501 26.7012C22.4251 26.7012 22.5001 26.7762 22.5001 26.7762C22.8001 27.0012 23.0251 27.2262 23.1001 27.6012C23.1001 27.6762 23.1751 27.7512 23.1001 27.8262C23.0251 27.9012 22.9501 27.8262 22.8751 27.8262C22.5001 27.6012 22.2751 27.3762 22.2001 27.0012C22.1251 26.8512 22.1251 26.7012 22.3501 26.7012Z" fill="#F69220"/>
<path d="M24.3751 27.8263C24.2251 27.8263 24.2251 27.7513 24.2251 27.6013C24.3751 27.2263 24.6001 26.9263 24.9751 26.7013C25.1251 26.6263 25.2751 26.7013 25.2001 26.8513C25.0501 27.2263 24.8251 27.5263 24.4501 27.7513C24.4501 27.8263 24.4501 27.8263 24.3751 27.8263Z" fill="#F69220"/>
</svg>
