<svg width="24" height="24" viewBox="0 0 24 24" fill="none" xmlns="http://www.w3.org/2000/svg">
<path fill-rule="evenodd" clip-rule="evenodd" d="M12 0C18.6277 0 24 5.37234 24 12C24 18.6277 18.6277 24 12 24C5.37234 24 0 18.6277 0 12C0 5.37234 5.37234 0 12 0ZM17.7698 8.30297C17.4005 8.47031 16.9941 8.57156 16.5952 8.63859C16.9462 8.57953 17.4656 7.74187 17.5659 7.41328C17.5964 7.35328 17.5528 7.33219 17.5012 7.3575C17.0564 7.59609 16.5961 7.76906 16.1063 7.89141C16.0144 7.91438 15.9595 7.8 15.8883 7.74094C14.1497 6.26203 11.5627 7.74516 11.9006 10.0364C11.9081 10.0927 11.903 10.1002 11.8523 10.0927C9.93656 9.80719 8.34797 9.12187 7.05891 7.65234C7.00266 7.58859 6.97219 7.58859 6.92672 7.6575C6.24797 8.67469 6.73781 10.0889 7.63547 10.7887C7.5975 10.7963 7.12828 10.7456 6.71063 10.5295C6.65438 10.4939 6.62625 10.5145 6.62156 10.5778C6.56484 11.5734 7.47188 12.7369 8.45906 12.9061C8.27391 12.9464 8.08313 12.9759 7.55156 12.9342C7.48547 12.9216 7.46016 12.9544 7.48547 13.0181C7.88484 14.1061 8.74641 14.43 9.39188 14.6142C9.47812 14.6292 9.56484 14.6292 9.65156 14.6498C9.18 15.3506 7.14141 15.6853 6.35719 15.608C6.30281 15.6 6.09844 15.5714 6.23016 15.6792C10.8877 18.75 16.6884 15.4636 16.6884 9.6225C16.6884 9.54703 16.7775 9.50578 16.8305 9.46594C17.0728 9.28359 17.8134 8.61563 17.8134 8.30297C17.8134 8.27203 17.8172 8.28188 17.7698 8.30297Z" fill="#525252"/>
</svg>
