<svg width="16" height="16" viewBox="0 0 16 16" fill="none" xmlns="http://www.w3.org/2000/svg">
<path fill-rule="evenodd" clip-rule="evenodd" d="M8.88889 14.2222H10.6667C11.1573 14.2222 11.5556 14.6204 11.5556 15.1111C11.5556 15.6018 11.1573 16 10.6667 16H5.33333C4.84267 16 4.44444 15.6018 4.44444 15.1111C4.44444 14.6204 4.84267 14.2222 5.33333 14.2222H7.11111V1.77778H1.77778V3.55556C1.77778 4.04622 1.37956 4.44444 0.888889 4.44444C0.398222 4.44444 0 4.04622 0 3.55556V0.888889C0 0.398222 0.398222 0 0.888889 0H15.1111C15.6018 0 16 0.398222 16 0.888889V3.55556C16 4.04622 15.6018 4.44444 15.1111 4.44444C14.6204 4.44444 14.2222 4.04622 14.2222 3.55556V1.77778H8.88889V14.2222Z" fill="#3F3F3F"/>
</svg>
