<svg width="14" height="14" viewBox="0 0 14 14" fill="none" xmlns="http://www.w3.org/2000/svg">
<path d="M4.06903 0.875C2.00933 0.875 0.875 2.00861 0.875 4.067V9.926C0.875 11.9889 2.00933 13.125 4.06903 13.125H9.93095C11.9906 13.125 13.125 11.9914 13.125 9.933V4.06459C13.1278 3.05369 12.846 2.23539 12.3103 1.69816C11.7732 1.15965 10.9529 0.875 9.93795 0.875H4.06903ZM4.06903 0H9.93795C12.4872 0 14.007 1.519 14 4.067V9.933C14 12.481 12.4802 14 9.93095 14H4.06903C1.51976 14 0 12.481 0 9.926V4.067C0 1.519 1.51976 0 4.06903 0Z" fill="#333333"/>
</svg>
