<svg width="118" height="73" viewBox="0 0 118 73" fill="none" xmlns="http://www.w3.org/2000/svg">
<path fill-rule="evenodd" clip-rule="evenodd" d="M12.8505 67.7023C13.5836 55.7903 19.6325 38.1814 35.4466 24.2725C51.2375 10.3839 76.8648 0.0993553 116.913 2.99378C117.463 3.03359 117.942 2.61932 117.982 2.06847C118.022 1.51762 117.608 1.0388 117.057 0.998986C76.5889 -1.9258 50.398 8.4588 34.1257 22.7707C17.8766 37.0623 11.6171 55.1853 10.8543 67.5795C10.8204 68.1307 11.2398 68.6051 11.791 68.639C12.3422 68.6729 12.8166 68.2536 12.8505 67.7023ZM2.18011 61.8997C1.76364 61.537 1.13198 61.5805 0.769244 61.997C0.406509 62.4134 0.450064 63.0451 0.866527 63.4078L10.8206 72.0777L11.4408 72.6179L12.0905 72.1136L22.2456 64.2318C22.6819 63.8932 22.7611 63.265 22.4225 62.8287C22.0838 62.3924 21.4556 62.3132 21.0194 62.6518L11.514 70.0294L2.18011 61.8997Z" fill="#762DC0"/>
</svg>
