<svg width="16" height="16" viewBox="0 0 16 16" fill="none" xmlns="http://www.w3.org/2000/svg">
<path fill-rule="evenodd" clip-rule="evenodd" d="M7.99988 0C12.4174 0 15.9999 3.5825 15.9999 8C15.9999 12.4175 12.4174 16 7.99988 16C3.58238 16 -0.00012207 12.4175 -0.00012207 8C-0.00012207 3.5825 3.58238 0 7.99988 0ZM6.33858 10.5985L4.37998 8.63824C4.04631 8.30437 4.04624 7.75991 4.37998 7.42611C4.7138 7.09236 5.26067 7.09445 5.59206 7.42611L6.97286 8.80799L10.4078 5.37303C10.7416 5.03921 11.2862 5.03921 11.6199 5.37303C11.9537 5.70677 11.9532 6.25176 11.6199 6.5851L7.57792 10.6271C7.24458 10.9604 6.69959 10.9609 6.36584 10.6271C6.35646 10.6177 6.34742 10.6082 6.33858 10.5985Z" fill="#FC6D35"/>
</svg>
