<svg width="18" height="16" viewBox="0 0 18 16" fill="none" xmlns="http://www.w3.org/2000/svg">
<path d="M14.1402 10.9308C13.9356 10.7042 13.9533 10.3549 14.1796 10.15C14.9 9.49917 15.4462 8.87197 15.7447 8.5064M14.1402 10.9308L15.7447 8.5064M14.1402 10.9308C14.2496 11.0513 14.3996 11.1129 14.5503 11.1129C14.6826 11.1129 14.8153 11.0657 14.921 10.9703C16.1272 9.87984 16.8635 8.8727 16.8944 8.83032L14.1402 10.9308ZM15.7447 8.5064L15.7059 8.47478C15.6975 8.48513 15.6888 8.49569 15.68 8.50646C15.6889 8.51722 15.6975 8.52776 15.706 8.5381L15.7447 8.5064ZM1.94874 1.09809L1.94876 1.09812L16.8425 14.0778C17.0937 14.2964 17.1198 14.6774 16.9012 14.9281C16.7818 15.0652 16.6146 15.1351 16.4463 15.1351C16.3061 15.1351 16.165 15.0864 16.0508 14.9867M1.94874 1.09809L16.0837 14.9491M1.94874 1.09809C1.69801 0.879914 1.31708 0.905581 1.09843 1.15679L1.13614 1.18961L1.09848 1.15672C0.8794 1.40756 0.906029 1.78812 1.15669 2.00704L1.15673 2.00708L4.45677 4.88294M1.94874 1.09809L4.45677 4.88294M16.0508 14.9867L16.0837 14.9491M16.0508 14.9867L16.0508 14.9868L16.0837 14.9491M16.0508 14.9867L13.102 12.4169M16.0837 14.9491L13.1069 12.3548M13.102 12.4169C13.1125 12.4103 13.1231 12.4037 13.1336 12.397L13.1069 12.3548M13.102 12.4169C11.7141 13.2873 10.3353 13.7358 8.99981 13.7358C6.82288 13.7358 4.87394 12.5628 3.45481 11.3709C2.0347 10.1783 1.13814 8.96101 1.0651 8.86044L1.06506 8.86039C0.911997 8.64907 0.911964 8.36301 1.06509 8.15201C1.12614 8.06787 2.44544 6.27293 4.45677 4.88294M13.102 12.4169L13.074 12.3925L13.1069 12.3548M13.1069 12.3548L4.45677 4.88294M7.36387 8.32178C7.36387 8.05756 7.43204 7.80661 7.55064 7.57869L9.93717 9.65857C9.66504 9.84937 9.3389 9.95772 8.99981 9.95772C8.09803 9.95772 7.36387 9.22355 7.36387 8.32178ZM8.99981 12.5303C7.44361 12.5303 5.97657 11.7733 4.79137 10.8847C3.63108 10.0147 2.74636 9.02264 2.32002 8.50565C2.81783 7.90134 3.94461 6.65256 5.4009 5.70552L6.6203 6.76846C6.32015 7.22562 6.15796 7.75943 6.15796 8.32178C6.15796 9.88867 7.43255 11.1633 8.99944 11.1633C9.6895 11.1633 10.3491 10.9081 10.861 10.4641L12.1488 11.5864C11.062 12.2125 10.0051 12.5303 8.99981 12.5303Z" fill="#717171" stroke="#717171" stroke-width="0.1"/>
</svg>
