<svg width="14" height="14" viewBox="0 0 14 14" fill="none" xmlns="http://www.w3.org/2000/svg">
<g clip-path="url(#clip0_6952_5002)">
<path d="M4.52019 9.57561L4.52017 6.42263C4.52018 5.56245 4.52017 5.13237 4.58429 4.72185C4.71584 3.87957 5.04667 3.08088 5.54922 2.39228C5.7942 2.05663 6.09831 1.75252 6.70655 1.14428C6.73832 1.11251 6.76509 1.11489 6.7945 1.1443C7.40273 1.75253 7.70685 2.05665 7.95179 2.39228C8.45435 3.08088 8.78518 3.87956 8.91675 4.72183C8.98088 5.13236 8.98084 5.56246 8.98088 6.42261L8.98084 9.57561" stroke="#616161" stroke-linecap="round" stroke-linejoin="round"/>
<path d="M4.62445 7.89536C3.97335 8.54646 3.01709 9.22687 2.6602 10.0885C2.39869 10.7198 2.49837 11.4765 2.49836 12.1475L4.30408 11.4252C4.78262 11.2338 5.00057 11.8613 5.22239 12.194C5.46957 12.5648 5.48441 12.5727 5.93 12.5727L7.57102 12.5727C8.01661 12.5727 8.03147 12.5648 8.27861 12.194C8.50047 11.8613 8.7184 11.2338 9.1969 11.4252L11.0027 12.1475C11.0027 11.4765 11.1024 10.7198 10.8408 10.0885C10.4839 9.22684 9.52767 8.54646 8.87658 7.89537" stroke="#616161" stroke-linejoin="round"/>
<path d="M9.80764 11.8091L9.80764 12.5737" stroke="#616161" stroke-linecap="round" stroke-linejoin="round"/>
<path d="M3.69191 11.8091L3.69191 12.5737" stroke="#616161" stroke-linecap="round" stroke-linejoin="round"/>
<path d="M4.87012 4.57422C5.39775 4.18423 6.06303 3.886 6.60649 3.89311C7.25202 3.85333 7.89828 4.02364 8.63238 4.57422" stroke="#616161" stroke-linecap="square"/>
<path d="M6.74955 4.21114L6.74955 5.31229" stroke="#616161" stroke-linecap="round"/>
<line x1="12.3844" y1="2.38441" x2="2.38441" y2="12.3844" stroke="#616161" stroke-width="0.8"/>
</g>
<defs>
<clipPath id="clip0_6952_5002">
<rect width="14" height="14" fill="white"/>
</clipPath>
</defs>
</svg>
