<svg xmlns="http://www.w3.org/2000/svg" width="16.15" height="14.221" viewBox="0 0 16.15 14.221">
  <path id="Unpublished_1_" data-name="Unpublished (1)" d="M6.288,4.718A5.524,5.524,0,0,1,8,4.432c3.144,0,5.911,3.057,6.745,4.075A15.373,15.373,0,0,1,13.18,10.15a.553.553,0,0,0,.741.82,15.441,15.441,0,0,0,1.973-2.14.552.552,0,0,0,0-.65C15.75,7.983,12.319,3.326,8,3.326a6.628,6.628,0,0,0-2.054.341.553.553,0,0,0,.343,1.051ZM.916,1.136a.553.553,0,0,0-.726.834L3.538,4.888A15.511,15.511,0,0,0,.106,8.181a.554.554,0,0,0,0,.65c.144.2,3.575,4.855,7.894,4.855a7.719,7.719,0,0,0,4.107-1.331l2.977,2.594a.553.553,0,0,0,.726-.834ZM6.536,7.5,9.017,9.662a1.682,1.682,0,0,1-2.7-1.34A1.665,1.665,0,0,1,6.536,7.5ZM8,12.58c-3.144,0-5.911-3.057-6.745-4.075a14.464,14.464,0,0,1,3.15-2.863L5.686,6.76a2.765,2.765,0,0,0-.478,1.562A2.788,2.788,0,0,0,9.861,10.4l1.373,1.2A6.429,6.429,0,0,1,8,12.58Z" transform="translate(0.086 -0.914)" fill="#717171" stroke="#717171" stroke-width="0.1"/>
</svg>
