<svg width="14" height="12" viewBox="0 0 14 12" fill="none" xmlns="http://www.w3.org/2000/svg">
<path d="M5.14643 3.5382C5.22572 3.78244 5.48854 3.91602 5.73184 3.83584C6.16348 3.69497 6.58996 3.62383 6.99985 3.62383C8.16307 3.62383 9.26078 4.18983 10.1488 4.85566C11.0121 5.50293 11.6719 6.2405 11.9938 6.62986C11.766 6.90637 11.3688 7.35776 10.8512 7.82537L10.8511 7.82541L5.44379 2.95252C5.44379 2.95252 5.44379 2.95252 5.44379 2.95252C5.19978 3.03211 5.06655 3.29441 5.14643 3.5382ZM5.14643 3.5382C5.14642 3.53818 5.14641 3.53815 5.14641 3.53813L5.19396 3.5227L5.14645 3.53828C5.14644 3.53825 5.14644 3.53823 5.14643 3.5382ZM1.71976 1.06414L1.71978 1.06416L12.8901 10.7989C13.0837 10.9674 13.1038 11.261 12.9353 11.4543C12.8433 11.5599 12.7144 11.6138 12.5847 11.6138C12.4767 11.6138 12.3679 11.5763 12.2799 11.4995M1.71976 1.06414L12.3128 11.4618M1.71976 1.06414C1.52652 0.895987 1.23292 0.915758 1.06439 1.10938L1.10211 1.14221M1.71976 1.06414L3.57225 3.91108M12.2799 11.4995L12.3128 11.4618M12.2799 11.4995L12.2799 11.4995L12.3128 11.4618M12.2799 11.4995L10.0753 9.57818M12.3128 11.4618L10.0801 9.51608M10.0753 9.57818C10.0858 9.5716 10.0963 9.56499 10.1068 9.55835L10.0801 9.51608M10.0753 9.57818C9.0355 10.2287 8.00181 10.5644 6.99985 10.5644C5.3628 10.5644 3.89827 9.68235 2.83307 8.78778C1.76689 7.89238 1.09379 6.97851 1.03871 6.90268L1.03867 6.90263C0.920709 6.73977 0.920676 6.5193 1.0387 6.35667C1.08464 6.29335 2.06946 4.95348 3.57225 3.91108M10.0753 9.57818L10.0473 9.55377L10.0801 9.51608M10.0801 9.51608L3.57225 3.91108M3.57225 3.91108L1.10933 1.76473L1.10929 1.7647C0.916123 1.59598 0.895574 1.30267 1.06445 1.10932L1.10211 1.14221M1.10211 1.14221C1.25246 0.969469 1.51447 0.951781 1.68693 1.10186L1.14218 1.72704C0.96972 1.57641 0.951478 1.31467 1.10211 1.14221ZM5.7854 6.49133C5.7854 6.30082 5.83318 6.11948 5.91681 5.95394L7.68255 7.49279C7.48315 7.62882 7.24607 7.70579 6.99985 7.70579C6.33043 7.70579 5.7854 7.16076 5.7854 6.49133ZM6.99985 9.63522C5.83663 9.63522 4.739 9.06929 3.85102 8.4035C2.98781 7.75627 2.3281 7.01872 2.00622 6.62923C2.38156 6.17464 3.21905 5.2493 4.29958 4.54477L5.19881 5.32862C4.97618 5.67149 4.85597 6.07086 4.85597 6.49133C4.85597 7.6734 5.81751 8.63494 6.99958 8.63494C7.51653 8.63494 8.01075 8.44513 8.39568 8.11461L9.34013 8.93767C8.53183 9.40069 7.74648 9.63522 6.99985 9.63522Z" fill="white" stroke="white" stroke-width="0.1"/>
</svg>
