<svg xmlns="http://www.w3.org/2000/svg" xmlns:xlink="http://www.w3.org/1999/xlink" width="12" height="14" viewBox="0 0 10 10">
  <defs>
    <clipPath id="clip-path">
      <rect id="Rectangle_13" data-name="Rectangle 13" width="12" height="14" transform="translate(755 2029)" fill="#717171" stroke="#707070" stroke-width="1"/>
    </clipPath>
  </defs>
  <g id="Mask_Group_8" data-name="Mask Group 8" transform="translate(-755 -2029)" clip-path="url(#clip-path)">
    <g id="eye_off" transform="translate(754.472 2028.762)">
      <path id="Path_29" data-name="Path 29" d="M4.458,3.16a3.452,3.452,0,0,1,1.07-.179c1.965,0,3.694,1.911,4.216,2.547a9.6,9.6,0,0,1-.978,1.027.346.346,0,0,0,.463.513A9.655,9.655,0,0,0,10.462,5.73a.345.345,0,0,0,0-.406C10.372,5.2,8.227,2.29,5.528,2.29A4.142,4.142,0,0,0,4.244,2.5a.345.345,0,0,0,.214.657ZM1.1.921a.346.346,0,0,0-.454.521L2.739,3.266A9.694,9.694,0,0,0,.594,5.325a.346.346,0,0,0,0,.406c.09.124,2.235,3.034,4.934,3.034a4.824,4.824,0,0,0,2.567-.832L9.955,9.555a.345.345,0,0,0,.454-.521ZM4.613,4.9,6.164,6.25a1.051,1.051,0,0,1-1.69-.838A1.041,1.041,0,0,1,4.613,4.9Zm.915,3.175c-1.965,0-3.694-1.911-4.215-2.547A9.04,9.04,0,0,1,3.281,3.738l.8.7a1.728,1.728,0,0,0-.3.976,1.742,1.742,0,0,0,2.908,1.3l.858.748A4.019,4.019,0,0,1,5.528,8.074Z" fill="#717171"/>
    </g>
  </g>
</svg>
