<svg width="16" height="16" viewBox="0 0 16 16" fill="none" xmlns="http://www.w3.org/2000/svg">
<path d="M15.4175 9.74219C15.2631 9.74219 15.1149 9.80355 15.0057 9.91278C14.8965 10.022 14.8351 10.1702 14.8351 10.3246V12.3137C14.8351 12.7826 14.6488 13.2322 14.3173 13.5637C13.9858 13.8952 13.5362 14.0815 13.0673 14.0815H2.93265C2.46382 14.0815 2.01418 13.8952 1.68267 13.5637C1.35115 13.2322 1.16491 12.7826 1.16491 12.3137V10.3246C1.16491 10.1702 1.10354 10.022 0.99431 9.91278C0.885079 9.80355 0.73693 9.74219 0.582454 9.74219C0.427977 9.74219 0.279828 9.80355 0.170597 9.91278C0.0613654 10.022 0 10.1702 0 10.3246V12.3137C0.000770999 13.0913 0.309994 13.8368 0.859806 14.3866C1.40962 14.9364 2.1551 15.2456 2.93265 15.2464H13.0673C13.8449 15.2456 14.5904 14.9364 15.1402 14.3866C15.69 13.8368 15.9992 13.0913 16 12.3137V10.3246C16 10.1702 15.9386 10.022 15.8294 9.91278C15.7202 9.80355 15.572 9.74219 15.4175 9.74219Z" fill="#525252"/>
<path d="M5.08763 4.70686L7.41744 2.37704V11.0265C7.41744 11.181 7.47881 11.3291 7.58804 11.4383C7.69727 11.5476 7.84542 11.6089 7.9999 11.6089C8.15438 11.6089 8.30252 11.5476 8.41176 11.4383C8.52099 11.3291 8.58235 11.181 8.58235 11.0265V2.38578L10.9122 4.71559C10.9663 4.76971 11.0305 4.81264 11.1012 4.84193C11.1719 4.87121 11.2477 4.88629 11.3243 4.88629C11.4008 4.88629 11.4766 4.87121 11.5473 4.84193C11.618 4.81264 11.6822 4.76971 11.7363 4.71559C11.7905 4.66148 11.8334 4.59723 11.8627 4.52653C11.892 4.45582 11.907 4.38004 11.907 4.30351C11.907 4.22698 11.892 4.1512 11.8627 4.08049C11.8334 4.00978 11.7905 3.94554 11.7363 3.89142L8.41344 0.568526C8.33248 0.48999 8.23189 0.434667 8.12221 0.408351C8.02795 0.390998 7.93089 0.396485 7.83918 0.424353C7.74747 0.452221 7.66377 0.501659 7.59509 0.568526L4.2722 3.88269C4.17973 3.99395 4.13197 4.13566 4.13824 4.2802C4.14451 4.42474 4.20435 4.56177 4.3061 4.66462C4.40786 4.76746 4.54425 4.82876 4.68871 4.83657C4.83318 4.84437 4.97538 4.79814 5.08763 4.70686Z" fill="#525252"/>
</svg>
