<svg width="12" height="14" viewBox="0 0 12 14" fill="#717171" xmlns="http://www.w3.org/2000/svg">
<path d="M3.17686 3.84585C3.17686 5.47028 4.49828 6.7917 6.12271 6.7917C7.74714 6.7917 9.06856 5.47028 9.06856 3.84585C9.06856 2.22142 7.74714 0.9 6.12271 0.9C4.49828 0.9 3.17686 2.22142 3.17686 3.84585ZM3.94603 3.84585C3.94603 2.64549 4.92235 1.66917 6.12271 1.66917C7.32307 1.66917 8.29939 2.64549 8.29939 3.84585C8.29939 5.04621 7.32307 6.02253 6.12271 6.02253C4.92235 6.02253 3.94603 5.04621 3.94603 3.84585Z" fill="#717171" stroke="#717171" stroke-width="0.2"/>
<path d="M1.28458 13.0526H5.83794C6.05026 13.0526 6.22253 12.8803 6.22253 12.668C6.22253 12.4557 6.05026 12.2834 5.83794 12.2834H1.66917V10.3913C1.66917 9.34807 2.518 8.49925 3.56126 8.49925H6.97628C7.1886 8.49925 7.36087 8.32698 7.36087 8.11466C7.36087 7.90234 7.1886 7.73008 6.97628 7.73008H3.56126C2.09393 7.73008 0.9 8.924 0.9 10.3913V12.668C0.9 12.8803 1.07227 13.0526 1.28458 13.0526Z" fill="#717171" stroke="#717171" stroke-width="0.2"/>
<path d="M8.36817 8.54748L8.36816 8.54748L10.11 9.13389L8.36817 8.54748ZM8.30243 13.1004C8.31544 13.1004 8.3285 13.0991 8.34142 13.0966L8.28237 12.9984L8.26339 13.0966C8.26341 13.0966 8.26343 13.0966 8.26344 13.0966C8.27637 13.0991 8.28943 13.1004 8.30243 13.1004ZM9.15193 10.0632L9.15192 10.0632L8.10425 11.0663L7.5844 10.5889L7.58439 10.5889C7.50061 10.5119 7.3703 10.5175 7.29334 10.6012L7.29332 10.6013C7.21639 10.6851 7.22193 10.8154 7.30572 10.8923L7.30572 10.8923L7.96784 11.5004L7.96786 11.5004C8.00727 11.5366 8.05735 11.5547 8.10717 11.5547C8.15838 11.5547 8.20986 11.5356 8.24964 11.4975C8.24965 11.4975 8.24965 11.4974 8.24965 11.4974L9.43685 10.3608L9.43686 10.3608C9.51903 10.2821 9.52186 10.1517 9.44319 10.0695L9.44318 10.0695C9.3645 9.98733 9.23411 9.98449 9.15193 10.0632ZM9.83828 10.7851C9.83828 11.7008 9.19474 12.4933 8.30244 12.6842C7.41014 12.4933 6.7666 11.7008 6.7666 10.7851V9.47713L8.30244 8.96008L9.83828 9.47713V10.7851Z" fill="#717171" stroke="#717171" stroke-width="0.2"/>
</svg>
