<svg width="16" height="16" viewBox="0 0 16 16" fill="none" xmlns="http://www.w3.org/2000/svg">
<path d="M15.1797 15.1741C14.8289 15.1741 14.5045 14.9471 14.3963 14.5942C13.5307 11.7673 10.9603 9.86788 8 9.86788C5.03967 9.86788 2.46927 11.7673 1.60369 14.5942C1.47099 15.0274 1.01241 15.2707 0.579799 15.138C0.147188 15.0055 -0.0965116 14.5471 0.0361892 14.1143C1.11416 10.5938 4.31462 8.22852 8 8.22852C11.6854 8.22852 14.8858 10.5938 15.9638 14.1143C16.0965 14.5471 15.8528 15.0055 15.4202 15.138C15.3402 15.1626 15.2594 15.1741 15.1797 15.1741Z" fill="#FF9141"/>
<path d="M7.99981 9.23852C5.45289 9.23852 3.38055 7.16636 3.38055 4.61926C3.38055 2.07216 5.45289 0 7.99981 0C10.5467 0 12.6191 2.07216 12.6191 4.61926C12.6191 7.16636 10.5467 9.23852 7.99981 9.23852ZM7.99981 1.63937C6.35653 1.63937 5.01992 2.97616 5.01992 4.61926C5.01992 6.26236 6.35653 7.59915 7.99981 7.59915C9.64309 7.59915 10.9797 6.26236 10.9797 4.61926C10.9797 2.97616 9.64309 1.63937 7.99981 1.63937Z" fill="#FF9141"/>
</svg>
