<svg xmlns="http://www.w3.org/2000/svg" xmlns:xlink="http://www.w3.org/1999/xlink" width="32" height="32" viewBox="0 0 32 32">
  <defs>
    <clipPath id="clip-path">
      <rect id="Rectangle_3642" data-name="Rectangle 3642" width="32" height="32" transform="translate(512 401)" fill="#112d55" stroke="#112d55" stroke-width="1"/>
    </clipPath>
    <clipPath id="clip-path-2">
      <path id="path10338" d="M0-32H32V0H0Z" fill="#112d55"/>
    </clipPath>
  </defs>
  <g id="Mask_Group_535" data-name="Mask Group 535" transform="translate(-512 -401)" clip-path="url(#clip-path)">
    <g id="g10332" transform="translate(512 433)">
      <g id="g10334">
        <g id="g10336" clip-path="url(#clip-path-2)">
          <g id="g10342" transform="translate(8 -22.75)">
            <path id="path10344" d="M0,0A8,8,0,0,1,8-8a8,8,0,0,1,8,8A8,8,0,0,1,8,8,8,8,0,0,1,0,0Z" fill="none" stroke="#112d55" stroke-linecap="round" stroke-linejoin="round" stroke-width="2.5"/>
          </g>
          <g id="g10346" transform="translate(25.131 -12.937)">
            <path id="path10348" d="M0,0A13.785,13.785,0,0,1,3.506,2.19,6.235,6.235,0,0,1,5.619,6.875V9.188a2.5,2.5,0,0,1-2.5,2.5h-24.5a2.5,2.5,0,0,1-2.5-2.5V6.875A6.235,6.235,0,0,1-21.768,2.19c2.28-2,6.439-4,12.637-4" fill="none" stroke="#112d55" stroke-linecap="round" stroke-width="2.5"/>
          </g>
        </g>
      </g>
    </g>
  </g>
</svg>
