<svg width="16" height="16" viewBox="0 0 16 16" fill="none" xmlns="http://www.w3.org/2000/svg">
<g id="Group">
<path id="Vector" d="M15.1797 15.1746C14.8289 15.1746 14.5045 14.9476 14.3963 14.5947C13.5307 11.7678 10.9603 9.86837 8 9.86837C5.03967 9.86837 2.46927 11.7678 1.60369 14.5947C1.47099 15.0279 1.01241 15.2712 0.579799 15.1385C0.147188 15.006 -0.0965116 14.5476 0.0361892 14.1148C1.11416 10.5943 4.31462 8.229 8 8.229C11.6854 8.229 14.8858 10.5943 15.9638 14.1148C16.0965 14.5476 15.8528 15.006 15.4202 15.1385C15.3402 15.1631 15.2594 15.1746 15.1797 15.1746Z" fill="#FF9141"/>
<path id="Vector_2" d="M8.00012 9.23852C5.45319 9.23852 3.38086 7.16636 3.38086 4.61926C3.38086 2.07216 5.45319 0 8.00012 0C10.547 0 12.6194 2.07216 12.6194 4.61926C12.6194 7.16636 10.547 9.23852 8.00012 9.23852ZM8.00012 1.63937C6.35684 1.63937 5.02023 2.97616 5.02023 4.61926C5.02023 6.26236 6.35684 7.59915 8.00012 7.59915C9.6434 7.59915 10.98 6.26236 10.98 4.61926C10.98 2.97616 9.6434 1.63937 8.00012 1.63937Z" fill="#FF9141"/>
</g>
</svg>
