<svg xmlns="http://www.w3.org/2000/svg" width="110" height="31" viewBox="0 0 110 31">
  <g id="Group_2731" data-name="Group 2731" transform="translate(-40 -10)">
    <g id="Group_2722" data-name="Group 2722" transform="translate(60 2)">
      <rect id="Rectangle_5176" data-name="Rectangle 5176" width="32" height="13" rx="6.5" transform="translate(58 8)" fill="#fc6d34"/>
      <rect id="Rectangle_5181" data-name="Rectangle 5181" width="32" height="13" rx="6.5" transform="translate(58 8)" fill="#0fa27f"/>
      <text id="v0.2.0" transform="translate(60 18)" fill="#fff" font-size="10" font-family="Lexend"><tspan x="0" y="0">v0.2.0</tspan></text>
    </g>
    <g id="Layer_2" data-name="Layer 2" transform="translate(40 25)">
      <g id="Layer_1" data-name="Layer 1">
        <g id="Group_29" data-name="Group 29">
          <path id="Path_28" data-name="Path 28" d="M17.16,15.983a5.021,5.021,0,0,0,5.1-3.843c.532-2.554-.65-4.271-3.353-5.906-.843-.512-.887-.961-.807-1.329.038-.328.348-.635.965-.635A2.715,2.715,0,0,1,20.84,5.334l2.722-2.493A5.93,5.93,0,0,0,18.83.552a4.712,4.712,0,0,0-4.81,3.535c-.522,2.392.65,4.272,3.214,5.841.946.591,1.043,1.082.965,1.532a1,1,0,0,1-1.043.8c-1.379,0-2.464-1.655-2.464-1.655l-2.84,2.253a6.094,6.094,0,0,0,5.31,3.128ZM30.03.858H25L21.926,15.684h4.238l1.127-5.435h1.637A4.991,4.991,0,0,0,34.213,6a4.364,4.364,0,0,0-.551-3.2A4.089,4.089,0,0,0,31.091.95,4.031,4.031,0,0,0,30.03.858Zm.157,4.817a1.152,1.152,0,0,1-1.17,1h-.965l.433-2.145h.79a.878.878,0,0,1,.742.333.951.951,0,0,1,.178.817Zm8.137,10.308a5.953,5.953,0,0,0,6.171-5.314L46.512.858H42.274l-1.913,9.32c-.174.919-.61,1.39-1.36,1.39-1.005,0-1.268-.635-1.085-1.431L39.809.858h-4.24L33.74,9.892c-.807,3.989,1.5,6.091,4.59,6.091ZM56.6,5.866A4.149,4.149,0,0,0,53.542.946,3.908,3.908,0,0,0,52.517.858H47.3L44.284,15.684h4.24l1.169-5.641,1.986,5.641h4.492L53.789,9.574a4.912,4.912,0,0,0,2.819-3.708ZM51.338,4.537a1.069,1.069,0,0,1,.8.265,1.148,1.148,0,0,1,.383.775,1.135,1.135,0,0,1-.04.411,1.445,1.445,0,0,1-1.5,1.226h-.732L50.8,4.537ZM68.083.858H57.239L56.369,5h3.292L57.476,15.684h4.237L63.9,5.008h3.3Zm9.76,15.125a7.172,7.172,0,0,0,6.073-2.823l-3.073-2.553a3.426,3.426,0,0,1-2.623,1.226,3.1,3.1,0,0,1-2.452-1.286,3.34,3.34,0,0,1-.529-2.8A3.544,3.544,0,0,1,78.7,4.7,3.108,3.108,0,0,1,81.6,6.85l3.786-1.738A6.671,6.671,0,0,0,79.079.552a7.88,7.88,0,0,0-8,6.724,7.376,7.376,0,0,0,1.373,6.033,6.834,6.834,0,0,0,5.4,2.674Zm5.52-.3h4l1.4-5.313L90.954,15.3l4.1-4.455-.7,4.842h3.983L100.438,0l-8.3,8.523L87.718,0Zm20.92.308a5.021,5.021,0,0,0,5.106-3.843c.532-2.554-.65-4.271-3.351-5.906-.845-.512-.887-.961-.809-1.329.04-.328.348-.635.965-.635a2.721,2.721,0,0,1,1.779,1.055l2.72-2.493A5.93,5.93,0,0,0,105.961.552a4.712,4.712,0,0,0-4.811,3.535c-.522,2.392.65,4.272,3.214,5.841.946.591,1.044,1.082.967,1.532a1,1,0,0,1-1.043.8c-1.381,0-2.464-1.655-2.464-1.655l-2.835,2.253a6.1,6.1,0,0,0,5.294,3.128Z" transform="translate(-0.979)" fill="#05acd7"/>
          <g id="Group_27" data-name="Group 27" transform="translate(0 0.694)">
            <path id="Path_25" data-name="Path 25" d="M13.007,9.181H5.638a.588.588,0,0,1,0-1.152h7.369a.588.588,0,0,1,0,1.152Z" transform="translate(-0.406 -1.114)" fill="#05acd7"/>
            <path id="Path_26" data-name="Path 26" d="M14.245,1.884H5.712a.565.565,0,0,1-.567-.549.57.57,0,0,1,.513-.6h8.586a.565.565,0,0,1,.57.548.57.57,0,0,1-.514.6Z" transform="translate(-0.404 -0.732)" fill="#05acd7"/>
            <path id="Path_27" data-name="Path 27" d="M11.649,5.532H.518a.579.579,0,0,1,0-1.157H11.649a.578.578,0,0,1,0,1.152Z" transform="translate(0.04 -0.923)" fill="#05acd7"/>
          </g>
        </g>
      </g>
    </g>
  </g>
</svg>
