<svg width="24" height="24" viewBox="0 0 24 24" fill="none" xmlns="http://www.w3.org/2000/svg">
<path d="M17.3046 8.19232C17.6708 8.55853 17.6708 9.15216 17.3046 9.51819L11.0153 15.8077C10.649 16.1737 10.0556 16.1737 9.68939 15.8077L6.69543 12.8135C6.32922 12.4475 6.32922 11.8539 6.69543 11.4879C7.06146 11.1216 7.65509 11.1216 8.02112 11.4879L10.3522 13.819L15.9787 8.19232C16.3449 7.82629 16.9385 7.82629 17.3046 8.19232ZM24 12C24 18.633 18.6321 24 12 24C5.367 24 0 18.6321 0 12C0 5.367 5.36792 0 12 0C18.633 0 24 5.36792 24 12ZM22.125 12C22.125 6.40338 17.5959 1.875 12 1.875C6.40338 1.875 1.875 6.40411 1.875 12C1.875 17.5966 6.40411 22.125 12 22.125C17.5966 22.125 22.125 17.5959 22.125 12Z" fill="#5BCA87"/>
</svg>
