<svg width="16" height="16" viewBox="0 0 16 16" fill="none" xmlns="http://www.w3.org/2000/svg">
<path d="M13.0244 0H2.97563C1.33303 0.00190625 0.00190625 1.33303 0 2.97563V13.0244C0.00190625 14.667 1.33303 15.9981 2.97563 16H13.0244C14.667 15.9981 15.9981 14.667 16 13.0244V2.97563C15.9981 1.33303 14.667 0.00190625 13.0244 0ZM14.8955 2.97563V3.94034H12.0974L10.0047 1.10453H13.0244C14.0573 1.10569 14.8943 1.94272 14.8955 2.97563ZM8.63194 1.10453L10.7246 3.94034H7.36806L5.27537 1.10453H8.63194ZM1.10453 2.97563C1.10569 1.94275 1.94272 1.10572 2.97563 1.10453H3.90266L5.99534 3.94034H1.10453V2.97563ZM13.0244 14.8955H2.97563C1.94275 14.8943 1.10572 14.0573 1.10453 13.0244V5.04491H14.8955V13.0244C14.8943 14.0572 14.0572 14.8943 13.0244 14.8955Z" fill="#262626"/>
<path d="M10.9466 9.49313L6.57743 6.97056C6.31327 6.81806 5.97552 6.90856 5.82302 7.17272C5.77455 7.25669 5.74902 7.35191 5.74902 7.44888V12.494C5.74902 12.799 5.99627 13.0463 6.30127 13.0463C6.39821 13.0463 6.49346 13.0208 6.57743 12.9723L10.9466 10.4497C11.2108 10.2972 11.3013 9.95947 11.1488 9.69531C11.1003 9.61131 11.0306 9.54159 10.9466 9.49313ZM6.85355 11.5375V8.40541L9.56599 9.97141L6.85355 11.5375Z" fill="#262626"/>
</svg>
