<svg width="32" height="32" viewBox="0 0 32 32" fill="none" xmlns="http://www.w3.org/2000/svg">
<path d="M16.0012 19.1647V28.3206C16.0012 30.0727 14.5808 31.4931 12.8286 31.4931H3.67275C1.92063 31.4931 0.500214 30.0727 0.500214 28.3206V19.1647C0.500214 17.4126 1.92063 15.9922 3.67275 15.9922H12.8286C14.5808 15.9922 16.0012 17.4126 16.0012 19.1647Z" fill="white"/>
<path d="M31.5021 19.1647V28.3206C31.5021 30.0727 30.0817 31.4931 28.3296 31.4931H19.1737C17.4216 31.4931 16.0012 30.0727 16.0012 28.3206V19.1647C16.0012 17.4126 17.4216 15.9922 19.1737 15.9922H28.3296C30.0817 15.9922 31.5021 17.4126 31.5021 19.1647Z" fill="white"/>
<path d="M23.7516 3.66472V12.8206C23.7516 14.5727 22.3312 15.9931 20.5791 15.9931H11.4233C9.67115 15.9931 8.25073 14.5727 8.25073 12.8206V3.66472C8.25073 1.91261 9.67115 0.492188 11.4233 0.492188H20.5792C22.3313 0.492254 23.7516 1.91261 23.7516 3.66472Z" fill="white"/>
<path d="M23.7346 3.36515C23.6347 3.35515 23.5346 3.35018 23.4297 3.35018H14.2741C12.524 3.35018 11.0989 4.77027 11.0989 6.5204V15.676C11.0989 15.7809 11.1039 15.8859 11.1139 15.986C9.50382 15.831 8.24873 14.4709 8.24873 12.8258V3.67022C8.24873 1.92009 9.66881 0.5 11.4239 0.5H20.5795C22.2246 0.5 23.5797 1.76007 23.7346 3.36515Z" fill="#B1D7FE" fill-opacity="0.2"/>
<path d="M12.2076 4.45312H19.7948V12.0403H12.2076V4.45312Z" fill="#FFAF5D"/>
<path d="M4.45699 19.9531H12.0444V27.5403H4.45699V19.9531Z" fill="#8BC6F8"/>
<path d="M15.9892 18.9202C15.9092 18.9152 15.8242 18.9102 15.7392 18.9102H6.58367C4.83354 18.9102 3.41346 20.3303 3.41346 22.0804V31.241C3.41346 31.326 3.41849 31.4059 3.42346 31.491C1.78332 31.3659 0.498276 29.9959 0.498276 28.3258V19.1702C0.498276 17.4201 1.91836 16 3.67346 16H12.829C14.4941 16.0001 15.8642 17.2851 15.9892 18.9202Z" fill="#B1D7FE" fill-opacity="0.2"/>
<path d="M31.4901 18.9202C31.4101 18.9152 31.3251 18.9102 31.2401 18.9102H22.0846C20.3344 18.9102 18.9144 20.3303 18.9144 22.0804V31.241C18.9144 31.326 18.9194 31.4059 18.9244 31.491C17.2842 31.3659 15.9992 29.9959 15.9992 28.3258V19.1702C15.9992 17.4201 17.4193 16 19.1744 16H28.3299C29.995 16.0001 31.3651 17.2851 31.4901 18.9202Z" fill="#B1D7FE" fill-opacity="0.2"/>
<path d="M19.9581 19.9531H27.5453V27.5403H19.9581V19.9531Z" fill="#FF6677"/>
<path d="M23.0571 13.8104C22.9521 14.0658 23.0737 14.3578 23.3291 14.4633C23.3911 14.4886 23.456 14.5008 23.5195 14.5008C23.7158 14.5008 23.9023 14.3841 23.9819 14.1913C24.1597 13.7606 24.2496 13.3011 24.2496 12.826V3.67061C24.2496 1.64656 22.603 0 20.5794 0H11.424C9.39754 0 7.74852 1.64656 7.74852 3.67061C7.83108 12.9399 7.55061 13.0602 8.01615 14.1908C8.12164 14.4467 8.41464 14.5668 8.66855 14.4633C8.92391 14.3583 9.04603 14.0663 8.94101 13.8109C8.60394 12.9882 8.81147 13.1871 8.74859 3.67061C8.74859 2.19785 9.94883 1.00006 11.424 1.00006H20.5794C22.0516 1.00006 23.2495 2.19792 23.2495 3.67061V12.826C23.2494 13.1697 23.185 13.5008 23.0571 13.8104Z" fill="black"/>
<path d="M12.2078 3.95312C11.9314 3.95312 11.7078 4.17675 11.7078 4.45312V12.0405C11.7078 12.3169 11.9314 12.5405 12.2078 12.5405H19.7946C20.071 12.5405 20.2946 12.3169 20.2946 12.0405V4.45319C20.2946 4.17682 20.071 3.95319 19.7946 3.95319L12.2078 3.95312ZM19.2946 11.5405H12.7078V4.95319H19.2946V11.5405Z" fill="black"/>
<path d="M12.0442 19.4531H4.45679C4.18042 19.4531 3.95679 19.6768 3.95679 19.9531V27.5405C3.95679 27.8169 4.18042 28.0405 4.45679 28.0405H12.0442C12.3205 28.0405 12.5442 27.8169 12.5442 27.5405V19.9531C12.5442 19.6768 12.3205 19.4531 12.0442 19.4531ZM11.5442 27.0404H4.95685V20.4531H11.5442V27.0404Z" fill="black"/>
<path d="M28.3293 15.5H19.1735C17.8199 15.5 16.6379 16.2382 16.001 17.3312C15.364 16.2382 14.1821 15.5 12.8284 15.5H3.6726C1.64756 15.5 0 17.1476 0 19.1726V28.3284C0 30.3535 1.64756 32.001 3.6726 32.001H12.8284C14.1821 32.001 15.3641 31.2628 16.001 30.1698C16.6379 31.2628 17.8199 32.001 19.1735 32.001H28.3293C30.3544 32.001 32.0019 30.3535 32.0019 28.3284V19.1726C32.0019 17.1476 30.3544 15.5 28.3293 15.5ZM12.8284 31.0009H3.6726C2.19891 31.0009 1.00006 29.8021 1.00006 28.3284V19.1725C1.00006 17.6988 2.19884 16.5 3.6726 16.5H12.8284C14.3021 16.5 15.501 17.6988 15.501 19.1725V28.3284C15.501 29.8021 14.3021 31.0009 12.8284 31.0009ZM31.0019 28.3284C31.0019 29.8021 29.8031 31.0009 28.3293 31.0009H19.1735C17.6998 31.0009 16.501 29.8021 16.501 28.3284V19.1725C16.501 17.6988 17.6997 16.5 19.1735 16.5H28.3293C29.803 16.5 31.0019 17.6988 31.0019 19.1725V28.3284Z" fill="black"/>
<path d="M27.5451 19.4531H19.9582C19.6818 19.4531 19.4582 19.6768 19.4582 19.9531V27.5405C19.4582 27.8169 19.6818 28.0405 19.9582 28.0405H27.5451C27.8214 28.0405 28.0451 27.8169 28.0451 27.5405V19.9531C28.0451 19.6768 27.8215 19.4531 27.5451 19.4531ZM27.0451 27.0404H20.4583V20.4531H27.0451V27.0404Z" fill="black"/>
</svg>
