<svg width="30" height="28" viewBox="0 0 30 28" fill="none" xmlns="http://www.w3.org/2000/svg">
<g id="Group">
<path id="Vector" d="M27.6102 28H2.38977C1.5144 28 0.760675 27.5718 0.321729 26.8252C-0.101806 26.1047 -0.107431 25.2532 0.306377 24.4889L12.9166 1.20171C13.3241 0.449249 14.1029 0 15 0C15.897 0 16.6759 0.449191 17.0833 1.20171H17.0834L29.6936 24.4888C30.1075 25.2531 30.1018 26.1047 29.6782 26.8252C29.2393 27.5718 28.4856 28 27.6102 28ZM15 1.27086C14.5809 1.27086 14.236 1.4638 14.0537 1.80023L1.44362 25.0874C1.3007 25.3513 1.18351 25.7566 1.43711 26.188C1.64226 26.537 1.98059 26.7291 2.38977 26.7291H27.6102C28.0194 26.7291 28.3577 26.537 28.5629 26.188C28.8165 25.7566 28.6993 25.3514 28.5563 25.0874L15.9461 1.80023C15.7639 1.4638 15.419 1.27086 15 1.27086Z" fill="#112D55"/>
<g id="Group_2">
<path id="Vector_2" d="M15 19.6293C14.6441 19.6293 14.3555 19.3448 14.3555 18.9939V10.478C14.3555 10.127 14.6441 9.84253 15 9.84253C15.356 9.84253 15.6446 10.127 15.6446 10.478V18.9939C15.6446 19.3448 15.356 19.6293 15 19.6293Z" fill="#112D55"/>
<path id="Vector_3" d="M15 23.0954C14.9578 23.0954 14.9156 23.0913 14.874 23.0832C14.833 23.0751 14.7926 23.063 14.7533 23.0468C14.7146 23.0312 14.6771 23.0116 14.642 22.9884C14.6068 22.9654 14.574 22.9388 14.5441 22.9093C14.5143 22.8804 14.4873 22.8476 14.4639 22.8128C14.441 22.7782 14.4212 22.7412 14.4047 22.7031C14.3889 22.665 14.3766 22.6251 14.3678 22.5841C14.3595 22.5431 14.3555 22.5015 14.3555 22.46C14.3555 22.419 14.3595 22.3768 14.3678 22.3358C14.3765 22.2953 14.3888 22.2555 14.4047 22.2174C14.4211 22.1787 14.441 22.1417 14.4639 22.1076C14.4873 22.0724 14.5143 22.04 14.5441 22.0111C14.574 21.9817 14.6068 21.9551 14.642 21.932C14.6772 21.909 14.7146 21.8893 14.7533 21.8737C14.7926 21.8575 14.8329 21.8454 14.874 21.8373C14.9572 21.8205 15.0428 21.8205 15.126 21.8373C15.167 21.8454 15.2075 21.8575 15.2467 21.8737C15.2854 21.8893 15.3229 21.9089 15.358 21.932C15.3932 21.9551 15.426 21.9817 15.4559 22.0111C15.4852 22.04 15.5122 22.0724 15.5361 22.1076C15.559 22.1417 15.5789 22.1787 15.5954 22.2174C15.6112 22.2555 15.6234 22.2953 15.6317 22.3358C15.6404 22.3768 15.6446 22.419 15.6446 22.46C15.6446 22.5016 15.6405 22.5431 15.6317 22.5841C15.6234 22.6251 15.6111 22.665 15.5954 22.7031C15.579 22.7412 15.559 22.7782 15.5361 22.8128C15.5122 22.8476 15.4852 22.8804 15.4559 22.9093C15.426 22.9388 15.3932 22.9654 15.358 22.9884C15.3229 23.0116 15.2854 23.0312 15.2467 23.0468C15.2075 23.063 15.1671 23.0751 15.126 23.0832C15.0843 23.0913 15.0422 23.0954 15 23.0954Z" fill="#112D55"/>
</g>
</g>
</svg>
