<svg width="14" height="15" viewBox="0 0 14 15" fill="none" xmlns="http://www.w3.org/2000/svg">
<path d="M6.99999 13.3346C10.2217 13.3346 12.8333 10.723 12.8333 7.5013C12.8333 4.27964 10.2217 1.66797 6.99999 1.66797C3.77833 1.66797 1.16666 4.27964 1.16666 7.5013C1.16666 10.723 3.77833 13.3346 6.99999 13.3346Z" stroke="#00A481"/>
<path d="M4.66666 7.5013C4.66666 11.0013 6.99999 13.3346 6.99999 13.3346C6.99999 13.3346 9.33332 11.0013 9.33332 7.5013C9.33332 4.0013 6.99999 1.66797 6.99999 1.66797C6.99999 1.66797 4.66666 4.0013 4.66666 7.5013Z" stroke="#00A481" stroke-linejoin="round"/>
<path d="M12.25 9.25H1.75" stroke="#00A481" stroke-linecap="round" stroke-linejoin="round"/>
<path d="M12.25 5.75H1.75" stroke="#00A481" stroke-linecap="round" stroke-linejoin="round"/>
</svg>
