<svg width="16" height="16" viewBox="0 0 16 16" fill="#FC6D35" xmlns="http://www.w3.org/2000/svg">
<path d="M11.583 12.4262H6.80893C6.72248 12.938 6.52089 13.4234 6.21947 13.846C5.918 14.2686 5.52458 14.6171 5.06877 14.8654C4.61302 15.1138 4.10677 15.2554 3.58828 15.2796C3.0698 15.3038 2.55259 15.21 2.07565 15.0052C1.59871 14.8004 1.17451 14.4899 0.835018 14.0973C0.495529 13.7047 0.249618 13.2401 0.115835 12.7386C-0.0179482 12.237 -0.0361076 11.7117 0.0627114 11.2022C0.161536 10.6926 0.374768 10.2121 0.686327 9.79702C0.7314 9.73696 0.787849 9.68639 0.852463 9.64817C0.917072 9.61 0.988578 9.58486 1.0629 9.57428C1.13721 9.56371 1.21289 9.56788 1.28559 9.58651C1.35831 9.6052 1.42662 9.638 1.48666 9.68308C1.54669 9.72816 1.59725 9.78462 1.63546 9.84919C1.67368 9.91381 1.69879 9.9853 1.70937 10.0596C1.71995 10.134 1.71578 10.2096 1.69712 10.2823C1.67845 10.3551 1.64565 10.4234 1.60058 10.4834C1.30241 10.8783 1.14184 11.36 1.14345 11.8548C1.14345 12.461 1.38426 13.0423 1.8129 13.4709C2.24153 13.8996 2.82289 14.1404 3.42908 14.1404C4.03526 14.1404 4.61662 13.8996 5.04529 13.4709C5.4739 13.0423 5.71469 12.461 5.71469 11.8548C5.71469 11.7032 5.77492 11.5579 5.88205 11.4507C5.98925 11.3436 6.13456 11.2834 6.2861 11.2834H11.583C11.7089 11.0655 11.903 10.8952 12.1354 10.799C12.3679 10.7027 12.6255 10.6858 12.8685 10.7509C13.1115 10.816 13.3263 10.9595 13.4794 11.1591C13.6325 11.3587 13.7156 11.6032 13.7156 11.8548C13.7156 12.1064 13.6325 12.3509 13.4794 12.5505C13.3263 12.75 13.1115 12.8935 12.8685 12.9587C12.6255 13.0237 12.3679 13.0069 12.1354 12.9106C11.903 12.8143 11.7089 12.6441 11.583 12.4262ZM3.42908 12.9976C3.62701 12.9976 3.82157 12.9463 3.9937 12.8486C4.16583 12.7508 4.30962 12.6101 4.41101 12.4401C4.51239 12.2701 4.56788 12.0767 4.57205 11.8788C4.57622 11.6809 4.5289 11.4854 4.43475 11.3112L6.98967 7.15855C7.06892 7.02953 7.09378 6.87428 7.05869 6.72697C7.02361 6.57966 6.93144 6.45229 6.80253 6.37287C6.49712 6.18482 6.24021 5.92757 6.05262 5.62187C5.86508 5.31622 5.75206 4.97066 5.72275 4.61322C5.69343 4.25577 5.74869 3.89644 5.884 3.56429C6.01925 3.23213 6.23084 2.93648 6.50152 2.70123C6.77225 2.46599 7.09452 2.29775 7.44234 2.21012C7.79009 2.1225 8.15362 2.11794 8.50349 2.19683C8.85337 2.27571 9.17975 2.43583 9.45626 2.66422C9.73276 2.89261 9.95167 3.18287 10.0953 3.51153C10.1559 3.65048 10.2692 3.75965 10.4103 3.81504C10.5514 3.87043 10.7088 3.86749 10.8477 3.80687C10.9867 3.74626 11.0958 3.63292 11.1512 3.49181C11.2066 3.35069 11.2037 3.19335 11.143 3.0544C10.9372 2.58387 10.6283 2.16559 10.2391 1.83047C9.84996 1.49534 9.39043 1.25194 8.89456 1.11823C8.3987 0.984518 7.87912 0.963924 7.37422 1.05797C6.86933 1.15201 6.39203 1.35829 5.97754 1.66155C5.56304 1.96483 5.22197 2.35734 4.97958 2.81011C4.73713 3.26287 4.59953 3.76432 4.57691 4.27741C4.55428 4.79049 4.64719 5.30211 4.84884 5.77443C5.05049 6.24681 5.35567 6.66783 5.74183 7.00638L3.4605 10.712C3.44979 10.712 3.43979 10.712 3.42908 10.712C3.12599 10.712 2.83531 10.8323 2.62099 11.0467C2.40667 11.261 2.28626 11.5517 2.28626 11.8548C2.28626 12.1578 2.40667 12.4486 2.62099 12.6628C2.83531 12.8772 3.12599 12.9976 3.42908 12.9976ZM12.5716 8.42633C12.131 8.42639 11.6946 8.51101 11.2859 8.67563L9.00599 4.96933C9.12484 4.74918 9.16815 4.49612 9.1293 4.24899C9.09044 4.00185 8.97153 3.77429 8.79091 3.60124C8.61023 3.42818 8.37778 3.31918 8.12922 3.29097C7.88066 3.26276 7.6297 3.31689 7.41485 3.44507C7.2 3.57324 7.03315 3.76837 6.9399 4.00051C6.84665 4.23265 6.83213 4.48898 6.89859 4.73015C6.9651 4.97133 7.10886 5.18406 7.30788 5.33559C7.50691 5.48719 7.75015 5.5693 8.00031 5.5693H8.03174L10.5874 9.72274C10.6669 9.85153 10.7943 9.94353 10.9416 9.9785C11.0889 10.0134 11.2441 9.9885 11.373 9.90913C11.6739 9.72371 12.0136 9.61051 12.3656 9.57851C12.7176 9.54651 13.0721 9.59663 13.4015 9.72479C13.7308 9.85296 14.026 10.0558 14.2637 10.3173C14.5014 10.5788 14.6753 10.8918 14.7716 11.2319C14.8679 11.5719 14.884 11.9296 14.8187 12.277C14.7535 12.6243 14.6086 12.9518 14.3954 13.2336C14.1821 13.5154 13.9065 13.744 13.59 13.9014C13.2736 14.0587 12.925 14.1405 12.5716 14.1404C12.42 14.1404 12.2747 14.2006 12.1675 14.3078C12.0604 14.4149 12.0002 14.5603 12.0002 14.7118C12.0002 14.8633 12.0604 15.0087 12.1675 15.1158C12.2747 15.223 12.42 15.2832 12.5716 15.2832C13.4808 15.2832 14.3529 14.922 14.9959 14.2791C15.6388 13.6361 16 12.764 16 11.8548C16 10.9455 15.6388 10.0735 14.9959 9.43052C14.3529 8.78752 13.4808 8.42633 12.5716 8.42633Z" fill="#FC6D35"/>
</svg>
