<svg width="18" height="18" viewBox="0 0 18 18" fill="none" xmlns="http://www.w3.org/2000/svg">
<path d="M6.11719 8.4375H2.32031C1.04087 8.4375 0 7.39663 0 6.11719V2.32031C0 1.04087 1.04087 0 2.32031 0H6.11719C7.39663 0 8.4375 1.04087 8.4375 2.32031V6.11719C8.4375 7.39663 7.39663 8.4375 6.11719 8.4375ZM2.32031 1.125C1.6612 1.125 1.125 1.6612 1.125 2.32031V6.11719C1.125 6.7763 1.6612 7.3125 2.32031 7.3125H6.11719C6.7763 7.3125 7.3125 6.7763 7.3125 6.11719V2.32031C7.3125 1.6612 6.7763 1.125 6.11719 1.125H2.32031Z" fill="#616161"/>
<path d="M15.6797 8.4375H11.8828C10.6034 8.4375 9.5625 7.39663 9.5625 6.11719V2.32031C9.5625 1.04087 10.6034 0 11.8828 0H15.6797C16.9591 0 18 1.04087 18 2.32031V6.11719C18 7.39663 16.9591 8.4375 15.6797 8.4375ZM11.8828 1.125C11.2237 1.125 10.6875 1.6612 10.6875 2.32031V6.11719C10.6875 6.7763 11.2237 7.3125 11.8828 7.3125H15.6797C16.3388 7.3125 16.875 6.7763 16.875 6.11719V2.32031C16.875 1.6612 16.3388 1.125 15.6797 1.125H11.8828Z" fill="#616161"/>
<path d="M13.7812 18C11.455 18 9.5625 16.1075 9.5625 13.7812C9.5625 11.455 11.455 9.5625 13.7812 9.5625C16.1075 9.5625 18 11.455 18 13.7812C18 16.1075 16.1075 18 13.7812 18ZM13.7812 10.6875C12.0754 10.6875 10.6875 12.0754 10.6875 13.7812C10.6875 15.4871 12.0754 16.875 13.7812 16.875C15.4871 16.875 16.875 15.4871 16.875 13.7812C16.875 12.0754 15.4871 10.6875 13.7812 10.6875Z" fill="#616161"/>
<path d="M6.11719 18H2.32031C1.04087 18 0 16.9591 0 15.6797V11.8828C0 10.6034 1.04087 9.5625 2.32031 9.5625H6.11719C7.39663 9.5625 8.4375 10.6034 8.4375 11.8828V15.6797C8.4375 16.9591 7.39663 18 6.11719 18ZM2.32031 10.6875C1.6612 10.6875 1.125 11.2237 1.125 11.8828V15.6797C1.125 16.3388 1.6612 16.875 2.32031 16.875H6.11719C6.7763 16.875 7.3125 16.3388 7.3125 15.6797V11.8828C7.3125 11.2237 6.7763 10.6875 6.11719 10.6875H2.32031Z" fill="#616161"/>
</svg>
