<svg width="32" height="32" viewBox="0 0 32 32" fill="none" xmlns="http://www.w3.org/2000/svg">
<path d="M25.8757 26.1861V30.0389C25.8757 31.1215 24.9998 31.999 23.9194 31.999H2.09961C1.01929 31.999 0.143555 31.1215 0.143555 30.0389V26.1861C0.143555 25.5518 0.44458 24.9878 0.911621 24.6296C1.24072 24.3767 1.65259 24.2266 2.09961 24.2266H23.9194C24.9998 24.2266 25.8757 25.104 25.8757 26.1861Z" fill="#FF6677"/>
<path d="M25.8752 26.1861V28.9529C25.5457 29.2058 25.1335 29.3557 24.6873 29.3557H2.86743C1.78711 29.3557 0.911133 28.4785 0.911133 27.3964V24.6296C1.24023 24.3767 1.6521 24.2266 2.09912 24.2266H23.9189C24.9993 24.2266 25.8752 25.104 25.8752 26.1861Z" fill="#FF8389"/>
<path d="M28.1301 11.182V20.2131C28.1301 21.147 27.375 21.9036 26.4431 21.9036H10.0374C9.10498 21.9036 8.34961 21.147 8.34961 20.2131V11.182C8.34961 10.2486 9.10498 9.49219 10.0374 9.49219H26.4431C27.375 9.49219 28.1301 10.2486 28.1301 11.182Z" fill="#FAC600"/>
<path d="M28.1301 11.182V18.524H13.9951C13.0627 18.524 12.3076 17.7674 12.3076 16.8334V9.49219H26.4431C27.375 9.49219 28.1301 10.2486 28.1301 11.182Z" fill="#FED402"/>
<path d="M11.2981 9.49219V21.7911L11.2832 21.9036H10.0374C9.10498 21.9036 8.34961 21.147 8.34961 20.2131V11.182C8.34961 10.2486 9.10498 9.49219 10.0374 9.49219H11.2981Z" fill="#FAC600"/>
<path d="M22.3164 1.50713V5.56781C22.3164 6.39976 21.6428 7.07495 20.8118 7.07495H5.31812C4.48682 7.07495 3.81348 6.39976 3.81348 5.56781V1.50713C3.81348 0.938566 4.12744 0.44385 4.59204 0.187077C4.80737 0.0674946 5.05469 0 5.31812 0H20.8118C21.6428 0 22.3164 0.674701 22.3164 1.50713Z" fill="#8BC6F8"/>
<path d="M22.3171 1.50713V4.67816C22.1016 4.79774 21.8545 4.86523 21.5911 4.86523H6.09741C5.26636 4.86523 4.59277 4.19004 4.59277 3.3581V0.187077C4.80811 0.0674946 5.05542 0 5.31885 0H20.8125C21.6436 0 22.3171 0.674701 22.3171 1.50713Z" fill="#B1D7FE"/>
<path d="M25.7053 11.2891H13.053C12.7842 11.2891 12.5664 11.5072 12.5664 11.7764C12.5664 12.0457 12.7842 12.2638 13.053 12.2638H25.7053C25.9739 12.2638 26.1919 12.0457 26.1919 11.7764C26.1919 11.5072 25.9741 11.2891 25.7053 11.2891Z" fill="#F29500"/>
<path d="M25.7053 13.9062H13.053C12.7842 13.9062 12.5664 14.1244 12.5664 14.3936C12.5664 14.6629 12.7842 14.8813 13.053 14.8813H25.7053C25.9739 14.8813 26.1919 14.6629 26.1919 14.3936C26.1919 14.1244 25.9741 13.9062 25.7053 13.9062Z" fill="#F29500"/>
<path d="M25.7053 16.5234H13.053C12.7842 16.5234 12.5664 16.7416 12.5664 17.0108C12.5664 17.2801 12.7842 17.4984 13.053 17.4984H25.7053C25.9739 17.4984 26.1919 17.2801 26.1919 17.0108C26.1919 16.7416 25.9741 16.5234 25.7053 16.5234Z" fill="#F29500"/>
<path d="M25.7053 19.1406H13.053C12.7842 19.1406 12.5664 19.3588 12.5664 19.628C12.5664 19.8972 12.7842 20.1156 13.053 20.1156H25.7053C25.9739 20.1156 26.1919 19.8972 26.1919 19.628C26.1919 19.3588 25.9741 19.1406 25.7053 19.1406Z" fill="#F29500"/>
<path d="M7.25171 15.7188C7.25171 15.4493 7.03369 15.2312 6.76489 15.2312H2.16675C1.50879 15.2312 0.973144 14.6949 0.973144 14.0359V5.31121C0.973144 4.65192 1.50879 4.11563 2.16675 4.11563C2.43555 4.11563 2.65332 3.89749 2.65332 3.62825C2.65332 3.359 2.43555 3.14062 2.16675 3.14062C0.971924 3.14062 0 4.11441 0 5.31121V14.0359C0 15.2324 0.971924 16.2062 2.16675 16.2062H6.76514C7.03369 16.2062 7.25171 15.9878 7.25171 15.7188Z" fill="black"/>
<path d="M6.49951 5.24063H19.6309C19.8997 5.24063 20.1174 5.02225 20.1174 4.753C20.1174 4.48376 19.8997 4.26562 19.6309 4.26562H6.49951C6.23071 4.26562 6.0127 4.48376 6.0127 4.753C6.0127 5.02225 6.23071 5.24063 6.49951 5.24063Z" fill="#274C91"/>
<path d="M6.49951 2.80288H19.6309C19.8997 2.80288 20.1174 2.58475 20.1174 2.3155C20.1174 2.04626 19.8997 1.82812 19.6309 1.82812H6.49951C6.23071 1.82812 6.0127 2.04626 6.0127 2.3155C6.0127 2.58475 6.23071 2.80288 6.49951 2.80288Z" fill="#274C91"/>
<path d="M18.7463 28.8438H2.76294C2.49414 28.8438 2.27637 29.0619 2.27637 29.3311C2.27637 29.6004 2.49414 29.8188 2.76294 29.8188H18.7461C19.0149 29.8188 19.2327 29.6004 19.2327 29.3311C19.2327 29.0619 19.0149 28.8438 18.7463 28.8438Z" fill="#A43441"/>
<path d="M18.7463 26.4062H2.76294C2.49414 26.4062 2.27637 26.6244 2.27637 26.8936C2.27637 27.1629 2.49414 27.381 2.76294 27.381H18.7461C19.0149 27.381 19.2327 27.1629 19.2327 26.8936C19.2327 26.6244 19.0149 26.4062 18.7463 26.4062Z" fill="#A43441"/>
<path d="M29.9221 14.4062C29.6533 14.4062 29.4355 14.6244 29.4355 14.8936C29.4355 15.1629 29.6533 15.3813 29.9221 15.3813C30.5315 15.3813 31.0271 15.8777 31.0271 16.4878V26.5196C31.0271 27.1297 30.5312 27.6261 29.9221 27.6261H27.6672C27.3984 27.6261 27.1807 27.8443 27.1807 28.1135C27.1807 28.3828 27.3984 28.6009 27.6672 28.6009H29.9221C31.0681 28.6009 32.0002 27.6672 32.0002 26.5196V16.4878C32.0002 15.3402 31.0681 14.4062 29.9221 14.4062Z" fill="black"/>
<path d="M23.7603 25.7082C23.5374 25.5578 23.2349 25.617 23.0848 25.8402L21.2998 28.495L20.7088 27.6159C20.5586 27.3924 20.2561 27.3334 20.0332 27.4838C19.8103 27.6342 19.7513 27.9372 19.9014 28.1602L20.8963 29.64C20.9866 29.7745 21.138 29.8552 21.2998 29.8552C21.4617 29.8552 21.6131 29.7745 21.7034 29.64L23.8921 26.3848C24.042 26.1616 23.9832 25.8586 23.7603 25.7082Z" fill="#A43441"/>
</svg>
