<svg xmlns="http://www.w3.org/2000/svg" width="15" height="15" viewBox="0 0 15 15">
  <path id="world-svgrepo-com" d="M15.583,9.147A7.5,7.5,0,1,1,7.868,1.661a1.667,1.667,0,0,1,.427,0,7.493,7.493,0,0,1,7.288,7.485ZM5.573,15.081q.241.1.488.183a11.138,11.138,0,0,1-1.489-5.6H1.653a6.453,6.453,0,0,0,3.919,5.421ZM2.139,6.641a6.364,6.364,0,0,0-.484,1.971H4.571A11.193,11.193,0,0,1,6.04,3.036q-.236.079-.467.176A6.472,6.472,0,0,0,2.139,6.641Zm8.4,1.971a13.627,13.627,0,0,0-.247-2.187A9.317,9.317,0,0,0,9.62,4.285C9.2,3.384,8.664,2.8,8.2,2.707q-.12,0-.24,0c-.462.089-.995.677-1.418,1.579a9.317,9.317,0,0,0-.674,2.139,13.626,13.626,0,0,0-.247,2.186ZM9.62,13.985a9.314,9.314,0,0,0,.675-2.139,13.635,13.635,0,0,0,.246-2.186H5.623a13.634,13.634,0,0,0,.247,2.187,9.314,9.314,0,0,0,.674,2.138c.461.981,1.051,1.59,1.538,1.59s1.077-.61,1.538-1.59Zm4.407-2.331a6.374,6.374,0,0,0,.486-1.995h-2.92A11.136,11.136,0,0,1,10.1,15.266q.247-.081.49-.184a6.472,6.472,0,0,0,3.433-3.428ZM10.593,3.212q-.231-.1-.47-.177a11.191,11.191,0,0,1,1.468,5.576h2.919A6.452,6.452,0,0,0,10.593,3.212Z" transform="translate(-0.583 -1.647)" fill="#333"/>
</svg>
