<svg width="32" height="32" viewBox="0 0 32 32" fill="none" xmlns="http://www.w3.org/2000/svg">
<path d="M8 0C6.9 0 6 0.9 6 2V30C6 31.1 6.9 32 8 32H28C29.1 32 30 31.1 30 30V8L22 0H8Z" fill="#E2E5E7"/>
<path d="M24 8H30L22 0V6C22 7.1 22.9 8 24 8Z" fill="#B0B7BD"/>
<path d="M30 14L24 8H30V14Z" fill="#CAD1D8"/>
<path d="M26 26C26 26.55 25.55 27 25 27H3C2.45 27 2 26.55 2 26V16C2 15.45 2.45 15 3 15H25C25.55 15 26 15.45 26 16V26Z" fill="#007F3A"/>
<path d="M25 27H6V28H25C25.55 28 26 27.55 26 27V26C26 26.55 25.55 27 25 27Z" fill="#CAD1D8"/>
<path d="M14.3528 24.28C13.8328 24.28 13.7991 24.2731 13.7491 24.2638C13.6064 24.2363 13.4778 24.16 13.3853 24.048C13.2928 23.936 13.2422 23.7953 13.2422 23.65V18.625C13.2422 18.4592 13.308 18.3003 13.4252 18.1831C13.5425 18.0658 13.7014 18 13.8672 18C14.0329 18 14.1919 18.0658 14.3091 18.1831C14.4263 18.3003 14.4922 18.4592 14.4922 18.625V23.0294C14.7866 23.0294 15.1528 23.0294 15.4984 23.025H15.5022C15.6679 23.0245 15.8271 23.0899 15.9447 23.2067C16.0622 23.3236 16.1286 23.4824 16.1291 23.6481C16.1296 23.8139 16.0642 23.9731 15.9473 24.0906C15.8305 24.2082 15.6717 24.2745 15.5059 24.275C14.9697 24.2781 14.6047 24.28 14.3528 24.28Z" fill="white"/>
<path d="M19.7699 24.2796C18.9218 24.2796 18.093 23.9239 17.5537 23.3283C17.4961 23.2679 17.4511 23.1966 17.4215 23.1186C17.3919 23.0406 17.3782 22.9575 17.3813 22.8741C17.3843 22.7907 17.404 22.7087 17.4393 22.6331C17.4745 22.5574 17.5245 22.4896 17.5863 22.4336C17.6482 22.3776 17.7206 22.3345 17.7994 22.307C17.8782 22.2794 17.9616 22.2679 18.0449 22.2731C18.1282 22.2783 18.2096 22.3002 18.2843 22.3373C18.359 22.3745 18.4255 22.4263 18.4799 22.4896C18.7862 22.8277 19.2687 23.0296 19.7699 23.0296C20.2574 23.0296 20.6012 22.7371 20.6518 22.4546C20.7193 22.0796 20.2112 21.8477 19.9899 21.7671C19.2099 21.4796 18.5174 21.1714 18.4899 21.1583C18.4597 21.1451 18.4307 21.1294 18.403 21.1114C18.1449 20.9447 17.9405 20.7069 17.8143 20.4267C17.6882 20.1465 17.6456 19.8359 17.6918 19.5321C17.788 18.8621 18.278 18.3164 18.9705 18.1077C20.3455 17.6939 21.4705 18.6252 21.5199 18.6646C21.5829 18.7171 21.635 18.7816 21.6731 18.8543C21.7112 18.927 21.7347 19.0065 21.7421 19.0882C21.7495 19.17 21.7407 19.2524 21.7163 19.3307C21.6918 19.4091 21.6522 19.4818 21.5996 19.5449C21.547 19.6079 21.4826 19.66 21.4099 19.6981C21.3372 19.7362 21.2577 19.7596 21.1759 19.767C21.0942 19.7744 21.0118 19.7657 20.9334 19.7412C20.8551 19.7168 20.7823 19.6771 20.7193 19.6246C20.6999 19.6089 20.0418 19.0902 19.3312 19.3046C19.0068 19.4021 18.9418 19.6208 18.9293 19.7102C18.919 19.7714 18.9252 19.8343 18.9472 19.8924C18.9691 19.9505 19.0061 20.0017 19.0543 20.0408C19.2305 20.1183 19.8043 20.3664 20.4243 20.5946C21.6912 21.0614 22.0093 21.9758 21.8843 22.6758C21.7162 23.6046 20.8274 24.2796 19.7699 24.2796Z" fill="white"/>
<path d="M11.4169 24.2796C11.3165 24.2796 11.2176 24.2555 11.1285 24.2093C11.0394 24.1631 10.9627 24.0961 10.905 24.0139L7.36752 18.9846C7.27221 18.8489 7.2347 18.6809 7.26324 18.5176C7.29178 18.3542 7.38404 18.2089 7.51971 18.1136C7.65539 18.0183 7.82337 17.9808 7.9867 18.0093C8.15003 18.0379 8.29534 18.1301 8.39065 18.2658L11.9281 23.2952C11.9939 23.3888 12.0327 23.4986 12.0404 23.6127C12.0481 23.7268 12.0243 23.8408 11.9716 23.9423C11.9189 24.0439 11.8394 24.129 11.7417 24.1885C11.644 24.2479 11.5319 24.2794 11.4175 24.2796H11.4169Z" fill="white"/>
<path d="M7.62409 24.2797C7.50968 24.2795 7.3975 24.2479 7.29979 24.1884C7.20208 24.1288 7.12259 24.0436 7.06998 23.942C7.01737 23.8404 6.99367 23.7263 7.00145 23.6122C7.00922 23.498 7.04819 23.3882 7.11409 23.2947L10.6566 18.2653C10.7039 18.1981 10.7639 18.141 10.8333 18.097C10.9026 18.0531 10.98 18.0233 11.0609 18.0092C11.1418 17.9952 11.2247 17.9972 11.3048 18.0152C11.3849 18.0332 11.4607 18.0668 11.5278 18.114C11.595 18.1613 11.6522 18.2213 11.6961 18.2907C11.74 18.3601 11.7699 18.4374 11.7839 18.5183C11.798 18.5992 11.7959 18.6821 11.7779 18.7622C11.76 18.8424 11.7264 18.9181 11.6791 18.9853L8.13597 24.0147C8.07818 24.0967 8.0015 24.1636 7.91241 24.2097C7.82331 24.2558 7.72442 24.2798 7.62409 24.2797Z" fill="white"/>
</svg>
