<svg width="20" height="24" viewBox="0 0 20 24" fill="none" xmlns="http://www.w3.org/2000/svg">
<path d="M17.998 5.2018V10.4012H1.19995V0.402344H13.1986V5.2018H17.998Z" fill="#F0F0F0"/>
<path d="M17.9978 10.7997H1.19976C1.09368 10.7997 0.991955 10.7576 0.916949 10.6826C0.841943 10.6076 0.799805 10.5059 0.799805 10.3998V0.400931C0.799805 0.294856 0.841943 0.193126 0.916949 0.11812C0.991955 0.0431145 1.09368 0.000976563 1.19976 0.000976562H13.1984C13.3045 0.000976563 13.4062 0.0431145 13.4812 0.11812C13.5562 0.193126 13.5983 0.294856 13.5983 0.400931V4.80043H17.9978C18.1039 4.80043 18.2057 4.84257 18.2807 4.91757C18.3557 4.99258 18.3978 5.09431 18.3978 5.20038V10.3998C18.3978 10.5059 18.3557 10.6076 18.2807 10.6826C18.2057 10.7576 18.1039 10.7997 17.9978 10.7997ZM1.59971 9.99984H17.5979V5.60034H13.1984C13.0923 5.60034 12.9906 5.5582 12.9156 5.48319C12.8406 5.40819 12.7984 5.30646 12.7984 5.20038V0.800885H1.59971V9.99984Z" fill="#152027"/>
<path d="M1.19995 18.3994H17.998V23.5988H1.19995V18.3994Z" fill="#F0F0F0"/>
<path d="M17.9978 24.0003H1.19976C1.09368 24.0003 0.991955 23.9582 0.916949 23.8831C0.841943 23.8081 0.799805 23.7064 0.799805 23.6003V18.4009C0.799805 18.2949 0.841943 18.1931 0.916949 18.1181C0.991955 18.0431 1.09368 18.001 1.19976 18.001H17.9978C18.1039 18.001 18.2057 18.0431 18.2807 18.1181C18.3557 18.1931 18.3978 18.2949 18.3978 18.4009V23.6003C18.3978 23.7064 18.3557 23.8081 18.2807 23.8831C18.2057 23.9582 18.1039 24.0003 17.9978 24.0003ZM1.59971 23.2004H17.5979V18.8009H1.59971V23.2004Z" fill="#152027"/>
<path d="M17.9979 5.2018H13.1985V0.402344L17.9979 5.2018Z" fill="#F0F0F0"/>
<path d="M17.998 5.60169H13.1985C13.0925 5.60169 12.9907 5.55955 12.9157 5.48454C12.8407 5.40954 12.7986 5.30781 12.7986 5.20173V0.40228C12.7981 0.32284 12.8213 0.245061 12.8653 0.178861C12.9092 0.11266 12.9718 0.0610377 13.0452 0.0305745C13.1185 0.000111233 13.1993 -0.00781246 13.2772 0.00781362C13.3551 0.0234397 13.4266 0.0619076 13.4825 0.118313L18.282 4.91777C18.3384 4.97371 18.3768 5.04518 18.3925 5.12307C18.4081 5.20096 18.4002 5.28174 18.3697 5.35511C18.3392 5.42848 18.2876 5.49111 18.2214 5.53503C18.1552 5.57894 18.0774 5.60215 17.998 5.60169ZM13.5985 4.80178H17.0341L13.5985 1.36617V4.80178Z" fill="#152027"/>
<path d="M0.399902 10.4014H18.7978V18.4005H0.399902V10.4014Z" fill="#F0F0F0"/>
<path d="M18.7979 18.799H0.399954C0.29388 18.799 0.19215 18.7569 0.117144 18.6819C0.042138 18.6068 0 18.5051 0 18.399V10.4C0 10.2939 0.042138 10.1921 0.117144 10.1171C0.19215 10.0421 0.29388 10 0.399954 10H18.7979C18.9039 10 19.0057 10.0421 19.0807 10.1171C19.1557 10.1921 19.1978 10.2939 19.1978 10.4V18.399C19.1978 18.5051 19.1557 18.6068 19.0807 18.6819C19.0057 18.7569 18.9039 18.799 18.7979 18.799ZM0.799909 17.9991H18.3979V10.7999H0.799909V17.9991Z" fill="#152027"/>
<path d="M6.43895 17.0706H5.57505L4.95512 15.3708L4.33119 17.0706H3.46729L4.51517 14.3989L3.46729 11.7432H4.35918L4.95512 13.391L5.54705 11.7432H6.43895L5.39107 14.3989L6.43895 17.0706Z" fill="#152027"/>
<path d="M9.30268 17.0708H7.10693V11.7314H7.90684V16.2709H9.29468L9.30268 17.0708Z" fill="#152027"/>
<path d="M12.3986 15.7438C12.4142 16.0859 12.3126 16.4231 12.1106 16.6997C11.9734 16.8835 11.7794 17.017 11.5587 17.0796C11.4132 17.122 11.2622 17.1422 11.1107 17.1396C10.8251 17.1534 10.5432 17.0702 10.3108 16.9036C10.1353 16.7672 9.99767 16.5883 9.91084 16.3837C9.80572 16.1448 9.74604 15.8885 9.73486 15.6278L10.5028 15.5718C10.5119 15.8176 10.5987 16.0543 10.7507 16.2477C10.79 16.2976 10.8407 16.3374 10.8984 16.3638C10.9561 16.3902 11.0193 16.4025 11.0827 16.3997C11.1692 16.3964 11.2534 16.3708 11.327 16.3252C11.4006 16.2796 11.4612 16.2157 11.5027 16.1397C11.5623 16.0324 11.5901 15.9103 11.5827 15.7878C11.5696 15.537 11.4608 15.3007 11.2787 15.1278L10.5628 14.4479C10.341 14.2425 10.1509 14.0053 9.99883 13.744C9.87827 13.5118 9.81647 13.2537 9.81885 12.9921C9.80568 12.782 9.84354 12.5719 9.92921 12.3797C10.0149 12.1875 10.1458 12.0188 10.3108 11.8882C10.5293 11.7314 10.7941 11.6525 11.0627 11.6642C11.3213 11.6571 11.5765 11.7237 11.7986 11.8562C11.9643 11.9527 12.1021 12.0905 12.1986 12.2562C12.2997 12.4469 12.3596 12.6567 12.3746 12.8721L11.5987 13.0321C11.5884 12.8465 11.523 12.6682 11.4107 12.5201C11.3706 12.4756 11.3211 12.4406 11.2657 12.4177C11.2103 12.3949 11.1505 12.3848 11.0907 12.3881C11.022 12.3862 10.9541 12.4035 10.8947 12.4381C10.8353 12.4728 10.7868 12.5233 10.7547 12.5841C10.6878 12.7064 10.656 12.8448 10.6628 12.9841C10.6769 13.2616 10.7888 13.5251 10.9787 13.728C11.0865 13.8522 11.2057 13.966 11.3347 14.0679C11.5227 14.2239 11.6466 14.3359 11.7066 14.3959C11.886 14.57 12.0408 14.7678 12.1666 14.9838C12.2129 15.0653 12.2543 15.1494 12.2906 15.2358C12.3564 15.3974 12.393 15.5694 12.3986 15.7438Z" fill="#152027"/>
<path d="M15.6941 17.0708H14.8302L14.2102 15.371L13.5983 17.0708H12.7224L13.7703 14.3991L12.7224 11.7434H13.5983L14.1942 13.3913L14.7982 11.7314H15.6901L14.6462 14.3991L15.6941 17.0708Z" fill="#152027"/>
</svg>
