<svg width="32" height="32" viewBox="0 0 32 32" fill="none" xmlns="http://www.w3.org/2000/svg">
<path d="M3.96985 0.320312H26.0159V29.0315H3.96985V0.320312Z" fill="#FCDB35"/>
<path d="M3.96985 0.320312H4.71488V29.0315H3.96985V0.320312Z" fill="#FDC72E"/>
<path fill-rule="evenodd" clip-rule="evenodd" d="M1.32098 2.96875H18.9232L23.3671 7.41268V31.68H1.32098V2.96875Z" fill="#E9E9FF"/>
<path fill-rule="evenodd" clip-rule="evenodd" d="M18.9232 2.96875L23.3671 7.41268H18.9232V2.96875Z" fill="#BCBCF5"/>
<path fill-rule="evenodd" clip-rule="evenodd" d="M20.6009 20.0515L19.9379 24.8572L23.7683 21.8801L30.6907 9.89005C31.1936 9.019 30.8924 7.8949 30.0214 7.39205C29.1503 6.88913 28.0263 7.19032 27.5234 8.06136L20.601 20.0514L20.6009 20.0515Z" fill="#2A92FA"/>
<path fill-rule="evenodd" clip-rule="evenodd" d="M19.9379 24.8558L23.7682 21.8786L30.6906 9.88862C31.1935 9.01758 30.8924 7.89348 30.0213 7.39062L19.9379 24.8558Z" fill="#4EB1FC"/>
<path fill-rule="evenodd" clip-rule="evenodd" d="M26.4334 9.94861L29.6007 11.7773L30.6906 9.88947C31.1934 9.01849 30.8923 7.89438 30.0212 7.39147C29.1514 6.88926 28.0254 7.19096 27.5232 8.06079L26.4333 9.94861H26.4334Z" fill="#323E66"/>
<path fill-rule="evenodd" clip-rule="evenodd" d="M28.0171 10.8621L29.6007 11.7764L30.6906 9.88856C31.1935 9.01758 30.8923 7.89348 30.0213 7.39062L28.0171 10.8621Z" fill="#3D4A75"/>
<path d="M26.4332 9.94531L27.1853 8.64262L30.3525 10.4713L29.6004 11.774L26.4332 9.94531Z" fill="#E6B17C"/>
<path d="M28.0168 10.8594L28.7689 9.55668L30.3525 10.471L29.6004 11.7737L28.0168 10.8594Z" fill="#F9C795"/>
<path fill-rule="evenodd" clip-rule="evenodd" d="M20.6008 20.0469L19.9378 24.8526L23.7682 21.8756L20.6008 20.0469Z" fill="#E6B17C"/>
<path fill-rule="evenodd" clip-rule="evenodd" d="M19.9378 24.8523L23.7682 21.8752L22.1845 20.9609L19.9378 24.8523Z" fill="#F9C795"/>
<path fill-rule="evenodd" clip-rule="evenodd" d="M20.221 22.7969L19.9378 24.8496L21.5738 23.5779L20.221 22.7969Z" fill="#3D4A75"/>
<path fill-rule="evenodd" clip-rule="evenodd" d="M14.904 23.5427C14.904 24.0383 14.4985 24.4438 14.0029 24.4438H10.6851C10.1895 24.4438 9.78401 24.0383 9.78401 23.5427V23.0646C9.78401 20.5847 7.224 19.8881 7.224 16.5554C7.224 13.4977 9.78395 11.9688 12.344 11.9688C14.904 11.9688 17.464 13.4977 17.464 16.5554C17.464 19.8881 14.904 20.5847 14.904 23.0646V23.5427Z" fill="#F9AC00"/>
<path fill-rule="evenodd" clip-rule="evenodd" d="M14.904 23.5462C14.904 24.0418 14.4984 24.4472 14.0029 24.4472H11.8765C11.3809 24.4472 10.9754 24.0417 10.9754 23.5462V23.068C10.9754 20.5881 8.41541 19.8916 8.41541 16.5589C8.41541 13.7388 10.5929 12.2191 12.9397 12C15.2864 12.2192 17.4639 13.7388 17.4639 16.5589C17.4639 19.8916 14.9039 20.5881 14.9039 23.068V23.5462H14.904Z" fill="#FDC72E"/>
<path fill-rule="evenodd" clip-rule="evenodd" d="M10.9747 23.6719H13.7133V24.9444C13.7133 25.3236 13.4029 25.634 13.0237 25.634H11.6643C11.285 25.634 10.9747 25.3237 10.9747 24.9444V23.6719Z" fill="#5D689E"/>
<path fill-rule="evenodd" clip-rule="evenodd" d="M11.801 23.6719H13.7133V24.9444C13.7133 25.3236 13.4029 25.634 13.0237 25.634H12.4906C12.1113 25.634 11.801 25.3237 11.801 24.9444V23.6719Z" fill="#7986BF"/>
<path fill-rule="evenodd" clip-rule="evenodd" d="M14.904 23.5406C14.904 24.0362 14.4985 24.4417 14.0029 24.4417H10.685C10.1894 24.4417 9.78394 24.0362 9.78394 23.5406V23.0625H14.9039V23.5406H14.904Z" fill="#7986BF"/>
<path fill-rule="evenodd" clip-rule="evenodd" d="M14.904 23.5406C14.904 24.0358 14.4992 24.4411 14.0041 24.4417H11.8765C11.381 24.4417 10.9755 24.0362 10.9755 23.5406V23.0625H14.904V23.5406Z" fill="#909CD1"/>
<path d="M1.32098 2.96875H2.06601V31.68H1.32098V2.96875Z" fill="#D1D1F0"/>
<path fill-rule="evenodd" clip-rule="evenodd" d="M29.8595 7.66661C29.5142 7.46635 29.1062 7.41297 28.7169 7.51813C28.3246 7.62238 28.0012 7.87128 27.8004 8.21906L27.6214 8.52664L30.2361 10.0353L30.412 9.72735C30.8294 9.00665 30.5815 8.08254 29.8595 7.66661ZM25.6973 19.1784L24.0431 22.0373C24.0243 22.0731 23.996 22.1045 23.9646 22.1299L23.6853 22.3455V28.7113H25.6973V19.1784ZM23.048 31.3603V22.8431L20.1319 25.1072C20.0754 25.1515 20.0063 25.1744 19.9373 25.1744C19.8808 25.1744 19.8274 25.1603 19.7772 25.1317C19.6642 25.0665 19.6014 24.9397 19.6203 24.811L20.2825 20.0052C20.2888 19.9644 20.3014 19.9246 20.3234 19.8888L23.048 15.1719V7.73317H18.9234C18.7445 7.73317 18.6032 7.58974 18.6032 7.41297V3.28904H1.64039V31.3603H23.048ZM4.28968 2.64898V0.640068H25.6972V10.5836L23.6852 14.0634V7.41297C23.6852 7.32792 23.6538 7.24664 23.5941 7.18667L19.1494 2.74222C19.0897 2.6829 19.0081 2.64898 18.9234 2.64898H4.28968ZM29.4829 11.3382L26.8713 9.82905L27.3013 9.08101L29.916 10.5896L29.4829 11.3382ZM29.1627 11.8926L23.6507 21.4403L22.6211 20.8461L28.1331 11.2981L29.1627 11.8926ZM23.1955 21.9168L21.5476 23.1982L20.5651 22.6325L20.8507 20.564L23.1955 21.9169V21.9168ZM20.3611 24.1191L20.4741 23.3167L21.0014 23.6218L20.3611 24.1191ZM21.036 19.9317L26.5511 10.3834L27.5806 10.9779L22.0655 20.5262L21.036 19.9317ZM19.2436 7.0931V3.74133L22.5929 7.0931H19.2436ZM30.9676 10.0475L26.3345 18.0697V29.0311C26.3345 29.2079 26.1932 29.3513 26.0143 29.3513H23.6852V31.6801C23.6852 31.8568 23.5439 32 23.3681 32H1.32019C1.14438 32 1 31.8568 1 31.6801V2.96885C1 2.79214 1.14438 2.64898 1.32019 2.64898H3.6493V0.319874C3.6493 0.143169 3.79054 0 3.96949 0H26.0143C26.1932 0 26.3345 0.143169 26.3345 0.319874V9.47526L27.2448 7.89886C27.5304 7.40356 27.995 7.04823 28.5506 6.89975C29.1062 6.75063 29.6868 6.82628 30.1797 7.11223C31.2061 7.70424 31.5608 9.02137 30.9675 10.0475H30.9676ZM13.2042 18.8058C13.063 19.1599 12.8903 19.412 12.702 19.5425C12.8245 18.3488 13.1917 17.9554 13.3079 17.9033C13.3581 17.9834 13.4114 18.2838 13.2042 18.8058ZM17.131 16.5646C17.131 18.247 16.4405 19.2104 15.775 20.142C15.2382 20.8904 14.6858 21.6622 14.5916 22.7395H12.6643V20.2559C13.0222 20.1715 13.4648 19.8786 13.7975 19.0421C14.0769 18.3412 14.0549 17.7388 13.7441 17.4324C13.5621 17.2544 13.3078 17.2096 13.0661 17.3119C12.6424 17.4893 12.1966 18.1645 12.0616 19.5246C11.7195 19.2948 11.3711 18.743 11.2455 17.9322C11.2204 17.7574 11.054 17.6378 10.8814 17.6648C10.7057 17.6925 10.5864 17.8563 10.6146 18.0302C10.7841 19.1266 11.346 19.9782 12.0239 20.2177V22.7395H10.0935C9.99935 21.6623 9.44997 20.8904 8.91326 20.1421C8.24465 19.2104 7.55409 18.2471 7.55409 16.5646C7.55409 13.6398 10.037 12.3079 12.3441 12.3079C14.6513 12.3079 17.131 13.6397 17.131 16.5646ZM14.576 23.5368C14.576 23.856 14.3185 24.1159 13.9984 24.1159H10.6868C10.3698 24.1159 10.1093 23.856 10.1093 23.5368V23.3792H14.576V23.5368H14.576ZM13.3895 24.9358C13.3895 25.1386 13.2231 25.3037 13.0222 25.3037H11.6662C11.4621 25.3037 11.2958 25.1386 11.2958 24.9358V24.756H13.3895V24.9358H13.3895ZM17.7714 16.5646C17.7714 18.4527 16.9867 19.5481 16.293 20.5146C15.7155 21.3204 15.2163 22.016 15.2163 23.0593V23.5368C15.2163 24.1985 14.689 24.7374 14.0298 24.7541V24.9358C14.0298 25.4914 13.5779 25.9438 13.0222 25.9438H11.6662C11.1106 25.9438 10.6554 25.4915 10.6554 24.9358V24.7541C9.99935 24.7374 9.46885 24.1985 9.46885 23.5368V23.0593C9.46885 22.0159 8.96978 21.3204 8.39224 20.5146C7.69854 19.5481 6.91376 18.4527 6.91376 16.5646C6.91376 15.0498 7.51018 13.776 8.63077 12.882C9.61324 12.0991 10.9316 11.6678 12.3441 11.6678C13.7566 11.6678 15.0719 12.0991 16.0544 12.882C17.1781 13.776 17.7714 15.0498 17.7714 16.5646H17.7714ZM12.3442 10.8225C12.1653 10.8225 12.024 10.6791 12.024 10.5023V9.02514C12.024 8.84876 12.1653 8.70527 12.3442 8.70527C12.5199 8.70527 12.6643 8.84869 12.6643 9.02514V10.5023C12.6643 10.679 12.5199 10.8225 12.3442 10.8225ZM5.83088 16.1C6.00669 16.1179 6.13225 16.2752 6.11657 16.4506C6.10083 16.6157 5.95958 16.7384 5.79952 16.7384C5.78697 16.7384 5.77756 16.7378 5.76502 16.7369L4.29602 16.5881C4.12021 16.5701 3.99151 16.4135 4.01039 16.2375C4.02607 16.0613 4.18306 15.933 4.3588 15.9515L5.83094 16.1H5.83088ZM17.5077 10.8903C17.627 10.7591 17.8279 10.7487 17.9597 10.8674C18.0916 10.9857 18.101 11.1885 17.9817 11.3191L16.9929 12.4156C16.9301 12.4853 16.8423 12.521 16.7543 12.521C16.679 12.521 16.6005 12.4937 16.5409 12.4378C16.4091 12.3195 16.3996 12.1171 16.5157 11.9859L17.5077 10.8904L17.5077 10.8903ZM20.6781 16.2375C20.6938 16.4136 20.5682 16.5703 20.3924 16.5881L18.9203 16.7369C18.9109 16.7378 18.8983 16.7385 18.8889 16.7385C18.7257 16.7385 18.5876 16.6157 18.5718 16.4507C18.553 16.2752 18.6817 16.1179 18.8575 16.1001L20.3265 15.9516C20.5023 15.9331 20.6592 16.0615 20.678 16.2375H20.6781ZM7.6954 12.4156L6.70352 11.3191C6.58423 11.1885 6.59677 10.9857 6.72547 10.8674C6.85732 10.7487 7.06135 10.7591 7.17751 10.8903L8.16939 11.9858C8.28868 12.117 8.27614 12.3194 8.14744 12.4378C8.08465 12.4936 8.00932 12.521 7.93086 12.521C7.84612 12.521 7.75825 12.4852 7.69546 12.4155L7.6954 12.4156Z" fill="black"/>
</svg>
