<svg width="16" height="16" viewBox="0 0 16 16" fill="none" xmlns="http://www.w3.org/2000/svg">
<path d="M6.62612 5.39915C6.29478 5.20115 5.87012 5.44048 5.87012 5.82848V10.4951C5.87012 10.8851 6.29545 11.1212 6.62612 10.9251L10.5388 8.59515C10.8641 8.40115 10.8635 7.93048 10.5395 7.73582L6.62612 5.39915ZM6.87012 9.61582V6.70915L9.30678 8.16448L6.87012 9.61582Z" fill="#000000"/>
<path d="M13.2693 2.3455C10.1673 1.88483 5.834 1.88483 2.73067 2.3455C1.48933 2.5295 0.511333 3.50417 0.298 4.7695C-0.0993333 7.11817 -0.0993333 9.21217 0.298 11.5602C0.511333 12.8262 1.48933 13.8002 2.73067 13.9842C4.28533 14.2148 6.14667 14.3302 8.00733 14.3302C9.86467 14.3302 11.7213 14.2155 13.27 13.9848C14.51 13.8008 15.4873 12.8268 15.702 11.5608C16.0993 9.21217 16.0993 7.1175 15.702 4.76883C15.4887 3.50417 14.5107 2.5295 13.2693 2.3455ZM14.716 11.3942C14.574 12.2315 13.934 12.8755 13.1227 12.9955C10.1107 13.4428 5.89733 13.4428 2.87733 12.9948C2.06533 12.8742 1.42467 12.2308 1.28333 11.3935C0.900667 9.13083 0.900667 7.1995 1.28333 4.9355C1.42533 4.09817 2.06533 3.4555 2.878 3.33417C4.386 3.11083 6.19333 2.99883 7.99933 2.99883C9.80667 2.99883 11.614 3.11083 13.122 3.33417C13.934 3.45483 14.5747 4.09817 14.716 4.9355C15.0987 7.1995 15.0987 9.13083 14.716 11.3942Z" fill="#000000"/>
</svg>
