<svg width="22" height="24" viewBox="0 0 22 24" fill="none" xmlns="http://www.w3.org/2000/svg">
<path d="M21.458 1.12482V22.8752C21.458 23.4964 20.9544 24 20.3332 24H2.50471C1.88348 24 1.37988 23.4964 1.37988 22.8752V4.51429H4.7731C5.39432 4.51429 5.89792 4.01068 5.89792 3.38946V0H20.3332C20.9544 0 21.458 0.503601 21.458 1.12482Z" fill="#F0F0F0"/>
<path d="M1.37988 4.51429H4.7731C5.39432 4.51429 5.89792 4.01068 5.89792 3.38946V0L1.37988 4.51429Z" fill="#152027"/>
<path d="M12.7527 2.06934H14.7706V4.08727H12.7527V2.06934Z" fill="#152027"/>
<path d="M12.7527 6.10547H14.7706V8.1234H12.7527V6.10547Z" fill="#152027"/>
<path d="M12.7527 10.1436H14.7706V12.1615H12.7527V10.1436Z" fill="#152027"/>
<path d="M12.7524 14.1787H14.7704V16.1966H12.7524V14.1787Z" fill="#152027"/>
<path d="M14.7708 4.08789H16.7887V6.10582H14.7708V4.08789Z" fill="#152027"/>
<path d="M14.7708 8.12402H16.7887V10.142H14.7708V8.12402Z" fill="#152027"/>
<path d="M14.7708 12.1602H16.7887V14.1781H14.7708V12.1602Z" fill="#152027"/>
<path d="M16.2997 19.8401C16.3835 20.971 15.4945 21.9298 14.3636 21.9298C13.2838 21.9298 12.4229 21.0548 12.4229 19.989C12.4229 19.9378 12.4229 19.8913 12.4275 19.8401L12.6881 16.3914C12.7161 16.0516 13 15.791 13.3397 15.791H15.3875C15.7272 15.791 16.0111 16.0516 16.0391 16.3914L16.2997 19.8401Z" fill="#152027"/>
<path d="M15.5571 19.8955C15.5821 20.2332 15.4694 20.5559 15.2399 20.8029C15.0117 21.0488 14.7004 21.1842 14.3636 21.1842C13.7041 21.1842 13.1674 20.6477 13.1674 19.9882C13.1674 19.9598 13.1665 19.9337 13.1692 19.9053L15.5571 19.8955Z" fill="#E9EDF4"/>
<path d="M9.08482 7.86609V11.6718C9.08482 12.0842 8.74737 12.4216 8.33494 12.4216H0.749883C0.33368 12.4216 0 12.0842 0 11.6718V7.86609C0 7.45367 0.33368 7.11621 0.749883 7.11621H8.33494C8.74737 7.11621 9.08482 7.45367 9.08482 7.86609Z" fill="#152027"/>
<path d="M1.6411 10.9657C1.5946 10.9194 1.57153 10.8635 1.57153 10.7982C1.57153 10.7383 1.58801 10.688 1.6206 10.6471L3.32761 8.53974H1.75534C1.70628 8.53974 1.6649 8.5229 1.63085 8.48866C1.5968 8.45479 1.57995 8.41323 1.57995 8.36417C1.57995 8.3151 1.5968 8.273 1.63085 8.23766C1.6649 8.20215 1.70628 8.18457 1.75534 8.18457H3.52789C3.60405 8.18457 3.66447 8.20892 3.7095 8.25798C3.75454 8.30705 3.77688 8.36691 3.77688 8.43777C3.77688 8.46486 3.77065 8.4936 3.75857 8.52345C3.74649 8.55347 3.73074 8.57928 3.7117 8.60107L2.02483 10.688H3.62566C3.67472 10.688 3.71646 10.705 3.75051 10.739C3.78457 10.7731 3.80141 10.8145 3.80141 10.8635C3.80141 10.9126 3.78457 10.9534 3.75051 10.986C3.71646 11.0188 3.67472 11.0351 3.62566 11.0351H1.80843C1.74326 11.0351 1.68724 11.012 1.6411 10.9657Z" fill="white"/>
<path d="M3.62564 11.1288H1.80842C1.71871 11.1288 1.63816 11.0953 1.57481 11.0319C1.51037 10.9677 1.47778 10.8891 1.47778 10.7982C1.47778 10.7169 1.50122 10.6464 1.54735 10.5887L3.13097 8.63346H1.75533C1.68173 8.63346 1.61546 8.60618 1.5642 8.55474C1.5133 8.50402 1.4862 8.43793 1.4862 8.36415C1.4862 8.29129 1.51293 8.22502 1.56346 8.17266C1.61472 8.1192 1.681 8.09082 1.75533 8.09082H3.52788C3.63113 8.09082 3.71535 8.12579 3.77869 8.19462C3.83947 8.26108 3.8706 8.34292 3.8706 8.43775C3.8706 8.47675 3.86218 8.51739 3.84533 8.55858C3.82959 8.59776 3.80835 8.63273 3.78235 8.66275L2.22108 10.5942H3.62564C3.69924 10.5942 3.76551 10.6213 3.81677 10.6728C3.86803 10.724 3.89513 10.7899 3.89513 10.8635C3.89513 10.938 3.86767 11.0038 3.81531 11.0537C3.76441 11.1028 3.69851 11.1288 3.62564 11.1288ZM1.75533 8.27829C1.73189 8.27829 1.71468 8.28561 1.69857 8.30246C1.68136 8.3204 1.67368 8.33926 1.67368 8.36415C1.67368 8.38869 1.68063 8.4059 1.69711 8.42219C1.71359 8.43903 1.73116 8.44599 1.75533 8.44599H3.52422L1.69345 10.7061C1.67477 10.7297 1.66525 10.7599 1.66525 10.7982C1.66525 10.8386 1.67844 10.8707 1.70736 10.8992C1.73592 10.9276 1.76814 10.9413 1.80842 10.9413H3.62564C3.65054 10.9413 3.66921 10.9342 3.68532 10.9184C3.70107 10.9036 3.70766 10.8871 3.70766 10.8635C3.70766 10.8392 3.7007 10.8218 3.68423 10.8053C3.66775 10.789 3.64981 10.7817 3.62564 10.7817H1.82856L3.63882 8.5421C3.65347 8.52526 3.66372 8.50824 3.67178 8.48846C3.6791 8.46942 3.68313 8.4524 3.68313 8.43775C3.68313 8.39015 3.66958 8.35317 3.64029 8.32131C3.62344 8.30282 3.59342 8.27829 3.52788 8.27829H1.75533Z" fill="white"/>
<path d="M4.33654 8.46637C4.2959 8.42555 4.27539 8.37648 4.27539 8.31936V8.30288C4.27539 8.24576 4.2959 8.1967 4.33654 8.15587C4.37755 8.11505 4.42661 8.09473 4.48373 8.09473H4.50826C4.56538 8.09473 4.61445 8.11505 4.65509 8.15587C4.6961 8.1967 4.71624 8.24576 4.71624 8.30288V8.31936C4.71624 8.37648 4.6961 8.42555 4.65509 8.46637C4.61445 8.5072 4.56538 8.52752 4.50826 8.52752H4.48373C4.42661 8.52752 4.37755 8.5072 4.33654 8.46637ZM4.36107 11.0025C4.32555 10.967 4.30798 10.9234 4.30798 10.8718V9.11977C4.30798 9.06815 4.32555 9.02384 4.36107 8.98704C4.39659 8.95024 4.44016 8.93194 4.49179 8.93194C4.54634 8.93194 4.59102 8.9497 4.62653 8.98503C4.66205 9.02036 4.67962 9.0654 4.67962 9.11977V10.8718C4.67962 10.9234 4.66132 10.967 4.6247 11.0025C4.58772 11.0379 4.54342 11.0556 4.49179 11.0556C4.44016 11.0556 4.39659 11.0379 4.36107 11.0025Z" fill="white"/>
<path d="M4.49177 11.1493C4.41598 11.1493 4.34787 11.1215 4.29478 11.069C4.24206 11.0163 4.21423 10.948 4.21423 10.8718V9.11976C4.21423 9.04415 4.24169 8.97568 4.29368 8.92185C4.40133 8.81036 4.58734 8.81402 4.69279 8.91856C4.74552 8.9711 4.77334 9.04067 4.77334 9.11976V10.8718C4.77334 10.9483 4.74442 11.0168 4.68986 11.0699C4.63531 11.1221 4.56683 11.1493 4.49177 11.1493ZM4.42733 10.9362C4.46395 10.9725 4.5218 10.9718 4.55988 10.9348C4.57782 10.9176 4.58587 10.898 4.58587 10.8718V9.11976C4.58587 9.0901 4.57819 9.06905 4.56024 9.05147C4.52656 9.01779 4.46651 9.01266 4.42843 9.0522C4.41012 9.07124 4.4017 9.09211 4.4017 9.11976V10.8718C4.4017 10.8987 4.40975 10.9185 4.42733 10.9362ZM4.50825 8.62124H4.48372C4.40243 8.62124 4.32847 8.59067 4.27025 8.53281C4.2124 8.47478 4.18164 8.40063 4.18164 8.31935C4.18164 8.22158 4.2124 8.1478 4.27025 8.08977C4.32847 8.03155 4.40243 8.00098 4.48372 8.00098H4.50825C4.5899 8.00098 4.66387 8.03173 4.72135 8.08977C4.7792 8.14725 4.80996 8.22103 4.80996 8.30287C4.80996 8.40118 4.7792 8.47496 4.72135 8.53281C4.66386 8.59048 4.5899 8.62124 4.50825 8.62124ZM4.4028 8.40008C4.42623 8.42333 4.45113 8.43377 4.48372 8.43377H4.50825C4.54084 8.43377 4.56574 8.42333 4.5888 8.40027C4.61224 8.37683 4.62249 8.35193 4.62249 8.31935C4.62249 8.27028 4.61224 8.24538 4.5888 8.22232C4.56574 8.19888 4.54084 8.18845 4.50825 8.18845H4.48372C4.45113 8.18845 4.42623 8.19888 4.4028 8.22232C4.37973 8.2452 4.36911 8.27083 4.36911 8.30287C4.36911 8.3512 4.37973 8.37683 4.4028 8.40008Z" fill="white"/>
<path d="M5.3778 11.9394C5.34228 11.9026 5.32471 11.8583 5.32471 11.8067V9.11545C5.32471 9.06364 5.34228 9.02006 5.3778 8.98473C5.41332 8.9494 5.45689 8.93164 5.50852 8.93164C5.56014 8.93164 5.60445 8.9494 5.64143 8.98473C5.67805 9.02006 5.69635 9.06364 5.69635 9.11545V9.22163C5.89517 9.01475 6.12805 8.91113 6.39461 8.91113C6.5634 8.91113 6.72341 8.95397 6.87464 9.03984C7.02586 9.12552 7.14815 9.25092 7.24225 9.41551C7.33599 9.58028 7.38322 9.77288 7.38322 9.99348C7.38322 10.2139 7.33599 10.4067 7.24225 10.5713C7.14815 10.736 7.02586 10.8613 6.87464 10.9469C6.72341 11.0328 6.5634 11.0757 6.39461 11.0757C6.12805 11.0757 5.89517 10.9722 5.69635 10.7653V11.8067C5.69635 11.861 5.67878 11.9061 5.64326 11.9414C5.60774 11.9768 5.56307 11.9945 5.50852 11.9945C5.45689 11.9945 5.41332 11.9762 5.3778 11.9394ZM6.82777 10.5367C6.95006 10.4087 7.01158 10.2276 7.01158 9.99348C7.01158 9.75933 6.95006 9.57826 6.82777 9.45029C6.70511 9.32232 6.54327 9.25825 6.34152 9.25825C6.21629 9.25825 6.09876 9.28626 5.98854 9.3421C5.87797 9.39793 5.78093 9.47208 5.69635 9.56453V10.4222C5.78093 10.5149 5.87797 10.589 5.98854 10.6449C6.09876 10.7007 6.21629 10.7285 6.34152 10.7285C6.54327 10.7285 6.70511 10.6646 6.82777 10.5367Z" fill="white"/>
<path d="M5.5085 12.0887C5.43161 12.0887 5.36314 12.0598 5.31041 12.005C5.25842 11.9512 5.23096 11.8827 5.23096 11.8071V9.11588C5.23096 9.03936 5.25878 8.97125 5.31151 8.91871C5.41696 8.81417 5.59711 8.81326 5.70622 8.91743C5.73845 8.94873 5.76188 8.98535 5.77579 9.02599C6.1068 8.77591 6.55314 8.74955 6.92076 8.9588C7.08553 9.05217 7.22137 9.19039 7.32353 9.36944C7.42532 9.54831 7.47694 9.7583 7.47694 9.99392C7.47694 10.2295 7.42532 10.4395 7.32353 10.618C7.22137 10.7973 7.08589 10.9355 6.92076 11.0289C6.55826 11.2354 6.11851 11.2121 5.79007 10.9725V11.8071C5.79007 11.8862 5.76225 11.9558 5.70952 12.0083C5.6557 12.0616 5.58832 12.0887 5.5085 12.0887ZM5.5085 9.02581C5.48177 9.02581 5.462 9.03368 5.44406 9.05162C5.42612 9.0692 5.41843 9.08897 5.41843 9.11588V11.8071C5.41843 11.8348 5.42685 11.8556 5.44516 11.8747C5.4836 11.9146 5.54292 11.9095 5.57697 11.8754C5.59491 11.8578 5.6026 11.8368 5.6026 11.8071V10.5329L5.76408 10.7008C5.94606 10.8903 6.1522 10.9824 6.39459 10.9824C6.54618 10.9824 6.69228 10.9432 6.82849 10.8659C6.9636 10.7892 7.07564 10.6746 7.16095 10.5252C7.24627 10.3755 7.28947 10.1966 7.28947 9.99392C7.28947 9.79125 7.24627 9.61239 7.16059 9.46226C7.07527 9.31306 6.9636 9.19845 6.82849 9.12174C6.69228 9.04448 6.54618 9.0053 6.39459 9.0053C6.15257 9.0053 5.94606 9.09739 5.76408 9.28706L5.6026 9.45494V9.11588C5.6026 9.0897 5.59455 9.07011 5.57624 9.05254C5.55719 9.03423 5.53596 9.02581 5.5085 9.02581ZM6.3415 10.8227C6.202 10.8227 6.06908 10.7912 5.94606 10.729C5.82669 10.6686 5.71904 10.5867 5.62714 10.4858L5.6026 10.4591V9.52854L5.62714 9.50162C5.71941 9.40093 5.82669 9.31928 5.94642 9.25886C6.06908 9.19662 6.20236 9.16495 6.3415 9.16495C6.56852 9.16495 6.75489 9.23928 6.89549 9.38592C7.03463 9.53165 7.1053 9.73615 7.1053 9.99392C7.1053 10.2517 7.03463 10.4562 6.89549 10.6019C6.75489 10.7484 6.56852 10.8227 6.3415 10.8227ZM5.79007 10.3853C5.86147 10.4582 5.94056 10.5161 6.03064 10.5616C6.1284 10.6113 6.23019 10.6352 6.3415 10.6352C6.51799 10.6352 6.65493 10.582 6.76001 10.4723C6.86473 10.3628 6.91783 10.2017 6.91783 9.99392C6.91783 9.78613 6.86473 9.62502 6.76001 9.51554C6.65493 9.40588 6.51799 9.35242 6.3415 9.35242C6.23056 9.35242 6.12877 9.37658 6.031 9.4262C5.94203 9.47105 5.86111 9.53018 5.79007 9.60232V10.3853Z" fill="white"/>
</svg>
