<svg width="32" height="32" viewBox="0 0 32 32" fill="none" xmlns="http://www.w3.org/2000/svg">
<path d="M8 0C6.9 0 6 0.9 6 2V30C6 31.1 6.9 32 8 32H28C29.1 32 30 31.1 30 30V8L22 0H8Z" fill="#E2E5E7"/>
<path d="M24 8H30L22 0V6C22 7.1 22.9 8 24 8Z" fill="#B0B7BD"/>
<path d="M30 14L24 8H30V14Z" fill="#CAD1D8"/>
<path d="M26 26C26 26.55 25.55 27 25 27H3C2.45 27 2 26.55 2 26V16C2 15.45 2.45 15 3 15H25C25.55 15 26 15.45 26 16V26Z" fill="#007F3A"/>
<path d="M8.28888 23.9993C7.78488 23.9993 7.58488 23.5123 7.87288 23.1683L10.7199 19.3863H8.35988C7.66488 19.3863 7.72088 18.4043 8.35988 18.4043H11.5829C12.1899 18.4043 12.3659 18.9783 11.9349 19.4433L9.20788 22.9843H11.8069C12.4469 22.9843 12.5269 24.0003 11.7439 24.0003H8.28888V23.9993Z" fill="white"/>
<path d="M13.252 18.9464C13.252 18.2904 14.308 18.2664 14.308 18.9464V23.5114C14.308 24.1744 13.252 24.1914 13.252 23.5114V18.9464Z" fill="white"/>
<path d="M15.7246 18.9465C15.7246 18.6825 15.9326 18.3945 16.2686 18.3945H18.1156C19.1556 18.3945 20.0916 19.0905 20.0916 20.4245C20.0916 21.6885 19.1556 22.3925 18.1156 22.3925H16.7806V23.4485C16.7806 23.8005 16.5566 23.9995 16.2686 23.9995C16.0046 23.9995 15.7246 23.8005 15.7246 23.4485V18.9465ZM16.7796 19.4015V21.3935H18.1146C18.6506 21.3935 19.0746 20.9205 19.0746 20.4245C19.0746 19.8655 18.6506 19.4015 18.1146 19.4015H16.7796Z" fill="white"/>
<path d="M25 27H6V28H25C25.55 28 26 27.55 26 27V26C26 26.55 25.55 27 25 27Z" fill="#CAD1D8"/>
</svg>
