<svg xmlns="http://www.w3.org/2000/svg" width="11" height="11.003" viewBox="0 0 11 11.003">
  <g id="Layer_18" data-name="Layer 18" transform="translate(-5.852 -5.852)">
    <path id="Path_2994" data-name="Path 2994" d="M19.173,15.341a.481.481,0,0,0-.481-.481H15.306a.472.472,0,0,0-.26.1.671.671,0,0,0-.071.064.5.5,0,0,0-.116.321v3.347a.481.481,0,1,0,.963,0V16.509l2.529,2.529a.475.475,0,0,0,.34.141.465.465,0,0,0,.34-.141.478.478,0,0,0,0-.68l-2.522-2.535h2.182a.481.481,0,0,0,.481-.481Z" transform="translate(-9.008 -9.008)" fill="#112d55"/>
    <path id="Path_2995" data-name="Path 2995" d="M39.811,14.959a.472.472,0,0,0-.26-.1H36.166a.481.481,0,1,0,0,.963h2.182l-2.529,2.529a.478.478,0,0,0,0,.68.465.465,0,0,0,.34.141.475.475,0,0,0,.34-.141l2.535-2.522v2.182a.481.481,0,0,0,.963,0v-3.35a.5.5,0,0,0-.116-.321A.669.669,0,0,0,39.811,14.959Z" transform="translate(-23.145 -9.008)" fill="#112d55"/>
    <path id="Path_2996" data-name="Path 2996" d="M19.032,35.839a.478.478,0,0,0-.68,0l-2.529,2.522V36.179a.481.481,0,1,0-.963,0v3.35a.5.5,0,0,0,.116.321.671.671,0,0,0,.071.064.472.472,0,0,0,.26.1h3.385a.481.481,0,1,0,0-.963H16.509l2.529-2.529a.478.478,0,0,0-.006-.683Z" transform="translate(-9.008 -23.159)" fill="#112d55"/>
    <path id="Path_2997" data-name="Path 2997" d="M39.531,35.7a.481.481,0,0,0-.481.481v2.182l-2.529-2.529a.481.481,0,0,0-.68.68l2.522,2.535H36.181a.481.481,0,1,0,0,.963h3.385a.472.472,0,0,0,.26-.1.669.669,0,0,0,.071-.064.5.5,0,0,0,.116-.321V36.181A.481.481,0,0,0,39.531,35.7Z" transform="translate(-23.161 -23.161)" fill="#112d55"/>
  </g>
</svg>
