<svg width="16" height="4" viewBox="0 0 16 4" fill="none" xmlns="http://www.w3.org/2000/svg">
<path d="M6.3999 2.4C6.3999 3.28 7.1199 4 7.9999 4C8.8799 4 9.5999 3.28 9.5999 2.4C9.5999 1.52 8.8799 0.799998 7.9999 0.799998C7.1199 0.799998 6.3999 1.52 6.3999 2.4Z" fill="black"/>
<path d="M12.8 2.4C12.8 3.28 13.52 4 14.4 4C15.2801 4 16.0001 3.28 16.0001 2.4C16.0001 1.52 15.2801 0.799998 14.4 0.799998C13.52 0.799998 12.8 1.52 12.8 2.4Z" fill="black"/>
<path d="M3.19998 2.4C3.19998 1.52 2.47998 0.799998 1.59998 0.799998C0.719981 0.799998 0 1.52 0 2.4C0 3.28 0.719981 4 1.59998 4C2.47998 4 3.19998 3.28 3.19998 2.4Z" fill="black"/>
</svg>
