<svg width="16" height="16" viewBox="0 0 16 16" fill="none" xmlns="http://www.w3.org/2000/svg">
<path d="M8 0C3.6 0 0 3.6 0 8C0 12.4 3.6 16 8 16C12.4 16 16 12.4 16 8C16 3.6 12.4 0 8 0ZM8 14.8571C4.22857 14.8571 1.14286 11.7714 1.14286 8C1.14286 4.22857 4.22857 1.14286 8 1.14286C11.7714 1.14286 14.8571 4.22857 14.8571 8C14.8571 11.7714 11.7714 14.8571 8 14.8571ZM11.4286 8C11.4286 8.34286 11.2 8.57143 10.8571 8.57143H8.57143V10.8571C8.57143 11.2 8.34286 11.4286 8 11.4286C7.65714 11.4286 7.42857 11.2 7.42857 10.8571V8.57143H5.14286C4.8 8.57143 4.57143 8.34286 4.57143 8C4.57143 7.65714 4.8 7.42857 5.14286 7.42857H7.42857V5.14286C7.42857 4.8 7.65714 4.57143 8 4.57143C8.34286 4.57143 8.57143 4.8 8.57143 5.14286V7.42857H10.8571C11.2 7.42857 11.4286 7.65714 11.4286 8Z" fill="white"/>
</svg>
