<svg width="24" height="24" viewBox="0 0 24 24" fill="none" xmlns="http://www.w3.org/2000/svg">
<path d="M15.342 24H8.64729C2.58861 24 0 21.4102 0 15.3488V8.65116C0 2.58977 2.58861 0 8.64729 0H15.342C21.4007 0 23.9893 2.58977 23.9893 8.65116V15.3488C23.9893 21.4102 21.4007 24 15.342 24ZM8.64729 1.67442C3.50355 1.67442 1.67367 3.50512 1.67367 8.65116V15.3488C1.67367 20.4949 3.50355 22.3256 8.64729 22.3256H15.342C20.4857 22.3256 22.3156 20.4949 22.3156 15.3488V8.65116C22.3156 3.50512 20.4857 1.67442 15.342 1.67442H8.64729Z" fill="#C0C0C0"/>
<path d="M8.6475 10.6044C6.95151 10.6044 5.5791 9.23136 5.5791 7.53461C5.5791 5.83787 6.95151 4.46484 8.6475 4.46484C10.3435 4.46484 11.7159 5.83787 11.7159 7.53461C11.7159 9.23136 10.3435 10.6044 8.6475 10.6044ZM8.6475 6.13926C7.87761 6.13926 7.25277 6.76438 7.25277 7.53461C7.25277 8.30484 7.87761 8.92996 8.6475 8.92996C9.41738 8.92996 10.0422 8.30484 10.0422 7.53461C10.0422 6.76438 9.41738 6.13926 8.6475 6.13926Z" fill="#C0C0C0"/>
<path d="M1.58389 20.5955C1.3161 20.5955 1.04831 20.4616 0.892103 20.2271C0.635474 19.8476 0.735894 19.3229 1.12642 19.0662L6.62721 15.3713C7.83225 14.5564 9.49477 14.6569 10.5883 15.5834L10.9565 15.9071C11.5144 16.3871 12.4628 16.3871 13.0095 15.9071L17.6511 11.922C18.8339 10.9062 20.6972 10.9062 21.8911 11.922L23.7098 13.4848C24.0557 13.7862 24.1004 14.3109 23.7991 14.6681C23.4978 15.0141 22.9734 15.0588 22.6164 14.7574L20.7976 13.1946C20.2398 12.7146 19.2913 12.7146 18.7335 13.1946L14.0918 17.1797C12.9091 18.1955 11.0457 18.1955 9.85185 17.1797L9.48361 16.856C8.97035 16.4206 8.12236 16.376 7.55331 16.7667L2.05251 20.4615C1.90746 20.5509 1.7401 20.5955 1.58389 20.5955Z" fill="#C0C0C0"/>
</svg>
