<svg width="18" height="16" viewBox="0 0 18 16" fill="none" xmlns="http://www.w3.org/2000/svg">
  <path d="M16.82 8.32L13.55 11.57C13.31 11.81 12.91 11.81 12.67 11.57C12.42 11.32 12.42 10.93 12.67 10.68L16.82 8.32C17.06 8.07 17.06 7.68 16.82 7.43L12.67 5.07C12.42 4.83 12.42 4.41 12.63 4.15C12.89 3.88 13.32 3.88 13.59 4.15L16.85 7.4C17.12 7.66 17.12 8.09 16.85 8.35L13.59 11.6C13.32 11.87 12.89 11.87 12.63 11.6C12.42 11.34 12.42 10.91 12.67 10.65L16.82 8.32ZM14.74 8.55H1.63C1.25 8.55 0.95 8.25 0.95 7.88C0.95 7.5 1.25 7.2 1.63 7.2H14.74L12.63 5.1C12.37 4.84 12.37 4.41 12.63 4.15C12.89 3.88 13.32 3.88 13.59 4.15L16.85 7.4C17.12 7.66 17.12 8.09 16.85 8.35L13.59 11.6C13.32 11.87 12.89 11.87 12.63 11.6C12.42 11.34 12.42 10.91 12.67 10.65L14.74 8.55Z" fill="#3F3F3F" />
</svg>
