<svg width="22" height="22" viewBox="0 0 22 22" fill="none" xmlns="http://www.w3.org/2000/svg">
<path d="M9 18.5C5.22876 18.5 3.34315 18.5 2.17157 17.3284C1 16.1569 1 14.2712 1 10.5V9.5C1 5.72876 1 3.84315 2.17157 2.67157C3.34315 1.5 5.22876 1.5 9 1.5H12.5C15.7875 1.5 17.4312 1.5 18.5376 2.40796C18.7401 2.57418 18.9258 2.75989 19.092 2.96243C20 4.06878 20 5.71252 20 9" fill="white"/>
<path d="M9 18.5C5.22876 18.5 3.34315 18.5 2.17157 17.3284C1 16.1569 1 14.2712 1 10.5V9.5C1 5.72876 1 3.84315 2.17157 2.67157C3.34315 1.5 5.22876 1.5 9 1.5H12.5C15.7875 1.5 17.4312 1.5 18.5376 2.40796C18.7401 2.57418 18.9258 2.75989 19.092 2.96243C20 4.06878 20 5.71252 20 9" stroke="black" stroke-width="1.2" stroke-linecap="round" stroke-linejoin="round"/>
<path d="M1 7.5H20H1Z" fill="white"/>
<path d="M1 7.5H20" stroke="black" stroke-width="1.2" stroke-linecap="round" stroke-linejoin="round"/>
<path d="M4.5 4.5H4.50998H4.5ZM8.49002 4.5H8.5H8.49002Z" fill="white"/>
<path d="M4.5 4.5H4.50998M8.49002 4.5H8.5" stroke="black" stroke-width="1.2" stroke-linecap="round" stroke-linejoin="round"/>
<path d="M13.6716 20.5H12V18.8284C12 18.298 12.2107 17.7893 12.5858 17.4142L18.0616 11.9393C18.6474 11.3536 19.5972 11.3536 20.183 11.9393L20.5616 12.318C21.1474 12.9038 21.1474 13.8536 20.5616 14.4393L15.0858 19.9142C14.7107 20.2893 14.202 20.5 13.6716 20.5Z" fill="white" stroke="black" stroke-width="1.2" stroke-linejoin="round"/>
</svg>
