<svg width="50" height="39" viewBox="0 0 50 39" fill="none" xmlns="http://www.w3.org/2000/svg">
<g id="Group">
<path id="Vector" d="M46.8253 0H3.17465C1.42148 0 0 1.42545 0 3.18364V35.8164C0 37.5746 1.42148 39 3.17465 39H46.8253C48.5785 39 50 37.5745 50 35.8164V3.18364C50 1.42545 48.5786 0 46.8253 0ZM46.8253 3.18364V26.3377L40.5689 20.6334C39.6286 19.7762 38.1825 19.8104 37.2841 20.7122L30.9522 27.0612L18.4675 12.1059C17.5238 10.9756 15.7952 10.9645 14.8373 12.0812L3.17465 25.674V3.18364H46.8253ZM33.3334 11.5408C33.3334 9.12278 35.2872 7.16322 37.6983 7.16322C40.1095 7.16322 42.0634 9.12278 42.0634 11.5408C42.0634 13.9588 40.1096 15.9183 37.6983 15.9183C35.2872 15.9184 33.3334 13.9588 33.3334 11.5408Z" fill="#B6B6B7"/>
</g>
</svg>
