<svg width="16" height="16" viewBox="0 0 16 16" fill="none" xmlns="http://www.w3.org/2000/svg">
<path d="M15.8364 7.94822L12.1364 4.02819C11.909 3.787 11.5294 3.776 11.2882 4.00359C11.0474 4.231 11.0362 4.61079 11.2638 4.85179L14.5752 8.35981L11.2638 11.8682C11.0362 12.1092 11.0474 12.4888 11.2882 12.7164C11.4042 12.8258 11.5524 12.88 11.7 12.88C11.8594 12.88 12.0186 12.8168 12.1364 12.6922L15.8365 8.772C16.0546 8.54063 16.0546 8.17941 15.8364 7.94822Z" fill="#3F3F3F"/>
<path d="M4.73646 11.8681L1.42525 8.35986L4.73646 4.85165C4.96387 4.61065 4.95287 4.23083 4.71186 4.00345C4.47105 3.77605 4.09105 3.78705 3.86367 4.02805L0.163642 7.94808C-0.0545473 8.17927 -0.0545473 8.54068 0.163642 8.7719L3.86386 12.6921C3.98186 12.8171 4.14086 12.8801 4.30027 12.8801C4.44786 12.8801 4.59608 12.8257 4.71186 12.7163C4.95308 12.4889 4.96387 12.1091 4.73646 11.8681Z" fill="#3F3F3F"/>
<path d="M8.97068 2.00686C8.64327 1.95726 8.33686 2.18204 8.28686 2.50945L6.52685 14.0295C6.47685 14.3571 6.70185 14.6634 7.02945 14.7134C7.06026 14.718 7.09064 14.7202 7.12086 14.7202C7.41226 14.7202 7.66786 14.5076 7.71327 14.2108L9.47328 2.69067C9.52328 2.36305 9.29828 2.05686 8.97068 2.00686Z" fill="#3F3F3F"/>
</svg>
