<svg width="18" height="16" viewBox="0 0 18 16" fill="none" xmlns="http://www.w3.org/2000/svg">
<path d="M5.7998 8.20312H5.80698M8.99625 8.20312H9.00337M12.1927 8.20312H12.1998" stroke="#717171" stroke-width="1.5" stroke-linecap="round" stroke-linejoin="round"/>
<path d="M13.7998 15.4C14.7856 15.4 15.5846 14.479 15.5846 13.3429C15.5846 11.5447 15.5048 10.3491 16.7384 8.9273C17.0869 8.52562 17.0869 7.87434 16.7384 7.47266C15.5048 6.05084 15.5846 4.85533 15.5846 3.05714C15.5846 1.92102 14.7856 1 13.7998 1" stroke="#717171" stroke-width="1.1" stroke-linecap="round" stroke-linejoin="round"/>
<path d="M4.2 15.4C3.21427 15.4 2.41518 14.479 2.41518 13.3429C2.41518 11.5447 2.49502 10.3491 1.26138 8.9273C0.912872 8.52562 0.912872 7.87434 1.26138 7.47266C2.46797 6.08201 2.41518 4.87194 2.41518 3.05714C2.41518 1.92102 3.21427 1 4.2 1" stroke="#717171" stroke-width="1.1" stroke-linecap="round" stroke-linejoin="round"/>
</svg>
