<svg width="24" height="24" viewBox="0 0 24 24" fill="none" xmlns="http://www.w3.org/2000/svg">
<path fill-rule="evenodd" clip-rule="evenodd" d="M3.78953 7.94873V15.7299C3.78953 16.4193 2.52637 16.4193 2.52637 15.7299V7.94873C2.52637 7.25928 3.78953 7.25928 3.78953 7.94873Z" fill="#9E9C98"/>
<path fill-rule="evenodd" clip-rule="evenodd" d="M6.31577 5.79052V17.8917C6.31577 18.5811 5.05261 18.5811 5.05261 17.8917V5.79052C5.05261 5.10108 6.31577 5.10108 6.31577 5.79052Z" fill="#9E9C98"/>
<path fill-rule="evenodd" clip-rule="evenodd" d="M8.84214 10.0425V13.6385C8.84214 14.3279 7.57898 14.3279 7.57898 13.6385V10.0425C7.57898 9.35303 8.84214 9.35303 8.84214 10.0425Z" fill="#9E9C98"/>
<path fill-rule="evenodd" clip-rule="evenodd" d="M11.3684 7.812V15.8686C11.3684 16.5581 10.1052 16.5581 10.1052 15.8686V7.812C10.1052 7.12256 11.3684 7.12256 11.3684 7.812Z" fill="#9E9C98"/>
<path fill-rule="evenodd" clip-rule="evenodd" d="M13.8948 3.51709V20.1633C13.8948 20.8528 12.6316 20.8528 12.6316 20.1633V3.51709C12.6316 2.82764 13.8948 2.82764 13.8948 3.51709Z" fill="#9E9C98"/>
<path fill-rule="evenodd" clip-rule="evenodd" d="M16.421 5.79051V17.8893C16.421 18.5787 15.1578 18.5787 15.1578 17.8893V5.79053C15.1578 5.10108 16.421 5.10107 16.421 5.79051Z" fill="#9E9C98"/>
<path fill-rule="evenodd" clip-rule="evenodd" d="M18.9472 9.55419V14.1269C18.9472 14.8163 17.6841 14.8163 17.6841 14.1269V9.55419C17.6841 8.86475 18.9472 8.86475 18.9472 9.55419Z" fill="#9E9C98"/>
<path fill-rule="evenodd" clip-rule="evenodd" d="M21.4737 7.95067V15.7309C21.4738 16.4203 20.2105 16.4203 20.2106 15.7309V7.95067C20.2106 7.26124 21.4737 7.26124 21.4737 7.95067Z" fill="#9E9C98"/>
<path fill-rule="evenodd" clip-rule="evenodd" d="M24 9.55223V14.1274C24 14.8168 22.7368 14.8168 22.7368 14.1274V9.55223C22.7368 8.8628 24 8.8628 24 9.55223Z" fill="#9E9C98"/>
<path fill-rule="evenodd" clip-rule="evenodd" d="M1.26316 9.55223V14.1274C1.26316 14.8168 0 14.8168 0 14.1274V9.55223C0 8.8628 1.26316 8.8628 1.26316 9.55223Z" fill="#9E9C98"/>
</svg>
