<svg width="24" height="24" viewBox="0 0 24 24" fill="none" xmlns="http://www.w3.org/2000/svg">
<path d="M19.5366 0H4.46344C1.99955 0.00285937 0.00285937 1.99955 0 4.46344V19.5366C0.00285937 22.0005 1.99955 23.9971 4.46344 24H19.5366C22.0005 23.9971 23.9971 22.0005 24 19.5366V4.46344C23.9971 1.99955 22.0005 0.00285937 19.5366 0ZM22.3432 4.46344V5.91052H18.1461L15.007 1.6568H19.5366C21.0859 1.65853 22.3415 2.91408 22.3432 4.46344ZM12.9479 1.6568L16.0869 5.91052H11.0521L7.91306 1.6568H12.9479ZM1.6568 4.46344C1.65853 2.91413 2.91408 1.65858 4.46344 1.6568H5.85398L8.99302 5.91052H1.6568V4.46344ZM19.5366 22.3432H4.46344C2.91413 22.3415 1.65858 21.0859 1.6568 19.5366V7.56736H22.3432V19.5366C22.3414 21.0859 21.0859 22.3414 19.5366 22.3432Z" fill="#9E9C98"/>
<path d="M16.42 14.2387L9.86614 10.4549C9.46991 10.2261 8.96328 10.3619 8.73453 10.7581C8.66183 10.8841 8.62354 11.0269 8.62354 11.1723V18.7401C8.62354 19.1976 8.99441 19.5685 9.45191 19.5685C9.59732 19.5685 9.74019 19.5302 9.86614 19.4575L16.42 15.6736C16.8162 15.4449 16.952 14.9382 16.7232 14.542C16.6505 14.416 16.5459 14.3114 16.42 14.2387ZM10.2803 17.3052V12.6071L14.349 14.9561L10.2803 17.3052Z" fill="#9E9C98"/>
</svg>
