<svg width="24" height="24" viewBox="0 0 24 24" fill="none" xmlns="http://www.w3.org/2000/svg">
<path d="M14 6.01818C14.2761 6.01818 14.5 5.79021 14.5 5.50909C14.5 5.22797 14.2761 5 14 5H10C9.7239 5 9.5 5.22797 9.5 5.50909C9.5 5.79021 9.7239 6.01818 10 6.01818H14Z" fill="white"/>
<path d="M6.5 6.52734C6.2239 6.52734 6 6.75531 6 7.03643C6 7.31755 6.2239 7.54553 6.5 7.54553H7V16.9128C7 18.0633 7.92 19.0001 9.05 19.0001H14.95C16.0799 19.0001 17 18.0633 17 16.9128V7.54553H17.5C17.7761 7.54553 18 7.31755 18 7.03643C18 6.75531 17.7761 6.52734 17.5 6.52734H16.5H7.5H6.5ZM16 7.54553V16.9128C16 17.5033 15.53 17.9819 14.95 17.9819H9.05C8.47 17.9819 8 17.5033 8 16.9128V7.54553H16Z" fill="white"/>
<circle cx="12" cy="12" r="11.5" stroke="white"/>
</svg>
