<svg width="12" height="12" viewBox="0 0 12 12" fill="none" xmlns="http://www.w3.org/2000/svg">
<mask id="path-1-inside-1_538_409" fill="white">
<path d="M7.73196 0.872727C7.97292 0.872727 8.16832 0.677324 8.16832 0.436364C8.16832 0.195404 7.97292 0 7.73196 0H4.24105C4.00009 0 3.80469 0.195404 3.80469 0.436364C3.80469 0.677324 4.00009 0.872727 4.24105 0.872727H7.73196Z"/>
</mask>
<path d="M7.73196 1.87273C8.52521 1.87273 9.16832 1.22961 9.16832 0.436364H7.16832C7.16832 0.125039 7.42064 -0.127273 7.73196 -0.127273V1.87273ZM9.16832 0.436364C9.16832 -0.356881 8.52521 -1 7.73196 -1V1C7.42064 1 7.16832 0.747688 7.16832 0.436364H9.16832ZM7.73196 -1H4.24105V1H7.73196V-1ZM4.24105 -1C3.44781 -1 2.80469 -0.356881 2.80469 0.436364H4.80469C4.80469 0.747688 4.55238 1 4.24105 1V-1ZM2.80469 0.436364C2.80469 1.22961 3.44781 1.87273 4.24105 1.87273V-0.127273C4.55238 -0.127273 4.80469 0.125039 4.80469 0.436364H2.80469ZM4.24105 1.87273H7.73196V-0.127273H4.24105V1.87273Z" fill="#3F3F3F" mask="url(#path-1-inside-1_538_409)"/>
<mask id="path-3-inside-2_538_409" fill="white">
<path d="M1.18636 1.30957C0.945404 1.30957 0.75 1.50497 0.75 1.74593C0.75 1.98689 0.945404 2.1823 1.18636 2.1823H1.62273V10.2114C1.62273 11.1975 2.42564 12.0005 3.41182 12.0005H8.56091C9.54705 12.0005 10.35 11.1976 10.35 10.2114V2.1823H10.7864C11.0273 2.1823 11.2227 1.98689 11.2227 1.74593C11.2227 1.50497 11.0273 1.30957 10.7864 1.30957H9.91364H2.05909H1.18636ZM9.47727 2.1823V10.2114C9.47727 10.7176 9.06709 11.1278 8.56091 11.1278H3.41182C2.90564 11.1278 2.49545 10.7176 2.49545 10.2114V2.1823H9.47727Z"/>
</mask>
<path d="M1.62273 2.1823H2.62273V1.1823H1.62273V2.1823ZM10.35 2.1823V1.1823H9.35V2.1823H10.35ZM9.47727 2.1823H10.4773V1.1823H9.47727V2.1823ZM2.49545 2.1823V1.1823H1.49545V2.1823H2.49545ZM1.18636 0.30957C0.393119 0.30957 -0.25 0.952689 -0.25 1.74593H1.75C1.75 2.05726 1.49769 2.30957 1.18636 2.30957V0.30957ZM-0.25 1.74593C-0.25 2.53918 0.393119 3.1823 1.18636 3.1823V1.1823C1.49769 1.1823 1.75 1.43461 1.75 1.74593H-0.25ZM1.18636 3.1823H1.62273V1.1823H1.18636V3.1823ZM0.622727 2.1823V10.2114H2.62273V2.1823H0.622727ZM0.622727 10.2114C0.622727 11.7498 1.87334 13.0005 3.41182 13.0005V11.0005C2.97794 11.0005 2.62273 10.6453 2.62273 10.2114H0.622727ZM3.41182 13.0005H8.56091V11.0005H3.41182V13.0005ZM8.56091 13.0005C10.0993 13.0005 11.35 11.7499 11.35 10.2114H9.35C9.35 10.6453 8.99478 11.0005 8.56091 11.0005V13.0005ZM11.35 10.2114V2.1823H9.35V10.2114H11.35ZM10.35 3.1823H10.7864V1.1823H10.35V3.1823ZM10.7864 3.1823C11.5796 3.1823 12.2227 2.53918 12.2227 1.74593H10.2227C10.2227 1.43461 10.475 1.1823 10.7864 1.1823V3.1823ZM12.2227 1.74593C12.2227 0.952689 11.5796 0.30957 10.7864 0.30957V2.30957C10.475 2.30957 10.2227 2.05726 10.2227 1.74593H12.2227ZM10.7864 0.30957H9.91364V2.30957H10.7864V0.30957ZM9.91364 0.30957H2.05909V2.30957H9.91364V0.30957ZM2.05909 0.30957H1.18636V2.30957H2.05909V0.30957ZM8.47727 2.1823V10.2114H10.4773V2.1823H8.47727ZM8.47727 10.2114C8.47727 10.1653 8.51481 10.1278 8.56091 10.1278V12.1278C9.61938 12.1278 10.4773 11.2699 10.4773 10.2114H8.47727ZM8.56091 10.1278H3.41182V12.1278H8.56091V10.1278ZM3.41182 10.1278C3.45792 10.1278 3.49545 10.1653 3.49545 10.2114H1.49545C1.49545 11.2699 2.35335 12.1278 3.41182 12.1278V10.1278ZM3.49545 10.2114V2.1823H1.49545V10.2114H3.49545ZM2.49545 3.1823H9.47727V1.1823H2.49545V3.1823Z" fill="#3F3F3F" mask="url(#path-3-inside-2_538_409)"/>
</svg>
