<svg width="12" height="12" viewBox="0 0 12 12" fill="none" xmlns="http://www.w3.org/2000/svg">
<path d="M0 4.25848V10.8424C0.000364379 11.1493 0.122474 11.4436 0.339542 11.6607C0.55661 11.8778 0.850914 11.9999 1.15789 12.0003H7.74168C8.04867 11.9999 8.34297 11.8778 8.56004 11.6607C8.77711 11.4436 8.89921 11.1493 8.89958 10.8424V4.25848C8.89921 3.9515 8.77711 3.6572 8.56004 3.44013C8.34297 3.22306 8.04867 3.10095 7.74168 3.10059H1.15789C0.850914 3.10095 0.55661 3.22306 0.339542 3.44013C0.122474 3.6572 0.000364379 3.9515 0 4.25848ZM8.268 4.25848V10.8424C8.26785 10.9819 8.21236 11.1157 8.11368 11.2144C8.01501 11.313 7.88123 11.3685 7.74168 11.3687H1.15789C1.01835 11.3685 0.884567 11.313 0.785895 11.2144C0.687224 11.1157 0.631725 10.9819 0.631579 10.8424V4.25848C0.631725 4.11894 0.687224 3.98515 0.785895 3.88648C0.884567 3.78781 1.01835 3.73231 1.15789 3.73216H7.74168C7.88123 3.73231 8.01501 3.78781 8.11368 3.88648C8.21236 3.98515 8.26785 4.11894 8.268 4.25848Z" fill="#3F3F3F"/>
<path d="M3.73216 1.86595V1.34909C3.73242 1.15884 3.80812 0.976454 3.94267 0.841943C4.07722 0.707432 4.25963 0.631779 4.44989 0.631579H5.22507C5.30803 0.630366 5.38717 0.59656 5.4454 0.537469C5.50364 0.478378 5.53628 0.398746 5.53628 0.315783C5.53627 0.232821 5.50363 0.15319 5.44539 0.0941011C5.38716 0.035012 5.30801 0.00120999 5.22506 0H4.4499C4.09219 0.000377179 3.74924 0.142628 3.49628 0.395544C3.24333 0.648461 3.10102 0.991388 3.10059 1.34909V1.86595C3.10176 1.94893 3.13555 2.02812 3.19464 2.08638C3.25374 2.14464 3.33339 2.17731 3.41638 2.17731C3.49936 2.17731 3.57902 2.14464 3.63811 2.08638C3.6972 2.02812 3.73099 1.94893 3.73216 1.86595Z" fill="#3F3F3F"/>
<path d="M11.6844 6.45898C11.6007 6.45899 11.5203 6.49226 11.4611 6.55148C11.4019 6.6107 11.3686 6.69102 11.3686 6.77477V7.54986C11.3684 7.74014 11.2927 7.92257 11.1582 8.05713C11.0236 8.19168 10.8412 8.26736 10.6509 8.26758H10.1341C10.0504 8.26758 9.97007 8.30085 9.91085 8.36007C9.85163 8.41929 9.81836 8.49961 9.81836 8.58337C9.81836 8.66712 9.85163 8.74744 9.91085 8.80666C9.97007 8.86589 10.0504 8.89916 10.1341 8.89916H10.6509C11.0086 8.89876 11.3516 8.75648 11.6046 8.50352C11.8575 8.25056 11.9998 7.90759 12.0002 7.54986V6.77477C12.0002 6.69102 11.9669 6.6107 11.9077 6.55148C11.8485 6.49226 11.7682 6.45899 11.6844 6.45898Z" fill="#3F3F3F"/>
<path d="M10.6509 0H9.8758C9.79282 0.00117519 9.71364 0.0349637 9.65538 0.0940592C9.59711 0.153155 9.56445 0.232808 9.56445 0.315796C9.56445 0.398783 9.59712 0.478435 9.65539 0.537529C9.71365 0.596622 9.79284 0.630407 9.87581 0.631579H10.6509C10.8411 0.631779 11.0235 0.707432 11.1581 0.841943C11.2926 0.976454 11.3684 1.15884 11.3686 1.34909V2.12438C11.3686 2.20814 11.4019 2.28846 11.4611 2.34768C11.5203 2.4069 11.6006 2.44017 11.6844 2.44017C11.7681 2.44017 11.8485 2.4069 11.9077 2.34768C11.9669 2.28846 12.0002 2.20814 12.0002 2.12438V1.34909C11.9997 0.99139 11.8574 0.648464 11.6045 0.395548C11.3515 0.142632 11.0086 0.000379964 10.6509 0Z" fill="#3F3F3F"/>
<path d="M8.32534 0.631579C8.40829 0.630366 8.48744 0.59656 8.54567 0.537469C8.6039 0.478378 8.63655 0.398746 8.63654 0.315783C8.63654 0.232821 8.6039 0.15319 8.54566 0.0941011C8.48743 0.035012 8.40828 0.00120999 8.32533 0H6.77507C6.69212 0.00121331 6.61297 0.0350185 6.55474 0.0941099C6.49651 0.153201 6.46387 0.232833 6.46387 0.315796C6.46387 0.398758 6.49651 0.478389 6.55475 0.537478C6.61298 0.596567 6.69213 0.630369 6.77508 0.631579H8.32534Z" fill="#3F3F3F"/>
<path d="M11.6849 3.3584C11.6012 3.3584 11.5209 3.39167 11.4616 3.4509C11.4024 3.51012 11.3691 3.59044 11.3691 3.67419V5.22435C11.3704 5.30731 11.4042 5.38645 11.4633 5.44468C11.5223 5.50292 11.602 5.53556 11.6849 5.53556C11.7679 5.53555 11.8475 5.50291 11.9066 5.44467C11.9657 5.38644 11.9995 5.30729 12.0007 5.22434V3.67419C12.0007 3.59044 11.9674 3.51012 11.9082 3.4509C11.849 3.39167 11.7687 3.3584 11.6849 3.3584Z" fill="#3F3F3F"/>
<path d="M2.34441 7.86575H4.13389V9.65522C4.1351 9.73817 4.16891 9.81732 4.228 9.87555C4.28709 9.93378 4.36672 9.96643 4.44968 9.96643C4.53265 9.96642 4.61228 9.93378 4.67137 9.87554C4.73045 9.81731 4.76426 9.73816 4.76547 9.65521V7.86575H6.55494C6.63869 7.86575 6.71902 7.83248 6.77824 7.77326C6.83746 7.71403 6.87073 7.63371 6.87073 7.54996C6.87073 7.46621 6.83746 7.38588 6.77824 7.32666C6.71902 7.26744 6.63869 7.23417 6.55494 7.23417H4.76547V5.4447C4.76547 5.36094 4.7322 5.28062 4.67297 5.2214C4.61375 5.16218 4.53343 5.12891 4.44968 5.12891C4.36592 5.12891 4.2856 5.16218 4.22638 5.2214C4.16716 5.28062 4.13389 5.36094 4.13389 5.4447V7.23417H2.34441C2.26146 7.23538 2.18231 7.26918 2.12408 7.32827C2.06585 7.38736 2.0332 7.467 2.0332 7.54996C2.0332 7.63292 2.06585 7.71255 2.12408 7.77164C2.18231 7.83073 2.26146 7.86454 2.34441 7.86575Z" fill="#3F3F3F"/>
</svg>
