<svg width="22" height="21" viewBox="0 0 22 21" fill="none" xmlns="http://www.w3.org/2000/svg">
<path d="M1.99707 9.48438V13.991C1.99707 16.8235 1.99707 18.2398 2.87575 19.1198C3.75443 19.9998 5.16864 19.9998 7.99707 19.9998H13.997C16.8254 19.9998 18.2396 19.9998 19.1183 19.1198C19.997 18.2398 19.997 16.8235 19.997 13.991V9.48438" stroke="#717171" stroke-width="1.2"/>
<path d="M5.99707 16.4766H9.99704" stroke="#717171" stroke-width="1.2" stroke-linecap="round"/>
<path d="M16.7927 1.00269L5.1469 1.03174C3.40873 0.94231 2.96307 2.28079 2.96307 2.9351C2.96307 3.52029 2.88762 4.3734 1.82231 5.97682C0.756998 7.58024 0.837048 8.05657 1.43778 9.1666C1.93635 10.0879 3.20448 10.4477 3.86569 10.5083C5.9659 10.556 6.98772 8.742 6.98772 7.46715C8.02958 10.6705 10.9926 10.6705 12.3128 10.3042C13.6356 9.9372 14.7687 8.6236 15.0361 7.46715C15.192 8.9043 15.6652 9.743 17.0633 10.3192C18.5115 10.9161 19.7569 10.0038 20.3818 9.419C21.0067 8.8342 21.4077 7.53584 20.2938 6.10886C19.5256 5.12477 19.2054 4.19768 19.1003 3.23682C19.0393 2.68007 18.9858 2.08181 18.5942 1.7011C18.0218 1.14473 17.2006 0.975919 16.7927 1.00269Z" stroke="#717171" stroke-width="1.2" stroke-linecap="round" stroke-linejoin="round"/>
</svg>
