<svg width="16" height="16" viewBox="0 0 16 16" fill="none" xmlns="http://www.w3.org/2000/svg">
<path d="M14.4699 8.59356C13.8449 7.86435 12.918 7.35755 11.6887 7.07279C12.5501 6.67693 13.071 6.40961 13.2515 6.27079C13.689 5.94436 14.0188 5.5797 14.2407 5.17699C14.4629 4.77413 14.5739 4.32971 14.5739 3.84366C14.5739 3.39232 14.5011 2.96873 14.3552 2.57288C14.2094 2.17695 13.9837 1.81586 13.6782 1.48951C13.3657 1.16323 13.0115 0.899194 12.6157 0.6978C12.2476 0.517312 11.9143 0.381918 11.6156 0.291656C10.9004 0.104126 10.2372 0.0103616 9.62618 0.0103616H8.85534C8.71648 0.0103616 8.57565 0.00861031 8.43332 0.00510781C8.29111 0.00182422 8.21646 0 8.20953 0C8.1749 0 8.1262 0.00182422 8.06352 0.0051443C8.00102 0.00864679 7.95228 0.010398 7.91762 0.010398L7.44879 0.0208691L3.49064 0.156263L0.782405 0.218797L0.824071 1.08329C1.40731 1.15977 1.80331 1.20504 2.01156 1.21883C2.36572 1.23967 2.60531 1.29187 2.73034 1.3751C2.80681 1.43073 2.84848 1.47236 2.85541 1.50013C2.9248 1.65289 2.96289 2.03134 2.96997 2.63556C2.9977 3.66336 3.02904 5.06611 3.06366 6.84381L3.0845 12.0208C3.0845 12.9095 3.0533 13.5833 2.9908 14.0416C2.96304 14.2083 2.89003 14.3853 2.77201 14.5729C2.45255 14.7047 2.0255 14.8125 1.49079 14.8958C1.33117 14.9165 1.095 14.9582 0.782551 15.0209L0.761719 16C2.42136 15.9443 3.36575 15.9062 3.5952 15.8854C5.08118 15.795 6.11602 15.7569 6.69929 15.7707L8.75125 15.8122C9.55708 15.8399 10.2445 15.8017 10.8139 15.6977C11.7166 15.531 12.4212 15.3225 12.9284 15.0725C13.4422 14.8226 13.9282 14.4475 14.3865 13.9476C14.7341 13.5658 14.9803 13.1595 15.1261 12.7288C15.3275 12.1387 15.4281 11.5797 15.4281 11.0518C15.4283 10.1493 15.1089 9.32971 14.4699 8.59356ZM6.31387 1.20858C6.85552 1.11832 7.30691 1.07319 7.66799 1.07319C8.85541 1.07319 9.74103 1.33365 10.3242 1.85443C10.9142 2.37513 11.2095 3.02452 11.2095 3.80222C11.2095 4.90645 10.9005 5.68419 10.2825 6.13554C9.66453 6.58685 8.74782 6.81262 7.5326 6.81262C7.07428 6.81262 6.69583 6.78835 6.39728 6.73976C6.39023 6.50359 6.38677 6.23627 6.38677 5.93761L6.39728 4.91682C6.40414 3.82666 6.3833 2.85797 6.33474 2.01062C6.32081 1.7815 6.31387 1.51432 6.31387 1.20858ZM11.5222 13.2394C11.2652 13.7393 10.8415 14.1317 10.2514 14.4166C9.6611 14.7014 8.91101 14.8436 8.00142 14.8436C7.55697 14.8436 7.07085 14.7327 6.54311 14.5105C6.45977 14.3092 6.41807 14.1561 6.41793 14.052L6.38677 11.2395L6.39728 9.43745V7.93743C6.58481 7.868 6.93553 7.83334 7.44938 7.83334C8.60911 7.83334 9.46663 7.94447 10.0222 8.16662C10.5986 8.38903 11.0882 8.82648 11.491 9.47926C11.7757 9.93772 11.918 10.5626 11.918 11.3543C11.9179 12.125 11.7859 12.7534 11.5222 13.2394Z" fill="#727272"/>
</svg>
