<svg width="16" height="16" viewBox="0 0 16 16" fill="none" xmlns="http://www.w3.org/2000/svg">
<path d="M9.35655 13.6656C8.63681 12.9179 8.27714 11.8835 8.27754 10.5622C8.27754 7.68536 10.215 5.04337 14.0899 2.63623L14.4861 3.25162C11.7557 5.04239 10.3906 6.83312 10.391 8.62379C10.391 8.64525 10.3944 8.66289 10.3944 8.6836C11.0343 8.12033 11.8638 7.8201 12.716 7.84321C13.5682 7.86632 14.3802 8.21106 14.9887 8.80819C15.5972 9.40531 15.9572 10.2106 15.9964 11.0622C16.0356 11.9139 15.7511 12.7488 15.2 13.3993C15.1599 13.4521 15.1069 13.5003 15.0632 13.5508C15.0421 13.5732 15.0227 13.5957 15.0011 13.6171C14.9225 13.7114 14.8386 13.801 14.7497 13.8856C14.0749 14.4878 13.1869 14.7889 12.0857 14.7888C10.9845 14.7888 10.0748 14.4144 9.35655 13.6656ZM1.07871 13.6651C0.35957 12.9175 0 11.8829 0 10.5613C0 7.68536 1.93729 5.04367 5.81186 2.63623L6.20864 3.25192C3.53474 5.00628 2.17955 6.75982 2.12415 8.51276C2.65617 8.10963 3.29612 7.87392 3.96253 7.83563C4.62894 7.79735 5.29167 7.95822 5.86636 8.29778C6.44105 8.63734 6.90171 9.14022 7.18969 9.74241C7.47768 10.3446 7.57997 11.0189 7.48353 11.6794C7.48353 11.6896 7.48525 11.6966 7.48525 11.7063C7.48525 12.557 7.14766 13.2833 6.47249 13.8853C5.79731 14.4873 4.90932 14.7881 3.80853 14.7878C2.70784 14.7878 1.7979 14.4136 1.07871 13.6651Z" fill="#727272"/>
</svg>
