<svg width="18" height="16" viewBox="0 0 18 16" fill="none" xmlns="http://www.w3.org/2000/svg">
<path d="M8.2002 5.20312H9.8002" stroke="#717171" stroke-linecap="round"/>
<path d="M1 7.6C1 4.96014 1 3.6402 1.8201 2.8201C2.6402 2 3.96014 2 6.6 2H7.4C10.0398 2 11.3598 2 12.1799 2.8201C13 3.6402 13 4.96014 13 7.6V9.2C13 11.8398 13 13.1598 12.1799 13.9799C11.3598 14.8 10.0398 14.8 7.4 14.8H6.6C3.96014 14.8 2.6402 14.8 1.8201 13.9799C1 13.1598 1 11.8398 1 9.2V7.6Z" stroke="#717171"/>
<path d="M13 5.92468L13.1007 5.84157C14.7934 4.44499 15.6397 3.74669 16.3198 4.08386C17 4.42103 17 5.53884 17 7.77448V9.02552C17 11.2612 17 12.379 16.3198 12.7162C15.6397 13.0533 14.7934 12.355 13.1007 10.9584L13 10.8753" stroke="#717171" stroke-linecap="round"/>
</svg>
