<svg width="18" height="18" viewBox="0 0 18 18" fill="none" xmlns="http://www.w3.org/2000/svg">
<path d="M5.21042 6.47163C5.90805 6.47163 6.47358 5.90609 6.47358 5.20847C6.47358 4.51085 5.90805 3.94531 5.21042 3.94531C4.5128 3.94531 3.94727 4.51085 3.94727 5.20847C3.94727 5.90609 4.5128 6.47163 5.21042 6.47163Z" stroke="#717171" stroke-linecap="round" stroke-linejoin="round"/>
<path d="M1 9C1 5.22877 1 3.34315 2.17157 2.17157C3.34315 1 5.22877 1 9 1C12.7712 1 14.6568 1 15.8285 2.17157C17 3.34315 17 5.22877 17 9C17 12.7712 17 14.6568 15.8285 15.8285C14.6568 17 12.7712 17 9 17C5.22877 17 3.34315 17 2.17157 15.8285C1 14.6568 1 12.7712 1 9Z" stroke="#717171"/>
<path d="M3.10547 16.5789C6.78754 12.1789 10.9152 6.37601 16.9981 10.2988" stroke="#717171"/>
</svg>
