<svg width="16" height="16" viewBox="0 0 16 16" fill="none" xmlns="http://www.w3.org/2000/svg">
<path d="M6.99951 14C6.99951 15.1 6.09951 16 4.99951 16C3.89951 16 2.99951 15.1 2.99951 14C2.99951 12.9 3.89951 12 4.99951 12C6.09951 12 6.99951 12.9 6.99951 14ZM4.99951 6C3.89951 6 2.99951 6.9 2.99951 8C2.99951 9.1 3.89951 10 4.99951 10C6.09951 10 6.99951 9.1 6.99951 8C6.99951 6.9 6.09951 6 4.99951 6ZM4.99951 0C3.89951 0 2.99951 0.9 2.99951 2C2.99951 3.1 3.89951 4 4.99951 4C6.09951 4 6.99951 3.1 6.99951 2C6.99951 0.9 6.09951 0 4.99951 0ZM10.9995 4C12.0995 4 12.9995 3.1 12.9995 2C12.9995 0.9 12.0995 0 10.9995 0C9.89951 0 8.99951 0.9 8.99951 2C8.99951 3.1 9.89951 4 10.9995 4ZM10.9995 6C9.89951 6 8.99951 6.9 8.99951 8C8.99951 9.1 9.89951 10 10.9995 10C12.0995 10 12.9995 9.1 12.9995 8C12.9995 6.9 12.0995 6 10.9995 6ZM10.9995 12C9.89951 12 8.99951 12.9 8.99951 14C8.99951 15.1 9.89951 16 10.9995 16C12.0995 16 12.9995 15.1 12.9995 14C12.9995 12.9 12.0995 12 10.9995 12Z" fill="#717171"/>
</svg>
