<svg width="18" height="17" viewBox="0 0 18 17" fill="none" xmlns="http://www.w3.org/2000/svg">
<path d="M2.38333 1.66667C2.38333 1.27087 2.06247 0.95 1.66667 0.95C1.27087 0.95 0.95 1.27087 0.95 1.66667V15.8889C0.95 16.2847 1.27087 16.6056 1.66667 16.6056C2.06247 16.6056 2.38333 16.2847 2.38333 15.8889V1.66667Z" fill="#3F3F3F" stroke="#3F3F3F" stroke-width="0.1"/>
<path d="M10.8278 1.66667C10.8278 1.27087 10.5069 0.95 10.1111 0.95C9.71533 0.95 9.39446 1.27087 9.39446 1.66667V15.8889C9.39446 16.2847 9.71533 16.6056 10.1111 16.6056C10.5069 16.6056 10.8278 16.2847 10.8278 15.8889V1.66667Z" fill="#3F3F3F" stroke="#3F3F3F" stroke-width="0.1"/>
<path d="M1.66667 8.06133C1.27087 8.06133 0.95 8.3822 0.95 8.77799C0.95 9.17379 1.27087 9.49466 1.66667 9.49466H10.1111C10.5069 9.49466 10.8278 9.17379 10.8278 8.77799C10.8278 8.3822 10.5069 8.06133 10.1111 8.06133H1.66667Z" fill="#3F3F3F" stroke="#3F3F3F" stroke-width="0.1"/>
<path d="M14.7294 9.27383L14.7294 9.27383L15.617 8.34727V15.8891C15.617 16.2849 15.9378 16.6058 16.3336 16.6058C16.7294 16.6058 17.0503 16.2849 17.0503 15.8891V6.56318C17.0503 6.2705 16.8723 6.00724 16.6007 5.89816C16.3291 5.78906 16.0186 5.85607 15.8161 6.0674L15.8161 6.06741L13.6943 8.28225L13.6943 8.28225C13.4206 8.56805 13.4302 9.02175 13.7161 9.29553C14.0019 9.56939 14.4555 9.55963 14.7294 9.27383Z" fill="#3F3F3F" stroke="#3F3F3F" stroke-width="0.1"/>
</svg>
