<svg width="42" height="42" viewBox="0 0 42 42" fill="none" xmlns="http://www.w3.org/2000/svg">
<circle cx="21" cy="21" r="21" fill="#F4F9FF"/>
<path d="M21 9C14.3676 9 9 14.367 9 21C9 27.6323 14.367 33 21 33C27.6324 33 33 27.633 33 21C33 14.3677 27.633 9 21 9ZM21 31.3256C15.3065 31.3256 10.6744 26.6936 10.6744 21C10.6744 15.3064 15.3065 10.6744 21 10.6744C26.6935 10.6744 31.3256 15.3064 31.3256 21C31.3256 26.6936 26.6935 31.3256 21 31.3256Z" fill="#3F96FD"/>
<path d="M21.0004 19C20.2896 19 19.7842 19.3002 19.7842 19.7425V25.7605C19.7842 26.1397 20.2896 26.5187 21.0004 26.5187C21.6797 26.5187 22.2325 26.1397 22.2325 25.7605V19.7424C22.2325 19.3001 21.6797 19 21.0004 19Z" fill="#3F96FD"/>
<path d="M21.0003 15.2969C20.2737 15.2969 19.7051 15.8181 19.7051 16.4184C19.7051 17.0186 20.2737 17.5557 21.0003 17.5557C21.7111 17.5557 22.2798 17.0186 22.2798 16.4184C22.2798 15.8181 21.711 15.2969 21.0003 15.2969Z" fill="#3F96FD"/>
</svg>
