<svg width="22" height="22" viewBox="0 0 22 22" fill="none" xmlns="http://www.w3.org/2000/svg"> <path d="M11 14.1562V15.7352" stroke="#717171" stroke-width="1.2" stroke-linecap="round" stroke-linejoin="round"/> <path d="M1.52637 9.94531L1.68729 12.9593C1.8602 16.7632 1.94665 18.6652 3.16726 19.8315C4.38787 20.9979 6.2918 20.9979 10.0996 20.9979H11.9005C15.7083 20.9979 17.6123 20.9979 18.8329 19.8315C20.0534 18.6652 20.1399 16.7632 20.3128 12.9593L20.4737 9.94531" stroke="#717171" stroke-width="1.2" stroke-linecap="round" stroke-linejoin="round"/> <path d="M1.36545 9.36445C3.15419 12.7658 7.18863 14.1612 11 14.1612C14.8114 14.1612 18.8458 12.7658 20.6345 9.36445C21.4884 7.74072 20.8419 4.6875 18.7389 4.6875H3.26105C1.15814 4.6875 0.511611 7.74072 1.36545 9.36445Z" stroke="#717171" stroke-width="1.2"/> <path d="M15.2106 4.68421L15.1177 4.35888C14.6545 2.73778 14.4229 1.92723 13.8716 1.46361C13.3202 1 12.5879 1 11.1232 1H10.8769C9.41231 1 8.67994 1 8.1286 1.46361C7.57726 1.92723 7.34567 2.73778 6.8825 4.35888L6.78955 4.68421" stroke="#717171" stroke-width="1.2"/> </svg>