<svg width="20" height="22" viewBox="0 0 20 22" fill="none" xmlns="http://www.w3.org/2000/svg">
<path d="M18.5 15.9286V9C18.5 5.22876 18.5 3.34315 17.3284 2.17157C16.1569 1 14.2712 1 10.5 1H9.5C5.72876 1 3.84315 1 2.67157 2.17157C1.5 3.34315 1.5 5.22876 1.5 9V18.5" stroke="#717171" stroke-width="1.2" stroke-linecap="round"/>
<path d="M18.5 16H4C2.61929 16 1.5 17.1193 1.5 18.5C1.5 19.8807 2.61929 21 4 21H18.5" stroke="#717171" stroke-width="1.2" stroke-linecap="round"/>
<path d="M18.5 21C17.1193 21 16 19.8807 16 18.5C16 17.1193 17.1193 16 18.5 16" stroke="#717171" stroke-width="1.2" stroke-linecap="round"/>
<path d="M13 6H7" stroke="#717171" stroke-width="1.2" stroke-linecap="round" stroke-linejoin="round"/>
<path d="M10 10H7" stroke="#717171" stroke-width="1.2" stroke-linecap="round" stroke-linejoin="round"/>
</svg>
