<svg width="16" height="16" viewBox="0 0 16 16" fill="none" xmlns="http://www.w3.org/2000/svg">
<path fill-rule="evenodd" clip-rule="evenodd" d="M9.77022 6.23011C8.43111 4.89101 6.16699 4.94173 4.7163 6.39335C3.42146 7.68819 2.42359 8.68514 1.12968 9.97997C-0.32194 11.4307 -0.372664 13.6948 0.96644 15.0339C2.30554 16.373 4.56966 16.3223 6.02036 14.8707C6.57186 14.3191 7.81413 13.0778 7.81413 13.0778C8.08343 12.8076 8.08343 12.3695 7.81413 12.0993C7.54391 11.8291 7.10584 11.8291 6.83562 12.0993L5.04185 13.8931C4.15188 14.783 2.76667 14.8771 1.94494 14.0554C1.12322 13.2337 1.21729 11.8484 2.10726 10.9585L5.69388 7.37185C6.58477 6.48096 7.96999 6.38689 8.79171 7.20862C9.06193 7.47791 9.5 7.47791 9.77022 7.20862C10.0404 6.9384 10.0404 6.50033 9.77022 6.23011Z" fill="#10A37F"/>
<path fill-rule="evenodd" clip-rule="evenodd" d="M6.18313 9.8164C6.83147 10.4647 7.7113 10.83 8.62801 10.83C9.54565 10.83 10.4255 10.4647 11.0738 9.8164C12.4443 8.44594 13.6164 7.27469 14.9869 5.90423C15.6353 5.25497 15.9995 4.37514 15.9995 3.45843C15.9995 2.54079 15.6353 1.66097 14.9869 1.01263C14.3386 0.364288 13.4587 0 12.5411 0C11.6244 0 10.7446 0.364288 10.0953 1.01263C9.50415 1.60471 8.82722 2.28164 8.13922 2.96964C7.869 3.23986 7.869 3.67792 8.13922 3.94814C8.40852 4.21744 8.84751 4.21744 9.1168 3.94814L11.0738 1.99113C11.463 1.60194 11.9905 1.38337 12.5411 1.38337C13.0917 1.38337 13.6192 1.60194 14.0084 1.99113C14.3976 2.38032 14.6162 2.90785 14.6162 3.45843C14.6162 4.00901 14.3976 4.53654 14.0084 4.92573L10.0953 8.83882C9.70704 9.22709 9.17859 9.44658 8.62801 9.44658C8.07835 9.44658 7.5499 9.22709 7.16071 8.83882C6.89142 8.5686 6.45335 8.5686 6.18313 8.83882C5.91291 9.10812 5.91291 9.54619 6.18313 9.8164Z" fill="#10A37F"/>
</svg>
