<svg width="22" height="20" viewBox="0 0 22 20" fill="none" xmlns="http://www.w3.org/2000/svg">
<path d="M9.5 6H17.5M9.5 10H12M17.5 10H15M9.5 14H12M17.5 14H15" stroke="#717171" stroke-width="1.2" stroke-linecap="round" stroke-linejoin="round"/>
<path d="M6 5.5H5C3.11438 5.5 2.17157 5.5 1.58579 6.08579C1 6.67157 1 7.61438 1 9.5V16C1 17.3807 2.11929 18.5 3.5 18.5C4.88071 18.5 6 17.3807 6 16V5.5Z" stroke="#717171" stroke-width="1.2" stroke-linecap="round" stroke-linejoin="round"/>
<path d="M15 1.5H10C9.07 1.5 8.60504 1.5 8.22354 1.60222C7.18827 1.87962 6.37962 2.68827 6.10222 3.72354C6 4.10504 6 4.57003 6 5.5V16C6 17.3807 4.88071 18.5 3.5 18.5H15C17.8284 18.5 19.2426 18.5 20.1213 17.6213C21 16.7426 21 15.3284 21 12.5V7.5C21 4.67157 21 3.25736 20.1213 2.37868C19.2426 1.5 17.8284 1.5 15 1.5Z" stroke="#717171" stroke-width="1.2" stroke-linecap="round" stroke-linejoin="round"/>
</svg>
