<svg width="100" height="100" viewBox="0 0 100 100" fill="none" xmlns="http://www.w3.org/2000/svg">
<path d="M98.1685 55.2812L74.3145 41.5193C74.0355 41.3582 73.7191 41.2734 73.397 41.2734C73.0749 41.2734 72.7585 41.3582 72.4795 41.5193L48.6255 55.2812C48.3455 55.4429 48.1131 55.6757 47.952 55.956C47.7909 56.2364 47.7067 56.5543 47.708 56.8776V84.4015C47.7084 84.7233 47.7933 85.0393 47.9543 85.3179C48.1154 85.5965 48.3468 85.8279 48.6255 85.9887L72.4795 99.7507C72.7585 99.9118 73.0749 99.9965 73.397 99.9965C73.7191 99.9965 74.0355 99.9118 74.3145 99.7507L98.1685 85.9887C98.4472 85.8279 98.6787 85.5965 98.8397 85.3179C99.0007 85.0393 99.0857 84.7233 99.086 84.4015V56.8776C99.0873 56.5543 99.0031 56.2364 98.842 55.956C98.6809 55.6757 98.4485 55.4429 98.1685 55.2812ZM73.397 45.1891L94.0032 57.1162L73.397 68.5294L53.2128 56.8776L73.397 45.1891ZM51.3779 60.052L71.5621 71.6947V95.0074L51.3779 83.3556V60.052ZM75.2319 95.0074V71.7222L95.4161 60.5475V83.3464L75.2319 95.0074Z" fill="#B4B4B4"/>
<path d="M42.2033 86.4695L27.5239 94.5615V72.2213L43.1208 63.0466C43.3548 62.9409 43.5639 62.7872 43.7348 62.5956C43.9056 62.4039 44.0344 62.1786 44.1127 61.934C44.191 61.6895 44.2171 61.4313 44.1893 61.176C44.1615 60.9208 44.0805 60.6742 43.9514 60.4523C43.8224 60.2303 43.6482 60.0379 43.4401 59.8875C43.232 59.7371 42.9947 59.632 42.7435 59.579C42.4923 59.5261 42.2327 59.5265 41.9816 59.5801C41.7305 59.6338 41.4935 59.7395 41.2859 59.8905L25.689 69.0652L5.09194 57.395L25.689 45.7066L41.2859 53.9179C41.7152 54.1307 42.2108 54.1672 42.6666 54.0195C43.1225 53.8718 43.5025 53.5516 43.7254 53.1274C43.9483 52.7032 43.9964 52.2086 43.8594 51.7494C43.7224 51.2902 43.4112 50.9028 42.9924 50.67L26.478 41.9908C26.208 41.8431 25.9051 41.7656 25.5973 41.7656C25.2894 41.7656 24.9865 41.8431 24.7165 41.9908L0.917478 55.5326C0.63746 55.6943 0.405132 55.927 0.244019 56.2074C0.0829067 56.4877 -0.00126919 56.8056 1.44646e-05 57.129V84.1575C-0.00126919 84.4808 0.0829067 84.7987 0.244019 85.0791C0.405132 85.3594 0.63746 85.5922 0.917478 85.7538L24.7715 99.2681C25.0505 99.4291 25.3669 99.5139 25.689 99.5139C26.0111 99.5139 26.3275 99.4291 26.6065 99.2681L44.0383 89.6714C44.2652 89.5649 44.468 89.4131 44.634 89.2252C44.8 89.0373 44.9257 88.8174 45.0035 88.5791C45.0812 88.3407 45.1092 88.0889 45.0859 87.8393C45.0625 87.5897 44.9883 87.3475 44.8677 87.1277C44.7471 86.9079 44.5828 86.7151 44.3848 86.5613C44.1868 86.4075 43.9594 86.2958 43.7167 86.2333C43.4739 86.1708 43.2208 86.1586 42.9732 86.1977C42.7255 86.2367 42.4885 86.3261 42.2767 86.4603L42.2033 86.4695ZM3.66987 60.7805L23.8541 72.2396V94.4973L3.66987 83.084V60.7805Z" fill="#B4B4B4"/>
<path d="M25.6894 37.6141C26.1761 37.6141 26.6428 37.4208 26.9869 37.0767C27.331 36.7326 27.5243 36.2659 27.5243 35.7792V18.7694L47.7085 30.412V48.6237C47.7085 49.1103 47.9019 49.5771 48.246 49.9212C48.5901 50.2653 49.0568 50.4586 49.5435 50.4586C50.0301 50.4586 50.4969 50.2653 50.841 49.9212C51.1851 49.5771 51.3784 49.1103 51.3784 48.6237V30.412L71.5626 18.7694V35.7792C71.5626 36.2659 71.7559 36.7326 72.1 37.0767C72.4442 37.4208 72.9109 37.6141 73.3975 37.6141C73.8842 37.6141 74.3509 37.4208 74.695 37.0767C75.0391 36.7326 75.2325 36.2659 75.2325 35.7792V15.595C75.2321 15.2732 75.1472 14.9572 74.9862 14.6786C74.8251 14.4 74.5937 14.1687 74.315 14.0078L50.4609 0.245834C50.182 0.0847859 49.8656 0 49.5435 0C49.2214 0 48.905 0.0847859 48.626 0.245834L24.772 14.0078C24.4933 14.1687 24.2618 14.4 24.1008 14.6786C23.9398 14.9572 23.8548 15.2732 23.8545 15.595V35.7792C23.8545 36.2659 24.0478 36.7326 24.3919 37.0767C24.736 37.4208 25.2028 37.6141 25.6894 37.6141ZM49.5435 3.95239L69.7277 15.595L49.5435 27.2376L29.3593 15.595L49.5435 3.95239Z" fill="#B4B4B4"/>
</svg>
