<svg width="16" height="16" viewBox="0 0 16 16" fill="none" xmlns="http://www.w3.org/2000/svg">
<path d="M0.683845 0H1.84509L1.76929 3.36078H1.02577L1.10641 0.678394H0.338697L0.683845 0ZM0.820937 7.39995L0.0951577 7.3173C0.112899 6.93678 0.240314 6.63267 0.472563 6.40965C0.591083 6.29849 0.731608 6.21163 0.885704 6.15428C1.0398 6.09693 1.20429 6.07028 1.3693 6.07592C1.59349 6.07592 1.79348 6.1227 1.96606 6.21471C2.14177 6.30857 2.28698 6.44789 2.38539 6.61707C2.48575 6.77821 2.53976 6.96234 2.54184 7.15043C2.5348 7.38735 2.47133 7.6195 2.35636 7.82882C2.2354 8.06743 2.01605 8.34347 1.69994 8.66317L1.44511 8.92829H2.48862V9.59889H0L0.0241926 9.23864L1.09835 8.17816C1.35318 7.92863 1.52252 7.72901 1.60317 7.58242C1.67457 7.46637 1.71554 7.3352 1.72252 7.20033C1.72448 7.15131 1.71589 7.10244 1.69729 7.0568C1.67869 7.01116 1.65048 6.96975 1.61446 6.93521C1.57619 6.89976 1.53086 6.87221 1.48123 6.85424C1.43159 6.83628 1.37869 6.82828 1.32576 6.83073C1.27021 6.82949 1.21508 6.84018 1.16432 6.86202C1.11357 6.88387 1.06845 6.91632 1.03222 6.95705C0.977383 7.01631 0.90803 7.16291 0.820937 7.39995ZM2.40475 14.2588C2.53378 14.4241 2.5999 14.6174 2.5999 14.8405C2.60201 14.9953 2.57002 15.1488 2.50606 15.2908C2.4421 15.4327 2.34764 15.5599 2.22895 15.6639C1.9754 15.8901 1.63989 16.0105 1.29511 15.9992C1.13426 16.005 0.973805 15.98 0.822963 15.9256C0.672122 15.8713 0.53386 15.7887 0.416113 15.6826C0.18709 15.4705 0.061288 15.1836 0.120963 14.7422L0.85642 14.8077C0.880612 14.9652 0.937062 15.0791 1.0177 15.1508C1.09835 15.221 1.20318 15.2568 1.3306 15.2568C1.46446 15.2568 1.57252 15.2163 1.658 15.1352C1.69982 15.0973 1.73291 15.0514 1.75514 15.0003C1.77737 14.9493 1.78824 14.8943 1.78703 14.8389C1.78688 14.7749 1.77083 14.7119 1.74023 14.6552C1.70964 14.5985 1.6654 14.5497 1.61123 14.513C1.49027 14.4194 1.30963 14.3726 0.988673 14.2899L1.06286 13.6646C1.17502 13.6606 1.28569 13.6385 1.39027 13.5991C1.45015 13.5729 1.50146 13.5314 1.53865 13.479C1.57196 13.4333 1.58997 13.3789 1.59026 13.323C1.59147 13.2913 1.58561 13.2597 1.57309 13.2304C1.56056 13.2011 1.54167 13.1747 1.51769 13.153C1.46148 13.1049 1.38783 13.0802 1.31285 13.0844C1.23701 13.0841 1.16321 13.1082 1.10318 13.153C1.04143 13.1966 0.996112 13.2585 0.974157 13.3293L0.896741 13.3839L0.180638 13.2965C0.20396 13.0559 0.308856 12.8295 0.479014 12.6524C0.589384 12.5417 0.722392 12.4545 0.869564 12.3962C1.01674 12.3379 1.17485 12.3099 1.33382 12.314C1.63865 12.314 1.89832 12.4076 2.10637 12.5979C2.20571 12.6831 2.28514 12.7878 2.33937 12.9051C2.3936 13.0223 2.42138 13.1494 2.42088 13.2778C2.42193 13.4387 2.37305 13.5963 2.28056 13.7301C2.19024 13.8626 2.06121 13.9687 1.8838 13.9172C2.09065 13.9745 2.27317 14.0941 2.40475 14.2588Z" fill="#3F3F3F"/>
<path d="M5.07275 2.42578H13.9794" stroke="#3F3F3F" stroke-linecap="round" stroke-linejoin="round"/>
<path d="M5.07275 13.8984H13.9794" stroke="#3F3F3F" stroke-linecap="round" stroke-linejoin="round"/>
<path d="M5.07275 8.20703H13.9794" stroke="#3F3F3F" stroke-linecap="round" stroke-linejoin="round"/>
</svg>
