<svg width="18" height="18" viewBox="0 0 18 18" fill="none" xmlns="http://www.w3.org/2000/svg">
<path d="M8.11133 3.66406H17.0002" stroke="#717171" stroke-width="1.1" stroke-linecap="round"/>
<path d="M8.11133 9H17.0002" stroke="#717171" stroke-width="1.1" stroke-linecap="round"/>
<path d="M8.11133 14.3359H17.0002" stroke="#717171" stroke-width="1.1" stroke-linecap="round"/>
<path d="M1 11.6641H2.33333C2.58115 11.6641 2.70506 11.6641 2.8081 11.6846C3.23124 11.7687 3.562 12.0995 3.64617 12.5226C3.66667 12.6257 3.66667 12.7496 3.66667 12.9974C3.66667 13.2452 3.66667 13.3691 3.64617 13.4722C3.562 13.8953 3.23124 14.2261 2.8081 14.3102C2.70506 14.3307 2.58115 14.3307 2.33333 14.3307C2.08552 14.3307 1.96161 14.3307 1.85857 14.3513C1.43543 14.4354 1.10467 14.7662 1.0205 15.1893C1 15.2923 1 15.4162 1 15.6641V16.4641C1 16.7154 1 16.8412 1.07811 16.9193C1.15621 16.9974 1.28192 16.9974 1.53333 16.9974H3.66667" stroke="#717171" stroke-width="1.1" stroke-linecap="round" stroke-linejoin="round"/>
<path d="M1 1H2.06667C2.21395 1 2.33333 1.11939 2.33333 1.26667V6.33333M2.33333 6.33333H1M2.33333 6.33333H3.66667" stroke="#717171" stroke-width="1.1" stroke-linecap="round" stroke-linejoin="round"/>
</svg>
