<svg width="16" height="16" viewBox="0 0 16 16" fill="none" xmlns="http://www.w3.org/2000/svg">
<path d="M9.35655 13.6661C8.63681 12.9184 8.27714 11.884 8.27754 10.5627C8.27754 7.68585 10.215 5.04385 14.0899 2.63672L14.4861 3.25211C11.7557 5.04288 10.3906 6.83361 10.391 8.62428C10.391 8.64574 10.3944 8.66338 10.3944 8.68409C11.0343 8.12082 11.8638 7.82058 12.716 7.84369C13.5682 7.8668 14.3802 8.21155 14.9887 8.80867C15.5972 9.4058 15.9572 10.2111 15.9964 11.0627C16.0356 11.9144 15.7511 12.7493 15.2 13.3998C15.1599 13.4526 15.1069 13.5008 15.0632 13.5513C15.0421 13.5737 15.0227 13.5962 15.0011 13.6176C14.9225 13.7119 14.8386 13.8015 14.7497 13.8861C14.0749 14.4883 13.1869 14.7894 12.0857 14.7893C10.9845 14.7893 10.0748 14.4149 9.35655 13.6661ZM1.07871 13.6656C0.35957 12.918 0 11.8834 0 10.5618C0 7.68585 1.93729 5.04415 5.81186 2.63672L6.20864 3.25241C3.53474 5.00677 2.17955 6.76031 2.12415 8.51325C2.65617 8.11012 3.29612 7.8744 3.96253 7.83612C4.62894 7.79784 5.29167 7.95871 5.86636 8.29827C6.44105 8.63782 6.90171 9.1407 7.18969 9.74289C7.47768 10.3451 7.57997 11.0193 7.48353 11.6799C7.48353 11.6901 7.48525 11.6971 7.48525 11.7068C7.48525 12.5575 7.14766 13.2838 6.47249 13.8858C5.79731 14.4878 4.90932 14.7886 3.80853 14.7883C2.70784 14.7883 1.7979 14.4141 1.07871 13.6656Z" fill="#10A37F"/>
</svg>
