<svg width="16" height="16" viewBox="0 0 16 16" fill="none" xmlns="http://www.w3.org/2000/svg">
<path d="M8.73889 14.2222V14.3722H8.88889H10.6667C11.0745 14.3722 11.4056 14.7033 11.4056 15.1111C11.4056 15.5189 11.0745 15.85 10.6667 15.85H5.33333C4.92551 15.85 4.59444 15.5189 4.59444 15.1111C4.59444 14.7033 4.92551 14.3722 5.33333 14.3722H7.11111H7.26111V14.2222V1.77778V1.62778H7.11111H1.77778H1.62778V1.77778V3.55556C1.62778 3.96338 1.29671 4.29444 0.888889 4.29444C0.481065 4.29444 0.15 3.96338 0.15 3.55556V0.888889C0.15 0.481065 0.481065 0.15 0.888889 0.15H15.1111C15.5189 0.15 15.85 0.481065 15.85 0.888889V3.55556C15.85 3.96338 15.5189 4.29444 15.1111 4.29444C14.7033 4.29444 14.3722 3.96338 14.3722 3.55556V1.77778V1.62778H14.2222H8.88889H8.73889V1.77778V14.2222Z" fill="#717171" stroke="#F5F5F5" stroke-width="0.3"/>
</svg>
