<svg width="16" height="16" viewBox="0 0 16 16" fill="none" xmlns="http://www.w3.org/2000/svg">
<path d="M15.2019 13.8311H4.50277C4.06181 13.8311 3.70441 13.4737 3.70441 13.0327C3.70441 12.5918 4.06181 12.2344 4.50277 12.2344H15.2016C15.6426 12.2344 16 12.5918 16 13.0327C16 13.4737 15.6429 13.8311 15.2019 13.8311Z" fill="#3F3F3F"/>
<path d="M15.2019 8.81938H4.50277C4.06181 8.81938 3.70441 8.46198 3.70441 8.02102C3.70441 7.58006 4.06181 7.22266 4.50277 7.22266H15.2016C15.6426 7.22266 16 7.58006 16 8.02102C16.0003 8.46198 15.6429 8.81938 15.2019 8.81938Z" fill="#3F3F3F"/>
<path d="M15.2019 3.80766H4.50277C4.06181 3.80766 3.70441 3.45026 3.70441 3.0093C3.70441 2.56834 4.06181 2.21094 4.50277 2.21094H15.2016C15.6426 2.21094 16 2.56834 16 3.0093C16 3.45026 15.6429 3.80766 15.2019 3.80766Z" fill="#3F3F3F"/>
<path d="M1.0722 4.1444C1.66436 4.1444 2.1444 3.66436 2.1444 3.0722C2.1444 2.48004 1.66436 2 1.0722 2C0.480041 2 0 2.48004 0 3.0722C0 3.66436 0.480041 4.1444 1.0722 4.1444Z" fill="#3F3F3F"/>
<path d="M1.0722 9.09362C1.66436 9.09362 2.1444 8.61358 2.1444 8.02142C2.1444 7.42926 1.66436 6.94922 1.0722 6.94922C0.480041 6.94922 0 7.42926 0 8.02142C0 8.61358 0.480041 9.09362 1.0722 9.09362Z" fill="#3F3F3F"/>
<path d="M1.0722 14.0428C1.66436 14.0428 2.1444 13.5628 2.1444 12.9706C2.1444 12.3785 1.66436 11.8984 1.0722 11.8984C0.480041 11.8984 0 12.3785 0 12.9706C0 13.5628 0.480041 14.0428 1.0722 14.0428Z" fill="#3F3F3F"/>
</svg>
