<svg width="14" height="14" viewBox="0 0 14 14" fill="none" xmlns="http://www.w3.org/2000/svg">
<path d="M9.93069 0.0164883H4.0752C3.5296 -0.0344936 2.97946 0.0354269 2.46395 0.221272C1.94844 0.407117 1.48024 0.704318 1.09267 1.09172C0.705108 1.47912 0.407706 1.94719 0.221639 2.46262C0.0355719 2.97805 -0.0345851 3.52815 0.016162 4.07378V9.92229C-0.0348159 10.4681 0.0351524 11.0185 0.221087 11.5342C0.407021 12.0499 0.70435 12.5183 1.09191 12.906C1.47947 13.2938 1.94774 13.5913 2.46337 13.7775C2.97901 13.9636 3.52934 14.0338 4.0752 13.9831H9.92371C10.4693 14.0341 11.0195 13.9641 11.535 13.7783C12.0505 13.5924 12.5187 13.2952 12.9062 12.9078C13.2938 12.5204 13.5912 12.0524 13.7773 11.5369C13.9633 11.0215 14.0335 10.4714 13.9828 9.92578V4.07727C14.0355 3.53166 13.967 2.98114 13.7821 2.4651C13.5972 1.94906 13.3006 1.48026 12.9134 1.09224C12.5262 0.704222 12.0581 0.406578 11.5424 0.220606C11.0268 0.0346346 10.4764 -0.0350672 9.93069 0.0164883ZM10.3427 5.39362L6.38144 9.35664C6.28323 9.45472 6.15011 9.50982 6.01132 9.50982C5.87253 9.50982 5.73941 9.45472 5.64121 9.35664L3.66319 7.37688C3.57067 7.2776 3.52031 7.14628 3.5227 7.01059C3.5251 6.8749 3.58006 6.74544 3.67602 6.64949C3.77198 6.55353 3.90144 6.49856 4.03713 6.49616C4.17281 6.49377 4.30413 6.54414 4.40342 6.63665L6.01045 8.24281L9.60161 4.6534C9.70089 4.56088 9.83221 4.51052 9.9679 4.51291C10.1036 4.5153 10.233 4.57027 10.329 4.66623C10.425 4.76219 10.4799 4.89165 10.4823 5.02734C10.4847 5.16302 10.4352 5.29434 10.3427 5.39362Z" fill="#333333"/>
</svg>
