<svg width="14" height="14" viewBox="0 0 14 14" fill="none" xmlns="http://www.w3.org/2000/svg">
<path d="M7.00175 11.3308L10.6861 13.569C10.7817 13.6263 10.8923 13.6544 11.0041 13.6496C11.1158 13.6448 11.2236 13.6074 11.3138 13.5421C11.404 13.4769 11.4726 13.3866 11.5109 13.2828C11.5493 13.1791 11.5556 13.0664 11.5291 12.9591L10.5272 8.78269L13.8062 5.98913C13.8898 5.91661 13.9501 5.8215 13.9796 5.71553C14.0091 5.60956 14.0066 5.49737 13.9723 5.39282C13.938 5.28826 13.8734 5.19592 13.7866 5.12719C13.6998 5.05846 13.5945 5.01635 13.4837 5.00607L9.18058 4.6602L7.52289 0.696005C7.48063 0.593733 7.40849 0.506213 7.31568 0.444606C7.22286 0.382999 7.11357 0.350098 7.00175 0.350098C6.88993 0.350098 6.78064 0.382999 6.68782 0.444606C6.59501 0.506213 6.52287 0.593733 6.48061 0.696005L4.82292 4.6602L0.519797 5.00607C0.408274 5.01574 0.302108 5.05766 0.214565 5.1266C0.127022 5.19553 0.0619829 5.28842 0.0275733 5.39366C-0.00683629 5.4989 -0.00909042 5.61182 0.0210926 5.71832C0.0512757 5.82482 0.112558 5.92017 0.197282 5.99246L3.4763 8.78601L2.47442 12.9591C2.44793 13.0664 2.45424 13.1791 2.49256 13.2828C2.53089 13.3866 2.59949 13.4769 2.68971 13.5421C2.77993 13.6074 2.88771 13.6448 2.99943 13.6496C3.11116 13.6544 3.22181 13.6263 3.3174 13.569L7.00175 11.3308Z" fill="#E02828"/>
</svg>
