<svg width="16" height="16" viewBox="0 0 16 16" fill="none" xmlns="http://www.w3.org/2000/svg">
<path d="M2.6665 4H3.99984M3.99984 4H5.33317M3.99984 4L4.58353 12.7554C4.63022 13.4558 5.21196 14 5.91391 14H10.0858C10.7877 14 11.3695 13.4558 11.4161 12.7554L11.9998 4M5.33317 4H10.6665M5.33317 4L5.84789 2.45585C5.93863 2.18362 6.19339 2 6.48034 2H9.51933C9.80628 2 10.061 2.18362 10.1518 2.45585L10.6665 4M10.6665 4H11.9998M11.9998 4H13.3332M6.6665 7.33333V10.6667M9.33317 7.33333V10.6667" stroke="#E02828" stroke-width="1.2" stroke-linecap="round"/>
</svg>
