<svg width="25" height="24" viewBox="0 0 25 24" fill="none" xmlns="http://www.w3.org/2000/svg">
<path d="M22.7803 12.529L19.7803 15.529C19.487 15.8223 19.013 15.8223 18.7198 15.529C18.4265 15.2358 18.4265 14.7618 18.7198 14.4685L20.4395 12.7488H13.25V19.9383L14.9698 18.2185C15.263 17.9253 15.737 17.9253 16.0303 18.2185C16.3235 18.5118 16.3235 18.9858 16.0303 19.279L13.0303 22.279C12.7468 22.5633 12.2705 22.5805 11.969 22.279L8.969 19.279C8.67575 18.9858 8.67575 18.5118 8.969 18.2185C9.26225 17.9253 9.73625 17.9253 10.0295 18.2185L11.75 19.9383V12.7488H4.5605L6.28025 14.4685C6.5735 14.7618 6.5735 15.2358 6.28025 15.529C5.987 15.8223 5.513 15.8223 5.21975 15.529L2.21975 12.529C1.9295 12.2388 1.92725 11.7603 2.21975 11.4678L5.21975 8.46778C5.513 8.17453 5.987 8.17453 6.28025 8.46778C6.5735 8.76103 6.5735 9.23503 6.28025 9.52828L4.5605 11.2488H11.75V4.05928L10.0303 5.77903C9.737 6.07228 9.263 6.07228 8.96975 5.77903C8.6765 5.48578 8.6765 5.01178 8.96975 4.71853L11.9698 1.71853C12.26 1.42828 12.7385 1.42603 13.031 1.71853L16.031 4.71853C16.3243 5.01178 16.3243 5.48578 16.031 5.77903C15.884 5.92528 15.692 5.99878 15.5 5.99878C15.308 5.99878 15.116 5.92528 14.9698 5.77903L13.25 4.05928V11.2488H20.4395L18.7198 9.52903C18.4265 9.23578 18.4265 8.76178 18.7198 8.46853C19.013 8.17528 19.487 8.17528 19.7803 8.46853L22.7803 11.4685C23.0728 11.7603 23.0705 12.2395 22.7803 12.529Z" fill="#616161"/>
</svg>
