<svg xmlns="http://www.w3.org/2000/svg" xmlns:xlink="http://www.w3.org/1999/xlink" width="16" height="16" viewBox="0 0 16 16">
  <defs>
    <clipPath id="clip-path">
      <rect id="Rectangle_5407" data-name="Rectangle 5407" width="16" height="16" transform="translate(118 366)" fill="#fff" stroke="#212529" stroke-width="1.2"/>
    </clipPath>
  </defs>
  <g id="Mask_Group_780" data-name="Mask Group 780" transform="translate(-118 -366)" clip-path="url(#clip-path)">
    <g id="delete-02-stroke-rounded" transform="translate(117.069 365.07)">
      <path id="Path_39346" data-name="Path 39346" d="M14.512,4.093l-.461,7.461c-.118,1.906-.177,2.859-.655,3.544a2.977,2.977,0,0,1-.893.84c-.713.435-1.668.435-3.578.435s-2.868,0-3.582-.435a2.976,2.976,0,0,1-.893-.841c-.478-.686-.535-1.641-.65-3.549l-.45-7.453" fill="none" stroke="#212529" stroke-linecap="round" stroke-width="1.2"/>
      <path id="Path_39347" data-name="Path 39347" d="M2.233,4.093h13.4m-3.679,0L11.44,3.045a3.309,3.309,0,0,0-.8-1.261,1.484,1.484,0,0,0-.2-.128,3.309,3.309,0,0,0-1.483-.167,3.322,3.322,0,0,0-1.517.174,1.489,1.489,0,0,0-.207.133A3.322,3.322,0,0,0,6.444,3.1l-.451.989" fill="none" stroke="#212529" stroke-linecap="round" stroke-width="1.2"/>
      <path id="Path_39348" data-name="Path 39348" d="M7.07,12.279V7.814" fill="none" stroke="#212529" stroke-linecap="round" stroke-width="1.2"/>
      <path id="Path_39349" data-name="Path 39349" d="M10.791,12.279V7.814" fill="none" stroke="#212529" stroke-linecap="round" stroke-width="1.2"/>
    </g>
  </g>
</svg>
