<svg width="18" height="24" viewBox="0 0 18 24" fill="none" xmlns="http://www.w3.org/2000/svg">
<path fill-rule="evenodd" clip-rule="evenodd" d="M3.15177 0H11.1758L17.9764 7.08846V20.8756C17.9764 22.6027 16.5791 24 14.8579 24H3.15177C1.42464 24 0.0273438 22.6027 0.0273438 20.8756V3.12443C0.0273134 1.3973 1.42461 0 3.15177 0Z" fill="#E5252A"/>
<path opacity="0.302" fill-rule="evenodd" clip-rule="evenodd" d="M11.1719 0V7.03448H17.9785L11.1719 0Z" fill="white"/>
<path d="M3.5 17.9072V13.5234H5.36507C5.82685 13.5234 6.19267 13.6494 6.46853 13.9072C6.74439 14.1591 6.88233 14.501 6.88233 14.9267C6.88233 15.3525 6.74439 15.6944 6.46853 15.9462C6.19267 16.2041 5.82685 16.33 5.36507 16.33H4.62144V17.9072H3.5ZM4.62144 15.3765H5.23914C5.40704 15.3765 5.53898 15.3405 5.62895 15.2566C5.71889 15.1786 5.7669 15.0707 5.7669 14.9268C5.7669 14.7829 5.71892 14.6749 5.62895 14.5969C5.53901 14.513 5.40707 14.477 5.23914 14.477H4.62144V15.3765ZM7.34407 17.9072V13.5234H8.8973C9.20314 13.5234 9.49101 13.5654 9.76086 13.6554C10.0307 13.7453 10.2766 13.8713 10.4925 14.0452C10.7084 14.2131 10.8823 14.441 11.0082 14.7288C11.1282 15.0167 11.1942 15.3465 11.1942 15.7183C11.1942 16.0842 11.1282 16.414 11.0082 16.7018C10.8823 16.9897 10.7084 17.2176 10.4925 17.3855C10.2766 17.5594 10.0307 17.6853 9.76086 17.7753C9.49101 17.8652 9.20314 17.9072 8.8973 17.9072H7.34407ZM8.44153 16.9537H8.76536C8.93927 16.9537 9.10119 16.9358 9.25112 16.8938C9.39503 16.8518 9.53298 16.7858 9.66492 16.6959C9.79085 16.6059 9.8928 16.48 9.96476 16.3121C10.0367 16.1442 10.0727 15.9462 10.0727 15.7183C10.0727 15.4845 10.0367 15.2866 9.96476 15.1187C9.8928 14.9508 9.79085 14.8248 9.66492 14.7348C9.53298 14.6449 9.39506 14.5789 9.25112 14.537C9.10119 14.495 8.93927 14.477 8.76536 14.477H8.44153V16.9537ZM11.7579 17.9072V13.5234H14.8763V14.477H12.8793V15.1786H14.4745V16.1261H12.8793V17.9072H11.7579Z" fill="white"/>
</svg>
