<svg width="17" height="16" viewBox="0 0 17 16" fill="none" xmlns="http://www.w3.org/2000/svg">
<path d="M8.66651 16C7.08426 16 5.53754 15.5308 4.22194 14.6518C2.90635 13.7727 1.88097 12.5233 1.27547 11.0615C0.66997 9.59966 0.511544 7.99113 0.820225 6.43928C1.12891 4.88743 1.89083 3.46197 3.00965 2.34315C4.12847 1.22433 5.55394 0.462403 7.10578 0.153721C8.65763 -0.15496 10.2662 0.00346625 11.728 0.608967C13.1898 1.21447 14.4392 2.23985 15.3183 3.55544C16.1973 4.87103 16.6665 6.41775 16.6665 8C16.6641 10.121 15.8205 12.1545 14.3207 13.6542C12.821 15.154 10.7875 15.9976 8.66651 16ZM8.66651 1.11628C7.30503 1.11628 5.97414 1.52001 4.84212 2.2764C3.71009 3.03279 2.82779 4.10788 2.30678 5.36572C1.78577 6.62355 1.64945 8.00764 1.91506 9.34295C2.18066 10.6783 2.83628 11.9048 3.79898 12.8675C4.76169 13.8302 5.98825 14.4858 7.32356 14.7515C8.65887 15.0171 10.043 14.8807 11.3008 14.3597C12.5586 13.8387 13.6337 12.9564 14.3901 11.8244C15.1465 10.6924 15.5502 9.36147 15.5502 8C15.5483 6.17493 14.8224 4.42517 13.5319 3.13465C12.2413 1.84413 10.4916 1.11825 8.66651 1.11628Z" fill="#BBBAB8"/>
</svg>
