<svg width="17" height="17" viewBox="0 0 17 17" fill="none" xmlns="http://www.w3.org/2000/svg">
<path d="M8.66651 16.6641C7.08426 16.6641 5.53754 16.1949 4.22194 15.3158C2.90635 14.4368 1.88097 13.1873 1.27547 11.7255C0.66997 10.2637 0.511544 8.65519 0.820225 7.10334C1.12891 5.55149 1.89083 4.12603 3.00965 3.00721C4.12847 1.88839 5.55394 1.12647 7.10578 0.817784C8.65763 0.509102 10.2662 0.667529 11.728 1.27303C13.1898 1.87853 14.4392 2.90391 15.3183 4.2195C16.1973 5.5351 16.6665 7.08181 16.6665 8.66406C16.6641 10.7851 15.8205 12.8185 14.3207 14.3183C12.821 15.8181 10.7875 16.6617 8.66651 16.6641ZM8.66651 1.78034C7.30503 1.78034 5.97414 2.18407 4.84212 2.94046C3.71009 3.69685 2.82779 4.77194 2.30678 6.02978C1.78577 7.28761 1.64945 8.6717 1.91506 10.007C2.18066 11.3423 2.83628 12.5689 3.79898 13.5316C4.76169 14.4943 5.98825 15.1499 7.32356 15.4155C8.65887 15.6811 10.043 15.5448 11.3008 15.0238C12.5586 14.5028 13.6337 13.6205 14.3901 12.4885C15.1465 11.3564 15.5502 10.0255 15.5502 8.66406C15.5483 6.83899 14.8224 5.08924 13.5319 3.79872C12.2413 2.50819 10.4916 1.78231 8.66651 1.78034ZM13.1316 8.66406C13.1316 7.78095 12.8697 6.91766 12.3791 6.18338C11.8885 5.44909 11.1911 4.87679 10.3752 4.53884C9.55934 4.20088 8.66155 4.11246 7.7954 4.28474C6.92926 4.45703 6.13365 4.88229 5.50919 5.50675C4.88473 6.13121 4.45947 6.92682 4.28719 7.79296C4.1149 8.65911 4.20332 9.5569 4.54128 10.3728C4.87923 11.1887 5.45154 11.886 6.18582 12.3767C6.9201 12.8673 7.78339 13.1292 8.66651 13.1292C9.85073 13.1292 10.9864 12.6587 11.8238 11.8214C12.6612 10.984 13.1316 9.84829 13.1316 8.66406Z" fill="#333333"/>
</svg>
