<svg width="16" height="16" viewBox="0 0 16 16" fill="none" xmlns="http://www.w3.org/2000/svg">
<path d="M8.00001 16C6.41776 16 4.87104 15.5308 3.55544 14.6517C2.23985 13.7727 1.21447 12.5232 0.608966 11.0614C0.00346607 9.59964 -0.15496 7.99113 0.153721 6.43928C0.462406 4.88743 1.22433 3.46197 2.34315 2.34315C3.46197 1.22433 4.88744 0.462407 6.43928 0.153721C7.99113 -0.154961 9.5997 0.00346649 11.0615 0.608967C12.5233 1.21447 13.7727 2.23985 14.6518 3.55544C15.5308 4.87104 16 6.41775 16 8C15.9976 10.121 15.154 12.1544 13.6542 13.6542C12.1545 15.154 10.121 15.9976 8.00001 16ZM8.00001 1.11628C6.63853 1.11628 5.30764 1.52001 4.17562 2.2764C3.04359 3.03279 2.16129 4.10788 1.64028 5.36572C1.11927 6.62355 0.982946 8.00764 1.24856 9.34294C1.51416 10.6782 2.16978 11.9048 3.13248 12.8675C4.09519 13.8302 5.32175 14.4858 6.65706 14.7514C7.99237 15.017 9.3765 14.8807 10.6343 14.3597C11.8921 13.8387 12.9672 12.9564 13.7236 11.8244C14.48 10.6923 14.8837 9.36144 14.8837 8C14.8818 6.17493 14.1559 4.42518 12.8654 3.13466C11.5748 1.84413 9.8251 1.11825 8.00001 1.11628ZM12.4651 8C12.4651 7.11689 12.2032 6.2536 11.7126 5.51932C11.222 4.78503 10.5246 4.21273 9.7087 3.87478C8.89284 3.53682 7.99505 3.4484 7.1289 3.62068C6.26276 3.79297 5.46715 4.21823 4.84269 4.84269C4.21823 5.46715 3.79297 6.26276 3.62069 7.1289C3.4484 7.99505 3.53682 8.89284 3.87478 9.70874C4.21273 10.5246 4.78504 11.2219 5.51932 11.7126C6.2536 12.2032 7.11689 12.4651 8.00001 12.4651C9.18423 12.4651 10.3199 11.9946 11.1573 11.1573C11.9947 10.3199 12.4651 9.18423 12.4651 8Z" fill="#BBBAB8"/>
</svg>
